<?xml version="1.0" encoding="UTF-8" standalone="no"?>
<!DOCTYPE svg PUBLIC "-//W3C//DTD SVG 1.1//EN" "http://www.w3.org/Graphics/SVG/1.1/DTD/svg11.dtd">
<svg xmlns="http://www.w3.org/2000/svg" xmlns:xl="http://www.w3.org/1999/xlink" xmlns:dc="http://purl.org/dc/elements/1.1/" version="1.1" viewBox="0 0 850.394 850.394" width="850.394" height="850.394">
  <defs>
    <marker orient="auto" overflow="visible" markerUnits="strokeWidth" id="FilledArrow_Marker" stroke-linejoin="miter" stroke-miterlimit="10" viewBox="-3 -2 4 4" markerWidth="4" markerHeight="4" color="black">
      <g>
        <path d="M -1.7641026 0 L 0 .6615385 L 0 -.6615385 Z" fill="currentColor" stroke="currentColor" stroke-width="1"/>
      </g>
    </marker>
  </defs>
  <metadata> Produced by OmniGraffle 7.9.4 
    <dc:date>2019-03-25 01:08:19 +0000</dc:date>
  </metadata>
  <g id="down_solo" stroke-opacity="1" stroke-dasharray="none" fill="none" fill-opacity="1" stroke="none">
    <title>down solo</title>
    <g id="Shared_1: Master layer">
      <title>Master layer</title>
      <g id="Graphic_10">
        <rect x="120.82123" y="197.14965" width="606.82846" height="454.742" fill="white"/>
        <rect x="120.82123" y="197.14965" width="606.82846" height="454.742" stroke="black" stroke-linecap="round" stroke-linejoin="round" stroke-width="6"/>
      </g>
      <g id="Graphic_9">
        <rect x="340.91913" y="197.14965" width="55.259895" height="454.742" fill="#942092" fill-opacity=".5"/>
        <rect x="340.91913" y="197.14965" width="55.259895" height="454.742" stroke="black" stroke-linecap="round" stroke-linejoin="round" stroke-width="2"/>
      </g>
      <g id="Graphic_5">
        <rect x="120.82123" y="197.05993" width="55.259895" height="454.742" fill="red" fill-opacity=".502393"/>
        <rect x="120.82123" y="197.05993" width="55.259895" height="454.742" stroke="black" stroke-linecap="round" stroke-linejoin="round" stroke-width="2"/>
      </g>
      <g id="Graphic_4">
        <rect x="176.08113" y="197.05993" width="55.259895" height="454.742" fill="#ff9300" fill-opacity=".4963826"/>
        <rect x="176.08113" y="197.05993" width="55.259895" height="454.742" stroke="black" stroke-linecap="round" stroke-linejoin="round" stroke-width="2"/>
      </g>
      <g id="Graphic_3">
        <rect x="230.8845" y="197.83555" width="55.259895" height="454.0241" fill="#fffc00" fill-opacity=".5"/>
        <rect x="230.8845" y="197.83555" width="55.259895" height="454.0241" stroke="black" stroke-linecap="round" stroke-linejoin="round" stroke-width="2"/>
      </g>
      <g id="Graphic_2">
        <rect x="285.2353" y="197.10512" width="55.259895" height="454.742" fill="blue" fill-opacity=".5"/>
        <rect x="285.2353" y="197.10512" width="55.259895" height="454.742" stroke="black" stroke-linecap="round" stroke-linejoin="round" stroke-width="2"/>
      </g>
      <g id="Graphic_15">
        <rect x="616.70086" y="197.2074" width="55.259895" height="454.742" fill="#942092" fill-opacity=".5"/>
        <rect x="616.70086" y="197.2074" width="55.259895" height="454.742" stroke="black" stroke-linecap="round" stroke-linejoin="round" stroke-width="2"/>
      </g>
      <g id="Graphic_14">
        <rect x="396.60296" y="197.11768" width="55.259895" height="454.742" fill="red" fill-opacity=".502393"/>
        <rect x="396.60296" y="197.11768" width="55.259895" height="454.742" stroke="black" stroke-linecap="round" stroke-linejoin="round" stroke-width="2"/>
      </g>
      <g id="Graphic_13">
        <rect x="451.86286" y="197.11768" width="55.259895" height="454.742" fill="#ff9300" fill-opacity=".496383"/>
        <rect x="451.86286" y="197.11768" width="55.259895" height="454.742" stroke="black" stroke-linecap="round" stroke-linejoin="round" stroke-width="2"/>
      </g>
      <g id="Graphic_12">
        <rect x="506.6662" y="197.83555" width="55.259895" height="454.08187" fill="#fffc00" fill-opacity=".5"/>
        <rect x="506.6662" y="197.83555" width="55.259895" height="454.08187" stroke="black" stroke-linecap="round" stroke-linejoin="round" stroke-width="2"/>
      </g>
      <g id="Graphic_11">
        <rect x="561.017" y="197.16288" width="55.259895" height="454.742" fill="blue" fill-opacity=".5"/>
        <rect x="561.017" y="197.16288" width="55.259895" height="454.742" stroke="black" stroke-linecap="round" stroke-linejoin="round" stroke-width="2"/>
      </g>
      <g id="Graphic_16">
        <rect x="672.3898" y="197.2074" width="55.259895" height="454.742" fill="red" fill-opacity=".502393"/>
        <rect x="672.3898" y="197.2074" width="55.259895" height="454.742" stroke="black" stroke-linecap="round" stroke-linejoin="round" stroke-width="2"/>
      </g>
      <g id="Graphic_17">
        <rect x="122.74431" y="198.5921" width="606.82846" height="454.742" stroke="#666" stroke-linecap="round" stroke-linejoin="round" stroke-width="9"/>
      </g>
    </g>
    <g id="down_solo: home note">
      <title>home note</title>
      <g id="Graphic_32">
        <rect x="122.74431" y="201.87079" width="55.259895" height="447.1292" fill="red"/>
        <rect x="122.74431" y="201.87079" width="55.259895" height="447.1292" stroke="black" stroke-linecap="round" stroke-linejoin="round" stroke-width="2"/>
      </g>
    </g>
    <g id="down_solo: Layer 1">
      <title>Layer 1</title>
      <g id="Graphic_24">
        <path d="M 77.7264 511.5408 L 76.18916 408.62303 L 147.41432 353.20576 L 219.15188 404.8975 L 218.12706 511.0751 Z" fill="#999"/>
        <path d="M 77.7264 511.5408 L 76.18916 408.62303 L 147.41432 353.20576 L 219.15188 404.8975 L 218.12706 511.0751 Z" stroke="black" stroke-linecap="round" stroke-linejoin="round" stroke-width="4"/>
      </g>
      <g id="Graphic_23">
        <path d="M 74.395725 423.09557 L 68.24679 422.58316 L 63.63509 413.87217 L 147.67052 344.18425 L 233.7556 414.897 L 225.55702 422.07075 L 221.97015 420.5335 L 146.13329 358.53176 L 146.13329 359.5566 Z" fill="red"/>
        <path d="M 74.395725 423.09557 L 68.24679 422.58316 L 63.63509 413.87217 L 147.67052 344.18425 L 233.7556 414.897 L 225.55702 422.07075 L 221.97015 420.5335 L 146.13329 358.53176 L 146.13329 359.5566 Z" stroke="black" stroke-linecap="round" stroke-linejoin="round" stroke-width="3"/>
      </g>
      <g id="Graphic_22">
        <path d="M 189.17583 378.3139 L 189.17583 337.321 L 211.72192 336.2962 L 211.72192 395.7359 Z" fill="#850000"/>
        <path d="M 189.17583 378.3139 L 189.17583 337.321 L 211.72192 336.2962 L 211.72192 395.7359 Z" stroke="black" stroke-linecap="round" stroke-linejoin="round" stroke-width="3"/>
      </g>
      <g id="Graphic_21">
        <path d="M 64.1475 411.62064 L 59.5358 403.93447 L 92.84253 382.4132 L 91.30529 374.72703 L 129.73613 351.1561 L 145.10847 336.8086 L 164.06768 347.56924 L 164.06768 349.10647 L 203.52334 373.1898 L 201.9861 379.85114 L 237.8549 403.42206 L 233.2432 413.6703 L 147.15811 345.0072 Z" fill="#333"/>
        <path d="M 64.1475 411.62064 L 59.5358 403.93447 L 92.84253 382.4132 L 91.30529 374.72703 L 129.73613 351.1561 L 145.10847 336.8086 L 164.06768 347.56924 L 164.06768 349.10647 L 203.52334 373.1898 L 201.9861 379.85114 L 237.8549 403.42206 L 233.2432 413.6703 L 147.15811 345.0072 Z" stroke="black" stroke-linecap="round" stroke-linejoin="round" stroke-width="3"/>
      </g>
      <g id="Graphic_20">
        <path d="M 128.4551 512.0532 L 129.99234 457.73764 L 168.93559 456.2004 L 168.93559 512.56564 Z" fill="#cb1b24"/>
        <path d="M 128.4551 512.0532 L 129.99234 457.73764 L 168.93559 456.2004 L 168.93559 512.56564 Z" stroke="black" stroke-linecap="round" stroke-linejoin="round" stroke-width="3"/>
      </g>
      <g id="Graphic_19">
        <path d="M 96.1732 445.5795 L 96.95579 419.65617 L 116.78145 418.9225 L 116.78145 445.8241 Z" fill="aqua"/>
        <path d="M 96.1732 445.5795 L 96.95579 419.65617 L 116.78145 418.9225 L 116.78145 445.8241 Z" stroke="black" stroke-linecap="round" stroke-linejoin="round" stroke-width="3"/>
      </g>
      <g id="Graphic_18">
        <path d="M 175.59693 445.5795 L 176.37953 419.65617 L 196.20518 418.9225 L 196.20518 445.8241 Z" fill="aqua"/>
        <path d="M 175.59693 445.5795 L 176.37953 419.65617 L 196.20518 418.9225 L 196.20518 445.8241 Z" stroke="black" stroke-linecap="round" stroke-linejoin="round" stroke-width="3"/>
      </g>
      <g id="Graphic_17">
        <circle cx="160.99322" cy="484.383" r="4.35550204786558" fill="#76bdff"/>
        <circle cx="160.99322" cy="484.383" r="4.35550204786558" stroke="black" stroke-linecap="round" stroke-linejoin="round" stroke-width="3"/>
      </g>
      <g id="Line_16">
        <line x1="97.71043" y1="432.1171" x2="116.4048" y2="432.3587" stroke="black" stroke-linecap="round" stroke-linejoin="round" stroke-width="1"/>
      </g>
      <g id="Line_15">
        <line x1="107.44625" y1="419.8192" x2="106.79355" y2="444.65174" stroke="black" stroke-linecap="round" stroke-linejoin="round" stroke-width="1"/>
      </g>
      <g id="Line_14">
        <line x1="176.62176" y1="434.16673" x2="195.31612" y2="434.40834" stroke="black" stroke-linecap="round" stroke-linejoin="round" stroke-width="1"/>
      </g>
      <g id="Line_13">
        <line x1="186.42559" y1="418.58127" x2="185.84516" y2="445.8241" stroke="black" stroke-linecap="round" stroke-linejoin="round" stroke-width="1"/>
      </g>
      <g id="Line_12">
        <line x1="344.78037" y1="433.5483" x2="616.2718" y2="435.16673" marker-start="url(#FilledArrow_Marker)" stroke="black" stroke-linecap="round" stroke-linejoin="round" stroke-width="39"/>
      </g>
      <g id="Group_25">
        <g id="Graphic_31">
          <path d="M 605.09146 422.76056 L 602.09146 440.76056 L 609.09146 463.76056 L 623.09146 500.76056 L 628.09146 527.76056 L 634.09146 565.76056 L 608.158 538.39335 L 588.2848 529.83863 L 579.09146 544.76056 L 591.09146 560.76056 L 603.09146 574.76056 L 612.09146 591.76056 L 631.2455 634.917 L 661.09146 650.7606 L 681.26115 669.63175 L 691.0915 694.7606 L 697.0369 718.1476 L 767.1526 710.4639 L 801.2685 689.2935 L 784.0915 661.7606 L 773.0915 630.76056 L 774.0915 604.76056 L 772.0915 580.76056 L 771.0915 567.76056 L 767.0915 542.76056 L 755.5915 526.26056 L 747.0915 519.76056 L 736.5915 523.26056 L 721.5476 512.63726 L 704.0497 516.4005 L 696.0484 517.61914 L 681.0915 512.76056 L 662.0915 525.76056 L 649.09146 481.76056 L 639.09146 450.76056 L 632.09146 436.76056 L 622.09146 424.76056 L 615.09146 419.76056 Z" fill="#ad7526"/>
          <path d="M 605.09146 422.76056 L 602.09146 440.76056 L 609.09146 463.76056 L 623.09146 500.76056 L 628.09146 527.76056 L 634.09146 565.76056 L 608.158 538.39335 L 588.2848 529.83863 L 579.09146 544.76056 L 591.09146 560.76056 L 603.09146 574.76056 L 612.09146 591.76056 L 631.2455 634.917 L 661.09146 650.7606 L 681.26115 669.63175 L 691.0915 694.7606 L 697.0369 718.1476 L 767.1526 710.4639 L 801.2685 689.2935 L 784.0915 661.7606 L 773.0915 630.76056 L 774.0915 604.76056 L 772.0915 580.76056 L 771.0915 567.76056 L 767.0915 542.76056 L 755.5915 526.26056 L 747.0915 519.76056 L 736.5915 523.26056 L 721.5476 512.63726 L 704.0497 516.4005 L 696.0484 517.61914 L 681.0915 512.76056 L 662.0915 525.76056 L 649.09146 481.76056 L 639.09146 450.76056 L 632.09146 436.76056 L 622.09146 424.76056 L 615.09146 419.76056 Z" stroke="black" stroke-linecap="round" stroke-linejoin="round" stroke-width="6"/>
        </g>
        <g id="Line_30">
          <path d="M 632.3632 550.1453 L 632.3632 550.1453 C 633.5939 560.091 635.7853 569.89404 638.90676 579.4171 L 642.5854 590.6401" stroke="black" stroke-linecap="round" stroke-linejoin="round" stroke-width="3"/>
        </g>
        <g id="Line_29">
          <path d="M 699.7344 520.826 L 702.318 530.1313 C 702.7109 531.5465 703.0517 532.97566 703.3398 534.4159 L 705.2064 543.7491" stroke="black" stroke-linecap="round" stroke-linejoin="round" stroke-width="3"/>
        </g>
        <g id="Line_28">
          <path d="M 661.09146 524.76056 L 661.1846 524.9738 C 663.1711 529.5205 664.586 534.29603 665.3968 539.19105 L 666.0657 543.2296" stroke="black" stroke-linecap="round" stroke-linejoin="round" stroke-width="3"/>
        </g>
        <g id="Line_27">
          <path d="M 736.0079 524.93425 L 736.573 526.29174 C 738.2827 530.39935 739.5302 534.6844 740.2926 539.0678 L 742.7491 553.193" stroke="black" stroke-linecap="round" stroke-linejoin="round" stroke-width="3"/>
        </g>
        <g id="Graphic_26">
          <path d="M 781.6351 678.8946 C 804.0978 680.27674 807.0977 691.4723 788.3354 703.9006 C 769.5733 716.3289 736.1541 725.2836 713.69145 723.9014 C 691.2287 722.5193 688.2289 711.3237 706.9911 698.8954 C 725.7532 686.4671 759.1725 677.51245 781.6351 678.8946" fill="black"/>
          <path d="M 781.6351 678.8946 C 804.0978 680.27674 807.0977 691.4723 788.3354 703.9006 C 769.5733 716.3289 736.1541 725.2836 713.69145 723.9014 C 691.2287 722.5193 688.2289 711.3237 706.9911 698.8954 C 725.7532 686.4671 759.1725 677.51245 781.6351 678.8946" stroke="black" stroke-linecap="round" stroke-linejoin="round" stroke-width="7"/>
        </g>
      </g>
    </g>
  </g>
</svg>
