<?xml version="1.0" encoding="UTF-8" standalone="no"?>
<!DOCTYPE svg PUBLIC "-//W3C//DTD SVG 1.1//EN" "http://www.w3.org/Graphics/SVG/1.1/DTD/svg11.dtd">
<svg xmlns="http://www.w3.org/2000/svg" xmlns:xl="http://www.w3.org/1999/xlink" xmlns:dc="http://purl.org/dc/elements/1.1/" version="1.1" viewBox="0 0 850.394 850.394" width="850.394" height="850.394">
  <defs/>
  <metadata> Produced by OmniGraffle 7.9.4 
    <dc:date>2019-03-25 01:11:02 +0000</dc:date>
  </metadata>
  <g id="home_solo" stroke-opacity="1" stroke-dasharray="none" fill="none" fill-opacity="1" stroke="none">
    <title>home solo</title>
    <g id="home_solo: Layer 1">
      <title>Layer 1</title>
      <g id="Graphic_13">
        <path d="M 195.73018 692 L 190.73895 357.8373 L 421.9992 177.9035 L 654.92316 345.7409 L 651.5957 690.48795 Z" fill="#999"/>
        <path d="M 195.73018 692 L 190.73895 357.8373 L 421.9992 177.9035 L 654.92316 345.7409 L 651.5957 690.48795 Z" stroke="black" stroke-linecap="round" stroke-linejoin="round" stroke-width="13"/>
      </g>
      <g id="Graphic_12">
        <path d="M 184.91585 405.21637 L 164.95094 403.55263 L 149.97725 375.269 L 422.83105 149 L 702.3398 378.5965 L 675.71994 401.8889 L 664.07374 396.89766 L 417.83983 195.5848 L 417.83983 198.91228 Z" fill="red"/>
        <path d="M 184.91585 405.21637 L 164.95094 403.55263 L 149.97725 375.269 L 422.83105 149 L 702.3398 378.5965 L 675.71994 401.8889 L 664.07374 396.89766 L 417.83983 195.5848 L 417.83983 198.91228 Z" stroke="black" stroke-linecap="round" stroke-linejoin="round" stroke-width="11"/>
      </g>
      <g id="Graphic_11">
        <path d="M 557.5942 259.4269 L 557.5942 126.32749 L 630.7989 123 L 630.7989 315.99415 Z" fill="#850000"/>
        <path d="M 557.5942 259.4269 L 557.5942 126.32749 L 630.7989 123 L 630.7989 315.99415 Z" stroke="black" stroke-linecap="round" stroke-linejoin="round" stroke-width="11"/>
      </g>
      <g id="Graphic_10">
        <path d="M 151.641 367.57018 L 136.66731 342.61404 L 244.81059 272.73684 L 239.81936 247.7807 L 364.60006 171.24854 L 414.51234 124.66374 L 476.0708 159.60234 L 476.0708 164.59357 L 604.179 242.78947 L 599.1878 264.41813 L 715.6498 340.9503 L 700.6761 374.22515 L 421.1673 151.28363 Z" fill="#333"/>
        <path d="M 151.641 367.57018 L 136.66731 342.61404 L 244.81059 272.73684 L 239.81936 247.7807 L 364.60006 171.24854 L 414.51234 124.66374 L 476.0708 159.60234 L 476.0708 164.59357 L 604.179 242.78947 L 599.1878 264.41813 L 715.6498 340.9503 L 700.6761 374.22515 L 421.1673 151.28363 Z" stroke="black" stroke-linecap="round" stroke-linejoin="round" stroke-width="11"/>
      </g>
      <g id="Graphic_9">
        <path d="M 360.4407 690.3665 L 365.55713 517.21627 L 495.17326 512.3158 L 495.17326 692 Z" fill="#cb1b24"/>
        <path d="M 360.4407 690.3665 L 365.55713 517.21627 L 495.17326 512.3158 L 495.17326 692 Z" stroke="black" stroke-linecap="round" stroke-linejoin="round" stroke-width="10"/>
      </g>
      <g id="Graphic_8">
        <path d="M 255.6249 477.83094 L 258.1659 393.6607 L 322.5376 391.2785 L 322.5376 478.625 Z" fill="aqua"/>
        <path d="M 255.6249 477.83094 L 258.1659 393.6607 L 322.5376 391.2785 L 322.5376 478.625 Z" stroke="black" stroke-linecap="round" stroke-linejoin="round" stroke-width="9"/>
      </g>
      <g id="Graphic_7">
        <path d="M 513.505 477.83094 L 516.046 393.6607 L 580.41774 391.2785 L 580.41774 478.625 Z" fill="aqua"/>
        <path d="M 513.505 477.83094 L 516.046 393.6607 L 580.41774 391.2785 L 580.41774 478.625 Z" stroke="black" stroke-linecap="round" stroke-linejoin="round" stroke-width="9"/>
      </g>
      <g id="Graphic_6">
        <circle cx="466.08836" cy="603.82164" r="14.1418354627266" fill="#76bdff"/>
        <circle cx="466.08836" cy="603.82164" r="14.1418354627266" stroke="black" stroke-linecap="round" stroke-linejoin="round" stroke-width="6"/>
      </g>
      <g id="Line_5">
        <line x1="260.61614" y1="434.1199" x2="321.3147" y2="434.90436" stroke="black" stroke-linecap="round" stroke-linejoin="round" stroke-width="10"/>
      </g>
      <g id="Line_4">
        <line x1="292.22725" y1="394.19006" x2="290.108" y2="474.7722" stroke="black" stroke-linecap="round" stroke-linejoin="round" stroke-width="10"/>
      </g>
      <g id="Line_3">
        <line x1="516.8325" y1="440.77485" x2="577.53106" y2="441.55933" stroke="black" stroke-linecap="round" stroke-linejoin="round" stroke-width="10"/>
      </g>
      <g id="Line_2">
        <line x1="550.5122" y1="393.50073" x2="547.7778" y2="475.66667" stroke="black" stroke-linecap="round" stroke-linejoin="round" stroke-width="10"/>
      </g>
    </g>
  </g>
</svg>
