<?xml version="1.0" encoding="UTF-8" standalone="no"?>
<!DOCTYPE svg PUBLIC "-//W3C//DTD SVG 1.1//EN" "http://www.w3.org/Graphics/SVG/1.1/DTD/svg11.dtd">
<svg xmlns:dc="http://purl.org/dc/elements/1.1/" xmlns:xl="http://www.w3.org/1999/xlink" version="1.1" xmlns="http://www.w3.org/2000/svg" viewBox="0 0 850.394 850.394" width="850.394" height="850.394">
  <defs/>
  <metadata> Produced by OmniGraffle 7.9.4 
    <dc:date>2019-08-05 00:29:16 +0000</dc:date>
  </metadata>
  <g id="long_solo" fill="none" stroke-opacity="1" stroke="none" stroke-dasharray="none" fill-opacity="1">
    <title>long solo</title>
    <g id="Shared_1: Master layer">
      <title>Master layer</title>
      <g id="Graphic_10">
        <rect x="120.82123" y="197.14965" width="606.82846" height="454.742" fill="white"/>
        <rect x="120.82123" y="197.14965" width="606.82846" height="454.742" stroke="black" stroke-linecap="round" stroke-linejoin="round" stroke-width="6"/>
      </g>
      <g id="Graphic_9">
        <rect x="340.91913" y="197.14965" width="55.259895" height="454.742" fill="#ccc"/>
        <rect x="340.91913" y="197.14965" width="55.259895" height="454.742" stroke="black" stroke-linecap="round" stroke-linejoin="round" stroke-width="2"/>
      </g>
      <g id="Graphic_5">
        <rect x="120.82123" y="197.05993" width="55.259895" height="454.742" fill="red" fill-opacity=".502393"/>
        <rect x="120.82123" y="197.05993" width="55.259895" height="454.742" stroke="black" stroke-linecap="round" stroke-linejoin="round" stroke-width="2"/>
      </g>
      <g id="Graphic_4">
        <rect x="176.08113" y="197.05993" width="55.259895" height="454.742" fill="#666"/>
        <rect x="176.08113" y="197.05993" width="55.259895" height="454.742" stroke="black" stroke-linecap="round" stroke-linejoin="round" stroke-width="2"/>
      </g>
      <g id="Graphic_3">
        <rect x="230.8845" y="197.83555" width="55.259895" height="454.0241" fill="#999"/>
        <rect x="230.8845" y="197.83555" width="55.259895" height="454.0241" stroke="black" stroke-linecap="round" stroke-linejoin="round" stroke-width="2"/>
      </g>
      <g id="Graphic_2">
        <rect x="285.2353" y="197.10512" width="55.259895" height="454.742" fill="#999"/>
        <rect x="285.2353" y="197.10512" width="55.259895" height="454.742" stroke="black" stroke-linecap="round" stroke-linejoin="round" stroke-width="2"/>
      </g>
      <g id="Graphic_15">
        <rect x="616.70086" y="197.2074" width="55.259895" height="454.742" fill="white"/>
        <rect x="616.70086" y="197.2074" width="55.259895" height="454.742" stroke="black" stroke-linecap="round" stroke-linejoin="round" stroke-width="2"/>
      </g>
      <g id="Graphic_14">
        <rect x="396.60296" y="197.11768" width="55.259895" height="454.742" fill="red" fill-opacity=".502393"/>
        <rect x="396.60296" y="197.11768" width="55.259895" height="454.742" stroke="black" stroke-linecap="round" stroke-linejoin="round" stroke-width="2"/>
      </g>
      <g id="Graphic_13">
        <rect x="451.86286" y="197.11768" width="55.259895" height="454.742" fill="#666"/>
        <rect x="451.86286" y="197.11768" width="55.259895" height="454.742" stroke="black" stroke-linecap="round" stroke-linejoin="round" stroke-width="2"/>
      </g>
      <g id="Graphic_12">
        <rect x="506.6662" y="197.83555" width="55.259895" height="454.08187" fill="#999"/>
        <rect x="506.6662" y="197.83555" width="55.259895" height="454.08187" stroke="black" stroke-linecap="round" stroke-linejoin="round" stroke-width="2"/>
      </g>
      <g id="Graphic_11">
        <rect x="561.017" y="197.16288" width="55.259895" height="454.742" fill="#ccc"/>
        <rect x="561.017" y="197.16288" width="55.259895" height="454.742" stroke="black" stroke-linecap="round" stroke-linejoin="round" stroke-width="2"/>
      </g>
      <g id="Graphic_16">
        <rect x="672.3898" y="197.2074" width="55.259895" height="454.742" fill="red" fill-opacity=".502393"/>
        <rect x="672.3898" y="197.2074" width="55.259895" height="454.742" stroke="black" stroke-linecap="round" stroke-linejoin="round" stroke-width="2"/>
      </g>
      <g id="Graphic_17">
        <rect x="118.89065" y="197.05993" width="606.82846" height="454.742" stroke="#666" stroke-linecap="round" stroke-linejoin="round" stroke-width="9"/>
      </g>
    </g>
    <g id="long_solo: home note">
      <title>home note</title>
      <g id="Graphic_155">
        <path d="M 445.19756 589.5975 L 399.75 589.5975 L 399.75 377.19336 L 372.56094 377.19336 L 422.4738 260.3209 L 472.3866 377.19336 L 445.19756 377.19336 Z" fill="red"/>
        <path d="M 445.19756 589.5975 L 399.75 589.5975 L 399.75 377.19336 L 372.56094 377.19336 L 422.4738 260.3209 L 472.3866 377.19336 L 445.19756 377.19336 Z" stroke="black" stroke-linecap="round" stroke-linejoin="round" stroke-width="17"/>
      </g>
      <g id="Graphic_156">
        <path d="M 613.40085 589.5975 L 561.67925 589.5975 L 561.67925 378.09867 L 533.90413 378.09867 L 587.54005 248 L 641.17596 378.09867 L 613.40085 378.09867 Z" fill="#4040ff"/>
        <path d="M 613.40085 589.5975 L 561.67925 589.5975 L 561.67925 378.09867 L 533.90413 378.09867 L 587.54005 248 L 641.17596 378.09867 L 613.40085 378.09867 Z" stroke="black" stroke-linecap="round" stroke-linejoin="round" stroke-width="17"/>
      </g>
      <g id="Graphic_157">
        <path d="M 284.63143 591 L 230.1836 591 L 230.1836 376.14453 L 207.28986 376.14453 L 257.4075 260.3209 L 307.52516 376.14453 L 284.63143 376.14453 Z" fill="#ffff40"/>
        <path d="M 284.63143 591 L 230.1836 591 L 230.1836 376.14453 L 207.28986 376.14453 L 257.4075 260.3209 L 307.52516 376.14453 L 284.63143 376.14453 Z" stroke="black" stroke-linecap="round" stroke-linejoin="round" stroke-width="17"/>
      </g>
    </g>
    <g id="long_solo: Layer 2">
      <title>Layer 2</title>
      <g id="Group_138">
        <g id="Graphic_144">
          <path d="M 254.83846 344.76056 L 251.83846 362.76056 L 258.83846 385.76056 L 272.83846 422.76056 L 277.83846 449.76056 L 283.83846 487.76056 L 257.905 460.39335 L 238.0318 451.83863 L 228.83846 466.76056 L 240.83846 482.76056 L 252.83846 496.76056 L 261.83846 513.76056 L 280.9925 556.917 L 310.83846 572.76056 L 331.00814 591.63175 L 340.83846 616.76056 L 346.78387 640.1476 L 416.8996 632.4639 L 451.01554 611.2935 L 433.83846 583.76056 L 422.83846 552.76056 L 423.83846 526.76056 L 421.83846 502.76056 L 420.83846 489.76056 L 416.83846 464.76056 L 405.33846 448.26056 L 396.83846 441.76056 L 386.33846 445.26056 L 371.29463 434.63726 L 353.7967 438.4005 L 345.7954 439.61914 L 330.83846 434.76056 L 311.83846 447.76056 L 298.83846 403.76056 L 288.83846 372.76056 L 281.83846 358.76056 L 271.83846 346.76056 L 264.83846 341.76056 Z" fill="#ad7526"/>
          <path d="M 254.83846 344.76056 L 251.83846 362.76056 L 258.83846 385.76056 L 272.83846 422.76056 L 277.83846 449.76056 L 283.83846 487.76056 L 257.905 460.39335 L 238.0318 451.83863 L 228.83846 466.76056 L 240.83846 482.76056 L 252.83846 496.76056 L 261.83846 513.76056 L 280.9925 556.917 L 310.83846 572.76056 L 331.00814 591.63175 L 340.83846 616.76056 L 346.78387 640.1476 L 416.8996 632.4639 L 451.01554 611.2935 L 433.83846 583.76056 L 422.83846 552.76056 L 423.83846 526.76056 L 421.83846 502.76056 L 420.83846 489.76056 L 416.83846 464.76056 L 405.33846 448.26056 L 396.83846 441.76056 L 386.33846 445.26056 L 371.29463 434.63726 L 353.7967 438.4005 L 345.7954 439.61914 L 330.83846 434.76056 L 311.83846 447.76056 L 298.83846 403.76056 L 288.83846 372.76056 L 281.83846 358.76056 L 271.83846 346.76056 L 264.83846 341.76056 Z" stroke="black" stroke-linecap="round" stroke-linejoin="round" stroke-width="6"/>
        </g>
        <g id="Line_143">
          <path d="M 282.11023 472.14527 L 282.11023 472.14527 C 283.3409 482.091 285.5323 491.89404 288.65376 501.41707 L 292.33243 512.6401" stroke="black" stroke-linecap="round" stroke-linejoin="round" stroke-width="3"/>
        </g>
        <g id="Line_142">
          <path d="M 349.4814 442.826 L 352.06496 452.1313 C 352.4579 453.5465 352.7987 454.97566 353.08676 456.4159 L 354.9534 465.74907" stroke="black" stroke-linecap="round" stroke-linejoin="round" stroke-width="3"/>
        </g>
        <g id="Line_141">
          <path d="M 310.83846 446.76056 L 310.93162 446.9738 C 312.91813 451.5205 314.333 456.29603 315.1438 461.19105 L 315.81273 465.2296" stroke="black" stroke-linecap="round" stroke-linejoin="round" stroke-width="3"/>
        </g>
        <g id="Line_140">
          <path d="M 385.7549 446.93425 L 386.31996 448.29174 C 388.0297 452.39935 389.27723 456.6844 390.03956 461.0678 L 392.4961 475.193" stroke="black" stroke-linecap="round" stroke-linejoin="round" stroke-width="3"/>
        </g>
        <g id="Graphic_139">
          <path d="M 431.3821 600.8946 C 453.84483 602.27674 456.84467 613.4723 438.08243 625.9006 C 419.3203 638.3289 385.90108 647.2836 363.43845 645.9014 C 340.9757 644.5193 337.97588 633.3237 356.7381 620.8954 C 375.50023 608.4671 408.91947 599.51245 431.3821 600.8946" fill="black"/>
          <path d="M 431.3821 600.8946 C 453.84483 602.27674 456.84467 613.4723 438.08243 625.9006 C 419.3203 638.3289 385.90108 647.2836 363.43845 645.9014 C 340.9757 644.5193 337.97588 633.3237 356.7381 620.8954 C 375.50023 608.4671 408.91947 599.51245 431.3821 600.8946" stroke="black" stroke-linecap="round" stroke-linejoin="round" stroke-width="7"/>
        </g>
      </g>
    </g>
  </g>
</svg>
