<?xml version="1.0" encoding="UTF-8" standalone="no"?>
<!DOCTYPE svg PUBLIC "-//W3C//DTD SVG 1.1//EN" "http://www.w3.org/Graphics/SVG/1.1/DTD/svg11.dtd">
<svg xmlns:dc="http://purl.org/dc/elements/1.1/" xmlns:xl="http://www.w3.org/1999/xlink" version="1.1" xmlns="http://www.w3.org/2000/svg" viewBox="0 0 850.394 850.394" width="850.394" height="850.394">
  <defs/>
  <metadata> Produced by OmniGraffle 7.9.4 
    <dc:date>2019-08-05 00:59:43 +0000</dc:date>
  </metadata>
  <g id="loud" fill="none" stroke-opacity="1" stroke="none" stroke-dasharray="none" fill-opacity="1">
    <title>loud</title>
    <g id="Shared_1: Master layer">
      <title>Master layer</title>
      <g id="Graphic_10">
        <rect x="120.82123" y="197.14965" width="606.82846" height="454.742" fill="white"/>
        <rect x="120.82123" y="197.14965" width="606.82846" height="454.742" stroke="black" stroke-linecap="round" stroke-linejoin="round" stroke-width="6"/>
      </g>
      <g id="Graphic_9">
        <rect x="340.91913" y="197.14965" width="55.259895" height="454.742" fill="#ccc"/>
        <rect x="340.91913" y="197.14965" width="55.259895" height="454.742" stroke="black" stroke-linecap="round" stroke-linejoin="round" stroke-width="2"/>
      </g>
      <g id="Graphic_5">
        <rect x="120.82123" y="197.05993" width="55.259895" height="454.742" fill="red" fill-opacity=".502393"/>
        <rect x="120.82123" y="197.05993" width="55.259895" height="454.742" stroke="black" stroke-linecap="round" stroke-linejoin="round" stroke-width="2"/>
      </g>
      <g id="Graphic_4">
        <rect x="176.08113" y="197.05993" width="55.259895" height="454.742" fill="#666"/>
        <rect x="176.08113" y="197.05993" width="55.259895" height="454.742" stroke="black" stroke-linecap="round" stroke-linejoin="round" stroke-width="2"/>
      </g>
      <g id="Graphic_3">
        <rect x="230.8845" y="197.83555" width="55.259895" height="454.0241" fill="#999"/>
        <rect x="230.8845" y="197.83555" width="55.259895" height="454.0241" stroke="black" stroke-linecap="round" stroke-linejoin="round" stroke-width="2"/>
      </g>
      <g id="Graphic_2">
        <rect x="285.2353" y="197.10512" width="55.259895" height="454.742" fill="#999"/>
        <rect x="285.2353" y="197.10512" width="55.259895" height="454.742" stroke="black" stroke-linecap="round" stroke-linejoin="round" stroke-width="2"/>
      </g>
      <g id="Graphic_15">
        <rect x="616.70086" y="197.2074" width="55.259895" height="454.742" fill="white"/>
        <rect x="616.70086" y="197.2074" width="55.259895" height="454.742" stroke="black" stroke-linecap="round" stroke-linejoin="round" stroke-width="2"/>
      </g>
      <g id="Graphic_14">
        <rect x="396.60296" y="197.11768" width="55.259895" height="454.742" fill="red" fill-opacity=".502393"/>
        <rect x="396.60296" y="197.11768" width="55.259895" height="454.742" stroke="black" stroke-linecap="round" stroke-linejoin="round" stroke-width="2"/>
      </g>
      <g id="Graphic_13">
        <rect x="451.86286" y="197.11768" width="55.259895" height="454.742" fill="#666"/>
        <rect x="451.86286" y="197.11768" width="55.259895" height="454.742" stroke="black" stroke-linecap="round" stroke-linejoin="round" stroke-width="2"/>
      </g>
      <g id="Graphic_12">
        <rect x="506.6662" y="197.83555" width="55.259895" height="454.08187" fill="#999"/>
        <rect x="506.6662" y="197.83555" width="55.259895" height="454.08187" stroke="black" stroke-linecap="round" stroke-linejoin="round" stroke-width="2"/>
      </g>
      <g id="Graphic_11">
        <rect x="561.017" y="197.16288" width="55.259895" height="454.742" fill="#ccc"/>
        <rect x="561.017" y="197.16288" width="55.259895" height="454.742" stroke="black" stroke-linecap="round" stroke-linejoin="round" stroke-width="2"/>
      </g>
      <g id="Graphic_16">
        <rect x="672.3898" y="197.2074" width="55.259895" height="454.742" fill="red" fill-opacity=".502393"/>
        <rect x="672.3898" y="197.2074" width="55.259895" height="454.742" stroke="black" stroke-linecap="round" stroke-linejoin="round" stroke-width="2"/>
      </g>
      <g id="Graphic_17">
        <rect x="118.89065" y="197.05993" width="606.82846" height="454.742" stroke="#666" stroke-linecap="round" stroke-linejoin="round" stroke-width="9"/>
      </g>
    </g>
    <g id="loud: home note">
      <title>home note</title>
      <g id="Graphic_206">
        <path d="M 35.524133 52.1263 L 154.0217 15.89796 L 235.65715 239.27044 L 92.43245 283.05862 Z" fill="#7d1f20"/>
        <path d="M 35.524133 52.1263 L 154.0217 15.89796 L 235.65715 239.27044 L 92.43245 283.05862 Z" stroke="black" stroke-linecap="round" stroke-linejoin="round" stroke-width="9"/>
      </g>
      <g id="Graphic_205">
        <circle cx="141.90307" cy="183.92173" r="52.2518865590282" fill="#ccc"/>
        <circle cx="141.90307" cy="183.92173" r="52.2518865590282" stroke="black" stroke-linecap="round" stroke-linejoin="round" stroke-width="6"/>
      </g>
      <g id="Graphic_204">
        <circle cx="142.2858" cy="185.17358" r="22.1631438789071" fill="#8a2223"/>
        <circle cx="142.2858" cy="185.17358" r="22.1631438789071" stroke="black" stroke-linecap="round" stroke-linejoin="round" stroke-width="5"/>
      </g>
      <g id="Graphic_203">
        <circle cx="112.27732" cy="87.02027" r="28.6615705364036" fill="#ccc"/>
        <circle cx="112.27732" cy="87.02027" r="28.6615705364036" stroke="black" stroke-linecap="round" stroke-linejoin="round" stroke-width="6"/>
      </g>
      <g id="Graphic_202">
        <circle cx="112.48726" cy="87.70694" r="12.1570828045825" fill="#a5a5a5"/>
        <circle cx="112.48726" cy="87.70694" r="12.1570828045825" stroke="black" stroke-linecap="round" stroke-linejoin="round" stroke-width="5"/>
      </g>
      <g id="Graphic_179">
        <rect x="340.91913" y="197.0761" width="55.259895" height="81.91351" fill="white"/>
        <rect x="340.91913" y="197.0761" width="55.259895" height="81.91351" stroke="black" stroke-linecap="round" stroke-linejoin="round" stroke-width="2"/>
      </g>
      <g id="Graphic_178">
        <rect x="120.82123" y="197.05993" width="55.259895" height="81.91351" fill="white"/>
        <rect x="120.82123" y="197.05993" width="55.259895" height="81.91351" stroke="black" stroke-linecap="round" stroke-linejoin="round" stroke-width="2"/>
      </g>
      <g id="Graphic_177">
        <rect x="176.08113" y="197.05993" width="55.259895" height="81.91351" fill="white"/>
        <rect x="176.08113" y="197.05993" width="55.259895" height="81.91351" stroke="black" stroke-linecap="round" stroke-linejoin="round" stroke-width="2"/>
      </g>
      <g id="Graphic_176">
        <rect x="230.8845" y="197.19964" width="55.259895" height="81.7842" fill="white"/>
        <rect x="230.8845" y="197.19964" width="55.259895" height="81.7842" stroke="black" stroke-linecap="round" stroke-linejoin="round" stroke-width="2"/>
      </g>
      <g id="Graphic_175">
        <rect x="285.2353" y="197.06807" width="55.259895" height="81.91351" fill="white"/>
        <rect x="285.2353" y="197.06807" width="55.259895" height="81.91351" stroke="black" stroke-linecap="round" stroke-linejoin="round" stroke-width="2"/>
      </g>
      <g id="Graphic_174">
        <rect x="616.70086" y="197.0865" width="55.259895" height="81.91351" fill="white"/>
        <rect x="616.70086" y="197.0865" width="55.259895" height="81.91351" stroke="black" stroke-linecap="round" stroke-linejoin="round" stroke-width="2"/>
      </g>
      <g id="Graphic_173">
        <rect x="396.60296" y="197.07033" width="55.259895" height="81.91351" fill="white"/>
        <rect x="396.60296" y="197.07033" width="55.259895" height="81.91351" stroke="black" stroke-linecap="round" stroke-linejoin="round" stroke-width="2"/>
      </g>
      <g id="Graphic_172">
        <rect x="451.86286" y="197.07033" width="55.259895" height="81.91351" fill="white"/>
        <rect x="451.86286" y="197.07033" width="55.259895" height="81.91351" stroke="black" stroke-linecap="round" stroke-linejoin="round" stroke-width="2"/>
      </g>
      <g id="Graphic_171">
        <rect x="506.6662" y="197.19964" width="55.259895" height="81.7946" fill="white"/>
        <rect x="506.6662" y="197.19964" width="55.259895" height="81.7946" stroke="black" stroke-linecap="round" stroke-linejoin="round" stroke-width="2"/>
      </g>
      <g id="Graphic_170">
        <rect x="561.017" y="197.07847" width="55.259895" height="81.91351" fill="white"/>
        <rect x="561.017" y="197.07847" width="55.259895" height="81.91351" stroke="black" stroke-linecap="round" stroke-linejoin="round" stroke-width="2"/>
      </g>
      <g id="Graphic_169">
        <rect x="672.3898" y="197.0865" width="55.259895" height="81.91351" fill="white"/>
        <rect x="672.3898" y="197.0865" width="55.259895" height="81.91351" stroke="black" stroke-linecap="round" stroke-linejoin="round" stroke-width="2"/>
      </g>
      <g id="Line_207">
        <path d="M 182 171.5 L 200.27695 149.42892 C 207.3032 140.9441 219.86787 139.73877 228.37903 146.73308 L 245.5941 160.8801 C 254.1279 167.89304 266.73104 166.66012 273.74398 158.1263 C 274.33265 157.40997 274.8708 156.65356 275.35452 155.86256 L 278.7355 150.33392 C 284.4982 140.91062 296.8089 137.94313 306.2322 143.70584 C 307.9003 144.72595 309.4098 145.98516 310.7125 147.44328 L 314.91023 152.1418 C 322.2694 160.3789 334.9127 161.09062 343.1498 153.73146 C 345.17565 151.92153 346.81154 149.71786 347.9577 147.25487 L 357.9973 125.68031 C 362.6575 115.66583 374.55367 111.32531 384.56816 115.98551 C 387.30373 117.25849 389.7158 119.13392 391.6238 121.47133 L 416.2483 151.63846 C 423.23307 160.19537 435.83207 161.46985 444.389 154.4851 C 445.0795 153.92143 445.7316 153.31221 446.3409 152.66154 L 481.60394 115.00251 C 489.1537 106.93975 501.8102 106.5239 509.87295 114.07368 C 511.70354 115.7878 513.1954 117.83091 514.2708 120.09648 L 530.1112 153.46866 C 534.8477 163.4473 546.7766 167.69694 556.7553 162.96048 C 560.5398 161.16411 563.6647 158.2247 565.6891 154.55705 L 616.2769 62.903226" stroke="black" stroke-linecap="round" stroke-linejoin="round" stroke-width="17"/>
      </g>
    </g>
    <g id="loud: Layer 2">
      <title>Layer 2</title>
      <g id="Group_138">
        <g id="Graphic_144">
          <path d="M 412.77092 279.76796 L 409.77092 297.76796 L 416.77092 320.76796 L 430.7709 357.76796 L 435.7709 384.76796 L 441.7709 422.76796 L 415.8375 395.40075 L 395.96427 386.84603 L 386.77092 401.76796 L 398.77092 417.76796 L 410.77092 431.76796 L 419.7709 448.76796 L 438.925 491.9244 L 468.7709 507.76796 L 488.9406 526.63915 L 498.7709 551.76796 L 504.71634 575.155 L 574.8321 567.4713 L 608.948 546.3009 L 591.7709 518.76796 L 580.7709 487.76796 L 581.7709 461.76796 L 579.7709 437.76796 L 578.7709 424.76796 L 574.7709 399.76796 L 563.2709 383.26796 L 554.7709 376.76796 L 544.2709 380.26796 L 529.2271 369.64467 L 511.72915 373.4079 L 503.72785 374.62654 L 488.7709 369.76796 L 469.7709 382.76796 L 456.7709 338.76796 L 446.7709 307.76796 L 439.7709 293.76796 L 429.7709 281.76796 L 422.7709 276.76796 Z" fill="#ad7526"/>
          <path d="M 412.77092 279.76796 L 409.77092 297.76796 L 416.77092 320.76796 L 430.7709 357.76796 L 435.7709 384.76796 L 441.7709 422.76796 L 415.8375 395.40075 L 395.96427 386.84603 L 386.77092 401.76796 L 398.77092 417.76796 L 410.77092 431.76796 L 419.7709 448.76796 L 438.925 491.9244 L 468.7709 507.76796 L 488.9406 526.63915 L 498.7709 551.76796 L 504.71634 575.155 L 574.8321 567.4713 L 608.948 546.3009 L 591.7709 518.76796 L 580.7709 487.76796 L 581.7709 461.76796 L 579.7709 437.76796 L 578.7709 424.76796 L 574.7709 399.76796 L 563.2709 383.26796 L 554.7709 376.76796 L 544.2709 380.26796 L 529.2271 369.64467 L 511.72915 373.4079 L 503.72785 374.62654 L 488.7709 369.76796 L 469.7709 382.76796 L 456.7709 338.76796 L 446.7709 307.76796 L 439.7709 293.76796 L 429.7709 281.76796 L 422.7709 276.76796 Z" stroke="black" stroke-linecap="round" stroke-linejoin="round" stroke-width="6"/>
        </g>
        <g id="Line_143">
          <path d="M 440.0427 407.15267 L 440.0427 407.15267 C 441.27335 417.09837 443.46477 426.90144 446.5862 436.42447 L 450.2649 447.6475" stroke="black" stroke-linecap="round" stroke-linejoin="round" stroke-width="3"/>
        </g>
        <g id="Line_142">
          <path d="M 507.41385 377.8334 L 509.9974 387.13868 C 510.39035 388.5539 510.7312 389.98306 511.01923 391.4233 L 512.88587 400.75647" stroke="black" stroke-linecap="round" stroke-linejoin="round" stroke-width="3"/>
        </g>
        <g id="Line_141">
          <path d="M 468.7709 381.76796 L 468.8641 381.9812 C 470.8506 386.5279 472.26545 391.30344 473.07626 396.19845 L 473.7452 400.237" stroke="black" stroke-linecap="round" stroke-linejoin="round" stroke-width="3"/>
        </g>
        <g id="Line_140">
          <path d="M 543.6874 381.94165 L 544.2524 383.29915 C 545.96216 387.40675 547.2097 391.6918 547.972 396.07522 L 550.4286 410.2004" stroke="black" stroke-linecap="round" stroke-linejoin="round" stroke-width="3"/>
        </g>
        <g id="Graphic_139">
          <path d="M 589.3146 535.902 C 611.7773 537.28415 614.7771 548.4797 596.0149 560.908 C 577.2528 573.3363 543.83354 582.291 521.3709 580.9088 C 498.9082 579.5267 495.90835 568.33114 514.6706 555.9028 C 533.4327 543.4745 566.85194 534.51985 589.3146 535.902" fill="black"/>
          <path d="M 589.3146 535.902 C 611.7773 537.28415 614.7771 548.4797 596.0149 560.908 C 577.2528 573.3363 543.83354 582.291 521.3709 580.9088 C 498.9082 579.5267 495.90835 568.33114 514.6706 555.9028 C 533.4327 543.4745 566.85194 534.51985 589.3146 535.902" stroke="black" stroke-linecap="round" stroke-linejoin="round" stroke-width="7"/>
        </g>
      </g>
    </g>
  </g>
</svg>
