<?xml version="1.0" encoding="UTF-8" standalone="no"?>
<!DOCTYPE svg PUBLIC "-//W3C//DTD SVG 1.1//EN" "http://www.w3.org/Graphics/SVG/1.1/DTD/svg11.dtd">
<svg xmlns="http://www.w3.org/2000/svg" xmlns:xl="http://www.w3.org/1999/xlink" xmlns:dc="http://purl.org/dc/elements/1.1/" version="1.1" viewBox="0 0 850.394 850.394" width="850.394" height="850.394">
  <defs/>
  <metadata> Produced by OmniGraffle 7.9.4 
    <dc:date>2019-03-25 01:01:00 +0000</dc:date>
  </metadata>
  <g id="on_the_beat_solo" stroke-opacity="1" stroke-dasharray="none" fill="none" fill-opacity="1" stroke="none">
    <title>on the beat solo</title>
    <g id="Shared_1: Master layer">
      <title>Master layer</title>
      <g id="Graphic_10">
        <rect x="120.82123" y="197.14965" width="606.82846" height="454.742" fill="white"/>
        <rect x="120.82123" y="197.14965" width="606.82846" height="454.742" stroke="black" stroke-linecap="round" stroke-linejoin="round" stroke-width="6"/>
      </g>
      <g id="Graphic_9">
        <rect x="340.91913" y="197.14965" width="55.259895" height="454.742" fill="#942092" fill-opacity=".5"/>
        <rect x="340.91913" y="197.14965" width="55.259895" height="454.742" stroke="black" stroke-linecap="round" stroke-linejoin="round" stroke-width="2"/>
      </g>
      <g id="Graphic_5">
        <rect x="120.82123" y="197.05993" width="55.259895" height="454.742" fill="red" fill-opacity=".502393"/>
        <rect x="120.82123" y="197.05993" width="55.259895" height="454.742" stroke="black" stroke-linecap="round" stroke-linejoin="round" stroke-width="2"/>
      </g>
      <g id="Graphic_4">
        <rect x="176.08113" y="197.05993" width="55.259895" height="454.742" fill="#ff9300" fill-opacity=".4963826"/>
        <rect x="176.08113" y="197.05993" width="55.259895" height="454.742" stroke="black" stroke-linecap="round" stroke-linejoin="round" stroke-width="2"/>
      </g>
      <g id="Graphic_3">
        <rect x="230.8845" y="197.83555" width="55.259895" height="454.0241" fill="#fffc00" fill-opacity=".5"/>
        <rect x="230.8845" y="197.83555" width="55.259895" height="454.0241" stroke="black" stroke-linecap="round" stroke-linejoin="round" stroke-width="2"/>
      </g>
      <g id="Graphic_2">
        <rect x="285.2353" y="197.10512" width="55.259895" height="454.742" fill="blue" fill-opacity=".5"/>
        <rect x="285.2353" y="197.10512" width="55.259895" height="454.742" stroke="black" stroke-linecap="round" stroke-linejoin="round" stroke-width="2"/>
      </g>
      <g id="Graphic_15">
        <rect x="616.70086" y="197.2074" width="55.259895" height="454.742" fill="#942092" fill-opacity=".5"/>
        <rect x="616.70086" y="197.2074" width="55.259895" height="454.742" stroke="black" stroke-linecap="round" stroke-linejoin="round" stroke-width="2"/>
      </g>
      <g id="Graphic_14">
        <rect x="396.60296" y="197.11768" width="55.259895" height="454.742" fill="red" fill-opacity=".502393"/>
        <rect x="396.60296" y="197.11768" width="55.259895" height="454.742" stroke="black" stroke-linecap="round" stroke-linejoin="round" stroke-width="2"/>
      </g>
      <g id="Graphic_13">
        <rect x="451.86286" y="197.11768" width="55.259895" height="454.742" fill="#ff9300" fill-opacity=".496383"/>
        <rect x="451.86286" y="197.11768" width="55.259895" height="454.742" stroke="black" stroke-linecap="round" stroke-linejoin="round" stroke-width="2"/>
      </g>
      <g id="Graphic_12">
        <rect x="506.6662" y="197.83555" width="55.259895" height="454.08187" fill="#fffc00" fill-opacity=".5"/>
        <rect x="506.6662" y="197.83555" width="55.259895" height="454.08187" stroke="black" stroke-linecap="round" stroke-linejoin="round" stroke-width="2"/>
      </g>
      <g id="Graphic_11">
        <rect x="561.017" y="197.16288" width="55.259895" height="454.742" fill="blue" fill-opacity=".5"/>
        <rect x="561.017" y="197.16288" width="55.259895" height="454.742" stroke="black" stroke-linecap="round" stroke-linejoin="round" stroke-width="2"/>
      </g>
      <g id="Graphic_16">
        <rect x="672.3898" y="197.2074" width="55.259895" height="454.742" fill="red" fill-opacity=".502393"/>
        <rect x="672.3898" y="197.2074" width="55.259895" height="454.742" stroke="black" stroke-linecap="round" stroke-linejoin="round" stroke-width="2"/>
      </g>
      <g id="Graphic_17">
        <rect x="122.74431" y="198.5921" width="606.82846" height="454.742" stroke="#666" stroke-linecap="round" stroke-linejoin="round" stroke-width="9"/>
      </g>
    </g>
    <g id="on_the_beat_solo: Layer 1">
      <title>Layer 1</title>
      <g id="Line_14">
        <line x1="418" y1="440.29987" x2="584.2034" y2="274.0965" stroke="black" stroke-linecap="round" stroke-linejoin="round" stroke-width="3"/>
      </g>
      <g id="Line_13">
        <line x1="385.01023" y1="433.585" x2="385.01023" y2="221.6715" stroke="black" stroke-linecap="round" stroke-linejoin="round" stroke-width="3"/>
      </g>
      <g id="Graphic_3">
        <path d="M 598.7607 675.6558 C 705.76795 698.3129 705.76795 735.0471 598.7607 757.7042 C 491.754 780.3613 318.262 780.3613 211.2553 757.7042 C 104.24805 735.0471 104.24805 698.3129 211.2553 675.6558 C 318.262 652.9987 491.754 652.9987 598.7607 675.6558" fill="#a5a5a5"/>
        <path d="M 598.7607 675.6558 C 705.76795 698.3129 705.76795 735.0471 598.7607 757.7042 C 491.754 780.3613 318.262 780.3613 211.2553 757.7042 C 104.24805 735.0471 104.24805 698.3129 211.2553 675.6558 C 318.262 652.9987 491.754 652.9987 598.7607 675.6558" stroke="black" stroke-linecap="round" stroke-linejoin="round" stroke-width="6"/>
      </g>
      <g id="Graphic_4">
        <path d="M 132.2603 492.301 L 674.7557 492.301 C 676.41256 492.301 677.7557 493.64415 677.7557 495.301 L 677.7557 722.767 C 677.7557 724.42385 676.41256 725.767 674.7557 725.767 L 135.2603 725.767 C 133.60344 725.767 132.2603 724.42385 132.2603 722.767 Z" fill="#a5a5a5"/>
        <path d="M 132.2603 492.301 L 674.7557 492.301 C 676.41256 492.301 677.7557 493.64415 677.7557 495.301 L 677.7557 722.767 C 677.7557 724.42385 676.41256 725.767 674.7557 725.767 L 135.2603 725.767 C 133.60344 725.767 132.2603 724.42385 132.2603 722.767 Z" stroke="black" stroke-linecap="round" stroke-linejoin="round" stroke-width="6"/>
      </g>
      <g id="Graphic_2">
        <path d="M 600.021 464.62204 C 707.02825 479.9087 707.02825 504.6933 600.021 519.97996 C 493.0143 535.2667 319.5223 535.2667 212.5156 519.97996 C 105.50835 504.6933 105.50835 479.9087 212.5156 464.62204 C 319.5223 449.3353 493.0143 449.3353 600.021 464.62204" fill="white"/>
        <path d="M 600.021 464.62204 C 707.02825 479.9087 707.02825 504.6933 600.021 519.97996 C 493.0143 535.2667 319.5223 535.2667 212.5156 519.97996 C 105.50835 504.6933 105.50835 479.9087 212.5156 464.62204 C 319.5223 449.3353 493.0143 449.3353 600.021 464.62204" stroke="black" stroke-linecap="round" stroke-linejoin="round" stroke-width="6"/>
      </g>
      <g id="Graphic_6">
        <path d="M 485.33187 364.65847 L 717.2511 302.5159 C 744.6838 295.16533 765.6935 284.51766 764.14775 278.74878 C 762.602 272.9799 739.0832 274.2636 711.6505 281.61418 L 479.73127 343.75674 C 452.29854 351.10732 431.28883 361.755 432.8346 367.52387 C 434.38036 373.29275 457.89914 372.00905 485.33187 364.65847 Z" fill="#5c1c06"/>
        <path d="M 485.33187 364.65847 L 717.2511 302.5159 C 744.6838 295.16533 765.6935 284.51766 764.14775 278.74878 C 762.602 272.9799 739.0832 274.2636 711.6505 281.61418 L 479.73127 343.75674 C 452.29854 351.10732 431.28883 361.755 432.8346 367.52387 C 434.38036 373.29275 457.89914 372.00905 485.33187 364.65847 Z" stroke="black" stroke-linecap="round" stroke-linejoin="round" stroke-width="8"/>
      </g>
      <g id="Graphic_7">
        <path d="M 465.3114 401.72236 C 480.4999 376.70987 472.0112 345.02954 446.3513 330.96233 C 420.6915 316.895 387.57756 325.76786 372.3892 350.78042 C 357.2007 375.7929 365.6894 407.47325 391.3493 421.54045 C 417.0091 435.6078 450.12303 426.73493 465.3114 401.72236" fill="red"/>
        <path d="M 465.3114 401.72236 C 480.4999 376.70987 472.0112 345.02954 446.3513 330.96233 C 420.6915 316.895 387.57756 325.76786 372.3892 350.78042 C 357.2007 375.7929 365.6894 407.47325 391.3493 421.54045 C 417.0091 435.6078 450.12303 426.73493 465.3114 401.72236" stroke="black" stroke-linecap="round" stroke-linejoin="round" stroke-width="8"/>
      </g>
      <g id="Line_9">
        <path d="M 423.55413 299.3458 L 444.19555 200.23213 C 448.8803 177.73746 461.9913 157.88643 480.84145 144.74759 L 555.8866 92.43995 C 574.57954 79.41066 597.5187 73.95663 620.0755 77.17836 L 671.4252 84.51249 C 675.6402 85.11452 679.8927 85.41667 684.1505 85.41667 L 715.1667 85.41667" stroke="black" stroke-linecap="round" stroke-linejoin="round" stroke-dasharray="24.0,24.0" stroke-width="6"/>
      </g>
      <g id="Line_10">
        <path d="M 458.91667 312.20292 L 486.5922 265.1322 C 490.97594 257.6763 494.26204 249.62746 496.3491 241.23393 L 503.2073 213.65268 C 509.45286 188.5351 527.90795 168.24031 552.32086 159.64323 L 680.2763 114.58333" stroke="black" stroke-linecap="round" stroke-linejoin="round" stroke-dasharray="24.0,24.0" stroke-width="6"/>
      </g>
      <g id="Line_11">
        <path d="M 477.66667 316.66667 L 533.83984 221.88384 C 543.542 205.51307 558.18356 192.63892 575.6611 185.11093 L 665.546 146.39534 C 675.5581 142.08288 683.897 134.63258 689.3056 125.16755 L 689.3056 125.16755" stroke="black" stroke-linecap="round" stroke-linejoin="round" stroke-dasharray="24.0,24.0" stroke-width="6"/>
      </g>
      <g id="Line_12">
        <line x1="361.5323" y1="433.585" x2="255.57236" y2="327.62506" stroke="black" stroke-linecap="round" stroke-linejoin="round" stroke-width="3"/>
      </g>
    </g>
  </g>
</svg>
