<?xml version="1.0" encoding="UTF-8" standalone="no"?>
<!DOCTYPE svg PUBLIC "-//W3C//DTD SVG 1.1//EN" "http://www.w3.org/Graphics/SVG/1.1/DTD/svg11.dtd">
<svg xmlns="http://www.w3.org/2000/svg" xmlns:xl="http://www.w3.org/1999/xlink" xmlns:dc="http://purl.org/dc/elements/1.1/" version="1.1" viewBox="0 0 850.394 850.394" width="850.394" height="850.394">
  <defs>
    <marker orient="auto" overflow="visible" markerUnits="strokeWidth" id="FilledArrow_Marker" stroke-linejoin="miter" stroke-miterlimit="10" viewBox="-1 -2 5 4" markerWidth="5" markerHeight="4" color="black">
      <g>
        <path d="M 2.4 0 L 0 -.9 L 0 .9 Z" fill="currentColor" stroke="currentColor" stroke-width="1"/>
      </g>
    </marker>
    <marker orient="auto" overflow="visible" markerUnits="strokeWidth" id="FilledArrow_Marker_2" stroke-linejoin="miter" stroke-miterlimit="10" viewBox="-4 -2 6 4" markerWidth="6" markerHeight="4" color="black">
      <g>
        <path d="M -2.4 0 L 0 .9 L 0 -.9 Z" fill="currentColor" stroke="currentColor" stroke-width="1"/>
      </g>
    </marker>
  </defs>
  <metadata> Produced by OmniGraffle 7.9.4 
    <dc:date>2019-03-25 01:01:00 +0000</dc:date>
  </metadata>
  <g id="pick_3_notes_solo" stroke-opacity="1" stroke-dasharray="none" fill="none" fill-opacity="1" stroke="none">
    <title>pick 3 notes solo</title>
    <g id="Shared_1: Master layer">
      <title>Master layer</title>
      <g id="Graphic_10">
        <rect x="120.82123" y="197.14965" width="606.82846" height="454.742" fill="white"/>
        <rect x="120.82123" y="197.14965" width="606.82846" height="454.742" stroke="black" stroke-linecap="round" stroke-linejoin="round" stroke-width="6"/>
      </g>
      <g id="Graphic_9">
        <rect x="340.91913" y="197.14965" width="55.259895" height="454.742" fill="#942092" fill-opacity=".5"/>
        <rect x="340.91913" y="197.14965" width="55.259895" height="454.742" stroke="black" stroke-linecap="round" stroke-linejoin="round" stroke-width="2"/>
      </g>
      <g id="Graphic_5">
        <rect x="120.82123" y="197.05993" width="55.259895" height="454.742" fill="red" fill-opacity=".502393"/>
        <rect x="120.82123" y="197.05993" width="55.259895" height="454.742" stroke="black" stroke-linecap="round" stroke-linejoin="round" stroke-width="2"/>
      </g>
      <g id="Graphic_4">
        <rect x="176.08113" y="197.05993" width="55.259895" height="454.742" fill="#ff9300" fill-opacity=".4963826"/>
        <rect x="176.08113" y="197.05993" width="55.259895" height="454.742" stroke="black" stroke-linecap="round" stroke-linejoin="round" stroke-width="2"/>
      </g>
      <g id="Graphic_3">
        <rect x="230.8845" y="197.83555" width="55.259895" height="454.0241" fill="#fffc00" fill-opacity=".5"/>
        <rect x="230.8845" y="197.83555" width="55.259895" height="454.0241" stroke="black" stroke-linecap="round" stroke-linejoin="round" stroke-width="2"/>
      </g>
      <g id="Graphic_2">
        <rect x="285.2353" y="197.10512" width="55.259895" height="454.742" fill="blue" fill-opacity=".5"/>
        <rect x="285.2353" y="197.10512" width="55.259895" height="454.742" stroke="black" stroke-linecap="round" stroke-linejoin="round" stroke-width="2"/>
      </g>
      <g id="Graphic_15">
        <rect x="616.70086" y="197.2074" width="55.259895" height="454.742" fill="#942092" fill-opacity=".5"/>
        <rect x="616.70086" y="197.2074" width="55.259895" height="454.742" stroke="black" stroke-linecap="round" stroke-linejoin="round" stroke-width="2"/>
      </g>
      <g id="Graphic_14">
        <rect x="396.60296" y="197.11768" width="55.259895" height="454.742" fill="red" fill-opacity=".502393"/>
        <rect x="396.60296" y="197.11768" width="55.259895" height="454.742" stroke="black" stroke-linecap="round" stroke-linejoin="round" stroke-width="2"/>
      </g>
      <g id="Graphic_13">
        <rect x="451.86286" y="197.11768" width="55.259895" height="454.742" fill="#ff9300" fill-opacity=".496383"/>
        <rect x="451.86286" y="197.11768" width="55.259895" height="454.742" stroke="black" stroke-linecap="round" stroke-linejoin="round" stroke-width="2"/>
      </g>
      <g id="Graphic_12">
        <rect x="506.6662" y="197.83555" width="55.259895" height="454.08187" fill="#fffc00" fill-opacity=".5"/>
        <rect x="506.6662" y="197.83555" width="55.259895" height="454.08187" stroke="black" stroke-linecap="round" stroke-linejoin="round" stroke-width="2"/>
      </g>
      <g id="Graphic_11">
        <rect x="561.017" y="197.16288" width="55.259895" height="454.742" fill="blue" fill-opacity=".5"/>
        <rect x="561.017" y="197.16288" width="55.259895" height="454.742" stroke="black" stroke-linecap="round" stroke-linejoin="round" stroke-width="2"/>
      </g>
      <g id="Graphic_16">
        <rect x="672.3898" y="197.2074" width="55.259895" height="454.742" fill="red" fill-opacity=".502393"/>
        <rect x="672.3898" y="197.2074" width="55.259895" height="454.742" stroke="black" stroke-linecap="round" stroke-linejoin="round" stroke-width="2"/>
      </g>
      <g id="Graphic_17">
        <rect x="122.74431" y="198.5921" width="606.82846" height="454.742" stroke="#666" stroke-linecap="round" stroke-linejoin="round" stroke-width="9"/>
      </g>
    </g>
    <g id="pick_3_notes_solo: home note">
      <title>home note</title>
      <g id="Graphic_155">
        <rect x="398.5286" y="201.5921" width="55.259895" height="447.1292" fill="red"/>
        <rect x="398.5286" y="201.5921" width="55.259895" height="447.1292" stroke="black" stroke-linecap="round" stroke-linejoin="round" stroke-width="17"/>
      </g>
      <g id="Graphic_156">
        <rect x="452.2868" y="201.8663" width="55.259895" height="447.1292" fill="#ff9300"/>
        <rect x="452.2868" y="201.8663" width="55.259895" height="447.1292" stroke="black" stroke-linecap="round" stroke-linejoin="round" stroke-width="17"/>
      </g>
      <g id="Graphic_157">
        <rect x="505.3332" y="201.5921" width="55.259895" height="447.1292" fill="#ffff40"/>
        <rect x="505.3332" y="201.5921" width="55.259895" height="447.1292" stroke="black" stroke-linecap="round" stroke-linejoin="round" stroke-width="17"/>
      </g>
      <g id="Graphic_159">
        <path d="M 449 397.5 L 449 381 L 398.5286 405.5 L 439 431.5 L 450 416 L 513 417.5 L 516.5 434.5 L 566.06524 406.5 L 525 386.5 L 510.5 382 L 512 397.5 Z" fill="#ffff80"/>
        <path d="M 449 397.5 L 449 381 L 398.5286 405.5 L 439 431.5 L 450 416 L 513 417.5 L 516.5 434.5 L 566.06524 406.5 L 525 386.5 L 510.5 382 L 512 397.5 Z" stroke="black" stroke-linecap="round" stroke-linejoin="round" stroke-width="6"/>
      </g>
      <g id="Line_158">
        <line x1="434.72137" y1="407" x2="527.0315" y2="407" marker-end="url(#FilledArrow_Marker)" marker-start="url(#FilledArrow_Marker_2)" stroke="black" stroke-linecap="round" stroke-linejoin="round" stroke-width="8"/>
      </g>
    </g>
    <g id="pick_3_notes_solo: Layer 2">
      <title>Layer 2</title>
      <g id="Graphic_154">
        <rect x="395.49877" y="198.5921" width="167.53665" height="454.742" stroke="black" stroke-linecap="round" stroke-linejoin="round" stroke-width="9"/>
      </g>
      <g id="Group_138">
        <g id="Graphic_144">
          <path d="M 468.0308 407.76056 L 465.0308 425.76056 L 472.0308 448.76056 L 486.0308 485.76056 L 491.0308 512.76056 L 497.0308 550.76056 L 471.0974 523.39335 L 451.22416 514.83863 L 442.0308 529.76056 L 454.0308 545.76056 L 466.0308 559.76056 L 475.0308 576.76056 L 494.18487 619.917 L 524.0308 635.7606 L 544.2005 654.63175 L 554.0308 679.7606 L 559.97624 703.1476 L 630.092 695.4639 L 664.2079 674.2935 L 647.0308 646.7606 L 636.0308 615.76056 L 637.0308 589.76056 L 635.0308 565.76056 L 634.0308 552.76056 L 630.0308 527.76056 L 618.5308 511.26056 L 610.0308 504.76056 L 599.5308 508.26056 L 584.487 497.63726 L 566.98905 501.4005 L 558.98775 502.61914 L 544.0308 497.76056 L 525.0308 510.76056 L 512.0308 466.76056 L 502.0308 435.76056 L 495.0308 421.76056 L 485.0308 409.76056 L 478.0308 404.76056 Z" fill="#ad7526"/>
          <path d="M 468.0308 407.76056 L 465.0308 425.76056 L 472.0308 448.76056 L 486.0308 485.76056 L 491.0308 512.76056 L 497.0308 550.76056 L 471.0974 523.39335 L 451.22416 514.83863 L 442.0308 529.76056 L 454.0308 545.76056 L 466.0308 559.76056 L 475.0308 576.76056 L 494.18487 619.917 L 524.0308 635.7606 L 544.2005 654.63175 L 554.0308 679.7606 L 559.97624 703.1476 L 630.092 695.4639 L 664.2079 674.2935 L 647.0308 646.7606 L 636.0308 615.76056 L 637.0308 589.76056 L 635.0308 565.76056 L 634.0308 552.76056 L 630.0308 527.76056 L 618.5308 511.26056 L 610.0308 504.76056 L 599.5308 508.26056 L 584.487 497.63726 L 566.98905 501.4005 L 558.98775 502.61914 L 544.0308 497.76056 L 525.0308 510.76056 L 512.0308 466.76056 L 502.0308 435.76056 L 495.0308 421.76056 L 485.0308 409.76056 L 478.0308 404.76056 Z" stroke="black" stroke-linecap="round" stroke-linejoin="round" stroke-width="6"/>
        </g>
        <g id="Line_143">
          <path d="M 495.3026 535.1453 L 495.3026 535.1453 C 496.53325 545.091 498.72466 554.89404 501.8461 564.41707 L 505.5248 575.6401" stroke="black" stroke-linecap="round" stroke-linejoin="round" stroke-width="3"/>
        </g>
        <g id="Line_142">
          <path d="M 562.67374 505.826 L 565.2573 515.1313 C 565.65025 516.5465 565.9911 517.97566 566.2791 519.4159 L 568.14576 528.74907" stroke="black" stroke-linecap="round" stroke-linejoin="round" stroke-width="3"/>
        </g>
        <g id="Line_141">
          <path d="M 524.0308 509.76056 L 524.124 509.9738 C 526.1105 514.5205 527.52535 519.29603 528.33615 524.19105 L 529.0051 528.2296" stroke="black" stroke-linecap="round" stroke-linejoin="round" stroke-width="3"/>
        </g>
        <g id="Line_140">
          <path d="M 598.9473 509.93425 L 599.5123 511.29174 C 601.22205 515.39935 602.4696 519.6844 603.2319 524.0678 L 605.6885 538.193" stroke="black" stroke-linecap="round" stroke-linejoin="round" stroke-width="3"/>
        </g>
        <g id="Graphic_139">
          <path d="M 644.5745 663.8946 C 667.0372 665.27674 670.037 676.4723 651.2748 688.9006 C 632.5127 701.3289 599.09344 710.2836 576.6308 708.9014 C 554.1681 707.5193 551.16824 696.3237 569.9305 683.8954 C 588.6926 671.4671 622.1118 662.51245 644.5745 663.8946" fill="black"/>
          <path d="M 644.5745 663.8946 C 667.0372 665.27674 670.037 676.4723 651.2748 688.9006 C 632.5127 701.3289 599.09344 710.2836 576.6308 708.9014 C 554.1681 707.5193 551.16824 696.3237 569.9305 683.8954 C 588.6926 671.4671 622.1118 662.51245 644.5745 663.8946" stroke="black" stroke-linecap="round" stroke-linejoin="round" stroke-width="7"/>
        </g>
      </g>
    </g>
  </g>
</svg>
