<?xml version="1.0" encoding="UTF-8" standalone="no"?>
<!DOCTYPE svg PUBLIC "-//W3C//DTD SVG 1.1//EN" "http://www.w3.org/Graphics/SVG/1.1/DTD/svg11.dtd">
<svg xmlns:dc="http://purl.org/dc/elements/1.1/" xmlns:xl="http://www.w3.org/1999/xlink" version="1.1" xmlns="http://www.w3.org/2000/svg" viewBox="0 0 850.394 850.394" width="850.394" height="850.394">
  <defs/>
  <metadata> Produced by OmniGraffle 7.9.4 
    <dc:date>2019-08-05 00:56:41 +0000</dc:date>
  </metadata>
  <g id="quiet" fill="none" stroke-opacity="1" stroke="none" stroke-dasharray="none" fill-opacity="1">
    <title>quiet</title>
    <g id="Shared_1: Master layer">
      <title>Master layer</title>
      <g id="Graphic_10">
        <rect x="120.82123" y="197.14965" width="606.82846" height="454.742" fill="white"/>
        <rect x="120.82123" y="197.14965" width="606.82846" height="454.742" stroke="black" stroke-linecap="round" stroke-linejoin="round" stroke-width="6"/>
      </g>
      <g id="Graphic_9">
        <rect x="340.91913" y="197.14965" width="55.259895" height="454.742" fill="#ccc"/>
        <rect x="340.91913" y="197.14965" width="55.259895" height="454.742" stroke="black" stroke-linecap="round" stroke-linejoin="round" stroke-width="2"/>
      </g>
      <g id="Graphic_5">
        <rect x="120.82123" y="197.05993" width="55.259895" height="454.742" fill="red" fill-opacity=".502393"/>
        <rect x="120.82123" y="197.05993" width="55.259895" height="454.742" stroke="black" stroke-linecap="round" stroke-linejoin="round" stroke-width="2"/>
      </g>
      <g id="Graphic_4">
        <rect x="176.08113" y="197.05993" width="55.259895" height="454.742" fill="#666"/>
        <rect x="176.08113" y="197.05993" width="55.259895" height="454.742" stroke="black" stroke-linecap="round" stroke-linejoin="round" stroke-width="2"/>
      </g>
      <g id="Graphic_3">
        <rect x="230.8845" y="197.83555" width="55.259895" height="454.0241" fill="#999"/>
        <rect x="230.8845" y="197.83555" width="55.259895" height="454.0241" stroke="black" stroke-linecap="round" stroke-linejoin="round" stroke-width="2"/>
      </g>
      <g id="Graphic_2">
        <rect x="285.2353" y="197.10512" width="55.259895" height="454.742" fill="#999"/>
        <rect x="285.2353" y="197.10512" width="55.259895" height="454.742" stroke="black" stroke-linecap="round" stroke-linejoin="round" stroke-width="2"/>
      </g>
      <g id="Graphic_15">
        <rect x="616.70086" y="197.2074" width="55.259895" height="454.742" fill="white"/>
        <rect x="616.70086" y="197.2074" width="55.259895" height="454.742" stroke="black" stroke-linecap="round" stroke-linejoin="round" stroke-width="2"/>
      </g>
      <g id="Graphic_14">
        <rect x="396.60296" y="197.11768" width="55.259895" height="454.742" fill="red" fill-opacity=".502393"/>
        <rect x="396.60296" y="197.11768" width="55.259895" height="454.742" stroke="black" stroke-linecap="round" stroke-linejoin="round" stroke-width="2"/>
      </g>
      <g id="Graphic_13">
        <rect x="451.86286" y="197.11768" width="55.259895" height="454.742" fill="#666"/>
        <rect x="451.86286" y="197.11768" width="55.259895" height="454.742" stroke="black" stroke-linecap="round" stroke-linejoin="round" stroke-width="2"/>
      </g>
      <g id="Graphic_12">
        <rect x="506.6662" y="197.83555" width="55.259895" height="454.08187" fill="#999"/>
        <rect x="506.6662" y="197.83555" width="55.259895" height="454.08187" stroke="black" stroke-linecap="round" stroke-linejoin="round" stroke-width="2"/>
      </g>
      <g id="Graphic_11">
        <rect x="561.017" y="197.16288" width="55.259895" height="454.742" fill="#ccc"/>
        <rect x="561.017" y="197.16288" width="55.259895" height="454.742" stroke="black" stroke-linecap="round" stroke-linejoin="round" stroke-width="2"/>
      </g>
      <g id="Graphic_16">
        <rect x="672.3898" y="197.2074" width="55.259895" height="454.742" fill="red" fill-opacity=".502393"/>
        <rect x="672.3898" y="197.2074" width="55.259895" height="454.742" stroke="black" stroke-linecap="round" stroke-linejoin="round" stroke-width="2"/>
      </g>
      <g id="Graphic_17">
        <rect x="118.89065" y="197.05993" width="606.82846" height="454.742" stroke="#666" stroke-linecap="round" stroke-linejoin="round" stroke-width="9"/>
      </g>
    </g>
    <g id="quiet: home note">
      <title>home note</title>
      <g id="Graphic_179">
        <rect x="340.91913" y="197.1254" width="55.259895" height="331.83245" fill="white"/>
        <rect x="340.91913" y="197.1254" width="55.259895" height="331.83245" stroke="black" stroke-linecap="round" stroke-linejoin="round" stroke-width="2"/>
      </g>
      <g id="Graphic_178">
        <rect x="120.82123" y="197.05993" width="55.259895" height="331.83245" fill="white"/>
        <rect x="120.82123" y="197.05993" width="55.259895" height="331.83245" stroke="black" stroke-linecap="round" stroke-linejoin="round" stroke-width="2"/>
      </g>
      <g id="Graphic_177">
        <rect x="176.08113" y="197.05993" width="55.259895" height="331.83245" fill="white"/>
        <rect x="176.08113" y="197.05993" width="55.259895" height="331.83245" stroke="black" stroke-linecap="round" stroke-linejoin="round" stroke-width="2"/>
      </g>
      <g id="Graphic_176">
        <rect x="230.8845" y="197.62591" width="55.259895" height="331.3086" fill="white"/>
        <rect x="230.8845" y="197.62591" width="55.259895" height="331.3086" stroke="black" stroke-linecap="round" stroke-linejoin="round" stroke-width="2"/>
      </g>
      <g id="Graphic_175">
        <rect x="285.2353" y="197.0929" width="55.259895" height="331.83245" fill="white"/>
        <rect x="285.2353" y="197.0929" width="55.259895" height="331.83245" stroke="black" stroke-linecap="round" stroke-linejoin="round" stroke-width="2"/>
      </g>
      <g id="Graphic_174">
        <rect x="616.70086" y="197.16755" width="55.259895" height="331.83245" fill="white"/>
        <rect x="616.70086" y="197.16755" width="55.259895" height="331.83245" stroke="black" stroke-linecap="round" stroke-linejoin="round" stroke-width="2"/>
      </g>
      <g id="Graphic_173">
        <rect x="396.60296" y="197.10207" width="55.259895" height="331.83245" fill="white"/>
        <rect x="396.60296" y="197.10207" width="55.259895" height="331.83245" stroke="black" stroke-linecap="round" stroke-linejoin="round" stroke-width="2"/>
      </g>
      <g id="Graphic_172">
        <rect x="451.86286" y="197.10207" width="55.259895" height="331.83245" fill="white"/>
        <rect x="451.86286" y="197.10207" width="55.259895" height="331.83245" stroke="black" stroke-linecap="round" stroke-linejoin="round" stroke-width="2"/>
      </g>
      <g id="Graphic_171">
        <rect x="506.6662" y="197.62591" width="55.259895" height="331.35076" fill="white"/>
        <rect x="506.6662" y="197.62591" width="55.259895" height="331.35076" stroke="black" stroke-linecap="round" stroke-linejoin="round" stroke-width="2"/>
      </g>
      <g id="Graphic_170">
        <rect x="561.017" y="197.13505" width="55.259895" height="331.83245" fill="white"/>
        <rect x="561.017" y="197.13505" width="55.259895" height="331.83245" stroke="black" stroke-linecap="round" stroke-linejoin="round" stroke-width="2"/>
      </g>
      <g id="Graphic_169">
        <rect x="672.3898" y="197.16755" width="55.259895" height="331.83245" fill="white"/>
        <rect x="672.3898" y="197.16755" width="55.259895" height="331.83245" stroke="black" stroke-linecap="round" stroke-linejoin="round" stroke-width="2"/>
      </g>
      <g id="Graphic_206">
        <path d="M 28.421528 54.297785 L 79.71752 38.615027 L 115.0564 135.30995 L 53.05637 154.26526 Z" fill="#666"/>
        <path d="M 28.421528 54.297785 L 79.71752 38.615027 L 115.0564 135.30995 L 53.05637 154.26526 Z" stroke="black" stroke-linecap="round" stroke-linejoin="round" stroke-width="2"/>
      </g>
      <g id="Graphic_205">
        <circle cx="74.47153" cy="111.35024" r="22.6191345220351" fill="#ccc"/>
        <circle cx="74.47153" cy="111.35024" r="22.6191345220351" stroke="black" stroke-linecap="round" stroke-linejoin="round" stroke-width="2"/>
      </g>
      <g id="Graphic_204">
        <circle cx="74.63721" cy="111.89215" r="9.59412503244062" fill="#999"/>
        <circle cx="74.63721" cy="111.89215" r="9.59412503244062" stroke="black" stroke-linecap="round" stroke-linejoin="round" stroke-width="2"/>
      </g>
      <g id="Graphic_203">
        <circle cx="61.646945" cy="69.40291" r="12.4072059837177" fill="#ccc"/>
        <circle cx="61.646945" cy="69.40291" r="12.4072059837177" stroke="black" stroke-linecap="round" stroke-linejoin="round" stroke-width="2"/>
      </g>
      <g id="Graphic_202">
        <circle cx="61.73782" cy="69.70016" r="5.26263661392834" fill="#a5a5a5"/>
        <circle cx="61.73782" cy="69.70016" r="5.26263661392834" stroke="black" stroke-linecap="round" stroke-linejoin="round" stroke-width="2"/>
      </g>
      <g id="Line_207">
        <path d="M 133 114 L 151.27695 91.92892 C 158.30319 83.4441 170.86787 82.23877 179.37903 89.23308 L 196.59409 103.3801 C 205.1279 110.39304 217.73104 109.16012 224.74398 100.6263 C 225.33265 99.90997 225.8708 99.15356 226.35452 98.36256 L 229.7355 92.83392 C 235.4982 83.41062 247.8089 80.44313 257.2322 86.20584 C 258.9003 87.22595 260.4098 88.48516 261.7125 89.94328 L 271.09646 100.44673 C 276.54953 106.55035 285.91808 107.07773 292.0217 101.62466 C 293.53526 100.27242 294.75493 98.62369 295.6051 96.78068 L 305.0658 76.27148 L 305.0658 76.27148" stroke="black" stroke-linecap="round" stroke-linejoin="round" stroke-width="7"/>
      </g>
    </g>
    <g id="quiet: Layer 2">
      <title>Layer 2</title>
      <g id="Group_138">
        <g id="Graphic_144">
          <path d="M 412.3419 541.76056 L 409.3419 559.76056 L 416.3419 582.76056 L 430.3419 619.76056 L 435.3419 646.7606 L 441.3419 684.7606 L 415.40844 657.39335 L 395.53523 648.8386 L 386.3419 663.7606 L 398.3419 679.7606 L 410.3419 693.7606 L 419.3419 710.7606 L 438.49594 753.917 L 468.3419 769.7606 L 488.5116 788.63175 L 498.3419 813.7606 L 504.2873 837.1476 L 574.403 829.4639 L 608.519 808.2935 L 591.3419 780.7606 L 580.3419 749.7606 L 581.3419 723.7606 L 579.3419 699.7606 L 578.3419 686.7606 L 574.3419 661.7606 L 562.8419 645.2606 L 554.3419 638.7606 L 543.8419 642.2606 L 528.79806 631.6373 L 511.3001 635.4005 L 503.2988 636.6191 L 488.3419 631.76056 L 469.3419 644.7606 L 456.3419 600.76056 L 446.3419 569.76056 L 439.3419 555.76056 L 429.3419 543.76056 L 422.3419 538.76056 Z" fill="#ad7526"/>
          <path d="M 412.3419 541.76056 L 409.3419 559.76056 L 416.3419 582.76056 L 430.3419 619.76056 L 435.3419 646.7606 L 441.3419 684.7606 L 415.40844 657.39335 L 395.53523 648.8386 L 386.3419 663.7606 L 398.3419 679.7606 L 410.3419 693.7606 L 419.3419 710.7606 L 438.49594 753.917 L 468.3419 769.7606 L 488.5116 788.63175 L 498.3419 813.7606 L 504.2873 837.1476 L 574.403 829.4639 L 608.519 808.2935 L 591.3419 780.7606 L 580.3419 749.7606 L 581.3419 723.7606 L 579.3419 699.7606 L 578.3419 686.7606 L 574.3419 661.7606 L 562.8419 645.2606 L 554.3419 638.7606 L 543.8419 642.2606 L 528.79806 631.6373 L 511.3001 635.4005 L 503.2988 636.6191 L 488.3419 631.76056 L 469.3419 644.7606 L 456.3419 600.76056 L 446.3419 569.76056 L 439.3419 555.76056 L 429.3419 543.76056 L 422.3419 538.76056 Z" stroke="black" stroke-linecap="round" stroke-linejoin="round" stroke-width="6"/>
        </g>
        <g id="Line_143">
          <path d="M 439.61366 669.1453 L 439.61366 669.1453 C 440.8443 679.091 443.03573 688.894 446.1572 698.4171 L 449.83586 709.6401" stroke="black" stroke-linecap="round" stroke-linejoin="round" stroke-width="3"/>
        </g>
        <g id="Line_142">
          <path d="M 506.9848 639.826 L 509.5684 649.1313 C 509.9613 650.5465 510.30215 651.97566 510.5902 653.4159 L 512.45683 662.7491" stroke="black" stroke-linecap="round" stroke-linejoin="round" stroke-width="3"/>
        </g>
        <g id="Line_141">
          <path d="M 468.3419 643.7606 L 468.43506 643.9738 C 470.42156 648.5205 471.8364 653.296 472.6472 658.19105 L 473.31616 662.2296" stroke="black" stroke-linecap="round" stroke-linejoin="round" stroke-width="3"/>
        </g>
        <g id="Line_140">
          <path d="M 543.25835 643.93425 L 543.8234 645.29174 C 545.5331 649.39935 546.78066 653.6844 547.543 658.0678 L 549.99955 672.193" stroke="black" stroke-linecap="round" stroke-linejoin="round" stroke-width="3"/>
        </g>
        <g id="Graphic_139">
          <path d="M 588.8855 797.8946 C 611.34826 799.2767 614.3481 810.4723 595.5859 822.9006 C 576.82374 835.3289 543.4045 844.2836 520.9419 842.9014 C 498.47915 841.5193 495.4793 830.3237 514.24154 817.8954 C 533.00366 805.4671 566.4229 796.51245 588.8855 797.8946" fill="black"/>
          <path d="M 588.8855 797.8946 C 611.34826 799.2767 614.3481 810.4723 595.5859 822.9006 C 576.82374 835.3289 543.4045 844.2836 520.9419 842.9014 C 498.47915 841.5193 495.4793 830.3237 514.24154 817.8954 C 533.00366 805.4671 566.4229 796.51245 588.8855 797.8946" stroke="black" stroke-linecap="round" stroke-linejoin="round" stroke-width="7"/>
        </g>
      </g>
    </g>
  </g>
</svg>
