<?xml version="1.0" encoding="UTF-8" standalone="no"?>
<!DOCTYPE svg PUBLIC "-//W3C//DTD SVG 1.1//EN" "http://www.w3.org/Graphics/SVG/1.1/DTD/svg11.dtd">
<svg xmlns:dc="http://purl.org/dc/elements/1.1/" xmlns:xl="http://www.w3.org/1999/xlink" version="1.1" xmlns="http://www.w3.org/2000/svg" viewBox="0 0 850.394 850.394" width="850.394" height="850.394">
  <defs/>
  <metadata> Produced by OmniGraffle 7.9.4 
    <dc:date>2019-08-05 00:29:16 +0000</dc:date>
  </metadata>
  <g id="short_and_long_solo" fill="none" stroke-opacity="1" stroke="none" stroke-dasharray="none" fill-opacity="1">
    <title>short and long solo</title>
    <g id="Shared_1: Master layer">
      <title>Master layer</title>
      <g id="Graphic_10">
        <rect x="120.82123" y="197.14965" width="606.82846" height="454.742" fill="white"/>
        <rect x="120.82123" y="197.14965" width="606.82846" height="454.742" stroke="black" stroke-linecap="round" stroke-linejoin="round" stroke-width="6"/>
      </g>
      <g id="Graphic_9">
        <rect x="340.91913" y="197.14965" width="55.259895" height="454.742" fill="#ccc"/>
        <rect x="340.91913" y="197.14965" width="55.259895" height="454.742" stroke="black" stroke-linecap="round" stroke-linejoin="round" stroke-width="2"/>
      </g>
      <g id="Graphic_5">
        <rect x="120.82123" y="197.05993" width="55.259895" height="454.742" fill="red" fill-opacity=".502393"/>
        <rect x="120.82123" y="197.05993" width="55.259895" height="454.742" stroke="black" stroke-linecap="round" stroke-linejoin="round" stroke-width="2"/>
      </g>
      <g id="Graphic_4">
        <rect x="176.08113" y="197.05993" width="55.259895" height="454.742" fill="#666"/>
        <rect x="176.08113" y="197.05993" width="55.259895" height="454.742" stroke="black" stroke-linecap="round" stroke-linejoin="round" stroke-width="2"/>
      </g>
      <g id="Graphic_3">
        <rect x="230.8845" y="197.83555" width="55.259895" height="454.0241" fill="#999"/>
        <rect x="230.8845" y="197.83555" width="55.259895" height="454.0241" stroke="black" stroke-linecap="round" stroke-linejoin="round" stroke-width="2"/>
      </g>
      <g id="Graphic_2">
        <rect x="285.2353" y="197.10512" width="55.259895" height="454.742" fill="#999"/>
        <rect x="285.2353" y="197.10512" width="55.259895" height="454.742" stroke="black" stroke-linecap="round" stroke-linejoin="round" stroke-width="2"/>
      </g>
      <g id="Graphic_15">
        <rect x="616.70086" y="197.2074" width="55.259895" height="454.742" fill="white"/>
        <rect x="616.70086" y="197.2074" width="55.259895" height="454.742" stroke="black" stroke-linecap="round" stroke-linejoin="round" stroke-width="2"/>
      </g>
      <g id="Graphic_14">
        <rect x="396.60296" y="197.11768" width="55.259895" height="454.742" fill="red" fill-opacity=".502393"/>
        <rect x="396.60296" y="197.11768" width="55.259895" height="454.742" stroke="black" stroke-linecap="round" stroke-linejoin="round" stroke-width="2"/>
      </g>
      <g id="Graphic_13">
        <rect x="451.86286" y="197.11768" width="55.259895" height="454.742" fill="#666"/>
        <rect x="451.86286" y="197.11768" width="55.259895" height="454.742" stroke="black" stroke-linecap="round" stroke-linejoin="round" stroke-width="2"/>
      </g>
      <g id="Graphic_12">
        <rect x="506.6662" y="197.83555" width="55.259895" height="454.08187" fill="#999"/>
        <rect x="506.6662" y="197.83555" width="55.259895" height="454.08187" stroke="black" stroke-linecap="round" stroke-linejoin="round" stroke-width="2"/>
      </g>
      <g id="Graphic_11">
        <rect x="561.017" y="197.16288" width="55.259895" height="454.742" fill="#ccc"/>
        <rect x="561.017" y="197.16288" width="55.259895" height="454.742" stroke="black" stroke-linecap="round" stroke-linejoin="round" stroke-width="2"/>
      </g>
      <g id="Graphic_16">
        <rect x="672.3898" y="197.2074" width="55.259895" height="454.742" fill="red" fill-opacity=".502393"/>
        <rect x="672.3898" y="197.2074" width="55.259895" height="454.742" stroke="black" stroke-linecap="round" stroke-linejoin="round" stroke-width="2"/>
      </g>
      <g id="Graphic_17">
        <rect x="118.89065" y="197.05993" width="606.82846" height="454.742" stroke="#666" stroke-linecap="round" stroke-linejoin="round" stroke-width="9"/>
      </g>
    </g>
    <g id="short_and_long_solo: home note">
      <title>home note</title>
      <g id="Graphic_155">
        <path d="M 448.8823 590.6014 L 403.43476 590.6014 L 403.43476 378.19724 L 376.2457 378.19724 L 426.15854 261.32477 L 476.0714 378.19724 L 448.8823 378.19724 Z" fill="red"/>
        <path d="M 448.8823 590.6014 L 403.43476 590.6014 L 403.43476 378.19724 L 376.2457 378.19724 L 426.15854 261.32477 L 476.0714 378.19724 L 448.8823 378.19724 Z" stroke="black" stroke-linecap="round" stroke-linejoin="round" stroke-width="17"/>
      </g>
      <g id="Graphic_156">
        <path d="M 672.0177 590.29876 L 620.2961 590.29876 L 620.2961 378.7999 L 592.521 378.7999 L 646.1569 248.70124 L 699.7928 378.7999 L 672.0177 378.7999 Z" fill="#942092"/>
        <path d="M 672.0177 590.29876 L 620.2961 590.29876 L 620.2961 378.7999 L 592.521 378.7999 L 646.1569 248.70124 L 699.7928 378.7999 L 672.0177 378.7999 Z" stroke="black" stroke-linecap="round" stroke-linejoin="round" stroke-width="17"/>
      </g>
      <g id="Graphic_157">
        <path d="M 230.935 590.29876 L 176.48716 590.29876 L 176.48716 375.4433 L 153.59343 375.4433 L 203.71108 259.61965 L 253.82873 375.4433 L 230.935 375.4433 Z" fill="#ff9300"/>
        <path d="M 230.935 590.29876 L 176.48716 590.29876 L 176.48716 375.4433 L 153.59343 375.4433 L 203.71108 259.61965 L 253.82873 375.4433 L 230.935 375.4433 Z" stroke="black" stroke-linecap="round" stroke-linejoin="round" stroke-width="17"/>
      </g>
      <g id="Graphic_159">
        <ellipse cx="534.2962" cy="419.6421" rx="53.6359990974769" ry="34.6061630447019" fill="#ffff40"/>
        <ellipse cx="534.2962" cy="419.6421" rx="53.6359990974769" ry="34.6061630447019" stroke="black" stroke-linecap="round" stroke-linejoin="round" stroke-width="17"/>
      </g>
      <g id="Graphic_158">
        <ellipse cx="312.6674" cy="420.7482" rx="50.117731181207" ry="33.5000535297136" fill="#4040ff"/>
        <ellipse cx="312.6674" cy="420.7482" rx="50.117731181207" ry="33.5000535297136" stroke="black" stroke-linecap="round" stroke-linejoin="round" stroke-width="17"/>
      </g>
    </g>
    <g id="short_and_long_solo: Layer 2">
      <title>Layer 2</title>
      <g id="Group_138">
        <g id="Graphic_144">
          <path d="M 356.66316 407.76056 L 353.66316 425.76056 L 360.66316 448.76056 L 374.66316 485.76056 L 379.66316 512.76056 L 385.66316 550.76056 L 359.7297 523.39335 L 339.8565 514.83863 L 330.66316 529.76056 L 342.66316 545.76056 L 354.66316 559.76056 L 363.66316 576.76056 L 382.8172 619.917 L 412.66316 635.7606 L 432.83285 654.63175 L 442.66316 679.7606 L 448.6086 703.1476 L 518.7243 695.4639 L 552.84024 674.2935 L 535.66316 646.7606 L 524.66316 615.76056 L 525.66316 589.76056 L 523.66316 565.76056 L 522.66316 552.76056 L 518.66316 527.76056 L 507.16316 511.26056 L 498.66316 504.76056 L 488.16316 508.26056 L 473.1193 497.63726 L 455.6214 501.4005 L 447.6201 502.61914 L 432.66316 497.76056 L 413.66316 510.76056 L 400.66316 466.76056 L 390.66316 435.76056 L 383.66316 421.76056 L 373.66316 409.76056 L 366.66316 404.76056 Z" fill="#ad7526"/>
          <path d="M 356.66316 407.76056 L 353.66316 425.76056 L 360.66316 448.76056 L 374.66316 485.76056 L 379.66316 512.76056 L 385.66316 550.76056 L 359.7297 523.39335 L 339.8565 514.83863 L 330.66316 529.76056 L 342.66316 545.76056 L 354.66316 559.76056 L 363.66316 576.76056 L 382.8172 619.917 L 412.66316 635.7606 L 432.83285 654.63175 L 442.66316 679.7606 L 448.6086 703.1476 L 518.7243 695.4639 L 552.84024 674.2935 L 535.66316 646.7606 L 524.66316 615.76056 L 525.66316 589.76056 L 523.66316 565.76056 L 522.66316 552.76056 L 518.66316 527.76056 L 507.16316 511.26056 L 498.66316 504.76056 L 488.16316 508.26056 L 473.1193 497.63726 L 455.6214 501.4005 L 447.6201 502.61914 L 432.66316 497.76056 L 413.66316 510.76056 L 400.66316 466.76056 L 390.66316 435.76056 L 383.66316 421.76056 L 373.66316 409.76056 L 366.66316 404.76056 Z" stroke="black" stroke-linecap="round" stroke-linejoin="round" stroke-width="6"/>
        </g>
        <g id="Line_143">
          <path d="M 383.93493 535.1453 L 383.93493 535.1453 C 385.1656 545.091 387.357 554.89404 390.47846 564.41707 L 394.15713 575.6401" stroke="black" stroke-linecap="round" stroke-linejoin="round" stroke-width="3"/>
        </g>
        <g id="Line_142">
          <path d="M 451.3061 505.826 L 453.88966 515.1313 C 454.2826 516.5465 454.6234 517.97566 454.91147 519.4159 L 456.7781 528.74907" stroke="black" stroke-linecap="round" stroke-linejoin="round" stroke-width="3"/>
        </g>
        <g id="Line_141">
          <path d="M 412.66316 509.76056 L 412.75632 509.9738 C 414.74283 514.5205 416.1577 519.29603 416.9685 524.19105 L 417.63743 528.2296" stroke="black" stroke-linecap="round" stroke-linejoin="round" stroke-width="3"/>
        </g>
        <g id="Line_140">
          <path d="M 487.5796 509.93425 L 488.14466 511.29174 C 489.8544 515.39935 491.1019 519.6844 491.86426 524.0678 L 494.3208 538.193" stroke="black" stroke-linecap="round" stroke-linejoin="round" stroke-width="3"/>
        </g>
        <g id="Graphic_139">
          <path d="M 533.2068 663.8946 C 555.6695 665.27674 558.6694 676.4723 539.90713 688.9006 C 521.145 701.3289 487.7258 710.2836 465.26315 708.9014 C 442.8004 707.5193 439.8006 696.3237 458.5628 683.8954 C 477.32493 671.4671 510.7442 662.51245 533.2068 663.8946" fill="black"/>
          <path d="M 533.2068 663.8946 C 555.6695 665.27674 558.6694 676.4723 539.90713 688.9006 C 521.145 701.3289 487.7258 710.2836 465.26315 708.9014 C 442.8004 707.5193 439.8006 696.3237 458.5628 683.8954 C 477.32493 671.4671 510.7442 662.51245 533.2068 663.8946" stroke="black" stroke-linecap="round" stroke-linejoin="round" stroke-width="7"/>
        </g>
      </g>
    </g>
  </g>
</svg>
