<?xml version="1.0" encoding="UTF-8" standalone="no"?>
<!DOCTYPE svg PUBLIC "-//W3C//DTD SVG 1.1//EN" "http://www.w3.org/Graphics/SVG/1.1/DTD/svg11.dtd">
<svg xmlns="http://www.w3.org/2000/svg" xmlns:xl="http://www.w3.org/1999/xlink" xmlns:dc="http://purl.org/dc/elements/1.1/" version="1.1" viewBox="0 0 850.394 850.394" width="850.394" height="850.394">
  <defs/>
  <metadata> Produced by OmniGraffle 7.9.4 
    <dc:date>2019-03-25 01:01:00 +0000</dc:date>
  </metadata>
  <g id="short_solo" stroke-opacity="1" stroke-dasharray="none" fill="none" fill-opacity="1" stroke="none">
    <title>short solo</title>
    <g id="Shared_1: Master layer">
      <title>Master layer</title>
      <g id="Graphic_10">
        <rect x="120.82123" y="197.14965" width="606.82846" height="454.742" fill="white"/>
        <rect x="120.82123" y="197.14965" width="606.82846" height="454.742" stroke="black" stroke-linecap="round" stroke-linejoin="round" stroke-width="6"/>
      </g>
      <g id="Graphic_9">
        <rect x="340.91913" y="197.14965" width="55.259895" height="454.742" fill="#942092" fill-opacity=".5"/>
        <rect x="340.91913" y="197.14965" width="55.259895" height="454.742" stroke="black" stroke-linecap="round" stroke-linejoin="round" stroke-width="2"/>
      </g>
      <g id="Graphic_5">
        <rect x="120.82123" y="197.05993" width="55.259895" height="454.742" fill="red" fill-opacity=".502393"/>
        <rect x="120.82123" y="197.05993" width="55.259895" height="454.742" stroke="black" stroke-linecap="round" stroke-linejoin="round" stroke-width="2"/>
      </g>
      <g id="Graphic_4">
        <rect x="176.08113" y="197.05993" width="55.259895" height="454.742" fill="#ff9300" fill-opacity=".4963826"/>
        <rect x="176.08113" y="197.05993" width="55.259895" height="454.742" stroke="black" stroke-linecap="round" stroke-linejoin="round" stroke-width="2"/>
      </g>
      <g id="Graphic_3">
        <rect x="230.8845" y="197.83555" width="55.259895" height="454.0241" fill="#fffc00" fill-opacity=".5"/>
        <rect x="230.8845" y="197.83555" width="55.259895" height="454.0241" stroke="black" stroke-linecap="round" stroke-linejoin="round" stroke-width="2"/>
      </g>
      <g id="Graphic_2">
        <rect x="285.2353" y="197.10512" width="55.259895" height="454.742" fill="blue" fill-opacity=".5"/>
        <rect x="285.2353" y="197.10512" width="55.259895" height="454.742" stroke="black" stroke-linecap="round" stroke-linejoin="round" stroke-width="2"/>
      </g>
      <g id="Graphic_15">
        <rect x="616.70086" y="197.2074" width="55.259895" height="454.742" fill="#942092" fill-opacity=".5"/>
        <rect x="616.70086" y="197.2074" width="55.259895" height="454.742" stroke="black" stroke-linecap="round" stroke-linejoin="round" stroke-width="2"/>
      </g>
      <g id="Graphic_14">
        <rect x="396.60296" y="197.11768" width="55.259895" height="454.742" fill="red" fill-opacity=".502393"/>
        <rect x="396.60296" y="197.11768" width="55.259895" height="454.742" stroke="black" stroke-linecap="round" stroke-linejoin="round" stroke-width="2"/>
      </g>
      <g id="Graphic_13">
        <rect x="451.86286" y="197.11768" width="55.259895" height="454.742" fill="#ff9300" fill-opacity=".496383"/>
        <rect x="451.86286" y="197.11768" width="55.259895" height="454.742" stroke="black" stroke-linecap="round" stroke-linejoin="round" stroke-width="2"/>
      </g>
      <g id="Graphic_12">
        <rect x="506.6662" y="197.83555" width="55.259895" height="454.08187" fill="#fffc00" fill-opacity=".5"/>
        <rect x="506.6662" y="197.83555" width="55.259895" height="454.08187" stroke="black" stroke-linecap="round" stroke-linejoin="round" stroke-width="2"/>
      </g>
      <g id="Graphic_11">
        <rect x="561.017" y="197.16288" width="55.259895" height="454.742" fill="blue" fill-opacity=".5"/>
        <rect x="561.017" y="197.16288" width="55.259895" height="454.742" stroke="black" stroke-linecap="round" stroke-linejoin="round" stroke-width="2"/>
      </g>
      <g id="Graphic_16">
        <rect x="672.3898" y="197.2074" width="55.259895" height="454.742" fill="red" fill-opacity=".502393"/>
        <rect x="672.3898" y="197.2074" width="55.259895" height="454.742" stroke="black" stroke-linecap="round" stroke-linejoin="round" stroke-width="2"/>
      </g>
      <g id="Graphic_17">
        <rect x="122.74431" y="198.5921" width="606.82846" height="454.742" stroke="#666" stroke-linecap="round" stroke-linejoin="round" stroke-width="9"/>
      </g>
    </g>
    <g id="short_solo: home note">
      <title>home note</title>
      <g id="Graphic_155">
        <ellipse cx="423.5807" cy="407.3579" rx="49.9129159510699" ry="33.3579724743858" fill="red"/>
        <ellipse cx="423.5807" cy="407.3579" rx="49.9129159510699" ry="33.3579724743858" stroke="black" stroke-linecap="round" stroke-linejoin="round" stroke-width="17"/>
      </g>
      <g id="Graphic_156">
        <ellipse cx="588.647" cy="406.10973" rx="53.6359990974769" ry="34.6061630447019" fill="#4040ff"/>
        <ellipse cx="588.647" cy="406.10973" rx="53.6359990974769" ry="34.6061630447019" stroke="black" stroke-linecap="round" stroke-linejoin="round" stroke-width="17"/>
      </g>
      <g id="Graphic_157">
        <ellipse cx="258.51445" cy="407.5" rx="50.117731181207" ry="33.5000535297137" fill="#ffff40"/>
        <ellipse cx="258.51445" cy="407.5" rx="50.117731181207" ry="33.5000535297137" stroke="black" stroke-linecap="round" stroke-linejoin="round" stroke-width="17"/>
      </g>
    </g>
    <g id="short_solo: Layer 2">
      <title>Layer 2</title>
      <g id="Group_138">
        <g id="Graphic_144">
          <path d="M 412.77092 406.76056 L 409.77092 424.76056 L 416.77092 447.76056 L 430.7709 484.76056 L 435.7709 511.76056 L 441.7709 549.76056 L 415.8375 522.39335 L 395.96427 513.83863 L 386.77092 528.76056 L 398.77092 544.76056 L 410.77092 558.76056 L 419.7709 575.76056 L 438.925 618.917 L 468.7709 634.7606 L 488.9406 653.63175 L 498.7709 678.7606 L 504.71634 702.1476 L 574.8321 694.4639 L 608.948 673.2935 L 591.7709 645.7606 L 580.7709 614.76056 L 581.7709 588.76056 L 579.7709 564.76056 L 578.7709 551.76056 L 574.7709 526.76056 L 563.2709 510.26056 L 554.7709 503.76056 L 544.2709 507.26056 L 529.2271 496.63726 L 511.72915 500.4005 L 503.72785 501.61914 L 488.7709 496.76056 L 469.7709 509.76056 L 456.7709 465.76056 L 446.7709 434.76056 L 439.7709 420.76056 L 429.7709 408.76056 L 422.7709 403.76056 Z" fill="#ad7526"/>
          <path d="M 412.77092 406.76056 L 409.77092 424.76056 L 416.77092 447.76056 L 430.7709 484.76056 L 435.7709 511.76056 L 441.7709 549.76056 L 415.8375 522.39335 L 395.96427 513.83863 L 386.77092 528.76056 L 398.77092 544.76056 L 410.77092 558.76056 L 419.7709 575.76056 L 438.925 618.917 L 468.7709 634.7606 L 488.9406 653.63175 L 498.7709 678.7606 L 504.71634 702.1476 L 574.8321 694.4639 L 608.948 673.2935 L 591.7709 645.7606 L 580.7709 614.76056 L 581.7709 588.76056 L 579.7709 564.76056 L 578.7709 551.76056 L 574.7709 526.76056 L 563.2709 510.26056 L 554.7709 503.76056 L 544.2709 507.26056 L 529.2271 496.63726 L 511.72915 500.4005 L 503.72785 501.61914 L 488.7709 496.76056 L 469.7709 509.76056 L 456.7709 465.76056 L 446.7709 434.76056 L 439.7709 420.76056 L 429.7709 408.76056 L 422.7709 403.76056 Z" stroke="black" stroke-linecap="round" stroke-linejoin="round" stroke-width="6"/>
        </g>
        <g id="Line_143">
          <path d="M 440.0427 534.1453 L 440.0427 534.1453 C 441.27335 544.091 443.46477 553.89404 446.5862 563.41707 L 450.2649 574.6401" stroke="black" stroke-linecap="round" stroke-linejoin="round" stroke-width="3"/>
        </g>
        <g id="Line_142">
          <path d="M 507.41385 504.826 L 509.9974 514.1313 C 510.39035 515.5465 510.7312 516.97566 511.01923 518.4159 L 512.88587 527.74907" stroke="black" stroke-linecap="round" stroke-linejoin="round" stroke-width="3"/>
        </g>
        <g id="Line_141">
          <path d="M 468.7709 508.76056 L 468.8641 508.9738 C 470.8506 513.5205 472.26545 518.29603 473.07626 523.19105 L 473.7452 527.2296" stroke="black" stroke-linecap="round" stroke-linejoin="round" stroke-width="3"/>
        </g>
        <g id="Line_140">
          <path d="M 543.6874 508.93425 L 544.2524 510.29174 C 545.96216 514.39935 547.2097 518.6844 547.972 523.0678 L 550.4286 537.193" stroke="black" stroke-linecap="round" stroke-linejoin="round" stroke-width="3"/>
        </g>
        <g id="Graphic_139">
          <path d="M 589.3146 662.8946 C 611.7773 664.27674 614.7771 675.4723 596.0149 687.9006 C 577.2528 700.3289 543.83354 709.2836 521.3709 707.9014 C 498.9082 706.5193 495.90835 695.3237 514.6706 682.8954 C 533.4327 670.4671 566.85194 661.51245 589.3146 662.8946" fill="black"/>
          <path d="M 589.3146 662.8946 C 611.7773 664.27674 614.7771 675.4723 596.0149 687.9006 C 577.2528 700.3289 543.83354 709.2836 521.3709 707.9014 C 498.9082 706.5193 495.90835 695.3237 514.6706 682.8954 C 533.4327 670.4671 566.85194 661.51245 589.3146 662.8946" stroke="black" stroke-linecap="round" stroke-linejoin="round" stroke-width="7"/>
        </g>
      </g>
    </g>
  </g>
</svg>
