<?xml version="1.0" encoding="UTF-8" standalone="no"?>
<!DOCTYPE svg PUBLIC "-//W3C//DTD SVG 1.1//EN" "http://www.w3.org/Graphics/SVG/1.1/DTD/svg11.dtd">
<svg xmlns:dc="http://purl.org/dc/elements/1.1/" xmlns:xl="http://www.w3.org/1999/xlink" version="1.1" xmlns="http://www.w3.org/2000/svg" viewBox="0 0 850.394 850.394" width="850.394" height="850.394">
  <defs/>
  <metadata> Produced by OmniGraffle 7.9.4 
    <dc:date>2019-08-05 00:29:16 +0000</dc:date>
  </metadata>
  <g id="slow_solo" fill="none" stroke-opacity="1" stroke="none" stroke-dasharray="none" fill-opacity="1">
    <title>slow solo</title>
    <g id="Shared_1: Master layer">
      <title>Master layer</title>
      <g id="Graphic_10">
        <rect x="120.82123" y="197.14965" width="606.82846" height="454.742" fill="white"/>
        <rect x="120.82123" y="197.14965" width="606.82846" height="454.742" stroke="black" stroke-linecap="round" stroke-linejoin="round" stroke-width="6"/>
      </g>
      <g id="Graphic_9">
        <rect x="340.91913" y="197.14965" width="55.259895" height="454.742" fill="#ccc"/>
        <rect x="340.91913" y="197.14965" width="55.259895" height="454.742" stroke="black" stroke-linecap="round" stroke-linejoin="round" stroke-width="2"/>
      </g>
      <g id="Graphic_5">
        <rect x="120.82123" y="197.05993" width="55.259895" height="454.742" fill="red" fill-opacity=".502393"/>
        <rect x="120.82123" y="197.05993" width="55.259895" height="454.742" stroke="black" stroke-linecap="round" stroke-linejoin="round" stroke-width="2"/>
      </g>
      <g id="Graphic_4">
        <rect x="176.08113" y="197.05993" width="55.259895" height="454.742" fill="#666"/>
        <rect x="176.08113" y="197.05993" width="55.259895" height="454.742" stroke="black" stroke-linecap="round" stroke-linejoin="round" stroke-width="2"/>
      </g>
      <g id="Graphic_3">
        <rect x="230.8845" y="197.83555" width="55.259895" height="454.0241" fill="#999"/>
        <rect x="230.8845" y="197.83555" width="55.259895" height="454.0241" stroke="black" stroke-linecap="round" stroke-linejoin="round" stroke-width="2"/>
      </g>
      <g id="Graphic_2">
        <rect x="285.2353" y="197.10512" width="55.259895" height="454.742" fill="#999"/>
        <rect x="285.2353" y="197.10512" width="55.259895" height="454.742" stroke="black" stroke-linecap="round" stroke-linejoin="round" stroke-width="2"/>
      </g>
      <g id="Graphic_15">
        <rect x="616.70086" y="197.2074" width="55.259895" height="454.742" fill="white"/>
        <rect x="616.70086" y="197.2074" width="55.259895" height="454.742" stroke="black" stroke-linecap="round" stroke-linejoin="round" stroke-width="2"/>
      </g>
      <g id="Graphic_14">
        <rect x="396.60296" y="197.11768" width="55.259895" height="454.742" fill="red" fill-opacity=".502393"/>
        <rect x="396.60296" y="197.11768" width="55.259895" height="454.742" stroke="black" stroke-linecap="round" stroke-linejoin="round" stroke-width="2"/>
      </g>
      <g id="Graphic_13">
        <rect x="451.86286" y="197.11768" width="55.259895" height="454.742" fill="#666"/>
        <rect x="451.86286" y="197.11768" width="55.259895" height="454.742" stroke="black" stroke-linecap="round" stroke-linejoin="round" stroke-width="2"/>
      </g>
      <g id="Graphic_12">
        <rect x="506.6662" y="197.83555" width="55.259895" height="454.08187" fill="#999"/>
        <rect x="506.6662" y="197.83555" width="55.259895" height="454.08187" stroke="black" stroke-linecap="round" stroke-linejoin="round" stroke-width="2"/>
      </g>
      <g id="Graphic_11">
        <rect x="561.017" y="197.16288" width="55.259895" height="454.742" fill="#ccc"/>
        <rect x="561.017" y="197.16288" width="55.259895" height="454.742" stroke="black" stroke-linecap="round" stroke-linejoin="round" stroke-width="2"/>
      </g>
      <g id="Graphic_16">
        <rect x="672.3898" y="197.2074" width="55.259895" height="454.742" fill="red" fill-opacity=".502393"/>
        <rect x="672.3898" y="197.2074" width="55.259895" height="454.742" stroke="black" stroke-linecap="round" stroke-linejoin="round" stroke-width="2"/>
      </g>
      <g id="Graphic_17">
        <rect x="118.89065" y="197.05993" width="606.82846" height="454.742" stroke="#666" stroke-linecap="round" stroke-linejoin="round" stroke-width="9"/>
      </g>
    </g>
    <g id="slow_solo: Layer 1">
      <title>Layer 1</title>
      <g id="Graphic_52">
        <path d="M 762.78645 580.11064 L 786.7105 585.4858 L 802.364 585.0214 L 786.1674 581.7168 L 764.3394 574.3151 Z" fill="#ffffc0"/>
        <path d="M 762.78645 580.11064 L 786.7105 585.4858 L 802.364 585.0214 L 786.1674 581.7168 L 764.3394 574.3151 Z" stroke="black" stroke-linecap="round" stroke-linejoin="round" stroke-width="3"/>
      </g>
      <g id="Graphic_51">
        <path d="M 765.8923 568.5195 L 789.8163 573.8947 L 805.4699 573.4303 L 789.2733 570.1257 L 767.4452 562.724 Z" fill="#ffffc0"/>
        <path d="M 765.8923 568.5195 L 789.8163 573.8947 L 805.4699 573.4303 L 789.2733 570.1257 L 767.4452 562.724 Z" stroke="black" stroke-linecap="round" stroke-linejoin="round" stroke-width="3"/>
      </g>
      <g id="Graphic_50">
        <path d="M 768.9717 561.1046 L 793.4904 561.3882 L 808.7054 557.6794 L 792.17565 557.81447 L 769.2857 555.1128 Z" fill="#ffffc0"/>
        <path d="M 768.9717 561.1046 L 793.4904 561.3882 L 808.7054 557.6794 L 792.17565 557.81447 L 769.2857 555.1128 Z" stroke="black" stroke-linecap="round" stroke-linejoin="round" stroke-width="3"/>
      </g>
      <g id="Graphic_49">
        <path d="M 774.4557 436.69215 L 773.4557 412.19215 L 768.9557 397.19215 L 769.9557 413.69215 L 768.4557 436.69215 Z" fill="#ffffc0"/>
        <path d="M 774.4557 436.69215 L 773.4557 412.19215 L 768.9557 397.19215 L 769.9557 413.69215 L 768.4557 436.69215 Z" stroke="black" stroke-linecap="round" stroke-linejoin="round" stroke-width="3"/>
      </g>
      <g id="Graphic_48">
        <path d="M 762.4557 436.69215 L 761.4557 412.19215 L 756.9557 397.19215 L 757.9557 413.69215 L 756.4557 436.69215 Z" fill="#ffffc0"/>
        <path d="M 762.4557 436.69215 L 761.4557 412.19215 L 756.9557 397.19215 L 757.9557 413.69215 L 756.4557 436.69215 Z" stroke="black" stroke-linecap="round" stroke-linejoin="round" stroke-width="3"/>
      </g>
      <g id="Graphic_47">
        <path d="M 754.4964 435.63683 L 748.4244 411.88013 L 740.9041 398.1435 L 745.3128 414.07504 L 748.6275 436.8843 Z" fill="#ffffc0"/>
        <path d="M 754.4964 435.63683 L 748.4244 411.88013 L 740.9041 398.1435 L 745.3128 414.07504 L 748.6275 436.8843 Z" stroke="black" stroke-linecap="round" stroke-linejoin="round" stroke-width="3"/>
      </g>
      <g id="Graphic_46">
        <path d="M 117.915 477.5 L 93.415 478.5 L 78.41499 483 L 94.915 482 L 117.915 483.5 Z" fill="#ffffc0"/>
        <path d="M 117.915 477.5 L 93.415 478.5 L 78.41499 483 L 94.915 482 L 117.915 483.5 Z" stroke="black" stroke-linecap="round" stroke-linejoin="round" stroke-width="3"/>
      </g>
      <g id="Graphic_45">
        <path d="M 117.915 489.5 L 93.415 490.5 L 78.41499 495 L 94.915 494 L 117.915 495.5 Z" fill="#ffffc0"/>
        <path d="M 117.915 489.5 L 93.415 490.5 L 78.41499 495 L 94.915 494 L 117.915 495.5 Z" stroke="black" stroke-linecap="round" stroke-linejoin="round" stroke-width="3"/>
      </g>
      <g id="Graphic_44">
        <path d="M 116.85967 497.4593 L 93.10297 503.5313 L 79.36636 511.0516 L 95.29788 506.64293 L 118.10714 503.3282 Z" fill="#ffffc0"/>
        <path d="M 116.85967 497.4593 L 93.10297 503.5313 L 79.36636 511.0516 L 95.29788 506.64293 L 118.10714 503.3282 Z" stroke="black" stroke-linecap="round" stroke-linejoin="round" stroke-width="3"/>
      </g>
      <g id="Graphic_43">
        <path d="M 98.63683 538.2657 L 74.88013 544.33766 L 61.143514 551.858 L 77.07504 547.4493 L 99.8843 544.13457 Z" fill="#ffffc0"/>
        <path d="M 98.63683 538.2657 L 74.88013 544.33766 L 61.143514 551.858 L 77.07504 547.4493 L 99.8843 544.13457 Z" stroke="black" stroke-linecap="round" stroke-linejoin="round" stroke-width="3"/>
      </g>
      <g id="Graphic_42">
        <path d="M 101.13177 550.00345 L 77.37507 556.07543 L 63.638455 563.5958 L 79.56998 559.1871 L 102.37924 555.87234 Z" fill="#ffffc0"/>
        <path d="M 101.13177 550.00345 L 77.37507 556.07543 L 63.638455 563.5958 L 79.56998 559.1871 L 102.37924 555.87234 Z" stroke="black" stroke-linecap="round" stroke-linejoin="round" stroke-width="3"/>
      </g>
      <g id="Graphic_41">
        <path d="M 101.75434 558.00824 L 79.77922 568.8868 L 67.90635 579.0988 L 82.57311 571.4741 L 104.19476 563.4895 Z" fill="#ffffc0"/>
        <path d="M 101.75434 558.00824 L 79.77922 568.8868 L 67.90635 579.0988 L 82.57311 571.4741 L 104.19476 563.4895 Z" stroke="black" stroke-linecap="round" stroke-linejoin="round" stroke-width="3"/>
      </g>
      <g id="Graphic_40">
        <path d="M 287.415 465 L 237.415 458 L 198.415 461 L 156.415 466 C 156.415 466 121.415 476 120.415 477 C 119.415 478 113.415 494 113.415 494 L 113.415 505 L 145.415 508 C 145.415 508 177.415 504 178.415 504 C 179.415 504 231.415 497 231.415 497 L 267.415 490 L 282.415 494 L 307.415 497 L 307.415 484 Z" fill="#6d5f4f"/>
        <path d="M 287.415 465 L 237.415 458 L 198.415 461 L 156.415 466 C 156.415 466 121.415 476 120.415 477 C 119.415 478 113.415 494 113.415 494 L 113.415 505 L 145.415 508 C 145.415 508 177.415 504 178.415 504 C 179.415 504 231.415 497 231.415 497 L 267.415 490 L 282.415 494 L 307.415 497 L 307.415 484 Z" stroke="black" stroke-linecap="round" stroke-linejoin="round" stroke-width="5"/>
      </g>
      <g id="Graphic_39">
        <path d="M 302.415 394.0564 L 302.415 375.90897 C 302.415 375.303 302.4081 374.69707 302.39434 374.09126 L 301.88203 351.5495 C 301.58023 338.2704 296.6387 325.5161 287.915 315.5 L 287.915 315.5 C 279.42795 305.7556 266.80875 300.63385 253.9312 301.707 L 246.6488 302.31385 C 233.4473 303.41398 220.85416 308.3444 210.415 316.5 L 194.415 329 C 194.415 329 190.415 358.5 190.415 359.5 C 190.415 360.5 197.415 390 197.415 390 L 217.17983 400.90474 C 223.27172 404.2658 229.98877 406.34036 236.915 407 L 236.915 407 C 243.63313 407.6398 249.8147 410.9451 254.07757 416.1768 L 260.91084 424.5631 C 266.5171 431.4435 270.60767 439.4299 272.915 448 L 275.04246 455.90203 C 275.9565 459.297 277.09332 462.628 278.44557 465.8734 L 284.91302 481.39527 C 285.9087 483.78486 287.25773 486.0113 288.915 488 L 288.915 488 C 289.84256 489.1131 289.69218 490.76736 288.5791 491.69493 C 288.31782 491.91266 288.0167 492.0775 287.6925 492.1803 L 253.01737 503.17486 C 251.28296 503.7248 249.5678 504.33374 247.87492 505.00063 L 231.54744 511.4327 C 222.20923 515.11136 212.26217 517 202.22548 517 L 170.415 517 C 170.415 517 122.415 519 121.415 520 C 120.415 521 98.415 532 98.415 532 L 92.915 540 C 89.4789 544.99796 88.768 551.3825 91.02055 557.0139 L 91.41499 558 C 93.99169 564.4417 98.84277 569.7139 105.04827 572.81664 L 105.415 573 C 111.69567 576.14034 119.10171 576.0765 125.32731 572.82835 L 131.01625 569.8602 C 135.9354 567.2937 141.1082 565.2459 146.45114 563.7499 L 157.56217 560.6388 C 161.45844 559.54784 165.43186 558.75404 169.44822 558.26424 L 203.1722 554.15156 C 204.00068 554.0505 204.82752 553.93653 205.65243 553.8096 L 243.415 548 C 243.415 548 265.415 543 266.415 543 C 267.415 543 280.415 540 280.415 540 L 286.415 540 C 290.34685 540 294.21064 541.0261 297.62445 542.97683 L 299.415 544 C 304.06365 546.6564 309.02436 548.7248 314.18312 550.1578 L 345.3136 558.8052 C 355.2864 561.5754 365.702 562.38404 375.9829 561.18627 L 452.694 552.24905 C 453.74005 552.1272 454.48924 551.1804 454.3674 550.13434 C 454.27466 549.33854 453.6944 548.6856 452.915 548.5 L 442.415 546 C 442.415 546 471.415 542 472.415 542 C 473.415 542 495.415 537 495.415 536 C 495.415 535 511.415 538 512.415 538 C 513.415 538 524.415 550 524.415 550 L 524.415 548.5 C 524.415 547.57846 523.90146 546.7337 523.08336 546.3095 L 416.93717 491.27076 C 416.58906 491.09026 416.2396 490.9123 415.8889 490.73695 L 329.28106 447.43303 C 319.71534 442.6502 312.27575 434.47363 308.415 424.5 L 307.80955 422.93593 C 304.244 413.72497 302.415 403.9334 302.415 394.0564 Z" fill="#6e5f4f"/>
        <path d="M 302.415 394.0564 L 302.415 375.90897 C 302.415 375.303 302.4081 374.69707 302.39434 374.09126 L 301.88203 351.5495 C 301.58023 338.2704 296.6387 325.5161 287.915 315.5 L 287.915 315.5 C 279.42795 305.7556 266.80875 300.63385 253.9312 301.707 L 246.6488 302.31385 C 233.4473 303.41398 220.85416 308.3444 210.415 316.5 L 194.415 329 C 194.415 329 190.415 358.5 190.415 359.5 C 190.415 360.5 197.415 390 197.415 390 L 217.17983 400.90474 C 223.27172 404.2658 229.98877 406.34036 236.915 407 L 236.915 407 C 243.63313 407.6398 249.8147 410.9451 254.07757 416.1768 L 260.91084 424.5631 C 266.5171 431.4435 270.60767 439.4299 272.915 448 L 275.04246 455.90203 C 275.9565 459.297 277.09332 462.628 278.44557 465.8734 L 284.91302 481.39527 C 285.9087 483.78486 287.25773 486.0113 288.915 488 L 288.915 488 C 289.84256 489.1131 289.69218 490.76736 288.5791 491.69493 C 288.31782 491.91266 288.0167 492.0775 287.6925 492.1803 L 253.01737 503.17486 C 251.28296 503.7248 249.5678 504.33374 247.87492 505.00063 L 231.54744 511.4327 C 222.20923 515.11136 212.26217 517 202.22548 517 L 170.415 517 C 170.415 517 122.415 519 121.415 520 C 120.415 521 98.415 532 98.415 532 L 92.915 540 C 89.4789 544.99796 88.768 551.3825 91.02055 557.0139 L 91.41499 558 C 93.99169 564.4417 98.84277 569.7139 105.04827 572.81664 L 105.415 573 C 111.69567 576.14034 119.10171 576.0765 125.32731 572.82835 L 131.01625 569.8602 C 135.9354 567.2937 141.1082 565.2459 146.45114 563.7499 L 157.56217 560.6388 C 161.45844 559.54784 165.43186 558.75404 169.44822 558.26424 L 203.1722 554.15156 C 204.00068 554.0505 204.82752 553.93653 205.65243 553.8096 L 243.415 548 C 243.415 548 265.415 543 266.415 543 C 267.415 543 280.415 540 280.415 540 L 286.415 540 C 290.34685 540 294.21064 541.0261 297.62445 542.97683 L 299.415 544 C 304.06365 546.6564 309.02436 548.7248 314.18312 550.1578 L 345.3136 558.8052 C 355.2864 561.5754 365.702 562.38404 375.9829 561.18627 L 452.694 552.24905 C 453.74005 552.1272 454.48924 551.1804 454.3674 550.13434 C 454.27466 549.33854 453.6944 548.6856 452.915 548.5 L 442.415 546 C 442.415 546 471.415 542 472.415 542 C 473.415 542 495.415 537 495.415 536 C 495.415 535 511.415 538 512.415 538 C 513.415 538 524.415 550 524.415 550 L 524.415 548.5 C 524.415 547.57846 523.90146 546.7337 523.08336 546.3095 L 416.93717 491.27076 C 416.58906 491.09026 416.2396 490.9123 415.8889 490.73695 L 329.28106 447.43303 C 319.71534 442.6502 312.27575 434.47363 308.415 424.5 L 307.80955 422.93593 C 304.244 413.72497 302.415 403.9334 302.415 394.0564 Z" stroke="black" stroke-linecap="round" stroke-linejoin="round" stroke-width="4"/>
      </g>
      <g id="Graphic_38">
        <path d="M 491.44004 547.75626 L 499.7781 549.8408 C 513.47256 553.2644 526.63855 558.5323 538.915 565.5 L 538.915 565.5 C 551.2074 572.4768 564.2627 578.014 577.82266 582.00226 L 593.1894 586.5219 C 603.3322 589.50506 613.6306 591.93135 624.03834 593.7899 L 636.415 596 C 654.9727 599.3139 673.9278 599.77254 692.62406 597.3601 L 726.415 593 C 726.415 593 758.415 587 759.415 587 C 760.415 587 776.415 572 776.415 572 L 783.415 562.5 C 785.0882 560.2292 784.6038 557.0319 782.333 555.3587 C 781.28735 554.5882 779.9875 554.2451 778.6978 554.3991 L 723.415 561 C 723.415 561 649.415 566 649.415 565 C 649.415 564 612.415 550 610.415 550 C 608.415 550 547.415 521 547.415 520 C 547.415 519 515.415 510 514.415 510 C 513.415 510 499.415 503 499.415 503 L 499.915 499.5 C 500.1365 497.9494 501.5731 496.872 503.1237 497.0935 C 503.32853 497.12275 503.52956 497.17434 503.7232 497.24735 L 530.915 507.5 C 551.11805 515.11755 572.4103 519.45186 593.9835 520.33843 L 631.3223 521.8729 C 633.38404 521.95763 635.4448 522.06436 637.50426 522.1931 L 683.1551 525.04625 C 703.83106 526.3385 724.57235 523.9528 744.415 518 L 756.8316 514.275 C 768.1121 510.89086 777.6411 503.2647 783.415 493 L 783.415 493 C 789.2723 482.587 791.77715 470.62155 790.58835 458.73355 L 789.5506 448.35607 C 788.8397 441.2469 784.6752 434.9431 778.415 431.5 L 778.415 431.5 C 771.8433 427.88555 764.5039 425.89136 757.0067 425.6831 L 750.415 425.5 C 744.6988 425.3412 739.93615 429.8464 739.7774 435.5626 C 739.7266 437.3918 740.1614 439.20177 741.0377 440.8082 L 744.415 447 C 748.9831 455.3748 745.8971 465.8671 737.5223 470.4352 C 735.6782 471.44105 733.66615 472.1021 731.5849 472.3859 L 690.415 478 C 690.415 478 657.415 479 656.415 480 C 655.415 481 654.415 479 654.415 479 L 666.415 478 C 666.415 478 652.415 478 647.415 478 C 642.415 478 611.415 477 610.415 477 C 609.415 477 582.415 474 582.415 474 C 582.415 474 553.415 474 552.415 474 C 551.415 474 522.415 474 522.415 474 L 516.415 474 C 512.48424 474 508.62265 475.03405 505.2179 476.99833 L 497.415 481.5 C 489.00396 486.3525 482.51316 493.9448 479.0273 503.00796 L 474.415 515 C 469.5289 527.70384 475.86644 541.9633 488.5703 546.8494 C 489.5075 547.2099 490.4659 547.5127 491.44004 547.75626 Z" fill="#6d5f4f"/>
        <path d="M 491.44004 547.75626 L 499.7781 549.8408 C 513.47256 553.2644 526.63855 558.5323 538.915 565.5 L 538.915 565.5 C 551.2074 572.4768 564.2627 578.014 577.82266 582.00226 L 593.1894 586.5219 C 603.3322 589.50506 613.6306 591.93135 624.03834 593.7899 L 636.415 596 C 654.9727 599.3139 673.9278 599.77254 692.62406 597.3601 L 726.415 593 C 726.415 593 758.415 587 759.415 587 C 760.415 587 776.415 572 776.415 572 L 783.415 562.5 C 785.0882 560.2292 784.6038 557.0319 782.333 555.3587 C 781.28735 554.5882 779.9875 554.2451 778.6978 554.3991 L 723.415 561 C 723.415 561 649.415 566 649.415 565 C 649.415 564 612.415 550 610.415 550 C 608.415 550 547.415 521 547.415 520 C 547.415 519 515.415 510 514.415 510 C 513.415 510 499.415 503 499.415 503 L 499.915 499.5 C 500.1365 497.9494 501.5731 496.872 503.1237 497.0935 C 503.32853 497.12275 503.52956 497.17434 503.7232 497.24735 L 530.915 507.5 C 551.11805 515.11755 572.4103 519.45186 593.9835 520.33843 L 631.3223 521.8729 C 633.38404 521.95763 635.4448 522.06436 637.50426 522.1931 L 683.1551 525.04625 C 703.83106 526.3385 724.57235 523.9528 744.415 518 L 756.8316 514.275 C 768.1121 510.89086 777.6411 503.2647 783.415 493 L 783.415 493 C 789.2723 482.587 791.77715 470.62155 790.58835 458.73355 L 789.5506 448.35607 C 788.8397 441.2469 784.6752 434.9431 778.415 431.5 L 778.415 431.5 C 771.8433 427.88555 764.5039 425.89136 757.0067 425.6831 L 750.415 425.5 C 744.6988 425.3412 739.93615 429.8464 739.7774 435.5626 C 739.7266 437.3918 740.1614 439.20177 741.0377 440.8082 L 744.415 447 C 748.9831 455.3748 745.8971 465.8671 737.5223 470.4352 C 735.6782 471.44105 733.66615 472.1021 731.5849 472.3859 L 690.415 478 C 690.415 478 657.415 479 656.415 480 C 655.415 481 654.415 479 654.415 479 L 666.415 478 C 666.415 478 652.415 478 647.415 478 C 642.415 478 611.415 477 610.415 477 C 609.415 477 582.415 474 582.415 474 C 582.415 474 553.415 474 552.415 474 C 551.415 474 522.415 474 522.415 474 L 516.415 474 C 512.48424 474 508.62265 475.03405 505.2179 476.99833 L 497.415 481.5 C 489.00396 486.3525 482.51316 493.9448 479.0273 503.00796 L 474.415 515 C 469.5289 527.70384 475.86644 541.9633 488.5703 546.8494 C 489.5075 547.2099 490.4659 547.5127 491.44004 547.75626 Z" stroke="black" stroke-linecap="round" stroke-linejoin="round" stroke-width="5"/>
      </g>
      <g id="Graphic_37">
        <path d="M 198.415 347 L 206.415 333 L 223.415 331 C 223.415 331 241.415 327 242.415 327 C 243.415 327 278.415 334 278.415 334 L 292.415 337 L 292.415 349 L 280.415 360 L 265.415 356 L 249.415 349 L 244.415 349 L 255.415 364 L 278.415 373 C 278.415 373 287.415 380 287.415 381 C 287.415 382 282.415 388 281.415 388 C 280.415 388 273.415 389 272.415 390 C 271.415 391 243.415 397 243.415 397 L 226.415 397 L 201.415 391 L 197.415 382 L 203.415 369 L 212.415 365 L 228.415 357 L 233.415 351 L 224.415 345 L 216.415 345 L 208.415 345 Z" fill="#ffffc0"/>
        <path d="M 198.415 347 L 206.415 333 L 223.415 331 C 223.415 331 241.415 327 242.415 327 C 243.415 327 278.415 334 278.415 334 L 292.415 337 L 292.415 349 L 280.415 360 L 265.415 356 L 249.415 349 L 244.415 349 L 255.415 364 L 278.415 373 C 278.415 373 287.415 380 287.415 381 C 287.415 382 282.415 388 281.415 388 C 280.415 388 273.415 389 272.415 390 C 271.415 391 243.415 397 243.415 397 L 226.415 397 L 201.415 391 L 197.415 382 L 203.415 369 L 212.415 365 L 228.415 357 L 233.415 351 L 224.415 345 L 216.415 345 L 208.415 345 Z" stroke="black" stroke-linecap="round" stroke-linejoin="round" stroke-width="2"/>
      </g>
      <g id="Graphic_36">
        <circle cx="214.415" cy="354" r="8.00001278321518" fill="#90916d"/>
        <circle cx="214.415" cy="354" r="8.00001278321518" stroke="black" stroke-linecap="round" stroke-linejoin="round" stroke-width="1"/>
      </g>
      <g id="Graphic_35">
        <circle cx="263.415" cy="362" r="8.00001278321511" fill="#90916d"/>
        <circle cx="263.415" cy="362" r="8.00001278321511" stroke="black" stroke-linecap="round" stroke-linejoin="round" stroke-width="1"/>
      </g>
      <g id="Graphic_34">
        <circle cx="233.415" cy="371" r="11.0000175769209" fill="#333"/>
        <circle cx="233.415" cy="371" r="11.0000175769209" stroke="black" stroke-linecap="round" stroke-linejoin="round" stroke-width="1"/>
      </g>
      <g id="Graphic_33">
        <circle cx="227.1073" cy="374.3846" r="3.00000479370571" fill="black"/>
        <circle cx="227.1073" cy="374.3846" r="3.00000479370571" stroke="black" stroke-linecap="round" stroke-linejoin="round" stroke-width="1"/>
      </g>
      <g id="Graphic_32">
        <circle cx="238.87653" cy="375.15385" r="3.00000479370568" fill="black"/>
        <circle cx="238.87653" cy="375.15385" r="3.00000479370568" stroke="black" stroke-linecap="round" stroke-linejoin="round" stroke-width="1"/>
      </g>
      <g id="Line_31">
        <path d="M 214.45977 382 L 230.45977 389.41887 L 242.57755 388.20493 L 252.37022 386.3029 L 252.37022 386.3029" stroke="black" stroke-linecap="round" stroke-linejoin="round" stroke-width="1"/>
      </g>
      <g id="Graphic_30">
        <circle cx="214.415" cy="357.09116" r="4.90884481293425" fill="black"/>
        <circle cx="214.415" cy="357.09116" r="4.90884481293425" stroke="black" stroke-linecap="round" stroke-linejoin="round" stroke-width="1"/>
      </g>
      <g id="Graphic_29">
        <circle cx="260.32383" cy="362" r="4.90884481293425" fill="black"/>
        <circle cx="260.32383" cy="362" r="4.90884481293425" stroke="black" stroke-linecap="round" stroke-linejoin="round" stroke-width="1"/>
      </g>
      <g id="Graphic_28">
        <path d="M 317.415 410 L 353.415 394 L 380.415 387 L 411.415 380 L 449.415 381 L 486.415 393 L 520.415 417 L 546.415 452 L 559.415 478 L 560.415 481 L 569.415 478 L 573.415 486 L 566.415 506 L 552.415 528 L 524.415 549 L 481.415 558 L 440.415 557 L 399.415 538 L 368.415 519 L 338.415 488 L 318.415 461 L 309.415 440 L 305.415 414 L 305.415 398 L 312.415 396 Z" fill="#008b00"/>
        <path d="M 317.415 410 L 353.415 394 L 380.415 387 L 411.415 380 L 449.415 381 L 486.415 393 L 520.415 417 L 546.415 452 L 559.415 478 L 560.415 481 L 569.415 478 L 573.415 486 L 566.415 506 L 552.415 528 L 524.415 549 L 481.415 558 L 440.415 557 L 399.415 538 L 368.415 519 L 338.415 488 L 318.415 461 L 309.415 440 L 305.415 414 L 305.415 398 L 312.415 396 Z" stroke="black" stroke-linecap="round" stroke-linejoin="round" stroke-width="6"/>
      </g>
      <g id="Line_27">
        <path d="M 382.415 387 L 401.5721 419.38387 L 354.98214 474.57285 L 328.1293 435.91153 L 320.3907 411.3655 L 320.3907 411.3655" stroke="black" stroke-linecap="round" stroke-linejoin="round" stroke-width="4"/>
      </g>
      <g id="Line_26">
        <path d="M 401.5721 419.38387 L 462.59405 427.814 L 498.2518 400.6708 L 498.2518 400.6708" stroke="black" stroke-linecap="round" stroke-linejoin="round" stroke-width="4"/>
      </g>
      <g id="Line_25">
        <path d="M 462.59405 427.814 L 497.91394 465.67293 L 538.2433 485.3467 L 565.8035 480.0944 L 565.8035 480.0944" stroke="black" stroke-linecap="round" stroke-linejoin="round" stroke-width="4"/>
      </g>
      <g id="Line_24">
        <path d="M 530.60106 481.6186 L 508.7169 538.2657 L 523.4946 546.0414 L 523.4946 546.0414" stroke="black" stroke-linecap="round" stroke-linejoin="round" stroke-width="4"/>
      </g>
      <g id="Line_23">
        <path d="M 490.19866 457.403 L 430.415 551.5946 L 395.0951 536.7878" stroke="black" stroke-linecap="round" stroke-linejoin="round" stroke-width="4"/>
      </g>
      <g id="Line_22">
        <path d="M 354.98214 474.57285 L 401.5721 514.72276 L 461.9131 537.69573 L 516.63227 531.19764 L 524.4893 522.0109 L 548.82716 510.1672 L 565.8035 480.0944" stroke="black" stroke-linecap="round" stroke-linejoin="round" stroke-width="4"/>
      </g>
      <g id="Line_21">
        <path d="M 354.98214 474.57285 L 342.30794 489.026 L 342.30794 489.026" stroke="black" stroke-linecap="round" stroke-linejoin="round" stroke-width="4"/>
      </g>
    </g>
  </g>
</svg>
