<?xml version="1.0" encoding="UTF-8" standalone="no"?>
<!DOCTYPE svg PUBLIC "-//W3C//DTD SVG 1.1//EN" "http://www.w3.org/Graphics/SVG/1.1/DTD/svg11.dtd">
<svg version="1.1" xmlns="http://www.w3.org/2000/svg" xmlns:xl="http://www.w3.org/1999/xlink" xmlns:dc="http://purl.org/dc/elements/1.1/" viewBox="0 0 850.394 850.394" width="850.394" height="850.394">
  <defs>
    <marker orient="auto" overflow="visible" markerUnits="strokeWidth" id="FilledArrow_Marker" stroke-linejoin="miter" stroke-miterlimit="10" viewBox="-3 -2 4 4" markerWidth="4" markerHeight="4" color="black">
      <g>
        <path d="M -1.7641026 0 L 0 .6615385 L 0 -.6615385 Z" fill="currentColor" stroke="currentColor" stroke-width="1"/>
      </g>
    </marker>
  </defs>
  <metadata> Produced by OmniGraffle 7.9.4 
    <dc:date>2019-03-21 11:15:14 +0000</dc:date>
  </metadata>
  <g id="down_solo" stroke-opacity="1" fill-opacity="1" stroke="none" stroke-dasharray="none" fill="none">
    <title>down solo</title>
    <g id="down_solo: Layer 1">
      <title>Layer 1</title>
      <g id="Graphic_11">
        <rect x="178.29128" y="190.88555" width="494.4216" height="468.13753" fill="white"/>
        <rect x="178.29128" y="190.88555" width="494.4216" height="468.13753" stroke="black" stroke-linecap="round" stroke-linejoin="round" stroke-width="1"/>
      </g>
      <g id="Graphic_10">
        <rect x="397.779" y="192.00953" width="55.259895" height="466.876" fill="red" fill-opacity=".502393"/>
        <rect x="397.779" y="192.00953" width="55.259895" height="466.876" stroke="black" stroke-linecap="round" stroke-linejoin="round" stroke-width="2"/>
      </g>
      <g id="Graphic_9">
        <rect x="453.0389" y="192.00953" width="55.259895" height="466.876" fill="#68bc36" fill-opacity=".503576"/>
        <rect x="453.0389" y="192.00953" width="55.259895" height="466.876" stroke="black" stroke-linecap="round" stroke-linejoin="round" stroke-width="2"/>
      </g>
      <g id="Graphic_8">
        <rect x="506.9332" y="192.61457" width="55.259895" height="467.64174" fill="lime" fill-opacity=".500853"/>
        <rect x="506.9332" y="192.61457" width="55.259895" height="467.64174" stroke="black" stroke-linecap="round" stroke-linejoin="round" stroke-width="2"/>
      </g>
      <g id="Graphic_7">
        <rect x="562.1931" y="192.00953" width="55.259895" height="468.13753" fill="#9662d0" fill-opacity=".502668"/>
        <rect x="562.1931" y="192.00953" width="55.259895" height="468.13753" stroke="black" stroke-linecap="round" stroke-linejoin="round" stroke-width="2"/>
      </g>
      <g id="Graphic_6">
        <rect x="177.68112" y="190.88555" width="55.259895" height="468.74786" fill="red" fill-opacity=".502393"/>
        <rect x="177.68112" y="190.88555" width="55.259895" height="468.74786" stroke="black" stroke-linecap="round" stroke-linejoin="round" stroke-width="2"/>
      </g>
      <g id="Graphic_5">
        <rect x="232.94102" y="190.88555" width="55.259895" height="468.74786" fill="#68bc36" fill-opacity=".503576"/>
        <rect x="232.94102" y="190.88555" width="55.259895" height="468.74786" stroke="black" stroke-linecap="round" stroke-linejoin="round" stroke-width="2"/>
      </g>
      <g id="Graphic_4">
        <rect x="286.8353" y="191.4906" width="55.259895" height="467.64174" fill="lime" fill-opacity=".500853"/>
        <rect x="286.8353" y="191.4906" width="55.259895" height="467.64174" stroke="black" stroke-linecap="round" stroke-linejoin="round" stroke-width="2"/>
      </g>
      <g id="Graphic_3">
        <rect x="342.0952" y="190.88555" width="55.259895" height="468.13753" fill="#9662d0" fill-opacity=".502668"/>
        <rect x="342.0952" y="190.88555" width="55.259895" height="468.13753" stroke="black" stroke-linecap="round" stroke-linejoin="round" stroke-width="2"/>
      </g>
      <g id="Graphic_2">
        <rect x="617.453" y="190.1377" width="55.259895" height="468.74786" fill="red" fill-opacity=".502393"/>
        <rect x="617.453" y="190.1377" width="55.259895" height="468.74786" stroke="black" stroke-linecap="round" stroke-linejoin="round" stroke-width="2"/>
      </g>
      <g id="Graphic_24">
        <path d="M 116.7879 507.2446 L 115.25067 404.32684 L 186.47583 348.90957 L 258.2134 400.6013 L 257.18857 506.77893 Z" fill="#999"/>
        <path d="M 116.7879 507.2446 L 115.25067 404.32684 L 186.47583 348.90957 L 258.2134 400.6013 L 257.18857 506.77893 Z" stroke="black" stroke-linecap="round" stroke-linejoin="round" stroke-width="4"/>
      </g>
      <g id="Graphic_23">
        <path d="M 113.45723 418.7994 L 107.3083 418.28697 L 102.6966 409.576 L 186.73203 339.88806 L 272.8171 410.6008 L 264.61853 417.77456 L 261.03165 416.2373 L 185.1948 354.23557 L 185.1948 355.2604 Z" fill="red"/>
        <path d="M 113.45723 418.7994 L 107.3083 418.28697 L 102.6966 409.576 L 186.73203 339.88806 L 272.8171 410.6008 L 264.61853 417.77456 L 261.03165 416.2373 L 185.1948 354.23557 L 185.1948 355.2604 Z" stroke="black" stroke-linecap="round" stroke-linejoin="round" stroke-width="3"/>
      </g>
      <g id="Graphic_22">
        <path d="M 228.23734 374.0177 L 228.23734 333.02482 L 250.78343 332 L 250.78343 391.4397 Z" fill="#850000"/>
        <path d="M 228.23734 374.0177 L 228.23734 333.02482 L 250.78343 332 L 250.78343 391.4397 Z" stroke="black" stroke-linecap="round" stroke-linejoin="round" stroke-width="3"/>
      </g>
      <g id="Graphic_21">
        <path d="M 103.20901 407.32444 L 98.59731 399.6383 L 131.90403 378.117 L 130.3668 370.43084 L 168.79764 346.85992 L 184.16997 332.5124 L 203.1292 343.27305 L 203.1292 344.8103 L 242.58485 368.8936 L 241.04762 375.55495 L 276.9164 399.12587 L 272.3047 409.3741 L 186.21962 340.711 Z" fill="#333"/>
        <path d="M 103.20901 407.32444 L 98.59731 399.6383 L 131.90403 378.117 L 130.3668 370.43084 L 168.79764 346.85992 L 184.16997 332.5124 L 203.1292 343.27305 L 203.1292 344.8103 L 242.58485 368.8936 L 241.04762 375.55495 L 276.9164 399.12587 L 272.3047 409.3741 L 186.21962 340.711 Z" stroke="black" stroke-linecap="round" stroke-linejoin="round" stroke-width="3"/>
      </g>
      <g id="Graphic_20">
        <path d="M 167.51661 507.75704 L 169.05384 453.44145 L 207.9971 451.9042 L 207.9971 508.26945 Z" fill="#cb1b24"/>
        <path d="M 167.51661 507.75704 L 169.05384 453.44145 L 207.9971 451.9042 L 207.9971 508.26945 Z" stroke="black" stroke-linecap="round" stroke-linejoin="round" stroke-width="3"/>
      </g>
      <g id="Graphic_19">
        <path d="M 135.2347 441.28333 L 136.0173 415.36 L 155.84295 414.6263 L 155.84295 441.5279 Z" fill="aqua"/>
        <path d="M 135.2347 441.28333 L 136.0173 415.36 L 155.84295 414.6263 L 155.84295 441.5279 Z" stroke="black" stroke-linecap="round" stroke-linejoin="round" stroke-width="3"/>
      </g>
      <g id="Graphic_18">
        <path d="M 214.65844 441.28333 L 215.44103 415.36 L 235.2667 414.6263 L 235.2667 441.5279 Z" fill="aqua"/>
        <path d="M 214.65844 441.28333 L 215.44103 415.36 L 235.2667 414.6263 L 235.2667 441.5279 Z" stroke="black" stroke-linecap="round" stroke-linejoin="round" stroke-width="3"/>
      </g>
      <g id="Graphic_17">
        <circle cx="200.05472" cy="480.08683" r="4.3555020478656" fill="#76bdff"/>
        <circle cx="200.05472" cy="480.08683" r="4.3555020478656" stroke="black" stroke-linecap="round" stroke-linejoin="round" stroke-width="3"/>
      </g>
      <g id="Line_16">
        <line x1="136.77194" y1="427.8209" x2="155.4663" y2="428.0625" stroke="black" stroke-linecap="round" stroke-linejoin="round" stroke-width="1"/>
      </g>
      <g id="Line_15">
        <line x1="146.50775" y1="415.523" x2="145.85505" y2="440.35555" stroke="black" stroke-linecap="round" stroke-linejoin="round" stroke-width="1"/>
      </g>
      <g id="Line_14">
        <line x1="215.68326" y1="429.87054" x2="234.37763" y2="430.11215" stroke="black" stroke-linecap="round" stroke-linejoin="round" stroke-width="1"/>
      </g>
      <g id="Line_13">
        <line x1="225.4871" y1="414.28507" x2="224.90666" y2="441.5279" stroke="black" stroke-linecap="round" stroke-linejoin="round" stroke-width="1"/>
      </g>
      <g id="Line_12">
        <line x1="383.84188" y1="429.2521" x2="655.3333" y2="430.87054" marker-start="url(#FilledArrow_Marker)" stroke="black" stroke-linecap="round" stroke-linejoin="round" stroke-width="39"/>
      </g>
    </g>
  </g>
</svg>
