<?xml version="1.0" encoding="UTF-8" standalone="no"?>
<!DOCTYPE svg PUBLIC "-//W3C//DTD SVG 1.1//EN" "http://www.w3.org/Graphics/SVG/1.1/DTD/svg11.dtd">
<svg version="1.1" xmlns="http://www.w3.org/2000/svg" xmlns:xl="http://www.w3.org/1999/xlink" xmlns:dc="http://purl.org/dc/elements/1.1/" viewBox="0 0 850.394 850.394" width="850.394" height="850.394">
  <defs/>
  <metadata> Produced by OmniGraffle 7.9.4 
    <dc:date>2019-03-21 11:09:51 +0000</dc:date>
  </metadata>
  <g id="home_2" stroke-opacity="1" fill-opacity="1" stroke="none" stroke-dasharray="none" fill="none">
    <title>home 2</title>
    <g id="home_2: Layer 1">
      <title>Layer 1</title>
      <g id="Graphic_13">
        <path d="M 156.51182 774.29695 L 150.55307 375.35896 L 426.6416 160.5462 L 704.7164 360.91777 L 700.7439 772.4918 Z" fill="#999"/>
        <path d="M 156.51182 774.29695 L 150.55307 375.35896 L 426.6416 160.5462 L 704.7164 360.91777 L 700.7439 772.4918 Z" stroke="black" stroke-linecap="round" stroke-linejoin="round" stroke-width="6"/>
      </g>
      <g id="Graphic_12">
        <path d="M 143.6012 431.45856 L 119.76622 429.4723 L 101.88999 395.7061 L 427.6347 125.57631 L 761.3245 399.6786 L 729.5445 427.48606 L 715.6407 421.5273 L 421.676 181.19126 L 421.676 185.16376 Z" fill="red"/>
        <path d="M 143.6012 431.45856 L 119.76622 429.4723 L 101.88999 395.7061 L 427.6347 125.57631 L 761.3245 399.6786 L 729.5445 427.48606 L 715.6407 421.5273 L 421.676 181.19126 L 421.676 185.16376 Z" stroke="black" stroke-linecap="round" stroke-linejoin="round" stroke-width="6"/>
      </g>
      <g id="Graphic_11">
        <path d="M 588.52084 257.87237 L 588.52084 98.9725 L 675.9158 95 L 675.9158 325.4048 Z" fill="#850000"/>
        <path d="M 588.52084 257.87237 L 588.52084 98.9725 L 675.9158 95 L 675.9158 325.4048 Z" stroke="black" stroke-linecap="round" stroke-linejoin="round" stroke-width="6"/>
      </g>
      <g id="Graphic_10">
        <path d="M 103.87624 386.9785 L 86 357.1848 L 215.10615 273.76236 L 209.1474 243.96863 L 358.11603 152.6012 L 417.7035 96.98625 L 491.1947 138.69746 L 491.1947 144.65621 L 644.1358 238.00988 L 638.17705 263.8311 L 777.2144 355.19854 L 759.3382 394.9235 L 425.6485 128.76622 Z" fill="#333"/>
        <path d="M 103.87624 386.9785 L 86 357.1848 L 215.10615 273.76236 L 209.1474 243.96863 L 358.11603 152.6012 L 417.7035 96.98625 L 491.1947 138.69746 L 491.1947 144.65621 L 644.1358 238.00988 L 638.17705 263.8311 L 777.2144 355.19854 L 759.3382 394.9235 L 425.6485 128.76622 Z" stroke="black" stroke-linecap="round" stroke-linejoin="round" stroke-width="6"/>
      </g>
      <g id="Graphic_9">
        <path d="M 353.1504 772.3468 L 359.25862 565.6325 L 514 559.7821 L 514 774.29695 Z" fill="#cb1b24"/>
        <path d="M 353.1504 772.3468 L 359.25862 565.6325 L 514 559.7821 L 514 774.29695 Z" stroke="black" stroke-linecap="round" stroke-linejoin="round" stroke-width="6"/>
      </g>
      <g id="Graphic_8">
        <path d="M 228.01676 518.6126 L 231.0503 418.1265 L 307.90006 415.28255 L 307.90006 519.5606 Z" fill="aqua"/>
        <path d="M 228.01676 518.6126 L 231.0503 418.1265 L 307.90006 415.28255 L 307.90006 519.5606 Z" stroke="black" stroke-linecap="round" stroke-linejoin="round" stroke-width="6"/>
      </g>
      <g id="Graphic_7">
        <path d="M 535.88526 518.6126 L 538.9188 418.1265 L 615.76856 415.28255 L 615.76856 519.5606 Z" fill="aqua"/>
        <path d="M 535.88526 518.6126 L 538.9188 418.1265 L 615.76856 415.28255 L 615.76856 519.5606 Z" stroke="black" stroke-linecap="round" stroke-linejoin="round" stroke-width="6"/>
      </g>
      <g id="Graphic_6">
        <circle cx="479.2772" cy="669.0258" r="16.8831383448371" fill="#76bdff"/>
        <circle cx="479.2772" cy="669.0258" r="16.8831383448371" stroke="black" stroke-linecap="round" stroke-linejoin="round" stroke-width="3"/>
      </g>
      <g id="Line_5">
        <line x1="233.9755" y1="466.42845" x2="306.44007" y2="467.365" stroke="black" stroke-linecap="round" stroke-linejoin="round" stroke-width="2"/>
      </g>
      <g id="Line_4">
        <line x1="271.71423" y1="418.7585" x2="269.18418" y2="515.0163" stroke="black" stroke-linecap="round" stroke-linejoin="round" stroke-width="2"/>
      </g>
      <g id="Line_3">
        <line x1="539.85776" y1="474.37344" x2="612.3223" y2="475.31" stroke="black" stroke-linecap="round" stroke-linejoin="round" stroke-width="2"/>
      </g>
      <g id="Line_2">
        <line x1="577.86014" y1="413.95985" x2="575.6102" y2="519.5606" stroke="black" stroke-linecap="round" stroke-linejoin="round" stroke-width="2"/>
      </g>
    </g>
  </g>
</svg>
