<?xml version="1.0" encoding="UTF-8" standalone="no"?>
<!DOCTYPE svg PUBLIC "-//W3C//DTD SVG 1.1//EN" "http://www.w3.org/Graphics/SVG/1.1/DTD/svg11.dtd">
<svg version="1.1" xmlns="http://www.w3.org/2000/svg" xmlns:xl="http://www.w3.org/1999/xlink" xmlns:dc="http://purl.org/dc/elements/1.1/" viewBox="0 0 850.394 850.394" width="850.394" height="850.394">
  <defs>
    <marker orient="auto" overflow="visible" markerUnits="strokeWidth" id="FilledArrow_Marker" stroke-linejoin="miter" stroke-miterlimit="10" viewBox="-3 -2 4 4" markerWidth="4" markerHeight="4" color="black">
      <g>
        <path d="M -1.7641026 0 L 0 .6615385 L 0 -.6615385 Z" fill="currentColor" stroke="currentColor" stroke-width="1"/>
      </g>
    </marker>
  </defs>
  <metadata> Produced by OmniGraffle 7.9.4 
    <dc:date>2019-03-21 11:15:14 +0000</dc:date>
  </metadata>
  <g id="up_solo" stroke-opacity="1" fill-opacity="1" stroke="none" stroke-dasharray="none" fill="none">
    <title>up solo</title>
    <g id="up_solo: Layer 1">
      <title>Layer 1</title>
      <g id="Graphic_10">
        <rect x="177.61016" y="198.74786" width="494.4216" height="468.13753" fill="white"/>
        <rect x="177.61016" y="198.74786" width="494.4216" height="468.13753" stroke="black" stroke-linecap="round" stroke-linejoin="round" stroke-width="1"/>
      </g>
      <g id="Graphic_53">
        <rect x="397.0979" y="199.87183" width="55.259895" height="466.876" fill="red" fill-opacity=".502393"/>
        <rect x="397.0979" y="199.87183" width="55.259895" height="466.876" stroke="black" stroke-linecap="round" stroke-linejoin="round" stroke-width="2"/>
      </g>
      <g id="Graphic_54">
        <rect x="452.3578" y="199.87183" width="55.259895" height="466.876" fill="#68bc36" fill-opacity=".503576"/>
        <rect x="452.3578" y="199.87183" width="55.259895" height="466.876" stroke="black" stroke-linecap="round" stroke-linejoin="round" stroke-width="2"/>
      </g>
      <g id="Graphic_55">
        <rect x="506.2521" y="200.47687" width="55.259895" height="467.64174" fill="lime" fill-opacity=".500853"/>
        <rect x="506.2521" y="200.47687" width="55.259895" height="467.64174" stroke="black" stroke-linecap="round" stroke-linejoin="round" stroke-width="2"/>
      </g>
      <g id="Graphic_56">
        <rect x="561.512" y="199.87183" width="55.259895" height="468.13753" fill="#9662d0" fill-opacity=".502668"/>
        <rect x="561.512" y="199.87183" width="55.259895" height="468.13753" stroke="black" stroke-linecap="round" stroke-linejoin="round" stroke-width="2"/>
      </g>
      <g id="Graphic_9">
        <rect x="177" y="198.74786" width="55.259895" height="468.74786" fill="red" fill-opacity=".502393"/>
        <rect x="177" y="198.74786" width="55.259895" height="468.74786" stroke="black" stroke-linecap="round" stroke-linejoin="round" stroke-width="2"/>
      </g>
      <g id="Graphic_8">
        <rect x="232.2599" y="198.74786" width="55.259895" height="468.74786" fill="#68bc36" fill-opacity=".503576"/>
        <rect x="232.2599" y="198.74786" width="55.259895" height="468.74786" stroke="black" stroke-linecap="round" stroke-linejoin="round" stroke-width="2"/>
      </g>
      <g id="Graphic_7">
        <rect x="286.15417" y="199.3529" width="55.259895" height="467.64174" fill="lime" fill-opacity=".500853"/>
        <rect x="286.15417" y="199.3529" width="55.259895" height="467.64174" stroke="black" stroke-linecap="round" stroke-linejoin="round" stroke-width="2"/>
      </g>
      <g id="Graphic_6">
        <rect x="341.41407" y="198.74786" width="55.259895" height="468.13753" fill="#9662d0" fill-opacity=".502668"/>
        <rect x="341.41407" y="198.74786" width="55.259895" height="468.13753" stroke="black" stroke-linecap="round" stroke-linejoin="round" stroke-width="2"/>
      </g>
      <g id="Graphic_136">
        <rect x="616.77186" y="198" width="55.259895" height="468.74786" fill="red" fill-opacity=".502393"/>
        <rect x="616.77186" y="198" width="55.259895" height="468.74786" stroke="black" stroke-linecap="round" stroke-linejoin="round" stroke-width="2"/>
      </g>
    </g>
    <g id="up_solo: Layer 2">
      <title>Layer 2</title>
      <g id="Graphic_123">
        <path d="M 611.1906 529.9925 L 609.65336 427.0747 L 680.8785 371.65743 L 752.6161 423.34917 L 751.5913 529.5268 Z" fill="#999"/>
        <path d="M 611.1906 529.9925 L 609.65336 427.0747 L 680.8785 371.65743 L 752.6161 423.34917 L 751.5913 529.5268 Z" stroke="black" stroke-linecap="round" stroke-linejoin="round" stroke-width="4"/>
      </g>
      <g id="Graphic_124">
        <path d="M 607.8599 441.54724 L 601.711 441.03483 L 597.0993 432.32384 L 681.1347 362.6359 L 767.2198 433.34866 L 759.0212 440.5224 L 755.43435 438.9852 L 679.5975 376.98343 L 679.5975 378.00825 Z" fill="red"/>
        <path d="M 607.8599 441.54724 L 601.711 441.03483 L 597.0993 432.32384 L 681.1347 362.6359 L 767.2198 433.34866 L 759.0212 440.5224 L 755.43435 438.9852 L 679.5975 376.98343 L 679.5975 378.00825 Z" stroke="black" stroke-linecap="round" stroke-linejoin="round" stroke-width="3"/>
      </g>
      <g id="Graphic_129">
        <path d="M 722.64 396.7656 L 722.64 355.7727 L 745.1861 354.74786 L 745.1861 414.18756 Z" fill="#850000"/>
        <path d="M 722.64 396.7656 L 722.64 355.7727 L 745.1861 354.74786 L 745.1861 414.18756 Z" stroke="black" stroke-linecap="round" stroke-linejoin="round" stroke-width="3"/>
      </g>
      <g id="Graphic_125">
        <path d="M 597.6117 430.0723 L 593 422.38614 L 626.3067 400.86487 L 624.7695 393.1787 L 663.2003 369.6078 L 678.5727 355.26027 L 697.5319 366.0209 L 697.5319 367.55814 L 736.9875 391.64147 L 735.4503 398.3028 L 771.3191 421.87373 L 766.7074 432.12195 L 680.6223 363.45885 Z" fill="#333"/>
        <path d="M 597.6117 430.0723 L 593 422.38614 L 626.3067 400.86487 L 624.7695 393.1787 L 663.2003 369.6078 L 678.5727 355.26027 L 697.5319 366.0209 L 697.5319 367.55814 L 736.9875 391.64147 L 735.4503 398.3028 L 771.3191 421.87373 L 766.7074 432.12195 L 680.6223 363.45885 Z" stroke="black" stroke-linecap="round" stroke-linejoin="round" stroke-width="3"/>
      </g>
      <g id="Graphic_126">
        <path d="M 661.9193 530.5049 L 663.4565 476.1893 L 702.3998 474.6521 L 702.3998 531.0173 Z" fill="#cb1b24"/>
        <path d="M 661.9193 530.5049 L 663.4565 476.1893 L 702.3998 474.6521 L 702.3998 531.0173 Z" stroke="black" stroke-linecap="round" stroke-linejoin="round" stroke-width="3"/>
      </g>
      <g id="Graphic_127">
        <path d="M 629.6374 464.0312 L 630.42 438.10784 L 650.24565 437.37416 L 650.24565 464.27575 Z" fill="aqua"/>
        <path d="M 629.6374 464.0312 L 630.42 438.10784 L 650.24565 437.37416 L 650.24565 464.27575 Z" stroke="black" stroke-linecap="round" stroke-linejoin="round" stroke-width="3"/>
      </g>
      <g id="Graphic_128">
        <path d="M 709.0611 464.0312 L 709.8437 438.10784 L 729.6694 437.37416 L 729.6694 464.27575 Z" fill="aqua"/>
        <path d="M 709.0611 464.0312 L 709.8437 438.10784 L 729.6694 437.37416 L 729.6694 464.27575 Z" stroke="black" stroke-linecap="round" stroke-linejoin="round" stroke-width="3"/>
      </g>
      <g id="Graphic_130">
        <circle cx="694.4574" cy="502.8347" r="4.35550204786556" fill="#76bdff"/>
        <circle cx="694.4574" cy="502.8347" r="4.35550204786556" stroke="black" stroke-linecap="round" stroke-linejoin="round" stroke-width="3"/>
      </g>
      <g id="Line_131">
        <line x1="631.1746" y1="450.56875" x2="649.869" y2="450.81036" stroke="black" stroke-linecap="round" stroke-linejoin="round" stroke-width="1"/>
      </g>
      <g id="Line_132">
        <line x1="640.91045" y1="438.2709" x2="640.25775" y2="463.1034" stroke="black" stroke-linecap="round" stroke-linejoin="round" stroke-width="1"/>
      </g>
      <g id="Line_133">
        <line x1="710.08596" y1="452.6184" x2="728.7803" y2="452.86" stroke="black" stroke-linecap="round" stroke-linejoin="round" stroke-width="1"/>
      </g>
      <g id="Line_134">
        <line x1="719.8898" y1="437.03293" x2="719.3094" y2="464.27575" stroke="black" stroke-linecap="round" stroke-linejoin="round" stroke-width="1"/>
      </g>
      <g id="Line_135">
        <line x1="484.11293" y1="451.57346" x2="209.06383" y2="452.6184" marker-start="url(#FilledArrow_Marker)" stroke="black" stroke-linecap="round" stroke-linejoin="round" stroke-width="39"/>
      </g>
    </g>
  </g>
</svg>
