<?xml version="1.0" encoding="UTF-8" standalone="no"?>
<!DOCTYPE svg PUBLIC "-//W3C//DTD SVG 1.1//EN" "http://www.w3.org/Graphics/SVG/1.1/DTD/svg11.dtd">
<svg xmlns="http://www.w3.org/2000/svg" xmlns:xl="http://www.w3.org/1999/xlink" xmlns:dc="http://purl.org/dc/elements/1.1/" version="1.1" viewBox="0 0 850.394 850.394" width="850.394" height="850.394">
  <defs/>
  <metadata> Produced by OmniGraffle 7.9.4 
    <dc:date>2019-03-25 01:01:00 +0000</dc:date>
  </metadata>
  <g id="swipe_solo" stroke-opacity="1" stroke-dasharray="none" fill="none" fill-opacity="1" stroke="none">
    <title>swipe solo </title>
    <g id="Shared_1: Master layer">
      <title>Master layer</title>
      <g id="Graphic_10">
        <rect x="120.82123" y="197.14965" width="606.82846" height="454.742" fill="white"/>
        <rect x="120.82123" y="197.14965" width="606.82846" height="454.742" stroke="black" stroke-linecap="round" stroke-linejoin="round" stroke-width="6"/>
      </g>
      <g id="Graphic_9">
        <rect x="340.91913" y="197.14965" width="55.259895" height="454.742" fill="#942092" fill-opacity=".5"/>
        <rect x="340.91913" y="197.14965" width="55.259895" height="454.742" stroke="black" stroke-linecap="round" stroke-linejoin="round" stroke-width="2"/>
      </g>
      <g id="Graphic_5">
        <rect x="120.82123" y="197.05993" width="55.259895" height="454.742" fill="red" fill-opacity=".502393"/>
        <rect x="120.82123" y="197.05993" width="55.259895" height="454.742" stroke="black" stroke-linecap="round" stroke-linejoin="round" stroke-width="2"/>
      </g>
      <g id="Graphic_4">
        <rect x="176.08113" y="197.05993" width="55.259895" height="454.742" fill="#ff9300" fill-opacity=".4963826"/>
        <rect x="176.08113" y="197.05993" width="55.259895" height="454.742" stroke="black" stroke-linecap="round" stroke-linejoin="round" stroke-width="2"/>
      </g>
      <g id="Graphic_3">
        <rect x="230.8845" y="197.83555" width="55.259895" height="454.0241" fill="#fffc00" fill-opacity=".5"/>
        <rect x="230.8845" y="197.83555" width="55.259895" height="454.0241" stroke="black" stroke-linecap="round" stroke-linejoin="round" stroke-width="2"/>
      </g>
      <g id="Graphic_2">
        <rect x="285.2353" y="197.10512" width="55.259895" height="454.742" fill="blue" fill-opacity=".5"/>
        <rect x="285.2353" y="197.10512" width="55.259895" height="454.742" stroke="black" stroke-linecap="round" stroke-linejoin="round" stroke-width="2"/>
      </g>
      <g id="Graphic_15">
        <rect x="616.70086" y="197.2074" width="55.259895" height="454.742" fill="#942092" fill-opacity=".5"/>
        <rect x="616.70086" y="197.2074" width="55.259895" height="454.742" stroke="black" stroke-linecap="round" stroke-linejoin="round" stroke-width="2"/>
      </g>
      <g id="Graphic_14">
        <rect x="396.60296" y="197.11768" width="55.259895" height="454.742" fill="red" fill-opacity=".502393"/>
        <rect x="396.60296" y="197.11768" width="55.259895" height="454.742" stroke="black" stroke-linecap="round" stroke-linejoin="round" stroke-width="2"/>
      </g>
      <g id="Graphic_13">
        <rect x="451.86286" y="197.11768" width="55.259895" height="454.742" fill="#ff9300" fill-opacity=".496383"/>
        <rect x="451.86286" y="197.11768" width="55.259895" height="454.742" stroke="black" stroke-linecap="round" stroke-linejoin="round" stroke-width="2"/>
      </g>
      <g id="Graphic_12">
        <rect x="506.6662" y="197.83555" width="55.259895" height="454.08187" fill="#fffc00" fill-opacity=".5"/>
        <rect x="506.6662" y="197.83555" width="55.259895" height="454.08187" stroke="black" stroke-linecap="round" stroke-linejoin="round" stroke-width="2"/>
      </g>
      <g id="Graphic_11">
        <rect x="561.017" y="197.16288" width="55.259895" height="454.742" fill="blue" fill-opacity=".5"/>
        <rect x="561.017" y="197.16288" width="55.259895" height="454.742" stroke="black" stroke-linecap="round" stroke-linejoin="round" stroke-width="2"/>
      </g>
      <g id="Graphic_16">
        <rect x="672.3898" y="197.2074" width="55.259895" height="454.742" fill="red" fill-opacity=".502393"/>
        <rect x="672.3898" y="197.2074" width="55.259895" height="454.742" stroke="black" stroke-linecap="round" stroke-linejoin="round" stroke-width="2"/>
      </g>
      <g id="Graphic_17">
        <rect x="122.74431" y="198.5921" width="606.82846" height="454.742" stroke="#666" stroke-linecap="round" stroke-linejoin="round" stroke-width="9"/>
      </g>
    </g>
    <g id="swipe_solo: Layer 1">
      <title>Layer 1</title>
      <g id="Graphic_11">
        <path d="M 706 227.22712 C 662.1399 198.13293 633 246.22712 633 246.22712 L 448.371 410.78974 C 448.371 410.78974 448.23115 411.69555 404.37103 440.78974 C 360.5107 469.8838 327.37103 537.78974 327.37103 537.78974 L 186.37103 591.78974 C 186.37103 591.78974 99.51068 588.6957 143.37103 617.7897 C 187.23115 646.8839 230.37103 618.7897 230.37103 618.7897 L 408.37103 575.78974 C 408.37103 575.78974 649.9932 382.126 693.85336 353.0318 C 737.7137 323.93776 749.86035 256.32116 706 227.22712 Z M 682.85336 252.0318 C 704.5385 266.41628 695.5385 275.6473 673.85336 290.0318 C 652.1683 304.41635 475.05606 513.1743 453.371 498.78974 C 431.6859 484.40525 335.37103 582.78974 335.37103 582.78974 L 175 617 L 147 608 L 222 589 L 173 601 L 348.37103 551.78974 L 425.37103 443.78974 C 425.37103 443.78974 596.1682 308.41628 617.85336 294.0318 C 639.5384 279.64724 661.1683 237.64724 682.85336 252.0318 Z" fill="#40ffff"/>
        <path d="M 706 227.22712 C 662.1399 198.13293 633 246.22712 633 246.22712 L 448.371 410.78974 C 448.371 410.78974 448.23115 411.69555 404.37103 440.78974 C 360.5107 469.8838 327.37103 537.78974 327.37103 537.78974 L 186.37103 591.78974 C 186.37103 591.78974 99.51068 588.6957 143.37103 617.7897 C 187.23115 646.8839 230.37103 618.7897 230.37103 618.7897 L 408.37103 575.78974 C 408.37103 575.78974 649.9932 382.126 693.85336 353.0318 C 737.7137 323.93776 749.86035 256.32116 706 227.22712 Z M 682.85336 252.0318 C 704.5385 266.41628 695.5385 275.6473 673.85336 290.0318 C 652.1683 304.41635 475.05606 513.1743 453.371 498.78974 C 431.6859 484.40525 335.37103 582.78974 335.37103 582.78974 L 175 617 L 147 608 L 222 589 L 173 601 L 348.37103 551.78974 L 425.37103 443.78974 C 425.37103 443.78974 596.1682 308.41628 617.85336 294.0318 C 639.5384 279.64724 661.1683 237.64724 682.85336 252.0318 Z" stroke="black" stroke-linecap="round" stroke-linejoin="round" stroke-width="9"/>
      </g>
      <g id="Graphic_8">
        <path d="M 678.5852 239.36666 L 652.251 258.67838 L 630.59846 304.9095 L 607.7755 338.2661 L 575.5893 377.47476 L 530.93185 436.82356 L 532.8789 364.44116 L 517.50837 325.836 L 484.7598 333.61543 L 479.3278 371.63947 L 476.6118 406.9475 L 465.74776 442.25556 L 445.67405 495.6859 L 448.01487 537.8206 L 450.3557 567.0808 L 458.54854 615.0675 L 453.9311 641.9373 L 433.1557 689.4119 L 409.46997 729.2454 L 515.1217 814.0282 L 590.2007 831.6083 L 604.26394 770.892 L 616.5536 736.7899 L 635.8653 692.8996 L 675.07394 646.6685 L 706.67495 618.5787 L 730.0831 584.6369 L 749.5701 548.1797 L 746.8541 527.80967 L 718.9642 506.8048 L 716.0382 481.64103 L 692.9663 464.7959 L 680.4456 455.585 L 666.732 428.67555 L 623.27596 420.52754 L 646.9842 380.986 L 673.3183 332.41406 L 689.1188 299.05745 L 697.8969 272.72328 L 696.1413 249.90033 Z" fill="#ad7526"/>
        <path d="M 678.5852 239.36666 L 652.251 258.67838 L 630.59846 304.9095 L 607.7755 338.2661 L 575.5893 377.47476 L 530.93185 436.82356 L 532.8789 364.44116 L 517.50837 325.836 L 484.7598 333.61543 L 479.3278 371.63947 L 476.6118 406.9475 L 465.74776 442.25556 L 445.67405 495.6859 L 448.01487 537.8206 L 450.3557 567.0808 L 458.54854 615.0675 L 453.9311 641.9373 L 433.1557 689.4119 L 409.46997 729.2454 L 515.1217 814.0282 L 590.2007 831.6083 L 604.26394 770.892 L 616.5536 736.7899 L 635.8653 692.8996 L 675.07394 646.6685 L 706.67495 618.5787 L 730.0831 584.6369 L 749.5701 548.1797 L 746.8541 527.80967 L 718.9642 506.8048 L 716.0382 481.64103 L 692.9663 464.7959 L 680.4456 455.585 L 666.732 428.67555 L 623.27596 420.52754 L 646.9842 380.986 L 673.3183 332.41406 L 689.1188 299.05745 L 697.8969 272.72328 L 696.1413 249.90033 Z" stroke="black" stroke-linecap="round" stroke-linejoin="round" stroke-width="6"/>
      </g>
      <g id="Line_7">
        <path d="M 536.28983 429.6487 L 536.28983 429.6487 C 533.42993 433.93965 530.82846 438.39733 528.49926 442.998 L 508.68025 482.1448" stroke="black" stroke-linecap="round" stroke-linejoin="round" stroke-width="5"/>
      </g>
      <g id="Line_6">
        <path d="M 680.3408 456.47727 L 670.2143 474.3883 C 669.4914 475.66686 668.7218 476.91844 667.9071 478.1405 L 656.6422 495.03784" stroke="black" stroke-linecap="round" stroke-linejoin="round" stroke-width="5"/>
      </g>
      <g id="Line_5">
        <path d="M 624.2849 418.8205 L 621.6126 425.63987 C 619.8023 430.25953 617.4259 434.6368 614.53794 438.67143 L 605.959 450.65657" stroke="black" stroke-linecap="round" stroke-linejoin="round" stroke-width="5"/>
      </g>
      <g id="Line_4">
        <path d="M 721.4358 510.44676 L 718.0112 518.7549 C 716.31565 522.8684 714.1678 526.7805 711.6073 530.4191 L 692.2149 557.9767" stroke="black" stroke-linecap="round" stroke-linejoin="round" stroke-width="5"/>
      </g>
      <g id="Graphic_3">
        <path d="M 577.6601 790.8243 C 606.2876 823.2057 595.1578 842.483 552.801 833.88155 C 510.44434 825.2802 452.9005 792.0573 424.27323 759.676 C 395.64573 727.2947 406.7755 708.0173 449.13233 716.6188 C 491.489 725.2201 549.0328 758.443 577.6601 790.8243" fill="black"/>
        <path d="M 577.6601 790.8243 C 606.2876 823.2057 595.1578 842.483 552.801 833.88155 C 510.44434 825.2802 452.9005 792.0573 424.27323 759.676 C 395.64573 727.2947 406.7755 708.0173 449.13233 716.6188 C 491.489 725.2201 549.0328 758.443 577.6601 790.8243" stroke="black" stroke-linecap="round" stroke-linejoin="round" stroke-width="7"/>
      </g>
    </g>
  </g>
</svg>
