<?xml version="1.0" encoding="UTF-8" standalone="no"?>
<!DOCTYPE svg PUBLIC "-//W3C//DTD SVG 1.1//EN" "http://www.w3.org/Graphics/SVG/1.1/DTD/svg11.dtd">
<svg xmlns="http://www.w3.org/2000/svg" xmlns:xl="http://www.w3.org/1999/xlink" xmlns:dc="http://purl.org/dc/elements/1.1/" version="1.1" viewBox="0 0 850.394 850.394" width="850.394" height="850.394">
  <defs/>
  <metadata> Produced by OmniGraffle 7.9.4 
    <dc:date>2019-03-25 01:01:00 +0000</dc:date>
  </metadata>
  <g id="tap_solo" stroke-opacity="1" stroke-dasharray="none" fill="none" fill-opacity="1" stroke="none">
    <title>tap solo</title>
    <g id="Shared_1: Master layer">
      <title>Master layer</title>
      <g id="Graphic_10">
        <rect x="120.82123" y="197.14965" width="606.82846" height="454.742" fill="white"/>
        <rect x="120.82123" y="197.14965" width="606.82846" height="454.742" stroke="black" stroke-linecap="round" stroke-linejoin="round" stroke-width="6"/>
      </g>
      <g id="Graphic_9">
        <rect x="340.91913" y="197.14965" width="55.259895" height="454.742" fill="#942092" fill-opacity=".5"/>
        <rect x="340.91913" y="197.14965" width="55.259895" height="454.742" stroke="black" stroke-linecap="round" stroke-linejoin="round" stroke-width="2"/>
      </g>
      <g id="Graphic_5">
        <rect x="120.82123" y="197.05993" width="55.259895" height="454.742" fill="red" fill-opacity=".502393"/>
        <rect x="120.82123" y="197.05993" width="55.259895" height="454.742" stroke="black" stroke-linecap="round" stroke-linejoin="round" stroke-width="2"/>
      </g>
      <g id="Graphic_4">
        <rect x="176.08113" y="197.05993" width="55.259895" height="454.742" fill="#ff9300" fill-opacity=".4963826"/>
        <rect x="176.08113" y="197.05993" width="55.259895" height="454.742" stroke="black" stroke-linecap="round" stroke-linejoin="round" stroke-width="2"/>
      </g>
      <g id="Graphic_3">
        <rect x="230.8845" y="197.83555" width="55.259895" height="454.0241" fill="#fffc00" fill-opacity=".5"/>
        <rect x="230.8845" y="197.83555" width="55.259895" height="454.0241" stroke="black" stroke-linecap="round" stroke-linejoin="round" stroke-width="2"/>
      </g>
      <g id="Graphic_2">
        <rect x="285.2353" y="197.10512" width="55.259895" height="454.742" fill="blue" fill-opacity=".5"/>
        <rect x="285.2353" y="197.10512" width="55.259895" height="454.742" stroke="black" stroke-linecap="round" stroke-linejoin="round" stroke-width="2"/>
      </g>
      <g id="Graphic_15">
        <rect x="616.70086" y="197.2074" width="55.259895" height="454.742" fill="#942092" fill-opacity=".5"/>
        <rect x="616.70086" y="197.2074" width="55.259895" height="454.742" stroke="black" stroke-linecap="round" stroke-linejoin="round" stroke-width="2"/>
      </g>
      <g id="Graphic_14">
        <rect x="396.60296" y="197.11768" width="55.259895" height="454.742" fill="red" fill-opacity=".502393"/>
        <rect x="396.60296" y="197.11768" width="55.259895" height="454.742" stroke="black" stroke-linecap="round" stroke-linejoin="round" stroke-width="2"/>
      </g>
      <g id="Graphic_13">
        <rect x="451.86286" y="197.11768" width="55.259895" height="454.742" fill="#ff9300" fill-opacity=".496383"/>
        <rect x="451.86286" y="197.11768" width="55.259895" height="454.742" stroke="black" stroke-linecap="round" stroke-linejoin="round" stroke-width="2"/>
      </g>
      <g id="Graphic_12">
        <rect x="506.6662" y="197.83555" width="55.259895" height="454.08187" fill="#fffc00" fill-opacity=".5"/>
        <rect x="506.6662" y="197.83555" width="55.259895" height="454.08187" stroke="black" stroke-linecap="round" stroke-linejoin="round" stroke-width="2"/>
      </g>
      <g id="Graphic_11">
        <rect x="561.017" y="197.16288" width="55.259895" height="454.742" fill="blue" fill-opacity=".5"/>
        <rect x="561.017" y="197.16288" width="55.259895" height="454.742" stroke="black" stroke-linecap="round" stroke-linejoin="round" stroke-width="2"/>
      </g>
      <g id="Graphic_16">
        <rect x="672.3898" y="197.2074" width="55.259895" height="454.742" fill="red" fill-opacity=".502393"/>
        <rect x="672.3898" y="197.2074" width="55.259895" height="454.742" stroke="black" stroke-linecap="round" stroke-linejoin="round" stroke-width="2"/>
      </g>
      <g id="Graphic_17">
        <rect x="122.74431" y="198.5921" width="606.82846" height="454.742" stroke="#666" stroke-linecap="round" stroke-linejoin="round" stroke-width="9"/>
      </g>
    </g>
    <g id="tap_solo: Layer 1">
      <title>Layer 1</title>
      <g id="Graphic_11">
        <path d="M 430.0422 214.47417 C 400.94818 185.37998 353.77745 185.37998 324.6834 214.47417 C 295.58922 243.5682 295.58922 290.73893 324.6834 319.83297 C 353.77745 348.92716 400.94818 348.92716 430.0422 319.83297 C 459.1364 290.73893 459.1364 243.5682 430.0422 214.47417 M 403.4082 241.10817 C 417.79277 255.49265 417.79277 278.8145 403.4082 293.19897 C 389.02373 307.58353 365.7019 307.58353 351.3174 293.19897 C 336.93285 278.8145 336.93285 255.49265 351.3174 241.10817 C 365.7019 226.7236 389.02373 226.7236 403.4082 241.10817" fill="yellow"/>
        <path d="M 430.0422 214.47417 C 400.94818 185.37998 353.77745 185.37998 324.6834 214.47417 C 295.58922 243.5682 295.58922 290.73893 324.6834 319.83297 C 353.77745 348.92716 400.94818 348.92716 430.0422 319.83297 C 459.1364 290.73893 459.1364 243.5682 430.0422 214.47417 M 403.4082 241.10817 C 417.79277 255.49265 417.79277 278.8145 403.4082 293.19897 C 389.02373 307.58353 365.7019 307.58353 351.3174 293.19897 C 336.93285 278.8145 336.93285 255.49265 351.3174 241.10817 C 365.7019 226.7236 389.02373 226.7236 403.4082 241.10817" stroke="black" stroke-linecap="round" stroke-linejoin="round" stroke-width="9"/>
      </g>
      <g id="Graphic_8">
        <path d="M 359.88583 249.48438 L 354.9202 281.7609 L 372.29988 329.7619 L 379.7483 369.48684 L 384.71392 419.97064 L 395.10227 493.51416 L 345.29697 440.9553 L 307.1304 424.52594 L 289.47453 453.18357 L 312.5206 483.91164 L 335.56664 510.7987 L 352.85118 543.4473 L 376.4379 595.4225 L 407.8868 623.561 L 430.2321 642.5959 L 469.95705 670.7344 L 485.69187 692.9992 L 504.571 741.2592 L 515.9892 786.1741 L 650.6468 771.4176 L 716.1666 730.7597 L 683.1779 677.8826 L 667.7542 645.0787 L 650.3745 600.3881 L 645.4089 539.9731 L 647.8917 497.76533 L 640.4433 457.2128 L 628.44356 417.65424 L 612.1193 405.17096 L 577.54546 410.0394 L 557.683 394.31494 L 529.45736 398.71796 L 514.0908 401.05834 L 485.366 391.72743 L 448.8764 416.694 L 437.6805 371.96965 L 421.95607 319.00305 L 409.542 284.24372 L 397.12797 259.41562 L 379.7483 244.51877 Z" fill="#ad7526"/>
        <path d="M 359.88583 249.48438 L 354.9202 281.7609 L 372.29988 329.7619 L 379.7483 369.48684 L 384.71392 419.97064 L 395.10227 493.51416 L 345.29697 440.9553 L 307.1304 424.52594 L 289.47453 453.18357 L 312.5206 483.91164 L 335.56664 510.7987 L 352.85118 543.4473 L 376.4379 595.4225 L 407.8868 623.561 L 430.2321 642.5959 L 469.95705 670.7344 L 485.69187 692.9992 L 504.571 741.2592 L 515.9892 786.1741 L 650.6468 771.4176 L 716.1666 730.7597 L 683.1779 677.8826 L 667.7542 645.0787 L 650.3745 600.3881 L 645.4089 539.9731 L 647.8917 497.76533 L 640.4433 457.2128 L 628.44356 417.65424 L 612.1193 405.17096 L 577.54546 410.0394 L 557.683 394.31494 L 529.45736 398.71796 L 514.0908 401.05834 L 485.366 391.72743 L 448.8764 416.694 L 437.6805 371.96965 L 421.95607 319.00305 L 409.542 284.24372 L 397.12797 259.41562 L 379.7483 244.51877 Z" stroke="black" stroke-linecap="round" stroke-linejoin="round" stroke-width="6"/>
      </g>
      <g id="Line_7">
        <path d="M 393.81756 484.6521 L 393.81756 484.6521 C 394.82946 489.7085 396.142 494.7001 397.74816 499.60024 L 411.415 541.2954" stroke="black" stroke-linecap="round" stroke-linejoin="round" stroke-width="5"/>
      </g>
      <g id="Line_6">
        <path d="M 514.6476 401.76337 L 520.1521 421.5889 C 520.54504 423.0041 520.8859 424.4333 521.1739 425.8735 L 525.15666 445.7872" stroke="black" stroke-linecap="round" stroke-linejoin="round" stroke-width="5"/>
      </g>
      <g id="Line_5">
        <path d="M 448.3828 414.7735 L 451.3152 421.4851 C 453.3017 426.0318 454.71655 430.80735 455.52736 435.70237 L 457.9359 450.24335" stroke="black" stroke-linecap="round" stroke-linejoin="round" stroke-width="5"/>
      </g>
      <g id="Line_4">
        <path d="M 581.86836 410.867 L 585.3216 419.1633 C 587.0313 423.2709 588.27884 427.5559 589.0412 431.93936 L 594.81486 465.13804" stroke="black" stroke-linecap="round" stroke-linejoin="round" stroke-width="5"/>
      </g>
      <g id="Graphic_3">
        <path d="M 678.4605 710.7886 C 721.60026 713.443 727.3615 734.9441 691.3285 758.8127 C 655.2958 782.6814 591.114 799.8788 547.9744 797.2243 C 504.83463 794.57 499.0734 773.0689 535.1064 749.20025 C 571.1391 725.3316 635.3209 708.13415 678.4605 710.7886" fill="black"/>
        <path d="M 678.4605 710.7886 C 721.60026 713.443 727.3615 734.9441 691.3285 758.8127 C 655.2958 782.6814 591.114 799.8788 547.9744 797.2243 C 504.83463 794.57 499.0734 773.0689 535.1064 749.20025 C 571.1391 725.3316 635.3209 708.13415 678.4605 710.7886" stroke="black" stroke-linecap="round" stroke-linejoin="round" stroke-width="7"/>
      </g>
      <g id="Graphic_18">
        <path d="M 466.4555 143.11587 C 465.24305 157.26725 461.02886 153.23777 449.3796 161.36344 C 437.73037 169.4892 438.5537 169.0051 438.5537 169.0051 L 424.31967 178.84665 C 424.31967 178.84665 436.3583 166.96053 437.5708 152.80911 C 438.7832 138.65773 435.9088 140.33111 447.55804 132.20543 C 459.2073 124.07968 467.66795 128.96445 466.4555 143.11587 Z" fill="#ffff40"/>
        <path d="M 466.4555 143.11587 C 465.24305 157.26725 461.02886 153.23777 449.3796 161.36344 C 437.73037 169.4892 438.5537 169.0051 438.5537 169.0051 L 424.31967 178.84665 C 424.31967 178.84665 436.3583 166.96053 437.5708 152.80911 C 438.7832 138.65773 435.9088 140.33111 447.55804 132.20543 C 459.2073 124.07968 467.66795 128.96445 466.4555 143.11587 Z" stroke="black" stroke-linecap="round" stroke-linejoin="round" stroke-width="8"/>
      </g>
      <g id="Graphic_17">
        <path d="M 522.7512 263.9783 C 514.09345 271.126 514.01926 266.60755 502.94756 264.74633 C 491.8758 262.88515 492.60745 263.06646 492.60745 263.06646 L 479.1282 260.74422 C 479.1282 260.74422 492.538 260.74268 501.1958 253.59498 C 509.8536 246.44726 507.3087 245.80505 518.3804 247.66627 C 529.45217 249.52746 531.40904 256.8306 522.7512 263.9783 Z" fill="#ffff40"/>
        <path d="M 522.7512 263.9783 C 514.09345 271.126 514.01926 266.60755 502.94756 264.74633 C 491.8758 262.88515 492.60745 263.06646 492.60745 263.06646 L 479.1282 260.74422 C 479.1282 260.74422 492.538 260.74268 501.1958 253.59498 C 509.8536 246.44726 507.3087 245.80505 518.3804 247.66627 C 529.45217 249.52746 531.40904 256.8306 522.7512 263.9783 Z" stroke="black" stroke-linecap="round" stroke-linejoin="round" stroke-width="8"/>
      </g>
      <g id="Graphic_16">
        <path d="M 306.87316 405.26524 C 306.40587 389.18584 310.16575 391.90826 318.61014 378.21672 C 327.05453 364.5251 326.44857 365.39345 326.44857 365.39345 L 336.77545 348.7599 C 336.77545 348.7599 328.40177 366.75155 328.86902 382.83103 C 329.3363 398.91044 331.45348 395.8973 323.0091 409.58885 C 314.5647 423.28047 307.3404 421.3447 306.87316 405.26524 Z" fill="#ffff40"/>
        <path d="M 306.87316 405.26524 C 306.40587 389.18584 310.16575 391.90826 318.61014 378.21672 C 327.05453 364.5251 326.44857 365.39345 326.44857 365.39345 L 336.77545 348.7599 C 336.77545 348.7599 328.40177 366.75155 328.86902 382.83103 C 329.3363 398.91044 331.45348 395.8973 323.0091 409.58885 C 314.5647 423.28047 307.3404 421.3447 306.87316 405.26524 Z" stroke="black" stroke-linecap="round" stroke-linejoin="round" stroke-width="8"/>
      </g>
      <g id="Graphic_15">
        <path d="M 218.2279 320.9531 C 227.584 306.1766 229.95787 313.6186 247.43272 312.9042 C 264.90763 312.18975 263.72365 312.14058 263.72365 312.14058 L 285.02658 311.3639 C 285.02658 311.3639 264.99126 315.95716 255.63508 330.73364 C 246.27898 345.51012 250.403 345.70026 232.92813 346.41463 C 215.45323 347.1291 208.87172 335.72957 218.2279 320.9531 Z" fill="#ffff40"/>
        <path d="M 218.2279 320.9531 C 227.584 306.1766 229.95787 313.6186 247.43272 312.9042 C 264.90763 312.18975 263.72365 312.14058 263.72365 312.14058 L 285.02658 311.3639 C 285.02658 311.3639 264.99126 315.95716 255.63508 330.73364 C 246.27898 345.51012 250.403 345.70026 232.92813 346.41463 C 215.45323 347.1291 208.87172 335.72957 218.2279 320.9531 Z" stroke="black" stroke-linecap="round" stroke-linejoin="round" stroke-width="8"/>
      </g>
      <g id="Graphic_14">
        <path d="M 229.1861 210.82069 C 244.70025 210.20194 242.0386 213.9781 255.16487 222.27103 C 268.29122 230.56395 267.4594 229.96778 267.4594 229.96778 L 283.4056 240.11049 C 283.4056 240.11049 266.13087 231.9289 250.61666 232.54761 C 235.1025 233.16636 237.98877 235.24954 224.8625 226.9566 C 211.73614 218.6637 213.67188 211.4394 229.1861 210.82069 Z" fill="#ffff40"/>
        <path d="M 229.1861 210.82069 C 244.70025 210.20194 242.0386 213.9781 255.16487 222.27103 C 268.29122 230.56395 267.4594 229.96778 267.4594 229.96778 L 283.4056 240.11049 C 283.4056 240.11049 266.13087 231.9289 250.61666 232.54761 C 235.1025 233.16636 237.98877 235.24954 224.8625 226.9566 C 211.73614 218.6637 213.67188 211.4394 229.1861 210.82069 Z" stroke="black" stroke-linecap="round" stroke-linejoin="round" stroke-width="8"/>
      </g>
      <g id="Graphic_13">
        <path d="M 333.49185 114.14932 C 344.5443 123.96597 339.99395 124.85197 342.9692 139.33199 C 345.9445 153.81207 345.80706 152.84499 345.80706 152.84499 L 349.37217 170.48353 C 349.37217 170.48353 343.48064 153.34066 332.42818 143.52393 C 321.37574 133.70727 321.84214 137.07307 318.8669 122.59304 C 315.89157 108.11297 322.4394 104.33258 333.49185 114.14932 Z" fill="#ffff40"/>
        <path d="M 333.49185 114.14932 C 344.5443 123.96597 339.99395 124.85197 342.9692 139.33199 C 345.9445 153.81207 345.80706 152.84499 345.80706 152.84499 L 349.37217 170.48353 C 349.37217 170.48353 343.48064 153.34066 332.42818 143.52393 C 321.37574 133.70727 321.84214 137.07307 318.8669 122.59304 C 315.89157 108.11297 322.4394 104.33258 333.49185 114.14932 Z" stroke="black" stroke-linecap="round" stroke-linejoin="round" stroke-width="8"/>
      </g>
      <g id="Graphic_12">
        <path d="M 476.7768 417.26785 C 456.87484 409.31318 463.98743 405.19497 456.03276 385.29303 C 448.078 365.39105 448.5109 366.7578 448.5109 366.7578 L 438.91604 342.4784 C 438.91604 342.4784 452.13794 364.58824 472.0399 372.543 C 491.94186 380.4977 490.45443 375.7336 498.4091 395.6355 C 506.3639 415.5375 496.67876 425.2226 476.7768 417.26785 Z" fill="#ffff40"/>
        <path d="M 476.7768 417.26785 C 456.87484 409.31318 463.98743 405.19497 456.03276 385.29303 C 448.078 365.39105 448.5109 366.7578 448.5109 366.7578 L 438.91604 342.4784 C 438.91604 342.4784 452.13794 364.58824 472.0399 372.543 C 491.94186 380.4977 490.45443 375.7336 498.4091 395.6355 C 506.3639 415.5375 496.67876 425.2226 476.7768 417.26785 Z" stroke="black" stroke-linecap="round" stroke-linejoin="round" stroke-width="8"/>
      </g>
    </g>
  </g>
</svg>
