<?xml version="1.0" encoding="UTF-8" standalone="no"?>
<!DOCTYPE svg PUBLIC "-//W3C//DTD SVG 1.1//EN" "http://www.w3.org/Graphics/SVG/1.1/DTD/svg11.dtd">
<svg xmlns:dc="http://purl.org/dc/elements/1.1/" xmlns:xl="http://www.w3.org/1999/xlink" version="1.1" xmlns="http://www.w3.org/2000/svg" viewBox="0 0 850.394 850.394" width="850.394" height="850.394">
  <defs>
    <marker orient="auto" overflow="visible" markerUnits="strokeWidth" id="FilledArrow_Marker" stroke-linejoin="miter" stroke-miterlimit="10" viewBox="-1 -2 5 4" markerWidth="5" markerHeight="4" color="black">
      <g>
        <path d="M 2.4 0 L 0 -.9 L 0 .9 Z" fill="currentColor" stroke="currentColor" stroke-width="1"/>
      </g>
    </marker>
    <marker orient="auto" overflow="visible" markerUnits="strokeWidth" id="FilledArrow_Marker_2" stroke-linejoin="miter" stroke-miterlimit="10" viewBox="-4 -2 6 4" markerWidth="6" markerHeight="4" color="black">
      <g>
        <path d="M -2.4 0 L 0 .9 L 0 -.9 Z" fill="currentColor" stroke="currentColor" stroke-width="1"/>
      </g>
    </marker>
  </defs>
  <metadata> Produced by OmniGraffle 7.9.4 
    <dc:date>2019-08-05 00:29:16 +0000</dc:date>
  </metadata>
  <g id="trill_solo" fill="none" stroke-opacity="1" stroke="none" stroke-dasharray="none" fill-opacity="1">
    <title>trill solo</title>
    <g id="Shared_1: Master layer">
      <title>Master layer</title>
      <g id="Graphic_10">
        <rect x="120.82123" y="197.14965" width="606.82846" height="454.742" fill="white"/>
        <rect x="120.82123" y="197.14965" width="606.82846" height="454.742" stroke="black" stroke-linecap="round" stroke-linejoin="round" stroke-width="6"/>
      </g>
      <g id="Graphic_9">
        <rect x="340.91913" y="197.14965" width="55.259895" height="454.742" fill="#ccc"/>
        <rect x="340.91913" y="197.14965" width="55.259895" height="454.742" stroke="black" stroke-linecap="round" stroke-linejoin="round" stroke-width="2"/>
      </g>
      <g id="Graphic_5">
        <rect x="120.82123" y="197.05993" width="55.259895" height="454.742" fill="red" fill-opacity=".502393"/>
        <rect x="120.82123" y="197.05993" width="55.259895" height="454.742" stroke="black" stroke-linecap="round" stroke-linejoin="round" stroke-width="2"/>
      </g>
      <g id="Graphic_4">
        <rect x="176.08113" y="197.05993" width="55.259895" height="454.742" fill="#666"/>
        <rect x="176.08113" y="197.05993" width="55.259895" height="454.742" stroke="black" stroke-linecap="round" stroke-linejoin="round" stroke-width="2"/>
      </g>
      <g id="Graphic_3">
        <rect x="230.8845" y="197.83555" width="55.259895" height="454.0241" fill="#999"/>
        <rect x="230.8845" y="197.83555" width="55.259895" height="454.0241" stroke="black" stroke-linecap="round" stroke-linejoin="round" stroke-width="2"/>
      </g>
      <g id="Graphic_2">
        <rect x="285.2353" y="197.10512" width="55.259895" height="454.742" fill="#999"/>
        <rect x="285.2353" y="197.10512" width="55.259895" height="454.742" stroke="black" stroke-linecap="round" stroke-linejoin="round" stroke-width="2"/>
      </g>
      <g id="Graphic_15">
        <rect x="616.70086" y="197.2074" width="55.259895" height="454.742" fill="white"/>
        <rect x="616.70086" y="197.2074" width="55.259895" height="454.742" stroke="black" stroke-linecap="round" stroke-linejoin="round" stroke-width="2"/>
      </g>
      <g id="Graphic_14">
        <rect x="396.60296" y="197.11768" width="55.259895" height="454.742" fill="red" fill-opacity=".502393"/>
        <rect x="396.60296" y="197.11768" width="55.259895" height="454.742" stroke="black" stroke-linecap="round" stroke-linejoin="round" stroke-width="2"/>
      </g>
      <g id="Graphic_13">
        <rect x="451.86286" y="197.11768" width="55.259895" height="454.742" fill="#666"/>
        <rect x="451.86286" y="197.11768" width="55.259895" height="454.742" stroke="black" stroke-linecap="round" stroke-linejoin="round" stroke-width="2"/>
      </g>
      <g id="Graphic_12">
        <rect x="506.6662" y="197.83555" width="55.259895" height="454.08187" fill="#999"/>
        <rect x="506.6662" y="197.83555" width="55.259895" height="454.08187" stroke="black" stroke-linecap="round" stroke-linejoin="round" stroke-width="2"/>
      </g>
      <g id="Graphic_11">
        <rect x="561.017" y="197.16288" width="55.259895" height="454.742" fill="#ccc"/>
        <rect x="561.017" y="197.16288" width="55.259895" height="454.742" stroke="black" stroke-linecap="round" stroke-linejoin="round" stroke-width="2"/>
      </g>
      <g id="Graphic_16">
        <rect x="672.3898" y="197.2074" width="55.259895" height="454.742" fill="red" fill-opacity=".502393"/>
        <rect x="672.3898" y="197.2074" width="55.259895" height="454.742" stroke="black" stroke-linecap="round" stroke-linejoin="round" stroke-width="2"/>
      </g>
      <g id="Graphic_17">
        <rect x="118.89065" y="197.05993" width="606.82846" height="454.742" stroke="#666" stroke-linecap="round" stroke-linejoin="round" stroke-width="9"/>
      </g>
    </g>
    <g id="trill_solo: home note">
      <title>home note</title>
      <g id="Graphic_155">
        <rect x="122.74431" y="201.87079" width="55.259895" height="447.1292" fill="red"/>
        <rect x="122.74431" y="201.87079" width="55.259895" height="447.1292" stroke="black" stroke-linecap="round" stroke-linejoin="round" stroke-width="2"/>
      </g>
      <g id="Graphic_156">
        <rect x="178.1791" y="200.95603" width="55.259895" height="447.1292" fill="#ff9300"/>
        <rect x="178.1791" y="200.95603" width="55.259895" height="447.1292" stroke="black" stroke-linecap="round" stroke-linejoin="round" stroke-width="2"/>
      </g>
    </g>
    <g id="trill_solo: Layer 2">
      <title>Layer 2</title>
      <g id="Graphic_154">
        <rect x="122.74431" y="198.5921" width="108.59671" height="454.742" stroke="black" stroke-linecap="round" stroke-linejoin="round" stroke-width="9"/>
      </g>
      <g id="Line_151">
        <path d="M 288.78717 476.8918 L 280.32916 494.70445 C 277.49632 500.6704 272.77396 505.5349 266.89457 508.5433 L 257.4305 513.3859" stroke="#00fa00" stroke-linecap="round" stroke-linejoin="round" stroke-width="21"/>
      </g>
      <g id="Line_152">
        <path d="M 327.5667 481.41627 L 309.5626 525.12595 C 307.13206 531.0267 302.88316 535.99865 297.4334 539.3192 L 269.0184 556.6326" stroke="#00fa00" stroke-linecap="round" stroke-linejoin="round" stroke-width="21"/>
      </g>
      <g id="Line_149">
        <path d="M 233.78717 429.8918 L 225.2706 447.82775 C 222.47377 453.71793 217.834 458.5365 212.05377 461.55403 L 182.67327 476.8918" stroke="#00fa00" stroke-linecap="round" stroke-linejoin="round" stroke-width="21"/>
      </g>
      <g id="Line_150">
        <path d="M 272.5667 434.41627 L 254.5626 478.12595 C 252.13206 484.0267 247.88316 488.99865 242.43338 492.3192 L 214.0184 509.6326" stroke="#00fa00" stroke-linecap="round" stroke-linejoin="round" stroke-width="21"/>
      </g>
      <g id="Group_138">
        <g id="Graphic_144">
          <path d="M 210.83846 432.76056 L 207.83846 450.76056 L 214.83846 473.76056 L 228.83846 510.76056 L 233.83846 537.76056 L 239.83846 575.76056 L 213.905 548.39335 L 194.0318 539.83863 L 184.83846 554.76056 L 196.83846 570.76056 L 208.83846 584.76056 L 217.83846 601.76056 L 236.9925 644.917 L 266.83846 660.7606 L 287.00814 679.63175 L 296.83846 704.7606 L 302.78387 728.1476 L 372.8996 720.4639 L 407.01554 699.2935 L 389.83846 671.7606 L 378.83846 640.7606 L 379.83846 614.76056 L 377.83846 590.76056 L 376.83846 577.76056 L 372.83846 552.76056 L 361.33846 536.26056 L 352.83846 529.76056 L 342.33846 533.26056 L 327.29463 522.63726 L 309.7967 526.4005 L 301.7954 527.61914 L 286.83846 522.76056 L 267.83846 535.76056 L 254.83846 491.76056 L 244.83846 460.76056 L 237.83846 446.76056 L 227.83846 434.76056 L 220.83846 429.76056 Z" fill="#ad7526"/>
          <path d="M 210.83846 432.76056 L 207.83846 450.76056 L 214.83846 473.76056 L 228.83846 510.76056 L 233.83846 537.76056 L 239.83846 575.76056 L 213.905 548.39335 L 194.0318 539.83863 L 184.83846 554.76056 L 196.83846 570.76056 L 208.83846 584.76056 L 217.83846 601.76056 L 236.9925 644.917 L 266.83846 660.7606 L 287.00814 679.63175 L 296.83846 704.7606 L 302.78387 728.1476 L 372.8996 720.4639 L 407.01554 699.2935 L 389.83846 671.7606 L 378.83846 640.7606 L 379.83846 614.76056 L 377.83846 590.76056 L 376.83846 577.76056 L 372.83846 552.76056 L 361.33846 536.26056 L 352.83846 529.76056 L 342.33846 533.26056 L 327.29463 522.63726 L 309.7967 526.4005 L 301.7954 527.61914 L 286.83846 522.76056 L 267.83846 535.76056 L 254.83846 491.76056 L 244.83846 460.76056 L 237.83846 446.76056 L 227.83846 434.76056 L 220.83846 429.76056 Z" stroke="black" stroke-linecap="round" stroke-linejoin="round" stroke-width="6"/>
        </g>
        <g id="Line_143">
          <path d="M 238.11023 560.1453 L 238.11023 560.1453 C 239.34089 570.091 241.5323 579.89404 244.65376 589.4171 L 248.33243 600.6401" stroke="black" stroke-linecap="round" stroke-linejoin="round" stroke-width="3"/>
        </g>
        <g id="Line_142">
          <path d="M 305.48138 530.826 L 308.06496 540.1313 C 308.4579 541.5465 308.7987 542.97566 309.08676 544.4159 L 310.9534 553.7491" stroke="black" stroke-linecap="round" stroke-linejoin="round" stroke-width="3"/>
        </g>
        <g id="Line_141">
          <path d="M 266.83846 534.76056 L 266.93162 534.9738 C 268.91813 539.5205 270.333 544.29603 271.1438 549.19105 L 271.81273 553.2296" stroke="black" stroke-linecap="round" stroke-linejoin="round" stroke-width="3"/>
        </g>
        <g id="Line_140">
          <path d="M 341.75492 534.93425 L 342.31996 536.29174 C 344.0297 540.39935 345.27723 544.6844 346.03956 549.0678 L 348.4961 563.193" stroke="black" stroke-linecap="round" stroke-linejoin="round" stroke-width="3"/>
        </g>
        <g id="Graphic_139">
          <path d="M 387.3821 688.8946 C 409.84483 690.27674 412.84467 701.4723 394.08243 713.9006 C 375.3203 726.3289 341.90108 735.2836 319.43845 733.9014 C 296.9757 732.5193 293.97588 721.3237 312.7381 708.8954 C 331.50023 696.4671 364.91947 687.51245 387.3821 688.8946" fill="black"/>
          <path d="M 387.3821 688.8946 C 409.84483 690.27674 412.84467 701.4723 394.08243 713.9006 C 375.3203 726.3289 341.90108 735.2836 319.43845 733.9014 C 296.9757 732.5193 293.97588 721.3237 312.7381 708.8954 C 331.50023 696.4671 364.91947 687.51245 387.3821 688.8946" stroke="black" stroke-linecap="round" stroke-linejoin="round" stroke-width="7"/>
        </g>
      </g>
      <g id="Graphic_146">
        <path d="M 173.05 404.5 L 173.05 386 L 120.82123 416.5 L 170.25203 443.5 L 173.05 427.5 L 175.38164 427.5 L 179.5786 442 L 231.34102 417.5 L 186.57351 387 L 178.64593 389 L 177.24695 407 Z" fill="#ffff80"/>
        <path d="M 173.05 404.5 L 173.05 386 L 120.82123 416.5 L 170.25203 443.5 L 173.05 427.5 L 175.38164 427.5 L 179.5786 442 L 231.34102 417.5 L 186.57351 387 L 178.64593 389 L 177.24695 407 Z" stroke="black" stroke-linecap="round" stroke-linejoin="round" stroke-width="6"/>
      </g>
      <g id="Line_145">
        <line x1="158.89556" y1="415.79635" x2="190.97392" y2="416.34" marker-end="url(#FilledArrow_Marker)" marker-start="url(#FilledArrow_Marker_2)" stroke="black" stroke-linecap="round" stroke-linejoin="round" stroke-width="8"/>
      </g>
      <g id="Line_147">
        <path d="M 115 399.1349 L 127.78006 384.1183 C 132.06048 379.0888 137.88094 375.61234 144.33864 374.22814 L 154.7336 372" stroke="#00fa00" stroke-linecap="round" stroke-linejoin="round" stroke-width="21"/>
      </g>
      <g id="Line_148">
        <path d="M 78.71287 384.7277 L 107.4164 347.1672 C 111.29134 342.0966 116.68229 338.39376 122.8058 336.59684 L 154.7336 327.22772" stroke="#00fa00" stroke-linecap="round" stroke-linejoin="round" stroke-width="21"/>
      </g>
      <g id="Line_153">
        <path d="M 36.138614 373.35125 L 61.2917 337.40585 C 62.34255 335.9041 63.52881 334.50185 64.8356 333.21664 L 83.35536 315.00272 C 86.52402 311.8864 90.34549 309.513 94.54353 308.05414 L 161.88119 284.65347" stroke="#00fa00" stroke-linecap="round" stroke-linejoin="round" stroke-width="21"/>
      </g>
    </g>
  </g>
</svg>
