<?xml version="1.0" encoding="UTF-8" standalone="no"?>
<!DOCTYPE svg PUBLIC "-//W3C//DTD SVG 1.1//EN" "http://www.w3.org/Graphics/SVG/1.1/DTD/svg11.dtd">
<svg xmlns:dc="http://purl.org/dc/elements/1.1/" xmlns:xl="http://www.w3.org/1999/xlink" version="1.1" xmlns="http://www.w3.org/2000/svg" viewBox="0 0 850.394 850.394" width="850.394" height="850.394">
  <defs>
    <marker orient="auto" overflow="visible" markerUnits="strokeWidth" id="FilledArrow_Marker" stroke-linejoin="miter" stroke-miterlimit="10" viewBox="-3 -2 4 4" markerWidth="4" markerHeight="4" color="black">
      <g>
        <path d="M -1.7641026 0 L 0 .6615385 L 0 -.6615385 Z" fill="currentColor" stroke="currentColor" stroke-width="1"/>
      </g>
    </marker>
  </defs>
  <metadata> Produced by OmniGraffle 7.9.4 
    <dc:date>2019-08-05 00:29:16 +0000</dc:date>
  </metadata>
  <g id="up_solo" fill="none" stroke-opacity="1" stroke="none" stroke-dasharray="none" fill-opacity="1">
    <title>up solo</title>
    <g id="Shared_1: Master layer">
      <title>Master layer</title>
      <g id="Graphic_10">
        <rect x="120.82123" y="197.14965" width="606.82846" height="454.742" fill="white"/>
        <rect x="120.82123" y="197.14965" width="606.82846" height="454.742" stroke="black" stroke-linecap="round" stroke-linejoin="round" stroke-width="6"/>
      </g>
      <g id="Graphic_9">
        <rect x="340.91913" y="197.14965" width="55.259895" height="454.742" fill="#ccc"/>
        <rect x="340.91913" y="197.14965" width="55.259895" height="454.742" stroke="black" stroke-linecap="round" stroke-linejoin="round" stroke-width="2"/>
      </g>
      <g id="Graphic_5">
        <rect x="120.82123" y="197.05993" width="55.259895" height="454.742" fill="red" fill-opacity=".502393"/>
        <rect x="120.82123" y="197.05993" width="55.259895" height="454.742" stroke="black" stroke-linecap="round" stroke-linejoin="round" stroke-width="2"/>
      </g>
      <g id="Graphic_4">
        <rect x="176.08113" y="197.05993" width="55.259895" height="454.742" fill="#666"/>
        <rect x="176.08113" y="197.05993" width="55.259895" height="454.742" stroke="black" stroke-linecap="round" stroke-linejoin="round" stroke-width="2"/>
      </g>
      <g id="Graphic_3">
        <rect x="230.8845" y="197.83555" width="55.259895" height="454.0241" fill="#999"/>
        <rect x="230.8845" y="197.83555" width="55.259895" height="454.0241" stroke="black" stroke-linecap="round" stroke-linejoin="round" stroke-width="2"/>
      </g>
      <g id="Graphic_2">
        <rect x="285.2353" y="197.10512" width="55.259895" height="454.742" fill="#999"/>
        <rect x="285.2353" y="197.10512" width="55.259895" height="454.742" stroke="black" stroke-linecap="round" stroke-linejoin="round" stroke-width="2"/>
      </g>
      <g id="Graphic_15">
        <rect x="616.70086" y="197.2074" width="55.259895" height="454.742" fill="white"/>
        <rect x="616.70086" y="197.2074" width="55.259895" height="454.742" stroke="black" stroke-linecap="round" stroke-linejoin="round" stroke-width="2"/>
      </g>
      <g id="Graphic_14">
        <rect x="396.60296" y="197.11768" width="55.259895" height="454.742" fill="red" fill-opacity=".502393"/>
        <rect x="396.60296" y="197.11768" width="55.259895" height="454.742" stroke="black" stroke-linecap="round" stroke-linejoin="round" stroke-width="2"/>
      </g>
      <g id="Graphic_13">
        <rect x="451.86286" y="197.11768" width="55.259895" height="454.742" fill="#666"/>
        <rect x="451.86286" y="197.11768" width="55.259895" height="454.742" stroke="black" stroke-linecap="round" stroke-linejoin="round" stroke-width="2"/>
      </g>
      <g id="Graphic_12">
        <rect x="506.6662" y="197.83555" width="55.259895" height="454.08187" fill="#999"/>
        <rect x="506.6662" y="197.83555" width="55.259895" height="454.08187" stroke="black" stroke-linecap="round" stroke-linejoin="round" stroke-width="2"/>
      </g>
      <g id="Graphic_11">
        <rect x="561.017" y="197.16288" width="55.259895" height="454.742" fill="#ccc"/>
        <rect x="561.017" y="197.16288" width="55.259895" height="454.742" stroke="black" stroke-linecap="round" stroke-linejoin="round" stroke-width="2"/>
      </g>
      <g id="Graphic_16">
        <rect x="672.3898" y="197.2074" width="55.259895" height="454.742" fill="red" fill-opacity=".502393"/>
        <rect x="672.3898" y="197.2074" width="55.259895" height="454.742" stroke="black" stroke-linecap="round" stroke-linejoin="round" stroke-width="2"/>
      </g>
      <g id="Graphic_17">
        <rect x="118.89065" y="197.05993" width="606.82846" height="454.742" stroke="#666" stroke-linecap="round" stroke-linejoin="round" stroke-width="9"/>
      </g>
    </g>
    <g id="up_solo: home note">
      <title>home note</title>
      <g id="Graphic_146">
        <rect x="672.3898" y="197.2074" width="55.259895" height="454.742" fill="red"/>
        <rect x="672.3898" y="197.2074" width="55.259895" height="454.742" stroke="black" stroke-linecap="round" stroke-linejoin="round" stroke-width="2"/>
      </g>
    </g>
    <g id="up_solo: Layer 2">
      <title>Layer 2</title>
      <g id="Graphic_123">
        <path d="M 626.1268 512.3069 L 624.5895 409.3891 L 695.8147 353.97185 L 767.5523 405.6636 L 766.5274 511.8412 Z" fill="#999"/>
        <path d="M 626.1268 512.3069 L 624.5895 409.3891 L 695.8147 353.97185 L 767.5523 405.6636 L 766.5274 511.8412 Z" stroke="black" stroke-linecap="round" stroke-linejoin="round" stroke-width="4"/>
      </g>
      <g id="Graphic_124">
        <path d="M 622.7961 423.86166 L 616.64716 423.34925 L 612.03546 414.63826 L 696.0709 344.95033 L 782.156 415.6631 L 773.9574 422.83683 L 770.3705 421.2996 L 694.5337 359.29785 L 694.5337 360.32267 Z" fill="red"/>
        <path d="M 622.7961 423.86166 L 616.64716 423.34925 L 612.03546 414.63826 L 696.0709 344.95033 L 782.156 415.6631 L 773.9574 422.83683 L 770.3705 421.2996 L 694.5337 359.29785 L 694.5337 360.32267 Z" stroke="black" stroke-linecap="round" stroke-linejoin="round" stroke-width="3"/>
      </g>
      <g id="Graphic_129">
        <path d="M 737.5762 379.08 L 737.5762 338.0871 L 760.1223 337.06228 L 760.1223 396.50197 Z" fill="#850000"/>
        <path d="M 737.5762 379.08 L 737.5762 338.0871 L 760.1223 337.06228 L 760.1223 396.50197 Z" stroke="black" stroke-linecap="round" stroke-linejoin="round" stroke-width="3"/>
      </g>
      <g id="Graphic_125">
        <path d="M 612.5479 412.3867 L 607.9362 404.70055 L 641.2429 383.1793 L 639.7057 375.4931 L 678.1365 351.9222 L 693.5088 337.5747 L 712.46805 348.33532 L 712.46805 349.87256 L 751.9237 373.9559 L 750.3865 380.61723 L 786.2553 404.18814 L 781.6436 414.43637 L 695.5585 345.77327 Z" fill="#333"/>
        <path d="M 612.5479 412.3867 L 607.9362 404.70055 L 641.2429 383.1793 L 639.7057 375.4931 L 678.1365 351.9222 L 693.5088 337.5747 L 712.46805 348.33532 L 712.46805 349.87256 L 751.9237 373.9559 L 750.3865 380.61723 L 786.2553 404.18814 L 781.6436 414.43637 L 695.5585 345.77327 Z" stroke="black" stroke-linecap="round" stroke-linejoin="round" stroke-width="3"/>
      </g>
      <g id="Graphic_126">
        <path d="M 676.8555 512.8193 L 678.3927 458.5037 L 717.336 456.9665 L 717.336 513.3317 Z" fill="#cb1b24"/>
        <path d="M 676.8555 512.8193 L 678.3927 458.5037 L 717.336 456.9665 L 717.336 513.3317 Z" stroke="black" stroke-linecap="round" stroke-linejoin="round" stroke-width="3"/>
      </g>
      <g id="Graphic_127">
        <path d="M 644.5736 446.3456 L 645.3562 420.42226 L 665.1818 419.6886 L 665.1818 446.59017 Z" fill="aqua"/>
        <path d="M 644.5736 446.3456 L 645.3562 420.42226 L 665.1818 419.6886 L 665.1818 446.59017 Z" stroke="black" stroke-linecap="round" stroke-linejoin="round" stroke-width="3"/>
      </g>
      <g id="Graphic_128">
        <path d="M 723.9973 446.3456 L 724.7799 420.42226 L 744.60555 419.6886 L 744.60555 446.59017 Z" fill="aqua"/>
        <path d="M 723.9973 446.3456 L 724.7799 420.42226 L 744.60555 419.6886 L 744.60555 446.59017 Z" stroke="black" stroke-linecap="round" stroke-linejoin="round" stroke-width="3"/>
      </g>
      <g id="Graphic_130">
        <circle cx="709.3936" cy="485.1491" r="4.35550204786561" fill="#76bdff"/>
        <circle cx="709.3936" cy="485.1491" r="4.35550204786561" stroke="black" stroke-linecap="round" stroke-linejoin="round" stroke-width="3"/>
      </g>
      <g id="Line_131">
        <line x1="646.1108" y1="432.88317" x2="664.8052" y2="433.1248" stroke="black" stroke-linecap="round" stroke-linejoin="round" stroke-width="1"/>
      </g>
      <g id="Line_132">
        <line x1="655.8466" y1="420.5853" x2="655.1939" y2="445.41783" stroke="black" stroke-linecap="round" stroke-linejoin="round" stroke-width="1"/>
      </g>
      <g id="Line_133">
        <line x1="725.0221" y1="434.9328" x2="743.7165" y2="435.1744" stroke="black" stroke-linecap="round" stroke-linejoin="round" stroke-width="1"/>
      </g>
      <g id="Line_134">
        <line x1="734.826" y1="419.34735" x2="734.2455" y2="446.59017" stroke="black" stroke-linecap="round" stroke-linejoin="round" stroke-width="1"/>
      </g>
      <g id="Line_135">
        <line x1="499.0491" y1="433.8879" x2="224" y2="434.9328" marker-start="url(#FilledArrow_Marker)" stroke="black" stroke-linecap="round" stroke-linejoin="round" stroke-width="39"/>
      </g>
    </g>
    <g id="up_solo: hand">
      <title>hand</title>
      <g id="Group_145">
        <g id="Graphic_138">
          <path d="M 210.83846 432.76056 L 207.83846 450.76056 L 214.83846 473.76056 L 228.83846 510.76056 L 233.83846 537.76056 L 239.83846 575.76056 L 213.905 548.39335 L 194.0318 539.83863 L 184.83846 554.76056 L 196.83846 570.76056 L 208.83846 584.76056 L 217.83846 601.76056 L 236.9925 644.917 L 266.83846 660.7606 L 287.00814 679.63175 L 296.83846 704.7606 L 302.78387 728.1476 L 372.8996 720.4639 L 407.01554 699.2935 L 389.83846 671.7606 L 378.83846 640.7606 L 379.83846 614.76056 L 377.83846 590.76056 L 376.83846 577.76056 L 372.83846 552.76056 L 361.33846 536.26056 L 352.83846 529.76056 L 342.33846 533.26056 L 327.29463 522.63726 L 309.7967 526.4005 L 301.7954 527.61914 L 286.83846 522.76056 L 267.83846 535.76056 L 254.83846 491.76056 L 244.83846 460.76056 L 237.83846 446.76056 L 227.83846 434.76056 L 220.83846 429.76056 Z" fill="#ad7526"/>
          <path d="M 210.83846 432.76056 L 207.83846 450.76056 L 214.83846 473.76056 L 228.83846 510.76056 L 233.83846 537.76056 L 239.83846 575.76056 L 213.905 548.39335 L 194.0318 539.83863 L 184.83846 554.76056 L 196.83846 570.76056 L 208.83846 584.76056 L 217.83846 601.76056 L 236.9925 644.917 L 266.83846 660.7606 L 287.00814 679.63175 L 296.83846 704.7606 L 302.78387 728.1476 L 372.8996 720.4639 L 407.01554 699.2935 L 389.83846 671.7606 L 378.83846 640.7606 L 379.83846 614.76056 L 377.83846 590.76056 L 376.83846 577.76056 L 372.83846 552.76056 L 361.33846 536.26056 L 352.83846 529.76056 L 342.33846 533.26056 L 327.29463 522.63726 L 309.7967 526.4005 L 301.7954 527.61914 L 286.83846 522.76056 L 267.83846 535.76056 L 254.83846 491.76056 L 244.83846 460.76056 L 237.83846 446.76056 L 227.83846 434.76056 L 220.83846 429.76056 Z" stroke="black" stroke-linecap="round" stroke-linejoin="round" stroke-width="6"/>
        </g>
        <g id="Line_139">
          <path d="M 238.11023 560.1453 L 238.11023 560.1453 C 239.34089 570.091 241.5323 579.89404 244.65376 589.4171 L 248.33243 600.6401" stroke="black" stroke-linecap="round" stroke-linejoin="round" stroke-width="3"/>
        </g>
        <g id="Line_140">
          <path d="M 305.48138 530.826 L 308.06496 540.1313 C 308.4579 541.5465 308.7987 542.97566 309.08676 544.4159 L 310.9534 553.7491" stroke="black" stroke-linecap="round" stroke-linejoin="round" stroke-width="3"/>
        </g>
        <g id="Line_141">
          <path d="M 266.83846 534.76056 L 266.93162 534.9738 C 268.91813 539.5205 270.333 544.29603 271.1438 549.19105 L 271.81273 553.2296" stroke="black" stroke-linecap="round" stroke-linejoin="round" stroke-width="3"/>
        </g>
        <g id="Line_142">
          <path d="M 341.75492 534.93425 L 342.31996 536.29174 C 344.0297 540.39935 345.27723 544.6844 346.03956 549.0678 L 348.4961 563.193" stroke="black" stroke-linecap="round" stroke-linejoin="round" stroke-width="3"/>
        </g>
        <g id="Graphic_144">
          <path d="M 387.3821 688.8946 C 409.84483 690.27674 412.84467 701.4723 394.08243 713.9006 C 375.3203 726.3289 341.90108 735.2836 319.43845 733.9014 C 296.9757 732.5193 293.97588 721.3237 312.7381 708.8954 C 331.50023 696.4671 364.91947 687.51245 387.3821 688.8946" fill="black"/>
          <path d="M 387.3821 688.8946 C 409.84483 690.27674 412.84467 701.4723 394.08243 713.9006 C 375.3203 726.3289 341.90108 735.2836 319.43845 733.9014 C 296.9757 732.5193 293.97588 721.3237 312.7381 708.8954 C 331.50023 696.4671 364.91947 687.51245 387.3821 688.8946" stroke="black" stroke-linecap="round" stroke-linejoin="round" stroke-width="7"/>
        </g>
      </g>
    </g>
  </g>
</svg>
