<?xml version="1.0" encoding="UTF-8" standalone="no"?>
<!DOCTYPE svg PUBLIC "-//W3C//DTD SVG 1.1//EN" "http://www.w3.org/Graphics/SVG/1.1/DTD/svg11.dtd">
<svg xmlns:xl="http://www.w3.org/1999/xlink" xmlns:dc="http://purl.org/dc/elements/1.1/" xmlns="http://www.w3.org/2000/svg" version="1.1" viewBox="0 0 850.394 850.394" width="850.394" height="850.394">
  <defs/>
  <metadata> Produced by OmniGraffle 7.9.4 
    <dc:date>2019-04-08 19:38:23 +0000</dc:date>
  </metadata>
  <g id="Abstract_2" stroke="none" fill="none" stroke-dasharray="none" stroke-opacity="1" fill-opacity="1">
    <title>Abstract 2</title>
    <g id="Abstract_2: speaker">
      <title>speaker</title>
      <g id="Graphic_34">
        <path d="M 35.081758 247.49866 L 257.94863 187.78167 L 395.3487 608.76145 L 125.97573 680.9397 Z" fill="#666"/>
        <path d="M 35.081758 247.49866 L 257.94863 187.78167 L 395.3487 608.76145 L 125.97573 680.9397 Z" stroke="black" stroke-linecap="round" stroke-linejoin="round" stroke-width="22"/>
      </g>
      <g id="Graphic_33">
        <circle cx="224.47815" cy="499.6703" r="97.295022125048" fill="#ccc"/>
        <circle cx="224.47815" cy="499.6703" r="97.295022125048" stroke="black" stroke-linecap="round" stroke-linejoin="round" stroke-width="18"/>
      </g>
      <g id="Graphic_32">
        <circle cx="225.10902" cy="502.0247" r="41.2686261886999" fill="#999"/>
        <circle cx="225.10902" cy="502.0247" r="41.2686261886999" stroke="black" stroke-linecap="round" stroke-linejoin="round" stroke-width="18"/>
      </g>
      <g id="Graphic_31">
        <circle cx="175.64453" cy="317.42074" r="53.3689465226818" fill="#ccc"/>
        <circle cx="175.64453" cy="317.42074" r="53.3689465226818" stroke="black" stroke-linecap="round" stroke-linejoin="round" stroke-width="18"/>
      </g>
      <g id="Graphic_30">
        <circle cx="175.99058" cy="318.7122" r="22.6369556841106" fill="#a5a5a5"/>
        <circle cx="175.99058" cy="318.7122" r="22.6369556841106" stroke="black" stroke-linecap="round" stroke-linejoin="round" stroke-width="18"/>
      </g>
    </g>
    <g id="Abstract_2: Layer 1">
      <title>Layer 1</title>
      <g id="Graphic_36">
        <path d="M 842.5522 417.6559 L 459 48 L 206 546 L 259 536 Z" fill="#ff0002"/>
        <path d="M 842.5522 417.6559 L 459 48 L 206 546 L 259 536 Z" stroke="black" stroke-linecap="round" stroke-linejoin="round" stroke-width="8"/>
      </g>
      <g id="Graphic_12">
        <path d="M 212.38651 549.2013 L 234.56265 311.3574 L 539.2887 458.50233 Z" fill="#610000"/>
        <path d="M 212.38651 549.2013 L 234.56265 311.3574 L 539.2887 458.50233 Z" stroke="black" stroke-linecap="round" stroke-linejoin="round" stroke-width="8"/>
      </g>
      <g id="Graphic_11">
        <path d="M 454.42797 451.4031 L 451.22475 450.3626 C 451.22475 450.3626 443.80194 442.66946 443.739 442.4346 C 443.6761 442.19973 438.24 441.9213 438.24 441.9213 L 435.7201 448.8879 C 435.7201 448.8879 427.507 432.4372 428.648 437.9211 C 429.789 443.40505 426.4324 451.101 426.4324 451.101 C 426.4324 451.101 421.0208 444.9993 420.76905 444.05987 C 420.51733 443.1204 418.99873 436.2273 417.93715 433.4911 C 416.87557 430.75484 413.12185 424.71236 412.4461 424.6417 C 411.77035 424.57104 406.30144 423.7709 406.21117 424.04683 C 406.1209 424.32274 404.7338 423.4358 405.27285 426.0603 C 405.8119 428.68485 406.81923 446.5391 406.9451 447.0088 C 407.07095 447.47854 412.7838 462.05815 406.72376 455.37503 C 400.6637 448.6919 399.44894 445.9967 399.44894 445.9967 C 399.44894 445.9967 397.8891 432.82155 395.9465 426.79724 C 394.00387 420.77293 383.5556 414.25873 383.4024 414.2998 C 383.2492 414.34083 378.84187 416.27695 378.81452 416.7877 C 378.7872 417.2985 380.01066 435.34655 380.82877 438.39975 C 381.64687 441.45296 382.5583 454.0467 383.412 457.84553 C 384.2657 461.6444 382.58044 462.09594 381.9676 462.26014 C 381.3548 462.42434 376.20575 454.2385 376.05254 454.27955 C 375.89934 454.3206 372.9637 451.33134 372.8105 451.3724 C 372.6573 451.41344 367.2869 451.5938 367.2869 451.5938 L 365.547 453.0669 L 358.77395 427.5215 L 370.7915 452.4168 C 370.7915 452.4168 373.53834 454.7015 373.69155 454.66045 C 373.84475 454.6194 376.6354 458.90614 376.6354 458.90614 L 379.85835 463.5805 L 383.94842 464.7501 C 383.94842 464.7501 386.32027 461.3456 386.25733 461.1107 C 386.1944 460.87585 383.95623 451.91004 383.95623 451.91004 L 383.116 440.8076 C 383.116 440.8076 382.5522 434.4138 382.57954 433.90304 C 382.6069 433.39227 381.6846 423.82214 381.6217 423.5873 C 381.55875 423.3524 382.64203 420.04146 382.7323 419.76555 C 382.82257 419.48963 385.76904 419.4553 385.76904 419.4553 L 390.5787 422.6976 L 393.80163 427.37195 L 395.1232 432.30406 C 395.1232 432.30406 395.81283 439.16755 395.65962 439.2086 C 395.5064 439.24965 397.96073 448.40927 397.96073 448.40927 C 397.96073 448.40927 399.14818 451.61524 399.5175 451.768 C 399.88685 451.92076 404.00167 456.8596 404.0646 457.09444 C 404.12753 457.3293 408.17117 460.77685 408.3244 460.7358 C 408.4776 460.69475 410.16283 460.2432 410.16283 460.2432 L 412.45264 458.371 L 410.61114 449.0472 C 410.61114 449.0472 409.72186 444.5027 409.65893 444.26785 C 409.596 444.033 409.07866 435.36126 409.07866 435.36126 L 408.8048 426.37256 L 411.1823 428.5045 C 411.1823 428.5045 414.6296 434.62906 414.7828 434.588 C 414.936 434.54696 416.7445 438.84513 416.80744 439.08 C 416.87037 439.31486 418.9471 447.0653 418.9471 447.0653 L 421.58456 451.3931 L 426.09605 455.9739 L 429.3845 456.6031 C 429.3845 456.6031 430.1093 450.1158 430.4157 450.0337 C 430.7221 449.9516 432.24027 442.74824 432.24027 442.74824 L 432.8201 437.5584 L 431.97725 430.73594 L 441.9211 446.5641 L 442.08665 447.182 L 440.97073 448.4744 C 440.97073 448.4744 442.11886 447.915 442.335 448.10883 C 442.55113 448.30264 439.90693 445.11703 440.06013 445.076 C 440.21334 445.03493 454.42797 451.4031 454.42797 451.4031 Z" fill="red"/>
        <path d="M 454.42797 451.4031 L 451.22475 450.3626 C 451.22475 450.3626 443.80194 442.66946 443.739 442.4346 C 443.6761 442.19973 438.24 441.9213 438.24 441.9213 L 435.7201 448.8879 C 435.7201 448.8879 427.507 432.4372 428.648 437.9211 C 429.789 443.40505 426.4324 451.101 426.4324 451.101 C 426.4324 451.101 421.0208 444.9993 420.76905 444.05987 C 420.51733 443.1204 418.99873 436.2273 417.93715 433.4911 C 416.87557 430.75484 413.12185 424.71236 412.4461 424.6417 C 411.77035 424.57104 406.30144 423.7709 406.21117 424.04683 C 406.1209 424.32274 404.7338 423.4358 405.27285 426.0603 C 405.8119 428.68485 406.81923 446.5391 406.9451 447.0088 C 407.07095 447.47854 412.7838 462.05815 406.72376 455.37503 C 400.6637 448.6919 399.44894 445.9967 399.44894 445.9967 C 399.44894 445.9967 397.8891 432.82155 395.9465 426.79724 C 394.00387 420.77293 383.5556 414.25873 383.4024 414.2998 C 383.2492 414.34083 378.84187 416.27695 378.81452 416.7877 C 378.7872 417.2985 380.01066 435.34655 380.82877 438.39975 C 381.64687 441.45296 382.5583 454.0467 383.412 457.84553 C 384.2657 461.6444 382.58044 462.09594 381.9676 462.26014 C 381.3548 462.42434 376.20575 454.2385 376.05254 454.27955 C 375.89934 454.3206 372.9637 451.33134 372.8105 451.3724 C 372.6573 451.41344 367.2869 451.5938 367.2869 451.5938 L 365.547 453.0669 L 358.77395 427.5215 L 370.7915 452.4168 C 370.7915 452.4168 373.53834 454.7015 373.69155 454.66045 C 373.84475 454.6194 376.6354 458.90614 376.6354 458.90614 L 379.85835 463.5805 L 383.94842 464.7501 C 383.94842 464.7501 386.32027 461.3456 386.25733 461.1107 C 386.1944 460.87585 383.95623 451.91004 383.95623 451.91004 L 383.116 440.8076 C 383.116 440.8076 382.5522 434.4138 382.57954 433.90304 C 382.6069 433.39227 381.6846 423.82214 381.6217 423.5873 C 381.55875 423.3524 382.64203 420.04146 382.7323 419.76555 C 382.82257 419.48963 385.76904 419.4553 385.76904 419.4553 L 390.5787 422.6976 L 393.80163 427.37195 L 395.1232 432.30406 C 395.1232 432.30406 395.81283 439.16755 395.65962 439.2086 C 395.5064 439.24965 397.96073 448.40927 397.96073 448.40927 C 397.96073 448.40927 399.14818 451.61524 399.5175 451.768 C 399.88685 451.92076 404.00167 456.8596 404.0646 457.09444 C 404.12753 457.3293 408.17117 460.77685 408.3244 460.7358 C 408.4776 460.69475 410.16283 460.2432 410.16283 460.2432 L 412.45264 458.371 L 410.61114 449.0472 C 410.61114 449.0472 409.72186 444.5027 409.65893 444.26785 C 409.596 444.033 409.07866 435.36126 409.07866 435.36126 L 408.8048 426.37256 L 411.1823 428.5045 C 411.1823 428.5045 414.6296 434.62906 414.7828 434.588 C 414.936 434.54696 416.7445 438.84513 416.80744 439.08 C 416.87037 439.31486 418.9471 447.0653 418.9471 447.0653 L 421.58456 451.3931 L 426.09605 455.9739 L 429.3845 456.6031 C 429.3845 456.6031 430.1093 450.1158 430.4157 450.0337 C 430.7221 449.9516 432.24027 442.74824 432.24027 442.74824 L 432.8201 437.5584 L 431.97725 430.73594 L 441.9211 446.5641 L 442.08665 447.182 L 440.97073 448.4744 C 440.97073 448.4744 442.11886 447.915 442.335 448.10883 C 442.55113 448.30264 439.90693 445.11703 440.06013 445.076 C 440.21334 445.03493 454.42797 451.4031 454.42797 451.4031 Z" stroke="#ff002a" stroke-linecap="round" stroke-linejoin="round" stroke-width="5"/>
      </g>
      <g id="Graphic_10">
        <path d="M 281.9918 465.8579 L 284.20247 453.4924 C 284.20247 453.4924 278.30612 422.6958 278.17343 422.2006 C 278.04074 421.7054 264.36564 360.69577 264.36564 360.69577 L 283.56035 428.7186 C 283.56035 428.7186 289.20553 443.6596 292.3906 455.0137 C 295.5757 466.3678 301.3561 479.1495 301.3561 479.1495 C 301.3561 479.1495 298.90717 463.88284 298.3764 461.902 C 297.84565 459.9212 293.86443 445.59585 292.40534 439.61766 C 290.94625 433.6395 288.0967 419.5417 288.2304 418.9751 C 288.36412 418.4085 279.67133 381.89176 279.87062 382.36913 C 280.0699 382.8465 289.5024 411.73436 291.0286 417.1638 C 292.5548 422.59324 303.6403 457.83775 303.90566 458.82816 C 304.17105 459.8186 311.93065 491.70817 309.28344 474.90234 C 306.63623 458.0965 305.24374 452.1005 305.24374 452.1005 C 305.24374 452.1005 297.27927 425.5734 293.9625 412.6623 C 290.64576 399.75123 296.22857 404.4762 296.29516 404.45834 C 296.36176 404.4405 298.47054 404.8007 298.80252 405.77326 C 299.1345 406.74583 303.61076 419.10004 305.33573 425.53774 C 307.0607 431.97544 314.8269 456.96335 317.01656 464.8688 C 319.2062 472.7743 319.9388 472.578 320.2052 472.5066 C 320.4716 472.43525 316.62813 453.29614 316.69473 453.2783 C 316.76133 453.26045 315.63676 445.60035 315.70336 445.5825 C 315.76996 445.56466 317.3043 442.49973 317.3043 442.49973 L 318.70083 444.24857 L 318.4329 445.91265 L 316.90113 446.3231 C 316.90113 446.3231 317.62763 452.49756 317.56103 452.5154 C 317.49443 452.53326 319.48225 462.61586 319.48225 462.61586 L 321.60225 473.72457 L 321.2647 478.5919 C 321.2647 478.5919 318.4731 473.5015 318.3404 473.0063 C 318.20772 472.5111 313.0989 453.71104 313.0989 453.71104 L 306.26203 431.6587 C 306.26203 431.6587 302.34588 418.9082 302.0139 417.93563 C 301.68192 416.96306 297.43618 403.69 297.3035 403.1948 C 297.1708 402.69957 297.90174 410.1878 297.70245 409.7104 C 297.50316 409.23306 293.62822 400.53717 293.62822 400.53717 L 292.7749 401.3038 L 294.8949 412.4125 L 297.6814 422.81185 C 297.6814 422.81185 301.86293 436.55275 301.92953 436.5349 C 301.99613 436.51706 307.17105 455.83016 307.17105 455.83016 C 307.17105 455.83016 308.89552 462.79876 308.895 463.32965 C 308.8945 463.86055 310.9469 476.0489 311.0796 476.5441 C 311.21227 477.0393 312.33532 486.2921 312.26872 486.30996 C 312.20212 486.3278 311.46953 486.5241 311.46953 486.5241 L 309.6739 484.35143 L 304.23257 465.1097 C 304.23257 465.1097 301.57825 455.73646 301.44556 455.24125 C 301.31287 454.74604 295.9361 437.61007 295.9361 437.61007 L 282.35407 391.6375 L 281.44347 388.2391 C 281.44347 388.2391 294.0032 439.7203 293.9366 439.7381 C 293.87 439.75597 296.12474 449.2363 296.25743 449.7315 C 296.3901 450.2267 300.7689 466.56856 300.7689 466.56856 L 302.82332 476.6333 L 304.54322 488.38 L 304.07398 491.6903 C 304.07398 491.6903 299.75773 479.5778 299.62453 479.6135 C 299.49133 479.6492 294.5101 466.6533 294.5101 466.6533 L 291.0571 456.9633 L 286.94218 443.20456 L 267.59412 372.74465 L 266.34343 371.093 L 279.23902 421.9151 C 279.23902 421.9151 281.89232 432.35014 281.9584 432.8632 C 282.0245 433.37625 285.3377 450.0036 285.2711 450.02147 C 285.2045 450.0393 281.9918 465.8579 281.9918 465.8579 Z" fill="red"/>
        <path d="M 281.9918 465.8579 L 284.20247 453.4924 C 284.20247 453.4924 278.30612 422.6958 278.17343 422.2006 C 278.04074 421.7054 264.36564 360.69577 264.36564 360.69577 L 283.56035 428.7186 C 283.56035 428.7186 289.20553 443.6596 292.3906 455.0137 C 295.5757 466.3678 301.3561 479.1495 301.3561 479.1495 C 301.3561 479.1495 298.90717 463.88284 298.3764 461.902 C 297.84565 459.9212 293.86443 445.59585 292.40534 439.61766 C 290.94625 433.6395 288.0967 419.5417 288.2304 418.9751 C 288.36412 418.4085 279.67133 381.89176 279.87062 382.36913 C 280.0699 382.8465 289.5024 411.73436 291.0286 417.1638 C 292.5548 422.59324 303.6403 457.83775 303.90566 458.82816 C 304.17105 459.8186 311.93065 491.70817 309.28344 474.90234 C 306.63623 458.0965 305.24374 452.1005 305.24374 452.1005 C 305.24374 452.1005 297.27927 425.5734 293.9625 412.6623 C 290.64576 399.75123 296.22857 404.4762 296.29516 404.45834 C 296.36176 404.4405 298.47054 404.8007 298.80252 405.77326 C 299.1345 406.74583 303.61076 419.10004 305.33573 425.53774 C 307.0607 431.97544 314.8269 456.96335 317.01656 464.8688 C 319.2062 472.7743 319.9388 472.578 320.2052 472.5066 C 320.4716 472.43525 316.62813 453.29614 316.69473 453.2783 C 316.76133 453.26045 315.63676 445.60035 315.70336 445.5825 C 315.76996 445.56466 317.3043 442.49973 317.3043 442.49973 L 318.70083 444.24857 L 318.4329 445.91265 L 316.90113 446.3231 C 316.90113 446.3231 317.62763 452.49756 317.56103 452.5154 C 317.49443 452.53326 319.48225 462.61586 319.48225 462.61586 L 321.60225 473.72457 L 321.2647 478.5919 C 321.2647 478.5919 318.4731 473.5015 318.3404 473.0063 C 318.20772 472.5111 313.0989 453.71104 313.0989 453.71104 L 306.26203 431.6587 C 306.26203 431.6587 302.34588 418.9082 302.0139 417.93563 C 301.68192 416.96306 297.43618 403.69 297.3035 403.1948 C 297.1708 402.69957 297.90174 410.1878 297.70245 409.7104 C 297.50316 409.23306 293.62822 400.53717 293.62822 400.53717 L 292.7749 401.3038 L 294.8949 412.4125 L 297.6814 422.81185 C 297.6814 422.81185 301.86293 436.55275 301.92953 436.5349 C 301.99613 436.51706 307.17105 455.83016 307.17105 455.83016 C 307.17105 455.83016 308.89552 462.79876 308.895 463.32965 C 308.8945 463.86055 310.9469 476.0489 311.0796 476.5441 C 311.21227 477.0393 312.33532 486.2921 312.26872 486.30996 C 312.20212 486.3278 311.46953 486.5241 311.46953 486.5241 L 309.6739 484.35143 L 304.23257 465.1097 C 304.23257 465.1097 301.57825 455.73646 301.44556 455.24125 C 301.31287 454.74604 295.9361 437.61007 295.9361 437.61007 L 282.35407 391.6375 L 281.44347 388.2391 C 281.44347 388.2391 294.0032 439.7203 293.9366 439.7381 C 293.87 439.75597 296.12474 449.2363 296.25743 449.7315 C 296.3901 450.2267 300.7689 466.56856 300.7689 466.56856 L 302.82332 476.6333 L 304.54322 488.38 L 304.07398 491.6903 C 304.07398 491.6903 299.75773 479.5778 299.62453 479.6135 C 299.49133 479.6492 294.5101 466.6533 294.5101 466.6533 L 291.0571 456.9633 L 286.94218 443.20456 L 267.59412 372.74465 L 266.34343 371.093 L 279.23902 421.9151 C 279.23902 421.9151 281.89232 432.35014 281.9584 432.8632 C 282.0245 433.37625 285.3377 450.0036 285.2711 450.02147 C 285.2045 450.0393 281.9918 465.8579 281.9918 465.8579 Z" stroke="#ff002a" stroke-linecap="round" stroke-linejoin="round" stroke-width="5"/>
      </g>
      <g id="Graphic_9">
        <path d="M 318.03224 442.69744 L 326.0896 439.4068 C 326.0896 439.4068 320.19327 408.61024 320.06058 408.11503 C 319.9279 407.6198 319.1665 398.33 319.1665 398.33 L 325.4475 414.63304 C 325.4475 414.63304 331.09268 429.57404 334.27775 440.9281 C 337.46283 452.2822 343.24325 465.0639 343.24325 465.0639 C 343.24325 465.0639 340.7943 449.79725 340.26355 447.8164 C 339.7328 445.8356 335.75157 431.51026 334.2925 425.5321 C 332.8334 419.5539 329.98385 405.4561 330.11756 404.8895 C 330.25126 404.3229 331.18822 399.295 331.3875 399.77237 C 331.5868 400.24973 331.38954 397.64877 332.91574 403.0782 C 334.44193 408.50765 345.52743 443.75216 345.7928 444.7426 C 346.0582 445.733 353.8178 477.6226 351.1706 460.81675 C 348.52337 444.0109 347.1309 438.0149 347.1309 438.0149 C 347.1309 438.0149 342.7077 422.3783 339.39095 409.4672 C 336.0742 396.5561 342.28147 400.4145 342.34807 400.3967 C 342.41467 400.37883 343.92904 403.5473 344.261 404.5199 C 344.593 405.49245 345.4979 405.01445 347.22287 411.45215 C 348.94785 417.88985 356.71405 442.87776 358.9037 450.78324 C 361.09335 458.6887 361.82594 458.4924 362.09233 458.42104 C 362.35873 458.34966 358.51528 439.21056 358.58188 439.1927 C 358.64847 439.17487 357.5239 431.51476 357.5905 431.4969 C 357.6571 431.47907 359.19142 428.41414 359.19142 428.41414 L 360.58797 430.163 L 360.32005 431.82706 L 358.78827 432.2375 C 358.78827 432.2375 359.51477 438.412 359.44817 438.4298 C 359.38157 438.44767 361.3694 448.5303 361.3694 448.5303 L 363.4894 459.639 L 363.15183 464.5063 C 363.15183 464.5063 360.36025 459.4159 360.22756 458.9207 C 360.09487 458.4255 354.98603 439.62545 354.98603 439.62545 L 348.14917 417.5731 C 348.14917 417.5731 344.23302 404.8226 343.90104 403.85004 C 343.56906 402.87747 346.2149 411.8119 346.0822 411.3167 C 345.94953 410.8215 349.7643 422.7814 349.56503 422.30404 C 349.36574 421.8267 340.99667 404.4012 340.99667 404.4012 L 340.59173 399.8739 L 340.89895 409.06314 L 339.56854 408.72627 C 339.56854 408.72627 343.75007 422.46716 343.81667 422.4493 C 343.88327 422.43147 349.0582 441.74457 349.0582 441.74457 C 349.0582 441.74457 350.78266 448.71317 350.78216 449.24407 C 350.78165 449.77497 352.83404 461.9633 352.96673 462.4585 C 353.0994 462.95373 354.22246 472.20653 354.15586 472.2244 C 354.08926 472.2422 353.35667 472.4385 353.35667 472.4385 L 351.56103 470.26585 L 346.1197 451.02413 C 346.1197 451.02413 343.4654 441.6509 343.3327 441.15567 C 343.2 440.66046 337.82325 423.5245 337.82325 423.5245 L 332.1806 405.929 L 332.9076 411.5726 C 332.9076 411.5726 335.89035 425.6347 335.82375 425.65254 C 335.75715 425.6704 338.01188 435.1507 338.14457 435.6459 C 338.27726 436.1411 342.65604 452.483 342.65604 452.483 L 344.71046 462.54774 L 346.43036 474.2944 L 345.9611 477.6047 C 345.9611 477.6047 341.64487 465.4922 341.51167 465.5279 C 341.37847 465.5636 336.39725 452.56773 336.39725 452.56773 L 332.94425 442.8777 L 328.82932 429.119 L 324.44698 416.4934 L 320.86434 403.1228 L 321.12616 407.8295 C 321.12616 407.8295 323.77946 418.26456 323.84556 418.7776 C 323.91165 419.29066 327.22485 435.91804 327.15825 435.9359 C 327.09165 435.95373 318.03224 442.69744 318.03224 442.69744 Z" fill="red"/>
        <path d="M 318.03224 442.69744 L 326.0896 439.4068 C 326.0896 439.4068 320.19327 408.61024 320.06058 408.11503 C 319.9279 407.6198 319.1665 398.33 319.1665 398.33 L 325.4475 414.63304 C 325.4475 414.63304 331.09268 429.57404 334.27775 440.9281 C 337.46283 452.2822 343.24325 465.0639 343.24325 465.0639 C 343.24325 465.0639 340.7943 449.79725 340.26355 447.8164 C 339.7328 445.8356 335.75157 431.51026 334.2925 425.5321 C 332.8334 419.5539 329.98385 405.4561 330.11756 404.8895 C 330.25126 404.3229 331.18822 399.295 331.3875 399.77237 C 331.5868 400.24973 331.38954 397.64877 332.91574 403.0782 C 334.44193 408.50765 345.52743 443.75216 345.7928 444.7426 C 346.0582 445.733 353.8178 477.6226 351.1706 460.81675 C 348.52337 444.0109 347.1309 438.0149 347.1309 438.0149 C 347.1309 438.0149 342.7077 422.3783 339.39095 409.4672 C 336.0742 396.5561 342.28147 400.4145 342.34807 400.3967 C 342.41467 400.37883 343.92904 403.5473 344.261 404.5199 C 344.593 405.49245 345.4979 405.01445 347.22287 411.45215 C 348.94785 417.88985 356.71405 442.87776 358.9037 450.78324 C 361.09335 458.6887 361.82594 458.4924 362.09233 458.42104 C 362.35873 458.34966 358.51528 439.21056 358.58188 439.1927 C 358.64847 439.17487 357.5239 431.51476 357.5905 431.4969 C 357.6571 431.47907 359.19142 428.41414 359.19142 428.41414 L 360.58797 430.163 L 360.32005 431.82706 L 358.78827 432.2375 C 358.78827 432.2375 359.51477 438.412 359.44817 438.4298 C 359.38157 438.44767 361.3694 448.5303 361.3694 448.5303 L 363.4894 459.639 L 363.15183 464.5063 C 363.15183 464.5063 360.36025 459.4159 360.22756 458.9207 C 360.09487 458.4255 354.98603 439.62545 354.98603 439.62545 L 348.14917 417.5731 C 348.14917 417.5731 344.23302 404.8226 343.90104 403.85004 C 343.56906 402.87747 346.2149 411.8119 346.0822 411.3167 C 345.94953 410.8215 349.7643 422.7814 349.56503 422.30404 C 349.36574 421.8267 340.99667 404.4012 340.99667 404.4012 L 340.59173 399.8739 L 340.89895 409.06314 L 339.56854 408.72627 C 339.56854 408.72627 343.75007 422.46716 343.81667 422.4493 C 343.88327 422.43147 349.0582 441.74457 349.0582 441.74457 C 349.0582 441.74457 350.78266 448.71317 350.78216 449.24407 C 350.78165 449.77497 352.83404 461.9633 352.96673 462.4585 C 353.0994 462.95373 354.22246 472.20653 354.15586 472.2244 C 354.08926 472.2422 353.35667 472.4385 353.35667 472.4385 L 351.56103 470.26585 L 346.1197 451.02413 C 346.1197 451.02413 343.4654 441.6509 343.3327 441.15567 C 343.2 440.66046 337.82325 423.5245 337.82325 423.5245 L 332.1806 405.929 L 332.9076 411.5726 C 332.9076 411.5726 335.89035 425.6347 335.82375 425.65254 C 335.75715 425.6704 338.01188 435.1507 338.14457 435.6459 C 338.27726 436.1411 342.65604 452.483 342.65604 452.483 L 344.71046 462.54774 L 346.43036 474.2944 L 345.9611 477.6047 C 345.9611 477.6047 341.64487 465.4922 341.51167 465.5279 C 341.37847 465.5636 336.39725 452.56773 336.39725 452.56773 L 332.94425 442.8777 L 328.82932 429.119 L 324.44698 416.4934 L 320.86434 403.1228 L 321.12616 407.8295 C 321.12616 407.8295 323.77946 418.26456 323.84556 418.7776 C 323.91165 419.29066 327.22485 435.91804 327.15825 435.9359 C 327.09165 435.95373 318.03224 442.69744 318.03224 442.69744 Z" stroke="#ff002a" stroke-linecap="round" stroke-linejoin="round" stroke-width="5"/>
      </g>
      <g id="Graphic_8">
        <path d="M 239.51015 512.1273 L 236.29435 474.7077 C 236.29435 474.7077 236.47967 467.04327 236.34698 466.54806 C 236.2143 466.05285 237.00276 450.8094 237.00276 450.8094 L 237.2864 449.49607 C 237.2864 449.49607 243.37904 464.3172 246.60303 475.66084 C 249.82702 487.0045 256.24943 499.6142 256.24943 499.6142 C 256.24943 499.6142 254.24795 484.2276 253.7172 482.2468 C 253.18643 480.26596 249.1663 465.95106 247.74612 459.96245 C 246.32594 453.97384 243.7293 439.80827 243.94083 439.22083 C 244.15235 438.6334 245.71186 433.43867 245.9306 433.9108 C 246.14934 434.38297 246.08827 431.7455 247.63392 437.16975 C 249.17957 442.594 260.7125 477.7186 260.9779 478.709 C 261.24328 479.6994 268.78888 511.64635 266.6475 494.705 C 264.5061 477.76363 263.17197 471.75196 263.17197 471.75196 C 263.17197 471.75196 254.97404 445.28745 251.6962 432.36593 C 248.41835 419.4444 242.55174 388.7263 242.6378 388.70324 C 242.72385 388.6802 242.3818 373.80297 242.73323 374.77033 C 243.08466 375.7377 263.5039 438.225 265.22887 444.6627 C 266.95384 451.1004 275.01186 476.01014 277.22097 483.9104 C 279.43007 491.81067 280.37666 491.55703 280.72087 491.4648 C 281.0651 491.37257 277.5718 472.13963 277.65787 472.1166 C 277.74392 472.0935 276.87226 464.36565 276.9583 464.3426 C 277.04437 464.31953 245.84685 346.12137 245.84685 346.12137 C 245.84685 346.12137 306.89515 543.5369 280.87015 462.76366 C 254.84514 381.99043 247.5025 352.3003 247.5025 352.3003 L 278.42845 465.0102 C 278.42845 465.0102 278.90204 471.25244 278.81598 471.2755 C 278.72993 471.29855 280.5232 481.4333 280.5232 481.4333 L 282.40975 492.60455 L 281.62473 497.59176 C 281.62473 497.59176 278.44406 492.60563 278.31137 492.1104 C 278.17868 491.6152 273.0504 472.8204 273.0504 472.8204 L 265.96062 450.8358 C 265.96062 450.8358 261.9083 438.1218 261.55685 437.15444 C 261.20542 436.1871 255.16995 417.10457 255.03726 416.60936 C 254.90457 416.11415 244.7414 392.31274 244.52265 391.8406 C 244.3039 391.36844 244.459 395.50004 244.459 395.50004 L 251.0144 420.87185 L 252.90095 432.0431 L 255.68745 442.4425 C 255.68745 442.4425 260.00516 456.1469 260.0912 456.12383 C 260.17726 456.10077 265.3522 475.41387 265.3522 475.41387 C 265.3522 475.41387 267.03775 482.3929 266.99834 482.9342 C 266.95892 483.47554 268.68058 495.7525 268.81327 496.2477 C 268.94596 496.7429 269.69937 506.09477 269.6133 506.1178 C 269.52726 506.1409 268.58067 506.3945 268.58067 506.3945 L 266.4543 504.31047 L 260.93516 485.0896 C 260.93516 485.0896 258.24194 475.7268 258.10925 475.23156 C 257.97655 474.73636 252.3858 457.6577 252.3858 457.6577 L 246.49024 440.13 L 247.00325 445.83093 C 247.00325 445.83093 249.772 459.9504 249.68594 459.97344 C 249.59988 459.9965 251.7768 469.4977 251.90948 469.9929 C 252.04217 470.4881 256.42096 486.82994 256.42096 486.82994 L 258.30028 496.9416 L 259.6311 508.79255 L 258.7922 512.2019 C 258.7922 512.2019 254.18415 500.1676 254.01204 500.2137 C 253.83993 500.2598 248.45016 487.3734 248.45016 487.3734 L 244.7637 477.74597 L 240.53205 464.0185 L 235.87735 451.4659 L 238.63927 453.0199 L 238.35915 462.3665 C 238.35915 462.3665 234.89856 453.32046 234.9452 453.83873 C 234.99183 454.357 237.99376 471.0678 237.9077 471.09083 C 237.82165 471.1139 239.51015 512.1273 239.51015 512.1273 Z" fill="red"/>
        <path d="M 239.51015 512.1273 L 236.29435 474.7077 C 236.29435 474.7077 236.47967 467.04327 236.34698 466.54806 C 236.2143 466.05285 237.00276 450.8094 237.00276 450.8094 L 237.2864 449.49607 C 237.2864 449.49607 243.37904 464.3172 246.60303 475.66084 C 249.82702 487.0045 256.24943 499.6142 256.24943 499.6142 C 256.24943 499.6142 254.24795 484.2276 253.7172 482.2468 C 253.18643 480.26596 249.1663 465.95106 247.74612 459.96245 C 246.32594 453.97384 243.7293 439.80827 243.94083 439.22083 C 244.15235 438.6334 245.71186 433.43867 245.9306 433.9108 C 246.14934 434.38297 246.08827 431.7455 247.63392 437.16975 C 249.17957 442.594 260.7125 477.7186 260.9779 478.709 C 261.24328 479.6994 268.78888 511.64635 266.6475 494.705 C 264.5061 477.76363 263.17197 471.75196 263.17197 471.75196 C 263.17197 471.75196 254.97404 445.28745 251.6962 432.36593 C 248.41835 419.4444 242.55174 388.7263 242.6378 388.70324 C 242.72385 388.6802 242.3818 373.80297 242.73323 374.77033 C 243.08466 375.7377 263.5039 438.225 265.22887 444.6627 C 266.95384 451.1004 275.01186 476.01014 277.22097 483.9104 C 279.43007 491.81067 280.37666 491.55703 280.72087 491.4648 C 281.0651 491.37257 277.5718 472.13963 277.65787 472.1166 C 277.74392 472.0935 276.87226 464.36565 276.9583 464.3426 C 277.04437 464.31953 245.84685 346.12137 245.84685 346.12137 C 245.84685 346.12137 306.89515 543.5369 280.87015 462.76366 C 254.84514 381.99043 247.5025 352.3003 247.5025 352.3003 L 278.42845 465.0102 C 278.42845 465.0102 278.90204 471.25244 278.81598 471.2755 C 278.72993 471.29855 280.5232 481.4333 280.5232 481.4333 L 282.40975 492.60455 L 281.62473 497.59176 C 281.62473 497.59176 278.44406 492.60563 278.31137 492.1104 C 278.17868 491.6152 273.0504 472.8204 273.0504 472.8204 L 265.96062 450.8358 C 265.96062 450.8358 261.9083 438.1218 261.55685 437.15444 C 261.20542 436.1871 255.16995 417.10457 255.03726 416.60936 C 254.90457 416.11415 244.7414 392.31274 244.52265 391.8406 C 244.3039 391.36844 244.459 395.50004 244.459 395.50004 L 251.0144 420.87185 L 252.90095 432.0431 L 255.68745 442.4425 C 255.68745 442.4425 260.00516 456.1469 260.0912 456.12383 C 260.17726 456.10077 265.3522 475.41387 265.3522 475.41387 C 265.3522 475.41387 267.03775 482.3929 266.99834 482.9342 C 266.95892 483.47554 268.68058 495.7525 268.81327 496.2477 C 268.94596 496.7429 269.69937 506.09477 269.6133 506.1178 C 269.52726 506.1409 268.58067 506.3945 268.58067 506.3945 L 266.4543 504.31047 L 260.93516 485.0896 C 260.93516 485.0896 258.24194 475.7268 258.10925 475.23156 C 257.97655 474.73636 252.3858 457.6577 252.3858 457.6577 L 246.49024 440.13 L 247.00325 445.83093 C 247.00325 445.83093 249.772 459.9504 249.68594 459.97344 C 249.59988 459.9965 251.7768 469.4977 251.90948 469.9929 C 252.04217 470.4881 256.42096 486.82994 256.42096 486.82994 L 258.30028 496.9416 L 259.6311 508.79255 L 258.7922 512.2019 C 258.7922 512.2019 254.18415 500.1676 254.01204 500.2137 C 253.83993 500.2598 248.45016 487.3734 248.45016 487.3734 L 244.7637 477.74597 L 240.53205 464.0185 L 235.87735 451.4659 L 238.63927 453.0199 L 238.35915 462.3665 C 238.35915 462.3665 234.89856 453.32046 234.9452 453.83873 C 234.99183 454.357 237.99376 471.0678 237.9077 471.09083 C 237.82165 471.1139 239.51015 512.1273 239.51015 512.1273 Z" stroke="#ff002a" stroke-linecap="round" stroke-linejoin="round" stroke-width="5"/>
      </g>
      <g id="Graphic_15">
        <path d="M 844.5566 413.3674 L 686.6404 223.77903 L 435.199 519.9486 Z" fill="#610000"/>
        <path d="M 844.5566 413.3674 L 686.6404 223.77903 L 435.199 519.9486 Z" stroke="black" stroke-linecap="round" stroke-linejoin="round" stroke-width="8"/>
      </g>
      <g id="Graphic_16">
        <path d="M 524.251 466.2496 L 527.17846 463.5664 C 527.17846 463.5664 530.9953 452.8616 530.93235 452.6267 C 530.8694 452.39186 536.673 449.10176 536.673 449.10176 L 543.3491 453.6043 C 543.3491 453.6043 543.1131 435.01615 544.94255 440.3156 C 546.772 445.61506 554.77514 450.2672 554.77514 450.2672 C 554.77514 450.2672 557.2809 442.04405 557.02916 441.1046 C 556.77743 440.16515 554.5704 433.4565 554.19726 430.5358 C 553.82415 427.6151 554.54546 420.37353 555.24665 419.9339 C 555.94783 419.4943 561.4944 415.7426 561.74836 415.9263 C 562.0023 416.10995 563.0249 414.57734 563.90815 417.10963 C 564.7914 419.64193 573.71614 435.3747 573.842 435.84444 C 573.96786 436.31416 575.8941 451.9084 578.7842 442.8271 C 581.6742 433.7458 581.4921 430.7739 581.4921 430.7739 C 581.4921 430.7739 575.8015 418.7056 574.54734 412.4968 C 573.2932 406.288 581.0893 394.88525 581.28034 394.83406 C 581.4714 394.78288 587.39105 393.95188 587.70794 394.3704 C 588.02484 394.78895 596.82146 410.8078 597.63956 413.861 C 598.4577 416.9142 604.5326 428.12437 605.7305 431.83097 C 606.92845 435.5376 609.0298 434.97453 609.7939 434.7698 C 610.558 434.56504 611.60516 424.71893 611.7962 424.66775 C 611.9872 424.61656 613.52664 420.4282 613.7177 420.377 C 613.9087 420.32584 619.898 417.4624 619.898 417.4624 L 622.6331 417.7364 L 615.7095 392.23134 L 616.51795 420.13014 C 616.51795 420.13014 614.7897 423.6139 614.5987 423.6651 C 614.4077 423.7163 613.756 428.9254 613.756 428.9254 L 612.8481 434.7066 L 609.0208 437.9976 C 609.0208 437.9976 604.508 436.43786 604.4451 436.203 C 604.3821 435.96814 601.7997 427.09457 601.7997 427.09457 L 596.48444 417.1912 C 596.48444 417.1912 593.511 411.4431 593.1941 411.02455 C 592.87724 410.606 588.5126 401.95825 588.4497 401.7234 C 588.3868 401.48853 585.33924 399.2844 585.0853 399.10074 C 584.8313 398.91707 581.5816 400.543 581.5816 400.543 L 578.1296 405.999 L 577.22176 411.7802 L 578.5433 416.7123 C 578.5433 416.7123 581.6426 422.93013 581.8336 422.87894 C 582.02465 422.82776 584.47896 431.9874 584.47896 431.9874 C 584.47896 431.9874 584.97794 435.3778 584.6588 435.71505 C 584.3397 436.0523 582.6025 442.55914 582.66546 442.794 C 582.7284 443.02887 580.2316 448.2289 580.04055 448.2801 C 579.8495 448.3313 577.7482 448.89434 577.7482 448.89434 L 574.18604 448.5902 L 570.9676 439.6353 C 570.9676 439.6353 569.38986 435.2753 569.3269 435.04045 C 569.264 434.8056 564.9601 427.14847 564.9601 427.14847 L 560.2112 419.35886 L 558.8021 422.5054 C 558.8021 422.5054 558.46284 429.64457 558.2718 429.69576 C 558.0808 429.74694 558.51236 434.41407 558.5753 434.64893 C 558.6382 434.8838 560.71494 442.63424 560.71494 442.63424 L 560.2543 447.79216 L 557.8811 454.2177 L 554.62915 456.5994 C 554.62915 456.5994 550.1904 451.49566 549.80837 451.59803 C 549.4263 451.7004 543.71555 446.43404 543.71555 446.43404 L 540.1646 442.35104 L 537.2563 436.082 L 535.24513 455.1135 L 535.4107 455.7314 L 537.36014 456.20244 C 537.36014 456.20244 535.78714 456.3722 535.65904 456.65824 C 535.53094 456.9443 536.64057 452.75285 536.44954 452.80403 C 536.2585 452.8552 524.251 466.2496 524.251 466.2496 Z" fill="red"/>
        <path d="M 524.251 466.2496 L 527.17846 463.5664 C 527.17846 463.5664 530.9953 452.8616 530.93235 452.6267 C 530.8694 452.39186 536.673 449.10176 536.673 449.10176 L 543.3491 453.6043 C 543.3491 453.6043 543.1131 435.01615 544.94255 440.3156 C 546.772 445.61506 554.77514 450.2672 554.77514 450.2672 C 554.77514 450.2672 557.2809 442.04405 557.02916 441.1046 C 556.77743 440.16515 554.5704 433.4565 554.19726 430.5358 C 553.82415 427.6151 554.54546 420.37353 555.24665 419.9339 C 555.94783 419.4943 561.4944 415.7426 561.74836 415.9263 C 562.0023 416.10995 563.0249 414.57734 563.90815 417.10963 C 564.7914 419.64193 573.71614 435.3747 573.842 435.84444 C 573.96786 436.31416 575.8941 451.9084 578.7842 442.8271 C 581.6742 433.7458 581.4921 430.7739 581.4921 430.7739 C 581.4921 430.7739 575.8015 418.7056 574.54734 412.4968 C 573.2932 406.288 581.0893 394.88525 581.28034 394.83406 C 581.4714 394.78288 587.39105 393.95188 587.70794 394.3704 C 588.02484 394.78895 596.82146 410.8078 597.63956 413.861 C 598.4577 416.9142 604.5326 428.12437 605.7305 431.83097 C 606.92845 435.5376 609.0298 434.97453 609.7939 434.7698 C 610.558 434.56504 611.60516 424.71893 611.7962 424.66775 C 611.9872 424.61656 613.52664 420.4282 613.7177 420.377 C 613.9087 420.32584 619.898 417.4624 619.898 417.4624 L 622.6331 417.7364 L 615.7095 392.23134 L 616.51795 420.13014 C 616.51795 420.13014 614.7897 423.6139 614.5987 423.6651 C 614.4077 423.7163 613.756 428.9254 613.756 428.9254 L 612.8481 434.7066 L 609.0208 437.9976 C 609.0208 437.9976 604.508 436.43786 604.4451 436.203 C 604.3821 435.96814 601.7997 427.09457 601.7997 427.09457 L 596.48444 417.1912 C 596.48444 417.1912 593.511 411.4431 593.1941 411.02455 C 592.87724 410.606 588.5126 401.95825 588.4497 401.7234 C 588.3868 401.48853 585.33924 399.2844 585.0853 399.10074 C 584.8313 398.91707 581.5816 400.543 581.5816 400.543 L 578.1296 405.999 L 577.22176 411.7802 L 578.5433 416.7123 C 578.5433 416.7123 581.6426 422.93013 581.8336 422.87894 C 582.02465 422.82776 584.47896 431.9874 584.47896 431.9874 C 584.47896 431.9874 584.97794 435.3778 584.6588 435.71505 C 584.3397 436.0523 582.6025 442.55914 582.66546 442.794 C 582.7284 443.02887 580.2316 448.2289 580.04055 448.2801 C 579.8495 448.3313 577.7482 448.89434 577.7482 448.89434 L 574.18604 448.5902 L 570.9676 439.6353 C 570.9676 439.6353 569.38986 435.2753 569.3269 435.04045 C 569.264 434.8056 564.9601 427.14847 564.9601 427.14847 L 560.2112 419.35886 L 558.8021 422.5054 C 558.8021 422.5054 558.46284 429.64457 558.2718 429.69576 C 558.0808 429.74694 558.51236 434.41407 558.5753 434.64893 C 558.6382 434.8838 560.71494 442.63424 560.71494 442.63424 L 560.2543 447.79216 L 557.8811 454.2177 L 554.62915 456.5994 C 554.62915 456.5994 550.1904 451.49566 549.80837 451.59803 C 549.4263 451.7004 543.71555 446.43404 543.71555 446.43404 L 540.1646 442.35104 L 537.2563 436.082 L 535.24513 455.1135 L 535.4107 455.7314 L 537.36014 456.20244 C 537.36014 456.20244 535.78714 456.3722 535.65904 456.65824 C 535.53094 456.9443 536.64057 452.75285 536.44954 452.80403 C 536.2585 452.8552 524.251 466.2496 524.251 466.2496 Z" stroke="#ff002a" stroke-linecap="round" stroke-linejoin="round" stroke-width="5"/>
      </g>
      <g id="Graphic_17">
        <path d="M 721.4265 381.6672 L 712.0568 372.40467 C 712.0568 372.40467 701.2223 342.9313 701.0896 342.4361 C 700.9569 341.94087 681.6795 282.43237 681.6795 282.43237 L 698.8448 350.999 C 698.8448 350.999 701.04825 366.8622 703.93405 378.2965 C 706.81984 389.73077 707.6621 403.83566 707.6621 403.83566 C 707.6621 403.83566 701.7714 389.4912 701.24065 387.51038 C 700.7099 385.52955 697.02794 371.124 695.2696 365.22603 C 693.5112 359.32804 688.7163 345.7515 688.2515 345.3453 C 687.7866 344.9391 676.8049 309.03566 676.85455 309.55312 C 676.9042 310.07058 682.7896 339.9089 684.1661 345.37842 C 685.5427 350.84796 693.1864 387.0147 693.4518 388.0051 C 693.7172 388.9955 703.12285 420.44404 696.585 404.6807 C 690.0471 388.9174 688.2057 383.04166 688.2057 383.04166 C 688.2057 383.04166 682.0369 356.03343 678.42086 343.20253 C 674.8048 330.37164 671.33805 337.5214 671.255 337.54367 C 671.172 337.56592 669.0623 339.05645 669.2446 340.0691 C 669.4269 341.0818 671.4589 354.09093 673.1839 360.52863 C 674.9089 366.96633 680.43045 392.5557 682.47045 400.50126 C 684.51046 408.44684 683.597 408.6916 683.2648 408.7806 C 682.93266 408.8696 676.39566 390.45224 676.3126 390.4745 C 676.2296 390.49674 673.1597 383.3579 673.0766 383.38014 C 672.9936 383.4024 669.5897 381.66064 669.5897 381.66064 L 669.04095 383.93073 L 670.26944 385.19385 L 672.1794 384.68207 C 672.1794 384.68207 674.85125 390.3353 674.9343 390.31305 C 675.0173 390.2908 678.5016 399.97244 678.5016 399.97244 L 682.4173 410.6 L 685.52145 414.5451 C 685.52145 414.5451 685.7227 408.6528 685.59 408.15757 C 685.4573 407.66237 680.4981 388.82222 680.4981 388.82222 L 675.6066 366.2486 C 675.6066 366.2486 672.7379 353.21746 672.5556 352.2048 C 672.3733 351.19213 669.5724 337.5319 669.4397 337.0367 C 669.307 336.5415 672.71194 343.3132 672.6623 342.79575 C 672.61265 342.2783 671.9764 332.7146 671.9764 332.7146 L 673.3426 332.8865 L 677.2583 343.51405 L 680.0448 353.9134 C 680.0448 353.9134 683.1788 367.935 683.0958 367.95723 C 683.0127 367.9795 688.18765 387.2926 688.18765 387.2926 C 688.18765 387.2926 690.2114 394.181 690.5102 394.6317 C 690.80895 395.0824 695.4052 406.5891 695.5379 407.0843 C 695.6706 407.57953 699.63685 416.0705 699.7199 416.04824 C 699.8029 416.026 700.7164 415.78123 700.7164 415.78123 L 701.4647 412.92692 L 696.6219 393.5248 C 696.6219 393.5248 694.2669 384.07137 694.1342 383.57617 C 694.0015 383.08096 690.2708 365.50393 690.2708 365.50393 L 679.338 318.8215 L 678.4274 315.4231 C 678.4274 315.4231 693.5753 366.21076 693.6584 366.1885 C 693.7414 366.16626 696.5947 375.4862 696.7274 375.9814 C 696.8601 376.4766 701.2389 392.81847 701.2389 392.81847 L 704.6401 402.52236 L 709.3528 413.4671 L 711.7267 416.0156 C 711.7267 416.0156 709.6551 403.30164 709.8212 403.25713 C 709.9873 403.21263 708.1485 389.37475 708.1485 389.37475 L 706.4912 379.2036 L 703.2741 365.20426 L 684.908 294.48126 L 685.35145 292.37567 L 699.7609 342.7921 C 699.7609 342.7921 702.7135 353.14696 702.92925 353.6199 C 703.145 354.09287 708.85245 370.0787 708.9355 370.05645 C 709.0185 370.0342 721.4265 381.6672 721.4265 381.6672 Z" fill="red"/>
        <path d="M 721.4265 381.6672 L 712.0568 372.40467 C 712.0568 372.40467 701.2223 342.9313 701.0896 342.4361 C 700.9569 341.94087 681.6795 282.43237 681.6795 282.43237 L 698.8448 350.999 C 698.8448 350.999 701.04825 366.8622 703.93405 378.2965 C 706.81984 389.73077 707.6621 403.83566 707.6621 403.83566 C 707.6621 403.83566 701.7714 389.4912 701.24065 387.51038 C 700.7099 385.52955 697.02794 371.124 695.2696 365.22603 C 693.5112 359.32804 688.7163 345.7515 688.2515 345.3453 C 687.7866 344.9391 676.8049 309.03566 676.85455 309.55312 C 676.9042 310.07058 682.7896 339.9089 684.1661 345.37842 C 685.5427 350.84796 693.1864 387.0147 693.4518 388.0051 C 693.7172 388.9955 703.12285 420.44404 696.585 404.6807 C 690.0471 388.9174 688.2057 383.04166 688.2057 383.04166 C 688.2057 383.04166 682.0369 356.03343 678.42086 343.20253 C 674.8048 330.37164 671.33805 337.5214 671.255 337.54367 C 671.172 337.56592 669.0623 339.05645 669.2446 340.0691 C 669.4269 341.0818 671.4589 354.09093 673.1839 360.52863 C 674.9089 366.96633 680.43045 392.5557 682.47045 400.50126 C 684.51046 408.44684 683.597 408.6916 683.2648 408.7806 C 682.93266 408.8696 676.39566 390.45224 676.3126 390.4745 C 676.2296 390.49674 673.1597 383.3579 673.0766 383.38014 C 672.9936 383.4024 669.5897 381.66064 669.5897 381.66064 L 669.04095 383.93073 L 670.26944 385.19385 L 672.1794 384.68207 C 672.1794 384.68207 674.85125 390.3353 674.9343 390.31305 C 675.0173 390.2908 678.5016 399.97244 678.5016 399.97244 L 682.4173 410.6 L 685.52145 414.5451 C 685.52145 414.5451 685.7227 408.6528 685.59 408.15757 C 685.4573 407.66237 680.4981 388.82222 680.4981 388.82222 L 675.6066 366.2486 C 675.6066 366.2486 672.7379 353.21746 672.5556 352.2048 C 672.3733 351.19213 669.5724 337.5319 669.4397 337.0367 C 669.307 336.5415 672.71194 343.3132 672.6623 342.79575 C 672.61265 342.2783 671.9764 332.7146 671.9764 332.7146 L 673.3426 332.8865 L 677.2583 343.51405 L 680.0448 353.9134 C 680.0448 353.9134 683.1788 367.935 683.0958 367.95723 C 683.0127 367.9795 688.18765 387.2926 688.18765 387.2926 C 688.18765 387.2926 690.2114 394.181 690.5102 394.6317 C 690.80895 395.0824 695.4052 406.5891 695.5379 407.0843 C 695.6706 407.57953 699.63685 416.0705 699.7199 416.04824 C 699.8029 416.026 700.7164 415.78123 700.7164 415.78123 L 701.4647 412.92692 L 696.6219 393.5248 C 696.6219 393.5248 694.2669 384.07137 694.1342 383.57617 C 694.0015 383.08096 690.2708 365.50393 690.2708 365.50393 L 679.338 318.8215 L 678.4274 315.4231 C 678.4274 315.4231 693.5753 366.21076 693.6584 366.1885 C 693.7414 366.16626 696.5947 375.4862 696.7274 375.9814 C 696.8601 376.4766 701.2389 392.81847 701.2389 392.81847 L 704.6401 402.52236 L 709.3528 413.4671 L 711.7267 416.0156 C 711.7267 416.0156 709.6551 403.30164 709.8212 403.25713 C 709.9873 403.21263 708.1485 389.37475 708.1485 389.37475 L 706.4912 379.2036 L 703.2741 365.20426 L 684.908 294.48126 L 685.35145 292.37567 L 699.7609 342.7921 C 699.7609 342.7921 702.7135 353.14696 702.92925 353.6199 C 703.145 354.09287 708.85245 370.0787 708.9355 370.05645 C 709.0185 370.0342 721.4265 381.6672 721.4265 381.6672 Z" stroke="#ff002a" stroke-linecap="round" stroke-linejoin="round" stroke-width="5"/>
      </g>
      <g id="Graphic_18">
        <path d="M 668.9027 382.2375 L 658.2203 383.96816 C 658.2203 383.96816 647.3858 354.4948 647.2531 353.99958 C 647.1204 353.50437 642.7368 345.1851 642.7368 345.1851 L 645.0083 362.5625 C 645.0083 362.5625 647.2117 378.4257 650.0975 389.86 C 652.9833 401.29427 653.82556 415.39916 653.82556 415.39916 C 653.82556 415.39916 647.9349 401.0547 647.4041 399.07387 C 646.87335 397.09304 643.1914 382.6875 641.43304 376.78953 C 639.6747 370.89154 634.8798 357.315 634.4149 356.9088 C 633.9501 356.5026 630.0985 352.75775 630.14815 353.2752 C 630.1978 353.79267 628.95305 351.4724 630.3296 356.9419 C 631.70616 362.41146 639.3499 398.5782 639.6153 399.5686 C 639.8807 400.559 649.2863 432.00754 642.7484 416.2442 C 636.21055 400.4809 634.36914 394.60515 634.36914 394.60515 C 634.36914 394.60515 630.4352 378.83747 626.81915 366.00657 C 623.2031 353.17567 618.5649 359.9401 618.4819 359.96236 C 618.3988 359.9846 618.5183 363.52685 618.70066 364.5395 C 618.883 365.5522 617.6224 365.65443 619.34735 372.09213 C 621.0723 378.52983 626.5939 404.1192 628.6339 412.06476 C 630.6739 420.01033 629.76046 420.2551 629.4283 420.3441 C 629.0961 420.4331 622.5591 402.01573 622.4761 402.038 C 622.39304 402.06024 619.3231 394.9214 619.2401 394.94364 C 619.15705 394.9659 615.7532 393.22413 615.7532 393.22413 L 615.2044 395.49423 L 616.4329 396.75734 L 618.3429 396.24557 C 618.3429 396.24557 621.0147 401.8988 621.09776 401.87654 C 621.1808 401.8543 624.665 411.53593 624.665 411.53593 L 628.5807 422.1635 L 631.6849 426.1086 C 631.6849 426.1086 631.8862 420.2163 631.7535 419.72107 C 631.6208 419.22586 626.6616 400.3857 626.6616 400.3857 L 621.77006 377.8121 C 621.77006 377.8121 618.9014 364.78095 618.7191 363.7683 C 618.5367 362.75562 620.65455 371.83153 620.52186 371.3363 C 620.3892 370.8411 622.9249 383.14377 622.8752 382.6263 C 622.8256 382.10885 622.21295 362.605 622.21295 362.605 L 620.11385 358.5317 L 624.9388 366.5104 L 626.2082 365.4769 C 626.2082 365.4769 629.3423 379.4985 629.2592 379.52073 C 629.1762 379.543 634.3511 398.8561 634.3511 398.8561 C 634.3511 398.8561 636.3749 405.7445 636.67364 406.1952 C 636.9724 406.6459 641.5687 418.1526 641.7014 418.6478 C 641.8341 419.143 645.8003 427.634 645.88336 427.61174 C 645.9664 427.5895 646.8799 427.34473 646.8799 427.34473 L 647.6281 424.4904 L 642.7854 405.0883 C 642.7854 405.0883 640.4303 395.63487 640.29765 395.13966 C 640.16496 394.64446 636.43425 377.06743 636.43425 377.06743 L 632.73694 358.9507 L 635.11 364.1532 C 635.11 364.1532 639.7388 377.77426 639.82184 377.752 C 639.9049 377.72976 642.7582 387.0497 642.8909 387.5449 C 643.02356 388.0401 647.40234 404.38197 647.40234 404.38197 L 650.8035 414.08586 L 655.51626 425.0306 L 657.8902 427.5791 C 657.8902 427.5791 655.8186 414.86513 655.98466 414.82063 C 656.15074 414.77613 654.312 400.93825 654.312 400.93825 L 652.6547 390.7671 L 649.4376 376.76776 L 647.1502 363.58085 L 643.5676 350.21024 L 645.9244 354.3556 C 645.9244 354.3556 648.877 364.71045 649.0927 365.1834 C 649.30845 365.65636 655.0159 381.6422 655.09895 381.61995 C 655.182 381.5977 668.9027 382.2375 668.9027 382.2375 Z" fill="red"/>
        <path d="M 668.9027 382.2375 L 658.2203 383.96816 C 658.2203 383.96816 647.3858 354.4948 647.2531 353.99958 C 647.1204 353.50437 642.7368 345.1851 642.7368 345.1851 L 645.0083 362.5625 C 645.0083 362.5625 647.2117 378.4257 650.0975 389.86 C 652.9833 401.29427 653.82556 415.39916 653.82556 415.39916 C 653.82556 415.39916 647.9349 401.0547 647.4041 399.07387 C 646.87335 397.09304 643.1914 382.6875 641.43304 376.78953 C 639.6747 370.89154 634.8798 357.315 634.4149 356.9088 C 633.9501 356.5026 630.0985 352.75775 630.14815 353.2752 C 630.1978 353.79267 628.95305 351.4724 630.3296 356.9419 C 631.70616 362.41146 639.3499 398.5782 639.6153 399.5686 C 639.8807 400.559 649.2863 432.00754 642.7484 416.2442 C 636.21055 400.4809 634.36914 394.60515 634.36914 394.60515 C 634.36914 394.60515 630.4352 378.83747 626.81915 366.00657 C 623.2031 353.17567 618.5649 359.9401 618.4819 359.96236 C 618.3988 359.9846 618.5183 363.52685 618.70066 364.5395 C 618.883 365.5522 617.6224 365.65443 619.34735 372.09213 C 621.0723 378.52983 626.5939 404.1192 628.6339 412.06476 C 630.6739 420.01033 629.76046 420.2551 629.4283 420.3441 C 629.0961 420.4331 622.5591 402.01573 622.4761 402.038 C 622.39304 402.06024 619.3231 394.9214 619.2401 394.94364 C 619.15705 394.9659 615.7532 393.22413 615.7532 393.22413 L 615.2044 395.49423 L 616.4329 396.75734 L 618.3429 396.24557 C 618.3429 396.24557 621.0147 401.8988 621.09776 401.87654 C 621.1808 401.8543 624.665 411.53593 624.665 411.53593 L 628.5807 422.1635 L 631.6849 426.1086 C 631.6849 426.1086 631.8862 420.2163 631.7535 419.72107 C 631.6208 419.22586 626.6616 400.3857 626.6616 400.3857 L 621.77006 377.8121 C 621.77006 377.8121 618.9014 364.78095 618.7191 363.7683 C 618.5367 362.75562 620.65455 371.83153 620.52186 371.3363 C 620.3892 370.8411 622.9249 383.14377 622.8752 382.6263 C 622.8256 382.10885 622.21295 362.605 622.21295 362.605 L 620.11385 358.5317 L 624.9388 366.5104 L 626.2082 365.4769 C 626.2082 365.4769 629.3423 379.4985 629.2592 379.52073 C 629.1762 379.543 634.3511 398.8561 634.3511 398.8561 C 634.3511 398.8561 636.3749 405.7445 636.67364 406.1952 C 636.9724 406.6459 641.5687 418.1526 641.7014 418.6478 C 641.8341 419.143 645.8003 427.634 645.88336 427.61174 C 645.9664 427.5895 646.8799 427.34473 646.8799 427.34473 L 647.6281 424.4904 L 642.7854 405.0883 C 642.7854 405.0883 640.4303 395.63487 640.29765 395.13966 C 640.16496 394.64446 636.43425 377.06743 636.43425 377.06743 L 632.73694 358.9507 L 635.11 364.1532 C 635.11 364.1532 639.7388 377.77426 639.82184 377.752 C 639.9049 377.72976 642.7582 387.0497 642.8909 387.5449 C 643.02356 388.0401 647.40234 404.38197 647.40234 404.38197 L 650.8035 414.08586 L 655.51626 425.0306 L 657.8902 427.5791 C 657.8902 427.5791 655.8186 414.86513 655.98466 414.82063 C 656.15074 414.77613 654.312 400.93825 654.312 400.93825 L 652.6547 390.7671 L 649.4376 376.76776 L 647.1502 363.58085 L 643.5676 350.21024 L 645.9244 354.3556 C 645.9244 354.3556 648.877 364.71045 649.0927 365.1834 C 649.30845 365.65636 655.0159 381.6422 655.09895 381.61995 C 655.182 381.5977 668.9027 382.2375 668.9027 382.2375 Z" stroke="#ff002a" stroke-linecap="round" stroke-linejoin="round" stroke-width="5"/>
      </g>
      <g id="Graphic_19">
        <path d="M 793.9933 397.1095 L 776.4996 363.51566 C 776.4996 363.51566 771.9911 357.10892 771.8584 356.6137 C 771.7257 356.1185 762.2986 343.6123 762.2986 343.6123 L 761.2499 342.65598 C 761.2499 342.65598 762.89545 358.6687 765.7327 370.11597 C 768.57 381.56324 768.61175 395.88263 768.61175 395.88263 C 768.61175 395.88263 762.1631 381.68767 761.6324 379.70684 C 761.1016 377.726 757.4682 363.3075 755.6613 357.4225 C 753.8544 351.5375 748.7442 338.04546 748.1823 337.66525 C 747.6204 337.28505 742.9926 333.7482 743.018 334.27217 C 743.0434 334.79613 741.6288 332.52134 742.9811 337.9974 C 744.3334 343.4734 751.4192 379.78964 751.6846 380.78005 C 751.95 381.77047 761.6225 413.1475 754.4539 397.55317 C 747.2853 381.95884 745.3711 376.1026 745.3711 376.1026 C 745.3711 376.1026 739.4934 349.01638 735.8289 336.1985 C 732.1643 323.3806 721.3413 293.99054 721.234 294.0193 C 721.1267 294.04804 713.1448 281.2179 713.3029 282.23708 C 713.461 283.25625 726.1743 347.80836 727.8993 354.24606 C 729.6243 360.68376 734.782 386.3706 736.79775 394.3227 C 738.8135 402.27477 737.6332 402.59103 737.204 402.70603 C 736.7748 402.82103 729.8012 384.52066 729.6939 384.5494 C 729.5866 384.57816 726.2013 377.5238 726.094 377.55256 C 725.9867 377.5813 693.7964 259.64918 693.7964 259.64918 C 693.7964 259.64918 737.7571 461.6433 720.9182 378.40865 C 704.0793 295.174 695.452 265.8281 695.452 265.8281 L 724.8572 378.9455 C 724.8572 378.9455 727.8444 384.5142 727.9517 384.48547 C 728.059 384.4567 731.7858 394.07336 731.7858 394.07336 L 735.9926 404.6229 L 739.6547 408.4185 C 739.6547 408.4185 740.3411 402.3962 740.2084 401.901 C 740.0757 401.4058 735.1408 382.55915 735.1408 382.55915 L 730.5646 359.90105 C 730.5646 359.90105 727.8657 346.8244 727.7077 345.80523 C 727.5496 344.78606 723.44765 325.18545 723.31496 324.69024 C 723.1823 324.19504 720.9552 298.26715 720.9298 297.7432 C 720.9044 297.21924 723.0552 300.8161 723.0552 300.8161 L 730.1199 326.05144 L 734.3267 336.601 L 737.1132 347.00035 C 737.1132 347.00035 740.0774 361.06743 739.9701 361.09618 C 739.8628 361.12493 745.03775 380.43803 745.03775 380.43803 C 745.03775 380.43803 747.11 387.31343 747.4573 387.75114 C 747.8046 388.18884 752.8133 399.58506 752.946 400.08027 C 753.07865 400.57548 757.5058 408.94295 757.6131 408.9142 C 757.7204 408.88544 758.9007 408.5692 758.9007 408.5692 L 760.0613 405.6044 L 755.3156 386.1763 C 755.3156 386.1763 753.0091 376.70983 752.8764 376.2146 C 752.7437 375.7194 749.2798 358.0709 749.2798 358.0709 L 745.8979 339.86965 L 748.5378 345.00067 C 748.5378 345.00067 753.4334 358.55023 753.5407 358.52148 C 753.648 358.49272 756.5983 367.78667 756.731 368.28187 C 756.8637 368.7771 761.2425 385.11893 761.2425 385.11893 L 764.862 394.76433 L 770.0599 405.5791 L 772.8947 408.00406 C 772.8947 408.00406 771.18695 395.1926 771.40155 395.1351 C 771.61615 395.0776 770.2868 381.10323 770.2868 381.10323 L 768.9206 370.85406 L 765.8491 356.81574 L 763.9013 343.53783 L 761.7461 346.40935 L 767.3034 354.19182 C 767.3034 354.19182 766.0162 344.56344 766.2562 345.0299 C 766.4962 345.49635 772.59175 361.3782 772.69905 361.34944 C 772.80635 361.3207 793.9933 397.1095 793.9933 397.1095 Z" fill="red"/>
        <path d="M 793.9933 397.1095 L 776.4996 363.51566 C 776.4996 363.51566 771.9911 357.10892 771.8584 356.6137 C 771.7257 356.1185 762.2986 343.6123 762.2986 343.6123 L 761.2499 342.65598 C 761.2499 342.65598 762.89545 358.6687 765.7327 370.11597 C 768.57 381.56324 768.61175 395.88263 768.61175 395.88263 C 768.61175 395.88263 762.1631 381.68767 761.6324 379.70684 C 761.1016 377.726 757.4682 363.3075 755.6613 357.4225 C 753.8544 351.5375 748.7442 338.04546 748.1823 337.66525 C 747.6204 337.28505 742.9926 333.7482 743.018 334.27217 C 743.0434 334.79613 741.6288 332.52134 742.9811 337.9974 C 744.3334 343.4734 751.4192 379.78964 751.6846 380.78005 C 751.95 381.77047 761.6225 413.1475 754.4539 397.55317 C 747.2853 381.95884 745.3711 376.1026 745.3711 376.1026 C 745.3711 376.1026 739.4934 349.01638 735.8289 336.1985 C 732.1643 323.3806 721.3413 293.99054 721.234 294.0193 C 721.1267 294.04804 713.1448 281.2179 713.3029 282.23708 C 713.461 283.25625 726.1743 347.80836 727.8993 354.24606 C 729.6243 360.68376 734.782 386.3706 736.79775 394.3227 C 738.8135 402.27477 737.6332 402.59103 737.204 402.70603 C 736.7748 402.82103 729.8012 384.52066 729.6939 384.5494 C 729.5866 384.57816 726.2013 377.5238 726.094 377.55256 C 725.9867 377.5813 693.7964 259.64918 693.7964 259.64918 C 693.7964 259.64918 737.7571 461.6433 720.9182 378.40865 C 704.0793 295.174 695.452 265.8281 695.452 265.8281 L 724.8572 378.9455 C 724.8572 378.9455 727.8444 384.5142 727.9517 384.48547 C 728.059 384.4567 731.7858 394.07336 731.7858 394.07336 L 735.9926 404.6229 L 739.6547 408.4185 C 739.6547 408.4185 740.3411 402.3962 740.2084 401.901 C 740.0757 401.4058 735.1408 382.55915 735.1408 382.55915 L 730.5646 359.90105 C 730.5646 359.90105 727.8657 346.8244 727.7077 345.80523 C 727.5496 344.78606 723.44765 325.18545 723.31496 324.69024 C 723.1823 324.19504 720.9552 298.26715 720.9298 297.7432 C 720.9044 297.21924 723.0552 300.8161 723.0552 300.8161 L 730.1199 326.05144 L 734.3267 336.601 L 737.1132 347.00035 C 737.1132 347.00035 740.0774 361.06743 739.9701 361.09618 C 739.8628 361.12493 745.03775 380.43803 745.03775 380.43803 C 745.03775 380.43803 747.11 387.31343 747.4573 387.75114 C 747.8046 388.18884 752.8133 399.58506 752.946 400.08027 C 753.07865 400.57548 757.5058 408.94295 757.6131 408.9142 C 757.7204 408.88544 758.9007 408.5692 758.9007 408.5692 L 760.0613 405.6044 L 755.3156 386.1763 C 755.3156 386.1763 753.0091 376.70983 752.8764 376.2146 C 752.7437 375.7194 749.2798 358.0709 749.2798 358.0709 L 745.8979 339.86965 L 748.5378 345.00067 C 748.5378 345.00067 753.4334 358.55023 753.5407 358.52148 C 753.648 358.49272 756.5983 367.78667 756.731 368.28187 C 756.8637 368.7771 761.2425 385.11893 761.2425 385.11893 L 764.862 394.76433 L 770.0599 405.5791 L 772.8947 408.00406 C 772.8947 408.00406 771.18695 395.1926 771.40155 395.1351 C 771.61615 395.0776 770.2868 381.10323 770.2868 381.10323 L 768.9206 370.85406 L 765.8491 356.81574 L 763.9013 343.53783 L 761.7461 346.40935 L 767.3034 354.19182 C 767.3034 354.19182 766.0162 344.56344 766.2562 345.0299 C 766.4962 345.49635 772.59175 361.3782 772.69905 361.34944 C 772.80635 361.3207 793.9933 397.1095 793.9933 397.1095 Z" stroke="#ff002a" stroke-linecap="round" stroke-linejoin="round" stroke-width="5"/>
      </g>
      <g id="Graphic_20">
        <path d="M 352.1195 357.50383 L 439.107 90.9057 L 679.0217 266.80483 Z" fill="#610000"/>
        <path d="M 352.1195 357.50383 L 439.107 90.9057 L 679.0217 266.80483 Z" stroke="black" stroke-linecap="round" stroke-linejoin="round" stroke-width="8"/>
      </g>
      <g id="Graphic_21">
        <path d="M 626.003 262.56157 L 622.7998 261.5211 C 622.7998 261.5211 615.377 253.82795 615.31405 253.5931 C 615.2511 253.35823 609.81506 253.07978 609.81506 253.07978 L 607.2951 260.0464 C 607.2951 260.0464 599.082 243.5957 600.223 249.07962 C 601.36404 254.56355 598.00744 262.2595 598.00744 262.2595 C 598.00744 262.2595 592.5958 256.1578 592.3441 255.21836 C 592.0924 254.27892 590.5738 247.38582 589.5122 244.64957 C 588.4506 241.91333 584.6969 235.87085 584.02114 235.8002 C 583.3454 235.72954 577.8765 234.9294 577.7862 235.20532 C 577.6959 235.48124 576.30885 234.59428 576.8479 237.21881 C 577.3869 239.84335 578.3943 257.6976 578.5201 258.1673 C 578.646 258.63704 584.3588 273.21665 578.2988 266.53352 C 572.23876 259.8504 571.024 257.1552 571.024 257.1552 C 571.024 257.1552 569.46415 243.98005 567.5215 237.95573 C 565.5789 231.93142 555.13064 225.41723 554.97744 225.45828 C 554.82423 225.49933 550.4169 227.43544 550.38956 227.94622 C 550.3622 228.457 551.5857 246.50504 552.4038 249.55825 C 553.2219 252.61145 554.1333 265.20518 554.987 269.00403 C 555.8407 272.80287 554.1555 273.25443 553.54266 273.41863 C 552.92984 273.58284 547.7808 265.397 547.6276 265.43805 C 547.4744 265.4791 544.53876 262.48983 544.38555 262.53088 C 544.23235 262.57193 538.86196 262.7523 538.86196 262.7523 L 537.122 264.2254 L 530.349 238.68 L 542.36656 263.57532 C 542.36656 263.57532 545.1134 265.86 545.2666 265.81895 C 545.4198 265.7779 548.21045 270.06463 548.21045 270.06463 L 551.4334 274.739 L 555.52346 275.90857 C 555.52346 275.90857 557.8953 272.50407 557.8324 272.2692 C 557.76944 272.03435 555.53126 263.06854 555.53126 263.06854 L 554.691 251.96608 C 554.691 251.96608 554.12724 245.5723 554.1546 245.06154 C 554.1819 244.55076 553.25965 234.98063 553.1967 234.74577 C 553.1338 234.5109 554.21706 231.19995 554.30734 230.92404 C 554.3976 230.64813 557.3441 230.6138 557.3441 230.6138 L 562.15374 233.8561 L 565.3767 238.53045 L 566.6982 243.46255 C 566.6982 243.46255 567.38787 250.32604 567.23466 250.3671 C 567.08146 250.40815 569.5358 259.56777 569.5358 259.56777 C 569.5358 259.56777 570.7232 262.77373 571.09255 262.9265 C 571.4619 263.07925 575.5767 268.01808 575.63964 268.25294 C 575.7026 268.4878 579.7462 271.93535 579.8994 271.8943 C 580.0526 271.85325 581.73786 271.4017 581.73786 271.4017 L 584.0277 269.5295 L 582.1862 260.2057 C 582.1862 260.2057 581.2969 255.6612 581.234 255.42635 C 581.17104 255.19148 580.6537 246.51975 580.6537 246.51975 L 580.3798 237.53106 L 582.7573 239.66298 C 582.7573 239.66298 586.2046 245.78756 586.35784 245.7465 C 586.51104 245.70545 588.31955 250.00363 588.3825 250.2385 C 588.4454 250.47335 590.5221 258.2238 590.5221 258.2238 L 593.1596 262.55158 L 597.6711 267.1324 L 600.95956 267.7616 C 600.95956 267.7616 601.68434 261.27428 601.99075 261.19218 C 602.29716 261.11008 603.8153 253.90673 603.8153 253.90673 L 604.3951 248.71688 L 603.5523 241.89444 L 613.4961 257.7226 L 613.6617 258.3405 L 612.5458 259.63288 C 612.5458 259.63288 613.6939 259.0735 613.91 259.26733 C 614.1262 259.46114 611.482 256.27553 611.6352 256.23448 C 611.7884 256.19343 626.003 262.56157 626.003 262.56157 Z" fill="red"/>
        <path d="M 626.003 262.56157 L 622.7998 261.5211 C 622.7998 261.5211 615.377 253.82795 615.31405 253.5931 C 615.2511 253.35823 609.81506 253.07978 609.81506 253.07978 L 607.2951 260.0464 C 607.2951 260.0464 599.082 243.5957 600.223 249.07962 C 601.36404 254.56355 598.00744 262.2595 598.00744 262.2595 C 598.00744 262.2595 592.5958 256.1578 592.3441 255.21836 C 592.0924 254.27892 590.5738 247.38582 589.5122 244.64957 C 588.4506 241.91333 584.6969 235.87085 584.02114 235.8002 C 583.3454 235.72954 577.8765 234.9294 577.7862 235.20532 C 577.6959 235.48124 576.30885 234.59428 576.8479 237.21881 C 577.3869 239.84335 578.3943 257.6976 578.5201 258.1673 C 578.646 258.63704 584.3588 273.21665 578.2988 266.53352 C 572.23876 259.8504 571.024 257.1552 571.024 257.1552 C 571.024 257.1552 569.46415 243.98005 567.5215 237.95573 C 565.5789 231.93142 555.13064 225.41723 554.97744 225.45828 C 554.82423 225.49933 550.4169 227.43544 550.38956 227.94622 C 550.3622 228.457 551.5857 246.50504 552.4038 249.55825 C 553.2219 252.61145 554.1333 265.20518 554.987 269.00403 C 555.8407 272.80287 554.1555 273.25443 553.54266 273.41863 C 552.92984 273.58284 547.7808 265.397 547.6276 265.43805 C 547.4744 265.4791 544.53876 262.48983 544.38555 262.53088 C 544.23235 262.57193 538.86196 262.7523 538.86196 262.7523 L 537.122 264.2254 L 530.349 238.68 L 542.36656 263.57532 C 542.36656 263.57532 545.1134 265.86 545.2666 265.81895 C 545.4198 265.7779 548.21045 270.06463 548.21045 270.06463 L 551.4334 274.739 L 555.52346 275.90857 C 555.52346 275.90857 557.8953 272.50407 557.8324 272.2692 C 557.76944 272.03435 555.53126 263.06854 555.53126 263.06854 L 554.691 251.96608 C 554.691 251.96608 554.12724 245.5723 554.1546 245.06154 C 554.1819 244.55076 553.25965 234.98063 553.1967 234.74577 C 553.1338 234.5109 554.21706 231.19995 554.30734 230.92404 C 554.3976 230.64813 557.3441 230.6138 557.3441 230.6138 L 562.15374 233.8561 L 565.3767 238.53045 L 566.6982 243.46255 C 566.6982 243.46255 567.38787 250.32604 567.23466 250.3671 C 567.08146 250.40815 569.5358 259.56777 569.5358 259.56777 C 569.5358 259.56777 570.7232 262.77373 571.09255 262.9265 C 571.4619 263.07925 575.5767 268.01808 575.63964 268.25294 C 575.7026 268.4878 579.7462 271.93535 579.8994 271.8943 C 580.0526 271.85325 581.73786 271.4017 581.73786 271.4017 L 584.0277 269.5295 L 582.1862 260.2057 C 582.1862 260.2057 581.2969 255.6612 581.234 255.42635 C 581.17104 255.19148 580.6537 246.51975 580.6537 246.51975 L 580.3798 237.53106 L 582.7573 239.66298 C 582.7573 239.66298 586.2046 245.78756 586.35784 245.7465 C 586.51104 245.70545 588.31955 250.00363 588.3825 250.2385 C 588.4454 250.47335 590.5221 258.2238 590.5221 258.2238 L 593.1596 262.55158 L 597.6711 267.1324 L 600.95956 267.7616 C 600.95956 267.7616 601.68434 261.27428 601.99075 261.19218 C 602.29716 261.11008 603.8153 253.90673 603.8153 253.90673 L 604.3951 248.71688 L 603.5523 241.89444 L 613.4961 257.7226 L 613.6617 258.3405 L 612.5458 259.63288 C 612.5458 259.63288 613.6939 259.0735 613.91 259.26733 C 614.1262 259.46114 611.482 256.27553 611.6352 256.23448 C 611.7884 256.19343 626.003 262.56157 626.003 262.56157 Z" stroke="#ff002a" stroke-linecap="round" stroke-linejoin="round" stroke-width="5"/>
      </g>
      <g id="Graphic_22">
        <path d="M 495.0703 265.89555 L 497.281 253.53005 C 497.281 253.53005 491.38463 222.7335 491.25194 222.23829 C 491.11925 221.74308 477.44415 160.73344 477.44415 160.73344 L 496.63886 228.7563 C 496.63886 228.7563 502.28404 243.6973 505.4691 255.05138 C 508.6542 266.40547 514.4346 279.18718 514.4346 279.18718 C 514.4346 279.18718 511.9857 263.9205 511.4549 261.93968 C 510.92416 259.95885 506.94294 245.63352 505.48385 239.65534 C 504.02476 233.67715 501.1752 219.57935 501.3089 219.01276 C 501.4426 218.44618 492.74984 181.92944 492.9491 182.4068 C 493.1484 182.88416 502.5809 211.77203 504.1071 217.20147 C 505.6333 222.6309 516.7188 257.87542 516.9842 258.86584 C 517.24955 259.85625 525.00916 291.74584 522.36195 274.94 C 519.71474 258.13418 518.32225 252.13816 518.32225 252.13816 C 518.32225 252.13816 510.3578 225.61109 507.041 212.7 C 503.72427 199.7889 509.3071 204.51386 509.3737 204.49601 C 509.4403 204.47817 511.54905 204.83836 511.88103 205.81093 C 512.213 206.7835 516.68926 219.1377 518.41424 225.5754 C 520.1392 232.0131 527.9054 257.00102 530.09507 264.9065 C 532.2847 272.81198 533.0173 272.61568 533.2837 272.5443 C 533.5501 272.47292 529.70664 253.3338 529.77324 253.31597 C 529.83984 253.29812 528.7153 245.63802 528.7819 245.62018 C 528.8485 245.60233 530.3828 242.5374 530.3828 242.5374 L 531.77934 244.28624 L 531.5114 245.95032 L 529.97964 246.36076 C 529.97964 246.36076 530.70614 252.53524 530.63954 252.55308 C 530.57294 252.57093 532.56076 262.65353 532.56076 262.65353 L 534.68076 273.76224 L 534.3432 278.62955 C 534.3432 278.62955 531.5516 273.53917 531.4189 273.04396 C 531.28623 272.54876 526.1774 253.7487 526.1774 253.7487 L 519.34053 231.69635 C 519.34053 231.69635 515.4244 218.94587 515.0924 217.9733 C 514.7604 217.00073 510.5147 203.72766 510.382 203.23245 C 510.2493 202.73725 510.98025 210.22545 510.78096 209.7481 C 510.5817 209.27073 506.7067 200.57484 506.7067 200.57484 L 505.8534 201.34145 L 507.9734 212.45016 L 510.7599 222.84952 C 510.7599 222.84952 514.94144 236.59042 515.00804 236.57258 C 515.07463 236.55473 520.24956 255.86783 520.24956 255.86783 C 520.24956 255.86783 521.97403 262.83643 521.9735 263.36733 C 521.973 263.89822 524.0254 276.08658 524.1581 276.58178 C 524.2908 277.077 525.4138 286.3298 525.3472 286.34763 C 525.2806 286.36548 524.54804 286.56177 524.54804 286.56177 L 522.7524 284.3891 L 517.3111 265.1474 C 517.3111 265.1474 514.65676 255.77413 514.52407 255.27892 C 514.3914 254.78372 509.0146 237.64775 509.0146 237.64775 L 495.4326 191.67517 L 494.522 188.27677 C 494.522 188.27677 507.0817 239.75795 507.0151 239.7758 C 506.9485 239.79364 509.20325 249.27397 509.33594 249.76917 C 509.4686 250.26438 513.8474 266.60623 513.8474 266.60623 L 515.9018 276.671 L 517.6217 288.41767 L 517.1525 291.72798 C 517.1525 291.72798 512.83624 279.61547 512.70304 279.65116 C 512.56984 279.68685 507.5886 266.691 507.5886 266.691 L 504.1356 257.00098 L 500.0207 243.24223 L 480.67263 172.78232 L 479.42194 171.13068 L 492.3175 221.95276 C 492.3175 221.95276 494.97083 232.38781 495.0369 232.90087 C 495.103 233.41392 498.4162 250.0413 498.3496 250.05914 C 498.283 250.077 495.0703 265.89555 495.0703 265.89555 Z" fill="red"/>
        <path d="M 495.0703 265.89555 L 497.281 253.53005 C 497.281 253.53005 491.38463 222.7335 491.25194 222.23829 C 491.11925 221.74308 477.44415 160.73344 477.44415 160.73344 L 496.63886 228.7563 C 496.63886 228.7563 502.28404 243.6973 505.4691 255.05138 C 508.6542 266.40547 514.4346 279.18718 514.4346 279.18718 C 514.4346 279.18718 511.9857 263.9205 511.4549 261.93968 C 510.92416 259.95885 506.94294 245.63352 505.48385 239.65534 C 504.02476 233.67715 501.1752 219.57935 501.3089 219.01276 C 501.4426 218.44618 492.74984 181.92944 492.9491 182.4068 C 493.1484 182.88416 502.5809 211.77203 504.1071 217.20147 C 505.6333 222.6309 516.7188 257.87542 516.9842 258.86584 C 517.24955 259.85625 525.00916 291.74584 522.36195 274.94 C 519.71474 258.13418 518.32225 252.13816 518.32225 252.13816 C 518.32225 252.13816 510.3578 225.61109 507.041 212.7 C 503.72427 199.7889 509.3071 204.51386 509.3737 204.49601 C 509.4403 204.47817 511.54905 204.83836 511.88103 205.81093 C 512.213 206.7835 516.68926 219.1377 518.41424 225.5754 C 520.1392 232.0131 527.9054 257.00102 530.09507 264.9065 C 532.2847 272.81198 533.0173 272.61568 533.2837 272.5443 C 533.5501 272.47292 529.70664 253.3338 529.77324 253.31597 C 529.83984 253.29812 528.7153 245.63802 528.7819 245.62018 C 528.8485 245.60233 530.3828 242.5374 530.3828 242.5374 L 531.77934 244.28624 L 531.5114 245.95032 L 529.97964 246.36076 C 529.97964 246.36076 530.70614 252.53524 530.63954 252.55308 C 530.57294 252.57093 532.56076 262.65353 532.56076 262.65353 L 534.68076 273.76224 L 534.3432 278.62955 C 534.3432 278.62955 531.5516 273.53917 531.4189 273.04396 C 531.28623 272.54876 526.1774 253.7487 526.1774 253.7487 L 519.34053 231.69635 C 519.34053 231.69635 515.4244 218.94587 515.0924 217.9733 C 514.7604 217.00073 510.5147 203.72766 510.382 203.23245 C 510.2493 202.73725 510.98025 210.22545 510.78096 209.7481 C 510.5817 209.27073 506.7067 200.57484 506.7067 200.57484 L 505.8534 201.34145 L 507.9734 212.45016 L 510.7599 222.84952 C 510.7599 222.84952 514.94144 236.59042 515.00804 236.57258 C 515.07463 236.55473 520.24956 255.86783 520.24956 255.86783 C 520.24956 255.86783 521.97403 262.83643 521.9735 263.36733 C 521.973 263.89822 524.0254 276.08658 524.1581 276.58178 C 524.2908 277.077 525.4138 286.3298 525.3472 286.34763 C 525.2806 286.36548 524.54804 286.56177 524.54804 286.56177 L 522.7524 284.3891 L 517.3111 265.1474 C 517.3111 265.1474 514.65676 255.77413 514.52407 255.27892 C 514.3914 254.78372 509.0146 237.64775 509.0146 237.64775 L 495.4326 191.67517 L 494.522 188.27677 C 494.522 188.27677 507.0817 239.75795 507.0151 239.7758 C 506.9485 239.79364 509.20325 249.27397 509.33594 249.76917 C 509.4686 250.26438 513.8474 266.60623 513.8474 266.60623 L 515.9018 276.671 L 517.6217 288.41767 L 517.1525 291.72798 C 517.1525 291.72798 512.83624 279.61547 512.70304 279.65116 C 512.56984 279.68685 507.5886 266.691 507.5886 266.691 L 504.1356 257.00098 L 500.0207 243.24223 L 480.67263 172.78232 L 479.42194 171.13068 L 492.3175 221.95276 C 492.3175 221.95276 494.97083 232.38781 495.0369 232.90087 C 495.103 233.41392 498.4162 250.0413 498.3496 250.05914 C 498.283 250.077 495.0703 265.89555 495.0703 265.89555 Z" stroke="#ff002a" stroke-linecap="round" stroke-linejoin="round" stroke-width="5"/>
      </g>
      <g id="Graphic_23">
        <path d="M 395.95517 294.7903 L 405.5489 276.85286 C 405.5489 276.85286 402.4912 256.65022 402.40504 256.32868 C 402.3189 256.00715 402.3899 249.8238 402.3899 249.8238 L 407.09393 260.24163 C 407.09393 260.24163 411.29653 269.79883 413.4113 277.1585 C 415.5261 284.51815 420.05005 292.61075 420.05005 292.61075 C 420.05005 292.61075 418.99716 282.5542 418.65254 281.26806 C 418.3079 279.9819 415.6762 270.69303 414.77554 266.7989 C 413.8749 262.90477 412.3283 253.66975 412.50855 253.27683 C 412.6888 252.8839 414.04456 249.41904 414.1973 249.72273 C 414.35007 250.02642 414.3855 248.29382 415.3998 251.81288 C 416.4141 255.33194 424.1491 278.07215 424.3214 278.71523 C 424.4937 279.3583 429.2751 300.13295 428.1635 289.05826 C 427.05197 277.98357 418.582 248.87486 418.582 248.87486 C 418.582 248.87486 423.2696 263.93926 421.16273 255.5436 C 419.0559 247.14796 424.77905 249.19963 424.84565 249.18178 C 424.91225 249.16394 426.11324 251.1629 426.35215 251.7881 C 426.59106 252.41334 427.5166 252.0124 428.63663 256.1924 C 429.75666 260.37237 435.1496 276.50307 436.59466 281.6298 C 438.03975 286.75656 438.77234 286.56026 439.03874 286.48888 C 439.30514 286.4175 437.23 273.8779 437.2966 273.86004 C 437.3632 273.8422 436.93666 268.78716 437.00326 268.7693 C 437.06986 268.75147 438.83686 266.5549 438.83686 266.5549 L 440.04727 267.60905 L 439.63974 268.7521 L 438.10796 269.16255 C 438.10796 269.16255 438.27604 273.25298 438.20944 273.27083 C 438.14284 273.28867 439.19996 279.89786 439.19996 279.89786 L 440.2962 287.1858 L 439.5398 290.4901 C 439.5398 290.4901 437.2601 287.31008 437.17396 286.98855 C 437.0878 286.667 433.7473 274.46645 433.7473 274.46645 L 429.0045 260.22928 C 429.0045 260.22928 426.29827 251.99424 426.05936 251.369 C 425.82045 250.7438 427.6208 256.5228 427.53465 256.20126 C 427.4485 255.87972 430.12507 263.59177 429.9723 263.28808 C 429.81956 262.9844 423.1749 251.99446 423.1749 251.99446 L 423.1764 248.98406 L 422.67073 255.13954 L 421.4011 255.02954 C 421.4011 255.02954 424.27967 263.90766 424.34627 263.8898 C 424.41286 263.87197 427.77293 276.4119 427.77293 276.4119 C 427.77293 276.4119 428.8459 280.9491 428.79887 281.30634 C 428.7518 281.66356 429.68737 289.6838 429.77353 290.00535 C 429.8597 290.3269 430.1451 296.4536 430.0785 296.47146 C 430.0119 296.4893 429.2793 296.6856 429.2793 296.6856 L 427.71635 295.3813 L 424.0899 282.91273 C 424.0899 282.91273 422.31973 276.83922 422.23357 276.51768 C 422.1474 276.19614 418.3994 265.13865 418.3994 265.13865 L 414.432 253.7953 L 414.6471 257.5285 C 414.6471 257.5285 416.3269 266.72784 416.2603 266.7457 C 416.1937 266.76353 417.56424 272.9441 417.6504 273.26565 C 417.73655 273.5872 420.5797 284.1979 420.5797 284.1979 L 421.7034 290.78925 L 422.353 298.5415 L 421.60455 300.80978 C 421.60455 300.80978 418.45167 293.03903 418.31847 293.07473 C 418.18527 293.1104 414.4605 284.80367 414.4605 284.80367 L 411.9382 278.58708 L 409.12624 269.6911 L 405.9538 261.581 L 403.6276 252.8995 L 403.4706 256.04316 C 403.4706 256.04316 405.1467 262.83112 405.16625 263.1705 C 405.1858 263.5099 406.96335 274.40613 406.89675 274.42397 C 406.83015 274.44182 395.95517 294.7903 395.95517 294.7903 Z" fill="red"/>
        <path d="M 395.95517 294.7903 L 405.5489 276.85286 C 405.5489 276.85286 402.4912 256.65022 402.40504 256.32868 C 402.3189 256.00715 402.3899 249.8238 402.3899 249.8238 L 407.09393 260.24163 C 407.09393 260.24163 411.29653 269.79883 413.4113 277.1585 C 415.5261 284.51815 420.05005 292.61075 420.05005 292.61075 C 420.05005 292.61075 418.99716 282.5542 418.65254 281.26806 C 418.3079 279.9819 415.6762 270.69303 414.77554 266.7989 C 413.8749 262.90477 412.3283 253.66975 412.50855 253.27683 C 412.6888 252.8839 414.04456 249.41904 414.1973 249.72273 C 414.35007 250.02642 414.3855 248.29382 415.3998 251.81288 C 416.4141 255.33194 424.1491 278.07215 424.3214 278.71523 C 424.4937 279.3583 429.2751 300.13295 428.1635 289.05826 C 427.05197 277.98357 418.582 248.87486 418.582 248.87486 C 418.582 248.87486 423.2696 263.93926 421.16273 255.5436 C 419.0559 247.14796 424.77905 249.19963 424.84565 249.18178 C 424.91225 249.16394 426.11324 251.1629 426.35215 251.7881 C 426.59106 252.41334 427.5166 252.0124 428.63663 256.1924 C 429.75666 260.37237 435.1496 276.50307 436.59466 281.6298 C 438.03975 286.75656 438.77234 286.56026 439.03874 286.48888 C 439.30514 286.4175 437.23 273.8779 437.2966 273.86004 C 437.3632 273.8422 436.93666 268.78716 437.00326 268.7693 C 437.06986 268.75147 438.83686 266.5549 438.83686 266.5549 L 440.04727 267.60905 L 439.63974 268.7521 L 438.10796 269.16255 C 438.10796 269.16255 438.27604 273.25298 438.20944 273.27083 C 438.14284 273.28867 439.19996 279.89786 439.19996 279.89786 L 440.2962 287.1858 L 439.5398 290.4901 C 439.5398 290.4901 437.2601 287.31008 437.17396 286.98855 C 437.0878 286.667 433.7473 274.46645 433.7473 274.46645 L 429.0045 260.22928 C 429.0045 260.22928 426.29827 251.99424 426.05936 251.369 C 425.82045 250.7438 427.6208 256.5228 427.53465 256.20126 C 427.4485 255.87972 430.12507 263.59177 429.9723 263.28808 C 429.81956 262.9844 423.1749 251.99446 423.1749 251.99446 L 423.1764 248.98406 L 422.67073 255.13954 L 421.4011 255.02954 C 421.4011 255.02954 424.27967 263.90766 424.34627 263.8898 C 424.41286 263.87197 427.77293 276.4119 427.77293 276.4119 C 427.77293 276.4119 428.8459 280.9491 428.79887 281.30634 C 428.7518 281.66356 429.68737 289.6838 429.77353 290.00535 C 429.8597 290.3269 430.1451 296.4536 430.0785 296.47146 C 430.0119 296.4893 429.2793 296.6856 429.2793 296.6856 L 427.71635 295.3813 L 424.0899 282.91273 C 424.0899 282.91273 422.31973 276.83922 422.23357 276.51768 C 422.1474 276.19614 418.3994 265.13865 418.3994 265.13865 L 414.432 253.7953 L 414.6471 257.5285 C 414.6471 257.5285 416.3269 266.72784 416.2603 266.7457 C 416.1937 266.76353 417.56424 272.9441 417.6504 273.26565 C 417.73655 273.5872 420.5797 284.1979 420.5797 284.1979 L 421.7034 290.78925 L 422.353 298.5415 L 421.60455 300.80978 C 421.60455 300.80978 418.45167 293.03903 418.31847 293.07473 C 418.18527 293.1104 414.4605 284.80367 414.4605 284.80367 L 411.9382 278.58708 L 409.12624 269.6911 L 405.9538 261.581 L 403.6276 252.8995 L 403.4706 256.04316 C 403.4706 256.04316 405.1467 262.83112 405.16625 263.1705 C 405.1858 263.5099 406.96335 274.40613 406.89675 274.42397 C 406.83015 274.44182 395.95517 294.7903 395.95517 294.7903 Z" stroke="#ff002a" stroke-linecap="round" stroke-linejoin="round" stroke-width="5"/>
      </g>
      <g id="Graphic_24">
        <path d="M 439.8077 266.7149 L 443.84086 257.83754 C 443.84086 257.83754 444.0262 250.1731 443.8935 249.6779 C 443.7608 249.18268 444.54927 233.9392 444.54927 233.9392 L 444.8329 232.6259 C 444.8329 232.6259 450.92555 247.447 454.14954 258.79067 C 457.37353 270.13433 463.79594 282.74402 463.79594 282.74402 C 463.79594 282.74402 461.79446 267.35746 461.2637 265.37663 C 460.73294 263.3958 456.7128 249.0809 455.29263 243.09228 C 453.87245 237.10367 451.2758 222.9381 451.48734 222.35067 C 451.69886 221.76323 453.25837 216.5685 453.4771 217.04065 C 453.69585 217.5128 453.6348 214.87536 455.1804 220.29958 C 456.7261 225.7238 468.259 260.84843 468.5244 261.83884 C 468.7898 262.82926 476.3354 294.7762 474.194 277.83482 C 472.0526 260.89346 470.7185 254.8818 470.7185 254.8818 C 470.7185 254.8818 462.52055 228.41728 459.2427 215.49576 C 455.96486 202.57425 450.09825 171.85613 450.1843 171.83307 C 450.27036 171.81001 449.9283 156.9328 450.27974 157.90017 C 450.63117 158.86752 471.0504 221.35485 472.7754 227.79255 C 474.50035 234.23025 482.5584 259.13997 484.7675 267.04024 C 486.9766 274.9405 487.92317 274.68686 488.2674 274.59463 C 488.6116 274.5024 485.1183 255.26947 485.2044 255.2464 C 485.29043 255.22335 484.4188 247.49548 484.5048 247.47242 C 484.5909 247.44936 453.39336 129.2512 453.39336 129.2512 C 453.39336 129.2512 514.44166 326.6667 488.41666 245.8935 C 462.39165 165.12026 455.049 135.43012 455.049 135.43012 L 485.97496 248.14003 C 485.97496 248.14003 486.44855 254.38227 486.3625 254.40533 C 486.27644 254.4284 488.0697 264.56312 488.0697 264.56312 L 489.95626 275.7344 L 489.17124 280.7216 C 489.17124 280.7216 485.99057 275.73546 485.8579 275.24026 C 485.7252 274.74505 480.5969 255.95022 480.5969 255.95022 L 473.5071 233.96563 C 473.5071 233.96563 469.4548 221.25163 469.10336 220.28428 C 468.75193 219.31692 462.71646 200.2344 462.58377 199.7392 C 462.4511 199.24398 452.2879 175.44257 452.06916 174.97042 C 451.8504 174.49827 452.0055 178.62987 452.0055 178.62987 L 458.5609 204.00169 L 460.44746 215.17295 L 463.23396 225.5723 C 463.23396 225.5723 467.55167 239.27672 467.6377 239.25366 C 467.7238 239.2306 472.8987 258.5437 472.8987 258.5437 C 472.8987 258.5437 474.58426 265.52273 474.54485 266.06405 C 474.50543 266.60537 476.2271 278.88234 476.3598 279.37755 C 476.49247 279.87276 477.2459 289.2246 477.1598 289.24766 C 477.07377 289.2707 476.1272 289.52435 476.1272 289.52435 L 474.0008 287.4403 L 468.4817 268.21943 C 468.4817 268.21943 465.78845 258.8566 465.65575 258.3614 C 465.52306 257.8662 459.9323 240.78756 459.9323 240.78756 L 454.03675 223.25984 L 454.54976 228.96076 C 454.54976 228.96076 457.3185 243.0802 457.23245 243.10327 C 457.1464 243.12633 459.3233 252.6275 459.456 253.1227 C 459.5887 253.61792 463.96746 269.95977 463.96746 269.95977 L 465.8468 280.07145 L 467.1776 291.9224 L 466.3387 295.33173 C 466.3387 295.33173 461.73066 283.2974 461.55855 283.34353 C 461.38644 283.38965 455.99667 270.50326 455.99667 270.50326 L 452.3102 260.8758 L 448.07856 247.14833 L 443.42386 234.59575 L 446.1858 236.14972 L 445.90566 245.49634 C 445.90566 245.49634 442.44507 236.4503 442.4917 236.96856 C 442.53834 237.48683 445.54027 254.1976 445.4542 254.22067 C 445.36816 254.24373 439.8077 266.7149 439.8077 266.7149 Z" fill="red"/>
        <path d="M 439.8077 266.7149 L 443.84086 257.83754 C 443.84086 257.83754 444.0262 250.1731 443.8935 249.6779 C 443.7608 249.18268 444.54927 233.9392 444.54927 233.9392 L 444.8329 232.6259 C 444.8329 232.6259 450.92555 247.447 454.14954 258.79067 C 457.37353 270.13433 463.79594 282.74402 463.79594 282.74402 C 463.79594 282.74402 461.79446 267.35746 461.2637 265.37663 C 460.73294 263.3958 456.7128 249.0809 455.29263 243.09228 C 453.87245 237.10367 451.2758 222.9381 451.48734 222.35067 C 451.69886 221.76323 453.25837 216.5685 453.4771 217.04065 C 453.69585 217.5128 453.6348 214.87536 455.1804 220.29958 C 456.7261 225.7238 468.259 260.84843 468.5244 261.83884 C 468.7898 262.82926 476.3354 294.7762 474.194 277.83482 C 472.0526 260.89346 470.7185 254.8818 470.7185 254.8818 C 470.7185 254.8818 462.52055 228.41728 459.2427 215.49576 C 455.96486 202.57425 450.09825 171.85613 450.1843 171.83307 C 450.27036 171.81001 449.9283 156.9328 450.27974 157.90017 C 450.63117 158.86752 471.0504 221.35485 472.7754 227.79255 C 474.50035 234.23025 482.5584 259.13997 484.7675 267.04024 C 486.9766 274.9405 487.92317 274.68686 488.2674 274.59463 C 488.6116 274.5024 485.1183 255.26947 485.2044 255.2464 C 485.29043 255.22335 484.4188 247.49548 484.5048 247.47242 C 484.5909 247.44936 453.39336 129.2512 453.39336 129.2512 C 453.39336 129.2512 514.44166 326.6667 488.41666 245.8935 C 462.39165 165.12026 455.049 135.43012 455.049 135.43012 L 485.97496 248.14003 C 485.97496 248.14003 486.44855 254.38227 486.3625 254.40533 C 486.27644 254.4284 488.0697 264.56312 488.0697 264.56312 L 489.95626 275.7344 L 489.17124 280.7216 C 489.17124 280.7216 485.99057 275.73546 485.8579 275.24026 C 485.7252 274.74505 480.5969 255.95022 480.5969 255.95022 L 473.5071 233.96563 C 473.5071 233.96563 469.4548 221.25163 469.10336 220.28428 C 468.75193 219.31692 462.71646 200.2344 462.58377 199.7392 C 462.4511 199.24398 452.2879 175.44257 452.06916 174.97042 C 451.8504 174.49827 452.0055 178.62987 452.0055 178.62987 L 458.5609 204.00169 L 460.44746 215.17295 L 463.23396 225.5723 C 463.23396 225.5723 467.55167 239.27672 467.6377 239.25366 C 467.7238 239.2306 472.8987 258.5437 472.8987 258.5437 C 472.8987 258.5437 474.58426 265.52273 474.54485 266.06405 C 474.50543 266.60537 476.2271 278.88234 476.3598 279.37755 C 476.49247 279.87276 477.2459 289.2246 477.1598 289.24766 C 477.07377 289.2707 476.1272 289.52435 476.1272 289.52435 L 474.0008 287.4403 L 468.4817 268.21943 C 468.4817 268.21943 465.78845 258.8566 465.65575 258.3614 C 465.52306 257.8662 459.9323 240.78756 459.9323 240.78756 L 454.03675 223.25984 L 454.54976 228.96076 C 454.54976 228.96076 457.3185 243.0802 457.23245 243.10327 C 457.1464 243.12633 459.3233 252.6275 459.456 253.1227 C 459.5887 253.61792 463.96746 269.95977 463.96746 269.95977 L 465.8468 280.07145 L 467.1776 291.9224 L 466.3387 295.33173 C 466.3387 295.33173 461.73066 283.2974 461.55855 283.34353 C 461.38644 283.38965 455.99667 270.50326 455.99667 270.50326 L 452.3102 260.8758 L 448.07856 247.14833 L 443.42386 234.59575 L 446.1858 236.14972 L 445.90566 245.49634 C 445.90566 245.49634 442.44507 236.4503 442.4917 236.96856 C 442.53834 237.48683 445.54027 254.1976 445.4542 254.22067 C 445.36816 254.24373 439.8077 266.7149 439.8077 266.7149 Z" stroke="#ff002a" stroke-linecap="round" stroke-linejoin="round" stroke-width="5"/>
      </g>
    </g>
  </g>
</svg>
