<?xml version="1.0" encoding="UTF-8" standalone="no"?>
<!DOCTYPE svg PUBLIC "-//W3C//DTD SVG 1.1//EN" "http://www.w3.org/Graphics/SVG/1.1/DTD/svg11.dtd">
<svg xmlns:xl="http://www.w3.org/1999/xlink" xmlns:dc="http://purl.org/dc/elements/1.1/" xmlns="http://www.w3.org/2000/svg" version="1.1" viewBox="0 0 850.394 850.394" width="850.394" height="850.394">
  <defs>
    <marker orient="auto" overflow="visible" markerUnits="strokeWidth" id="FilledArrow_Marker" stroke-linejoin="miter" stroke-miterlimit="10" viewBox="-1 -2 4 4" markerWidth="4" markerHeight="4" color="black">
      <g>
        <path d="M 1.904762 0 L 0 -.7142857 L 0 .7142857 Z" fill="currentColor" stroke="currentColor" stroke-width="1"/>
      </g>
    </marker>
    <marker orient="auto" overflow="visible" markerUnits="strokeWidth" id="FilledArrow_Marker_2" stroke-linejoin="miter" stroke-miterlimit="10" viewBox="-1 -2 5 4" markerWidth="5" markerHeight="4" color="black">
      <g>
        <path d="M 2.1818182 0 L 0 -.8181818 L 0 .8181818 Z" fill="currentColor" stroke="currentColor" stroke-width="1"/>
      </g>
    </marker>
  </defs>
  <metadata> Produced by OmniGraffle 7.9.4 
    <dc:date>2019-04-08 19:06:54 +0000</dc:date>
  </metadata>
  <g id="abstracted" stroke="none" fill="none" stroke-dasharray="none" stroke-opacity="1" fill-opacity="1">
    <title>abstracted</title>
    <g id="abstracted: env">
      <title>env</title>
      <g id="Graphic_18">
        <path d="M 38 246.38046 L 173.956 219.61747 L 287.4311 251.73306 L 453.36164 308.4706 L 386 542 L 566 549 C 566 549 754 553.0705 754 552 C 754 550.9295 788 564 788 564 L 568 705 L 235 454 L 107 722 L 561 715 L 816 589 C 816 589 746 445.0705 746 444 C 746 442.9295 683.5234 374.84283 683.5234 374.84283 L 595 350 L 554 330 L 477 245 C 477 245 446.0705 309.56416 445 301 C 443.9295 292.43584 333 257 333 257 L 291.71317 198.20708 L 242.46926 123.2707 L 155.75717 115.77706 L 106.51326 16.218728 L 61.55143 152.17473 L 48.705197 224.97007 Z" fill="#00feff"/>
        <path d="M 38 246.38046 L 173.956 219.61747 L 287.4311 251.73306 L 453.36164 308.4706 L 386 542 L 566 549 C 566 549 754 553.0705 754 552 C 754 550.9295 788 564 788 564 L 568 705 L 235 454 L 107 722 L 561 715 L 816 589 C 816 589 746 445.0705 746 444 C 746 442.9295 683.5234 374.84283 683.5234 374.84283 L 595 350 L 554 330 L 477 245 C 477 245 446.0705 309.56416 445 301 C 443.9295 292.43584 333 257 333 257 L 291.71317 198.20708 L 242.46926 123.2707 L 155.75717 115.77706 L 106.51326 16.218728 L 61.55143 152.17473 L 48.705197 224.97007 Z" stroke="black" stroke-linecap="round" stroke-linejoin="round" stroke-dasharray="3.0,12.0" stroke-width="3"/>
      </g>
      <g id="Line_16">
        <path d="M 41.21156 243.2221 L 105.09631 15 L 154.27788 114.08117 L 235.58496 127.91482 L 320.47904 247.60434" stroke="#6d5000" stroke-linecap="round" stroke-linejoin="round" stroke-dasharray="5.0,20.0" stroke-width="5"/>
      </g>
      <g id="Line_10">
        <path d="M 393 532.3872 L 480.3441 259 L 547.58576 377.6893 L 658.7499 394.26064 L 774.8182 537.6367" stroke="black" stroke-linecap="round" stroke-linejoin="round" stroke-width="11"/>
      </g>
      <g id="Line_21">
        <line x1="393" y1="532.3872" x2="776.24605" y2="537.5736" stroke="black" stroke-linecap="round" stroke-linejoin="round" stroke-width="11"/>
      </g>
      <g id="Graphic_22">
        <path d="M 136 707 L 238 483 L 553 704 Z" fill="red"/>
        <path d="M 136 707 L 238 483 L 553 704 Z" stroke="black" stroke-linecap="round" stroke-linejoin="round" stroke-width="8"/>
      </g>
      <g id="Graphic_23">
        <path d="M 418 511 L 483 300 L 541 407 L 648 421 L 743 521 L 629 507 L 558 484 L 509 511 Z" fill="#ff4040"/>
        <path d="M 418 511 L 483 300 L 541 407 L 648 421 L 743 521 L 629 507 L 558 484 L 509 511 Z" stroke="#b1001c" stroke-linecap="round" stroke-linejoin="round" stroke-width="6"/>
      </g>
      <g id="Line_24">
        <line x1="294.67797" y1="238.45763" x2="386.0043" y2="276.17937" marker-end="url(#FilledArrow_Marker)" stroke="black" stroke-linecap="round" stroke-linejoin="round" stroke-width="21"/>
      </g>
      <g id="Line_25">
        <path d="M 787.8983 552.01695 L 794.678 580.8305 L 608.9642 687.1731" marker-end="url(#FilledArrow_Marker_2)" stroke="black" stroke-linecap="round" stroke-linejoin="round" stroke-width="11"/>
      </g>
    </g>
    <g id="abstracted: Layer 1">
      <title>Layer 1</title>
      <g id="Graphic_2">
        <path d="M 281.1017 217.93016 L 279.18264 216.09609 C 279.18264 216.09609 275.66436 206.7439 275.66436 206.50076 C 275.66436 206.25762 272.14607 204.5817 272.14607 204.5817 L 269.26748 210.65874 C 269.26748 210.65874 266.77046 192.64286 266.55495 198.23524 C 266.33945 203.82763 262.78357 210.3926 262.78357 210.3926 C 262.78357 210.3926 260.30524 203.09818 260.30524 202.1256 C 260.30524 201.153 260.52075 194.10174 260.30524 191.18398 C 260.08973 188.26621 258.68893 181.4581 258.25792 181.21495 C 257.8269 180.9718 254.37878 178.78348 254.27103 179.02662 C 254.16328 179.26977 253.409 178.05404 253.30125 180.72865 C 253.1935 183.40327 250.71516 200.90986 250.71516 201.39616 C 250.71516 201.88245 251.90045 217.44386 249.09885 209.42 C 246.29725 201.39616 245.974 198.4784 245.974 198.4784 C 245.974 198.4784 247.26704 185.34845 247.05153 179.02662 C 246.83602 172.7048 241.12508 163.70836 241.01732 163.70836 C 240.90957 163.70836 237.67696 164.4378 237.5692 164.9241 C 237.46145 165.41039 235.09087 183.16012 235.09087 186.32104 C 235.09087 189.48195 233.47456 201.88245 233.3668 205.7728 C 233.25905 209.66316 232.07376 209.66316 231.64275 209.66316 C 231.21173 209.66316 229.27217 200.42357 229.1644 200.42357 C 229.05666 200.42357 227.65586 196.77636 227.5481 196.77636 C 227.44035 196.77636 223.88448 195.56063 223.88448 195.56063 L 222.48368 196.53321 L 222.53082 170.10524 L 226.03955 197.26265 C 226.03955 197.26265 227.44035 200.18042 227.5481 200.18042 C 227.65586 200.18042 228.7334 205.04336 228.7334 205.04336 L 230.02644 210.3926 L 232.50478 212.58092 C 232.50478 212.58092 234.65985 209.9063 234.65985 209.66316 C 234.65985 209.42 234.7676 200.18042 234.7676 200.18042 L 236.1684 189.2388 C 236.1684 189.2388 236.92268 182.91698 237.03043 182.43068 C 237.1382 181.94439 238.21573 172.46165 238.21573 172.2185 C 238.21573 171.97536 239.50877 169.0576 239.61652 168.81445 C 239.72428 168.5713 241.66384 169.30074 241.66384 169.30074 L 244.24993 173.67739 L 245.54298 179.02662 L 245.54298 184.13271 C 245.54298 184.13271 244.7887 190.94083 244.68095 190.94083 C 244.5732 190.94083 244.5732 200.42357 244.5732 200.42357 C 244.5732 200.42357 244.7887 203.82763 245.0042 204.07077 C 245.21972 204.31392 247.05153 210.14945 247.05153 210.3926 C 247.05153 210.63574 249.09885 215.0124 249.2066 215.0124 C 249.31436 215.0124 250.49965 215.0124 250.49965 215.0124 L 252.33146 213.79666 L 252.76248 204.31392 C 252.76248 204.31392 252.978 199.69413 252.978 199.45098 C 252.978 199.20783 254.16328 190.69768 254.16328 190.69768 L 255.56407 181.94439 L 256.74937 184.619 C 256.74937 184.619 257.93466 191.42712 258.0424 191.42712 C 258.15016 191.42712 258.58118 196.04692 258.58118 196.29007 C 258.58118 196.53321 258.58118 204.55707 258.58118 204.55707 L 259.55096 209.42 L 261.70604 215.0124 L 263.75336 216.47127 C 263.75336 216.47127 265.36966 210.3926 265.58517 210.3926 C 265.80068 210.3926 268.0635 203.82763 268.0635 203.82763 L 269.35655 198.96468 L 270.00307 192.15657 L 273.7453 210.01905 L 273.7453 210.65874 L 272.78576 211.61827 C 272.78576 211.61827 273.63754 211.37512 273.7453 211.61827 C 273.85305 211.86142 272.678 208.09998 272.78576 208.09998 C 272.8935 208.09998 281.1017 217.93016 281.1017 217.93016 Z" fill="red"/>
        <path d="M 281.1017 217.93016 L 279.18264 216.09609 C 279.18264 216.09609 275.66436 206.7439 275.66436 206.50076 C 275.66436 206.25762 272.14607 204.5817 272.14607 204.5817 L 269.26748 210.65874 C 269.26748 210.65874 266.77046 192.64286 266.55495 198.23524 C 266.33945 203.82763 262.78357 210.3926 262.78357 210.3926 C 262.78357 210.3926 260.30524 203.09818 260.30524 202.1256 C 260.30524 201.153 260.52075 194.10174 260.30524 191.18398 C 260.08973 188.26621 258.68893 181.4581 258.25792 181.21495 C 257.8269 180.9718 254.37878 178.78348 254.27103 179.02662 C 254.16328 179.26977 253.409 178.05404 253.30125 180.72865 C 253.1935 183.40327 250.71516 200.90986 250.71516 201.39616 C 250.71516 201.88245 251.90045 217.44386 249.09885 209.42 C 246.29725 201.39616 245.974 198.4784 245.974 198.4784 C 245.974 198.4784 247.26704 185.34845 247.05153 179.02662 C 246.83602 172.7048 241.12508 163.70836 241.01732 163.70836 C 240.90957 163.70836 237.67696 164.4378 237.5692 164.9241 C 237.46145 165.41039 235.09087 183.16012 235.09087 186.32104 C 235.09087 189.48195 233.47456 201.88245 233.3668 205.7728 C 233.25905 209.66316 232.07376 209.66316 231.64275 209.66316 C 231.21173 209.66316 229.27217 200.42357 229.1644 200.42357 C 229.05666 200.42357 227.65586 196.77636 227.5481 196.77636 C 227.44035 196.77636 223.88448 195.56063 223.88448 195.56063 L 222.48368 196.53321 L 222.53082 170.10524 L 226.03955 197.26265 C 226.03955 197.26265 227.44035 200.18042 227.5481 200.18042 C 227.65586 200.18042 228.7334 205.04336 228.7334 205.04336 L 230.02644 210.3926 L 232.50478 212.58092 C 232.50478 212.58092 234.65985 209.9063 234.65985 209.66316 C 234.65985 209.42 234.7676 200.18042 234.7676 200.18042 L 236.1684 189.2388 C 236.1684 189.2388 236.92268 182.91698 237.03043 182.43068 C 237.1382 181.94439 238.21573 172.46165 238.21573 172.2185 C 238.21573 171.97536 239.50877 169.0576 239.61652 168.81445 C 239.72428 168.5713 241.66384 169.30074 241.66384 169.30074 L 244.24993 173.67739 L 245.54298 179.02662 L 245.54298 184.13271 C 245.54298 184.13271 244.7887 190.94083 244.68095 190.94083 C 244.5732 190.94083 244.5732 200.42357 244.5732 200.42357 C 244.5732 200.42357 244.7887 203.82763 245.0042 204.07077 C 245.21972 204.31392 247.05153 210.14945 247.05153 210.3926 C 247.05153 210.63574 249.09885 215.0124 249.2066 215.0124 C 249.31436 215.0124 250.49965 215.0124 250.49965 215.0124 L 252.33146 213.79666 L 252.76248 204.31392 C 252.76248 204.31392 252.978 199.69413 252.978 199.45098 C 252.978 199.20783 254.16328 190.69768 254.16328 190.69768 L 255.56407 181.94439 L 256.74937 184.619 C 256.74937 184.619 257.93466 191.42712 258.0424 191.42712 C 258.15016 191.42712 258.58118 196.04692 258.58118 196.29007 C 258.58118 196.53321 258.58118 204.55707 258.58118 204.55707 L 259.55096 209.42 L 261.70604 215.0124 L 263.75336 216.47127 C 263.75336 216.47127 265.36966 210.3926 265.58517 210.3926 C 265.80068 210.3926 268.0635 203.82763 268.0635 203.82763 L 269.35655 198.96468 L 270.00307 192.15657 L 273.7453 210.01905 L 273.7453 210.65874 L 272.78576 211.61827 C 272.78576 211.61827 273.63754 211.37512 273.7453 211.61827 C 273.85305 211.86142 272.678 208.09998 272.78576 208.09998 C 272.8935 208.09998 281.1017 217.93016 281.1017 217.93016 Z" stroke="#b1001c" stroke-linecap="round" stroke-linejoin="round" stroke-width="5"/>
      </g>
      <g id="Graphic_3">
        <path d="M 119.20578 187.26266 L 125.76463 175.89067 C 125.76463 175.89067 128.5615 144.61739 128.5615 144.10471 C 128.5615 143.59204 131.73451 81.12188 131.73451 81.12188 L 132.88391 151.79486 C 132.88391 151.79486 134.83324 167.68784 135.00274 179.4794 C 135.17225 191.27097 137.96911 205.11324 137.96911 205.11324 C 137.96911 205.11324 139.91844 189.73294 139.91844 187.68223 C 139.91844 185.63153 139.74893 170.7639 139.91844 164.61178 C 140.08794 158.45966 141.18974 144.10471 141.52875 143.59204 C 141.86776 143.07936 143.16415 105.55704 143.2489 106.06972 C 143.33366 106.58239 145.34265 136.92724 145.4274 142.56668 C 145.51215 148.20613 147.46148 185.11885 147.46148 186.1442 C 147.46148 187.16956 146.5292 219.98086 148.73278 203.06253 C 150.93637 186.1442 151.19063 179.99208 151.19063 179.99208 C 151.19063 179.99208 150.17359 152.30754 150.3431 138.97795 C 150.5126 125.64835 155.63807 131.65724 155.72282 131.65724 C 155.80757 131.65724 158.19682 132.55095 158.28157 133.57631 C 158.36633 134.60166 159.75071 147.69345 159.75071 154.35825 C 159.75071 161.02304 161.022 187.16956 161.10676 195.37238 C 161.19152 203.5752 162.1238 203.5752 162.46282 203.5752 C 162.80183 203.5752 164.32739 184.0935 164.41214 184.0935 C 164.4969 184.0935 165.59869 176.40334 165.68344 176.40334 C 165.7682 176.40334 168.56505 173.83996 168.56505 173.83996 L 169.66685 175.89067 L 168.81931 177.4287 L 166.86999 177.4287 C 166.86999 177.4287 165.7682 183.58082 165.68344 183.58082 C 165.59869 183.58082 164.75115 193.83435 164.75115 193.83435 L 163.73411 205.11324 L 161.78479 209.72733 C 161.78479 209.72733 160.08972 204.08789 160.08972 203.5752 C 160.08972 203.06253 160.00497 183.58082 160.00497 183.58082 L 158.90318 160.51037 C 158.90318 160.51037 158.3099 147.18077 158.22515 146.15542 C 158.1404 145.13007 157.32204 131.21039 157.32204 130.69771 C 157.32204 130.18503 155.80757 137.60727 155.72282 137.0946 C 155.63807 136.58192 153.80376 127.17943 153.80376 127.17943 L 152.54668 127.69906 L 151.52964 138.97795 L 151.52964 149.74416 C 151.52964 149.74416 152.12291 164.0991 152.20767 164.0991 C 152.29242 164.0991 152.29242 184.0935 152.29242 184.0935 C 152.29242 184.0935 152.12291 191.27097 151.9534 191.78365 C 151.7839 192.29632 150.3431 204.60056 150.3431 205.11324 C 150.3431 205.62592 148.73278 214.8541 148.64803 214.8541 C 148.56327 214.8541 147.63099 214.8541 147.63099 214.8541 L 146.19018 212.29071 L 145.85117 192.29632 C 145.85117 192.29632 145.68166 182.55546 145.68166 182.04279 C 145.68166 181.53011 144.74937 163.58643 144.74937 163.58643 L 143.2489 115.66504 L 143.2489 112.14675 C 143.2489 112.14675 141.78301 165.12446 141.69826 165.12446 C 141.6135 165.12446 141.27449 174.86531 141.27449 175.378 C 141.27449 175.89067 141.27449 192.809 141.27449 192.809 L 140.51171 203.06253 L 138.81664 214.8541 L 137.20633 217.93016 C 137.20633 217.93016 135.93503 205.11324 135.76552 205.11324 C 135.59602 205.11324 133.8162 191.27097 133.8162 191.27097 L 132.79916 181.01743 L 132.29064 166.66249 L 131.73451 93.5958 L 130.77498 91.67673 L 129.91755 144.10471 C 129.91755 144.10471 129.74804 154.87092 129.66329 155.3836 C 129.57853 155.89628 128.22248 172.8146 128.13773 172.8146 C 128.05297 172.8146 119.20578 187.26266 119.20578 187.26266 Z" fill="red"/>
        <path d="M 119.20578 187.26266 L 125.76463 175.89067 C 125.76463 175.89067 128.5615 144.61739 128.5615 144.10471 C 128.5615 143.59204 131.73451 81.12188 131.73451 81.12188 L 132.88391 151.79486 C 132.88391 151.79486 134.83324 167.68784 135.00274 179.4794 C 135.17225 191.27097 137.96911 205.11324 137.96911 205.11324 C 137.96911 205.11324 139.91844 189.73294 139.91844 187.68223 C 139.91844 185.63153 139.74893 170.7639 139.91844 164.61178 C 140.08794 158.45966 141.18974 144.10471 141.52875 143.59204 C 141.86776 143.07936 143.16415 105.55704 143.2489 106.06972 C 143.33366 106.58239 145.34265 136.92724 145.4274 142.56668 C 145.51215 148.20613 147.46148 185.11885 147.46148 186.1442 C 147.46148 187.16956 146.5292 219.98086 148.73278 203.06253 C 150.93637 186.1442 151.19063 179.99208 151.19063 179.99208 C 151.19063 179.99208 150.17359 152.30754 150.3431 138.97795 C 150.5126 125.64835 155.63807 131.65724 155.72282 131.65724 C 155.80757 131.65724 158.19682 132.55095 158.28157 133.57631 C 158.36633 134.60166 159.75071 147.69345 159.75071 154.35825 C 159.75071 161.02304 161.022 187.16956 161.10676 195.37238 C 161.19152 203.5752 162.1238 203.5752 162.46282 203.5752 C 162.80183 203.5752 164.32739 184.0935 164.41214 184.0935 C 164.4969 184.0935 165.59869 176.40334 165.68344 176.40334 C 165.7682 176.40334 168.56505 173.83996 168.56505 173.83996 L 169.66685 175.89067 L 168.81931 177.4287 L 166.86999 177.4287 C 166.86999 177.4287 165.7682 183.58082 165.68344 183.58082 C 165.59869 183.58082 164.75115 193.83435 164.75115 193.83435 L 163.73411 205.11324 L 161.78479 209.72733 C 161.78479 209.72733 160.08972 204.08789 160.08972 203.5752 C 160.08972 203.06253 160.00497 183.58082 160.00497 183.58082 L 158.90318 160.51037 C 158.90318 160.51037 158.3099 147.18077 158.22515 146.15542 C 158.1404 145.13007 157.32204 131.21039 157.32204 130.69771 C 157.32204 130.18503 155.80757 137.60727 155.72282 137.0946 C 155.63807 136.58192 153.80376 127.17943 153.80376 127.17943 L 152.54668 127.69906 L 151.52964 138.97795 L 151.52964 149.74416 C 151.52964 149.74416 152.12291 164.0991 152.20767 164.0991 C 152.29242 164.0991 152.29242 184.0935 152.29242 184.0935 C 152.29242 184.0935 152.12291 191.27097 151.9534 191.78365 C 151.7839 192.29632 150.3431 204.60056 150.3431 205.11324 C 150.3431 205.62592 148.73278 214.8541 148.64803 214.8541 C 148.56327 214.8541 147.63099 214.8541 147.63099 214.8541 L 146.19018 212.29071 L 145.85117 192.29632 C 145.85117 192.29632 145.68166 182.55546 145.68166 182.04279 C 145.68166 181.53011 144.74937 163.58643 144.74937 163.58643 L 143.2489 115.66504 L 143.2489 112.14675 C 143.2489 112.14675 141.78301 165.12446 141.69826 165.12446 C 141.6135 165.12446 141.27449 174.86531 141.27449 175.378 C 141.27449 175.89067 141.27449 192.809 141.27449 192.809 L 140.51171 203.06253 L 138.81664 214.8541 L 137.20633 217.93016 C 137.20633 217.93016 135.93503 205.11324 135.76552 205.11324 C 135.59602 205.11324 133.8162 191.27097 133.8162 191.27097 L 132.79916 181.01743 L 132.29064 166.66249 L 131.73451 93.5958 L 130.77498 91.67673 L 129.91755 144.10471 C 129.91755 144.10471 129.74804 154.87092 129.66329 155.3836 C 129.57853 155.89628 128.22248 172.8146 128.13773 172.8146 C 128.05297 172.8146 119.20578 187.26266 119.20578 187.26266 Z" stroke="#b1001c" stroke-linecap="round" stroke-linejoin="round" stroke-width="5"/>
      </g>
      <g id="Graphic_5">
        <path d="M 169.36648 174.21935 L 179.98025 173.12623 C 179.98025 173.12623 182.7771 141.85295 182.7771 141.34027 C 182.7771 140.8276 184.82863 131.65724 184.82863 131.65724 L 187.09952 149.03042 C 187.09952 149.03042 189.04885 164.9234 189.21836 176.71496 C 189.38786 188.50653 192.18472 202.3488 192.18472 202.3488 C 192.18472 202.3488 194.13405 186.9685 194.13405 184.9178 C 194.13405 182.86708 193.96454 167.99946 194.13405 161.84734 C 194.30356 155.69522 195.40535 141.34027 195.74436 140.8276 C 196.08338 140.31492 198.79548 135.70083 198.88023 136.2135 C 198.96499 136.72618 199.55826 134.1628 199.64301 139.80224 C 199.72777 145.44169 201.6771 182.3544 201.6771 183.37976 C 201.6771 184.40511 200.7448 217.21642 202.9484 200.2981 C 205.15198 183.37976 205.40624 177.22764 205.40624 177.22764 C 205.40624 177.22764 205.12915 160.97904 205.29866 147.64945 C 205.46816 134.31985 211.61079 139.65335 211.69554 139.65335 C 211.7803 139.65335 212.57032 143.10581 212.65507 144.13116 C 212.73982 145.15652 213.96632 144.92901 213.96632 151.5938 C 213.96632 158.2586 215.23762 184.40511 215.32238 192.60794 C 215.40713 200.81077 216.33942 200.81077 216.67843 200.81077 C 217.01744 200.81077 218.543 181.32905 218.62775 181.32905 C 218.7125 181.32905 219.8143 173.6389 219.89905 173.6389 C 219.9838 173.6389 222.78067 171.07552 222.78067 171.07552 L 223.88246 173.12623 L 223.03493 174.66426 L 221.0856 174.66426 C 221.0856 174.66426 219.9838 180.81638 219.89905 180.81638 C 219.8143 180.81638 218.96677 191.06991 218.96677 191.06991 L 217.94973 202.3488 L 216.0004 206.9629 C 216.0004 206.9629 214.30534 201.32345 214.30534 200.81077 C 214.30534 200.2981 214.22058 180.81638 214.22058 180.81638 L 213.1188 157.74593 C 213.1188 157.74593 212.52552 144.41633 212.44076 143.39098 C 212.356 142.36563 212.65507 151.68041 212.65507 151.16773 C 212.65507 150.65506 213.3795 163.1948 213.29476 162.68212 C 213.21 162.16944 208.81694 143.17163 208.81694 143.17163 L 209.77647 138.69381 L 207.21772 147.64945 L 205.74525 146.97972 C 205.74525 146.97972 206.33853 161.33466 206.42328 161.33466 C 206.50803 161.33466 206.50803 181.32905 206.50803 181.32905 C 206.50803 181.32905 206.33853 188.50653 206.16902 189.0192 C 205.9995 189.53188 204.5587 201.83612 204.5587 202.3488 C 204.5587 202.86148 202.9484 212.08966 202.86364 212.08966 C 202.77889 212.08966 201.8466 212.08966 201.8466 212.08966 L 200.4058 209.52627 L 200.06678 189.53188 C 200.06678 189.53188 199.89727 179.79102 199.89727 179.27835 C 199.89727 178.76567 198.96499 160.82199 198.96499 160.82199 L 197.8632 142.36563 L 196.9309 148.00507 C 196.9309 148.00507 195.99862 162.36002 195.91387 162.36002 C 195.82912 162.36002 195.4901 172.10087 195.4901 172.61355 C 195.4901 173.12623 195.4901 190.04456 195.4901 190.04456 L 194.72732 200.2981 L 193.03226 212.08966 L 191.42194 215.16572 C 191.42194 215.16572 190.15064 202.3488 189.98114 202.3488 C 189.81163 202.3488 188.0318 188.50653 188.0318 188.50653 L 187.01477 178.253 L 186.50625 163.89805 L 185.3197 150.56845 L 185.3197 136.72618 L 184.13316 141.34027 C 184.13316 141.34027 183.96365 152.10648 183.8789 152.61916 C 183.79415 153.13184 182.4381 170.05017 182.35334 170.05017 C 182.26859 170.05017 169.36648 174.21935 169.36648 174.21935 Z" fill="red"/>
        <path d="M 169.36648 174.21935 L 179.98025 173.12623 C 179.98025 173.12623 182.7771 141.85295 182.7771 141.34027 C 182.7771 140.8276 184.82863 131.65724 184.82863 131.65724 L 187.09952 149.03042 C 187.09952 149.03042 189.04885 164.9234 189.21836 176.71496 C 189.38786 188.50653 192.18472 202.3488 192.18472 202.3488 C 192.18472 202.3488 194.13405 186.9685 194.13405 184.9178 C 194.13405 182.86708 193.96454 167.99946 194.13405 161.84734 C 194.30356 155.69522 195.40535 141.34027 195.74436 140.8276 C 196.08338 140.31492 198.79548 135.70083 198.88023 136.2135 C 198.96499 136.72618 199.55826 134.1628 199.64301 139.80224 C 199.72777 145.44169 201.6771 182.3544 201.6771 183.37976 C 201.6771 184.40511 200.7448 217.21642 202.9484 200.2981 C 205.15198 183.37976 205.40624 177.22764 205.40624 177.22764 C 205.40624 177.22764 205.12915 160.97904 205.29866 147.64945 C 205.46816 134.31985 211.61079 139.65335 211.69554 139.65335 C 211.7803 139.65335 212.57032 143.10581 212.65507 144.13116 C 212.73982 145.15652 213.96632 144.92901 213.96632 151.5938 C 213.96632 158.2586 215.23762 184.40511 215.32238 192.60794 C 215.40713 200.81077 216.33942 200.81077 216.67843 200.81077 C 217.01744 200.81077 218.543 181.32905 218.62775 181.32905 C 218.7125 181.32905 219.8143 173.6389 219.89905 173.6389 C 219.9838 173.6389 222.78067 171.07552 222.78067 171.07552 L 223.88246 173.12623 L 223.03493 174.66426 L 221.0856 174.66426 C 221.0856 174.66426 219.9838 180.81638 219.89905 180.81638 C 219.8143 180.81638 218.96677 191.06991 218.96677 191.06991 L 217.94973 202.3488 L 216.0004 206.9629 C 216.0004 206.9629 214.30534 201.32345 214.30534 200.81077 C 214.30534 200.2981 214.22058 180.81638 214.22058 180.81638 L 213.1188 157.74593 C 213.1188 157.74593 212.52552 144.41633 212.44076 143.39098 C 212.356 142.36563 212.65507 151.68041 212.65507 151.16773 C 212.65507 150.65506 213.3795 163.1948 213.29476 162.68212 C 213.21 162.16944 208.81694 143.17163 208.81694 143.17163 L 209.77647 138.69381 L 207.21772 147.64945 L 205.74525 146.97972 C 205.74525 146.97972 206.33853 161.33466 206.42328 161.33466 C 206.50803 161.33466 206.50803 181.32905 206.50803 181.32905 C 206.50803 181.32905 206.33853 188.50653 206.16902 189.0192 C 205.9995 189.53188 204.5587 201.83612 204.5587 202.3488 C 204.5587 202.86148 202.9484 212.08966 202.86364 212.08966 C 202.77889 212.08966 201.8466 212.08966 201.8466 212.08966 L 200.4058 209.52627 L 200.06678 189.53188 C 200.06678 189.53188 199.89727 179.79102 199.89727 179.27835 C 199.89727 178.76567 198.96499 160.82199 198.96499 160.82199 L 197.8632 142.36563 L 196.9309 148.00507 C 196.9309 148.00507 195.99862 162.36002 195.91387 162.36002 C 195.82912 162.36002 195.4901 172.10087 195.4901 172.61355 C 195.4901 173.12623 195.4901 190.04456 195.4901 190.04456 L 194.72732 200.2981 L 193.03226 212.08966 L 191.42194 215.16572 C 191.42194 215.16572 190.15064 202.3488 189.98114 202.3488 C 189.81163 202.3488 188.0318 188.50653 188.0318 188.50653 L 187.01477 178.253 L 186.50625 163.89805 L 185.3197 150.56845 L 185.3197 136.72618 L 184.13316 141.34027 C 184.13316 141.34027 183.96365 152.10648 183.8789 152.61916 C 183.79415 153.13184 182.4381 170.05017 182.35334 170.05017 C 182.26859 170.05017 169.36648 174.21935 169.36648 174.21935 Z" stroke="#b1001c" stroke-linecap="round" stroke-linejoin="round" stroke-width="5"/>
      </g>
      <g id="Graphic_9">
        <path d="M 69.04507 220.96045 L 75.303565 183.98356 C 75.303565 183.98356 77.36102 176.62825 77.36102 176.11557 C 77.36102 175.6029 81.83884 161.0829 81.83884 161.0829 L 82.42284 159.88776 C 82.42284 159.88776 84.37217 175.78074 84.54167 187.5723 C 84.71118 199.36386 87.50804 213.20614 87.50804 213.20614 C 87.50804 213.20614 89.45737 197.82583 89.45737 195.77513 C 89.45737 193.72442 89.28786 178.8568 89.45737 172.70468 C 89.62687 166.55256 90.72867 152.1976 91.06768 151.68493 C 91.40669 151.17226 94.1188 146.55817 94.20355 147.07084 C 94.2883 147.58352 94.88158 145.02014 94.96633 150.65958 C 95.05108 156.29902 97.00041 193.21174 97.00041 194.2371 C 97.00041 195.26245 96.06812 228.07376 98.27171 211.15543 C 100.4753 194.2371 100.72956 188.08498 100.72956 188.08498 C 100.72956 188.08498 99.71252 160.40044 99.88202 147.07084 C 100.05153 133.74125 102.2241 102.55143 102.30886 102.55143 C 102.39361 102.55143 105.74239 88.09263 105.82714 89.11798 C 105.9119 90.14333 109.28964 155.78635 109.28964 162.45114 C 109.28964 169.11594 110.56094 195.26245 110.64569 203.46528 C 110.73045 211.6681 111.66273 211.6681 112.00175 211.6681 C 112.34076 211.6681 113.86632 192.1864 113.95107 192.1864 C 114.03583 192.1864 115.13762 184.49624 115.22237 184.49624 C 115.30712 184.49624 115.74231 62.251075 115.74231 62.251075 C 115.74231 62.251075 123.23235 268.74027 119.20578 183.98356 C 115.1792 99.22685 115.74231 68.64796 115.74231 68.64796 L 116.40892 185.5216 C 116.40892 185.5216 115.30712 191.67371 115.22237 191.67371 C 115.13762 191.67371 114.29009 201.92725 114.29009 201.92725 L 113.27305 213.20614 L 111.32372 217.82023 C 111.32372 217.82023 109.62865 212.18078 109.62865 211.6681 C 109.62865 211.15543 109.5439 191.67371 109.5439 191.67371 L 108.44211 168.60326 C 108.44211 168.60326 107.84883 155.27367 107.76408 154.24832 C 107.67933 153.22296 106.8318 133.22857 106.8318 132.7159 C 106.8318 132.20322 103.35314 106.58239 103.26839 106.06972 C 103.18364 105.55704 102.30886 109.588 102.30886 109.588 L 102.08561 135.79195 L 101.06857 147.07084 L 101.06857 157.83705 C 101.06857 157.83705 101.66184 172.192 101.7466 172.192 C 101.83135 172.192 101.83135 192.1864 101.83135 192.1864 C 101.83135 192.1864 101.66184 199.36386 101.49234 199.87654 C 101.32283 200.38922 99.88202 212.69346 99.88202 213.20614 C 99.88202 213.7188 98.27171 222.947 98.18696 222.947 C 98.1022 222.947 97.16992 222.947 97.16992 222.947 L 95.72911 220.3836 L 95.3901 200.38922 C 95.3901 200.38922 95.22059 190.64836 95.22059 190.13568 C 95.22059 189.623 94.2883 171.67932 94.2883 171.67932 L 93.18651 153.22296 L 92.25423 158.8624 C 92.25423 158.8624 91.32194 173.21735 91.23719 173.21735 C 91.15243 173.21735 90.81342 182.9582 90.81342 183.47089 C 90.81342 183.98356 90.81342 200.9019 90.81342 200.9019 L 90.05064 211.15543 L 88.35557 222.947 L 86.74526 226.02305 C 86.74526 226.02305 85.47396 213.20614 85.30445 213.20614 C 85.13495 213.20614 83.35513 199.36386 83.35513 199.36386 L 82.33809 189.11033 L 81.82957 174.75538 L 80.64302 161.42579 L 82.79837 163.64165 L 80.23961 172.59729 C 80.23961 172.59729 79.28697 162.96382 79.20222 163.4765 C 79.11746 163.98917 77.76141 180.9075 77.67666 180.9075 C 77.5919 180.9075 69.04507 220.96045 69.04507 220.96045 Z" fill="red"/>
        <path d="M 69.04507 220.96045 L 75.303565 183.98356 C 75.303565 183.98356 77.36102 176.62825 77.36102 176.11557 C 77.36102 175.6029 81.83884 161.0829 81.83884 161.0829 L 82.42284 159.88776 C 82.42284 159.88776 84.37217 175.78074 84.54167 187.5723 C 84.71118 199.36386 87.50804 213.20614 87.50804 213.20614 C 87.50804 213.20614 89.45737 197.82583 89.45737 195.77513 C 89.45737 193.72442 89.28786 178.8568 89.45737 172.70468 C 89.62687 166.55256 90.72867 152.1976 91.06768 151.68493 C 91.40669 151.17226 94.1188 146.55817 94.20355 147.07084 C 94.2883 147.58352 94.88158 145.02014 94.96633 150.65958 C 95.05108 156.29902 97.00041 193.21174 97.00041 194.2371 C 97.00041 195.26245 96.06812 228.07376 98.27171 211.15543 C 100.4753 194.2371 100.72956 188.08498 100.72956 188.08498 C 100.72956 188.08498 99.71252 160.40044 99.88202 147.07084 C 100.05153 133.74125 102.2241 102.55143 102.30886 102.55143 C 102.39361 102.55143 105.74239 88.09263 105.82714 89.11798 C 105.9119 90.14333 109.28964 155.78635 109.28964 162.45114 C 109.28964 169.11594 110.56094 195.26245 110.64569 203.46528 C 110.73045 211.6681 111.66273 211.6681 112.00175 211.6681 C 112.34076 211.6681 113.86632 192.1864 113.95107 192.1864 C 114.03583 192.1864 115.13762 184.49624 115.22237 184.49624 C 115.30712 184.49624 115.74231 62.251075 115.74231 62.251075 C 115.74231 62.251075 123.23235 268.74027 119.20578 183.98356 C 115.1792 99.22685 115.74231 68.64796 115.74231 68.64796 L 116.40892 185.5216 C 116.40892 185.5216 115.30712 191.67371 115.22237 191.67371 C 115.13762 191.67371 114.29009 201.92725 114.29009 201.92725 L 113.27305 213.20614 L 111.32372 217.82023 C 111.32372 217.82023 109.62865 212.18078 109.62865 211.6681 C 109.62865 211.15543 109.5439 191.67371 109.5439 191.67371 L 108.44211 168.60326 C 108.44211 168.60326 107.84883 155.27367 107.76408 154.24832 C 107.67933 153.22296 106.8318 133.22857 106.8318 132.7159 C 106.8318 132.20322 103.35314 106.58239 103.26839 106.06972 C 103.18364 105.55704 102.30886 109.588 102.30886 109.588 L 102.08561 135.79195 L 101.06857 147.07084 L 101.06857 157.83705 C 101.06857 157.83705 101.66184 172.192 101.7466 172.192 C 101.83135 172.192 101.83135 192.1864 101.83135 192.1864 C 101.83135 192.1864 101.66184 199.36386 101.49234 199.87654 C 101.32283 200.38922 99.88202 212.69346 99.88202 213.20614 C 99.88202 213.7188 98.27171 222.947 98.18696 222.947 C 98.1022 222.947 97.16992 222.947 97.16992 222.947 L 95.72911 220.3836 L 95.3901 200.38922 C 95.3901 200.38922 95.22059 190.64836 95.22059 190.13568 C 95.22059 189.623 94.2883 171.67932 94.2883 171.67932 L 93.18651 153.22296 L 92.25423 158.8624 C 92.25423 158.8624 91.32194 173.21735 91.23719 173.21735 C 91.15243 173.21735 90.81342 182.9582 90.81342 183.47089 C 90.81342 183.98356 90.81342 200.9019 90.81342 200.9019 L 90.05064 211.15543 L 88.35557 222.947 L 86.74526 226.02305 C 86.74526 226.02305 85.47396 213.20614 85.30445 213.20614 C 85.13495 213.20614 83.35513 199.36386 83.35513 199.36386 L 82.33809 189.11033 L 81.82957 174.75538 L 80.64302 161.42579 L 82.79837 163.64165 L 80.23961 172.59729 C 80.23961 172.59729 79.28697 162.96382 79.20222 163.4765 C 79.11746 163.98917 77.76141 180.9075 77.67666 180.9075 C 77.5919 180.9075 69.04507 220.96045 69.04507 220.96045 Z" stroke="#b1001c" stroke-linecap="round" stroke-linejoin="round" stroke-width="5"/>
      </g>
    </g>
  </g>
</svg>
