<?xml version="1.0" encoding="UTF-8" standalone="no"?>
<!DOCTYPE svg PUBLIC "-//W3C//DTD SVG 1.1//EN" "http://www.w3.org/Graphics/SVG/1.1/DTD/svg11.dtd">
<svg xmlns="http://www.w3.org/2000/svg" version="1.1" xmlns:dc="http://purl.org/dc/elements/1.1/" xmlns:xl="http://www.w3.org/1999/xlink" viewBox="0 0 850.394 850.394" width="850.394" height="850.394">
  <defs/>
  <metadata> Produced by OmniGraffle 7.9.4 
    <dc:date>2019-09-01 13:49:18 +0000</dc:date>
  </metadata>
  <g id="accelerometer" stroke-opacity="1" fill-opacity="1" fill="none" stroke-dasharray="none" stroke="none">
    <title>accelerometer</title>
    <g id="accelerometer: Layer 1">
      <title>Layer 1</title>
      <g id="Graphic_4">
        <path d="M 478.8965 362.32903 L 494 391 L 609.6945 298.19463 L 629.21565 319.64627 L 637.302 245.6254 L 562.8487 246.71604 L 582.36985 268.1677 Z" fill="yellow"/>
        <path d="M 478.8965 362.32903 L 494 391 L 609.6945 298.19463 L 629.21565 319.64627 L 637.302 245.6254 L 562.8487 246.71604 L 582.36985 268.1677 Z" stroke="black" stroke-linecap="round" stroke-linejoin="round" stroke-width="4"/>
      </g>
      <g id="Graphic_5">
        <path d="M 515 423 L 508.77055 456.4945 L 606.8927 545.7862 L 580.5224 574.76436 L 661.0285 563.3623 L 664.8104 482.1408 L 638.4401 511.1189 Z" fill="#c0c0ff"/>
        <path d="M 515 423 L 508.77055 456.4945 L 606.8927 545.7862 L 580.5224 574.76436 L 661.0285 563.3623 L 664.8104 482.1408 L 638.4401 511.1189 Z" stroke="black" stroke-linecap="round" stroke-linejoin="round" stroke-width="4"/>
      </g>
      <g id="Line_7">
        <path d="M 425.7612 378 L 380.67914 486.0422 C 377.7165 493.14235 375.75543 500.61994 374.85223 508.2602 L 361.0608 624.92415 C 358.17742 649.3152 344.6395 671.1767 324.08912 684.62726 L 240.62504 739.256 C 236.29523 742.0899 232.23994 745.3226 228.51214 748.9117 L 167 808.1357 L 167 808.1357" stroke="black" stroke-linecap="round" stroke-linejoin="round" stroke-width="4"/>
      </g>
      <g id="Line_6">
        <path d="M 429.67226 404.7642 L 398.41675 490.85245 C 396.2371 496.8559 394.7577 503.0909 394.0079 509.43366 L 379.98357 628.06776 C 377.1002 652.4588 363.56225 674.3203 343.01188 687.7709 L 259.5478 742.3996 C 255.218 745.2335 251.1627 748.4662 247.4349 752.0553 L 185.92276 811.2793 L 185.92276 811.2793" stroke="#b1001c" stroke-linecap="round" stroke-linejoin="round" stroke-width="4"/>
      </g>
      <g id="Line_8">
        <path d="M 443.9454 428.3413 L 412.6899 514.4295 C 410.51025 520.433 409.03084 526.668 408.28103 533.0107 L 394.2567 651.6448 C 391.3733 676.03585 377.8354 697.89735 357.285 711.3479 L 273.82093 765.9767 C 269.49113 768.8106 265.43584 772.0432 261.70803 775.6324 L 200.1959 834.8564 L 200.1959 834.8564" stroke="#00fa00" stroke-linecap="round" stroke-linejoin="round" stroke-width="4"/>
      </g>
      <g id="Line_9">
        <path d="M 462.86816 431.4849 L 431.61265 517.5731 C 429.433 523.5766 427.9536 529.8116 427.2038 536.15434 L 413.17946 654.7884 C 410.29608 679.17945 396.75814 701.04096 376.20777 714.4915 L 292.7437 769.1203 C 288.4139 771.9542 284.3586 775.18685 280.6308 778.776 L 219.11865 838 L 219.11865 838" stroke="#0432ff" stroke-linecap="round" stroke-linejoin="round" stroke-width="4"/>
      </g>
      <g id="Graphic_2">
        <path d="M 387.10035 351.17448 L 446.81105 310.83744 L 544.3709 414.5046 L 491.71854 489.3422 Z" fill="lime"/>
        <path d="M 387.10035 351.17448 L 446.81105 310.83744 L 544.3709 414.5046 L 491.71854 489.3422 Z" stroke="black" stroke-linecap="round" stroke-linejoin="round" stroke-width="5"/>
      </g>
      <g id="Line_12">
        <line x1="381.96705" y1="434.5132" x2="148.50077" y2="664.15" stroke="#ffbc01" stroke-linecap="round" stroke-linejoin="round" stroke-dasharray="28.0,28.0" stroke-width="7"/>
      </g>
      <g id="Line_11">
        <line x1="364.66056" y1="344.76247" x2="28.0103" y2="379.57444" stroke="#ffbc01" stroke-linecap="round" stroke-linejoin="round" stroke-dasharray="28.0,28.0" stroke-width="7"/>
      </g>
      <g id="Line_10">
        <line x1="351.34082" y1="399.00224" x2="21" y2="549.66754" stroke="#ffbc01" stroke-linecap="round" stroke-linejoin="round" stroke-dasharray="28.0,28.0" stroke-width="7"/>
      </g>
      <g id="Graphic_13">
        <path d="M 437.1258 391.6664 L 456.80145 369.581 L 481.0928 396.55205 L 461.7732 422.1461 Z" fill="black"/>
        <path d="M 437.1258 391.6664 L 456.80145 369.581 L 481.0928 396.55205 L 461.7732 422.1461 Z" stroke="gray" stroke-linecap="round" stroke-linejoin="round" stroke-width="5"/>
      </g>
      <g id="Graphic_14">
        <path d="M 488.43673 435.7109 L 491.9957 421.9126 L 505.52266 425.40154 L 501.9637 439.1999 Z" fill="black"/>
        <path d="M 488.43673 435.7109 L 491.9957 421.9126 L 505.52266 425.40154 L 501.9637 439.1999 Z" stroke="gray" stroke-linecap="round" stroke-linejoin="round" stroke-width="5"/>
      </g>
      <g id="Graphic_17">
        <path d="M 475.6626 138.22164 C 475.6626 138.22164 474.47247 116.82488 474.8692 116.40534 C 475.2659 115.98579 522.0777 100.8822 522.0777 100.8822 C 522.0777 100.8822 536.35923 133.18711 536.35923 133.60665 C 536.35923 134.0262 529.21845 157.10114 528.82174 157.10114 C 528.42503 157.10114 512.1599 161.29658 512.1599 161.29658 L 512.453 173.0751 C 512.50883 175.3184 510.73554 177.1822 508.49225 177.23801 C 508.45856 177.23885 508.4249 177.23927 508.3912 177.23927 L 508.3912 177.23927 C 506.05416 177.23927 504.1242 175.41365 503.9944 173.08024 L 503.46256 163.51884 C 503.1958 158.7229 505.3429 154.11082 509.1846 151.22752 L 509.89706 150.6928 C 513.5149 147.97751 516.89593 144.96027 520.0038 141.67352 L 520.49083 141.15845 C 523.73 137.73284 525.1293 132.9613 524.25324 128.32885 L 523.2678 123.11805 C 521.98886 116.35525 515.46973 111.9097 508.70693 113.18865 C 508.5948 113.20986 508.4829 113.23261 508.37136 113.2569 L 499.9806 115.08384 C 495.95986 115.95929 492.1036 117.46741 488.5557 119.55192 L 487.2983 120.29068 C 484.9443 121.67373 483.95987 124.57335 484.9853 127.10372 L 484.9853 127.10372 C 486.0644 129.76653 488.6505 131.50893 491.5237 131.50893 L 494.69177 131.50893 C 496.46957 131.50893 497.91076 132.95013 497.91076 134.72793 C 497.91076 135.29152 497.7628 135.84523 497.48165 136.3337 L 497.48165 136.3337 C 495.808 139.24157 492.5188 140.82133 489.2029 140.30992 Z" fill="red"/>
        <path d="M 475.6626 138.22164 C 475.6626 138.22164 474.47247 116.82488 474.8692 116.40534 C 475.2659 115.98579 522.0777 100.8822 522.0777 100.8822 C 522.0777 100.8822 536.35923 133.18711 536.35923 133.60665 C 536.35923 134.0262 529.21845 157.10114 528.82174 157.10114 C 528.42503 157.10114 512.1599 161.29658 512.1599 161.29658 L 512.453 173.0751 C 512.50883 175.3184 510.73554 177.1822 508.49225 177.23801 C 508.45856 177.23885 508.4249 177.23927 508.3912 177.23927 L 508.3912 177.23927 C 506.05416 177.23927 504.1242 175.41365 503.9944 173.08024 L 503.46256 163.51884 C 503.1958 158.7229 505.3429 154.11082 509.1846 151.22752 L 509.89706 150.6928 C 513.5149 147.97751 516.89593 144.96027 520.0038 141.67352 L 520.49083 141.15845 C 523.73 137.73284 525.1293 132.9613 524.25324 128.32885 L 523.2678 123.11805 C 521.98886 116.35525 515.46973 111.9097 508.70693 113.18865 C 508.5948 113.20986 508.4829 113.23261 508.37136 113.2569 L 499.9806 115.08384 C 495.95986 115.95929 492.1036 117.46741 488.5557 119.55192 L 487.2983 120.29068 C 484.9443 121.67373 483.95987 124.57335 484.9853 127.10372 L 484.9853 127.10372 C 486.0644 129.76653 488.6505 131.50893 491.5237 131.50893 L 494.69177 131.50893 C 496.46957 131.50893 497.91076 132.95013 497.91076 134.72793 C 497.91076 135.29152 497.7628 135.84523 497.48165 136.3337 L 497.48165 136.3337 C 495.808 139.24157 492.5188 140.82133 489.2029 140.30992 Z" stroke="black" stroke-linecap="round" stroke-linejoin="round" stroke-width="5"/>
      </g>
      <g id="Graphic_16">
        <path d="M 500.5618 203.98183 L 500.4764 203.5604 C 499.88647 200.64887 501.0051 197.6554 503.35986 195.84428 L 503.35986 195.84428 C 505.6323 194.09647 508.79254 194.08274 511.0801 195.81074 L 514.21527 198.17906 C 516.0269 199.54757 517.36714 201.44653 518.04966 203.61194 L 518.04966 203.61194 C 518.53366 205.14753 517.6812 206.78473 516.1456 207.26874 C 515.9795 207.3211 515.80903 207.35845 515.63626 207.38038 L 506.8527 208.49508 C 503.89743 208.87012 501.1534 206.90149 500.5618 203.98183 Z" fill="red"/>
        <path d="M 500.5618 203.98183 L 500.4764 203.5604 C 499.88647 200.64887 501.0051 197.6554 503.35986 195.84428 L 503.35986 195.84428 C 505.6323 194.09647 508.79254 194.08274 511.0801 195.81074 L 514.21527 198.17906 C 516.0269 199.54757 517.36714 201.44653 518.04966 203.61194 L 518.04966 203.61194 C 518.53366 205.14753 517.6812 206.78473 516.1456 207.26874 C 515.9795 207.3211 515.80903 207.35845 515.63626 207.38038 L 506.8527 208.49508 C 503.89743 208.87012 501.1534 206.90149 500.5618 203.98183 Z" stroke="black" stroke-linecap="round" stroke-linejoin="round" stroke-width="5"/>
      </g>
      <g id="Graphic_15">
        <path d="M 459.652 161.97783 L 474.86785 161.97783 C 476.14843 161.97783 477.18655 163.01595 477.18655 164.29653 L 477.18655 164.29653 C 477.18655 165.43545 476.2633 166.35873 475.12436 166.35873 C 475.04393 166.35873 474.96357 166.35402 474.8837 166.34464 L 471.6196 165.96108 C 470.0702 165.77902 468.5115 165.68776 466.95145 165.68776 L 461.406 165.68776 C 460.15317 165.68776 459.01264 164.9654 458.47716 163.8328 L 458.47716 163.8328 C 458.1704 163.18395 458.4477 162.40928 459.09654 162.10251 C 459.2702 162.0204 459.4599 161.97783 459.652 161.97783 Z" fill="red"/>
        <path d="M 459.652 161.97783 L 474.86785 161.97783 C 476.14843 161.97783 477.18655 163.01595 477.18655 164.29653 L 477.18655 164.29653 C 477.18655 165.43545 476.2633 166.35873 475.12436 166.35873 C 475.04393 166.35873 474.96357 166.35402 474.8837 166.34464 L 471.6196 165.96108 C 470.0702 165.77902 468.5115 165.68776 466.95145 165.68776 L 461.406 165.68776 C 460.15317 165.68776 459.01264 164.9654 458.47716 163.8328 L 458.47716 163.8328 C 458.1704 163.18395 458.4477 162.40928 459.09654 162.10251 C 459.2702 162.0204 459.4599 161.97783 459.652 161.97783 Z" stroke="black" stroke-linecap="round" stroke-linejoin="round" stroke-width="4"/>
      </g>
      <g id="Graphic_18">
        <path d="M 460.2356 171.36655 L 475.45144 171.36655 C 476.73203 171.36655 477.77015 172.40467 477.77015 173.68526 L 477.77015 173.68526 C 477.77015 174.82418 476.8469 175.74745 475.70795 175.74745 C 475.6275 175.74745 475.54717 175.74275 475.4673 175.73336 L 472.2032 175.3498 C 470.6538 175.16775 469.0951 175.07648 467.53505 175.07648 L 461.9896 175.07648 C 460.73677 175.07648 459.59624 174.35413 459.06075 173.22151 L 459.06075 173.22151 C 458.754 172.57267 459.0313 171.798 459.68014 171.49124 C 459.8538 171.40913 460.0435 171.36655 460.2356 171.36655 Z" fill="red"/>
        <path d="M 460.2356 171.36655 L 475.45144 171.36655 C 476.73203 171.36655 477.77015 172.40467 477.77015 173.68526 L 477.77015 173.68526 C 477.77015 174.82418 476.8469 175.74745 475.70795 175.74745 C 475.6275 175.74745 475.54717 175.74275 475.4673 175.73336 L 472.2032 175.3498 C 470.6538 175.16775 469.0951 175.07648 467.53505 175.07648 L 461.9896 175.07648 C 460.73677 175.07648 459.59624 174.35413 459.06075 173.22151 L 459.06075 173.22151 C 458.754 172.57267 459.0313 171.798 459.68014 171.49124 C 459.8538 171.40913 460.0435 171.36655 460.2356 171.36655 Z" stroke="black" stroke-linecap="round" stroke-linejoin="round" stroke-width="4"/>
      </g>
      <g id="Graphic_3">
        <path d="M 421.3025 370.34146 L 431.966 365.34736 L 446.5996 202.6408 L 466.29886 202.31566 L 428.9579 127.36001 L 394.1109 203.50712 L 413.8102 203.18198 Z" fill="red"/>
        <path d="M 421.3025 370.34146 L 431.966 365.34736 L 446.5996 202.6408 L 466.29886 202.31566 L 428.9579 127.36001 L 394.1109 203.50712 L 413.8102 203.18198 Z" stroke="black" stroke-linecap="round" stroke-linejoin="round" stroke-width="4"/>
      </g>
      <g id="Graphic_19">
        <path d="M 676.33865 240.97393 C 676.33865 240.97393 675.1485 219.57717 675.5452 219.15763 C 675.9419 218.73808 722.7537 203.63449 722.7537 203.63449 C 722.7537 203.63449 737.0353 235.9394 737.0353 236.35895 C 737.0353 236.7785 729.8945 259.85343 729.4978 259.85343 C 729.1011 259.85343 712.836 264.04887 712.836 264.04887 L 713.1291 275.8274 C 713.1849 278.07068 711.4116 279.93448 709.1683 279.9903 C 709.1346 279.99114 709.1009 279.99156 709.0672 279.99156 L 709.0672 279.99156 C 706.7302 279.99156 704.8002 278.16594 704.6704 275.83253 L 704.1386 266.27113 C 703.87185 261.4752 706.0189 256.8631 709.86064 253.9798 L 710.5731 253.4451 C 714.19095 250.7298 717.572 247.71256 720.67985 244.4258 L 721.1669 243.91074 C 724.40605 240.48513 725.80535 235.7136 724.9293 231.08114 L 723.94385 225.87034 C 722.6649 219.10754 716.1458 214.662 709.383 215.94094 C 709.2708 215.96215 709.15895 215.9849 709.0474 216.0092 L 700.65665 217.83613 C 696.6359 218.71158 692.7796 220.2197 689.2317 222.3042 L 687.9743 223.04297 C 685.6203 224.42603 684.6359 227.32564 685.6613 229.856 L 685.6613 229.856 C 686.7404 232.51882 689.3266 234.26122 692.1997 234.26122 L 695.3678 234.26122 C 697.1456 234.26122 698.5868 235.70242 698.5868 237.48022 C 698.5868 238.0438 698.4388 238.59752 698.1577 239.08598 L 698.1577 239.08598 C 696.484 241.99386 693.19485 243.57362 689.8789 243.0622 Z" fill="yellow"/>
        <path d="M 676.33865 240.97393 C 676.33865 240.97393 675.1485 219.57717 675.5452 219.15763 C 675.9419 218.73808 722.7537 203.63449 722.7537 203.63449 C 722.7537 203.63449 737.0353 235.9394 737.0353 236.35895 C 737.0353 236.7785 729.8945 259.85343 729.4978 259.85343 C 729.1011 259.85343 712.836 264.04887 712.836 264.04887 L 713.1291 275.8274 C 713.1849 278.07068 711.4116 279.93448 709.1683 279.9903 C 709.1346 279.99114 709.1009 279.99156 709.0672 279.99156 L 709.0672 279.99156 C 706.7302 279.99156 704.8002 278.16594 704.6704 275.83253 L 704.1386 266.27113 C 703.87185 261.4752 706.0189 256.8631 709.86064 253.9798 L 710.5731 253.4451 C 714.19095 250.7298 717.572 247.71256 720.67985 244.4258 L 721.1669 243.91074 C 724.40605 240.48513 725.80535 235.7136 724.9293 231.08114 L 723.94385 225.87034 C 722.6649 219.10754 716.1458 214.662 709.383 215.94094 C 709.2708 215.96215 709.15895 215.9849 709.0474 216.0092 L 700.65665 217.83613 C 696.6359 218.71158 692.7796 220.2197 689.2317 222.3042 L 687.9743 223.04297 C 685.6203 224.42603 684.6359 227.32564 685.6613 229.856 L 685.6613 229.856 C 686.7404 232.51882 689.3266 234.26122 692.1997 234.26122 L 695.3678 234.26122 C 697.1456 234.26122 698.5868 235.70242 698.5868 237.48022 C 698.5868 238.0438 698.4388 238.59752 698.1577 239.08598 L 698.1577 239.08598 C 696.484 241.99386 693.19485 243.57362 689.8789 243.0622 Z" stroke="black" stroke-linecap="round" stroke-linejoin="round" stroke-width="5"/>
      </g>
      <g id="Graphic_20">
        <path d="M 701.23785 306.73412 L 701.1525 306.3127 C 700.5625 303.40116 701.68115 300.4077 704.0359 298.59657 L 704.0359 298.59657 C 706.30835 296.84876 709.4686 296.83503 711.7561 298.56303 L 714.8913 300.93135 C 716.70295 302.29986 718.0432 304.19882 718.7257 306.36423 L 718.7257 306.36423 C 719.2097 307.89982 718.3572 309.53702 716.82165 310.02103 C 716.6555 310.07338 716.4851 310.11075 716.3123 310.13267 L 707.5288 311.24737 C 704.5735 311.6224 701.8294 309.65378 701.23785 306.73412 Z" fill="yellow"/>
        <path d="M 701.23785 306.73412 L 701.1525 306.3127 C 700.5625 303.40116 701.68115 300.4077 704.0359 298.59657 L 704.0359 298.59657 C 706.30835 296.84876 709.4686 296.83503 711.7561 298.56303 L 714.8913 300.93135 C 716.70295 302.29986 718.0432 304.19882 718.7257 306.36423 L 718.7257 306.36423 C 719.2097 307.89982 718.3572 309.53702 716.82165 310.02103 C 716.6555 310.07338 716.4851 310.11075 716.3123 310.13267 L 707.5288 311.24737 C 704.5735 311.6224 701.8294 309.65378 701.23785 306.73412 Z" stroke="black" stroke-linecap="round" stroke-linejoin="round" stroke-width="5"/>
      </g>
      <g id="Graphic_21">
        <path d="M 660.328 264.73012 L 675.5439 264.73012 C 676.8245 264.73012 677.8626 265.76824 677.8626 267.04882 L 677.8626 267.04882 C 677.8626 268.18774 676.9393 269.11102 675.8004 269.11102 C 675.72 269.11102 675.6396 269.1063 675.5597 269.09693 L 672.29564 268.71338 C 670.74626 268.5313 669.18755 268.44005 667.6275 268.44005 L 662.08204 268.44005 C 660.8292 268.44005 659.6887 267.7177 659.1532 266.58508 L 659.1532 266.58508 C 658.84644 265.93624 659.12375 265.16157 659.7726 264.8548 C 659.94625 264.7727 660.13595 264.73012 660.328 264.73012 Z" fill="yellow"/>
        <path d="M 660.328 264.73012 L 675.5439 264.73012 C 676.8245 264.73012 677.8626 265.76824 677.8626 267.04882 L 677.8626 267.04882 C 677.8626 268.18774 676.9393 269.11102 675.8004 269.11102 C 675.72 269.11102 675.6396 269.1063 675.5597 269.09693 L 672.29564 268.71338 C 670.74626 268.5313 669.18755 268.44005 667.6275 268.44005 L 662.08204 268.44005 C 660.8292 268.44005 659.6887 267.7177 659.1532 266.58508 L 659.1532 266.58508 C 658.84644 265.93624 659.12375 265.16157 659.7726 264.8548 C 659.94625 264.7727 660.13595 264.73012 660.328 264.73012 Z" stroke="black" stroke-linecap="round" stroke-linejoin="round" stroke-width="4"/>
      </g>
      <g id="Graphic_22">
        <path d="M 660.9116 274.11884 L 676.1275 274.11884 C 677.4081 274.11884 678.4462 275.15696 678.4462 276.43755 L 678.4462 276.43755 C 678.4462 277.57647 677.5229 278.49974 676.384 278.49974 C 676.3036 278.49974 676.2232 278.49504 676.1433 278.48565 L 672.8792 278.1021 C 671.32985 277.92004 669.77114 277.82877 668.2111 277.82877 L 662.6656 277.82877 C 661.4128 277.82877 660.2723 277.10642 659.7368 275.9738 L 659.7368 275.9738 C 659.43 275.32496 659.70734 274.5503 660.3562 274.24353 C 660.52984 274.16142 660.71954 274.11884 660.9116 274.11884 Z" fill="yellow"/>
        <path d="M 660.9116 274.11884 L 676.1275 274.11884 C 677.4081 274.11884 678.4462 275.15696 678.4462 276.43755 L 678.4462 276.43755 C 678.4462 277.57647 677.5229 278.49974 676.384 278.49974 C 676.3036 278.49974 676.2232 278.49504 676.1433 278.48565 L 672.8792 278.1021 C 671.32985 277.92004 669.77114 277.82877 668.2111 277.82877 L 662.6656 277.82877 C 661.4128 277.82877 660.2723 277.10642 659.7368 275.9738 L 659.7368 275.9738 C 659.43 275.32496 659.70734 274.5503 660.3562 274.24353 C 660.52984 274.16142 660.71954 274.11884 660.9116 274.11884 Z" stroke="black" stroke-linecap="round" stroke-linejoin="round" stroke-width="4"/>
      </g>
      <g id="Graphic_23">
        <path d="M 707.1454 521.6631 C 707.1454 521.6631 705.9553 500.26635 706.352 499.8468 C 706.7487 499.42727 753.5605 484.32367 753.5605 484.32367 C 753.5605 484.32367 767.8421 516.6286 767.8421 517.0481 C 767.8421 517.4677 760.7013 540.5426 760.3046 540.5426 C 759.9079 540.5426 743.64275 544.73806 743.64275 544.73806 L 743.9358 556.5166 C 743.9917 558.75987 742.2184 560.62366 739.9751 560.6795 C 739.9414 560.6803 739.9077 560.68074 739.874 560.68074 L 739.874 560.68074 C 737.537 560.68074 735.607 558.8551 735.4772 556.5217 L 734.9454 546.9603 C 734.6786 542.1644 736.8257 537.5523 740.6674 534.669 L 741.3799 534.1343 C 744.9977 531.419 748.3788 528.40174 751.4866 525.115 L 751.9737 524.5999 C 755.2128 521.1743 756.6121 516.4028 755.7361 511.7703 L 754.7506 506.5595 C 753.4717 499.7967 746.9526 495.3512 740.1898 496.6301 C 740.0776 496.65133 739.9657 496.6741 739.8542 496.6984 L 731.4634 498.5253 C 727.4427 499.40076 723.5864 500.9089 720.0385 502.9934 L 718.7811 503.73215 C 716.4271 505.1152 715.4427 508.0148 716.4681 510.5452 L 716.4681 510.5452 C 717.5472 513.208 720.1333 514.9504 723.0065 514.9504 L 726.1746 514.9504 C 727.9524 514.9504 729.3936 516.3916 729.3936 518.1694 C 729.3936 518.733 729.2456 519.2867 728.9645 519.77517 L 728.9645 519.77517 C 727.2908 522.68304 724.0016 524.2628 720.6857 523.7514 Z" fill="#c0c0ff"/>
        <path d="M 707.1454 521.6631 C 707.1454 521.6631 705.9553 500.26635 706.352 499.8468 C 706.7487 499.42727 753.5605 484.32367 753.5605 484.32367 C 753.5605 484.32367 767.8421 516.6286 767.8421 517.0481 C 767.8421 517.4677 760.7013 540.5426 760.3046 540.5426 C 759.9079 540.5426 743.64275 544.73806 743.64275 544.73806 L 743.9358 556.5166 C 743.9917 558.75987 742.2184 560.62366 739.9751 560.6795 C 739.9414 560.6803 739.9077 560.68074 739.874 560.68074 L 739.874 560.68074 C 737.537 560.68074 735.607 558.8551 735.4772 556.5217 L 734.9454 546.9603 C 734.6786 542.1644 736.8257 537.5523 740.6674 534.669 L 741.3799 534.1343 C 744.9977 531.419 748.3788 528.40174 751.4866 525.115 L 751.9737 524.5999 C 755.2128 521.1743 756.6121 516.4028 755.7361 511.7703 L 754.7506 506.5595 C 753.4717 499.7967 746.9526 495.3512 740.1898 496.6301 C 740.0776 496.65133 739.9657 496.6741 739.8542 496.6984 L 731.4634 498.5253 C 727.4427 499.40076 723.5864 500.9089 720.0385 502.9934 L 718.7811 503.73215 C 716.4271 505.1152 715.4427 508.0148 716.4681 510.5452 L 716.4681 510.5452 C 717.5472 513.208 720.1333 514.9504 723.0065 514.9504 L 726.1746 514.9504 C 727.9524 514.9504 729.3936 516.3916 729.3936 518.1694 C 729.3936 518.733 729.2456 519.2867 728.9645 519.77517 L 728.9645 519.77517 C 727.2908 522.68304 724.0016 524.2628 720.6857 523.7514 Z" stroke="black" stroke-linecap="round" stroke-linejoin="round" stroke-width="5"/>
      </g>
      <g id="Graphic_24">
        <path d="M 732.0446 587.4233 L 731.9592 587.0019 C 731.3693 584.09034 732.4879 581.0969 734.8427 579.28575 L 734.8427 579.28575 C 737.1151 577.53794 740.2754 577.5242 742.5629 579.2522 L 745.6981 581.62054 C 747.5097 582.98905 748.85 584.888 749.5325 587.0534 L 749.5325 587.0534 C 750.0165 588.589 749.164 590.2262 747.6284 590.7102 C 747.4623 590.76256 747.2919 590.7999 747.1191 590.82186 L 738.3355 591.93655 C 735.38026 592.3116 732.6362 590.34296 732.0446 587.4233 Z" fill="#c0c0ff"/>
        <path d="M 732.0446 587.4233 L 731.9592 587.0019 C 731.3693 584.09034 732.4879 581.0969 734.8427 579.28575 L 734.8427 579.28575 C 737.1151 577.53794 740.2754 577.5242 742.5629 579.2522 L 745.6981 581.62054 C 747.5097 582.98905 748.85 584.888 749.5325 587.0534 L 749.5325 587.0534 C 750.0165 588.589 749.164 590.2262 747.6284 590.7102 C 747.4623 590.76256 747.2919 590.7999 747.1191 590.82186 L 738.3355 591.93655 C 735.38026 592.3116 732.6362 590.34296 732.0446 587.4233 Z" stroke="black" stroke-linecap="round" stroke-linejoin="round" stroke-width="5"/>
      </g>
      <g id="Graphic_25">
        <path d="M 691.1348 545.4193 L 706.3507 545.4193 C 707.6313 545.4193 708.6694 546.4574 708.6694 547.738 L 708.6694 547.738 C 708.6694 548.8769 707.7461 549.8002 706.6072 549.8002 C 706.52675 549.8002 706.4464 549.7955 706.3665 549.7861 L 703.1024 549.40256 C 701.553 549.2205 699.9943 549.1292 698.4343 549.1292 L 692.8888 549.1292 C 691.636 549.1292 690.4955 548.4069 689.96 547.27426 L 689.96 547.27426 C 689.6532 546.6254 689.9305 545.85075 690.5794 545.544 C 690.753 545.4619 690.9427 545.4193 691.1348 545.4193 Z" fill="#c0c0ff"/>
        <path d="M 691.1348 545.4193 L 706.3507 545.4193 C 707.6313 545.4193 708.6694 546.4574 708.6694 547.738 L 708.6694 547.738 C 708.6694 548.8769 707.7461 549.8002 706.6072 549.8002 C 706.52675 549.8002 706.4464 549.7955 706.3665 549.7861 L 703.1024 549.40256 C 701.553 549.2205 699.9943 549.1292 698.4343 549.1292 L 692.8888 549.1292 C 691.636 549.1292 690.4955 548.4069 689.96 547.27426 L 689.96 547.27426 C 689.6532 546.6254 689.9305 545.85075 690.5794 545.544 C 690.753 545.4619 690.9427 545.4193 691.1348 545.4193 Z" stroke="black" stroke-linecap="round" stroke-linejoin="round" stroke-width="4"/>
      </g>
      <g id="Graphic_26">
        <path d="M 691.7184 554.808 L 706.9343 554.808 C 708.21485 554.808 709.253 555.84614 709.253 557.1267 L 709.253 557.1267 C 709.253 558.26565 708.3297 559.1889 707.1908 559.1889 C 707.11035 559.1889 707.03 559.1842 706.9501 559.17484 L 703.686 558.7913 C 702.1366 558.6092 700.5779 558.51795 699.0179 558.51795 L 693.4724 558.51795 C 692.2196 558.51795 691.0791 557.7956 690.5436 556.663 L 690.5436 556.663 C 690.2368 556.01415 690.5141 555.2395 691.163 554.9327 C 691.3366 554.8506 691.5263 554.808 691.7184 554.808 Z" fill="#c0c0ff"/>
        <path d="M 691.7184 554.808 L 706.9343 554.808 C 708.21485 554.808 709.253 555.84614 709.253 557.1267 L 709.253 557.1267 C 709.253 558.26565 708.3297 559.1889 707.1908 559.1889 C 707.11035 559.1889 707.03 559.1842 706.9501 559.17484 L 703.686 558.7913 C 702.1366 558.6092 700.5779 558.51795 699.0179 558.51795 L 693.4724 558.51795 C 692.2196 558.51795 691.0791 557.7956 690.5436 556.663 L 690.5436 556.663 C 690.2368 556.01415 690.5141 555.2395 691.163 554.9327 C 691.3366 554.8506 691.5263 554.808 691.7184 554.808 Z" stroke="black" stroke-linecap="round" stroke-linejoin="round" stroke-width="4"/>
      </g>
    </g>
  </g>
</svg>
