<?xml version="1.0" encoding="UTF-8" standalone="no"?>
<!DOCTYPE svg PUBLIC "-//W3C//DTD SVG 1.1//EN" "http://www.w3.org/Graphics/SVG/1.1/DTD/svg11.dtd">
<svg xmlns="http://www.w3.org/2000/svg" xmlns:xl="http://www.w3.org/1999/xlink" xmlns:dc="http://purl.org/dc/elements/1.1/" version="1.1" viewBox="0 0 850.394 850.394" width="850.394" height="850.394">
  <defs/>
  <metadata> Produced by OmniGraffle 7.9.4 
    <dc:date>2019-08-27 03:32:43 +0000</dc:date>
  </metadata>
  <g id="accent" stroke="none" fill="none" fill-opacity="1" stroke-opacity="1" stroke-dasharray="none">
    <title>accent</title>
    <g id="accent: Layer 1">
      <title>Layer 1</title>
      <g id="Graphic_16">
        <path d="M 315.18195 333.8214 L 152 333.8214 L 191.55926 520.1064 L 430.15105 556.4902 L 531.52165 507.00824 L 531.52165 332.36605 L 469.7103 328 Z" fill="#ffff40"/>
        <path d="M 315.18195 333.8214 L 152 333.8214 L 191.55926 520.1064 L 430.15105 556.4902 L 531.52165 507.00824 L 531.52165 332.36605 L 469.7103 328 Z" stroke="black" stroke-linecap="round" stroke-linejoin="round" stroke-width="1"/>
      </g>
      <g id="Graphic_15">
        <path d="M 312.39432 372.33194 L 200.47669 372.33194 L 227.60824 480.85813 L 375.69827 486.39774 L 460.77 473.2274 L 460.77 371.48408 L 418.37693 368.9405 Z" fill="#ffffc0"/>
        <path d="M 312.39432 372.33194 L 200.47669 372.33194 L 227.60824 480.85813 L 375.69827 486.39774 L 460.77 473.2274 L 460.77 371.48408 L 418.37693 368.9405 Z" stroke="black" stroke-linecap="round" stroke-linejoin="round" stroke-width="1"/>
      </g>
      <g id="Graphic_2">
        <rect x="366.2509" y="578" width="243.74908" height="39.82843" fill="#c0c0ff"/>
        <rect x="366.2509" y="578" width="243.74908" height="39.82843" stroke="black" stroke-linecap="round" stroke-linejoin="round" stroke-width="6"/>
      </g>
      <g id="Graphic_3">
        <rect x="12.45098" y="375.89216" width="117.89216" height="39.82843" fill="#c0c0ff"/>
        <rect x="12.45098" y="375.89216" width="117.89216" height="39.82843" stroke="black" stroke-linecap="round" stroke-linejoin="round" stroke-width="6"/>
      </g>
      <g id="Graphic_4">
        <rect x="122.37745" y="492.1912" width="117.89216" height="39.82843" fill="#c0c0ff"/>
        <rect x="122.37745" y="492.1912" width="117.89216" height="39.82843" stroke="black" stroke-linecap="round" stroke-linejoin="round" stroke-width="6"/>
      </g>
      <g id="Graphic_5">
        <rect x="238" y="393.90533" width="185.24667" height="62.58333" fill="#4040ff"/>
        <rect x="238" y="393.90533" width="185.24667" height="62.58333" stroke="black" stroke-linecap="round" stroke-linejoin="bevel" stroke-width="10"/>
      </g>
      <g id="Graphic_6">
        <rect x="378.87255" y="258" width="317.0343" height="39.82843" fill="#c0c0ff"/>
        <rect x="378.87255" y="258" width="317.0343" height="39.82843" stroke="black" stroke-linecap="round" stroke-linejoin="round" stroke-width="6"/>
      </g>
      <g id="Graphic_7">
        <rect x="563.6765" y="407.7549" width="264.4608" height="39.82843" fill="#c0c0ff"/>
        <rect x="563.6765" y="407.7549" width="264.4608" height="39.82843" stroke="black" stroke-linecap="round" stroke-linejoin="round" stroke-width="6"/>
      </g>
      <g id="Graphic_8">
        <rect x="180" y="122" width="117.89216" height="39.82843" fill="#c0c0ff"/>
        <rect x="180" y="122" width="117.89216" height="39.82843" stroke="black" stroke-linecap="round" stroke-linejoin="round" stroke-width="6"/>
      </g>
    </g>
  </g>
</svg>
