<?xml version="1.0" encoding="UTF-8" standalone="no"?>
<!DOCTYPE svg PUBLIC "-//W3C//DTD SVG 1.1//EN" "http://www.w3.org/Graphics/SVG/1.1/DTD/svg11.dtd">
<svg xmlns:dc="http://purl.org/dc/elements/1.1/" xmlns:xl="http://www.w3.org/1999/xlink" xmlns="http://www.w3.org/2000/svg" version="1.1" viewBox="0 0 850.394 850.394" width="850.394" height="850.394">
  <defs/>
  <metadata> Produced by OmniGraffle 7.9.4 
    <dc:date>2019-05-20 21:41:07 +0000</dc:date>
  </metadata>
  <g id="algorave" stroke-dasharray="none" stroke-opacity="1" stroke="none" fill="none" fill-opacity="1">
    <title>algorave</title>
    <g id="algorave: Layer 1">
      <title>Layer 1</title>
      <g id="Line_2">
        <path d="M 61.14739 746.1216 L 422.4601 61.17265 C 427.61367 51.4029 439.7114 47.66075 449.48116 52.814326 C 452.99026 54.66539 455.86955 57.518286 457.75284 61.010196 L 786.8458 671.2 C 792.0891 680.92186 788.4585 693.05354 778.7366 698.2968 C 775.7787 699.8921 772.4664 700.7163 769.1058 700.6933 L 204.60083 696.829 C 193.5554 696.75336 184.6626 687.738 184.7382 676.6925 C 184.75924 673.6197 185.48808 670.593 186.86814 667.8474 L 421.88347 200.2905 C 426.84413 190.42139 438.86603 186.4423 448.73513 191.40297 C 452.4327 193.26152 455.46266 196.22132 457.40733 199.87432 L 663.1888 586.4278 C 668.3793 596.17795 664.683 608.2898 654.9328 613.4803 C 652.1522 614.9605 649.0613 615.763 645.91185 615.82245 L 324.5296 621.8864 C 313.48585 622.09475 304.36422 613.311 304.15584 602.2672 C 304.09463 599.0232 304.8236 595.813 306.27984 592.91354 L 426.34515 353.8577 C 431.30267 343.98702 443.3233 340.00413 453.194 344.96165 C 456.37477 346.5592 459.0716 348.97666 461.00605 351.96453 L 574.00974 526.50304 C 580.01284 535.77505 577.36286 548.158 568.09085 554.1611 C 565.2677 555.9889 562.0293 557.07525 558.675 557.3197 L 408.30033 568.2789 C 397.28385 569.08175 387.70237 560.802 386.8995 549.7855 C 386.6412 546.2412 387.33193 542.692 388.90064 539.5033 L 436.11287 443.53366 C 440.9887 433.6224 452.97606 429.54036 462.88734 434.4162 C 466.17607 436.0341 468.957 438.5246 470.92635 441.6157 L 504.7201 494.6579 C 510.6552 503.9736 507.91474 516.3368 498.59907 522.2719 C 495.90755 523.9867 492.84475 525.0325 489.66654 525.32197 L 457.04437 528.29296 C 447.43745 529.1679 438.94024 522.0892 438.0653 512.4823 C 437.77884 509.3368 438.35065 506.17245 439.7199 503.32614 L 450.08396 481.7817 C 452.0216 477.75387 455.2526 474.49115 459.26134 472.5143 L 460.60583 471.8513 C 464.9332 469.7173 470.17074 471.0745 472.91714 475.04153 L 482.22816 488.4908 C 484.54375 491.83553 485.7843 495.8069 485.7843 499.875 L 485.7843 500 C 485.7843 503.7 483.1605 506.8804 479.5279 507.5835 L 470.58824 509.3137 C 466.33967 510.136 462.2289 507.3585 461.4066 503.10993 C 461.0895 501.4716 461.30376 499.77485 462.0181 498.26676 L 464.2157 493.62745" stroke="black" stroke-linecap="round" stroke-linejoin="round" stroke-width="10"/>
      </g>
    </g>
  </g>
</svg>
