<?xml version="1.0" encoding="UTF-8" standalone="no"?>
<!DOCTYPE svg PUBLIC "-//W3C//DTD SVG 1.1//EN" "http://www.w3.org/Graphics/SVG/1.1/DTD/svg11.dtd">
<svg xmlns="http://www.w3.org/2000/svg" xmlns:xl="http://www.w3.org/1999/xlink" xmlns:dc="http://purl.org/dc/elements/1.1/" version="1.1" viewBox="0 0 850.394 850.394" width="850.394" height="850.394">
  <defs/>
  <metadata> Produced by OmniGraffle 7.9.4 
    <dc:date>2019-04-30 20:55:18 +0000</dc:date>
  </metadata>
  <g id="Amplifier" stroke-opacity="1" fill-opacity="1" fill="none" stroke="none" stroke-dasharray="none">
    <title>Amplifier</title>
    <g id="Amplifier: Layer 1">
      <title>Layer 1</title>
      <g id="Graphic_48">
        <path d="M 164.00335 61.754124 L 687.8102 61.754124 L 741.75234 788.6399 L 108.64166 788.6399 Z" fill="#666"/>
        <path d="M 164.00335 61.754124 L 687.8102 61.754124 L 741.75234 788.6399 L 108.64166 788.6399 Z" stroke="black" stroke-linecap="round" stroke-linejoin="round" stroke-width="16"/>
      </g>
      <g id="Graphic_63">
        <circle cx="266.36565" cy="143.83535" r="42.8744307288205" fill="#999"/>
        <circle cx="266.36565" cy="143.83535" r="42.8744307288205" stroke="black" stroke-linecap="round" stroke-linejoin="round" stroke-width="7"/>
      </g>
      <g id="Graphic_49">
        <path d="M 583.815 351.5025 C 670.7786 438.4656 670.7786 579.46056 583.815 666.4237 C 496.8519 753.3872 355.85697 753.3872 268.89386 666.4237 C 181.93031 579.46056 181.93031 438.4656 268.89386 351.5025 C 355.85697 264.53897 496.8519 264.53897 583.815 351.5025" fill="#ccc"/>
        <path d="M 583.815 351.5025 C 670.7786 438.4656 670.7786 579.46056 583.815 666.4237 C 496.8519 753.3872 355.85697 753.3872 268.89386 666.4237 C 181.93031 579.46056 181.93031 438.4656 268.89386 351.5025 C 355.85697 264.53897 496.8519 264.53897 583.815 351.5025" stroke="black" stroke-linecap="round" stroke-linejoin="round" stroke-width="14"/>
      </g>
      <g id="Line_44">
        <path d="M 223.52842 586.8911 L 431.9781 285.2495 L 430.2133 285" stroke="black" stroke-linecap="round" stroke-linejoin="round" stroke-width="3"/>
      </g>
      <g id="Line_42">
        <path d="M 361.16636 711.1876 L 262.57025 550.9167 L 210.3226 459.6085" stroke="black" stroke-linecap="round" stroke-linejoin="round" stroke-width="3"/>
      </g>
      <g id="Line_41">
        <path d="M 448.2436 727.05724 L 331.6031 524.1198 L 248.54948 391.7776" stroke="black" stroke-linecap="round" stroke-linejoin="round" stroke-width="3"/>
      </g>
      <g id="Line_40">
        <path d="M 494.81367 721.99055 L 378.1732 519.0531 L 273.65344 355.1296" stroke="black" stroke-linecap="round" stroke-linejoin="round" stroke-width="3"/>
      </g>
      <g id="Line_36">
        <path d="M 395.1336 720.0156 L 302.33877 558.57476 L 221.24666 428.3787" stroke="black" stroke-linecap="round" stroke-linejoin="round" stroke-width="3"/>
      </g>
      <g id="Line_30">
        <path d="M 466.8583 728.3795 L 350.21784 525.4421 L 256.51342 377.64616" stroke="black" stroke-linecap="round" stroke-linejoin="round" stroke-width="3"/>
      </g>
      <g id="Line_29">
        <path d="M 431.80614 724.7343 L 315.16565 521.79683 L 237.7806 402.989" stroke="black" stroke-linecap="round" stroke-linejoin="round" stroke-width="3"/>
      </g>
      <g id="Line_28">
        <path d="M 414.30567 721.26885 L 295.53063 516.5595 L 228.9827 416.62596" stroke="black" stroke-linecap="round" stroke-linejoin="round" stroke-width="3"/>
      </g>
      <g id="Line_27">
        <path d="M 380.96036 717.4826 L 288.16552 556.0417 L 215.70948 440.17836" stroke="black" stroke-linecap="round" stroke-linejoin="round" stroke-width="3"/>
      </g>
      <g id="Line_26">
        <path d="M 343.49572 710.4521 L 246.49683 561.9653 L 207.13215 492.9099" stroke="black" stroke-linecap="round" stroke-linejoin="round" stroke-width="3"/>
      </g>
      <g id="Line_25">
        <path d="M 210.852 529.1973 L 402.18153 286.7316 L 394.4892 293.0253" stroke="black" stroke-linecap="round" stroke-linejoin="round" stroke-width="3"/>
      </g>
      <g id="Line_24">
        <path d="M 208.3139 480.328 L 371.4123 295.12322 L 373.5102 293.72462" stroke="black" stroke-linecap="round" stroke-linejoin="round" stroke-width="3"/>
      </g>
      <g id="Line_23">
        <path d="M 244.68588 622.1221 L 392.5048 388.1748 L 466.61775 295.6687 L 464.85296 295.4192" stroke="black" stroke-linecap="round" stroke-linejoin="round" stroke-width="3"/>
      </g>
      <g id="Line_22">
        <path d="M 268.63978 667.7842 L 417.3713 420.90293 L 496.9828 313.67294 L 511.9216 304.3586" stroke="black" stroke-linecap="round" stroke-linejoin="round" stroke-width="3"/>
      </g>
      <g id="Line_21">
        <path d="M 301.69318 687.6408 L 520.60715 348.18325 L 541.864 324.5697" stroke="black" stroke-linecap="round" stroke-linejoin="round" stroke-width="3"/>
      </g>
      <g id="Line_20">
        <path d="M 344.8391 702.84 L 559.22274 369.97856 L 574.8006 350.0207" stroke="black" stroke-linecap="round" stroke-linejoin="round" stroke-width="3"/>
      </g>
      <g id="Line_19">
        <path d="M 366.5409 715.9529 L 582.69684 401.0023 L 595.76026 372.4775" stroke="black" stroke-linecap="round" stroke-linejoin="round" stroke-width="3"/>
      </g>
      <g id="Line_18">
        <path d="M 643.66806 549.1375 L 511.92296 319.3343 L 502.9389 304.3586" stroke="black" stroke-linecap="round" stroke-linejoin="round" stroke-width="3"/>
      </g>
      <g id="Line_17">
        <path d="M 637.6796 572.3429 L 482.25697 315.08126 L 462.47024 291.70464" stroke="black" stroke-linecap="round" stroke-linejoin="round" stroke-width="3"/>
      </g>
      <g id="Line_16">
        <path d="M 624.9541 600.0396 L 475.54854 346.26746 L 448.2507 293.8885" stroke="black" stroke-linecap="round" stroke-linejoin="round" stroke-width="3"/>
      </g>
      <g id="Line_15">
        <path d="M 618.21704 623.2449 L 465.52916 375.22225 L 415.2973 289.83484" stroke="black" stroke-linecap="round" stroke-linejoin="round" stroke-width="3"/>
      </g>
      <g id="Line_14">
        <path d="M 595.76026 646.45025 L 456.9781 404.0204 L 394.45837 289.39066" stroke="black" stroke-linecap="round" stroke-linejoin="round" stroke-width="3"/>
      </g>
      <g id="Line_13">
        <path d="M 588.27466 660.6729 L 449.59844 429.0133 L 371.3196 291.15637" stroke="black" stroke-linecap="round" stroke-linejoin="round" stroke-width="3"/>
      </g>
      <g id="Line_12">
        <path d="M 509.5522 712.4436 L 390.52214 508.3169 L 283.7869 341.69715" stroke="black" stroke-linecap="round" stroke-linejoin="round" stroke-width="3"/>
      </g>
      <g id="Line_11">
        <path d="M 576.2977 672.6498 L 440.81085 454.2417 L 429.2723 438.2114 L 350.8391 295.6894" stroke="black" stroke-linecap="round" stroke-linejoin="round" stroke-width="3"/>
      </g>
      <g id="Line_10">
        <path d="M 562.0751 683.8782 L 434.6577 469.22164 L 393.1382 410.872 L 335.60392 302.1414" stroke="black" stroke-linecap="round" stroke-linejoin="round" stroke-width="3"/>
      </g>
      <g id="Line_9">
        <path d="M 547.1039 691.3638 L 421.9212 478.1246 L 318.6433 313.52616" stroke="black" stroke-linecap="round" stroke-linejoin="round" stroke-width="3"/>
      </g>
      <g id="Line_8">
        <path d="M 531.1351 694.24 L 414.4946 491.3026 L 377.9465 429.4905 L 303.6953 321.3396" stroke="black" stroke-linecap="round" stroke-linejoin="round" stroke-width="3"/>
      </g>
      <g id="Line_7">
        <path d="M 520.1203 701.8867 L 403.4798 498.9493 L 328.2668 373.2594 L 292.6805 328.9863" stroke="black" stroke-linecap="round" stroke-linejoin="round" stroke-width="3"/>
      </g>
      <g id="Line_6">
        <path d="M 482.25697 725.5293 L 365.6165 522.59185 L 264.5525 367.32998" stroke="black" stroke-linecap="round" stroke-linejoin="round" stroke-width="3"/>
      </g>
      <g id="Line_5">
        <path d="M 467.55897 730.4946 L 594.3885 545.302 L 644.4166 476.52726" stroke="black" stroke-linecap="round" stroke-linejoin="round" stroke-width="3"/>
      </g>
      <g id="Line_4">
        <path d="M 443.62254 729.407 L 601.5036 506.5708 L 639.9253 450.3277" stroke="black" stroke-linecap="round" stroke-linejoin="round" stroke-width="3"/>
      </g>
      <g id="Line_3">
        <path d="M 419.00543 725.3761 L 588.0184 473.2459 L 626.4512 418.1396" stroke="black" stroke-linecap="round" stroke-linejoin="round" stroke-width="3"/>
      </g>
      <g id="Line_2">
        <path d="M 392.0779 721.29596 L 591.8379 429.27094 L 618.9656 395.68284" stroke="black" stroke-linecap="round" stroke-linejoin="round" stroke-width="3"/>
      </g>
      <g id="Line_50">
        <path d="M 327.0274 712.3235 L 238.60503 583.1594 L 199.24034 514.10405" stroke="black" stroke-linecap="round" stroke-linejoin="round" stroke-width="3"/>
      </g>
      <g id="Line_51">
        <path d="M 651.15366 512.4581 L 532.24314 319.3343 L 523.25907 304.3586" stroke="black" stroke-linecap="round" stroke-linejoin="round" stroke-width="3"/>
      </g>
      <g id="Line_52">
        <path d="M 488.32773 728.6647 L 606.98865 572.3429 L 651.15366 502.72684" stroke="black" stroke-linecap="round" stroke-linejoin="round" stroke-width="3"/>
      </g>
      <g id="Graphic_61">
        <path d="M 379.8139 114.84651 C 396.5574 108.06253 413.6597 116.77656 418.0129 134.30986 C 422.3662 151.84313 412.32197 171.55607 395.57845 178.33996 C 378.83495 185.12395 361.7327 176.4099 357.37947 158.8766 C 353.02616 141.34334 363.0704 121.6304 379.8139 114.84651" fill="#999"/>
        <path d="M 379.8139 114.84651 C 396.5574 108.06253 413.6597 116.77656 418.0129 134.30986 C 422.3662 151.84313 412.32197 171.55607 395.57845 178.33996 C 378.83495 185.12395 361.7327 176.4099 357.37947 158.8766 C 353.02616 141.34334 363.0704 121.6304 379.8139 114.84651" stroke="black" stroke-linecap="round" stroke-linejoin="round" stroke-width="6"/>
      </g>
      <g id="Graphic_60">
        <path d="M 369.81284 125.433 C 382.45805 120.30953 395.3742 126.89064 398.6619 140.13233 C 401.94964 153.374 394.3639 168.2618 381.7187 173.38521 C 369.0735 178.50869 356.15734 171.92758 352.86965 158.68589 C 349.5819 145.44423 357.1676 130.55641 369.81284 125.433" fill="#ccc"/>
        <path d="M 369.81284 125.433 C 382.45805 120.30953 395.3742 126.89064 398.6619 140.13233 C 401.94964 153.374 394.3639 168.2618 381.7187 173.38521 C 369.0735 178.50869 356.15734 171.92758 352.86965 158.68589 C 349.5819 145.44423 357.1676 130.55641 369.81284 125.433" stroke="black" stroke-linecap="round" stroke-linejoin="round" stroke-width="4"/>
      </g>
      <g id="Line_59">
        <line x1="375.2775" y1="150.31671" x2="375.2775" y2="128.83274" stroke="black" stroke-linecap="round" stroke-linejoin="round" stroke-width="7"/>
      </g>
      <g id="Graphic_58">
        <path d="M 469.656 111.91688 C 486.3995 105.1329 503.50173 113.84693 507.85496 131.38023 C 512.20827 148.9135 502.164 168.62644 485.4205 175.41033 C 468.677 182.19431 451.57474 173.48028 447.2215 155.94698 C 442.8682 138.41371 452.91245 118.70077 469.656 111.91688" fill="#999"/>
        <path d="M 469.656 111.91688 C 486.3995 105.1329 503.50173 113.84693 507.85496 131.38023 C 512.20827 148.9135 502.164 168.62644 485.4205 175.41033 C 468.677 182.19431 451.57474 173.48028 447.2215 155.94698 C 442.8682 138.41371 452.91245 118.70077 469.656 111.91688" stroke="black" stroke-linecap="round" stroke-linejoin="round" stroke-width="6"/>
      </g>
      <g id="Graphic_57">
        <path d="M 459.6549 122.61713 C 472.3001 117.49366 485.21625 124.07477 488.50394 137.31646 C 491.7917 150.55812 484.20597 165.44594 471.56075 170.56934 C 458.91554 175.69281 445.9994 169.1117 442.7117 155.87002 C 439.42395 142.62835 447.00967 127.74054 459.6549 122.61713" fill="#ccc"/>
        <path d="M 459.6549 122.61713 C 472.3001 117.49366 485.21625 124.07477 488.50394 137.31646 C 491.7917 150.55812 484.20597 165.44594 471.56075 170.56934 C 458.91554 175.69281 445.9994 169.1117 442.7117 155.87002 C 439.42395 142.62835 447.00967 127.74054 459.6549 122.61713" stroke="black" stroke-linecap="round" stroke-linejoin="round" stroke-width="4"/>
      </g>
      <g id="Line_56">
        <line x1="465.11955" y1="147.38708" x2="486.232" y2="135.8476" stroke="black" stroke-linecap="round" stroke-linejoin="round" stroke-width="7"/>
      </g>
      <g id="Graphic_55">
        <path d="M 569.15106 114.84651 C 585.89456 108.06253 602.9968 116.77656 607.35005 134.30986 C 611.70336 151.84313 601.6591 171.55607 584.9156 178.33996 C 568.1721 185.12395 551.06983 176.4099 546.7166 158.8766 C 542.3633 141.34334 552.40754 121.6304 569.15106 114.84651" fill="#999"/>
        <path d="M 569.15106 114.84651 C 585.89456 108.06253 602.9968 116.77656 607.35005 134.30986 C 611.70336 151.84313 601.6591 171.55607 584.9156 178.33996 C 568.1721 185.12395 551.06983 176.4099 546.7166 158.8766 C 542.3633 141.34334 552.40754 121.6304 569.15106 114.84651" stroke="black" stroke-linecap="round" stroke-linejoin="round" stroke-width="6"/>
      </g>
      <g id="Graphic_54">
        <path d="M 559.15 125.433 C 571.7952 120.30953 584.71134 126.89064 587.999 140.13233 C 591.2868 153.374 583.70106 168.2618 571.05584 173.38521 C 558.4106 178.50869 545.4945 171.92758 542.2068 158.68589 C 538.91904 145.44423 546.50476 130.55641 559.15 125.433" fill="#ccc"/>
        <path d="M 559.15 125.433 C 571.7952 120.30953 584.71134 126.89064 587.999 140.13233 C 591.2868 153.374 583.70106 168.2618 571.05584 173.38521 C 558.4106 178.50869 545.4945 171.92758 542.2068 158.68589 C 538.91904 145.44423 546.50476 130.55641 559.15 125.433" stroke="black" stroke-linecap="round" stroke-linejoin="round" stroke-width="4"/>
      </g>
      <g id="Line_53">
        <line x1="564.61464" y1="150.31671" x2="545.11185" y2="151.64463" stroke="black" stroke-linecap="round" stroke-linejoin="round" stroke-width="7"/>
      </g>
      <g id="Graphic_62">
        <circle cx="265.72896" cy="142.26378" r="23.6054876082712" fill="#333"/>
        <circle cx="265.72896" cy="142.26378" r="23.6054876082712" stroke="black" stroke-linecap="round" stroke-linejoin="round" stroke-width="7"/>
      </g>
    </g>
  </g>
</svg>
