<?xml version="1.0" encoding="UTF-8" standalone="no"?>
<!DOCTYPE svg PUBLIC "-//W3C//DTD SVG 1.1//EN" "http://www.w3.org/Graphics/SVG/1.1/DTD/svg11.dtd">
<svg xmlns:xl="http://www.w3.org/1999/xlink" xmlns:dc="http://purl.org/dc/elements/1.1/" version="1.1" xmlns="http://www.w3.org/2000/svg" viewBox="0 0 850.394 850.394" width="850.394" height="850.394">
  <defs/>
  <metadata> Produced by OmniGraffle 7.9.4 
    <dc:date>2019-05-18 12:02:24 +0000</dc:date>
  </metadata>
  <g id="Canvas_238" stroke-dasharray="none" stroke="none" stroke-opacity="1" fill="none" fill-opacity="1">
    <title>Canvas 238</title>
    <g id="Canvas_238: Layer 1">
      <title>Layer 1</title>
      <g id="Graphic_6">
        <path d="M 96.32784 433.41007 C 84.05722 464.8369 90.61389 501.9184 115.99782 527.3022 C 150.22162 561.52616 205.70932 561.52616 239.93312 527.3022 C 265.31706 501.9184 271.87372 464.8369 259.6031 433.41007 C 266.7964 461.3463 259.45534 492.25205 237.57992 514.12736 C 204.65576 547.0517 151.27519 547.0517 118.35102 514.12736 C 96.47561 492.25205 89.13454 461.3463 96.32783 433.41007 Z" stroke="black" stroke-linecap="round" stroke-linejoin="round" stroke-width="7"/>
      </g>
      <g id="Graphic_5">
        <path d="M 426.6411 442.7571 C 438.9117 411.3303 432.35505 374.2488 406.9711 348.865 C 372.7473 314.641 317.2596 314.641 283.0358 348.865 C 257.65188 374.2488 251.09522 411.3303 263.36583 442.7571 C 256.17253 414.82084 263.5136 383.9151 285.389 362.0398 C 318.31318 329.11548 371.69375 329.11548 404.6179 362.0398 C 426.49333 383.9151 433.8344 414.82084 426.6411 442.7571 Z" stroke="black" stroke-linecap="round" stroke-linejoin="round" stroke-width="7"/>
      </g>
      <g id="Graphic_4">
        <path d="M 427.22153 439.3049 C 414.9509 470.73173 421.5076 507.8132 446.8915 533.197 C 481.1153 567.421 536.603 567.421 570.8268 533.197 C 596.21076 507.8132 602.7674 470.73173 590.4968 439.3049 C 597.6901 467.24117 590.349 498.1469 568.4736 520.0222 C 535.54946 552.9465 482.1689 552.9465 449.2447 520.0222 C 427.3693 498.1469 420.02824 467.24117 427.22153 439.3049 Z" stroke="black" stroke-linecap="round" stroke-linejoin="round" stroke-width="7"/>
      </g>
      <g id="Graphic_3">
        <path d="M 754.9062 442.7571 C 767.1768 411.3303 760.6201 374.2488 735.2362 348.865 C 701.0124 314.641 645.5247 314.641 611.3009 348.865 C 585.91694 374.2488 579.3603 411.3303 591.6309 442.7571 C 584.4376 414.82084 591.7787 383.9151 613.6541 362.0398 C 646.57825 329.11548 699.9588 329.11548 732.883 362.0398 C 754.7584 383.9151 762.0995 414.82084 754.9062 442.7571 Z" stroke="black" stroke-linecap="round" stroke-linejoin="round" stroke-width="7"/>
      </g>
    </g>
  </g>
</svg>
