<?xml version="1.0" encoding="UTF-8" standalone="no"?>
<!DOCTYPE svg PUBLIC "-//W3C//DTD SVG 1.1//EN" "http://www.w3.org/Graphics/SVG/1.1/DTD/svg11.dtd">
<svg xmlns:xl="http://www.w3.org/1999/xlink" xmlns:dc="http://purl.org/dc/elements/1.1/" version="1.1" xmlns="http://www.w3.org/2000/svg" viewBox="0 0 850.394 850.394" width="850.394" height="850.394">
  <defs/>
  <metadata> Produced by OmniGraffle 7.9.4 
    <dc:date>2019-05-18 02:13:11 +0000</dc:date>
  </metadata>
  <g id="audio" stroke-dasharray="none" fill-opacity="1" stroke="none" fill="none" stroke-opacity="1">
    <title>audio</title>
    <g id="audio: Layer 1">
      <title>Layer 1</title>
      <g id="Graphic_6">
        <path d="M 264.08283 126.52775 L 529.7896 55.33183 L 693.601 557.2332 L 372.44862 643.2857 Z" fill="#666"/>
        <path d="M 264.08283 126.52775 L 529.7896 55.33183 L 693.601 557.2332 L 372.44862 643.2857 Z" stroke="black" stroke-linecap="round" stroke-linejoin="round" stroke-width="22"/>
      </g>
      <g id="Graphic_2">
        <circle cx="489.8854" cy="427.1723" r="115.997267686707" fill="#ccc"/>
        <circle cx="489.8854" cy="427.1723" r="115.997267686707" stroke="black" stroke-linecap="round" stroke-linejoin="round" stroke-width="18"/>
      </g>
      <g id="Graphic_3">
        <circle cx="490.6375" cy="429.9793" r="49.2013648233797" fill="#999"/>
        <circle cx="490.6375" cy="429.9793" r="49.2013648233797" stroke="black" stroke-linecap="round" stroke-linejoin="round" stroke-width="18"/>
      </g>
      <g id="Graphic_4">
        <circle cx="431.66487" cy="209.8904" r="63.6276331587918" fill="#ccc"/>
        <circle cx="431.66487" cy="209.8904" r="63.6276331587918" stroke="black" stroke-linecap="round" stroke-linejoin="round" stroke-width="18"/>
      </g>
      <g id="Graphic_5">
        <circle cx="432.07743" cy="211.4301" r="26.9882770027749" fill="#a5a5a5"/>
        <circle cx="432.07743" cy="211.4301" r="26.9882770027749" stroke="black" stroke-linecap="round" stroke-linejoin="round" stroke-width="18"/>
      </g>
      <g id="Graphic_9">
        <circle cx="124.04044" cy="486.04044" r="84.040575361866" fill="#a5a5a5"/>
        <circle cx="124.04044" cy="486.04044" r="84.040575361866" stroke="black" stroke-linecap="round" stroke-linejoin="round" stroke-width="18"/>
      </g>
      <g id="Graphic_8">
        <path d="M 210.4801 492.51033 L 343.15676 667.8764 C 353.73403 678.45366 356.21583 678.1024 333.45463 700.86364 C 310.69342 723.62485 312.01485 714.35155 301.4376 703.7743 L 128.01196 574.97846 C 117.43469 564.4012 127.3231 537.3439 150.08431 514.5827 C 172.84551 491.8215 199.90282 481.93307 210.4801 492.51033 Z" fill="#666"/>
        <path d="M 210.4801 492.51033 L 343.15676 667.8764 C 353.73403 678.45366 356.21583 678.1024 333.45463 700.86364 C 310.69342 723.62485 312.01485 714.35155 301.4376 703.7743 L 128.01196 574.97846 C 117.43469 564.4012 127.3231 537.3439 150.08431 514.5827 C 172.84551 491.8215 199.90282 481.93307 210.4801 492.51033 Z" stroke="black" stroke-linecap="round" stroke-linejoin="round" stroke-width="7"/>
      </g>
      <g id="Line_7">
        <path d="M 339.21512 696.8943 L 364.214 738.36626 L 420.1529 755.7266 L 454.8736 782.7316" stroke="black" stroke-linecap="round" stroke-linejoin="round" stroke-width="17"/>
      </g>
      <g id="Graphic_15">
        <path d="M 499 261.50876 L 528.46064 213.35798 C 528.46064 213.35798 557.78186 182.36538 557.9411 181.77117 C 558.1003 181.17696 582.5711 163.53275 582.5711 163.53275 L 585.8575 198.80443 C 585.8575 198.80443 594.58856 220.88695 592.115 234.8722 C 589.6414 248.85747 604.9514 270.15532 604.9514 270.15532 C 604.9514 270.15532 623.3948 255.99105 624.03164 253.6142 C 624.6685 251.23737 628.0974 233.68685 631.19645 226.87477 C 634.2955 220.0627 646.4783 205.49465 649.0144 205.53732 C 651.5504 205.57998 671.9981 205.32707 672.4331 206.0805 C 672.8681 206.83392 677.82364 204.9774 676.66646 211.67292 C 675.5093 218.36845 677.7124 264.81356 677.39396 266.00198 C 677.0755 267.1904 660.3493 303.46842 681.0529 287.99917 C 701.75656 272.52992 705.4498 265.87706 705.4498 265.87706 C 705.4498 265.87706 706.91706 231.87912 712.24514 216.7481 C 717.5732 201.61709 754.9574 188.06988 755.5516 188.2291 C 756.1458 188.38832 773.4945 194.94749 773.7702 196.29512 C 774.046 197.64276 775.4957 244.52286 773.4259 252.2476 C 771.35605 259.97232 772.1491 292.66528 770.1958 302.33185 C 768.2425 311.99843 774.7788 313.74983 777.1557 314.3867 C 779.5325 315.02357 796.2786 295.30953 796.8728 295.46874 C 797.467 295.62796 807.58 288.78465 808.1742 288.94387 C 808.7684 289.1031 829.1734 291.38623 829.1734 291.38623 L 836.2613 295.8329 L 829.8415 296.02335 L 816.1747 292.36134 C 816.1747 292.36134 806.5393 297.42202 805.9451 297.2628 C 805.3509 297.1036 796.2245 307.3956 796.2245 307.3956 L 785.5912 318.5576 L 770.4914 320.24347 C 770.4914 320.24347 760.3586 310.5228 760.5178 309.9286 C 760.677 309.3344 766.1331 286.5952 766.1331 286.5952 L 765.5732 257.78593 C 765.5732 257.78593 765.5534 241.22195 765.2776 239.8743 C 765.0018 238.52667 765.2692 213.76032 765.4284 213.1661 C 765.5877 212.5719 760.3678 203.53076 759.9328 202.77734 C 759.4978 202.0239 748.32435 200.94061 748.32435 200.94061 L 731.1974 207.81516 L 720.5641 218.97715 L 717.2205 231.45556 C 717.2205 231.45556 716.9219 249.20795 717.5161 249.36717 C 718.1103 249.5264 711.9008 272.70057 711.9008 272.70057 C 711.9008 272.70057 708.4833 280.70107 707.1357 280.97684 C 705.788 281.2526 691.8652 292.80694 691.706 293.40115 C 691.5468 293.99536 677.3909 301.666 676.7967 301.50678 C 676.2025 301.34756 669.6662 299.59616 669.6662 299.59616 L 660.3607 293.9184 L 664.19336 270.10735 C 664.19336 270.10735 666.0301 258.49893 666.1893 257.90473 C 666.3485 257.31052 665.38484 234.76178 665.38484 234.76178 L 663.392 211.3004 L 655.10426 216.0853 C 655.10426 216.0853 644.10985 230.97178 643.5156 230.81256 C 642.9214 230.65334 637.51945 241.30645 637.3602 241.90066 C 637.201 242.49487 631.9468 262.1038 631.9468 262.1038 L 623.4146 272.55502 L 607.86836 283.0375 L 595.6231 283.5776 C 595.6231 283.5776 590.6904 266.3341 589.50195 266.01565 C 588.3135 265.69722 580.134 246.30998 580.134 246.30998 L 576.18786 232.51517 L 577.0807 214.922 L 572.90144 197.24348 L 577.2003 181.19982 L 567.4484 184.31866 C 567.4484 184.31866 562.9164 196.47863 562.163 196.91362 C 561.4096 197.3486 546.648 214.41004 546.0538 214.25082 C 545.4596 214.0916 499 261.50876 499 261.50876 Z" fill="#c0c0ff"/>
        <path d="M 499 261.50876 L 528.46064 213.35798 C 528.46064 213.35798 557.78186 182.36538 557.9411 181.77117 C 558.1003 181.17696 582.5711 163.53275 582.5711 163.53275 L 585.8575 198.80443 C 585.8575 198.80443 594.58856 220.88695 592.115 234.8722 C 589.6414 248.85747 604.9514 270.15532 604.9514 270.15532 C 604.9514 270.15532 623.3948 255.99105 624.03164 253.6142 C 624.6685 251.23737 628.0974 233.68685 631.19645 226.87477 C 634.2955 220.0627 646.4783 205.49465 649.0144 205.53732 C 651.5504 205.57998 671.9981 205.32707 672.4331 206.0805 C 672.8681 206.83392 677.82364 204.9774 676.66646 211.67292 C 675.5093 218.36845 677.7124 264.81356 677.39396 266.00198 C 677.0755 267.1904 660.3493 303.46842 681.0529 287.99917 C 701.75656 272.52992 705.4498 265.87706 705.4498 265.87706 C 705.4498 265.87706 706.91706 231.87912 712.24514 216.7481 C 717.5732 201.61709 754.9574 188.06988 755.5516 188.2291 C 756.1458 188.38832 773.4945 194.94749 773.7702 196.29512 C 774.046 197.64276 775.4957 244.52286 773.4259 252.2476 C 771.35605 259.97232 772.1491 292.66528 770.1958 302.33185 C 768.2425 311.99843 774.7788 313.74983 777.1557 314.3867 C 779.5325 315.02357 796.2786 295.30953 796.8728 295.46874 C 797.467 295.62796 807.58 288.78465 808.1742 288.94387 C 808.7684 289.1031 829.1734 291.38623 829.1734 291.38623 L 836.2613 295.8329 L 829.8415 296.02335 L 816.1747 292.36134 C 816.1747 292.36134 806.5393 297.42202 805.9451 297.2628 C 805.3509 297.1036 796.2245 307.3956 796.2245 307.3956 L 785.5912 318.5576 L 770.4914 320.24347 C 770.4914 320.24347 760.3586 310.5228 760.5178 309.9286 C 760.677 309.3344 766.1331 286.5952 766.1331 286.5952 L 765.5732 257.78593 C 765.5732 257.78593 765.5534 241.22195 765.2776 239.8743 C 765.0018 238.52667 765.2692 213.76032 765.4284 213.1661 C 765.5877 212.5719 760.3678 203.53076 759.9328 202.77734 C 759.4978 202.0239 748.32435 200.94061 748.32435 200.94061 L 731.1974 207.81516 L 720.5641 218.97715 L 717.2205 231.45556 C 717.2205 231.45556 716.9219 249.20795 717.5161 249.36717 C 718.1103 249.5264 711.9008 272.70057 711.9008 272.70057 C 711.9008 272.70057 708.4833 280.70107 707.1357 280.97684 C 705.788 281.2526 691.8652 292.80694 691.706 293.40115 C 691.5468 293.99536 677.3909 301.666 676.7967 301.50678 C 676.2025 301.34756 669.6662 299.59616 669.6662 299.59616 L 660.3607 293.9184 L 664.19336 270.10735 C 664.19336 270.10735 666.0301 258.49893 666.1893 257.90473 C 666.3485 257.31052 665.38484 234.76178 665.38484 234.76178 L 663.392 211.3004 L 655.10426 216.0853 C 655.10426 216.0853 644.10985 230.97178 643.5156 230.81256 C 642.9214 230.65334 637.51945 241.30645 637.3602 241.90066 C 637.201 242.49487 631.9468 262.1038 631.9468 262.1038 L 623.4146 272.55502 L 607.86836 283.0375 L 595.6231 283.5776 C 595.6231 283.5776 590.6904 266.3341 589.50195 266.01565 C 588.3135 265.69722 580.134 246.30998 580.134 246.30998 L 576.18786 232.51517 L 577.0807 214.922 L 572.90144 197.24348 L 577.2003 181.19982 L 567.4484 184.31866 C 567.4484 184.31866 562.9164 196.47863 562.163 196.91362 C 561.4096 197.3486 546.648 214.41004 546.0538 214.25082 C 545.4596 214.0916 499 261.50876 499 261.50876 Z" stroke="#005c5d" stroke-linecap="round" stroke-linejoin="round" stroke-width="5"/>
      </g>
    </g>
  </g>
</svg>
