<?xml version="1.0" encoding="UTF-8" standalone="no"?>
<!DOCTYPE svg PUBLIC "-//W3C//DTD SVG 1.1//EN" "http://www.w3.org/Graphics/SVG/1.1/DTD/svg11.dtd">
<svg xmlns:dc="http://purl.org/dc/elements/1.1/" xmlns="http://www.w3.org/2000/svg" xmlns:xl="http://www.w3.org/1999/xlink" version="1.1" viewBox="0 0 850.394 850.394" width="850.394" height="850.394">
  <defs/>
  <metadata> Produced by OmniGraffle 7.9.4 
    <dc:date>2019-09-26 12:07:57 +0000</dc:date>
  </metadata>
  <g id="Audio_Description" fill-opacity="1" stroke="none" stroke-dasharray="none" stroke-opacity="1" fill="none">
    <title>Audio Description</title>
    <g id="Audio_Description: Layer 1">
      <title>Layer 1</title>
      <g id="Graphic_44">
        <circle cx="105.8367" cy="327.83334" r="9.92428329546645" fill="#666"/>
        <circle cx="105.8367" cy="327.83334" r="9.92428329546645" stroke="black" stroke-linecap="round" stroke-linejoin="round" stroke-width="4"/>
      </g>
      <g id="Graphic_43">
        <circle cx="157.08865" cy="327.83334" r="9.92428329546646" fill="#666"/>
        <circle cx="157.08865" cy="327.83334" r="9.92428329546646" stroke="black" stroke-linecap="round" stroke-linejoin="round" stroke-width="4"/>
      </g>
      <g id="Graphic_42">
        <rect x="282.419" y="208.65826" width="57.0475" height="122.43305" fill="#333"/>
        <rect x="282.419" y="208.65826" width="57.0475" height="122.43305" stroke="black" stroke-linecap="round" stroke-linejoin="round" stroke-width="7"/>
      </g>
      <g id="Graphic_41">
        <rect x="291.13585" y="234.81917" width="19.848535" height="21.975164" fill="yellow"/>
        <rect x="291.13585" y="234.81917" width="19.848535" height="21.975164" stroke="black" stroke-linecap="round" stroke-linejoin="round" stroke-width="4"/>
      </g>
      <g id="Graphic_40">
        <rect x="291.13585" y="282.95524" width="19.848535" height="21.975164" fill="yellow"/>
        <rect x="291.13585" y="282.95524" width="19.848535" height="21.975164" stroke="black" stroke-linecap="round" stroke-linejoin="round" stroke-width="4"/>
      </g>
      <g id="Graphic_39">
        <rect x="153.70731" y="140.6399" width="57.0475" height="190.45142" fill="#333"/>
        <rect x="153.70731" y="140.6399" width="57.0475" height="190.45142" stroke="black" stroke-linecap="round" stroke-linejoin="round" stroke-width="7"/>
      </g>
      <g id="Graphic_38">
        <rect x="57.43517" y="120.7576" width="57.0475" height="210.3337" fill="#666"/>
        <rect x="57.43517" y="120.7576" width="57.0475" height="210.3337" stroke="black" stroke-linecap="round" stroke-linejoin="round" stroke-width="7"/>
      </g>
      <g id="Graphic_37">
        <rect x="128.15942" y="208.65826" width="57.0475" height="122.43305" fill="#666"/>
        <rect x="128.15942" y="208.65826" width="57.0475" height="122.43305" stroke="black" stroke-linecap="round" stroke-linejoin="round" stroke-width="7"/>
      </g>
      <g id="Graphic_36">
        <rect x="229.48415" y="140.6399" width="57.0475" height="190.45142" fill="#333"/>
        <rect x="229.48415" y="140.6399" width="57.0475" height="190.45142" stroke="black" stroke-linecap="round" stroke-linejoin="round" stroke-width="7"/>
      </g>
      <g id="Graphic_35">
        <rect x="57.43517" y="153.19713" width="19.848535" height="21.975164" fill="yellow"/>
        <rect x="57.43517" y="153.19713" width="19.848535" height="21.975164" stroke="black" stroke-linecap="round" stroke-linejoin="round" stroke-width="4"/>
      </g>
      <g id="Graphic_34">
        <rect x="57" y="182.49735" width="19.848535" height="21.975164" fill="yellow"/>
        <rect x="57" y="182.49735" width="19.848535" height="21.975164" stroke="black" stroke-linecap="round" stroke-linejoin="round" stroke-width="4"/>
      </g>
      <g id="Graphic_33">
        <rect x="57" y="224.87802" width="19.848535" height="21.975164" fill="yellow"/>
        <rect x="57" y="224.87802" width="19.848535" height="21.975164" stroke="black" stroke-linecap="round" stroke-linejoin="round" stroke-width="4"/>
      </g>
      <g id="Graphic_32">
        <rect x="81.5032" y="224.87802" width="19.848535" height="21.975164" fill="yellow"/>
        <rect x="81.5032" y="224.87802" width="19.848535" height="21.975164" stroke="black" stroke-linecap="round" stroke-linejoin="round" stroke-width="4"/>
      </g>
      <g id="Graphic_31">
        <rect x="81.5032" y="182.49735" width="19.848535" height="21.975164" fill="yellow"/>
        <rect x="81.5032" y="182.49735" width="19.848535" height="21.975164" stroke="black" stroke-linecap="round" stroke-linejoin="round" stroke-width="4"/>
      </g>
      <g id="Graphic_30">
        <rect x="81.5032" y="271.96766" width="19.848535" height="21.975164" fill="yellow"/>
        <rect x="81.5032" y="271.96766" width="19.848535" height="21.975164" stroke="black" stroke-linecap="round" stroke-linejoin="round" stroke-width="4"/>
      </g>
      <g id="Graphic_29">
        <rect x="81.5032" y="271.96766" width="19.848535" height="21.975164" fill="yellow"/>
        <rect x="81.5032" y="271.96766" width="19.848535" height="21.975164" stroke="black" stroke-linecap="round" stroke-linejoin="round" stroke-width="4"/>
      </g>
      <g id="Graphic_28">
        <rect x="128.15942" y="234.81917" width="19.848535" height="21.975164" fill="yellow"/>
        <rect x="128.15942" y="234.81917" width="19.848535" height="21.975164" stroke="black" stroke-linecap="round" stroke-linejoin="round" stroke-width="4"/>
      </g>
      <g id="Graphic_27">
        <rect x="162.05914" y="282.95524" width="19.848535" height="21.975164" fill="yellow"/>
        <rect x="162.05914" y="282.95524" width="19.848535" height="21.975164" stroke="black" stroke-linecap="round" stroke-linejoin="round" stroke-width="4"/>
      </g>
      <g id="Graphic_26">
        <rect x="163.12524" y="234.81917" width="19.848535" height="21.975164" fill="yellow"/>
        <rect x="163.12524" y="234.81917" width="19.848535" height="21.975164" stroke="black" stroke-linecap="round" stroke-linejoin="round" stroke-width="4"/>
      </g>
      <g id="Graphic_25">
        <rect x="162.05914" y="164.70793" width="19.848535" height="21.975164" fill="yellow"/>
        <rect x="162.05914" y="164.70793" width="19.848535" height="21.975164" stroke="black" stroke-linecap="round" stroke-linejoin="round" stroke-width="4"/>
      </g>
      <g id="Graphic_24">
        <rect x="162.05914" y="164.70793" width="19.848535" height="21.975164" fill="yellow"/>
        <rect x="162.05914" y="164.70793" width="19.848535" height="21.975164" stroke="black" stroke-linecap="round" stroke-linejoin="round" stroke-width="4"/>
      </g>
      <g id="Graphic_23">
        <rect x="232.05152" y="149.01139" width="19.848535" height="21.975164" fill="yellow"/>
        <rect x="232.05152" y="149.01139" width="19.848535" height="21.975164" stroke="black" stroke-linecap="round" stroke-linejoin="round" stroke-width="4"/>
      </g>
      <g id="Graphic_22">
        <rect x="231.61635" y="178.3116" width="19.848535" height="21.975164" fill="yellow"/>
        <rect x="231.61635" y="178.3116" width="19.848535" height="21.975164" stroke="black" stroke-linecap="round" stroke-linejoin="round" stroke-width="4"/>
      </g>
      <g id="Graphic_21">
        <rect x="231.61635" y="220.69228" width="19.848535" height="21.975164" fill="yellow"/>
        <rect x="231.61635" y="220.69228" width="19.848535" height="21.975164" stroke="black" stroke-linecap="round" stroke-linejoin="round" stroke-width="4"/>
      </g>
      <g id="Graphic_20">
        <rect x="256.11955" y="220.69228" width="19.848535" height="21.975164" fill="yellow"/>
        <rect x="256.11955" y="220.69228" width="19.848535" height="21.975164" stroke="black" stroke-linecap="round" stroke-linejoin="round" stroke-width="4"/>
      </g>
      <g id="Graphic_19">
        <rect x="256.11955" y="178.3116" width="19.848535" height="21.975164" fill="yellow"/>
        <rect x="256.11955" y="178.3116" width="19.848535" height="21.975164" stroke="black" stroke-linecap="round" stroke-linejoin="round" stroke-width="4"/>
      </g>
      <g id="Graphic_18">
        <rect x="256.11955" y="267.7819" width="19.848535" height="21.975164" fill="yellow"/>
        <rect x="256.11955" y="267.7819" width="19.848535" height="21.975164" stroke="black" stroke-linecap="round" stroke-linejoin="round" stroke-width="4"/>
      </g>
      <g id="Graphic_17">
        <rect x="244.74728" y="234.81917" width="57.0475" height="96.27215" fill="#666"/>
        <rect x="244.74728" y="234.81917" width="57.0475" height="96.27215" stroke="black" stroke-linecap="round" stroke-linejoin="round" stroke-width="7"/>
      </g>
      <g id="Graphic_16">
        <rect x="256.11955" y="267.7819" width="19.848535" height="21.975164" fill="yellow"/>
        <rect x="256.11955" y="267.7819" width="19.848535" height="21.975164" stroke="black" stroke-linecap="round" stroke-linejoin="round" stroke-width="4"/>
      </g>
      <g id="Graphic_15">
        <rect x="256.11955" y="149.01139" width="19.848535" height="21.975164" fill="yellow"/>
        <rect x="256.11955" y="149.01139" width="19.848535" height="21.975164" stroke="black" stroke-linecap="round" stroke-linejoin="round" stroke-width="4"/>
      </g>
      <g id="Graphic_14">
        <rect x="314.5225" y="282.95524" width="19.848535" height="21.975164" fill="yellow"/>
        <rect x="314.5225" y="282.95524" width="19.848535" height="21.975164" stroke="black" stroke-linecap="round" stroke-linejoin="round" stroke-width="4"/>
      </g>
      <g id="Graphic_13">
        <rect x="315.58858" y="234.81917" width="19.848535" height="21.975164" fill="yellow"/>
        <rect x="315.58858" y="234.81917" width="19.848535" height="21.975164" stroke="black" stroke-linecap="round" stroke-linejoin="round" stroke-width="4"/>
      </g>
      <g id="Graphic_12">
        <circle cx="592.6804" cy="288.4996" r="50.8475096729168" fill="#a5a5a5"/>
        <circle cx="592.6804" cy="288.4996" r="50.8475096729168" stroke="black" stroke-linecap="round" stroke-linejoin="round" stroke-width="18"/>
      </g>
      <g id="Graphic_11">
        <path d="M 568.6422 335.1116 L 439.60865 367.54664 C 431.21724 370.937 430.82614 372.40223 423.53045 354.34477 C 416.23476 336.2873 421.087 339.21552 429.4784 335.82517 L 542.2086 269.686 C 550.6 266.29564 563.33154 278.1994 570.6272 296.25685 C 577.9229 314.3143 577.03364 331.72124 568.6422 335.1116 Z" fill="#666"/>
        <path d="M 568.6422 335.1116 L 439.60865 367.54664 C 431.21724 370.937 430.82614 372.40223 423.53045 354.34477 C 416.23476 336.2873 421.087 339.21552 429.4784 335.82517 L 542.2086 269.686 C 550.6 266.29564 563.33154 278.1994 570.6272 296.25685 C 577.9229 314.3143 577.03364 331.72124 568.6422 335.1116 Z" stroke="black" stroke-linecap="round" stroke-linejoin="round" stroke-width="7"/>
      </g>
      <g id="Line_10">
        <path d="M 424.3793 358.4914 L 406.67783 361.00474 C 399.39554 362.03872 392.74687 365.712 387.99525 371.32653 L 376.08163 385.4037 C 373.7004 388.2174 370.821 390.56814 367.58775 392.3382 L 264.6051 448.7159 C 263.77226 449.1718 262.91825 449.58795 262.04596 449.9629 L 115.16628 513.096 C 114.71061 513.29186 114.25987 513.499 113.81446 513.7172 L 50.21421 544.8761 C 42.36216 548.7229 36.82897 556.0994 35.333333 564.7143 L 33.05296 577.8492 C 32.985914 578.2354 32.911305 578.62026 32.829176 579.0035 L 22.238095 628.4286 C 18.863392 644.1772 28.89443 659.6797 44.643046 663.0544 C 49.75104 664.149 55.059275 663.8514 60.012915 662.1927 L 111.6989 644.8865" stroke="black" stroke-linecap="round" stroke-linejoin="round" stroke-width="17"/>
      </g>
      <g id="Graphic_5">
        <path d="M 81.8533 328.5484 L 81.8533 312.5894 L 100.85213 312.5894 L 112.25142 301.95006 L 157.8486 301.95006 L 170.00786 315.6292 L 185.20692 319.42898 L 185.20692 329.30837 L 154.04884 330.06832 Z" fill="blue"/>
        <path d="M 81.8533 328.5484 L 81.8533 312.5894 L 100.85213 312.5894 L 112.25142 301.95006 L 157.8486 301.95006 L 170.00786 315.6292 L 185.20692 319.42898 L 185.20692 329.30837 L 154.04884 330.06832 Z" stroke="black" stroke-linecap="round" stroke-linejoin="round" stroke-width="5"/>
      </g>
      <g id="Graphic_4">
        <path d="M 159.36851 303.46996 L 143.02952 303.09 L 142.64955 314.86926 L 171.52776 314.86926 Z" fill="#cbcbcb"/>
        <path d="M 159.36851 303.46996 L 143.02952 303.09 L 142.64955 314.86926 L 171.52776 314.86926 Z" stroke="black" stroke-linecap="round" stroke-linejoin="round" stroke-width="4"/>
      </g>
      <g id="Graphic_47">
        <path d="M 668.555 231.61295 C 666.08896 194.1494 672.82736 155.09082 688.7702 126.34405 C 716.3843 76.55198 761.1556 76.55198 788.7697 126.34405 C 816.384 176.13586 816.384 256.86427 788.7697 306.65608 C 761.1556 356.44814 716.3843 356.44814 688.7702 306.65608 C 681.6274 293.7769 676.33225 278.8279 672.8846 262.8798 L 728.4111 247.833 Z" fill="white"/>
        <path d="M 668.555 231.61295 C 666.08896 194.1494 672.82736 155.09082 688.7702 126.34405 C 716.3843 76.55198 761.1556 76.55198 788.7697 126.34405 C 816.384 176.13586 816.384 256.86427 788.7697 306.65608 C 761.1556 356.44814 716.3843 356.44814 688.7702 306.65608 C 681.6274 293.7769 676.33225 278.8279 672.8846 262.8798 L 728.4111 247.833 Z" stroke="black" stroke-linecap="round" stroke-linejoin="round" stroke-width="4"/>
      </g>
      <g id="Graphic_48">
        <ellipse cx="710.8806" cy="172.89933" rx="17.1146608177896" ry="20.3250829702733" fill="white"/>
        <ellipse cx="710.8806" cy="172.89933" rx="17.1146608177896" ry="20.3250829702733" stroke="black" stroke-linecap="round" stroke-linejoin="round" stroke-width="4"/>
      </g>
      <g id="Graphic_49">
        <ellipse cx="703.6902" cy="178.04866" rx="9.92428329546642" ry="11.7859117132597" fill="black"/>
        <ellipse cx="703.6902" cy="178.04866" rx="9.92428329546642" ry="11.7859117132597" stroke="gray" stroke-linecap="round" stroke-linejoin="round" stroke-width="4"/>
      </g>
      <g id="Graphic_53">
        <ellipse cx="373.3401" cy="690.5977" rx="75.66000320677" ry="127.500203732492" fill="white"/>
        <ellipse cx="373.3401" cy="690.5977" rx="75.66000320677" ry="127.500203732492" stroke="black" stroke-linecap="round" stroke-linejoin="round" stroke-width="4"/>
      </g>
      <g id="Graphic_51">
        <ellipse cx="342.10394" cy="647.4227" rx="17.1146608177895" ry="20.3250829702733" fill="white"/>
        <ellipse cx="342.10394" cy="647.4227" rx="17.1146608177895" ry="20.3250829702733" stroke="black" stroke-linecap="round" stroke-linejoin="round" stroke-width="4"/>
      </g>
      <g id="Graphic_52">
        <ellipse cx="334.91358" cy="652.572" rx="9.92428329546646" ry="11.7859117132598" fill="black"/>
        <ellipse cx="334.91358" cy="652.572" rx="9.92428329546646" ry="11.7859117132598" stroke="gray" stroke-linecap="round" stroke-linejoin="round" stroke-width="4"/>
      </g>
      <g id="Graphic_55">
        <ellipse cx="395.10394" cy="649.4227" rx="17.1146608177895" ry="20.3250829702733" fill="white"/>
        <ellipse cx="395.10394" cy="649.4227" rx="17.1146608177895" ry="20.3250829702733" stroke="black" stroke-linecap="round" stroke-linejoin="round" stroke-width="4"/>
      </g>
      <g id="Graphic_56">
        <ellipse cx="387.9136" cy="654.572" rx="9.92428329546645" ry="11.7859117132598" fill="black"/>
        <ellipse cx="387.9136" cy="654.572" rx="9.92428329546645" ry="11.7859117132598" stroke="gray" stroke-linecap="round" stroke-linejoin="round" stroke-width="4"/>
      </g>
      <g id="Line_57">
        <path d="M 333.42353 743.0976 L 349.1354 755.1485 L 380.68024 763.8018" stroke="black" stroke-linecap="round" stroke-linejoin="round" stroke-width="4"/>
      </g>
      <g id="Graphic_63">
        <path d="M 286.97576 610.874 L 285.72314 609.6214 C 283.78684 607.6851 282.69904 605.0589 282.69904 602.3206 L 282.69904 602.3206 C 282.69904 599.58225 283.78684 596.9561 285.72314 595.0198 L 291.25247 589.49044 C 296.9177 583.8252 303.4592 579.11035 310.62523 575.52734 L 343.2406 559.21965 C 348.4821 556.5989 353.9947 554.55966 359.6799 553.13836 L 359.6799 553.13836 C 365.2958 551.7344 371.1709 551.7344 376.7868 553.13836 L 376.7868 553.13836 C 382.472 554.55966 387.9846 556.5989 393.2261 559.21965 L 425.84147 575.52734 C 433.0075 579.11035 439.549 583.8252 445.2142 589.49044 L 450.74356 595.0198 C 452.67986 596.9561 453.76766 599.58225 453.76766 602.3206 L 453.76766 602.3206 C 453.76766 605.0589 452.67986 607.6851 450.74356 609.6214 L 449.49094 610.874 C 447.129 613.236 443.2995 613.236 440.9375 610.874 C 440.9375 610.874 440.9375 610.874 440.9375 610.874 L 440.9375 610.874 C 438.57554 608.51205 438.57554 604.68255 440.9375 602.3206 L 441.4341 601.824 C 443.6031 599.655 443.84716 596.2211 442.0067 593.76715 L 442.0067 593.76715 C 439.8769 590.9274 437.39655 588.36835 434.6247 586.1509 L 433.45326 585.2137 C 429.89927 582.3705 426.05487 579.91076 421.98404 577.87535 L 386.88046 560.32355 C 383.02416 558.3954 378.90123 557.0547 374.6484 556.3459 L 374.6484 556.3459 C 370.401 555.638 366.0657 555.638 361.81828 556.3459 L 361.81828 556.3459 C 357.56547 557.0547 353.44254 558.3954 349.58624 560.32355 L 308.13987 581.04674 C 305.4526 582.3904 302.99954 584.15844 300.87508 586.2829 L 300.87508 586.2829 C 298.7394 588.4186 296.75803 590.7031 294.94586 593.11935 L 294.46 593.76715 C 292.61954 596.2211 292.86357 599.655 295.0326 601.824 L 295.5292 602.3206 C 297.89115 604.68255 297.89115 608.51205 295.5292 610.874 C 295.5292 610.874 295.5292 610.874 295.5292 610.874 L 295.5292 610.874 C 293.16722 613.236 289.33772 613.236 286.97576 610.874 Z" fill="black"/>
        <path d="M 286.97576 610.874 L 285.72314 609.6214 C 283.78684 607.6851 282.69904 605.0589 282.69904 602.3206 L 282.69904 602.3206 C 282.69904 599.58225 283.78684 596.9561 285.72314 595.0198 L 291.25247 589.49044 C 296.9177 583.8252 303.4592 579.11035 310.62523 575.52734 L 343.2406 559.21965 C 348.4821 556.5989 353.9947 554.55966 359.6799 553.13836 L 359.6799 553.13836 C 365.2958 551.7344 371.1709 551.7344 376.7868 553.13836 L 376.7868 553.13836 C 382.472 554.55966 387.9846 556.5989 393.2261 559.21965 L 425.84147 575.52734 C 433.0075 579.11035 439.549 583.8252 445.2142 589.49044 L 450.74356 595.0198 C 452.67986 596.9561 453.76766 599.58225 453.76766 602.3206 L 453.76766 602.3206 C 453.76766 605.0589 452.67986 607.6851 450.74356 609.6214 L 449.49094 610.874 C 447.129 613.236 443.2995 613.236 440.9375 610.874 C 440.9375 610.874 440.9375 610.874 440.9375 610.874 L 440.9375 610.874 C 438.57554 608.51205 438.57554 604.68255 440.9375 602.3206 L 441.4341 601.824 C 443.6031 599.655 443.84716 596.2211 442.0067 593.76715 L 442.0067 593.76715 C 439.8769 590.9274 437.39655 588.36835 434.6247 586.1509 L 433.45326 585.2137 C 429.89927 582.3705 426.05487 579.91076 421.98404 577.87535 L 386.88046 560.32355 C 383.02416 558.3954 378.90123 557.0547 374.6484 556.3459 L 374.6484 556.3459 C 370.401 555.638 366.0657 555.638 361.81828 556.3459 L 361.81828 556.3459 C 357.56547 557.0547 353.44254 558.3954 349.58624 560.32355 L 308.13987 581.04674 C 305.4526 582.3904 302.99954 584.15844 300.87508 586.2829 L 300.87508 586.2829 C 298.7394 588.4186 296.75803 590.7031 294.94586 593.11935 L 294.46 593.76715 C 292.61954 596.2211 292.86357 599.655 295.0326 601.824 L 295.5292 602.3206 C 297.89115 604.68255 297.89115 608.51205 295.5292 610.874 C 295.5292 610.874 295.5292 610.874 295.5292 610.874 L 295.5292 610.874 C 293.16722 613.236 289.33772 613.236 286.97576 610.874 Z" stroke="black" stroke-linecap="round" stroke-linejoin="round" stroke-width="6"/>
      </g>
      <g id="Graphic_62">
        <path d="M 308.44595 707.249 L 277.593 705.0916 C 275.46415 704.9427 275.3778 681.3487 277.40023 652.4264 C 279.42268 623.5041 282.79185 600.15176 284.9207 600.3006 L 315.77364 602.4581 C 317.9025 602.60694 317.98886 626.2009 315.9664 655.1232 C 313.94397 684.0455 310.5748 707.3979 308.44595 707.249" fill="#a5a5a5"/>
        <path d="M 308.44595 707.249 L 277.593 705.0916 C 275.46415 704.9427 275.3778 681.3487 277.40023 652.4264 C 279.42268 623.5041 282.79185 600.15176 284.9207 600.3006 L 315.77364 602.4581 C 317.9025 602.60694 317.98886 626.2009 315.9664 655.1232 C 313.94397 684.0455 310.5748 707.3979 308.44595 707.249 M 277.593 705.0916 C 279.72186 705.2404 283.09103 681.8881 285.11347 652.9658 C 287.1359 624.0435 287.04955 600.4495 284.9207 600.3006" stroke="black" stroke-linecap="round" stroke-linejoin="round" stroke-width="8"/>
      </g>
      <g id="Graphic_61">
        <path d="M 436.60784 606.3673 L 467.4608 608.52474 C 469.58964 608.6736 469.676 632.2676 467.65356 661.1899 C 465.6311 690.1122 462.26194 713.4645 460.1331 713.3157 L 429.28015 711.1582 C 427.1513 711.0094 427.06493 687.4154 429.0874 658.4931 C 431.1098 629.5708 434.479 606.2184 436.60784 606.3673" fill="#a5a5a5"/>
        <path d="M 436.60784 606.3673 L 467.4608 608.52474 C 469.58964 608.6736 469.676 632.2676 467.65356 661.1899 C 465.6311 690.1122 462.26194 713.4645 460.1331 713.3157 L 429.28015 711.1582 C 427.1513 711.0094 427.06493 687.4154 429.0874 658.4931 C 431.1098 629.5708 434.479 606.2184 436.60784 606.3673 M 467.4608 608.52474 C 465.33193 608.3759 461.96277 631.7282 459.9403 660.6505 C 457.9179 689.5728 458.00424 713.1668 460.1331 713.3157" stroke="black" stroke-linecap="round" stroke-linejoin="round" stroke-width="8"/>
      </g>
      <g id="Line_60">
        <path d="M 292.1632 710.1202 L 291.82064 714.3904 C 290.41865 731.8668 275.11466 744.8977 257.63822 743.4957 C 246.55042 742.6062 236.737 735.9783 231.77078 726.0251 L 186.61036 635.5148 C 185.0923 632.4723 181.3952 631.2365 178.3527 632.7546 C 177.08926 633.385 176.0809 634.4305 175.49662 635.7159 C 172.40867 642.5094 164.87382 646.0882 157.65716 644.1891 L 148.4552 641.7675 C 136.20937 638.5449 123.22665 639.6466 111.6989 644.8865 L 106 647.4769" stroke="black" stroke-linecap="round" stroke-linejoin="round" stroke-width="12"/>
      </g>
      <g id="Graphic_65">
        <path d="M 803.3166 545.5514 L 799.3022 550.7609 C 784.677 569.7399 761.7934 580.4966 737.8481 579.64816 L 647.757 576.45594 C 644.9519 576.35655 642.1444 576.34154 639.3384 576.4109 L 603.0701 577.3078 C 586.46834 577.71836 570.7872 569.69726 561.4042 555.9952 L 546.3588 534.0243 C 546.3588 534.0243 520.4869 489.95944 520.5218 488.96005 C 520.5567 487.96065 510.5584 441.71864 510.5584 441.71864 L 526.8142 414.70196 C 537.22404 397.40103 554.0701 384.93447 573.6582 380.0361 L 583.4469 377.58826 C 609.6226 371.04254 637.2305 373.36927 661.9415 384.20357 L 670.34715 387.88897 C 690.2981 396.6363 712.0287 400.56195 733.7791 399.34803 L 739.6114 399.0225 C 756.1468 398.09966 771.6434 407.11213 779.0182 421.9406 L 782.2083 428.355 C 787.924 439.84756 798.1719 448.4372 810.4863 452.0572 L 810.4863 452.0572 C 821.6491 455.33863 828.8326 466.17514 827.5079 477.7346 L 826.2021 489.12824 C 823.8482 509.6676 815.9357 529.1757 803.3166 545.5514 Z" fill="#cbcbcb"/>
        <path d="M 803.3166 545.5514 L 799.3022 550.7609 C 784.677 569.7399 761.7934 580.4966 737.8481 579.64816 L 647.757 576.45594 C 644.9519 576.35655 642.1444 576.34154 639.3384 576.4109 L 603.0701 577.3078 C 586.46834 577.71836 570.7872 569.69726 561.4042 555.9952 L 546.3588 534.0243 C 546.3588 534.0243 520.4869 489.95944 520.5218 488.96005 C 520.5567 487.96065 510.5584 441.71864 510.5584 441.71864 L 526.8142 414.70196 C 537.22404 397.40103 554.0701 384.93447 573.6582 380.0361 L 583.4469 377.58826 C 609.6226 371.04254 637.2305 373.36927 661.9415 384.20357 L 670.34715 387.88897 C 690.2981 396.6363 712.0287 400.56195 733.7791 399.34803 L 739.6114 399.0225 C 756.1468 398.09966 771.6434 407.11213 779.0182 421.9406 L 782.2083 428.355 C 787.924 439.84756 798.1719 448.4372 810.4863 452.0572 L 810.4863 452.0572 C 821.6491 455.33863 828.8326 466.17514 827.5079 477.7346 L 826.2021 489.12824 C 823.8482 509.6676 815.9357 529.1757 803.3166 545.5514 Z" stroke="black" stroke-linecap="round" stroke-linejoin="round" stroke-width="7"/>
      </g>
      <g id="Graphic_66">
        <path d="M 620.6298 583.84844 L 632.8864 587.2372 C 640.4218 589.3206 645.9855 595.7016 647.023 603.4506 L 647.5434 607.33756 C 648.3291 613.2059 650.2778 618.85844 653.2753 623.96424 L 654.2133 625.5619 C 656.4606 629.38986 656.6175 634.09525 654.63014 638.0644 L 651.44344 644.4289 C 651.44344 644.4289 644.4946 656.1875 644.2564 656.30885 C 644.01825 656.4302 634.5034 664.76 634.5034 664.76 L 626.08085 664.4607 C 620.6872 664.26904 615.58976 661.94625 611.90625 658.0017 L 610.0655 656.0305 C 605.1432 650.7593 602.1095 644.0036 601.44015 636.8227 L 601.2125 634.38 C 600.67204 628.5823 598.7738 622.9934 595.6714 618.06585 L 594.8395 616.74455 C 592.481 612.9985 592.5798 608.20776 595.09074 604.5621 L 596.1769 602.9851 C 598.123 600.1596 598.8031 596.6507 598.0536 593.3027 L 598.0536 593.3027 C 597.37416 590.26784 598.97664 587.1842 601.8507 585.99594 L 604.6835 584.82474 C 609.7421 582.7333 615.3539 582.38974 620.6298 583.84844 Z" stroke="black" stroke-linecap="round" stroke-linejoin="round" stroke-width="7"/>
      </g>
      <g id="Graphic_67">
        <path d="M 581.7497 646.0933 L 578.4103 655.4702 C 576.67096 660.3542 571.7979 663.3979 566.6459 662.8182 L 563.8089 662.4989 C 559.8951 662.0585 555.9329 662.5726 552.26113 663.99725 L 551.7916 664.1794 C 548.6524 665.3974 545.09477 664.7416 542.59623 662.4843 L 538.521 658.8026 C 538.521 658.8026 531.0722 651.1626 531.0079 650.95234 C 530.9436 650.7421 526.0142 641.7042 526.0142 641.7042 L 526.8542 635.1092 C 527.39076 630.8965 529.62464 627.0857 533.03836 624.5596 L 533.7827 624.0088 C 537.6768 621.1272 542.56686 619.93436 547.3504 620.69924 L 549.32535 621.015 C 553.1478 621.6262 557.06525 621.13464 560.61815 619.59794 L 560.7674 619.5334 C 563.91496 618.172 567.58206 619.01436 569.82 621.6128 L 571.1998 623.2149 C 572.7138 624.9728 574.9119 625.9929 577.2318 626.0143 L 577.2318 626.0143 C 579.3753 626.0341 581.2286 627.514 581.72226 629.6 L 582.4799 632.8017 C 583.5231 637.20995 583.2695 641.8258 581.7497 646.0933 Z" stroke="black" stroke-linecap="round" stroke-linejoin="round" stroke-width="7"/>
      </g>
      <g id="Graphic_68">
        <path d="M 495.28923 648.8693 L 503.7779 648.64035 C 508.99675 648.4996 513.7955 651.4883 515.971 656.2342 L 517.0622 658.6148 C 518.70966 662.2089 521.0577 665.4382 523.96876 668.1135 L 524.87966 668.9506 C 527.0622 670.9564 528.08105 673.9306 527.58686 676.8533 L 526.7944 681.5398 C 526.7944 681.5398 524.65263 690.40554 524.52424 690.5295 C 524.39584 690.6535 519.94596 697.8306 519.94596 697.8306 L 514.5089 699.2839 C 511.02714 700.2145 507.3184 699.7264 504.196 697.9266 L 502.63563 697.0272 C 498.46313 694.62205 495.20684 690.90015 493.3774 686.4451 L 492.7551 684.9297 C 491.27804 681.3328 488.97464 678.1343 486.0314 675.5933 L 485.2422 674.91195 C 483.0047 672.9802 482.13243 669.90156 483.02414 667.0832 L 483.4099 665.8641 C 484.101 663.67976 483.8502 661.3062 482.71793 659.3145 L 482.71793 659.3145 C 481.69153 657.5091 482.1128 655.227 483.7162 653.9071 L 485.29657 652.6061 C 488.11863 650.2829 491.63525 648.9678 495.28923 648.8693 Z" stroke="black" stroke-linecap="round" stroke-linejoin="round" stroke-width="7"/>
      </g>
      <g id="Graphic_69">
        <circle cx="609.0138" cy="570.2745" r="6.48314581708188" fill="#666"/>
        <circle cx="609.0138" cy="570.2745" r="6.48314581708188" stroke="black" stroke-linecap="round" stroke-linejoin="round" stroke-width="4"/>
      </g>
      <g id="Graphic_70">
        <circle cx="642.4947" cy="570.2745" r="6.48314581708191" fill="#666"/>
        <circle cx="642.4947" cy="570.2745" r="6.48314581708191" stroke="black" stroke-linecap="round" stroke-linejoin="round" stroke-width="4"/>
      </g>
      <g id="Graphic_71">
        <rect x="724.3681" y="492.42206" width="37.2669" height="79.98072" fill="#333"/>
        <rect x="724.3681" y="492.42206" width="37.2669" height="79.98072" stroke="black" stroke-linecap="round" stroke-linejoin="round" stroke-width="7"/>
      </g>
      <g id="Graphic_72">
        <rect x="730.0625" y="509.51195" width="12.966271" height="14.355514" fill="yellow"/>
        <rect x="730.0625" y="509.51195" width="12.966271" height="14.355514" stroke="black" stroke-linecap="round" stroke-linejoin="round" stroke-width="4"/>
      </g>
      <g id="Graphic_73">
        <rect x="730.0625" y="540.95737" width="12.966271" height="14.355514" fill="yellow"/>
        <rect x="730.0625" y="540.95737" width="12.966271" height="14.355514" stroke="black" stroke-linecap="round" stroke-linejoin="round" stroke-width="4"/>
      </g>
      <g id="Graphic_74">
        <rect x="640.2858" y="447.9883" width="37.2669" height="124.41446" fill="#333"/>
        <rect x="640.2858" y="447.9883" width="37.2669" height="124.41446" stroke="black" stroke-linecap="round" stroke-linejoin="round" stroke-width="7"/>
      </g>
      <g id="Graphic_75">
        <rect x="577.39495" y="435" width="37.2669" height="137.40278" fill="#666"/>
        <rect x="577.39495" y="435" width="37.2669" height="137.40278" stroke="black" stroke-linecap="round" stroke-linejoin="round" stroke-width="7"/>
      </g>
      <g id="Graphic_76">
        <rect x="623.5963" y="492.42206" width="37.2669" height="79.98072" fill="#666"/>
        <rect x="623.5963" y="492.42206" width="37.2669" height="79.98072" stroke="black" stroke-linecap="round" stroke-linejoin="round" stroke-width="7"/>
      </g>
      <g id="Graphic_77">
        <rect x="689.7878" y="447.9883" width="37.2669" height="124.41446" fill="#333"/>
        <rect x="689.7878" y="447.9883" width="37.2669" height="124.41446" stroke="black" stroke-linecap="round" stroke-linejoin="round" stroke-width="7"/>
      </g>
      <g id="Graphic_78">
        <rect x="577.39495" y="456.1915" width="12.966271" height="14.355514" fill="yellow"/>
        <rect x="577.39495" y="456.1915" width="12.966271" height="14.355514" stroke="black" stroke-linecap="round" stroke-linejoin="round" stroke-width="4"/>
      </g>
      <g id="Graphic_79">
        <rect x="577.1107" y="475.33216" width="12.966271" height="14.355514" fill="yellow"/>
        <rect x="577.1107" y="475.33216" width="12.966271" height="14.355514" stroke="black" stroke-linecap="round" stroke-linejoin="round" stroke-width="4"/>
      </g>
      <g id="Graphic_80">
        <rect x="577.1107" y="503.0178" width="12.966271" height="14.355514" fill="yellow"/>
        <rect x="577.1107" y="503.0178" width="12.966271" height="14.355514" stroke="black" stroke-linecap="round" stroke-linejoin="round" stroke-width="4"/>
      </g>
      <g id="Graphic_81">
        <rect x="593.11766" y="503.0178" width="12.966271" height="14.355514" fill="yellow"/>
        <rect x="593.11766" y="503.0178" width="12.966271" height="14.355514" stroke="black" stroke-linecap="round" stroke-linejoin="round" stroke-width="4"/>
      </g>
      <g id="Graphic_82">
        <rect x="593.11766" y="475.33216" width="12.966271" height="14.355514" fill="yellow"/>
        <rect x="593.11766" y="475.33216" width="12.966271" height="14.355514" stroke="black" stroke-linecap="round" stroke-linejoin="round" stroke-width="4"/>
      </g>
      <g id="Graphic_83">
        <rect x="593.11766" y="533.7796" width="12.966271" height="14.355514" fill="yellow"/>
        <rect x="593.11766" y="533.7796" width="12.966271" height="14.355514" stroke="black" stroke-linecap="round" stroke-linejoin="round" stroke-width="4"/>
      </g>
      <g id="Graphic_84">
        <rect x="593.11766" y="533.7796" width="12.966271" height="14.355514" fill="yellow"/>
        <rect x="593.11766" y="533.7796" width="12.966271" height="14.355514" stroke="black" stroke-linecap="round" stroke-linejoin="round" stroke-width="4"/>
      </g>
      <g id="Graphic_85">
        <rect x="623.5963" y="509.51195" width="12.966271" height="14.355514" fill="yellow"/>
        <rect x="623.5963" y="509.51195" width="12.966271" height="14.355514" stroke="black" stroke-linecap="round" stroke-linejoin="round" stroke-width="4"/>
      </g>
      <g id="Graphic_86">
        <rect x="645.7417" y="540.95737" width="12.966271" height="14.355514" fill="yellow"/>
        <rect x="645.7417" y="540.95737" width="12.966271" height="14.355514" stroke="black" stroke-linecap="round" stroke-linejoin="round" stroke-width="4"/>
      </g>
      <g id="Graphic_87">
        <rect x="646.43814" y="509.51195" width="12.966271" height="14.355514" fill="yellow"/>
        <rect x="646.43814" y="509.51195" width="12.966271" height="14.355514" stroke="black" stroke-linecap="round" stroke-linejoin="round" stroke-width="4"/>
      </g>
      <g id="Graphic_88">
        <rect x="645.7417" y="463.71103" width="12.966271" height="14.355514" fill="yellow"/>
        <rect x="645.7417" y="463.71103" width="12.966271" height="14.355514" stroke="black" stroke-linecap="round" stroke-linejoin="round" stroke-width="4"/>
      </g>
      <g id="Graphic_89">
        <rect x="645.7417" y="463.71103" width="12.966271" height="14.355514" fill="yellow"/>
        <rect x="645.7417" y="463.71103" width="12.966271" height="14.355514" stroke="black" stroke-linecap="round" stroke-linejoin="round" stroke-width="4"/>
      </g>
      <g id="Graphic_90">
        <rect x="691.465" y="453.4571" width="12.966271" height="14.355514" fill="yellow"/>
        <rect x="691.465" y="453.4571" width="12.966271" height="14.355514" stroke="black" stroke-linecap="round" stroke-linejoin="round" stroke-width="4"/>
      </g>
      <g id="Graphic_91">
        <rect x="691.1807" y="472.5978" width="12.966271" height="14.355514" fill="yellow"/>
        <rect x="691.1807" y="472.5978" width="12.966271" height="14.355514" stroke="black" stroke-linecap="round" stroke-linejoin="round" stroke-width="4"/>
      </g>
      <g id="Graphic_92">
        <rect x="691.1807" y="500.2834" width="12.966271" height="14.355514" fill="yellow"/>
        <rect x="691.1807" y="500.2834" width="12.966271" height="14.355514" stroke="black" stroke-linecap="round" stroke-linejoin="round" stroke-width="4"/>
      </g>
      <g id="Graphic_93">
        <rect x="707.1877" y="500.2834" width="12.966271" height="14.355514" fill="yellow"/>
        <rect x="707.1877" y="500.2834" width="12.966271" height="14.355514" stroke="black" stroke-linecap="round" stroke-linejoin="round" stroke-width="4"/>
      </g>
      <g id="Graphic_94">
        <rect x="707.1877" y="472.5978" width="12.966271" height="14.355514" fill="yellow"/>
        <rect x="707.1877" y="472.5978" width="12.966271" height="14.355514" stroke="black" stroke-linecap="round" stroke-linejoin="round" stroke-width="4"/>
      </g>
      <g id="Graphic_95">
        <rect x="707.1877" y="531.0452" width="12.966271" height="14.355514" fill="yellow"/>
        <rect x="707.1877" y="531.0452" width="12.966271" height="14.355514" stroke="black" stroke-linecap="round" stroke-linejoin="round" stroke-width="4"/>
      </g>
      <g id="Graphic_96">
        <rect x="699.7586" y="509.51195" width="37.2669" height="62.890824" fill="#666"/>
        <rect x="699.7586" y="509.51195" width="37.2669" height="62.890824" stroke="black" stroke-linecap="round" stroke-linejoin="round" stroke-width="7"/>
      </g>
      <g id="Graphic_97">
        <rect x="707.1877" y="531.0452" width="12.966271" height="14.355514" fill="yellow"/>
        <rect x="707.1877" y="531.0452" width="12.966271" height="14.355514" stroke="black" stroke-linecap="round" stroke-linejoin="round" stroke-width="4"/>
      </g>
      <g id="Graphic_98">
        <rect x="707.1877" y="453.4571" width="12.966271" height="14.355514" fill="yellow"/>
        <rect x="707.1877" y="453.4571" width="12.966271" height="14.355514" stroke="black" stroke-linecap="round" stroke-linejoin="round" stroke-width="4"/>
      </g>
      <g id="Graphic_99">
        <rect x="745.34" y="540.95737" width="12.966271" height="14.355514" fill="yellow"/>
        <rect x="745.34" y="540.95737" width="12.966271" height="14.355514" stroke="black" stroke-linecap="round" stroke-linejoin="round" stroke-width="4"/>
      </g>
      <g id="Graphic_100">
        <rect x="746.0365" y="509.51195" width="12.966271" height="14.355514" fill="yellow"/>
        <rect x="746.0365" y="509.51195" width="12.966271" height="14.355514" stroke="black" stroke-linecap="round" stroke-linejoin="round" stroke-width="4"/>
      </g>
      <g id="Graphic_101">
        <path d="M 593.34636 570.7416 L 593.34636 560.3162 L 605.75755 560.3162 L 613.2043 553.36594 L 642.9911 553.36594 L 650.9343 562.302 L 660.8632 564.7842 L 660.8632 571.23805 L 640.5089 571.7345 Z" fill="blue"/>
        <path d="M 593.34636 570.7416 L 593.34636 560.3162 L 605.75755 560.3162 L 613.2043 553.36594 L 642.9911 553.36594 L 650.9343 562.302 L 660.8632 564.7842 L 660.8632 571.23805 L 640.5089 571.7345 Z" stroke="black" stroke-linecap="round" stroke-linejoin="round" stroke-width="5"/>
      </g>
      <g id="Graphic_102">
        <path d="M 643.984 554.3588 L 633.3104 554.1106 L 633.0622 561.80554 L 651.9272 561.80554 Z" fill="#cbcbcb"/>
        <path d="M 643.984 554.3588 L 633.3104 554.1106 L 633.0622 561.80554 L 651.9272 561.80554 Z" stroke="black" stroke-linecap="round" stroke-linejoin="round" stroke-width="4"/>
      </g>
    </g>
  </g>
</svg>
