<?xml version="1.0" encoding="UTF-8" standalone="no"?>
<!DOCTYPE svg PUBLIC "-//W3C//DTD SVG 1.1//EN" "http://www.w3.org/Graphics/SVG/1.1/DTD/svg11.dtd">
<svg xmlns:dc="http://purl.org/dc/elements/1.1/" xmlns="http://www.w3.org/2000/svg" version="1.1" xmlns:xl="http://www.w3.org/1999/xlink" viewBox="0 0 850.394 850.394" width="850.394" height="850.394">
  <defs/>
  <metadata> Produced by OmniGraffle 7.9.4 
    <dc:date>2019-03-31 08:51:03 +0000</dc:date>
  </metadata>
  <g id="banana_plug" stroke-dasharray="none" stroke-opacity="1" fill-opacity="1" fill="none" stroke="none">
    <title>banana plug</title>
    <g id="banana_plug: Layer 1">
      <title>Layer 1</title>
      <g id="Line_5">
        <path d="M 542 499 C 597.3913 558.6882 673.81806 624.8726 708.1905 678.08254 C 742.563 731.2925 741.5786 794.9258 748.2554 818.2916 L 748.2554 818.2916" stroke="black" stroke-linecap="round" stroke-linejoin="round" stroke-width="24"/>
      </g>
      <g id="Graphic_7"/>
      <g id="Graphic_8">
        <path d="M 324.593 346.95798 L 388.9397 282.61126 C 396.551 274.99996 431.352 324.3164 484.0456 377.01 C 536.7392 429.7036 587.46985 465.9188 579.85855 473.5301 L 565.056 495.6325 C 557.7885 506.484 548.4657 515.8068 537.61425 523.0743 L 515.51183 537.8768 C 507.90054 545.4881 473.09957 500.4143 420.40597 447.7207 C 367.71237 395.0271 316.9817 354.56928 324.593 346.95798 Z" fill="red"/>
        <path d="M 324.593 346.95798 L 388.9397 282.61126 C 396.551 274.99996 431.352 324.3164 484.0456 377.01 C 536.7392 429.7036 587.46985 465.9188 579.85855 473.5301 L 565.056 495.6325 C 557.7885 506.484 548.4657 515.8068 537.61425 523.0743 L 515.51183 537.8768 C 507.90054 545.4881 473.09957 500.4143 420.40597 447.7207 C 367.71237 395.0271 316.9817 354.56928 324.593 346.95798 Z" stroke="black" stroke-linecap="round" stroke-linejoin="round" stroke-width="7"/>
      </g>
      <g id="Graphic_9">
        <path d="M 378.1123 286.9235 C 394.5428 276.5681 399.46767 281.49295 389.11227 297.92348 C 378.75696 314.35395 357.0428 336.0681 340.61233 346.42342 C 324.1818 356.77882 319.25694 351.85396 329.61234 335.42343 C 339.96765 318.99296 361.6818 297.2788 378.1123 286.9235" fill="red"/>
        <path d="M 378.1123 286.9235 C 394.5428 276.5681 399.46767 281.49295 389.11227 297.92348 C 378.75696 314.35395 357.0428 336.0681 340.61233 346.42342 C 324.1818 356.77882 319.25694 351.85396 329.61234 335.42343 C 339.96765 318.99296 361.6818 297.2788 378.1123 286.9235" stroke="black" stroke-linecap="round" stroke-linejoin="round" stroke-width="7"/>
      </g>
      <g id="Graphic_10">
        <circle cx="483.8131" cy="441.12425" r="20.000031958038" fill="yellow"/>
        <circle cx="483.8131" cy="441.12425" r="20.000031958038" stroke="black" stroke-linecap="round" stroke-linejoin="round" stroke-width="5"/>
      </g>
      <g id="Graphic_11">
        <circle cx="422.4341" cy="379.74526" r="20.0000319580379" fill="maroon"/>
        <circle cx="422.4341" cy="379.74526" r="20.0000319580379" stroke="black" stroke-linecap="round" stroke-linejoin="round" stroke-width="5"/>
      </g>
      <g id="Graphic_19">
        <path d="M 331.48558 328.51006 L 332.32374 329.54973 C 335.34713 333.3 340.4275 334.70104 344.9458 333.03057 L 351.4374 330.63053 C 360.4592 327.29504 367.8529 320.618 372.08774 311.98174 L 374.8121 306.42583 C 377.62093 300.6977 375.42883 293.77345 369.8353 290.70538 L 361.22487 285.98254 C 361.2036 285.9709 361.19584 285.9442 361.2075 285.92296 C 361.2187 285.90254 361.2439 285.89442 361.2649 285.90448 L 361.2649 285.90448 C 361.71227 286.11848 361.90145 286.65462 361.68744 287.10198 C 361.61755 287.24808 361.50945 287.37255 361.3746 287.46222 L 333.33786 306.10336 C 329.82172 308.44117 327.64824 312.33068 327.49994 316.55046 L 327.49994 316.55046 C 327.34755 320.8865 328.7625 325.1323 331.48558 328.51006 Z" fill="#c9ca00"/>
        <path d="M 331.48558 328.51006 L 332.32374 329.54973 C 335.34713 333.3 340.4275 334.70104 344.9458 333.03057 L 351.4374 330.63053 C 360.4592 327.29504 367.8529 320.618 372.08774 311.98174 L 374.8121 306.42583 C 377.62093 300.6977 375.42883 293.77345 369.8353 290.70538 L 361.22487 285.98254 C 361.2036 285.9709 361.19584 285.9442 361.2075 285.92296 C 361.2187 285.90254 361.2439 285.89442 361.2649 285.90448 L 361.2649 285.90448 C 361.71227 286.11848 361.90145 286.65462 361.68744 287.10198 C 361.61755 287.24808 361.50945 287.37255 361.3746 287.46222 L 333.33786 306.10336 C 329.82172 308.44117 327.64824 312.33068 327.49994 316.55046 L 327.49994 316.55046 C 327.34755 320.8865 328.7625 325.1323 331.48558 328.51006 Z" stroke="black" stroke-linecap="round" stroke-linejoin="round" stroke-width="5"/>
      </g>
      <g id="Graphic_18">
        <path d="M 323.91558 313.78417 L 323.91558 313.78417 C 325.017 319.2019 330.01293 322.9273 335.5197 322.43723 L 340.0528 322.0338 C 343.6979 321.7094 347.18893 320.41178 350.16093 318.27656 L 350.16093 318.27656 C 353.159 316.1226 355.7101 313.40674 357.67244 310.27988 L 361.4562 304.2507 C 363.709 300.661 364.20013 296.23936 362.79 292.2428 L 362.4548 291.29286 C 361.23327 287.83087 358.77833 284.9407 355.55956 283.1752 L 353.36823 281.97326 C 351.54405 280.9727 349.4494 280.5768 347.38588 280.84263 L 347.38588 280.84263 C 345.3304 281.1074 343.4262 282.06386 341.98656 283.55467 L 328.7254 297.287 C 324.5037 301.6587 322.70483 307.8286 323.91558 313.78417 Z" fill="yellow"/>
        <path d="M 323.91558 313.78417 L 323.91558 313.78417 C 325.017 319.2019 330.01293 322.9273 335.5197 322.43723 L 340.0528 322.0338 C 343.6979 321.7094 347.18893 320.41178 350.16093 318.27656 L 350.16093 318.27656 C 353.159 316.1226 355.7101 313.40674 357.67244 310.27988 L 361.4562 304.2507 C 363.709 300.661 364.20013 296.23936 362.79 292.2428 L 362.4548 291.29286 C 361.23327 287.83087 358.77833 284.9407 355.55956 283.1752 L 353.36823 281.97326 C 351.54405 280.9727 349.4494 280.5768 347.38588 280.84263 L 347.38588 280.84263 C 345.3304 281.1074 343.4262 282.06386 341.98656 283.55467 L 328.7254 297.287 C 324.5037 301.6587 322.70483 307.8286 323.91558 313.78417 Z" stroke="black" stroke-linecap="round" stroke-linejoin="round" stroke-width="5"/>
      </g>
      <g id="Graphic_16">
        <path d="M 231.6044 161.1964 C 240.96293 159.3759 255.32566 199.15533 253.8329 208.57169 C 252.34017 217.98803 262.25918 200.5188 252.90067 202.33924 C 243.54215 204.15973 210.46374 190.95874 211.95651 181.54239 C 213.44924 172.12604 222.2459 163.01684 231.6044 161.1964 Z" fill="yellow"/>
        <path d="M 231.6044 161.1964 C 240.96293 159.3759 255.32566 199.15533 253.8329 208.57169 C 252.34017 217.98803 262.25918 200.5188 252.90067 202.33924 C 243.54215 204.15973 210.46374 190.95874 211.95651 181.54239 C 213.44924 172.12604 222.2459 163.01684 231.6044 161.1964 Z" stroke="black" stroke-linecap="round" stroke-linejoin="round" stroke-width="5"/>
      </g>
      <g id="Graphic_15">
        <path d="M 323.48 253.50565 C 317.5639 247.38472 312.4536 240.53343 308.27304 233.11798 L 300.07474 218.57585 C 293.79224 207.43197 284.69508 198.13206 273.69236 191.6055 L 267.72695 188.06695 C 260.56446 183.81832 254.20777 178.33928 248.94918 171.88178 L 246.51332 168.89057 C 244.38432 166.27617 240.53902 165.88267 237.92462 168.01168 C 237.3701 168.46324 236.89924 169.00872 236.5335 169.62324 L 236.5335 169.62324 C 233.59196 174.56567 229.60333 178.80365 224.84813 182.03913 L 221.93334 184.02238 C 217.3822 187.119 216.2031 193.31873 219.29973 197.86985 C 219.68395 198.43454 220.1252 198.95824 220.6165 199.4327 L 221.1505 199.94837 C 227.34225 205.92767 232.50383 212.88866 236.42682 220.55026 L 239.6541 226.85315 C 245.6585 238.57976 254.52307 248.6029 265.4279 255.99553 L 277.3256 264.06123 C 284.05223 268.62136 290.1979 273.98445 295.62668 280.03185 L 317.98324 304.93607 C 322.0596 309.47696 328.7407 310.5821 334.06217 307.59574 L 334.3486 307.435 C 340.15555 304.1762 345.17042 299.6741 349.03435 294.25093 C 352.43495 289.47804 351.94727 282.9586 347.87444 278.74474 L 323.48 253.50565 Z M 245.45997 215.08277 L 264.88214 233.83854 L 284.37836 256.8363 L 255.75286 237.53397 Z M 301.05016 239.57216 L 281.628 220.81638 L 262.13177 197.8186 L 290.75727 217.12096 Z" fill="#ffff40"/>
        <path d="M 323.48 253.50565 C 317.5639 247.38472 312.4536 240.53343 308.27304 233.11798 L 300.07474 218.57585 C 293.79224 207.43197 284.69508 198.13206 273.69236 191.6055 L 267.72695 188.06695 C 260.56446 183.81832 254.20777 178.33928 248.94918 171.88178 L 246.51332 168.89057 C 244.38432 166.27617 240.53902 165.88267 237.92462 168.01168 C 237.3701 168.46324 236.89924 169.00872 236.5335 169.62324 L 236.5335 169.62324 C 233.59196 174.56567 229.60333 178.80365 224.84813 182.03913 L 221.93334 184.02238 C 217.3822 187.119 216.2031 193.31873 219.29973 197.86985 C 219.68395 198.43454 220.1252 198.95824 220.6165 199.4327 L 221.1505 199.94837 C 227.34225 205.92767 232.50383 212.88866 236.42682 220.55026 L 239.6541 226.85315 C 245.6585 238.57976 254.52307 248.6029 265.4279 255.99553 L 277.3256 264.06123 C 284.05223 268.62136 290.1979 273.98445 295.62668 280.03185 L 317.98324 304.93607 C 322.0596 309.47696 328.7407 310.5821 334.06217 307.59574 L 334.3486 307.435 C 340.15555 304.1762 345.17042 299.6741 349.03435 294.25093 C 352.43495 289.47804 351.94727 282.9586 347.87444 278.74474 L 323.48 253.50565 Z M 245.45997 215.08277 L 264.88214 233.83854 L 284.37836 256.8363 L 255.75286 237.53397 Z M 301.05016 239.57216 L 281.628 220.81638 L 262.13177 197.8186 L 290.75727 217.12096 Z" stroke="black" stroke-linecap="round" stroke-linejoin="round" stroke-width="5"/>
      </g>
      <g id="Line_17">
        <path d="M 298.61528 282.40114 L 308.5698 279.11988 C 314.3652 277.20958 319.03822 272.86505 321.36512 267.224 L 323.0041 263.25068 C 324.28886 260.1361 324.13044 256.61277 322.57134 253.62606 L 322.57134 253.62606" stroke="black" stroke-linecap="round" stroke-linejoin="round" stroke-width="3"/>
      </g>
      <g id="Line_21">
        <line x1="474" y1="431" x2="494.7077" y2="451.7077" stroke="#807e00" stroke-linecap="round" stroke-linejoin="round" stroke-width="4"/>
      </g>
      <g id="Line_22">
        <line x1="491.2414" y1="431" x2="474" y2="448.2414" stroke="#807e00" stroke-linecap="round" stroke-linejoin="round" stroke-width="4"/>
      </g>
    </g>
  </g>
</svg>
