<?xml version="1.0" encoding="UTF-8" standalone="no"?>
<!DOCTYPE svg PUBLIC "-//W3C//DTD SVG 1.1//EN" "http://www.w3.org/Graphics/SVG/1.1/DTD/svg11.dtd">
<svg xmlns="http://www.w3.org/2000/svg" version="1.1" xmlns:dc="http://purl.org/dc/elements/1.1/" xmlns:xl="http://www.w3.org/1999/xlink" viewBox="0 0 850.394 850.394" width="850.394" height="850.394">
  <defs/>
  <metadata> Produced by OmniGraffle 7.9.4 
    <dc:date>2019-03-11 12:51:27 +0000</dc:date>
  </metadata>
  <g id="barrel_jack" fill="none" stroke-opacity="1" fill-opacity="1" stroke-dasharray="none" stroke="none">
    <title>barrel jack</title>
    <g id="barrel_jack: Layer 1">
      <title>Layer 1</title>
      <g id="Line_7">
        <path d="M 432.76604 395.93436 C 509.5017 474.0414 614.40186 576.79824 662.9961 630.2789 C 711.5903 683.75955 716.4532 696.6077 724.3605 716.8504 C 732.2678 737.0931 705.3499 735.5574 710.4447 751.7474 C 715.5395 767.9374 740.10475 793.2512 754.93255 814" stroke="black" stroke-linecap="round" stroke-linejoin="round" stroke-width="60"/>
      </g>
      <g id="Graphic_6">
        <path d="M 205.13776 114.27767 L 426.43803 335.57795 C 431.12433 340.26424 431.12433 347.8622 426.43803 352.5485 L 390.0485 388.93803 C 385.36222 393.6243 377.76424 393.6243 373.07795 388.93803 C 373.07795 388.93803 373.07795 388.93803 373.07795 388.93803 L 151.77768 167.63776 C 147.09139 162.95146 147.09139 155.35348 151.77768 150.6672 L 188.1672 114.27767 C 192.8535 109.59138 200.45147 109.59138 205.13776 114.27767 C 205.13776 114.27767 205.13776 114.27767 205.13776 114.27767 Z" fill="#e6e6e6"/>
        <path d="M 205.13776 114.27767 L 426.43803 335.57795 C 431.12433 340.26424 431.12433 347.8622 426.43803 352.5485 L 390.0485 388.93803 C 385.36222 393.6243 377.76424 393.6243 373.07795 388.93803 C 373.07795 388.93803 373.07795 388.93803 373.07795 388.93803 L 151.77768 167.63776 C 147.09139 162.95146 147.09139 155.35348 151.77768 150.6672 L 188.1672 114.27767 C 192.8535 109.59138 200.45147 109.59138 205.13776 114.27767 C 205.13776 114.27767 205.13776 114.27767 205.13776 114.27767 Z" stroke="black" stroke-linecap="round" stroke-linejoin="round" stroke-width="2"/>
      </g>
      <g id="Graphic_5">
        <path d="M 164.08723 73.22714 L 369.83115 278.97106 C 378.8132 287.95312 378.8132 302.5159 369.83115 311.49797 L 348.998 332.33114 C 340.01592 341.3132 325.45313 341.3132 316.47107 332.33114 C 316.47107 332.33114 316.47107 332.33114 316.47107 332.33114 L 110.72714 126.58722 C 101.74509 117.60516 101.74509 103.04237 110.72714 94.06031 L 131.56031 73.22714 C 140.54237 64.24508 155.10517 64.24508 164.08723 73.22714 C 164.08723 73.22714 164.08723 73.22714 164.08723 73.22714 Z" fill="#e6e6e6"/>
        <path d="M 164.08723 73.22714 L 369.83115 278.97106 C 378.8132 287.95312 378.8132 302.5159 369.83115 311.49797 L 348.998 332.33114 C 340.01592 341.3132 325.45313 341.3132 316.47107 332.33114 C 316.47107 332.33114 316.47107 332.33114 316.47107 332.33114 L 110.72714 126.58722 C 101.74509 117.60516 101.74509 103.04237 110.72714 94.06031 L 131.56031 73.22714 C 140.54237 64.24508 155.10517 64.24508 164.08723 73.22714 C 164.08723 73.22714 164.08723 73.22714 164.08723 73.22714 Z" stroke="black" stroke-linecap="round" stroke-linejoin="round" stroke-width="8"/>
      </g>
      <g id="Graphic_4">
        <path d="M 312.43525 195.62473 L 462.7896 345.97908 C 467.4759 350.66537 467.4759 358.26335 462.7896 362.94964 L 401.28945 424.4498 C 396.60316 429.1361 389.0052 429.1361 384.3189 424.4498 L 233.96454 274.09544 C 229.27825 269.40915 229.27825 261.81117 233.96454 257.12487 L 295.4647 195.62473 C 300.15098 190.93844 307.74895 190.93844 312.43525 195.62473 Z" fill="black"/>
        <path d="M 312.43525 195.62473 L 462.7896 345.97908 C 467.4759 350.66537 467.4759 358.26335 462.7896 362.94964 L 401.28945 424.4498 C 396.60316 429.1361 389.0052 429.1361 384.3189 424.4498 L 233.96454 274.09544 C 229.27825 269.40915 229.27825 261.81117 233.96454 257.12487 L 295.4647 195.62473 C 300.15098 190.93844 307.74895 190.93844 312.43525 195.62473 Z" stroke="black" stroke-linecap="round" stroke-linejoin="round" stroke-width="2"/>
      </g>
    </g>
    <g id="barrel_jack: Layer 2">
      <title>Layer 2</title>
      <g id="Line_13">
        <path d="M 109.20727 124.67517 L 116.10403 109.48896 C 117.94033 105.44555 120.48954 101.76573 123.6297 98.62557 L 137.07375 85.18152 C 141.6006 80.65467 147.22458 77.37983 153.39593 75.67713 L 162.55364 73.15048" stroke="black" stroke-linecap="round" stroke-linejoin="round" stroke-width="10"/>
      </g>
    </g>
  </g>
</svg>
