<?xml version="1.0" encoding="UTF-8" standalone="no"?>
<!DOCTYPE svg PUBLIC "-//W3C//DTD SVG 1.1//EN" "http://www.w3.org/Graphics/SVG/1.1/DTD/svg11.dtd">
<svg xmlns:xl="http://www.w3.org/1999/xlink" version="1.1" xmlns:dc="http://purl.org/dc/elements/1.1/" xmlns="http://www.w3.org/2000/svg" viewBox="0 0 850.394 850.394" width="850.394" height="850.394">
  <defs/>
  <metadata> Produced by OmniGraffle 7.9.4 
    <dc:date>2019-05-06 23:09:47 +0000</dc:date>
  </metadata>
  <g id="Canvas_205" fill="none" stroke-opacity="1" fill-opacity="1" stroke="none" stroke-dasharray="none">
    <title>Canvas 205</title>
    <g id="Canvas_205: Layer 1">
      <title>Layer 1</title>
      <g id="Graphic_5">
        <path d="M 68.21422 656.6295 C 64.007184 642.80646 71.80247 635.0112 85.62548 639.2182 C 99.44847 643.4252 114.06463 658.0413 118.27159 671.8643 C 122.47863 685.6873 114.68335 693.4826 100.86033 689.2756 C 87.03734 685.0686 72.421185 670.4525 68.21422 656.6295" fill="#601c0b"/>
        <path d="M 68.21422 656.6295 C 64.007184 642.80646 71.80247 635.0112 85.62548 639.2182 C 99.44847 643.4252 114.06463 658.0413 118.27159 671.8643 C 122.47863 685.6873 114.68335 693.4826 100.86033 689.2756 C 87.03734 685.0686 72.421185 670.4525 68.21422 656.6295" stroke="black" stroke-linecap="round" stroke-linejoin="round" stroke-width="5"/>
      </g>
      <g id="Graphic_6">
        <path d="M 129.73952 683.4628 L 133.59866 682.35884 C 148.005 678.23775 159.19278 666.8602 163.07098 652.3866 L 163.07098 652.3866 C 167.00617 637.7002 177.62633 625.72375 191.7365 620.0601 L 191.7365 620.0601 C 201.66668 616.07426 206.48552 604.7931 202.49967 594.8629 C 201.9731 593.55104 201.30454 592.3007 200.50592 591.1343 L 181.0904 562.7773 C 174.68093 553.41605 161.89623 551.02316 152.53498 557.43263 C 150.34229 558.9339 148.46171 560.8464 146.99751 563.06404 L 142.06717 570.5314 C 134.44588 582.07435 122.55131 590.117 109.00014 592.89004 L 109.00014 592.89004 C 95.64649 595.6227 84.30243 604.36746 78.26108 616.5859 L 76.91891 619.30035 C 70.21302 632.8628 71.63204 649.03306 80.59758 661.2202 L 85.96835 668.5209 C 96.00203 682.16005 113.46026 688.11965 129.73952 683.4628 Z" fill="#632d1a"/>
        <path d="M 129.73952 683.4628 L 133.59866 682.35884 C 148.005 678.23775 159.19278 666.8602 163.07098 652.3866 L 163.07098 652.3866 C 167.00617 637.7002 177.62633 625.72375 191.7365 620.0601 L 191.7365 620.0601 C 201.66668 616.07426 206.48552 604.7931 202.49967 594.8629 C 201.9731 593.55104 201.30454 592.3007 200.50592 591.1343 L 181.0904 562.7773 C 174.68093 553.41605 161.89623 551.02316 152.53498 557.43263 C 150.34229 558.9339 148.46171 560.8464 146.99751 563.06404 L 142.06717 570.5314 C 134.44588 582.07435 122.55131 590.117 109.00014 592.89004 L 109.00014 592.89004 C 95.64649 595.6227 84.30243 604.36746 78.26108 616.5859 L 76.91891 619.30035 C 70.21302 632.8628 71.63204 649.03306 80.59758 661.2202 L 85.96835 668.5209 C 96.00203 682.16005 113.46026 688.11965 129.73952 683.4628 Z" stroke="black" stroke-linecap="round" stroke-linejoin="round" stroke-width="6"/>
      </g>
      <g id="Graphic_4">
        <path d="M 161.23988 567.16905 C 160.69722 551.0452 171.3571 544.8907 185.04943 553.4226 C 198.74174 561.9544 210.28141 581.9417 210.824 598.0655 C 211.36668 614.1893 200.7068 620.3438 187.01447 611.8119 C 173.32215 603.2801 161.78248 583.29284 161.23988 567.16905" fill="#4b1e03"/>
        <path d="M 161.23988 567.16905 C 160.69722 551.0452 171.3571 544.8907 185.04943 553.4226 C 198.74174 561.9544 210.28141 581.9417 210.824 598.0655 C 211.36668 614.1893 200.7068 620.3438 187.01447 611.8119 C 173.32215 603.2801 161.78248 583.29284 161.23988 567.16905" stroke="black" stroke-linecap="round" stroke-linejoin="round" stroke-width="5"/>
      </g>
      <g id="Graphic_2">
        <path d="M 199.38013 585.7648 L 741.5502 157.80282 C 745.0383 155.04952 748.4232 152.168 751.698 149.16418 L 793.1981 111.09792 C 794.3391 110.05131 794.4157 108.27788 793.3691 107.13686 C 792.3877 106.06697 790.7519 105.92329 789.59905 106.80571 L 219.77247 542.9662 C 213.59064 547.6979 207.10835 552.02364 200.36645 555.9161 L 186.82535 563.73404 C 180.29055 567.5069 178.05156 575.8629 181.82443 582.3977 C 181.82443 582.3977 181.82443 582.3977 181.82443 582.3977 L 181.82443 582.3977 C 185.08765 588.0498 192.31491 589.9863 197.96698 586.7231 C 198.46052 586.4382 198.9328 586.1179 199.38013 585.7648 Z" fill="white"/>
        <path d="M 199.38013 585.7648 L 741.5502 157.80282 C 745.0383 155.04952 748.4232 152.168 751.698 149.16418 L 793.1981 111.09792 C 794.3391 110.05131 794.4157 108.27788 793.3691 107.13686 C 792.3877 106.06697 790.7519 105.92329 789.59905 106.80571 L 219.77247 542.9662 C 213.59064 547.6979 207.10835 552.02364 200.36645 555.9161 L 186.82535 563.73404 C 180.29055 567.5069 178.05156 575.8629 181.82443 582.3977 C 181.82443 582.3977 181.82443 582.3977 181.82443 582.3977 L 181.82443 582.3977 C 185.08765 588.0498 192.31491 589.9863 197.96698 586.7231 C 198.46052 586.4382 198.9328 586.1179 199.38013 585.7648 Z" stroke="black" stroke-linecap="round" stroke-linejoin="round" stroke-width="6"/>
      </g>
    </g>
  </g>
</svg>
