<?xml version="1.0" encoding="UTF-8" standalone="no"?>
<!DOCTYPE svg PUBLIC "-//W3C//DTD SVG 1.1//EN" "http://www.w3.org/Graphics/SVG/1.1/DTD/svg11.dtd">
<svg version="1.1" xmlns="http://www.w3.org/2000/svg" xmlns:xl="http://www.w3.org/1999/xlink" xmlns:dc="http://purl.org/dc/elements/1.1/" viewBox="0 0 850.394 850.394" width="850.394" height="850.394">
  <defs/>
  <metadata> Produced by OmniGraffle 7.9.4 
    <dc:date>2019-04-03 10:39:35 +0000</dc:date>
  </metadata>
  <g id="Bela" stroke-opacity="1" fill="none" stroke-dasharray="none" stroke="none" fill-opacity="1">
    <title>Bela</title>
    <g id="Bela: Layer 2">
      <title>Layer 2</title>
      <g id="Graphic_4">
        <path d="M 457.10316 28.11905 L 729.31185 185.27881 C 761.51025 203.86857 765.0475 245.71637 765.0475 245.71637 C 765.0475 245.71637 749.42365 285.15253 651.9616 453.9617 C 554.4996 622.7709 460.1842 779.0587 460.1842 779.0587 L 421.5141 796.538 C 421.5141 796.538 392.78825 807.5108 360.58985 788.9211 L 120.54913 651.3542 C 88.35073 632.7644 79.31629 579.5776 79.31629 579.5776 L 80.6824 543.6227 C 80.6824 543.6227 124.74903 469.0649 222.21106 300.25572 C 319.6731 131.44652 388.54426 26.300786 388.54426 26.300786 C 388.54426 26.300786 424.90476 9.529294 457.10316 28.11905 Z" fill="#666"/>
        <path d="M 457.10316 28.11905 L 729.31185 185.27881 C 761.51025 203.86857 765.0475 245.71637 765.0475 245.71637 C 765.0475 245.71637 749.42365 285.15253 651.9616 453.9617 C 554.4996 622.7709 460.1842 779.0587 460.1842 779.0587 L 421.5141 796.538 C 421.5141 796.538 392.78825 807.5108 360.58985 788.9211 L 120.54913 651.3542 C 88.35073 632.7644 79.31629 579.5776 79.31629 579.5776 L 80.6824 543.6227 C 80.6824 543.6227 124.74903 469.0649 222.21106 300.25572 C 319.6731 131.44652 388.54426 26.300786 388.54426 26.300786 C 388.54426 26.300786 424.90476 9.529294 457.10316 28.11905 Z" stroke="black" stroke-linecap="round" stroke-linejoin="round" stroke-width="7"/>
      </g>
      <g id="Graphic_113">
        <path d="M 383.00784 125.16984 L 413.76855 142.92954 C 422.68165 148.07552 427.5214 158.16548 425.95586 168.33768 L 425.469 171.50095 C 424.102 180.38317 425.75283 189.46724 430.15756 197.30056 L 430.15756 197.30056 C 434.6094 205.21766 441.0902 211.8057 448.9332 216.38682 L 577.2739 291.35112 C 584.1512 295.3682 592.4134 296.26772 599.99406 293.82473 L 599.99406 293.82473 C 607.8788 291.28375 615.2755 287.4241 621.8697 282.40995 L 623.7328 280.99326 C 630.9085 275.53694 640.6438 274.877 648.4902 279.315 L 710.5512 314.4174 C 717.288 318.2278 725.8237 316.1931 730.1171 309.7533 L 735.3081 301.9672 C 736.9234 299.5443 738.4053 297.03502 739.747 294.45055 L 753.4707 268.0159 C 760.8377 253.82545 761.81635 237.17006 756.16195 222.21448 L 756.16195 222.21448 C 750.409 206.99824 739.6632 194.18431 725.682 185.86832 L 468.72795 33.032802 C 459.5179 27.554687 449.3011 23.982767 438.68406 22.52907 L 418.86866 19.815922 C 412.0682 18.884797 405.1456 20.0544 399.02854 23.167996 L 399.02854 23.167996 C 392.89226 26.291367 387.77296 31.098498 384.2702 37.02639 L 367.3737 65.62103 C 355.2036 86.21697 362.0341 112.77908 382.63005 124.94917 C 382.7556 125.02336 382.88154 125.09692 383.00784 125.16984 Z" fill="#333"/>
        <path d="M 383.00784 125.16984 L 413.76855 142.92954 C 422.68165 148.07552 427.5214 158.16548 425.95586 168.33768 L 425.469 171.50095 C 424.102 180.38317 425.75283 189.46724 430.15756 197.30056 L 430.15756 197.30056 C 434.6094 205.21766 441.0902 211.8057 448.9332 216.38682 L 577.2739 291.35112 C 584.1512 295.3682 592.4134 296.26772 599.99406 293.82473 L 599.99406 293.82473 C 607.8788 291.28375 615.2755 287.4241 621.8697 282.40995 L 623.7328 280.99326 C 630.9085 275.53694 640.6438 274.877 648.4902 279.315 L 710.5512 314.4174 C 717.288 318.2278 725.8237 316.1931 730.1171 309.7533 L 735.3081 301.9672 C 736.9234 299.5443 738.4053 297.03502 739.747 294.45055 L 753.4707 268.0159 C 760.8377 253.82545 761.81635 237.17006 756.16195 222.21448 L 756.16195 222.21448 C 750.409 206.99824 739.6632 194.18431 725.682 185.86832 L 468.72795 33.032802 C 459.5179 27.554687 449.3011 23.982767 438.68406 22.52907 L 418.86866 19.815922 C 412.0682 18.884797 405.1456 20.0544 399.02854 23.167996 L 399.02854 23.167996 C 392.89226 26.291367 387.77296 31.098498 384.2702 37.02639 L 367.3737 65.62103 C 355.2036 86.21697 362.0341 112.77908 382.63005 124.94917 C 382.7556 125.02336 382.88154 125.09692 383.00784 125.16984 Z" stroke="black" stroke-linecap="round" stroke-linejoin="round" stroke-width="7"/>
      </g>
      <g id="Graphic_5">
        <path d="M 545.3051 80.06311 L 673.9076 154.31182 L 602.31065 278.3214 L 473.7081 204.0727 Z" fill="#ccc"/>
        <path d="M 545.3051 80.06311 L 673.9076 154.31182 L 602.31065 278.3214 L 473.7081 204.0727 Z" stroke="black" stroke-linecap="round" stroke-linejoin="round" stroke-width="7"/>
      </g>
      <g id="Graphic_6">
        <path d="M 150.95744 593.38194 L 202.55722 623.1731 L 173.83004 672.93 L 122.23026 643.1389 Z" fill="white"/>
        <path d="M 150.95744 593.38194 L 202.55722 623.1731 L 173.83004 672.93 L 122.23026 643.1389 Z" stroke="black" stroke-linecap="round" stroke-linejoin="round" stroke-width="7"/>
      </g>
      <g id="Graphic_7">
        <path d="M 224.4446 635.8098 L 276.0444 665.6009 L 247.3172 715.35786 L 195.71742 685.5667 Z" fill="white"/>
        <path d="M 224.4446 635.8098 L 276.0444 665.6009 L 247.3172 715.35786 L 195.71742 685.5667 Z" stroke="black" stroke-linecap="round" stroke-linejoin="round" stroke-width="7"/>
      </g>
      <g id="Graphic_8">
        <path d="M 331.41343 127.0221 L 348.25424 136.74514 L 338.5312 153.58595 L 321.6904 143.8629 Z" fill="#333"/>
        <path d="M 331.41343 127.0221 L 348.25424 136.74514 L 338.5312 153.58595 L 321.6904 143.8629 Z" stroke="black" stroke-linecap="round" stroke-linejoin="round" stroke-width="7"/>
      </g>
      <g id="Graphic_9">
        <path d="M 348.25424 136.74514 L 365.09505 146.46819 L 355.372 163.309 L 338.5312 153.58595 Z" fill="#333"/>
        <path d="M 348.25424 136.74514 L 365.09505 146.46819 L 355.372 163.309 L 338.5312 153.58595 Z" stroke="black" stroke-linecap="round" stroke-linejoin="round" stroke-width="7"/>
      </g>
      <g id="Graphic_10">
        <path d="M 321.6904 143.8629 L 338.5312 153.58595 L 328.80815 170.42676 L 311.96734 160.70372 Z" fill="#333"/>
        <path d="M 321.6904 143.8629 L 338.5312 153.58595 L 328.80815 170.42676 L 311.96734 160.70372 Z" stroke="black" stroke-linecap="round" stroke-linejoin="round" stroke-width="7"/>
      </g>
      <g id="Graphic_11">
        <path d="M 338.5312 153.58595 L 355.372 163.309 L 345.64896 180.1498 L 328.80815 170.42676 Z" fill="#333"/>
        <path d="M 338.5312 153.58595 L 355.372 163.309 L 345.64896 180.1498 L 328.80815 170.42676 Z" stroke="black" stroke-linecap="round" stroke-linejoin="round" stroke-width="7"/>
      </g>
      <g id="Graphic_12">
        <path d="M 309.75756 164.53117 L 326.59837 174.25422 L 316.87532 191.09502 L 300.0345 181.37198 Z" fill="#333"/>
        <path d="M 309.75756 164.53117 L 326.59837 174.25422 L 316.87532 191.09502 L 300.0345 181.37198 Z" stroke="black" stroke-linecap="round" stroke-linejoin="round" stroke-width="7"/>
      </g>
      <g id="Graphic_13">
        <path d="M 326.59837 174.25422 L 343.43918 183.97726 L 333.71613 200.81807 L 316.87532 191.09502 Z" fill="#333"/>
        <path d="M 326.59837 174.25422 L 343.43918 183.97726 L 333.71613 200.81807 L 316.87532 191.09502 Z" stroke="black" stroke-linecap="round" stroke-linejoin="round" stroke-width="7"/>
      </g>
      <g id="Graphic_14">
        <path d="M 300.0345 181.37198 L 316.87532 191.09502 L 307.15228 207.93583 L 290.31147 198.21279 Z" fill="#333"/>
        <path d="M 300.0345 181.37198 L 316.87532 191.09502 L 307.15228 207.93583 L 290.31147 198.21279 Z" stroke="black" stroke-linecap="round" stroke-linejoin="round" stroke-width="7"/>
      </g>
      <g id="Graphic_15">
        <path d="M 316.87532 191.09502 L 333.71613 200.81807 L 323.9931 217.65888 L 307.15228 207.93583 Z" fill="#333"/>
        <path d="M 316.87532 191.09502 L 333.71613 200.81807 L 323.9931 217.65888 L 307.15228 207.93583 Z" stroke="black" stroke-linecap="round" stroke-linejoin="round" stroke-width="7"/>
      </g>
      <g id="Graphic_16">
        <path d="M 290.31147 198.21279 L 307.15228 207.93583 L 297.42923 224.77664 L 280.58843 215.0536 Z" fill="#333"/>
        <path d="M 290.31147 198.21279 L 307.15228 207.93583 L 297.42923 224.77664 L 280.58843 215.0536 Z" stroke="black" stroke-linecap="round" stroke-linejoin="round" stroke-width="7"/>
      </g>
      <g id="Graphic_17">
        <path d="M 307.15228 207.93583 L 323.9931 217.65888 L 314.27004 234.49969 L 297.42923 224.77664 Z" fill="#333"/>
        <path d="M 307.15228 207.93583 L 323.9931 217.65888 L 314.27004 234.49969 L 297.42923 224.77664 Z" stroke="black" stroke-linecap="round" stroke-linejoin="round" stroke-width="7"/>
      </g>
      <g id="Graphic_18">
        <path d="M 280.58843 215.0536 L 297.42923 224.77664 L 287.7062 241.61745 L 270.86538 231.8944 Z" fill="#333"/>
        <path d="M 280.58843 215.0536 L 297.42923 224.77664 L 287.7062 241.61745 L 270.86538 231.8944 Z" stroke="black" stroke-linecap="round" stroke-linejoin="round" stroke-width="7"/>
      </g>
      <g id="Graphic_19">
        <path d="M 297.42923 224.77664 L 314.27004 234.49969 L 304.547 251.3405 L 287.7062 241.61745 Z" fill="#333"/>
        <path d="M 297.42923 224.77664 L 314.27004 234.49969 L 304.547 251.3405 L 287.7062 241.61745 Z" stroke="black" stroke-linecap="round" stroke-linejoin="round" stroke-width="7"/>
      </g>
      <g id="Graphic_20">
        <path d="M 268.6556 235.72186 L 285.4964 245.4449 L 275.77336 262.2857 L 258.93255 252.56267 Z" fill="#333"/>
        <path d="M 268.6556 235.72186 L 285.4964 245.4449 L 275.77336 262.2857 L 258.93255 252.56267 Z" stroke="black" stroke-linecap="round" stroke-linejoin="round" stroke-width="7"/>
      </g>
      <g id="Graphic_21">
        <path d="M 285.4964 245.4449 L 302.3372 255.16795 L 292.61417 272.00876 L 275.77336 262.2857 Z" fill="#333"/>
        <path d="M 285.4964 245.4449 L 302.3372 255.16795 L 292.61417 272.00876 L 275.77336 262.2857 Z" stroke="black" stroke-linecap="round" stroke-linejoin="round" stroke-width="7"/>
      </g>
      <g id="Graphic_22">
        <path d="M 258.93255 252.56267 L 275.77336 262.2857 L 266.05032 279.12652 L 249.2095 269.40348 Z" fill="#333"/>
        <path d="M 258.93255 252.56267 L 275.77336 262.2857 L 266.05032 279.12652 L 249.2095 269.40348 Z" stroke="black" stroke-linecap="round" stroke-linejoin="round" stroke-width="7"/>
      </g>
      <g id="Graphic_23">
        <path d="M 275.77336 262.2857 L 292.61417 272.00876 L 282.89112 288.84957 L 266.05032 279.12652 Z" fill="#333"/>
        <path d="M 275.77336 262.2857 L 292.61417 272.00876 L 282.89112 288.84957 L 266.05032 279.12652 Z" stroke="black" stroke-linecap="round" stroke-linejoin="round" stroke-width="7"/>
      </g>
      <g id="Graphic_24">
        <path d="M 246.99973 273.23093 L 263.84053 282.95398 L 254.1175 299.7948 L 237.27668 290.07174 Z" fill="#333"/>
        <path d="M 246.99973 273.23093 L 263.84053 282.95398 L 254.1175 299.7948 L 237.27668 290.07174 Z" stroke="black" stroke-linecap="round" stroke-linejoin="round" stroke-width="7"/>
      </g>
      <g id="Graphic_25">
        <path d="M 263.84053 282.95398 L 280.68134 292.67702 L 270.9583 309.51783 L 254.1175 299.7948 Z" fill="#333"/>
        <path d="M 263.84053 282.95398 L 280.68134 292.67702 L 270.9583 309.51783 L 254.1175 299.7948 Z" stroke="black" stroke-linecap="round" stroke-linejoin="round" stroke-width="7"/>
      </g>
      <g id="Graphic_26">
        <path d="M 237.27668 290.07174 L 254.1175 299.7948 L 244.39444 316.6356 L 227.55364 306.91255 Z" fill="#333"/>
        <path d="M 237.27668 290.07174 L 254.1175 299.7948 L 244.39444 316.6356 L 227.55364 306.91255 Z" stroke="black" stroke-linecap="round" stroke-linejoin="round" stroke-width="7"/>
      </g>
      <g id="Graphic_27">
        <path d="M 254.1175 299.7948 L 270.9583 309.51783 L 261.23525 326.35864 L 244.39444 316.6356 Z" fill="#333"/>
        <path d="M 254.1175 299.7948 L 270.9583 309.51783 L 261.23525 326.35864 L 244.39444 316.6356 Z" stroke="black" stroke-linecap="round" stroke-linejoin="round" stroke-width="7"/>
      </g>
      <g id="Graphic_28">
        <path d="M 225.34385 310.74 L 242.18466 320.46305 L 232.46162 337.30386 L 215.6208 327.5808 Z" fill="#333"/>
        <path d="M 225.34385 310.74 L 242.18466 320.46305 L 232.46162 337.30386 L 215.6208 327.5808 Z" stroke="black" stroke-linecap="round" stroke-linejoin="round" stroke-width="7"/>
      </g>
      <g id="Graphic_29">
        <path d="M 242.18466 320.46305 L 259.02547 330.1861 L 249.30242 347.0269 L 232.46162 337.30386 Z" fill="#333"/>
        <path d="M 242.18466 320.46305 L 259.02547 330.1861 L 249.30242 347.0269 L 232.46162 337.30386 Z" stroke="black" stroke-linecap="round" stroke-linejoin="round" stroke-width="7"/>
      </g>
      <g id="Graphic_30">
        <path d="M 215.6208 327.5808 L 232.46162 337.30386 L 222.73857 354.14467 L 205.89776 344.4216 Z" fill="#333"/>
        <path d="M 215.6208 327.5808 L 232.46162 337.30386 L 222.73857 354.14467 L 205.89776 344.4216 Z" stroke="black" stroke-linecap="round" stroke-linejoin="round" stroke-width="7"/>
      </g>
      <g id="Graphic_31">
        <path d="M 232.46162 337.30386 L 249.30242 347.0269 L 239.57938 363.8677 L 222.73857 354.14467 Z" fill="#333"/>
        <path d="M 232.46162 337.30386 L 249.30242 347.0269 L 239.57938 363.8677 L 222.73857 354.14467 Z" stroke="black" stroke-linecap="round" stroke-linejoin="round" stroke-width="7"/>
      </g>
      <g id="Graphic_32">
        <path d="M 205.89776 344.4216 L 222.73857 354.14467 L 213.01553 370.98547 L 196.17472 361.26243 Z" fill="#333"/>
        <path d="M 205.89776 344.4216 L 222.73857 354.14467 L 213.01553 370.98547 L 196.17472 361.26243 Z" stroke="black" stroke-linecap="round" stroke-linejoin="round" stroke-width="7"/>
      </g>
      <g id="Graphic_33">
        <path d="M 222.73857 354.14467 L 239.57938 363.8677 L 229.85633 380.7085 L 213.01553 370.98547 Z" fill="#333"/>
        <path d="M 222.73857 354.14467 L 239.57938 363.8677 L 229.85633 380.7085 L 213.01553 370.98547 Z" stroke="black" stroke-linecap="round" stroke-linejoin="round" stroke-width="7"/>
      </g>
      <g id="Graphic_34">
        <path d="M 196.17472 361.26243 L 213.01553 370.98547 L 203.29248 387.8263 L 186.45167 378.10324 Z" fill="#333"/>
        <path d="M 196.17472 361.26243 L 213.01553 370.98547 L 203.29248 387.8263 L 186.45167 378.10324 Z" stroke="black" stroke-linecap="round" stroke-linejoin="round" stroke-width="7"/>
      </g>
      <g id="Graphic_35">
        <path d="M 213.01553 370.98547 L 229.85633 380.7085 L 220.1333 397.54933 L 203.29248 387.8263 Z" fill="#333"/>
        <path d="M 213.01553 370.98547 L 229.85633 380.7085 L 220.1333 397.54933 L 203.29248 387.8263 Z" stroke="black" stroke-linecap="round" stroke-linejoin="round" stroke-width="7"/>
      </g>
      <g id="Graphic_36">
        <path d="M 184.2419 381.9307 L 201.0827 391.65374 L 191.35965 408.49455 L 174.51884 398.7715 Z" fill="#333"/>
        <path d="M 184.2419 381.9307 L 201.0827 391.65374 L 191.35965 408.49455 L 174.51884 398.7715 Z" stroke="black" stroke-linecap="round" stroke-linejoin="round" stroke-width="7"/>
      </g>
      <g id="Graphic_37">
        <path d="M 201.0827 391.65374 L 217.9235 401.3768 L 208.20046 418.2176 L 191.35965 408.49455 Z" fill="#333"/>
        <path d="M 201.0827 391.65374 L 217.9235 401.3768 L 208.20046 418.2176 L 191.35965 408.49455 Z" stroke="black" stroke-linecap="round" stroke-linejoin="round" stroke-width="7"/>
      </g>
      <g id="Graphic_38">
        <path d="M 174.51884 398.7715 L 191.35965 408.49455 L 181.6366 425.33535 L 164.7958 415.6123 Z" fill="#333"/>
        <path d="M 174.51884 398.7715 L 191.35965 408.49455 L 181.6366 425.33535 L 164.7958 415.6123 Z" stroke="black" stroke-linecap="round" stroke-linejoin="round" stroke-width="7"/>
      </g>
      <g id="Graphic_39">
        <path d="M 191.35965 408.49455 L 208.20046 418.2176 L 198.47742 435.0584 L 181.6366 425.33535 Z" fill="#333"/>
        <path d="M 191.35965 408.49455 L 208.20046 418.2176 L 198.47742 435.0584 L 181.6366 425.33535 Z" stroke="black" stroke-linecap="round" stroke-linejoin="round" stroke-width="7"/>
      </g>
      <g id="Graphic_53">
        <path d="M 164.7958 415.6123 L 181.6366 425.33535 L 171.91356 442.17616 L 155.07275 432.4531 Z" fill="#333"/>
        <path d="M 164.7958 415.6123 L 181.6366 425.33535 L 171.91356 442.17616 L 155.07275 432.4531 Z" stroke="black" stroke-linecap="round" stroke-linejoin="round" stroke-width="7"/>
      </g>
      <g id="Graphic_54">
        <path d="M 181.6366 425.33535 L 198.47742 435.0584 L 188.75437 451.8992 L 171.91356 442.17616 Z" fill="#333"/>
        <path d="M 181.6366 425.33535 L 198.47742 435.0584 L 188.75437 451.8992 L 171.91356 442.17616 Z" stroke="black" stroke-linecap="round" stroke-linejoin="round" stroke-width="7"/>
      </g>
      <g id="Graphic_55">
        <path d="M 155.07275 432.4531 L 171.91356 442.17616 L 162.19052 459.01697 L 145.34971 449.2939 Z" fill="#333"/>
        <path d="M 155.07275 432.4531 L 171.91356 442.17616 L 162.19052 459.01697 L 145.34971 449.2939 Z" stroke="black" stroke-linecap="round" stroke-linejoin="round" stroke-width="7"/>
      </g>
      <g id="Graphic_56">
        <path d="M 171.91356 442.17616 L 188.75437 451.8992 L 179.03133 468.74 L 162.19052 459.01697 Z" fill="#333"/>
        <path d="M 171.91356 442.17616 L 188.75437 451.8992 L 179.03133 468.74 L 162.19052 459.01697 Z" stroke="black" stroke-linecap="round" stroke-linejoin="round" stroke-width="7"/>
      </g>
      <g id="Graphic_57">
        <path d="M 145.34971 449.2939 L 162.19052 459.01697 L 152.46747 475.8578 L 135.62666 466.13473 Z" fill="#333"/>
        <path d="M 145.34971 449.2939 L 162.19052 459.01697 L 152.46747 475.8578 L 135.62666 466.13473 Z" stroke="black" stroke-linecap="round" stroke-linejoin="round" stroke-width="7"/>
      </g>
      <g id="Graphic_58">
        <path d="M 162.19052 459.01697 L 179.03133 468.74 L 169.30828 485.5808 L 152.46747 475.8578 Z" fill="#333"/>
        <path d="M 162.19052 459.01697 L 179.03133 468.74 L 169.30828 485.5808 L 152.46747 475.8578 Z" stroke="black" stroke-linecap="round" stroke-linejoin="round" stroke-width="7"/>
      </g>
      <g id="Graphic_59">
        <path d="M 135.62666 466.13473 L 152.46747 475.8578 L 142.74443 492.6986 L 125.90362 482.97554 Z" fill="#333"/>
        <path d="M 135.62666 466.13473 L 152.46747 475.8578 L 142.74443 492.6986 L 125.90362 482.97554 Z" stroke="black" stroke-linecap="round" stroke-linejoin="round" stroke-width="7"/>
      </g>
      <g id="Graphic_60">
        <path d="M 152.46747 475.8578 L 169.30828 485.5808 L 159.58524 502.42163 L 142.74443 492.6986 Z" fill="#333"/>
        <path d="M 152.46747 475.8578 L 169.30828 485.5808 L 159.58524 502.42163 L 142.74443 492.6986 Z" stroke="black" stroke-linecap="round" stroke-linejoin="round" stroke-width="7"/>
      </g>
      <g id="Graphic_61">
        <path d="M 123.69384 486.803 L 140.53464 496.52604 L 130.8116 513.36685 L 113.97079 503.6438 Z" fill="#333"/>
        <path d="M 123.69384 486.803 L 140.53464 496.52604 L 130.8116 513.36685 L 113.97079 503.6438 Z" stroke="black" stroke-linecap="round" stroke-linejoin="round" stroke-width="7"/>
      </g>
      <g id="Graphic_62">
        <path d="M 140.53464 496.52604 L 157.37545 506.2491 L 147.6524 523.0899 L 130.8116 513.36685 Z" fill="#333"/>
        <path d="M 140.53464 496.52604 L 157.37545 506.2491 L 147.6524 523.0899 L 130.8116 513.36685 Z" stroke="black" stroke-linecap="round" stroke-linejoin="round" stroke-width="7"/>
      </g>
      <g id="Graphic_63">
        <path d="M 113.97079 503.6438 L 130.8116 513.36685 L 121.08855 530.20766 L 104.24775 520.4846 Z" fill="#333"/>
        <path d="M 113.97079 503.6438 L 130.8116 513.36685 L 121.08855 530.20766 L 104.24775 520.4846 Z" stroke="black" stroke-linecap="round" stroke-linejoin="round" stroke-width="7"/>
      </g>
      <g id="Graphic_64">
        <path d="M 130.8116 513.36685 L 147.6524 523.0899 L 137.92936 539.9307 L 121.08855 530.20766 Z" fill="#333"/>
        <path d="M 130.8116 513.36685 L 147.6524 523.0899 L 137.92936 539.9307 L 121.08855 530.20766 Z" stroke="black" stroke-linecap="round" stroke-linejoin="round" stroke-width="7"/>
      </g>
      <g id="Graphic_65">
        <path d="M 104.24775 520.4846 L 121.08855 530.20766 L 111.36551 547.04847 L 94.5247 537.3254 Z" fill="#333"/>
        <path d="M 104.24775 520.4846 L 121.08855 530.20766 L 111.36551 547.04847 L 94.5247 537.3254 Z" stroke="black" stroke-linecap="round" stroke-linejoin="round" stroke-width="7"/>
      </g>
      <g id="Graphic_66">
        <path d="M 121.08855 530.20766 L 137.92936 539.9307 L 128.20632 556.7715 L 111.36551 547.04847 Z" fill="#333"/>
        <path d="M 121.08855 530.20766 L 137.92936 539.9307 L 128.20632 556.7715 L 111.36551 547.04847 Z" stroke="black" stroke-linecap="round" stroke-linejoin="round" stroke-width="7"/>
      </g>
      <g id="Graphic_67">
        <path d="M 673.6747 329.73002 L 690.5155 339.45307 L 680.7925 356.29387 L 663.9517 346.57083 Z" fill="#333"/>
        <path d="M 673.6747 329.73002 L 690.5155 339.45307 L 680.7925 356.29387 L 663.9517 346.57083 Z" stroke="black" stroke-linecap="round" stroke-linejoin="round" stroke-width="7"/>
      </g>
      <g id="Graphic_68">
        <path d="M 690.5155 339.45307 L 707.3563 349.1761 L 697.6333 366.0169 L 680.7925 356.29387 Z" fill="#333"/>
        <path d="M 690.5155 339.45307 L 707.3563 349.1761 L 697.6333 366.0169 L 680.7925 356.29387 Z" stroke="black" stroke-linecap="round" stroke-linejoin="round" stroke-width="7"/>
      </g>
      <g id="Graphic_69">
        <path d="M 663.9517 346.57083 L 680.7925 356.29387 L 671.06944 373.1347 L 654.2286 363.41164 Z" fill="#333"/>
        <path d="M 663.9517 346.57083 L 680.7925 356.29387 L 671.06944 373.1347 L 654.2286 363.41164 Z" stroke="black" stroke-linecap="round" stroke-linejoin="round" stroke-width="7"/>
      </g>
      <g id="Graphic_70">
        <path d="M 680.7925 356.29387 L 697.6333 366.0169 L 687.91025 382.85773 L 671.06944 373.1347 Z" fill="#333"/>
        <path d="M 680.7925 356.29387 L 697.6333 366.0169 L 687.91025 382.85773 L 671.06944 373.1347 Z" stroke="black" stroke-linecap="round" stroke-linejoin="round" stroke-width="7"/>
      </g>
      <g id="Graphic_71">
        <path d="M 652.01885 367.2391 L 668.85966 376.96214 L 659.1366 393.80295 L 642.2958 384.0799 Z" fill="#333"/>
        <path d="M 652.01885 367.2391 L 668.85966 376.96214 L 659.1366 393.80295 L 642.2958 384.0799 Z" stroke="black" stroke-linecap="round" stroke-linejoin="round" stroke-width="7"/>
      </g>
      <g id="Graphic_72">
        <path d="M 668.85966 376.96214 L 685.7005 386.6852 L 675.9774 403.526 L 659.1366 393.80295 Z" fill="#333"/>
        <path d="M 668.85966 376.96214 L 685.7005 386.6852 L 675.9774 403.526 L 659.1366 393.80295 Z" stroke="black" stroke-linecap="round" stroke-linejoin="round" stroke-width="7"/>
      </g>
      <g id="Graphic_73">
        <path d="M 642.2958 384.0799 L 659.1366 393.80295 L 649.4136 410.64375 L 632.57276 400.9207 Z" fill="#333"/>
        <path d="M 642.2958 384.0799 L 659.1366 393.80295 L 649.4136 410.64375 L 632.57276 400.9207 Z" stroke="black" stroke-linecap="round" stroke-linejoin="round" stroke-width="7"/>
      </g>
      <g id="Graphic_74">
        <path d="M 659.1366 393.80295 L 675.9774 403.526 L 666.2544 420.3668 L 649.4136 410.64375 Z" fill="#333"/>
        <path d="M 659.1366 393.80295 L 675.9774 403.526 L 666.2544 420.3668 L 649.4136 410.64375 Z" stroke="black" stroke-linecap="round" stroke-linejoin="round" stroke-width="7"/>
      </g>
      <g id="Graphic_75">
        <path d="M 632.57276 400.9207 L 649.4136 410.64375 L 639.6905 427.48456 L 622.8497 417.7615 Z" fill="#333"/>
        <path d="M 632.57276 400.9207 L 649.4136 410.64375 L 639.6905 427.48456 L 622.8497 417.7615 Z" stroke="black" stroke-linecap="round" stroke-linejoin="round" stroke-width="7"/>
      </g>
      <g id="Graphic_76">
        <path d="M 649.4136 410.64375 L 666.2544 420.3668 L 656.5313 437.2076 L 639.6905 427.48456 Z" fill="#333"/>
        <path d="M 649.4136 410.64375 L 666.2544 420.3668 L 656.5313 437.2076 L 639.6905 427.48456 Z" stroke="black" stroke-linecap="round" stroke-linejoin="round" stroke-width="7"/>
      </g>
      <g id="Graphic_77">
        <path d="M 622.8497 417.7615 L 639.6905 427.48456 L 629.9675 444.32537 L 613.1267 434.6023 Z" fill="#333"/>
        <path d="M 622.8497 417.7615 L 639.6905 427.48456 L 629.9675 444.32537 L 613.1267 434.6023 Z" stroke="black" stroke-linecap="round" stroke-linejoin="round" stroke-width="7"/>
      </g>
      <g id="Graphic_78">
        <path d="M 639.6905 427.48456 L 656.5313 437.2076 L 646.8083 454.0484 L 629.9675 444.32537 Z" fill="#333"/>
        <path d="M 639.6905 427.48456 L 656.5313 437.2076 L 646.8083 454.0484 L 629.9675 444.32537 Z" stroke="black" stroke-linecap="round" stroke-linejoin="round" stroke-width="7"/>
      </g>
      <g id="Graphic_79">
        <path d="M 610.9169 438.4298 L 627.7577 448.15283 L 618.03465 464.99363 L 601.19384 455.2706 Z" fill="#333"/>
        <path d="M 610.9169 438.4298 L 627.7577 448.15283 L 618.03465 464.99363 L 601.19384 455.2706 Z" stroke="black" stroke-linecap="round" stroke-linejoin="round" stroke-width="7"/>
      </g>
      <g id="Graphic_80">
        <path d="M 627.7577 448.15283 L 644.5985 457.87587 L 634.87546 474.7167 L 618.03465 464.99363 Z" fill="#333"/>
        <path d="M 627.7577 448.15283 L 644.5985 457.87587 L 634.87546 474.7167 L 618.03465 464.99363 Z" stroke="black" stroke-linecap="round" stroke-linejoin="round" stroke-width="7"/>
      </g>
      <g id="Graphic_81">
        <path d="M 601.19384 455.2706 L 618.03465 464.99363 L 608.3116 481.83444 L 591.4708 472.1114 Z" fill="#333"/>
        <path d="M 601.19384 455.2706 L 618.03465 464.99363 L 608.3116 481.83444 L 591.4708 472.1114 Z" stroke="black" stroke-linecap="round" stroke-linejoin="round" stroke-width="7"/>
      </g>
      <g id="Graphic_82">
        <path d="M 618.03465 464.99363 L 634.87546 474.7167 L 625.1524 491.5575 L 608.3116 481.83444 Z" fill="#333"/>
        <path d="M 618.03465 464.99363 L 634.87546 474.7167 L 625.1524 491.5575 L 608.3116 481.83444 Z" stroke="black" stroke-linecap="round" stroke-linejoin="round" stroke-width="7"/>
      </g>
      <g id="Graphic_83">
        <path d="M 589.261 475.93885 L 606.1018 485.6619 L 596.3788 502.5027 L 579.538 492.77966 Z" fill="#333"/>
        <path d="M 589.261 475.93885 L 606.1018 485.6619 L 596.3788 502.5027 L 579.538 492.77966 Z" stroke="black" stroke-linecap="round" stroke-linejoin="round" stroke-width="7"/>
      </g>
      <g id="Graphic_84">
        <path d="M 606.1018 485.6619 L 622.9426 495.38494 L 613.2196 512.22575 L 596.3788 502.5027 Z" fill="#333"/>
        <path d="M 606.1018 485.6619 L 622.9426 495.38494 L 613.2196 512.22575 L 596.3788 502.5027 Z" stroke="black" stroke-linecap="round" stroke-linejoin="round" stroke-width="7"/>
      </g>
      <g id="Graphic_85">
        <path d="M 579.538 492.77966 L 596.3788 502.5027 L 586.6557 519.3435 L 569.8149 509.6205 Z" fill="#333"/>
        <path d="M 579.538 492.77966 L 596.3788 502.5027 L 586.6557 519.3435 L 569.8149 509.6205 Z" stroke="black" stroke-linecap="round" stroke-linejoin="round" stroke-width="7"/>
      </g>
      <g id="Graphic_86">
        <path d="M 596.3788 502.5027 L 613.2196 512.22575 L 603.49654 529.06656 L 586.6557 519.3435 Z" fill="#333"/>
        <path d="M 596.3788 502.5027 L 613.2196 512.22575 L 603.49654 529.06656 L 586.6557 519.3435 Z" stroke="black" stroke-linecap="round" stroke-linejoin="round" stroke-width="7"/>
      </g>
      <g id="Graphic_87">
        <path d="M 567.60514 513.4479 L 584.44595 523.171 L 574.7229 540.0118 L 557.8821 530.28873 Z" fill="#333"/>
        <path d="M 567.60514 513.4479 L 584.44595 523.171 L 574.7229 540.0118 L 557.8821 530.28873 Z" stroke="black" stroke-linecap="round" stroke-linejoin="round" stroke-width="7"/>
      </g>
      <g id="Graphic_88">
        <path d="M 584.44595 523.171 L 601.28676 532.894 L 591.5637 549.7348 L 574.7229 540.0118 Z" fill="#333"/>
        <path d="M 584.44595 523.171 L 601.28676 532.894 L 591.5637 549.7348 L 574.7229 540.0118 Z" stroke="black" stroke-linecap="round" stroke-linejoin="round" stroke-width="7"/>
      </g>
      <g id="Graphic_89">
        <path d="M 557.8821 530.28873 L 574.7229 540.0118 L 564.99986 556.8526 L 548.15905 547.12954 Z" fill="#333"/>
        <path d="M 557.8821 530.28873 L 574.7229 540.0118 L 564.99986 556.8526 L 548.15905 547.12954 Z" stroke="black" stroke-linecap="round" stroke-linejoin="round" stroke-width="7"/>
      </g>
      <g id="Graphic_90">
        <path d="M 574.7229 540.0118 L 591.5637 549.7348 L 581.8407 566.5756 L 564.99986 556.8526 Z" fill="#333"/>
        <path d="M 574.7229 540.0118 L 591.5637 549.7348 L 581.8407 566.5756 L 564.99986 556.8526 Z" stroke="black" stroke-linecap="round" stroke-linejoin="round" stroke-width="7"/>
      </g>
      <g id="Graphic_91">
        <path d="M 549.0251 547.62954 L 564.13383 556.3526 C 564.6121 556.6287 564.776 557.2403 564.49986 557.7186 L 555.7768 572.8274 C 555.5007 573.30566 554.8891 573.46954 554.4108 573.1934 L 539.302 564.47035 C 538.82374 564.1942 538.65986 563.5826 538.936 563.1043 L 547.65905 547.9956 C 547.9352 547.5173 548.5468 547.3534 549.0251 547.62954 C 549.0251 547.62954 549.0251 547.62954 549.0251 547.62954 Z" fill="#333"/>
        <path d="M 549.0251 547.62954 L 564.13383 556.3526 C 564.6121 556.6287 564.776 557.2403 564.49986 557.7186 L 555.7768 572.8274 C 555.5007 573.30566 554.8891 573.46954 554.4108 573.1934 L 539.302 564.47035 C 538.82374 564.1942 538.65986 563.5826 538.936 563.1043 L 547.65905 547.9956 C 547.9352 547.5173 548.5468 547.3534 549.0251 547.62954 C 549.0251 547.62954 549.0251 547.62954 549.0251 547.62954 Z" stroke="black" stroke-linecap="round" stroke-linejoin="round" stroke-width="7"/>
      </g>
      <g id="Graphic_92">
        <path d="M 564.99986 556.8526 L 581.8407 566.5756 L 572.1176 583.41644 L 555.2768 573.6934 Z" fill="#333"/>
        <path d="M 564.99986 556.8526 L 581.8407 566.5756 L 572.1176 583.41644 L 555.2768 573.6934 Z" stroke="black" stroke-linecap="round" stroke-linejoin="round" stroke-width="7"/>
      </g>
      <g id="Graphic_93">
        <path d="M 538.436 563.97035 L 555.2768 573.6934 L 545.5538 590.5342 L 528.71296 580.81116 Z" fill="#333"/>
        <path d="M 538.436 563.97035 L 555.2768 573.6934 L 545.5538 590.5342 L 528.71296 580.81116 Z" stroke="black" stroke-linecap="round" stroke-linejoin="round" stroke-width="7"/>
      </g>
      <g id="Graphic_94">
        <path d="M 555.2768 573.6934 L 572.1176 583.41644 L 562.3946 600.25725 L 545.5538 590.5342 Z" fill="#333"/>
        <path d="M 555.2768 573.6934 L 572.1176 583.41644 L 562.3946 600.25725 L 545.5538 590.5342 Z" stroke="black" stroke-linecap="round" stroke-linejoin="round" stroke-width="7"/>
      </g>
      <g id="Graphic_95">
        <path d="M 526.5032 584.6386 L 543.344 594.36166 L 533.62094 611.2025 L 516.78013 601.4794 Z" fill="#333"/>
        <path d="M 526.5032 584.6386 L 543.344 594.36166 L 533.62094 611.2025 L 516.78013 601.4794 Z" stroke="black" stroke-linecap="round" stroke-linejoin="round" stroke-width="7"/>
      </g>
      <g id="Graphic_96">
        <path d="M 543.344 594.36166 L 560.1848 604.0847 L 550.46175 620.9255 L 533.62094 611.2025 Z" fill="#333"/>
        <path d="M 543.344 594.36166 L 560.1848 604.0847 L 550.46175 620.9255 L 533.62094 611.2025 Z" stroke="black" stroke-linecap="round" stroke-linejoin="round" stroke-width="7"/>
      </g>
      <g id="Graphic_97">
        <path d="M 516.78013 601.4794 L 533.62094 611.2025 L 523.8979 628.0433 L 507.0571 618.3202 Z" fill="#333"/>
        <path d="M 516.78013 601.4794 L 533.62094 611.2025 L 523.8979 628.0433 L 507.0571 618.3202 Z" stroke="black" stroke-linecap="round" stroke-linejoin="round" stroke-width="7"/>
      </g>
      <g id="Graphic_98">
        <path d="M 533.62094 611.2025 L 550.46175 620.9255 L 540.7387 637.7663 L 523.8979 628.0433 Z" fill="#333"/>
        <path d="M 533.62094 611.2025 L 550.46175 620.9255 L 540.7387 637.7663 L 523.8979 628.0433 Z" stroke="black" stroke-linecap="round" stroke-linejoin="round" stroke-width="7"/>
      </g>
      <g id="Graphic_99">
        <path d="M 507.0571 618.3202 L 523.8979 628.0433 L 514.17485 644.8841 L 497.33404 635.16104 Z" fill="#333"/>
        <path d="M 507.0571 618.3202 L 523.8979 628.0433 L 514.17485 644.8841 L 497.33404 635.16104 Z" stroke="black" stroke-linecap="round" stroke-linejoin="round" stroke-width="7"/>
      </g>
      <g id="Graphic_100">
        <path d="M 523.8979 628.0433 L 540.7387 637.7663 L 531.01566 654.6071 L 514.17485 644.8841 Z" fill="#333"/>
        <path d="M 523.8979 628.0433 L 540.7387 637.7663 L 531.01566 654.6071 L 514.17485 644.8841 Z" stroke="black" stroke-linecap="round" stroke-linejoin="round" stroke-width="7"/>
      </g>
      <g id="Graphic_101">
        <path d="M 497.33404 635.16104 L 514.17485 644.8841 L 504.4518 661.7249 L 487.611 652.00185 Z" fill="#333"/>
        <path d="M 497.33404 635.16104 L 514.17485 644.8841 L 504.4518 661.7249 L 487.611 652.00185 Z" stroke="black" stroke-linecap="round" stroke-linejoin="round" stroke-width="7"/>
      </g>
      <g id="Graphic_102">
        <path d="M 514.17485 644.8841 L 531.01566 654.6071 L 521.2926 671.4479 L 504.4518 661.7249 Z" fill="#333"/>
        <path d="M 514.17485 644.8841 L 531.01566 654.6071 L 521.2926 671.4479 L 504.4518 661.7249 Z" stroke="black" stroke-linecap="round" stroke-linejoin="round" stroke-width="7"/>
      </g>
      <g id="Graphic_103">
        <path d="M 487.611 652.00185 L 504.4518 661.7249 L 494.72876 678.5657 L 477.88795 668.84265 Z" fill="#333"/>
        <path d="M 487.611 652.00185 L 504.4518 661.7249 L 494.72876 678.5657 L 477.88795 668.84265 Z" stroke="black" stroke-linecap="round" stroke-linejoin="round" stroke-width="7"/>
      </g>
      <g id="Graphic_104">
        <path d="M 504.4518 661.7249 L 521.2926 671.4479 L 511.5696 688.28874 L 494.72876 678.5657 Z" fill="#333"/>
        <path d="M 504.4518 661.7249 L 521.2926 671.4479 L 511.5696 688.28874 L 494.72876 678.5657 Z" stroke="black" stroke-linecap="round" stroke-linejoin="round" stroke-width="7"/>
      </g>
      <g id="Graphic_105">
        <path d="M 477.88795 668.84265 L 494.72876 678.5657 L 485.0057 695.4065 L 468.1649 685.6835 Z" fill="#333"/>
        <path d="M 477.88795 668.84265 L 494.72876 678.5657 L 485.0057 695.4065 L 468.1649 685.6835 Z" stroke="black" stroke-linecap="round" stroke-linejoin="round" stroke-width="7"/>
      </g>
      <g id="Graphic_106">
        <path d="M 494.72876 678.5657 L 511.5696 688.28874 L 501.8465 705.12955 L 485.0057 695.4065 Z" fill="#333"/>
        <path d="M 494.72876 678.5657 L 511.5696 688.28874 L 501.8465 705.12955 L 485.0057 695.4065 Z" stroke="black" stroke-linecap="round" stroke-linejoin="round" stroke-width="7"/>
      </g>
      <g id="Graphic_107">
        <path d="M 465.9551 689.5109 L 482.79593 699.234 L 473.0729 716.0748 L 456.2321 706.3517 Z" fill="#333"/>
        <path d="M 465.9551 689.5109 L 482.79593 699.234 L 473.0729 716.0748 L 456.2321 706.3517 Z" stroke="black" stroke-linecap="round" stroke-linejoin="round" stroke-width="7"/>
      </g>
      <g id="Graphic_108">
        <path d="M 482.79593 699.234 L 499.63674 708.957 L 489.9137 725.7978 L 473.0729 716.0748 Z" fill="#333"/>
        <path d="M 482.79593 699.234 L 499.63674 708.957 L 489.9137 725.7978 L 473.0729 716.0748 Z" stroke="black" stroke-linecap="round" stroke-linejoin="round" stroke-width="7"/>
      </g>
      <g id="Graphic_109">
        <path d="M 456.2321 706.3517 L 473.0729 716.0748 L 463.34984 732.9156 L 446.50904 723.1925 Z" fill="#333"/>
        <path d="M 456.2321 706.3517 L 473.0729 716.0748 L 463.34984 732.9156 L 446.50904 723.1925 Z" stroke="black" stroke-linecap="round" stroke-linejoin="round" stroke-width="7"/>
      </g>
      <g id="Graphic_110">
        <path d="M 473.0729 716.0748 L 489.9137 725.7978 L 480.19065 742.6386 L 463.34984 732.9156 Z" fill="#333"/>
        <path d="M 473.0729 716.0748 L 489.9137 725.7978 L 480.19065 742.6386 L 463.34984 732.9156 Z" stroke="black" stroke-linecap="round" stroke-linejoin="round" stroke-width="7"/>
      </g>
      <g id="Graphic_111">
        <path d="M 446.50904 723.1925 L 463.34984 732.9156 L 453.6268 749.7564 L 436.786 740.0333 Z" fill="#333"/>
        <path d="M 446.50904 723.1925 L 463.34984 732.9156 L 453.6268 749.7564 L 436.786 740.0333 Z" stroke="black" stroke-linecap="round" stroke-linejoin="round" stroke-width="7"/>
      </g>
      <g id="Graphic_112">
        <path d="M 463.34984 732.9156 L 480.19065 742.6386 L 470.4676 759.4794 L 453.6268 749.7564 Z" fill="#333"/>
        <path d="M 463.34984 732.9156 L 480.19065 742.6386 L 470.4676 759.4794 L 453.6268 749.7564 Z" stroke="black" stroke-linecap="round" stroke-linejoin="round" stroke-width="7"/>
      </g>
      <g id="Graphic_114">
        <circle cx="149.6072" cy="625.7737" r="5.30348756597015" fill="yellow"/>
        <circle cx="149.6072" cy="625.7737" r="5.30348756597015" stroke="black" stroke-linecap="round" stroke-linejoin="round" stroke-width="4"/>
      </g>
      <g id="Graphic_115">
        <circle cx="163.557" cy="633.4328" r="5.30348756597014" fill="yellow"/>
        <circle cx="163.557" cy="633.4328" r="5.30348756597014" stroke="black" stroke-linecap="round" stroke-linejoin="round" stroke-width="4"/>
      </g>
      <g id="Graphic_116">
        <circle cx="176.94391" cy="642.06685" r="5.30348756597014" fill="yellow"/>
        <circle cx="176.94391" cy="642.06685" r="5.30348756597014" stroke="black" stroke-linecap="round" stroke-linejoin="round" stroke-width="4"/>
      </g>
      <g id="Graphic_117">
        <circle cx="222.49399" cy="666.9498" r="5.30348756597015" fill="yellow"/>
        <circle cx="222.49399" cy="666.9498" r="5.30348756597015" stroke="black" stroke-linecap="round" stroke-linejoin="round" stroke-width="4"/>
      </g>
      <g id="Graphic_118">
        <circle cx="236.44377" cy="674.6089" r="5.30348756597014" fill="yellow"/>
        <circle cx="236.44377" cy="674.6089" r="5.30348756597014" stroke="black" stroke-linecap="round" stroke-linejoin="round" stroke-width="4"/>
      </g>
      <g id="Graphic_119">
        <circle cx="249.8307" cy="683.24295" r="5.30348756597015" fill="yellow"/>
        <circle cx="249.8307" cy="683.24295" r="5.30348756597015" stroke="black" stroke-linecap="round" stroke-linejoin="round" stroke-width="4"/>
      </g>
      <g id="Graphic_135">
        <path d="M 420.4651 256.5162 L 424.22174 250.00954 L 388.07026 218.93093 L 375.2694 237.56704 L 396.99495 258.27554 L 403.56083 261.0457 L 409.52725 250.71157 Z M 388.61053 233.0217 L 397.41368 238.1042 L 394.9829 242.3144 L 388.47624 238.55776 Z" fill="#cbcbcb"/>
        <path d="M 420.4651 256.5162 L 424.22174 250.00954 L 388.07026 218.93093 L 375.2694 237.56704 L 396.99495 258.27554 L 403.56083 261.0457 L 409.52725 250.71157 Z M 388.61053 233.0217 L 397.41368 238.1042 L 394.9829 242.3144 L 388.47624 238.55776 Z" stroke="black" stroke-linecap="round" stroke-linejoin="round" stroke-width="4"/>
      </g>
      <g id="Graphic_134">
        <path d="M 401.74966 261.531 L 387.7657 250.3954 L 373.78175 239.2598 L 360.64148 260.2516 L 369.44463 265.3341 L 378.8124 254.4121 L 381.1089 255.73797 L 373.5956 268.75132 L 393.26155 284.18807 L 401.1533 284.66176 L 410.59616 269.19017 Z M 387.3787 263.44048 L 396.94735 268.96494 L 395.84246 270.87866 Z" fill="#cbcbcb"/>
        <path d="M 401.74966 261.531 L 387.7657 250.3954 L 373.78175 239.2598 L 360.64148 260.2516 L 369.44463 265.3341 L 378.8124 254.4121 L 381.1089 255.73797 L 373.5956 268.75132 L 393.26155 284.18807 L 401.1533 284.66176 L 410.59616 269.19017 Z M 387.3787 263.44048 L 396.94735 268.96494 L 395.84246 270.87866 Z" stroke="black" stroke-linecap="round" stroke-linejoin="round" stroke-width="4"/>
      </g>
      <g id="Graphic_133">
        <path d="M 396.923 299.0602 L 399.38548 287.72372 L 362.0699 259.5453 L 350.3147 277.25416 L 361.2959 285.63547 L 368.46977 274.9778 L 390.03356 295.08258 Z" fill="#cbcbcb"/>
        <path d="M 396.923 299.0602 L 399.38548 287.72372 L 362.0699 259.5453 L 350.3147 277.25416 L 361.2959 285.63547 L 368.46977 274.9778 L 390.03356 295.08258 Z" stroke="black" stroke-linecap="round" stroke-linejoin="round" stroke-width="4"/>
      </g>
      <g id="Graphic_132">
        <path d="M 376.96836 311.52478 L 377.78145 301.27734 L 351.66806 281.0975 L 339.97207 297.81987 L 364.03745 322.4309 L 376.5063 329.11946 L 387.11325 310.74767 L 382.8597 305.74025 Z M 360.025 300.21154 L 366.53167 303.96817 L 364.3219 307.79563 L 357.8152 304.039 Z" fill="#cbcbcb"/>
        <path d="M 376.96836 311.52478 L 377.78145 301.27734 L 351.66806 281.0975 L 339.97207 297.81987 L 364.03745 322.4309 L 376.5063 329.11946 L 387.11325 310.74767 L 382.8597 305.74025 Z M 360.025 300.21154 L 366.53167 303.96817 L 364.3219 307.79563 L 357.8152 304.039 Z" stroke="black" stroke-linecap="round" stroke-linejoin="round" stroke-width="4"/>
      </g>
      <g id="Graphic_136">
        <path d="M 652.241 317.35524 L 669.0818 327.0783 L 659.3587 343.9191 L 642.5179 334.19605 Z" fill="#333"/>
        <path d="M 652.241 317.35524 L 669.0818 327.0783 L 659.3587 343.9191 L 642.5179 334.19605 Z" stroke="black" stroke-linecap="round" stroke-linejoin="round" stroke-width="7"/>
      </g>
      <g id="Graphic_137">
        <path d="M 642.5179 334.19605 L 659.3587 343.9191 L 649.6357 360.7599 L 632.7949 351.03685 Z" fill="#333"/>
        <path d="M 642.5179 334.19605 L 659.3587 343.9191 L 649.6357 360.7599 L 632.7949 351.03685 Z" stroke="black" stroke-linecap="round" stroke-linejoin="round" stroke-width="7"/>
      </g>
      <g id="Graphic_138">
        <path d="M 630.5851 354.8643 L 647.4259 364.58735 L 637.70286 381.42816 L 620.86205 371.7051 Z" fill="#333"/>
        <path d="M 630.5851 354.8643 L 647.4259 364.58735 L 637.70286 381.42816 L 620.86205 371.7051 Z" stroke="black" stroke-linecap="round" stroke-linejoin="round" stroke-width="7"/>
      </g>
      <g id="Graphic_139">
        <path d="M 620.86205 371.7051 L 637.70286 381.42816 L 627.9798 398.26897 L 611.139 388.54593 Z" fill="#333"/>
        <path d="M 620.86205 371.7051 L 637.70286 381.42816 L 627.9798 398.26897 L 611.139 388.54593 Z" stroke="black" stroke-linecap="round" stroke-linejoin="round" stroke-width="7"/>
      </g>
      <g id="Graphic_140">
        <path d="M 611.139 388.54593 L 627.9798 398.26897 L 618.2568 415.1098 L 601.41596 405.38673 Z" fill="#333"/>
        <path d="M 611.139 388.54593 L 627.9798 398.26897 L 618.2568 415.1098 L 601.41596 405.38673 Z" stroke="black" stroke-linecap="round" stroke-linejoin="round" stroke-width="7"/>
      </g>
      <g id="Graphic_141">
        <path d="M 601.41596 405.38673 L 618.2568 415.1098 L 608.5337 431.9506 L 591.6929 422.22754 Z" fill="#333"/>
        <path d="M 601.41596 405.38673 L 618.2568 415.1098 L 608.5337 431.9506 L 591.6929 422.22754 Z" stroke="black" stroke-linecap="round" stroke-linejoin="round" stroke-width="7"/>
      </g>
      <g id="Graphic_142">
        <path d="M 589.4831 426.055 L 606.32394 435.77804 L 596.6009 452.61885 L 579.7601 442.8958 Z" fill="#333"/>
        <path d="M 589.4831 426.055 L 606.32394 435.77804 L 596.6009 452.61885 L 579.7601 442.8958 Z" stroke="black" stroke-linecap="round" stroke-linejoin="round" stroke-width="7"/>
      </g>
      <g id="Graphic_143">
        <path d="M 579.7601 442.8958 L 596.6009 452.61885 L 586.87785 469.45966 L 570.03704 459.7366 Z" fill="#333"/>
        <path d="M 579.7601 442.8958 L 596.6009 452.61885 L 586.87785 469.45966 L 570.03704 459.7366 Z" stroke="black" stroke-linecap="round" stroke-linejoin="round" stroke-width="7"/>
      </g>
      <g id="Graphic_144">
        <path d="M 567.82726 463.56407 L 584.6681 473.2871 L 574.945 490.1279 L 558.1042 480.4049 Z" fill="#333"/>
        <path d="M 567.82726 463.56407 L 584.6681 473.2871 L 574.945 490.1279 L 558.1042 480.4049 Z" stroke="black" stroke-linecap="round" stroke-linejoin="round" stroke-width="7"/>
      </g>
    </g>
  </g>
</svg>
