<?xml version="1.0" encoding="UTF-8" standalone="no"?>
<!DOCTYPE svg PUBLIC "-//W3C//DTD SVG 1.1//EN" "http://www.w3.org/Graphics/SVG/1.1/DTD/svg11.dtd">
<svg version="1.1" xmlns="http://www.w3.org/2000/svg" xmlns:xl="http://www.w3.org/1999/xlink" xmlns:dc="http://purl.org/dc/elements/1.1/" viewBox="0 0 850.394 850.394" width="850.394" height="850.394">
  <defs/>
  <metadata> Produced by OmniGraffle 7.9.4 
    <dc:date>2019-03-18 14:31:13 +0000</dc:date>
  </metadata>
  <g id="black_notes" stroke-opacity="1" fill-opacity="1" stroke="none" stroke-dasharray="none" fill="none">
    <title>black notes</title>
    <g id="black_notes: Layer 1">
      <title>Layer 1</title>
      <g id="Graphic_18">
        <rect x="21.555556" y="273" width="803" height="354" fill="#c0c0ff"/>
        <rect x="21.555556" y="273" width="803" height="354" stroke="black" stroke-linecap="round" stroke-linejoin="round" stroke-width="6"/>
      </g>
      <g id="Graphic_15">
        <rect x="67.386234" y="328" width="59.456446" height="237" fill="white" fill-opacity=".7502476"/>
        <path d="M 67.386234 328 L 126.84268 328 L 126.84268 565 L 67.386234 565 Z" stroke="black" stroke-linecap="round" stroke-linejoin="round" stroke-dasharray="8.0,8.0" stroke-width="2"/>
      </g>
      <g id="Graphic_14">
        <rect x="126.84268" y="328" width="59.456446" height="151.86197" fill="#333"/>
        <rect x="126.84268" y="328" width="59.456446" height="151.86197" stroke="black" stroke-linecap="round" stroke-linejoin="round" stroke-width="30"/>
      </g>
      <g id="Graphic_13">
        <rect x="186.29913" y="328" width="59.456446" height="237" fill="white" fill-opacity=".7502476"/>
        <path d="M 186.29913 328 L 245.75557 328 L 245.75557 565 L 186.29913 565 Z" stroke="black" stroke-linecap="round" stroke-linejoin="round" stroke-dasharray="8.0,8.0" stroke-width="2"/>
      </g>
      <g id="Graphic_12">
        <rect x="245.75557" y="328" width="59.456446" height="151.86197" fill="#333"/>
        <rect x="245.75557" y="328" width="59.456446" height="151.86197" stroke="black" stroke-linecap="round" stroke-linejoin="round" stroke-width="30"/>
      </g>
      <g id="Graphic_11">
        <rect x="305.212" y="328" width="59.456446" height="237" fill="white" fill-opacity=".7502476"/>
        <path d="M 305.212 328 L 364.66846 328 L 364.66846 565 L 305.212 565 Z" stroke="black" stroke-linecap="round" stroke-linejoin="round" stroke-dasharray="8.0,8.0" stroke-width="2"/>
      </g>
      <g id="Graphic_10">
        <rect x="364.66846" y="328" width="59.456446" height="237" fill="white" fill-opacity=".7502476"/>
        <path d="M 364.66846 328 L 424.1249 328 L 424.1249 565 L 364.66846 565 Z" stroke="black" stroke-linecap="round" stroke-linejoin="round" stroke-dasharray="8.0,8.0" stroke-width="2"/>
      </g>
      <g id="Graphic_9">
        <rect x="424.1249" y="328" width="59.456446" height="151.86197" fill="#333"/>
        <rect x="424.1249" y="328" width="59.456446" height="151.86197" stroke="black" stroke-linecap="round" stroke-linejoin="round" stroke-width="30"/>
      </g>
      <g id="Graphic_8">
        <rect x="483.58136" y="328" width="59.456446" height="237" fill="white" fill-opacity=".7502476"/>
        <path d="M 483.58136 328 L 543.0378 328 L 543.0378 565 L 483.58136 565 Z" stroke="black" stroke-linecap="round" stroke-linejoin="round" stroke-dasharray="8.0,8.0" stroke-width="2"/>
      </g>
      <g id="Graphic_7">
        <rect x="545.182" y="328" width="59.456446" height="151.86197" fill="#333"/>
        <rect x="545.182" y="328" width="59.456446" height="151.86197" stroke="black" stroke-linecap="round" stroke-linejoin="round" stroke-width="30"/>
      </g>
      <g id="Graphic_6">
        <rect x="604.6384" y="328" width="59.456446" height="237" fill="white" fill-opacity=".7502476"/>
        <path d="M 604.6384 328 L 664.0949 328 L 664.0949 565 L 604.6384 565 Z" stroke="black" stroke-linecap="round" stroke-linejoin="round" stroke-dasharray="8.0,8.0" stroke-width="2"/>
      </g>
      <g id="Graphic_5">
        <rect x="664.0949" y="328" width="59.456446" height="151.86197" fill="#333"/>
        <rect x="664.0949" y="328" width="59.456446" height="151.86197" stroke="black" stroke-linecap="round" stroke-linejoin="round" stroke-width="30"/>
      </g>
      <g id="Graphic_4">
        <rect x="723.5513" y="328" width="59.456446" height="237" fill="white" fill-opacity=".7502476"/>
        <path d="M 723.5513 328 L 783.0078 328 L 783.0078 565 L 723.5513 565 Z" stroke="black" stroke-linecap="round" stroke-linejoin="round" stroke-dasharray="8.0,8.0" stroke-width="2"/>
      </g>
    </g>
  </g>
</svg>
