<?xml version="1.0" encoding="UTF-8" standalone="no"?>
<!DOCTYPE svg PUBLIC "-//W3C//DTD SVG 1.1//EN" "http://www.w3.org/Graphics/SVG/1.1/DTD/svg11.dtd">
<svg xmlns:dc="http://purl.org/dc/elements/1.1/" xmlns="http://www.w3.org/2000/svg" version="1.1" xmlns:xl="http://www.w3.org/1999/xlink" viewBox="0 0 850.394 850.394" width="850.394" height="850.394">
  <defs/>
  <metadata> Produced by OmniGraffle 7.9.4 
    <dc:date>2019-04-01 10:59:49 +0000</dc:date>
  </metadata>
  <g id="bug" stroke-dasharray="none" stroke-opacity="1" fill-opacity="1" fill="none" stroke="none">
    <title>bug</title>
    <g id="bug: Layer 1">
      <title>Layer 1</title>
      <g id="Graphic_11">
        <path d="M 322.1472 155.41126 L 325.77835 115.4684 L 377.8251 75.52554 L 356.0381 104.57489 Z" fill="red"/>
        <path d="M 322.1472 155.41126 L 325.77835 115.4684 L 377.8251 75.52554 L 356.0381 104.57489 Z" stroke="black" stroke-linecap="round" stroke-linejoin="round" stroke-width="9"/>
      </g>
      <g id="Graphic_12">
        <path d="M 184.16277 102.15411 L 255.57576 142.09697 L 289.46667 175.98788 L 234.99913 152.99048 L 202.31861 132.41385 Z" fill="red"/>
        <path d="M 184.16277 102.15411 L 255.57576 142.09697 L 289.46667 175.98788 L 234.99913 152.99048 L 202.31861 132.41385 Z" stroke="black" stroke-linecap="round" stroke-linejoin="round" stroke-width="9"/>
      </g>
      <g id="Graphic_16">
        <path d="M 530.1948 344.37143 L 625.8156 344.37143 L 714.174 455.72727 L 794.0597 571.9247 L 748.0649 548.9273 L 705.7013 467.83117 L 614.9221 360.1065 L 558.03377 360.1065 Z" fill="red"/>
        <path d="M 530.1948 344.37143 L 625.8156 344.37143 L 714.174 455.72727 L 794.0597 571.9247 L 748.0649 548.9273 L 705.7013 467.83117 L 614.9221 360.1065 L 558.03377 360.1065 Z" stroke="black" stroke-linecap="round" stroke-linejoin="round" stroke-width="9"/>
      </g>
      <g id="Graphic_15">
        <path d="M 276.013 456.93766 C 274.8026 458.14805 207.02078 546.5065 207.02078 546.5065 L 225.17662 609.44675 L 233.64935 763.1662 L 233.64935 837 C 233.64935 837 251.8052 758.3247 251.8052 757.1143 C 251.8052 755.9039 249.38442 644.54805 249.38442 644.54805 L 237.28052 562.24156 L 282.06494 498.0909 C 282.06494 498.0909 277.22338 455.72727 276.013 456.93766 Z" fill="red"/>
        <path d="M 276.013 456.93766 C 274.8026 458.14805 207.02078 546.5065 207.02078 546.5065 L 225.17662 609.44675 L 233.64935 763.1662 L 233.64935 837 C 233.64935 837 251.8052 758.3247 251.8052 757.1143 C 251.8052 755.9039 249.38442 644.54805 249.38442 644.54805 L 237.28052 562.24156 L 282.06494 498.0909 C 282.06494 498.0909 277.22338 455.72727 276.013 456.93766 Z" stroke="black" stroke-linecap="round" stroke-linejoin="round" stroke-width="9"/>
      </g>
      <g id="Graphic_9">
        <path d="M 326.98874 151.78009 C 329.40952 145.72814 352.40693 145.72814 352.40693 145.72814 L 369.3524 148.14892 L 351.19654 173.5671 C 351.19654 173.5671 324.56797 157.83203 326.98874 151.78009 Z" fill="#333"/>
        <path d="M 326.98874 151.78009 C 329.40952 145.72814 352.40693 145.72814 352.40693 145.72814 L 369.3524 148.14892 L 351.19654 173.5671 C 351.19654 173.5671 324.56797 157.83203 326.98874 151.78009 Z" stroke="black" stroke-linecap="round" stroke-linejoin="round" stroke-width="9"/>
      </g>
      <g id="Graphic_10">
        <path d="M 279.78355 175.98788 L 248.31342 175.98788 L 241.05108 194.14372 L 266.46926 214.72035 L 280.99394 212.29957 Z" fill="#333"/>
        <path d="M 279.78355 175.98788 L 248.31342 175.98788 L 241.05108 194.14372 L 266.46926 214.72035 L 280.99394 212.29957 Z" stroke="black" stroke-linecap="round" stroke-linejoin="round" stroke-width="9"/>
      </g>
      <g id="Graphic_8">
        <path d="M 317.30563 140.88658 L 297.9394 122.73074 L 270.10043 133.62424 C 270.10043 133.62424 279.78355 173.5671 279.78355 174.77749 C 279.78355 175.98788 314.88485 180.82944 314.88485 180.82944 Z" fill="red"/>
        <path d="M 317.30563 140.88658 L 297.9394 122.73074 L 270.10043 133.62424 C 270.10043 133.62424 279.78355 173.5671 279.78355 174.77749 C 279.78355 175.98788 314.88485 180.82944 314.88485 180.82944 Z" stroke="black" stroke-linecap="round" stroke-linejoin="round" stroke-width="9"/>
      </g>
      <g id="Graphic_7">
        <path d="M 364.51082 188.09177 L 336.67186 146.93853 L 301.57056 146.93853 C 301.57056 146.93853 271.31082 148.14892 271.31082 149.3593 C 271.31082 150.5697 265.25887 180.82944 265.25887 180.82944 L 274.942 234.08658 L 349.98615 272.81905 Z" fill="#b30001"/>
        <path d="M 364.51082 188.09177 L 336.67186 146.93853 L 301.57056 146.93853 C 301.57056 146.93853 271.31082 148.14892 271.31082 149.3593 C 271.31082 150.5697 265.25887 180.82944 265.25887 180.82944 L 274.942 234.08658 L 349.98615 272.81905 Z" stroke="black" stroke-linecap="round" stroke-linejoin="round" stroke-width="9"/>
      </g>
      <g id="Graphic_5">
        <path d="M 510.8286 305.63896 L 567.7169 345.5818 L 612.5013 433.94026 L 663.3377 585.23896 L 643.9714 701.4364 L 604.0286 789.7948 L 544.7195 812.7922 L 479.35844 809.161 L 412.787 763.1662 L 337.74286 689.3325 L 274.8026 579.187 L 245.75325 482.35584 L 256.64675 407.3117 L 261.4883 396.4182 L 328.05974 421.83636 L 444.25714 387.94545 L 484.2 340.74026 Z" fill="#630001"/>
        <path d="M 510.8286 305.63896 L 567.7169 345.5818 L 612.5013 433.94026 L 663.3377 585.23896 L 643.9714 701.4364 L 604.0286 789.7948 L 544.7195 812.7922 L 479.35844 809.161 L 412.787 763.1662 L 337.74286 689.3325 L 274.8026 579.187 L 245.75325 482.35584 L 256.64675 407.3117 L 261.4883 396.4182 L 328.05974 421.83636 L 444.25714 387.94545 L 484.2 340.74026 Z" stroke="black" stroke-linecap="round" stroke-linejoin="round" stroke-width="9"/>
      </g>
      <g id="Graphic_6">
        <path d="M 410.50563 287.34372 C 410.50563 284.92294 421.39913 228.03463 421.39913 228.03463 L 388.7186 182.03983 L 360.87965 186.88139 L 341.5134 218.35152 L 306.41212 230.4554 L 272.5212 224.40346 L 249.5238 223.19307 L 247.10303 261.92554 L 266.46926 297.02684 L 288.25628 310.34113 L 318.516 316.39307 L 370.56277 330.91775 L 398.40173 304.28918 C 398.40173 304.28918 410.50563 289.7645 410.50563 287.34372 Z" fill="#760220"/>
        <path d="M 410.50563 287.34372 C 410.50563 284.92294 421.39913 228.03463 421.39913 228.03463 L 388.7186 182.03983 L 360.87965 186.88139 L 341.5134 218.35152 L 306.41212 230.4554 L 272.5212 224.40346 L 249.5238 223.19307 L 247.10303 261.92554 L 266.46926 297.02684 L 288.25628 310.34113 L 318.516 316.39307 L 370.56277 330.91775 L 398.40173 304.28918 C 398.40173 304.28918 410.50563 289.7645 410.50563 287.34372 Z" stroke="black" stroke-linecap="round" stroke-linejoin="round" stroke-width="9"/>
      </g>
      <g id="Graphic_13">
        <path d="M 262.8381 253.4528 L 184.16277 266.7671 L 174.47965 218.35152 L 174.47965 171.14632 L 168.4277 225.61385 L 173.26926 281.29177 L 202.31861 292.18528 L 238.6303 292.18528 L 278.57316 278.871 Z" fill="red"/>
        <path d="M 262.8381 253.4528 L 184.16277 266.7671 L 174.47965 218.35152 L 174.47965 171.14632 L 168.4277 225.61385 L 173.26926 281.29177 L 202.31861 292.18528 L 238.6303 292.18528 L 278.57316 278.871 Z" stroke="black" stroke-linecap="round" stroke-linejoin="round" stroke-width="9"/>
      </g>
      <g id="Graphic_14">
        <path d="M 332.9013 323.7948 C 334.1117 323.7948 268.75065 326.2156 268.75065 326.2156 C 268.75065 326.2156 209.44156 344.37143 208.23117 344.37143 C 207.02078 344.37143 142.87013 436.36104 142.87013 436.36104 L 203.3896 367.36883 L 261.4883 355.26494 L 330.4805 355.26494 C 330.4805 355.26494 331.6909 323.7948 332.9013 323.7948 Z" fill="red"/>
        <path d="M 332.9013 323.7948 C 334.1117 323.7948 268.75065 326.2156 268.75065 326.2156 C 268.75065 326.2156 209.44156 344.37143 208.23117 344.37143 C 207.02078 344.37143 142.87013 436.36104 142.87013 436.36104 L 203.3896 367.36883 L 261.4883 355.26494 L 330.4805 355.26494 C 330.4805 355.26494 331.6909 323.7948 332.9013 323.7948 Z" stroke="black" stroke-linecap="round" stroke-linejoin="round" stroke-width="9"/>
      </g>
      <g id="Graphic_17">
        <path d="M 430.94286 306.84935 L 519.3013 242.6987 L 674.2312 252.38182 L 727.4883 234.22597 L 671.8104 274.16883 L 590.7143 269.32727 L 521.7221 269.32727 L 452.72987 306.84935 Z" fill="red"/>
        <path d="M 430.94286 306.84935 L 519.3013 242.6987 L 674.2312 252.38182 L 727.4883 234.22597 L 671.8104 274.16883 L 590.7143 269.32727 L 521.7221 269.32727 L 452.72987 306.84935 Z" stroke="black" stroke-linecap="round" stroke-linejoin="round" stroke-width="9"/>
      </g>
      <g id="Graphic_18">
        <path d="M 397.19134 219.5619 L 469.8147 201.40606 L 400.8225 105.78528 L 398.40173 23.478788 C 398.40173 23.478788 410.50563 113.04762 411.716 113.04762 C 412.9264 113.04762 497.6537 207.458 497.6537 207.458 L 400.8225 252.24242 Z" fill="red"/>
        <path d="M 397.19134 219.5619 L 469.8147 201.40606 L 400.8225 105.78528 L 398.40173 23.478788 C 398.40173 23.478788 410.50563 113.04762 411.716 113.04762 C 412.9264 113.04762 497.6537 207.458 497.6537 207.458 L 400.8225 252.24242 Z" stroke="black" stroke-linecap="round" stroke-linejoin="round" stroke-width="9"/>
      </g>
      <g id="Graphic_19">
        <path d="M 585.8727 390.36623 C 585.8727 390.36623 481.7792 444.83377 481.7792 446.04416 C 481.7792 447.25455 255.43636 508.9844 255.43636 508.9844 L 331 511.606 L 465 475.606 L 545 439.606 Z" fill="#2b0000"/>
        <path d="M 585.8727 390.36623 C 585.8727 390.36623 481.7792 444.83377 481.7792 446.04416 C 481.7792 447.25455 255.43636 508.9844 255.43636 508.9844 L 331 511.606 L 465 475.606 L 545 439.606 Z" stroke="black" stroke-linecap="round" stroke-linejoin="round" stroke-width="11"/>
      </g>
      <g id="Graphic_20">
        <path d="M 295.37922 593.7329 L 449.8223 550.5411 L 618 458.606 L 573 502.606 L 474.9642 560.1393 L 387.5662 596.1325 Z" fill="#2b0000"/>
        <path d="M 295.37922 593.7329 L 449.8223 550.5411 L 618 458.606 L 573 502.606 L 474.9642 560.1393 L 387.5662 596.1325 Z" stroke="black" stroke-linecap="round" stroke-linejoin="round" stroke-width="11"/>
      </g>
      <g id="Graphic_21">
        <path d="M 331.6909 660.7176 L 412 639.606 L 645.1818 534.4026 L 584 583.606 L 488.43636 624.3025 L 387.08216 667.54545 Z" fill="#2b0000"/>
        <path d="M 331.6909 660.7176 L 412 639.606 L 645.1818 534.4026 L 584 583.606 L 488.43636 624.3025 L 387.08216 667.54545 Z" stroke="black" stroke-linecap="round" stroke-linejoin="round" stroke-width="11"/>
      </g>
      <g id="Graphic_22">
        <path d="M 381.3169 720.8026 L 510.8286 660.2831 L 656.0753 615.4987 L 595.55584 661.4935 C 595.55584 661.4935 505.987 689.3325 504.7766 689.3325 C 503.56623 689.3325 381.3169 720.8026 381.3169 720.8026 Z" fill="#2b0000"/>
        <path d="M 381.3169 720.8026 L 510.8286 660.2831 L 656.0753 615.4987 L 595.55584 661.4935 C 595.55584 661.4935 505.987 689.3325 504.7766 689.3325 C 503.56623 689.3325 381.3169 720.8026 381.3169 720.8026 Z" stroke="black" stroke-linecap="round" stroke-linejoin="round" stroke-width="11"/>
      </g>
      <g id="Graphic_23">
        <path d="M 456.36104 755.9039 L 547.14026 709.9091 L 631.8675 683.2805 L 555.613 740.1688 L 434.57403 774.0597 Z" fill="#2b0000"/>
        <path d="M 456.36104 755.9039 L 547.14026 709.9091 L 631.8675 683.2805 L 555.613 740.1688 L 434.57403 774.0597 Z" stroke="black" stroke-linecap="round" stroke-linejoin="round" stroke-width="11"/>
      </g>
      <g id="Graphic_4">
        <path d="M 377.05525 303.6789 L 438.8748 288.89598 L 483.2236 295.6155 L 530.26024 313.08624 L 532.94805 323.83747 L 493.97485 380.2814 L 432.1553 412.5351 L 367.64792 435.38146 L 284.3259 440.75707 L 260.13564 435.38146 L 249.38442 413.879 L 257.44784 378.9375 L 295.07713 334.5887 L 344.80156 311.74234 Z" fill="#760000"/>
        <path d="M 377.05525 303.6789 L 438.8748 288.89598 L 483.2236 295.6155 L 530.26024 313.08624 L 532.94805 323.83747 L 493.97485 380.2814 L 432.1553 412.5351 L 367.64792 435.38146 L 284.3259 440.75707 L 260.13564 435.38146 L 249.38442 413.879 L 257.44784 378.9375 L 295.07713 334.5887 L 344.80156 311.74234 Z" stroke="black" stroke-linecap="round" stroke-linejoin="round" stroke-width="9"/>
      </g>
    </g>
  </g>
</svg>
