<?xml version="1.0" encoding="UTF-8" standalone="no"?>
<!DOCTYPE svg PUBLIC "-//W3C//DTD SVG 1.1//EN" "http://www.w3.org/Graphics/SVG/1.1/DTD/svg11.dtd">
<svg xmlns="http://www.w3.org/2000/svg" version="1.1" xmlns:dc="http://purl.org/dc/elements/1.1/" xmlns:xl="http://www.w3.org/1999/xlink" viewBox="0 0 850.394 850.394" width="850.394" height="850.394">
  <defs/>
  <metadata> Produced by OmniGraffle 7.9.4 
    <dc:date>2019-03-12 10:37:48 +0000</dc:date>
  </metadata>
  <g id="buzzer" fill="none" stroke-opacity="1" fill-opacity="1" stroke-dasharray="none" stroke="none">
    <title>buzzer</title>
    <g id="buzzer: Layer 1">
      <title>Layer 1</title>
      <g id="Line_16">
        <path d="M 242.89934 629.35596 C 214.12865 649.24344 169.31931 666.1251 156.57864 689.0244 C 143.83796 711.9237 167.4506 750.0559 166.44764 766.7655 C 165.44468 783.4751 153.77603 785.38565 150.56027 789.2919 C 147.3445 793.1982 148.2874 789.9009 147.15115 790.2054" stroke="black" stroke-linecap="round" stroke-linejoin="round" stroke-width="7"/>
      </g>
      <g id="Line_15">
        <path d="M 307.67265 612 C 278.90196 631.8875 234.09263 648.7691 221.35195 671.6684 C 208.61128 694.5677 242.5209 725.6784 231.22096 749.4095 C 219.921 773.1406 156.7612 810.163 153.54545 814.0692 C 150.32969 817.9755 192.46674 786.588 211.92446 772.8494" stroke="#ff2c29" stroke-linecap="round" stroke-linejoin="round" stroke-width="7"/>
      </g>
      <g id="Graphic_14">
        <path d="M 242.5966 626.6556 L 242.5966 626.6556 C 244.20325 626.6556 245.5057 627.95806 245.5057 629.5647 L 245.5057 629.5647 C 245.5057 631.17135 244.20325 632.4738 242.5966 632.4738 L 242.5966 632.4738 C 240.98995 632.4738 239.6875 631.17135 239.6875 629.5647 L 239.6875 629.5647 C 239.6875 627.95806 240.98995 626.6556 242.5966 626.6556 Z" fill="#d4dfd7"/>
        <path d="M 242.5966 626.6556 L 242.5966 626.6556 C 244.20325 626.6556 245.5057 627.95806 245.5057 629.5647 L 245.5057 629.5647 C 245.5057 631.17135 244.20325 632.4738 242.5966 632.4738 L 242.5966 632.4738 C 240.98995 632.4738 239.6875 631.17135 239.6875 629.5647 L 239.6875 629.5647 C 239.6875 627.95806 240.98995 626.6556 242.5966 626.6556 Z" stroke="black" stroke-linecap="round" stroke-linejoin="round" stroke-width="1"/>
      </g>
      <g id="Graphic_12">
        <path d="M 65 632.6592 L 65 598.2592 C 65 595.8856 95.20648 593.9592 132.42517 593.9592 C 169.64386 593.9592 199.85034 595.8856 199.85034 598.2592 L 199.85034 632.6592 C 199.85034 635.0328 169.64386 636.9592 132.42517 636.9592 C 95.20648 636.9592 65 635.0328 65 632.6592" fill="#666"/>
        <path d="M 65 632.6592 L 65 598.2592 C 65 595.8856 95.20648 593.9592 132.42517 593.9592 C 169.64386 593.9592 199.85034 595.8856 199.85034 598.2592 L 199.85034 632.6592 C 199.85034 635.0328 169.64386 636.9592 132.42517 636.9592 C 95.20648 636.9592 65 635.0328 65 632.6592 M 65 598.2592 C 65 600.6328 95.20648 602.5592 132.42517 602.5592 C 169.64386 602.5592 199.85034 600.6328 199.85034 598.2592" stroke="black" stroke-linecap="round" stroke-linejoin="round" stroke-width="7"/>
      </g>
      <g id="Graphic_13">
        <path d="M 637 632.6592 L 637 598.2592 C 637 595.8856 667.2065 593.9592 704.4252 593.9592 C 741.6439 593.9592 771.8503 595.8856 771.8503 598.2592 L 771.8503 632.6592 C 771.8503 635.0328 741.6439 636.9592 704.4252 636.9592 C 667.2065 636.9592 637 635.0328 637 632.6592" fill="#666"/>
        <path d="M 637 632.6592 L 637 598.2592 C 637 595.8856 667.2065 593.9592 704.4252 593.9592 C 741.6439 593.9592 771.8503 595.8856 771.8503 598.2592 L 771.8503 632.6592 C 771.8503 635.0328 741.6439 636.9592 704.4252 636.9592 C 667.2065 636.9592 637 635.0328 637 632.6592 M 637 598.2592 C 637 600.6328 667.2065 602.5592 704.4252 602.5592 C 741.6439 602.5592 771.8503 600.6328 771.8503 598.2592" stroke="black" stroke-linecap="round" stroke-linejoin="round" stroke-width="7"/>
      </g>
      <g id="Graphic_10">
        <path d="M 570.9138 121 L 615.51276 167.93186 C 615.51276 167.93186 641.1442 209.61584 641.75526 209.96863 C 642.3663 210.3214 654.6495 242.66932 654.6495 242.66932 L 614.5978 235.8398 C 614.5978 235.8398 587.5416 238.9574 572.7822 232.06548 C 558.02275 225.17355 529.8829 235.81266 529.8829 235.81266 C 529.8829 235.81266 540.1 260.45 542.5442 261.86113 C 544.9883 263.27226 563.414 272.2809 570.0409 277.73636 C 576.66776 283.19182 589.1906 301.01323 588.39054 303.81016 C 587.59045 306.6071 581.80074 329.33534 580.8369 329.5936 C 579.8731 329.85185 580.4588 335.89303 573.3846 332.62346 C 566.3104 329.3539 514.2017 318.0074 512.9796 317.30183 C 511.75755 316.59626 476.53176 287.29675 487.52365 314.82556 C 498.51554 342.35437 504.78964 348.42087 504.78964 348.42087 C 504.78964 348.42087 542.01906 360.1387 557.2005 370.5331 C 572.3819 380.92754 576.2928 426.3655 575.94 426.97653 C 575.5872 427.58757 563.17064 444.86035 561.5958 444.7658 C 560.0209 444.6713 507.65395 432.361 499.71047 427.7748 C 491.767 423.18863 455.3123 414.3623 445.18293 409.3288 C 435.05355 404.2953 431.17294 411.0167 429.7618 413.46087 C 428.3507 415.905 445.22 440.30944 444.86724 440.9205 C 444.51445 441.5315 449.09384 454.76675 448.74106 455.3778 C 448.3883 455.9888 439.80163 477.917 439.80163 477.917 L 432.7713 484.44933 L 434.466 477.2806 L 442.58 463.22674 C 442.58 463.22674 439.83375 451.04986 440.18653 450.4388 C 440.5393 449.8278 431.8464 436.66176 431.8464 436.66176 L 422.63696 421.5681 L 425.2516 404.3392 C 425.2516 404.3392 439.0287 395.99903 439.6397 396.3518 C 440.25076 396.7046 463.823 409.4993 463.823 409.4993 L 495.90584 417.43104 C 495.90584 417.43104 514.2623 422.32613 515.83716 422.42065 C 517.412 422.5152 544.7703 430.16333 545.38135 430.5161 C 545.9924 430.8689 557.5582 427.76984 558.52205 427.5116 C 559.4859 427.25333 564.00284 415.1963 564.00284 415.1963 L 561.47095 394.1813 L 552.2615 379.08764 L 539.4297 371.6792 C 539.4297 371.6792 519.8512 366.07855 519.4984 366.6896 C 519.14563 367.30063 495.31516 353.5421 495.31516 353.5421 C 495.31516 353.5421 487.4662 347.38107 487.56073 345.8062 C 487.65526 344.23135 478.98766 325.37693 478.3766 325.02415 C 477.7656 324.67136 473.4698 306.71156 473.82257 306.10052 C 474.17535 305.4895 478.05596 298.76807 478.05596 298.76807 L 487.10845 290.14434 L 512.35005 301.45872 C 512.35005 301.45872 524.6653 306.9395 525.27637 307.2923 C 525.8874 307.6451 551.1543 313.27106 551.1543 313.27106 L 577.73786 318.02775 L 574.89706 307.42573 C 574.89706 307.42573 561.6686 290.8264 562.0214 290.21536 C 562.3742 289.60432 552.1756 280.4573 551.56456 280.10452 C 550.9535 279.75174 530.7893 268.1099 530.7893 268.1099 L 521.7436 255.5549 L 514.74536 235.22016 L 517.782 221.49375 C 517.782 221.49375 538.3497 221.14775 539.05525 219.92568 C 539.7608 218.7036 563.6673 215.39695 563.6673 215.39695 L 580.1214 215.12015 L 599.3472 221.33184 L 620.1731 221.94967 L 636.6711 231.4748 L 636.1107 219.74523 C 636.1107 219.74523 623.9845 211.11472 623.72626 210.1509 C 623.468 209.18708 608.9483 187.76864 609.3011 187.1576 C 609.65385 186.54657 570.9138 121 570.9138 121 Z" fill="black"/>
        <path d="M 570.9138 121 L 615.51276 167.93186 C 615.51276 167.93186 641.1442 209.61584 641.75526 209.96863 C 642.3663 210.3214 654.6495 242.66932 654.6495 242.66932 L 614.5978 235.8398 C 614.5978 235.8398 587.5416 238.9574 572.7822 232.06548 C 558.02275 225.17355 529.8829 235.81266 529.8829 235.81266 C 529.8829 235.81266 540.1 260.45 542.5442 261.86113 C 544.9883 263.27226 563.414 272.2809 570.0409 277.73636 C 576.66776 283.19182 589.1906 301.01323 588.39054 303.81016 C 587.59045 306.6071 581.80074 329.33534 580.8369 329.5936 C 579.8731 329.85185 580.4588 335.89303 573.3846 332.62346 C 566.3104 329.3539 514.2017 318.0074 512.9796 317.30183 C 511.75755 316.59626 476.53176 287.29675 487.52365 314.82556 C 498.51554 342.35437 504.78964 348.42087 504.78964 348.42087 C 504.78964 348.42087 542.01906 360.1387 557.2005 370.5331 C 572.3819 380.92754 576.2928 426.3655 575.94 426.97653 C 575.5872 427.58757 563.17064 444.86035 561.5958 444.7658 C 560.0209 444.6713 507.65395 432.361 499.71047 427.7748 C 491.767 423.18863 455.3123 414.3623 445.18293 409.3288 C 435.05355 404.2953 431.17294 411.0167 429.7618 413.46087 C 428.3507 415.905 445.22 440.30944 444.86724 440.9205 C 444.51445 441.5315 449.09384 454.76675 448.74106 455.3778 C 448.3883 455.9888 439.80163 477.917 439.80163 477.917 L 432.7713 484.44933 L 434.466 477.2806 L 442.58 463.22674 C 442.58 463.22674 439.83375 451.04986 440.18653 450.4388 C 440.5393 449.8278 431.8464 436.66176 431.8464 436.66176 L 422.63696 421.5681 L 425.2516 404.3392 C 425.2516 404.3392 439.0287 395.99903 439.6397 396.3518 C 440.25076 396.7046 463.823 409.4993 463.823 409.4993 L 495.90584 417.43104 C 495.90584 417.43104 514.2623 422.32613 515.83716 422.42065 C 517.412 422.5152 544.7703 430.16333 545.38135 430.5161 C 545.9924 430.8689 557.5582 427.76984 558.52205 427.5116 C 559.4859 427.25333 564.00284 415.1963 564.00284 415.1963 L 561.47095 394.1813 L 552.2615 379.08764 L 539.4297 371.6792 C 539.4297 371.6792 519.8512 366.07855 519.4984 366.6896 C 519.14563 367.30063 495.31516 353.5421 495.31516 353.5421 C 495.31516 353.5421 487.4662 347.38107 487.56073 345.8062 C 487.65526 344.23135 478.98766 325.37693 478.3766 325.02415 C 477.7656 324.67136 473.4698 306.71156 473.82257 306.10052 C 474.17535 305.4895 478.05596 298.76807 478.05596 298.76807 L 487.10845 290.14434 L 512.35005 301.45872 C 512.35005 301.45872 524.6653 306.9395 525.27637 307.2923 C 525.8874 307.6451 551.1543 313.27106 551.1543 313.27106 L 577.73786 318.02775 L 574.89706 307.42573 C 574.89706 307.42573 561.6686 290.8264 562.0214 290.21536 C 562.3742 289.60432 552.1756 280.4573 551.56456 280.10452 C 550.9535 279.75174 530.7893 268.1099 530.7893 268.1099 L 521.7436 255.5549 L 514.74536 235.22016 L 517.782 221.49375 C 517.782 221.49375 538.3497 221.14775 539.05525 219.92568 C 539.7608 218.7036 563.6673 215.39695 563.6673 215.39695 L 580.1214 215.12015 L 599.3472 221.33184 L 620.1731 221.94967 L 636.6711 231.4748 L 636.1107 219.74523 C 636.1107 219.74523 623.9845 211.11472 623.72626 210.1509 C 623.468 209.18708 608.9483 187.76864 609.3011 187.1576 C 609.65385 186.54657 570.9138 121 570.9138 121 Z" stroke="black" stroke-linecap="round" stroke-linejoin="round" stroke-width="5"/>
      </g>
      <g id="Graphic_11">
        <path d="M 184 631.3 L 184 513.7 C 184 505.5856 287.264 499 414.5 499 C 541.736 499 645 505.5856 645 513.7 L 645 631.3 C 645 639.4144 541.736 646 414.5 646 C 287.264 646 184 639.4144 184 631.3" fill="#666"/>
        <path d="M 184 631.3 L 184 513.7 C 184 505.5856 287.264 499 414.5 499 C 541.736 499 645 505.5856 645 513.7 L 645 631.3 C 645 639.4144 541.736 646 414.5 646 C 287.264 646 184 639.4144 184 631.3 M 184 513.7 C 184 521.8144 287.264 528.4 414.5 528.4 C 541.736 528.4 645 521.8144 645 513.7" stroke="black" stroke-linecap="round" stroke-linejoin="round" stroke-width="7"/>
      </g>
    </g>
  </g>
</svg>
