<?xml version="1.0" encoding="UTF-8" standalone="no"?>
<!DOCTYPE svg PUBLIC "-//W3C//DTD SVG 1.1//EN" "http://www.w3.org/Graphics/SVG/1.1/DTD/svg11.dtd">
<svg xmlns:dc="http://purl.org/dc/elements/1.1/" xmlns:xl="http://www.w3.org/1999/xlink" version="1.1" xmlns="http://www.w3.org/2000/svg" viewBox="0 0 850.394 850.394" width="850.394" height="850.394">
  <defs>
    <marker orient="auto" overflow="visible" markerUnits="strokeWidth" id="FilledArrow_Marker" stroke-linejoin="miter" stroke-miterlimit="10" viewBox="-4 -3 5 6" markerWidth="5" markerHeight="6" color="#310067">
      <g>
        <path d="M -2.88 0 L 0 1.08 L 0 -1.08 Z" fill="currentColor" stroke="currentColor" stroke-width="1"/>
      </g>
    </marker>
    <marker orient="auto" overflow="visible" markerUnits="strokeWidth" id="FilledArrow_Marker_2" stroke-linejoin="miter" stroke-miterlimit="10" viewBox="-1 -3 5 6" markerWidth="5" markerHeight="6" color="#310067">
      <g>
        <path d="M 2.88 0 L 0 -1.08 L 0 1.08 Z" fill="currentColor" stroke="currentColor" stroke-width="1"/>
      </g>
    </marker>
  </defs>
  <metadata> Produced by OmniGraffle 7.9.4 
    <dc:date>2019-08-05 10:45:21 +0000</dc:date>
  </metadata>
  <g id="cap_sensing" fill="none" stroke-opacity="1" stroke="none" stroke-dasharray="none" fill-opacity="1">
    <title>cap sensing</title>
    <g id="cap_sensing: Layer 1">
      <title>Layer 1</title>
      <g id="Graphic_3">
        <path d="M 378.52016 311.94166 L 387.23125 303.8785 C 387.41136 303.7118 387.59453 303.5484 387.78065 303.38843 L 398.756 293.95526 C 400.6161 292.35652 402.7544 291.11357 405.0642 290.28845 L 406.8021 289.66762 C 410.2247 288.445 413.2468 286.30782 415.5401 283.4883 L 427.5839 268.681 C 428.41904 267.6542 429.35405 266.71287 430.37517 265.8708 L 443.1317 255.35118 C 444.42113 254.28788 445.57217 253.06714 446.55794 251.71753 L 465.8119 225.35686 C 465.97167 225.13814 466.12697 224.9162 466.2777 224.69117 L 486.1455 195.03195 C 486.4439 194.5865 486.72423 194.12925 486.9859 193.66128 L 508.0709 155.94898 C 508.16114 155.7876 508.2491 155.62498 508.33485 155.46116 L 518.20725 136.5936 C 519.61535 133.90251 522.47775 132.29471 525.5085 132.4925 L 525.5085 132.4925 C 528.6765 132.69924 531.60096 134.2636 533.5313 136.78403 L 536.5525 140.72884 C 539.35096 144.3828 540.6102 148.98593 540.06145 153.55557 L 539.5392 157.9044 C 539.3178 159.74785 538.8408 161.5515 538.12194 163.26338 L 531.354 179.37992 C 530.54716 181.30132 529.44495 183.08482 528.0873 184.66584 L 511.862 203.56071 C 511.0904 204.45931 510.66695 205.60506 510.6688 206.7895 L 510.6688 206.7895 C 510.66945 207.23262 511.0292 207.59128 511.47234 207.5906 C 511.6744 207.5903 511.86894 207.51374 512.017 207.37625 L 526.01634 194.3784 C 526.17445 194.23162 526.3349 194.0874 526.4977 193.9458 L 553.0899 170.8121 C 553.2352 170.68567 553.38236 170.56134 553.5313 170.43916 L 575.7156 152.2389 C 576.217 151.82751 576.69816 151.39197 577.1573 150.93383 L 586.7764 141.33512 C 589.64615 138.47147 593.3184 136.54756 597.30645 135.81841 L 607.1351 134.0214 C 610.5944 133.38891 614.15934 133.67974 617.4704 134.86454 L 621.36586 136.25847 C 625.8864 137.87606 628.445 142.65668 627.28346 147.31531 L 627.08204 148.12313 C 625.89386 152.88866 622.9937 157.05038 618.9343 159.81507 L 590.332 179.29497 C 589.9318 179.5675 589.5417 179.85445 589.1624 180.15529 L 564.975 199.33803 C 563.87696 200.20888 562.8735 201.19274 561.9811 202.27338 L 553.5601 212.47116 C 552.9033 213.26655 553.01565 214.44378 553.81104 215.1006 C 554.2524 215.46506 554.83654 215.60702 555.39596 215.48575 L 558.429 214.82829 C 559.87613 214.5146 561.1739 213.719 562.10994 212.57168 L 562.10994 212.57168 C 563.0685 211.39676 564.1958 210.3703 565.45515 209.52572 L 587.05624 195.039 C 587.59375 194.67851 588.14844 194.34434 588.71835 194.03764 L 602.73636 186.49396 C 604.1806 185.71677 605.7149 185.12017 607.3048 184.7176 L 626.91505 179.75216 C 629.2683 179.1563 631.7104 178.99383 634.1219 179.2727 L 646.5217 180.7067 C 649.5132 181.05266 652.388 182.0697 654.9315 183.68194 L 662.88015 188.7203 C 665.9874 190.68988 668.0903 193.9078 668.6467 197.54442 L 668.73404 198.11537 C 669.2409 201.42837 668.48 204.81067 666.60325 207.58746 L 666.60325 207.58746 C 664.8287 210.213 661.6724 211.54451 658.5535 210.9833 L 643.3411 208.24603 C 639.3647 207.53053 635.2649 208.0361 631.5815 209.69617 L 614.0253 217.60852 C 612.8978 218.11668 611.8198 218.72834 610.80525 219.43562 L 590.9961 233.2454 C 590.3537 233.69326 589.7381 234.17848 589.1526 234.69854 L 575.9458 246.42846 C 573.5607 248.54684 571.8715 251.3366 571.0998 254.43185 L 571.0998 254.43185 C 570.73086 255.9115 571.6313 257.4101 573.11096 257.779 C 573.59976 257.90088 574.1126 257.8867 574.5939 257.73803 L 597.6908 250.60325 C 597.8031 250.56856 597.9151 250.53288 598.0268 250.4962 L 615.7492 244.67746 C 616.52995 244.42113 617.3257 244.21315 618.132 244.05472 L 629.0159 241.91615 C 631.895 241.35042 634.86336 241.42513 637.7104 242.13498 L 648.4893 244.82246 C 648.8281 244.90694 649.1647 245.0003 649.4987 245.1024 L 660.12454 248.3513 C 663.4109 249.35613 666.15955 251.63237 667.7593 254.67387 L 668.1866 255.48632 C 669.5213 258.0239 669.87556 260.96388 669.1819 263.74588 L 669.1819 263.74588 C 668.4981 266.4887 666.6546 268.79823 664.13155 270.073 L 657.0024 273.67508 C 653.9177 275.23363 650.4818 275.96624 647.0297 275.8015 L 629.874 274.98276 C 629.6504 274.9721 629.42666 274.96517 629.2028 274.962 L 616.2631 274.77942 C 614.71566 274.7576 613.1709 274.91543 611.6599 275.2498 L 596.5627 278.59044 C 593.8737 279.18546 591.3365 280.32943 589.1102 281.95068 L 580.19277 288.44457 C 580.19277 288.44457 559.9954 306.09525 559.78 306.95916 C 559.5646 307.82306 590.14454 307.35483 590.14454 307.35483 L 602.8208 305.14682 C 605.8833 304.61337 609.028 304.80117 612.0053 305.6953 L 625.4743 309.74025 C 625.4743 309.74025 633.50606 318.16607 634.3733 318.3823 C 635.2405 318.59852 628.1042 328.7482 628.1042 328.7482 L 614.6797 334.0995 C 611.4136 335.40142 607.86206 335.81933 604.383 335.3111 L 587.1411 332.79235 C 584.4298 332.3963 581.66614 332.56154 579.0214 333.27787 L 560.1657 338.385 C 558.94764 338.71493 557.76356 339.15938 556.6293 339.71243 L 541.33626 347.16886 C 539.3987 348.11356 537.32116 348.7388 535.18404 349.02043 L 524.8992 350.3757 C 522.45986 350.69713 519.9821 350.5657 517.5905 349.988 L 494.052 344.3024 C 489.3434 343.16505 484.3821 343.77524 480.0894 346.01964 L 452.76 360.30867 C 450.84993 361.30735 450.1111 363.66536 451.10977 365.57544 C 451.6094 366.53104 452.48216 367.23734 453.52094 367.5267 L 463.02387 370.17406 C 463.02387 370.17406 441.57544 374.9201 442.00623 373.19228 C 442.437 371.46446 431.8205 373.40553 431.8205 373.40553 L 400.08316 360.86168 C 396.18483 359.3209 392.86915 356.59423 390.60453 353.06685 L 376.1506 330.55337 C 372.32533 324.5951 373.32395 316.75136 378.52016 311.94166 Z" fill="#ffefc6"/>
        <path d="M 378.52016 311.94166 L 387.23125 303.8785 C 387.41136 303.7118 387.59453 303.5484 387.78065 303.38843 L 398.756 293.95526 C 400.6161 292.35652 402.7544 291.11357 405.0642 290.28845 L 406.8021 289.66762 C 410.2247 288.445 413.2468 286.30782 415.5401 283.4883 L 427.5839 268.681 C 428.41904 267.6542 429.35405 266.71287 430.37517 265.8708 L 443.1317 255.35118 C 444.42113 254.28788 445.57217 253.06714 446.55794 251.71753 L 465.8119 225.35686 C 465.97167 225.13814 466.12697 224.9162 466.2777 224.69117 L 486.1455 195.03195 C 486.4439 194.5865 486.72423 194.12925 486.9859 193.66128 L 508.0709 155.94898 C 508.16114 155.7876 508.2491 155.62498 508.33485 155.46116 L 518.20725 136.5936 C 519.61535 133.90251 522.47775 132.29471 525.5085 132.4925 L 525.5085 132.4925 C 528.6765 132.69924 531.60096 134.2636 533.5313 136.78403 L 536.5525 140.72884 C 539.35096 144.3828 540.6102 148.98593 540.06145 153.55557 L 539.5392 157.9044 C 539.3178 159.74785 538.8408 161.5515 538.12194 163.26338 L 531.354 179.37992 C 530.54716 181.30132 529.44495 183.08482 528.0873 184.66584 L 511.862 203.56071 C 511.0904 204.45931 510.66695 205.60506 510.6688 206.7895 L 510.6688 206.7895 C 510.66945 207.23262 511.0292 207.59128 511.47234 207.5906 C 511.6744 207.5903 511.86894 207.51374 512.017 207.37625 L 526.01634 194.3784 C 526.17445 194.23162 526.3349 194.0874 526.4977 193.9458 L 553.0899 170.8121 C 553.2352 170.68567 553.38236 170.56134 553.5313 170.43916 L 575.7156 152.2389 C 576.217 151.82751 576.69816 151.39197 577.1573 150.93383 L 586.7764 141.33512 C 589.64615 138.47147 593.3184 136.54756 597.30645 135.81841 L 607.1351 134.0214 C 610.5944 133.38891 614.15934 133.67974 617.4704 134.86454 L 621.36586 136.25847 C 625.8864 137.87606 628.445 142.65668 627.28346 147.31531 L 627.08204 148.12313 C 625.89386 152.88866 622.9937 157.05038 618.9343 159.81507 L 590.332 179.29497 C 589.9318 179.5675 589.5417 179.85445 589.1624 180.15529 L 564.975 199.33803 C 563.87696 200.20888 562.8735 201.19274 561.9811 202.27338 L 553.5601 212.47116 C 552.9033 213.26655 553.01565 214.44378 553.81104 215.1006 C 554.2524 215.46506 554.83654 215.60702 555.39596 215.48575 L 558.429 214.82829 C 559.87613 214.5146 561.1739 213.719 562.10994 212.57168 L 562.10994 212.57168 C 563.0685 211.39676 564.1958 210.3703 565.45515 209.52572 L 587.05624 195.039 C 587.59375 194.67851 588.14844 194.34434 588.71835 194.03764 L 602.73636 186.49396 C 604.1806 185.71677 605.7149 185.12017 607.3048 184.7176 L 626.91505 179.75216 C 629.2683 179.1563 631.7104 178.99383 634.1219 179.2727 L 646.5217 180.7067 C 649.5132 181.05266 652.388 182.0697 654.9315 183.68194 L 662.88015 188.7203 C 665.9874 190.68988 668.0903 193.9078 668.6467 197.54442 L 668.73404 198.11537 C 669.2409 201.42837 668.48 204.81067 666.60325 207.58746 L 666.60325 207.58746 C 664.8287 210.213 661.6724 211.54451 658.5535 210.9833 L 643.3411 208.24603 C 639.3647 207.53053 635.2649 208.0361 631.5815 209.69617 L 614.0253 217.60852 C 612.8978 218.11668 611.8198 218.72834 610.80525 219.43562 L 590.9961 233.2454 C 590.3537 233.69326 589.7381 234.17848 589.1526 234.69854 L 575.9458 246.42846 C 573.5607 248.54684 571.8715 251.3366 571.0998 254.43185 L 571.0998 254.43185 C 570.73086 255.9115 571.6313 257.4101 573.11096 257.779 C 573.59976 257.90088 574.1126 257.8867 574.5939 257.73803 L 597.6908 250.60325 C 597.8031 250.56856 597.9151 250.53288 598.0268 250.4962 L 615.7492 244.67746 C 616.52995 244.42113 617.3257 244.21315 618.132 244.05472 L 629.0159 241.91615 C 631.895 241.35042 634.86336 241.42513 637.7104 242.13498 L 648.4893 244.82246 C 648.8281 244.90694 649.1647 245.0003 649.4987 245.1024 L 660.12454 248.3513 C 663.4109 249.35613 666.15955 251.63237 667.7593 254.67387 L 668.1866 255.48632 C 669.5213 258.0239 669.87556 260.96388 669.1819 263.74588 L 669.1819 263.74588 C 668.4981 266.4887 666.6546 268.79823 664.13155 270.073 L 657.0024 273.67508 C 653.9177 275.23363 650.4818 275.96624 647.0297 275.8015 L 629.874 274.98276 C 629.6504 274.9721 629.42666 274.96517 629.2028 274.962 L 616.2631 274.77942 C 614.71566 274.7576 613.1709 274.91543 611.6599 275.2498 L 596.5627 278.59044 C 593.8737 279.18546 591.3365 280.32943 589.1102 281.95068 L 580.19277 288.44457 C 580.19277 288.44457 559.9954 306.09525 559.78 306.95916 C 559.5646 307.82306 590.14454 307.35483 590.14454 307.35483 L 602.8208 305.14682 C 605.8833 304.61337 609.028 304.80117 612.0053 305.6953 L 625.4743 309.74025 C 625.4743 309.74025 633.50606 318.16607 634.3733 318.3823 C 635.2405 318.59852 628.1042 328.7482 628.1042 328.7482 L 614.6797 334.0995 C 611.4136 335.40142 607.86206 335.81933 604.383 335.3111 L 587.1411 332.79235 C 584.4298 332.3963 581.66614 332.56154 579.0214 333.27787 L 560.1657 338.385 C 558.94764 338.71493 557.76356 339.15938 556.6293 339.71243 L 541.33626 347.16886 C 539.3987 348.11356 537.32116 348.7388 535.18404 349.02043 L 524.8992 350.3757 C 522.45986 350.69713 519.9821 350.5657 517.5905 349.988 L 494.052 344.3024 C 489.3434 343.16505 484.3821 343.77524 480.0894 346.01964 L 452.76 360.30867 C 450.84993 361.30735 450.1111 363.66536 451.10977 365.57544 C 451.6094 366.53104 452.48216 367.23734 453.52094 367.5267 L 463.02387 370.17406 C 463.02387 370.17406 441.57544 374.9201 442.00623 373.19228 C 442.437 371.46446 431.8205 373.40553 431.8205 373.40553 L 400.08316 360.86168 C 396.18483 359.3209 392.86915 356.59423 390.60453 353.06685 L 376.1506 330.55337 C 372.32533 324.5951 373.32395 316.75136 378.52016 311.94166 Z" stroke="black" stroke-linecap="round" stroke-linejoin="round" stroke-width="7"/>
      </g>
      <g id="Graphic_8">
        <path d="M 14 599.42375 L 30.571766 610.5108 C 33.26817 612.3148 36.5909 612.9225 39.751273 612.1897 L 148.68957 586.93 L 148.68957 586.93 C 149.725 586.6899 150.72302 586.3103 151.65628 585.8016 L 293.6056 508.4287 C 294.00983 508.20837 294.40076 507.96443 294.77636 507.6982 L 455.22646 393.95505 C 456.7942 392.84368 458.06513 391.36443 458.9277 389.6472 L 464.8809 377.795 C 466.6068 374.3589 465.2891 370.17324 461.90605 368.3455 L 458.855 366.69715 C 456.88165 365.631 455.255 364.02185 454.1676 362.0601 L 447.4988 350.02927 C 447.1925 349.47666 446.84205 348.9497 446.45093 348.45348 L 434.7189 333.5694 C 434.5694 333.37975 434.4258 333.18552 434.2883 332.987 L 433.16373 331.36356 C 432.28716 330.0981 431.14367 329.04035 429.8139 328.26484 L 394.983 307.95208 C 394.9269 307.91935 394.8705 307.8871 394.81385 307.8553 L 379.60435 299.32062 C 378.9954 298.9789 378.4181 298.58353 377.8794 298.1392 L 376.04225 296.6239 C 374.47655 295.3325 372.2434 295.23878 370.575 296.39448 L 180.17853 428.28334 C 179.67914 428.62927 179.15366 428.9359 178.60682 429.2005 L 173.05502 431.88676 L 212.15844 400.67213 L 95.56211 472.7132 L 14 494.4206 Z" fill="#333"/>
        <path d="M 14 599.42375 L 30.571766 610.5108 C 33.26817 612.3148 36.5909 612.9225 39.751273 612.1897 L 148.68957 586.93 L 148.68957 586.93 C 149.725 586.6899 150.72302 586.3103 151.65628 585.8016 L 293.6056 508.4287 C 294.00983 508.20837 294.40076 507.96443 294.77636 507.6982 L 455.22646 393.95505 C 456.7942 392.84368 458.06513 391.36443 458.9277 389.6472 L 464.8809 377.795 C 466.6068 374.3589 465.2891 370.17324 461.90605 368.3455 L 458.855 366.69715 C 456.88165 365.631 455.255 364.02185 454.1676 362.0601 L 447.4988 350.02927 C 447.1925 349.47666 446.84205 348.9497 446.45093 348.45348 L 434.7189 333.5694 C 434.5694 333.37975 434.4258 333.18552 434.2883 332.987 L 433.16373 331.36356 C 432.28716 330.0981 431.14367 329.04035 429.8139 328.26484 L 394.983 307.95208 C 394.9269 307.91935 394.8705 307.8871 394.81385 307.8553 L 379.60435 299.32062 C 378.9954 298.9789 378.4181 298.58353 377.8794 298.1392 L 376.04225 296.6239 C 374.47655 295.3325 372.2434 295.23878 370.575 296.39448 L 180.17853 428.28334 C 179.67914 428.62927 179.15366 428.9359 178.60682 429.2005 L 173.05502 431.88676 L 212.15844 400.67213 L 95.56211 472.7132 L 14 494.4206 Z" stroke="black" stroke-linecap="round" stroke-linejoin="round" stroke-width="8"/>
      </g>
      <g id="Graphic_10">
        <path d="M 772 604.4399 L 772 560.9776 C 772 539.24644 729.125 517.5153 600.5 517.5153 C 471.875 517.5153 429 539.24644 429 560.9776 L 429 604.4399 Z" fill="#999"/>
        <path d="M 772 604.4399 L 772 560.9776 C 772 539.24644 729.125 517.5153 600.5 517.5153 C 471.875 517.5153 429 539.24644 429 560.9776 L 429 604.4399 Z" stroke="black" stroke-linecap="round" stroke-linejoin="round" stroke-width="6"/>
      </g>
      <g id="Line_14">
        <path d="M 444.36364 531.2049 L 444.36364 531.2049 C 432.6083 527.58083 419.9193 528.51623 408.82243 533.8249 L 387.5405 544.006 C 378.99376 548.0947 375.3798 558.33776 379.4685 566.8845 C 381.4878 571.1055 385.1437 574.3185 389.5891 575.77904 L 466.6243 601.0889 C 473.2273 603.2583 480.08484 604.558 487.0237 604.95514 L 609.1801 611.94676 C 615.5223 612.30975 621.8852 611.91604 628.1342 610.77395 L 740.72175 590.1971 C 745.4431 589.3342 750.0773 588.0482 754.5681 586.3546 L 824.2122 560.0902 C 828.8899 558.32614 831.2518 553.1041 829.4878 548.4265 C 829.0838 547.3554 828.4804 546.3707 827.7095 545.5245 L 827.7095 545.5245 C 821.9318 539.1826 813.9885 535.2343 805.4446 534.4576 L 788.7267 532.9378 C 782.1976 532.34425 775.6353 533.63586 769.8182 536.65944 L 769.8182 536.65944" stroke="#fff3a8" stroke-linecap="round" stroke-linejoin="round" stroke-width="5"/>
      </g>
      <g id="Line_15">
        <path d="M 508 518.0909 L 480.5541 509.9049 C 461.5291 504.2305 441.07383 505.8329 423.1645 514.4006 L 418.5935 516.58737 C 411.4087 520.0245 408.37063 528.6353 411.8078 535.8201 C 413.5053 539.3685 416.57863 542.0695 420.31565 543.2973 L 483.4902 564.05327 C 490.0932 566.2227 496.95074 567.52236 503.8896 567.9195 L 603.3933 573.6146 C 609.7355 573.9776 616.0983 573.5839 622.3474 572.4418 L 714.36415 555.62453 C 719.0855 554.76164 723.7197 553.4756 728.2105 551.782 L 785.6812 530.1085 C 789.6134 528.62556 791.599 524.2357 790.116 520.3034 C 789.7765 519.403 789.2692 518.5752 788.62115 517.86386 L 788.62115 517.86386 C 783.7641 512.53253 777.0866 509.21344 769.9042 508.5605 L 757.79985 507.4601 C 750.92505 506.8351 743.9983 507.1026 737.1921 508.2558 L 682.54545 517.5153" stroke="#fff3a8" stroke-linecap="round" stroke-linejoin="round" stroke-width="5"/>
      </g>
      <g id="Line_16">
        <path d="M 603.67306 473.08195 L 508.3819 475.6502 C 497.1644 475.95254 486.13595 478.61143 476.0131 483.45415 L 467.7177 487.4226 C 462.4732 489.93153 460.25557 496.21696 462.7645 501.4615 C 464.0036 504.05164 466.247 506.02323 468.9748 506.91946 L 512.4028 521.1877 C 519.0058 523.3571 525.86335 524.6568 532.80224 525.05394 L 600.0337 528.9019 C 606.3759 529.2649 612.7388 528.8712 618.9878 527.7291 L 681.6985 516.26793 C 686.4199 515.40504 691.054 514.119 695.54485 512.4254 L 735.6726 497.2923 C 738.5429 496.20984 739.9923 493.00545 738.9098 490.1351 C 738.662 489.47787 738.2917 488.8736 737.8186 488.35436 L 737.8186 488.35436 C 734.27325 484.46277 729.399 482.04 724.1562 481.5634 L 708.7679 480.16445 C 708.0971 480.10347 707.42555 480.05096 706.7534 480.00694 L 601.0187 473.08195" stroke="#fff3a8" stroke-linecap="round" stroke-linejoin="round" stroke-width="5"/>
      </g>
      <g id="Line_17">
        <path d="M 601.7578 440.00114 L 521.9345 442.1525 C 510.71696 442.45485 499.6885 445.11374 489.56565 449.95645 L 484.52754 452.36665 C 480.00534 454.53004 478.09314 459.9498 480.25653 464.472 C 481.325 466.7054 483.25937 468.40544 485.6115 469.1782 L 521.6882 481.0312 C 528.2912 483.2006 535.14876 484.5003 542.08764 484.89745 L 597.3048 488.0578 C 603.647 488.4208 610.00984 488.0271 616.2589 486.885 L 668.05946 477.41777 C 672.7808 476.5549 677.415 475.26885 681.9058 473.57525 L 715.5771 460.877 C 718.0521 459.94363 719.3019 457.1806 718.3685 454.7056 C 718.1548 454.13886 717.8355 453.6178 717.4276 453.1701 L 717.4276 453.1701 C 714.3705 449.8145 710.1676 447.7254 705.6469 447.31443 L 692.5166 446.12077 C 691.8458 446.0598 691.1742 446.0073 690.5021 445.96326 L 599.46905 440.00114" stroke="#fff3a8" stroke-linecap="round" stroke-linejoin="round" stroke-width="5"/>
      </g>
      <g id="Line_18">
        <path d="M 610.58754 414.72044 L 548.01623 416.40685 C 536.7987 416.7092 525.77026 419.36807 515.6474 424.2108 L 514.24225 424.883 C 510.5257 426.66096 508.95416 431.11516 510.73214 434.8317 C 511.61024 436.66723 513.2 438.0644 515.1331 438.69953 L 543.0106 447.85865 C 549.6136 450.02806 556.4711 451.32775 563.41 451.7249 L 605.227 454.1183 C 611.5692 454.4813 617.932 454.0876 624.1811 452.9455 L 663.81305 445.7022 C 668.5344 444.83933 673.1686 443.5533 677.6594 441.8597 L 704.1295 431.8772 C 706.1636 431.1101 707.1907 428.8393 706.4236 426.80523 C 706.248 426.3395 705.9856 425.91126 705.6503 425.5433 L 705.6503 425.5433 C 703.1379 422.7855 699.6837 421.0686 695.9684 420.73084 L 685.3566 419.76614 C 684.6858 419.70515 684.0142 419.65264 683.3421 419.6086 L 608.7065 414.72044" stroke="#fff3a8" stroke-linecap="round" stroke-linejoin="round" stroke-width="5"/>
      </g>
      <g id="Line_19">
        <path d="M 579.602 387.31343 L 559.0999 388.04336 C 550.4731 388.3505 542.00207 390.4316 534.215 394.15686 L 534.215 394.15686 C 531.5969 395.40933 530.4899 398.547 531.74235 401.1651 C 532.3609 402.4581 533.4808 403.4423 534.84254 403.8897 L 551.5405 409.3758 C 558.1435 411.54523 565.00105 412.8449 571.93994 413.24207 L 595.486 414.58973 C 601.8282 414.9527 608.1911 414.559 614.4401 413.4169 L 637.48045 409.206 C 642.2018 408.3431 646.836 407.0571 651.3268 405.3635 L 667.97825 399.08384 C 669.4111 398.54346 670.13465 396.94383 669.5943 395.51096 C 669.47054 395.18286 669.2857 394.8812 669.04956 394.622 L 669.04956 394.622 C 667.2797 392.6793 664.8465 391.46988 662.2293 391.23195 L 655.59 390.6284 C 654.5602 390.53476 653.5286 390.4611 652.4959 390.4075 L 583.3333 386.8159" stroke="#fff3a8" stroke-linecap="round" stroke-linejoin="round" stroke-width="5"/>
      </g>
      <g id="Line_21">
        <line x1="582" y1="514.1" x2="582" y2="346" marker-start="url(#FilledArrow_Marker)" stroke="#310067" stroke-linecap="round" stroke-linejoin="round" stroke-width="5"/>
      </g>
      <g id="Line_22">
        <line x1="607" y1="536" x2="607" y2="367.9" marker-end="url(#FilledArrow_Marker_2)" stroke="#310067" stroke-linecap="round" stroke-linejoin="round" stroke-width="5"/>
      </g>
      <g id="Line_23">
        <line x1="579.2" y1="414.72044" x2="613.1841" y2="415.17413" stroke="#fff3a8" stroke-linecap="round" stroke-linejoin="round" stroke-width="5"/>
      </g>
      <g id="Line_25">
        <line x1="579.2" y1="413.72044" x2="613.1841" y2="414.17413" stroke="#fff3a8" stroke-linecap="round" stroke-linejoin="round" stroke-width="5"/>
      </g>
      <g id="Line_26">
        <path d="M 579.2 453.249 L 594.7009 454.06233 C 597.0716 454.1867 599.44664 454.2055 601.819 454.1187 L 613.1841 453.7027" stroke="#fff3a8" stroke-linecap="round" stroke-linejoin="round" stroke-width="5"/>
      </g>
      <g id="Line_27">
        <path d="M 579.2 488.1885 L 594.7009 489.00184 C 597.0716 489.1262 599.44664 489.14503 601.819 489.0582 L 613.1841 488.6422" stroke="#fff3a8" stroke-linecap="round" stroke-linejoin="round" stroke-width="5"/>
      </g>
    </g>
  </g>
</svg>
