<?xml version="1.0" encoding="UTF-8" standalone="no"?>
<!DOCTYPE svg PUBLIC "-//W3C//DTD SVG 1.1//EN" "http://www.w3.org/Graphics/SVG/1.1/DTD/svg11.dtd">
<svg xmlns:xl="http://www.w3.org/1999/xlink" version="1.1" xmlns:dc="http://purl.org/dc/elements/1.1/" xmlns="http://www.w3.org/2000/svg" viewBox="0 0 850.394 850.394" width="850.394" height="850.394">
  <defs/>
  <metadata> Produced by OmniGraffle 7.9.4 
    <dc:date>2019-05-10 18:23:46 +0000</dc:date>
  </metadata>
  <g id="capacitor" fill="none" stroke-opacity="1" fill-opacity="1" stroke="none" stroke-dasharray="none">
    <title>capacitor</title>
    <g id="capacitor: Layer 1">
      <title>Layer 1</title>
      <g id="Line_9">
        <path d="M 437.12636 284.22678 L 347.99682 463.1824 C 347.7211 463.73597 347.41987 464.27646 347.09408 464.8021 L 296.4174 546.5674 C 295.95996 547.30545 295.45494 548.01294 294.90554 548.68537 L 212.03335 650.1159 C 211.64754 650.5881 211.24033 651.04244 210.813 651.47745 L 103 761.228" stroke="black" stroke-linecap="round" stroke-linejoin="round" stroke-width="16"/>
      </g>
      <g id="Line_8">
        <path d="M 602.49104 402.308 L 497.7549 626.6013 C 497.5362 627.0696 497.29944 627.5293 497.04513 627.9793 L 460.25013 693.0871 C 459.45095 694.5012 458.827 696.00745 458.39213 697.5725 L 432.69396 790.0509" stroke="black" stroke-linecap="round" stroke-linejoin="round" stroke-width="16"/>
      </g>
      <g id="Graphic_7">
        <path d="M 454.22583 166.01898 L 426.31966 213.07922 C 420.4214 223.02592 416.74963 234.1331 415.55737 245.6355 L 414.81206 252.82583 C 413.18207 268.5513 418.1387 284.24947 428.5034 296.18766 L 465.0795 338.31652 C 467.65416 341.28208 470.4437 344.05402 473.42554 346.60986 L 512.4496 380.0591 C 523.4063 389.45056 536.69934 395.7035 550.9204 398.1554 L 573.387 402.02893 C 580.06755 403.18076 586.86744 403.47876 593.62316 402.9158 L 605.8998 401.89273 C 620.5248 400.674 634.4394 395.06098 645.8165 385.79073 L 666.4191 369.00343 C 674.6355 362.30858 681.4397 354.0478 686.4365 344.701 L 711.96204 296.95365 C 714.46115 292.2789 712.6974 286.46334 708.0227 283.96423 C 705.8064 282.77943 703.2139 282.51112 700.80195 283.21695 L 700.80195 283.21695 C 687.2655 287.17826 672.6455 283.48147 662.6189 273.56203 L 542.45715 154.68466 C 520.30016 132.7645 484.5686 132.95649 462.6484 155.11348 C 459.40597 158.39096 456.57736 162.05342 454.22583 166.01898 Z" fill="#999"/>
        <path d="M 454.22583 166.01898 L 426.31966 213.07922 C 420.4214 223.02592 416.74963 234.1331 415.55737 245.6355 L 414.81206 252.82583 C 413.18207 268.5513 418.1387 284.24947 428.5034 296.18766 L 465.0795 338.31652 C 467.65416 341.28208 470.4437 344.05402 473.42554 346.60986 L 512.4496 380.0591 C 523.4063 389.45056 536.69934 395.7035 550.9204 398.1554 L 573.387 402.02893 C 580.06755 403.18076 586.86744 403.47876 593.62316 402.9158 L 605.8998 401.89273 C 620.5248 400.674 634.4394 395.06098 645.8165 385.79073 L 666.4191 369.00343 C 674.6355 362.30858 681.4397 354.0478 686.4365 344.701 L 711.96204 296.95365 C 714.46115 292.2789 712.6974 286.46334 708.0227 283.96423 C 705.8064 282.77943 703.2139 282.51112 700.80195 283.21695 L 700.80195 283.21695 C 687.2655 287.17826 672.6455 283.48147 662.6189 273.56203 L 542.45715 154.68466 C 520.30016 132.7645 484.5686 132.95649 462.6484 155.11348 C 459.40597 158.39096 456.57736 162.05342 454.22583 166.01898 Z" stroke="black" stroke-linecap="round" stroke-linejoin="round" stroke-width="5"/>
      </g>
      <g id="Graphic_6">
        <path d="M 689.8967 318.6696 L 680.1302 325.91575 C 670.7383 332.8839 659.27284 336.48484 647.5835 336.13763 L 587.39534 334.34986 C 576.6731 334.03138 566.12446 331.5598 556.37675 327.08214 L 548.689 323.55072 C 541.0382 320.03628 533.9901 315.33613 527.805 309.6238 L 484.67995 269.7952 C 475.7483 261.5463 468.8143 251.37012 464.40475 240.03986 L 459.69557 227.9397 C 454.2784 214.02033 452.86616 198.8624 455.61876 184.18186 L 458.48825 168.87792 C 461.18826 154.47789 468.17617 141.22964 478.53597 130.86984 L 484.47303 124.93278 C 491.06624 118.33957 498.7613 112.94974 507.21074 109.00667 L 526.7836 99.87268 C 542.2343 92.66235 559.5845 90.57704 576.3037 93.92088 L 603.9938 99.4589 C 605.7945 99.81903 607.58224 100.24107 609.3539 100.72424 L 616.9858 102.80568 C 623.7421 104.64829 629.9412 108.12496 635.0365 112.92912 L 690.6378 165.3532 C 692.0515 166.68612 693.4162 168.0701 694.7291 169.50239 L 720.01315 197.08499 C 728.9578 206.84281 733.9198 219.59912 733.9198 232.83628 L 733.9198 241.89594 C 733.9198 249.537 732.8251 257.13867 730.6691 264.46925 L 729.2425 269.3197 C 726.1733 279.75475 720.5349 289.2529 712.8437 296.94414 L 698.7975 310.9903 C 696.0229 313.7649 693.048 316.33158 689.8967 318.6696 Z" fill="white"/>
        <path d="M 689.8967 318.6696 L 680.1302 325.91575 C 670.7383 332.8839 659.27284 336.48484 647.5835 336.13763 L 587.39534 334.34986 C 576.6731 334.03138 566.12446 331.5598 556.37675 327.08214 L 548.689 323.55072 C 541.0382 320.03628 533.9901 315.33613 527.805 309.6238 L 484.67995 269.7952 C 475.7483 261.5463 468.8143 251.37012 464.40475 240.03986 L 459.69557 227.9397 C 454.2784 214.02033 452.86616 198.8624 455.61876 184.18186 L 458.48825 168.87792 C 461.18826 154.47789 468.17617 141.22964 478.53597 130.86984 L 484.47303 124.93278 C 491.06624 118.33957 498.7613 112.94974 507.21074 109.00667 L 526.7836 99.87268 C 542.2343 92.66235 559.5845 90.57704 576.3037 93.92088 L 603.9938 99.4589 C 605.7945 99.81903 607.58224 100.24107 609.3539 100.72424 L 616.9858 102.80568 C 623.7421 104.64829 629.9412 108.12496 635.0365 112.92912 L 690.6378 165.3532 C 692.0515 166.68612 693.4162 168.0701 694.7291 169.50239 L 720.01315 197.08499 C 728.9578 206.84281 733.9198 219.59912 733.9198 232.83628 L 733.9198 241.89594 C 733.9198 249.537 732.8251 257.13867 730.6691 264.46925 L 729.2425 269.3197 C 726.1733 279.75475 720.5349 289.2529 712.8437 296.94414 L 698.7975 310.9903 C 696.0229 313.7649 693.048 316.33158 689.8967 318.6696 Z" stroke="black" stroke-linecap="round" stroke-linejoin="round" stroke-width="5"/>
      </g>
      <g id="Line_5">
        <line x1="415.9315" y1="273.5073" x2="454.87637" y2="205.18516" stroke="black" stroke-linecap="round" stroke-linejoin="round" stroke-width="3"/>
      </g>
      <g id="Line_4">
        <line x1="532.02327" y1="391.4863" x2="567.2834" y2="330.28327" stroke="black" stroke-linecap="round" stroke-linejoin="round" stroke-width="3"/>
      </g>
      <g id="Line_3">
        <line x1="627.7012" y1="396.29877" x2="664.98755" y2="336.1478" stroke="black" stroke-linecap="round" stroke-linejoin="round" stroke-width="3"/>
      </g>
      <g id="Line_10">
        <path d="M 507.70195 135.69927 L 495.02993 149.10308 C 484.7875 159.93702 477.7763 173.4176 474.7873 188.02403 L 472.8528 197.47748 C 470.05973 211.12642 473.3204 225.31592 481.7915 236.37642 L 490.527 247.78204 C 493.587 251.7774 497.0172 255.4751 500.77193 258.826 L 532.3905 287.0436 C 536.47316 290.68714 540.9189 293.90217 545.65784 296.6382 L 558.3914 303.98992" stroke="black" stroke-linecap="round" stroke-linejoin="round" stroke-width="4"/>
      </g>
    </g>
  </g>
</svg>
