<?xml version="1.0" encoding="UTF-8" standalone="no"?>
<!DOCTYPE svg PUBLIC "-//W3C//DTD SVG 1.1//EN" "http://www.w3.org/Graphics/SVG/1.1/DTD/svg11.dtd">
<svg xmlns:xl="http://www.w3.org/1999/xlink" xmlns:dc="http://purl.org/dc/elements/1.1/" version="1.1" xmlns="http://www.w3.org/2000/svg" viewBox="0 0 850.394 850.394" width="850.394" height="850.394">
  <defs/>
  <metadata> Produced by OmniGraffle 7.9.4 
    <dc:date>2019-04-17 13:47:06 +0000</dc:date>
  </metadata>
  <g id="capacitor" stroke-opacity="1" stroke="none" fill="none" fill-opacity="1" stroke-dasharray="none">
    <title>capacitor</title>
    <g id="capacitor: Layer 1">
      <title>Layer 1</title>
      <g id="Line_9">
        <path d="M 488.1983 222.2543 L 246.90037 458.81516 C 246.49237 459.21515 246.06742 459.59747 245.62668 459.9611 L 176.54914 516.94935 C 175.73986 517.617 174.8793 518.21994 173.97542 518.7526 L 42 596.5238" stroke="black" stroke-linecap="round" stroke-linejoin="round" stroke-width="16"/>
      </g>
      <g id="Line_8">
        <path d="M 617.3666 379.11155 L 457.92676 568.9178 C 457.74163 569.13816 457.5518 569.3545 457.3573 569.5667 L 280.3743 762.681 C 280.0382 763.0478 279.6885 763.4019 279.32597 763.7426 L 203.90476 834.619" stroke="black" stroke-linecap="round" stroke-linejoin="round" stroke-width="16"/>
      </g>
      <g id="Graphic_7">
        <path d="M 535.3095 112.5 L 496.17415 150.73406 C 487.90246 158.81524 481.48106 168.59364 477.3524 179.39551 L 474.7715 186.14795 C 469.127 200.9157 469.85174 217.36185 476.7734 231.57583 L 501.19946 281.73578 C 502.91887 285.26666 504.89595 288.66615 507.11466 291.90665 L 536.1517 334.3163 C 544.3044 346.22357 555.5261 355.7039 568.62796 361.75294 L 589.3265 371.3093 C 595.4813 374.1509 601.9724 376.1987 608.6436 377.40343 L 620.7667 379.59266 C 635.2088 382.20067 650.102 380.3803 663.4908 374.37053 L 687.7363 363.4876 C 697.40545 359.1474 706.1159 352.9292 713.3615 345.19414 L 750.3752 305.68022 C 753.9991 301.81157 753.8006 295.7377 749.932 292.11382 C 748.0979 290.39578 745.6631 289.4656 743.1507 289.52314 L 743.1507 289.52314 C 729.0502 289.84597 715.8852 282.49122 708.7676 270.3147 L 623.468 124.38784 C 607.7393 97.47994 573.1756 88.41737 546.2677 104.14602 C 542.2874 106.47262 538.6073 109.27818 535.3095 112.5 Z" fill="#666"/>
        <path d="M 535.3095 112.5 L 496.17415 150.73406 C 487.90246 158.81524 481.48106 168.59364 477.3524 179.39551 L 474.7715 186.14795 C 469.127 200.9157 469.85174 217.36185 476.7734 231.57583 L 501.19946 281.73578 C 502.91887 285.26666 504.89595 288.66615 507.11466 291.90665 L 536.1517 334.3163 C 544.3044 346.22357 555.5261 355.7039 568.62796 361.75294 L 589.3265 371.3093 C 595.4813 374.1509 601.9724 376.1987 608.6436 377.40343 L 620.7667 379.59266 C 635.2088 382.20067 650.102 380.3803 663.4908 374.37053 L 687.7363 363.4876 C 697.40545 359.1474 706.1159 352.9292 713.3615 345.19414 L 750.3752 305.68022 C 753.9991 301.81157 753.8006 295.7377 749.932 292.11382 C 748.0979 290.39578 745.6631 289.4656 743.1507 289.52314 L 743.1507 289.52314 C 729.0502 289.84597 715.8852 282.49122 708.7676 270.3147 L 623.468 124.38784 C 607.7393 97.47994 573.1756 88.41737 546.2677 104.14602 C 542.2874 106.47262 538.6073 109.27818 535.3095 112.5 Z" stroke="black" stroke-linecap="round" stroke-linejoin="round" stroke-width="5"/>
      </g>
      <g id="Graphic_6">
        <path d="M 723.44125 320.9453 L 712.13204 325.41677 C 701.2567 329.7167 689.2499 330.22745 678.0487 326.86664 L 620.37415 309.56195 C 610.0997 306.4792 600.5502 301.36166 592.2935 294.51367 L 585.7817 289.11284 C 579.3012 283.73798 573.7098 277.3738 569.2139 270.2553 L 537.8667 220.62225 C 531.37435 210.34272 527.3104 198.71865 525.9836 186.63318 L 524.5666 173.7265 C 522.9366 158.87935 525.4957 143.87239 531.9541 130.40452 L 538.68676 116.36472 C 545.02177 103.15417 555.2005 92.16595 567.8886 84.84047 L 575.16 80.64233 C 583.235 75.98023 592.0628 72.76568 601.2449 71.14384 L 622.51484 67.38691 C 639.30524 64.4212 656.604 66.89751 671.88805 74.45466 L 697.2013 86.9707 C 698.8474 87.78462 700.465 88.65498 702.05125 89.58023 L 708.8844 93.56603 C 714.93355 97.0945 720.0216 102.05716 723.6999 108.01638 L 763.8383 173.04483 C 764.8588 174.69822 765.8188 176.38825 766.7163 178.11154 L 783.9999 211.29828 C 790.1143 223.03867 791.6056 236.64458 788.1796 249.4307 L 785.8348 258.18165 C 783.8571 265.56236 780.8323 272.62167 776.8524 279.14443 L 774.219 283.46037 C 768.55365 292.7455 760.64905 300.4607 751.22925 305.89922 L 734.0263 315.83135 C 730.6281 317.7933 727.0902 319.50254 723.44125 320.9453 Z" fill="#cbcbcb"/>
        <path d="M 723.44125 320.9453 L 712.13204 325.41677 C 701.2567 329.7167 689.2499 330.22745 678.0487 326.86664 L 620.37415 309.56195 C 610.0997 306.4792 600.5502 301.36166 592.2935 294.51367 L 585.7817 289.11284 C 579.3012 283.73798 573.7098 277.3738 569.2139 270.2553 L 537.8667 220.62225 C 531.37435 210.34272 527.3104 198.71865 525.9836 186.63318 L 524.5666 173.7265 C 522.9366 158.87935 525.4957 143.87239 531.9541 130.40452 L 538.68676 116.36472 C 545.02177 103.15417 555.2005 92.16595 567.8886 84.84047 L 575.16 80.64233 C 583.235 75.98023 592.0628 72.76568 601.2449 71.14384 L 622.51484 67.38691 C 639.30524 64.4212 656.604 66.89751 671.88805 74.45466 L 697.2013 86.9707 C 698.8474 87.78462 700.465 88.65498 702.05125 89.58023 L 708.8844 93.56603 C 714.93355 97.0945 720.0216 102.05716 723.6999 108.01638 L 763.8383 173.04483 C 764.8588 174.69822 765.8188 176.38825 766.7163 178.11154 L 783.9999 211.29828 C 790.1143 223.03867 791.6056 236.64458 788.1796 249.4307 L 785.8348 258.18165 C 783.8571 265.56236 780.8323 272.62167 776.8524 279.14443 L 774.219 283.46037 C 768.55365 292.7455 760.64905 300.4607 751.22925 305.89922 L 734.0263 315.83135 C 730.6281 317.7933 727.0902 319.50254 723.44125 320.9453 Z" stroke="black" stroke-linecap="round" stroke-linejoin="round" stroke-width="5"/>
      </g>
      <g id="Line_5">
        <line x1="470.5" y1="206.41442" x2="525.80094" y2="150.5" stroke="black" stroke-linecap="round" stroke-linejoin="round" stroke-width="3"/>
      </g>
      <g id="Line_4">
        <line x1="552.10084" y1="350.42017" x2="602" y2="300.42857" stroke="black" stroke-linecap="round" stroke-linejoin="round" stroke-width="3"/>
      </g>
      <g id="Line_3">
        <line x1="643.2731" y1="379.83193" x2="694.85714" y2="331.38095" stroke="black" stroke-linecap="round" stroke-linejoin="round" stroke-width="3"/>
      </g>
      <g id="Line_10">
        <path d="M 594.8108 97.05405 L 579.1014 106.72137 C 566.4039 114.53521 556.1426 125.74181 549.47504 139.07695 L 545.1597 147.7076 C 538.92923 160.16856 538.4063 174.71848 543.7261 187.5946 L 549.2119 200.87248 C 551.1336 205.5237 553.48984 209.9832 556.2494 214.1917 L 579.4873 249.63132 C 582.48785 254.20737 585.95 258.4635 589.8193 262.33283 L 600.2162 272.72973" stroke="black" stroke-linecap="round" stroke-linejoin="round" stroke-width="4"/>
      </g>
    </g>
  </g>
</svg>
