<?xml version="1.0" encoding="UTF-8" standalone="no"?>
<!DOCTYPE svg PUBLIC "-//W3C//DTD SVG 1.1//EN" "http://www.w3.org/Graphics/SVG/1.1/DTD/svg11.dtd">
<svg xmlns:xl="http://www.w3.org/1999/xlink" xmlns:dc="http://purl.org/dc/elements/1.1/" xmlns="http://www.w3.org/2000/svg" version="1.1" viewBox="0 0 850.394 850.394" width="850.394" height="850.394">
  <defs/>
  <metadata> Produced by OmniGraffle 7.9.4 
    <dc:date>2019-09-29 21:57:29 +0000</dc:date>
  </metadata>
  <g id="cardboard_drum_machine" stroke="none" stroke-dasharray="none" fill="none" stroke-opacity="1" fill-opacity="1">
    <title>cardboard drum machine</title>
    <g id="cardboard_drum_machine: Layer 1">
      <title>Layer 1</title>
      <g id="Graphic_2">
        <path d="M 51 667.5 L 51 253.05 L 127.17846 207 L 812.7846 207 L 812.7846 621.45 L 736.6061 667.5 Z" fill="#a5682a"/>
        <path d="M 51 667.5 L 51 253.05 L 127.17846 207 L 812.7846 207 L 812.7846 621.45 L 736.6061 667.5 L 51 667.5 M 51 253.05 L 736.6061 253.05 L 812.7846 207 M 736.6061 253.05 L 736.6061 667.5" stroke="black" stroke-linecap="round" stroke-linejoin="round" stroke-width="11"/>
      </g>
      <g id="Graphic_4">
        <path d="M 75 371 L 75 294.5 L 83.16 286 L 156.6 286 L 156.6 362.5 L 148.44 371 Z" fill="#999"/>
        <path d="M 75 371 L 75 294.5 L 83.16 286 L 156.6 286 L 156.6 362.5 L 148.44 371 L 75 371 M 75 294.5 L 148.44 294.5 L 156.6 286 M 148.44 294.5 L 148.44 371" stroke="black" stroke-linecap="round" stroke-linejoin="round" stroke-width="5"/>
      </g>
      <g id="Graphic_5">
        <path d="M 173.34915 371 L 173.34915 294.5 L 181.50915 286 L 254.94915 286 L 254.94915 362.5 L 246.78915 371 Z" fill="#999"/>
        <path d="M 173.34915 371 L 173.34915 294.5 L 181.50915 286 L 254.94915 286 L 254.94915 362.5 L 246.78915 371 L 173.34915 371 M 173.34915 294.5 L 246.78915 294.5 L 254.94915 286 M 246.78915 294.5 L 246.78915 371" stroke="black" stroke-linecap="round" stroke-linejoin="round" stroke-width="5"/>
      </g>
      <g id="Graphic_3">
        <path d="M 188.8037 307.63636 L 239.4946 332.9818 L 188.8037 358.32727 Z" fill="lime"/>
        <path d="M 188.8037 307.63636 L 239.4946 332.9818 L 188.8037 358.32727 Z" stroke="black" stroke-linecap="round" stroke-linejoin="round" stroke-width="8"/>
      </g>
      <g id="Graphic_10">
        <rect x="90.41144" y="311.34865" width="43.26634" height="43.26634" fill="blue"/>
        <rect x="90.41144" y="311.34865" width="43.26634" height="43.26634" stroke="black" stroke-linecap="round" stroke-linejoin="round" stroke-width="8"/>
      </g>
      <g id="Graphic_45">
        <path d="M 314.30317 292.51565 C 331.44884 285.56872 348.9619 294.49206 353.41967 312.4465 C 357.87755 330.4009 347.59205 350.58733 330.44636 357.53417 C 313.3007 364.4811 295.78764 355.55776 291.32986 337.60332 C 286.872 319.6489 297.1575 299.4625 314.30317 292.51565" fill="#999"/>
        <path d="M 314.30317 292.51565 C 331.44884 285.56872 348.9619 294.49206 353.41967 312.4465 C 357.87755 330.4009 347.59205 350.58733 330.44636 357.53417 C 313.3007 364.4811 295.78764 355.55776 291.32986 337.60332 C 286.872 319.6489 297.1575 299.4625 314.30317 292.51565" stroke="black" stroke-linecap="round" stroke-linejoin="round" stroke-width="10"/>
      </g>
      <g id="Graphic_43">
        <path d="M 304.06187 303.35642 C 317.0108 298.1099 330.2372 304.84907 333.60386 318.4088 C 336.97058 331.96853 329.20265 347.21395 316.2537 352.4604 C 303.30476 357.70695 290.07837 350.96777 286.7117 337.40802 C 283.345 323.8483 291.11292 308.6029 304.06187 303.35642" fill="#ccc"/>
        <path d="M 304.06187 303.35642 C 317.0108 298.1099 330.2372 304.84907 333.60386 318.4088 C 336.97058 331.96853 329.20265 347.21395 316.2537 352.4604 C 303.30476 357.70695 290.07837 350.96777 286.7117 337.40802 C 283.345 323.8483 291.11292 308.6029 304.06187 303.35642" stroke="black" stroke-linecap="round" stroke-linejoin="round" stroke-width="9"/>
      </g>
      <g id="Line_46">
        <line x1="309.6578" y1="328.83782" x2="309.6578" y2="306.83782" stroke="black" stroke-linecap="round" stroke-linejoin="round" stroke-width="7"/>
      </g>
      <g id="Graphic_47">
        <path d="M 406.30317 289.51565 C 423.44884 282.56872 440.9619 291.49206 445.41967 309.4465 C 449.87755 327.4009 439.59205 347.58733 422.44636 354.53417 C 405.3007 361.4811 387.78764 352.55776 383.32986 334.60332 C 378.872 316.6489 389.1575 296.4625 406.30317 289.51565" fill="#999"/>
        <path d="M 406.30317 289.51565 C 423.44884 282.56872 440.9619 291.49206 445.41967 309.4465 C 449.87755 327.4009 439.59205 347.58733 422.44636 354.53417 C 405.3007 361.4811 387.78764 352.55776 383.32986 334.60332 C 378.872 316.6489 389.1575 296.4625 406.30317 289.51565" stroke="black" stroke-linecap="round" stroke-linejoin="round" stroke-width="10"/>
      </g>
      <g id="Graphic_48">
        <path d="M 396.06187 300.4729 C 409.0108 295.22638 422.2372 301.96556 425.60386 315.5253 C 428.9706 329.08503 421.20265 344.33044 408.2537 349.5769 C 395.30476 354.82344 382.07837 348.08426 378.7117 334.5245 C 375.345 320.9648 383.1129 305.7194 396.06187 300.4729" fill="#ccc"/>
        <path d="M 396.06187 300.4729 C 409.0108 295.22638 422.2372 301.96556 425.60386 315.5253 C 428.9706 329.08503 421.20265 344.33044 408.2537 349.5769 C 395.30476 354.82344 382.07837 348.08426 378.7117 334.5245 C 375.345 320.9648 383.1129 305.7194 396.06187 300.4729" stroke="black" stroke-linecap="round" stroke-linejoin="round" stroke-width="9"/>
      </g>
      <g id="Line_49">
        <line x1="401.6578" y1="325.83782" x2="423.27734" y2="314.02117" stroke="black" stroke-linecap="round" stroke-linejoin="round" stroke-width="7"/>
      </g>
      <g id="Graphic_50">
        <path d="M 508.1881 292.51565 C 525.33374 285.56872 542.8468 294.49206 547.3046 312.4465 C 551.76244 330.4009 541.47694 350.58733 524.33125 357.53417 C 507.1856 364.4811 489.67254 355.55776 485.21476 337.60332 C 480.7569 319.6489 491.0424 299.4625 508.1881 292.51565" fill="#999"/>
        <path d="M 508.1881 292.51565 C 525.33374 285.56872 542.8468 294.49206 547.3046 312.4465 C 551.76244 330.4009 541.47694 350.58733 524.33125 357.53417 C 507.1856 364.4811 489.67254 355.55776 485.21476 337.60332 C 480.7569 319.6489 491.0424 299.4625 508.1881 292.51565" stroke="black" stroke-linecap="round" stroke-linejoin="round" stroke-width="10"/>
      </g>
      <g id="Graphic_51">
        <path d="M 497.9468 303.35642 C 510.8957 298.1099 524.1221 304.84907 527.48875 318.4088 C 530.8555 331.96853 523.08755 347.21395 510.1386 352.4604 C 497.18966 357.70695 483.9633 350.96777 480.5966 337.40802 C 477.2299 323.8483 484.9978 308.6029 497.9468 303.35642" fill="#ccc"/>
        <path d="M 497.9468 303.35642 C 510.8957 298.1099 524.1221 304.84907 527.48875 318.4088 C 530.8555 331.96853 523.08755 347.21395 510.1386 352.4604 C 497.18966 357.70695 483.9633 350.96777 480.5966 337.40802 C 477.2299 323.8483 484.9978 308.6029 497.9468 303.35642" stroke="black" stroke-linecap="round" stroke-linejoin="round" stroke-width="9"/>
      </g>
      <g id="Line_52">
        <line x1="503.5427" y1="328.83782" x2="483.57145" y2="330.19764" stroke="black" stroke-linecap="round" stroke-linejoin="round" stroke-width="7"/>
      </g>
      <g id="Graphic_54">
        <path d="M 198.2829 404.5944 C 217.67652 385.4583 247.41212 387.01667 264.69923 408.07513 C 281.98645 429.1335 280.2788 461.71744 260.88508 480.85344 C 241.49146 499.98955 211.75587 498.4312 194.46875 477.3727 C 177.18153 456.31434 178.88918 423.7304 198.2829 404.5944" fill="red"/>
        <path d="M 198.2829 404.5944 C 217.67652 385.4583 247.41212 387.01667 264.69923 408.07513 C 281.98645 429.1335 280.2788 461.71744 260.88508 480.85344 C 241.49146 499.98955 211.75587 498.4312 194.46875 477.3727 C 177.18153 456.31434 178.88918 423.7304 198.2829 404.5944" stroke="black" stroke-linecap="round" stroke-linejoin="round" stroke-width="7"/>
      </g>
      <g id="Graphic_53">
        <path d="M 196.3497 410.65387 C 211.7335 395.47434 235.32098 396.7105 249.03382 413.41493 C 262.74674 430.1193 261.39216 455.9662 246.00828 471.1456 C 230.62447 486.32516 207.037 485.089 193.32416 468.38457 C 179.61124 451.6802 180.96581 425.8333 196.3497 410.65387" fill="red"/>
        <path d="M 196.3497 410.65387 C 211.7335 395.47434 235.32098 396.7105 249.03382 413.41493 C 262.74674 430.1193 261.39216 455.9662 246.00828 471.1456 C 230.62447 486.32516 207.037 485.089 193.32416 468.38457 C 179.61124 451.6802 180.96581 425.8333 196.3497 410.65387" stroke="black" stroke-linecap="round" stroke-linejoin="round" stroke-width="7"/>
      </g>
      <g id="Graphic_58">
        <path d="M 305.17006 404.5944 C 324.5637 385.4583 354.2993 387.01667 371.5864 408.07513 C 388.8736 429.1335 387.16596 461.71744 367.77225 480.85344 C 348.37862 499.98955 318.64303 498.4312 301.3559 477.3727 C 284.0687 456.31434 285.77635 423.7304 305.17006 404.5944" fill="red"/>
        <path d="M 305.17006 404.5944 C 324.5637 385.4583 354.2993 387.01667 371.5864 408.07513 C 388.8736 429.1335 387.16596 461.71744 367.77225 480.85344 C 348.37862 499.98955 318.64303 498.4312 301.3559 477.3727 C 284.0687 456.31434 285.77635 423.7304 305.17006 404.5944" stroke="black" stroke-linecap="round" stroke-linejoin="round" stroke-width="7"/>
      </g>
      <g id="Graphic_59">
        <path d="M 303.23686 410.65387 C 318.62067 395.47434 342.20814 396.7105 355.921 413.41493 C 369.6339 430.1193 368.27932 455.9662 352.89544 471.1456 C 337.51164 486.32516 313.92416 485.089 300.21132 468.38457 C 286.4984 451.6802 287.85298 425.8333 303.23686 410.65387" fill="red"/>
        <path d="M 303.23686 410.65387 C 318.62067 395.47434 342.20814 396.7105 355.921 413.41493 C 369.6339 430.1193 368.27932 455.9662 352.89544 471.1456 C 337.51164 486.32516 313.92416 485.089 300.21132 468.38457 C 286.4984 451.6802 287.85298 425.8333 303.23686 410.65387" stroke="black" stroke-linecap="round" stroke-linejoin="round" stroke-width="7"/>
      </g>
      <g id="Graphic_60">
        <path d="M 411.5224 404.05956 C 430.916 384.92346 460.6516 386.48183 477.9387 407.5403 C 495.22594 428.59866 493.5183 461.1826 474.1246 480.3186 C 454.73095 499.4547 424.99536 497.89633 407.70824 476.83787 C 390.42103 455.7795 392.1287 423.19556 411.5224 404.05956" fill="#ff8f00"/>
        <path d="M 411.5224 404.05956 C 430.916 384.92346 460.6516 386.48183 477.9387 407.5403 C 495.22594 428.59866 493.5183 461.1826 474.1246 480.3186 C 454.73095 499.4547 424.99536 497.89633 407.70824 476.83787 C 390.42103 455.7795 392.1287 423.19556 411.5224 404.05956" stroke="black" stroke-linecap="round" stroke-linejoin="round" stroke-width="7"/>
      </g>
      <g id="Graphic_61">
        <path d="M 409.5892 410.11904 C 424.973 394.9395 448.56047 396.17567 462.2733 412.8801 C 475.98623 429.58444 474.63165 455.43134 459.2478 470.6108 C 443.86397 485.7903 420.2765 484.55416 406.56365 467.84973 C 392.85073 451.1454 394.2053 425.2985 409.5892 410.11904" fill="#ff8f00"/>
        <path d="M 409.5892 410.11904 C 424.973 394.9395 448.56047 396.17567 462.2733 412.8801 C 475.98623 429.58444 474.63165 455.43134 459.2478 470.6108 C 443.86397 485.7903 420.2765 484.55416 406.56365 467.84973 C 392.85073 451.1454 394.2053 425.2985 409.5892 410.11904" stroke="black" stroke-linecap="round" stroke-linejoin="round" stroke-width="7"/>
      </g>
      <g id="Graphic_62">
        <path d="M 608.1881 293.51565 C 625.33374 286.56872 642.8468 295.49206 647.3046 313.4465 C 651.76244 331.4009 641.47694 351.58733 624.33125 358.53417 C 607.1856 365.4811 589.67254 356.55776 585.21476 338.60332 C 580.7569 320.6489 591.0424 300.4625 608.1881 293.51565" fill="#999"/>
        <path d="M 608.1881 293.51565 C 625.33374 286.56872 642.8468 295.49206 647.3046 313.4465 C 651.76244 331.4009 641.47694 351.58733 624.33125 358.53417 C 607.1856 365.4811 589.67254 356.55776 585.21476 338.60332 C 580.7569 320.6489 591.0424 300.4625 608.1881 293.51565" stroke="black" stroke-linecap="round" stroke-linejoin="round" stroke-width="10"/>
      </g>
      <g id="Graphic_63">
        <path d="M 597.9468 304.35642 C 610.8957 299.1099 624.1221 305.84907 627.48875 319.4088 C 630.8555 332.96853 623.08755 348.21395 610.1386 353.4604 C 597.18966 358.70695 583.9633 351.96777 580.5966 338.40802 C 577.2299 324.8483 584.9978 309.6029 597.9468 304.35642" fill="#ccc"/>
        <path d="M 597.9468 304.35642 C 610.8957 299.1099 624.1221 305.84907 627.48875 319.4088 C 630.8555 332.96853 623.08755 348.21395 610.1386 353.4604 C 597.18966 358.70695 583.9633 351.96777 580.5966 338.40802 C 577.2299 324.8483 584.9978 309.6029 597.9468 304.35642" stroke="black" stroke-linecap="round" stroke-linejoin="round" stroke-width="9"/>
      </g>
      <g id="Line_64">
        <line x1="603.5427" y1="329.83782" x2="624.7037" y2="320.96296" stroke="black" stroke-linecap="round" stroke-linejoin="round" stroke-width="7"/>
      </g>
      <g id="Graphic_65">
        <path d="M 519.7375 404.5944 C 539.1311 385.4583 568.8667 387.01667 586.15384 408.07513 C 603.44105 429.1335 601.7334 461.71744 582.3397 480.85344 C 562.94606 499.98955 533.2105 498.4312 515.92335 477.3727 C 498.63613 456.31434 500.3438 423.7304 519.7375 404.5944" fill="#ff8f00"/>
        <path d="M 519.7375 404.5944 C 539.1311 385.4583 568.8667 387.01667 586.15384 408.07513 C 603.44105 429.1335 601.7334 461.71744 582.3397 480.85344 C 562.94606 499.98955 533.2105 498.4312 515.92335 477.3727 C 498.63613 456.31434 500.3438 423.7304 519.7375 404.5944" stroke="black" stroke-linecap="round" stroke-linejoin="round" stroke-width="7"/>
      </g>
      <g id="Graphic_66">
        <path d="M 517.8043 410.65387 C 533.1881 395.47434 556.7756 396.7105 570.4884 413.41493 C 584.20134 430.1193 582.84676 455.9662 567.4629 471.1456 C 552.0791 486.32516 528.4916 485.089 514.77876 468.38457 C 501.06584 451.6802 502.4204 425.8333 517.8043 410.65387" fill="#ff8f00"/>
        <path d="M 517.8043 410.65387 C 533.1881 395.47434 556.7756 396.7105 570.4884 413.41493 C 584.20134 430.1193 582.84676 455.9662 567.4629 471.1456 C 552.0791 486.32516 528.4916 485.089 514.77876 468.38457 C 501.06584 451.6802 502.4204 425.8333 517.8043 410.65387" stroke="black" stroke-linecap="round" stroke-linejoin="round" stroke-width="7"/>
      </g>
      <g id="Graphic_67">
        <path d="M 202.2829 530.5944 C 221.67652 511.4583 251.41212 513.0167 268.69923 534.07513 C 285.98645 555.1335 284.2788 587.71744 264.8851 606.85344 C 245.49146 625.98955 215.75587 624.4312 198.46875 603.3727 C 181.18153 582.31434 182.88918 549.7304 202.2829 530.5944" fill="yellow"/>
        <path d="M 202.2829 530.5944 C 221.67652 511.4583 251.41212 513.0167 268.69923 534.07513 C 285.98645 555.1335 284.2788 587.71744 264.8851 606.85344 C 245.49146 625.98955 215.75587 624.4312 198.46875 603.3727 C 181.18153 582.31434 182.88918 549.7304 202.2829 530.5944" stroke="black" stroke-linecap="round" stroke-linejoin="round" stroke-width="7"/>
      </g>
      <g id="Graphic_68">
        <path d="M 200.3497 536.6539 C 215.7335 521.47434 239.32098 522.7105 253.03382 539.4149 C 266.74674 556.1193 265.39216 581.9662 250.00828 597.1456 C 234.62447 612.32516 211.037 611.089 197.32416 594.3846 C 183.61124 577.6802 184.96581 551.8333 200.3497 536.6539" fill="yellow"/>
        <path d="M 200.3497 536.6539 C 215.7335 521.47434 239.32098 522.7105 253.03382 539.4149 C 266.74674 556.1193 265.39216 581.9662 250.00828 597.1456 C 234.62447 612.32516 211.037 611.089 197.32416 594.3846 C 183.61124 577.6802 184.96581 551.8333 200.3497 536.6539" stroke="black" stroke-linecap="round" stroke-linejoin="round" stroke-width="7"/>
      </g>
      <g id="Graphic_69">
        <path d="M 309.17006 530.5944 C 328.5637 511.4583 358.2993 513.0167 375.5864 534.07513 C 392.8736 555.1335 391.16596 587.71744 371.77225 606.85344 C 352.37862 625.98955 322.64303 624.4312 305.3559 603.3727 C 288.0687 582.31434 289.77635 549.7304 309.17006 530.5944" fill="yellow"/>
        <path d="M 309.17006 530.5944 C 328.5637 511.4583 358.2993 513.0167 375.5864 534.07513 C 392.8736 555.1335 391.16596 587.71744 371.77225 606.85344 C 352.37862 625.98955 322.64303 624.4312 305.3559 603.3727 C 288.0687 582.31434 289.77635 549.7304 309.17006 530.5944" stroke="black" stroke-linecap="round" stroke-linejoin="round" stroke-width="7"/>
      </g>
      <g id="Graphic_70">
        <path d="M 307.23686 536.6539 C 322.62067 521.47434 346.20814 522.7105 359.921 539.4149 C 373.6339 556.1193 372.27932 581.9662 356.89544 597.1456 C 341.51164 612.32516 317.92416 611.089 304.21132 594.3846 C 290.4984 577.6802 291.85298 551.8333 307.23686 536.6539" fill="yellow"/>
        <path d="M 307.23686 536.6539 C 322.62067 521.47434 346.20814 522.7105 359.921 539.4149 C 373.6339 556.1193 372.27932 581.9662 356.89544 597.1456 C 341.51164 612.32516 317.92416 611.089 304.21132 594.3846 C 290.4984 577.6802 291.85298 551.8333 307.23686 536.6539" stroke="black" stroke-linecap="round" stroke-linejoin="round" stroke-width="7"/>
      </g>
      <g id="Graphic_71">
        <path d="M 415.5224 530.05956 C 434.916 510.92346 464.6516 512.48183 481.9387 533.5403 C 499.22594 554.59866 497.5183 587.1826 478.1246 606.3186 C 458.73095 625.4547 428.99536 623.8963 411.70824 602.8379 C 394.42103 581.7795 396.1287 549.19556 415.5224 530.05956" fill="white"/>
        <path d="M 415.5224 530.05956 C 434.916 510.92346 464.6516 512.48183 481.9387 533.5403 C 499.22594 554.59866 497.5183 587.1826 478.1246 606.3186 C 458.73095 625.4547 428.99536 623.8963 411.70824 602.8379 C 394.42103 581.7795 396.1287 549.19556 415.5224 530.05956" stroke="black" stroke-linecap="round" stroke-linejoin="round" stroke-width="7"/>
      </g>
      <g id="Graphic_72">
        <path d="M 413.5892 536.11904 C 428.973 520.9395 452.56047 522.1757 466.2733 538.8801 C 479.98623 555.58444 478.63165 581.43134 463.2478 596.6108 C 447.86397 611.7903 424.2765 610.55416 410.56365 593.8497 C 396.85073 577.1454 398.2053 551.2985 413.5892 536.11904" fill="white"/>
        <path d="M 413.5892 536.11904 C 428.973 520.9395 452.56047 522.1757 466.2733 538.8801 C 479.98623 555.58444 478.63165 581.43134 463.2478 596.6108 C 447.86397 611.7903 424.2765 610.55416 410.56365 593.8497 C 396.85073 577.1454 398.2053 551.2985 413.5892 536.11904" stroke="black" stroke-linecap="round" stroke-linejoin="round" stroke-width="7"/>
      </g>
      <g id="Graphic_73">
        <path d="M 523.7375 530.5944 C 543.1311 511.4583 572.8667 513.0167 590.15384 534.07513 C 607.44105 555.1335 605.7334 587.71744 586.3397 606.85344 C 566.94606 625.98955 537.2105 624.4312 519.92335 603.3727 C 502.63613 582.31434 504.3438 549.7304 523.7375 530.5944" fill="white"/>
        <path d="M 523.7375 530.5944 C 543.1311 511.4583 572.8667 513.0167 590.15384 534.07513 C 607.44105 555.1335 605.7334 587.71744 586.3397 606.85344 C 566.94606 625.98955 537.2105 624.4312 519.92335 603.3727 C 502.63613 582.31434 504.3438 549.7304 523.7375 530.5944" stroke="black" stroke-linecap="round" stroke-linejoin="round" stroke-width="7"/>
      </g>
      <g id="Graphic_74">
        <path d="M 521.8043 536.6539 C 537.1881 521.47434 560.7756 522.7105 574.4884 539.4149 C 588.20134 556.1193 586.84676 581.9662 571.4629 597.1456 C 556.0791 612.32516 532.4916 611.089 518.77876 594.3846 C 505.06584 577.6802 506.4204 551.8333 521.8043 536.6539" fill="white"/>
        <path d="M 521.8043 536.6539 C 537.1881 521.47434 560.7756 522.7105 574.4884 539.4149 C 588.20134 556.1193 586.84676 581.9662 571.4629 597.1456 C 556.0791 612.32516 532.4916 611.089 518.77876 594.3846 C 505.06584 577.6802 506.4204 551.8333 521.8043 536.6539" stroke="black" stroke-linecap="round" stroke-linejoin="round" stroke-width="7"/>
      </g>
      <g id="Graphic_75">
        <path d="M 773.5458 336.17855 L 745.2992 295.412 L 735.47725 257.2061 L 813.6586 213.8695 L 786.6539 327.01684 L 789.789 344.2368 Z" fill="#a5682a"/>
        <path d="M 773.5458 336.17855 L 745.2992 295.412 L 735.47725 257.2061 L 813.6586 213.8695 L 786.6539 327.01684 L 789.789 344.2368 Z" stroke="black" stroke-linecap="round" stroke-linejoin="round" stroke-width="11"/>
      </g>
    </g>
  </g>
</svg>
