<?xml version="1.0" encoding="UTF-8" standalone="no"?>
<!DOCTYPE svg PUBLIC "-//W3C//DTD SVG 1.1//EN" "http://www.w3.org/Graphics/SVG/1.1/DTD/svg11.dtd">
<svg xmlns:xl="http://www.w3.org/1999/xlink" xmlns:dc="http://purl.org/dc/elements/1.1/" xmlns="http://www.w3.org/2000/svg" version="1.1" viewBox="0 0 850.394 850.394" width="850.394" height="850.394">
  <defs/>
  <metadata> Produced by OmniGraffle 7.9.4 
    <dc:date>2019-09-29 21:49:42 +0000</dc:date>
  </metadata>
  <g id="Canvas_302" stroke="none" stroke-dasharray="none" fill="none" stroke-opacity="1" fill-opacity="1">
    <title>Canvas 302</title>
    <g id="Canvas_302: Layer 1">
      <title>Layer 1</title>
      <g id="Graphic_3">
        <path d="M 408.53037 90 L 683.3027 153.4362 L 599.7975 501 L 346.7975 366 Z" fill="#a0672a"/>
        <path d="M 408.53037 90 L 683.3027 153.4362 L 599.7975 501 L 346.7975 366 Z" stroke="black" stroke-linecap="round" stroke-linejoin="round" stroke-width="6"/>
      </g>
      <g id="Graphic_2">
        <path d="M 346.7975 356 L 602.50615 498.73363 L 382.244 770.7347 L 163.08885 593.2664 Z" fill="#a0672a"/>
        <path d="M 346.7975 356 L 602.50615 498.73363 L 382.244 770.7347 L 163.08885 593.2664 Z" stroke="black" stroke-linecap="round" stroke-linejoin="round" stroke-width="6"/>
      </g>
      <g id="Graphic_4">
        <path d="M 362 299 L 630 368 L 618.89875 418.2634 L 351.60663 345.16938 Z" fill="#a06e2a"/>
        <path d="M 362 299 L 630 368 L 618.89875 418.2634 L 351.60663 345.16938 Z" stroke="black" stroke-linecap="round" stroke-linejoin="round" stroke-width="2"/>
      </g>
      <g id="Graphic_5">
        <path d="M 385.0138 188.5664 L 659.7862 252.0026 L 647 305 L 377.44335 229.96318 Z" fill="#a06e2a"/>
        <path d="M 385.0138 188.5664 L 659.7862 252.0026 L 647 305 L 377.44335 229.96318 Z" stroke="black" stroke-linecap="round" stroke-linejoin="round" stroke-width="2"/>
      </g>
      <g id="Graphic_6">
        <path d="M 251 478 L 466.07807 663.6687 L 434.0663 703.9787 L 220 515 Z" fill="#a06e2a"/>
        <path d="M 251 478 L 466.07807 663.6687 L 434.0663 703.9787 L 220 515 Z" stroke="black" stroke-linecap="round" stroke-linejoin="round" stroke-width="2"/>
      </g>
      <g id="Graphic_7">
        <path d="M 318 391 L 543.6996 572.46835 L 508.97495 614.497 L 291 426 Z" fill="#a06e2a"/>
        <path d="M 318 391 L 543.6996 572.46835 L 508.97495 614.497 L 291 426 Z" stroke="black" stroke-linecap="round" stroke-linejoin="round" stroke-width="2"/>
      </g>
    </g>
  </g>
</svg>
