<?xml version="1.0" encoding="UTF-8" standalone="no"?>
<!DOCTYPE svg PUBLIC "-//W3C//DTD SVG 1.1//EN" "http://www.w3.org/Graphics/SVG/1.1/DTD/svg11.dtd">
<svg xmlns:xl="http://www.w3.org/1999/xlink" version="1.1" xmlns:dc="http://purl.org/dc/elements/1.1/" xmlns="http://www.w3.org/2000/svg" viewBox="0 0 850.394 850.394" width="850.394" height="850.394">
  <defs>
    <marker orient="auto" overflow="visible" markerUnits="strokeWidth" id="FilledArrow_Marker" stroke-linejoin="miter" stroke-miterlimit="10" viewBox="-1 -2 5 4" markerWidth="5" markerHeight="4" color="black">
      <g>
        <path d="M 2.1818182 0 L 0 -.8181818 L 0 .8181818 Z" fill="currentColor" stroke="currentColor" stroke-width="1"/>
      </g>
    </marker>
  </defs>
  <metadata> Produced by OmniGraffle 7.9.4 
    <dc:date>2019-05-10 18:29:14 +0000</dc:date>
  </metadata>
  <g id="mute" fill="none" stroke-opacity="1" fill-opacity="1" stroke="none" stroke-dasharray="none">
    <title>mute</title>
    <g id="mute: Layer 1">
      <title>Layer 1</title>
      <g id="Graphic_2">
        <rect x="259.197" y="203" width="119" height="535" fill="#8080ff"/>
        <rect x="259.197" y="203" width="119" height="535" stroke="black" stroke-linecap="round" stroke-linejoin="round" stroke-width="7"/>
      </g>
      <g id="Graphic_3">
        <rect x="472.197" y="203" width="119" height="535" fill="#c0c0ff"/>
        <path d="M 472.197 203 L 591.197 203 L 591.197 738 L 472.197 738 Z" stroke="black" stroke-linecap="round" stroke-linejoin="round" stroke-dasharray="28.0,28.0" stroke-width="7"/>
      </g>
      <g id="Graphic_4">
        <rect x="685.197" y="203" width="119" height="535" fill="#c0c0ff"/>
        <path d="M 685.197 203 L 804.197 203 L 804.197 738 L 685.197 738 Z" stroke="black" stroke-linecap="round" stroke-linejoin="round" stroke-dasharray="28.0,28.0" stroke-width="7"/>
      </g>
      <g id="Graphic_5">
        <rect x="46.197" y="203" width="119" height="535" fill="#c0c0ff"/>
        <path d="M 46.197 203 L 165.197 203 L 165.197 738 L 46.197 738 Z" stroke="black" stroke-linecap="round" stroke-linejoin="round" stroke-dasharray="28.0,28.0" stroke-width="7"/>
      </g>
      <g id="Line_6">
        <path d="M 410 32 L 335.84835 154.97426 L 314.24908 426.21354 L 320.95747 793.4204" marker-end="url(#FilledArrow_Marker)" stroke="black" stroke-linecap="round" stroke-linejoin="round" stroke-width="11"/>
      </g>
      <g id="Line_7">
        <path d="M 345.6163 147.91849 L 277.14286 152.85714 L 124.84629 191.59832 L 113.34966 205.25487 L 113.34966 205.25487" stroke="black" stroke-linecap="round" stroke-linejoin="round" stroke-width="4"/>
      </g>
      <g id="Line_8">
        <path d="M 341.26842 145.98552 L 416.42857 179.39982 L 522.16115 197.269 L 522.16115 197.269" stroke="black" stroke-linecap="round" stroke-linejoin="round" stroke-width="4"/>
      </g>
      <g id="Line_9">
        <path d="M 347.54493 148.7759 L 471.5256 162.24657 L 646.5256 185.28019 L 762.6037 198.10372" stroke="black" stroke-linecap="round" stroke-linejoin="round" stroke-width="4"/>
      </g>
      <g id="Graphic_21">
        <path d="M 254.1125 443.6127 L 151.12797 546.5972 L 211.59978 607.069 L 314.5843 504.0845 L 411.7252 601.2254 L 472.197 540.7536 L 375.0561 443.6127 L 466.35335 352.31546 L 405.88154 291.84365 L 314.5843 383.1409 L 217.44343 286 L 156.97162 346.4718 Z" fill="red"/>
        <path d="M 254.1125 443.6127 L 151.12797 546.5972 L 211.59978 607.069 L 314.5843 504.0845 L 411.7252 601.2254 L 472.197 540.7536 L 375.0561 443.6127 L 466.35335 352.31546 L 405.88154 291.84365 L 314.5843 383.1409 L 217.44343 286 L 156.97162 346.4718 Z" stroke="black" stroke-linecap="round" stroke-linejoin="round" stroke-width="7"/>
      </g>
    </g>
  </g>
</svg>
