<?xml version="1.0" encoding="UTF-8" standalone="no"?>
<!DOCTYPE svg PUBLIC "-//W3C//DTD SVG 1.1//EN" "http://www.w3.org/Graphics/SVG/1.1/DTD/svg11.dtd">
<svg xmlns="http://www.w3.org/2000/svg" version="1.1" xmlns:dc="http://purl.org/dc/elements/1.1/" xmlns:xl="http://www.w3.org/1999/xlink" viewBox="0 0 850.394 850.394" width="850.394" height="850.394">
  <defs/>
  <metadata> Produced by OmniGraffle 7.9.4 
    <dc:date>2019-03-11 02:24:12 +0000</dc:date>
  </metadata>
  <g id="Chaos" fill="none" stroke-opacity="1" fill-opacity="1" stroke-dasharray="none" stroke="none">
    <title>Chaos</title>
    <g id="Chaos: Layer 1">
      <title>Layer 1</title>
      <g id="Graphic_8">
        <path d="M 461.18104 161.25825 L 526.3765 295.685 L 837.9224 386.7902 L 566.6695 378.7653 L 631.8649 513.19205 L 505.77766 323.5097 L 127.77298 365.78075 L 255.12354 287.6601 L 22.284536 148.2737 L 333.8305 239.3789 Z" fill="#40ff40"/>
        <path d="M 461.18104 161.25825 L 526.3765 295.685 L 837.9224 386.7902 L 566.6695 378.7653 L 631.8649 513.19205 L 505.77766 323.5097 L 127.77298 365.78075 L 255.12354 287.6601 L 22.284536 148.2737 L 333.8305 239.3789 Z" stroke="black" stroke-linecap="round" stroke-linejoin="round" stroke-width="6"/>
      </g>
      <g id="Graphic_3">
        <path d="M 30.585732 358.14157 L 200.8917 407.94404 L 219.71464 343.57657 L 389.91844 393.34916 L 371.0955 457.71664 L 541.40146 507.5191 L 522.5898 571.848 L 352.28385 522.0455 L 333.4609 586.413 L 163.2571 536.6404 L 182.08005 472.2729 L 11.774082 422.47044 Z" fill="#4040ff"/>
        <path d="M 30.585732 358.14157 L 200.8917 407.94404 L 219.71464 343.57657 L 389.91844 393.34916 L 371.0955 457.71664 L 541.40146 507.5191 L 522.5898 571.848 L 352.28385 522.0455 L 333.4609 586.413 L 163.2571 536.6404 L 182.08005 472.2729 L 11.774082 422.47044 Z" stroke="black" stroke-linecap="round" stroke-linejoin="round" stroke-width="6"/>
      </g>
      <g id="Graphic_4">
        <path d="M 138.94212 191.05505 L 150.72018 198.94427 L 450.8 684.5818 L 452.58647 698.6449 L 384.5278 740.699 L 372.74973 732.8098 L 238.9415 365.0919 L 72.66992 247.17223 L 70.88344 233.10912 Z" fill="aqua"/>
        <path d="M 138.94212 191.05505 L 150.72018 198.94427 L 450.8 684.5818 L 452.58647 698.6449 L 384.5278 740.699 L 372.74973 732.8098 L 238.9415 365.0919 L 72.66992 247.17223 L 70.88344 233.10912 Z" stroke="black" stroke-linecap="round" stroke-linejoin="round" stroke-width="6"/>
      </g>
      <g id="Graphic_5">
        <path d="M 334.8442 385.67123 C 350.2453 449.8706 437.9034 230.76864 437.9034 230.76864 C 437.9034 230.76864 428.305 384.7441 384.90747 434.4976 C 341.51 484.2514 293.84455 472.54076 278.44366 408.3411 C 263.04254 344.14172 285.73812 251.76474 329.13567 202.01126 C 372.53313 152.25744 319.4433 321.4716 334.8442 385.67123 Z" fill="#c0c0ff"/>
        <path d="M 334.8442 385.67123 C 350.2453 449.8706 437.9034 230.76864 437.9034 230.76864 C 437.9034 230.76864 428.305 384.7441 384.90747 434.4976 C 341.51 484.2514 293.84455 472.54076 278.44366 408.3411 C 263.04254 344.14172 285.73812 251.76474 329.13567 202.01126 C 372.53313 152.25744 319.4433 321.4716 334.8442 385.67123 Z" stroke="black" stroke-linecap="round" stroke-linejoin="round" stroke-width="6"/>
      </g>
      <g id="Graphic_6">
        <path d="M 334.69623 43.371024 L 664.1753 392.90556 L 414.3959 194.55785 L 308.40876 272.95568 Z" fill="#ff4040"/>
        <path d="M 334.69623 43.371024 L 664.1753 392.90556 L 414.3959 194.55785 L 308.40876 272.95568 Z" stroke="black" stroke-linecap="round" stroke-linejoin="round" stroke-width="6"/>
      </g>
      <g id="Graphic_7">
        <path d="M 517.1813 281.06322 L 554.19984 484.08817 L 737.743 603.112 L 662.3229 654.765 C 605.5819 551.6937 479.6472 448.7007 432.3337 339.17283 Z" fill="#ffc0ff"/>
        <path d="M 517.1813 281.06322 L 554.19984 484.08817 L 737.743 603.112 L 662.3229 654.765 C 605.5819 551.6937 479.6472 448.7007 432.3337 339.17283 Z" stroke="black" stroke-linecap="round" stroke-linejoin="round" stroke-width="6"/>
      </g>
      <g id="Graphic_2">
        <path d="M 634.469 643.8715 L 425.7349 794.7572 L 328.9167 534.1362 L 518.5635 692.914 L 651.60455 569.8658 Z" fill="#ffff40"/>
        <path d="M 634.469 643.8715 L 425.7349 794.7572 L 328.9167 534.1362 L 518.5635 692.914 L 651.60455 569.8658 Z" stroke="black" stroke-linecap="round" stroke-linejoin="round" stroke-width="6"/>
      </g>
      <g id="Graphic_9">
        <path d="M 461.2281 199.1031 L 518.7779 317.76526 L 793.788 398.1863 L 554.34564 391.1025 L 611.89544 509.76466 L 500.59476 342.32686 L 166.91972 379.6407 L 279.33553 310.68147 L 73.8022 187.64128 L 348.8123 268.06232 Z" fill="fuchsia"/>
        <path d="M 461.2281 199.1031 L 518.7779 317.76526 L 793.788 398.1863 L 554.34564 391.1025 L 611.89544 509.76466 L 500.59476 342.32686 L 166.91972 379.6407 L 279.33553 310.68147 L 73.8022 187.64128 L 348.8123 268.06232 Z" stroke="black" stroke-linecap="round" stroke-linejoin="round" stroke-width="6"/>
      </g>
      <g id="Graphic_10">
        <path d="M 81.12989 372.8974 L 231.4636 416.8594 L 248.07913 360.04045 L 398.32267 403.97607 L 381.70715 460.795 L 532.04086 504.757 L 515.4353 561.54184 L 365.1016 517.57985 L 348.48606 574.3988 L 198.24253 530.46315 L 214.85805 473.6442 L 64.52433 429.6822 Z" fill="#40ff40"/>
        <path d="M 81.12989 372.8974 L 231.4636 416.8594 L 248.07913 360.04045 L 398.32267 403.97607 L 381.70715 460.795 L 532.04086 504.757 L 515.4353 561.54184 L 365.1016 517.57985 L 348.48606 574.3988 L 198.24253 530.46315 L 214.85805 473.6442 L 64.52433 429.6822 Z" stroke="black" stroke-linecap="round" stroke-linejoin="round" stroke-width="6"/>
      </g>
      <g id="Graphic_11">
        <path d="M 176.77903 225.40555 L 187.17584 232.36958 L 452.06447 661.0551 L 453.64145 673.469 L 393.5642 710.59125 L 383.1674 703.6272 L 265.0512 379.0326 L 118.27875 274.9417 L 116.70177 262.52783 Z" fill="fuchsia"/>
        <path d="M 176.77903 225.40555 L 187.17584 232.36958 L 452.06447 661.0551 L 453.64145 673.469 L 393.5642 710.59125 L 383.1674 703.6272 L 265.0512 379.0326 L 118.27875 274.9417 L 116.70177 262.52783 Z" stroke="black" stroke-linecap="round" stroke-linejoin="round" stroke-width="6"/>
      </g>
      <g id="Graphic_12">
        <path d="M 349.70714 397.19856 C 363.3021 453.8691 440.6803 260.46182 440.6803 260.46182 C 440.6803 260.46182 432.20755 396.38017 393.89935 440.29893 C 355.59122 484.218 313.51563 473.88066 299.92084 417.2099 C 286.32586 360.53933 306.35986 278.99565 344.66806 235.0769 C 382.9762 191.15784 336.11235 340.52778 349.70714 397.19856 Z" fill="#c0c0ff"/>
        <path d="M 349.70714 397.19856 C 363.3021 453.8691 440.6803 260.46182 440.6803 260.46182 C 440.6803 260.46182 432.20755 396.38017 393.89935 440.29893 C 355.59122 484.218 313.51563 473.88066 299.92084 417.2099 C 286.32586 360.53933 306.35986 278.99565 344.66806 235.0769 C 382.9762 191.15784 336.11235 340.52778 349.70714 397.19856 Z" stroke="black" stroke-linecap="round" stroke-linejoin="round" stroke-width="6"/>
      </g>
      <g id="Graphic_13">
        <path d="M 349.57652 95.04083 L 640.4167 403.5845 L 419.9296 228.49757 L 326.37186 297.70146 Z" fill="lime"/>
        <path d="M 349.57652 95.04083 L 640.4167 403.5845 L 419.9296 228.49757 L 326.37186 297.70146 Z" stroke="black" stroke-linecap="round" stroke-linejoin="round" stroke-width="6"/>
      </g>
      <g id="Graphic_14">
        <path d="M 510.6611 304.8582 L 543.33834 484.0739 L 705.3569 589.13944 L 638.7815 634.73494 C 588.6947 543.7511 477.5287 452.8364 435.7638 356.15315 Z" fill="#ffc0ff"/>
        <path d="M 510.6611 304.8582 L 543.33834 484.0739 L 705.3569 589.13944 L 638.7815 634.73494 C 588.6947 543.7511 477.5287 452.8364 435.7638 356.15315 Z" stroke="black" stroke-linecap="round" stroke-linejoin="round" stroke-width="6"/>
      </g>
      <g id="Graphic_15">
        <path d="M 614.1941 625.119 L 429.93884 758.3099 L 344.47478 528.2526 L 511.88115 668.4101 L 629.3201 559.7921 Z" fill="#4040ff"/>
        <path d="M 614.1941 625.119 L 429.93884 758.3099 L 344.47478 528.2526 L 511.88115 668.4101 L 629.3201 559.7921 Z" stroke="black" stroke-linecap="round" stroke-linejoin="round" stroke-width="6"/>
      </g>
      <g id="Graphic_16">
        <path d="M 472.98986 239.0549 L 522.894 341.9525 L 761.3683 411.68937 L 553.73646 405.54667 L 603.6406 508.44424 L 507.12654 363.251 L 217.78114 395.6076 L 315.2622 335.8098 L 137.03453 229.11583 L 375.5088 298.8527 Z" fill="#40ff40"/>
        <path d="M 472.98986 239.0549 L 522.894 341.9525 L 761.3683 411.68937 L 553.73646 405.54667 L 603.6406 508.44424 L 507.12654 363.251 L 217.78114 395.6076 L 315.2622 335.8098 L 137.03453 229.11583 L 375.5088 298.8527 Z" stroke="black" stroke-linecap="round" stroke-linejoin="round" stroke-width="6"/>
      </g>
      <g id="Graphic_17">
        <path d="M 143.38872 389.76015 L 273.7502 427.8817 L 288.1583 378.6113 L 418.44157 416.70996 L 404.03347 465.98033 L 534.39494 504.10186 L 519.9955 553.3427 L 389.634 515.22116 L 375.2259 564.49154 L 244.94263 526.3929 L 259.35073 477.1225 L 128.98926 439.00097 Z" fill="#4040ff"/>
        <path d="M 143.38872 389.76015 L 273.7502 427.8817 L 288.1583 378.6113 L 418.44157 416.70996 L 404.03347 465.98033 L 534.39494 504.10186 L 519.9955 553.3427 L 389.634 515.22116 L 375.2259 564.49154 L 244.94263 526.3929 L 259.35073 477.1225 L 128.98926 439.00097 Z" stroke="black" stroke-linecap="round" stroke-linejoin="round" stroke-width="6"/>
      </g>
      <g id="Graphic_18">
        <path d="M 226.33061 261.863 L 235.34618 267.90185 L 465.04363 639.6353 L 466.4111 650.4 L 414.31527 682.5905 L 405.2997 676.5516 L 302.8756 395.0803 L 175.60226 304.81816 L 174.23478 294.0535 Z" fill="aqua"/>
        <path d="M 226.33061 261.863 L 235.34618 267.90185 L 465.04363 639.6353 L 466.4111 650.4 L 414.31527 682.5905 L 405.2997 676.5516 L 302.8756 395.0803 L 175.60226 304.81816 L 174.23478 294.0535 Z" stroke="black" stroke-linecap="round" stroke-linejoin="round" stroke-width="6"/>
      </g>
      <g id="Graphic_19">
        <path d="M 376.28475 410.83285 C 388.0736 459.97456 455.1719 292.26196 455.1719 292.26196 C 455.1719 292.26196 447.82476 410.1232 414.6059 448.2072 C 381.3871 486.2915 344.9014 477.32753 333.1127 428.1856 C 321.32384 379.0439 338.69627 308.33352 371.91512 270.2495 C 405.1339 232.1652 364.49606 361.69094 376.28475 410.83285 Z" fill="#c0c0ff"/>
        <path d="M 376.28475 410.83285 C 388.0736 459.97456 455.1719 292.26196 455.1719 292.26196 C 455.1719 292.26196 447.82476 410.1232 414.6059 448.2072 C 381.3871 486.2915 344.9014 477.32753 333.1127 428.1856 C 321.32384 379.0439 338.69627 308.33352 371.91512 270.2495 C 405.1339 232.1652 364.49606 361.69094 376.28475 410.83285 Z" stroke="black" stroke-linecap="round" stroke-linejoin="round" stroke-width="6"/>
      </g>
      <g id="Graphic_20">
        <path d="M 376.1715 148.8176 L 628.37275 416.3704 L 437.17797 264.54425 L 356.04962 324.5542 Z" fill="#ff4040"/>
        <path d="M 376.1715 148.8176 L 628.37275 416.3704 L 437.17797 264.54425 L 356.04962 324.5542 Z" stroke="black" stroke-linecap="round" stroke-linejoin="round" stroke-width="6"/>
      </g>
      <g id="Graphic_21">
        <path d="M 515.8555 330.76017 L 544.1915 486.16654 L 684.68544 577.27386 L 626.9548 616.8119 C 583.52215 537.9155 487.12485 459.07905 450.90854 375.24043 Z" fill="#ffc0ff"/>
        <path d="M 515.8555 330.76017 L 544.1915 486.16654 L 684.68544 577.27386 L 626.9548 616.8119 C 583.52215 537.9155 487.12485 459.07905 450.90854 375.24043 Z" stroke="black" stroke-linecap="round" stroke-linejoin="round" stroke-width="6"/>
      </g>
      <g id="Graphic_22">
        <path d="M 605.6339 608.4734 L 445.85745 723.9695 L 371.7475 524.476 L 516.9135 646.0132 L 618.7504 551.8254 Z" fill="#ffff40"/>
        <path d="M 605.6339 608.4734 L 445.85745 723.9695 L 371.7475 524.476 L 516.9135 646.0132 L 618.7504 551.8254 Z" stroke="black" stroke-linecap="round" stroke-linejoin="round" stroke-width="6"/>
      </g>
      <g id="Graphic_23">
        <path d="M 671.3215 428.2237 L 567.37443 518.17934 L 560.59614 816.7643 L 503.1316 573.775 L 399.1845 663.7306 L 537.7396 506.4982 L 410.152 180.60997 L 509.9099 275.19 L 578.34195 35.058685 L 571.56365 333.64368 Z" fill="#40ff40"/>
        <path d="M 671.3215 428.2237 L 567.37443 518.17934 L 560.59614 816.7643 L 503.1316 573.775 L 399.1845 663.7306 L 537.7396 506.4982 L 410.152 180.60997 L 509.9099 275.19 L 578.34195 35.058685 L 571.56365 333.64368 Z" stroke="black" stroke-linecap="round" stroke-linejoin="round" stroke-width="6"/>
      </g>
      <g id="Graphic_24">
        <path d="M 393.79703 92.4148 L 390.0917 255.63568 L 451.78134 257.03612 L 448.0782 420.1591 L 386.38857 418.75864 L 382.68322 581.9795 L 321.03058 580.5799 L 324.7359 417.35904 L 263.04626 415.9586 L 266.74938 252.83563 L 328.43904 254.23608 L 332.1444 91.0152 Z" fill="#4040ff"/>
        <path d="M 393.79703 92.4148 L 390.0917 255.63568 L 451.78134 257.03612 L 448.0782 420.1591 L 386.38857 418.75864 L 382.68322 581.9795 L 321.03058 580.5799 L 324.7359 417.35904 L 263.04626 415.9586 L 266.74938 252.83563 L 328.43904 254.23608 L 332.1444 91.0152 Z" stroke="black" stroke-linecap="round" stroke-linejoin="round" stroke-width="6"/>
      </g>
      <g id="Graphic_25">
        <path d="M 568.10075 148.9271 L 563.894 161.2737 L 203.74128 543.6228 L 191.66801 548.55956 L 138.08448 498.0867 L 142.29124 485.7401 L 437.23814 279.24785 L 502.44395 103.391 L 514.5172 98.45423 Z" fill="aqua"/>
        <path d="M 568.10075 148.9271 L 563.894 161.2737 L 203.74128 543.6228 L 191.66801 548.55956 L 138.08448 498.0867 L 142.29124 485.7401 L 437.23814 279.24785 L 502.44395 103.391 L 514.5172 98.45423 Z" stroke="black" stroke-linecap="round" stroke-linejoin="round" stroke-width="6"/>
      </g>
      <g id="Graphic_26">
        <path d="M 441.78655 369.38296 C 388.39647 398.3594 604.0002 424.08886 604.0002 424.08886 C 604.0002 424.08886 464.8675 452.22625 410.3139 425.5047 C 355.76 398.78334 354.8168 353.6315 408.20717 324.65518 C 461.59725 295.67874 549.1028 293.85077 603.6564 320.5723 C 658.2103 347.29368 495.1769 340.40666 441.78655 369.38296 Z" fill="#c0c0ff"/>
        <path d="M 441.78655 369.38296 C 388.39647 398.3594 604.0002 424.08886 604.0002 424.08886 C 604.0002 424.08886 464.8675 452.22625 410.3139 425.5047 C 355.76 398.78334 354.8168 353.6315 408.20717 324.65518 C 461.59725 295.67874 549.1028 293.85077 603.6564 320.5723 C 658.2103 347.29368 495.1769 340.40666 441.78655 369.38296 Z" stroke="black" stroke-linecap="round" stroke-linejoin="round" stroke-width="6"/>
      </g>
      <g id="Graphic_27">
        <path d="M 745.9734 287.7354 L 513.78456 663.8015 L 630.5847 394.57307 L 535.668 319.04594 Z" fill="#ff4040"/>
        <path d="M 745.9734 287.7354 L 513.78456 663.8015 L 630.5847 394.57307 L 535.668 319.04594 Z" stroke="black" stroke-linecap="round" stroke-linejoin="round" stroke-width="6"/>
      </g>
      <g id="Graphic_28">
        <path d="M 578.1799 506.525 L 406.5555 587.7743 L 344.48144 779.2443 L 280.61374 724.5148 C 358.70674 649.5402 420.25227 513.08776 506.32874 444.95433 Z" fill="#ffc0ff"/>
        <path d="M 578.1799 506.525 L 406.5555 587.7743 L 344.48144 779.2443 L 280.61374 724.5148 C 358.70674 649.5402 420.25227 513.08776 506.32874 444.95433 Z" stroke="black" stroke-linecap="round" stroke-linejoin="round" stroke-width="6"/>
      </g>
      <g id="Graphic_29">
        <path d="M 283.6622 697.1653 L 99.85298 547.5834 L 308.42553 399.4706 L 212.47332 605.8324 L 353.5161 694.7708 Z" fill="#ffff40"/>
        <path d="M 283.6622 697.1653 L 99.85298 547.5834 L 308.42553 399.4706 L 212.47332 605.8324 L 353.5161 694.7708 Z" stroke="black" stroke-linecap="round" stroke-linejoin="round" stroke-width="6"/>
      </g>
      <g id="Graphic_30">
        <path d="M 637.6978 437.278 L 545.9409 516.6843 L 539.9575 780.2534 L 489.232 565.7601 L 397.47505 645.1664 L 519.7814 506.373 L 407.15637 218.7026 L 495.21537 302.19097 L 555.6222 90.2205 L 549.6388 353.7896 Z" fill="fuchsia"/>
        <path d="M 637.6978 437.278 L 545.9409 516.6843 L 539.9575 780.2534 L 489.232 565.7601 L 397.47505 645.1664 L 519.7814 506.373 L 407.15637 218.7026 L 495.21537 302.19097 L 555.6222 90.2205 L 549.6388 353.7896 Z" stroke="black" stroke-linecap="round" stroke-linejoin="round" stroke-width="6"/>
      </g>
      <g id="Graphic_31">
        <path d="M 392.71938 140.85031 L 389.44857 284.92983 L 443.9037 286.16604 L 440.63486 430.1591 L 386.17972 428.9229 L 382.9089 573.0024 L 328.48644 571.767 L 331.75725 427.68745 L 277.3021 426.45124 L 280.57095 282.45815 L 335.0261 283.69436 L 338.2969 139.61485 Z" fill="#40ff40"/>
        <path d="M 392.71938 140.85031 L 389.44857 284.92983 L 443.9037 286.16604 L 440.63486 430.1591 L 386.17972 428.9229 L 382.9089 573.0024 L 328.48644 571.767 L 331.75725 427.68745 L 277.3021 426.45124 L 280.57095 282.45815 L 335.0261 283.69436 L 338.2969 139.61485 Z" stroke="black" stroke-linecap="round" stroke-linejoin="round" stroke-width="6"/>
      </g>
      <g id="Graphic_32">
        <path d="M 546.582 190.73526 L 542.8686 201.63394 L 224.95198 539.1439 L 214.29458 543.5017 L 166.99493 498.94795 L 170.70836 488.04927 L 431.06603 305.77294 L 488.625 150.5393 L 499.2824 146.18148 Z" fill="fuchsia"/>
        <path d="M 546.582 190.73526 L 542.8686 201.63394 L 224.95198 539.1439 L 214.29458 543.5017 L 166.99493 498.94795 L 170.70836 488.04927 L 431.06603 305.77294 L 488.625 150.5393 L 499.2824 146.18148 Z" stroke="black" stroke-linecap="round" stroke-linejoin="round" stroke-width="6"/>
      </g>
      <g id="Graphic_33">
        <path d="M 435.08104 385.33766 C 387.95216 410.91595 578.27147 433.62805 578.27147 433.62805 C 578.27147 433.62805 455.4552 458.4657 407.29925 434.87786 C 359.14307 411.29017 358.31047 371.4334 405.4396 345.85522 C 452.5685 320.27693 529.812 318.66333 577.968 342.25116 C 626.12416 365.83885 482.21016 359.7595 435.08104 385.33766 Z" fill="#c0c0ff"/>
        <path d="M 435.08104 385.33766 C 387.95216 410.91595 578.27147 433.62805 578.27147 433.62805 C 578.27147 433.62805 455.4552 458.4657 407.29925 434.87786 C 359.14307 411.29017 358.31047 371.4334 405.4396 345.85522 C 452.5685 320.27693 529.812 318.66333 577.968 342.25116 C 626.12416 365.83885 482.21016 359.7595 435.08104 385.33766 Z" stroke="black" stroke-linecap="round" stroke-linejoin="round" stroke-width="6"/>
      </g>
      <g id="Graphic_34">
        <path d="M 703.5951 313.26512 L 498.63564 645.2289 L 601.73834 407.57365 L 517.9528 340.9038 Z" fill="lime"/>
        <path d="M 703.5951 313.26512 L 498.63564 645.2289 L 601.73834 407.57365 L 517.9528 340.9038 Z" stroke="black" stroke-linecap="round" stroke-linejoin="round" stroke-width="6"/>
      </g>
      <g id="Graphic_35">
        <path d="M 555.4792 506.39667 L 403.9816 578.11764 L 349.18716 747.13345 L 292.8094 698.82225 C 361.7442 632.6401 416.07214 512.1898 492.0542 452.04657 Z" fill="#ffc0ff"/>
        <path d="M 555.4792 506.39667 L 403.9816 578.11764 L 349.18716 747.13345 L 292.8094 698.82225 C 361.7442 632.6401 416.07214 512.1898 492.0542 452.04657 Z" stroke="black" stroke-linecap="round" stroke-linejoin="round" stroke-width="6"/>
      </g>
      <g id="Graphic_36">
        <path d="M 295.50037 674.68006 L 133.24695 542.64 L 317.35962 411.89684 L 232.66 594.058 L 357.1623 672.56635 Z" fill="#4040ff"/>
        <path d="M 295.50037 674.68006 L 133.24695 542.64 L 317.35962 411.89684 L 232.66 594.058 L 357.1623 672.56635 Z" stroke="black" stroke-linecap="round" stroke-linejoin="round" stroke-width="6"/>
      </g>
      <g id="Graphic_37">
        <path d="M 604.9913 457.24554 L 525.4245 526.1025 L 520.23603 754.6557 L 476.24954 568.6584 L 396.68276 637.5154 L 502.7404 517.1611 L 405.0779 267.70848 L 481.438 340.1052 L 533.81964 156.29559 L 528.63116 384.84883 Z" fill="#40ff40"/>
        <path d="M 604.9913 457.24554 L 525.4245 526.1025 L 520.23603 754.6557 L 476.24954 568.6584 L 396.68276 637.5154 L 502.7404 517.1611 L 405.0779 267.70848 L 481.438 340.1052 L 533.81964 156.29559 L 528.63116 384.84883 Z" stroke="black" stroke-linecap="round" stroke-linejoin="round" stroke-width="6"/>
      </g>
      <g id="Graphic_38">
        <path d="M 392.5589 200.1991 L 389.72262 325.13725 L 436.94325 326.20923 L 434.1087 451.07244 L 386.88805 450.00046 L 384.0518 574.9386 L 336.8595 573.8673 L 339.69575 448.92913 L 292.47513 447.85716 L 295.3097 322.99394 L 342.53032 324.0659 L 345.3666 199.12776 Z" fill="#4040ff"/>
        <path d="M 392.5589 200.1991 L 389.72262 325.13725 L 436.94325 326.20923 L 434.1087 451.07244 L 386.88805 450.00046 L 384.0518 574.9386 L 336.8595 573.8673 L 339.69575 448.92913 L 292.47513 447.85716 L 295.3097 322.99394 L 342.53032 324.0659 L 345.3666 199.12776 Z" stroke="black" stroke-linecap="round" stroke-linejoin="round" stroke-width="6"/>
      </g>
      <g id="Graphic_39">
        <path d="M 525.9805 243.4567 L 522.7604 252.90745 L 247.07986 545.5783 L 237.83832 549.35717 L 196.82256 510.7225 L 200.04265 501.2717 L 425.8111 343.2113 L 475.7232 208.60087 L 484.9647 204.822 Z" fill="aqua"/>
        <path d="M 525.9805 243.4567 L 522.7604 252.90745 L 247.07986 545.5783 L 237.83832 549.35717 L 196.82256 510.7225 L 200.04265 501.2717 L 425.8111 343.2113 L 475.7232 208.60087 L 484.9647 204.822 Z" stroke="black" stroke-linecap="round" stroke-linejoin="round" stroke-width="6"/>
      </g>
      <g id="Graphic_40">
        <path d="M 429.2927 412.20563 C 388.425 434.3858 553.4599 454.0805 553.4599 454.0805 C 553.4599 454.0805 446.9601 475.6184 405.2018 455.1643 C 363.4433 434.7103 362.7213 400.1486 403.5892 377.96854 C 444.4569 355.7884 511.4384 354.38917 553.1967 374.8433 C 594.9552 395.2973 470.1606 390.0256 429.2927 412.20563 Z" fill="#c0c0ff"/>
        <path d="M 429.2927 412.20563 C 388.425 434.3858 553.4599 454.0805 553.4599 454.0805 C 553.4599 454.0805 446.9601 475.6184 405.2018 455.1643 C 363.4433 434.7103 362.7213 400.1486 403.5892 377.96854 C 444.4569 355.7884 511.4384 354.38917 553.1967 374.8433 C 594.9552 395.2973 470.1606 390.0256 429.2927 412.20563 Z" stroke="black" stroke-linecap="round" stroke-linejoin="round" stroke-width="6"/>
      </g>
      <g id="Graphic_41">
        <path d="M 662.1339 349.70812 L 484.4039 637.5696 L 573.8091 431.4875 L 501.1547 373.67493 Z" fill="#ff4040"/>
        <path d="M 662.1339 349.70812 L 484.4039 637.5696 L 573.8091 431.4875 L 501.1547 373.67493 Z" stroke="black" stroke-linecap="round" stroke-linejoin="round" stroke-width="6"/>
      </g>
      <g id="Graphic_42">
        <path d="M 533.6956 517.1816 L 402.3249 579.37426 L 354.81005 725.9359 L 305.92223 684.0429 C 365.69887 626.6533 412.8092 522.2051 478.6968 470.0521 Z" fill="#ffc0ff"/>
        <path d="M 533.6956 517.1816 L 402.3249 579.37426 L 354.81005 725.9359 L 305.92223 684.0429 C 365.69887 626.6533 412.8092 522.2051 478.6968 470.0521 Z" stroke="black" stroke-linecap="round" stroke-linejoin="round" stroke-width="6"/>
      </g>
      <g id="Graphic_43">
        <path d="M 308.2557 663.1081 L 167.55809 548.60994 L 327.2109 435.23635 L 253.76384 593.1969 L 361.72567 661.2752 Z" fill="#ffff40"/>
        <path d="M 308.2557 663.1081 L 167.55809 548.60994 L 327.2109 435.23635 L 253.76384 593.1969 L 361.72567 661.2752 Z" stroke="black" stroke-linecap="round" stroke-linejoin="round" stroke-width="6"/>
      </g>
    </g>
  </g>
</svg>
