<?xml version="1.0" encoding="UTF-8" standalone="no"?>
<!DOCTYPE svg PUBLIC "-//W3C//DTD SVG 1.1//EN" "http://www.w3.org/Graphics/SVG/1.1/DTD/svg11.dtd">
<svg xmlns="http://www.w3.org/2000/svg" version="1.1" xmlns:dc="http://purl.org/dc/elements/1.1/" xmlns:xl="http://www.w3.org/1999/xlink" viewBox="0 0 850.394 850.394" width="850.394" height="850.394">
  <defs/>
  <metadata> Produced by OmniGraffle 7.9.4 
    <dc:date>2019-03-11 12:45:25 +0000</dc:date>
  </metadata>
  <g id="chip" fill="none" stroke-opacity="1" fill-opacity="1" stroke-dasharray="none" stroke="none">
    <title>chip</title>
    <g id="chip: Layer 2">
      <title>Layer 2</title>
      <g id="Graphic_14">
        <path d="M 693.4719 273.23367 L 697.255 363.8934 L 710.7631 414.7503 L 700.2493 555.6973 L 729.2811 547.5378 L 740.4403 416.6958 L 754.8552 314.1286 L 744.3854 263.6987 Z" fill="#999"/>
        <path d="M 693.4719 273.23367 L 697.255 363.8934 L 710.7631 414.7503 L 700.2493 555.6973 L 729.2811 547.5378 L 740.4403 416.6958 L 754.8552 314.1286 L 744.3854 263.6987 Z" stroke="black" stroke-linecap="round" stroke-linejoin="round" stroke-width="5"/>
      </g>
      <g id="Graphic_7">
        <path d="M 83.16861 377.9082 L 93.67112 436.2554 L 626.96494 594.9599 L 657.3055 565.7863 L 776.3339 351.06845 L 781.0017 313.7262 L 554.61436 243.70952 L 104.17362 354.5693 Z" fill="#333"/>
        <path d="M 83.16861 377.9082 L 93.67112 436.2554 L 626.96494 594.9599 L 657.3055 565.7863 L 776.3339 351.06845 L 781.0017 313.7262 L 554.61436 243.70952 L 104.17362 354.5693 Z" stroke="black" stroke-linecap="round" stroke-linejoin="round" stroke-width="10"/>
      </g>
      <g id="Graphic_6">
        <path d="M 82.30876 375.8814 L 98.64599 295.3622 L 638.9415 463.40225 L 781.3088 228.84632 L 788.3104 300.02996 L 651.7779 539.2537 Z" fill="#cbcbcb"/>
        <path d="M 82.30876 375.8814 L 98.64599 295.3622 L 638.9415 463.40225 L 781.3088 228.84632 L 788.3104 300.02996 L 651.7779 539.2537 Z" stroke="black" stroke-linecap="round" stroke-linejoin="round" stroke-width="10"/>
      </g>
      <g id="Graphic_10">
        <path d="M 183.02003 400.9564 L 164.34891 481.72094 L 141.01002 525.59303 L 130.50751 653.22095 L 99 642.2529 L 107.16861 523.59885 L 107.16861 429.8721 L 127.00668 386 Z" fill="#999"/>
        <path d="M 183.02003 400.9564 L 164.34891 481.72094 L 141.01002 525.59303 L 130.50751 653.22095 L 99 642.2529 L 107.16861 523.59885 L 107.16861 429.8721 L 127.00668 386 Z" stroke="black" stroke-linecap="round" stroke-linejoin="round" stroke-width="5"/>
      </g>
      <g id="Graphic_11">
        <path d="M 307.22204 442.85175 L 288.55092 523.6163 L 265.21202 567.4884 L 254.70952 695.1163 L 223.202 684.1483 L 231.37062 565.4942 L 231.37062 471.76745 L 251.20868 427.89535 Z" fill="#999"/>
        <path d="M 307.22204 442.85175 L 288.55092 523.6163 L 265.21202 567.4884 L 254.70952 695.1163 L 223.202 684.1483 L 231.37062 565.4942 L 231.37062 471.76745 L 251.20868 427.89535 Z" stroke="black" stroke-linecap="round" stroke-linejoin="round" stroke-width="5"/>
      </g>
      <g id="Graphic_12">
        <path d="M 443.5148 475.4454 L 424.8437 561.0414 L 401.5048 607.53796 L 391.0023 742.8007 L 359.4948 731.1766 L 367.6634 605.4245 L 367.6634 506.0909 L 387.50146 459.5943 Z" fill="#999"/>
        <path d="M 443.5148 475.4454 L 424.8437 561.0414 L 401.5048 607.53796 L 391.0023 742.8007 L 359.4948 731.1766 L 367.6634 605.4245 L 367.6634 506.0909 L 387.50146 459.5943 Z" stroke="black" stroke-linecap="round" stroke-linejoin="round" stroke-width="5"/>
      </g>
      <g id="Graphic_13">
        <path d="M 590.10225 506.52795 L 569.1434 595.7789 L 542.9449 644.2609 L 531.1556 785.2994 L 495.78756 773.1789 L 504.95705 642.05716 L 504.95705 538.482 L 527.2258 490 Z" fill="#999"/>
        <path d="M 590.10225 506.52795 L 569.1434 595.7789 L 542.9449 644.2609 L 531.1556 785.2994 L 495.78756 773.1789 L 504.95705 642.05716 L 504.95705 538.482 L 527.2258 490 Z" stroke="black" stroke-linecap="round" stroke-linejoin="round" stroke-width="5"/>
      </g>
      <g id="Graphic_5">
        <path d="M 75 375.8814 L 91.33723 295.3622 L 631.6327 463.40225 L 774 228.84632 L 781.0017 300.02996 L 644.4691 539.2537 Z" fill="#666"/>
        <path d="M 75 375.8814 L 91.33723 295.3622 L 631.6327 463.40225 L 774 228.84632 L 781.0017 300.02996 L 644.4691 539.2537 Z" stroke="black" stroke-linecap="round" stroke-linejoin="round" stroke-width="10"/>
      </g>
      <g id="Graphic_4">
        <path d="M 90.17028 292.7212 L 142.6828 204.0334 L 168.3556 204.0334 L 189.3606 187.69616 L 190.52755 177.19366 C 190.52755 177.19366 191.6945 164.35726 189.3606 162.02337 C 187.02671 159.68948 177.69115 149.18698 177.69115 149.18698 L 229.03673 73.33556 L 234.87145 64 L 774 226.20534 L 713.3189 321.89482 L 637.46745 453.7596 Z" fill="#666"/>
        <path d="M 90.17028 292.7212 L 142.6828 204.0334 L 168.3556 204.0334 L 189.3606 187.69616 L 190.52755 177.19366 C 190.52755 177.19366 191.6945 164.35726 189.3606 162.02337 C 187.02671 159.68948 177.69115 149.18698 177.69115 149.18698 L 229.03673 73.33556 L 234.87145 64 L 774 226.20534 L 713.3189 321.89482 L 637.46745 453.7596 Z" stroke="black" stroke-linecap="round" stroke-linejoin="round" stroke-width="10"/>
      </g>
      <g id="Graphic_15">
        <ellipse cx="213.28297" cy="258.8798" rx="49.5952378458607" ry="37.9257701174229" fill="#333"/>
        <ellipse cx="213.28297" cy="258.8798" rx="49.5952378458607" ry="37.9257701174229" stroke="black" stroke-linecap="round" stroke-linejoin="round" stroke-width="9"/>
      </g>
    </g>
    <g id="chip: Layer 3">
      <title>Layer 3</title>
      <g id="Line_9">
        <path d="M 631.6327 459.5943 L 645.63606 537.1741 L 647.4018 539.2537 L 631.7234 594.9599 L 631.7234 594.9599" stroke="black" stroke-linecap="round" stroke-linejoin="round" stroke-width="14"/>
      </g>
    </g>
  </g>
</svg>
