<?xml version="1.0" encoding="UTF-8" standalone="no"?>
<!DOCTYPE svg PUBLIC "-//W3C//DTD SVG 1.1//EN" "http://www.w3.org/Graphics/SVG/1.1/DTD/svg11.dtd">
<svg xmlns:xl="http://www.w3.org/1999/xlink" xmlns:dc="http://purl.org/dc/elements/1.1/" xmlns="http://www.w3.org/2000/svg" version="1.1" viewBox="0 0 850.394 850.394" width="850.394" height="850.394">
  <defs/>
  <metadata> Produced by OmniGraffle 7.9.4 
    <dc:date>2019-03-14 13:44:40 +0000</dc:date>
  </metadata>
  <g id="circuit_playground" fill-opacity="1" stroke-dasharray="none" stroke-opacity="1" stroke="none" fill="none">
    <title>circuit playground</title>
    <g id="circuit_playground: cp">
      <title>cp</title>
      <g id="Graphic_180">
        <path d="M 511.94423 148.88632 C 672.1939 192.28545 767.6163 357.5619 725.0762 518.0417 C 682.53695 678.5218 518.14436 773.4339 357.89492 730.0339 C 197.64526 686.6348 102.22287 521.3584 144.76295 360.87853 C 187.3022 200.39847 351.6948 105.48636 511.94423 148.88632" fill="#333"/>
        <path d="M 511.94423 148.88632 C 672.1939 192.28545 767.6163 357.5619 725.0762 518.0417 C 682.53695 678.5218 518.14436 773.4339 357.89492 730.0339 C 197.64526 686.6348 102.22287 521.3584 144.76295 360.87853 C 187.3022 200.39847 351.6948 105.48636 511.94423 148.88632" stroke="black" stroke-linecap="round" stroke-linejoin="round" stroke-width="12"/>
      </g>
      <g id="Group_214">
        <g id="Graphic_216">
          <rect x="384.64144" y="135" width="90" height="90" fill="#ffe45f"/>
          <rect x="384.64144" y="135" width="90" height="90" stroke="black" stroke-linecap="round" stroke-linejoin="round" stroke-width="1"/>
        </g>
        <g id="Graphic_215">
          <path d="M 413.3081 151.66667 L 445.97476 151.66667 C 452.6022 151.66667 457.97476 157.03925 457.97476 163.66667 L 457.97476 196.33333 C 457.97476 202.96075 452.6022 208.33333 445.97476 208.33333 L 413.3081 208.33333 C 406.68067 208.33333 401.3081 202.96075 401.3081 196.33333 L 401.3081 163.66667 C 401.3081 157.03925 406.68067 151.66667 413.3081 151.66667 Z" fill="white"/>
          <path d="M 413.3081 151.66667 L 445.97476 151.66667 C 452.6022 151.66667 457.97476 157.03925 457.97476 163.66667 L 457.97476 196.33333 C 457.97476 202.96075 452.6022 208.33333 445.97476 208.33333 L 413.3081 208.33333 C 406.68067 208.33333 401.3081 202.96075 401.3081 196.33333 L 401.3081 163.66667 C 401.3081 157.03925 406.68067 151.66667 413.3081 151.66667 Z" stroke="black" stroke-linecap="round" stroke-linejoin="round" stroke-width="1"/>
        </g>
      </g>
      <g id="Group_217">
        <g id="Graphic_219">
          <rect x="384.64144" y="647" width="90" height="90" fill="#ffe45f"/>
          <rect x="384.64144" y="647" width="90" height="90" stroke="black" stroke-linecap="round" stroke-linejoin="round" stroke-width="1"/>
        </g>
        <g id="Graphic_218">
          <path d="M 413.3081 663.6667 L 445.97476 663.6667 C 452.6022 663.6667 457.97476 669.03925 457.97476 675.6667 L 457.97476 708.3333 C 457.97476 714.96075 452.6022 720.3333 445.97476 720.3333 L 413.3081 720.3333 C 406.68067 720.3333 401.3081 714.96075 401.3081 708.3333 L 401.3081 675.6667 C 401.3081 669.03925 406.68067 663.6667 413.3081 663.6667 Z" fill="white"/>
          <path d="M 413.3081 663.6667 L 445.97476 663.6667 C 452.6022 663.6667 457.97476 669.03925 457.97476 675.6667 L 457.97476 708.3333 C 457.97476 714.96075 452.6022 720.3333 445.97476 720.3333 L 413.3081 720.3333 C 406.68067 720.3333 401.3081 714.96075 401.3081 708.3333 L 401.3081 675.6667 C 401.3081 669.03925 406.68067 663.6667 413.3081 663.6667 Z" stroke="black" stroke-linecap="round" stroke-linejoin="round" stroke-width="1"/>
        </g>
      </g>
      <g id="Group_220">
        <g id="Graphic_222">
          <path d="M 615.1052 193.56328 L 678.7448 257.2029 L 615.1052 320.8425 L 551.4656 257.2029 Z" fill="#ffe45f"/>
          <path d="M 615.1052 193.56328 L 678.7448 257.2029 L 615.1052 320.8425 L 551.4656 257.2029 Z" stroke="black" stroke-linecap="round" stroke-linejoin="round" stroke-width="1"/>
        </g>
        <g id="Graphic_221">
          <path d="M 623.5905 225.61877 L 646.6893 248.7176 C 651.3756 253.40388 651.3756 261.00186 646.6893 265.68815 L 623.5905 288.78698 C 618.9042 293.47327 611.3062 293.47327 606.6199 288.78698 C 606.6199 288.78698 606.6199 288.78698 606.6199 288.78698 L 583.5211 265.68815 C 578.8348 261.00186 578.8348 253.40388 583.5211 248.7176 L 606.6199 225.61877 C 611.3062 220.93248 618.9042 220.93248 623.5905 225.61877 C 623.5905 225.61877 623.5905 225.61877 623.5905 225.61877 Z" fill="white"/>
          <path d="M 623.5905 225.61877 L 646.6893 248.7176 C 651.3756 253.40388 651.3756 261.00186 646.6893 265.68815 L 623.5905 288.78698 C 618.9042 293.47327 611.3062 293.47327 606.6199 288.78698 C 606.6199 288.78698 606.6199 288.78698 606.6199 288.78698 L 583.5211 265.68815 C 578.8348 261.00186 578.8348 253.40388 583.5211 248.7176 L 606.6199 225.61877 C 611.3062 220.93248 618.9042 220.93248 623.5905 225.61877 C 623.5905 225.61877 623.5905 225.61877 623.5905 225.61877 Z" stroke="black" stroke-linecap="round" stroke-linejoin="round" stroke-width="1"/>
        </g>
      </g>
      <g id="Group_223">
        <g id="Graphic_225">
          <path d="M 248.6221 553.3797 L 312.26172 617.0193 L 248.6221 680.65895 L 184.9825 617.0193 Z" fill="#ffe45f"/>
          <path d="M 248.6221 553.3797 L 312.26172 617.0193 L 248.6221 680.65895 L 184.9825 617.0193 Z" stroke="black" stroke-linecap="round" stroke-linejoin="round" stroke-width="1"/>
        </g>
        <g id="Graphic_224">
          <path d="M 257.10738 585.4352 L 280.2062 608.53404 C 284.8925 613.2203 284.8925 620.8183 280.2062 625.5046 C 280.2062 625.5046 280.2062 625.5046 280.2062 625.5046 L 257.10738 648.6034 C 252.42108 653.2897 244.8231 653.2897 240.1368 648.6034 L 217.038 625.5046 C 212.3517 620.8183 212.3517 613.2203 217.038 608.53404 C 217.038 608.53404 217.038 608.53404 217.038 608.53404 L 240.1368 585.4352 C 244.8231 580.7489 252.42108 580.7489 257.10738 585.4352 Z" fill="white"/>
          <path d="M 257.10738 585.4352 L 280.2062 608.53404 C 284.8925 613.2203 284.8925 620.8183 280.2062 625.5046 C 280.2062 625.5046 280.2062 625.5046 280.2062 625.5046 L 257.10738 648.6034 C 252.42108 653.2897 244.8231 653.2897 240.1368 648.6034 L 217.038 625.5046 C 212.3517 620.8183 212.3517 613.2203 217.038 608.53404 C 217.038 608.53404 217.038 608.53404 217.038 608.53404 L 240.1368 585.4352 C 244.8231 580.7489 252.42108 580.7489 257.10738 585.4352 Z" stroke="black" stroke-linecap="round" stroke-linejoin="round" stroke-width="1"/>
        </g>
      </g>
      <g id="Group_226">
        <g id="Graphic_228">
          <rect x="645.0859" y="391" width="90" height="90" fill="#ffe45f"/>
          <rect x="645.0859" y="391" width="90" height="90" stroke="black" stroke-linecap="round" stroke-linejoin="round" stroke-width="1"/>
        </g>
        <g id="Graphic_227">
          <path d="M 718.4192 419.66665 L 718.4192 452.3333 C 718.4192 458.96073 713.0466 464.3333 706.4192 464.3333 L 673.75256 464.3333 C 667.1251 464.3333 661.75256 458.96073 661.75256 452.3333 L 661.75256 419.66665 C 661.75256 413.03923 667.1251 407.66665 673.75256 407.66665 L 706.4192 407.66665 C 713.0466 407.66665 718.4192 413.03923 718.4192 419.66665 Z" fill="white"/>
          <path d="M 718.4192 419.66665 L 718.4192 452.3333 C 718.4192 458.96073 713.0466 464.3333 706.4192 464.3333 L 673.75256 464.3333 C 667.1251 464.3333 661.75256 458.96073 661.75256 452.3333 L 661.75256 419.66665 C 661.75256 413.03923 667.1251 407.66665 673.75256 407.66665 L 706.4192 407.66665 C 713.0466 407.66665 718.4192 413.03923 718.4192 419.66665 Z" stroke="black" stroke-linecap="round" stroke-linejoin="round" stroke-width="1"/>
        </g>
      </g>
      <g id="Group_229">
        <g id="Graphic_231">
          <rect x="128.64144" y="391" width="90" height="90" fill="#ffe45f"/>
          <rect x="128.64144" y="391" width="90" height="90" stroke="black" stroke-linecap="round" stroke-linejoin="round" stroke-width="1"/>
        </g>
        <g id="Graphic_230">
          <path d="M 201.97478 419.66665 L 201.97478 452.3333 C 201.97478 458.96073 196.6022 464.3333 189.97478 464.3333 L 157.30811 464.3333 C 150.6807 464.3333 145.30811 458.96073 145.30811 452.3333 L 145.30811 419.66665 C 145.30811 413.03923 150.6807 407.66665 157.30811 407.66665 L 189.97478 407.66665 C 196.6022 407.66665 201.97478 413.03923 201.97478 419.66665 Z" fill="white"/>
          <path d="M 201.97478 419.66665 L 201.97478 452.3333 C 201.97478 458.96073 196.6022 464.3333 189.97478 464.3333 L 157.30811 464.3333 C 150.6807 464.3333 145.30811 458.96073 145.30811 452.3333 L 145.30811 419.66665 C 145.30811 413.03923 150.6807 407.66665 157.30811 407.66665 L 189.97478 407.66665 C 196.6022 407.66665 201.97478 413.03923 201.97478 419.66665 Z" stroke="black" stroke-linecap="round" stroke-linejoin="round" stroke-width="1"/>
        </g>
      </g>
      <g id="Group_232">
        <g id="Graphic_234">
          <path d="M 674.3004 617.0193 L 610.6608 680.65895 L 547.0212 617.0193 L 610.6608 553.3797 Z" fill="#ffe45f"/>
          <path d="M 674.3004 617.0193 L 610.6608 680.65895 L 547.0212 617.0193 L 610.6608 553.3797 Z" stroke="black" stroke-linecap="round" stroke-linejoin="round" stroke-width="1"/>
        </g>
        <g id="Graphic_233">
          <path d="M 642.2449 625.5046 L 619.1461 648.6034 C 614.4598 653.2897 606.8618 653.2897 602.1755 648.6034 L 579.0767 625.5046 C 574.3904 620.8183 574.3904 613.2203 579.0767 608.53404 L 602.1755 585.4352 C 606.8618 580.7489 614.4598 580.7489 619.1461 585.4352 L 642.2449 608.53404 C 646.9312 613.2203 646.9312 620.8183 642.2449 625.5046 C 642.2449 625.5046 642.2449 625.5046 642.2449 625.5046 Z" fill="white"/>
          <path d="M 642.2449 625.5046 L 619.1461 648.6034 C 614.4598 653.2897 606.8618 653.2897 602.1755 648.6034 L 579.0767 625.5046 C 574.3904 620.8183 574.3904 613.2203 579.0767 608.53404 L 602.1755 585.4352 C 606.8618 580.7489 614.4598 580.7489 619.1461 585.4352 L 642.2449 608.53404 C 646.9312 613.2203 646.9312 620.8183 642.2449 625.5046 C 642.2449 625.5046 642.2449 625.5046 642.2449 625.5046 Z" stroke="black" stroke-linecap="round" stroke-linejoin="round" stroke-width="1"/>
        </g>
      </g>
      <g id="Group_235">
        <g id="Graphic_237">
          <path d="M 312.26172 254.98066 L 248.6221 318.62027 L 184.9825 254.98066 L 248.6221 191.34105 Z" fill="#ffe45f"/>
          <path d="M 312.26172 254.98066 L 248.6221 318.62027 L 184.9825 254.98066 L 248.6221 191.34105 Z" stroke="black" stroke-linecap="round" stroke-linejoin="round" stroke-width="1"/>
        </g>
        <g id="Graphic_236">
          <path d="M 280.20623 263.46593 L 257.1074 286.56475 C 252.4211 291.25104 244.82313 291.25104 240.13684 286.56475 L 217.03802 263.46593 C 212.35173 258.77964 212.35173 251.18166 217.03802 246.49537 C 217.03802 246.49537 217.03802 246.49537 217.03802 246.49537 L 240.13684 223.39655 C 244.82313 218.71026 252.4211 218.71026 257.1074 223.39655 L 280.20623 246.49537 C 284.8925 251.18166 284.8925 258.77964 280.20623 263.46593 Z" fill="white"/>
          <path d="M 280.20623 263.46593 L 257.1074 286.56475 C 252.4211 291.25104 244.82313 291.25104 240.13684 286.56475 L 217.03802 263.46593 C 212.35173 258.77964 212.35173 251.18166 217.03802 246.49537 C 217.03802 246.49537 217.03802 246.49537 217.03802 246.49537 L 240.13684 223.39655 C 244.82313 218.71026 252.4211 218.71026 257.1074 223.39655 L 280.20623 246.49537 C 284.8925 251.18166 284.8925 258.77964 280.20623 263.46593 Z" stroke="black" stroke-linecap="round" stroke-linejoin="round" stroke-width="1"/>
        </g>
      </g>
    </g>
  </g>
</svg>
