<?xml version="1.0" encoding="UTF-8" standalone="no"?>
<!DOCTYPE svg PUBLIC "-//W3C//DTD SVG 1.1//EN" "http://www.w3.org/Graphics/SVG/1.1/DTD/svg11.dtd">
<svg version="1.1" xmlns="http://www.w3.org/2000/svg" xmlns:xl="http://www.w3.org/1999/xlink" xmlns:dc="http://purl.org/dc/elements/1.1/" viewBox="0 0 850.394 850.394" width="850.394" height="850.394">
  <defs/>
  <metadata> Produced by OmniGraffle 7.9.4 
    <dc:date>2019-03-22 20:48:47 +0000</dc:date>
  </metadata>
  <g id="cold" stroke-opacity="1" fill-opacity="1" stroke="none" stroke-dasharray="none" fill="none">
    <title>cold</title>
    <g id="cold: synth">
      <title>synth</title>
      <g id="Graphic_170">
        <path d="M 147.77778 821.3889 L 147.77778 505.6389 L 209.30984 470.55556 L 763.0984 470.55556 L 763.0984 786.3056 L 701.5663 821.3889 Z" fill="#4040ff"/>
        <path d="M 147.77778 821.3889 L 147.77778 505.6389 L 209.30984 470.55556 L 763.0984 470.55556 L 763.0984 786.3056 L 701.5663 821.3889 L 147.77778 821.3889 M 147.77778 505.6389 L 701.5663 505.6389 L 763.0984 470.55556 M 701.5663 505.6389 L 701.5663 821.3889" stroke="black" stroke-linecap="round" stroke-linejoin="round" stroke-width="9"/>
      </g>
      <g id="Graphic_169">
        <path d="M 167.89725 602.17045 L 167.89725 541.74436 L 174.3427 535.03035 L 232.35175 535.03035 L 232.35175 595.45644 L 225.9063 602.17045 Z" fill="#999"/>
        <path d="M 167.89725 602.17045 L 167.89725 541.74436 L 174.3427 535.03035 L 232.35175 535.03035 L 232.35175 595.45644 L 225.9063 602.17045 L 167.89725 602.17045 M 167.89725 541.74436 L 225.9063 541.74436 L 232.35175 535.03035 M 225.9063 541.74436 L 225.9063 602.17045" stroke="black" stroke-linecap="round" stroke-linejoin="round" stroke-width="3"/>
      </g>
      <g id="Graphic_168">
        <path d="M 246.5122 602.17045 L 246.5122 541.74436 L 252.95765 535.03035 L 310.9667 535.03035 L 310.9667 595.45644 L 304.52125 602.17045 Z" fill="#999"/>
        <path d="M 246.5122 602.17045 L 246.5122 541.74436 L 252.95765 535.03035 L 310.9667 535.03035 L 310.9667 595.45644 L 304.52125 602.17045 L 246.5122 602.17045 M 246.5122 541.74436 L 304.52125 541.74436 L 310.9667 535.03035 M 304.52125 541.74436 L 304.52125 602.17045" stroke="black" stroke-linecap="round" stroke-linejoin="round" stroke-width="3"/>
      </g>
      <g id="Graphic_167">
        <path d="M 258.7195 552.12056 L 298.7594 572.1405 L 258.7195 592.1605 Z" fill="lime"/>
        <path d="M 258.7195 552.12056 L 298.7594 572.1405 L 258.7195 592.1605 Z" stroke="black" stroke-linecap="round" stroke-linejoin="round" stroke-width="8"/>
      </g>
      <g id="Graphic_166">
        <rect x="180.0705" y="555.0528" width="34.17537" height="34.17537" fill="blue"/>
        <rect x="180.0705" y="555.0528" width="34.17537" height="34.17537" stroke="black" stroke-linecap="round" stroke-linejoin="round" stroke-width="8"/>
      </g>
      <g id="Graphic_165">
        <path d="M 225.74074 802.1077 L 225.74074 693.8398 L 228.75866 681.81 L 255.91995 681.81 L 255.91995 790.078 L 252.90203 802.1077 Z" fill="#999"/>
        <path d="M 225.74074 802.1077 L 225.74074 693.8398 L 228.75866 681.81 L 255.91995 681.81 L 255.91995 790.078 L 252.90203 802.1077 L 225.74074 802.1077 M 225.74074 693.8398 L 252.90203 693.8398 L 255.91995 681.81 M 252.90203 693.8398 L 252.90203 802.1077" stroke="black" stroke-linecap="round" stroke-linejoin="round" stroke-width="4"/>
      </g>
      <g id="Graphic_164">
        <path d="M 255.91995 758.8929 L 255.91995 689.5183 L 258.93787 681.81 L 286.09916 681.81 L 286.09916 751.1846 L 283.08124 758.8929 Z" fill="#333"/>
        <path d="M 255.91995 758.8929 L 255.91995 689.5183 L 258.93787 681.81 L 286.09916 681.81 L 286.09916 751.1846 L 283.08124 758.8929 L 255.91995 758.8929 M 255.91995 689.5183 L 283.08124 689.5183 L 286.09916 681.81 M 283.08124 689.5183 L 283.08124 758.8929" stroke="black" stroke-linecap="round" stroke-linejoin="round" stroke-width="4"/>
      </g>
      <g id="Graphic_163">
        <path d="M 286.09916 802.1077 L 286.09916 693.8398 L 289.1171 681.81 L 316.27838 681.81 L 316.27838 790.078 L 313.26045 802.1077 Z" fill="#999"/>
        <path d="M 286.09916 802.1077 L 286.09916 693.8398 L 289.1171 681.81 L 316.27838 681.81 L 316.27838 790.078 L 313.26045 802.1077 L 286.09916 802.1077 M 286.09916 693.8398 L 313.26045 693.8398 L 316.27838 681.81 M 313.26045 693.8398 L 313.26045 802.1077" stroke="black" stroke-linecap="round" stroke-linejoin="round" stroke-width="4"/>
      </g>
      <g id="Graphic_162">
        <path d="M 316.27838 758.8929 L 316.27838 689.5183 L 319.2963 681.81 L 346.4576 681.81 L 346.4576 751.1846 L 343.43967 758.8929 Z" fill="#333"/>
        <path d="M 316.27838 758.8929 L 316.27838 689.5183 L 319.2963 681.81 L 346.4576 681.81 L 346.4576 751.1846 L 343.43967 758.8929 L 316.27838 758.8929 M 316.27838 689.5183 L 343.43967 689.5183 L 346.4576 681.81 M 343.43967 689.5183 L 343.43967 758.8929" stroke="black" stroke-linecap="round" stroke-linejoin="round" stroke-width="4"/>
      </g>
      <g id="Graphic_161">
        <path d="M 346.4576 802.1077 L 346.4576 693.8398 L 349.4755 681.81 L 376.6368 681.81 L 376.6368 790.078 L 373.61888 802.1077 Z" fill="#999"/>
        <path d="M 346.4576 802.1077 L 346.4576 693.8398 L 349.4755 681.81 L 376.6368 681.81 L 376.6368 790.078 L 373.61888 802.1077 L 346.4576 802.1077 M 346.4576 693.8398 L 373.61888 693.8398 L 376.6368 681.81 M 373.61888 693.8398 L 373.61888 802.1077" stroke="black" stroke-linecap="round" stroke-linejoin="round" stroke-width="4"/>
      </g>
      <g id="Graphic_160">
        <path d="M 376.6368 802.1077 L 376.6368 693.8398 L 379.6547 681.81 L 406.816 681.81 L 406.816 790.078 L 403.7981 802.1077 Z" fill="#999"/>
        <path d="M 376.6368 802.1077 L 376.6368 693.8398 L 379.6547 681.81 L 406.816 681.81 L 406.816 790.078 L 403.7981 802.1077 L 376.6368 802.1077 M 376.6368 693.8398 L 403.7981 693.8398 L 406.816 681.81 M 403.7981 693.8398 L 403.7981 802.1077" stroke="black" stroke-linecap="round" stroke-linejoin="round" stroke-width="4"/>
      </g>
      <g id="Graphic_159">
        <path d="M 406.816 758.8929 L 406.816 689.5183 L 409.83393 681.81 L 436.9952 681.81 L 436.9952 751.1846 L 433.9773 758.8929 Z" fill="#333"/>
        <path d="M 406.816 758.8929 L 406.816 689.5183 L 409.83393 681.81 L 436.9952 681.81 L 436.9952 751.1846 L 433.9773 758.8929 L 406.816 758.8929 M 406.816 689.5183 L 433.9773 689.5183 L 436.9952 681.81 M 433.9773 689.5183 L 433.9773 758.8929" stroke="black" stroke-linecap="round" stroke-linejoin="round" stroke-width="4"/>
      </g>
      <g id="Graphic_158">
        <path d="M 436.9952 802.1077 L 436.9952 693.8398 L 440.01314 681.81 L 467.17443 681.81 L 467.17443 790.078 L 464.1565 802.1077 Z" fill="#999"/>
        <path d="M 436.9952 802.1077 L 436.9952 693.8398 L 440.01314 681.81 L 467.17443 681.81 L 467.17443 790.078 L 464.1565 802.1077 L 436.9952 802.1077 M 436.9952 693.8398 L 464.1565 693.8398 L 467.17443 681.81 M 464.1565 693.8398 L 464.1565 802.1077" stroke="black" stroke-linecap="round" stroke-linejoin="round" stroke-width="4"/>
      </g>
      <g id="Graphic_157">
        <path d="M 468.2628 758.8929 L 468.2628 689.5183 L 471.2807 681.81 L 498.442 681.81 L 498.442 751.1846 L 495.4241 758.8929 Z" fill="#333"/>
        <path d="M 468.2628 758.8929 L 468.2628 689.5183 L 471.2807 681.81 L 498.442 681.81 L 498.442 751.1846 L 495.4241 758.8929 L 468.2628 758.8929 M 468.2628 689.5183 L 495.4241 689.5183 L 498.442 681.81 M 495.4241 689.5183 L 495.4241 758.8929" stroke="black" stroke-linecap="round" stroke-linejoin="round" stroke-width="4"/>
      </g>
      <g id="Graphic_156">
        <path d="M 498.442 802.1077 L 498.442 693.8398 L 501.4599 681.81 L 528.6212 681.81 L 528.6212 790.078 L 525.6033 802.1077 Z" fill="#999"/>
        <path d="M 498.442 802.1077 L 498.442 693.8398 L 501.4599 681.81 L 528.6212 681.81 L 528.6212 790.078 L 525.6033 802.1077 L 498.442 802.1077 M 498.442 693.8398 L 525.6033 693.8398 L 528.6212 681.81 M 525.6033 693.8398 L 525.6033 802.1077" stroke="black" stroke-linecap="round" stroke-linejoin="round" stroke-width="4"/>
      </g>
      <g id="Graphic_155">
        <path d="M 528.6212 758.8929 L 528.6212 689.5183 L 531.6391 681.81 L 558.8004 681.81 L 558.8004 751.1846 L 555.7825 758.8929 Z" fill="#333"/>
        <path d="M 528.6212 758.8929 L 528.6212 689.5183 L 531.6391 681.81 L 558.8004 681.81 L 558.8004 751.1846 L 555.7825 758.8929 L 528.6212 758.8929 M 528.6212 689.5183 L 555.7825 689.5183 L 558.8004 681.81 M 555.7825 689.5183 L 555.7825 758.8929" stroke="black" stroke-linecap="round" stroke-linejoin="round" stroke-width="4"/>
      </g>
      <g id="Graphic_154">
        <path d="M 558.8004 802.1077 L 558.8004 693.8398 L 561.81834 681.81 L 588.9796 681.81 L 588.9796 790.078 L 585.9617 802.1077 Z" fill="#999"/>
        <path d="M 558.8004 802.1077 L 558.8004 693.8398 L 561.81834 681.81 L 588.9796 681.81 L 588.9796 790.078 L 585.9617 802.1077 L 558.8004 802.1077 M 558.8004 693.8398 L 585.9617 693.8398 L 588.9796 681.81 M 585.9617 693.8398 L 585.9617 802.1077" stroke="black" stroke-linecap="round" stroke-linejoin="round" stroke-width="4"/>
      </g>
      <g id="Graphic_153">
        <path d="M 588.9796 802.1077 L 588.9796 693.8398 L 591.99755 681.81 L 619.15884 681.81 L 619.15884 790.078 L 616.1409 802.1077 Z" fill="#999"/>
        <path d="M 588.9796 802.1077 L 588.9796 693.8398 L 591.99755 681.81 L 619.15884 681.81 L 619.15884 790.078 L 616.1409 802.1077 L 588.9796 802.1077 M 588.9796 693.8398 L 616.1409 693.8398 L 619.15884 681.81 M 616.1409 693.8398 L 616.1409 802.1077" stroke="black" stroke-linecap="round" stroke-linejoin="round" stroke-width="4"/>
      </g>
      <g id="Graphic_152">
        <circle cx="241.68746" cy="655.8224" r="9.22144046173573" fill="black"/>
        <circle cx="241.68746" cy="655.8224" r="9.22144046173573" stroke="black" stroke-linecap="round" stroke-linejoin="round" stroke-width="3"/>
      </g>
      <g id="Graphic_151">
        <circle cx="272.0146" cy="655.8224" r="9.22144046173572" fill="black"/>
        <circle cx="272.0146" cy="655.8224" r="9.22144046173572" stroke="black" stroke-linecap="round" stroke-linejoin="round" stroke-width="3"/>
      </g>
      <g id="Graphic_150">
        <circle cx="301.97192" cy="655.8224" r="9.22144046173571" fill="black"/>
        <circle cx="301.97192" cy="655.8224" r="9.22144046173571" stroke="black" stroke-linecap="round" stroke-linejoin="round" stroke-width="3"/>
      </g>
      <g id="Graphic_149">
        <circle cx="332.29907" cy="655.8224" r="9.22144046173572" fill="black"/>
        <circle cx="332.29907" cy="655.8224" r="9.22144046173572" stroke="black" stroke-linecap="round" stroke-linejoin="round" stroke-width="3"/>
      </g>
      <g id="Graphic_148">
        <circle cx="361.6787" cy="655.8224" r="9.22144046173573" fill="black"/>
        <circle cx="361.6787" cy="655.8224" r="9.22144046173573" stroke="black" stroke-linecap="round" stroke-linejoin="round" stroke-width="3"/>
      </g>
      <g id="Graphic_147">
        <circle cx="392.00584" cy="655.8224" r="9.22144046173573" fill="black"/>
        <circle cx="392.00584" cy="655.8224" r="9.22144046173573" stroke="black" stroke-linecap="round" stroke-linejoin="round" stroke-width="3"/>
      </g>
      <g id="Graphic_146">
        <circle cx="421.96315" cy="655.8224" r="9.22144046173572" fill="red"/>
        <circle cx="421.96315" cy="655.8224" r="9.22144046173572" stroke="black" stroke-linecap="round" stroke-linejoin="round" stroke-width="3"/>
      </g>
      <g id="Graphic_145">
        <circle cx="452.2903" cy="655.8224" r="9.22144046173572" fill="black"/>
        <circle cx="452.2903" cy="655.8224" r="9.22144046173572" stroke="black" stroke-linecap="round" stroke-linejoin="round" stroke-width="3"/>
      </g>
      <g id="Graphic_144">
        <circle cx="483.62835" cy="655.8224" r="9.22144046173572" fill="black"/>
        <circle cx="483.62835" cy="655.8224" r="9.22144046173572" stroke="black" stroke-linecap="round" stroke-linejoin="round" stroke-width="3"/>
      </g>
      <g id="Graphic_143">
        <circle cx="513.9555" cy="655.8224" r="9.22144046173573" fill="black"/>
        <circle cx="513.9555" cy="655.8224" r="9.22144046173573" stroke="black" stroke-linecap="round" stroke-linejoin="round" stroke-width="3"/>
      </g>
      <g id="Graphic_142">
        <circle cx="543.9128" cy="655.8224" r="9.22144046173576" fill="black"/>
        <circle cx="543.9128" cy="655.8224" r="9.22144046173576" stroke="black" stroke-linecap="round" stroke-linejoin="round" stroke-width="3"/>
      </g>
      <g id="Graphic_141">
        <circle cx="574.23995" cy="655.8224" r="9.22144046173574" fill="black"/>
        <circle cx="574.23995" cy="655.8224" r="9.22144046173574" stroke="black" stroke-linecap="round" stroke-linejoin="round" stroke-width="3"/>
      </g>
      <g id="Graphic_140">
        <circle cx="604.3487" cy="655.8224" r="9.22144046173576" fill="black"/>
        <circle cx="604.3487" cy="655.8224" r="9.22144046173576" stroke="black" stroke-linecap="round" stroke-linejoin="round" stroke-width="3"/>
      </g>
      <g id="Graphic_139">
        <path d="M 346.17963 542.53895 C 356.798 538.2367 367.6439 543.76295 370.4046 554.8822 C 373.1654 566.0014 366.79554 578.50295 356.17716 582.80515 C 345.5588 587.1074 334.7129 581.58115 331.95217 570.4619 C 329.1914 559.3427 335.56124 546.84115 346.17963 542.53895" fill="#999"/>
        <path d="M 346.17963 542.53895 C 356.798 538.2367 367.6439 543.76295 370.4046 554.8822 C 373.1654 566.0014 366.79554 578.50295 356.17716 582.80515 C 345.5588 587.1074 334.7129 581.58115 331.95217 570.4619 C 329.1914 559.3427 335.56124 546.84115 346.17963 542.53895" stroke="black" stroke-linecap="round" stroke-linejoin="round" stroke-width="6"/>
      </g>
      <g id="Graphic_138">
        <path d="M 339.83715 549.2527 C 347.85648 546.0035 356.04762 550.1771 358.1326 558.5747 C 360.21763 566.97226 355.40693 576.4138 347.3876 579.66295 C 339.36827 582.91215 331.17712 578.73855 329.09214 570.34095 C 327.0071 561.9434 331.81782 552.50183 339.83715 549.2527" fill="#ccc"/>
        <path d="M 339.83715 549.2527 C 347.85648 546.0035 356.04762 550.1771 358.1326 558.5747 C 360.21763 566.97226 355.40693 576.4138 347.3876 579.66295 C 339.36827 582.91215 331.17712 578.73855 329.09214 570.34095 C 327.0071 561.9434 331.81782 552.50183 339.83715 549.2527" stroke="black" stroke-linecap="round" stroke-linejoin="round" stroke-width="4"/>
      </g>
      <g id="Line_137">
        <line x1="343.30272" y1="565.0334" x2="343.30272" y2="551.4087" stroke="black" stroke-linecap="round" stroke-linejoin="round" stroke-width="7"/>
      </g>
      <g id="Graphic_136">
        <path d="M 403.15555 540.68104 C 413.7739 536.3788 424.6198 541.90504 427.38053 553.0243 C 430.1413 564.1435 423.77146 576.64504 413.1531 580.94724 C 402.5347 585.2495 391.6888 579.72324 388.9281 568.604 C 386.1673 557.48477 392.53716 544.98324 403.15555 540.68104" fill="#999"/>
        <path d="M 403.15555 540.68104 C 413.7739 536.3788 424.6198 541.90504 427.38053 553.0243 C 430.1413 564.1435 423.77146 576.64504 413.1531 580.94724 C 402.5347 585.2495 391.6888 579.72324 388.9281 568.604 C 386.1673 557.48477 392.53716 544.98324 403.15555 540.68104" stroke="black" stroke-linecap="round" stroke-linejoin="round" stroke-width="6"/>
      </g>
      <g id="Graphic_135">
        <path d="M 396.81308 547.4669 C 404.8324 544.2177 413.02355 548.3913 415.10853 556.7889 C 417.19355 565.1865 412.38285 574.628 404.3635 577.8772 C 396.3442 581.1264 388.15305 576.9528 386.06806 568.5552 C 383.98304 560.1576 388.79374 550.7161 396.81308 547.4669" fill="#ccc"/>
        <path d="M 396.81308 547.4669 C 404.8324 544.2177 413.02355 548.3913 415.10853 556.7889 C 417.19355 565.1865 412.38285 574.628 404.3635 577.8772 C 396.3442 581.1264 388.15305 576.9528 386.06806 568.5552 C 383.98304 560.1576 388.79374 550.7161 396.81308 547.4669" stroke="black" stroke-linecap="round" stroke-linejoin="round" stroke-width="4"/>
      </g>
      <g id="Line_134">
        <line x1="400.27864" y1="563.1755" x2="413.6677" y2="555.8574" stroke="black" stroke-linecap="round" stroke-linejoin="round" stroke-width="7"/>
      </g>
      <g id="Graphic_133">
        <path d="M 466.2532 542.53895 C 476.8716 538.2367 487.7175 543.76295 490.4782 554.8822 C 493.239 566.0014 486.86914 578.50295 476.25075 582.80515 C 465.6324 587.1074 454.7865 581.58115 452.02577 570.4619 C 449.265 559.3427 455.63484 546.84115 466.2532 542.53895" fill="#999"/>
        <path d="M 466.2532 542.53895 C 476.8716 538.2367 487.7175 543.76295 490.4782 554.8822 C 493.239 566.0014 486.86914 578.50295 476.25075 582.80515 C 465.6324 587.1074 454.7865 581.58115 452.02577 570.4619 C 449.265 559.3427 455.63484 546.84115 466.2532 542.53895" stroke="black" stroke-linecap="round" stroke-linejoin="round" stroke-width="6"/>
      </g>
      <g id="Graphic_132">
        <path d="M 459.91075 549.2527 C 467.93007 546.0035 476.1212 550.1771 478.2062 558.5747 C 480.2912 566.97226 475.4805 576.4138 467.4612 579.66295 C 459.44187 582.91215 451.2507 578.73855 449.16574 570.34095 C 447.0807 561.9434 451.8914 552.50183 459.91075 549.2527" fill="#ccc"/>
        <path d="M 459.91075 549.2527 C 467.93007 546.0035 476.1212 550.1771 478.2062 558.5747 C 480.2912 566.97226 475.4805 576.4138 467.4612 579.66295 C 459.44187 582.91215 451.2507 578.73855 449.16574 570.34095 C 447.0807 561.9434 451.8914 552.50183 459.91075 549.2527" stroke="black" stroke-linecap="round" stroke-linejoin="round" stroke-width="4"/>
      </g>
      <g id="Line_131">
        <line x1="463.3763" y1="565.0334" x2="451.00807" y2="565.87554" stroke="black" stroke-linecap="round" stroke-linejoin="round" stroke-width="7"/>
      </g>
      <g id="Graphic_130">
        <path d="M 527.22564 544.8726 C 537.844 540.57034 548.6899 546.0966 551.4506 557.21584 C 554.2114 568.3351 547.84156 580.8366 537.2232 585.1388 C 526.6048 589.44105 515.7589 583.9148 512.9982 572.79555 C 510.2374 561.6763 516.60726 549.1748 527.22564 544.8726" fill="#999"/>
        <path d="M 527.22564 544.8726 C 537.844 540.57034 548.6899 546.0966 551.4506 557.21584 C 554.2114 568.3351 547.84156 580.8366 537.2232 585.1388 C 526.6048 589.44105 515.7589 583.9148 512.9982 572.79555 C 510.2374 561.6763 516.60726 549.1748 527.22564 544.8726" stroke="black" stroke-linecap="round" stroke-linejoin="round" stroke-width="6"/>
      </g>
      <g id="Graphic_129">
        <path d="M 520.88317 551.6585 C 528.9025 548.4093 537.09364 552.5829 539.1786 560.9805 C 541.26364 569.37805 536.45294 578.8196 528.4336 582.06874 C 520.4143 585.31794 512.22314 581.14434 510.13816 572.74674 C 508.05313 564.34916 512.86384 554.9076 520.88317 551.6585" fill="#ccc"/>
        <path d="M 520.88317 551.6585 C 528.9025 548.4093 537.09364 552.5829 539.1786 560.9805 C 541.26364 569.37805 536.45294 578.8196 528.4336 582.06874 C 520.4143 585.31794 512.22314 581.14434 510.13816 572.74674 C 508.05313 564.34916 512.86384 554.9076 520.88317 551.6585" stroke="black" stroke-linecap="round" stroke-linejoin="round" stroke-width="4"/>
      </g>
      <g id="Line_128">
        <line x1="524.34874" y1="567.36704" x2="537.7378" y2="560.04895" stroke="black" stroke-linecap="round" stroke-linejoin="round" stroke-width="7"/>
      </g>
      <g id="Graphic_127">
        <path d="M 590.3233 546.7305 C 600.9417 542.42825 611.7876 547.9545 614.5483 559.07375 C 617.3091 570.193 610.9392 582.6945 600.32084 586.9967 C 589.7025 591.29896 578.8566 585.7727 576.09586 574.65346 C 573.3351 563.53423 579.7049 551.0327 590.3233 546.7305" fill="#999"/>
        <path d="M 590.3233 546.7305 C 600.9417 542.42825 611.7876 547.9545 614.5483 559.07375 C 617.3091 570.193 610.9392 582.6945 600.32084 586.9967 C 589.7025 591.29896 578.8566 585.7727 576.09586 574.65346 C 573.3351 563.53423 579.7049 551.0327 590.3233 546.7305" stroke="black" stroke-linecap="round" stroke-linejoin="round" stroke-width="6"/>
      </g>
      <g id="Graphic_126">
        <path d="M 583.98084 553.44424 C 592.00016 550.19504 600.1913 554.36864 602.2763 562.76624 C 604.3613 571.1638 599.5506 580.60535 591.5313 583.8545 C 583.51196 587.1037 575.3208 582.9301 573.2358 574.5325 C 571.1508 566.1349 575.9615 556.6934 583.98084 553.44424" fill="#ccc"/>
        <path d="M 583.98084 553.44424 C 592.00016 550.19504 600.1913 554.36864 602.2763 562.76624 C 604.3613 571.1638 599.5506 580.60535 591.5313 583.8545 C 583.51196 587.1037 575.3208 582.9301 573.2358 574.5325 C 571.1508 566.1349 575.9615 556.6934 583.98084 553.44424" stroke="black" stroke-linecap="round" stroke-linejoin="round" stroke-width="4"/>
      </g>
      <g id="Line_125">
        <line x1="587.4464" y1="569.22495" x2="575.07816" y2="570.0671" stroke="black" stroke-linecap="round" stroke-linejoin="round" stroke-width="7"/>
      </g>
      <g id="Graphic_124">
        <path d="M 650.6817 546.7305 C 661.3001 542.42825 672.146 547.9545 674.9067 559.07375 C 677.6675 570.193 671.29765 582.6945 660.6793 586.9967 C 650.0609 591.29896 639.215 585.7727 636.4543 574.65346 C 633.6935 563.53423 640.06335 551.0327 650.6817 546.7305" fill="#999"/>
        <path d="M 650.6817 546.7305 C 661.3001 542.42825 672.146 547.9545 674.9067 559.07375 C 677.6675 570.193 671.29765 582.6945 660.6793 586.9967 C 650.0609 591.29896 639.215 585.7727 636.4543 574.65346 C 633.6935 563.53423 640.06335 551.0327 650.6817 546.7305" stroke="black" stroke-linecap="round" stroke-linejoin="round" stroke-width="6"/>
      </g>
      <g id="Graphic_123">
        <path d="M 644.3393 553.44424 C 652.3586 550.19504 660.5497 554.36864 662.6347 562.76624 C 664.71974 571.1638 659.909 580.60535 651.8897 583.8545 C 643.8704 587.1037 635.6792 582.9301 633.59425 574.5325 C 631.5092 566.1349 636.3199 556.6934 644.3393 553.44424" fill="#ccc"/>
        <path d="M 644.3393 553.44424 C 652.3586 550.19504 660.5497 554.36864 662.6347 562.76624 C 664.71974 571.1638 659.909 580.60535 651.8897 583.8545 C 643.8704 587.1037 635.6792 582.9301 633.59425 574.5325 C 631.5092 566.1349 636.3199 556.6934 644.3393 553.44424" stroke="black" stroke-linecap="round" stroke-linejoin="round" stroke-width="4"/>
      </g>
      <g id="Line_122">
        <line x1="647.8048" y1="569.22495" x2="659.5669" y2="561.7918" stroke="black" stroke-linecap="round" stroke-linejoin="round" stroke-width="7"/>
      </g>
    </g>
    <g id="cold: Layer 1">
      <title>Layer 1</title>
      <g id="Graphic_51">
        <ellipse cx="455.43807" cy="484.5975" rx="39.5992028045582" ry="20.2641737876906" fill="black"/>
        <ellipse cx="455.43807" cy="484.5975" rx="39.5992028045582" ry="20.2641737876906" stroke="black" stroke-linecap="round" stroke-linejoin="round" stroke-width="1"/>
      </g>
      <g id="Graphic_47">
        <circle cx="446.719" cy="480.3921" r="13.5603144097646" fill="black"/>
        <circle cx="446.719" cy="480.3921" r="13.5603144097646" stroke="black" stroke-linecap="round" stroke-linejoin="round" stroke-width="1"/>
      </g>
      <g id="Graphic_7">
        <path d="M 518.61796 53.883866 L 460.3941 490.0088 C 460.0287 492.74594 457.51357 494.6686 454.77643 494.3032 C 452.54 494.0046 450.7806 492.2452 450.48204 490.0088 L 392.2582 53.883866 C 391.89277 51.146726 393.81543 48.63161 396.55257 48.26619 C 396.7719 48.23691 396.99293 48.22222 397.2142 48.22222 L 513.66193 48.22222 C 516.42336 48.22222 518.66193 50.4608 518.66193 53.22222 C 518.66193 53.4435 518.64724 53.664534 518.61796 53.883866 Z" fill="aqua"/>
        <path d="M 518.61796 53.883866 L 460.3941 490.0088 C 460.0287 492.74594 457.51357 494.6686 454.77643 494.3032 C 452.54 494.0046 450.7806 492.2452 450.48204 490.0088 L 392.2582 53.883866 C 391.89277 51.146726 393.81543 48.63161 396.55257 48.26619 C 396.7719 48.23691 396.99293 48.22222 397.2142 48.22222 L 513.66193 48.22222 C 516.42336 48.22222 518.66193 50.4608 518.66193 53.22222 C 518.66193 53.4435 518.64724 53.664534 518.61796 53.883866 Z" stroke="black" stroke-linecap="round" stroke-linejoin="round" stroke-width="5"/>
      </g>
      <g id="Graphic_173">
        <path d="M 676.4808 205.45932 L 458.58785 488.3564 C 456.9028 490.54415 453.76333 490.95167 451.5756 489.26664 C 449.7881 487.88985 449.1441 485.4865 450.00375 483.4004 L 586.05335 153.251 C 587.10546 150.69786 590.0281 149.48104 592.5812 150.53315 C 592.7858 150.61745 592.9846 150.71525 593.1762 150.82589 L 675.0196 198.07818 C 677.41105 199.4589 678.2304 202.51684 676.8497 204.9083 C 676.7391 205.09994 676.6158 205.28402 676.4808 205.45932 Z" fill="#4040ff"/>
        <path d="M 676.4808 205.45932 L 458.58785 488.3564 C 456.9028 490.54415 453.76333 490.95167 451.5756 489.26664 C 449.7881 487.88985 449.1441 485.4865 450.00375 483.4004 L 586.05335 153.251 C 587.10546 150.69786 590.0281 149.48104 592.5812 150.53315 C 592.7858 150.61745 592.9846 150.71525 593.1762 150.82589 L 675.0196 198.07818 C 677.41105 199.4589 678.2304 202.51684 676.8497 204.9083 C 676.7391 205.09994 676.6158 205.28402 676.4808 205.45932 Z" stroke="black" stroke-linecap="round" stroke-linejoin="round" stroke-width="5"/>
      </g>
      <g id="Graphic_174">
        <path d="M 747.4586 278.39127 L 463.77097 495.25404 C 461.57713 496.9311 458.43915 496.51217 456.7621 494.31833 C 455.3918 492.5258 455.3918 490.03767 456.7621 488.24515 L 673.62486 204.55755 C 675.3019 202.3637 678.4399 201.94478 680.6337 203.62184 C 680.8095 203.75623 680.9762 203.90214 681.1327 204.0586 L 747.9575 270.88344 C 749.9101 272.83606 749.9101 276.0019 747.9575 277.9545 C 747.80105 278.11097 747.6344 278.25688 747.4586 278.39127 Z" fill="#2cc8ff"/>
        <path d="M 747.4586 278.39127 L 463.77097 495.25404 C 461.57713 496.9311 458.43915 496.51217 456.7621 494.31833 C 455.3918 492.5258 455.3918 490.03767 456.7621 488.24515 L 673.62486 204.55755 C 675.3019 202.3637 678.4399 201.94478 680.6337 203.62184 C 680.8095 203.75623 680.9762 203.90214 681.1327 204.0586 L 747.9575 270.88344 C 749.9101 272.83606 749.9101 276.0019 747.9575 277.9545 C 747.80105 278.11097 747.6344 278.25688 747.4586 278.39127 Z" stroke="black" stroke-linecap="round" stroke-linejoin="round" stroke-width="5"/>
      </g>
      <g id="Graphic_175">
        <path d="M 590.1374 156.35604 L 452.8881 486.0085 C 451.8267 488.5578 448.8997 489.764 446.3504 488.7026 C 444.26743 487.8354 443.02335 485.6806 443.3138 483.4431 L 489.27865 129.33102 C 489.6341 126.59257 492.1422 124.66078 494.8807 125.01623 C 495.1001 125.04472 495.3174 125.08774 495.53115 125.14501 L 586.8156 149.6046 C 589.4829 150.3193 591.0658 153.06099 590.3511 155.72832 C 590.2938 155.94206 590.22244 156.15176 590.1374 156.35604 Z" fill="#2cc8ff"/>
        <path d="M 590.1374 156.35604 L 452.8881 486.0085 C 451.8267 488.5578 448.8997 489.764 446.3504 488.7026 C 444.26743 487.8354 443.02335 485.6806 443.3138 483.4431 L 489.27865 129.33102 C 489.6341 126.59257 492.1422 124.66078 494.8807 125.01623 C 495.1001 125.04472 495.3174 125.08774 495.53115 125.14501 L 586.8156 149.6046 C 589.4829 150.3193 591.0658 153.06099 590.3511 155.72832 C 590.2938 155.94206 590.22244 156.15176 590.1374 156.35604 Z" stroke="black" stroke-linecap="round" stroke-linejoin="round" stroke-width="5"/>
      </g>
      <g id="Graphic_177">
        <path d="M 422.1622 130.88658 L 468.1271 484.99863 C 468.48254 487.7371 466.55074 490.2452 463.8123 490.60065 C 461.5748 490.8911 459.42 489.647 458.55276 487.56406 L 321.30348 157.9116 C 320.2421 155.3623 321.44828 152.43526 323.99758 151.37387 C 324.20186 151.28882 324.41156 151.21742 324.6253 151.16015 L 415.9097 126.70056 C 418.57704 125.98585 421.31873 127.56877 422.03344 130.2361 C 422.0907 130.44984 422.13373 130.66714 422.1622 130.88658 Z" fill="#2cc8ff"/>
        <path d="M 422.1622 130.88658 L 468.1271 484.99863 C 468.48254 487.7371 466.55074 490.2452 463.8123 490.60065 C 461.5748 490.8911 459.42 489.647 458.55276 487.56406 L 321.30348 157.9116 C 320.2421 155.3623 321.44828 152.43526 323.99758 151.37387 C 324.20186 151.28882 324.41156 151.21742 324.6253 151.16015 L 415.9097 126.70056 C 418.57704 125.98585 421.31873 127.56877 422.03344 130.2361 C 422.0907 130.44984 422.13373 130.66714 422.1622 130.88658 Z" stroke="black" stroke-linecap="round" stroke-linejoin="round" stroke-width="5"/>
      </g>
      <g id="Graphic_171">
        <path d="M 637.1379 87.36867 L 468.02053 493.56356 C 466.95914 496.11286 464.0321 497.31905 461.4828 496.25766 C 459.39986 495.39044 458.1558 493.23563 458.4462 490.99813 L 515.0837 54.664355 C 515.4392 51.925904 517.9473 49.99411 520.68574 50.34957 C 520.9052 50.37805 521.1225 50.42107 521.3362 50.47834 L 633.8161 80.61723 C 636.4834 81.33194 638.0663 84.07362 637.3516 86.74095 C 637.29435 86.95469 637.22295 87.16439 637.1379 87.36867 Z" fill="#c0c0ff"/>
        <path d="M 637.1379 87.36867 L 468.02053 493.56356 C 466.95914 496.11286 464.0321 497.31905 461.4828 496.25766 C 459.39986 495.39044 458.1558 493.23563 458.4462 490.99813 L 515.0837 54.664355 C 515.4392 51.925904 517.9473 49.99411 520.68574 50.34957 C 520.9052 50.37805 521.1225 50.42107 521.3362 50.47834 L 633.8161 80.61723 C 636.4834 81.33194 638.0663 84.07362 637.3516 86.74095 C 637.29435 86.95469 637.22295 87.16439 637.1379 87.36867 Z" stroke="black" stroke-linecap="round" stroke-linejoin="round" stroke-width="5"/>
      </g>
      <g id="Graphic_176">
        <path d="M 323.5124 155.88915 L 459.562 486.03854 C 460.6141 488.5917 459.3973 491.5143 456.84416 492.5664 C 454.75807 493.4261 452.3547 492.7821 450.9779 490.9946 L 233.08495 208.09747 C 231.39992 205.90975 231.80744 202.77026 233.99516 201.08523 C 234.17047 200.9502 234.35454 200.82697 234.54618 200.71633 L 316.38955 153.46404 C 318.781 152.08332 321.83896 152.9027 323.21967 155.29416 C 323.3303 155.4858 323.4281 155.68456 323.5124 155.88915 Z" fill="#4040ff"/>
        <path d="M 323.5124 155.88915 L 459.562 486.03854 C 460.6141 488.5917 459.3973 491.5143 456.84416 492.5664 C 454.75807 493.4261 452.3547 492.7821 450.9779 490.9946 L 233.08495 208.09747 C 231.39992 205.90975 231.80744 202.77026 233.99516 201.08523 C 234.17047 200.9502 234.35454 200.82697 234.54618 200.71633 L 316.38955 153.46404 C 318.781 152.08332 321.83896 152.9027 323.21967 155.29416 C 323.3303 155.4858 323.4281 155.68456 323.5124 155.88915 Z" stroke="black" stroke-linecap="round" stroke-linejoin="round" stroke-width="5"/>
      </g>
      <g id="Graphic_178">
        <path d="M 237.816 206.1131 L 454.6788 489.8007 C 456.35584 491.99454 455.9369 495.1325 453.7431 496.8096 C 451.95056 498.17987 449.4624 498.17987 447.6699 496.8096 L 163.9823 279.94682 C 161.78846 278.26976 161.36953 275.13178 163.04659 272.93794 C 163.18097 272.76214 163.32688 272.59546 163.48335 272.439 L 230.30818 205.61416 C 232.2608 203.66154 235.42663 203.66154 237.37925 205.61416 C 237.53572 205.77063 237.68162 205.9373 237.816 206.1131 Z" fill="#2cc8ff"/>
        <path d="M 237.816 206.1131 L 454.6788 489.8007 C 456.35584 491.99454 455.9369 495.1325 453.7431 496.8096 C 451.95056 498.17987 449.4624 498.17987 447.6699 496.8096 L 163.9823 279.94682 C 161.78846 278.26976 161.36953 275.13178 163.04659 272.93794 C 163.18097 272.76214 163.32688 272.59546 163.48335 272.439 L 230.30818 205.61416 C 232.2608 203.66154 235.42663 203.66154 237.37925 205.61416 C 237.53572 205.77063 237.68162 205.9373 237.816 206.1131 Z" stroke="black" stroke-linecap="round" stroke-linejoin="round" stroke-width="5"/>
      </g>
      <g id="Graphic_172">
        <path d="M 398.4061 54.664355 L 455.04363 490.99813 C 455.3991 493.7366 453.4673 496.2447 450.72884 496.60015 C 448.49134 496.8906 446.33654 495.6465 445.4693 493.56356 L 276.35195 87.36867 C 275.29056 84.81938 276.49675 81.89234 279.04604 80.83095 C 279.25032 80.7459 279.46002 80.6745 279.67376 80.61723 L 392.15362 50.47834 C 394.82095 49.76363 397.56264 51.346545 398.27735 54.013876 C 398.3346 54.227614 398.37764 54.44492 398.4061 54.664355 Z" fill="#c0c0ff"/>
        <path d="M 398.4061 54.664355 L 455.04363 490.99813 C 455.3991 493.7366 453.4673 496.2447 450.72884 496.60015 C 448.49134 496.8906 446.33654 495.6465 445.4693 493.56356 L 276.35195 87.36867 C 275.29056 84.81938 276.49675 81.89234 279.04604 80.83095 C 279.25032 80.7459 279.46002 80.6745 279.67376 80.61723 L 392.15362 50.47834 C 394.82095 49.76363 397.56264 51.346545 398.27735 54.013876 C 398.3346 54.227614 398.37764 54.44492 398.4061 54.664355 Z" stroke="black" stroke-linecap="round" stroke-linejoin="round" stroke-width="5"/>
      </g>
    </g>
  </g>
</svg>
