<?xml version="1.0" encoding="UTF-8" standalone="no"?>
<!DOCTYPE svg PUBLIC "-//W3C//DTD SVG 1.1//EN" "http://www.w3.org/Graphics/SVG/1.1/DTD/svg11.dtd">
<svg xmlns:xl="http://www.w3.org/1999/xlink" xmlns:dc="http://purl.org/dc/elements/1.1/" xmlns="http://www.w3.org/2000/svg" version="1.1" viewBox="0 0 850.394 850.394" width="850.394" height="850.394">
  <defs/>
  <metadata> Produced by OmniGraffle 7.9.4 
    <dc:date>2019-04-08 19:46:41 +0000</dc:date>
  </metadata>
  <g id="Concrete" stroke="none" fill="none" stroke-dasharray="none" stroke-opacity="1" fill-opacity="1">
    <title>Concrete</title>
    <g id="Concrete: Layer 1">
      <title>Layer 1</title>
      <g id="Graphic_49">
        <circle cx="124.26279" cy="568.7129" r="13.0590742158926" fill="#666"/>
        <circle cx="124.26279" cy="568.7129" r="13.0590742158926" stroke="black" stroke-linecap="round" stroke-linejoin="round" stroke-width="4"/>
      </g>
      <g id="Graphic_50">
        <circle cx="191.70373" cy="568.7129" r="13.0590742158926" fill="#666"/>
        <circle cx="191.70373" cy="568.7129" r="13.0590742158926" stroke="black" stroke-linecap="round" stroke-linejoin="round" stroke-width="4"/>
      </g>
      <g id="Graphic_21">
        <rect x="356.62225" y="411.8939" width="75.06714" height="161.10608" fill="#333"/>
        <rect x="356.62225" y="411.8939" width="75.06714" height="161.10608" stroke="black" stroke-linecap="round" stroke-linejoin="round" stroke-width="7"/>
      </g>
      <g id="Graphic_45">
        <rect x="368.0925" y="446.3183" width="26.118107" height="28.916475" fill="yellow"/>
        <rect x="368.0925" y="446.3183" width="26.118107" height="28.916475" stroke="black" stroke-linecap="round" stroke-linejoin="round" stroke-width="4"/>
      </g>
      <g id="Graphic_46">
        <rect x="368.0925" y="509.65915" width="26.118107" height="28.916475" fill="yellow"/>
        <rect x="368.0925" y="509.65915" width="26.118107" height="28.916475" stroke="black" stroke-linecap="round" stroke-linejoin="round" stroke-width="4"/>
      </g>
      <g id="Graphic_19">
        <rect x="187.25433" y="322.39055" width="75.06714" height="250.60945" fill="#333"/>
        <rect x="187.25433" y="322.39055" width="75.06714" height="250.60945" stroke="black" stroke-linecap="round" stroke-linejoin="round" stroke-width="7"/>
      </g>
      <g id="Graphic_17">
        <rect x="60.572624" y="296.22802" width="75.06714" height="276.77198" fill="#666"/>
        <rect x="60.572624" y="296.22802" width="75.06714" height="276.77198" stroke="black" stroke-linecap="round" stroke-linejoin="round" stroke-width="7"/>
      </g>
      <g id="Graphic_18">
        <rect x="153.6366" y="411.8939" width="75.06714" height="161.10608" fill="#666"/>
        <rect x="153.6366" y="411.8939" width="75.06714" height="161.10608" stroke="black" stroke-linecap="round" stroke-linejoin="round" stroke-width="7"/>
      </g>
      <g id="Graphic_20">
        <rect x="286.96686" y="322.39055" width="75.06714" height="250.60945" fill="#333"/>
        <rect x="286.96686" y="322.39055" width="75.06714" height="250.60945" stroke="black" stroke-linecap="round" stroke-linejoin="round" stroke-width="7"/>
      </g>
      <g id="Graphic_23">
        <rect x="60.572624" y="338.91425" width="26.118107" height="28.916475" fill="yellow"/>
        <rect x="60.572624" y="338.91425" width="26.118107" height="28.916475" stroke="black" stroke-linecap="round" stroke-linejoin="round" stroke-width="4"/>
      </g>
      <g id="Graphic_24">
        <rect x="60" y="377.46955" width="26.118107" height="28.916475" fill="yellow"/>
        <rect x="60" y="377.46955" width="26.118107" height="28.916475" stroke="black" stroke-linecap="round" stroke-linejoin="round" stroke-width="4"/>
      </g>
      <g id="Graphic_25">
        <rect x="60" y="433.23704" width="26.118107" height="28.916475" fill="yellow"/>
        <rect x="60" y="433.23704" width="26.118107" height="28.916475" stroke="black" stroke-linecap="round" stroke-linejoin="round" stroke-width="4"/>
      </g>
      <g id="Graphic_26">
        <rect x="92.24305" y="433.23704" width="26.118107" height="28.916475" fill="yellow"/>
        <rect x="92.24305" y="433.23704" width="26.118107" height="28.916475" stroke="black" stroke-linecap="round" stroke-linejoin="round" stroke-width="4"/>
      </g>
      <g id="Graphic_27">
        <rect x="92.24305" y="377.46955" width="26.118107" height="28.916475" fill="yellow"/>
        <rect x="92.24305" y="377.46955" width="26.118107" height="28.916475" stroke="black" stroke-linecap="round" stroke-linejoin="round" stroke-width="4"/>
      </g>
      <g id="Graphic_28">
        <rect x="92.24305" y="495.2009" width="26.118107" height="28.916475" fill="yellow"/>
        <rect x="92.24305" y="495.2009" width="26.118107" height="28.916475" stroke="black" stroke-linecap="round" stroke-linejoin="round" stroke-width="4"/>
      </g>
      <g id="Graphic_29">
        <rect x="92.24305" y="495.2009" width="26.118107" height="28.916475" fill="yellow"/>
        <rect x="92.24305" y="495.2009" width="26.118107" height="28.916475" stroke="black" stroke-linecap="round" stroke-linejoin="round" stroke-width="4"/>
      </g>
      <g id="Graphic_30">
        <rect x="153.6366" y="446.3183" width="26.118107" height="28.916475" fill="yellow"/>
        <rect x="153.6366" y="446.3183" width="26.118107" height="28.916475" stroke="black" stroke-linecap="round" stroke-linejoin="round" stroke-width="4"/>
      </g>
      <g id="Graphic_31">
        <rect x="198.24426" y="509.65915" width="26.118107" height="28.916475" fill="yellow"/>
        <rect x="198.24426" y="509.65915" width="26.118107" height="28.916475" stroke="black" stroke-linecap="round" stroke-linejoin="round" stroke-width="4"/>
      </g>
      <g id="Graphic_32">
        <rect x="199.6471" y="446.3183" width="26.118107" height="28.916475" fill="yellow"/>
        <rect x="199.6471" y="446.3183" width="26.118107" height="28.916475" stroke="black" stroke-linecap="round" stroke-linejoin="round" stroke-width="4"/>
      </g>
      <g id="Graphic_33">
        <rect x="198.24426" y="354.06097" width="26.118107" height="28.916475" fill="yellow"/>
        <rect x="198.24426" y="354.06097" width="26.118107" height="28.916475" stroke="black" stroke-linecap="round" stroke-linejoin="round" stroke-width="4"/>
      </g>
      <g id="Graphic_34">
        <rect x="198.24426" y="354.06097" width="26.118107" height="28.916475" fill="yellow"/>
        <rect x="198.24426" y="354.06097" width="26.118107" height="28.916475" stroke="black" stroke-linecap="round" stroke-linejoin="round" stroke-width="4"/>
      </g>
      <g id="Graphic_35">
        <rect x="290.34517" y="333.40635" width="26.118107" height="28.916475" fill="yellow"/>
        <rect x="290.34517" y="333.40635" width="26.118107" height="28.916475" stroke="black" stroke-linecap="round" stroke-linejoin="round" stroke-width="4"/>
      </g>
      <g id="Graphic_36">
        <rect x="289.77255" y="371.96165" width="26.118107" height="28.916475" fill="yellow"/>
        <rect x="289.77255" y="371.96165" width="26.118107" height="28.916475" stroke="black" stroke-linecap="round" stroke-linejoin="round" stroke-width="4"/>
      </g>
      <g id="Graphic_37">
        <rect x="289.77255" y="427.72914" width="26.118107" height="28.916475" fill="yellow"/>
        <rect x="289.77255" y="427.72914" width="26.118107" height="28.916475" stroke="black" stroke-linecap="round" stroke-linejoin="round" stroke-width="4"/>
      </g>
      <g id="Graphic_38">
        <rect x="322.0156" y="427.72914" width="26.118107" height="28.916475" fill="yellow"/>
        <rect x="322.0156" y="427.72914" width="26.118107" height="28.916475" stroke="black" stroke-linecap="round" stroke-linejoin="round" stroke-width="4"/>
      </g>
      <g id="Graphic_39">
        <rect x="322.0156" y="371.96165" width="26.118107" height="28.916475" fill="yellow"/>
        <rect x="322.0156" y="371.96165" width="26.118107" height="28.916475" stroke="black" stroke-linecap="round" stroke-linejoin="round" stroke-width="4"/>
      </g>
      <g id="Graphic_40">
        <rect x="322.0156" y="489.693" width="26.118107" height="28.916475" fill="yellow"/>
        <rect x="322.0156" y="489.693" width="26.118107" height="28.916475" stroke="black" stroke-linecap="round" stroke-linejoin="round" stroke-width="4"/>
      </g>
      <g id="Graphic_22">
        <rect x="307.05115" y="446.3183" width="75.06714" height="126.6817" fill="#666"/>
        <rect x="307.05115" y="446.3183" width="75.06714" height="126.6817" stroke="black" stroke-linecap="round" stroke-linejoin="round" stroke-width="7"/>
      </g>
      <g id="Graphic_41">
        <rect x="322.0156" y="489.693" width="26.118107" height="28.916475" fill="yellow"/>
        <rect x="322.0156" y="489.693" width="26.118107" height="28.916475" stroke="black" stroke-linecap="round" stroke-linejoin="round" stroke-width="4"/>
      </g>
      <g id="Graphic_42">
        <rect x="322.0156" y="333.40635" width="26.118107" height="28.916475" fill="yellow"/>
        <rect x="322.0156" y="333.40635" width="26.118107" height="28.916475" stroke="black" stroke-linecap="round" stroke-linejoin="round" stroke-width="4"/>
      </g>
      <g id="Graphic_44">
        <rect x="398.8663" y="509.65915" width="26.118107" height="28.916475" fill="yellow"/>
        <rect x="398.8663" y="509.65915" width="26.118107" height="28.916475" stroke="black" stroke-linecap="round" stroke-linejoin="round" stroke-width="4"/>
      </g>
      <g id="Graphic_43">
        <rect x="400.26915" y="446.3183" width="26.118107" height="28.916475" fill="yellow"/>
        <rect x="400.26915" y="446.3183" width="26.118107" height="28.916475" stroke="black" stroke-linecap="round" stroke-linejoin="round" stroke-width="4"/>
      </g>
      <g id="Graphic_10">
        <circle cx="611.7132" cy="611.0323" r="50.8475096729168" fill="#a5a5a5"/>
        <circle cx="611.7132" cy="611.0323" r="50.8475096729168" stroke="black" stroke-linecap="round" stroke-linejoin="round" stroke-width="18"/>
      </g>
      <g id="Graphic_9">
        <path d="M 664.0122 614.9468 L 744.2863 721.0494 C 750.6859 727.449 752.1875 727.2365 738.4161 741.0079 C 724.6448 754.7792 725.4443 749.1685 719.0447 742.7689 L 614.1161 664.8429 C 607.71646 658.4433 613.6993 642.07266 627.4706 628.3013 C 641.242 614.53 657.6126 608.54716 664.0122 614.9468 Z" fill="#666"/>
        <path d="M 664.0122 614.9468 L 744.2863 721.0494 C 750.6859 727.449 752.1875 727.2365 738.4161 741.0079 C 724.6448 754.7792 725.4443 749.1685 719.0447 742.7689 L 614.1161 664.8429 C 607.71646 658.4433 613.6993 642.07266 627.4706 628.3013 C 641.242 614.53 657.6126 608.54716 664.0122 614.9468 Z" stroke="black" stroke-linecap="round" stroke-linejoin="round" stroke-width="7"/>
      </g>
      <g id="Line_8">
        <path d="M 741.9014 738.6063 L 757.02665 763.6983 L 790.8716 774.2019 L 811.8789 790.5409" stroke="black" stroke-linecap="round" stroke-linejoin="round" stroke-width="17"/>
      </g>
      <g id="Graphic_5">
        <path d="M 572.37227 568.0951 L 569.1291 564.99557 C 569.1291 564.99557 563.1832 549.19054 563.1832 548.7796 C 563.1832 548.3687 557.2374 545.53644 557.2374 545.53644 L 552.3726 555.8065 C 552.3726 555.8065 548.1527 525.36 547.7885 534.81103 C 547.4243 544.2621 541.4149 555.35676 541.4149 555.35676 C 541.4149 555.35676 537.2266 543.0293 537.2266 541.38567 C 537.2266 539.742 537.5908 527.8255 537.2266 522.8945 C 536.86237 517.96353 534.49504 506.4579 533.76663 506.047 C 533.0382 505.6361 527.21096 501.93786 527.02886 502.3488 C 526.84676 502.7597 525.57204 500.7051 525.38994 505.2252 C 525.20784 509.74524 521.0195 539.3311 521.0195 540.1529 C 521.0195 540.97475 523.0226 567.2733 518.28796 553.7131 C 513.5533 540.1529 513.007 535.22195 513.007 535.22195 C 513.007 535.22195 515.1922 513.03256 514.828 502.3488 C 514.4638 491.665 504.8124 476.46116 504.6303 476.46116 C 504.4482 476.46116 498.98514 477.6939 498.80304 478.51573 C 498.62094 479.33756 494.6147 509.3343 494.6147 514.6762 C 494.6147 520.0181 491.88316 540.97475 491.70106 547.5494 C 491.51896 554.124 489.51584 554.124 488.7874 554.124 C 488.059 554.124 484.7812 538.50926 484.5991 538.50926 C 484.417 538.50926 482.04965 532.34554 481.86755 532.34554 C 481.68545 532.34554 475.6761 530.291 475.6761 530.291 L 473.30875 531.9346 L 473.3884 487.2718 L 479.3181 533.1674 C 479.3181 533.1674 481.68545 538.09835 481.86755 538.09835 C 482.04965 538.09835 483.8707 546.31664 483.8707 546.31664 L 486.0559 555.35676 L 490.24424 559.055 C 490.24424 559.055 493.8863 554.53493 493.8863 554.124 C 493.8863 553.7131 494.0684 538.09835 494.0684 538.09835 L 496.4357 519.6072 C 496.4357 519.6072 497.7104 508.9234 497.89253 508.1016 C 498.07463 507.27975 499.89565 491.2541 499.89565 490.84317 C 499.89565 490.43225 502.0809 485.5013 502.263 485.09036 C 502.4451 484.67945 505.7229 485.9122 505.7229 485.9122 L 510.09337 493.30866 L 512.2786 502.3488 L 512.2786 510.978 C 512.2786 510.978 511.0039 522.4836 510.8218 522.4836 C 510.6397 522.4836 510.6397 538.50926 510.6397 538.50926 C 510.6397 538.50926 511.0039 544.2621 511.3681 544.673 C 511.7323 545.0839 514.828 554.94585 514.828 555.35676 C 514.828 555.7677 518.28796 563.16414 518.47006 563.16414 C 518.65216 563.16414 520.6553 563.16414 520.6553 563.16414 L 523.751 561.1096 L 524.4794 545.0839 C 524.4794 545.0839 524.84363 537.2765 524.84363 536.8656 C 524.84363 536.4547 526.84676 522.0727 526.84676 522.0727 L 529.2141 507.27975 L 531.2172 511.7998 C 531.2172 511.7998 533.2203 523.3054 533.4024 523.3054 C 533.5845 523.3054 534.31294 531.1128 534.31294 531.5237 C 534.31294 531.9346 534.31294 545.4948 534.31294 545.4948 L 535.95186 553.7131 L 539.5939 563.16414 L 543.05384 565.6296 C 543.05384 565.6296 545.78537 555.35676 546.1496 555.35676 C 546.5138 555.35676 550.3379 544.2621 550.3379 544.2621 L 552.52314 536.0438 L 553.61576 524.53817 L 559.94005 554.7255 L 559.94005 555.8065 L 558.31845 557.4281 C 558.31845 557.4281 559.75794 557.0172 559.94005 557.4281 C 560.12215 557.83904 558.13635 551.4823 558.31845 551.4823 C 558.50055 551.4823 572.37227 568.0951 572.37227 568.0951 Z" fill="red"/>
        <path d="M 572.37227 568.0951 L 569.1291 564.99557 C 569.1291 564.99557 563.1832 549.19054 563.1832 548.7796 C 563.1832 548.3687 557.2374 545.53644 557.2374 545.53644 L 552.3726 555.8065 C 552.3726 555.8065 548.1527 525.36 547.7885 534.81103 C 547.4243 544.2621 541.4149 555.35676 541.4149 555.35676 C 541.4149 555.35676 537.2266 543.0293 537.2266 541.38567 C 537.2266 539.742 537.5908 527.8255 537.2266 522.8945 C 536.86237 517.96353 534.49504 506.4579 533.76663 506.047 C 533.0382 505.6361 527.21096 501.93786 527.02886 502.3488 C 526.84676 502.7597 525.57204 500.7051 525.38994 505.2252 C 525.20784 509.74524 521.0195 539.3311 521.0195 540.1529 C 521.0195 540.97475 523.0226 567.2733 518.28796 553.7131 C 513.5533 540.1529 513.007 535.22195 513.007 535.22195 C 513.007 535.22195 515.1922 513.03256 514.828 502.3488 C 514.4638 491.665 504.8124 476.46116 504.6303 476.46116 C 504.4482 476.46116 498.98514 477.6939 498.80304 478.51573 C 498.62094 479.33756 494.6147 509.3343 494.6147 514.6762 C 494.6147 520.0181 491.88316 540.97475 491.70106 547.5494 C 491.51896 554.124 489.51584 554.124 488.7874 554.124 C 488.059 554.124 484.7812 538.50926 484.5991 538.50926 C 484.417 538.50926 482.04965 532.34554 481.86755 532.34554 C 481.68545 532.34554 475.6761 530.291 475.6761 530.291 L 473.30875 531.9346 L 473.3884 487.2718 L 479.3181 533.1674 C 479.3181 533.1674 481.68545 538.09835 481.86755 538.09835 C 482.04965 538.09835 483.8707 546.31664 483.8707 546.31664 L 486.0559 555.35676 L 490.24424 559.055 C 490.24424 559.055 493.8863 554.53493 493.8863 554.124 C 493.8863 553.7131 494.0684 538.09835 494.0684 538.09835 L 496.4357 519.6072 C 496.4357 519.6072 497.7104 508.9234 497.89253 508.1016 C 498.07463 507.27975 499.89565 491.2541 499.89565 490.84317 C 499.89565 490.43225 502.0809 485.5013 502.263 485.09036 C 502.4451 484.67945 505.7229 485.9122 505.7229 485.9122 L 510.09337 493.30866 L 512.2786 502.3488 L 512.2786 510.978 C 512.2786 510.978 511.0039 522.4836 510.8218 522.4836 C 510.6397 522.4836 510.6397 538.50926 510.6397 538.50926 C 510.6397 538.50926 511.0039 544.2621 511.3681 544.673 C 511.7323 545.0839 514.828 554.94585 514.828 555.35676 C 514.828 555.7677 518.28796 563.16414 518.47006 563.16414 C 518.65216 563.16414 520.6553 563.16414 520.6553 563.16414 L 523.751 561.1096 L 524.4794 545.0839 C 524.4794 545.0839 524.84363 537.2765 524.84363 536.8656 C 524.84363 536.4547 526.84676 522.0727 526.84676 522.0727 L 529.2141 507.27975 L 531.2172 511.7998 C 531.2172 511.7998 533.2203 523.3054 533.4024 523.3054 C 533.5845 523.3054 534.31294 531.1128 534.31294 531.5237 C 534.31294 531.9346 534.31294 545.4948 534.31294 545.4948 L 535.95186 553.7131 L 539.5939 563.16414 L 543.05384 565.6296 C 543.05384 565.6296 545.78537 555.35676 546.1496 555.35676 C 546.5138 555.35676 550.3379 544.2621 550.3379 544.2621 L 552.52314 536.0438 L 553.61576 524.53817 L 559.94005 554.7255 L 559.94005 555.8065 L 558.31845 557.4281 C 558.31845 557.4281 559.75794 557.0172 559.94005 557.4281 C 560.12215 557.83904 558.13635 551.4823 558.31845 551.4823 C 558.50055 551.4823 572.37227 568.0951 572.37227 568.0951 Z" stroke="#ff0029" stroke-linecap="round" stroke-linejoin="round" stroke-width="5"/>
      </g>
      <g id="Graphic_4">
        <path d="M 298.77078 516.26755 L 309.85514 497.04906 C 309.85514 497.04906 314.5818 444.19773 314.5818 443.3313 C 314.5818 442.4649 319.94414 336.89135 319.94414 336.89135 L 321.8866 456.32755 C 321.8866 456.32755 325.18093 483.1864 325.4674 503.114 C 325.75386 523.0415 330.4805 546.43473 330.4805 546.43473 C 330.4805 546.43473 333.77483 520.4423 333.77483 516.9766 C 333.77483 513.51095 333.48837 488.3849 333.77483 477.9879 C 334.0613 467.59094 335.9233 443.3313 336.49624 442.4649 C 337.06916 441.5985 339.26003 378.18638 339.40327 379.0528 C 339.5465 379.9192 342.94166 431.2015 343.0849 440.73207 C 343.22813 450.26264 346.52246 512.64454 346.52246 514.37737 C 346.52246 516.1102 344.9469 571.5608 348.67093 542.9691 C 352.39496 514.37737 352.82465 503.9804 352.82465 503.9804 C 352.82465 503.9804 351.10587 457.19396 351.39233 434.66716 C 351.6788 412.14037 360.34076 422.2953 360.484 422.2953 C 360.6272 422.2953 364.665 423.80565 364.80824 425.5385 C 364.95147 427.2713 367.29105 449.3962 367.29105 460.6596 C 367.29105 471.923 369.43953 516.1102 369.58276 529.97284 C 369.726 543.8355 371.30154 543.8355 371.87447 543.8355 C 372.4474 543.8355 375.02557 510.9117 375.1688 510.9117 C 375.31203 510.9117 377.17404 497.9155 377.31727 497.9155 C 377.4605 497.9155 382.18715 493.5834 382.18715 493.5834 L 384.04916 497.04906 L 382.61685 499.6483 L 379.3225 499.6483 C 379.3225 499.6483 377.4605 510.0453 377.31727 510.0453 C 377.17404 510.0453 375.74172 527.3736 375.74172 527.3736 L 374.02294 546.43473 L 370.7286 554.2325 C 370.7286 554.2325 367.864 544.7019 367.864 543.8355 C 367.864 542.9691 367.72075 510.0453 367.72075 510.0453 L 365.85874 471.0566 C 365.85874 471.0566 364.8561 448.5298 364.7129 446.797 C 364.56965 445.06415 363.18664 421.5401 363.18664 420.6737 C 363.18664 419.8073 360.6272 432.35074 360.484 431.48433 C 360.34076 430.6179 357.2408 414.72786 357.2408 414.72786 L 355.11636 415.60603 L 353.39758 434.66716 L 353.39758 452.8619 C 353.39758 452.8619 354.4002 477.1215 354.54343 477.1215 C 354.68666 477.1215 354.68666 510.9117 354.68666 510.9117 C 354.68666 510.9117 354.4002 523.0415 354.11374 523.90794 C 353.82727 524.77435 351.39233 545.5683 351.39233 546.43473 C 351.39233 547.30115 348.67093 562.8966 348.5277 562.8966 C 348.38447 562.8966 346.8089 562.8966 346.8089 562.8966 L 344.374 558.56455 L 343.80105 524.77435 C 343.80105 524.77435 343.5146 508.31246 343.5146 507.44605 C 343.5146 506.57963 341.93904 476.2551 341.93904 476.2551 L 339.40327 395.26873 L 339.40327 389.3229 C 339.40327 389.3229 336.92593 478.85434 336.7827 478.85434 C 336.63947 478.85434 336.06654 495.31623 336.06654 496.18265 C 336.06654 497.04906 336.06654 525.64077 336.06654 525.64077 L 334.77746 542.9691 L 331.91282 562.8966 L 329.1914 568.0951 C 329.1914 568.0951 327.04294 546.43473 326.75648 546.43473 C 326.47 546.43473 323.46215 523.0415 323.46215 523.0415 L 321.74337 505.7132 L 320.88398 481.4536 L 319.94414 357.97207 L 318.32254 354.7289 L 316.8735 443.3313 C 316.8735 443.3313 316.58703 461.52604 316.4438 462.39245 C 316.30056 463.25887 314.00886 491.8506 313.86563 491.8506 C 313.7224 491.8506 298.77078 516.26755 298.77078 516.26755 Z" fill="red"/>
        <path d="M 298.77078 516.26755 L 309.85514 497.04906 C 309.85514 497.04906 314.5818 444.19773 314.5818 443.3313 C 314.5818 442.4649 319.94414 336.89135 319.94414 336.89135 L 321.8866 456.32755 C 321.8866 456.32755 325.18093 483.1864 325.4674 503.114 C 325.75386 523.0415 330.4805 546.43473 330.4805 546.43473 C 330.4805 546.43473 333.77483 520.4423 333.77483 516.9766 C 333.77483 513.51095 333.48837 488.3849 333.77483 477.9879 C 334.0613 467.59094 335.9233 443.3313 336.49624 442.4649 C 337.06916 441.5985 339.26003 378.18638 339.40327 379.0528 C 339.5465 379.9192 342.94166 431.2015 343.0849 440.73207 C 343.22813 450.26264 346.52246 512.64454 346.52246 514.37737 C 346.52246 516.1102 344.9469 571.5608 348.67093 542.9691 C 352.39496 514.37737 352.82465 503.9804 352.82465 503.9804 C 352.82465 503.9804 351.10587 457.19396 351.39233 434.66716 C 351.6788 412.14037 360.34076 422.2953 360.484 422.2953 C 360.6272 422.2953 364.665 423.80565 364.80824 425.5385 C 364.95147 427.2713 367.29105 449.3962 367.29105 460.6596 C 367.29105 471.923 369.43953 516.1102 369.58276 529.97284 C 369.726 543.8355 371.30154 543.8355 371.87447 543.8355 C 372.4474 543.8355 375.02557 510.9117 375.1688 510.9117 C 375.31203 510.9117 377.17404 497.9155 377.31727 497.9155 C 377.4605 497.9155 382.18715 493.5834 382.18715 493.5834 L 384.04916 497.04906 L 382.61685 499.6483 L 379.3225 499.6483 C 379.3225 499.6483 377.4605 510.0453 377.31727 510.0453 C 377.17404 510.0453 375.74172 527.3736 375.74172 527.3736 L 374.02294 546.43473 L 370.7286 554.2325 C 370.7286 554.2325 367.864 544.7019 367.864 543.8355 C 367.864 542.9691 367.72075 510.0453 367.72075 510.0453 L 365.85874 471.0566 C 365.85874 471.0566 364.8561 448.5298 364.7129 446.797 C 364.56965 445.06415 363.18664 421.5401 363.18664 420.6737 C 363.18664 419.8073 360.6272 432.35074 360.484 431.48433 C 360.34076 430.6179 357.2408 414.72786 357.2408 414.72786 L 355.11636 415.60603 L 353.39758 434.66716 L 353.39758 452.8619 C 353.39758 452.8619 354.4002 477.1215 354.54343 477.1215 C 354.68666 477.1215 354.68666 510.9117 354.68666 510.9117 C 354.68666 510.9117 354.4002 523.0415 354.11374 523.90794 C 353.82727 524.77435 351.39233 545.5683 351.39233 546.43473 C 351.39233 547.30115 348.67093 562.8966 348.5277 562.8966 C 348.38447 562.8966 346.8089 562.8966 346.8089 562.8966 L 344.374 558.56455 L 343.80105 524.77435 C 343.80105 524.77435 343.5146 508.31246 343.5146 507.44605 C 343.5146 506.57963 341.93904 476.2551 341.93904 476.2551 L 339.40327 395.26873 L 339.40327 389.3229 C 339.40327 389.3229 336.92593 478.85434 336.7827 478.85434 C 336.63947 478.85434 336.06654 495.31623 336.06654 496.18265 C 336.06654 497.04906 336.06654 525.64077 336.06654 525.64077 L 334.77746 542.9691 L 331.91282 562.8966 L 329.1914 568.0951 C 329.1914 568.0951 327.04294 546.43473 326.75648 546.43473 C 326.47 546.43473 323.46215 523.0415 323.46215 523.0415 L 321.74337 505.7132 L 320.88398 481.4536 L 319.94414 357.97207 L 318.32254 354.7289 L 316.8735 443.3313 C 316.8735 443.3313 316.58703 461.52604 316.4438 462.39245 C 316.30056 463.25887 314.00886 491.8506 313.86563 491.8506 C 313.7224 491.8506 298.77078 516.26755 298.77078 516.26755 Z" stroke="#ff0029" stroke-linecap="round" stroke-linejoin="round" stroke-width="5"/>
      </g>
      <g id="Graphic_3">
        <path d="M 383.54155 494.22456 L 401.47864 492.3772 C 401.47864 492.3772 406.2053 439.52587 406.2053 438.65946 C 406.2053 437.79304 409.67234 422.2953 409.67234 422.2953 L 413.5101 451.6557 C 413.5101 451.6557 416.80443 478.51456 417.0909 498.4421 C 417.37736 518.36966 422.104 541.7629 422.104 541.7629 C 422.104 541.7629 425.39834 515.7704 425.39834 512.30476 C 425.39834 508.8391 425.11187 483.71305 425.39834 473.31607 C 425.6848 462.9191 427.5468 438.65946 428.11974 437.79304 C 428.69267 436.92663 433.2761 429.1289 433.4193 429.9953 C 433.56254 430.8617 434.56517 426.52964 434.7084 436.0602 C 434.85163 445.5908 438.14596 507.9727 438.14596 509.7055 C 438.14596 511.43834 436.5704 566.8889 440.29444 538.2972 C 444.01846 509.7055 444.44815 499.3085 444.44815 499.3085 C 444.44815 499.3085 443.9799 471.84866 444.26634 449.32186 C 444.5528 426.79507 454.93374 435.8086 455.07697 435.8086 C 455.2202 435.8086 456.55533 441.6432 456.69856 443.376 C 456.8418 445.10885 458.91456 444.72436 458.91456 455.98776 C 458.91456 467.25116 461.06303 511.43834 461.20626 525.301 C 461.3495 539.1636 462.92504 539.1636 463.49797 539.1636 C 464.0709 539.1636 466.64907 506.23985 466.7923 506.23985 C 466.93553 506.23985 468.79754 493.2436 468.9408 493.2436 C 469.084 493.2436 473.81065 488.91154 473.81065 488.91154 L 475.67267 492.3772 L 474.24035 494.97645 L 470.946 494.97645 C 470.946 494.97645 469.084 505.37343 468.9408 505.37343 C 468.79754 505.37343 467.36523 522.70174 467.36523 522.70174 L 465.64645 541.7629 L 462.3521 549.5606 C 462.3521 549.5606 459.4875 540.03004 459.4875 539.1636 C 459.4875 538.2972 459.34425 505.37343 459.34425 505.37343 L 457.48224 466.38475 C 457.48224 466.38475 456.4796 443.85795 456.3364 442.1251 C 456.19315 440.3923 456.69856 456.1341 456.69856 455.2677 C 456.69856 454.4013 457.92286 475.59325 457.7796 474.72683 C 457.6364 473.8604 450.2122 441.7544 450.2122 441.7544 L 451.8338 434.187 L 447.50953 449.32186 L 445.0211 448.19 C 445.0211 448.19 446.0237 472.44965 446.16694 472.44965 C 446.31017 472.44965 446.31017 506.23985 446.31017 506.23985 C 446.31017 506.23985 446.0237 518.36966 445.73724 519.2361 C 445.4508 520.1025 443.01584 540.89646 443.01584 541.7629 C 443.01584 542.6293 440.29444 558.22476 440.1512 558.22476 C 440.00797 558.22476 438.4324 558.22476 438.4324 558.22476 L 435.9975 553.8927 L 435.42456 520.1025 C 435.42456 520.1025 435.1381 503.6406 435.1381 502.7742 C 435.1381 501.9078 433.56254 471.58324 433.56254 471.58324 L 431.70053 440.3923 L 430.125 449.92286 C 430.125 449.92286 428.54943 474.1825 428.4062 474.1825 C 428.26297 474.1825 427.69004 490.6444 427.69004 491.5108 C 427.69004 492.3772 427.69004 520.9689 427.69004 520.9689 L 426.40096 538.2972 L 423.5363 558.22476 L 420.8149 563.42326 C 420.8149 563.42326 418.66645 541.7629 418.38 541.7629 C 418.0935 541.7629 415.08565 518.36966 415.08565 518.36966 L 413.36687 501.04136 L 412.5075 476.78173 L 410.50224 454.25493 L 410.50224 430.8617 L 408.497 438.65946 C 408.497 438.65946 408.21053 456.8542 408.0673 457.7206 C 407.92407 458.587 405.63236 487.1787 405.48913 487.1787 C 405.3459 487.1787 383.54155 494.22456 383.54155 494.22456 Z" fill="red"/>
        <path d="M 383.54155 494.22456 L 401.47864 492.3772 C 401.47864 492.3772 406.2053 439.52587 406.2053 438.65946 C 406.2053 437.79304 409.67234 422.2953 409.67234 422.2953 L 413.5101 451.6557 C 413.5101 451.6557 416.80443 478.51456 417.0909 498.4421 C 417.37736 518.36966 422.104 541.7629 422.104 541.7629 C 422.104 541.7629 425.39834 515.7704 425.39834 512.30476 C 425.39834 508.8391 425.11187 483.71305 425.39834 473.31607 C 425.6848 462.9191 427.5468 438.65946 428.11974 437.79304 C 428.69267 436.92663 433.2761 429.1289 433.4193 429.9953 C 433.56254 430.8617 434.56517 426.52964 434.7084 436.0602 C 434.85163 445.5908 438.14596 507.9727 438.14596 509.7055 C 438.14596 511.43834 436.5704 566.8889 440.29444 538.2972 C 444.01846 509.7055 444.44815 499.3085 444.44815 499.3085 C 444.44815 499.3085 443.9799 471.84866 444.26634 449.32186 C 444.5528 426.79507 454.93374 435.8086 455.07697 435.8086 C 455.2202 435.8086 456.55533 441.6432 456.69856 443.376 C 456.8418 445.10885 458.91456 444.72436 458.91456 455.98776 C 458.91456 467.25116 461.06303 511.43834 461.20626 525.301 C 461.3495 539.1636 462.92504 539.1636 463.49797 539.1636 C 464.0709 539.1636 466.64907 506.23985 466.7923 506.23985 C 466.93553 506.23985 468.79754 493.2436 468.9408 493.2436 C 469.084 493.2436 473.81065 488.91154 473.81065 488.91154 L 475.67267 492.3772 L 474.24035 494.97645 L 470.946 494.97645 C 470.946 494.97645 469.084 505.37343 468.9408 505.37343 C 468.79754 505.37343 467.36523 522.70174 467.36523 522.70174 L 465.64645 541.7629 L 462.3521 549.5606 C 462.3521 549.5606 459.4875 540.03004 459.4875 539.1636 C 459.4875 538.2972 459.34425 505.37343 459.34425 505.37343 L 457.48224 466.38475 C 457.48224 466.38475 456.4796 443.85795 456.3364 442.1251 C 456.19315 440.3923 456.69856 456.1341 456.69856 455.2677 C 456.69856 454.4013 457.92286 475.59325 457.7796 474.72683 C 457.6364 473.8604 450.2122 441.7544 450.2122 441.7544 L 451.8338 434.187 L 447.50953 449.32186 L 445.0211 448.19 C 445.0211 448.19 446.0237 472.44965 446.16694 472.44965 C 446.31017 472.44965 446.31017 506.23985 446.31017 506.23985 C 446.31017 506.23985 446.0237 518.36966 445.73724 519.2361 C 445.4508 520.1025 443.01584 540.89646 443.01584 541.7629 C 443.01584 542.6293 440.29444 558.22476 440.1512 558.22476 C 440.00797 558.22476 438.4324 558.22476 438.4324 558.22476 L 435.9975 553.8927 L 435.42456 520.1025 C 435.42456 520.1025 435.1381 503.6406 435.1381 502.7742 C 435.1381 501.9078 433.56254 471.58324 433.56254 471.58324 L 431.70053 440.3923 L 430.125 449.92286 C 430.125 449.92286 428.54943 474.1825 428.4062 474.1825 C 428.26297 474.1825 427.69004 490.6444 427.69004 491.5108 C 427.69004 492.3772 427.69004 520.9689 427.69004 520.9689 L 426.40096 538.2972 L 423.5363 558.22476 L 420.8149 563.42326 C 420.8149 563.42326 418.66645 541.7629 418.38 541.7629 C 418.0935 541.7629 415.08565 518.36966 415.08565 518.36966 L 413.36687 501.04136 L 412.5075 476.78173 L 410.50224 454.25493 L 410.50224 430.8617 L 408.497 438.65946 C 408.497 438.65946 408.21053 456.8542 408.0673 457.7206 C 407.92407 458.587 405.63236 487.1787 405.48913 487.1787 C 405.3459 487.1787 383.54155 494.22456 383.54155 494.22456 Z" stroke="#ff0029" stroke-linecap="round" stroke-linejoin="round" stroke-width="5"/>
      </g>
      <g id="Graphic_2">
        <path d="M 214 573.21626 L 224.57675 510.7259 C 224.57675 510.7259 228.05381 498.29557 228.05381 497.42915 C 228.05381 496.56273 235.62125 472.0242 235.62125 472.0242 L 236.60822 470.0044 C 236.60822 470.0044 239.90254 496.8633 240.189 516.79083 C 240.47547 536.7184 245.20212 560.1116 245.20212 560.1116 C 245.20212 560.1116 248.49645 534.11914 248.49645 530.6535 C 248.49645 527.1878 248.20998 502.0618 248.49645 491.6648 C 248.7829 481.2678 250.64492 457.0082 251.21785 456.14176 C 251.79078 455.27535 256.3742 447.4776 256.51742 448.34403 C 256.66065 449.21044 257.66328 444.87837 257.8065 454.40893 C 257.94974 463.9395 261.24407 526.3214 261.24407 528.0542 C 261.24407 529.78706 259.66852 585.23764 263.39254 556.64593 C 267.11657 528.0542 267.54626 517.65725 267.54626 517.65725 C 267.54626 517.65725 265.82748 470.8708 266.11395 448.34403 C 266.4004 425.81723 270.07203 373.10695 270.21526 373.10695 C 270.3585 373.10695 276.01787 348.6718 276.1611 350.40463 C 276.30433 352.13746 282.01267 463.0731 282.01267 474.3365 C 282.01267 485.5999 284.16114 529.78706 284.30437 543.6497 C 284.4476 557.51235 286.02315 557.51235 286.59608 557.51235 C 287.169 557.51235 289.74718 524.5886 289.8904 524.5886 C 290.03364 524.5886 291.89565 511.59234 292.0389 511.59234 C 292.18212 511.59234 292.91757 305 292.91757 305 C 292.91757 305 305.57562 653.9634 298.77078 510.7259 C 291.96593 367.48847 292.91757 315.81063 292.91757 315.81063 L 294.04413 513.3252 C 294.04413 513.3252 292.18212 523.72215 292.0389 523.72215 C 291.89565 523.72215 290.46334 541.05046 290.46334 541.05046 L 288.74456 560.1116 L 285.45023 567.9093 C 285.45023 567.9093 282.5856 558.37877 282.5856 557.51235 C 282.5856 556.64593 282.44236 523.72215 282.44236 523.72215 L 280.58035 484.73347 C 280.58035 484.73347 279.57773 462.20667 279.4345 460.47384 C 279.29126 458.741 277.85895 424.9508 277.85895 424.0844 C 277.85895 423.218 271.98008 379.9192 271.83685 379.0528 C 271.69362 378.18638 270.21526 384.99864 270.21526 384.99864 L 269.83797 429.2829 L 268.1192 448.34403 L 268.1192 466.53875 C 268.1192 466.53875 269.1218 490.7984 269.26504 490.7984 C 269.40828 490.7984 269.40828 524.5886 269.40828 524.5886 C 269.40828 524.5886 269.1218 536.7184 268.83535 537.5848 C 268.5489 538.4512 266.11395 559.2452 266.11395 560.1116 C 266.11395 560.978 263.39254 576.5735 263.2493 576.5735 C 263.10608 576.5735 261.53053 576.5735 261.53053 576.5735 L 259.0956 572.2414 L 258.52267 538.4512 C 258.52267 538.4512 258.2362 521.9893 258.2362 521.1229 C 258.2362 520.2565 256.66065 489.93196 256.66065 489.93196 L 254.79864 458.741 L 253.2231 468.2716 C 253.2231 468.2716 251.64754 492.5312 251.5043 492.5312 C 251.36108 492.5312 250.78815 508.9931 250.78815 509.8595 C 250.78815 510.7259 250.78815 539.3176 250.78815 539.3176 L 249.49907 556.64593 L 246.63443 576.5735 L 243.91303 581.772 C 243.91303 581.772 241.76456 560.1116 241.4781 560.1116 C 241.19163 560.1116 238.18376 536.7184 238.18376 536.7184 L 236.46498 519.3901 L 235.6056 495.13045 L 233.60035 472.60365 L 237.24285 476.34843 L 232.9186 491.4833 C 232.9186 491.4833 231.30864 475.2029 231.1654 476.0693 C 231.02218 476.93573 228.73047 505.52743 228.58724 505.52743 C 228.444 505.52743 214 573.21626 214 573.21626 Z" fill="red"/>
        <path d="M 214 573.21626 L 224.57675 510.7259 C 224.57675 510.7259 228.05381 498.29557 228.05381 497.42915 C 228.05381 496.56273 235.62125 472.0242 235.62125 472.0242 L 236.60822 470.0044 C 236.60822 470.0044 239.90254 496.8633 240.189 516.79083 C 240.47547 536.7184 245.20212 560.1116 245.20212 560.1116 C 245.20212 560.1116 248.49645 534.11914 248.49645 530.6535 C 248.49645 527.1878 248.20998 502.0618 248.49645 491.6648 C 248.7829 481.2678 250.64492 457.0082 251.21785 456.14176 C 251.79078 455.27535 256.3742 447.4776 256.51742 448.34403 C 256.66065 449.21044 257.66328 444.87837 257.8065 454.40893 C 257.94974 463.9395 261.24407 526.3214 261.24407 528.0542 C 261.24407 529.78706 259.66852 585.23764 263.39254 556.64593 C 267.11657 528.0542 267.54626 517.65725 267.54626 517.65725 C 267.54626 517.65725 265.82748 470.8708 266.11395 448.34403 C 266.4004 425.81723 270.07203 373.10695 270.21526 373.10695 C 270.3585 373.10695 276.01787 348.6718 276.1611 350.40463 C 276.30433 352.13746 282.01267 463.0731 282.01267 474.3365 C 282.01267 485.5999 284.16114 529.78706 284.30437 543.6497 C 284.4476 557.51235 286.02315 557.51235 286.59608 557.51235 C 287.169 557.51235 289.74718 524.5886 289.8904 524.5886 C 290.03364 524.5886 291.89565 511.59234 292.0389 511.59234 C 292.18212 511.59234 292.91757 305 292.91757 305 C 292.91757 305 305.57562 653.9634 298.77078 510.7259 C 291.96593 367.48847 292.91757 315.81063 292.91757 315.81063 L 294.04413 513.3252 C 294.04413 513.3252 292.18212 523.72215 292.0389 523.72215 C 291.89565 523.72215 290.46334 541.05046 290.46334 541.05046 L 288.74456 560.1116 L 285.45023 567.9093 C 285.45023 567.9093 282.5856 558.37877 282.5856 557.51235 C 282.5856 556.64593 282.44236 523.72215 282.44236 523.72215 L 280.58035 484.73347 C 280.58035 484.73347 279.57773 462.20667 279.4345 460.47384 C 279.29126 458.741 277.85895 424.9508 277.85895 424.0844 C 277.85895 423.218 271.98008 379.9192 271.83685 379.0528 C 271.69362 378.18638 270.21526 384.99864 270.21526 384.99864 L 269.83797 429.2829 L 268.1192 448.34403 L 268.1192 466.53875 C 268.1192 466.53875 269.1218 490.7984 269.26504 490.7984 C 269.40828 490.7984 269.40828 524.5886 269.40828 524.5886 C 269.40828 524.5886 269.1218 536.7184 268.83535 537.5848 C 268.5489 538.4512 266.11395 559.2452 266.11395 560.1116 C 266.11395 560.978 263.39254 576.5735 263.2493 576.5735 C 263.10608 576.5735 261.53053 576.5735 261.53053 576.5735 L 259.0956 572.2414 L 258.52267 538.4512 C 258.52267 538.4512 258.2362 521.9893 258.2362 521.1229 C 258.2362 520.2565 256.66065 489.93196 256.66065 489.93196 L 254.79864 458.741 L 253.2231 468.2716 C 253.2231 468.2716 251.64754 492.5312 251.5043 492.5312 C 251.36108 492.5312 250.78815 508.9931 250.78815 509.8595 C 250.78815 510.7259 250.78815 539.3176 250.78815 539.3176 L 249.49907 556.64593 L 246.63443 576.5735 L 243.91303 581.772 C 243.91303 581.772 241.76456 560.1116 241.4781 560.1116 C 241.19163 560.1116 238.18376 536.7184 238.18376 536.7184 L 236.46498 519.3901 L 235.6056 495.13045 L 233.60035 472.60365 L 237.24285 476.34843 L 232.9186 491.4833 C 232.9186 491.4833 231.30864 475.2029 231.1654 476.0693 C 231.02218 476.93573 228.73047 505.52743 228.58724 505.52743 C 228.444 505.52743 214 573.21626 214 573.21626 Z" stroke="#ff0029" stroke-linecap="round" stroke-linejoin="round" stroke-width="5"/>
      </g>
      <g id="Graphic_47">
        <path d="M 92.70373 569.6539 L 92.70373 548.6539 L 117.70373 548.6539 L 132.70373 534.6539 L 192.70373 534.6539 L 208.70373 552.6539 L 228.70373 557.6539 L 228.70373 570.6539 L 187.70373 571.6539 Z" fill="blue"/>
        <path d="M 92.70373 569.6539 L 92.70373 548.6539 L 117.70373 548.6539 L 132.70373 534.6539 L 192.70373 534.6539 L 208.70373 552.6539 L 228.70373 557.6539 L 228.70373 570.6539 L 187.70373 571.6539 Z" stroke="black" stroke-linecap="round" stroke-linejoin="round" stroke-width="5"/>
      </g>
      <g id="Graphic_48">
        <path d="M 194.70373 536.6539 L 173.20373 536.1539 L 172.70373 551.6539 L 210.70373 551.6539 Z" fill="#cbcbcb"/>
        <path d="M 194.70373 536.6539 L 173.20373 536.1539 L 172.70373 551.6539 L 210.70373 551.6539 Z" stroke="black" stroke-linecap="round" stroke-linejoin="round" stroke-width="4"/>
      </g>
    </g>
  </g>
</svg>
