<?xml version="1.0" encoding="UTF-8" standalone="no"?>
<!DOCTYPE svg PUBLIC "-//W3C//DTD SVG 1.1//EN" "http://www.w3.org/Graphics/SVG/1.1/DTD/svg11.dtd">
<svg xmlns:xl="http://www.w3.org/1999/xlink" xmlns:dc="http://purl.org/dc/elements/1.1/" xmlns="http://www.w3.org/2000/svg" version="1.1" viewBox="0 0 850.394 850.394" width="850.394" height="850.394">
  <defs/>
  <metadata> Produced by OmniGraffle 7.9.4 
    <dc:date>2019-05-02 21:48:06 +0000</dc:date>
  </metadata>
  <g id="Conductive" stroke-dasharray="none" fill-opacity="1" stroke="none" fill="none" stroke-opacity="1">
    <title>Conductive</title>
    <g id="Conductive: Layer 1">
      <title>Layer 1</title>
      <g id="Line_6">
        <path d="M 161 474 L 107.97404 530.90834 C 85.88948 554.60985 76.65489 587.5412 83.19578 619.2699 L 98.29146 692.49625 C 105.70635 728.4645 90.83093 765.3721 60.546464 786.1458 L 10.563596 820.4317 L 10.563596 820.4317" stroke="#ff000a" stroke-linecap="round" stroke-linejoin="round" stroke-width="6"/>
      </g>
      <g id="Line_7">
        <path d="M 718 475 L 785.2787 590.41446 C 801.8242 618.7978 803.3726 653.4976 789.4209 683.2418 L 768.617 727.5942 C 758.1943 749.8149 760.2187 775.8785 773.9476 796.2233 L 796.0831 829.0255 L 796.0831 829.0255" stroke="black" stroke-linecap="round" stroke-linejoin="round" stroke-width="6"/>
      </g>
      <g id="Graphic_5">
        <path d="M 359 245 C 358 245 190 245 190 245 L 69.58714 298.51683 C 54.224224 305.3448 41.2929 316.67083 32.5 331 L 32.5 331 C 23.65272 345.4178 18.713184 361.8913 18.167794 378.7984 L 17.5 399.5 C 16.577677 428.092 31.586156 454.8375 56.47111 468.94754 L 186.8195 542.8564 C 202.00816 551.46854 219.18703 555.9537 236.64716 555.86576 L 595.7351 554.05675 C 603.2214 554.01904 610.6797 553.1408 617.9699 551.4385 L 715.83245 528.58735 C 765.8784 516.9015 798.91865 469.1841 792.2479 418.2267 L 777.96125 309.0929 C 772.0858 264.21086 736.7947 228.8723 691.92054 222.93658 L 579 208 C 579 208 360 245 359 245 Z" fill="#cbcbcb"/>
        <path d="M 359 245 C 358 245 190 245 190 245 L 69.58714 298.51683 C 54.224224 305.3448 41.2929 316.67083 32.5 331 L 32.5 331 C 23.65272 345.4178 18.713184 361.8913 18.167794 378.7984 L 17.5 399.5 C 16.577677 428.092 31.586156 454.8375 56.47111 468.94754 L 186.8195 542.8564 C 202.00816 551.46854 219.18703 555.9537 236.64716 555.86576 L 595.7351 554.05675 C 603.2214 554.01904 610.6797 553.1408 617.9699 551.4385 L 715.83245 528.58735 C 765.8784 516.9015 798.91865 469.1841 792.2479 418.2267 L 777.96125 309.0929 C 772.0858 264.21086 736.7947 228.8723 691.92054 222.93658 L 579 208 C 579 208 360 245 359 245 Z" stroke="black" stroke-linecap="round" stroke-linejoin="round" stroke-width="4"/>
      </g>
      <g id="Graphic_2">
        <path d="M 83 476.63985 C 83 477.4898 223.24114 360.1972 223.24114 360.1972 L 242.7899 443.49195 L 424.6784 316 L 261.48873 491.9389 L 214.74168 481.73953 L 208.79205 406.94426 C 208.79205 406.94426 83 475.7899 83 476.63985 Z" fill="#ffff40"/>
        <path d="M 83 476.63985 C 83 477.4898 223.24114 360.1972 223.24114 360.1972 L 242.7899 443.49195 L 424.6784 316 L 261.48873 491.9389 L 214.74168 481.73953 L 208.79205 406.94426 C 208.79205 406.94426 83 475.7899 83 476.63985 Z" stroke="black" stroke-linecap="round" stroke-linejoin="round" stroke-width="7"/>
      </g>
      <g id="Graphic_3">
        <path d="M 734.6358 532.5517 C 735.3719 532.12673 563.67296 469.32064 563.67296 469.32064 L 626.03394 410.74354 L 424.6784 316.96944 L 658.6408 370.3264 L 673.1814 415.91023 L 611.3816 458.4604 C 611.3816 458.4604 733.89974 532.9767 734.6358 532.5517 Z" fill="#ffff40"/>
        <path d="M 734.6358 532.5517 C 735.3719 532.12673 563.67296 469.32064 563.67296 469.32064 L 626.03394 410.74354 L 424.6784 316.96944 L 658.6408 370.3264 L 673.1814 415.91023 L 611.3816 458.4604 C 611.3816 458.4604 733.89974 532.9767 734.6358 532.5517 Z" stroke="black" stroke-linecap="round" stroke-linejoin="round" stroke-width="7"/>
      </g>
    </g>
  </g>
</svg>
