<?xml version="1.0" encoding="UTF-8" standalone="no"?>
<!DOCTYPE svg PUBLIC "-//W3C//DTD SVG 1.1//EN" "http://www.w3.org/Graphics/SVG/1.1/DTD/svg11.dtd">
<svg version="1.1" xmlns="http://www.w3.org/2000/svg" xmlns:xl="http://www.w3.org/1999/xlink" xmlns:dc="http://purl.org/dc/elements/1.1/" viewBox="0 0 850.394 850.394" width="850.394" height="850.394">
  <defs/>
  <metadata> Produced by OmniGraffle 7.9.4 
    <dc:date>2019-04-23 21:33:10 +0000</dc:date>
  </metadata>
  <g id="Conductor" stroke-opacity="1" stroke="none" fill-opacity="1" stroke-dasharray="none" fill="none">
    <title>Conductor</title>
    <g id="Conductor: Layer 1">
      <title>Layer 1</title>
      <g id="Graphic_49">
        <path d="M 369.78543 395.74647 L 364.83284 474.98787 L 305.4018 519.56116 L 235.07505 529.4663 L 370.77595 838.5078 L 474 849 L 588 848 L 444.07424 440.31976 L 390.5863 397.7275 Z" fill="#cbcbcb"/>
        <path d="M 369.78543 395.74647 L 364.83284 474.98787 L 305.4018 519.56116 L 235.07505 529.4663 L 370.77595 838.5078 L 474 849 L 588 848 L 444.07424 440.31976 L 390.5863 397.7275 Z" stroke="black" stroke-linecap="round" stroke-linejoin="round" stroke-width="6"/>
      </g>
      <g id="Graphic_52">
        <path d="M 782.9144 403.8054 L 779.79165 394.2578 C 779.7155 394.02485 779.635 393.79334 779.5503 393.56336 L 775.5058 382.581 C 774.658 380.27914 773.3941 378.15287 771.777 376.30833 L 771.1117 375.54937 C 769.07615 373.22753 767.7154 370.39254 767.17715 367.35205 L 764.3941 351.63197 C 764.1638 350.33107 763.8052 349.0562 763.3235 347.826 L 758.4371 335.34728 C 757.8289 333.79414 757.4174 332.17103 757.2121 330.51574 L 753.8452 303.36018 C 753.812 303.09215 753.7842 302.8235 753.7618 302.55433 L 751.261 272.43816 C 751.2168 271.90553 751.1939 271.37134 751.1925 270.83688 L 751.094 234.19907 C 751.0935 234.0148 751.0955 233.83054 751.1001 233.64633 L 751.5519 215.5419 C 751.6162 212.96518 750.155 210.59294 747.8248 209.49122 L 747.8248 209.49122 C 745.3897 208.33994 742.5755 208.29953 740.1084 209.38043 L 736.2481 211.07177 C 732.6568 212.64524 729.8211 215.55789 728.3444 219.19006 L 727.0914 222.27188 C 726.3948 223.98534 725.9392 225.78714 725.73774 227.6258 L 724.2096 241.5704 C 723.9833 243.63555 724.0801 245.72335 724.4966 247.75868 L 728.6546 268.07742 C 728.8568 269.0659 728.69885 270.09412 728.2091 270.97626 L 728.2091 270.97626 C 728.0266 271.305 727.6122 271.42357 727.2834 271.24107 C 727.133 271.15754 727.0197 271.02012 726.9665 270.85647 L 721.9525 255.44692 C 721.8858 255.24206 721.8159 255.0383 721.7426 254.8357 L 711.57884 226.7207 C 711.5134 226.53976 711.4454 226.35977 711.3748 226.1808 L 702.4856 203.64761 C 702.248 203.04514 702.0397 202.43148 701.8616 201.8088 L 698.9766 191.72365 C 697.8611 187.82421 695.5865 184.35607 692.45436 181.7793 L 687.2705 177.5146 C 684.54526 175.27253 681.27525 173.79148 677.7925 173.22182 L 675.176 172.79384 C 671.1393 172.13358 667.25915 174.6395 666.2005 178.5904 L 666.2005 178.5904 C 664.9992 183.0736 665.485 187.84175 667.5656 191.9906 L 680.3865 217.5559 C 680.60336 217.98835 680.8045 218.42853 680.9894 218.87557 L 690.8681 242.75286 C 691.4029 244.04562 691.8007 245.39094 692.0547 246.76672 L 694.0449 257.54315 C 694.204 258.40452 693.6347 259.23175 692.7733 259.39082 C 692.2953 259.4791 691.8032 259.3433 691.4381 259.02237 L 689.4622 257.28537 C 688.5155 256.45318 687.8793 255.3243 687.6578 254.08348 L 687.6578 254.08348 C 687.4309 252.8128 687.0173 251.58265 686.4304 250.433 L 676.4416 230.86515 C 676.1474 230.28872 675.8253 229.72692 675.4766 229.18172 L 668.465 218.21957 C 667.5801 216.8362 666.5283 215.56708 665.3332 214.44086 L 653.51396 203.30267 C 651.74186 201.63268 649.6797 200.30034 647.42894 199.3712 L 638.81806 195.81653 C 636.0242 194.6632 633.0053 194.1581 629.9882 194.3392 L 622.7352 194.77454 C 619.6089 194.9622 616.7168 196.49395 614.805 198.97472 L 614.5052 199.36379 C 612.7628 201.62472 611.93335 204.45773 612.1813 207.30137 L 612.1813 207.30137 C 612.4156 209.98892 614.2147 212.28464 616.7683 213.15466 L 628.26395 217.07124 C 632.0987 218.37775 635.4463 220.81802 637.86356 224.06904 L 646.895 236.21548 C 647.6331 237.20813 648.2775 238.26712 648.8199 239.37882 L 657.6264 257.42757 C 657.9695 258.13072 658.27105 258.8534 658.5295 259.59188 L 663.434 273.6074 C 664.3317 276.1726 664.4356 278.94878 663.7322 281.5739 L 663.7322 281.5739 C 663.39665 282.82617 662.1095 283.56932 660.8572 283.23378 C 660.44224 283.12258 660.0657 282.89963 659.7687 282.5892 L 645.5992 267.7804 C 645.5178 267.69534 645.4371 267.60955 645.3572 267.52305 L 634.7522 256.04028 C 634.1935 255.43538 633.59804 254.86555 632.9691 254.33406 L 626.4444 248.82002 C 624.1957 246.91964 621.5552 245.53917 618.7113 244.77717 L 610.3511 242.53706 C 610.0125 242.44632 609.67154 242.3645 609.3286 242.2917 L 600.1944 240.35228 C 597.3362 239.74543 594.3541 240.30835 591.9139 241.91535 L 591.2673 242.34115 C 589.2271 243.68468 587.7509 245.7302 587.1187 248.08977 L 587.1187 248.08977 C 586.4953 250.4162 586.91264 252.89868 588.26244 254.8934 L 591.6123 259.84378 C 593.5536 262.7126 596.2067 265.02804 599.3118 266.56335 L 611.6054 272.6419 C 611.8068 272.74146 612.00645 272.8444 612.20436 272.9507 L 621.5183 277.95328 C 622.8857 278.6877 624.1629 279.5788 625.3242 280.6086 L 634.4071 288.66284 C 636.4695 290.49167 638.13156 292.72707 639.289 295.22874 L 642.9649 303.17365 C 642.9649 303.17365 650.6749 324.65206 650.47864 325.38465 C 650.28234 326.11724 627.7859 313.16454 627.7859 313.16454 L 619.8585 306.75365 C 617.4329 304.79208 614.5821 303.4251 611.5339 302.76194 L 600.58894 300.3808 C 600.58894 300.3808 591.15636 303.3497 590.4238 303.1534 C 589.6912 302.9571 590.8023 313.46226 590.8023 313.46226 L 598.0377 322.3457 C 600.2643 325.07946 603.174 327.176 606.47196 328.4229 L 618.9282 333.13234 C 621.49905 334.10433 623.842 335.59577 625.81075 337.5136 L 637.0317 348.4441 C 637.93686 349.32584 638.7564 350.29137 639.4794 351.32776 L 647.3055 362.54656 C 648.541 364.3177 650.0552 365.87702 651.78926 367.164 L 658.0003 371.77367 C 659.98295 373.24517 662.22095 374.3368 664.6011 374.9934 L 682.73596 379.99613 C 687.418 381.28773 691.4701 384.23896 694.1358 388.29897 L 707.9007 409.2635 C 708.90754 410.79693 708.48065 412.8562 706.94724 413.863 C 706.182 414.3654 705.2434 414.52975 704.353 414.3172 L 696.2108 412.37337 C 696.2108 412.37337 710.16854 424.7504 710.5611 423.28523 C 710.9537 421.82005 718.03075 427.64227 718.03075 427.64227 L 745.7665 431.24715 C 749.93285 431.78866 754.164 431.00434 757.8594 429.00547 L 776.9924 418.65647 C 782.296 415.78776 784.7888 409.53637 782.9144 403.8054 Z" fill="#ffefc6"/>
        <path d="M 782.9144 403.8054 L 779.79165 394.2578 C 779.7155 394.02485 779.635 393.79334 779.5503 393.56336 L 775.5058 382.581 C 774.658 380.27914 773.3941 378.15287 771.777 376.30833 L 771.1117 375.54937 C 769.07615 373.22753 767.7154 370.39254 767.17715 367.35205 L 764.3941 351.63197 C 764.1638 350.33107 763.8052 349.0562 763.3235 347.826 L 758.4371 335.34728 C 757.8289 333.79414 757.4174 332.17103 757.2121 330.51574 L 753.8452 303.36018 C 753.812 303.09215 753.7842 302.8235 753.7618 302.55433 L 751.261 272.43816 C 751.2168 271.90553 751.1939 271.37134 751.1925 270.83688 L 751.094 234.19907 C 751.0935 234.0148 751.0955 233.83054 751.1001 233.64633 L 751.5519 215.5419 C 751.6162 212.96518 750.155 210.59294 747.8248 209.49122 L 747.8248 209.49122 C 745.3897 208.33994 742.5755 208.29953 740.1084 209.38043 L 736.2481 211.07177 C 732.6568 212.64524 729.8211 215.55789 728.3444 219.19006 L 727.0914 222.27188 C 726.3948 223.98534 725.9392 225.78714 725.73774 227.6258 L 724.2096 241.5704 C 723.9833 243.63555 724.0801 245.72335 724.4966 247.75868 L 728.6546 268.07742 C 728.8568 269.0659 728.69885 270.09412 728.2091 270.97626 L 728.2091 270.97626 C 728.0266 271.305 727.6122 271.42357 727.2834 271.24107 C 727.133 271.15754 727.0197 271.02012 726.9665 270.85647 L 721.9525 255.44692 C 721.8858 255.24206 721.8159 255.0383 721.7426 254.8357 L 711.57884 226.7207 C 711.5134 226.53976 711.4454 226.35977 711.3748 226.1808 L 702.4856 203.64761 C 702.248 203.04514 702.0397 202.43148 701.8616 201.8088 L 698.9766 191.72365 C 697.8611 187.82421 695.5865 184.35607 692.45436 181.7793 L 687.2705 177.5146 C 684.54526 175.27253 681.27525 173.79148 677.7925 173.22182 L 675.176 172.79384 C 671.1393 172.13358 667.25915 174.6395 666.2005 178.5904 L 666.2005 178.5904 C 664.9992 183.0736 665.485 187.84175 667.5656 191.9906 L 680.3865 217.5559 C 680.60336 217.98835 680.8045 218.42853 680.9894 218.87557 L 690.8681 242.75286 C 691.4029 244.04562 691.8007 245.39094 692.0547 246.76672 L 694.0449 257.54315 C 694.204 258.40452 693.6347 259.23175 692.7733 259.39082 C 692.2953 259.4791 691.8032 259.3433 691.4381 259.02237 L 689.4622 257.28537 C 688.5155 256.45318 687.8793 255.3243 687.6578 254.08348 L 687.6578 254.08348 C 687.4309 252.8128 687.0173 251.58265 686.4304 250.433 L 676.4416 230.86515 C 676.1474 230.28872 675.8253 229.72692 675.4766 229.18172 L 668.465 218.21957 C 667.5801 216.8362 666.5283 215.56708 665.3332 214.44086 L 653.51396 203.30267 C 651.74186 201.63268 649.6797 200.30034 647.42894 199.3712 L 638.81806 195.81653 C 636.0242 194.6632 633.0053 194.1581 629.9882 194.3392 L 622.7352 194.77454 C 619.6089 194.9622 616.7168 196.49395 614.805 198.97472 L 614.5052 199.36379 C 612.7628 201.62472 611.93335 204.45773 612.1813 207.30137 L 612.1813 207.30137 C 612.4156 209.98892 614.2147 212.28464 616.7683 213.15466 L 628.26395 217.07124 C 632.0987 218.37775 635.4463 220.81802 637.86356 224.06904 L 646.895 236.21548 C 647.6331 237.20813 648.2775 238.26712 648.8199 239.37882 L 657.6264 257.42757 C 657.9695 258.13072 658.27105 258.8534 658.5295 259.59188 L 663.434 273.6074 C 664.3317 276.1726 664.4356 278.94878 663.7322 281.5739 L 663.7322 281.5739 C 663.39665 282.82617 662.1095 283.56932 660.8572 283.23378 C 660.44224 283.12258 660.0657 282.89963 659.7687 282.5892 L 645.5992 267.7804 C 645.5178 267.69534 645.4371 267.60955 645.3572 267.52305 L 634.7522 256.04028 C 634.1935 255.43538 633.59804 254.86555 632.9691 254.33406 L 626.4444 248.82002 C 624.1957 246.91964 621.5552 245.53917 618.7113 244.77717 L 610.3511 242.53706 C 610.0125 242.44632 609.67154 242.3645 609.3286 242.2917 L 600.1944 240.35228 C 597.3362 239.74543 594.3541 240.30835 591.9139 241.91535 L 591.2673 242.34115 C 589.2271 243.68468 587.7509 245.7302 587.1187 248.08977 L 587.1187 248.08977 C 586.4953 250.4162 586.91264 252.89868 588.26244 254.8934 L 591.6123 259.84378 C 593.5536 262.7126 596.2067 265.02804 599.3118 266.56335 L 611.6054 272.6419 C 611.8068 272.74146 612.00645 272.8444 612.20436 272.9507 L 621.5183 277.95328 C 622.8857 278.6877 624.1629 279.5788 625.3242 280.6086 L 634.4071 288.66284 C 636.4695 290.49167 638.13156 292.72707 639.289 295.22874 L 642.9649 303.17365 C 642.9649 303.17365 650.6749 324.65206 650.47864 325.38465 C 650.28234 326.11724 627.7859 313.16454 627.7859 313.16454 L 619.8585 306.75365 C 617.4329 304.79208 614.5821 303.4251 611.5339 302.76194 L 600.58894 300.3808 C 600.58894 300.3808 591.15636 303.3497 590.4238 303.1534 C 589.6912 302.9571 590.8023 313.46226 590.8023 313.46226 L 598.0377 322.3457 C 600.2643 325.07946 603.174 327.176 606.47196 328.4229 L 618.9282 333.13234 C 621.49905 334.10433 623.842 335.59577 625.81075 337.5136 L 637.0317 348.4441 C 637.93686 349.32584 638.7564 350.29137 639.4794 351.32776 L 647.3055 362.54656 C 648.541 364.3177 650.0552 365.87702 651.78926 367.164 L 658.0003 371.77367 C 659.98295 373.24517 662.22095 374.3368 664.6011 374.9934 L 682.73596 379.99613 C 687.418 381.28773 691.4701 384.23896 694.1358 388.29897 L 707.9007 409.2635 C 708.90754 410.79693 708.48065 412.8562 706.94724 413.863 C 706.182 414.3654 705.2434 414.52975 704.353 414.3172 L 696.2108 412.37337 C 696.2108 412.37337 710.16854 424.7504 710.5611 423.28523 C 710.9537 421.82005 718.03075 427.64227 718.03075 427.64227 L 745.7665 431.24715 C 749.93285 431.78866 754.164 431.00434 757.8594 429.00547 L 776.9924 418.65647 C 782.296 415.78776 784.7888 409.53637 782.9144 403.8054 Z" stroke="black" stroke-linecap="round" stroke-linejoin="round" stroke-width="7"/>
      </g>
      <g id="Graphic_47">
        <path d="M 340.1592 308.47132 L 409.42107 289.0442 C 410.0698 288.86226 410.73525 288.74633 411.4073 288.6982 L 475.374 284.11647 C 476.4509 284.03933 477.5332 284.1371 478.5788 284.406 L 547 302 C 547 302 586.70876 344.23956 586.70876 345.23008 C 586.70876 346.2206 627.32 388.81285 627.32 388.81285 L 645.83476 409.27654 C 646.038 409.5012 646.231 409.735 646.413 409.97717 L 677.3171 451.0915 C 677.7709 451.6952 678.15485 452.3484 678.4616 453.0386 L 689.4882 477.84854 C 689.8281 478.61316 690.0706 479.4174 690.2101 480.2424 L 712.8087 613.8689 C 712.9358 614.6205 712.9766 615.3842 712.9302 616.145 L 710.5 656 C 710.4963 656.06116 710.4437 656.1077 710.3825 656.104 C 710.3216 656.1003 710.2751 656.048 710.2785 655.9871 L 712.9569 607.7762 C 712.9856 607.2595 712.9741 606.7414 712.92265 606.22646 L 693.2908 409.90813 C 693.1188 408.18786 694.11084 406.5628 695.7196 405.9296 L 697.6072 405.18667 C 698.16075 404.9688 698.6937 404.702 699.1998 404.38943 L 711.83955 396.5825 C 711.88664 396.55344 711.934 396.52474 711.98155 396.49644 L 741.4995 378.9351 C 742.6265 378.26463 743.8868 377.84953 745.1916 377.71905 L 746.8655 377.55167 C 747.0702 377.5312 747.2742 377.5044 747.47725 377.47136 L 763.4114 374.87743 C 763.9426 374.79096 764.4799 374.7475 765.01815 374.7475 L 776.7356 374.7475 C 778.6462 374.7475 780.5168 374.20015 782.1261 373.1702 L 784.6142 371.57785 C 787.373 369.8122 791.0356 370.55905 792.8829 373.26393 L 799.2546 382.59393 C 800.1778 383.94574 800.755 385.5035 800.9356 387.1305 L 819.4154 553.6441 C 819.4587 554.03387 819.479 554.42586 819.4762 554.81804 L 818.4995 692.52786 C 818.4931 693.43325 818.3638 694.3336 818.115 695.20415 L 791.9453 786.7982 C 791.1861 789.4554 789.3611 791.68 786.9035 792.9439 L 756.0873 808.7923 C 756.0873 808.7923 714.4855 808.7923 713.495 808.7923 C 712.5045 808.7923 656.045 780.0673 656.045 780.0673 L 634.6495 741.1805 C 634.21845 740.397 633.8944 739.5593 633.6861 738.6897 L 596.7381 584.463 C 596.6554 584.1178 596.55435 583.7772 596.4354 583.4427 L 580.76566 539.3715 C 580.48865 538.5924 580.8957 537.73625 581.6748 537.45924 C 582.4192 537.19454 583.24125 537.5539 583.5525 538.28015 L 606.1044 590.9012 C 606.3801 591.5446 606.5875 592.2151 606.7232 592.9018 L 639.16885 757.0964 C 639.19374 757.22235 639.2162 757.3488 639.2362 757.4756 L 652.0866 838.8793 C 652.9478 844.3345 649.2235 849.4551 643.7682 850.3162 C 643.0985 850.4219 642.4198 850.4593 641.7425 850.4277 L 599.9777 848.4775 C 599.06024 848.4347 598.1531 848.2657 597.2818 847.9752 L 585.14455 843.9295 C 582.36614 843.0034 580.1334 840.9058 579.0357 838.1905 L 524.4043 703.0497 C 524.3389 702.8879 524.2777 702.7243 524.22085 702.5593 L 483.78476 585.196 C 483.7249 585.02224 483.66983 584.84686 483.6196 584.6701 L 461.19104 505.68244 C 461.0062 505.0314 460.7557 504.40085 460.4435 503.80043 L 423.1521 432.08615 C 422.57765 430.9815 421.802 429.9938 420.86496 429.1739 L 391.02533 403.06424 C 390.7329 402.80836 390.4258 402.56974 390.10558 402.3496 L 376.0058 392.656 C 375.16556 392.07833 374.4186 391.37555 373.79085 390.572 L 350.77467 361.1113 C 350.24384 360.43185 349.8031 359.6866 349.46347 358.89407 L 333.6684 322.03894 C 331.49285 316.96264 333.84437 311.08385 338.92067 308.9083 C 339.3235 308.73565 339.73723 308.5897 340.1592 308.47132 Z" fill="#333"/>
        <path d="M 340.1592 308.47132 L 409.42107 289.0442 C 410.0698 288.86226 410.73525 288.74633 411.4073 288.6982 L 475.374 284.11647 C 476.4509 284.03933 477.5332 284.1371 478.5788 284.406 L 547 302 C 547 302 586.70876 344.23956 586.70876 345.23008 C 586.70876 346.2206 627.32 388.81285 627.32 388.81285 L 645.83476 409.27654 C 646.038 409.5012 646.231 409.735 646.413 409.97717 L 677.3171 451.0915 C 677.7709 451.6952 678.15485 452.3484 678.4616 453.0386 L 689.4882 477.84854 C 689.8281 478.61316 690.0706 479.4174 690.2101 480.2424 L 712.8087 613.8689 C 712.9358 614.6205 712.9766 615.3842 712.9302 616.145 L 710.5 656 C 710.4963 656.06116 710.4437 656.1077 710.3825 656.104 C 710.3216 656.1003 710.2751 656.048 710.2785 655.9871 L 712.9569 607.7762 C 712.9856 607.2595 712.9741 606.7414 712.92265 606.22646 L 693.2908 409.90813 C 693.1188 408.18786 694.11084 406.5628 695.7196 405.9296 L 697.6072 405.18667 C 698.16075 404.9688 698.6937 404.702 699.1998 404.38943 L 711.83955 396.5825 C 711.88664 396.55344 711.934 396.52474 711.98155 396.49644 L 741.4995 378.9351 C 742.6265 378.26463 743.8868 377.84953 745.1916 377.71905 L 746.8655 377.55167 C 747.0702 377.5312 747.2742 377.5044 747.47725 377.47136 L 763.4114 374.87743 C 763.9426 374.79096 764.4799 374.7475 765.01815 374.7475 L 776.7356 374.7475 C 778.6462 374.7475 780.5168 374.20015 782.1261 373.1702 L 784.6142 371.57785 C 787.373 369.8122 791.0356 370.55905 792.8829 373.26393 L 799.2546 382.59393 C 800.1778 383.94574 800.755 385.5035 800.9356 387.1305 L 819.4154 553.6441 C 819.4587 554.03387 819.479 554.42586 819.4762 554.81804 L 818.4995 692.52786 C 818.4931 693.43325 818.3638 694.3336 818.115 695.20415 L 791.9453 786.7982 C 791.1861 789.4554 789.3611 791.68 786.9035 792.9439 L 756.0873 808.7923 C 756.0873 808.7923 714.4855 808.7923 713.495 808.7923 C 712.5045 808.7923 656.045 780.0673 656.045 780.0673 L 634.6495 741.1805 C 634.21845 740.397 633.8944 739.5593 633.6861 738.6897 L 596.7381 584.463 C 596.6554 584.1178 596.55435 583.7772 596.4354 583.4427 L 580.76566 539.3715 C 580.48865 538.5924 580.8957 537.73625 581.6748 537.45924 C 582.4192 537.19454 583.24125 537.5539 583.5525 538.28015 L 606.1044 590.9012 C 606.3801 591.5446 606.5875 592.2151 606.7232 592.9018 L 639.16885 757.0964 C 639.19374 757.22235 639.2162 757.3488 639.2362 757.4756 L 652.0866 838.8793 C 652.9478 844.3345 649.2235 849.4551 643.7682 850.3162 C 643.0985 850.4219 642.4198 850.4593 641.7425 850.4277 L 599.9777 848.4775 C 599.06024 848.4347 598.1531 848.2657 597.2818 847.9752 L 585.14455 843.9295 C 582.36614 843.0034 580.1334 840.9058 579.0357 838.1905 L 524.4043 703.0497 C 524.3389 702.8879 524.2777 702.7243 524.22085 702.5593 L 483.78476 585.196 C 483.7249 585.02224 483.66983 584.84686 483.6196 584.6701 L 461.19104 505.68244 C 461.0062 505.0314 460.7557 504.40085 460.4435 503.80043 L 423.1521 432.08615 C 422.57765 430.9815 421.802 429.9938 420.86496 429.1739 L 391.02533 403.06424 C 390.7329 402.80836 390.4258 402.56974 390.10558 402.3496 L 376.0058 392.656 C 375.16556 392.07833 374.4186 391.37555 373.79085 390.572 L 350.77467 361.1113 C 350.24384 360.43185 349.8031 359.6866 349.46347 358.89407 L 333.6684 322.03894 C 331.49285 316.96264 333.84437 311.08385 338.92067 308.9083 C 339.3235 308.73565 339.73723 308.5897 340.1592 308.47132 Z" stroke="black" stroke-linecap="round" stroke-linejoin="round" stroke-width="8"/>
      </g>
      <g id="Graphic_46">
        <path d="M 378.7001 561.1629 C 379.6906 561.1629 420.3018 591.8689 420.3018 591.8689 L 441.1027 618.6129 C 441.1027 618.6129 481.7139 662.1957 481.7139 663.1862 C 481.7139 664.1767 507.46736 691.9112 507.46736 691.9112 L 521.7981 708.6304 C 524.11206 711.33 525.9277 714.4195 527.16023 717.7546 L 541.8014 757.3719 C 542.02406 757.9744 542.266 758.5696 542.5269 759.1565 L 561.89463 802.734 C 561.92876 802.8108 561.9632 802.8874 561.998 802.9639 L 564.4221 808.297 C 565.2856 810.1966 564.4456 812.4365 562.546 813.3 C 562.0343 813.5326 561.47714 813.648 560.91513 813.638 L 526.22396 813.0185 C 516.8973 812.852 508.17885 808.3565 502.6343 800.855 L 479.0107 768.8937 C 478.1725 767.75965 477.4153 766.568 476.74476 765.3274 L 457.9415 730.5414 C 457.9415 730.5414 412.3777 684.9776 412.3777 683.9871 C 412.3777 682.99654 378.7001 653.281 378.7001 653.281 L 359.7597 614.4532 C 359.18036 613.2656 358.6801 612.04094 358.26225 610.78734 L 351.5146 590.5443 C 350.4949 587.48534 349.9751 584.28196 349.9751 581.0575 L 349.9751 580.478 C 349.9751 577.0534 351.60664 573.83366 354.36825 571.8085 L 364.83284 564.13444 C 364.83284 564.13444 377.70957 561.1629 378.7001 561.1629 Z" fill="#666"/>
        <path d="M 378.7001 561.1629 C 379.6906 561.1629 420.3018 591.8689 420.3018 591.8689 L 441.1027 618.6129 C 441.1027 618.6129 481.7139 662.1957 481.7139 663.1862 C 481.7139 664.1767 507.46736 691.9112 507.46736 691.9112 L 521.7981 708.6304 C 524.11206 711.33 525.9277 714.4195 527.16023 717.7546 L 541.8014 757.3719 C 542.02406 757.9744 542.266 758.5696 542.5269 759.1565 L 561.89463 802.734 C 561.92876 802.8108 561.9632 802.8874 561.998 802.9639 L 564.4221 808.297 C 565.2856 810.1966 564.4456 812.4365 562.546 813.3 C 562.0343 813.5326 561.47714 813.648 560.91513 813.638 L 526.22396 813.0185 C 516.8973 812.852 508.17885 808.3565 502.6343 800.855 L 479.0107 768.8937 C 478.1725 767.75965 477.4153 766.568 476.74476 765.3274 L 457.9415 730.5414 C 457.9415 730.5414 412.3777 684.9776 412.3777 683.9871 C 412.3777 682.99654 378.7001 653.281 378.7001 653.281 L 359.7597 614.4532 C 359.18036 613.2656 358.6801 612.04094 358.26225 610.78734 L 351.5146 590.5443 C 350.4949 587.48534 349.9751 584.28196 349.9751 581.0575 L 349.9751 580.478 C 349.9751 577.0534 351.60664 573.83366 354.36825 571.8085 L 364.83284 564.13444 C 364.83284 564.13444 377.70957 561.1629 378.7001 561.1629 Z" stroke="black" stroke-linecap="round" stroke-linejoin="round" stroke-width="5"/>
      </g>
      <g id="Graphic_45">
        <path d="M 330.16473 512.62753 L 328.1837 564.13444 C 328.1837 564.13444 317.288 583.9448 316.2975 584.9353 C 315.30697 585.9258 305.4018 623.5655 305.4018 623.5655 L 281.62937 580.97324 L 262.80954 564.13444 L 245.97074 548.28616 L 234.08453 529.4663 L 241.01816 528.4758 L 280.63886 527.4853 L 310.3544 512.62753 Z" fill="#cbcbcb"/>
        <path d="M 330.16473 512.62753 L 328.1837 564.13444 C 328.1837 564.13444 317.288 583.9448 316.2975 584.9353 C 315.30697 585.9258 305.4018 623.5655 305.4018 623.5655 L 281.62937 580.97324 L 262.80954 564.13444 L 245.97074 548.28616 L 234.08453 529.4663 L 241.01816 528.4758 L 280.63886 527.4853 L 310.3544 512.62753 Z" stroke="black" stroke-linecap="round" stroke-linejoin="round" stroke-width="5"/>
      </g>
      <g id="Graphic_44">
        <path d="M 367.8044 540.362 L 376.71905 553.23875 C 376.71905 553.23875 397.0484 565.67623 398.51044 565.12496 C 399.97247 564.5737 420.3018 557.2008 420.3018 557.2008 L 399.50096 540.362 L 396.5294 515.5991 L 400.49147 483.9025 L 398.51044 452.20597 L 378.7001 407.6327 L 370.77595 483.9025 L 327.19318 512.62753 Z" fill="#cbcbcb"/>
        <path d="M 367.8044 540.362 L 376.71905 553.23875 C 376.71905 553.23875 397.0484 565.67623 398.51044 565.12496 C 399.97247 564.5737 420.3018 557.2008 420.3018 557.2008 L 399.50096 540.362 L 396.5294 515.5991 L 400.49147 483.9025 L 398.51044 452.20597 L 378.7001 407.6327 L 370.77595 483.9025 L 327.19318 512.62753 Z" stroke="black" stroke-linecap="round" stroke-linejoin="round" stroke-width="5"/>
      </g>
      <g id="Graphic_43">
        <path d="M 348.98456 512.62753 L 327.19318 511.637 L 323.2311 544.3241 L 336.10784 575.03014 L 347.99405 580.97324 L 368.7949 562.1534 L 381.67164 562.1534 L 363.84233 533.4284 L 357.89922 520.5517 Z" fill="#333"/>
        <path d="M 348.98456 512.62753 L 327.19318 511.637 L 323.2311 544.3241 L 336.10784 575.03014 L 347.99405 580.97324 L 368.7949 562.1534 L 381.67164 562.1534 L 363.84233 533.4284 L 357.89922 520.5517 Z" stroke="black" stroke-linecap="round" stroke-linejoin="round" stroke-width="4"/>
      </g>
      <g id="Graphic_42">
        <path d="M 206.35004 497.76977 L 269.74316 573.0491 L 303.42076 609.69825 L 349.9751 704.7879 L 375.72854 791.9535 L 441.1027 837.5173 L 471.80873 848.413 L 370 848 L 323 848 L 278.65782 790.96295 L 333.1363 839.4983 L 275.68627 787.9914 Z" fill="#333"/>
        <path d="M 206.35004 497.76977 L 269.74316 573.0491 L 303.42076 609.69825 L 349.9751 704.7879 L 375.72854 791.9535 L 441.1027 837.5173 L 471.80873 848.413 L 370 848 L 323 848 L 278.65782 790.96295 L 333.1363 839.4983 L 275.68627 787.9914 Z" stroke="black" stroke-linecap="round" stroke-linejoin="round" stroke-width="5"/>
      </g>
      <g id="Graphic_41">
        <path d="M 136.67016 402.1555 L 102.65601 427.26116 C 99.89181 429.3014 97.91175 432.2287 97.04687 435.55367 L 73.72596 525.2091 C 73.24638 527.0528 73.1224 528.971 73.36065 530.8611 L 87.9428 646.5462 C 87.98093 646.8487 88.00982 647.1522 88.02945 647.4564 L 92 709 C 92 709 111 755.0095 111 756 C 111 756.9905 132 819 132 819 C 132 819 147.00948 849 148 849 C 148.99052 849 240 849 240 849 L 304.5317 849 C 304.84383 849 305.15587 849.0097 305.46738 849.0292 L 321 850 C 325.27184 850.267 328.95128 847.0204 329.21827 842.7486 C 329.3273 841.0043 328.84352 839.2744 327.8455 837.8396 L 286.56095 778.48945 C 285.91667 777.5632 285.37895 776.5673 284.95798 775.5205 L 257 706 C 257 706 251.91385 631.4896 251.91385 630.4991 C 251.91385 629.5086 234.08453 573.0491 234.08453 573.0491 L 216.3141 527.63576 C 216.27485 527.53545 216.23668 527.4347 216.1996 527.3336 L 184.48927 440.8509 C 183.88 439.1892 182.98145 437.6485 181.83522 436.3 L 153.11408 402.5104 C 151.09543 400.13552 148.03939 398.90314 144.93796 399.2133 L 144.08538 399.29854 C 141.40175 399.5669 138.84011 400.55385 136.67016 402.1555 Z" fill="#333"/>
        <path d="M 136.67016 402.1555 L 102.65601 427.26116 C 99.89181 429.3014 97.91175 432.2287 97.04687 435.55367 L 73.72596 525.2091 C 73.24638 527.0528 73.1224 528.971 73.36065 530.8611 L 87.9428 646.5462 C 87.98093 646.8487 88.00982 647.1522 88.02945 647.4564 L 92 709 C 92 709 111 755.0095 111 756 C 111 756.9905 132 819 132 819 C 132 819 147.00948 849 148 849 C 148.99052 849 240 849 240 849 L 304.5317 849 C 304.84383 849 305.15587 849.0097 305.46738 849.0292 L 321 850 C 325.27184 850.267 328.95128 847.0204 329.21827 842.7486 C 329.3273 841.0043 328.84352 839.2744 327.8455 837.8396 L 286.56095 778.48945 C 285.91667 777.5632 285.37895 776.5673 284.95798 775.5205 L 257 706 C 257 706 251.91385 631.4896 251.91385 630.4991 C 251.91385 629.5086 234.08453 573.0491 234.08453 573.0491 L 216.3141 527.63576 C 216.27485 527.53545 216.23668 527.4347 216.1996 527.3336 L 184.48927 440.8509 C 183.88 439.1892 182.98145 437.6485 181.83522 436.3 L 153.11408 402.5104 C 151.09543 400.13552 148.03939 398.90314 144.93796 399.2133 L 144.08538 399.29854 C 141.40175 399.5669 138.84011 400.55385 136.67016 402.1555 Z" stroke="black" stroke-linecap="round" stroke-linejoin="round" stroke-width="5"/>
      </g>
      <g id="Graphic_40">
        <path d="M 371.76647 393.76543 L 373.7475 437.3482 C 373.7475 437.3482 373.7475 454.187 373.7475 455.1775 C 373.7475 456.16804 363.84233 485.88356 363.84233 485.88356 L 321.25007 510.6465 L 292.52507 518.57064 L 251.91385 520.5517 L 210.31211 487.8646 Z" fill="#ffefc6"/>
        <path d="M 371.76647 393.76543 L 373.7475 437.3482 C 373.7475 437.3482 373.7475 454.187 373.7475 455.1775 C 373.7475 456.16804 363.84233 485.88356 363.84233 485.88356 L 321.25007 510.6465 L 292.52507 518.57064 L 251.91385 520.5517 L 210.31211 487.8646 Z" stroke="black" stroke-linecap="round" stroke-linejoin="round" stroke-width="4"/>
      </g>
      <g id="Graphic_39">
        <path d="M 148.87764 238.42434 L 144.00868 275.42848 C 143.96788 275.73856 143.94165 276.05038 143.93007 276.3629 L 142.95692 302.63782 C 142.95692 302.63782 142.95692 329.3818 142.95692 330.3723 C 142.95692 331.36283 145.92848 365.04043 145.92848 365.04043 L 145.92848 379.51854 C 145.92848 381.071 146.28993 382.60212 146.9842 383.9907 L 154.74596 399.5142 C 154.81074 399.64374 154.87832 399.77187 154.94866 399.8985 L 169.7009 426.4525 C 169.7009 426.4525 182.57762 439.32924 183.56814 439.32924 C 184.55866 439.32924 189.51125 456.16804 189.51125 456.16804 L 201.39746 490.83615 C 201.39746 490.83615 221.2078 517.5801 222.19832 517.5801 C 223.18884 517.5801 238.0466 531.44737 238.0466 531.44737 L 268.04794 535.19753 C 269.16996 535.3378 270.30764 535.2867 271.4126 535.0465 L 290.25985 530.9493 C 291.75023 530.6253 293.14676 529.9647 294.3426 529.018 L 314.78143 512.8372 C 315.78286 512.0444 316.62314 511.0671 317.25684 509.95816 L 328.1837 490.83615 C 328.1837 490.83615 337.09835 467.0637 337.09835 466.0732 C 337.09835 465.0827 345.0225 438.3387 345.0225 438.3387 L 357.79037 408.8744 C 357.86292 408.70696 357.94005 408.54154 358.02165 408.37833 L 362.07044 400.28077 C 363.15637 398.1089 365.3762 396.737 367.8044 396.737 L 368.30784 396.737 C 370.54848 396.737 372.7242 395.9845 374.48605 394.60017 L 383.6262 387.41864 C 384.9434 386.38367 385.97953 385.0344 386.6394 383.49465 L 391.37573 372.44325 C 391.5097 372.13065 391.62764 371.81142 391.7291 371.4868 L 396.2253 357.09895 C 396.4275 356.45184 396.5634 355.78584 396.63086 355.11124 L 399.3802 327.61796 C 399.4604 326.81576 399.4433 326.0068 399.3293 325.2087 L 397.88224 315.0792 C 397.64453 313.41527 396.99124 311.8381 395.98274 310.49343 L 391.60526 304.6568 C 389.7167 302.13873 386.75284 300.6568 383.60526 300.6568 L 375.669 300.6568 C 373.76715 300.6568 371.90475 301.19912 370.30024 302.22017 L 364.0019 306.2282 C 362.5971 307.12218 361.43774 308.3528 360.6291 309.8084 L 359.0867 312.5847 C 357.7674 314.9594 355.15133 316.3098 352.45138 316.0098 L 351.74276 315.93107 C 349.42595 315.67365 347.42652 314.19033 346.50827 312.04774 L 345.83104 310.46754 C 345.29757 309.22278 345.0225 307.88262 345.0225 306.52835 L 345.0225 280.1099 C 345.0225 276.84675 343.4304 273.78886 340.7571 271.91757 L 307.3484 248.53146 C 306.06848 247.63552 304.59645 247.05194 303.05032 246.8275 L 182.82844 229.37594 C 182.66126 229.35167 182.49349 229.33164 182.32529 229.31587 L 156.87984 226.93036 C 153.4995 226.61345 150.4487 228.9621 149.89055 232.31108 L 148.92824 238.0849 C 148.90944 238.19775 148.89257 238.3109 148.87764 238.42434 Z" fill="#ffefc6"/>
        <path d="M 148.87764 238.42434 L 144.00868 275.42848 C 143.96788 275.73856 143.94165 276.05038 143.93007 276.3629 L 142.95692 302.63782 C 142.95692 302.63782 142.95692 329.3818 142.95692 330.3723 C 142.95692 331.36283 145.92848 365.04043 145.92848 365.04043 L 145.92848 379.51854 C 145.92848 381.071 146.28993 382.60212 146.9842 383.9907 L 154.74596 399.5142 C 154.81074 399.64374 154.87832 399.77187 154.94866 399.8985 L 169.7009 426.4525 C 169.7009 426.4525 182.57762 439.32924 183.56814 439.32924 C 184.55866 439.32924 189.51125 456.16804 189.51125 456.16804 L 201.39746 490.83615 C 201.39746 490.83615 221.2078 517.5801 222.19832 517.5801 C 223.18884 517.5801 238.0466 531.44737 238.0466 531.44737 L 268.04794 535.19753 C 269.16996 535.3378 270.30764 535.2867 271.4126 535.0465 L 290.25985 530.9493 C 291.75023 530.6253 293.14676 529.9647 294.3426 529.018 L 314.78143 512.8372 C 315.78286 512.0444 316.62314 511.0671 317.25684 509.95816 L 328.1837 490.83615 C 328.1837 490.83615 337.09835 467.0637 337.09835 466.0732 C 337.09835 465.0827 345.0225 438.3387 345.0225 438.3387 L 357.79037 408.8744 C 357.86292 408.70696 357.94005 408.54154 358.02165 408.37833 L 362.07044 400.28077 C 363.15637 398.1089 365.3762 396.737 367.8044 396.737 L 368.30784 396.737 C 370.54848 396.737 372.7242 395.9845 374.48605 394.60017 L 383.6262 387.41864 C 384.9434 386.38367 385.97953 385.0344 386.6394 383.49465 L 391.37573 372.44325 C 391.5097 372.13065 391.62764 371.81142 391.7291 371.4868 L 396.2253 357.09895 C 396.4275 356.45184 396.5634 355.78584 396.63086 355.11124 L 399.3802 327.61796 C 399.4604 326.81576 399.4433 326.0068 399.3293 325.2087 L 397.88224 315.0792 C 397.64453 313.41527 396.99124 311.8381 395.98274 310.49343 L 391.60526 304.6568 C 389.7167 302.13873 386.75284 300.6568 383.60526 300.6568 L 375.669 300.6568 C 373.76715 300.6568 371.90475 301.19912 370.30024 302.22017 L 364.0019 306.2282 C 362.5971 307.12218 361.43774 308.3528 360.6291 309.8084 L 359.0867 312.5847 C 357.7674 314.9594 355.15133 316.3098 352.45138 316.0098 L 351.74276 315.93107 C 349.42595 315.67365 347.42652 314.19033 346.50827 312.04774 L 345.83104 310.46754 C 345.29757 309.22278 345.0225 307.88262 345.0225 306.52835 L 345.0225 280.1099 C 345.0225 276.84675 343.4304 273.78886 340.7571 271.91757 L 307.3484 248.53146 C 306.06848 247.63552 304.59645 247.05194 303.05032 246.8275 L 182.82844 229.37594 C 182.66126 229.35167 182.49349 229.33164 182.32529 229.31587 L 156.87984 226.93036 C 153.4995 226.61345 150.4487 228.9621 149.89055 232.31108 L 148.92824 238.0849 C 148.90944 238.19775 148.89257 238.3109 148.87764 238.42434 Z" stroke="black" stroke-linecap="round" stroke-linejoin="round" stroke-width="6"/>
      </g>
      <g id="Graphic_38">
        <path d="M 150.88106 225.37746 L 165.31321 249.7317 C 166.23976 251.29525 167.5749 252.57673 169.17513 253.4384 L 177.38625 257.85976 C 178.84333 258.64435 180.47236 259.05505 182.12725 259.05505 L 244.34797 259.05505 C 245.4228 259.05505 246.49058 259.22833 247.51025 259.56822 L 265.92003 265.7048 C 268.37294 266.52245 271.0472 266.35822 273.38164 265.2466 L 290.54403 257.07402 C 290.54403 257.07402 302.43024 255.09298 303.42076 254.10247 C 304.41128 253.11195 313.32593 259.05505 313.32593 259.05505 L 343.04146 274.90333 C 343.04146 274.90333 342.05094 298.67575 343.04146 298.67575 C 344.03198 298.67575 345.0225 332.35335 345.0225 332.35335 L 352.70574 320.40164 C 353.5163 319.14075 354.59996 318.07822 355.87655 317.29263 L 366.6591 310.65722 C 366.76227 310.59372 366.8643 310.52835 366.9651 310.46114 L 374.63067 305.35077 C 377.1983 303.63902 378.8318 300.8377 379.057 297.76003 L 381.50913 264.24763 C 381.61616 262.78487 381.4001 261.31646 380.8763 259.9465 L 357.1047 197.77461 C 356.34154 195.77866 354.8579 194.14128 352.94663 193.18564 L 351.32474 192.3747 C 350.43003 191.92734 349.6075 191.34827 348.88465 190.65684 L 327.19318 169.90848 C 327.19318 169.90848 304.41128 164.9559 303.42076 164.9559 C 302.43024 164.9559 281.62937 155.05072 280.63886 155.05072 C 279.64834 155.05072 255.87592 155.05072 254.8854 155.05072 C 253.89488 155.05072 218.23625 155.05072 218.23625 155.05072 L 194.49195 155.93013 C 192.5353 156.0026 190.64297 156.64789 189.04968 157.78595 L 170.82405 170.80425 C 170.73563 170.86741 170.64825 170.932 170.56193 170.998 L 153.85262 183.77572 C 153.85262 183.77572 125.12761 208.53866 125.12761 209.52918 C 125.12761 210.5197 119.1845 226.36798 119.1845 226.36798 L 123.64183 225.37746 C 125.61655 224.93863 127.57312 226.18372 128.01194 228.15844 C 128.06991 228.41932 128.09916 228.68576 128.09916 228.953 L 128.09916 241.04062 C 128.09916 241.16402 128.09688 241.2874 128.09231 241.41073 L 127.13007 267.39132 C 127.1158 267.7766 127.07926 268.16072 127.02064 268.54177 L 125.7078 277.07518 C 125.33415 279.50395 125.86786 281.98528 127.20709 284.04563 L 137.77348 300.30163 C 137.92732 300.5383 138.0911 300.76834 138.2644 300.99115 L 141.47115 305.1141 C 142.12809 305.95875 143.34535 306.1109 144.18998 305.45397 C 144.66192 305.0869 144.93796 304.5225 144.93796 303.92463 L 144.93796 292.73265 C 144.93796 292.73265 146.919 257.07402 147.90951 257.07402 C 148.90003 257.07402 150.88106 225.37746 150.88106 225.37746 Z" fill="#ffffc0"/>
        <path d="M 150.88106 225.37746 L 165.31321 249.7317 C 166.23976 251.29525 167.5749 252.57673 169.17513 253.4384 L 177.38625 257.85976 C 178.84333 258.64435 180.47236 259.05505 182.12725 259.05505 L 244.34797 259.05505 C 245.4228 259.05505 246.49058 259.22833 247.51025 259.56822 L 265.92003 265.7048 C 268.37294 266.52245 271.0472 266.35822 273.38164 265.2466 L 290.54403 257.07402 C 290.54403 257.07402 302.43024 255.09298 303.42076 254.10247 C 304.41128 253.11195 313.32593 259.05505 313.32593 259.05505 L 343.04146 274.90333 C 343.04146 274.90333 342.05094 298.67575 343.04146 298.67575 C 344.03198 298.67575 345.0225 332.35335 345.0225 332.35335 L 352.70574 320.40164 C 353.5163 319.14075 354.59996 318.07822 355.87655 317.29263 L 366.6591 310.65722 C 366.76227 310.59372 366.8643 310.52835 366.9651 310.46114 L 374.63067 305.35077 C 377.1983 303.63902 378.8318 300.8377 379.057 297.76003 L 381.50913 264.24763 C 381.61616 262.78487 381.4001 261.31646 380.8763 259.9465 L 357.1047 197.77461 C 356.34154 195.77866 354.8579 194.14128 352.94663 193.18564 L 351.32474 192.3747 C 350.43003 191.92734 349.6075 191.34827 348.88465 190.65684 L 327.19318 169.90848 C 327.19318 169.90848 304.41128 164.9559 303.42076 164.9559 C 302.43024 164.9559 281.62937 155.05072 280.63886 155.05072 C 279.64834 155.05072 255.87592 155.05072 254.8854 155.05072 C 253.89488 155.05072 218.23625 155.05072 218.23625 155.05072 L 194.49195 155.93013 C 192.5353 156.0026 190.64297 156.64789 189.04968 157.78595 L 170.82405 170.80425 C 170.73563 170.86741 170.64825 170.932 170.56193 170.998 L 153.85262 183.77572 C 153.85262 183.77572 125.12761 208.53866 125.12761 209.52918 C 125.12761 210.5197 119.1845 226.36798 119.1845 226.36798 L 123.64183 225.37746 C 125.61655 224.93863 127.57312 226.18372 128.01194 228.15844 C 128.06991 228.41932 128.09916 228.68576 128.09916 228.953 L 128.09916 241.04062 C 128.09916 241.16402 128.09688 241.2874 128.09231 241.41073 L 127.13007 267.39132 C 127.1158 267.7766 127.07926 268.16072 127.02064 268.54177 L 125.7078 277.07518 C 125.33415 279.50395 125.86786 281.98528 127.20709 284.04563 L 137.77348 300.30163 C 137.92732 300.5383 138.0911 300.76834 138.2644 300.99115 L 141.47115 305.1141 C 142.12809 305.95875 143.34535 306.1109 144.18998 305.45397 C 144.66192 305.0869 144.93796 304.5225 144.93796 303.92463 L 144.93796 292.73265 C 144.93796 292.73265 146.919 257.07402 147.90951 257.07402 C 148.90003 257.07402 150.88106 225.37746 150.88106 225.37746 Z" stroke="black" stroke-linecap="round" stroke-linejoin="round" stroke-width="7"/>
      </g>
      <g id="Graphic_37">
        <ellipse cx="187.531" cy="371.97405" rx="21.9887497746125" ry="11.5260402254651" fill="white"/>
        <ellipse cx="187.531" cy="371.97405" rx="21.9887497746125" ry="11.5260402254651" stroke="black" stroke-linecap="round" stroke-linejoin="round" stroke-width="1"/>
      </g>
      <g id="Graphic_36">
        <ellipse cx="186.5397" cy="370.18933" rx="6.63957322069949" ry="6.43837403219346" fill="black"/>
        <ellipse cx="186.5397" cy="370.18933" rx="6.63957322069949" ry="6.43837403219346" stroke="black" stroke-linecap="round" stroke-linejoin="round" stroke-width="1"/>
      </g>
      <g id="Graphic_35">
        <path d="M 295.24676 352.82387 C 303.32413 355.3195 305.21296 362.3687 299.46557 368.5687 C 293.71823 374.7687 282.5111 377.77162 274.43377 375.27594 C 266.3564 372.7803 264.46757 365.7311 270.21495 359.53112 C 275.9623 353.33113 287.1694 350.3282 295.24676 352.82387" fill="white"/>
        <path d="M 295.24676 352.82387 C 303.32413 355.3195 305.21296 362.3687 299.46557 368.5687 C 293.71823 374.7687 282.5111 377.77162 274.43377 375.27594 C 266.3564 372.7803 264.46757 365.7311 270.21495 359.53112 C 275.9623 353.33113 287.1694 350.3282 295.24676 352.82387" stroke="black" stroke-linecap="round" stroke-linejoin="round" stroke-width="1"/>
      </g>
      <g id="Graphic_34">
        <path d="M 288.46053 356.519 C 291.61586 358.27655 292.67094 362.2142 290.81713 365.31394 C 288.96334 368.4137 284.90265 369.50177 281.74733 367.7442 C 278.592 365.98662 277.5369 362.049 279.39073 358.94923 C 281.24452 355.84946 285.3052 354.7614 288.46053 356.519" fill="black"/>
        <path d="M 288.46053 356.519 C 291.61586 358.27655 292.67094 362.2142 290.81713 365.31394 C 288.96334 368.4137 284.90265 369.50177 281.74733 367.7442 C 278.592 365.98662 277.5369 362.049 279.39073 358.94923 C 281.24452 355.84946 285.3052 354.7614 288.46053 356.519" stroke="black" stroke-linecap="round" stroke-linejoin="round" stroke-width="1"/>
      </g>
      <g id="Graphic_33">
        <path d="M 344.12936 345.23217 L 337.34652 353.7107 C 333.16915 358.93243 326.65848 361.7209 319.99656 361.1416 L 310.19525 360.28933 C 308.65567 360.15545 307.10575 360.20047 305.57652 360.4235 L 263.51523 366.5574 C 261.40744 366.8648 259.3623 367.50694 257.4571 368.45954 L 253.49225 370.44196 C 251.46423 371.45597 249.27856 372.11774 247.02867 372.39897 L 238.10047 373.515 C 235.77153 373.8061 233.40954 373.68502 231.12258 373.15727 L 225.33686 371.8221 C 222.93503 371.26783 220.45143 371.16234 218.01125 371.51093 L 166.30331 378.8978 C 166.25716 378.90437 166.21103 378.91113 166.16493 378.91804 L 156.32891 380.39345 C 151.92453 381.0541 148.88965 385.16012 149.5503 389.5645 C 149.63615 390.1368 149.78336 390.69823 149.98938 391.23904 L 153.34626 400.05085 C 154.01073 401.7951 154.9161 403.43773 156.03601 404.93094 L 165.02358 416.91436 C 169.4308 422.79066 176.70456 425.7782 183.9698 424.69616 L 209.465 420.899 C 215.33654 420.0245 220.5162 416.5869 223.60275 411.51614 L 231.42372 398.6674 C 232.2046 397.38454 232.8385 396.0178 233.3134 394.59303 L 238.0466 380.39345 C 238.86718 377.93173 241.528 376.60132 243.9897 377.4219 L 243.9897 377.4219 C 246.8437 378.3732 249.20286 380.4193 250.54824 383.1101 L 260.00312 402.01983 C 260.8788 403.7712 262.00693 405.3845 263.3514 406.80803 L 271.08324 414.9947 C 275.52505 419.6978 281.96733 421.962 288.37487 421.07206 L 308.79433 418.23603 C 312.0933 417.77784 315.2256 416.50303 317.90694 414.5273 L 324.505 409.66557 C 329.621 405.8959 332.64103 399.91927 332.64103 393.56445 L 332.64103 364.66324 C 332.64103 359.79932 334.4135 355.1021 337.62676 351.4507 L 343.5367 344.7348 C 343.6779 344.5744 343.9224 344.5588 344.08283 344.69996 C 344.23796 344.83648 344.25845 345.0708 344.12936 345.23217 Z" stroke="black" stroke-linecap="round" stroke-linejoin="round" stroke-width="0"/>
      </g>
      <g id="Graphic_32">
        <path d="M 345.5209 329.2767 L 333.84956 341.95913 C 329.65178 346.52056 323.5761 348.8776 317.4004 348.3406 L 306.72844 347.4126 C 305.18885 347.27873 303.63894 347.32374 302.1097 347.54676 L 260.04842 353.6807 C 257.94063 353.9881 255.8955 354.6302 253.99028 355.5828 L 250.22166 357.4671 C 248.06582 358.54504 245.73288 359.2244 243.33537 359.4724 L 220.92043 361.7912 C 219.13905 361.9755 217.341 361.91966 215.57447 361.62524 L 207.43271 360.2683 C 206.71148 360.14808 205.9842 360.0675 205.25413 360.02695 L 188.57605 359.1004 C 188.53917 359.09834 188.50229 359.0964 188.4654 359.09455 L 169.20944 358.13176 C 168.87679 358.11512 168.54377 358.1068 168.2107 358.1068 L 156.82417 358.1068 C 151.37606 358.1068 146.9595 362.52337 146.9595 367.9715 C 146.9595 368.5814 147.01605 369.18997 147.12845 369.78943 L 149.55502 382.73114 C 150.41216 387.30253 152.83574 391.43226 156.40878 394.4098 L 168.44734 404.4419 C 172.42851 407.75957 177.54203 409.40236 182.71054 409.02417 L 204.99449 407.39364 C 211.43924 406.92207 217.25905 403.3657 220.61895 397.8459 L 226.4691 388.23494 C 228.21615 385.3648 229.21193 382.10074 229.3645 378.74415 L 229.77335 369.74943 C 229.92857 366.33455 232.8227 363.6921 236.23758 363.8473 C 236.6815 363.8675 237.12197 363.9354 237.55135 364.0499 L 237.55135 364.0499 C 242.21282 365.29297 245.98588 368.7127 247.67983 373.2299 L 252.12718 385.0895 C 253.28755 388.1838 255.1966 390.94237 257.68367 393.11855 L 262.69915 397.5071 C 267.16284 401.41283 273.12986 403.13587 278.9885 402.2108 L 302.29173 398.53136 C 305.63124 398.00407 308.78258 396.6388 311.4513 394.56315 L 318.98793 388.7013 C 322.9876 385.59047 325.6574 381.07745 326.45793 376.07408 L 328.92303 360.66724 C 329.09022 359.62228 329.1742 358.5657 329.1742 357.50743 L 329.1742 351.66844 C 329.1742 346.9125 331.0669 342.3521 334.43446 338.9938 L 344.8371 328.61978 C 345.02256 328.43484 345.3228 328.43525 345.50776 328.6207 C 345.6871 328.80056 345.69292 329.0898 345.5209 329.2767 Z" stroke="black" stroke-linecap="round" stroke-linejoin="round" stroke-width="4"/>
      </g>
      <g id="Line_31">
        <path d="M 358.1599 337.8794 L 365.35976 324.4737 C 366.66634 322.04095 369.69767 321.128 372.13043 322.43458 C 372.7387 322.76127 373.2727 323.2104 373.69883 323.75366 L 384.24675 337.2014 C 385.62377 338.957 385.67094 341.41248 384.36237 343.21966 L 361.2198 375.18027 C 360.0862 376.7458 357.89815 377.09594 356.33263 375.96235 C 355.458 375.32905 354.92473 374.32746 354.88753 373.2483 L 354.60247 364.9777 C 354.55984 363.74095 354.97735 362.53233 355.77425 361.5856 L 361.847 354.371 L 361.847 354.371" stroke="black" stroke-linecap="round" stroke-linejoin="round" stroke-width="2"/>
      </g>
      <g id="Line_30">
        <path d="M 198.4259 345.23008 L 174.65348 335.74278 L 163.23932 332.35335 L 154.44848 340.6257 L 154.44848 340.6257" stroke="black" stroke-linecap="round" stroke-linejoin="round" stroke-width="4"/>
      </g>
      <g id="Line_29">
        <path d="M 260.8285 330.3723 L 284.60093 324.01907 L 295.899 319.47662 L 304.80594 328.9562 L 309.2091 332.35335 L 309.2091 332.35335" stroke="black" stroke-linecap="round" stroke-linejoin="round" stroke-width="4"/>
      </g>
      <g id="Line_28">
        <path d="M 236.06557 379.8982 L 228.48563 412.7368 C 226.8663 419.7523 227.292 427.08496 229.71233 433.8659 L 229.71233 433.8659 C 232.01486 440.31684 237.50787 445.1051 244.21263 446.5059 L 249.6986 447.652 C 256.1865 449.0075 262.73758 445.6363 265.40578 439.56913 L 267.6985 434.35573 C 269.03318 431.32086 268.0799 427.76617 265.40578 425.80635 L 260.8285 422.45175 L 260.8285 422.45175" stroke="black" stroke-linecap="round" stroke-linejoin="round" stroke-width="3"/>
      </g>
      <g id="Line_27">
        <path d="M 294.5061 467.31136 L 271.60732 474.46007 C 270.36502 474.8479 269.10806 475.1871 267.8393 475.47683 L 257.93434 477.7389 C 250.18495 479.50864 242.116 479.3122 234.4619 477.1675 L 219.22677 472.8985 L 219.22677 472.8985" stroke="black" stroke-linecap="round" stroke-linejoin="round" stroke-width="3"/>
      </g>
      <g id="Graphic_26">
        <path d="M 123.68742 363.9626 L 65.24684 605.90044 C 64.55122 608.7802 66.32184 611.6787 69.20163 612.3743 C 71.8537 613.0149 74.56414 611.5628 75.5 609 L 107.5193 521.3164 C 107.83922 520.4403 108.08651 519.53933 108.25864 518.62266 L 133.65238 383.3953 C 134.18514 380.5582 133.40216 377.6326 131.52353 375.44086 L 131.51452 375.43035 C 129.57368 373.16604 128.26266 370.431 127.71306 367.4998 L 127.0662 364.0499 C 126.8903 363.1117 125.98713 362.49376 125.04894 362.66968 C 124.38016 362.79507 123.84719 363.3012 123.68742 363.9626 Z" fill="#feffff"/>
        <path d="M 123.68742 363.9626 L 65.24684 605.90044 C 64.55122 608.7802 66.32184 611.6787 69.20163 612.3743 C 71.8537 613.0149 74.56414 611.5628 75.5 609 L 107.5193 521.3164 C 107.83922 520.4403 108.08651 519.53933 108.25864 518.62266 L 133.65238 383.3953 C 134.18514 380.5582 133.40216 377.6326 131.52353 375.44086 L 131.51452 375.43035 C 129.57368 373.16604 128.26266 370.431 127.71306 367.4998 L 127.0662 364.0499 C 126.8903 363.1117 125.98713 362.49376 125.04894 362.66968 C 124.38016 362.79507 123.84719 363.3012 123.68742 363.9626 Z" stroke="black" stroke-linecap="round" stroke-linejoin="round" stroke-width="8"/>
      </g>
      <g id="Graphic_25">
        <path d="M 135.4856 356.12577 L 135.4856 356.12577 C 130.32305 356.12577 126.13798 360.31084 126.13798 365.4734 C 126.13798 365.94926 126.17432 366.42443 126.24668 366.89476 L 127.12312 372.5916 C 128.00038 378.29384 131.9934 383.02636 137.46664 384.85078 L 144.50192 387.19587 C 145.25003 387.44524 146.05865 387.04093 146.30802 386.2928 C 146.35655 386.14723 146.3813 385.99476 146.3813 385.8413 L 146.3813 383.86026 L 146.3813 367.02146 C 146.3813 361.00394 141.50313 356.12577 135.4856 356.12577 Z" fill="white"/>
        <path d="M 135.4856 356.12577 L 135.4856 356.12577 C 130.32305 356.12577 126.13798 360.31084 126.13798 365.4734 C 126.13798 365.94926 126.17432 366.42443 126.24668 366.89476 L 127.12312 372.5916 C 128.00038 378.29384 131.9934 383.02636 137.46664 384.85078 L 144.50192 387.19587 C 145.25003 387.44524 146.05865 387.04093 146.30802 386.2928 C 146.35655 386.14723 146.3813 385.99476 146.3813 385.8413 L 146.3813 383.86026 L 146.3813 367.02146 C 146.3813 361.00394 141.50313 356.12577 135.4856 356.12577 Z" stroke="black" stroke-linecap="round" stroke-linejoin="round" stroke-width="5"/>
      </g>
    </g>
  </g>
</svg>
