<?xml version="1.0" encoding="UTF-8" standalone="no"?>
<!DOCTYPE svg PUBLIC "-//W3C//DTD SVG 1.1//EN" "http://www.w3.org/Graphics/SVG/1.1/DTD/svg11.dtd">
<svg xmlns:dc="http://purl.org/dc/elements/1.1/" xmlns="http://www.w3.org/2000/svg" version="1.1" xmlns:xl="http://www.w3.org/1999/xlink" viewBox="0 0 850.394 850.394" width="850.394" height="850.394">
  <defs/>
  <metadata> Produced by OmniGraffle 7.9.4 
    <dc:date>2019-03-30 18:57:45 +0000</dc:date>
  </metadata>
  <g id="controller" stroke-dasharray="none" stroke-opacity="1" fill-opacity="1" fill="none" stroke="none">
    <title>controller</title>
    <g id="controller: Layer 1">
      <title>Layer 1</title>
      <g id="Graphic_36">
        <rect x="46.697" y="63" width="757" height="741.697" fill="#999"/>
        <rect x="46.697" y="63" width="757" height="741.697" stroke="black" stroke-linecap="round" stroke-linejoin="round" stroke-width="5"/>
      </g>
      <g id="Graphic_3">
        <rect x="150.60972" y="492.8882" width="17.506098" height="274.697" fill="black"/>
        <rect x="150.60972" y="492.8882" width="17.506098" height="274.697" stroke="black" stroke-linecap="round" stroke-linejoin="round" stroke-width="1"/>
      </g>
      <g id="Graphic_4">
        <path d="M 127.63552 565.9093 L 191.09002 565.9093 L 184.16577 630.2367 L 191.09002 694.5641 L 127.63552 694.5641 L 134.16577 631.5839 Z" fill="#ccc"/>
        <path d="M 127.63552 565.9093 L 191.09002 565.9093 L 184.16577 630.2367 L 191.09002 694.5641 L 127.63552 694.5641 L 134.16577 631.5839 Z" stroke="black" stroke-linecap="round" stroke-linejoin="round" stroke-width="9"/>
      </g>
      <g id="Graphic_6">
        <path d="M 186.16577 632.00385 L 186.16577 629.6737 L 156.44473 630.32325 L 135.09002 629.6737 L 135.09002 632.00385 Z" fill="black"/>
        <path d="M 186.16577 632.00385 L 186.16577 629.6737 L 156.44473 630.32325 L 135.09002 629.6737 L 135.09002 632.00385 Z" stroke="black" stroke-linecap="round" stroke-linejoin="round" stroke-width="4"/>
      </g>
      <g id="Graphic_12">
        <rect x="326.94125" y="493.19203" width="17.506098" height="274.697" fill="black"/>
        <rect x="326.94125" y="493.19203" width="17.506098" height="274.697" stroke="black" stroke-linecap="round" stroke-linejoin="round" stroke-width="1"/>
      </g>
      <g id="Graphic_13">
        <path d="M 303.96705 545.5665 L 367.42155 545.5665 L 360.4973 609.8939 L 367.42155 674.2213 L 303.96705 674.2213 L 310.4973 611.2411 Z" fill="#ccc"/>
        <path d="M 303.96705 545.5665 L 367.42155 545.5665 L 360.4973 609.8939 L 367.42155 674.2213 L 303.96705 674.2213 L 310.4973 611.2411 Z" stroke="black" stroke-linecap="round" stroke-linejoin="round" stroke-width="9"/>
      </g>
      <g id="Graphic_14">
        <title>Bézier</title>
        <path d="M 362.4973 611.66106 L 362.4973 609.3309 L 332.77626 609.98046 L 311.42155 609.3309 L 311.42155 611.66106 Z" fill="black"/>
        <path d="M 362.4973 611.66106 L 362.4973 609.3309 L 332.77626 609.98046 L 311.42155 609.3309 L 311.42155 611.66106 Z" stroke="black" stroke-linecap="round" stroke-linejoin="round" stroke-width="4"/>
      </g>
      <g id="Graphic_20">
        <rect x="503.94125" y="493.19203" width="17.506098" height="274.697" fill="black"/>
        <rect x="503.94125" y="493.19203" width="17.506098" height="274.697" stroke="black" stroke-linecap="round" stroke-linejoin="round" stroke-width="1"/>
      </g>
      <g id="Graphic_21">
        <path d="M 480.96705 559.2841 L 544.42155 559.2841 L 537.4973 623.6115 L 544.42155 687.9389 L 480.96705 687.9389 L 487.4973 624.95865 Z" fill="#ccc"/>
        <path d="M 480.96705 559.2841 L 544.42155 559.2841 L 537.4973 623.6115 L 544.42155 687.9389 L 480.96705 687.9389 L 487.4973 624.95865 Z" stroke="black" stroke-linecap="round" stroke-linejoin="round" stroke-width="9"/>
      </g>
      <g id="Graphic_22">
        <path d="M 539.4973 625.3786 L 539.4973 623.0484 L 509.77626 623.698 L 488.42155 623.0484 L 488.42155 625.3786 Z" fill="black"/>
        <path d="M 539.4973 625.3786 L 539.4973 623.0484 L 509.77626 623.698 L 488.42155 623.0484 L 488.42155 625.3786 Z" stroke="black" stroke-linecap="round" stroke-linejoin="round" stroke-width="4"/>
      </g>
      <g id="Graphic_28">
        <rect x="680.94125" y="493.19203" width="17.506098" height="274.697" fill="black"/>
        <rect x="680.94125" y="493.19203" width="17.506098" height="274.697" stroke="black" stroke-linecap="round" stroke-linejoin="round" stroke-width="1"/>
      </g>
      <g id="Graphic_29">
        <path d="M 662.8913 621.84434 L 726.3458 621.84434 L 719.42155 686.1717 L 726.3458 750.4991 L 662.8913 750.4991 L 669.42155 687.5189 Z" fill="#ccc"/>
        <path d="M 662.8913 621.84434 L 726.3458 621.84434 L 719.42155 686.1717 L 726.3458 750.4991 L 662.8913 750.4991 L 669.42155 687.5189 Z" stroke="black" stroke-linecap="round" stroke-linejoin="round" stroke-width="9"/>
      </g>
      <g id="Graphic_30">
        <path d="M 721.42155 687.9389 L 721.42155 685.6087 L 691.7005 686.2583 L 670.3458 685.6087 L 670.3458 687.9389 Z" fill="black"/>
        <path d="M 721.42155 687.9389 L 721.42155 685.6087 L 691.7005 686.2583 L 670.3458 685.6087 L 670.3458 687.9389 Z" stroke="black" stroke-linecap="round" stroke-linejoin="round" stroke-width="4"/>
      </g>
      <g id="Graphic_38">
        <path d="M 165.04257 404.81485 C 180.89399 406.93956 191.65005 421.4568 189.0669 437.24 C 186.48385 453.0232 171.53977 464.0955 155.68836 461.9707 C 139.83694 459.846 129.08088 445.3288 131.66402 429.5456 C 134.24708 413.7624 149.19116 402.69005 165.04257 404.81485" fill="#ccc"/>
        <path d="M 165.04257 404.81485 C 180.89399 406.93956 191.65005 421.4568 189.0669 437.24 C 186.48385 453.0232 171.53977 464.0955 155.68836 461.9707 C 139.83694 459.846 129.08088 445.3288 131.66402 429.5456 C 134.24708 413.7624 149.19116 402.69005 165.04257 404.81485" stroke="black" stroke-linecap="round" stroke-linejoin="round" stroke-width="9"/>
      </g>
      <g id="Line_37">
        <line x1="139.50446" y1="453.6994" x2="163.36504" y2="429.2012" stroke="black" stroke-linecap="round" stroke-linejoin="round" stroke-width="6"/>
      </g>
      <g id="Graphic_45">
        <path d="M 164.3741 326.60447 C 180.22552 328.7292 190.98158 343.2464 188.39844 359.0296 C 185.81538 374.8128 170.8713 385.88514 155.0199 383.76034 C 139.16848 381.63563 128.41242 367.1184 130.99556 351.3352 C 133.57862 335.552 148.5227 324.47968 164.3741 326.60447" fill="#ccc"/>
        <path d="M 164.3741 326.60447 C 180.22552 328.7292 190.98158 343.2464 188.39844 359.0296 C 185.81538 374.8128 170.8713 385.88514 155.0199 383.76034 C 139.16848 381.63563 128.41242 367.1184 130.99556 351.3352 C 133.57862 335.552 148.5227 324.47968 164.3741 326.60447" stroke="black" stroke-linecap="round" stroke-linejoin="round" stroke-width="9"/>
      </g>
      <g id="Line_46">
        <line x1="138.836" y1="375.48904" x2="162.69657" y2="350.9908" stroke="black" stroke-linecap="round" stroke-linejoin="round" stroke-width="6"/>
      </g>
      <g id="Graphic_53">
        <path d="M 163.03717 247.72563 C 178.8886 249.85035 189.64465 264.36757 187.06151 280.15077 C 184.47845 295.93398 169.53438 307.0063 153.68297 304.8815 C 137.83155 302.7568 127.07549 288.23957 129.65863 272.45637 C 132.24169 256.67316 147.18576 245.60084 163.03717 247.72563" fill="#ccc"/>
        <path d="M 163.03717 247.72563 C 178.8886 249.85035 189.64465 264.36757 187.06151 280.15077 C 184.47845 295.93398 169.53438 307.0063 153.68297 304.8815 C 137.83155 302.7568 127.07549 288.23957 129.65863 272.45637 C 132.24169 256.67316 147.18576 245.60084 163.03717 247.72563" stroke="black" stroke-linecap="round" stroke-linejoin="round" stroke-width="9"/>
      </g>
      <g id="Line_54">
        <line x1="137.49907" y1="296.6102" x2="161.35964" y2="272.11198" stroke="black" stroke-linecap="round" stroke-linejoin="round" stroke-width="6"/>
      </g>
      <g id="Graphic_61">
        <path d="M 341.3741 405.11866 C 357.22552 407.24337 367.9816 421.7606 365.39844 437.5438 C 362.8154 453.327 347.8713 464.3993 332.0199 462.27453 C 316.16848 460.1498 305.4124 445.6326 307.99556 429.8494 C 310.5786 414.0662 325.5227 402.99386 341.3741 405.11866" fill="#ccc"/>
        <path d="M 341.3741 405.11866 C 357.22552 407.24337 367.9816 421.7606 365.39844 437.5438 C 362.8154 453.327 347.8713 464.3993 332.0199 462.27453 C 316.16848 460.1498 305.4124 445.6326 307.99556 429.8494 C 310.5786 414.0662 325.5227 402.99386 341.3741 405.11866" stroke="black" stroke-linecap="round" stroke-linejoin="round" stroke-width="9"/>
      </g>
      <g id="Line_62">
        <line x1="315.836" y1="454.0032" x2="339.69657" y2="429.505" stroke="black" stroke-linecap="round" stroke-linejoin="round" stroke-width="6"/>
      </g>
      <g id="Graphic_63">
        <path d="M 340.70564 326.9083 C 356.55706 329.033 367.3131 343.5502 364.72998 359.3334 C 362.1469 375.11663 347.20284 386.18895 331.35143 384.06416 C 315.5 381.93944 304.74395 367.4222 307.3271 351.63902 C 309.91015 335.8558 324.85423 324.7835 340.70564 326.9083" fill="#ccc"/>
        <path d="M 340.70564 326.9083 C 356.55706 329.033 367.3131 343.5502 364.72998 359.3334 C 362.1469 375.11663 347.20284 386.18895 331.35143 384.06416 C 315.5 381.93944 304.74395 367.4222 307.3271 351.63902 C 309.91015 335.8558 324.85423 324.7835 340.70564 326.9083" stroke="black" stroke-linecap="round" stroke-linejoin="round" stroke-width="9"/>
      </g>
      <g id="Line_64">
        <line x1="315.16753" y1="375.79285" x2="339.0281" y2="351.29463" stroke="black" stroke-linecap="round" stroke-linejoin="round" stroke-width="6"/>
      </g>
      <g id="Graphic_65">
        <path d="M 339.3687 248.02944 C 355.22013 250.15416 365.9762 264.67138 363.39305 280.45458 C 360.81 296.2378 345.8659 307.3101 330.0145 305.1853 C 314.1631 303.0606 303.40702 288.54338 305.99016 272.76018 C 308.57322 256.97697 323.5173 245.90465 339.3687 248.02944" fill="#ccc"/>
        <path d="M 339.3687 248.02944 C 355.22013 250.15416 365.9762 264.67138 363.39305 280.45458 C 360.81 296.2378 345.8659 307.3101 330.0145 305.1853 C 314.1631 303.0606 303.40702 288.54338 305.99016 272.76018 C 308.57322 256.97697 323.5173 245.90465 339.3687 248.02944" stroke="black" stroke-linecap="round" stroke-linejoin="round" stroke-width="9"/>
      </g>
      <g id="Line_66">
        <line x1="313.8306" y1="296.914" x2="337.69118" y2="272.4158" stroke="black" stroke-linecap="round" stroke-linejoin="round" stroke-width="6"/>
      </g>
      <g id="Graphic_67">
        <path d="M 518.3741 405.4529 C 534.2255 407.5776 544.9816 422.0948 542.39844 437.878 C 539.8154 453.66123 524.8713 464.73356 509.0199 462.60876 C 493.1685 460.48405 482.4124 445.96683 484.99556 430.18363 C 487.5786 414.4004 502.5227 403.3281 518.3741 405.4529" fill="#ccc"/>
        <path d="M 518.3741 405.4529 C 534.2255 407.5776 544.9816 422.0948 542.39844 437.878 C 539.8154 453.66123 524.8713 464.73356 509.0199 462.60876 C 493.1685 460.48405 482.4124 445.96683 484.99556 430.18363 C 487.5786 414.4004 502.5227 403.3281 518.3741 405.4529" stroke="black" stroke-linecap="round" stroke-linejoin="round" stroke-width="9"/>
      </g>
      <g id="Line_68">
        <line x1="492.836" y1="454.33746" x2="516.6966" y2="429.83923" stroke="black" stroke-linecap="round" stroke-linejoin="round" stroke-width="6"/>
      </g>
      <g id="Graphic_69">
        <path d="M 517.70564 327.2425 C 533.55706 329.36723 544.3131 343.88445 541.73 359.66765 C 539.1469 375.45086 524.20284 386.5232 508.35143 384.3984 C 492.5 382.27367 481.74395 367.75645 484.3271 351.97326 C 486.91015 336.19005 501.8542 325.11772 517.70564 327.2425" fill="#ccc"/>
        <path d="M 517.70564 327.2425 C 533.55706 329.36723 544.3131 343.88445 541.73 359.66765 C 539.1469 375.45086 524.20284 386.5232 508.35143 384.3984 C 492.5 382.27367 481.74395 367.75645 484.3271 351.97326 C 486.91015 336.19005 501.8542 325.11772 517.70564 327.2425" stroke="black" stroke-linecap="round" stroke-linejoin="round" stroke-width="9"/>
      </g>
      <g id="Line_70">
        <line x1="492.16753" y1="376.1271" x2="516.0281" y2="351.62886" stroke="black" stroke-linecap="round" stroke-linejoin="round" stroke-width="6"/>
      </g>
      <g id="Graphic_71">
        <path d="M 516.3687 248.36368 C 532.2201 250.4884 542.9762 265.0056 540.39305 280.7888 C 537.81 296.57202 522.8659 307.64434 507.0145 305.51955 C 491.1631 303.39483 480.407 288.8776 482.99016 273.0944 C 485.5732 257.3112 500.5173 246.23888 516.3687 248.36368" fill="#ccc"/>
        <path d="M 516.3687 248.36368 C 532.2201 250.4884 542.9762 265.0056 540.39305 280.7888 C 537.81 296.57202 522.8659 307.64434 507.0145 305.51955 C 491.1631 303.39483 480.407 288.8776 482.99016 273.0944 C 485.5732 257.3112 500.5173 246.23888 516.3687 248.36368" stroke="black" stroke-linecap="round" stroke-linejoin="round" stroke-width="9"/>
      </g>
      <g id="Line_72">
        <line x1="490.8306" y1="297.24824" x2="514.6912" y2="272.75002" stroke="black" stroke-linecap="round" stroke-linejoin="round" stroke-width="6"/>
      </g>
      <g id="Graphic_73">
        <path d="M 696.711 406.36755 C 712.56245 408.49227 723.3185 423.0095 720.7354 438.7927 C 718.1523 454.5759 703.2082 465.6482 687.3568 463.5234 C 671.5054 461.3987 660.74935 446.8815 663.3325 431.0983 C 665.91555 415.3151 680.8596 404.24276 696.711 406.36755" fill="#ccc"/>
        <path d="M 696.711 406.36755 C 712.56245 408.49227 723.3185 423.0095 720.7354 438.7927 C 718.1523 454.5759 703.2082 465.6482 687.3568 463.5234 C 671.5054 461.3987 660.74935 446.8815 663.3325 431.0983 C 665.91555 415.3151 680.8596 404.24276 696.711 406.36755" stroke="black" stroke-linecap="round" stroke-linejoin="round" stroke-width="9"/>
      </g>
      <g id="Line_74">
        <line x1="671.1729" y1="455.2521" x2="695.0335" y2="430.7539" stroke="black" stroke-linecap="round" stroke-linejoin="round" stroke-width="6"/>
      </g>
      <g id="Graphic_75">
        <path d="M 696.0426 328.15718 C 711.894 330.2819 722.65005 344.7991 720.0669 360.5823 C 717.48385 376.3655 702.5398 387.43784 686.6884 385.31305 C 670.83694 383.18834 660.0809 368.6711 662.664 352.8879 C 665.2471 337.1047 680.19116 326.0324 696.0426 328.15718" fill="#ccc"/>
        <path d="M 696.0426 328.15718 C 711.894 330.2819 722.65005 344.7991 720.0669 360.5823 C 717.48385 376.3655 702.5398 387.43784 686.6884 385.31305 C 670.83694 383.18834 660.0809 368.6711 662.664 352.8879 C 665.2471 337.1047 680.19116 326.0324 696.0426 328.15718" stroke="black" stroke-linecap="round" stroke-linejoin="round" stroke-width="9"/>
      </g>
      <g id="Line_76">
        <line x1="670.5045" y1="377.04174" x2="694.365" y2="352.54352" stroke="black" stroke-linecap="round" stroke-linejoin="round" stroke-width="6"/>
      </g>
      <g id="Graphic_77">
        <path d="M 694.7056 249.27834 C 710.5571 251.40305 721.3131 265.92027 718.73 281.70347 C 716.1469 297.48668 701.2028 308.559 685.3514 306.4342 C 669.5 304.3095 658.74395 289.79228 661.3271 274.00908 C 663.91015 258.22587 678.8542 247.15354 694.7056 249.27834" fill="#ccc"/>
        <path d="M 694.7056 249.27834 C 710.5571 251.40305 721.3131 265.92027 718.73 281.70347 C 716.1469 297.48668 701.2028 308.559 685.3514 306.4342 C 669.5 304.3095 658.74395 289.79228 661.3271 274.00908 C 663.91015 258.22587 678.8542 247.15354 694.7056 249.27834" stroke="black" stroke-linecap="round" stroke-linejoin="round" stroke-width="9"/>
      </g>
      <g id="Line_78">
        <line x1="669.1675" y1="298.1629" x2="693.0281" y2="273.66468" stroke="black" stroke-linecap="round" stroke-linejoin="round" stroke-width="6"/>
      </g>
      <g id="Graphic_79">
        <rect x="126.63282" y="99.80797" width="63.4545" height="39.713016" fill="white"/>
        <rect x="126.63282" y="99.80797" width="63.4545" height="39.713016" stroke="black" stroke-linecap="round" stroke-linejoin="round" stroke-width="7"/>
      </g>
      <g id="Graphic_80">
        <rect x="126.63282" y="167.8481" width="63.4545" height="39.713016" fill="white"/>
        <rect x="126.63282" y="167.8481" width="63.4545" height="39.713016" stroke="black" stroke-linecap="round" stroke-linejoin="round" stroke-width="7"/>
      </g>
      <g id="Graphic_81">
        <rect x="305.23218" y="100.11178" width="63.4545" height="39.713016" fill="white"/>
        <rect x="305.23218" y="100.11178" width="63.4545" height="39.713016" stroke="black" stroke-linecap="round" stroke-linejoin="round" stroke-width="7"/>
      </g>
      <g id="Graphic_82">
        <rect x="305.23218" y="168.1519" width="63.4545" height="39.713016" fill="white"/>
        <rect x="305.23218" y="168.1519" width="63.4545" height="39.713016" stroke="black" stroke-linecap="round" stroke-linejoin="round" stroke-width="7"/>
      </g>
      <g id="Graphic_83">
        <rect x="480.96705" y="100.11178" width="63.4545" height="39.713016" fill="white"/>
        <rect x="480.96705" y="100.11178" width="63.4545" height="39.713016" stroke="black" stroke-linecap="round" stroke-linejoin="round" stroke-width="7"/>
      </g>
      <g id="Graphic_84">
        <rect x="480.96705" y="168.1519" width="63.4545" height="39.713016" fill="white"/>
        <rect x="480.96705" y="168.1519" width="63.4545" height="39.713016" stroke="black" stroke-linecap="round" stroke-linejoin="round" stroke-width="7"/>
      </g>
      <g id="Graphic_85">
        <rect x="664.1564" y="100.11178" width="63.4545" height="39.713016" fill="white"/>
        <rect x="664.1564" y="100.11178" width="63.4545" height="39.713016" stroke="black" stroke-linecap="round" stroke-linejoin="round" stroke-width="7"/>
      </g>
      <g id="Graphic_86">
        <rect x="664.1564" y="168.1519" width="63.4545" height="39.713016" fill="white"/>
        <rect x="664.1564" y="168.1519" width="63.4545" height="39.713016" stroke="black" stroke-linecap="round" stroke-linejoin="round" stroke-width="7"/>
      </g>
    </g>
  </g>
</svg>
