<?xml version="1.0" encoding="UTF-8" standalone="no"?>
<!DOCTYPE svg PUBLIC "-//W3C//DTD SVG 1.1//EN" "http://www.w3.org/Graphics/SVG/1.1/DTD/svg11.dtd">
<svg xmlns="http://www.w3.org/2000/svg" version="1.1" xmlns:dc="http://purl.org/dc/elements/1.1/" xmlns:xl="http://www.w3.org/1999/xlink" viewBox="0 0 850.394 850.394" width="850.394" height="850.394">
  <defs/>
  <metadata> Produced by OmniGraffle 7.9.4 
    <dc:date>2019-03-10 03:44:32 +0000</dc:date>
  </metadata>
  <g id="Instruments" fill="none" stroke-opacity="1" fill-opacity="1" stroke-dasharray="none" stroke="none">
    <title>Instruments</title>
    <g id="Instruments: Contact mic">
      <title>Contact mic</title>
      <g id="Graphic_192">
        <path d="M 565.2509 122.96623 C 678.4517 188.32236 717.237 333.07096 651.8803 446.27143 C 586.5242 559.4722 441.77556 598.2575 328.5751 532.9008 C 215.3743 467.54467 176.58902 322.79606 241.94573 209.5956 C 307.30185 96.39479 452.05046 57.60952 565.2509 122.96623" fill="#ffe89b"/>
        <path d="M 565.2509 122.96623 C 678.4517 188.32236 717.237 333.07096 651.8803 446.27143 C 586.5242 559.4722 441.77556 598.2575 328.5751 532.9008 C 215.3743 467.54467 176.58902 322.79606 241.94573 209.5956 C 307.30185 96.39479 452.05046 57.60952 565.2509 122.96623" stroke="black" stroke-linecap="round" stroke-linejoin="round" stroke-width="8"/>
      </g>
      <g id="Graphic_191">
        <circle cx="446.913" cy="327.9335" r="134.723531470468" fill="white"/>
        <circle cx="446.913" cy="327.9335" r="134.723531470468" stroke="black" stroke-linecap="round" stroke-linejoin="round" stroke-width="7"/>
      </g>
      <g id="Line_190">
        <path d="M 283.56174 435.78685 C 224.19783 476.82163 131.74062 511.6543 105.45218 558.9035 C 79.16375 606.1527 127.88482 684.8327 125.81537 719.3104 C 123.74591 753.788 99.66943 757.7303 93.0342 765.7902 C 86.39897 773.8502 88.3445 767.0468 86 767.675" stroke="black" stroke-linecap="round" stroke-linejoin="round" stroke-width="8"/>
      </g>
      <g id="Line_189">
        <path d="M 417.21157 399.9755 C 357.84766 441.01026 265.39045 475.84295 239.102 523.09214 C 212.81358 570.34134 282.78093 634.5335 259.4652 683.499 C 236.14947 732.4645 105.82889 808.8545 99.19366 816.9144 C 92.55843 824.9744 179.5018 760.2111 219.64983 731.8637" stroke="#ff2c29" stroke-linecap="round" stroke-linejoin="round" stroke-width="8"/>
      </g>
      <g id="Graphic_188">
        <path d="M 282.93667 424.28817 L 282.93667 424.28817 C 289.52526 424.28817 294.86636 429.62927 294.86636 436.21785 L 294.86636 436.21785 C 294.86636 442.80644 289.52526 448.14754 282.93667 448.14754 L 282.93667 448.14754 C 276.3481 448.14754 271.007 442.80644 271.007 436.21785 L 271.007 436.21785 C 271.007 429.62927 276.3481 424.28817 282.93667 424.28817 Z" fill="#d4dfd7"/>
        <path d="M 282.93667 424.28817 L 282.93667 424.28817 C 289.52526 424.28817 294.86636 429.62927 294.86636 436.21785 L 294.86636 436.21785 C 294.86636 442.80644 289.52526 448.14754 282.93667 448.14754 L 282.93667 448.14754 C 276.3481 448.14754 271.007 442.80644 271.007 436.21785 L 271.007 436.21785 C 271.007 429.62927 276.3481 424.28817 282.93667 424.28817 Z" stroke="black" stroke-linecap="round" stroke-linejoin="round" stroke-width="1"/>
      </g>
      <g id="Graphic_187">
        <path d="M 403.40776 389.5486 L 406.43725 388.73687 C 412.83884 387.02157 419.4189 390.82056 421.1342 397.22215 L 421.94594 400.25164 C 423.66124 406.65324 419.86225 413.2333 413.46066 414.9486 C 413.46066 414.9486 413.46066 414.9486 413.46066 414.9486 L 410.43116 415.76033 C 404.02957 417.47563 397.44953 413.67664 395.73423 407.27505 L 394.9225 404.24556 C 393.20718 397.84397 397.00617 391.26392 403.40776 389.5486 Z" fill="#d4dfd7"/>
        <path d="M 403.40776 389.5486 L 406.43725 388.73687 C 412.83884 387.02157 419.4189 390.82056 421.1342 397.22215 L 421.94594 400.25164 C 423.66124 406.65324 419.86225 413.2333 413.46066 414.9486 C 413.46066 414.9486 413.46066 414.9486 413.46066 414.9486 L 410.43116 415.76033 C 404.02957 417.47563 397.44953 413.67664 395.73423 407.27505 L 394.9225 404.24556 C 393.20718 397.84397 397.00617 391.26392 403.40776 389.5486 Z" stroke="black" stroke-linecap="round" stroke-linejoin="round" stroke-width="1"/>
      </g>
      <g id="Line_186">
        <path d="M 397 46 C 456.2541 55.70806 532.6278 55.92517 574.78005 75.12709 C 616.9323 94.32902 620.7745 139.34055 649.93866 161.22308 C 679.1028 183.1056 733.2569 181.7443 749.7825 206.4354 C 766.3082 231.12653 740.2424 278.5543 749.1026 309.3846 C 757.9627 340.21495 785.0018 364.0882 802.9487 391.4359" stroke="black" stroke-linecap="round" stroke-linejoin="round" stroke-width="5"/>
      </g>
      <g id="Line_185">
        <path d="M 495.41165 5.468726 C 554.3537 15.717278 632.7353 19.16575 672.25545 36.21746 C 711.7756 53.26917 709.5027 98.58706 732.5561 107.78921 C 755.60955 116.99136 791.6031 60.83118 810.5897 91.4359 C 829.5764 122.04062 834.5226 224.7759 846.4872 291.4359" stroke="black" stroke-linecap="round" stroke-linejoin="round" stroke-width="5"/>
      </g>
      <g id="Line_184">
        <path d="M 448.50364 25 C 492.94364 28.523203 548.46125 26.605597 581.837 35.570668 C 615.2127 44.53574 629.5492 62.61048 648.778 78.7958 C 668.00686 94.98112 678.0385 118.15546 697.2216 132.6923 C 716.4047 147.22916 744.2321 141.85625 763.8883 166.02564 C 783.5444 190.19503 798.078 240.49438 815.1703 277.72316" stroke="black" stroke-linecap="round" stroke-linejoin="round" stroke-width="5"/>
      </g>
    </g>
  </g>
</svg>
