<?xml version="1.0" encoding="UTF-8" standalone="no"?>
<!DOCTYPE svg PUBLIC "-//W3C//DTD SVG 1.1//EN" "http://www.w3.org/Graphics/SVG/1.1/DTD/svg11.dtd">
<svg xmlns:xl="http://www.w3.org/1999/xlink" xmlns:dc="http://purl.org/dc/elements/1.1/" xmlns="http://www.w3.org/2000/svg" version="1.1" viewBox="0 0 850.394 850.394" width="850.394" height="850.394">
  <defs/>
  <metadata> Produced by OmniGraffle 7.9.4 
    <dc:date>2019-05-02 22:32:27 +0000</dc:date>
  </metadata>
  <g id="Copper_tape" stroke-dasharray="none" fill-opacity="1" stroke="none" fill="none" stroke-opacity="1">
    <title>Copper tape</title>
    <g id="Copper_tape: Layer 1">
      <title>Layer 1</title>
      <g id="Graphic_10">
        <path d="M 694.3419 333.4948 C 589.11514 275.50173 418.509 275.50173 313.28227 333.4948 C 208.05498 391.4876 208.05498 485.51244 313.28227 543.50524 C 418.509 601.4983 589.11514 601.4983 694.3419 543.50524 C 799.5692 485.51244 799.5692 391.4876 694.3419 333.4948 M 638.4781 350.59393 C 717.3986 388.3811 717.3986 449.64613 638.4781 487.4333 C 559.55804 525.22065 431.60345 525.22065 352.6834 487.4333 C 273.76292 449.64613 273.76292 388.3811 352.6834 350.59393 C 431.60345 312.80657 559.55804 312.80657 638.4781 350.59393" fill="#e18904"/>
        <path d="M 694.3419 333.4948 C 589.11514 275.50173 418.509 275.50173 313.28227 333.4948 C 208.05498 391.4876 208.05498 485.51244 313.28227 543.50524 C 418.509 601.4983 589.11514 601.4983 694.3419 543.50524 C 799.5692 485.51244 799.5692 391.4876 694.3419 333.4948 M 638.4781 350.59393 C 717.3986 388.3811 717.3986 449.64613 638.4781 487.4333 C 559.55804 525.22065 431.60345 525.22065 352.6834 487.4333 C 273.76292 449.64613 273.76292 388.3811 352.6834 350.59393 C 431.60345 312.80657 559.55804 312.80657 638.4781 350.59393" stroke="black" stroke-linecap="round" stroke-linejoin="round" stroke-width="7"/>
      </g>
      <g id="Graphic_9">
        <path d="M 694.3419 327.78736 C 589.11514 277.40422 418.509 277.40422 313.28227 327.78736 C 208.05498 378.17025 208.05498 459.85697 313.28227 510.23985 C 418.509 560.623 589.11514 560.623 694.3419 510.23985 C 799.5692 459.85697 799.5692 378.17025 694.3419 327.78736 M 638.4781 380.41806 C 717.3986 411.38254 717.3986 461.58584 638.4781 492.5503 C 559.55804 523.51496 431.60345 523.51496 352.6834 492.5503 C 273.76292 461.58584 273.76292 411.38254 352.6834 380.41806 C 431.60345 349.45342 559.55804 349.45342 638.4781 380.41806" stroke="black" stroke-linecap="round" stroke-linejoin="round" stroke-width="7"/>
      </g>
      <g id="Graphic_11">
        <path d="M 236.66628 397.77473 L 201.5773 437.24983 C 195.68615 443.8774 188.93965 449.6919 181.51527 454.5405 L 61 533.24434 C 61 533.24434 90.5656 565.4977 91.90949 565.4977 C 93.25338 565.4977 190.01353 507.7104 190.01353 507.7104 L 222.17933 464.4876 C 229.23855 455.0018 233.25236 443.59674 233.69 431.78057 L 233.8165 428.36486 C 234.17672 418.6389 236.41552 409.07453 240.40945 400.19913 L 240.40945 400.19913 C 240.9207 399.063 240.41415 397.72754 239.27802 397.2163 C 238.37895 396.8117 237.3213 397.03785 236.66628 397.77473 Z" fill="#e08a05"/>
        <path d="M 236.66628 397.77473 L 201.5773 437.24983 C 195.68615 443.8774 188.93965 449.6919 181.51527 454.5405 L 61 533.24434 C 61 533.24434 90.5656 565.4977 91.90949 565.4977 C 93.25338 565.4977 190.01353 507.7104 190.01353 507.7104 L 222.17933 464.4876 C 229.23855 455.0018 233.25236 443.59674 233.69 431.78057 L 233.8165 428.36486 C 234.17672 418.6389 236.41552 409.07453 240.40945 400.19913 L 240.40945 400.19913 C 240.9207 399.063 240.41415 397.72754 239.27802 397.2163 C 238.37895 396.8117 237.3213 397.03785 236.66628 397.77473 Z" stroke="black" stroke-linecap="round" stroke-linejoin="round" stroke-width="7"/>
      </g>
    </g>
  </g>
</svg>
