<?xml version="1.0" encoding="UTF-8" standalone="no"?>
<!DOCTYPE svg PUBLIC "-//W3C//DTD SVG 1.1//EN" "http://www.w3.org/Graphics/SVG/1.1/DTD/svg11.dtd">
<svg version="1.1" xmlns:xl="http://www.w3.org/1999/xlink" xmlns="http://www.w3.org/2000/svg" xmlns:dc="http://purl.org/dc/elements/1.1/" viewBox="0 0 850.394 850.394" width="850.394" height="850.394">
  <defs>
    <marker orient="auto" overflow="visible" markerUnits="strokeWidth" id="FilledArrow_Marker" stroke-linejoin="miter" stroke-miterlimit="10" viewBox="-1 -2 5 4" markerWidth="5" markerHeight="4" color="black">
      <g>
        <path d="M 2.4 0 L 0 -.9 L 0 .9 Z" fill="currentColor" stroke="currentColor" stroke-width="1"/>
      </g>
    </marker>
  </defs>
  <metadata> Produced by OmniGraffle 7.9.4 
    <dc:date>2019-07-02 12:55:35 +0000</dc:date>
  </metadata>
  <g id="copy_tb" stroke-dasharray="none" stroke="none" fill="none" fill-opacity="1" stroke-opacity="1">
    <title>copy tb</title>
    <g id="copy_tb: Layer 2">
      <title>Layer 2</title>
      <g id="Line_64">
        <path d="M 39.653846 166.13518 L 39.653846 166.13518 C 61.57704 177.5627 88.61315 169.05429 100.04068 147.13109 C 101.35491 144.60979 102.42595 141.969 103.23926 139.24454 L 106.71364 127.60594 C 116.11983 96.09677 149.28828 78.17877 180.79744 87.58495 C 182.85689 88.19974 184.88153 88.92559 186.86249 89.75932 L 217.80658 102.78272" marker-end="url(#FilledArrow_Marker)" stroke="black" stroke-linecap="round" stroke-linejoin="round" stroke-dasharray="8.0,32.0" stroke-width="8"/>
      </g>
      <g id="Line_65">
        <path d="M 475.79876 445.80826 L 475.79876 445.80826 C 497.72196 457.2358 524.75806 448.72737 536.1856 426.8042 C 537.4998 424.28287 538.57086 421.6421 539.3842 418.91763 L 542.85856 407.279 C 552.26475 375.76986 585.4332 357.85185 616.94236 367.25804 C 619.0018 367.87283 621.02645 368.5987 623.0074 369.4324 L 653.9515 382.4558" marker-end="url(#FilledArrow_Marker)" stroke="black" stroke-linecap="round" stroke-linejoin="round" stroke-dasharray="8.0,32.0" stroke-width="8"/>
      </g>
    </g>
    <g id="copy_tb: Layer 1">
      <title>Layer 1</title>
      <g id="Line_47">
        <line x1="277.874" y1="104" x2="737.2222" y2="409.07407" stroke="#f03" stroke-linecap="round" stroke-linejoin="round" stroke-dasharray="36.0,36.0" stroke-width="9"/>
      </g>
      <g id="Line_68">
        <line x1="239.65385" y1="112.84615" x2="653.6885" y2="382.3975" stroke="#ffa5bd" stroke-linecap="round" stroke-linejoin="round" stroke-dasharray="8.0,8.0" stroke-width="2"/>
      </g>
      <g id="Line_67">
        <line x1="133" y1="99.00905" x2="563.6885" y2="377.40655" stroke="#ffa5bd" stroke-linecap="round" stroke-linejoin="round" stroke-dasharray="8.0,8.0" stroke-width="2"/>
      </g>
      <g id="Line_66">
        <line x1="39.734544" y1="166.13518" x2="470.4231" y2="444.5327" stroke="#ffa5bd" stroke-linecap="round" stroke-linejoin="round" stroke-dasharray="8.0,8.0" stroke-width="2"/>
      </g>
      <g id="Graphic_60">
        <path d="M 264.8604 211.79776 C 259.77378 198.17335 264.35614 199.56743 268.96418 185.7738 C 273.5722 171.9801 273.2088 172.87237 273.2088 172.87237 L 278.8757 156.0979 C 278.8757 156.0979 275.57314 173.54859 280.65974 187.17307 C 285.74637 200.79748 287.0221 197.69773 282.41406 211.49136 C 277.80605 225.28506 269.947 225.42224 264.8604 211.79776 Z" fill="#ffff40"/>
        <path d="M 264.8604 211.79776 C 259.77378 198.17335 264.35614 199.56743 268.96418 185.7738 C 273.5722 171.9801 273.2088 172.87237 273.2088 172.87237 L 278.8757 156.0979 C 278.8757 156.0979 275.57314 173.54859 280.65974 187.17307 C 285.74637 200.79748 287.0221 197.69773 282.41406 211.49136 C 277.80605 225.28506 269.947 225.42224 264.8604 211.79776 Z" stroke="black" stroke-linecap="round" stroke-linejoin="round" stroke-width="8"/>
      </g>
      <g id="Graphic_63">
        <path d="M 302.84445 83.49612 C 289.40525 70.05685 267.61603 70.05685 254.17683 83.49612 C 240.73756 96.93531 240.73756 118.72454 254.17683 132.16374 C 267.61603 145.603 289.40525 145.603 302.84445 132.16374 C 316.28372 118.72454 316.28372 96.93531 302.84445 83.49612 M 290.5416 95.79897 C 297.18616 102.44348 297.18616 113.21637 290.5416 119.86089 C 283.8971 126.50544 273.1242 126.50544 266.47968 119.86089 C 259.83513 113.21637 259.83513 102.44348 266.47968 95.79897 C 273.1242 89.15441 283.8971 89.15441 290.5416 95.79897" fill="yellow"/>
        <path d="M 302.84445 83.49612 C 289.40525 70.05685 267.61603 70.05685 254.17683 83.49612 C 240.73756 96.93531 240.73756 118.72454 254.17683 132.16374 C 267.61603 145.603 289.40525 145.603 302.84445 132.16374 C 316.28372 118.72454 316.28372 96.93531 302.84445 83.49612 M 290.5416 95.79897 C 297.18616 102.44348 297.18616 113.21637 290.5416 119.86089 C 283.8971 126.50544 273.1242 126.50544 266.47968 119.86089 C 259.83513 113.21637 259.83513 102.44348 266.47968 95.79897 C 273.1242 89.15441 283.8971 89.15441 290.5416 95.79897" stroke="black" stroke-linecap="round" stroke-linejoin="round" stroke-width="9"/>
      </g>
      <g id="Graphic_62">
        <path d="M 358.53964 29.07847 C 357.3272 43.229846 353.113 39.200364 341.46378 47.32604 C 329.81453 55.45179 330.63787 54.96769 330.63787 54.96769 L 316.40383 64.80925 C 316.40383 64.80925 328.44246 52.92313 329.65495 38.77171 C 330.86737 24.620333 327.99297 26.29371 339.6422 18.168033 C 351.29145 10.042283 359.7521 14.92705 358.53964 29.07847 Z" fill="#ffff40"/>
        <path d="M 358.53964 29.07847 C 357.3272 43.229846 353.113 39.200364 341.46378 47.32604 C 329.81453 55.45179 330.63787 54.96769 330.63787 54.96769 L 316.40383 64.80925 C 316.40383 64.80925 328.44246 52.92313 329.65495 38.77171 C 330.86737 24.620333 327.99297 26.29371 339.6422 18.168033 C 351.29145 10.042283 359.7521 14.92705 358.53964 29.07847 Z" stroke="black" stroke-linecap="round" stroke-linejoin="round" stroke-width="8"/>
      </g>
      <g id="Graphic_61">
        <path d="M 376.4047 112.08268 C 367.7469 119.2304 367.6727 114.71193 356.601 112.85071 C 345.52927 110.98953 346.2609 111.17084 346.2609 111.17084 L 332.7817 108.8486 C 332.7817 108.8486 346.19145 108.84706 354.84927 101.69936 C 363.50704 94.55164 360.9622 93.90943 372.0339 95.77065 C 383.10563 97.63184 385.0625 104.93498 376.4047 112.08268 Z" fill="#ffff40"/>
        <path d="M 376.4047 112.08268 C 367.7469 119.2304 367.6727 114.71193 356.601 112.85071 C 345.52927 110.98953 346.2609 111.17084 346.2609 111.17084 L 332.7817 108.8486 C 332.7817 108.8486 346.19145 108.84706 354.84927 101.69936 C 363.50704 94.55164 360.9622 93.90943 372.0339 95.77065 C 383.10563 97.63184 385.0625 104.93498 376.4047 112.08268 Z" stroke="black" stroke-linecap="round" stroke-linejoin="round" stroke-width="8"/>
      </g>
      <g id="Graphic_59">
        <path d="M 190.18828 142.5071 C 198.09753 131.95202 199.40625 136.82596 212.50185 135.25389 C 225.59748 133.68176 224.7163 133.72243 224.7163 133.72243 L 240.67477 131.86955 C 240.67477 131.86955 225.42495 136.21888 217.51564 146.77397 C 209.60639 157.32905 212.67453 157.20012 199.57893 158.7722 C 186.4833 160.34432 182.27896 153.06219 190.18828 142.5071 Z" fill="#ffff40"/>
        <path d="M 190.18828 142.5071 C 198.09753 131.95202 199.40625 136.82596 212.50185 135.25389 C 225.59748 133.68176 224.7163 133.72243 224.7163 133.72243 L 240.67477 131.86955 C 240.67477 131.86955 225.42495 136.21888 217.51564 146.77397 C 209.60639 157.32905 212.67453 157.20012 199.57893 158.7722 C 186.4833 160.34432 182.27896 153.06219 190.18828 142.5071 Z" stroke="black" stroke-linecap="round" stroke-linejoin="round" stroke-width="8"/>
      </g>
      <g id="Graphic_58">
        <path d="M 193.92501 56.96078 C 209.43917 56.342035 206.7775 60.118196 219.90378 68.41112 C 233.03013 76.70405 232.1983 76.10788 232.1983 76.10788 L 248.14452 86.25058 C 248.14452 86.25058 230.8698 78.06901 215.35557 78.68771 C 199.84142 79.30646 202.72768 81.38964 189.6014 73.09671 C 176.47505 64.803786 178.4108 57.57949 193.92501 56.96078 Z" fill="#ffff40"/>
        <path d="M 193.92501 56.96078 C 209.43917 56.342035 206.7775 60.118196 219.90378 68.41112 C 233.03013 76.70405 232.1983 76.10788 232.1983 76.10788 L 248.14452 86.25058 C 248.14452 86.25058 230.8698 78.06901 215.35557 78.68771 C 199.84142 79.30646 202.72768 81.38964 189.6014 73.09671 C 176.47505 64.803786 178.4108 57.57949 193.92501 56.96078 Z" stroke="black" stroke-linecap="round" stroke-linejoin="round" stroke-width="8"/>
      </g>
      <g id="Graphic_57">
        <path d="M 257.17864 18.066221 C 266.36337 24.6479 262.0138 25.88163 263.12133 37.126678 C 264.22892 48.37176 264.21212 47.61367 264.21212 47.61367 L 265.50605 61.31841 C 265.50605 61.31841 261.98342 48.2786 252.7987 41.696864 C 243.61396 35.115185 243.6612 37.754995 242.55368 26.50995 C 241.4461 15.264868 247.9939 11.484484 257.17864 18.066221 Z" fill="#ffff40"/>
        <path d="M 257.17864 18.066221 C 266.36337 24.6479 262.0138 25.88163 263.12133 37.126678 C 264.22892 48.37176 264.21212 47.61367 264.21212 47.61367 L 265.50605 61.31841 C 265.50605 61.31841 261.98342 48.2786 252.7987 41.696864 C 243.61396 35.115185 243.6612 37.754995 242.55368 26.50995 C 241.4461 15.264868 247.9939 11.484484 257.17864 18.066221 Z" stroke="black" stroke-linecap="round" stroke-linejoin="round" stroke-width="8"/>
      </g>
      <g id="Graphic_56">
        <path d="M 329.2716 220.60615 C 317.05353 215.72266 321.42005 213.19444 316.53657 200.97635 C 311.65302 188.75825 311.9188 189.5973 311.9188 189.5973 L 306.02837 174.69185 C 306.02837 174.69185 314.1455 188.26539 326.3636 193.14894 C 338.58167 198.03242 337.66852 195.10767 342.552 207.32575 C 347.43556 219.54386 341.48973 225.4897 329.2716 220.60615 Z" fill="#ffff40"/>
        <path d="M 329.2716 220.60615 C 317.05353 215.72266 321.42005 213.19444 316.53657 200.97635 C 311.65302 188.75825 311.9188 189.5973 311.9188 189.5973 L 306.02837 174.69185 C 306.02837 174.69185 314.1455 188.26539 326.3636 193.14894 C 338.58167 198.03242 337.66852 195.10767 342.552 207.32575 C 347.43556 219.54386 341.48973 225.4897 329.2716 220.60615 Z" stroke="black" stroke-linecap="round" stroke-linejoin="round" stroke-width="8"/>
      </g>
      <g id="Graphic_55">
        <path d="M 766.7452 362.47324 C 747.97295 343.70092 717.5372 343.70092 698.765 362.47324 C 679.99265 381.24546 679.99265 411.6812 698.765 430.45344 C 717.5372 449.22576 747.97295 449.22576 766.7452 430.45344 C 785.5175 411.6812 785.5175 381.24546 766.7452 362.47324 M 749.5602 379.6582 C 758.8415 388.9394 758.8415 403.98726 749.5602 413.2685 C 740.279 422.5498 725.2311 422.5498 715.9499 413.2685 C 706.6686 403.98726 706.6686 388.9394 715.9499 379.6582 C 725.2311 370.3769 740.279 370.3769 749.5602 379.6582" fill="yellow"/>
        <path d="M 766.7452 362.47324 C 747.97295 343.70092 717.5372 343.70092 698.765 362.47324 C 679.99265 381.24546 679.99265 411.6812 698.765 430.45344 C 717.5372 449.22576 747.97295 449.22576 766.7452 430.45344 C 785.5175 411.6812 785.5175 381.24546 766.7452 362.47324 M 749.5602 379.6582 C 758.8415 388.9394 758.8415 403.98726 749.5602 413.2685 C 740.279 422.5498 725.2311 422.5498 715.9499 413.2685 C 706.6686 403.98726 706.6686 388.9394 715.9499 379.6582 C 725.2311 370.3769 740.279 370.3769 749.5602 379.6582" stroke="black" stroke-linecap="round" stroke-linejoin="round" stroke-width="9"/>
      </g>
      <g id="Line_46">
        <line x1="183.51368" y1="275.8028" x2="566.02054" y2="730.0518" stroke="#f03" stroke-linecap="round" stroke-linejoin="round" stroke-dasharray="36.0,36.0" stroke-width="9"/>
      </g>
      <g id="Graphic_8">
        <path d="M 278.15333 98.48723 L 266.59863 106.96068 L 257.0981 127.24561 L 247.084 141.88157 L 232.96159 159.08525 L 213.36713 185.12587 L 214.22144 153.36647 L 207.47727 136.42759 L 193.1081 139.84099 L 190.72469 156.52489 L 189.53298 172.01709 L 184.76615 187.50928 L 175.95836 210.95305 L 176.98544 229.4406 L 178.01253 242.27915 L 181.60733 263.3344 L 179.58133 275.12413 L 170.46566 295.95466 L 160.073 313.4325 L 206.43006 350.6329 L 239.37265 358.3465 L 245.54323 331.70588 L 250.93558 316.74283 L 259.40903 297.48498 L 276.6127 277.20005 L 290.47836 264.87503 L 300.7492 249.9823 L 309.29957 233.98587 L 308.10786 225.04807 L 295.87055 215.8317 L 294.5867 204.79054 L 284.46337 197.39937 L 278.96964 193.35788 L 272.9525 181.55075 L 253.88518 177.97562 L 264.28768 160.62588 L 275.8424 139.31386 L 282.7752 124.6779 L 286.6268 113.12319 L 285.85647 103.10911 Z" fill="#d79130"/>
        <path d="M 278.15333 98.48723 L 266.59863 106.96068 L 257.0981 127.24561 L 247.084 141.88157 L 232.96159 159.08525 L 213.36713 185.12587 L 214.22144 153.36647 L 207.47727 136.42759 L 193.1081 139.84099 L 190.72469 156.52489 L 189.53298 172.01709 L 184.76615 187.50928 L 175.95836 210.95305 L 176.98544 229.4406 L 178.01253 242.27915 L 181.60733 263.3344 L 179.58133 275.12413 L 170.46566 295.95466 L 160.073 313.4325 L 206.43006 350.6329 L 239.37265 358.3465 L 245.54323 331.70588 L 250.93558 316.74283 L 259.40903 297.48498 L 276.6127 277.20005 L 290.47836 264.87503 L 300.7492 249.9823 L 309.29957 233.98587 L 308.10786 225.04807 L 295.87055 215.8317 L 294.5867 204.79054 L 284.46337 197.39937 L 278.96964 193.35788 L 272.9525 181.55075 L 253.88518 177.97562 L 264.28768 160.62588 L 275.8424 139.31386 L 282.7752 124.6779 L 286.6268 113.12319 L 285.85647 103.10911 Z" stroke="black" stroke-linecap="round" stroke-linejoin="round" stroke-width="6"/>
      </g>
      <g id="Line_7">
        <path d="M 215.71806 181.97774 L 215.71806 181.97774 C 214.46322 183.8605 213.32176 185.8164 212.29978 187.83504 L 203.60374 205.0116" stroke="black" stroke-linecap="round" stroke-linejoin="round" stroke-width="5"/>
      </g>
      <g id="Line_6">
        <path d="M 278.92365 193.74938 L 275.08916 200.53154 C 274.3663 201.8101 273.59672 203.06168 272.782 204.28375 L 268.52538 210.6687" stroke="black" stroke-linecap="round" stroke-linejoin="round" stroke-width="5"/>
      </g>
      <g id="Line_5">
        <path d="M 254.3279 177.22663 L 254.3279 177.22663 C 252.75488 181.2407 250.69003 185.04416 248.18064 188.54989 L 246.28698 191.19541" stroke="black" stroke-linecap="round" stroke-linejoin="round" stroke-width="5"/>
      </g>
      <g id="Line_4">
        <path d="M 296.955 217.4297 L 296.8842 217.60144 C 295.18866 221.71492 293.04082 225.62704 290.48032 229.26565 L 284.1337 238.28454" stroke="black" stroke-linecap="round" stroke-linejoin="round" stroke-width="5"/>
      </g>
      <g id="Graphic_3">
        <path d="M 233.8702 340.45165 C 246.43116 354.6597 241.5477 363.11806 222.9627 359.34397 C 204.37777 355.56995 179.12913 340.99264 166.56827 326.78462 C 154.0073 312.5766 158.89075 304.1182 177.47576 307.8923 C 196.0607 311.6663 221.30934 326.24363 233.8702 340.45165" fill="black"/>
        <path d="M 233.8702 340.45165 C 246.43116 354.6597 241.5477 363.11806 222.9627 359.34397 C 204.37777 355.56995 179.12913 340.99264 166.56827 326.78462 C 154.0073 312.5766 158.89075 304.1182 177.47576 307.8923 C 196.0607 311.6663 221.30934 326.24363 233.8702 340.45165" stroke="black" stroke-linecap="round" stroke-linejoin="round" stroke-width="7"/>
      </g>
      <g id="Graphic_39">
        <path d="M 732.0216 391.68017 L 713.1385 405.52773 L 697.6125 438.67793 L 681.2472 462.59644 L 658.1679 490.7112 L 626.1461 533.2675 L 627.5423 481.3654 L 616.52075 453.6834 L 593.03824 459.26165 L 589.1432 486.52696 L 587.1957 511.84474 L 579.4056 537.1625 L 565.01165 575.475 L 566.69014 605.68784 L 568.36863 626.669 L 574.24335 661.0781 L 570.9324 680.3452 L 556.0353 714.387 L 539.05136 742.9498 L 614.8094 803.7437 L 668.6451 816.3495 L 678.7292 772.8127 L 687.5415 748.3596 L 701.3891 716.8879 L 729.5038 683.7377 L 752.1635 663.5958 L 768.9484 639.2577 L 782.9216 613.1159 L 780.9741 598.50946 L 760.9755 583.4478 L 758.8774 565.40405 L 742.3336 553.3252 L 733.3556 546.7205 L 723.5222 527.4249 L 692.36186 521.58235 L 709.3619 493.2289 L 728.24496 458.4002 L 739.5748 434.4817 L 745.8691 415.5987 L 744.61025 399.2334 Z" fill="#ad7526"/>
        <path d="M 732.0216 391.68017 L 713.1385 405.52773 L 697.6125 438.67793 L 681.2472 462.59644 L 658.1679 490.7112 L 626.1461 533.2675 L 627.5423 481.3654 L 616.52075 453.6834 L 593.03824 459.26165 L 589.1432 486.52696 L 587.1957 511.84474 L 579.4056 537.1625 L 565.01165 575.475 L 566.69014 605.68784 L 568.36863 626.669 L 574.24335 661.0781 L 570.9324 680.3452 L 556.0353 714.387 L 539.05136 742.9498 L 614.8094 803.7437 L 668.6451 816.3495 L 678.7292 772.8127 L 687.5415 748.3596 L 701.3891 716.8879 L 729.5038 683.7377 L 752.1635 663.5958 L 768.9484 639.2577 L 782.9216 613.1159 L 780.9741 598.50946 L 760.9755 583.4478 L 758.8774 565.40405 L 742.3336 553.3252 L 733.3556 546.7205 L 723.5222 527.4249 L 692.36186 521.58235 L 709.3619 493.2289 L 728.24496 458.4002 L 739.5748 434.4817 L 745.8691 415.5987 L 744.61025 399.2334 Z" stroke="black" stroke-linecap="round" stroke-linejoin="round" stroke-width="6"/>
      </g>
      <g id="Line_40">
        <path d="M 629.9881 528.1227 L 629.9881 528.1227 C 627.9374 531.19957 626.072 534.39596 624.4018 537.6949 L 610.1905 565.7653" stroke="black" stroke-linecap="round" stroke-linejoin="round" stroke-width="5"/>
      </g>
      <g id="Line_41">
        <path d="M 733.2804 547.36026 L 726.3261 559.6606 C 725.6032 560.9392 724.8336 562.19076 724.0189 563.4128 L 716.2873 575.0103" stroke="black" stroke-linecap="round" stroke-linejoin="round" stroke-width="5"/>
      </g>
      <g id="Line_42">
        <path d="M 693.08535 520.3583 L 691.94044 523.2799 C 690.1301 527.8996 687.75375 532.27687 684.8658 536.3115 L 679.9447 543.1865" stroke="black" stroke-linecap="round" stroke-linejoin="round" stroke-width="5"/>
      </g>
      <g id="Line_43">
        <path d="M 762.7478 586.0593 L 761.014 590.26545 C 759.3185 594.3789 757.1706 598.29105 754.6101 601.92965 L 741.7948 620.1409" stroke="black" stroke-linecap="round" stroke-linejoin="round" stroke-width="5"/>
      </g>
      <g id="Graphic_44">
        <path d="M 659.6528 787.1052 C 680.1803 810.3244 672.1996 824.1473 641.8275 817.9796 C 611.45546 811.812 570.1934 787.9894 549.6661 764.7702 C 529.1386 741.551 537.1193 727.7281 567.4914 733.8958 C 597.86345 740.06345 639.1255 763.8861 659.6528 787.1052" fill="black"/>
        <path d="M 659.6528 787.1052 C 680.1803 810.3244 672.1996 824.1473 641.8275 817.9796 C 611.45546 811.812 570.1934 787.9894 549.6661 764.7702 C 529.1386 741.551 537.1193 727.7281 567.4914 733.8958 C 597.86345 740.06345 639.1255 763.8861 659.6528 787.1052" stroke="black" stroke-linecap="round" stroke-linejoin="round" stroke-width="7"/>
      </g>
      <g id="Line_45">
        <line x1="290.38385" y1="268.9729" x2="581.0378" y2="521.65667" stroke="#f03" stroke-linecap="round" stroke-linejoin="round" stroke-dasharray="36.0,36.0" stroke-width="9"/>
      </g>
      <g id="Graphic_54">
        <path d="M 807.2074 315.07847 C 805.995 329.22985 801.7808 325.20036 790.1316 333.32604 C 778.4823 341.4518 779.3057 340.9677 779.3057 340.9677 L 765.0716 350.80925 C 765.0716 350.80925 777.1103 338.92313 778.32275 324.7717 C 779.5352 310.62033 776.6608 312.2937 788.31 304.16803 C 799.9593 296.0423 808.4199 300.92705 807.2074 315.07847 Z" fill="#ffff40"/>
        <path d="M 807.2074 315.07847 C 805.995 329.22985 801.7808 325.20036 790.1316 333.32604 C 778.4823 341.4518 779.3057 340.9677 779.3057 340.9677 L 765.0716 350.80925 C 765.0716 350.80925 777.1103 338.92313 778.32275 324.7717 C 779.5352 310.62033 776.6608 312.2937 788.31 304.16803 C 799.9593 296.0423 808.4199 300.92705 807.2074 315.07847 Z" stroke="black" stroke-linecap="round" stroke-linejoin="round" stroke-width="8"/>
      </g>
      <g id="Graphic_53">
        <path d="M 833.5712 412.63173 C 824.9134 419.77944 824.8392 415.261 813.7675 413.39976 C 802.6958 411.5386 803.4274 411.7199 803.4274 411.7199 L 789.9482 409.39765 C 789.9482 409.39765 803.3579 409.3961 812.01575 402.2484 C 820.6735 395.1007 818.1287 394.4585 829.2004 396.3197 C 840.2721 398.1809 842.229 405.48403 833.5712 412.63173 Z" fill="#ffff40"/>
        <path d="M 833.5712 412.63173 C 824.9134 419.77944 824.8392 415.261 813.7675 413.39976 C 802.6958 411.5386 803.4274 411.7199 803.4274 411.7199 L 789.9482 409.39765 C 789.9482 409.39765 803.3579 409.3961 812.01575 402.2484 C 820.6735 395.1007 818.1287 394.4585 829.2004 396.3197 C 840.2721 398.1809 842.229 405.48403 833.5712 412.63173 Z" stroke="black" stroke-linecap="round" stroke-linejoin="round" stroke-width="8"/>
      </g>
      <g id="Graphic_52">
        <path d="M 691.5238 498.34896 C 691.0565 482.26955 694.81635 484.99197 703.2607 471.30044 C 711.7051 457.6088 711.0992 458.47716 711.0992 458.47716 L 721.42605 441.8436 C 721.42605 441.8436 713.0524 459.83527 713.5196 475.91474 C 713.9869 491.99415 716.1041 488.98104 707.6597 502.67257 C 699.2153 516.3642 691.991 514.42844 691.5238 498.34896 Z" fill="#ffff40"/>
        <path d="M 691.5238 498.34896 C 691.0565 482.26955 694.81635 484.99197 703.2607 471.30044 C 711.7051 457.6088 711.0992 458.47716 711.0992 458.47716 L 721.42605 441.8436 C 721.42605 441.8436 713.0524 459.83527 713.5196 475.91474 C 713.9869 491.99415 716.1041 488.98104 707.6597 502.67257 C 699.2153 516.3642 691.991 514.42844 691.5238 498.34896 Z" stroke="black" stroke-linecap="round" stroke-linejoin="round" stroke-width="8"/>
      </g>
      <g id="Graphic_51">
        <path d="M 605.4627 424.52014 C 614.8188 409.74366 617.19265 417.18564 634.6675 416.47126 C 652.1424 415.7568 650.9584 415.70764 650.9584 415.70764 L 672.2614 414.93097 C 672.2614 414.93097 652.22605 419.5242 642.8699 434.3007 C 633.5138 449.0772 637.6378 449.2673 620.1629 449.9817 C 602.688 450.69614 596.1065 439.2966 605.4627 424.52014 Z" fill="#ffff40"/>
        <path d="M 605.4627 424.52014 C 614.8188 409.74366 617.19265 417.18564 634.6675 416.47126 C 652.1424 415.7568 650.9584 415.70764 650.9584 415.70764 L 672.2614 414.93097 C 672.2614 414.93097 652.22605 419.5242 642.8699 434.3007 C 633.5138 449.0772 637.6378 449.2673 620.1629 449.9817 C 602.688 450.69614 596.1065 439.2966 605.4627 424.52014 Z" stroke="black" stroke-linecap="round" stroke-linejoin="round" stroke-width="8"/>
      </g>
      <g id="Graphic_50">
        <path d="M 642.5928 342.9608 C 658.107 342.34203 655.4453 346.1182 668.5716 354.41112 C 681.6979 362.70405 680.8661 362.1079 680.8661 362.1079 L 696.8123 372.2506 C 696.8123 372.2506 679.5376 364.069 664.0234 364.6877 C 648.5092 365.30646 651.3955 367.38964 638.2692 359.0967 C 625.14285 350.8038 627.0786 343.5795 642.5928 342.9608 Z" fill="#ffff40"/>
        <path d="M 642.5928 342.9608 C 658.107 342.34203 655.4453 346.1182 668.5716 354.41112 C 681.6979 362.70405 680.8661 362.1079 680.8661 362.1079 L 696.8123 372.2506 C 696.8123 372.2506 679.5376 364.069 664.0234 364.6877 C 648.5092 365.30646 651.3955 367.38964 638.2692 359.0967 C 625.14285 350.8038 627.0786 343.5795 642.5928 342.9608 Z" stroke="black" stroke-linecap="round" stroke-linejoin="round" stroke-width="8"/>
      </g>
      <g id="Graphic_49">
        <path d="M 696.4942 296.10686 C 707.5466 305.9235 702.9963 306.8095 705.9715 321.28953 C 708.9468 335.7696 708.8094 334.80253 708.8094 334.80253 L 712.3745 352.44107 C 712.3745 352.44107 706.48295 335.2982 695.4305 325.48147 C 684.37805 315.6648 684.84445 319.0306 681.8692 304.5506 C 678.8939 290.0705 685.4417 286.29013 696.4942 296.10686 Z" fill="#ffff40"/>
        <path d="M 696.4942 296.10686 C 707.5466 305.9235 702.9963 306.8095 705.9715 321.28953 C 708.9468 335.7696 708.8094 334.80253 708.8094 334.80253 L 712.3745 352.44107 C 712.3745 352.44107 706.48295 335.2982 695.4305 325.48147 C 684.37805 315.6648 684.84445 319.0306 681.8692 304.5506 C 678.8939 290.0705 685.4417 286.29013 696.4942 296.10686 Z" stroke="black" stroke-linecap="round" stroke-linejoin="round" stroke-width="8"/>
      </g>
      <g id="Graphic_48">
        <path d="M 777.9394 506.60615 C 765.7213 501.72266 770.0879 499.19444 765.2044 486.97635 C 760.3208 474.75825 760.5866 475.5973 760.5866 475.5973 L 754.6962 460.69185 C 754.6962 460.69185 762.8133 474.2654 775.0314 479.14894 C 787.2495 484.0324 786.3363 481.1077 791.2198 493.32575 C 796.1034 505.54386 790.1575 511.4897 777.9394 506.60615 Z" fill="#ffff40"/>
        <path d="M 777.9394 506.60615 C 765.7213 501.72266 770.0879 499.19444 765.2044 486.97635 C 760.3208 474.75825 760.5866 475.5973 760.5866 475.5973 L 754.6962 460.69185 C 754.6962 460.69185 762.8133 474.2654 775.0314 479.14894 C 787.2495 484.0324 786.3363 481.1077 791.2198 493.32575 C 796.1034 505.54386 790.1575 511.4897 777.9394 506.60615 Z" stroke="black" stroke-linecap="round" stroke-linejoin="round" stroke-width="8"/>
      </g>
    </g>
  </g>
</svg>
