<?xml version="1.0" encoding="UTF-8" standalone="no"?>
<!DOCTYPE svg PUBLIC "-//W3C//DTD SVG 1.1//EN" "http://www.w3.org/Graphics/SVG/1.1/DTD/svg11.dtd">
<svg version="1.1" xmlns:xl="http://www.w3.org/1999/xlink" xmlns="http://www.w3.org/2000/svg" xmlns:dc="http://purl.org/dc/elements/1.1/" viewBox="0 0 850.394 850.394" width="850.394" height="850.394">
  <defs/>
  <metadata> Produced by OmniGraffle 7.9.4 
    <dc:date>2019-07-01 19:26:34 +0000</dc:date>
  </metadata>
  <g id="crescendo" stroke-dasharray="none" stroke="none" fill="none" fill-opacity="1" stroke-opacity="1">
    <title>crescendo</title>
    <g id="crescendo: Layer 1">
      <title>Layer 1</title>
      <g id="Line_2">
        <line x1="59" y1="435.07153" x2="703.48485" y2="76.88971" stroke="black" stroke-linecap="round" stroke-linejoin="round" stroke-width="14"/>
      </g>
      <g id="Line_3">
        <path d="M 59 435.07153 L 709.9124 773.5043 L 709.9124 773.5043" stroke="black" stroke-linecap="round" stroke-linejoin="round" stroke-width="14"/>
      </g>
      <g id="Graphic_7">
        <path d="M 99.24509 415 C 94.65212 428.93125 97.10632 445.36917 106.60768 456.6216 C 119.41785 471.7928 140.18723 471.7928 152.9974 456.6216 C 162.49877 445.36917 164.95297 428.93125 160.36 415 C 163.0525 427.3839 160.3047 441.08416 152.1166 450.7813 C 139.79288 465.3764 119.81221 465.3764 107.4885 450.7813 C 99.3004 441.08416 96.55259 427.3839 99.24508 415 Z" fill="#999"/>
        <path d="M 99.24509 415 C 94.65212 428.93125 97.10632 445.36917 106.60768 456.6216 C 119.41785 471.7928 140.18723 471.7928 152.9974 456.6216 C 162.49877 445.36917 164.95297 428.93125 160.36 415 C 163.0525 427.3839 160.3047 441.08416 152.1166 450.7813 C 139.79288 465.3764 119.81221 465.3764 107.4885 450.7813 C 99.3004 441.08416 96.55259 427.3839 99.24508 415 Z" stroke="#a5a5a5" stroke-linecap="round" stroke-linejoin="round" stroke-width="7"/>
      </g>
      <g id="Graphic_6">
        <path d="M 222.88333 416 C 227.4763 402.06875 225.0221 385.63083 215.52073 374.3784 C 202.71056 359.2072 181.94118 359.2072 169.131 374.3784 C 159.62964 385.63083 157.17545 402.06875 161.76841 416 C 159.07592 403.6161 161.82372 389.91584 170.01182 380.2187 C 182.33553 365.6236 202.3162 365.6236 214.63992 380.2187 C 222.82802 389.91584 225.57582 403.6161 222.88333 416 Z" fill="#999"/>
        <path d="M 222.88333 416 C 227.4763 402.06875 225.0221 385.63083 215.52073 374.3784 C 202.71056 359.2072 181.94118 359.2072 169.131 374.3784 C 159.62964 385.63083 157.17545 402.06875 161.76841 416 C 159.07592 403.6161 161.82372 389.91584 170.01182 380.2187 C 182.33553 365.6236 202.3162 365.6236 214.63992 380.2187 C 222.82802 389.91584 225.57582 403.6161 222.88333 416 Z" stroke="#a5a5a5" stroke-linecap="round" stroke-linejoin="round" stroke-width="7"/>
      </g>
      <g id="Graphic_5">
        <path d="M 223.10059 401.1079 C 218.50762 432.53473 220.96182 469.6162 230.46318 495 C 243.27335 529.224 264.04273 529.224 276.8529 495 C 286.35427 469.6162 288.80846 432.53473 284.2155 401.1079 C 286.908 429.04417 284.1602 459.9499 275.9721 481.8252 C 263.64838 514.74953 243.6677 514.74953 231.344 481.8252 C 223.1559 459.9499 220.4081 429.04417 223.10058 401.1079 Z" fill="#999"/>
        <path d="M 223.10059 401.1079 C 218.50762 432.53473 220.96182 469.6162 230.46318 495 C 243.27335 529.224 264.04273 529.224 276.8529 495 C 286.35427 469.6162 288.80846 432.53473 284.2155 401.1079 C 286.908 429.04417 284.1602 459.9499 275.9721 481.8252 C 263.64838 514.74953 243.6677 514.74953 231.344 481.8252 C 223.1559 459.9499 220.4081 429.04417 223.10058 401.1079 Z" stroke="#a5a5a5" stroke-linecap="round" stroke-linejoin="round" stroke-width="7"/>
      </g>
      <g id="Graphic_4">
        <path d="M 345.7549 404.5601 C 350.34788 376.81323 347.8937 344.07383 338.3923 321.66237 C 325.58215 291.44588 304.81277 291.44588 292.0026 321.66237 C 282.50123 344.07383 280.04703 376.81323 284.64 404.5601 C 281.9475 379.89506 284.6953 352.60827 292.8834 333.29448 C 305.20712 304.22545 325.1878 304.22545 337.5115 333.29448 C 345.6996 352.60827 348.4474 379.89506 345.7549 404.5601 Z" fill="#999"/>
        <path d="M 345.7549 404.5601 C 350.34788 376.81323 347.8937 344.07383 338.3923 321.66237 C 325.58215 291.44588 304.81277 291.44588 292.0026 321.66237 C 282.50123 344.07383 280.04703 376.81323 284.64 404.5601 C 281.9475 379.89506 284.6953 352.60827 292.8834 333.29448 C 305.20712 304.22545 325.1878 304.22545 337.5115 333.29448 C 345.6996 352.60827 348.4474 379.89506 345.7549 404.5601 Z" stroke="#a5a5a5" stroke-linecap="round" stroke-linejoin="round" stroke-width="7"/>
      </g>
      <g id="Graphic_10">
        <path d="M 347.2148 364.43105 C 342.6218 425.03697 345.076 496.5478 354.57738 545.4999 C 367.38755 611.50004 388.15693 611.50004 400.9671 545.4999 C 410.46847 496.5478 412.92266 425.03697 408.3297 364.43105 C 411.0222 418.3055 408.2744 477.9065 400.0863 520.0925 C 387.76258 583.58635 367.7819 583.58635 355.4582 520.0925 C 347.2701 477.9065 344.5223 418.3055 347.2148 364.43105 Z" fill="#999"/>
        <path d="M 347.2148 364.43105 C 342.6218 425.03697 345.076 496.5478 354.57738 545.4999 C 367.38755 611.50004 388.15693 611.50004 400.9671 545.4999 C 410.46847 496.5478 412.92266 425.03697 408.3297 364.43105 C 411.0222 418.3055 408.2744 477.9065 400.0863 520.0925 C 387.76258 583.58635 367.7819 583.58635 355.4582 520.0925 C 347.2701 477.9065 344.5223 418.3055 347.2148 364.43105 Z" stroke="#a5a5a5" stroke-linecap="round" stroke-linejoin="round" stroke-width="7"/>
      </g>
      <g id="Graphic_11">
        <path d="M 469.8691 368.94225 C 474.4621 332.6836 472.0079 289.9009 462.5065 260.6144 C 449.69634 221.12854 428.92696 221.12854 416.1168 260.6144 C 406.61543 289.9009 404.16123 332.6836 408.7542 368.94225 C 406.0617 336.71084 408.8095 301.0534 416.9976 275.81482 C 429.3213 237.82843 449.302 237.82843 461.6257 275.81482 C 469.8138 301.0534 472.5616 336.71084 469.8691 368.94225 Z" fill="#999"/>
        <path d="M 469.8691 368.94225 C 474.4621 332.6836 472.0079 289.9009 462.5065 260.6144 C 449.69634 221.12854 428.92696 221.12854 416.1168 260.6144 C 406.61543 289.9009 404.16123 332.6836 408.7542 368.94225 C 406.0617 336.71084 408.8095 301.0534 416.9976 275.81482 C 429.3213 237.82843 449.302 237.82843 461.6257 275.81482 C 469.8138 301.0534 472.5616 336.71084 469.8691 368.94225 Z" stroke="#a5a5a5" stroke-linecap="round" stroke-linejoin="round" stroke-width="7"/>
      </g>
      <g id="Graphic_14">
        <path d="M 471.78405 363 C 466.2601 440.279 469.21177 531.4629 480.639 593.88206 C 496.04575 678.0393 521.025 678.0393 536.4317 593.88206 C 547.85896 531.4629 550.8106 440.279 545.2867 363 C 548.5249 431.69565 545.22015 507.6933 535.37237 561.485 C 520.5507 642.4464 496.52003 642.4464 481.69836 561.485 C 471.8506 507.6933 468.5458 431.69565 471.78405 363 Z" fill="#999"/>
        <path d="M 471.78405 363 C 466.2601 440.279 469.21177 531.4629 480.639 593.88206 C 496.04575 678.0393 521.025 678.0393 536.4317 593.88206 C 547.85896 531.4629 550.8106 440.279 545.2867 363 C 548.5249 431.69565 545.22015 507.6933 535.37237 561.485 C 520.5507 642.4464 496.52003 642.4464 481.69836 561.485 C 471.8506 507.6933 468.5458 431.69565 471.78405 363 Z" stroke="#a5a5a5" stroke-linecap="round" stroke-linejoin="round" stroke-width="7"/>
      </g>
      <g id="Graphic_15">
        <path d="M 623.16296 372.94225 C 628.9669 317.23243 625.86565 251.49868 613.8591 206.50122 C 597.6713 145.83293 571.42575 145.83293 555.23796 206.50122 C 543.2314 251.49868 540.1301 317.23243 545.9341 372.94225 C 542.5317 323.4201 546.004 268.63402 556.351 229.85602 C 571.9241 171.4916 597.173 171.4916 612.74604 229.85602 C 623.0931 268.63402 626.5654 323.4201 623.16296 372.94225 Z" fill="#999"/>
        <path d="M 623.16296 372.94225 C 628.9669 317.23243 625.86565 251.49868 613.8591 206.50122 C 597.6713 145.83293 571.42575 145.83293 555.23796 206.50122 C 543.2314 251.49868 540.1301 317.23243 545.9341 372.94225 C 542.5317 323.4201 546.004 268.63402 556.351 229.85602 C 571.9241 171.4916 597.173 171.4916 612.74604 229.85602 C 623.0931 268.63402 626.5654 323.4201 623.16296 372.94225 Z" stroke="#a5a5a5" stroke-linecap="round" stroke-linejoin="round" stroke-width="7"/>
      </g>
      <g id="Graphic_16">
        <path d="M 624.76076 371 C 619.2368 467.2045 622.1885 580.71915 633.6157 658.4246 C 649.02246 763.1918 674.0017 763.1918 689.4084 658.4246 C 700.8357 580.71915 703.7873 467.2045 698.2634 371 C 701.5016 456.5191 698.1969 551.1284 688.3491 618.0935 C 673.5274 718.8822 649.49675 718.8822 634.6751 618.0935 C 624.8273 551.1284 621.5225 456.5191 624.76076 371 Z" fill="#999"/>
        <path d="M 624.76076 371 C 619.2368 467.2045 622.1885 580.71915 633.6157 658.4246 C 649.02246 763.1918 674.0017 763.1918 689.4084 658.4246 C 700.8357 580.71915 703.7873 467.2045 698.2634 371 C 701.5016 456.5191 698.1969 551.1284 688.3491 618.0935 C 673.5274 718.8822 649.49675 718.8822 634.6751 618.0935 C 624.8273 551.1284 621.5225 456.5191 624.76076 371 Z" stroke="#a5a5a5" stroke-linecap="round" stroke-linejoin="round" stroke-width="7"/>
      </g>
      <g id="Graphic_17">
        <path d="M 772.2766 380.94224 C 777.8005 302.1013 774.8488 209.0744 763.4216 145.39366 C 748.0149 59.53545 723.0356 59.53545 707.6289 145.39366 C 696.20164 209.0744 693.25 302.1013 698.7739 380.94224 C 695.5357 310.85813 698.84045 233.32446 708.6882 178.44555 C 723.5099 95.84778 747.5406 95.84778 762.3622 178.44555 C 772.21 233.32446 775.5148 310.85813 772.2766 380.94225 Z" fill="#999"/>
        <path d="M 772.2766 380.94224 C 777.8005 302.1013 774.8488 209.0744 763.4216 145.39366 C 748.0149 59.53545 723.0356 59.53545 707.6289 145.39366 C 696.20164 209.0744 693.25 302.1013 698.7739 380.94224 C 695.5357 310.85813 698.84045 233.32446 708.6882 178.44555 C 723.5099 95.84778 747.5406 95.84778 762.3622 178.44555 C 772.21 233.32446 775.5148 310.85813 772.2766 380.94225 Z" stroke="#a5a5a5" stroke-linecap="round" stroke-linejoin="round" stroke-width="7"/>
      </g>
    </g>
  </g>
</svg>
