<?xml version="1.0" encoding="UTF-8" standalone="no"?>
<!DOCTYPE svg PUBLIC "-//W3C//DTD SVG 1.1//EN" "http://www.w3.org/Graphics/SVG/1.1/DTD/svg11.dtd">
<svg xmlns="http://www.w3.org/2000/svg" version="1.1" xmlns:dc="http://purl.org/dc/elements/1.1/" xmlns:xl="http://www.w3.org/1999/xlink" viewBox="0 0 850.394 850.394" width="850.394" height="850.394">
  <defs/>
  <metadata> Produced by OmniGraffle 7.9.4 
    <dc:date>2019-03-12 10:40:03 +0000</dc:date>
  </metadata>
  <g id="deck" fill="none" stroke-opacity="1" fill-opacity="1" stroke-dasharray="none" stroke="none">
    <title>deck</title>
    <g id="deck: Layer 1">
      <title>Layer 1</title>
      <g id="Graphic_2">
        <path d="M 51 667.5 L 51 253.05 L 127.17846 207 L 812.7846 207 L 812.7846 621.45 L 736.6061 667.5 Z" fill="#666"/>
        <path d="M 51 667.5 L 51 253.05 L 127.17846 207 L 812.7846 207 L 812.7846 621.45 L 736.6061 667.5 L 51 667.5 M 51 253.05 L 736.6061 253.05 L 812.7846 207 M 736.6061 253.05 L 736.6061 667.5" stroke="black" stroke-linecap="round" stroke-linejoin="round" stroke-width="11"/>
      </g>
      <g id="Graphic_4">
        <path d="M 215.4706 616 L 215.4706 508 L 226.9906 496 L 330.6706 496 L 330.6706 604 L 319.1506 616 Z" fill="#999"/>
        <path d="M 215.4706 616 L 215.4706 508 L 226.9906 496 L 330.6706 496 L 330.6706 604 L 319.1506 616 L 215.4706 616 M 215.4706 508 L 319.1506 508 L 330.6706 496 M 319.1506 508 L 319.1506 616" stroke="black" stroke-linecap="round" stroke-linejoin="round" stroke-width="5"/>
      </g>
      <g id="Graphic_5">
        <path d="M 355.9797 616 L 355.9797 508 L 367.4997 496 L 471.1797 496 L 471.1797 604 L 459.6597 616 Z" fill="#999"/>
        <path d="M 355.9797 616 L 355.9797 508 L 367.4997 496 L 471.1797 496 L 471.1797 604 L 459.6597 616 L 355.9797 616 M 355.9797 508 L 459.6597 508 L 471.1797 496 M 459.6597 508 L 459.6597 616" stroke="black" stroke-linecap="round" stroke-linejoin="round" stroke-width="5"/>
      </g>
      <g id="Graphic_3">
        <path d="M 377.79786 526.54545 L 449.3615 562.3273 L 377.79786 598.1091 Z" fill="lime"/>
        <path d="M 377.79786 526.54545 L 449.3615 562.3273 L 377.79786 598.1091 Z" stroke="black" stroke-linecap="round" stroke-linejoin="round" stroke-width="8"/>
      </g>
      <g id="Graphic_6">
        <circle cx="267.9369" cy="562.3273" r="35.7818753576533" fill="red"/>
        <circle cx="267.9369" cy="562.3273" r="35.7818753576533" stroke="black" stroke-linecap="round" stroke-linejoin="round" stroke-width="8"/>
      </g>
      <g id="Graphic_8">
        <rect x="183.41176" y="316" width="502" height="120" fill="black"/>
        <rect x="183.41176" y="316" width="502" height="120" stroke="#9d9d9d" stroke-linecap="round" stroke-linejoin="round" stroke-width="6"/>
      </g>
      <g id="Graphic_7">
        <path d="M 206.69376 408.8896 L 228.17807 379.13087 C 228.17807 379.13087 255.44663 358.50265 255.44663 358.1645 C 255.44663 357.8263 281.06255 344.97596 281.06255 344.97596 L 297.58895 363.237 C 297.58895 363.237 316.5943 373.7202 318.24695 381.49804 C 319.8996 389.2759 347.16815 398.4064 347.16815 398.4064 C 347.16815 398.4064 366.1735 388.2614 366.1735 386.9087 C 366.1735 385.55605 364.52087 375.7492 366.1735 371.6912 C 367.82615 367.63318 378.5683 358.1645 381.8736 357.8263 C 385.17887 357.48815 411.6211 354.44464 412.44743 354.7828 C 413.27375 355.121 419.058 353.43014 419.8843 357.15 C 420.71063 360.86983 439.716 385.2179 439.716 385.8942 C 439.716 386.57055 430.62647 408.21327 452.1108 397.05375 C 473.5951 385.8942 476.07407 381.8362 476.07407 381.8362 C 476.07407 381.8362 466.1582 363.57517 467.81087 354.7828 C 469.4635 345.99046 513.25847 333.47826 514.0848 333.47826 C 514.9111 333.47826 539.7007 334.49276 540.527 335.1691 C 541.35334 335.84543 559.5324 360.53166 559.5324 364.92784 C 559.5324 369.324 571.9272 386.57055 572.7535 391.98123 C 573.5798 397.3919 582.66934 397.3919 585.9746 397.3919 C 589.2799 397.3919 604.15366 384.54155 604.98 384.54155 C 605.8063 384.54155 616.54846 379.46904 617.3748 379.46904 C 618.2011 379.46904 645.4697 377.7782 645.4697 377.7782 L 656.2118 379.13087 L 647.9486 380.14537 L 628.94326 380.14537 C 628.94326 380.14537 618.2011 384.2034 617.3748 384.2034 C 616.54846 384.2034 608.28526 390.96673 608.28526 390.96673 L 598.3694 398.4064 L 579.36406 401.4499 C 579.36406 401.4499 562.83766 397.7301 562.83766 397.3919 C 562.83766 397.05375 562.01134 384.2034 562.01134 384.2034 L 551.2692 368.98585 C 551.2692 368.98585 545.48494 360.1935 544.6586 359.51716 C 543.8323 358.84082 535.5691 345.6523 535.5691 345.31412 C 535.5691 344.97596 525.65327 340.91795 524.82695 340.57978 C 524.0006 340.2416 509.12687 341.2561 509.12687 341.2561 L 489.2952 347.34313 L 479.37935 354.7828 L 479.37935 361.88433 C 479.37935 361.88433 485.1636 371.353 485.9899 371.353 C 486.8162 371.353 486.8162 384.54155 486.8162 384.54155 C 486.8162 384.54155 485.1636 389.2759 483.51095 389.61406 C 481.8583 389.95223 467.81087 398.06825 467.81087 398.4064 C 467.81087 398.7446 452.1108 404.8316 451.28447 404.8316 C 450.45815 404.8316 441.36863 404.8316 441.36863 404.8316 L 427.3212 403.14076 L 424.0159 389.95223 C 424.0159 389.95223 422.36327 383.52705 422.36327 383.1889 C 422.36327 382.8507 413.27375 371.01485 413.27375 371.01485 L 402.5316 358.84082 L 393.44207 362.56066 C 393.44207 362.56066 384.35255 372.02935 383.52623 372.02935 C 382.6999 372.02935 379.39463 378.45454 379.39463 378.7927 C 379.39463 379.13087 379.39463 390.2904 379.39463 390.2904 L 371.95775 397.05375 L 355.43135 404.8316 L 339.73127 406.8606 C 339.73127 406.8606 327.33647 398.4064 325.68383 398.4064 C 324.0312 398.4064 306.67847 389.2759 306.67847 389.2759 L 296.76263 382.51254 L 291.8047 373.04386 L 280.23623 364.2515 L 280.23623 355.121 L 268.66775 358.1645 C 268.66775 358.1645 267.0151 365.266 266.1888 365.60417 C 265.36247 365.94234 252.14135 377.10187 251.31503 377.10187 C 250.4887 377.10187 206.69376 408.8896 206.69376 408.8896 Z" fill="lime"/>
      </g>
      <g id="Graphic_10">
        <path d="M 88.47059 616 L 88.47059 508 L 99.99059 496 L 203.6706 496 L 203.6706 604 L 192.15059 616 Z" fill="#999"/>
        <path d="M 88.47059 616 L 88.47059 508 L 99.99059 496 L 203.6706 496 L 203.6706 604 L 192.15059 616 L 88.47059 616 M 88.47059 508 L 192.15059 508 L 203.6706 496 M 192.15059 508 L 192.15059 616" stroke="black" stroke-linecap="round" stroke-linejoin="round" stroke-width="5"/>
      </g>
      <g id="Graphic_9">
        <rect x="110.22791" y="531.7863" width="61.081894" height="61.081894" fill="blue"/>
        <rect x="110.22791" y="531.7863" width="61.081894" height="61.081894" stroke="black" stroke-linecap="round" stroke-linejoin="round" stroke-width="8"/>
      </g>
    </g>
  </g>
</svg>
