<?xml version="1.0" encoding="UTF-8" standalone="no"?>
<!DOCTYPE svg PUBLIC "-//W3C//DTD SVG 1.1//EN" "http://www.w3.org/Graphics/SVG/1.1/DTD/svg11.dtd">
<svg xmlns="http://www.w3.org/2000/svg" xmlns:xl="http://www.w3.org/1999/xlink" xmlns:dc="http://purl.org/dc/elements/1.1/" version="1.1" viewBox="0 0 850.394 850.394" width="850.394" height="850.394">
  <defs/>
  <metadata> Produced by OmniGraffle 7.9.4 
    <dc:date>2019-08-27 03:42:46 +0000</dc:date>
  </metadata>
  <g id="detune" stroke="none" fill="none" fill-opacity="1" stroke-opacity="1" stroke-dasharray="none">
    <title>detune</title>
    <g id="detune: Layer 1">
      <title>Layer 1</title>
      <g id="Graphic_23">
        <path d="M 35 126 L 44 42 L 45 116 L 62 57 L 64 122 C 64 122 75 63 75 65 C 75 67 82 130 82 130 L 102 121 L 134 308 L 147 268 L 160 605 L 168 518 L 175 575 L 193 341 L 195 371 L 202 128 L 214 211 L 241 21 L 241 97 L 259 31 L 260 83 L 280 49 L 301 146 L 309 69 L 336 525 C 336 525 351 456 351 455 C 351 454 351 603 351 604 C 351 605 358 682 358 682 L 363 592 L 369 642 L 385 267 L 392 365 C 392 365 418 122 418 121 C 418 120 418 201 418 201 C 418 201 433 58 433 57 C 433 56 452 105 452 105 L 474 55 L 478 124 L 497 46 L 506 196 L 532 152 L 532 379 L 541 308 L 548 598 L 555 556 L 562 645 L 567 506 L 576 545 L 588 348 L 598 392 L 603 167 L 605 196 L 628 62 L 632 130 L 668 50 C 668 50 671 102 671 103 C 671 104 698 76 698 76 L 698 124 L 711 111 L 719 289 L 740 226 L 734 475 L 750 404 L 750 637 L 774 376 C 774 376 776 462 776 460 C 776 458 805 236 805 236 L 816 336 L 842 245 L 840 365 L 821 709 L 812 643 L 786 748 L 785 708 L 758 758 L 754 741 L 741 756 C 741 756 724 730 724 729 C 724 728 716 756 716 756 L 698 605 L 687 652 L 681 362 L 675 413 L 661 218 L 649 344 L 643 298 L 631 504 L 624 481 L 604 660 L 597 618 L 583 743 L 579 726 L 564 776 L 564 733 L 534 784 L 517 659 L 505 712 L 497 481 L 483 554 L 483 285 L 469 333 L 464 195 L 449 355 L 441 297 L 431 564 L 424 476 L 411 711 L 405 633 L 389 802 L 384 739 L 371 833 L 367 754 L 354 798 L 335 721 L 333 771 L 304 528 L 293 604 L 285 314 L 285 344 L 264 200 L 263 365 L 253 288 L 243 535 L 231 467 C 231 467 214 621 215 621 C 216 621 188 821 188 821 L 162 824 L 141 746 L 101 580 L 87 734 L 87 275 L 75 241 L 61 376 L 23 494 L 18 263 Z" fill="#c0ffff"/>
        <path d="M 35 126 L 44 42 L 45 116 L 62 57 L 64 122 C 64 122 75 63 75 65 C 75 67 82 130 82 130 L 102 121 L 134 308 L 147 268 L 160 605 L 168 518 L 175 575 L 193 341 L 195 371 L 202 128 L 214 211 L 241 21 L 241 97 L 259 31 L 260 83 L 280 49 L 301 146 L 309 69 L 336 525 C 336 525 351 456 351 455 C 351 454 351 603 351 604 C 351 605 358 682 358 682 L 363 592 L 369 642 L 385 267 L 392 365 C 392 365 418 122 418 121 C 418 120 418 201 418 201 C 418 201 433 58 433 57 C 433 56 452 105 452 105 L 474 55 L 478 124 L 497 46 L 506 196 L 532 152 L 532 379 L 541 308 L 548 598 L 555 556 L 562 645 L 567 506 L 576 545 L 588 348 L 598 392 L 603 167 L 605 196 L 628 62 L 632 130 L 668 50 C 668 50 671 102 671 103 C 671 104 698 76 698 76 L 698 124 L 711 111 L 719 289 L 740 226 L 734 475 L 750 404 L 750 637 L 774 376 C 774 376 776 462 776 460 C 776 458 805 236 805 236 L 816 336 L 842 245 L 840 365 L 821 709 L 812 643 L 786 748 L 785 708 L 758 758 L 754 741 L 741 756 C 741 756 724 730 724 729 C 724 728 716 756 716 756 L 698 605 L 687 652 L 681 362 L 675 413 L 661 218 L 649 344 L 643 298 L 631 504 L 624 481 L 604 660 L 597 618 L 583 743 L 579 726 L 564 776 L 564 733 L 534 784 L 517 659 L 505 712 L 497 481 L 483 554 L 483 285 L 469 333 L 464 195 L 449 355 L 441 297 L 431 564 L 424 476 L 411 711 L 405 633 L 389 802 L 384 739 L 371 833 L 367 754 L 354 798 L 335 721 L 333 771 L 304 528 L 293 604 L 285 314 L 285 344 L 264 200 L 263 365 L 253 288 L 243 535 L 231 467 C 231 467 214 621 215 621 C 216 621 188 821 188 821 L 162 824 L 141 746 L 101 580 L 87 734 L 87 275 L 75 241 L 61 376 L 23 494 L 18 263 Z" stroke="#c5fdf0" stroke-linecap="round" stroke-linejoin="round" stroke-width="3"/>
      </g>
      <g id="Graphic_19">
        <path d="M 41.76359 424.04894 L 45.149003 361.55203 C 45.154234 361.45547 45.16024 361.35895 45.16703 361.2625 L 52.24886 260.59637 C 52.29206 259.98233 52.366724 259.3709 52.47257 258.76452 L 62.50596 201.28153 C 62.629296 200.5749 62.79476 199.8763 63.00147 199.18942 L 73.4264 164.54822 C 73.4264 164.54822 87.38226 165.86942 87.7401 165.86942 C 88.09794 165.86942 97.04401 209.46906 97.04401 209.46906 L 104.20086 247.7839 C 104.20086 247.7839 109.21065 324.41356 109.56849 325.73476 C 109.92634 327.05596 115.65181 408.97042 116.00966 412.93403 C 116.3675 416.89763 120.66161 490.8849 121.01945 493.5273 C 121.3773 496.1697 128.53414 593.9386 128.89199 596.581 C 129.24983 599.2234 140.34294 677.17425 140.70079 678.49545 C 141.05863 679.81665 153.58312 735.3071 153.94096 736.6283 C 154.2988 737.9495 167.18113 731.3435 167.53897 731.3435 C 167.89681 731.3435 179.34777 698.3135 179.34777 698.3135 C 179.34777 698.3135 193.66147 607.1506 194.01931 605.8294 C 194.37716 604.5082 205.47027 537.1269 205.82812 534.4845 C 206.18596 531.8421 215.13202 459.17607 215.13202 459.17607 L 219.02048 426.5472 C 219.05235 426.2798 219.0782 426.0117 219.09805 425.74315 L 224.2578 355.89137 C 224.3615 354.48744 223.46415 353.204 222.10995 352.81938 L 222.10995 352.81938 C 221.03135 352.51305 219.90865 353.1391 219.60232 354.2177 C 219.57015 354.33097 219.5479 354.44683 219.5358 354.56397 L 216.92123 379.904 C 216.92123 379.904 214.0585 422.18244 213.70065 422.18244 C 213.3428 422.18244 209.0487 460.49727 209.0487 461.81847 C 209.0487 463.13967 206.5438 497.4909 206.18596 498.8121 C 205.82812 500.1333 200.46048 547.69654 200.10264 549.01774 C 199.7448 550.33894 195.80853 578.08416 195.45068 579.4054 C 195.09284 580.7266 187.2203 632.2534 187.2203 632.2534 L 181.20008 663.6333 C 181.15802 663.8526 181.11188 664.071 181.0617 664.2886 L 173.94373 695.1395 C 173.26536 698.07974 171.79257 700.7772 169.68603 702.9377 L 166.66271 706.03835 C 166.5312 706.1732 166.3976 706.306 166.26192 706.4367 L 158.23507 714.1679 C 158.23507 714.1679 151.7939 704.9195 151.7939 703.5983 C 151.7939 702.2771 144.63705 671.88944 144.63705 670.56824 C 144.63705 669.24704 141.05863 636.217 141.05863 636.217 C 141.05863 636.217 136.76452 584.6902 136.76452 583.369 C 136.76452 582.0478 129.96551 515.9877 129.96551 515.9877 C 129.96551 515.9877 127.81846 473.7093 127.46062 473.7093 C 127.10277 473.7093 123.52435 424.82484 123.52435 424.82484 L 121.03611 372.32827 C 121.025 372.09398 121.00932 371.8599 120.98907 371.62623 L 115.29397 305.91674 C 115.29397 305.91674 110.99986 239.85669 110.99986 237.21428 C 110.99986 234.57188 103.12733 180.40264 103.12733 180.40264 L 93.64128 156.24834 C 93.04973 154.74207 92.25775 153.32245 91.28676 152.02786 L 85.25225 143.98223 C 82.12953 139.8188 76.48537 138.468 71.81611 140.7666 L 63.76466 144.7302 C 63.76466 144.7302 54.10291 183.04504 53.74507 183.04504 C 53.387226 183.04504 47.661746 242.4991 47.661746 242.4991 C 47.661746 242.4991 43.367637 311.20154 43.009794 311.20154 C 42.65195 311.20154 38 390.4736 38 390.4736 L 38 412.8022 C 38 413.7693 38.077943 414.73486 38.233073 415.68945 L 39.61029 424.16424 C 39.70636 424.7554 40.26349 425.1568 40.854666 425.0607 C 41.357756 424.97895 41.73602 424.5579 41.76359 424.04894 Z" fill="#999"/>
        <path d="M 41.76359 424.04894 L 45.149003 361.55203 C 45.154234 361.45547 45.16024 361.35895 45.16703 361.2625 L 52.24886 260.59637 C 52.29206 259.98233 52.366724 259.3709 52.47257 258.76452 L 62.50596 201.28153 C 62.629296 200.5749 62.79476 199.8763 63.00147 199.18942 L 73.4264 164.54822 C 73.4264 164.54822 87.38226 165.86942 87.7401 165.86942 C 88.09794 165.86942 97.04401 209.46906 97.04401 209.46906 L 104.20086 247.7839 C 104.20086 247.7839 109.21065 324.41356 109.56849 325.73476 C 109.92634 327.05596 115.65181 408.97042 116.00966 412.93403 C 116.3675 416.89763 120.66161 490.8849 121.01945 493.5273 C 121.3773 496.1697 128.53414 593.9386 128.89199 596.581 C 129.24983 599.2234 140.34294 677.17425 140.70079 678.49545 C 141.05863 679.81665 153.58312 735.3071 153.94096 736.6283 C 154.2988 737.9495 167.18113 731.3435 167.53897 731.3435 C 167.89681 731.3435 179.34777 698.3135 179.34777 698.3135 C 179.34777 698.3135 193.66147 607.1506 194.01931 605.8294 C 194.37716 604.5082 205.47027 537.1269 205.82812 534.4845 C 206.18596 531.8421 215.13202 459.17607 215.13202 459.17607 L 219.02048 426.5472 C 219.05235 426.2798 219.0782 426.0117 219.09805 425.74315 L 224.2578 355.89137 C 224.3615 354.48744 223.46415 353.204 222.10995 352.81938 L 222.10995 352.81938 C 221.03135 352.51305 219.90865 353.1391 219.60232 354.2177 C 219.57015 354.33097 219.5479 354.44683 219.5358 354.56397 L 216.92123 379.904 C 216.92123 379.904 214.0585 422.18244 213.70065 422.18244 C 213.3428 422.18244 209.0487 460.49727 209.0487 461.81847 C 209.0487 463.13967 206.5438 497.4909 206.18596 498.8121 C 205.82812 500.1333 200.46048 547.69654 200.10264 549.01774 C 199.7448 550.33894 195.80853 578.08416 195.45068 579.4054 C 195.09284 580.7266 187.2203 632.2534 187.2203 632.2534 L 181.20008 663.6333 C 181.15802 663.8526 181.11188 664.071 181.0617 664.2886 L 173.94373 695.1395 C 173.26536 698.07974 171.79257 700.7772 169.68603 702.9377 L 166.66271 706.03835 C 166.5312 706.1732 166.3976 706.306 166.26192 706.4367 L 158.23507 714.1679 C 158.23507 714.1679 151.7939 704.9195 151.7939 703.5983 C 151.7939 702.2771 144.63705 671.88944 144.63705 670.56824 C 144.63705 669.24704 141.05863 636.217 141.05863 636.217 C 141.05863 636.217 136.76452 584.6902 136.76452 583.369 C 136.76452 582.0478 129.96551 515.9877 129.96551 515.9877 C 129.96551 515.9877 127.81846 473.7093 127.46062 473.7093 C 127.10277 473.7093 123.52435 424.82484 123.52435 424.82484 L 121.03611 372.32827 C 121.025 372.09398 121.00932 371.8599 120.98907 371.62623 L 115.29397 305.91674 C 115.29397 305.91674 110.99986 239.85669 110.99986 237.21428 C 110.99986 234.57188 103.12733 180.40264 103.12733 180.40264 L 93.64128 156.24834 C 93.04973 154.74207 92.25775 153.32245 91.28676 152.02786 L 85.25225 143.98223 C 82.12953 139.8188 76.48537 138.468 71.81611 140.7666 L 63.76466 144.7302 C 63.76466 144.7302 54.10291 183.04504 53.74507 183.04504 C 53.387226 183.04504 47.661746 242.4991 47.661746 242.4991 C 47.661746 242.4991 43.367637 311.20154 43.009794 311.20154 C 42.65195 311.20154 38 390.4736 38 390.4736 L 38 412.8022 C 38 413.7693 38.077943 414.73486 38.233073 415.68945 L 39.61029 424.16424 C 39.70636 424.7554 40.26349 425.1568 40.854666 425.0607 C 41.357756 424.97895 41.73602 424.5579 41.76359 424.04894 Z" stroke="#a5a5a5" stroke-linecap="round" stroke-linejoin="round" stroke-width="3"/>
      </g>
      <g id="Graphic_20">
        <path d="M 215.2671 430.52265 L 224.67014 361.9971 C 224.7241 361.60392 224.76502 361.2091 224.79287 360.81323 L 231.8431 260.59637 C 231.8863 259.98233 231.96096 259.3709 232.0668 258.76452 L 242.1002 201.28153 C 242.22353 200.5749 242.389 199.8763 242.5957 199.18942 L 253.02064 164.54822 C 253.02064 164.54822 266.9765 165.86942 267.33434 165.86942 C 267.69218 165.86942 276.63824 209.46906 276.63824 209.46906 L 283.7951 247.7839 C 283.7951 247.7839 288.8049 324.41356 289.16273 325.73476 C 289.52057 327.05596 295.24605 408.97042 295.6039 412.93403 C 295.96174 416.89763 300.25585 490.8849 300.6137 493.5273 C 300.97153 496.1697 308.12838 593.9386 308.48622 596.581 C 308.84407 599.2234 319.9372 677.17425 320.29502 678.49545 C 320.65287 679.81665 333.17735 735.3071 333.5352 736.6283 C 333.89304 737.9495 346.77537 731.3435 347.1332 731.3435 C 347.49105 731.3435 358.942 698.3135 358.942 698.3135 C 358.942 698.3135 373.2557 607.1506 373.61355 605.8294 C 373.9714 604.5082 385.0645 537.1269 385.42235 534.4845 C 385.7802 531.8421 394.72626 459.17607 394.72626 459.17607 L 398.6147 426.5472 C 398.6466 426.2798 398.67245 426.0117 398.6923 425.74315 L 403.85204 355.89137 C 403.95574 354.48744 403.0584 353.204 401.7042 352.81938 L 401.7042 352.81938 C 400.6256 352.51305 399.5029 353.1391 399.19656 354.2177 C 399.1644 354.33097 399.14213 354.44683 399.13004 354.56397 L 396.51547 379.904 C 396.51547 379.904 393.65273 422.18244 393.2949 422.18244 C 392.93704 422.18244 388.64294 460.49727 388.64294 461.81847 C 388.64294 463.13967 386.13804 497.4909 385.7802 498.8121 C 385.42235 500.1333 380.0547 547.69654 379.69687 549.01774 C 379.33903 550.33894 375.40276 578.08416 375.0449 579.4054 C 374.6871 580.7266 366.81454 632.2534 366.81454 632.2534 L 360.79432 663.6333 C 360.75226 663.8526 360.70612 664.071 360.65593 664.2886 L 353.53797 695.1395 C 352.8596 698.07974 351.3868 700.7772 349.28026 702.9377 L 346.25695 706.03835 C 346.12545 706.1732 345.99183 706.306 345.85616 706.4367 L 337.8293 714.1679 C 337.8293 714.1679 331.38814 704.9195 331.38814 703.5983 C 331.38814 702.2771 324.2313 671.88944 324.2313 670.56824 C 324.2313 669.24704 320.65287 636.217 320.65287 636.217 C 320.65287 636.217 316.35876 584.6902 316.35876 583.369 C 316.35876 582.0478 309.55975 515.9877 309.55975 515.9877 C 309.55975 515.9877 307.4127 473.7093 307.05485 473.7093 C 306.697 473.7093 303.1186 424.82484 303.1186 424.82484 L 300.63035 372.32827 C 300.61924 372.09398 300.60356 371.8599 300.5833 371.62623 L 294.8882 305.91674 C 294.8882 305.91674 290.5941 239.85669 290.5941 237.21428 C 290.5941 234.57188 282.72157 180.40264 282.72157 180.40264 L 273.23552 156.24834 C 272.64396 154.74207 271.852 153.32245 270.881 152.02786 L 264.8465 143.98223 C 261.72377 139.8188 256.0796 138.468 251.41035 140.7666 L 243.3589 144.7302 C 243.3589 144.7302 233.69715 183.04504 233.3393 183.04504 C 232.98146 183.04504 227.25598 242.4991 227.25598 242.4991 C 227.25598 242.4991 222.96187 311.20154 222.60403 311.20154 C 222.2462 311.20154 217.59424 390.4736 217.59424 390.4736 L 217.59424 413.00013 C 217.59424 413.83585 217.53604 414.67055 217.42006 415.4982 L 215.31368 430.5291 C 215.31187 430.542 215.3 430.55094 215.28713 430.54914 C 215.2743 430.54734 215.26533 430.5355 215.2671 430.52265 Z" fill="#999"/>
        <path d="M 215.2671 430.52265 L 224.67014 361.9971 C 224.7241 361.60392 224.76502 361.2091 224.79287 360.81323 L 231.8431 260.59637 C 231.8863 259.98233 231.96096 259.3709 232.0668 258.76452 L 242.1002 201.28153 C 242.22353 200.5749 242.389 199.8763 242.5957 199.18942 L 253.02064 164.54822 C 253.02064 164.54822 266.9765 165.86942 267.33434 165.86942 C 267.69218 165.86942 276.63824 209.46906 276.63824 209.46906 L 283.7951 247.7839 C 283.7951 247.7839 288.8049 324.41356 289.16273 325.73476 C 289.52057 327.05596 295.24605 408.97042 295.6039 412.93403 C 295.96174 416.89763 300.25585 490.8849 300.6137 493.5273 C 300.97153 496.1697 308.12838 593.9386 308.48622 596.581 C 308.84407 599.2234 319.9372 677.17425 320.29502 678.49545 C 320.65287 679.81665 333.17735 735.3071 333.5352 736.6283 C 333.89304 737.9495 346.77537 731.3435 347.1332 731.3435 C 347.49105 731.3435 358.942 698.3135 358.942 698.3135 C 358.942 698.3135 373.2557 607.1506 373.61355 605.8294 C 373.9714 604.5082 385.0645 537.1269 385.42235 534.4845 C 385.7802 531.8421 394.72626 459.17607 394.72626 459.17607 L 398.6147 426.5472 C 398.6466 426.2798 398.67245 426.0117 398.6923 425.74315 L 403.85204 355.89137 C 403.95574 354.48744 403.0584 353.204 401.7042 352.81938 L 401.7042 352.81938 C 400.6256 352.51305 399.5029 353.1391 399.19656 354.2177 C 399.1644 354.33097 399.14213 354.44683 399.13004 354.56397 L 396.51547 379.904 C 396.51547 379.904 393.65273 422.18244 393.2949 422.18244 C 392.93704 422.18244 388.64294 460.49727 388.64294 461.81847 C 388.64294 463.13967 386.13804 497.4909 385.7802 498.8121 C 385.42235 500.1333 380.0547 547.69654 379.69687 549.01774 C 379.33903 550.33894 375.40276 578.08416 375.0449 579.4054 C 374.6871 580.7266 366.81454 632.2534 366.81454 632.2534 L 360.79432 663.6333 C 360.75226 663.8526 360.70612 664.071 360.65593 664.2886 L 353.53797 695.1395 C 352.8596 698.07974 351.3868 700.7772 349.28026 702.9377 L 346.25695 706.03835 C 346.12545 706.1732 345.99183 706.306 345.85616 706.4367 L 337.8293 714.1679 C 337.8293 714.1679 331.38814 704.9195 331.38814 703.5983 C 331.38814 702.2771 324.2313 671.88944 324.2313 670.56824 C 324.2313 669.24704 320.65287 636.217 320.65287 636.217 C 320.65287 636.217 316.35876 584.6902 316.35876 583.369 C 316.35876 582.0478 309.55975 515.9877 309.55975 515.9877 C 309.55975 515.9877 307.4127 473.7093 307.05485 473.7093 C 306.697 473.7093 303.1186 424.82484 303.1186 424.82484 L 300.63035 372.32827 C 300.61924 372.09398 300.60356 371.8599 300.5833 371.62623 L 294.8882 305.91674 C 294.8882 305.91674 290.5941 239.85669 290.5941 237.21428 C 290.5941 234.57188 282.72157 180.40264 282.72157 180.40264 L 273.23552 156.24834 C 272.64396 154.74207 271.852 153.32245 270.881 152.02786 L 264.8465 143.98223 C 261.72377 139.8188 256.0796 138.468 251.41035 140.7666 L 243.3589 144.7302 C 243.3589 144.7302 233.69715 183.04504 233.3393 183.04504 C 232.98146 183.04504 227.25598 242.4991 227.25598 242.4991 C 227.25598 242.4991 222.96187 311.20154 222.60403 311.20154 C 222.2462 311.20154 217.59424 390.4736 217.59424 390.4736 L 217.59424 413.00013 C 217.59424 413.83585 217.53604 414.67055 217.42006 415.4982 L 215.31368 430.5291 C 215.31187 430.542 215.3 430.55094 215.28713 430.54914 C 215.2743 430.54734 215.26533 430.5355 215.2671 430.52265 Z" stroke="#a5a5a5" stroke-linecap="round" stroke-linejoin="round" stroke-width="3"/>
      </g>
      <g id="Graphic_21">
        <path d="M 400.7036 414.24594 L 404.089 351.74903 C 404.0942 351.65247 404.10023 351.55595 404.107 351.4595 L 411.18885 250.79337 C 411.23205 250.17933 411.3067 249.5679 411.41256 248.96152 L 421.44595 191.47853 C 421.5693 190.7719 421.73475 190.0733 421.94146 189.38642 L 432.3664 154.74522 C 432.3664 154.74522 446.32225 156.06642 446.6801 156.06642 C 447.03793 156.06642 455.984 199.66606 455.984 199.66606 L 463.14084 237.9809 C 463.14084 237.9809 468.15064 314.61056 468.5085 315.93176 C 468.8663 317.25296 474.5918 399.16742 474.94965 403.13103 C 475.3075 407.09463 479.6016 481.0819 479.95944 483.7243 C 480.3173 486.3667 487.47413 584.1356 487.832 586.778 C 488.1898 589.4204 499.28293 667.37125 499.6408 668.69245 C 499.9986 670.01365 512.5231 725.5041 512.88095 726.8253 C 513.2388 728.1465 526.1211 721.5405 526.47896 721.5405 C 526.8368 721.5405 538.28776 688.5105 538.28776 688.5105 C 538.28776 688.5105 552.60146 597.3476 552.9593 596.0264 C 553.31714 594.7052 564.41026 527.3239 564.7681 524.6815 C 565.12595 522.0391 574.072 449.37307 574.072 449.37307 L 577.9605 416.7442 C 577.99234 416.4768 578.0182 416.2087 578.03803 415.94015 L 583.1978 346.08837 C 583.3015 344.68444 582.40414 343.401 581.04994 343.01638 L 581.04994 343.01638 C 579.97134 342.71005 578.84864 343.3361 578.5423 344.4147 C 578.51013 344.52797 578.4879 344.64383 578.4758 344.76097 L 575.8612 370.101 C 575.8612 370.101 572.9985 412.37944 572.64064 412.37944 C 572.2828 412.37944 567.9887 450.69427 567.9887 452.01547 C 567.9887 453.33667 565.4838 487.6879 565.12595 489.0091 C 564.7681 490.3303 559.40047 537.89354 559.0426 539.21474 C 558.6848 540.53594 554.7485 568.28116 554.3907 569.60237 C 554.0328 570.9236 546.1603 622.4504 546.1603 622.4504 L 540.1401 653.8303 C 540.098 654.0496 540.0519 654.268 540.0017 654.4856 L 532.8837 685.3365 C 532.20535 688.27674 530.73256 690.9742 528.626 693.1347 L 525.6027 696.23535 C 525.4712 696.3702 525.3376 696.503 525.2019 696.6337 L 517.17506 704.3649 C 517.17506 704.3649 510.7339 695.1165 510.7339 693.7953 C 510.7339 692.4741 503.57704 662.08644 503.57704 660.76524 C 503.57704 659.44404 499.9986 626.414 499.9986 626.414 C 499.9986 626.414 495.7045 574.8872 495.7045 573.566 C 495.7045 572.2448 488.9055 506.1847 488.9055 506.1847 C 488.9055 506.1847 486.75845 463.9063 486.4006 463.9063 C 486.04276 463.9063 482.46434 415.02184 482.46434 415.02184 L 479.9761 362.52527 C 479.965 362.29098 479.9493 362.0569 479.92906 361.82323 L 474.23396 296.11374 C 474.23396 296.11374 469.93985 230.05369 469.93985 227.41128 C 469.93985 224.76888 462.0673 170.59964 462.0673 170.59964 L 452.58127 146.44534 C 451.9897 144.93907 451.19774 143.51945 450.22675 142.22486 L 444.19224 134.17923 C 441.0695 130.0158 435.42535 128.665 430.7561 130.9636 L 422.70465 134.9272 C 422.70465 134.9272 413.0429 173.24204 412.68506 173.24204 C 412.3272 173.24204 406.60173 232.6961 406.60173 232.6961 C 406.60173 232.6961 402.30763 301.39854 401.9498 301.39854 C 401.59194 301.39854 396.94 380.6706 396.94 380.6706 L 396.94 402.9992 C 396.94 403.9663 397.01793 404.93186 397.17306 405.88645 L 398.5503 414.36124 C 398.64635 414.9524 399.20348 415.3538 399.79465 415.2577 C 400.29774 415.17595 400.676 414.7549 400.7036 414.24594 Z" fill="#999"/>
        <path d="M 400.7036 414.24594 L 404.089 351.74903 C 404.0942 351.65247 404.10023 351.55595 404.107 351.4595 L 411.18885 250.79337 C 411.23205 250.17933 411.3067 249.5679 411.41256 248.96152 L 421.44595 191.47853 C 421.5693 190.7719 421.73475 190.0733 421.94146 189.38642 L 432.3664 154.74522 C 432.3664 154.74522 446.32225 156.06642 446.6801 156.06642 C 447.03793 156.06642 455.984 199.66606 455.984 199.66606 L 463.14084 237.9809 C 463.14084 237.9809 468.15064 314.61056 468.5085 315.93176 C 468.8663 317.25296 474.5918 399.16742 474.94965 403.13103 C 475.3075 407.09463 479.6016 481.0819 479.95944 483.7243 C 480.3173 486.3667 487.47413 584.1356 487.832 586.778 C 488.1898 589.4204 499.28293 667.37125 499.6408 668.69245 C 499.9986 670.01365 512.5231 725.5041 512.88095 726.8253 C 513.2388 728.1465 526.1211 721.5405 526.47896 721.5405 C 526.8368 721.5405 538.28776 688.5105 538.28776 688.5105 C 538.28776 688.5105 552.60146 597.3476 552.9593 596.0264 C 553.31714 594.7052 564.41026 527.3239 564.7681 524.6815 C 565.12595 522.0391 574.072 449.37307 574.072 449.37307 L 577.9605 416.7442 C 577.99234 416.4768 578.0182 416.2087 578.03803 415.94015 L 583.1978 346.08837 C 583.3015 344.68444 582.40414 343.401 581.04994 343.01638 L 581.04994 343.01638 C 579.97134 342.71005 578.84864 343.3361 578.5423 344.4147 C 578.51013 344.52797 578.4879 344.64383 578.4758 344.76097 L 575.8612 370.101 C 575.8612 370.101 572.9985 412.37944 572.64064 412.37944 C 572.2828 412.37944 567.9887 450.69427 567.9887 452.01547 C 567.9887 453.33667 565.4838 487.6879 565.12595 489.0091 C 564.7681 490.3303 559.40047 537.89354 559.0426 539.21474 C 558.6848 540.53594 554.7485 568.28116 554.3907 569.60237 C 554.0328 570.9236 546.1603 622.4504 546.1603 622.4504 L 540.1401 653.8303 C 540.098 654.0496 540.0519 654.268 540.0017 654.4856 L 532.8837 685.3365 C 532.20535 688.27674 530.73256 690.9742 528.626 693.1347 L 525.6027 696.23535 C 525.4712 696.3702 525.3376 696.503 525.2019 696.6337 L 517.17506 704.3649 C 517.17506 704.3649 510.7339 695.1165 510.7339 693.7953 C 510.7339 692.4741 503.57704 662.08644 503.57704 660.76524 C 503.57704 659.44404 499.9986 626.414 499.9986 626.414 C 499.9986 626.414 495.7045 574.8872 495.7045 573.566 C 495.7045 572.2448 488.9055 506.1847 488.9055 506.1847 C 488.9055 506.1847 486.75845 463.9063 486.4006 463.9063 C 486.04276 463.9063 482.46434 415.02184 482.46434 415.02184 L 479.9761 362.52527 C 479.965 362.29098 479.9493 362.0569 479.92906 361.82323 L 474.23396 296.11374 C 474.23396 296.11374 469.93985 230.05369 469.93985 227.41128 C 469.93985 224.76888 462.0673 170.59964 462.0673 170.59964 L 452.58127 146.44534 C 451.9897 144.93907 451.19774 143.51945 450.22675 142.22486 L 444.19224 134.17923 C 441.0695 130.0158 435.42535 128.665 430.7561 130.9636 L 422.70465 134.9272 C 422.70465 134.9272 413.0429 173.24204 412.68506 173.24204 C 412.3272 173.24204 406.60173 232.6961 406.60173 232.6961 C 406.60173 232.6961 402.30763 301.39854 401.9498 301.39854 C 401.59194 301.39854 396.94 380.6706 396.94 380.6706 L 396.94 402.9992 C 396.94 403.9663 397.01793 404.93186 397.17306 405.88645 L 398.5503 414.36124 C 398.64635 414.9524 399.20348 415.3538 399.79465 415.2577 C 400.29774 415.17595 400.676 414.7549 400.7036 414.24594 Z" stroke="#a5a5a5" stroke-linecap="round" stroke-linejoin="round" stroke-width="3"/>
      </g>
      <g id="Graphic_22">
        <path d="M 574.2071 420.71965 L 583.6101 352.1941 C 583.6641 351.80092 583.705 351.4061 583.73286 351.01023 L 590.7831 250.79337 C 590.8263 250.17933 590.90095 249.5679 591.0068 248.96152 L 601.0402 191.47853 C 601.1635 190.7719 601.329 190.0733 601.5357 189.38642 L 611.9606 154.74522 C 611.9606 154.74522 625.9165 156.06642 626.2743 156.06642 C 626.6322 156.06642 635.5782 199.66606 635.5782 199.66606 L 642.7351 237.9809 C 642.7351 237.9809 647.7449 314.61056 648.1027 315.93176 C 648.46056 317.25296 654.18604 399.16742 654.5439 403.13103 C 654.9017 407.09463 659.1958 481.0819 659.5537 483.7243 C 659.9115 486.3667 667.0684 584.1356 667.4262 586.778 C 667.78405 589.4204 678.8772 667.37125 679.235 668.69245 C 679.59286 670.01365 692.11734 725.5041 692.4752 726.8253 C 692.833 728.1465 705.71536 721.5405 706.0732 721.5405 C 706.431 721.5405 717.882 688.5105 717.882 688.5105 C 717.882 688.5105 732.1957 597.3476 732.5535 596.0264 C 732.9114 594.7052 744.0045 527.3239 744.3623 524.6815 C 744.7202 522.0391 753.66625 449.37307 753.66625 449.37307 L 757.5547 416.7442 C 757.5866 416.4768 757.6124 416.2087 757.6323 415.94015 L 762.792 346.08837 C 762.8957 344.68444 761.9984 343.401 760.6442 343.01638 L 760.6442 343.01638 C 759.5656 342.71005 758.4429 343.3361 758.13655 344.4147 C 758.1044 344.52797 758.0821 344.64383 758.07 344.76097 L 755.4555 370.101 C 755.4555 370.101 752.5927 412.37944 752.2349 412.37944 C 751.877 412.37944 747.5829 450.69427 747.5829 452.01547 C 747.5829 453.33667 745.078 487.6879 744.7202 489.0091 C 744.3623 490.3303 738.9947 537.89354 738.6369 539.21474 C 738.279 540.53594 734.34275 568.28116 733.9849 569.60237 C 733.6271 570.9236 725.7545 622.4504 725.7545 622.4504 L 719.7343 653.8303 C 719.69225 654.0496 719.6461 654.268 719.5959 654.4856 L 712.478 685.3365 C 711.7996 688.27674 710.3268 690.9742 708.22025 693.1347 L 705.1969 696.23535 C 705.0654 696.3702 704.9318 696.503 704.79615 696.6337 L 696.7693 704.3649 C 696.7693 704.3649 690.3281 695.1165 690.3281 693.7953 C 690.3281 692.4741 683.1713 662.08644 683.1713 660.76524 C 683.1713 659.44404 679.59286 626.414 679.59286 626.414 C 679.59286 626.414 675.29875 574.8872 675.29875 573.566 C 675.29875 572.2448 668.4997 506.1847 668.4997 506.1847 C 668.4997 506.1847 666.3527 463.9063 665.99484 463.9063 C 665.637 463.9063 662.0586 415.02184 662.0586 415.02184 L 659.5703 362.52527 C 659.5592 362.29098 659.54355 362.0569 659.5233 361.82323 L 653.8282 296.11374 C 653.8282 296.11374 649.5341 230.05369 649.5341 227.41128 C 649.5341 224.76888 641.66155 170.59964 641.66155 170.59964 L 632.1755 146.44534 C 631.58395 144.93907 630.792 143.51945 629.821 142.22486 L 623.7865 134.17923 C 620.66375 130.0158 615.0196 128.665 610.35034 130.9636 L 602.2989 134.9272 C 602.2989 134.9272 592.63714 173.24204 592.2793 173.24204 C 591.92145 173.24204 586.196 232.6961 586.196 232.6961 C 586.196 232.6961 581.90186 301.39854 581.544 301.39854 C 581.1862 301.39854 576.5342 380.6706 576.5342 380.6706 L 576.5342 403.19713 C 576.5342 404.03285 576.476 404.86755 576.36004 405.6952 L 574.25366 420.7261 C 574.25186 420.739 574.24 420.74794 574.2271 420.74614 C 574.2143 420.74434 574.2053 420.7325 574.2071 420.71965 Z" fill="#999"/>
        <path d="M 574.2071 420.71965 L 583.6101 352.1941 C 583.6641 351.80092 583.705 351.4061 583.73286 351.01023 L 590.7831 250.79337 C 590.8263 250.17933 590.90095 249.5679 591.0068 248.96152 L 601.0402 191.47853 C 601.1635 190.7719 601.329 190.0733 601.5357 189.38642 L 611.9606 154.74522 C 611.9606 154.74522 625.9165 156.06642 626.2743 156.06642 C 626.6322 156.06642 635.5782 199.66606 635.5782 199.66606 L 642.7351 237.9809 C 642.7351 237.9809 647.7449 314.61056 648.1027 315.93176 C 648.46056 317.25296 654.18604 399.16742 654.5439 403.13103 C 654.9017 407.09463 659.1958 481.0819 659.5537 483.7243 C 659.9115 486.3667 667.0684 584.1356 667.4262 586.778 C 667.78405 589.4204 678.8772 667.37125 679.235 668.69245 C 679.59286 670.01365 692.11734 725.5041 692.4752 726.8253 C 692.833 728.1465 705.71536 721.5405 706.0732 721.5405 C 706.431 721.5405 717.882 688.5105 717.882 688.5105 C 717.882 688.5105 732.1957 597.3476 732.5535 596.0264 C 732.9114 594.7052 744.0045 527.3239 744.3623 524.6815 C 744.7202 522.0391 753.66625 449.37307 753.66625 449.37307 L 757.5547 416.7442 C 757.5866 416.4768 757.6124 416.2087 757.6323 415.94015 L 762.792 346.08837 C 762.8957 344.68444 761.9984 343.401 760.6442 343.01638 L 760.6442 343.01638 C 759.5656 342.71005 758.4429 343.3361 758.13655 344.4147 C 758.1044 344.52797 758.0821 344.64383 758.07 344.76097 L 755.4555 370.101 C 755.4555 370.101 752.5927 412.37944 752.2349 412.37944 C 751.877 412.37944 747.5829 450.69427 747.5829 452.01547 C 747.5829 453.33667 745.078 487.6879 744.7202 489.0091 C 744.3623 490.3303 738.9947 537.89354 738.6369 539.21474 C 738.279 540.53594 734.34275 568.28116 733.9849 569.60237 C 733.6271 570.9236 725.7545 622.4504 725.7545 622.4504 L 719.7343 653.8303 C 719.69225 654.0496 719.6461 654.268 719.5959 654.4856 L 712.478 685.3365 C 711.7996 688.27674 710.3268 690.9742 708.22025 693.1347 L 705.1969 696.23535 C 705.0654 696.3702 704.9318 696.503 704.79615 696.6337 L 696.7693 704.3649 C 696.7693 704.3649 690.3281 695.1165 690.3281 693.7953 C 690.3281 692.4741 683.1713 662.08644 683.1713 660.76524 C 683.1713 659.44404 679.59286 626.414 679.59286 626.414 C 679.59286 626.414 675.29875 574.8872 675.29875 573.566 C 675.29875 572.2448 668.4997 506.1847 668.4997 506.1847 C 668.4997 506.1847 666.3527 463.9063 665.99484 463.9063 C 665.637 463.9063 662.0586 415.02184 662.0586 415.02184 L 659.5703 362.52527 C 659.5592 362.29098 659.54355 362.0569 659.5233 361.82323 L 653.8282 296.11374 C 653.8282 296.11374 649.5341 230.05369 649.5341 227.41128 C 649.5341 224.76888 641.66155 170.59964 641.66155 170.59964 L 632.1755 146.44534 C 631.58395 144.93907 630.792 143.51945 629.821 142.22486 L 623.7865 134.17923 C 620.66375 130.0158 615.0196 128.665 610.35034 130.9636 L 602.2989 134.9272 C 602.2989 134.9272 592.63714 173.24204 592.2793 173.24204 C 591.92145 173.24204 586.196 232.6961 586.196 232.6961 C 586.196 232.6961 581.90186 301.39854 581.544 301.39854 C 581.1862 301.39854 576.5342 380.6706 576.5342 380.6706 L 576.5342 403.19713 C 576.5342 404.03285 576.476 404.86755 576.36004 405.6952 L 574.25366 420.7261 C 574.25186 420.739 574.24 420.74794 574.2271 420.74614 C 574.2143 420.74434 574.2053 420.7325 574.2071 420.71965 Z" stroke="#a5a5a5" stroke-linecap="round" stroke-linejoin="round" stroke-width="3"/>
      </g>
      <g id="Graphic_2">
        <path d="M 20.445447 422.0178 L 24.262258 359.5704 C 24.268908 359.4616 24.276546 359.35285 24.28517 359.2442 L 32.265303 258.7098 C 32.320033 258.0203 32.414457 257.33455 32.548106 256.65593 L 43.82511 199.39583 C 43.979235 198.61324 44.185206 197.84177 44.44166 197.0865 L 56.1694 162.54822 C 56.1694 162.54822 71.91611 163.86942 72.31987 163.86942 C 72.72363 163.86942 82.81767 207.46906 82.81767 207.46906 L 90.8929 245.7839 C 90.8929 245.7839 96.54557 322.41356 96.94933 323.73476 C 97.35309 325.05596 103.81328 406.97042 104.21704 410.93403 C 104.6208 414.89763 109.46594 488.8849 109.8697 491.5273 C 110.27346 494.1697 118.3487 591.9386 118.75246 594.581 C 119.15622 597.2234 131.67283 675.17425 132.07659 676.49545 C 132.48035 677.81665 146.61201 733.3071 147.01577 734.6283 C 147.41953 735.9495 161.95495 729.3435 162.35871 729.3435 C 162.76247 729.3435 175.68285 696.3135 175.68285 696.3135 C 175.68285 696.3135 191.83331 605.1506 192.23707 603.8294 C 192.64084 602.5082 205.15745 535.1269 205.5612 532.4845 C 205.96497 529.8421 216.059 457.17607 216.059 457.17607 L 220.4398 424.59666 C 220.48018 424.2963 220.51298 423.99495 220.53815 423.69293 L 226.33203 354.17694 C 226.4617 352.6213 225.4462 351.20042 223.93236 350.81938 L 223.93236 350.81938 C 222.66096 350.49935 221.37086 351.2706 221.05084 352.542 C 221.0256 352.6423 221.00692 352.7442 220.99496 352.84694 L 218.07782 377.904 C 218.07782 377.904 214.84773 420.18244 214.44396 420.18244 C 214.0402 420.18244 209.19506 458.49727 209.19506 459.81847 C 209.19506 461.13967 206.36873 495.4909 205.96497 496.8121 C 205.5612 498.1333 199.50478 545.69654 199.10102 547.01774 C 198.69726 548.33894 194.25588 576.08416 193.85212 577.4054 C 193.44836 578.7266 184.5656 630.2534 184.5656 630.2534 L 177.78068 661.5972 C 177.728 661.8405 177.67028 662.08275 177.60755 662.3237 L 169.65229 692.8824 C 168.845 695.9834 167.15249 698.78235 164.78128 700.9377 L 161.35486 704.0521 C 161.21658 704.1778 161.07635 704.30134 160.93422 704.4227 L 151.86091 712.1679 C 151.86091 712.1679 144.5932 702.9195 144.5932 701.5983 C 144.5932 700.2771 136.51797 669.88944 136.51797 668.56824 C 136.51797 667.24704 132.48035 634.217 132.48035 634.217 C 132.48035 634.217 127.63521 582.6902 127.63521 581.369 C 127.63521 580.0478 119.96374 513.9877 119.96374 513.9877 C 119.96374 513.9877 117.54117 471.7093 117.13741 471.7093 C 116.73365 471.7093 112.69603 422.82484 112.69603 422.82484 L 109.89088 370.37277 C 109.87676 370.1088 109.85683 369.8452 109.8311 369.58213 L 103.40951 303.91674 C 103.40951 303.91674 98.56437 237.85669 98.56437 235.21428 C 98.56437 232.57188 89.68162 178.40264 89.68162 178.40264 L 79.01957 154.34147 C 78.3251 152.77427 77.410335 151.3143 76.30298 150.0058 L 69.84003 142.36894 C 66.04009 137.87878 59.74394 136.41432 54.352475 138.7666 L 45.26784 142.7302 C 45.26784 142.7302 34.366274 181.04504 33.962512 181.04504 C 33.55875 181.04504 27.098564 240.4991 27.098564 240.4991 C 27.098564 240.4991 22.253425 309.20154 21.849663 309.20154 C 21.445901 309.20154 16.197 388.4736 16.197 388.4736 L 16.197 410.6186 C 16.197 411.70745 16.295795 412.79403 16.49217 413.865 L 18.013927 422.16424 C 18.136141 422.83076 18.775537 423.272 19.442058 423.1498 C 19.997004 423.04804 20.411028 422.58095 20.445447 422.0178 Z" fill="black"/>
        <path d="M 20.445447 422.0178 L 24.262258 359.5704 C 24.268908 359.4616 24.276546 359.35285 24.28517 359.2442 L 32.265303 258.7098 C 32.320033 258.0203 32.414457 257.33455 32.548106 256.65593 L 43.82511 199.39583 C 43.979235 198.61324 44.185206 197.84177 44.44166 197.0865 L 56.1694 162.54822 C 56.1694 162.54822 71.91611 163.86942 72.31987 163.86942 C 72.72363 163.86942 82.81767 207.46906 82.81767 207.46906 L 90.8929 245.7839 C 90.8929 245.7839 96.54557 322.41356 96.94933 323.73476 C 97.35309 325.05596 103.81328 406.97042 104.21704 410.93403 C 104.6208 414.89763 109.46594 488.8849 109.8697 491.5273 C 110.27346 494.1697 118.3487 591.9386 118.75246 594.581 C 119.15622 597.2234 131.67283 675.17425 132.07659 676.49545 C 132.48035 677.81665 146.61201 733.3071 147.01577 734.6283 C 147.41953 735.9495 161.95495 729.3435 162.35871 729.3435 C 162.76247 729.3435 175.68285 696.3135 175.68285 696.3135 C 175.68285 696.3135 191.83331 605.1506 192.23707 603.8294 C 192.64084 602.5082 205.15745 535.1269 205.5612 532.4845 C 205.96497 529.8421 216.059 457.17607 216.059 457.17607 L 220.4398 424.59666 C 220.48018 424.2963 220.51298 423.99495 220.53815 423.69293 L 226.33203 354.17694 C 226.4617 352.6213 225.4462 351.20042 223.93236 350.81938 L 223.93236 350.81938 C 222.66096 350.49935 221.37086 351.2706 221.05084 352.542 C 221.0256 352.6423 221.00692 352.7442 220.99496 352.84694 L 218.07782 377.904 C 218.07782 377.904 214.84773 420.18244 214.44396 420.18244 C 214.0402 420.18244 209.19506 458.49727 209.19506 459.81847 C 209.19506 461.13967 206.36873 495.4909 205.96497 496.8121 C 205.5612 498.1333 199.50478 545.69654 199.10102 547.01774 C 198.69726 548.33894 194.25588 576.08416 193.85212 577.4054 C 193.44836 578.7266 184.5656 630.2534 184.5656 630.2534 L 177.78068 661.5972 C 177.728 661.8405 177.67028 662.08275 177.60755 662.3237 L 169.65229 692.8824 C 168.845 695.9834 167.15249 698.78235 164.78128 700.9377 L 161.35486 704.0521 C 161.21658 704.1778 161.07635 704.30134 160.93422 704.4227 L 151.86091 712.1679 C 151.86091 712.1679 144.5932 702.9195 144.5932 701.5983 C 144.5932 700.2771 136.51797 669.88944 136.51797 668.56824 C 136.51797 667.24704 132.48035 634.217 132.48035 634.217 C 132.48035 634.217 127.63521 582.6902 127.63521 581.369 C 127.63521 580.0478 119.96374 513.9877 119.96374 513.9877 C 119.96374 513.9877 117.54117 471.7093 117.13741 471.7093 C 116.73365 471.7093 112.69603 422.82484 112.69603 422.82484 L 109.89088 370.37277 C 109.87676 370.1088 109.85683 369.8452 109.8311 369.58213 L 103.40951 303.91674 C 103.40951 303.91674 98.56437 237.85669 98.56437 235.21428 C 98.56437 232.57188 89.68162 178.40264 89.68162 178.40264 L 79.01957 154.34147 C 78.3251 152.77427 77.410335 151.3143 76.30298 150.0058 L 69.84003 142.36894 C 66.04009 137.87878 59.74394 136.41432 54.352475 138.7666 L 45.26784 142.7302 C 45.26784 142.7302 34.366274 181.04504 33.962512 181.04504 C 33.55875 181.04504 27.098564 240.4991 27.098564 240.4991 C 27.098564 240.4991 22.253425 309.20154 21.849663 309.20154 C 21.445901 309.20154 16.197 388.4736 16.197 388.4736 L 16.197 410.6186 C 16.197 411.70745 16.295795 412.79403 16.49217 413.865 L 18.013927 422.16424 C 18.136141 422.83076 18.775537 423.272 19.442058 423.1498 C 19.997004 423.04804 20.411028 422.58095 20.445447 422.0178 Z" stroke="black" stroke-linecap="round" stroke-linejoin="round" stroke-width="3"/>
      </g>
      <g id="Graphic_3">
        <path d="M 216.21169 428.52093 L 226.80992 360.0692 C 226.87823 359.628 226.9301 359.18444 226.96543 358.7394 L 234.9055 258.7098 C 234.96022 258.0203 235.05464 257.33455 235.1883 256.65593 L 246.4653 199.39583 C 246.61942 198.61324 246.8254 197.84177 247.08185 197.0865 L 258.8096 162.54822 C 258.8096 162.54822 274.5563 163.86942 274.96005 163.86942 C 275.3638 163.86942 285.45786 207.46906 285.45786 207.46906 L 293.5331 245.7839 C 293.5331 245.7839 299.18575 322.41356 299.5895 323.73476 C 299.99328 325.05596 306.45346 406.97042 306.85722 410.93403 C 307.261 414.89763 312.10613 488.8849 312.5099 491.5273 C 312.91365 494.1697 320.9889 591.9386 321.39264 594.581 C 321.7964 597.2234 334.313 675.17425 334.71678 676.49545 C 335.12054 677.81665 349.2522 733.3071 349.65596 734.6283 C 350.0597 735.9495 364.59514 729.3435 364.9989 729.3435 C 365.40266 729.3435 378.32303 696.3135 378.32303 696.3135 C 378.32303 696.3135 394.4735 605.1506 394.87726 603.8294 C 395.281 602.5082 407.79763 535.1269 408.2014 532.4845 C 408.60516 529.8421 418.6992 457.17607 418.6992 457.17607 L 423.08 424.59666 C 423.12037 424.2963 423.15317 423.99495 423.17834 423.69293 L 428.9722 354.17694 C 429.1019 352.6213 428.0864 351.20042 426.57255 350.81938 L 426.57255 350.81938 C 425.30115 350.49935 424.01105 351.2706 423.69103 352.542 C 423.66577 352.6423 423.6471 352.7442 423.63514 352.84694 L 420.718 377.904 C 420.718 377.904 417.4879 420.18244 417.08415 420.18244 C 416.6804 420.18244 411.83525 458.49727 411.83525 459.81847 C 411.83525 461.13967 409.0089 495.4909 408.60516 496.8121 C 408.2014 498.1333 402.14497 545.69654 401.7412 547.01774 C 401.33745 548.33894 396.89607 576.08416 396.4923 577.4054 C 396.08855 578.7266 387.2058 630.2534 387.2058 630.2534 L 380.42087 661.5972 C 380.3682 661.8405 380.31047 662.08275 380.24774 662.3237 L 372.29247 692.8824 C 371.4852 695.9834 369.79267 698.78235 367.42147 700.9377 L 363.99505 704.0521 C 363.85677 704.1778 363.71654 704.30134 363.5744 704.4227 L 354.5011 712.1679 C 354.5011 712.1679 347.2334 702.9195 347.2334 701.5983 C 347.2334 700.2771 339.15815 669.88944 339.15815 668.56824 C 339.15815 667.24704 335.12054 634.217 335.12054 634.217 C 335.12054 634.217 330.2754 582.6902 330.2754 581.369 C 330.2754 580.0478 322.60393 513.9877 322.60393 513.9877 C 322.60393 513.9877 320.18136 471.7093 319.7776 471.7093 C 319.37383 471.7093 315.3362 422.82484 315.3362 422.82484 L 312.53106 370.37277 C 312.51695 370.1088 312.49702 369.8452 312.4713 369.58213 L 306.0497 303.91674 C 306.0497 303.91674 301.20456 237.85669 301.20456 235.21428 C 301.20456 232.57188 292.3218 178.40264 292.3218 178.40264 L 281.65975 154.34147 C 280.9653 152.77427 280.05052 151.3143 278.94317 150.0058 L 272.48022 142.36894 C 268.68027 137.87878 262.38413 136.41432 256.99266 138.7666 L 247.90802 142.7302 C 247.90802 142.7302 237.00646 181.04504 236.6027 181.04504 C 236.19894 181.04504 229.73875 240.4991 229.73875 240.4991 C 229.73875 240.4991 224.8936 309.20154 224.48985 309.20154 C 224.0861 309.20154 218.83719 388.4736 218.83719 388.4736 L 218.83719 410.84094 C 218.83719 411.78235 218.76333 412.7223 218.6163 413.65216 L 216.26398 428.5291 C 216.2617 428.54355 216.24814 428.5534 216.2337 428.5511 C 216.2193 428.54884 216.20946 428.53534 216.21169 428.52093 Z" fill="black"/>
        <path d="M 216.21169 428.52093 L 226.80992 360.0692 C 226.87823 359.628 226.9301 359.18444 226.96543 358.7394 L 234.9055 258.7098 C 234.96022 258.0203 235.05464 257.33455 235.1883 256.65593 L 246.4653 199.39583 C 246.61942 198.61324 246.8254 197.84177 247.08185 197.0865 L 258.8096 162.54822 C 258.8096 162.54822 274.5563 163.86942 274.96005 163.86942 C 275.3638 163.86942 285.45786 207.46906 285.45786 207.46906 L 293.5331 245.7839 C 293.5331 245.7839 299.18575 322.41356 299.5895 323.73476 C 299.99328 325.05596 306.45346 406.97042 306.85722 410.93403 C 307.261 414.89763 312.10613 488.8849 312.5099 491.5273 C 312.91365 494.1697 320.9889 591.9386 321.39264 594.581 C 321.7964 597.2234 334.313 675.17425 334.71678 676.49545 C 335.12054 677.81665 349.2522 733.3071 349.65596 734.6283 C 350.0597 735.9495 364.59514 729.3435 364.9989 729.3435 C 365.40266 729.3435 378.32303 696.3135 378.32303 696.3135 C 378.32303 696.3135 394.4735 605.1506 394.87726 603.8294 C 395.281 602.5082 407.79763 535.1269 408.2014 532.4845 C 408.60516 529.8421 418.6992 457.17607 418.6992 457.17607 L 423.08 424.59666 C 423.12037 424.2963 423.15317 423.99495 423.17834 423.69293 L 428.9722 354.17694 C 429.1019 352.6213 428.0864 351.20042 426.57255 350.81938 L 426.57255 350.81938 C 425.30115 350.49935 424.01105 351.2706 423.69103 352.542 C 423.66577 352.6423 423.6471 352.7442 423.63514 352.84694 L 420.718 377.904 C 420.718 377.904 417.4879 420.18244 417.08415 420.18244 C 416.6804 420.18244 411.83525 458.49727 411.83525 459.81847 C 411.83525 461.13967 409.0089 495.4909 408.60516 496.8121 C 408.2014 498.1333 402.14497 545.69654 401.7412 547.01774 C 401.33745 548.33894 396.89607 576.08416 396.4923 577.4054 C 396.08855 578.7266 387.2058 630.2534 387.2058 630.2534 L 380.42087 661.5972 C 380.3682 661.8405 380.31047 662.08275 380.24774 662.3237 L 372.29247 692.8824 C 371.4852 695.9834 369.79267 698.78235 367.42147 700.9377 L 363.99505 704.0521 C 363.85677 704.1778 363.71654 704.30134 363.5744 704.4227 L 354.5011 712.1679 C 354.5011 712.1679 347.2334 702.9195 347.2334 701.5983 C 347.2334 700.2771 339.15815 669.88944 339.15815 668.56824 C 339.15815 667.24704 335.12054 634.217 335.12054 634.217 C 335.12054 634.217 330.2754 582.6902 330.2754 581.369 C 330.2754 580.0478 322.60393 513.9877 322.60393 513.9877 C 322.60393 513.9877 320.18136 471.7093 319.7776 471.7093 C 319.37383 471.7093 315.3362 422.82484 315.3362 422.82484 L 312.53106 370.37277 C 312.51695 370.1088 312.49702 369.8452 312.4713 369.58213 L 306.0497 303.91674 C 306.0497 303.91674 301.20456 237.85669 301.20456 235.21428 C 301.20456 232.57188 292.3218 178.40264 292.3218 178.40264 L 281.65975 154.34147 C 280.9653 152.77427 280.05052 151.3143 278.94317 150.0058 L 272.48022 142.36894 C 268.68027 137.87878 262.38413 136.41432 256.99266 138.7666 L 247.90802 142.7302 C 247.90802 142.7302 237.00646 181.04504 236.6027 181.04504 C 236.19894 181.04504 229.73875 240.4991 229.73875 240.4991 C 229.73875 240.4991 224.8936 309.20154 224.48985 309.20154 C 224.0861 309.20154 218.83719 388.4736 218.83719 388.4736 L 218.83719 410.84094 C 218.83719 411.78235 218.76333 412.7223 218.6163 413.65216 L 216.26398 428.5291 C 216.2617 428.54355 216.24814 428.5534 216.2337 428.5511 C 216.2193 428.54884 216.20946 428.53534 216.21169 428.52093 Z" stroke="black" stroke-linecap="round" stroke-linejoin="round" stroke-width="3"/>
      </g>
      <g id="Graphic_17">
        <path d="M 425.44545 412.2148 L 429.26226 349.7674 C 429.2689 349.6586 429.27655 349.54985 429.28517 349.4412 L 437.2653 248.9068 C 437.32003 248.2173 437.41446 247.53155 437.5481 246.85293 L 448.8251 189.59283 C 448.97923 188.81024 449.1852 188.03877 449.44166 187.2835 L 461.1694 152.74522 C 461.1694 152.74522 476.9161 154.06642 477.31987 154.06642 C 477.72363 154.06642 487.81767 197.66606 487.81767 197.66606 L 495.8929 235.9809 C 495.8929 235.9809 501.54557 312.61056 501.9493 313.93176 C 502.3531 315.25296 508.8133 397.16742 509.21704 401.13103 C 509.6208 405.09463 514.46594 479.0819 514.8697 481.7243 C 515.27346 484.3667 523.3487 582.1356 523.75246 584.778 C 524.1562 587.4204 536.6728 665.37125 537.0766 666.69245 C 537.48035 668.01365 551.612 723.5041 552.0158 724.8253 C 552.4195 726.1465 566.95495 719.5405 567.3587 719.5405 C 567.7625 719.5405 580.68285 686.5105 580.68285 686.5105 C 580.68285 686.5105 596.8333 595.3476 597.2371 594.0264 C 597.6408 592.7052 610.15745 525.3239 610.5612 522.6815 C 610.965 520.0391 621.059 447.37307 621.059 447.37307 L 625.4398 414.79366 C 625.4802 414.4933 625.513 414.19195 625.53815 413.88993 L 631.332 344.37394 C 631.4617 342.8183 630.4462 341.39742 628.93236 341.01638 L 628.93236 341.01638 C 627.661 340.69635 626.37086 341.4676 626.05084 342.739 C 626.0256 342.8393 626.0069 342.9412 625.99496 343.04394 L 623.0778 368.101 C 623.0778 368.101 619.8477 410.37944 619.444 410.37944 C 619.0402 410.37944 614.19506 448.69427 614.19506 450.01547 C 614.19506 451.33667 611.3687 485.6879 610.965 487.0091 C 610.5612 488.3303 604.5048 535.89354 604.101 537.21474 C 603.69726 538.53594 599.2559 566.28116 598.8521 567.60237 C 598.44836 568.9236 589.5656 620.4504 589.5656 620.4504 L 582.7807 651.7942 C 582.728 652.0375 582.6703 652.27975 582.60755 652.5207 L 574.6523 683.0794 C 573.845 686.1804 572.1525 688.97935 569.7813 691.1347 L 566.35486 694.2491 C 566.2166 694.3748 566.07635 694.49834 565.9342 694.6197 L 556.8609 702.3649 C 556.8609 702.3649 549.5932 693.1165 549.5932 691.7953 C 549.5932 690.4741 541.518 660.08644 541.518 658.76524 C 541.518 657.44404 537.48035 624.414 537.48035 624.414 C 537.48035 624.414 532.6352 572.8872 532.6352 571.566 C 532.6352 570.2448 524.96374 504.1847 524.96374 504.1847 C 524.96374 504.1847 522.5412 461.9063 522.1374 461.9063 C 521.73365 461.9063 517.69603 413.02184 517.69603 413.02184 L 514.8909 360.56977 C 514.87676 360.3058 514.85683 360.0422 514.8311 359.77913 L 508.4095 294.11374 C 508.4095 294.11374 503.5644 228.05369 503.5644 225.41128 C 503.5644 222.76888 494.6816 168.59964 494.6816 168.59964 L 484.01957 144.53847 C 483.3251 142.97127 482.41034 141.5113 481.303 140.2028 L 474.84003 132.56594 C 471.0401 128.07578 464.74394 126.61132 459.3525 128.9636 L 450.26784 132.9272 C 450.26784 132.9272 439.36627 171.24204 438.9625 171.24204 C 438.55875 171.24204 432.09856 230.6961 432.09856 230.6961 C 432.09856 230.6961 427.2534 299.39854 426.84966 299.39854 C 426.4459 299.39854 421.197 378.6706 421.197 378.6706 L 421.197 400.8156 C 421.197 401.90445 421.2958 402.99103 421.49217 404.062 L 423.01393 412.36124 C 423.13614 413.02776 423.77554 413.469 424.44206 413.3468 C 424.997 413.24504 425.41103 412.77795 425.44545 412.2148 Z" fill="black"/>
        <path d="M 425.44545 412.2148 L 429.26226 349.7674 C 429.2689 349.6586 429.27655 349.54985 429.28517 349.4412 L 437.2653 248.9068 C 437.32003 248.2173 437.41446 247.53155 437.5481 246.85293 L 448.8251 189.59283 C 448.97923 188.81024 449.1852 188.03877 449.44166 187.2835 L 461.1694 152.74522 C 461.1694 152.74522 476.9161 154.06642 477.31987 154.06642 C 477.72363 154.06642 487.81767 197.66606 487.81767 197.66606 L 495.8929 235.9809 C 495.8929 235.9809 501.54557 312.61056 501.9493 313.93176 C 502.3531 315.25296 508.8133 397.16742 509.21704 401.13103 C 509.6208 405.09463 514.46594 479.0819 514.8697 481.7243 C 515.27346 484.3667 523.3487 582.1356 523.75246 584.778 C 524.1562 587.4204 536.6728 665.37125 537.0766 666.69245 C 537.48035 668.01365 551.612 723.5041 552.0158 724.8253 C 552.4195 726.1465 566.95495 719.5405 567.3587 719.5405 C 567.7625 719.5405 580.68285 686.5105 580.68285 686.5105 C 580.68285 686.5105 596.8333 595.3476 597.2371 594.0264 C 597.6408 592.7052 610.15745 525.3239 610.5612 522.6815 C 610.965 520.0391 621.059 447.37307 621.059 447.37307 L 625.4398 414.79366 C 625.4802 414.4933 625.513 414.19195 625.53815 413.88993 L 631.332 344.37394 C 631.4617 342.8183 630.4462 341.39742 628.93236 341.01638 L 628.93236 341.01638 C 627.661 340.69635 626.37086 341.4676 626.05084 342.739 C 626.0256 342.8393 626.0069 342.9412 625.99496 343.04394 L 623.0778 368.101 C 623.0778 368.101 619.8477 410.37944 619.444 410.37944 C 619.0402 410.37944 614.19506 448.69427 614.19506 450.01547 C 614.19506 451.33667 611.3687 485.6879 610.965 487.0091 C 610.5612 488.3303 604.5048 535.89354 604.101 537.21474 C 603.69726 538.53594 599.2559 566.28116 598.8521 567.60237 C 598.44836 568.9236 589.5656 620.4504 589.5656 620.4504 L 582.7807 651.7942 C 582.728 652.0375 582.6703 652.27975 582.60755 652.5207 L 574.6523 683.0794 C 573.845 686.1804 572.1525 688.97935 569.7813 691.1347 L 566.35486 694.2491 C 566.2166 694.3748 566.07635 694.49834 565.9342 694.6197 L 556.8609 702.3649 C 556.8609 702.3649 549.5932 693.1165 549.5932 691.7953 C 549.5932 690.4741 541.518 660.08644 541.518 658.76524 C 541.518 657.44404 537.48035 624.414 537.48035 624.414 C 537.48035 624.414 532.6352 572.8872 532.6352 571.566 C 532.6352 570.2448 524.96374 504.1847 524.96374 504.1847 C 524.96374 504.1847 522.5412 461.9063 522.1374 461.9063 C 521.73365 461.9063 517.69603 413.02184 517.69603 413.02184 L 514.8909 360.56977 C 514.87676 360.3058 514.85683 360.0422 514.8311 359.77913 L 508.4095 294.11374 C 508.4095 294.11374 503.5644 228.05369 503.5644 225.41128 C 503.5644 222.76888 494.6816 168.59964 494.6816 168.59964 L 484.01957 144.53847 C 483.3251 142.97127 482.41034 141.5113 481.303 140.2028 L 474.84003 132.56594 C 471.0401 128.07578 464.74394 126.61132 459.3525 128.9636 L 450.26784 132.9272 C 450.26784 132.9272 439.36627 171.24204 438.9625 171.24204 C 438.55875 171.24204 432.09856 230.6961 432.09856 230.6961 C 432.09856 230.6961 427.2534 299.39854 426.84966 299.39854 C 426.4459 299.39854 421.197 378.6706 421.197 378.6706 L 421.197 400.8156 C 421.197 401.90445 421.2958 402.99103 421.49217 404.062 L 423.01393 412.36124 C 423.13614 413.02776 423.77554 413.469 424.44206 413.3468 C 424.997 413.24504 425.41103 412.77795 425.44545 412.2148 Z" stroke="black" stroke-linecap="round" stroke-linejoin="round" stroke-width="3"/>
      </g>
      <g id="Graphic_18">
        <path d="M 621.2117 418.71793 L 631.8099 350.2662 C 631.8782 349.825 631.9301 349.38144 631.9654 348.9364 L 639.9055 248.9068 C 639.9602 248.2173 640.05464 247.53155 640.1883 246.85293 L 651.4653 189.59283 C 651.6194 188.81024 651.8254 188.03877 652.08185 187.2835 L 663.8096 152.74522 C 663.8096 152.74522 679.5563 154.06642 679.96005 154.06642 C 680.3638 154.06642 690.45786 197.66606 690.45786 197.66606 L 698.5331 235.9809 C 698.5331 235.9809 704.18575 312.61056 704.5895 313.93176 C 704.9933 315.25296 711.4535 397.16742 711.8572 401.13103 C 712.261 405.09463 717.1061 479.0819 717.5099 481.7243 C 717.91365 484.3667 725.9889 582.1356 726.3926 584.778 C 726.7964 587.4204 739.313 665.37125 739.7168 666.69245 C 740.1205 668.01365 754.2522 723.5041 754.656 724.8253 C 755.0597 726.1465 769.5951 719.5405 769.9989 719.5405 C 770.4027 719.5405 783.323 686.5105 783.323 686.5105 C 783.323 686.5105 799.4735 595.3476 799.8773 594.0264 C 800.281 592.7052 812.7976 525.3239 813.2014 522.6815 C 813.6052 520.0391 823.6992 447.37307 823.6992 447.37307 L 828.08 414.79366 C 828.1204 414.4933 828.1532 414.19195 828.1783 413.88993 L 833.9722 344.37394 C 834.1019 342.8183 833.0864 341.39742 831.5725 341.01638 L 831.5725 341.01638 C 830.3012 340.69635 829.011 341.4676 828.691 342.739 C 828.6658 342.8393 828.6471 342.9412 828.6351 343.04394 L 825.718 368.101 C 825.718 368.101 822.4879 410.37944 822.08415 410.37944 C 821.6804 410.37944 816.83525 448.69427 816.83525 450.01547 C 816.83525 451.33667 814.0089 485.6879 813.6052 487.0091 C 813.2014 488.3303 807.145 535.89354 806.7412 537.21474 C 806.3374 538.53594 801.8961 566.28116 801.4923 567.60237 C 801.0885 568.9236 792.2058 620.4504 792.2058 620.4504 L 785.4209 651.7942 C 785.3682 652.0375 785.3105 652.27975 785.2477 652.5207 L 777.2925 683.0794 C 776.4852 686.1804 774.7927 688.97935 772.4215 691.1347 L 768.99505 694.2491 C 768.8568 694.3748 768.7165 694.49834 768.5744 694.6197 L 759.5011 702.3649 C 759.5011 702.3649 752.2334 693.1165 752.2334 691.7953 C 752.2334 690.4741 744.15815 660.08644 744.15815 658.76524 C 744.15815 657.44404 740.1205 624.414 740.1205 624.414 C 740.1205 624.414 735.2754 572.8872 735.2754 571.566 C 735.2754 570.2448 727.6039 504.1847 727.6039 504.1847 C 727.6039 504.1847 725.1814 461.9063 724.7776 461.9063 C 724.3738 461.9063 720.3362 413.02184 720.3362 413.02184 L 717.5311 360.56977 C 717.51695 360.3058 717.497 360.0422 717.4713 359.77913 L 711.0497 294.11374 C 711.0497 294.11374 706.2046 228.05369 706.2046 225.41128 C 706.2046 222.76888 697.3218 168.59964 697.3218 168.59964 L 686.65975 144.53847 C 685.9653 142.97127 685.0505 141.5113 683.9432 140.2028 L 677.4802 132.56594 C 673.6803 128.07578 667.3841 126.61132 661.9927 128.9636 L 652.908 132.9272 C 652.908 132.9272 642.00646 171.24204 641.6027 171.24204 C 641.1989 171.24204 634.73875 230.6961 634.73875 230.6961 C 634.73875 230.6961 629.8936 299.39854 629.48985 299.39854 C 629.0861 299.39854 623.8372 378.6706 623.8372 378.6706 L 623.8372 401.03794 C 623.8372 401.97935 623.7633 402.9193 623.6163 403.84916 L 621.264 418.7261 C 621.2617 418.74055 621.24814 418.7504 621.2337 418.7481 C 621.2193 418.74584 621.20946 418.73234 621.2117 418.71793 Z" fill="black"/>
        <path d="M 621.2117 418.71793 L 631.8099 350.2662 C 631.8782 349.825 631.9301 349.38144 631.9654 348.9364 L 639.9055 248.9068 C 639.9602 248.2173 640.05464 247.53155 640.1883 246.85293 L 651.4653 189.59283 C 651.6194 188.81024 651.8254 188.03877 652.08185 187.2835 L 663.8096 152.74522 C 663.8096 152.74522 679.5563 154.06642 679.96005 154.06642 C 680.3638 154.06642 690.45786 197.66606 690.45786 197.66606 L 698.5331 235.9809 C 698.5331 235.9809 704.18575 312.61056 704.5895 313.93176 C 704.9933 315.25296 711.4535 397.16742 711.8572 401.13103 C 712.261 405.09463 717.1061 479.0819 717.5099 481.7243 C 717.91365 484.3667 725.9889 582.1356 726.3926 584.778 C 726.7964 587.4204 739.313 665.37125 739.7168 666.69245 C 740.1205 668.01365 754.2522 723.5041 754.656 724.8253 C 755.0597 726.1465 769.5951 719.5405 769.9989 719.5405 C 770.4027 719.5405 783.323 686.5105 783.323 686.5105 C 783.323 686.5105 799.4735 595.3476 799.8773 594.0264 C 800.281 592.7052 812.7976 525.3239 813.2014 522.6815 C 813.6052 520.0391 823.6992 447.37307 823.6992 447.37307 L 828.08 414.79366 C 828.1204 414.4933 828.1532 414.19195 828.1783 413.88993 L 833.9722 344.37394 C 834.1019 342.8183 833.0864 341.39742 831.5725 341.01638 L 831.5725 341.01638 C 830.3012 340.69635 829.011 341.4676 828.691 342.739 C 828.6658 342.8393 828.6471 342.9412 828.6351 343.04394 L 825.718 368.101 C 825.718 368.101 822.4879 410.37944 822.08415 410.37944 C 821.6804 410.37944 816.83525 448.69427 816.83525 450.01547 C 816.83525 451.33667 814.0089 485.6879 813.6052 487.0091 C 813.2014 488.3303 807.145 535.89354 806.7412 537.21474 C 806.3374 538.53594 801.8961 566.28116 801.4923 567.60237 C 801.0885 568.9236 792.2058 620.4504 792.2058 620.4504 L 785.4209 651.7942 C 785.3682 652.0375 785.3105 652.27975 785.2477 652.5207 L 777.2925 683.0794 C 776.4852 686.1804 774.7927 688.97935 772.4215 691.1347 L 768.99505 694.2491 C 768.8568 694.3748 768.7165 694.49834 768.5744 694.6197 L 759.5011 702.3649 C 759.5011 702.3649 752.2334 693.1165 752.2334 691.7953 C 752.2334 690.4741 744.15815 660.08644 744.15815 658.76524 C 744.15815 657.44404 740.1205 624.414 740.1205 624.414 C 740.1205 624.414 735.2754 572.8872 735.2754 571.566 C 735.2754 570.2448 727.6039 504.1847 727.6039 504.1847 C 727.6039 504.1847 725.1814 461.9063 724.7776 461.9063 C 724.3738 461.9063 720.3362 413.02184 720.3362 413.02184 L 717.5311 360.56977 C 717.51695 360.3058 717.497 360.0422 717.4713 359.77913 L 711.0497 294.11374 C 711.0497 294.11374 706.2046 228.05369 706.2046 225.41128 C 706.2046 222.76888 697.3218 168.59964 697.3218 168.59964 L 686.65975 144.53847 C 685.9653 142.97127 685.0505 141.5113 683.9432 140.2028 L 677.4802 132.56594 C 673.6803 128.07578 667.3841 126.61132 661.9927 128.9636 L 652.908 132.9272 C 652.908 132.9272 642.00646 171.24204 641.6027 171.24204 C 641.1989 171.24204 634.73875 230.6961 634.73875 230.6961 C 634.73875 230.6961 629.8936 299.39854 629.48985 299.39854 C 629.0861 299.39854 623.8372 378.6706 623.8372 378.6706 L 623.8372 401.03794 C 623.8372 401.97935 623.7633 402.9193 623.6163 403.84916 L 621.264 418.7261 C 621.2617 418.74055 621.24814 418.7504 621.2337 418.7481 C 621.2193 418.74584 621.20946 418.73234 621.2117 418.71793 Z" stroke="black" stroke-linecap="round" stroke-linejoin="round" stroke-width="3"/>
      </g>
    </g>
  </g>
</svg>
