<?xml version="1.0" encoding="UTF-8" standalone="no"?>
<!DOCTYPE svg PUBLIC "-//W3C//DTD SVG 1.1//EN" "http://www.w3.org/Graphics/SVG/1.1/DTD/svg11.dtd">
<svg xmlns:xl="http://www.w3.org/1999/xlink" xmlns:dc="http://purl.org/dc/elements/1.1/" version="1.1" xmlns="http://www.w3.org/2000/svg" viewBox="0 0 850.394 850.394" width="850.394" height="850.394">
  <defs/>
  <metadata> Produced by OmniGraffle 7.9.4 
    <dc:date>2019-05-18 12:02:24 +0000</dc:date>
  </metadata>
  <g id="digital" stroke-dasharray="none" stroke="none" stroke-opacity="1" fill="none" fill-opacity="1">
    <title>digital</title>
    <g id="digital: Layer 1">
      <title>Layer 1</title>
      <g id="Graphic_14">
        <path d="M 409.8277 517.197 L 413.3214 517.197 L 413.3214 333.197 L 229.3214 333.197 L 229.3214 517.197 L 232.81507 517.197 L 232.81507 348.05123 L 409.8277 348.05123 Z" stroke="black" stroke-linecap="round" stroke-linejoin="round" stroke-width="7"/>
      </g>
      <g id="Graphic_15">
        <path d="M 433.11886 333.197 L 429.6252 333.197 L 429.6252 517.197 L 613.6252 517.197 L 613.6252 333.197 L 610.1315 333.197 L 610.1315 502.34277 L 433.11886 502.34277 Z" stroke="black" stroke-linecap="round" stroke-linejoin="round" stroke-width="7"/>
      </g>
      <g id="Graphic_16">
        <path d="M 409.8277 517.197 L 413.3214 517.197 L 413.3214 333.197 L 229.3214 333.197 L 229.3214 517.197 L 232.81507 517.197 L 232.81507 348.05123 L 409.8277 348.05123 Z" stroke="black" stroke-linecap="round" stroke-linejoin="round" stroke-width="7"/>
      </g>
      <g id="Graphic_17">
        <path d="M 39.95868 333.197 L 36.46501 333.197 L 36.46501 517.197 L 220.465 517.197 L 220.465 333.197 L 216.97134 333.197 L 216.97134 502.34277 L 39.95868 502.34277 Z" stroke="black" stroke-linecap="round" stroke-linejoin="round" stroke-width="7"/>
      </g>
      <g id="Graphic_18">
        <path d="M 810.4353 517.197 L 813.929 517.197 L 813.929 333.197 L 629.929 333.197 L 629.929 517.197 L 633.42266 517.197 L 633.42266 348.05123 L 810.4353 348.05123 Z" stroke="black" stroke-linecap="round" stroke-linejoin="round" stroke-width="7"/>
      </g>
      <g id="Graphic_19">
        <path d="M 810.4353 517.197 L 813.929 517.197 L 813.929 333.197 L 629.929 333.197 L 629.929 517.197 L 633.42266 517.197 L 633.42266 348.05123 L 810.4353 348.05123 Z" stroke="black" stroke-linecap="round" stroke-linejoin="round" stroke-width="7"/>
      </g>
    </g>
  </g>
</svg>
