<?xml version="1.0" encoding="UTF-8" standalone="no"?>
<!DOCTYPE svg PUBLIC "-//W3C//DTD SVG 1.1//EN" "http://www.w3.org/Graphics/SVG/1.1/DTD/svg11.dtd">
<svg version="1.1" xmlns:xl="http://www.w3.org/1999/xlink" xmlns="http://www.w3.org/2000/svg" xmlns:dc="http://purl.org/dc/elements/1.1/" viewBox="0 0 850.394 850.394" width="850.394" height="850.394">
  <defs/>
  <metadata> Produced by OmniGraffle 7.9.4 
    <dc:date>2019-07-01 19:28:16 +0000</dc:date>
  </metadata>
  <g id="diminuendo" stroke-dasharray="none" stroke="none" fill="none" fill-opacity="1" stroke-opacity="1">
    <title>diminuendo</title>
    <g id="diminuendo: Layer 1">
      <title>Layer 1</title>
      <g id="Line_2">
        <line x1="774.9767" y1="408.54386" x2="130.49186" y2="773.5043" stroke="black" stroke-linecap="round" stroke-linejoin="round" stroke-width="14"/>
      </g>
      <g id="Line_3">
        <path d="M 774.9767 398.8677 L 124.0643 76.88971 L 124.0643 76.88971" stroke="black" stroke-linecap="round" stroke-linejoin="round" stroke-width="14"/>
      </g>
      <g id="Graphic_7">
        <path d="M 734.7316 426.62207 C 739.3246 412.6908 736.8704 396.2529 727.369 385.00047 C 714.55886 369.82927 693.7895 369.82927 680.9793 385.00047 C 671.47794 396.2529 669.02374 412.6908 673.6167 426.62207 C 670.9242 414.23816 673.672 400.5379 681.8601 390.84077 C 694.1838 376.2457 714.1645 376.2457 726.4882 390.84077 C 734.6763 400.5379 737.4241 414.23816 734.7316 426.62207 Z" fill="#999"/>
        <path d="M 734.7316 426.62207 C 739.3246 412.6908 736.8704 396.2529 727.369 385.00047 C 714.55886 369.82927 693.7895 369.82927 680.9793 385.00047 C 671.47794 396.2529 669.02374 412.6908 673.6167 426.62207 C 670.9242 414.23816 673.672 400.5379 681.8601 390.84077 C 694.1838 376.2457 714.1645 376.2457 726.4882 390.84077 C 734.6763 400.5379 737.4241 414.23816 734.7316 426.62207 Z" stroke="#a5a5a5" stroke-linecap="round" stroke-linejoin="round" stroke-width="7"/>
      </g>
      <g id="Graphic_6">
        <path d="M 611.0934 425.62207 C 606.5004 439.5533 608.9546 455.99124 618.456 467.24367 C 631.26615 482.4149 652.0355 482.4149 664.8457 467.24367 C 674.3471 455.99124 676.8013 439.5533 672.2083 425.62207 C 674.9008 438.006 672.153 451.70623 663.9649 461.4034 C 651.6412 475.99846 631.6605 475.99846 619.3368 461.4034 C 611.1487 451.70623 608.4009 438.006 611.0934 425.62207 Z" fill="#999"/>
        <path d="M 611.0934 425.62207 C 606.5004 439.5533 608.9546 455.99124 618.456 467.24367 C 631.26615 482.4149 652.0355 482.4149 664.8457 467.24367 C 674.3471 455.99124 676.8013 439.5533 672.2083 425.62207 C 674.9008 438.006 672.153 451.70623 663.9649 461.4034 C 651.6412 475.99846 631.6605 475.99846 619.3368 461.4034 C 611.1487 451.70623 608.4009 438.006 611.0934 425.62207 Z" stroke="#a5a5a5" stroke-linecap="round" stroke-linejoin="round" stroke-width="7"/>
      </g>
      <g id="Graphic_5">
        <path d="M 610.8761 440.51416 C 615.4691 409.08734 613.0149 372.00585 603.5135 346.62204 C 590.70336 312.39807 569.934 312.39807 557.1238 346.62204 C 547.62244 372.00585 545.16825 409.08734 549.7612 440.51416 C 547.0687 412.5779 549.8165 381.67217 558.0046 359.79687 C 570.3283 326.87254 590.309 326.87254 602.6327 359.79687 C 610.8208 381.67217 613.5686 412.5779 610.8761 440.51416 Z" fill="#999"/>
        <path d="M 610.8761 440.51416 C 615.4691 409.08734 613.0149 372.00585 603.5135 346.62204 C 590.70336 312.39807 569.934 312.39807 557.1238 346.62204 C 547.62244 372.00585 545.16825 409.08734 549.7612 440.51416 C 547.0687 412.5779 549.8165 381.67217 558.0046 359.79687 C 570.3283 326.87254 590.309 326.87254 602.6327 359.79687 C 610.8208 381.67217 613.5686 412.5779 610.8761 440.51416 Z" stroke="#a5a5a5" stroke-linecap="round" stroke-linejoin="round" stroke-width="7"/>
      </g>
      <g id="Graphic_4">
        <path d="M 489.9762 442.32513 C 485.3832 470.072 487.8374 502.8114 497.3388 525.22286 C 510.14895 555.43935 530.9183 555.43935 543.7285 525.22286 C 553.22987 502.8114 555.68406 470.072 551.0911 442.32513 C 553.7836 466.99016 551.0358 494.27696 542.8477 513.59075 C 530.524 542.6598 510.5433 542.6598 498.2196 513.59075 C 490.0315 494.27696 487.2837 466.99016 489.9762 442.32513 Z" fill="#999"/>
        <path d="M 489.9762 442.32513 C 485.3832 470.072 487.8374 502.8114 497.3388 525.22286 C 510.14895 555.43935 530.9183 555.43935 543.7285 525.22286 C 553.22987 502.8114 555.68406 470.072 551.0911 442.32513 C 553.7836 466.99016 551.0358 494.27696 542.8477 513.59075 C 530.524 542.6598 510.5433 542.6598 498.2196 513.59075 C 490.0315 494.27696 487.2837 466.99016 489.9762 442.32513 Z" stroke="#a5a5a5" stroke-linecap="round" stroke-linejoin="round" stroke-width="7"/>
      </g>
      <g id="Graphic_10">
        <path d="M 486.7619 485.96295 C 491.3549 425.35703 488.9007 353.8462 479.39933 304.89412 C 466.58916 238.89396 445.8198 238.89396 433.0096 304.89412 C 423.50825 353.8462 421.05405 425.35703 425.647 485.96295 C 422.9545 432.0885 425.7023 372.4875 433.8904 330.3015 C 446.21413 266.80765 466.1948 266.80765 478.5185 330.3015 C 486.7066 372.4875 489.4544 432.0885 486.76193 485.96295 Z" fill="#999"/>
        <path d="M 486.7619 485.96295 C 491.3549 425.35703 488.9007 353.8462 479.39933 304.89412 C 466.58916 238.89396 445.8198 238.89396 433.0096 304.89412 C 423.50825 353.8462 421.05405 425.35703 425.647 485.96295 C 422.9545 432.0885 425.7023 372.4875 433.8904 330.3015 C 446.21413 266.80765 466.1948 266.80765 478.5185 330.3015 C 486.7066 372.4875 489.4544 432.0885 486.76193 485.96295 Z" stroke="#a5a5a5" stroke-linecap="round" stroke-linejoin="round" stroke-width="7"/>
      </g>
      <g id="Graphic_11">
        <path d="M 364.1076 481.45175 C 359.51464 517.7104 361.96883 560.4931 371.4702 589.7796 C 384.28037 629.2655 405.04975 629.2655 417.8599 589.7796 C 427.3613 560.4931 429.8155 517.7104 425.2225 481.45175 C 427.915 513.68316 425.1672 549.3406 416.9791 574.5792 C 404.6554 612.5656 384.6747 612.5656 372.351 574.5792 C 364.1629 549.3406 361.4151 513.68316 364.1076 481.45175 Z" fill="#999"/>
        <path d="M 364.1076 481.45175 C 359.51464 517.7104 361.96883 560.4931 371.4702 589.7796 C 384.28037 629.2655 405.04975 629.2655 417.8599 589.7796 C 427.3613 560.4931 429.8155 517.7104 425.2225 481.45175 C 427.915 513.68316 425.1672 549.3406 416.9791 574.5792 C 404.6554 612.5656 384.6747 612.5656 372.351 574.5792 C 364.1629 549.3406 361.4151 513.68316 364.1076 481.45175 Z" stroke="#a5a5a5" stroke-linecap="round" stroke-linejoin="round" stroke-width="7"/>
      </g>
      <g id="Graphic_14">
        <path d="M 362.19266 487.394 C 367.7166 410.115 364.76494 318.93108 353.3377 256.51194 C 337.93097 172.35469 312.95173 172.35469 297.545 256.51194 C 286.11775 318.93108 283.1661 410.115 288.69003 487.394 C 285.4518 418.69835 288.75656 342.7007 298.60435 288.90903 C 313.426 207.94762 337.45668 207.94762 352.27835 288.90903 C 362.12614 342.7007 365.4309 418.69835 362.19266 487.394 Z" fill="#999"/>
        <path d="M 362.19266 487.394 C 367.7166 410.115 364.76494 318.93108 353.3377 256.51194 C 337.93097 172.35469 312.95173 172.35469 297.545 256.51194 C 286.11775 318.93108 283.1661 410.115 288.69003 487.394 C 285.4518 418.69835 288.75656 342.7007 298.60435 288.90903 C 313.426 207.94762 337.45668 207.94762 352.27835 288.90903 C 362.12614 342.7007 365.4309 418.69835 362.19266 487.394 Z" stroke="#a5a5a5" stroke-linecap="round" stroke-linejoin="round" stroke-width="7"/>
      </g>
      <g id="Graphic_15">
        <path d="M 210.81375 477.45175 C 205.00978 533.1616 208.11106 598.8953 220.1176 643.8928 C 236.3054 704.5611 262.55096 704.5611 278.73875 643.8928 C 290.7453 598.8953 293.84658 533.1616 288.0426 477.45175 C 291.44502 526.9739 287.9727 581.76 277.6257 620.538 C 262.05263 678.9024 236.80373 678.9024 221.23067 620.538 C 210.88365 581.76 207.41134 526.9739 210.81375 477.45175 Z" fill="#999"/>
        <path d="M 210.81375 477.45175 C 205.00978 533.1616 208.11106 598.8953 220.1176 643.8928 C 236.3054 704.5611 262.55096 704.5611 278.73875 643.8928 C 290.7453 598.8953 293.84658 533.1616 288.0426 477.45175 C 291.44502 526.9739 287.9727 581.76 277.6257 620.538 C 262.05263 678.9024 236.80373 678.9024 221.23067 620.538 C 210.88365 581.76 207.41134 526.9739 210.81375 477.45175 Z" stroke="#a5a5a5" stroke-linecap="round" stroke-linejoin="round" stroke-width="7"/>
      </g>
      <g id="Graphic_16">
        <path d="M 209.21595 479.394 C 214.73989 383.18952 211.78823 269.67485 200.361 191.9694 C 184.95425 87.2022 159.97502 87.2022 144.56828 191.9694 C 133.14104 269.67485 130.18939 383.18952 135.71332 479.394 C 132.47507 393.8749 135.77985 299.26563 145.62763 232.30046 C 160.4493 131.51177 184.47997 131.51177 199.30164 232.30046 C 209.14943 299.26563 212.4542 393.8749 209.21595 479.394 Z" fill="#999"/>
        <path d="M 209.21595 479.394 C 214.73989 383.18952 211.78823 269.67485 200.361 191.9694 C 184.95425 87.2022 159.97502 87.2022 144.56828 191.9694 C 133.14104 269.67485 130.18939 383.18952 135.71332 479.394 C 132.47507 393.8749 135.77985 299.26563 145.62763 232.30046 C 160.4493 131.51177 184.47997 131.51177 199.30164 232.30046 C 209.14943 299.26563 212.4542 393.8749 209.21595 479.394 Z" stroke="#a5a5a5" stroke-linecap="round" stroke-linejoin="round" stroke-width="7"/>
      </g>
      <g id="Graphic_17">
        <path d="M 61.700155 469.45176 C 56.17622 545.0349 59.12787 634.2178 70.55511 695.2672 C 85.96185 777.5776 110.94109 777.5776 126.34783 695.2672 C 137.77507 634.2178 140.72672 545.0349 135.20278 469.45176 C 138.44103 536.6399 135.13626 610.9698 125.28847 663.581 C 110.4668 742.76575 86.43614 742.76575 71.61447 663.581 C 61.76668 610.9698 58.461906 536.6399 61.70015 469.45175 Z" fill="#999"/>
        <path d="M 61.700155 469.45176 C 56.17622 545.0349 59.12787 634.2178 70.55511 695.2672 C 85.96185 777.5776 110.94109 777.5776 126.34783 695.2672 C 137.77507 634.2178 140.72672 545.0349 135.20278 469.45176 C 138.44103 536.6399 135.13626 610.9698 125.28847 663.581 C 110.4668 742.76575 86.43614 742.76575 71.61447 663.581 C 61.76668 610.9698 58.461906 536.6399 61.70015 469.45175 Z" stroke="#a5a5a5" stroke-linecap="round" stroke-linejoin="round" stroke-width="7"/>
      </g>
    </g>
  </g>
</svg>
