<?xml version="1.0" encoding="UTF-8" standalone="no"?>
<!DOCTYPE svg PUBLIC "-//W3C//DTD SVG 1.1//EN" "http://www.w3.org/Graphics/SVG/1.1/DTD/svg11.dtd">
<svg version="1.1" xmlns:dc="http://purl.org/dc/elements/1.1/" xmlns="http://www.w3.org/2000/svg" xmlns:xl="http://www.w3.org/1999/xlink" viewBox="0 0 850.394 850.394" width="850.394" height="850.394">
  <defs/>
  <metadata> Produced by OmniGraffle 7.9.4 
    <dc:date>2019-07-06 18:24:49 +0000</dc:date>
  </metadata>
  <g id="diode" fill-opacity="1" stroke="none" stroke-opacity="1" stroke-dasharray="none" fill="none">
    <title>diode</title>
    <g id="diode: Layer 1">
      <title>Layer 1</title>
      <g id="Line_9">
        <path d="M 415.8372 184.7687 L 338.68803 172.25802 C 333.0305 171.34058 327.2512 172.89444 322.81654 176.52533 L 241.31688 243.25356 C 241.2977 243.26928 241.27852 243.28503 241.25938 243.30082 L 171.54914 300.81107 C 170.73986 301.47872 169.8793 302.08166 168.97542 302.6143 L 37 380.38553" stroke="black" stroke-linecap="round" stroke-linejoin="round" stroke-width="16"/>
      </g>
      <g id="Line_8">
        <path d="M 717.2093 276.26455 L 782.7213 307.3339 C 792.7015 312.06707 796.9551 323.9946 792.2219 333.97482 C 791.5971 335.29243 790.82995 336.53775 789.9343 337.68855 L 730.2388 414.38914 C 729.9093 414.8126 729.5628 415.2226 729.20026 415.61817 L 552.46955 608.4572 C 552.1334 608.824 551.78374 609.1781 551.4212 609.51875 L 476 680.3952" stroke="black" stroke-linecap="round" stroke-linejoin="round" stroke-width="16"/>
      </g>
      <g id="Graphic_11">
        <path d="M 417.33305 172.92807 L 425.2157 161.14915 C 428.37914 156.42203 432.3715 152.30607 437 149 L 437 149 C 441.4259 145.83864 447.04604 144.85332 452.2834 146.32053 L 712.2973 219.1613 C 720.8663 221.56185 727.6859 228.05772 730.5 236.5 L 730.5 236.5 C 733.4038 245.21132 733.0944 254.6742 729.6278 263.17724 L 719.9974 286.79932 C 717.1928 293.67856 712.89054 299.8464 707.40336 304.8544 L 704.3688 307.62396 C 697.3435 314.03583 687.4112 316.17093 678.3715 313.2125 L 529.6036 264.52482 C 528.53484 264.17504 527.4782 263.7893 526.4354 263.36826 L 418.9541 219.9704 C 409.44513 216.13096 404.56444 205.55613 407.81195 195.8291 L 411.46 184.9023 C 412.8742 180.66653 414.84944 176.6393 417.33305 172.92807 Z" fill="#554618"/>
        <path d="M 417.33305 172.92807 L 425.2157 161.14915 C 428.37914 156.42203 432.3715 152.30607 437 149 L 437 149 C 441.4259 145.83864 447.04604 144.85332 452.2834 146.32053 L 712.2973 219.1613 C 720.8663 221.56185 727.6859 228.05772 730.5 236.5 L 730.5 236.5 C 733.4038 245.21132 733.0944 254.6742 729.6278 263.17724 L 719.9974 286.79932 C 717.1928 293.67856 712.89054 299.8464 707.40336 304.8544 L 704.3688 307.62396 C 697.3435 314.03583 687.4112 316.17093 678.3715 313.2125 L 529.6036 264.52482 C 528.53484 264.17504 527.4782 263.7893 526.4354 263.36826 L 418.9541 219.9704 C 409.44513 216.13096 404.56444 205.55613 407.81195 195.8291 L 411.46 184.9023 C 412.8742 180.66653 414.84944 176.6393 417.33305 172.92807 Z" stroke="black" stroke-linecap="round" stroke-linejoin="round" stroke-width="8"/>
      </g>
      <g id="Graphic_17">
        <path d="M 651.5 226 L 647.52794 232.17876 C 641.3161 241.84157 638.11354 253.13133 638.3262 264.6166 L 638.5104 274.5612 C 638.8007 290.23722 649.3806 303.84958 664.5 308 L 673.5781 310.49203 C 683.8559 313.31338 694.86385 310.88444 703 304 L 703.4045 303.65777 C 711.63815 296.6908 717.7661 287.56596 721.0998 277.30835 L 724.0066 268.36443 C 727.23304 258.4368 726.8769 247.69216 723 238 L 723 238 C 719.1894 228.4735 711.4292 221.07164 701.7333 217.71537 L 688.59155 213.1663 C 674.74755 208.37415 659.4221 213.67677 651.5 226 Z" fill="#cbcbcb"/>
        <path d="M 651.5 226 L 647.52794 232.17876 C 641.3161 241.84157 638.11354 253.13133 638.3262 264.6166 L 638.5104 274.5612 C 638.8007 290.23722 649.3806 303.84958 664.5 308 L 673.5781 310.49203 C 683.8559 313.31338 694.86385 310.88444 703 304 L 703.4045 303.65777 C 711.63815 296.6908 717.7661 287.56596 721.0998 277.30835 L 724.0066 268.36443 C 727.23304 258.4368 726.8769 247.69216 723 238 L 723 238 C 719.1894 228.4735 711.4292 221.07164 701.7333 217.71537 L 688.59155 213.1663 C 674.74755 208.37415 659.4221 213.67677 651.5 226 Z" stroke="black" stroke-linecap="round" stroke-linejoin="round" stroke-width="1"/>
      </g>
      <g id="Line_16">
        <path d="M 668.8648 210 L 663.0497 216.97288 C 657.0386 224.18083 652.0721 232.19912 648.2965 240.79172 L 645.8931 246.26144 C 642.0124 255.09325 640.2091 264.6975 640.6219 274.33545 L 640.8052 278.61594 C 641.0973 285.43763 642.95165 292.1012 646.22525 298.0932 L 646.22525 298.0932" stroke="#acb1af" stroke-linecap="round" stroke-linejoin="round" stroke-width="7"/>
      </g>
    </g>
  </g>
</svg>
