<?xml version="1.0" encoding="UTF-8" standalone="no"?>
<!DOCTYPE svg PUBLIC "-//W3C//DTD SVG 1.1//EN" "http://www.w3.org/Graphics/SVG/1.1/DTD/svg11.dtd">
<svg xmlns="http://www.w3.org/2000/svg" version="1.1" xmlns:dc="http://purl.org/dc/elements/1.1/" xmlns:xl="http://www.w3.org/1999/xlink" viewBox="0 0 850.394 850.394" width="850.394" height="850.394">
  <defs/>
  <metadata> Produced by OmniGraffle 7.9.4 
    <dc:date>2019-03-11 03:05:16 +0000</dc:date>
  </metadata>
  <g id="distortion" fill="none" stroke-opacity="1" fill-opacity="1" stroke-dasharray="none" stroke="none">
    <title>distortion</title>
    <g id="distortion: Layer 1">
      <title>Layer 1</title>
      <g id="Graphic_2">
        <path d="M 94.24298 442.5299 L 106.33604 388.0713 C 106.42874 387.65382 106.50654 387.23317 106.56928 386.81015 L 118.23803 308.13736 C 118.73585 304.7809 120.17226 301.63353 122.3816 299.0582 L 170.27815 243.22686 C 170.9841 242.40397 171.76294 241.64654 172.6052 240.9638 L 211.05194 209.79916 C 211.05194 209.79916 262.67846 210.99141 264.00222 210.99141 C 265.32597 210.99141 298.4199 250.33577 298.4199 250.33577 L 309 330 C 309 330 323.67624 264.80775 325 266 C 326.32376 267.19225 367.25526 430.366 368.579 433.94276 C 369.90277 437.5195 404.67624 498.6155 406 501 C 407.32376 503.3845 414.9105 597.28144 416.23427 599.66595 C 417.558 602.05046 458.5945 672.3934 459.91825 673.58565 C 461.242 674.7779 500.97343 707.8006 502.2972 708.9928 C 503.62095 710.1851 554.67624 612 556 612 C 557.32376 612 602.884 691.46945 602.884 691.46945 C 602.884 691.46945 638.65026 585.7464 639.974 584.5542 C 641.2978 583.3619 718.0792 539.2813 719.40295 536.8968 C 720.7267 534.5123 722.0506 393.9247 722.0506 393.9247 L 735.9358 419.895 C 739.1105 425.8329 746.4978 428.07286 752.4357 424.8981 C 755.2885 423.3728 757.4182 420.77617 758.3558 417.67996 L 767.1777 388.54625 C 768.2781 384.91225 766.22425 381.07426 762.59025 379.97385 C 762.0965 379.82435 761.5876 379.7309 761.073 379.69524 L 761.073 379.69524 C 755.9251 379.3386 751.1188 382.29024 749.1086 387.0428 L 741.8785 404.13643 C 741.8785 404.13643 731.2884 442.28853 729.9647 442.28853 C 728.6409 442.28853 712.7558 476.8639 712.7558 478.0561 C 712.7558 479.2484 703.4895 510.24696 702.1658 511.4392 C 700.842 512.63147 672.32376 520.80775 671 522 C 669.67624 523.19225 663.7768 582.9744 662.4531 584.16666 C 661.1293 585.3589 632.00665 631.8568 632.00665 631.8568 L 610.0101 659.8258 C 609.6721 660.2556 609.3146 660.6698 608.93885 661.0671 L 582.66727 688.8439 C 580.3092 691.3371 577.2876 693.1042 573.9586 693.9371 L 555.3543 698.59155 C 555.2706 698.6125 555.18674 698.6328 555.10274 698.6526 L 524.78234 705.7765 C 524.78234 705.7765 494 550.19225 494 549 C 494 547.80775 474.4796 667.6244 474.4796 666.4321 C 474.4796 665.2399 461.242 635.43355 461.242 635.43355 C 461.242 635.43355 445.3569 588.9357 445.3569 587.7434 C 445.3569 586.5512 420.20554 526.9385 420.20554 526.9385 C 420.20554 526.9385 412.263 488.7864 410.93924 488.7864 C 409.6155 488.7864 396.3779 444.67304 396.3779 444.67304 L 382.8888 415.89615 C 382.29826 414.6363 381.8558 413.3122 381.57023 411.95045 L 365.9315 337.37025 C 365.9315 337.37025 350.0464 277.7576 350.0464 275.3731 C 350.0464 272.98858 322.25826 250.95263 322.25826 250.95263 L 283.69057 250.95263 C 277.24844 250.95263 271.29747 247.50983 268.08626 241.9251 L 258.0532 224.4763 C 253.99742 217.42277 244.99153 214.99261 237.938 219.0484 C 235.0504 220.70877 232.8107 223.29868 231.58426 226.3956 L 206 291 C 206 291 205.32376 239 204 239 C 202.67624 239 115.74144 280.1421 115.74144 280.1421 C 115.74144 280.1421 99.85635 342.13926 98.5326 342.13926 C 97.20884 342.13926 80 413.67445 80 413.67445 L 80 429.68837 C 80 433.23995 81.05066 436.71216 83.01972 439.6679 L 85.95691 444.0769 C 87.35985 446.18287 90.20439 446.7528 92.31035 445.34983 C 93.29424 444.6944 93.9867 443.684 94.24298 442.5299 Z" fill="black"/>
        <path d="M 94.24298 442.5299 L 106.33604 388.0713 C 106.42874 387.65382 106.50654 387.23317 106.56928 386.81015 L 118.23803 308.13736 C 118.73585 304.7809 120.17226 301.63353 122.3816 299.0582 L 170.27815 243.22686 C 170.9841 242.40397 171.76294 241.64654 172.6052 240.9638 L 211.05194 209.79916 C 211.05194 209.79916 262.67846 210.99141 264.00222 210.99141 C 265.32597 210.99141 298.4199 250.33577 298.4199 250.33577 L 309 330 C 309 330 323.67624 264.80775 325 266 C 326.32376 267.19225 367.25526 430.366 368.579 433.94276 C 369.90277 437.5195 404.67624 498.6155 406 501 C 407.32376 503.3845 414.9105 597.28144 416.23427 599.66595 C 417.558 602.05046 458.5945 672.3934 459.91825 673.58565 C 461.242 674.7779 500.97343 707.8006 502.2972 708.9928 C 503.62095 710.1851 554.67624 612 556 612 C 557.32376 612 602.884 691.46945 602.884 691.46945 C 602.884 691.46945 638.65026 585.7464 639.974 584.5542 C 641.2978 583.3619 718.0792 539.2813 719.40295 536.8968 C 720.7267 534.5123 722.0506 393.9247 722.0506 393.9247 L 735.9358 419.895 C 739.1105 425.8329 746.4978 428.07286 752.4357 424.8981 C 755.2885 423.3728 757.4182 420.77617 758.3558 417.67996 L 767.1777 388.54625 C 768.2781 384.91225 766.22425 381.07426 762.59025 379.97385 C 762.0965 379.82435 761.5876 379.7309 761.073 379.69524 L 761.073 379.69524 C 755.9251 379.3386 751.1188 382.29024 749.1086 387.0428 L 741.8785 404.13643 C 741.8785 404.13643 731.2884 442.28853 729.9647 442.28853 C 728.6409 442.28853 712.7558 476.8639 712.7558 478.0561 C 712.7558 479.2484 703.4895 510.24696 702.1658 511.4392 C 700.842 512.63147 672.32376 520.80775 671 522 C 669.67624 523.19225 663.7768 582.9744 662.4531 584.16666 C 661.1293 585.3589 632.00665 631.8568 632.00665 631.8568 L 610.0101 659.8258 C 609.6721 660.2556 609.3146 660.6698 608.93885 661.0671 L 582.66727 688.8439 C 580.3092 691.3371 577.2876 693.1042 573.9586 693.9371 L 555.3543 698.59155 C 555.2706 698.6125 555.18674 698.6328 555.10274 698.6526 L 524.78234 705.7765 C 524.78234 705.7765 494 550.19225 494 549 C 494 547.80775 474.4796 667.6244 474.4796 666.4321 C 474.4796 665.2399 461.242 635.43355 461.242 635.43355 C 461.242 635.43355 445.3569 588.9357 445.3569 587.7434 C 445.3569 586.5512 420.20554 526.9385 420.20554 526.9385 C 420.20554 526.9385 412.263 488.7864 410.93924 488.7864 C 409.6155 488.7864 396.3779 444.67304 396.3779 444.67304 L 382.8888 415.89615 C 382.29826 414.6363 381.8558 413.3122 381.57023 411.95045 L 365.9315 337.37025 C 365.9315 337.37025 350.0464 277.7576 350.0464 275.3731 C 350.0464 272.98858 322.25826 250.95263 322.25826 250.95263 L 283.69057 250.95263 C 277.24844 250.95263 271.29747 247.50983 268.08626 241.9251 L 258.0532 224.4763 C 253.99742 217.42277 244.99153 214.99261 237.938 219.0484 C 235.0504 220.70877 232.8107 223.29868 231.58426 226.3956 L 206 291 C 206 291 205.32376 239 204 239 C 202.67624 239 115.74144 280.1421 115.74144 280.1421 C 115.74144 280.1421 99.85635 342.13926 98.5326 342.13926 C 97.20884 342.13926 80 413.67445 80 413.67445 L 80 429.68837 C 80 433.23995 81.05066 436.71216 83.01972 439.6679 L 85.95691 444.0769 C 87.35985 446.18287 90.20439 446.7528 92.31035 445.34983 C 93.29424 444.6944 93.9867 443.684 94.24298 442.5299 Z" stroke="black" stroke-linecap="round" stroke-linejoin="round" stroke-width="3"/>
      </g>
      <g id="Graphic_3">
        <rect x="0" y="0" width="852" height="224" fill="red"/>
        <rect x="0" y="0" width="852" height="224" stroke="black" stroke-linecap="round" stroke-linejoin="round" stroke-width="1"/>
      </g>
      <g id="Graphic_5">
        <rect x="-1.1613119" y="635" width="852" height="224" fill="red"/>
        <rect x="-1.1613119" y="635" width="852" height="224" stroke="black" stroke-linecap="round" stroke-linejoin="round" stroke-width="1"/>
      </g>
      <g id="Graphic_7">
        <rect x="197" y="217" width="85" height="23" fill="black"/>
        <rect x="197" y="217" width="85" height="23" stroke="black" stroke-linecap="round" stroke-linejoin="round" stroke-width="1"/>
      </g>
      <g id="Graphic_8">
        <rect x="439" y="629" width="186" height="23" fill="black"/>
        <rect x="439" y="629" width="186" height="23" stroke="black" stroke-linecap="round" stroke-linejoin="round" stroke-width="1"/>
      </g>
    </g>
  </g>
</svg>
