<?xml version="1.0" encoding="UTF-8" standalone="no"?>
<!DOCTYPE svg PUBLIC "-//W3C//DTD SVG 1.1//EN" "http://www.w3.org/Graphics/SVG/1.1/DTD/svg11.dtd">
<svg xmlns:xl="http://www.w3.org/1999/xlink" xmlns:dc="http://purl.org/dc/elements/1.1/" xmlns="http://www.w3.org/2000/svg" version="1.1" viewBox="0 0 850.394 850.394" width="850.394" height="850.394">
  <defs/>
  <metadata> Produced by OmniGraffle 7.9.4 
    <dc:date>2019-10-01 00:31:30 +0000</dc:date>
  </metadata>
  <g id="don_t_touch" stroke="none" stroke-dasharray="none" fill="none" stroke-opacity="1" fill-opacity="1">
    <title>don&apos;t touch</title>
    <g id="don_t_touch: Layer 1">
      <title>Layer 1</title>
      <g id="Graphic_6">
        <path d="M 692.9511 158.09505 C 835.8836 301.02684 835.8836 532.76486 692.9511 675.69665 C 550.0193 818.6292 318.2813 818.6292 175.3495 675.69665 C 32.41699 532.76486 32.41699 301.02684 175.3495 158.09505 C 318.2813 15.162538 550.0193 15.162538 692.9511 158.09505" stroke="#b1001c" stroke-linecap="round" stroke-linejoin="round" stroke-width="16"/>
      </g>
      <g id="Graphic_9">
        <path d="M 763.4367 320.93933 L 726.56185 304.71695 L 663.8154 310.10035 L 614.10146 306.29223 L 552.36015 296.09048 L 461.40974 284.98777 L 539.9403 242.42164 L 571.70336 202.18845 L 543.1925 172 L 499.2191 189.65038 L 459.8225 208.52714 L 415.4002 218.699 L 345.93626 230.20972 L 302.3656 258.69966 L 272.54936 279.24848 L 226.33628 317.60005 L 194.78188 329.24063 L 131.24802 336.3281 L 74.0823 335.59324 L 48.67186 500.7611 L 76.199835 591.81515 L 149.74035 569.3891 L 193.75363 561.4842 L 252.55543 555.0438 L 326.1307 568.41646 L 375.6322 584.85125 L 426.3323 588.9236 L 477.3011 587.2553 L 497.38815 571.7892 L 502.6259 529.0371 L 527.70474 510.3898 L 531.4702 475.35065 L 533.5877 456.2928 L 553.8777 425.04387 L 535.77845 373.5919 L 592.6461 374.53083 L 660.781 372.7052 L 706.1634 369.0109 L 739.7119 362.1457 L 763.0119 346.19266 Z" fill="#ad7526"/>
        <path d="M 763.4367 320.93933 L 726.56185 304.71695 L 663.8154 310.10035 L 614.10146 306.29223 L 552.36015 296.09048 L 461.40974 284.98777 L 539.9403 242.42164 L 571.70336 202.18845 L 543.1925 172 L 499.2191 189.65038 L 459.8225 208.52714 L 415.4002 218.699 L 345.93626 230.20972 L 302.3656 258.69966 L 272.54936 279.24848 L 226.33628 317.60005 L 194.78188 329.24063 L 131.24802 336.3281 L 74.0823 335.59324 L 48.67186 500.7611 L 76.199835 591.81515 L 149.74035 569.3891 L 193.75363 561.4842 L 252.55543 555.0438 L 326.1307 568.41646 L 375.6322 584.85125 L 426.3323 588.9236 L 477.3011 587.2553 L 497.38815 571.7892 L 502.6259 529.0371 L 527.70474 510.3898 L 531.4702 475.35065 L 533.5877 456.2928 L 553.8777 425.04387 L 535.77845 373.5919 L 592.6461 374.53083 L 660.781 372.7052 L 706.1634 369.0109 L 739.7119 362.1457 L 763.0119 346.19266 Z" stroke="black" stroke-linecap="round" stroke-linejoin="round" stroke-width="6"/>
      </g>
      <g id="Graphic_8">
        <ellipse cx="81.36937" cy="461.71985" rx="43.3694428947829" ry="129.459757884114" fill="black"/>
        <ellipse cx="81.36937" cy="461.71985" rx="43.3694428947829" ry="129.459757884114" stroke="black" stroke-linecap="round" stroke-linejoin="round" stroke-width="7"/>
      </g>
      <g id="Line_7">
        <line x1="180.7742" y1="663.80645" x2="689.7397" y2="166.87475" stroke="#b1001c" stroke-linecap="round" stroke-linejoin="round" stroke-width="30"/>
      </g>
    </g>
  </g>
</svg>
