<?xml version="1.0" encoding="UTF-8" standalone="no"?>
<!DOCTYPE svg PUBLIC "-//W3C//DTD SVG 1.1//EN" "http://www.w3.org/Graphics/SVG/1.1/DTD/svg11.dtd">
<svg xmlns:dc="http://purl.org/dc/elements/1.1/" version="1.1" xmlns:xl="http://www.w3.org/1999/xlink" xmlns="http://www.w3.org/2000/svg" viewBox="0 0 850.394 850.394" width="850.394" height="850.394">
  <defs/>
  <metadata> Produced by OmniGraffle 7.9.4 
    <dc:date>2019-10-10 12:33:08 +0000</dc:date>
  </metadata>
  <g id="drill_head" stroke-dasharray="none" fill="none" fill-opacity="1" stroke="none" stroke-opacity="1">
    <title>drill head</title>
    <g id="drill_head: Layer 1">
      <title>Layer 1</title>
      <g id="Graphic_8">
        <path d="M 594.82914 293.86417 L 541.6072 393.96005 C 526.0503 423.21836 489.7204 434.32553 460.46207 418.7686 L 434.97686 405.2179 C 405.71855 389.66097 394.61137 353.33105 410.1683 324.07274 C 410.1683 324.07274 410.1683 324.07274 410.1683 324.07274 L 463.3902 223.97686 C 478.94714 194.71855 515.27706 183.61137 544.53537 199.1683 L 570.0206 212.71902 C 599.2789 228.27594 610.38606 264.60586 594.82914 293.86417 C 594.82914 293.86417 594.82914 293.86417 594.82914 293.86417 Z" fill="#dead26"/>
        <path d="M 594.82914 293.86417 L 541.6072 393.96005 C 526.0503 423.21836 489.7204 434.32553 460.46207 418.7686 L 434.97686 405.2179 C 405.71855 389.66097 394.61137 353.33105 410.1683 324.07274 C 410.1683 324.07274 410.1683 324.07274 410.1683 324.07274 L 463.3902 223.97686 C 478.94714 194.71855 515.27706 183.61137 544.53537 199.1683 L 570.0206 212.71902 C 599.2789 228.27594 610.38606 264.60586 594.82914 293.86417 C 594.82914 293.86417 594.82914 293.86417 594.82914 293.86417 Z" stroke="black" stroke-linecap="round" stroke-linejoin="round" stroke-width="10"/>
      </g>
      <g id="Graphic_2">
        <path d="M 330.56704 275.38727 L 636.1553 451.8187 C 664.8528 468.38726 674.68534 505.0827 658.1168 533.78025 C 658.1168 533.78025 658.1168 533.78025 658.1168 533.78025 L 643.63406 558.8651 C 627.0655 587.56264 590.3701 597.39515 561.67253 580.8266 L 256.0843 404.39516 C 227.38675 387.8266 217.55424 351.1312 234.12278 322.43364 L 248.60552 297.3488 C 265.17406 268.65124 301.8695 258.81873 330.56704 275.38727 C 330.56704 275.38727 330.56704 275.38727 330.56704 275.38727 Z" fill="#dead26"/>
        <path d="M 330.56704 275.38727 L 636.1553 451.8187 C 664.8528 468.38726 674.68534 505.0827 658.1168 533.78025 C 658.1168 533.78025 658.1168 533.78025 658.1168 533.78025 L 643.63406 558.8651 C 627.0655 587.56264 590.3701 597.39515 561.67253 580.8266 L 256.0843 404.39516 C 227.38675 387.8266 217.55424 351.1312 234.12278 322.43364 L 248.60552 297.3488 C 265.17406 268.65124 301.8695 258.81873 330.56704 275.38727 C 330.56704 275.38727 330.56704 275.38727 330.56704 275.38727 Z" stroke="black" stroke-linecap="round" stroke-linejoin="round" stroke-width="10"/>
      </g>
      <g id="Graphic_3">
        <path d="M 316.2824 380.76167 L 552.0407 516.8768 C 580.73824 533.4453 590.57075 570.14074 574.0022 598.8383 C 574.0022 598.8383 574.0022 598.8383 574.0022 598.8383 L 559.5195 623.9231 C 542.9509 652.6207 506.2555 662.4532 477.55795 645.88466 L 241.79968 509.76956 C 213.10212 493.201 203.2696 456.5056 219.83815 427.80803 L 234.3209 402.7232 C 250.88943 374.02563 287.58486 364.19312 316.2824 380.76167 C 316.2824 380.76167 316.2824 380.76167 316.2824 380.76167 Z" fill="#dead26"/>
        <path d="M 316.2824 380.76167 L 552.0407 516.8768 C 580.73824 533.4453 590.57075 570.14074 574.0022 598.8383 C 574.0022 598.8383 574.0022 598.8383 574.0022 598.8383 L 559.5195 623.9231 C 542.9509 652.6207 506.2555 662.4532 477.55795 645.88466 L 241.79968 509.76956 C 213.10212 493.201 203.2696 456.5056 219.83815 427.80803 L 234.3209 402.7232 C 250.88943 374.02563 287.58486 364.19312 316.2824 380.76167 C 316.2824 380.76167 316.2824 380.76167 316.2824 380.76167 Z" stroke="black" stroke-linecap="round" stroke-linejoin="round" stroke-width="10"/>
      </g>
      <g id="Graphic_4">
        <path d="M 307.5347 470.39587 L 478.78904 569.2696 C 507.4866 585.83814 517.3191 622.5336 500.75057 651.2311 L 500.41176 651.81795 C 483.8432 680.5155 447.1478 690.348 418.45024 673.7795 L 247.1959 574.90574 C 218.49835 558.3372 208.66584 521.6418 225.23438 492.9442 C 225.23438 492.9442 225.23438 492.9442 225.23438 492.9442 L 225.5732 492.3574 C 242.14173 463.65984 278.83716 453.8273 307.5347 470.39587 Z" fill="#dead26"/>
        <path d="M 307.5347 470.39587 L 478.78904 569.2696 C 507.4866 585.83814 517.3191 622.5336 500.75057 651.2311 L 500.41176 651.81795 C 483.8432 680.5155 447.1478 690.348 418.45024 673.7795 L 247.1959 574.90574 C 218.49835 558.3372 208.66584 521.6418 225.23438 492.9442 C 225.23438 492.9442 225.23438 492.9442 225.23438 492.9442 L 225.5732 492.3574 C 242.14173 463.65984 278.83716 453.8273 307.5347 470.39587 Z" stroke="black" stroke-linecap="round" stroke-linejoin="round" stroke-width="10"/>
      </g>
      <g id="Graphic_5">
        <path d="M 288.66655 554.187 L 415.65786 627.5055 C 437.1319 639.9035 444.48943 667.36225 432.0914 688.8363 C 432.0914 688.8363 432.0914 688.8363 432.0914 688.8363 L 432.0914 688.8363 C 419.69336 710.3103 392.23462 717.66786 370.7606 705.2698 L 243.7693 631.95136 C 222.29526 619.5533 214.93772 592.0946 227.33575 570.62056 L 227.33575 570.62056 C 239.7338 549.1465 267.19252 541.789 288.66655 554.187 Z" fill="#dead26"/>
        <path d="M 288.66655 554.187 L 415.65786 627.5055 C 437.1319 639.9035 444.48943 667.36225 432.0914 688.8363 C 432.0914 688.8363 432.0914 688.8363 432.0914 688.8363 L 432.0914 688.8363 C 419.69336 710.3103 392.23462 717.66786 370.7606 705.2698 L 243.7693 631.95136 C 222.29526 619.5533 214.93772 592.0946 227.33575 570.62056 L 227.33575 570.62056 C 239.7338 549.1465 267.19252 541.789 288.66655 554.187 Z" stroke="black" stroke-linecap="round" stroke-linejoin="round" stroke-width="10"/>
      </g>
      <g id="Graphic_6">
        <path d="M 285.92424 615.7269 L 363.73394 660.6503 C 376.89144 668.2468 381.39953 685.0712 373.80304 698.2287 L 373.80304 698.2287 C 366.20656 711.3862 349.38213 715.8943 336.22464 708.2978 C 336.22464 708.2978 336.22464 708.2978 336.22464 708.2978 L 258.41494 663.3744 C 245.25744 655.7779 240.74935 638.9535 248.34583 625.796 L 248.34583 625.796 C 255.94232 612.6385 272.76674 608.1304 285.92424 615.7269 C 285.92424 615.7269 285.92424 615.7269 285.92424 615.7269 Z" fill="#dead26"/>
        <path d="M 285.92424 615.7269 L 363.73394 660.6503 C 376.89144 668.2468 381.39953 685.0712 373.80304 698.2287 L 373.80304 698.2287 C 366.20656 711.3862 349.38213 715.8943 336.22464 708.2978 C 336.22464 708.2978 336.22464 708.2978 336.22464 708.2978 L 258.41494 663.3744 C 245.25744 655.7779 240.74935 638.9535 248.34583 625.796 L 248.34583 625.796 C 255.94232 612.6385 272.76674 608.1304 285.92424 615.7269 C 285.92424 615.7269 285.92424 615.7269 285.92424 615.7269 Z" stroke="black" stroke-linecap="round" stroke-linejoin="round" stroke-width="10"/>
      </g>
      <g id="Graphic_7">
        <path d="M 317.65017 698.1586 L 288.7523 723.98985 C 280.5171 731.35115 267.87362 730.6427 260.51233 722.4075 C 256.27966 717.6723 254.54762 711.2083 255.84564 704.9912 L 263.76723 667.04926 C 266.0247 656.2367 276.62004 649.30144 287.4326 651.5589 C 289.51074 651.9928 291.50655 652.7548 293.3451 653.81625 L 314.32136 665.9269 C 323.8872 671.4498 327.1647 683.6816 321.64187 693.2474 C 320.5804 695.08596 319.23296 696.7438 317.65017 698.1586 Z" fill="#dead26"/>
        <path d="M 317.65017 698.1586 L 288.7523 723.98985 C 280.5171 731.35115 267.87362 730.6427 260.51233 722.4075 C 256.27966 717.6723 254.54762 711.2083 255.84564 704.9912 L 263.76723 667.04926 C 266.0247 656.2367 276.62004 649.30144 287.4326 651.5589 C 289.51074 651.9928 291.50655 652.7548 293.3451 653.81625 L 314.32136 665.9269 C 323.8872 671.4498 327.1647 683.6816 321.64187 693.2474 C 320.5804 695.08596 319.23296 696.7438 317.65017 698.1586 Z" stroke="black" stroke-linecap="round" stroke-linejoin="round" stroke-width="10"/>
      </g>
    </g>
  </g>
</svg>
