<?xml version="1.0" encoding="UTF-8" standalone="no"?>
<!DOCTYPE svg PUBLIC "-//W3C//DTD SVG 1.1//EN" "http://www.w3.org/Graphics/SVG/1.1/DTD/svg11.dtd">
<svg xmlns="http://www.w3.org/2000/svg" xmlns:xl="http://www.w3.org/1999/xlink" xmlns:dc="http://purl.org/dc/elements/1.1/" version="1.1" viewBox="0 0 850.394 850.394" width="850.394" height="850.394">
  <defs/>
  <metadata> Produced by OmniGraffle 7.9.4 
    <dc:date>2019-04-30 20:41:39 +0000</dc:date>
  </metadata>
  <g id="Dub" stroke-opacity="1" fill-opacity="1" fill="none" stroke="none" stroke-dasharray="none">
    <title>Dub</title>
    <g id="Dub: Layer 1">
      <title>Layer 1</title>
      <g id="Graphic_16">
        <path d="M 88.79735 99.72343 L 361.26456 99.72343 L 389.3235 786.7234 L 60 786.7234 Z" fill="#666"/>
        <path d="M 88.79735 99.72343 L 361.26456 99.72343 L 389.3235 786.7234 L 60 786.7234 Z" stroke="black" stroke-linecap="round" stroke-linejoin="round" stroke-width="16"/>
      </g>
      <g id="Graphic_181">
        <path d="M 627.0541 589.39055 L 627.8052 588.08966 L 616.4193 581.99954 L 608.5983 577.00056 L 607.8472 578.30145 Z" fill="black"/>
        <path d="M 627.0541 589.39055 L 627.8052 588.08966 L 616.4193 581.99954 L 608.5983 577.00056 L 607.8472 578.30145 Z" stroke="black" stroke-linecap="round" stroke-linejoin="round" stroke-width="1"/>
      </g>
      <g id="Graphic_219">
        <path d="M 806.9347 529.51837 L 806.9347 564.3483 L 646.0204 819.3034 L 646.0204 806.7646 L 359.71837 643.06395 L 361.80816 664.6585 L 646.0204 820 L 646.717 781.6871 Z" fill="#8080ff"/>
        <path d="M 806.9347 529.51837 L 806.9347 564.3483 L 646.0204 819.3034 L 646.0204 806.7646 L 359.71837 643.06395 L 361.80816 664.6585 L 646.0204 820 L 646.717 781.6871 Z" stroke="black" stroke-linecap="round" stroke-linejoin="round" stroke-width="4"/>
      </g>
      <g id="Graphic_218">
        <path d="M 521.73554 364.96904 L 806.4032 529.32196 L 645.3727 808.2349 L 360.70507 643.882 Z" fill="#c0c0ff"/>
        <path d="M 521.73554 364.96904 L 806.4032 529.32196 L 645.3727 808.2349 L 360.70507 643.882 Z" stroke="black" stroke-linecap="round" stroke-linejoin="round" stroke-width="5"/>
      </g>
      <g id="Graphic_217">
        <path d="M 510.8803 442.44354 L 515.54775 431.4889 C 515.54775 430.1305 517.7143 428.3924 526.9055 428.3924 C 536.0967 428.3924 544.317 425.75994 544.317 427.11837 L 541.5306 445.92653 C 541.5306 447.28496 536.4275 454.7943 527.2363 454.7943 C 518.04513 454.7943 510.8803 443.80197 510.8803 442.44354 Z" fill="#dadada"/>
        <path d="M 510.8803 442.44354 L 515.54775 431.4889 C 515.54775 430.1305 517.7143 428.3924 526.9055 428.3924 C 536.0967 428.3924 544.317 425.75994 544.317 427.11837 L 541.5306 445.92653 C 541.5306 447.28496 536.4275 454.7943 527.2363 454.7943 C 518.04513 454.7943 510.8803 443.80197 510.8803 442.44354 Z" stroke="black" stroke-linecap="round" stroke-linejoin="round" stroke-width="6"/>
      </g>
      <g id="Graphic_216">
        <path d="M 571.48435 477.27347 L 578.5132 467.7089 C 578.8648 466.39674 582.5667 465.58926 596.36274 469.2859 C 610.1588 472.98255 610.1083 474.26224 609.7567 475.5744 L 606.3143 489.81224 C 605.9627 491.1244 603.822 498.6179 590.026 494.92125 C 576.2299 491.2246 571.1328 478.5856 571.48435 477.27347 Z" fill="#dadada"/>
        <path d="M 571.48435 477.27347 L 578.5132 467.7089 C 578.8648 466.39674 582.5667 465.58926 596.36274 469.2859 C 610.1588 472.98255 610.1083 474.26224 609.7567 475.5744 L 606.3143 489.81224 C 605.9627 491.1244 603.822 498.6179 590.026 494.92125 C 576.2299 491.2246 571.1328 478.5856 571.48435 477.27347 Z" stroke="black" stroke-linecap="round" stroke-linejoin="round" stroke-width="6"/>
      </g>
      <g id="Graphic_214">
        <circle cx="436.60635" cy="651.823" r="8.27692981660207" fill="#00b600"/>
        <circle cx="436.60635" cy="651.823" r="8.27692981660207" stroke="black" stroke-linecap="round" stroke-linejoin="round" stroke-width="5"/>
      </g>
      <g id="Graphic_213">
        <circle cx="447.5638" cy="632.8442" r="8.27692981660207" fill="lime"/>
        <circle cx="447.5638" cy="632.8442" r="8.27692981660207" stroke="black" stroke-linecap="round" stroke-linejoin="round" stroke-width="5"/>
      </g>
      <g id="Graphic_212">
        <circle cx="458.5212" cy="613.86535" r="8.27692981660209" fill="#e9e700"/>
        <circle cx="458.5212" cy="613.86535" r="8.27692981660209" stroke="black" stroke-linecap="round" stroke-linejoin="round" stroke-width="5"/>
      </g>
      <g id="Graphic_211">
        <circle cx="469.4786" cy="594.88654" r="8.2769298166021" fill="#fffc75"/>
        <circle cx="469.4786" cy="594.88654" r="8.2769298166021" stroke="black" stroke-linecap="round" stroke-linejoin="round" stroke-width="5"/>
      </g>
      <g id="Graphic_210">
        <circle cx="480.43604" cy="575.9077" r="8.27692981660211" fill="red"/>
        <circle cx="480.43604" cy="575.9077" r="8.27692981660211" stroke="black" stroke-linecap="round" stroke-linejoin="round" stroke-width="5"/>
      </g>
      <g id="Graphic_209">
        <circle cx="503.1667" cy="690.2516" r="8.27692981660206" fill="#00b600"/>
        <circle cx="503.1667" cy="690.2516" r="8.27692981660206" stroke="black" stroke-linecap="round" stroke-linejoin="round" stroke-width="5"/>
      </g>
      <g id="Graphic_208">
        <circle cx="514.1241" cy="671.2728" r="8.27692981660209" fill="lime"/>
        <circle cx="514.1241" cy="671.2728" r="8.27692981660209" stroke="black" stroke-linecap="round" stroke-linejoin="round" stroke-width="5"/>
      </g>
      <g id="Graphic_207">
        <circle cx="525.0815" cy="652.294" r="8.2769298166021" fill="#e9e700"/>
        <circle cx="525.0815" cy="652.294" r="8.2769298166021" stroke="black" stroke-linecap="round" stroke-linejoin="round" stroke-width="5"/>
      </g>
      <g id="Graphic_206">
        <circle cx="536.03895" cy="633.3152" r="8.27692981660207" fill="#bab953"/>
        <circle cx="536.03895" cy="633.3152" r="8.27692981660207" stroke="black" stroke-linecap="round" stroke-linejoin="round" stroke-width="5"/>
      </g>
      <g id="Graphic_205">
        <circle cx="546.9964" cy="614.33635" r="8.27692981660204" fill="#b40000"/>
        <circle cx="546.9964" cy="614.33635" r="8.27692981660204" stroke="black" stroke-linecap="round" stroke-linejoin="round" stroke-width="5"/>
      </g>
      <g id="Graphic_204">
        <path d="M 639.372 537.1769 L 645.95514 540.97764 L 537.2484 729.2633 L 530.6653 725.4625 Z" fill="black"/>
        <path d="M 639.372 537.1769 L 645.95514 540.97764 L 537.2484 729.2633 L 530.6653 725.4625 Z" stroke="black" stroke-linecap="round" stroke-linejoin="round" stroke-width="1"/>
      </g>
      <g id="Graphic_203">
        <circle cx="569.727" cy="728.6802" r="8.27692981660207" fill="#00b600"/>
        <circle cx="569.727" cy="728.6802" r="8.27692981660207" stroke="black" stroke-linecap="round" stroke-linejoin="round" stroke-width="5"/>
      </g>
      <g id="Graphic_202">
        <circle cx="580.6844" cy="709.7014" r="8.2769298166021" fill="lime"/>
        <circle cx="580.6844" cy="709.7014" r="8.2769298166021" stroke="black" stroke-linecap="round" stroke-linejoin="round" stroke-width="5"/>
      </g>
      <g id="Graphic_201">
        <circle cx="591.64185" cy="690.7226" r="8.27692981660212" fill="#e9e700"/>
        <circle cx="591.64185" cy="690.7226" r="8.27692981660212" stroke="black" stroke-linecap="round" stroke-linejoin="round" stroke-width="5"/>
      </g>
      <g id="Graphic_200">
        <circle cx="602.5993" cy="671.7438" r="8.27692981660204" fill="#fffc75"/>
        <circle cx="602.5993" cy="671.7438" r="8.27692981660204" stroke="black" stroke-linecap="round" stroke-linejoin="round" stroke-width="5"/>
      </g>
      <g id="Graphic_199">
        <circle cx="613.5567" cy="652.765" r="8.27692981660208" fill="red"/>
        <circle cx="613.5567" cy="652.765" r="8.27692981660208" stroke="black" stroke-linecap="round" stroke-linejoin="round" stroke-width="5"/>
      </g>
      <g id="Graphic_198">
        <path d="M 634.1451 759.114 C 629.72964 760.2971 598.0064 764.0648 599.1895 768.4803 C 600.37264 772.89575 634.0141 776.2869 638.42955 775.1037 C 642.845 773.9206 645.46535 769.3821 644.2822 764.9666 C 643.0991 760.5512 638.5606 757.9308 634.1451 759.114 Z" fill="#00b600"/>
        <path d="M 634.1451 759.114 C 629.72964 760.2971 598.0064 764.0648 599.1895 768.4803 C 600.37264 772.89575 634.0141 776.2869 638.42955 775.1037 C 642.845 773.9206 645.46535 769.3821 644.2822 764.9666 C 643.0991 760.5512 638.5606 757.9308 634.1451 759.114 Z" stroke="black" stroke-linecap="round" stroke-linejoin="round" stroke-width="5"/>
      </g>
      <g id="Graphic_197">
        <path d="M 645.1025 740.13515 C 640.6871 741.3183 609.5202 744.9369 610.7033 749.3524 C 611.8864 753.7679 644.9715 757.30805 649.387 756.1249 C 653.80244 754.9418 656.4228 750.4033 655.2396 745.9878 C 654.0565 741.5723 649.518 738.952 645.1025 740.13515 Z" fill="green"/>
        <path d="M 645.1025 740.13515 C 640.6871 741.3183 609.5202 744.9369 610.7033 749.3524 C 611.8864 753.7679 644.9715 757.30805 649.387 756.1249 C 653.80244 754.9418 656.4228 750.4033 655.2396 745.9878 C 654.0565 741.5723 649.518 738.952 645.1025 740.13515 Z" stroke="black" stroke-linecap="round" stroke-linejoin="round" stroke-width="5"/>
      </g>
      <g id="Graphic_196">
        <path d="M 656.05995 721.1563 C 651.6445 722.33945 632.0113 722.8677 633.1944 727.2831 C 634.3775 731.6986 655.9289 738.3292 660.3444 737.1461 C 664.7599 735.963 667.3802 731.4245 666.19706 727.009 C 665.01395 722.5935 660.4754 719.9732 656.05995 721.1563 Z" fill="#a8a600"/>
        <path d="M 656.05995 721.1563 C 651.6445 722.33945 632.0113 722.8677 633.1944 727.2831 C 634.3775 731.6986 655.9289 738.3292 660.3444 737.1461 C 664.7599 735.963 667.3802 731.4245 666.19706 727.009 C 665.01395 722.5935 660.4754 719.9732 656.05995 721.1563 Z" stroke="black" stroke-linecap="round" stroke-linejoin="round" stroke-width="5"/>
      </g>
      <g id="Graphic_195">
        <path d="M 667.0174 702.1775 C 662.6019 703.3606 659.9816 707.8992 661.1647 712.3146 C 662.3478 716.7301 674.9678 724.0162 679.38326 722.8331 C 683.7987 721.65 678.3376 712.44565 677.1545 708.0302 C 675.9714 703.6147 671.4328 700.9944 667.0174 702.1775 Z" fill="#a3a249"/>
        <path d="M 667.0174 702.1775 C 662.6019 703.3606 659.9816 707.8992 661.1647 712.3146 C 662.3478 716.7301 674.9678 724.0162 679.38326 722.8331 C 683.7987 721.65 678.3376 712.44565 677.1545 708.0302 C 675.9714 703.6147 671.4328 700.9944 667.0174 702.1775 Z" stroke="black" stroke-linecap="round" stroke-linejoin="round" stroke-width="5"/>
      </g>
      <g id="Graphic_194">
        <path d="M 680.4651 689.621 C 676.0497 690.8041 670.939 688.92036 672.1221 693.3358 C 673.30525 697.7513 678.1926 700.573 682.6081 699.3899 C 687.0235 698.2068 703.46675 679.6563 702.2836 675.2409 C 701.1005 670.8254 684.8806 688.4378 680.4651 689.621 Z" fill="red"/>
        <path d="M 680.4651 689.621 C 676.0497 690.8041 670.939 688.92036 672.1221 693.3358 C 673.30525 697.7513 678.1926 700.573 682.6081 699.3899 C 687.0235 698.2068 703.46675 679.6563 702.2836 675.2409 C 701.1005 670.8254 684.8806 688.4378 680.4651 689.621 Z" stroke="black" stroke-linecap="round" stroke-linejoin="round" stroke-width="5"/>
      </g>
      <g id="Graphic_193">
        <path d="M 636.268 514.8898 L 644.1863 503.40074 C 644.5379 502.0886 648.2398 501.2811 662.0359 504.97775 C 675.8319 508.6744 675.7814 509.9541 675.4298 511.26623 L 672.49116 525.3388 C 672.1396 526.6509 661.9063 533.9116 648.1102 530.21497 C 634.31414 526.5183 635.91644 516.20194 636.268 514.8898 Z" fill="#dadada"/>
        <path d="M 636.268 514.8898 L 644.1863 503.40074 C 644.5379 502.0886 648.2398 501.2811 662.0359 504.97775 C 675.8319 508.6744 675.7814 509.9541 675.4298 511.26623 L 672.49116 525.3388 C 672.1396 526.6509 661.9063 533.9116 648.1102 530.21497 C 634.31414 526.5183 635.91644 516.20194 636.268 514.8898 Z" stroke="black" stroke-linecap="round" stroke-linejoin="round" stroke-width="6"/>
      </g>
      <g id="Graphic_192">
        <path d="M 535.6962 416.33187 L 593.9172 346.87985 C 593.9172 346.87985 631.99725 345.8246 632.47294 345.54996 C 632.9486 345.2753 659.5386 349.5854 659.5386 349.5854 L 639.3442 373.9296 C 639.3442 373.9296 630.91455 393.38424 620.523 400.6523 C 610.13146 407.92036 606.35096 431.0333 606.35096 431.0333 C 606.35096 431.0333 626.9383 433.73497 628.841 432.6364 C 630.7438 431.53786 643.98946 422.62197 650.247 420.2777 C 656.5045 417.9334 673.3941 416.42746 674.9683 418.05557 C 676.5426 419.6837 689.6122 432.43395 689.41115 433.1843 C 689.2101 433.9346 693.511 435.89123 688.5531 439.38794 C 683.59515 442.88465 655.6623 473.59945 654.7109 474.1487 C 653.75955 474.698 620.2945 487.0423 643.1328 490.3471 C 665.9711 493.65193 674.6291 454.2732 674.6291 454.2732 C 674.6291 454.2732 694.8948 471.2446 707.8119 465.05537 C 720.7291 458.86614 752.8854 473.916 753.16 474.39166 C 753.4347 474.86735 760.2468 489.9619 759.57 490.98687 C 758.8933 492.01184 730.2101 522.5256 724.0262 526.0959 C 717.8422 529.6662 697.7017 550.8081 690.36535 555.678 C 683.029 560.5479 686.05 565.78045 687.1486 567.6832 C 688.2471 569.58595 711.26675 567.7121 711.5414 568.18776 C 711.816 568.66345 722.52165 570.7278 722.7963 571.2035 C 723.0709 571.6792 734.5124 586.0037 734.5124 586.0037 L 651.2664 676.8871 L 645.25545 683.72685 L 725.68985 578.4124 C 725.68985 578.4124 716.4113 575.5241 716.1367 575.04844 C 715.862 574.57275 703.6019 575.30864 703.6019 575.30864 L 608.3633 611.9074 L 422.2998 612.7402 C 422.2998 612.7402 678.983 554.6386 679.4587 554.36394 C 679.9344 554.0893 697.7359 543.17735 697.7359 543.17735 L 715.5715 524.6347 C 715.5715 524.6347 726.01695 514.16425 726.6937 513.1393 C 727.3704 512.1143 743.1759 496.64654 743.65155 496.3719 C 744.1272 496.09726 746.5398 487.09334 746.7409 486.343 C 746.9419 485.5927 740.5714 477.8542 740.5714 477.8542 L 725.4177 471.3812 L 711.6569 471.715 L 701.6674 477.4824 C 701.6674 477.4824 690.2706 488.5021 690.5453 488.9778 C 690.8199 489.4535 678.6385 474.11527 678.6385 474.11527 C 678.6385 474.11527 665.88785 484.3659 664.8629 483.68917 C 663.8379 483.01243 646.9239 500.2091 646.4482 500.48374 C 645.9725 500.7584 632.192 496.6638 631.91735 496.1881 C 631.6427 495.7124 628.6217 490.47986 628.6217 490.47986 L 422.2998 612.7402 L 643.78454 468.4063 C 643.78454 468.4063 652.2733 462.2368 652.749 461.96217 C 653.2247 461.68753 666.8528 446.8426 666.8528 446.8426 L 680.4072 430.7717 L 672.1536 428.56014 C 672.1536 428.56014 655.81335 431.01745 655.5387 430.54177 C 655.2641 430.0661 645.12745 433.38146 644.6518 433.6561 C 644.1761 433.93074 628.4784 442.9938 628.4784 442.9938 L 616.4929 444.2054 L 417.06214 620.02636 L 591.987 433.6181 C 591.987 433.6181 599.7596 419.6168 599.21036 418.6654 C 598.6611 417.71404 605.73724 400.30936 605.73724 400.30936 L 611.95534 389.10833 L 623.6268 378.56432 L 632.1497 364.7641 L 644.9933 357.34885 L 636.86716 353.16096 C 636.86716 353.16096 626.3284 357.977 625.5781 357.77595 C 624.8278 357.5749 604.7359 359.02697 604.4612 358.55128 C 604.1866 358.0756 535.6962 416.33187 535.6962 416.33187 Z" fill="red"/>
        <path d="M 535.6962 416.33187 L 593.9172 346.87985 C 593.9172 346.87985 631.99725 345.8246 632.47294 345.54996 C 632.9486 345.2753 659.5386 349.5854 659.5386 349.5854 L 639.3442 373.9296 C 639.3442 373.9296 630.91455 393.38424 620.523 400.6523 C 610.13146 407.92036 606.35096 431.0333 606.35096 431.0333 C 606.35096 431.0333 626.9383 433.73497 628.841 432.6364 C 630.7438 431.53786 643.98946 422.62197 650.247 420.2777 C 656.5045 417.9334 673.3941 416.42746 674.9683 418.05557 C 676.5426 419.6837 689.6122 432.43395 689.41115 433.1843 C 689.2101 433.9346 693.511 435.89123 688.5531 439.38794 C 683.59515 442.88465 655.6623 473.59945 654.7109 474.1487 C 653.75955 474.698 620.2945 487.0423 643.1328 490.3471 C 665.9711 493.65193 674.6291 454.2732 674.6291 454.2732 C 674.6291 454.2732 694.8948 471.2446 707.8119 465.05537 C 720.7291 458.86614 752.8854 473.916 753.16 474.39166 C 753.4347 474.86735 760.2468 489.9619 759.57 490.98687 C 758.8933 492.01184 730.2101 522.5256 724.0262 526.0959 C 717.8422 529.6662 697.7017 550.8081 690.36535 555.678 C 683.029 560.5479 686.05 565.78045 687.1486 567.6832 C 688.2471 569.58595 711.26675 567.7121 711.5414 568.18776 C 711.816 568.66345 722.52165 570.7278 722.7963 571.2035 C 723.0709 571.6792 734.5124 586.0037 734.5124 586.0037 L 651.2664 676.8871 L 645.25545 683.72685 L 725.68985 578.4124 C 725.68985 578.4124 716.4113 575.5241 716.1367 575.04844 C 715.862 574.57275 703.6019 575.30864 703.6019 575.30864 L 608.3633 611.9074 L 422.2998 612.7402 C 422.2998 612.7402 678.983 554.6386 679.4587 554.36394 C 679.9344 554.0893 697.7359 543.17735 697.7359 543.17735 L 715.5715 524.6347 C 715.5715 524.6347 726.01695 514.16425 726.6937 513.1393 C 727.3704 512.1143 743.1759 496.64654 743.65155 496.3719 C 744.1272 496.09726 746.5398 487.09334 746.7409 486.343 C 746.9419 485.5927 740.5714 477.8542 740.5714 477.8542 L 725.4177 471.3812 L 711.6569 471.715 L 701.6674 477.4824 C 701.6674 477.4824 690.2706 488.5021 690.5453 488.9778 C 690.8199 489.4535 678.6385 474.11527 678.6385 474.11527 C 678.6385 474.11527 665.88785 484.3659 664.8629 483.68917 C 663.8379 483.01243 646.9239 500.2091 646.4482 500.48374 C 645.9725 500.7584 632.192 496.6638 631.91735 496.1881 C 631.6427 495.7124 628.6217 490.47986 628.6217 490.47986 L 422.2998 612.7402 L 643.78454 468.4063 C 643.78454 468.4063 652.2733 462.2368 652.749 461.96217 C 653.2247 461.68753 666.8528 446.8426 666.8528 446.8426 L 680.4072 430.7717 L 672.1536 428.56014 C 672.1536 428.56014 655.81335 431.01745 655.5387 430.54177 C 655.2641 430.0661 645.12745 433.38146 644.6518 433.6561 C 644.1761 433.93074 628.4784 442.9938 628.4784 442.9938 L 616.4929 444.2054 L 417.06214 620.02636 L 591.987 433.6181 C 591.987 433.6181 599.7596 419.6168 599.21036 418.6654 C 598.6611 417.71404 605.73724 400.30936 605.73724 400.30936 L 611.95534 389.10833 L 623.6268 378.56432 L 632.1497 364.7641 L 644.9933 357.34885 L 636.86716 353.16096 C 636.86716 353.16096 626.3284 357.977 625.5781 357.77595 C 624.8278 357.5749 604.7359 359.02697 604.4612 358.55128 C 604.1866 358.0756 535.6962 416.33187 535.6962 416.33187 Z" stroke="#005c5d" stroke-linecap="round" stroke-linejoin="round" stroke-width="1"/>
      </g>
      <g id="Graphic_191">
        <path d="M 611.719 470.2832 C 610.6384 479.8719 602.0865 486.13894 592.61764 484.281 C 583.1488 482.42313 576.3488 473.14386 577.4294 463.55517 C 578.5099 453.96647 587.0619 447.69944 596.5307 449.55737 C 605.99954 451.41525 612.79956 460.6945 611.719 470.2832" fill="#666"/>
        <path d="M 611.719 470.2832 C 610.6384 479.8719 602.0865 486.13894 592.61764 484.281 C 583.1488 482.42313 576.3488 473.14386 577.4294 463.55517 C 578.5099 453.96647 587.0619 447.69944 596.5307 449.55737 C 605.99954 451.41525 612.79956 460.6945 611.719 470.2832" stroke="black" stroke-linecap="round" stroke-linejoin="round" stroke-width="6"/>
      </g>
      <g id="Line_190">
        <line x1="585.3401" y1="450.416" x2="596.6999" y2="469.50597" stroke="black" stroke-linecap="round" stroke-linejoin="round" stroke-width="4"/>
      </g>
      <g id="Graphic_189">
        <path d="M 662.4152 522.5093 C 652.8078 524.35206 644.1094 517.96805 642.9868 508.2502 C 641.8641 498.5323 648.74224 489.16063 658.3496 487.3179 C 667.957 485.4751 676.6554 491.85914 677.778 501.577 C 678.9007 511.29486 672.0226 520.66655 662.4152 522.5093" fill="#666"/>
        <path d="M 662.4152 522.5093 C 652.8078 524.35206 644.1094 517.96805 642.9868 508.2502 C 641.8641 498.5323 648.74224 489.16063 658.3496 487.3179 C 667.957 485.4751 676.6554 491.85914 677.778 501.577 C 678.9007 511.29486 672.0226 520.66655 662.4152 522.5093" stroke="black" stroke-linecap="round" stroke-linejoin="round" stroke-width="6"/>
      </g>
      <g id="Line_188">
        <line x1="665.5224" y1="486.7146" x2="660.0564" y2="508.2458" stroke="black" stroke-linecap="round" stroke-linejoin="round" stroke-width="4"/>
      </g>
      <g id="Graphic_187">
        <path d="M 506.2514 460.31963 L 512.8345 464.1204 L 404.12773 652.406 L 397.5446 648.60526 Z" fill="black"/>
        <path d="M 506.2514 460.31963 L 512.8345 464.1204 L 404.12773 652.406 L 397.5446 648.60526 Z" stroke="black" stroke-linecap="round" stroke-linejoin="round" stroke-width="1"/>
      </g>
      <g id="Graphic_186">
        <title>Bézier</title>
        <path d="M 484.86824 477.4045 L 508.7301 491.1812 L 485.3922 525.59034 L 467.26194 563.00616 L 443.40006 549.2295 L 466.1556 515.4869 Z" fill="white"/>
        <path d="M 484.86824 477.4045 L 508.7301 491.1812 L 485.3922 525.59034 L 467.26194 563.00616 L 443.40006 549.2295 L 466.1556 515.4869 Z" stroke="black" stroke-linecap="round" stroke-linejoin="round" stroke-width="5"/>
      </g>
      <g id="Graphic_185">
        <path d="M 485.5747 527.0111 L 486.32576 525.7102 L 474.9399 519.6201 L 467.1189 514.6211 L 466.3678 515.922 Z" fill="black"/>
        <path d="M 485.5747 527.0111 L 486.32576 525.7102 L 474.9399 519.6201 L 467.1189 514.6211 L 466.3678 515.922 Z" stroke="black" stroke-linecap="round" stroke-linejoin="round" stroke-width="1"/>
      </g>
      <g id="Graphic_184">
        <path d="M 532.1892 414.36726 C 540.4164 415.09434 545.55315 422.2014 543.6625 430.24133 C 541.7719 438.28126 533.5698 444.20945 525.34265 443.4823 C 517.1155 442.75524 511.9787 435.6482 513.8694 427.60826 C 515.76 419.56833 523.96207 413.64013 532.1892 414.36726" fill="#666"/>
        <path d="M 532.1892 414.36726 C 540.4164 415.09434 545.55315 422.2014 543.6625 430.24133 C 541.7719 438.28126 533.5698 444.20945 525.34265 443.4823 C 517.1155 442.75524 511.9787 435.6482 513.8694 427.60826 C 515.76 419.56833 523.96207 413.64013 532.1892 414.36726" stroke="black" stroke-linecap="round" stroke-linejoin="round" stroke-width="6"/>
      </g>
      <g id="Line_183">
        <line x1="514.5522" y1="432.0654" x2="531.81474" y2="427.54103" stroke="black" stroke-linecap="round" stroke-linejoin="round" stroke-width="4"/>
      </g>
      <g id="Graphic_182">
        <path d="M 626.34766 539.78395 L 650.2095 553.5606 L 626.8716 587.9698 L 608.74136 625.3856 L 584.8795 611.6089 L 607.635 577.8663 Z" fill="white"/>
        <path d="M 626.34766 539.78395 L 650.2095 553.5606 L 626.8716 587.9698 L 608.74136 625.3856 L 584.8795 611.6089 L 607.635 577.8663 Z" stroke="black" stroke-linecap="round" stroke-linejoin="round" stroke-width="5"/>
      </g>
      <g id="Graphic_180">
        <path d="M 481.92565 665.7375 L 442.64234 639.04685 C 442.64234 639.04685 456.4896 620.6915 456.4296 620.4675 C 456.36956 620.2435 470.53617 607.32445 470.53617 607.32445 L 484.3885 616.57715 C 484.3885 616.57715 498.45203 620.2514 500.8936 625.119 C 503.3352 629.9867 522.4643 631.3433 522.4643 631.3433 C 522.4643 631.3433 532.86657 621.35355 532.6265 620.45755 C 532.3864 619.56155 529.5847 613.3499 529.92556 610.3776 C 530.26644 607.40525 535.48316 599.28515 537.5454 598.4925 C 539.6076 597.69984 556.0454 591.1346 556.63595 591.21645 C 557.22653 591.2983 560.64036 589.18315 561.83114 591.505 C 563.0219 593.8268 579.5463 606.685 579.66635 607.133 C 579.7864 607.581 577.7915 623.4808 589.60544 612.39254 C 601.41935 601.3043 569.68906 597.92315 569.68906 597.92315 C 569.68906 597.92315 592.68295 587.7998 592.18354 581.6915 C 591.6841 575.5832 617.5831 559.76056 618.11366 559.6184 C 618.6442 559.4762 634.7411 555.8833 635.3917 556.18916 C 636.0423 556.495 652.09615 569.71936 652.8764 572.63136 C 653.6567 575.54335 664.6761 584.8349 666.167 588.2767 C 667.6579 591.7185 673.4941 590.1547 675.6163 589.5861 C 677.7386 589.0174 685.0079 577.9465 685.53845 577.80434 C 686.069 577.6622 692.066 572.45406 692.5966 572.3119 C 693.1271 572.1697 710.3355 566.35834 710.3355 566.35834 L 719.8599 569.2245 L 731.702 569.9211 L 735.185 555.9891 L 716.3769 569.9211 L 711.5007 574.7973 L 700.14445 570.7696 C 700.14445 570.7696 693.9674 575.3057 693.43685 575.4479 C 692.9063 575.59005 688.8011 581.4917 688.8011 581.4917 L 684.4321 626.7113 L 619.8958 733.0084 C 619.8958 733.0084 660.82064 593.79065 660.7606 593.56665 C 660.7006 593.34265 657.8893 584.9728 657.8893 584.9728 L 648.29105 576.741 C 648.29105 576.741 643.0166 571.91214 642.366 571.6063 C 641.7154 571.3005 634.069 563.9861 634.00896 563.7621 C 633.94894 563.5381 626.86196 562.5561 626.2714 562.47426 C 625.6808 562.3924 616.3108 565.62336 616.3108 565.62336 L 604.6577 573.0673 L 599.6114 579.7012 L 600.8718 584.4052 C 600.8718 584.4052 606.2663 589.68205 606.7969 589.5399 C 607.32744 589.3977 588.92834 595.5867 588.92834 595.5867 C 588.92834 595.5867 593.11175 601.53244 592.11065 602.0408 C 591.10955 602.5491 599.86616 610.3634 599.9262 610.5874 C 599.9862 610.8114 590.9859 617.5445 590.45535 617.6867 C 589.9248 617.82886 584.0886 619.39265 584.0886 619.39265 L 624.121 729.2617 L 570.30593 612.5221 C 570.30593 612.5221 568.1044 608.55045 568.0444 608.32645 C 567.9844 608.10245 560.0475 601.82626 560.0475 601.82626 L 550.9895 595.6104 L 545.8135 599.6382 C 545.8135 599.6382 541.6579 607.474 541.12736 607.61614 C 540.5968 607.7583 539.61495 612.58295 539.675 612.80695 C 539.735 613.03095 541.71566 620.4229 541.71566 620.4229 L 538.141 626.1824 L 617.6636 736.8747 L 519.18974 638.22275 C 519.18974 638.22275 509.7308 634.7552 508.6697 635.0395 C 507.6086 635.3239 494.84624 632.2613 494.84624 632.2613 L 487.2791 629.4873 L 482.41516 624.0683 L 473.4268 620.2346 L 471.8062 614.1866 L 464.91855 618.1929 C 464.91855 618.1929 465.11786 623.1812 464.6473 623.54735 C 464.1768 623.9135 457.6685 633.5801 457.1379 633.7223 C 456.60736 633.86444 481.92565 665.7375 481.92565 665.7375 Z" fill="lime"/>
        <path d="M 481.92565 665.7375 L 442.64234 639.04685 C 442.64234 639.04685 456.4896 620.6915 456.4296 620.4675 C 456.36956 620.2435 470.53617 607.32445 470.53617 607.32445 L 484.3885 616.57715 C 484.3885 616.57715 498.45203 620.2514 500.8936 625.119 C 503.3352 629.9867 522.4643 631.3433 522.4643 631.3433 C 522.4643 631.3433 532.86657 621.35355 532.6265 620.45755 C 532.3864 619.56155 529.5847 613.3499 529.92556 610.3776 C 530.26644 607.40525 535.48316 599.28515 537.5454 598.4925 C 539.6076 597.69984 556.0454 591.1346 556.63595 591.21645 C 557.22653 591.2983 560.64036 589.18315 561.83114 591.505 C 563.0219 593.8268 579.5463 606.685 579.66635 607.133 C 579.7864 607.581 577.7915 623.4808 589.60544 612.39254 C 601.41935 601.3043 569.68906 597.92315 569.68906 597.92315 C 569.68906 597.92315 592.68295 587.7998 592.18354 581.6915 C 591.6841 575.5832 617.5831 559.76056 618.11366 559.6184 C 618.6442 559.4762 634.7411 555.8833 635.3917 556.18916 C 636.0423 556.495 652.09615 569.71936 652.8764 572.63136 C 653.6567 575.54335 664.6761 584.8349 666.167 588.2767 C 667.6579 591.7185 673.4941 590.1547 675.6163 589.5861 C 677.7386 589.0174 685.0079 577.9465 685.53845 577.80434 C 686.069 577.6622 692.066 572.45406 692.5966 572.3119 C 693.1271 572.1697 710.3355 566.35834 710.3355 566.35834 L 719.8599 569.2245 L 731.702 569.9211 L 735.185 555.9891 L 716.3769 569.9211 L 711.5007 574.7973 L 700.14445 570.7696 C 700.14445 570.7696 693.9674 575.3057 693.43685 575.4479 C 692.9063 575.59005 688.8011 581.4917 688.8011 581.4917 L 684.4321 626.7113 L 619.8958 733.0084 C 619.8958 733.0084 660.82064 593.79065 660.7606 593.56665 C 660.7006 593.34265 657.8893 584.9728 657.8893 584.9728 L 648.29105 576.741 C 648.29105 576.741 643.0166 571.91214 642.366 571.6063 C 641.7154 571.3005 634.069 563.9861 634.00896 563.7621 C 633.94894 563.5381 626.86196 562.5561 626.2714 562.47426 C 625.6808 562.3924 616.3108 565.62336 616.3108 565.62336 L 604.6577 573.0673 L 599.6114 579.7012 L 600.8718 584.4052 C 600.8718 584.4052 606.2663 589.68205 606.7969 589.5399 C 607.32744 589.3977 588.92834 595.5867 588.92834 595.5867 C 588.92834 595.5867 593.11175 601.53244 592.11065 602.0408 C 591.10955 602.5491 599.86616 610.3634 599.9262 610.5874 C 599.9862 610.8114 590.9859 617.5445 590.45535 617.6867 C 589.9248 617.82886 584.0886 619.39265 584.0886 619.39265 L 624.121 729.2617 L 570.30593 612.5221 C 570.30593 612.5221 568.1044 608.55045 568.0444 608.32645 C 567.9844 608.10245 560.0475 601.82626 560.0475 601.82626 L 550.9895 595.6104 L 545.8135 599.6382 C 545.8135 599.6382 541.6579 607.474 541.12736 607.61614 C 540.5968 607.7583 539.61495 612.58295 539.675 612.80695 C 539.735 613.03095 541.71566 620.4229 541.71566 620.4229 L 538.141 626.1824 L 617.6636 736.8747 L 519.18974 638.22275 C 519.18974 638.22275 509.7308 634.7552 508.6697 635.0395 C 507.6086 635.3239 494.84624 632.2613 494.84624 632.2613 L 487.2791 629.4873 L 482.41516 624.0683 L 473.4268 620.2346 L 471.8062 614.1866 L 464.91855 618.1929 C 464.91855 618.1929 465.11786 623.1812 464.6473 623.54735 C 464.1768 623.9135 457.6685 633.5801 457.1379 633.7223 C 456.60736 633.86444 481.92565 665.7375 481.92565 665.7375 Z" stroke="#005c5d" stroke-linecap="round" stroke-linejoin="round" stroke-width="1"/>
      </g>
      <g id="Graphic_179">
        <path d="M 572.8117 498.74825 L 579.3948 502.549 L 470.68806 690.83464 L 464.10494 687.0339 Z" fill="black"/>
        <path d="M 572.8117 498.74825 L 579.3948 502.549 L 470.68806 690.83464 L 464.10494 687.0339 Z" stroke="black" stroke-linecap="round" stroke-linejoin="round" stroke-width="1"/>
      </g>
      <g id="Graphic_178">
        <path d="M 705.93235 575.6055 L 712.5155 579.40626 L 603.8087 767.6919 L 597.2256 763.8911 Z" fill="black"/>
        <path d="M 705.93235 575.6055 L 712.5155 579.40626 L 603.8087 767.6919 L 597.2256 763.8911 Z" stroke="black" stroke-linecap="round" stroke-linejoin="round" stroke-width="1"/>
      </g>
      <g id="Graphic_177">
        <path d="M 528.40146 555.71725 L 552.26334 569.4939 L 528.9254 603.9031 L 510.79516 641.3189 L 486.9333 627.5422 L 509.68883 593.7996 Z" fill="white"/>
        <path d="M 528.40146 555.71725 L 552.26334 569.4939 L 528.9254 603.9031 L 510.79516 641.3189 L 486.9333 627.5422 L 509.68883 593.7996 Z" stroke="black" stroke-linecap="round" stroke-linejoin="round" stroke-width="5"/>
      </g>
      <g id="Graphic_176">
        <title>Bézier</title>
        <path d="M 529.1079 605.32385 L 529.859 604.02296 L 518.4731 597.93284 L 510.6521 592.93386 L 509.901 594.23475 Z" fill="black"/>
        <path d="M 529.1079 605.32385 L 529.859 604.02296 L 518.4731 597.93284 L 510.6521 592.93386 L 509.901 594.23475 Z" stroke="black" stroke-linecap="round" stroke-linejoin="round" stroke-width="1"/>
      </g>
      <g id="Graphic_175">
        <path d="M 656.2029 641.78765 L 680.0648 655.5643 L 656.72684 689.9735 L 638.5966 727.3893 L 614.7347 713.6126 L 637.4903 679.87 Z" fill="white"/>
        <path d="M 656.2029 641.78765 L 680.0648 655.5643 L 656.72684 689.9735 L 638.5966 727.3893 L 614.7347 713.6126 L 637.4903 679.87 Z" stroke="black" stroke-linecap="round" stroke-linejoin="round" stroke-width="5"/>
      </g>
      <g id="Graphic_174">
        <path d="M 655.7299 692.3384 L 656.481 691.03754 L 645.0951 684.9474 L 637.2741 679.94844 L 636.523 681.2493 Z" fill="black"/>
        <path d="M 655.7299 692.3384 L 656.481 691.03754 L 645.0951 684.9474 L 637.2741 679.94844 L 636.523 681.2493 Z" stroke="black" stroke-linecap="round" stroke-linejoin="round" stroke-width="1"/>
      </g>
      <g id="Graphic_173">
        <path d="M 710.8041 551.1129 L 713.6101 538.7874 C 714.2893 537.61094 718.074 537.7891 730.44325 544.93046 C 742.8125 552.0718 742.4324 553.2948 741.7532 554.47127 L 731.702 569.9211 C 731.0228 571.0975 730.0567 575.1936 717.6875 568.0522 C 705.3183 560.91086 710.1249 552.28936 710.8041 551.1129 Z" fill="#dadada"/>
        <path d="M 710.8041 551.1129 L 713.6101 538.7874 C 714.2893 537.61094 718.074 537.7891 730.44325 544.93046 C 742.8125 552.0718 742.4324 553.2948 741.7532 554.47127 L 731.702 569.9211 C 731.0228 571.0975 730.0567 575.1936 717.6875 568.0522 C 705.3183 560.91086 710.1249 552.28936 710.8041 551.1129 Z" stroke="black" stroke-linecap="round" stroke-linejoin="round" stroke-width="6"/>
      </g>
      <g id="Graphic_172">
        <path d="M 743.00445 547.63395 C 742.2774 555.8611 735.1703 560.9979 727.1304 559.1072 C 719.09045 557.2166 713.1623 549.0145 713.8894 540.7874 C 714.6165 532.5602 721.7235 527.42344 729.76345 529.3141 C 737.8034 531.2047 743.7316 539.4068 743.00445 547.63395" fill="#666"/>
        <path d="M 743.00445 547.63395 C 742.2774 555.8611 735.1703 560.9979 727.1304 559.1072 C 719.09045 557.2166 713.1623 549.0145 713.8894 540.7874 C 714.6165 532.5602 721.7235 527.42344 729.76345 529.3141 C 737.8034 531.2047 743.7316 539.4068 743.00445 547.63395" stroke="black" stroke-linecap="round" stroke-linejoin="round" stroke-width="6"/>
      </g>
      <g id="Line_171">
        <line x1="725.8931" y1="527.7001" x2="729.8307" y2="547.25947" stroke="black" stroke-linecap="round" stroke-linejoin="round" stroke-width="4"/>
      </g>
      <g id="Graphic_15">
        <path d="M 459.9974 524.33185 C 496.3939 576.3111 495.34354 594.5362 495.34354 594.5362 L 495.4328 611.3065 C 495.45717 615.8919 499.1942 619.5894 503.7796 619.565 C 505.5985 619.5553 507.3638 618.9486 508.8044 617.8382 L 603.72604 544.66895 C 631.35164 523.3741 671.0095 528.50616 692.3044 556.13176 C 697.4092 562.7542 701.1482 570.3244 703.3044 578.4031 L 708.7257 598.7152 C 713.9959 618.461 734.2752 630.1958 754.021 624.9256 C 761.7324 622.86745 768.5716 618.3712 773.5184 612.1077 L 773.5184 612.1077 C 776.6974 608.0824 782.5377 607.3964 786.563 610.5755 C 789.893 613.2054 791.017 617.7579 789.2938 621.6355 L 782.2402 637.5081 C 771.3031 662.11934 742.4855 673.2044 717.8743 662.2674 C 709.066 658.353 701.6153 651.9161 696.4633 643.7697 L 675.6792 610.9054 C 658.2186 583.2964 621.6824 575.0695 594.0734 592.5301 C 588.9337 595.7805 584.32606 599.80415 580.41285 604.4591 L 541.23046 651.0681 C 532.7902 661.10816 521.9945 668.9013 509.8077 673.7513 L 507.73953 674.5744 C 497.64737 678.5909 486.14806 676.4963 478.1202 669.1794 L 478.1202 669.1794 C 469.60277 661.4162 463.836 651.0975 461.6872 639.7751 L 458.41806 622.54975 C 454.1646 600.1376 442.2456 579.90375 424.70537 565.3183 L 423.9426 564.684 C 410.98976 553.91325 391.758 555.6821 380.9872 568.63495 C 379.86443 569.9852 378.86036 571.42985 377.98618 572.95285 L 357.93913 607.8789 C 357.93913 607.8789 342.6451 695.8284 290.66562 732.2246 C 238.68635 768.6211 167.04392 755.9886 130.6477 704.00914 C 94.25123 652.0299 106.88372 580.38744 158.86318 543.9912 C 210.84246 507.59474 318.5396 549.1449 318.5396 549.1449 C 318.5396 549.1449 423.6012 472.3524 459.9974 524.33185 Z" fill="#ccc"/>
        <path d="M 459.9974 524.33185 C 496.3939 576.3111 495.34354 594.5362 495.34354 594.5362 L 495.4328 611.3065 C 495.45717 615.8919 499.1942 619.5894 503.7796 619.565 C 505.5985 619.5553 507.3638 618.9486 508.8044 617.8382 L 603.72604 544.66895 C 631.35164 523.3741 671.0095 528.50616 692.3044 556.13176 C 697.4092 562.7542 701.1482 570.3244 703.3044 578.4031 L 708.7257 598.7152 C 713.9959 618.461 734.2752 630.1958 754.021 624.9256 C 761.7324 622.86745 768.5716 618.3712 773.5184 612.1077 L 773.5184 612.1077 C 776.6974 608.0824 782.5377 607.3964 786.563 610.5755 C 789.893 613.2054 791.017 617.7579 789.2938 621.6355 L 782.2402 637.5081 C 771.3031 662.11934 742.4855 673.2044 717.8743 662.2674 C 709.066 658.353 701.6153 651.9161 696.4633 643.7697 L 675.6792 610.9054 C 658.2186 583.2964 621.6824 575.0695 594.0734 592.5301 C 588.9337 595.7805 584.32606 599.80415 580.41285 604.4591 L 541.23046 651.0681 C 532.7902 661.10816 521.9945 668.9013 509.8077 673.7513 L 507.73953 674.5744 C 497.64737 678.5909 486.14806 676.4963 478.1202 669.1794 L 478.1202 669.1794 C 469.60277 661.4162 463.836 651.0975 461.6872 639.7751 L 458.41806 622.54975 C 454.1646 600.1376 442.2456 579.90375 424.70537 565.3183 L 423.9426 564.684 C 410.98976 553.91325 391.758 555.6821 380.9872 568.63495 C 379.86443 569.9852 378.86036 571.42985 377.98618 572.95285 L 357.93913 607.8789 C 357.93913 607.8789 342.6451 695.8284 290.66562 732.2246 C 238.68635 768.6211 167.04392 755.9886 130.6477 704.00914 C 94.25123 652.0299 106.88372 580.38744 158.86318 543.9912 C 210.84246 507.59474 318.5396 549.1449 318.5396 549.1449 C 318.5396 549.1449 423.6012 472.3524 459.9974 524.33185 Z" stroke="black" stroke-linecap="round" stroke-linejoin="round" stroke-width="13"/>
      </g>
      <g id="Graphic_14">
        <circle cx="227.7608" cy="636.4972" r="48.7340504108502" fill="#999"/>
        <circle cx="227.7608" cy="636.4972" r="48.7340504108502" stroke="black" stroke-linecap="round" stroke-linejoin="round" stroke-width="12"/>
      </g>
      <g id="Graphic_13">
        <circle cx="227.7608" cy="224.60202" r="55.8786742523044" fill="#ccc"/>
        <circle cx="227.7608" cy="224.60202" r="55.8786742523044" stroke="black" stroke-linecap="round" stroke-linejoin="round" stroke-width="14"/>
      </g>
      <g id="Graphic_12">
        <circle cx="227.7608" cy="226.00192" r="23.7014810138453" fill="#a5a5a5"/>
        <circle cx="227.7608" cy="226.00192" r="23.7014810138453" stroke="black" stroke-linecap="round" stroke-linejoin="round" stroke-width="9"/>
      </g>
      <g id="Graphic_11">
        <circle cx="227.7608" cy="395.24663" r="77.5233212633365" fill="#ccc"/>
        <circle cx="227.7608" cy="395.24663" r="77.5233212633365" stroke="black" stroke-linecap="round" stroke-linejoin="round" stroke-width="14"/>
      </g>
      <g id="Graphic_10">
        <circle cx="227.7608" cy="397.1888" r="32.8822677280577" fill="#a5a5a5"/>
        <circle cx="227.7608" cy="397.1888" r="32.8822677280577" stroke="black" stroke-linecap="round" stroke-linejoin="round" stroke-width="9"/>
      </g>
      <g id="Line_9">
        <path d="M 232.56933 645.0359 C 232.56933 645.0359 302.63873 565.5366 366.94433 542.45235 C 431.24993 519.3681 424.72603 531.89264 459.55297 563.554 C 494.3799 595.2154 460.8081 643.38154 489.87524 654.2095 C 518.94236 665.0375 522.8528 630.7047 562.1531 601.7742 C 601.45334 572.8437 597.2031 561.8492 628.59594 552.0916 C 659.9888 542.334 650.64244 544.19423 672.9624 567.3321 C 695.28235 590.4699 688.0845 610.2635 707.3801 633.76274 C 726.6758 657.262 723.89754 649.6391 741.0715 650.27885 C 758.2455 650.91864 758.457 643.261 768.0002 636.02104 C 777.54345 628.7811 774.7568 624.7234 774.7568 624.7234" stroke="#003776" stroke-linecap="round" stroke-linejoin="round" stroke-width="10"/>
      </g>
      <g id="Graphic_8">
        <circle cx="231.59447" cy="636.4972" r="27.5351637521061" fill="#003776"/>
      </g>
      <g id="Graphic_7">
        <path d="M 228 230 L 262.3665 187.51842 C 262.3665 187.51842 293.29324 130.35084 293.29324 129.41366 C 293.29324 128.47649 322.3456 92.8639 322.3456 92.8639 L 341.0891 143.47127 C 341.0891 143.47127 362.64407 172.52364 364.5184 194.07863 C 366.39277 215.63362 397.3195 240.9373 397.3195 240.9373 C 397.3195 240.9373 418.8745 212.8221 418.8745 209.0734 C 418.8745 205.32472 417.00013 178.14668 418.8745 166.9006 C 420.74883 155.65452 432.9321 129.41366 436.6808 128.47649 C 440.42947 127.53932 470.419 119.10476 471.3562 120.04193 C 472.29337 120.9791 478.8536 116.29324 479.79076 126.60214 C 480.72793 136.91105 502.2829 204.38754 502.2829 206.2619 C 502.2829 208.13624 491.974 268.11534 516.3405 237.1886 C 540.70703 206.2619 543.51855 195.0158 543.51855 195.0158 C 543.51855 195.0158 532.2725 144.40844 534.1468 120.04193 C 536.02117 95.67542 585.69136 61 586.6285 61 C 587.5657 61 615.6809 63.81152 616.6181 65.68587 C 617.55526 67.560214 638.1731 135.97388 638.1731 148.15713 C 638.1731 160.34039 652.2307 208.13624 653.16785 223.131 C 654.105 238.1258 664.4139 238.1258 668.1626 238.1258 C 671.9113 238.1258 688.78044 202.5132 689.7176 202.5132 C 690.6548 202.5132 702.83804 188.4556 703.7752 188.4556 C 704.7124 188.4556 735.6391 183.76973 735.6391 183.76973 L 747.8224 187.51842 L 738.4506 190.32994 L 716.89565 190.32994 C 716.89565 190.32994 704.7124 201.57602 703.7752 201.57602 C 702.83804 201.57602 693.4663 220.3195 693.4663 220.3195 L 682.2202 240.9373 L 660.6652 249.37187 C 660.6652 249.37187 641.9218 239.06296 641.9218 238.1258 C 641.9218 237.1886 640.9846 201.57602 640.9846 201.57602 L 628.80134 159.40322 C 628.80134 159.40322 622.2411 135.0367 621.30395 133.16236 C 620.3668 131.28801 610.99504 94.73825 610.99504 93.80107 C 610.99504 92.8639 599.74896 81.61782 598.8118 80.68064 C 597.8746 79.74347 581.0055 82.55499 581.0055 82.55499 L 558.5133 99.42411 L 547.26725 120.04193 L 547.26725 139.72257 C 547.26725 139.72257 553.82746 165.96343 554.76464 165.96343 C 555.7018 165.96343 555.7018 202.5132 555.7018 202.5132 C 555.7018 202.5132 553.82746 215.63362 551.9531 216.5708 C 550.0788 217.50797 534.1468 240.00013 534.1468 240.9373 C 534.1468 241.87448 516.3405 258.7436 515.40335 258.7436 C 514.4662 258.7436 504.15727 258.7436 504.15727 258.7436 L 488.2253 254.05774 L 484.4766 217.50797 C 484.4766 217.50797 482.6023 199.70167 482.6023 198.7645 C 482.6023 197.82733 472.29337 165.02626 472.29337 165.02626 L 460.1101 131.28801 L 449.8012 141.59692 C 449.8012 141.59692 439.4923 167.83778 438.5551 167.83778 C 437.61795 167.83778 433.86926 185.64407 433.86926 186.58125 C 433.86926 187.51842 433.86926 218.44514 433.86926 218.44514 L 425.4347 237.1886 L 406.69123 258.7436 L 388.88493 264.36664 C 388.88493 264.36664 374.82733 240.9373 372.953 240.9373 C 371.07863 240.9373 351.398 215.63362 351.398 215.63362 L 340.1519 196.89015 L 334.52887 170.6493 L 321.40844 146.28279 L 321.40844 120.9791 L 308.288 129.41366 C 308.288 129.41366 306.41366 149.0943 305.4765 150.03148 C 304.5393 150.96865 289.54454 181.89538 288.60737 181.89538 C 287.6702 181.89538 228 230 228 230 Z" fill="red"/>
        <path d="M 228 230 L 262.3665 187.51842 C 262.3665 187.51842 293.29324 130.35084 293.29324 129.41366 C 293.29324 128.47649 322.3456 92.8639 322.3456 92.8639 L 341.0891 143.47127 C 341.0891 143.47127 362.64407 172.52364 364.5184 194.07863 C 366.39277 215.63362 397.3195 240.9373 397.3195 240.9373 C 397.3195 240.9373 418.8745 212.8221 418.8745 209.0734 C 418.8745 205.32472 417.00013 178.14668 418.8745 166.9006 C 420.74883 155.65452 432.9321 129.41366 436.6808 128.47649 C 440.42947 127.53932 470.419 119.10476 471.3562 120.04193 C 472.29337 120.9791 478.8536 116.29324 479.79076 126.60214 C 480.72793 136.91105 502.2829 204.38754 502.2829 206.2619 C 502.2829 208.13624 491.974 268.11534 516.3405 237.1886 C 540.70703 206.2619 543.51855 195.0158 543.51855 195.0158 C 543.51855 195.0158 532.2725 144.40844 534.1468 120.04193 C 536.02117 95.67542 585.69136 61 586.6285 61 C 587.5657 61 615.6809 63.81152 616.6181 65.68587 C 617.55526 67.560214 638.1731 135.97388 638.1731 148.15713 C 638.1731 160.34039 652.2307 208.13624 653.16785 223.131 C 654.105 238.1258 664.4139 238.1258 668.1626 238.1258 C 671.9113 238.1258 688.78044 202.5132 689.7176 202.5132 C 690.6548 202.5132 702.83804 188.4556 703.7752 188.4556 C 704.7124 188.4556 735.6391 183.76973 735.6391 183.76973 L 747.8224 187.51842 L 738.4506 190.32994 L 716.89565 190.32994 C 716.89565 190.32994 704.7124 201.57602 703.7752 201.57602 C 702.83804 201.57602 693.4663 220.3195 693.4663 220.3195 L 682.2202 240.9373 L 660.6652 249.37187 C 660.6652 249.37187 641.9218 239.06296 641.9218 238.1258 C 641.9218 237.1886 640.9846 201.57602 640.9846 201.57602 L 628.80134 159.40322 C 628.80134 159.40322 622.2411 135.0367 621.30395 133.16236 C 620.3668 131.28801 610.99504 94.73825 610.99504 93.80107 C 610.99504 92.8639 599.74896 81.61782 598.8118 80.68064 C 597.8746 79.74347 581.0055 82.55499 581.0055 82.55499 L 558.5133 99.42411 L 547.26725 120.04193 L 547.26725 139.72257 C 547.26725 139.72257 553.82746 165.96343 554.76464 165.96343 C 555.7018 165.96343 555.7018 202.5132 555.7018 202.5132 C 555.7018 202.5132 553.82746 215.63362 551.9531 216.5708 C 550.0788 217.50797 534.1468 240.00013 534.1468 240.9373 C 534.1468 241.87448 516.3405 258.7436 515.40335 258.7436 C 514.4662 258.7436 504.15727 258.7436 504.15727 258.7436 L 488.2253 254.05774 L 484.4766 217.50797 C 484.4766 217.50797 482.6023 199.70167 482.6023 198.7645 C 482.6023 197.82733 472.29337 165.02626 472.29337 165.02626 L 460.1101 131.28801 L 449.8012 141.59692 C 449.8012 141.59692 439.4923 167.83778 438.5551 167.83778 C 437.61795 167.83778 433.86926 185.64407 433.86926 186.58125 C 433.86926 187.51842 433.86926 218.44514 433.86926 218.44514 L 425.4347 237.1886 L 406.69123 258.7436 L 388.88493 264.36664 C 388.88493 264.36664 374.82733 240.9373 372.953 240.9373 C 371.07863 240.9373 351.398 215.63362 351.398 215.63362 L 340.1519 196.89015 L 334.52887 170.6493 L 321.40844 146.28279 L 321.40844 120.9791 L 308.288 129.41366 C 308.288 129.41366 306.41366 149.0943 305.4765 150.03148 C 304.5393 150.96865 289.54454 181.89538 288.60737 181.89538 C 287.6702 181.89538 228 230 228 230 Z" stroke="black" stroke-linecap="round" stroke-linejoin="round" stroke-width="5"/>
      </g>
      <g id="Graphic_6">
        <path d="M 231.5 230.5 L 453.509 284.71986 C 453.509 284.71986 474.46276 245.98718 474.46276 245.35222 C 474.46276 244.71726 494.1466 220.5887 494.1466 220.5887 L 506.8458 254.87665 C 506.8458 254.87665 521.44994 274.56047 522.71986 289.1646 C 523.9898 303.76872 544.94353 320.9127 544.94353 320.9127 C 544.94353 320.9127 559.54766 301.86384 559.54766 299.324 C 559.54766 296.78414 558.27773 278.37024 559.54766 270.7507 C 560.8176 263.13116 569.0721 245.35222 571.61194 244.71726 C 574.1518 244.0823 594.4706 238.36764 595.1055 239.0026 C 595.7405 239.63757 600.1852 236.46276 600.8202 243.44734 C 601.45515 250.43192 616.0593 296.14918 616.0593 297.4191 C 616.0593 298.68903 609.0747 339.3266 625.5837 318.37285 C 642.0927 297.4191 643.9976 289.79956 643.9976 289.79956 C 643.9976 289.79956 636.37806 255.5116 637.648 239.0026 C 638.9179 222.4936 672.5709 199 673.20585 199 C 673.8408 199 692.8897 200.90489 693.5246 202.1748 C 694.1596 203.44473 708.12876 249.79696 708.12876 258.05146 C 708.12876 266.30597 717.6532 298.68903 718.28815 308.84842 C 718.9231 319.0078 725.9077 319.0078 728.4475 319.0078 C 730.9874 319.0078 742.4167 294.87926 743.0517 294.87926 C 743.6866 294.87926 751.9411 285.35483 752.5761 285.35483 C 753.2111 285.35483 774.1648 282.18 774.1648 282.18 L 782.4193 284.71986 L 776.0697 286.62475 L 761.4656 286.62475 C 761.4656 286.62475 753.2111 294.2443 752.5761 294.2443 C 751.9411 294.2443 745.5915 306.94353 745.5915 306.94353 L 737.972 320.9127 L 723.36784 326.62735 C 723.36784 326.62735 710.6686 319.64277 710.6686 319.0078 C 710.6686 318.37285 710.0336 294.2443 710.0336 294.2443 L 701.7791 265.671 C 701.7791 265.671 697.3344 249.162 696.6994 247.89207 C 696.0645 246.62215 689.7149 221.85863 689.7149 221.22367 C 689.7149 220.5887 682.0953 212.96916 681.46035 212.3342 C 680.8254 211.69924 669.3961 213.60413 669.3961 213.60413 L 654.157 225.03344 L 646.53745 239.0026 L 646.53745 252.3368 C 646.53745 252.3368 650.9822 270.11574 651.61714 270.11574 C 652.2521 270.11574 652.2521 294.87926 652.2521 294.87926 C 652.2521 294.87926 650.9822 303.76872 649.71226 304.4037 C 648.4423 305.03865 637.648 320.27773 637.648 320.9127 C 637.648 321.54766 625.5837 332.97697 624.94874 332.97697 C 624.3138 332.97697 617.3292 332.97697 617.3292 332.97697 L 606.53484 329.80216 L 603.995 305.03865 C 603.995 305.03865 602.7251 292.97437 602.7251 292.3394 C 602.7251 291.70445 595.7405 269.48078 595.7405 269.48078 L 587.486 246.62215 L 580.5014 253.60673 C 580.5014 253.60673 573.5168 271.38566 572.88186 271.38566 C 572.2469 271.38566 569.70705 283.44994 569.70705 284.0849 C 569.70705 284.71986 569.70705 305.6736 569.70705 305.6736 L 563.9924 318.37285 L 551.29315 332.97697 L 539.2289 336.78675 C 539.2289 336.78675 529.70445 320.9127 528.4345 320.9127 C 527.1646 320.9127 513.8304 303.76872 513.8304 303.76872 L 506.21085 291.0695 L 502.4011 273.29055 L 493.5116 256.78154 L 493.5116 239.63757 L 484.62215 245.35222 C 484.62215 245.35222 483.3522 258.68642 482.71726 259.3214 C 482.0823 259.95635 454.63496 298 454 298 C 453.36504 298 231.5 230.5 231.5 230.5 Z" fill="lime"/>
        <path d="M 231.5 230.5 L 453.509 284.71986 C 453.509 284.71986 474.46276 245.98718 474.46276 245.35222 C 474.46276 244.71726 494.1466 220.5887 494.1466 220.5887 L 506.8458 254.87665 C 506.8458 254.87665 521.44994 274.56047 522.71986 289.1646 C 523.9898 303.76872 544.94353 320.9127 544.94353 320.9127 C 544.94353 320.9127 559.54766 301.86384 559.54766 299.324 C 559.54766 296.78414 558.27773 278.37024 559.54766 270.7507 C 560.8176 263.13116 569.0721 245.35222 571.61194 244.71726 C 574.1518 244.0823 594.4706 238.36764 595.1055 239.0026 C 595.7405 239.63757 600.1852 236.46276 600.8202 243.44734 C 601.45515 250.43192 616.0593 296.14918 616.0593 297.4191 C 616.0593 298.68903 609.0747 339.3266 625.5837 318.37285 C 642.0927 297.4191 643.9976 289.79956 643.9976 289.79956 C 643.9976 289.79956 636.37806 255.5116 637.648 239.0026 C 638.9179 222.4936 672.5709 199 673.20585 199 C 673.8408 199 692.8897 200.90489 693.5246 202.1748 C 694.1596 203.44473 708.12876 249.79696 708.12876 258.05146 C 708.12876 266.30597 717.6532 298.68903 718.28815 308.84842 C 718.9231 319.0078 725.9077 319.0078 728.4475 319.0078 C 730.9874 319.0078 742.4167 294.87926 743.0517 294.87926 C 743.6866 294.87926 751.9411 285.35483 752.5761 285.35483 C 753.2111 285.35483 774.1648 282.18 774.1648 282.18 L 782.4193 284.71986 L 776.0697 286.62475 L 761.4656 286.62475 C 761.4656 286.62475 753.2111 294.2443 752.5761 294.2443 C 751.9411 294.2443 745.5915 306.94353 745.5915 306.94353 L 737.972 320.9127 L 723.36784 326.62735 C 723.36784 326.62735 710.6686 319.64277 710.6686 319.0078 C 710.6686 318.37285 710.0336 294.2443 710.0336 294.2443 L 701.7791 265.671 C 701.7791 265.671 697.3344 249.162 696.6994 247.89207 C 696.0645 246.62215 689.7149 221.85863 689.7149 221.22367 C 689.7149 220.5887 682.0953 212.96916 681.46035 212.3342 C 680.8254 211.69924 669.3961 213.60413 669.3961 213.60413 L 654.157 225.03344 L 646.53745 239.0026 L 646.53745 252.3368 C 646.53745 252.3368 650.9822 270.11574 651.61714 270.11574 C 652.2521 270.11574 652.2521 294.87926 652.2521 294.87926 C 652.2521 294.87926 650.9822 303.76872 649.71226 304.4037 C 648.4423 305.03865 637.648 320.27773 637.648 320.9127 C 637.648 321.54766 625.5837 332.97697 624.94874 332.97697 C 624.3138 332.97697 617.3292 332.97697 617.3292 332.97697 L 606.53484 329.80216 L 603.995 305.03865 C 603.995 305.03865 602.7251 292.97437 602.7251 292.3394 C 602.7251 291.70445 595.7405 269.48078 595.7405 269.48078 L 587.486 246.62215 L 580.5014 253.60673 C 580.5014 253.60673 573.5168 271.38566 572.88186 271.38566 C 572.2469 271.38566 569.70705 283.44994 569.70705 284.0849 C 569.70705 284.71986 569.70705 305.6736 569.70705 305.6736 L 563.9924 318.37285 L 551.29315 332.97697 L 539.2289 336.78675 C 539.2289 336.78675 529.70445 320.9127 528.4345 320.9127 C 527.1646 320.9127 513.8304 303.76872 513.8304 303.76872 L 506.21085 291.0695 L 502.4011 273.29055 L 493.5116 256.78154 L 493.5116 239.63757 L 484.62215 245.35222 C 484.62215 245.35222 483.3522 258.68642 482.71726 259.3214 C 482.0823 259.95635 454.63496 298 454 298 C 453.36504 298 231.5 230.5 231.5 230.5 Z" stroke="#484848" stroke-linecap="round" stroke-linejoin="round" stroke-width="5"/>
      </g>
      <g id="Graphic_4">
        <path d="M 232 230 L 381 259 C 381 259 405.33666 188.3714 405.33666 187.56909 C 405.33666 186.76677 430.20846 156.27875 430.20846 156.27875 L 446.2548 199.60383 C 446.2548 199.60383 464.70806 224.47564 466.3127 242.9289 C 467.91733 261.3822 494.39377 283.04472 494.39377 283.04472 C 494.39377 283.04472 512.84704 258.97524 512.84704 255.76597 C 512.84704 252.5567 511.2424 229.28953 512.84704 219.66174 C 514.4517 210.03394 524.8818 187.56909 528.09105 186.76677 C 531.3003 185.96446 556.97444 178.7436 557.77675 179.54593 C 558.5791 180.34824 564.1953 176.33666 564.9976 185.16214 C 565.7999 193.98762 584.2532 251.7544 584.2532 253.35902 C 584.2532 254.96365 575.4277 306.3119 596.2879 279.83546 C 617.14816 253.35902 619.5551 243.73123 619.5551 243.73123 C 619.5551 243.73123 609.9273 200.40615 611.53194 179.54593 C 613.1366 158.6857 655.6593 129 656.46165 129 C 657.264 129 681.33346 131.40695 682.1358 133.01158 C 682.9381 134.61621 700.58905 193.1853 700.58905 203.61541 C 700.58905 214.04552 712.6238 254.96365 713.4261 267.8007 C 714.2284 280.63778 723.0539 280.63778 726.2632 280.63778 C 729.4724 280.63778 743.9141 250.14976 744.7164 250.14976 C 745.5188 250.14976 755.9489 238.115 756.7512 238.115 C 757.5535 238.115 784.0299 234.10343 784.0299 234.10343 L 790.457 236.081 C 791.1288 236.2877 791.5058 236.9998 791.2991 237.67152 C 791.1742 238.07735 790.8552 238.39416 790.4485 238.51617 L 790.4485 238.51617 C 787.7883 239.3142 785.0259 239.71965 782.2487 239.71965 L 767.9836 239.71965 C 767.9836 239.71965 757.5535 249.34744 756.7512 249.34744 C 755.9489 249.34744 747.9257 265.39377 747.9257 265.39377 L 743.0423 274.34664 C 739.9778 279.9649 735.0309 284.3231 729.0713 286.65515 L 719.8446 290.26557 C 719.8446 290.26557 703.7983 281.4401 703.7983 280.63778 C 703.7983 279.83546 702.996 249.34744 702.996 249.34744 L 692.5659 213.2432 C 692.5659 213.2432 686.9497 192.38299 686.14736 190.77835 C 685.345 189.17372 677.3219 157.88339 677.3219 157.08107 C 677.3219 156.27875 667.6941 146.65096 666.8918 145.84864 C 666.08945 145.04633 651.64776 147.45327 651.64776 147.45327 L 640.43456 155.86317 C 635.1348 159.83799 630.7505 164.90466 627.5783 170.72045 L 626.7984 172.15025 C 624.1514 177.00306 622.7644 182.44247 622.7644 187.97025 L 622.7644 196.39457 C 622.7644 196.39457 628.3806 218.85942 629.1829 218.85942 C 629.9852 218.85942 629.9852 250.14976 629.9852 250.14976 C 629.9852 250.14976 628.3806 261.3822 626.77595 262.1845 C 625.1713 262.98682 611.53194 282.2424 611.53194 283.04472 C 611.53194 283.84704 596.2879 298.28873 595.4856 298.28873 C 594.6833 298.28873 585.8578 298.28873 585.8578 298.28873 L 579.0381 296.28294 C 574.9134 295.0698 571.93184 291.48272 571.4932 287.2057 L 569.0092 262.98682 C 569.0092 262.98682 567.40455 247.7428 567.40455 246.9405 C 567.40455 246.13818 558.5791 218.0571 558.5791 218.0571 L 550.2685 195.0433 C 549.52485 192.98388 547.2525 191.91726 545.19306 192.66094 C 544.6454 192.85871 544.148 193.1747 543.7362 193.58646 L 539.3235 197.9992 C 539.3235 197.9992 530.498 220.46406 529.6957 220.46406 C 528.89337 220.46406 525.6841 235.70806 525.6841 236.51038 C 525.6841 237.3127 525.6841 263.78913 525.6841 263.78913 L 522.0737 271.8123 C 519.6797 277.1323 516.5182 282.0723 512.69014 286.47454 L 507.6618 292.25716 C 504.23196 296.20145 499.77926 299.12168 494.7949 300.6957 L 487.1729 303.10263 C 487.1729 303.10263 475.1382 283.04472 473.53354 283.04472 C 471.9289 283.04472 455.08027 261.3822 455.08027 261.3822 L 450.26637 253.35902 C 447.07896 248.04667 444.7901 242.2447 443.492 236.18702 L 443.0455 234.10343 C 441.44894 226.65271 438.80497 219.46573 435.1924 212.75666 L 434.54125 211.5474 C 431.1706 205.2876 429.40615 198.28912 429.40615 191.1795 L 429.40615 187.02484 C 429.40615 185.0117 427.7742 183.37974 425.76105 183.37974 C 425.0621 183.37974 424.3779 183.5807 423.78993 183.95866 L 418.1737 187.56909 C 418.1737 187.56909 416.5691 204.41773 415.76677 205.22005 C 414.96446 206.02236 386.8023 281 386 281 C 385.1977 281 232 230 232 230 Z" fill="#ff9a4a"/>
        <path d="M 232 230 L 381 259 C 381 259 405.33666 188.3714 405.33666 187.56909 C 405.33666 186.76677 430.20846 156.27875 430.20846 156.27875 L 446.2548 199.60383 C 446.2548 199.60383 464.70806 224.47564 466.3127 242.9289 C 467.91733 261.3822 494.39377 283.04472 494.39377 283.04472 C 494.39377 283.04472 512.84704 258.97524 512.84704 255.76597 C 512.84704 252.5567 511.2424 229.28953 512.84704 219.66174 C 514.4517 210.03394 524.8818 187.56909 528.09105 186.76677 C 531.3003 185.96446 556.97444 178.7436 557.77675 179.54593 C 558.5791 180.34824 564.1953 176.33666 564.9976 185.16214 C 565.7999 193.98762 584.2532 251.7544 584.2532 253.35902 C 584.2532 254.96365 575.4277 306.3119 596.2879 279.83546 C 617.14816 253.35902 619.5551 243.73123 619.5551 243.73123 C 619.5551 243.73123 609.9273 200.40615 611.53194 179.54593 C 613.1366 158.6857 655.6593 129 656.46165 129 C 657.264 129 681.33346 131.40695 682.1358 133.01158 C 682.9381 134.61621 700.58905 193.1853 700.58905 203.61541 C 700.58905 214.04552 712.6238 254.96365 713.4261 267.8007 C 714.2284 280.63778 723.0539 280.63778 726.2632 280.63778 C 729.4724 280.63778 743.9141 250.14976 744.7164 250.14976 C 745.5188 250.14976 755.9489 238.115 756.7512 238.115 C 757.5535 238.115 784.0299 234.10343 784.0299 234.10343 L 790.457 236.081 C 791.1288 236.2877 791.5058 236.9998 791.2991 237.67152 C 791.1742 238.07735 790.8552 238.39416 790.4485 238.51617 L 790.4485 238.51617 C 787.7883 239.3142 785.0259 239.71965 782.2487 239.71965 L 767.9836 239.71965 C 767.9836 239.71965 757.5535 249.34744 756.7512 249.34744 C 755.9489 249.34744 747.9257 265.39377 747.9257 265.39377 L 743.0423 274.34664 C 739.9778 279.9649 735.0309 284.3231 729.0713 286.65515 L 719.8446 290.26557 C 719.8446 290.26557 703.7983 281.4401 703.7983 280.63778 C 703.7983 279.83546 702.996 249.34744 702.996 249.34744 L 692.5659 213.2432 C 692.5659 213.2432 686.9497 192.38299 686.14736 190.77835 C 685.345 189.17372 677.3219 157.88339 677.3219 157.08107 C 677.3219 156.27875 667.6941 146.65096 666.8918 145.84864 C 666.08945 145.04633 651.64776 147.45327 651.64776 147.45327 L 640.43456 155.86317 C 635.1348 159.83799 630.7505 164.90466 627.5783 170.72045 L 626.7984 172.15025 C 624.1514 177.00306 622.7644 182.44247 622.7644 187.97025 L 622.7644 196.39457 C 622.7644 196.39457 628.3806 218.85942 629.1829 218.85942 C 629.9852 218.85942 629.9852 250.14976 629.9852 250.14976 C 629.9852 250.14976 628.3806 261.3822 626.77595 262.1845 C 625.1713 262.98682 611.53194 282.2424 611.53194 283.04472 C 611.53194 283.84704 596.2879 298.28873 595.4856 298.28873 C 594.6833 298.28873 585.8578 298.28873 585.8578 298.28873 L 579.0381 296.28294 C 574.9134 295.0698 571.93184 291.48272 571.4932 287.2057 L 569.0092 262.98682 C 569.0092 262.98682 567.40455 247.7428 567.40455 246.9405 C 567.40455 246.13818 558.5791 218.0571 558.5791 218.0571 L 550.2685 195.0433 C 549.52485 192.98388 547.2525 191.91726 545.19306 192.66094 C 544.6454 192.85871 544.148 193.1747 543.7362 193.58646 L 539.3235 197.9992 C 539.3235 197.9992 530.498 220.46406 529.6957 220.46406 C 528.89337 220.46406 525.6841 235.70806 525.6841 236.51038 C 525.6841 237.3127 525.6841 263.78913 525.6841 263.78913 L 522.0737 271.8123 C 519.6797 277.1323 516.5182 282.0723 512.69014 286.47454 L 507.6618 292.25716 C 504.23196 296.20145 499.77926 299.12168 494.7949 300.6957 L 487.1729 303.10263 C 487.1729 303.10263 475.1382 283.04472 473.53354 283.04472 C 471.9289 283.04472 455.08027 261.3822 455.08027 261.3822 L 450.26637 253.35902 C 447.07896 248.04667 444.7901 242.2447 443.492 236.18702 L 443.0455 234.10343 C 441.44894 226.65271 438.80497 219.46573 435.1924 212.75666 L 434.54125 211.5474 C 431.1706 205.2876 429.40615 198.28912 429.40615 191.1795 L 429.40615 187.02484 C 429.40615 185.0117 427.7742 183.37974 425.76105 183.37974 C 425.0621 183.37974 424.3779 183.5807 423.78993 183.95866 L 418.1737 187.56909 C 418.1737 187.56909 416.5691 204.41773 415.76677 205.22005 C 414.96446 206.02236 386.8023 281 386 281 C 385.1977 281 232 230 232 230 Z" stroke="black" stroke-linecap="round" stroke-linejoin="round" stroke-width="5"/>
      </g>
    </g>
  </g>
</svg>
