<?xml version="1.0" encoding="UTF-8" standalone="no"?>
<!DOCTYPE svg PUBLIC "-//W3C//DTD SVG 1.1//EN" "http://www.w3.org/Graphics/SVG/1.1/DTD/svg11.dtd">
<svg xmlns="http://www.w3.org/2000/svg" version="1.1" xmlns:dc="http://purl.org/dc/elements/1.1/" xmlns:xl="http://www.w3.org/1999/xlink" viewBox="0 0 850.394 850.394" width="850.394" height="850.394">
  <defs/>
  <metadata> Produced by OmniGraffle 7.9.4 
    <dc:date>2019-03-10 20:56:15 +0000</dc:date>
  </metadata>
  <g id="echo" fill="none" stroke-opacity="1" fill-opacity="1" stroke-dasharray="none" stroke="none">
    <title>echo</title>
    <g id="echo: Layer 1">
      <title>Layer 1</title>
      <g id="Graphic_2">
        <path d="M 110 253.6081 L 136 165.6081 C 136 165.6081 169 104.60809 169 103.60809 C 169 102.60809 200 64.60809 200 64.60809 L 220 118.60809 C 220 118.60809 243 149.6081 245 172.6081 C 247 195.6081 280 222.6081 280 222.6081 C 280 222.6081 303 192.6081 303 188.6081 C 303 184.6081 301 155.6081 303 143.6081 C 305 131.6081 318 103.60809 322 102.60809 C 326 101.60809 358 92.60809 359 93.60809 C 360 94.60809 367 89.60809 368 100.60809 C 369 111.60809 392 183.6081 392 185.6081 C 392 187.6081 381 251.6081 407 218.6081 C 433 185.6081 436 173.6081 436 173.6081 C 436 173.6081 424 119.60809 426 93.60809 C 428 67.60809 481 30.608092 482 30.608092 C 483 30.608092 513 33.608092 514 35.608092 C 515 37.608092 537 110.60809 537 123.60809 C 537 136.6081 552 187.6081 553 203.6081 C 554 219.6081 565 219.6081 569 219.6081 C 573 219.6081 591 181.6081 592 181.6081 C 593 181.6081 606 166.6081 607 166.6081 C 608 166.6081 641 161.6081 641 161.6081 L 654 165.6081 L 644 168.6081 L 621 168.6081 C 621 168.6081 608 180.6081 607 180.6081 C 606 180.6081 596 200.6081 596 200.6081 L 584 222.6081 L 561 231.6081 C 561 231.6081 541 220.6081 541 219.6081 C 541 218.6081 540 180.6081 540 180.6081 L 527 135.6081 C 527 135.6081 520 109.60809 519 107.60809 C 518 105.60809 508 66.60809 508 65.60809 C 508 64.60809 496 52.60809 495 51.60809 C 494 50.60809 476 53.60809 476 53.60809 L 452 71.60809 L 440 93.60809 L 440 114.60809 C 440 114.60809 447 142.6081 448 142.6081 C 449 142.6081 449 181.6081 449 181.6081 C 449 181.6081 447 195.6081 445 196.6081 C 443 197.6081 426 221.6081 426 222.6081 C 426 223.6081 407 241.6081 406 241.6081 C 405 241.6081 394 241.6081 394 241.6081 L 377 236.6081 L 373 197.6081 C 373 197.6081 371 178.6081 371 177.6081 C 371 176.6081 360 141.6081 360 141.6081 L 347 105.60809 L 336 116.60809 C 336 116.60809 325 144.6081 324 144.6081 C 323 144.6081 319 163.6081 319 164.6081 C 319 165.6081 319 198.6081 319 198.6081 L 310 218.6081 L 290 241.6081 L 271 247.6081 C 271 247.6081 256 222.6081 254 222.6081 C 252 222.6081 231 195.6081 231 195.6081 L 219 175.6081 L 213 147.6081 L 199 121.60809 L 199 94.60809 L 185 103.60809 C 185 103.60809 183 124.60809 182 125.60809 C 181 126.6081 165 159.6081 164 159.6081 C 163 159.6081 110 253.6081 110 253.6081 Z" fill="black"/>
        <path d="M 110 253.6081 L 136 165.6081 C 136 165.6081 169 104.60809 169 103.60809 C 169 102.60809 200 64.60809 200 64.60809 L 220 118.60809 C 220 118.60809 243 149.6081 245 172.6081 C 247 195.6081 280 222.6081 280 222.6081 C 280 222.6081 303 192.6081 303 188.6081 C 303 184.6081 301 155.6081 303 143.6081 C 305 131.6081 318 103.60809 322 102.60809 C 326 101.60809 358 92.60809 359 93.60809 C 360 94.60809 367 89.60809 368 100.60809 C 369 111.60809 392 183.6081 392 185.6081 C 392 187.6081 381 251.6081 407 218.6081 C 433 185.6081 436 173.6081 436 173.6081 C 436 173.6081 424 119.60809 426 93.60809 C 428 67.60809 481 30.608092 482 30.608092 C 483 30.608092 513 33.608092 514 35.608092 C 515 37.608092 537 110.60809 537 123.60809 C 537 136.6081 552 187.6081 553 203.6081 C 554 219.6081 565 219.6081 569 219.6081 C 573 219.6081 591 181.6081 592 181.6081 C 593 181.6081 606 166.6081 607 166.6081 C 608 166.6081 641 161.6081 641 161.6081 L 654 165.6081 L 644 168.6081 L 621 168.6081 C 621 168.6081 608 180.6081 607 180.6081 C 606 180.6081 596 200.6081 596 200.6081 L 584 222.6081 L 561 231.6081 C 561 231.6081 541 220.6081 541 219.6081 C 541 218.6081 540 180.6081 540 180.6081 L 527 135.6081 C 527 135.6081 520 109.60809 519 107.60809 C 518 105.60809 508 66.60809 508 65.60809 C 508 64.60809 496 52.60809 495 51.60809 C 494 50.60809 476 53.60809 476 53.60809 L 452 71.60809 L 440 93.60809 L 440 114.60809 C 440 114.60809 447 142.6081 448 142.6081 C 449 142.6081 449 181.6081 449 181.6081 C 449 181.6081 447 195.6081 445 196.6081 C 443 197.6081 426 221.6081 426 222.6081 C 426 223.6081 407 241.6081 406 241.6081 C 405 241.6081 394 241.6081 394 241.6081 L 377 236.6081 L 373 197.6081 C 373 197.6081 371 178.6081 371 177.6081 C 371 176.6081 360 141.6081 360 141.6081 L 347 105.60809 L 336 116.60809 C 336 116.60809 325 144.6081 324 144.6081 C 323 144.6081 319 163.6081 319 164.6081 C 319 165.6081 319 198.6081 319 198.6081 L 310 218.6081 L 290 241.6081 L 271 247.6081 C 271 247.6081 256 222.6081 254 222.6081 C 252 222.6081 231 195.6081 231 195.6081 L 219 175.6081 L 213 147.6081 L 199 121.60809 L 199 94.60809 L 185 103.60809 C 185 103.60809 183 124.60809 182 125.60809 C 181 126.6081 165 159.6081 164 159.6081 C 163 159.6081 110 253.6081 110 253.6081 Z" stroke="black" stroke-linecap="round" stroke-linejoin="round" stroke-width="5"/>
      </g>
      <g id="Graphic_3">
        <path d="M 322 668.697 L 339.61575 609.0745 C 339.61575 609.0745 361.9742 567.7452 361.9742 567.0677 C 361.9742 566.39016 382.9776 540.6441 382.9776 540.6441 L 396.52816 577.2306 C 396.52816 577.2306 412.1113 598.234 413.4664 613.8172 C 414.82144 629.4003 437.1799 647.6936 437.1799 647.6936 C 437.1799 647.6936 452.76305 627.36775 452.76305 624.6576 C 452.76305 621.9475 451.408 602.2992 452.76305 594.16884 C 454.1181 586.0385 462.926 567.0677 465.6361 566.39016 C 468.3462 565.7126 490.0271 559.6149 490.70465 560.2924 C 491.3822 560.9699 496.1249 557.5823 496.8024 565.0351 C 497.47994 572.4879 513.0631 621.27 513.0631 622.62505 C 513.0631 623.9801 505.6103 667.34194 523.22603 644.9835 C 540.8418 622.62505 542.87437 614.4947 542.87437 614.4947 C 542.87437 614.4947 534.744 577.90815 536.0991 560.2924 C 537.45414 542.67666 573.36316 517.6081 574.0407 517.6081 C 574.7182 517.6081 595.0441 519.6407 595.7216 520.99574 C 596.39914 522.3508 611.3048 571.8104 611.3048 580.61826 C 611.3048 589.42614 621.4677 623.9801 622.1452 634.8206 C 622.82276 645.661 630.2756 645.661 632.9857 645.661 C 635.6958 645.661 647.8913 619.9149 648.56885 619.9149 C 649.2464 619.9149 658.05425 609.752 658.7318 609.752 C 659.4093 609.752 681.76776 606.36436 681.76776 606.36436 L 690.5756 609.0745 L 683.80034 611.10706 L 668.2172 611.10706 C 668.2172 611.10706 659.4093 619.2374 658.7318 619.2374 C 658.05425 619.2374 651.279 632.788 651.279 632.788 L 643.1486 647.6936 L 627.56546 653.7914 C 627.56546 653.7914 614.0149 646.33855 614.0149 645.661 C 614.0149 644.9835 613.33736 619.2374 613.33736 619.2374 L 604.5295 588.7486 C 604.5295 588.7486 599.7868 571.13286 599.10925 569.7778 C 598.4317 568.42275 591.65644 541.9991 591.65644 541.3216 C 591.65644 540.6441 583.5261 532.5137 582.84856 531.8362 C 582.171 531.15867 569.9755 533.19125 569.9755 533.19125 L 553.7148 545.3868 L 545.5845 560.2924 L 545.5845 574.5205 C 545.5845 574.5205 550.3272 593.4913 551.0047 593.4913 C 551.68224 593.4913 551.68224 619.9149 551.68224 619.9149 C 551.68224 619.9149 550.3272 629.4003 548.9721 630.07786 C 547.6171 630.7554 536.0991 647.0161 536.0991 647.6936 C 536.0991 648.3711 523.22603 660.56666 522.5485 660.56666 C 521.871 660.56666 514.41816 660.56666 514.41816 660.56666 L 502.9002 657.179 L 500.19006 630.7554 C 500.19006 630.7554 498.835 617.88235 498.835 617.2048 C 498.835 616.5273 491.3822 592.8138 491.3822 592.8138 L 482.5743 568.42275 L 475.1215 575.87556 C 475.1215 575.87556 467.6687 594.8464 466.99115 594.8464 C 466.3136 594.8464 463.6035 607.7194 463.6035 608.39694 C 463.6035 609.0745 463.6035 631.4329 463.6035 631.4329 L 457.50575 644.9835 L 443.95517 660.56666 L 431.08213 664.6318 C 431.08213 664.6318 420.9192 647.6936 419.56414 647.6936 C 418.2091 647.6936 403.981 629.4003 403.981 629.4003 L 395.85063 615.84976 L 391.78546 596.87895 L 382.30006 579.2632 L 382.30006 560.9699 L 372.81465 567.0677 C 372.81465 567.0677 371.4596 581.2958 370.78207 581.9733 C 370.10454 582.65085 359.2641 605.0093 358.58655 605.0093 C 357.90902 605.0093 322 668.697 322 668.697 Z" fill="#999"/>
        <path d="M 322 668.697 L 339.61575 609.0745 C 339.61575 609.0745 361.9742 567.7452 361.9742 567.0677 C 361.9742 566.39016 382.9776 540.6441 382.9776 540.6441 L 396.52816 577.2306 C 396.52816 577.2306 412.1113 598.234 413.4664 613.8172 C 414.82144 629.4003 437.1799 647.6936 437.1799 647.6936 C 437.1799 647.6936 452.76305 627.36775 452.76305 624.6576 C 452.76305 621.9475 451.408 602.2992 452.76305 594.16884 C 454.1181 586.0385 462.926 567.0677 465.6361 566.39016 C 468.3462 565.7126 490.0271 559.6149 490.70465 560.2924 C 491.3822 560.9699 496.1249 557.5823 496.8024 565.0351 C 497.47994 572.4879 513.0631 621.27 513.0631 622.62505 C 513.0631 623.9801 505.6103 667.34194 523.22603 644.9835 C 540.8418 622.62505 542.87437 614.4947 542.87437 614.4947 C 542.87437 614.4947 534.744 577.90815 536.0991 560.2924 C 537.45414 542.67666 573.36316 517.6081 574.0407 517.6081 C 574.7182 517.6081 595.0441 519.6407 595.7216 520.99574 C 596.39914 522.3508 611.3048 571.8104 611.3048 580.61826 C 611.3048 589.42614 621.4677 623.9801 622.1452 634.8206 C 622.82276 645.661 630.2756 645.661 632.9857 645.661 C 635.6958 645.661 647.8913 619.9149 648.56885 619.9149 C 649.2464 619.9149 658.05425 609.752 658.7318 609.752 C 659.4093 609.752 681.76776 606.36436 681.76776 606.36436 L 690.5756 609.0745 L 683.80034 611.10706 L 668.2172 611.10706 C 668.2172 611.10706 659.4093 619.2374 658.7318 619.2374 C 658.05425 619.2374 651.279 632.788 651.279 632.788 L 643.1486 647.6936 L 627.56546 653.7914 C 627.56546 653.7914 614.0149 646.33855 614.0149 645.661 C 614.0149 644.9835 613.33736 619.2374 613.33736 619.2374 L 604.5295 588.7486 C 604.5295 588.7486 599.7868 571.13286 599.10925 569.7778 C 598.4317 568.42275 591.65644 541.9991 591.65644 541.3216 C 591.65644 540.6441 583.5261 532.5137 582.84856 531.8362 C 582.171 531.15867 569.9755 533.19125 569.9755 533.19125 L 553.7148 545.3868 L 545.5845 560.2924 L 545.5845 574.5205 C 545.5845 574.5205 550.3272 593.4913 551.0047 593.4913 C 551.68224 593.4913 551.68224 619.9149 551.68224 619.9149 C 551.68224 619.9149 550.3272 629.4003 548.9721 630.07786 C 547.6171 630.7554 536.0991 647.0161 536.0991 647.6936 C 536.0991 648.3711 523.22603 660.56666 522.5485 660.56666 C 521.871 660.56666 514.41816 660.56666 514.41816 660.56666 L 502.9002 657.179 L 500.19006 630.7554 C 500.19006 630.7554 498.835 617.88235 498.835 617.2048 C 498.835 616.5273 491.3822 592.8138 491.3822 592.8138 L 482.5743 568.42275 L 475.1215 575.87556 C 475.1215 575.87556 467.6687 594.8464 466.99115 594.8464 C 466.3136 594.8464 463.6035 607.7194 463.6035 608.39694 C 463.6035 609.0745 463.6035 631.4329 463.6035 631.4329 L 457.50575 644.9835 L 443.95517 660.56666 L 431.08213 664.6318 C 431.08213 664.6318 420.9192 647.6936 419.56414 647.6936 C 418.2091 647.6936 403.981 629.4003 403.981 629.4003 L 395.85063 615.84976 L 391.78546 596.87895 L 382.30006 579.2632 L 382.30006 560.9699 L 372.81465 567.0677 C 372.81465 567.0677 371.4596 581.2958 370.78207 581.9733 C 370.10454 582.65085 359.2641 605.0093 358.58655 605.0093 C 357.90902 605.0093 322 668.697 322 668.697 Z" stroke="#484848" stroke-linecap="round" stroke-linejoin="round" stroke-width="5"/>
      </g>
      <g id="Graphic_4">
        <path d="M 436 819.7859 L 449.07903 775.5184 C 449.07903 775.5184 465.67933 744.833 465.67933 744.33 C 465.67933 743.8269 481.27356 724.7114 481.27356 724.7114 L 491.33435 751.8756 C 491.33435 751.8756 502.90426 767.4698 503.91034 779.0397 C 504.9164 790.6096 521.5167 804.1917 521.5167 804.1917 C 521.5167 804.1917 533.0866 789.1005 533.0866 787.0883 C 533.0866 785.0762 532.08055 770.488 533.0866 764.4516 C 534.0927 758.4151 540.6322 744.33 542.6444 743.8269 C 544.65654 743.3239 560.7538 738.7965 561.25684 739.2996 C 561.7599 739.8026 565.28116 737.2874 565.7842 742.8209 C 566.28724 748.3543 577.85715 784.5731 577.85715 785.5792 C 577.85715 786.5853 572.3237 818.7798 585.40274 802.1795 C 598.4818 785.5792 599.9909 779.5427 599.9909 779.5427 C 599.9909 779.5427 593.9544 752.3786 594.9605 739.2996 C 595.9666 726.22056 622.6277 707.6081 623.1307 707.6081 C 623.63374 707.6081 638.7249 709.1172 639.228 710.1233 C 639.731 711.1294 650.7979 747.85125 650.7979 754.3908 C 650.7979 760.9303 658.3435 786.5853 658.8465 794.6339 C 659.34955 802.6826 664.883 802.6826 666.89514 802.6826 C 668.9073 802.6826 677.962 783.5671 678.46505 783.5671 C 678.9681 783.5671 685.5076 776.0215 686.01065 776.0215 C 686.5137 776.0215 703.114 773.5063 703.114 773.5063 L 709.6535 775.5184 L 704.6231 777.02755 L 693.0532 777.02755 C 693.0532 777.02755 686.5137 783.064 686.01065 783.064 C 685.5076 783.064 680.4772 793.1248 680.4772 793.1248 L 674.4407 804.1917 L 662.8708 808.719 C 662.8708 808.719 652.81 803.1856 652.81 802.6826 C 652.81 802.1795 652.307 783.064 652.307 783.064 L 645.7675 760.4272 C 645.7675 760.4272 642.2462 747.3482 641.7432 746.3421 C 641.2401 745.3361 636.2097 725.7175 636.2097 725.2145 C 636.2097 724.7114 630.17326 718.675 629.6702 718.1719 C 629.1672 717.6689 620.1125 719.178 620.1125 719.178 L 608.0395 728.2327 L 602.00304 739.2996 L 602.00304 749.8634 C 602.00304 749.8634 605.5243 763.9485 606.02736 763.9485 C 606.5304 763.9485 606.5304 783.5671 606.5304 783.5671 C 606.5304 783.5671 605.5243 790.6096 604.51824 791.1127 C 603.51216 791.6157 594.9605 803.6886 594.9605 804.1917 C 594.9605 804.6947 585.40274 813.7494 584.8997 813.7494 C 584.39666 813.7494 578.8632 813.7494 578.8632 813.7494 L 570.31155 811.2342 L 568.2994 791.6157 C 568.2994 791.6157 567.2933 782.0579 567.2933 781.5549 C 567.2933 781.0519 561.7599 763.4455 561.7599 763.4455 L 555.2204 745.3361 L 549.68693 750.8695 C 549.68693 750.8695 544.1535 764.9546 543.65046 764.9546 C 543.1474 764.9546 541.13526 774.51235 541.13526 775.0154 C 541.13526 775.5184 541.13526 792.1187 541.13526 792.1187 L 536.6079 802.1795 L 526.5471 813.7494 L 516.98936 816.7677 C 516.98936 816.7677 509.4438 804.1917 508.4377 804.1917 C 507.4316 804.1917 496.8678 790.6096 496.8678 790.6096 L 490.8313 780.5488 L 487.8131 766.4637 L 480.7705 753.3847 L 480.7705 739.8026 L 473.72796 744.33 C 473.72796 744.33 472.7219 754.8938 472.21885 755.39685 C 471.7158 755.8999 463.6672 772.5002 463.16413 772.5002 C 462.6611 772.5002 436 819.7859 436 819.7859 Z" fill="#ccc"/>
        <path d="M 436 819.7859 L 449.07903 775.5184 C 449.07903 775.5184 465.67933 744.833 465.67933 744.33 C 465.67933 743.8269 481.27356 724.7114 481.27356 724.7114 L 491.33435 751.8756 C 491.33435 751.8756 502.90426 767.4698 503.91034 779.0397 C 504.9164 790.6096 521.5167 804.1917 521.5167 804.1917 C 521.5167 804.1917 533.0866 789.1005 533.0866 787.0883 C 533.0866 785.0762 532.08055 770.488 533.0866 764.4516 C 534.0927 758.4151 540.6322 744.33 542.6444 743.8269 C 544.65654 743.3239 560.7538 738.7965 561.25684 739.2996 C 561.7599 739.8026 565.28116 737.2874 565.7842 742.8209 C 566.28724 748.3543 577.85715 784.5731 577.85715 785.5792 C 577.85715 786.5853 572.3237 818.7798 585.40274 802.1795 C 598.4818 785.5792 599.9909 779.5427 599.9909 779.5427 C 599.9909 779.5427 593.9544 752.3786 594.9605 739.2996 C 595.9666 726.22056 622.6277 707.6081 623.1307 707.6081 C 623.63374 707.6081 638.7249 709.1172 639.228 710.1233 C 639.731 711.1294 650.7979 747.85125 650.7979 754.3908 C 650.7979 760.9303 658.3435 786.5853 658.8465 794.6339 C 659.34955 802.6826 664.883 802.6826 666.89514 802.6826 C 668.9073 802.6826 677.962 783.5671 678.46505 783.5671 C 678.9681 783.5671 685.5076 776.0215 686.01065 776.0215 C 686.5137 776.0215 703.114 773.5063 703.114 773.5063 L 709.6535 775.5184 L 704.6231 777.02755 L 693.0532 777.02755 C 693.0532 777.02755 686.5137 783.064 686.01065 783.064 C 685.5076 783.064 680.4772 793.1248 680.4772 793.1248 L 674.4407 804.1917 L 662.8708 808.719 C 662.8708 808.719 652.81 803.1856 652.81 802.6826 C 652.81 802.1795 652.307 783.064 652.307 783.064 L 645.7675 760.4272 C 645.7675 760.4272 642.2462 747.3482 641.7432 746.3421 C 641.2401 745.3361 636.2097 725.7175 636.2097 725.2145 C 636.2097 724.7114 630.17326 718.675 629.6702 718.1719 C 629.1672 717.6689 620.1125 719.178 620.1125 719.178 L 608.0395 728.2327 L 602.00304 739.2996 L 602.00304 749.8634 C 602.00304 749.8634 605.5243 763.9485 606.02736 763.9485 C 606.5304 763.9485 606.5304 783.5671 606.5304 783.5671 C 606.5304 783.5671 605.5243 790.6096 604.51824 791.1127 C 603.51216 791.6157 594.9605 803.6886 594.9605 804.1917 C 594.9605 804.6947 585.40274 813.7494 584.8997 813.7494 C 584.39666 813.7494 578.8632 813.7494 578.8632 813.7494 L 570.31155 811.2342 L 568.2994 791.6157 C 568.2994 791.6157 567.2933 782.0579 567.2933 781.5549 C 567.2933 781.0519 561.7599 763.4455 561.7599 763.4455 L 555.2204 745.3361 L 549.68693 750.8695 C 549.68693 750.8695 544.1535 764.9546 543.65046 764.9546 C 543.1474 764.9546 541.13526 774.51235 541.13526 775.0154 C 541.13526 775.5184 541.13526 792.1187 541.13526 792.1187 L 536.6079 802.1795 L 526.5471 813.7494 L 516.98936 816.7677 C 516.98936 816.7677 509.4438 804.1917 508.4377 804.1917 C 507.4316 804.1917 496.8678 790.6096 496.8678 790.6096 L 490.8313 780.5488 L 487.8131 766.4637 L 480.7705 753.3847 L 480.7705 739.8026 L 473.72796 744.33 C 473.72796 744.33 472.7219 754.8938 472.21885 755.39685 C 471.7158 755.8999 463.6672 772.5002 463.16413 772.5002 C 462.6611 772.5002 436 819.7859 436 819.7859 Z" stroke="#525252" stroke-linecap="round" stroke-linejoin="round" stroke-width="5"/>
      </g>
      <g id="Graphic_5">
        <path d="M 215 494.5189 L 237.25866 419.1819 C 237.25866 419.1819 265.51003 366.95966 265.51003 366.10355 C 265.51003 365.24745 292.0492 332.71557 292.0492 332.71557 L 309.17124 378.9451 C 309.17124 378.9451 328.8616 405.48425 330.5738 425.1746 C 332.286 444.86496 360.53737 467.9797 360.53737 467.9797 C 360.53737 467.9797 380.22772 442.29665 380.22772 438.87224 C 380.22772 435.44783 378.5155 410.62087 380.22772 400.34764 C 381.93993 390.0744 393.06926 366.10355 396.49367 365.24745 C 399.91807 364.39135 427.31335 356.68643 428.16945 357.54253 C 429.02555 358.39863 435.01826 354.11812 435.87437 363.53525 C 436.73047 372.95237 456.4208 434.59173 456.4208 436.30393 C 456.4208 438.01614 447.0037 492.8067 469.26235 464.5553 C 491.521 436.30393 494.0893 426.0307 494.0893 426.0307 C 494.0893 426.0307 483.8161 379.8012 485.5283 357.54253 C 487.2405 335.28387 532.6139 303.6081 533.47 303.6081 C 534.3261 303.6081 560.0092 306.1764 560.8653 307.8886 C 561.7214 309.6008 580.55564 372.09627 580.55564 383.2256 C 580.55564 394.35493 593.3972 438.01614 594.2533 451.71377 C 595.1094 465.4114 604.5265 465.4114 607.9509 465.4114 C 611.3753 465.4114 626.78516 432.8795 627.64126 432.8795 C 628.49736 432.8795 639.6267 420.038 640.4828 420.038 C 641.3389 420.038 669.5903 415.7575 669.5903 415.7575 L 680.7196 419.1819 L 672.1586 421.7502 L 652.4682 421.7502 C 652.4682 421.7502 641.3389 432.0234 640.4828 432.0234 C 639.6267 432.0234 631.0657 449.14547 631.0657 449.14547 L 620.79244 467.9797 L 601.1021 475.68463 C 601.1021 475.68463 583.98005 466.2675 583.98005 465.4114 C 583.98005 464.5553 583.12395 432.0234 583.12395 432.0234 L 571.9946 393.4988 C 571.9946 393.4988 566.0019 371.24017 565.1458 369.52796 C 564.2897 367.81576 555.7287 334.42777 555.7287 333.57167 C 555.7287 332.71557 545.45545 322.44234 544.59935 321.58624 C 543.74324 320.73014 528.3334 323.29844 528.3334 323.29844 L 507.78695 338.7083 L 497.5137 357.54253 L 497.5137 375.52068 C 497.5137 375.52068 503.50644 399.49154 504.36254 399.49154 C 505.21865 399.49154 505.21865 432.8795 505.21865 432.8795 C 505.21865 432.8795 503.50644 444.86496 501.79424 445.72106 C 500.08203 446.57716 485.5283 467.1236 485.5283 467.9797 C 485.5283 468.8358 469.26235 484.24566 468.40625 484.24566 C 467.55015 484.24566 458.133 484.24566 458.133 484.24566 L 443.5793 479.96515 L 440.1549 446.57716 C 440.1549 446.57716 438.44267 430.3112 438.44267 429.4551 C 438.44267 428.599 429.02555 398.63544 429.02555 398.63544 L 417.8962 367.81576 L 408.4791 377.2329 C 408.4791 377.2329 399.06197 401.20374 398.20587 401.20374 C 397.34977 401.20374 393.92536 417.4697 393.92536 418.3258 C 393.92536 419.1819 393.92536 447.43326 393.92536 447.43326 L 386.22044 464.5553 L 369.0984 484.24566 L 352.83245 489.38227 C 352.83245 489.38227 339.99092 467.9797 338.2787 467.9797 C 336.5665 467.9797 318.58837 444.86496 318.58837 444.86496 L 308.31514 427.7429 L 303.17853 403.77205 L 291.1931 381.5134 L 291.1931 358.39863 L 279.20766 366.10355 C 279.20766 366.10355 277.49546 384.0817 276.63936 384.9378 C 275.78326 385.7939 262.08562 414.0453 261.22952 414.0453 C 260.37342 414.0453 215 494.5189 215 494.5189 Z" fill="#666"/>
        <path d="M 215 494.5189 L 237.25866 419.1819 C 237.25866 419.1819 265.51003 366.95966 265.51003 366.10355 C 265.51003 365.24745 292.0492 332.71557 292.0492 332.71557 L 309.17124 378.9451 C 309.17124 378.9451 328.8616 405.48425 330.5738 425.1746 C 332.286 444.86496 360.53737 467.9797 360.53737 467.9797 C 360.53737 467.9797 380.22772 442.29665 380.22772 438.87224 C 380.22772 435.44783 378.5155 410.62087 380.22772 400.34764 C 381.93993 390.0744 393.06926 366.10355 396.49367 365.24745 C 399.91807 364.39135 427.31335 356.68643 428.16945 357.54253 C 429.02555 358.39863 435.01826 354.11812 435.87437 363.53525 C 436.73047 372.95237 456.4208 434.59173 456.4208 436.30393 C 456.4208 438.01614 447.0037 492.8067 469.26235 464.5553 C 491.521 436.30393 494.0893 426.0307 494.0893 426.0307 C 494.0893 426.0307 483.8161 379.8012 485.5283 357.54253 C 487.2405 335.28387 532.6139 303.6081 533.47 303.6081 C 534.3261 303.6081 560.0092 306.1764 560.8653 307.8886 C 561.7214 309.6008 580.55564 372.09627 580.55564 383.2256 C 580.55564 394.35493 593.3972 438.01614 594.2533 451.71377 C 595.1094 465.4114 604.5265 465.4114 607.9509 465.4114 C 611.3753 465.4114 626.78516 432.8795 627.64126 432.8795 C 628.49736 432.8795 639.6267 420.038 640.4828 420.038 C 641.3389 420.038 669.5903 415.7575 669.5903 415.7575 L 680.7196 419.1819 L 672.1586 421.7502 L 652.4682 421.7502 C 652.4682 421.7502 641.3389 432.0234 640.4828 432.0234 C 639.6267 432.0234 631.0657 449.14547 631.0657 449.14547 L 620.79244 467.9797 L 601.1021 475.68463 C 601.1021 475.68463 583.98005 466.2675 583.98005 465.4114 C 583.98005 464.5553 583.12395 432.0234 583.12395 432.0234 L 571.9946 393.4988 C 571.9946 393.4988 566.0019 371.24017 565.1458 369.52796 C 564.2897 367.81576 555.7287 334.42777 555.7287 333.57167 C 555.7287 332.71557 545.45545 322.44234 544.59935 321.58624 C 543.74324 320.73014 528.3334 323.29844 528.3334 323.29844 L 507.78695 338.7083 L 497.5137 357.54253 L 497.5137 375.52068 C 497.5137 375.52068 503.50644 399.49154 504.36254 399.49154 C 505.21865 399.49154 505.21865 432.8795 505.21865 432.8795 C 505.21865 432.8795 503.50644 444.86496 501.79424 445.72106 C 500.08203 446.57716 485.5283 467.1236 485.5283 467.9797 C 485.5283 468.8358 469.26235 484.24566 468.40625 484.24566 C 467.55015 484.24566 458.133 484.24566 458.133 484.24566 L 443.5793 479.96515 L 440.1549 446.57716 C 440.1549 446.57716 438.44267 430.3112 438.44267 429.4551 C 438.44267 428.599 429.02555 398.63544 429.02555 398.63544 L 417.8962 367.81576 L 408.4791 377.2329 C 408.4791 377.2329 399.06197 401.20374 398.20587 401.20374 C 397.34977 401.20374 393.92536 417.4697 393.92536 418.3258 C 393.92536 419.1819 393.92536 447.43326 393.92536 447.43326 L 386.22044 464.5553 L 369.0984 484.24566 L 352.83245 489.38227 C 352.83245 489.38227 339.99092 467.9797 338.2787 467.9797 C 336.5665 467.9797 318.58837 444.86496 318.58837 444.86496 L 308.31514 427.7429 L 303.17853 403.77205 L 291.1931 381.5134 L 291.1931 358.39863 L 279.20766 366.10355 C 279.20766 366.10355 277.49546 384.0817 276.63936 384.9378 C 275.78326 385.7939 262.08562 414.0453 261.22952 414.0453 C 260.37342 414.0453 215 494.5189 215 494.5189 Z" stroke="black" stroke-linecap="round" stroke-linejoin="round" stroke-width="5"/>
      </g>
    </g>
  </g>
</svg>
