<?xml version="1.0" encoding="UTF-8" standalone="no"?>
<!DOCTYPE svg PUBLIC "-//W3C//DTD SVG 1.1//EN" "http://www.w3.org/Graphics/SVG/1.1/DTD/svg11.dtd">
<svg xmlns="http://www.w3.org/2000/svg" version="1.1" xmlns:dc="http://purl.org/dc/elements/1.1/" xmlns:xl="http://www.w3.org/1999/xlink" viewBox="0 0 850.394 850.394" width="850.394" height="850.394">
  <defs>
    <marker orient="auto" overflow="visible" markerUnits="strokeWidth" id="FilledArrow_Marker" stroke-linejoin="miter" stroke-miterlimit="10" viewBox="-1 -2 5 4" markerWidth="5" markerHeight="4" color="black">
      <g>
        <path d="M 2.6666667 0 L 0 -1 L 0 1 Z" fill="currentColor" stroke="currentColor" stroke-width="1"/>
      </g>
    </marker>
  </defs>
  <metadata> Produced by OmniGraffle 7.9.4 
    <dc:date>2019-03-12 13:17:41 +0000</dc:date>
  </metadata>
  <g id="edit" fill="none" stroke-opacity="1" fill-opacity="1" stroke-dasharray="none" stroke="none">
    <title>edit</title>
    <g id="edit: Layer 1">
      <title>Layer 1</title>
      <g id="Graphic_12">
        <rect x="187.98276" y="133" width="474.4285" height="230" fill="#ffff40"/>
        <rect x="187.98276" y="133" width="474.4285" height="230" stroke="black" stroke-linecap="round" stroke-linejoin="round" stroke-width="6"/>
      </g>
      <g id="Graphic_3">
        <rect x="138" y="464.55554" width="216.42681" height="230" fill="#ffffc0"/>
        <rect x="138" y="464.55554" width="216.42681" height="230" stroke="black" stroke-linecap="round" stroke-linejoin="round" stroke-width="6"/>
      </g>
      <g id="Graphic_2">
        <path d="M 202.27102 273 L 219.0486 260.50083 C 219.0486 260.50083 232.72782 220.96342 232.72782 220.31527 C 232.72782 219.6671 244.08538 202 244.08538 202 L 253.86845 230.03758 C 253.86845 230.03758 263.40245 250.13037 264.2315 265.0379 C 265.06054 279.94546 278.73977 297.44563 278.73977 297.44563 C 278.73977 297.44563 288.27378 278.001 288.27378 275.4084 C 288.27378 272.81577 287.44473 254.0193 288.27378 246.24144 C 289.10282 238.4636 294.4916 220.31527 296.1497 219.6671 C 297.8078 219.01896 311.0725 213.18557 311.487 213.83372 C 311.90153 214.48188 314.8032 211.2411 315.2177 218.3708 C 315.63223 225.5005 320.83045 240.7037 320.83045 242 C 320.83045 243.2963 320.6065 316.2421 331.38407 294.853 C 342.16164 273.46392 343.4052 265.68607 343.4052 265.68607 C 343.4052 265.68607 338.43095 230.68574 339.26 213.83372 C 340.08903 196.9817 345.271 188 345.271 188 L 358.271 212 C 358.271 212 356.8565 167 357.271 167 C 357.68554 167 375.3234 174.94446 375.73793 176.24077 C 376.15245 177.53708 385.27194 224.85235 385.27194 233.27835 C 385.27194 241.70436 391.48977 274.76023 391.9043 285.1307 C 392.3188 295.50117 396.87856 295.50117 398.53664 295.50117 C 400.19473 295.50117 407.65613 270.8713 408.07065 270.8713 C 408.48517 270.8713 413.87396 261.149 414.2885 261.149 C 414.703 261.149 428.38223 257.90822 428.38223 257.90822 L 442.8266 222.9541 C 442.97143 222.6037 443.3729 222.437 443.7233 222.5818 C 444.0648 222.72292 444.23333 223.10895 444.1047 223.4553 L 431.2853 257.97647 C 430.2877 260.66286 427.72443 262.4453 424.8588 262.4453 L 420.0918 262.4453 C 420.0918 262.4453 414.703 270.22315 414.2885 270.22315 C 413.87396 270.22315 409.72874 283.18624 409.72874 283.18624 L 406.5952 292.16897 C 405.40487 295.5812 403.0701 298.4762 399.98747 300.36233 L 395.22047 303.27902 C 395.22047 303.27902 386.93003 296.14932 386.93003 295.50117 C 386.93003 294.853 386.5155 270.22315 386.5155 270.22315 L 381.1267 241.0562 C 381.1267 241.0562 378.22506 224.2042 377.81054 222.90788 C 377.396 221.61157 373.2508 196.33356 373.2508 195.6854 C 373.2508 195.03725 368.27653 187.2594 367.862 186.61124 C 367.4475 185.96309 360.271 231 360.271 231 L 352.37565 206.75429 C 351.94022 205.41716 350.5033 204.68618 349.16616 205.1216 C 348.41003 205.36783 347.81236 205.95319 347.55043 206.70403 L 347.3049 207.40786 C 345.82107 211.66146 345.0633 216.13436 345.0633 220.63934 L 345.0633 227.44496 C 345.0633 227.44496 347.96495 245.59328 348.37948 245.59328 C 348.794 245.59328 348.794 270.8713 348.794 270.8713 C 348.794 270.8713 347.96495 279.94546 347.1359 280.59362 C 346.30687 281.24177 339.26 296.79748 339.26 297.44563 C 339.26 298.0938 331.38407 309.76056 330.96955 309.76056 C 330.55503 309.76056 325.9953 309.76056 325.9953 309.76056 L 322.47185 308.14018 C 320.3008 307.14174 318.85098 305.03443 318.69457 302.64993 L 317.29032 281.24177 C 317.29032 281.24177 316.46128 268.92684 316.46128 268.2787 C 316.46128 267.63053 311.90153 244.94513 311.90153 244.94513 L 307.46494 225.7346 C 307.24385 224.77728 306.28858 224.18046 305.33127 224.40154 C 304.8779 224.50625 304.48358 224.78442 304.23288 225.17642 L 301.953 228.74127 C 301.953 228.74127 297.39326 246.8896 296.97874 246.8896 C 296.56422 246.8896 294.90613 259.20453 294.90613 259.85268 C 294.90613 260.50083 294.90613 281.88993 294.90613 281.88993 L 293.04078 288.37147 C 291.80124 292.6785 290.07568 296.83054 287.8974 300.74745 L 285.01953 305.9223 C 283.62952 308.4218 281.51143 310.4388 278.94703 311.70503 L 275.00907 313.6495 C 275.00907 313.6495 268.79124 297.44563 267.9622 297.44563 C 267.13315 297.44563 258.4282 279.94546 258.4282 279.94546 L 255.94106 273.46392 C 254.28847 269.15724 253.13764 264.67447 252.51132 260.10432 L 252.17677 257.66316 C 251.37205 251.79117 249.99495 246.01195 248.06514 240.40805 L 248.01254 240.2553 C 246.12628 234.7779 245.16348 229.02506 245.16348 223.23196 L 245.16348 218.59608 C 245.16348 217.65834 244.4033 216.89815 243.46555 216.89815 C 243.0137 216.89815 242.5805 217.07825 242.26183 217.39857 L 239.36017 220.31527 C 239.36017 220.31527 238.53113 233.9265 238.1166 234.57466 C 237.70209 235.22282 231.06973 256.6119 230.6552 256.6119 C 230.2407 256.6119 202.27102 273 202.27102 273 Z" fill="black"/>
        <path d="M 202.27102 273 L 219.0486 260.50083 C 219.0486 260.50083 232.72782 220.96342 232.72782 220.31527 C 232.72782 219.6671 244.08538 202 244.08538 202 L 253.86845 230.03758 C 253.86845 230.03758 263.40245 250.13037 264.2315 265.0379 C 265.06054 279.94546 278.73977 297.44563 278.73977 297.44563 C 278.73977 297.44563 288.27378 278.001 288.27378 275.4084 C 288.27378 272.81577 287.44473 254.0193 288.27378 246.24144 C 289.10282 238.4636 294.4916 220.31527 296.1497 219.6671 C 297.8078 219.01896 311.0725 213.18557 311.487 213.83372 C 311.90153 214.48188 314.8032 211.2411 315.2177 218.3708 C 315.63223 225.5005 320.83045 240.7037 320.83045 242 C 320.83045 243.2963 320.6065 316.2421 331.38407 294.853 C 342.16164 273.46392 343.4052 265.68607 343.4052 265.68607 C 343.4052 265.68607 338.43095 230.68574 339.26 213.83372 C 340.08903 196.9817 345.271 188 345.271 188 L 358.271 212 C 358.271 212 356.8565 167 357.271 167 C 357.68554 167 375.3234 174.94446 375.73793 176.24077 C 376.15245 177.53708 385.27194 224.85235 385.27194 233.27835 C 385.27194 241.70436 391.48977 274.76023 391.9043 285.1307 C 392.3188 295.50117 396.87856 295.50117 398.53664 295.50117 C 400.19473 295.50117 407.65613 270.8713 408.07065 270.8713 C 408.48517 270.8713 413.87396 261.149 414.2885 261.149 C 414.703 261.149 428.38223 257.90822 428.38223 257.90822 L 442.8266 222.9541 C 442.97143 222.6037 443.3729 222.437 443.7233 222.5818 C 444.0648 222.72292 444.23333 223.10895 444.1047 223.4553 L 431.2853 257.97647 C 430.2877 260.66286 427.72443 262.4453 424.8588 262.4453 L 420.0918 262.4453 C 420.0918 262.4453 414.703 270.22315 414.2885 270.22315 C 413.87396 270.22315 409.72874 283.18624 409.72874 283.18624 L 406.5952 292.16897 C 405.40487 295.5812 403.0701 298.4762 399.98747 300.36233 L 395.22047 303.27902 C 395.22047 303.27902 386.93003 296.14932 386.93003 295.50117 C 386.93003 294.853 386.5155 270.22315 386.5155 270.22315 L 381.1267 241.0562 C 381.1267 241.0562 378.22506 224.2042 377.81054 222.90788 C 377.396 221.61157 373.2508 196.33356 373.2508 195.6854 C 373.2508 195.03725 368.27653 187.2594 367.862 186.61124 C 367.4475 185.96309 360.271 231 360.271 231 L 352.37565 206.75429 C 351.94022 205.41716 350.5033 204.68618 349.16616 205.1216 C 348.41003 205.36783 347.81236 205.95319 347.55043 206.70403 L 347.3049 207.40786 C 345.82107 211.66146 345.0633 216.13436 345.0633 220.63934 L 345.0633 227.44496 C 345.0633 227.44496 347.96495 245.59328 348.37948 245.59328 C 348.794 245.59328 348.794 270.8713 348.794 270.8713 C 348.794 270.8713 347.96495 279.94546 347.1359 280.59362 C 346.30687 281.24177 339.26 296.79748 339.26 297.44563 C 339.26 298.0938 331.38407 309.76056 330.96955 309.76056 C 330.55503 309.76056 325.9953 309.76056 325.9953 309.76056 L 322.47185 308.14018 C 320.3008 307.14174 318.85098 305.03443 318.69457 302.64993 L 317.29032 281.24177 C 317.29032 281.24177 316.46128 268.92684 316.46128 268.2787 C 316.46128 267.63053 311.90153 244.94513 311.90153 244.94513 L 307.46494 225.7346 C 307.24385 224.77728 306.28858 224.18046 305.33127 224.40154 C 304.8779 224.50625 304.48358 224.78442 304.23288 225.17642 L 301.953 228.74127 C 301.953 228.74127 297.39326 246.8896 296.97874 246.8896 C 296.56422 246.8896 294.90613 259.20453 294.90613 259.85268 C 294.90613 260.50083 294.90613 281.88993 294.90613 281.88993 L 293.04078 288.37147 C 291.80124 292.6785 290.07568 296.83054 287.8974 300.74745 L 285.01953 305.9223 C 283.62952 308.4218 281.51143 310.4388 278.94703 311.70503 L 275.00907 313.6495 C 275.00907 313.6495 268.79124 297.44563 267.9622 297.44563 C 267.13315 297.44563 258.4282 279.94546 258.4282 279.94546 L 255.94106 273.46392 C 254.28847 269.15724 253.13764 264.67447 252.51132 260.10432 L 252.17677 257.66316 C 251.37205 251.79117 249.99495 246.01195 248.06514 240.40805 L 248.01254 240.2553 C 246.12628 234.7779 245.16348 229.02506 245.16348 223.23196 L 245.16348 218.59608 C 245.16348 217.65834 244.4033 216.89815 243.46555 216.89815 C 243.0137 216.89815 242.5805 217.07825 242.26183 217.39857 L 239.36017 220.31527 C 239.36017 220.31527 238.53113 233.9265 238.1166 234.57466 C 237.70209 235.22282 231.06973 256.6119 230.6552 256.6119 C 230.2407 256.6119 202.27102 273 202.27102 273 Z" stroke="black" stroke-linecap="round" stroke-linejoin="bevel" stroke-width=".25"/>
      </g>
      <g id="Graphic_6">
        <rect x="517" y="464.55554" width="244.57652" height="230" fill="#ffff40"/>
        <rect x="517" y="464.55554" width="244.57652" height="230" stroke="black" stroke-linecap="round" stroke-linejoin="round" stroke-width="6"/>
      </g>
      <g id="Graphic_13">
        <rect x="445.98443" y="133" width="216.42681" height="230" fill="#ffffc0"/>
        <rect x="445.98443" y="133" width="216.42681" height="230" stroke="black" stroke-linecap="round" stroke-linejoin="round" stroke-width="6"/>
      </g>
      <g id="Graphic_9">
        <path d="M 652.93804 167 L 642.8478 224.03758 C 642.8478 224.03758 630.04094 263.575 630.04094 264.22315 C 630.04094 264.8713 619.4077 282.5384 619.4077 282.5384 L 610.2485 254.50083 C 610.2485 254.50083 601.32254 234.40805 600.5464 219.5005 C 599.7702 204.59295 586.96334 187.09278 586.96334 187.09278 C 586.96334 187.09278 578.03735 206.53741 578.03735 209.13003 C 578.03735 211.72265 578.8135 230.51912 578.03735 238.29698 C 577.2612 246.07483 572.21605 264.22315 570.6637 264.8713 C 569.11136 265.51946 556.6926 271.35285 556.3045 270.7047 C 555.9164 270.05654 553.1998 273.2973 552.8117 266.1676 C 552.42364 259.0379 547.55694 243.83472 547.55694 242.53842 C 547.55694 241.2421 547.7666 168.2963 537.67636 189.6854 C 527.5861 211.0745 526.42185 218.85235 526.42185 218.85235 C 526.42185 218.85235 531.0789 253.85268 530.3027 270.7047 C 529.52654 287.5567 508.95796 311.5384 508.5699 311.5384 C 508.1818 311.5384 496.5392 309.59395 496.1511 308.29764 C 495.763 307.00134 487.2251 259.68607 487.2251 251.26006 C 487.2251 242.83406 481.4038 209.77819 481.01573 199.40772 C 480.62765 189.03725 476.3587 189.03725 474.80635 189.03725 C 473.254 189.03725 466.26845 213.6671 465.88036 213.6671 C 465.4923 213.6671 460.44715 223.38943 460.05906 223.38943 C 459.671 223.38943 446.8641 226.6302 446.8641 226.6302 L 443.7494 225.02959 C 443.2084 224.75157 442.9952 224.08763 443.2732 223.54663 C 443.3801 223.33865 443.5504 223.1701 443.75943 223.06535 L 443.75943 223.06535 C 445.03545 222.42601 446.443 222.09312 447.87023 222.09312 L 454.62585 222.09312 C 454.62585 222.09312 459.671 214.31527 460.05906 214.31527 C 460.44715 214.31527 464.328 201.35218 464.328 201.35218 L 467.32984 192.1609 C 468.40116 188.8806 470.5594 186.0639 473.44805 184.1761 L 477.91104 181.2594 C 477.91104 181.2594 485.67277 188.3891 485.67277 189.03725 C 485.67277 189.6854 486.06086 214.31527 486.06086 214.31527 L 491.106 243.4822 C 491.106 243.4822 493.8226 260.33422 494.2107 261.63053 C 494.59876 262.92684 498.4796 288.20486 498.4796 288.853 C 498.4796 289.50117 503.13666 297.27902 503.52475 297.92717 C 503.91283 298.57533 510.8984 296.63087 510.8984 296.63087 L 515.5554 290.79748 C 518.6351 286.93988 520.99736 282.5608 522.5298 277.86858 L 522.75665 277.17403 C 524.1564 272.8881 524.8695 268.40778 524.8695 263.89907 L 524.8695 257.09345 C 524.8695 257.09345 522.1529 238.94513 521.7648 238.94513 C 521.3767 238.94513 521.3767 213.6671 521.3767 213.6671 C 521.3767 213.6671 522.1529 204.59295 522.9291 203.9448 C 523.70524 203.29664 530.3027 187.74094 530.3027 187.09278 C 530.3027 186.44463 537.67636 174.77785 538.06444 174.77785 C 538.4525 174.77785 542.7215 174.77785 542.7215 174.77785 L 546.0202 176.39824 C 548.0597 177.40005 549.40495 179.41898 549.5442 181.68694 L 550.8713 203.29664 C 550.8713 203.29664 551.6475 215.61157 551.6475 216.25973 C 551.6475 216.90788 555.9164 239.59328 555.9164 239.59328 L 560.08345 258.86567 C 560.275 259.7517 561.1486 260.3147 562.03465 260.1231 C 562.4785 260.02714 562.86275 259.7516 563.096 259.362 L 565.2305 255.79714 C 565.2305 255.79714 569.49945 237.64882 569.88754 237.64882 C 570.2756 237.64882 571.828 225.3339 571.828 224.68574 C 571.828 224.03758 571.828 202.6485 571.828 202.6485 L 573.57436 196.16694 C 574.7352 191.85864 576.3602 187.68904 578.42075 183.73139 L 581.1576 178.47492 C 582.411 176.06755 584.3686 174.09954 586.7693 172.83339 L 590.4561 170.88893 C 590.4561 170.88893 596.2774 187.09278 597.0536 187.09278 C 597.82976 187.09278 605.9796 204.59295 605.9796 204.59295 L 608.3081 211.0745 C 609.85585 215.38275 610.9305 219.84654 611.5131 224.38716 L 611.8385 226.92323 C 612.588 232.76487 613.8745 238.52497 615.68174 244.13037 L 615.71335 244.22842 C 617.4924 249.7465 618.39835 255.50867 618.39835 261.30645 L 618.39835 266.07068 C 618.39835 266.93705 619.1007 267.63938 619.96704 267.63938 C 620.4024 267.63938 620.8182 267.45844 621.11495 267.13984 L 623.83156 264.22315 C 623.83156 264.22315 624.6077 250.6119 624.9958 249.96375 C 625.3839 249.3156 631.5933 227.9265 631.9814 227.9265 C 632.36946 227.9265 652.93804 167 652.93804 167 Z" fill="black"/>
        <path d="M 652.93804 167 L 642.8478 224.03758 C 642.8478 224.03758 630.04094 263.575 630.04094 264.22315 C 630.04094 264.8713 619.4077 282.5384 619.4077 282.5384 L 610.2485 254.50083 C 610.2485 254.50083 601.32254 234.40805 600.5464 219.5005 C 599.7702 204.59295 586.96334 187.09278 586.96334 187.09278 C 586.96334 187.09278 578.03735 206.53741 578.03735 209.13003 C 578.03735 211.72265 578.8135 230.51912 578.03735 238.29698 C 577.2612 246.07483 572.21605 264.22315 570.6637 264.8713 C 569.11136 265.51946 556.6926 271.35285 556.3045 270.7047 C 555.9164 270.05654 553.1998 273.2973 552.8117 266.1676 C 552.42364 259.0379 547.55694 243.83472 547.55694 242.53842 C 547.55694 241.2421 547.7666 168.2963 537.67636 189.6854 C 527.5861 211.0745 526.42185 218.85235 526.42185 218.85235 C 526.42185 218.85235 531.0789 253.85268 530.3027 270.7047 C 529.52654 287.5567 508.95796 311.5384 508.5699 311.5384 C 508.1818 311.5384 496.5392 309.59395 496.1511 308.29764 C 495.763 307.00134 487.2251 259.68607 487.2251 251.26006 C 487.2251 242.83406 481.4038 209.77819 481.01573 199.40772 C 480.62765 189.03725 476.3587 189.03725 474.80635 189.03725 C 473.254 189.03725 466.26845 213.6671 465.88036 213.6671 C 465.4923 213.6671 460.44715 223.38943 460.05906 223.38943 C 459.671 223.38943 446.8641 226.6302 446.8641 226.6302 L 443.7494 225.02959 C 443.2084 224.75157 442.9952 224.08763 443.2732 223.54663 C 443.3801 223.33865 443.5504 223.1701 443.75943 223.06535 L 443.75943 223.06535 C 445.03545 222.42601 446.443 222.09312 447.87023 222.09312 L 454.62585 222.09312 C 454.62585 222.09312 459.671 214.31527 460.05906 214.31527 C 460.44715 214.31527 464.328 201.35218 464.328 201.35218 L 467.32984 192.1609 C 468.40116 188.8806 470.5594 186.0639 473.44805 184.1761 L 477.91104 181.2594 C 477.91104 181.2594 485.67277 188.3891 485.67277 189.03725 C 485.67277 189.6854 486.06086 214.31527 486.06086 214.31527 L 491.106 243.4822 C 491.106 243.4822 493.8226 260.33422 494.2107 261.63053 C 494.59876 262.92684 498.4796 288.20486 498.4796 288.853 C 498.4796 289.50117 503.13666 297.27902 503.52475 297.92717 C 503.91283 298.57533 510.8984 296.63087 510.8984 296.63087 L 515.5554 290.79748 C 518.6351 286.93988 520.99736 282.5608 522.5298 277.86858 L 522.75665 277.17403 C 524.1564 272.8881 524.8695 268.40778 524.8695 263.89907 L 524.8695 257.09345 C 524.8695 257.09345 522.1529 238.94513 521.7648 238.94513 C 521.3767 238.94513 521.3767 213.6671 521.3767 213.6671 C 521.3767 213.6671 522.1529 204.59295 522.9291 203.9448 C 523.70524 203.29664 530.3027 187.74094 530.3027 187.09278 C 530.3027 186.44463 537.67636 174.77785 538.06444 174.77785 C 538.4525 174.77785 542.7215 174.77785 542.7215 174.77785 L 546.0202 176.39824 C 548.0597 177.40005 549.40495 179.41898 549.5442 181.68694 L 550.8713 203.29664 C 550.8713 203.29664 551.6475 215.61157 551.6475 216.25973 C 551.6475 216.90788 555.9164 239.59328 555.9164 239.59328 L 560.08345 258.86567 C 560.275 259.7517 561.1486 260.3147 562.03465 260.1231 C 562.4785 260.02714 562.86275 259.7516 563.096 259.362 L 565.2305 255.79714 C 565.2305 255.79714 569.49945 237.64882 569.88754 237.64882 C 570.2756 237.64882 571.828 225.3339 571.828 224.68574 C 571.828 224.03758 571.828 202.6485 571.828 202.6485 L 573.57436 196.16694 C 574.7352 191.85864 576.3602 187.68904 578.42075 183.73139 L 581.1576 178.47492 C 582.411 176.06755 584.3686 174.09954 586.7693 172.83339 L 590.4561 170.88893 C 590.4561 170.88893 596.2774 187.09278 597.0536 187.09278 C 597.82976 187.09278 605.9796 204.59295 605.9796 204.59295 L 608.3081 211.0745 C 609.85585 215.38275 610.9305 219.84654 611.5131 224.38716 L 611.8385 226.92323 C 612.588 232.76487 613.8745 238.52497 615.68174 244.13037 L 615.71335 244.22842 C 617.4924 249.7465 618.39835 255.50867 618.39835 261.30645 L 618.39835 266.07068 C 618.39835 266.93705 619.1007 267.63938 619.96704 267.63938 C 620.4024 267.63938 620.8182 267.45844 621.11495 267.13984 L 623.83156 264.22315 C 623.83156 264.22315 624.6077 250.6119 624.9958 249.96375 C 625.3839 249.3156 631.5933 227.9265 631.9814 227.9265 C 632.36946 227.9265 652.93804 167 652.93804 167 Z" stroke="black" stroke-linecap="round" stroke-linejoin="bevel" stroke-width=".25"/>
      </g>
      <g id="Graphic_10">
        <path d="M 517 612.2308 L 533.7776 599.7316 C 533.7776 599.7316 547.4568 560.1942 547.4568 559.54606 C 547.4568 558.8979 558.81436 541.2308 558.81436 541.2308 L 568.5974 569.2684 C 568.5974 569.2684 578.1314 589.36116 578.9605 604.2687 C 579.7895 619.17626 593.46875 636.6764 593.46875 636.6764 C 593.46875 636.6764 603.00276 617.2318 603.00276 614.6392 C 603.00276 612.04656 602.1737 593.2501 603.00276 585.4722 C 603.8318 577.6944 609.2206 559.54606 610.8787 558.8979 C 612.5368 558.24975 625.8015 552.41636 626.216 553.0645 C 626.6305 553.7127 629.5322 550.4719 629.9467 557.6016 C 630.3612 564.7313 635.5594 579.9345 635.5594 581.2308 C 635.5594 582.5271 635.3355 655.4729 646.11305 634.0838 C 656.8906 612.6947 658.1342 604.91686 658.1342 604.91686 C 658.1342 604.91686 653.1599 569.9165 653.989 553.0645 C 654.818 536.2125 660 527.2308 660 527.2308 L 673 551.2308 C 673 551.2308 671.5855 506.2308 672 506.2308 C 672.4145 506.2308 690.0524 514.17526 690.4669 515.47156 C 690.8814 516.7679 700.0009 564.08314 700.0009 572.50914 C 700.0009 580.93515 706.21875 613.991 706.6333 624.3615 C 707.0478 634.73196 711.6075 634.73196 713.2656 634.73196 C 714.9237 634.73196 722.3851 610.1021 722.7996 610.1021 C 723.21415 610.1021 728.6029 600.3798 729.0175 600.3798 C 729.432 600.3798 743.1112 597.139 743.1112 597.139 L 757.5556 562.1849 C 757.7004 561.8345 758.1019 561.6678 758.4523 561.8126 C 758.7938 561.9537 758.9623 562.33974 758.8337 562.6861 L 746.0143 597.2073 C 745.0167 599.89365 742.4534 601.6761 739.5878 601.6761 L 734.8208 601.6761 C 734.8208 601.6761 729.432 609.45394 729.0175 609.45394 C 728.6029 609.45394 724.4577 622.417 724.4577 622.417 L 721.3242 631.39976 C 720.13385 634.812 717.7991 637.707 714.71645 639.5931 L 709.94945 642.5098 C 709.94945 642.5098 701.659 635.3801 701.659 634.73196 C 701.659 634.0838 701.2445 609.45394 701.2445 609.45394 L 695.8557 580.287 C 695.8557 580.287 692.95404 563.435 692.5395 562.1387 C 692.125 560.8424 687.9798 535.56435 687.9798 534.9162 C 687.9798 534.26804 683.0055 526.4902 682.591 525.84203 C 682.1765 525.1939 675 570.2308 675 570.2308 L 667.1046 545.9851 C 666.6692 544.64795 665.2323 543.917 663.89514 544.3524 C 663.139 544.5986 662.5413 545.184 662.2794 545.9348 L 662.0339 546.63865 C 660.55005 550.89226 659.7923 555.36515 659.7923 559.87014 L 659.7923 566.67576 C 659.7923 566.67576 662.6939 584.8241 663.10846 584.8241 C 663.523 584.8241 663.523 610.1021 663.523 610.1021 C 663.523 610.1021 662.6939 619.17626 661.8649 619.8244 C 661.03585 620.4726 653.989 636.0283 653.989 636.6764 C 653.989 637.3246 646.11305 648.99136 645.6985 648.99136 C 645.284 648.99136 640.7243 648.99136 640.7243 648.99136 L 637.2008 647.371 C 635.0298 646.3725 633.57996 644.2652 633.42355 641.8807 L 632.0193 620.4726 C 632.0193 620.4726 631.19026 608.1576 631.19026 607.5095 C 631.19026 606.8613 626.6305 584.1759 626.6305 584.1759 L 622.1939 564.9654 C 621.9728 564.0081 621.01756 563.41125 620.06025 563.63234 C 619.6069 563.73704 619.21256 564.0152 618.96186 564.4072 L 616.682 567.97206 C 616.682 567.97206 612.12224 586.1204 611.7077 586.1204 C 611.2932 586.1204 609.6351 598.4353 609.6351 599.0835 C 609.6351 599.7316 609.6351 621.1207 609.6351 621.1207 L 607.76976 627.6023 C 606.5302 631.9093 604.80466 636.0613 602.6264 639.97824 L 599.7485 645.1531 C 598.3585 647.6526 596.2404 649.6696 593.676 650.9358 L 589.73805 652.8803 C 589.73805 652.8803 583.5202 636.6764 582.6912 636.6764 C 581.8621 636.6764 573.1572 619.17626 573.1572 619.17626 L 570.67004 612.6947 C 569.01745 608.388 567.8666 603.90526 567.2403 599.3351 L 566.90575 596.89396 C 566.101 591.02196 564.7239 585.24275 562.7941 579.63884 L 562.7415 579.4861 C 560.85527 574.0087 559.89246 568.25586 559.89246 562.46275 L 559.89246 557.8269 C 559.89246 556.88913 559.1323 556.12894 558.1945 556.12894 C 557.7427 556.12894 557.3095 556.30904 556.9908 556.62936 L 554.08915 559.54606 C 554.08915 559.54606 553.2601 573.1573 552.8456 573.80545 C 552.43107 574.4536 545.7987 595.8427 545.3842 595.8427 C 544.9697 595.8427 517 612.2308 517 612.2308 Z" fill="black"/>
        <path d="M 517 612.2308 L 533.7776 599.7316 C 533.7776 599.7316 547.4568 560.1942 547.4568 559.54606 C 547.4568 558.8979 558.81436 541.2308 558.81436 541.2308 L 568.5974 569.2684 C 568.5974 569.2684 578.1314 589.36116 578.9605 604.2687 C 579.7895 619.17626 593.46875 636.6764 593.46875 636.6764 C 593.46875 636.6764 603.00276 617.2318 603.00276 614.6392 C 603.00276 612.04656 602.1737 593.2501 603.00276 585.4722 C 603.8318 577.6944 609.2206 559.54606 610.8787 558.8979 C 612.5368 558.24975 625.8015 552.41636 626.216 553.0645 C 626.6305 553.7127 629.5322 550.4719 629.9467 557.6016 C 630.3612 564.7313 635.5594 579.9345 635.5594 581.2308 C 635.5594 582.5271 635.3355 655.4729 646.11305 634.0838 C 656.8906 612.6947 658.1342 604.91686 658.1342 604.91686 C 658.1342 604.91686 653.1599 569.9165 653.989 553.0645 C 654.818 536.2125 660 527.2308 660 527.2308 L 673 551.2308 C 673 551.2308 671.5855 506.2308 672 506.2308 C 672.4145 506.2308 690.0524 514.17526 690.4669 515.47156 C 690.8814 516.7679 700.0009 564.08314 700.0009 572.50914 C 700.0009 580.93515 706.21875 613.991 706.6333 624.3615 C 707.0478 634.73196 711.6075 634.73196 713.2656 634.73196 C 714.9237 634.73196 722.3851 610.1021 722.7996 610.1021 C 723.21415 610.1021 728.6029 600.3798 729.0175 600.3798 C 729.432 600.3798 743.1112 597.139 743.1112 597.139 L 757.5556 562.1849 C 757.7004 561.8345 758.1019 561.6678 758.4523 561.8126 C 758.7938 561.9537 758.9623 562.33974 758.8337 562.6861 L 746.0143 597.2073 C 745.0167 599.89365 742.4534 601.6761 739.5878 601.6761 L 734.8208 601.6761 C 734.8208 601.6761 729.432 609.45394 729.0175 609.45394 C 728.6029 609.45394 724.4577 622.417 724.4577 622.417 L 721.3242 631.39976 C 720.13385 634.812 717.7991 637.707 714.71645 639.5931 L 709.94945 642.5098 C 709.94945 642.5098 701.659 635.3801 701.659 634.73196 C 701.659 634.0838 701.2445 609.45394 701.2445 609.45394 L 695.8557 580.287 C 695.8557 580.287 692.95404 563.435 692.5395 562.1387 C 692.125 560.8424 687.9798 535.56435 687.9798 534.9162 C 687.9798 534.26804 683.0055 526.4902 682.591 525.84203 C 682.1765 525.1939 675 570.2308 675 570.2308 L 667.1046 545.9851 C 666.6692 544.64795 665.2323 543.917 663.89514 544.3524 C 663.139 544.5986 662.5413 545.184 662.2794 545.9348 L 662.0339 546.63865 C 660.55005 550.89226 659.7923 555.36515 659.7923 559.87014 L 659.7923 566.67576 C 659.7923 566.67576 662.6939 584.8241 663.10846 584.8241 C 663.523 584.8241 663.523 610.1021 663.523 610.1021 C 663.523 610.1021 662.6939 619.17626 661.8649 619.8244 C 661.03585 620.4726 653.989 636.0283 653.989 636.6764 C 653.989 637.3246 646.11305 648.99136 645.6985 648.99136 C 645.284 648.99136 640.7243 648.99136 640.7243 648.99136 L 637.2008 647.371 C 635.0298 646.3725 633.57996 644.2652 633.42355 641.8807 L 632.0193 620.4726 C 632.0193 620.4726 631.19026 608.1576 631.19026 607.5095 C 631.19026 606.8613 626.6305 584.1759 626.6305 584.1759 L 622.1939 564.9654 C 621.9728 564.0081 621.01756 563.41125 620.06025 563.63234 C 619.6069 563.73704 619.21256 564.0152 618.96186 564.4072 L 616.682 567.97206 C 616.682 567.97206 612.12224 586.1204 611.7077 586.1204 C 611.2932 586.1204 609.6351 598.4353 609.6351 599.0835 C 609.6351 599.7316 609.6351 621.1207 609.6351 621.1207 L 607.76976 627.6023 C 606.5302 631.9093 604.80466 636.0613 602.6264 639.97824 L 599.7485 645.1531 C 598.3585 647.6526 596.2404 649.6696 593.676 650.9358 L 589.73805 652.8803 C 589.73805 652.8803 583.5202 636.6764 582.6912 636.6764 C 581.8621 636.6764 573.1572 619.17626 573.1572 619.17626 L 570.67004 612.6947 C 569.01745 608.388 567.8666 603.90526 567.2403 599.3351 L 566.90575 596.89396 C 566.101 591.02196 564.7239 585.24275 562.7941 579.63884 L 562.7415 579.4861 C 560.85527 574.0087 559.89246 568.25586 559.89246 562.46275 L 559.89246 557.8269 C 559.89246 556.88913 559.1323 556.12894 558.1945 556.12894 C 557.7427 556.12894 557.3095 556.30904 556.9908 556.62936 L 554.08915 559.54606 C 554.08915 559.54606 553.2601 573.1573 552.8456 573.80545 C 552.43107 574.4536 545.7987 595.8427 545.3842 595.8427 C 544.9697 595.8427 517 612.2308 517 612.2308 Z" stroke="black" stroke-linecap="round" stroke-linejoin="bevel" stroke-width=".25"/>
      </g>
      <g id="Graphic_11">
        <path d="M 352.9268 508.34187 L 342.83657 565.37945 C 342.83657 565.37945 330.0297 604.91686 330.0297 605.565 C 330.0297 606.2132 319.39646 623.8803 319.39646 623.8803 L 310.2373 595.8427 C 310.2373 595.8427 301.3113 575.7499 300.53514 560.8424 C 299.75897 545.9348 286.9521 528.43465 286.9521 528.43465 C 286.9521 528.43465 278.02612 547.8793 278.02612 550.4719 C 278.02612 553.0645 278.8023 571.861 278.02612 579.63884 C 277.24995 587.4167 272.20483 605.565 270.65248 606.2132 C 269.10013 606.8613 256.68137 612.6947 256.29328 612.04656 C 255.9052 611.3984 253.1886 614.6392 252.8005 607.5095 C 252.41242 600.3798 247.5457 585.1766 247.5457 583.8803 C 247.5457 582.584 247.75538 509.6382 237.66513 531.02727 C 227.57488 552.41636 226.41062 560.1942 226.41062 560.1942 C 226.41062 560.1942 231.06766 595.19455 230.29149 612.04656 C 229.5153 628.8986 208.94673 652.8803 208.55864 652.8803 C 208.17056 652.8803 196.52796 650.9358 196.13988 649.6395 C 195.7518 648.3432 187.21389 601.0279 187.21389 592.6019 C 187.21389 584.1759 181.3926 551.12005 181.0045 540.7496 C 180.61642 530.3791 176.34746 530.3791 174.79512 530.3791 C 173.24277 530.3791 166.25722 555.009 165.86913 555.009 C 165.48104 555.009 160.43592 564.7313 160.04783 564.7313 C 159.65975 564.7313 146.8529 567.97206 146.8529 567.97206 L 143.73817 566.37145 C 143.19716 566.09344 142.98397 565.4295 143.26198 564.8885 C 143.36886 564.6805 143.53915 564.51196 143.7482 564.4072 L 143.7482 564.4072 C 145.02422 563.7679 146.43178 563.435 147.859 563.435 L 154.61462 563.435 C 154.61462 563.435 159.65975 555.6571 160.04783 555.6571 C 160.43592 555.6571 164.31678 542.69405 164.31678 542.69405 L 167.3186 533.50276 C 168.38993 530.22247 170.54818 527.40576 173.43682 525.51796 L 177.89981 522.60126 C 177.89981 522.60126 185.66154 529.73096 185.66154 530.3791 C 185.66154 531.02727 186.04963 555.6571 186.04963 555.6571 L 191.09475 584.8241 C 191.09475 584.8241 193.81136 601.6761 194.19944 602.9724 C 194.58753 604.2687 198.4684 629.5467 198.4684 630.1949 C 198.4684 630.843 203.12543 638.6209 203.51352 639.26904 C 203.9016 639.9172 210.88716 637.9727 210.88716 637.9727 L 215.5442 632.13934 C 218.62388 628.28175 220.98613 623.9027 222.5186 619.21044 L 222.74543 618.5159 C 224.14518 614.23 224.85828 609.74964 224.85828 605.24094 L 224.85828 598.4353 C 224.85828 598.4353 222.14167 580.287 221.75358 580.287 C 221.3655 580.287 221.3655 555.009 221.3655 555.009 C 221.3655 555.009 222.14167 545.9348 222.91784 545.28666 C 223.69402 544.6385 230.29149 529.0828 230.29149 528.43465 C 230.29149 527.7865 237.66513 516.1197 238.05322 516.1197 C 238.4413 516.1197 242.71025 516.1197 242.71025 516.1197 L 246.009 517.7401 C 248.04846 518.7419 249.39372 520.76084 249.533 523.0288 L 250.86007 544.6385 C 250.86007 544.6385 251.63624 556.95344 251.63624 557.6016 C 251.63624 558.24975 255.9052 580.93515 255.9052 580.93515 L 260.07222 600.20754 C 260.2638 601.0936 261.13738 601.65655 262.02342 601.465 C 262.46726 601.369 262.85152 601.09346 263.0848 600.70386 L 265.21927 597.139 C 265.21927 597.139 269.48822 578.9907 269.8763 578.9907 C 270.2644 578.9907 271.81674 566.67576 271.81674 566.0276 C 271.81674 565.37945 271.81674 543.99035 271.81674 543.99035 L 273.56313 537.5088 C 274.72396 533.2005 276.34894 529.0309 278.40952 525.07326 L 281.14634 519.8168 C 282.39976 517.4094 284.35737 515.4414 286.75807 514.17526 L 290.4449 512.2308 C 290.4449 512.2308 296.2662 528.43465 297.04236 528.43465 C 297.81853 528.43465 305.96835 545.9348 305.96835 545.9348 L 308.29687 552.41636 C 309.84462 556.7246 310.91927 561.1884 311.50185 565.729 L 311.82724 568.2651 C 312.57676 574.10674 313.8633 579.8668 315.6705 585.4722 L 315.70213 585.5703 C 317.4812 591.08836 318.3871 596.85054 318.3871 602.6483 L 318.3871 607.41255 C 318.3871 608.2789 319.08945 608.98124 319.9558 608.98124 C 320.3912 608.98124 320.807 608.8003 321.10372 608.4817 L 323.82033 605.565 C 323.82033 605.565 324.5965 591.9538 324.9846 591.3056 C 325.37267 590.6575 331.58206 569.2684 331.97014 569.2684 C 332.35823 569.2684 352.9268 508.34187 352.9268 508.34187 Z" fill="black"/>
        <path d="M 352.9268 508.34187 L 342.83657 565.37945 C 342.83657 565.37945 330.0297 604.91686 330.0297 605.565 C 330.0297 606.2132 319.39646 623.8803 319.39646 623.8803 L 310.2373 595.8427 C 310.2373 595.8427 301.3113 575.7499 300.53514 560.8424 C 299.75897 545.9348 286.9521 528.43465 286.9521 528.43465 C 286.9521 528.43465 278.02612 547.8793 278.02612 550.4719 C 278.02612 553.0645 278.8023 571.861 278.02612 579.63884 C 277.24995 587.4167 272.20483 605.565 270.65248 606.2132 C 269.10013 606.8613 256.68137 612.6947 256.29328 612.04656 C 255.9052 611.3984 253.1886 614.6392 252.8005 607.5095 C 252.41242 600.3798 247.5457 585.1766 247.5457 583.8803 C 247.5457 582.584 247.75538 509.6382 237.66513 531.02727 C 227.57488 552.41636 226.41062 560.1942 226.41062 560.1942 C 226.41062 560.1942 231.06766 595.19455 230.29149 612.04656 C 229.5153 628.8986 208.94673 652.8803 208.55864 652.8803 C 208.17056 652.8803 196.52796 650.9358 196.13988 649.6395 C 195.7518 648.3432 187.21389 601.0279 187.21389 592.6019 C 187.21389 584.1759 181.3926 551.12005 181.0045 540.7496 C 180.61642 530.3791 176.34746 530.3791 174.79512 530.3791 C 173.24277 530.3791 166.25722 555.009 165.86913 555.009 C 165.48104 555.009 160.43592 564.7313 160.04783 564.7313 C 159.65975 564.7313 146.8529 567.97206 146.8529 567.97206 L 143.73817 566.37145 C 143.19716 566.09344 142.98397 565.4295 143.26198 564.8885 C 143.36886 564.6805 143.53915 564.51196 143.7482 564.4072 L 143.7482 564.4072 C 145.02422 563.7679 146.43178 563.435 147.859 563.435 L 154.61462 563.435 C 154.61462 563.435 159.65975 555.6571 160.04783 555.6571 C 160.43592 555.6571 164.31678 542.69405 164.31678 542.69405 L 167.3186 533.50276 C 168.38993 530.22247 170.54818 527.40576 173.43682 525.51796 L 177.89981 522.60126 C 177.89981 522.60126 185.66154 529.73096 185.66154 530.3791 C 185.66154 531.02727 186.04963 555.6571 186.04963 555.6571 L 191.09475 584.8241 C 191.09475 584.8241 193.81136 601.6761 194.19944 602.9724 C 194.58753 604.2687 198.4684 629.5467 198.4684 630.1949 C 198.4684 630.843 203.12543 638.6209 203.51352 639.26904 C 203.9016 639.9172 210.88716 637.9727 210.88716 637.9727 L 215.5442 632.13934 C 218.62388 628.28175 220.98613 623.9027 222.5186 619.21044 L 222.74543 618.5159 C 224.14518 614.23 224.85828 609.74964 224.85828 605.24094 L 224.85828 598.4353 C 224.85828 598.4353 222.14167 580.287 221.75358 580.287 C 221.3655 580.287 221.3655 555.009 221.3655 555.009 C 221.3655 555.009 222.14167 545.9348 222.91784 545.28666 C 223.69402 544.6385 230.29149 529.0828 230.29149 528.43465 C 230.29149 527.7865 237.66513 516.1197 238.05322 516.1197 C 238.4413 516.1197 242.71025 516.1197 242.71025 516.1197 L 246.009 517.7401 C 248.04846 518.7419 249.39372 520.76084 249.533 523.0288 L 250.86007 544.6385 C 250.86007 544.6385 251.63624 556.95344 251.63624 557.6016 C 251.63624 558.24975 255.9052 580.93515 255.9052 580.93515 L 260.07222 600.20754 C 260.2638 601.0936 261.13738 601.65655 262.02342 601.465 C 262.46726 601.369 262.85152 601.09346 263.0848 600.70386 L 265.21927 597.139 C 265.21927 597.139 269.48822 578.9907 269.8763 578.9907 C 270.2644 578.9907 271.81674 566.67576 271.81674 566.0276 C 271.81674 565.37945 271.81674 543.99035 271.81674 543.99035 L 273.56313 537.5088 C 274.72396 533.2005 276.34894 529.0309 278.40952 525.07326 L 281.14634 519.8168 C 282.39976 517.4094 284.35737 515.4414 286.75807 514.17526 L 290.4449 512.2308 C 290.4449 512.2308 296.2662 528.43465 297.04236 528.43465 C 297.81853 528.43465 305.96835 545.9348 305.96835 545.9348 L 308.29687 552.41636 C 309.84462 556.7246 310.91927 561.1884 311.50185 565.729 L 311.82724 568.2651 C 312.57676 574.10674 313.8633 579.8668 315.6705 585.4722 L 315.70213 585.5703 C 317.4812 591.08836 318.3871 596.85054 318.3871 602.6483 L 318.3871 607.41255 C 318.3871 608.2789 319.08945 608.98124 319.9558 608.98124 C 320.3912 608.98124 320.807 608.8003 321.10372 608.4817 L 323.82033 605.565 C 323.82033 605.565 324.5965 591.9538 324.9846 591.3056 C 325.37267 590.6575 331.58206 569.2684 331.97014 569.2684 C 332.35823 569.2684 352.9268 508.34187 352.9268 508.34187 Z" stroke="black" stroke-linecap="round" stroke-linejoin="bevel" stroke-width=".25"/>
      </g>
      <g id="Line_14">
        <line x1="554" y1="365" x2="377.85356" y2="487.79026" marker-end="url(#FilledArrow_Marker)" stroke="black" stroke-linecap="round" stroke-linejoin="round" stroke-width="6"/>
      </g>
      <g id="Line_16">
        <line x1="262.65466" y1="365.63383" x2="492.3487" y2="496.09627" marker-end="url(#FilledArrow_Marker)" stroke="black" stroke-linecap="round" stroke-linejoin="round" stroke-width="6"/>
      </g>
    </g>
  </g>
</svg>
