<?xml version="1.0" encoding="UTF-8" standalone="no"?>
<!DOCTYPE svg PUBLIC "-//W3C//DTD SVG 1.1//EN" "http://www.w3.org/Graphics/SVG/1.1/DTD/svg11.dtd">
<svg xmlns="http://www.w3.org/2000/svg" xmlns:xl="http://www.w3.org/1999/xlink" xmlns:dc="http://purl.org/dc/elements/1.1/" version="1.1" viewBox="0 0 850.394 850.394" width="850.394" height="850.394">
  <defs/>
  <metadata> Produced by OmniGraffle 7.9.4 
    <dc:date>2019-05-01 00:03:06 +0000</dc:date>
  </metadata>
  <g id="effect" stroke-opacity="1" fill-opacity="1" fill="none" stroke="none" stroke-dasharray="none">
    <title>effect</title>
    <g id="effect: Layer 1">
      <title>Layer 1</title>
      <g id="Graphic_63">
        <path d="M 355 358 C 355 357 284 247 284 247 L 337 355 L 289 310 L 332 365 L 256 389 C 256 389 341 378 340 378 C 339 378 259 429 259 430 C 259 431 369 387 369 387 C 369 387 355 359 355 358 Z" fill="#ffffc0"/>
        <path d="M 355 358 C 355 357 284 247 284 247 L 337 355 L 289 310 L 332 365 L 256 389 C 256 389 341 378 340 378 C 339 378 259 429 259 430 C 259 431 369 387 369 387 C 369 387 355 359 355 358 Z" stroke="#7d7d7d" stroke-linecap="round" stroke-linejoin="round" stroke-width="1"/>
      </g>
      <g id="Graphic_53">
        <path d="M 621.4404 331.51252 L 625.4709 294.8713 C 625.8597 291.33717 629.0398 288.78734 632.5739 289.1761 C 635.4598 289.49354 637.7761 291.70338 638.22894 294.57115 L 643.4945 327.9199 C 644.90544 336.85565 650.3359 344.65103 658.2289 349.07115 L 658.2289 349.07115 C 665.1553 352.94993 673.9132 350.5333 677.8703 343.65138 L 734.4026 245.3344 C 735.59985 243.25217 738.2584 242.5348 740.3406 243.73206 C 742.2013 244.80196 743.0032 247.06932 742.2289 249.07115 L 728.4225 284.7659 C 724.0186 296.15162 722.2788 308.3942 723.3363 320.55605 L 724.7289 336.57115 C 725.3224 343.3964 731.3365 348.4482 738.1617 347.8547 C 741.8588 347.5332 745.2178 345.5734 747.31685 342.51307 L 783.5276 289.71982 C 788.1111 283.03736 797.2439 281.3358 803.9264 285.9193 C 809.1361 289.4926 811.4737 295.99945 809.7289 302.07115 L 794.5421 354.92145 C 793.4268 358.8027 795.669 362.85323 799.5503 363.96854 C 802.3589 364.77562 805.3784 363.8329 807.2289 361.57115 L 809.495 358.8015 C 811.3804 356.4971 814.7769 356.15747 817.0812 358.04286 C 818.8579 359.49652 819.5192 361.91586 818.7289 364.07115 L 814.9603 374.34916 C 813.8291 377.4344 815.4131 380.85254 818.4983 381.9838 C 820.4375 382.6948 822.6066 382.34935 824.2289 381.07115 L 824.2289 381.07115 C 826.0314 379.651 828.6439 379.96097 830.064 381.76345 C 831.106 383.08602 831.2468 384.90673 830.4205 386.3738 L 792.6477 453.4398 C 792.0353 454.5272 791.4484 455.6288 790.8875 456.7437 L 749 540 C 749 540 726 645 726 632 C 726 619 745.7289 428.07115 745.7289 428.07115 L 719.3645 480.5356 C 716.0242 487.1826 707.9279 489.86325 701.2809 486.523 C 696.6673 484.20456 693.78505 479.45283 693.8607 474.29003 L 694.7289 415.07115 C 694.7289 415.07115 641 517 641 516 C 641 515 624.72894 401.07115 624.72894 401.07115 L 601.6899 373.14505 C 597.31066 367.83687 598.0637 359.98365 603.3719 355.6044 C 604.0972 355.006 604.8879 354.49166 605.72894 354.07115 L 605.72894 354.07115 C 614.4568 349.70722 620.37344 341.21206 621.4404 331.51252 Z" fill="#ffffc0"/>
        <path d="M 621.4404 331.51252 L 625.4709 294.8713 C 625.8597 291.33717 629.0398 288.78734 632.5739 289.1761 C 635.4598 289.49354 637.7761 291.70338 638.22894 294.57115 L 643.4945 327.9199 C 644.90544 336.85565 650.3359 344.65103 658.2289 349.07115 L 658.2289 349.07115 C 665.1553 352.94993 673.9132 350.5333 677.8703 343.65138 L 734.4026 245.3344 C 735.59985 243.25217 738.2584 242.5348 740.3406 243.73206 C 742.2013 244.80196 743.0032 247.06932 742.2289 249.07115 L 728.4225 284.7659 C 724.0186 296.15162 722.2788 308.3942 723.3363 320.55605 L 724.7289 336.57115 C 725.3224 343.3964 731.3365 348.4482 738.1617 347.8547 C 741.8588 347.5332 745.2178 345.5734 747.31685 342.51307 L 783.5276 289.71982 C 788.1111 283.03736 797.2439 281.3358 803.9264 285.9193 C 809.1361 289.4926 811.4737 295.99945 809.7289 302.07115 L 794.5421 354.92145 C 793.4268 358.8027 795.669 362.85323 799.5503 363.96854 C 802.3589 364.77562 805.3784 363.8329 807.2289 361.57115 L 809.495 358.8015 C 811.3804 356.4971 814.7769 356.15747 817.0812 358.04286 C 818.8579 359.49652 819.5192 361.91586 818.7289 364.07115 L 814.9603 374.34916 C 813.8291 377.4344 815.4131 380.85254 818.4983 381.9838 C 820.4375 382.6948 822.6066 382.34935 824.2289 381.07115 L 824.2289 381.07115 C 826.0314 379.651 828.6439 379.96097 830.064 381.76345 C 831.106 383.08602 831.2468 384.90673 830.4205 386.3738 L 792.6477 453.4398 C 792.0353 454.5272 791.4484 455.6288 790.8875 456.7437 L 749 540 C 749 540 726 645 726 632 C 726 619 745.7289 428.07115 745.7289 428.07115 L 719.3645 480.5356 C 716.0242 487.1826 707.9279 489.86325 701.2809 486.523 C 696.6673 484.20456 693.78505 479.45283 693.8607 474.29003 L 694.7289 415.07115 C 694.7289 415.07115 641 517 641 516 C 641 515 624.72894 401.07115 624.72894 401.07115 L 601.6899 373.14505 C 597.31066 367.83687 598.0637 359.98365 603.3719 355.6044 C 604.0972 355.006 604.8879 354.49166 605.72894 354.07115 L 605.72894 354.07115 C 614.4568 349.70722 620.37344 341.21206 621.4404 331.51252 Z" stroke="#7e7e7e" stroke-linecap="round" stroke-linejoin="round" stroke-width="2"/>
      </g>
      <g id="Line_10">
        <path d="M 542.72545 351.36583 C 545.6017 350.5437 548.3425 349.8522 550.9173 349.3124 C 592.2573 340.6452 562.0848 371.5105 571.344 375.1497 C 580.6032 378.78892 574.87685 362.167 583.6001 362.15794 C 592.3233 362.1489 595.2527 371.83972 602.13494 375.11773 C 609.0172 378.39573 606.2616 374.1221 607.8928 373.72853" stroke="black" stroke-linecap="round" stroke-linejoin="round" stroke-width="11"/>
      </g>
      <g id="Graphic_23">
        <path d="M 444.20805 260.655 L 500.4681 275.72984 C 519.22144 280.75478 528.5981 283.26725 538.37586 291.78424 C 546.2783 299.79873 551.9693 316.06625 552.0343 330.82628 C 551.3622 348.33732 547.67654 362.09237 540.30524 389.60246 L 518.1913 472.13273 C 510.82 499.6428 507.13436 513.39787 498.9609 528.89893 C 491.5246 541.649 478.46225 552.89156 467.6113 555.8811 C 454.88505 558.36816 445.5084 555.8557 426.75503 550.83075 L 370.495 535.7559 C 351.74164 530.73097 342.36496 528.2185 332.5872 519.7015 C 324.6848 511.687 318.9938 495.4195 318.92877 480.65947 C 319.6009 463.1484 323.28654 449.3934 330.65784 421.8833 L 352.77176 339.353 C 360.14307 311.84293 363.82872 298.08788 372.00218 282.5868 C 379.4385 269.83676 392.50083 258.59418 403.35176 255.60464 C 416.07803 253.1176 425.4547 255.63006 444.20805 260.655 M 444.20805 260.655" fill="#810000"/>
        <path d="M 444.20805 260.655 L 500.4681 275.72984 C 519.22144 280.75478 528.5981 283.26725 538.37586 291.78424 C 546.2783 299.79873 551.9693 316.06625 552.0343 330.82628 C 551.3622 348.33732 547.67654 362.09237 540.30524 389.60246 L 518.1913 472.13273 C 510.82 499.6428 507.13436 513.39787 498.9609 528.89893 C 491.5246 541.649 478.46225 552.89156 467.6113 555.8811 C 454.88505 558.36816 445.5084 555.8557 426.75503 550.83075 L 370.495 535.7559 C 351.74164 530.73097 342.36496 528.2185 332.5872 519.7015 C 324.6848 511.687 318.9938 495.4195 318.92877 480.65947 C 319.6009 463.1484 323.28654 449.3934 330.65784 421.8833 L 352.77176 339.353 C 360.14307 311.84293 363.82872 298.08788 372.00218 282.5868 C 379.4385 269.83676 392.50083 258.59418 403.35176 255.60464 C 416.07803 253.1176 425.4547 255.63006 444.20805 260.655 M 444.20805 260.655" stroke="black" stroke-linecap="round" stroke-linejoin="round" stroke-width="6"/>
      </g>
      <g id="Graphic_5">
        <path d="M 506.6812 333.60617 L 506.4022 333.37252 C 505.2856 333.28894 503.9581 334.73215 501.09394 337.44332 C 498.92715 340.7386 497.73915 342.29864 498.0173 343.3833 L 498.2962 343.61695 C 499.9035 341.5564 500.13035 342 500.13035 342 L 499.2735 343.59575 C 499.2735 343.59575 500.8939 341.49255 503.16487 338.7104 C 505.5056 335.98662 506.6757 334.7583 506.6757 334.7583 L 505.25493 335.88175 C 505.25493 335.88175 504.93445 335.5499 506.6812 333.60617 Z" fill="#e6e6e6"/>
        <path d="M 506.6812 333.60617 L 506.4022 333.37252 C 505.2856 333.28894 503.9581 334.73215 501.09394 337.44332 C 498.92715 340.7386 497.73915 342.29864 498.0173 343.3833 L 498.2962 343.61695 C 499.9035 341.5564 500.13035 342 500.13035 342 L 499.2735 343.59575 C 499.2735 343.59575 500.8939 341.49255 503.16487 338.7104 C 505.5056 335.98662 506.6757 334.7583 506.6757 334.7583 L 505.25493 335.88175 C 505.25493 335.88175 504.93445 335.5499 506.6812 333.60617 Z" stroke="black" stroke-linecap="round" stroke-linejoin="round" stroke-width="2"/>
      </g>
      <g id="Line_4">
        <path d="M 507.31716 343.81254 L 507.02886 343.0445 C 506.42965 341.44823 506.1227 339.7571 506.1227 338.05207 L 506.1227 338.05207 C 506.1227 336.36205 506.5612 334.70095 507.39535 333.23113 L 507.5043 333.03915" stroke="black" stroke-linecap="round" stroke-linejoin="round" stroke-width="10"/>
      </g>
      <g id="Graphic_2">
        <path d="M 434.1501 260.655 L 490.41013 275.72984 C 509.1635 280.75478 518.54015 283.26725 528.3179 291.78424 C 536.2203 299.79873 541.9113 316.06625 541.97635 330.82628 C 541.30423 348.33732 537.6186 362.09237 530.2473 389.60246 L 508.13335 472.13273 C 500.76205 499.6428 497.0764 513.39787 488.90294 528.89893 C 481.4666 541.649 468.4043 552.89156 457.55335 555.8811 C 444.8271 558.36816 435.4504 555.8557 416.69706 550.83075 L 360.437 535.7559 C 341.68367 530.73097 332.307 528.2185 322.52925 519.7015 C 314.62684 511.687 308.93582 495.4195 308.8708 480.65947 C 309.5429 463.1484 313.22857 449.3934 320.59988 421.8833 L 342.7138 339.353 C 350.0851 311.84293 353.77076 298.08788 361.9442 282.5868 C 369.38053 269.83676 382.44286 258.59418 393.2938 255.60464 C 406.02007 253.1176 415.39674 255.63006 434.1501 260.655 M 434.1501 260.655" fill="red"/>
        <path d="M 434.1501 260.655 L 490.41013 275.72984 C 509.1635 280.75478 518.54015 283.26725 528.3179 291.78424 C 536.2203 299.79873 541.9113 316.06625 541.97635 330.82628 C 541.30423 348.33732 537.6186 362.09237 530.2473 389.60246 L 508.13335 472.13273 C 500.76205 499.6428 497.0764 513.39787 488.90294 528.89893 C 481.4666 541.649 468.4043 552.89156 457.55335 555.8811 C 444.8271 558.36816 435.4504 555.8557 416.69706 550.83075 L 360.437 535.7559 C 341.68367 530.73097 332.307 528.2185 322.52925 519.7015 C 314.62684 511.687 308.93582 495.4195 308.8708 480.65947 C 309.5429 463.1484 313.22857 449.3934 320.59988 421.8833 L 342.7138 339.353 C 350.0851 311.84293 353.77076 298.08788 361.9442 282.5868 C 369.38053 269.83676 382.44286 258.59418 393.2938 255.60464 C 406.02007 253.1176 415.39674 255.63006 434.1501 260.655 M 434.1501 260.655" stroke="black" stroke-linecap="round" stroke-linejoin="round" stroke-width="6"/>
      </g>
      <g id="Graphic_3">
        <path d="M 409.48187 375.60576 L 454.60335 387.69603 C 469.64385 391.7261 477.1641 393.74116 485.44186 398.9453 C 492.21557 403.74647 497.8695 412.7268 499.01124 420.49806 C 499.77973 429.6624 497.9134 436.62767 494.1807 450.5582 L 482.9827 492.3498 C 479.25 506.28034 477.3837 513.2456 472.136 520.7979 C 467.26154 526.95716 457.87495 531.9074 449.60817 532.67844 C 439.83734 533.0465 432.3171 531.03145 417.2766 527.00137 L 372.1551 514.9111 C 357.11462 510.881 349.59438 508.86597 341.3166 503.6618 C 334.5429 498.86066 328.889 489.88035 327.74723 482.10906 C 326.97874 472.9447 328.84508 465.97946 332.57775 452.0489 L 343.77578 410.2573 C 347.50845 396.3268 349.3748 389.3615 354.6225 381.8092 C 359.49693 375.64997 368.8835 370.69974 377.1503 369.9287 C 386.92113 369.56063 394.44138 371.57567 409.48187 375.60576 M 409.48187 375.60576" fill="black"/>
        <path d="M 409.48187 375.60576 L 454.60335 387.69603 C 469.64385 391.7261 477.1641 393.74116 485.44186 398.9453 C 492.21557 403.74647 497.8695 412.7268 499.01124 420.49806 C 499.77973 429.6624 497.9134 436.62767 494.1807 450.5582 L 482.9827 492.3498 C 479.25 506.28034 477.3837 513.2456 472.136 520.7979 C 467.26154 526.95716 457.87495 531.9074 449.60817 532.67844 C 439.83734 533.0465 432.3171 531.03145 417.2766 527.00137 L 372.1551 514.9111 C 357.11462 510.881 349.59438 508.86597 341.3166 503.6618 C 334.5429 498.86066 328.889 489.88035 327.74723 482.10906 C 326.97874 472.9447 328.84508 465.97946 332.57775 452.0489 L 343.77578 410.2573 C 347.50845 396.3268 349.3748 389.3615 354.6225 381.8092 C 359.49693 375.64997 368.8835 370.69974 377.1503 369.9287 C 386.92113 369.56063 394.44138 371.57567 409.48187 375.60576 M 409.48187 375.60576" stroke="black" stroke-linecap="round" stroke-linejoin="round" stroke-width="43"/>
      </g>
      <g id="Line_11">
        <path d="M 334.3956 358.80587 C 327.38884 355.7224 320.87204 353.0857 315.26028 351.16314 C 279.03507 338.7526 308.8903 360.34414 297.5571 361.93653 C 286.2239 363.52893 280.1591 359.1118 275.25676 356.78393 C 270.35444 354.45604 282.53868 357.3161 280.25303 353.71964 C 277.9674 350.1232 273.21007 345.08355 267.18898 344.08927 C 261.1679 343.095 259 350.21008 259 350.21008" stroke="black" stroke-linecap="round" stroke-linejoin="round" stroke-width="13"/>
      </g>
      <g id="Graphic_15">
        <path d="M 383.61283 298.8067 L 375.7033 274.08566 C 374.3576 271.75487 375.38293 267.1866 387.0369 260.45818 C 398.69085 253.72976 400.1587 255.74006 401.5044 258.07085 L 417.72577 285.75113 C 419.07145 288.08193 420.53563 297.13205 408.88167 303.86047 C 397.2277 310.5889 384.9585 301.1375 383.61283 298.8067 Z" fill="#dadada"/>
        <path d="M 383.61283 298.8067 L 375.7033 274.08566 C 374.3576 271.75487 375.38293 267.1866 387.0369 260.45818 C 398.69085 253.72976 400.1587 255.74006 401.5044 258.07085 L 417.72577 285.75113 C 419.07145 288.08193 420.53563 297.13205 408.88167 303.86047 C 397.2277 310.5889 384.9585 301.1375 383.61283 298.8067 Z" stroke="black" stroke-linecap="round" stroke-linejoin="round" stroke-width="4"/>
      </g>
      <g id="Graphic_14">
        <path d="M 393.6031 252.67673 C 400.1185 252.04554 402.31626 255.85218 398.51193 261.1791 C 394.70763 266.50603 386.34187 271.336 379.82647 271.96717 C 373.31105 272.59835 371.1133 268.7917 374.9176 263.4648 C 378.7219 258.13786 387.0877 253.3079 393.6031 252.67673" fill="#666"/>
        <path d="M 393.6031 252.67673 C 400.1185 252.04554 402.31626 255.85218 398.51193 261.1791 C 394.70763 266.50603 386.34187 271.336 379.82647 271.96717 C 373.31105 272.59835 371.1133 268.7917 374.9176 263.4648 C 378.7219 258.13786 387.0877 253.3079 393.6031 252.67673" stroke="black" stroke-linecap="round" stroke-linejoin="round" stroke-width="4"/>
      </g>
      <g id="Line_13">
        <line x1="378.55906" y1="269.17173" x2="388.36648" y2="260.90344" stroke="black" stroke-linecap="round" stroke-linejoin="round" stroke-width="4"/>
      </g>
      <g id="Graphic_16">
        <path d="M 437.94084 309.75653 L 425.81983 279.98172 C 424.47414 277.65093 425.49946 273.08266 437.1534 266.35424 C 448.8074 259.62582 450.27525 261.63612 451.62094 263.9669 L 480.20617 292.16713 C 481.55185 294.49792 472.33676 300.50123 460.6828 307.22965 C 449.02884 313.95807 439.2865 312.08733 437.94084 309.75653 Z" fill="#dadada"/>
        <path d="M 437.94084 309.75653 L 425.81983 279.98172 C 424.47414 277.65093 425.49946 273.08266 437.1534 266.35424 C 448.8074 259.62582 450.27525 261.63612 451.62094 263.9669 L 480.20617 292.16713 C 481.55185 294.49792 472.33676 300.50123 460.6828 307.22965 C 449.02884 313.95807 439.2865 312.08733 437.94084 309.75653 Z" stroke="black" stroke-linecap="round" stroke-linejoin="round" stroke-width="4"/>
      </g>
      <g id="Graphic_17">
        <path d="M 444.63516 262.7983 C 451.80977 263.30886 455.0763 268.96665 451.93116 275.43533 C 448.78605 281.904 440.4203 286.734 433.2457 286.2234 C 426.0711 285.71282 422.80455 280.05503 425.9497 273.58635 C 429.0948 267.11767 437.46056 262.2877 444.63516 262.7983" fill="#666"/>
        <path d="M 444.63516 262.7983 C 451.80977 263.30886 455.0763 268.96665 451.93116 275.43533 C 448.78605 281.904 440.4203 286.734 433.2457 286.2234 C 426.0711 285.71282 422.80455 280.05503 425.9497 273.58635 C 429.0948 267.11767 437.46056 262.2877 444.63516 262.7983" stroke="black" stroke-linecap="round" stroke-linejoin="round" stroke-width="4"/>
      </g>
      <g id="Line_18">
        <line x1="439.62543" y1="271.6986" x2="449.43284" y2="263.43032" stroke="black" stroke-linecap="round" stroke-linejoin="round" stroke-width="4"/>
      </g>
      <g id="Graphic_19">
        <path d="M 481.9762 329.43562 L 471.1186 300.92425 C 469.7729 298.59346 470.79824 294.0252 482.4522 287.29677 C 494.10616 280.56836 495.57403 282.57865 496.9197 284.90944 L 521.9852 309.6417 C 523.33086 311.9725 520.67984 325.62664 509.0259 332.35506 C 497.3719 339.08348 483.32186 331.7664 481.9762 329.43562 Z" fill="#dadada"/>
        <path d="M 481.9762 329.43562 L 471.1186 300.92425 C 469.7729 298.59346 470.79824 294.0252 482.4522 287.29677 C 494.10616 280.56836 495.57403 282.57865 496.9197 284.90944 L 521.9852 309.6417 C 523.33086 311.9725 520.67984 325.62664 509.0259 332.35506 C 497.3719 339.08348 483.32186 331.7664 481.9762 329.43562 Z" stroke="black" stroke-linecap="round" stroke-linejoin="round" stroke-width="4"/>
      </g>
      <g id="Graphic_20">
        <path d="M 489.0184 279.51532 C 495.5338 278.88414 497.7316 282.69078 493.92724 288.0177 C 490.12294 293.34463 481.7572 298.1746 475.2418 298.80576 C 468.72636 299.43695 466.5286 295.6303 470.33293 290.30338 C 474.13723 284.97646 482.503 280.1465 489.0184 279.51532" fill="#666"/>
        <path d="M 489.0184 279.51532 C 495.5338 278.88414 497.7316 282.69078 493.92724 288.0177 C 490.12294 293.34463 481.7572 298.1746 475.2418 298.80576 C 468.72636 299.43695 466.5286 295.6303 470.33293 290.30338 C 474.13723 284.97646 482.503 280.1465 489.0184 279.51532" stroke="black" stroke-linecap="round" stroke-linejoin="round" stroke-width="4"/>
      </g>
      <g id="Line_21">
        <line x1="471.39384" y1="297.81808" x2="481.8476" y2="290.38375" stroke="black" stroke-linecap="round" stroke-linejoin="round" stroke-width="4"/>
      </g>
      <g id="Graphic_22">
        <circle cx="441.09944" cy="339.6047" r="10.3181271132856" fill="red"/>
        <circle cx="441.09944" cy="339.6047" r="10.3181271132856" stroke="black" stroke-linecap="round" stroke-linejoin="round" stroke-width="11"/>
      </g>
      <g id="Graphic_42">
        <path d="M 847 416 L 784.559 417.81366 C 784.559 417.81366 768.6196 434.66167 768.533 434.9847 C 768.4465 435.3077 755.1438 444.89935 755.1438 444.89935 L 753.3573 425.72517 C 753.3573 425.72517 748.611 413.7208 749.9556 406.11823 C 751.3003 398.51565 742.9776 386.93784 742.9776 386.93784 C 742.9776 386.93784 732.9515 394.63774 732.6053 395.9298 C 732.2591 397.2219 730.3951 406.7626 728.7104 410.46575 C 727.0257 414.1689 720.403 422.08827 719.0243 422.0651 C 717.6457 422.0419 706.5301 422.1794 706.2936 421.7698 C 706.0571 421.36023 703.3632 422.36946 703.9923 418.7297 C 704.62134 415.0899 703.4237 389.8417 703.5968 389.19565 C 703.7699 388.5496 712.8625 368.8284 701.60774 377.2377 C 690.35295 385.64698 688.34526 389.26356 688.34526 389.26356 C 688.34526 389.26356 687.5476 407.7453 684.6512 415.97074 C 681.7548 424.19617 661.4322 431.5606 661.1092 431.47407 C 660.7862 431.3875 651.3552 427.82186 651.2053 427.08927 C 651.0554 426.35667 650.2673 400.872 651.3925 396.67273 C 652.5177 392.47346 652.0866 374.7011 653.1484 369.44623 C 654.2103 364.19135 650.65704 363.23927 649.36496 362.89305 C 648.0729 362.54684 638.9695 373.26367 638.6465 373.1771 C 638.32345 373.09056 632.8259 376.8107 632.50286 376.72413 C 632.17984 376.63757 621.0874 375.39642 621.0874 375.39642 L 618.7131 373.9069 C 618.465 373.7512 618.39 373.42384 618.5457 373.1757 C 618.63974 373.02577 618.8024 372.93263 618.9793 372.9274 L 618.9793 372.9274 C 620.13636 372.89306 621.2923 373.02783 622.4104 373.32744 L 628.1537 374.86634 C 628.1537 374.86634 633.3916 372.1153 633.7146 372.20184 C 634.0376 372.2884 638.9989 366.6935 638.9989 366.6935 L 641.9308 363.6158 C 643.7707 361.68444 646.2325 360.46344 648.8835 360.16746 L 652.98776 359.70923 C 652.98776 359.70923 658.4961 364.9935 658.4095 365.31654 C 658.323 365.63956 655.357 378.0009 655.357 378.0009 L 655.6614 393.662 C 655.6614 393.662 655.6721 402.6664 655.82204 403.399 C 655.97195 404.1316 655.8266 417.59495 655.74 417.91797 C 655.6535 418.241 658.4911 423.15587 658.72756 423.56545 C 658.964 423.975 665.03806 424.5639 665.03806 424.5639 L 670.45986 422.38767 C 673.0224 421.3591 675.3341 419.7922 677.2387 417.7929 L 677.70696 417.3014 C 679.2962 415.63315 680.4414 413.5928 681.0377 411.3673 L 681.9465 407.97557 C 681.9465 407.97557 682.1089 398.3251 681.7859 398.23857 C 681.46284 398.152 684.8384 385.5542 684.8384 385.5542 C 684.8384 385.5542 686.6962 381.20503 687.4288 381.0551 C 688.1614 380.9052 695.73 374.6241 695.8166 374.3011 C 695.9031 373.97807 703.5985 369.8082 703.9215 369.89476 C 704.2445 369.9813 707.7977 370.9334 707.7977 370.9334 L 710.327 372.47665 C 711.8568 373.41005 712.67025 375.1759 712.3855 376.94518 L 710.7728 386.9639 C 710.7728 386.9639 709.7744 393.2744 709.6878 393.59743 C 709.60125 393.92046 710.1251 406.17826 710.1251 406.17826 L 710.9883 416.3404 C 711.0656 417.24976 711.8654 417.92433 712.77475 417.8471 C 713.0166 417.82654 713.2509 417.753 713.4611 417.6316 L 715.7138 416.33105 C 715.7138 416.33105 721.6905 408.23856 722.0135 408.3251 C 722.33654 408.41166 725.2731 402.6205 725.3597 402.29746 C 725.4462 401.97444 728.3025 391.31476 728.3025 391.31476 L 730.6216 388.47405 C 732.1594 386.59043 733.9652 384.9426 735.9813 383.58317 L 738.6296 381.7975 C 740.43595 380.57948 742.5437 379.8841 744.7202 379.7881 L 748.0486 379.6413 C 748.0486 379.6413 750.7301 389.0151 751.3761 389.1882 C 752.02215 389.36133 756.46865 399.9005 756.46865 399.9005 L 757.5412 403.65 C 758.2514 406.1327 758.54705 408.71553 758.4162 411.29446 L 758.37115 412.1815 C 758.2102 415.35347 758.4993 418.53225 759.23 421.6231 L 759.3617 422.1802 C 760.0435 425.0641 759.9989 428.0721 759.2319 430.9345 L 758.7837 432.6072 C 758.5665 433.4177 759.0475 434.2508 759.858 434.468 C 760.1394 434.5434 760.4366 434.5363 760.7141 434.44756 L 763.3647 433.59984 C 763.3647 433.59984 765.8284 426.9895 766.2379 426.75304 C 766.6475 426.5166 774.6721 417.24175 774.9951 417.3283 C 775.3181 417.41485 847 416 847 416 Z" fill="#999"/>
        <path d="M 847 416 L 784.559 417.81366 C 784.559 417.81366 768.6196 434.66167 768.533 434.9847 C 768.4465 435.3077 755.1438 444.89935 755.1438 444.89935 L 753.3573 425.72517 C 753.3573 425.72517 748.611 413.7208 749.9556 406.11823 C 751.3003 398.51565 742.9776 386.93784 742.9776 386.93784 C 742.9776 386.93784 732.9515 394.63774 732.6053 395.9298 C 732.2591 397.2219 730.3951 406.7626 728.7104 410.46575 C 727.0257 414.1689 720.403 422.08827 719.0243 422.0651 C 717.6457 422.0419 706.5301 422.1794 706.2936 421.7698 C 706.0571 421.36023 703.3632 422.36946 703.9923 418.7297 C 704.62134 415.0899 703.4237 389.8417 703.5968 389.19565 C 703.7699 388.5496 712.8625 368.8284 701.60774 377.2377 C 690.35295 385.64698 688.34526 389.26356 688.34526 389.26356 C 688.34526 389.26356 687.5476 407.7453 684.6512 415.97074 C 681.7548 424.19617 661.4322 431.5606 661.1092 431.47407 C 660.7862 431.3875 651.3552 427.82186 651.2053 427.08927 C 651.0554 426.35667 650.2673 400.872 651.3925 396.67273 C 652.5177 392.47346 652.0866 374.7011 653.1484 369.44623 C 654.2103 364.19135 650.65704 363.23927 649.36496 362.89305 C 648.0729 362.54684 638.9695 373.26367 638.6465 373.1771 C 638.32345 373.09056 632.8259 376.8107 632.50286 376.72413 C 632.17984 376.63757 621.0874 375.39642 621.0874 375.39642 L 618.7131 373.9069 C 618.465 373.7512 618.39 373.42384 618.5457 373.1757 C 618.63974 373.02577 618.8024 372.93263 618.9793 372.9274 L 618.9793 372.9274 C 620.13636 372.89306 621.2923 373.02783 622.4104 373.32744 L 628.1537 374.86634 C 628.1537 374.86634 633.3916 372.1153 633.7146 372.20184 C 634.0376 372.2884 638.9989 366.6935 638.9989 366.6935 L 641.9308 363.6158 C 643.7707 361.68444 646.2325 360.46344 648.8835 360.16746 L 652.98776 359.70923 C 652.98776 359.70923 658.4961 364.9935 658.4095 365.31654 C 658.323 365.63956 655.357 378.0009 655.357 378.0009 L 655.6614 393.662 C 655.6614 393.662 655.6721 402.6664 655.82204 403.399 C 655.97195 404.1316 655.8266 417.59495 655.74 417.91797 C 655.6535 418.241 658.4911 423.15587 658.72756 423.56545 C 658.964 423.975 665.03806 424.5639 665.03806 424.5639 L 670.45986 422.38767 C 673.0224 421.3591 675.3341 419.7922 677.2387 417.7929 L 677.70696 417.3014 C 679.2962 415.63315 680.4414 413.5928 681.0377 411.3673 L 681.9465 407.97557 C 681.9465 407.97557 682.1089 398.3251 681.7859 398.23857 C 681.46284 398.152 684.8384 385.5542 684.8384 385.5542 C 684.8384 385.5542 686.6962 381.20503 687.4288 381.0551 C 688.1614 380.9052 695.73 374.6241 695.8166 374.3011 C 695.9031 373.97807 703.5985 369.8082 703.9215 369.89476 C 704.2445 369.9813 707.7977 370.9334 707.7977 370.9334 L 710.327 372.47665 C 711.8568 373.41005 712.67025 375.1759 712.3855 376.94518 L 710.7728 386.9639 C 710.7728 386.9639 709.7744 393.2744 709.6878 393.59743 C 709.60125 393.92046 710.1251 406.17826 710.1251 406.17826 L 710.9883 416.3404 C 711.0656 417.24976 711.8654 417.92433 712.77475 417.8471 C 713.0166 417.82654 713.2509 417.753 713.4611 417.6316 L 715.7138 416.33105 C 715.7138 416.33105 721.6905 408.23856 722.0135 408.3251 C 722.33654 408.41166 725.2731 402.6205 725.3597 402.29746 C 725.4462 401.97444 728.3025 391.31476 728.3025 391.31476 L 730.6216 388.47405 C 732.1594 386.59043 733.9652 384.9426 735.9813 383.58317 L 738.6296 381.7975 C 740.43595 380.57948 742.5437 379.8841 744.7202 379.7881 L 748.0486 379.6413 C 748.0486 379.6413 750.7301 389.0151 751.3761 389.1882 C 752.02215 389.36133 756.46865 399.9005 756.46865 399.9005 L 757.5412 403.65 C 758.2514 406.1327 758.54705 408.71553 758.4162 411.29446 L 758.37115 412.1815 C 758.2102 415.35347 758.4993 418.53225 759.23 421.6231 L 759.3617 422.1802 C 760.0435 425.0641 759.9989 428.0721 759.2319 430.9345 L 758.7837 432.6072 C 758.5665 433.4177 759.0475 434.2508 759.858 434.468 C 760.1394 434.5434 760.4366 434.5363 760.7141 434.44756 L 763.3647 433.59984 C 763.3647 433.59984 765.8284 426.9895 766.2379 426.75304 C 766.6475 426.5166 774.6721 417.24175 774.9951 417.3283 C 775.3181 417.41485 847 416 847 416 Z" stroke="#484848" stroke-linecap="round" stroke-linejoin="round" stroke-width="5"/>
      </g>
      <g id="Graphic_41">
        <path d="M 846 411 L 789.522 420.57807 C 789.522 420.57807 772.6523 438.4094 772.5607 438.7513 C 772.4691 439.09317 758.39 449.24463 758.39 449.24463 L 756.4992 428.95134 C 756.4992 428.95134 751.47585 416.24634 752.899 408.20003 C 754.3222 400.1537 745.5137 387.90016 745.5137 387.90016 C 745.5137 387.90016 734.9024 396.04947 734.536 397.41696 C 734.1696 398.78446 732.1968 408.882 730.4138 412.8013 C 728.6308 416.72057 721.6215 425.1022 720.1624 425.07763 C 718.7033 425.0531 706.9389 425.1986 706.6886 424.7651 C 706.4383 424.33164 703.5872 425.39977 704.253 421.54755 C 704.91875 417.69534 703.6512 390.9735 703.8344 390.28975 C 704.0176 389.606 713.6409 368.73372 701.72926 377.63384 C 689.8176 386.53395 687.6927 390.36163 687.6927 390.36163 C 687.6927 390.36163 686.8485 409.9221 683.78305 418.6276 C 680.7176 427.3331 659.2089 435.1274 658.867 435.0358 C 658.5251 434.94417 648.5437 431.1704 648.38506 430.39505 C 648.2264 429.6197 647.3923 402.6476 648.5832 398.20323 C 649.77405 393.75887 649.3178 374.94923 650.4416 369.38764 C 651.5654 363.82605 647.8048 362.8184 646.4373 362.452 C 645.0698 362.08556 635.4351 373.4279 635.0932 373.3363 C 634.7513 373.24467 628.9329 377.1819 628.591 377.0903 C 628.24914 376.9987 616.5093 375.6851 616.5093 375.6851 L 613.9964 374.10864 C 613.7338 373.94387 613.65445 373.5974 613.8192 373.33477 C 613.91876 373.1761 614.0909 373.07753 614.2781 373.07197 L 614.2781 373.07197 C 615.5027 373.03564 616.7261 373.1783 617.9095 373.4954 L 623.988 375.1241 C 623.988 375.1241 629.5316 372.21247 629.8735 372.3041 C 630.21536 372.3957 635.4662 366.47425 635.4662 366.47425 L 638.56925 363.2169 C 640.5165 361.1728 643.122 359.88056 645.92776 359.5673 L 650.2715 359.08233 C 650.2715 359.08233 656.10136 364.67504 656.00975 365.0169 C 655.91815 365.3588 652.779 378.4416 652.779 378.4416 L 653.1012 395.0168 C 653.1012 395.0168 653.1126 404.54675 653.2712 405.3221 C 653.4299 406.09746 653.27605 420.3466 653.18445 420.68846 C 653.09284 421.03034 656.0961 426.2321 656.34634 426.66556 C 656.5966 427.09904 663.02515 427.7223 663.02515 427.7223 L 668.7634 425.41905 C 671.4755 424.33045 673.9222 422.67207 675.9379 420.5561 L 676.4335 420.0359 C 678.11546 418.2703 679.3275 416.1109 679.9587 413.75545 L 680.9205 410.16577 C 680.9205 410.16577 681.0923 399.95207 680.75046 399.86046 C 680.4086 399.76886 683.9812 386.43577 683.9812 386.43577 C 683.9812 386.43577 685.9474 381.83275 686.7227 381.6741 C 687.4981 381.5154 695.5085 374.86773 695.6001 374.52585 C 695.6917 374.18398 703.8362 369.77074 704.17804 369.86234 C 704.5199 369.95395 708.2805 370.9616 708.2805 370.9616 L 710.95745 372.59493 C 712.5765 373.5828 713.4374 375.4517 713.136 377.32427 L 711.4293 387.92776 C 711.4293 387.92776 710.3725 394.60657 710.2809 394.94845 C 710.1893 395.2903 710.7438 408.26356 710.7438 408.26356 L 711.6573 419.0188 C 711.7391 419.98125 712.5856 420.6952 713.548 420.61344 C 713.804 420.5917 714.052 420.51385 714.2745 420.3854 L 716.6586 419.00893 C 716.6586 419.00893 722.9842 410.4441 723.326 410.5357 C 723.6679 410.6273 726.7759 404.49813 726.8675 404.15626 C 726.9591 403.8144 729.9821 392.53254 729.9821 392.53254 L 732.43655 389.52603 C 734.0641 387.53247 735.9752 385.78845 738.109 384.3497 L 740.9119 382.4598 C 742.8237 381.1707 745.05446 380.43474 747.358 380.33313 L 750.88066 380.17775 C 750.88066 380.17775 753.7186 390.09868 754.4024 390.2819 C 755.0861 390.4651 759.7922 401.6194 759.7922 401.6194 L 760.9274 405.58776 C 761.679 408.21533 761.9919 410.9489 761.85335 413.67837 L 761.8057 414.6172 C 761.6353 417.9743 761.9414 421.3386 762.7147 424.60986 L 762.8541 425.1995 C 763.5757 428.2517 763.52845 431.43525 762.7167 434.4647 L 762.2423 436.23506 C 762.0125 437.09287 762.5216 437.9746 763.3794 438.20445 C 763.6772 438.28425 763.9917 438.27674 764.2854 438.1828 L 767.0907 437.2856 C 767.0907 437.2856 769.6982 430.2895 770.1316 430.0392 C 770.5651 429.78894 779.0581 419.9728 779.3999 420.0644 C 779.7418 420.156 846 411 846 411 Z" fill="red"/>
        <path d="M 846 411 L 789.522 420.57807 C 789.522 420.57807 772.6523 438.4094 772.5607 438.7513 C 772.4691 439.09317 758.39 449.24463 758.39 449.24463 L 756.4992 428.95134 C 756.4992 428.95134 751.47585 416.24634 752.899 408.20003 C 754.3222 400.1537 745.5137 387.90016 745.5137 387.90016 C 745.5137 387.90016 734.9024 396.04947 734.536 397.41696 C 734.1696 398.78446 732.1968 408.882 730.4138 412.8013 C 728.6308 416.72057 721.6215 425.1022 720.1624 425.07763 C 718.7033 425.0531 706.9389 425.1986 706.6886 424.7651 C 706.4383 424.33164 703.5872 425.39977 704.253 421.54755 C 704.91875 417.69534 703.6512 390.9735 703.8344 390.28975 C 704.0176 389.606 713.6409 368.73372 701.72926 377.63384 C 689.8176 386.53395 687.6927 390.36163 687.6927 390.36163 C 687.6927 390.36163 686.8485 409.9221 683.78305 418.6276 C 680.7176 427.3331 659.2089 435.1274 658.867 435.0358 C 658.5251 434.94417 648.5437 431.1704 648.38506 430.39505 C 648.2264 429.6197 647.3923 402.6476 648.5832 398.20323 C 649.77405 393.75887 649.3178 374.94923 650.4416 369.38764 C 651.5654 363.82605 647.8048 362.8184 646.4373 362.452 C 645.0698 362.08556 635.4351 373.4279 635.0932 373.3363 C 634.7513 373.24467 628.9329 377.1819 628.591 377.0903 C 628.24914 376.9987 616.5093 375.6851 616.5093 375.6851 L 613.9964 374.10864 C 613.7338 373.94387 613.65445 373.5974 613.8192 373.33477 C 613.91876 373.1761 614.0909 373.07753 614.2781 373.07197 L 614.2781 373.07197 C 615.5027 373.03564 616.7261 373.1783 617.9095 373.4954 L 623.988 375.1241 C 623.988 375.1241 629.5316 372.21247 629.8735 372.3041 C 630.21536 372.3957 635.4662 366.47425 635.4662 366.47425 L 638.56925 363.2169 C 640.5165 361.1728 643.122 359.88056 645.92776 359.5673 L 650.2715 359.08233 C 650.2715 359.08233 656.10136 364.67504 656.00975 365.0169 C 655.91815 365.3588 652.779 378.4416 652.779 378.4416 L 653.1012 395.0168 C 653.1012 395.0168 653.1126 404.54675 653.2712 405.3221 C 653.4299 406.09746 653.27605 420.3466 653.18445 420.68846 C 653.09284 421.03034 656.0961 426.2321 656.34634 426.66556 C 656.5966 427.09904 663.02515 427.7223 663.02515 427.7223 L 668.7634 425.41905 C 671.4755 424.33045 673.9222 422.67207 675.9379 420.5561 L 676.4335 420.0359 C 678.11546 418.2703 679.3275 416.1109 679.9587 413.75545 L 680.9205 410.16577 C 680.9205 410.16577 681.0923 399.95207 680.75046 399.86046 C 680.4086 399.76886 683.9812 386.43577 683.9812 386.43577 C 683.9812 386.43577 685.9474 381.83275 686.7227 381.6741 C 687.4981 381.5154 695.5085 374.86773 695.6001 374.52585 C 695.6917 374.18398 703.8362 369.77074 704.17804 369.86234 C 704.5199 369.95395 708.2805 370.9616 708.2805 370.9616 L 710.95745 372.59493 C 712.5765 373.5828 713.4374 375.4517 713.136 377.32427 L 711.4293 387.92776 C 711.4293 387.92776 710.3725 394.60657 710.2809 394.94845 C 710.1893 395.2903 710.7438 408.26356 710.7438 408.26356 L 711.6573 419.0188 C 711.7391 419.98125 712.5856 420.6952 713.548 420.61344 C 713.804 420.5917 714.052 420.51385 714.2745 420.3854 L 716.6586 419.00893 C 716.6586 419.00893 722.9842 410.4441 723.326 410.5357 C 723.6679 410.6273 726.7759 404.49813 726.8675 404.15626 C 726.9591 403.8144 729.9821 392.53254 729.9821 392.53254 L 732.43655 389.52603 C 734.0641 387.53247 735.9752 385.78845 738.109 384.3497 L 740.9119 382.4598 C 742.8237 381.1707 745.05446 380.43474 747.358 380.33313 L 750.88066 380.17775 C 750.88066 380.17775 753.7186 390.09868 754.4024 390.2819 C 755.0861 390.4651 759.7922 401.6194 759.7922 401.6194 L 760.9274 405.58776 C 761.679 408.21533 761.9919 410.9489 761.85335 413.67837 L 761.8057 414.6172 C 761.6353 417.9743 761.9414 421.3386 762.7147 424.60986 L 762.8541 425.1995 C 763.5757 428.2517 763.52845 431.43525 762.7167 434.4647 L 762.2423 436.23506 C 762.0125 437.09287 762.5216 437.9746 763.3794 438.20445 C 763.6772 438.28425 763.9917 438.27674 764.2854 438.1828 L 767.0907 437.2856 C 767.0907 437.2856 769.6982 430.2895 770.1316 430.0392 C 770.5651 429.78894 779.0581 419.9728 779.3999 420.0644 C 779.7418 420.156 846 411 846 411 Z" stroke="black" stroke-linecap="round" stroke-linejoin="round" stroke-width="5"/>
      </g>
      <g id="Graphic_40">
        <path d="M 841 410 L 806.4029 423.9552 C 806.4029 423.9552 787.2878 444.1599 787.184 444.54726 C 787.08025 444.93464 771.1273 456.43725 771.1273 456.43725 L 768.9848 433.44294 C 768.9848 433.44294 763.2928 419.0469 764.9054 409.92964 C 766.518 400.81237 756.5371 386.92788 756.5371 386.92788 C 756.5371 386.92788 744.5135 396.16185 744.0983 397.71136 C 743.6831 399.26087 741.4477 410.7024 739.4274 415.14333 C 737.4071 419.58426 729.4649 429.08145 727.81155 429.05364 C 726.15825 429.02583 712.828 429.1907 712.5444 428.69953 C 712.2608 428.20836 709.0302 429.41866 709.7846 425.0537 C 710.539 420.68877 709.1027 390.41028 709.3103 389.6355 C 709.5179 388.86077 720.4221 365.2104 706.925 375.2951 C 693.4279 385.37983 691.0202 389.71696 691.0202 389.71696 C 691.0202 389.71696 690.06364 411.8809 686.59016 421.7451 C 683.1167 431.6093 658.7452 440.441 658.3578 440.3372 C 657.9704 440.2334 646.6605 435.95736 646.4807 435.0788 C 646.30094 434.20026 645.35585 403.6382 646.7052 398.6023 C 648.0546 393.5664 647.5376 372.2532 648.811 365.95136 C 650.08436 359.64952 645.8232 358.50775 644.2737 358.09256 C 642.7242 357.67737 631.8071 370.52935 631.4197 370.42555 C 631.03235 370.32176 624.4395 374.78305 624.0521 374.67925 C 623.6647 374.57545 610.3623 373.08702 610.3623 373.08702 L 607.515 371.3007 C 607.2174 371.114 607.1275 370.72143 607.3142 370.42384 C 607.427 370.24405 607.622 370.13236 607.8342 370.12607 L 607.8342 370.12607 C 609.2218 370.0849 610.608 370.24653 611.9489 370.60583 L 618.8364 372.45133 C 618.8364 372.45133 625.1179 369.15217 625.5053 369.25597 C 625.89265 369.35977 631.8424 362.6502 631.8424 362.6502 L 635.3584 358.9593 C 637.5649 356.64315 640.5172 355.1789 643.69636 354.82394 L 648.6183 354.2744 C 648.6183 354.2744 655.22406 360.6115 655.12026 360.9989 C 655.01646 361.38627 651.4595 376.2104 651.4595 376.2104 L 651.82456 394.99173 C 651.82456 394.99173 651.8375 405.7901 652.01725 406.66867 C 652.197 407.5472 652.0227 423.6929 651.9189 424.0803 C 651.8151 424.46766 655.2181 430.36175 655.50164 430.8529 C 655.7852 431.3441 663.0694 432.0503 663.0694 432.0503 L 669.5714 429.4405 C 672.6445 428.207 675.4168 426.3279 677.70084 423.9303 L 678.2624 423.34086 C 680.1682 421.34026 681.5416 418.8934 682.25675 416.2245 L 683.3466 412.157 C 683.3466 412.157 683.5413 400.5839 683.1539 400.4801 C 682.76655 400.3763 686.81465 385.2686 686.81465 385.2686 C 686.81465 385.2686 689.0426 380.0529 689.9211 379.8731 C 690.7997 379.69333 699.8762 372.16084 699.98 371.77346 C 700.0838 371.3861 709.3123 366.38544 709.6997 366.48924 C 710.0871 366.59304 714.3482 367.7348 714.3482 367.7348 L 717.38145 369.58553 C 719.216 370.7049 720.1915 372.82255 719.85 374.94434 L 717.9161 386.95915 C 717.9161 386.95915 716.7187 394.5269 716.6149 394.9143 C 716.5111 395.30166 717.1393 410.00163 717.1393 410.00163 L 718.1745 422.1884 C 718.2671 423.27894 719.2263 424.0879 720.3168 423.9953 C 720.6069 423.97064 720.8879 423.8824 721.14 423.7369 L 723.8414 422.1772 C 723.8414 422.1772 731.0089 412.4724 731.3963 412.5762 C 731.7837 412.68 735.3053 405.73503 735.4091 405.34765 C 735.5129 404.96027 738.9382 392.17683 738.9382 392.17683 L 741.7194 388.77015 C 743.5635 386.51124 745.7291 384.5351 748.1469 382.90484 L 751.3228 380.7634 C 753.4891 379.3027 756.0167 378.4688 758.6269 378.3537 L 762.6184 378.17762 C 762.6184 378.17762 765.8341 389.419 766.6089 389.6266 C 767.3836 389.8342 772.716 402.47313 772.716 402.47313 L 774.0023 406.9697 C 774.854 409.947 775.2085 413.0444 775.0516 416.13715 L 774.9976 417.2009 C 774.8045 421.00485 775.1513 424.81695 776.0276 428.5236 L 776.1855 429.1917 C 777.0031 432.65016 776.9496 436.25746 776.0298 439.69014 L 775.4923 441.6961 C 775.2319 442.6681 775.8087 443.6672 776.7807 443.92763 C 777.1182 444.01805 777.4745 444.00955 777.8073 443.9031 L 780.986 442.8865 C 780.986 442.8865 783.9405 434.9592 784.4317 434.6756 C 784.9229 434.392 794.5462 423.26933 794.9336 423.37313 C 795.321 423.47693 841 410 841 410 Z" fill="#cc000c"/>
        <path d="M 841 410 L 806.4029 423.9552 C 806.4029 423.9552 787.2878 444.1599 787.184 444.54726 C 787.08025 444.93464 771.1273 456.43725 771.1273 456.43725 L 768.9848 433.44294 C 768.9848 433.44294 763.2928 419.0469 764.9054 409.92964 C 766.518 400.81237 756.5371 386.92788 756.5371 386.92788 C 756.5371 386.92788 744.5135 396.16185 744.0983 397.71136 C 743.6831 399.26087 741.4477 410.7024 739.4274 415.14333 C 737.4071 419.58426 729.4649 429.08145 727.81155 429.05364 C 726.15825 429.02583 712.828 429.1907 712.5444 428.69953 C 712.2608 428.20836 709.0302 429.41866 709.7846 425.0537 C 710.539 420.68877 709.1027 390.41028 709.3103 389.6355 C 709.5179 388.86077 720.4221 365.2104 706.925 375.2951 C 693.4279 385.37983 691.0202 389.71696 691.0202 389.71696 C 691.0202 389.71696 690.06364 411.8809 686.59016 421.7451 C 683.1167 431.6093 658.7452 440.441 658.3578 440.3372 C 657.9704 440.2334 646.6605 435.95736 646.4807 435.0788 C 646.30094 434.20026 645.35585 403.6382 646.7052 398.6023 C 648.0546 393.5664 647.5376 372.2532 648.811 365.95136 C 650.08436 359.64952 645.8232 358.50775 644.2737 358.09256 C 642.7242 357.67737 631.8071 370.52935 631.4197 370.42555 C 631.03235 370.32176 624.4395 374.78305 624.0521 374.67925 C 623.6647 374.57545 610.3623 373.08702 610.3623 373.08702 L 607.515 371.3007 C 607.2174 371.114 607.1275 370.72143 607.3142 370.42384 C 607.427 370.24405 607.622 370.13236 607.8342 370.12607 L 607.8342 370.12607 C 609.2218 370.0849 610.608 370.24653 611.9489 370.60583 L 618.8364 372.45133 C 618.8364 372.45133 625.1179 369.15217 625.5053 369.25597 C 625.89265 369.35977 631.8424 362.6502 631.8424 362.6502 L 635.3584 358.9593 C 637.5649 356.64315 640.5172 355.1789 643.69636 354.82394 L 648.6183 354.2744 C 648.6183 354.2744 655.22406 360.6115 655.12026 360.9989 C 655.01646 361.38627 651.4595 376.2104 651.4595 376.2104 L 651.82456 394.99173 C 651.82456 394.99173 651.8375 405.7901 652.01725 406.66867 C 652.197 407.5472 652.0227 423.6929 651.9189 424.0803 C 651.8151 424.46766 655.2181 430.36175 655.50164 430.8529 C 655.7852 431.3441 663.0694 432.0503 663.0694 432.0503 L 669.5714 429.4405 C 672.6445 428.207 675.4168 426.3279 677.70084 423.9303 L 678.2624 423.34086 C 680.1682 421.34026 681.5416 418.8934 682.25675 416.2245 L 683.3466 412.157 C 683.3466 412.157 683.5413 400.5839 683.1539 400.4801 C 682.76655 400.3763 686.81465 385.2686 686.81465 385.2686 C 686.81465 385.2686 689.0426 380.0529 689.9211 379.8731 C 690.7997 379.69333 699.8762 372.16084 699.98 371.77346 C 700.0838 371.3861 709.3123 366.38544 709.6997 366.48924 C 710.0871 366.59304 714.3482 367.7348 714.3482 367.7348 L 717.38145 369.58553 C 719.216 370.7049 720.1915 372.82255 719.85 374.94434 L 717.9161 386.95915 C 717.9161 386.95915 716.7187 394.5269 716.6149 394.9143 C 716.5111 395.30166 717.1393 410.00163 717.1393 410.00163 L 718.1745 422.1884 C 718.2671 423.27894 719.2263 424.0879 720.3168 423.9953 C 720.6069 423.97064 720.8879 423.8824 721.14 423.7369 L 723.8414 422.1772 C 723.8414 422.1772 731.0089 412.4724 731.3963 412.5762 C 731.7837 412.68 735.3053 405.73503 735.4091 405.34765 C 735.5129 404.96027 738.9382 392.17683 738.9382 392.17683 L 741.7194 388.77015 C 743.5635 386.51124 745.7291 384.5351 748.1469 382.90484 L 751.3228 380.7634 C 753.4891 379.3027 756.0167 378.4688 758.6269 378.3537 L 762.6184 378.17762 C 762.6184 378.17762 765.8341 389.419 766.6089 389.6266 C 767.3836 389.8342 772.716 402.47313 772.716 402.47313 L 774.0023 406.9697 C 774.854 409.947 775.2085 413.0444 775.0516 416.13715 L 774.9976 417.2009 C 774.8045 421.00485 775.1513 424.81695 776.0276 428.5236 L 776.1855 429.1917 C 777.0031 432.65016 776.9496 436.25746 776.0298 439.69014 L 775.4923 441.6961 C 775.2319 442.6681 775.8087 443.6672 776.7807 443.92763 C 777.1182 444.01805 777.4745 444.00955 777.8073 443.9031 L 780.986 442.8865 C 780.986 442.8865 783.9405 434.9592 784.4317 434.6756 C 784.9229 434.392 794.5462 423.26933 794.9336 423.37313 C 795.321 423.47693 841 410 841 410 Z" stroke="#525252" stroke-linecap="round" stroke-linejoin="round" stroke-width="5"/>
      </g>
      <g id="Graphic_39">
        <path d="M 13 390.6865 L 25.224172 349.31237 C 25.224172 349.31237 40.73947 320.6326 40.73947 320.16243 C 40.73947 319.69226 55.31444 301.82617 55.31444 301.82617 L 64.71765 327.21483 C 64.71765 327.21483 75.53134 341.7898 76.47166 352.6035 C 77.411985 363.4172 92.92728 376.1115 92.92728 376.1115 C 92.92728 376.1115 103.74097 362.0067 103.74097 360.12607 C 103.74097 358.24542 102.80065 344.61077 103.74097 338.96884 C 104.68129 333.3269 110.79338 320.16243 112.67402 319.69226 C 114.55466 319.2221 129.5998 314.99066 130.06996 315.46082 C 130.54012 315.93098 133.83124 313.58018 134.3014 318.75194 C 134.77156 323.9237 145.58525 357.77526 145.58525 358.7156 C 145.58525 359.6559 140.41349 389.74618 152.63766 374.2309 C 164.86183 358.7156 166.27231 353.07366 166.27231 353.07366 C 166.27231 353.07366 160.63039 327.685 161.5707 315.46082 C 162.51103 303.23665 187.42954 285.8407 187.8997 285.8407 C 188.36986 285.8407 202.47467 287.2512 202.94483 288.1915 C 203.415 289.13183 213.75852 323.45355 213.75852 329.56563 C 213.75852 335.67772 220.81093 359.6559 221.2811 367.17847 C 221.75125 374.70104 226.92302 374.70104 228.80366 374.70104 C 230.6843 374.70104 239.1472 356.83494 239.61735 356.83494 C 240.0875 356.83494 246.1996 349.78254 246.66976 349.78254 C 247.13992 349.78254 262.6552 347.43173 262.6552 347.43173 L 266.42152 348.5906 C 266.81516 348.7117 267.03608 349.129 266.91496 349.52265 C 266.8418 349.76046 266.65482 349.9461 266.4165 350.0176 L 266.4165 350.0176 C 264.85764 350.48527 263.23887 350.72286 261.61138 350.72286 L 253.252 350.72286 C 253.252 350.72286 247.13992 356.3648 246.66976 356.3648 C 246.1996 356.3648 241.498 365.768 241.498 365.768 L 238.6363 371.0144 C 236.8405 374.30673 233.9416 376.86066 230.44922 378.22724 L 225.04237 380.34297 C 225.04237 380.34297 215.63916 375.1712 215.63916 374.70104 C 215.63916 374.2309 215.169 356.3648 215.169 356.3648 L 209.05692 335.20756 C 209.05692 335.20756 205.7658 322.9834 205.29563 322.04307 C 204.82547 321.10275 200.12387 302.7665 200.12387 302.29633 C 200.12387 301.82617 194.48194 296.18424 194.01178 295.71408 C 193.54162 295.24392 185.07873 296.6544 185.07873 296.6544 L 178.50776 301.58263 C 175.40208 303.9119 172.83287 306.88098 170.97392 310.28906 L 170.5169 311.12693 C 168.96575 313.9707 168.15296 317.1582 168.15296 320.3975 L 168.15296 325.3342 C 168.15296 325.3342 171.44408 338.4987 171.91424 338.4987 C 172.3844 338.4987 172.3844 356.83494 172.3844 356.83494 C 172.3844 356.83494 171.44408 363.4172 170.50376 363.88735 C 169.56344 364.3575 161.5707 375.64136 161.5707 376.1115 C 161.5707 376.5817 152.63766 385.04457 152.1675 385.04457 C 151.69734 385.04457 146.52557 385.04457 146.52557 385.04457 L 142.52921 383.86917 C 140.1121 383.15825 138.3649 381.0562 138.10783 378.54987 L 136.6522 364.3575 C 136.6522 364.3575 135.71188 355.42446 135.71188 354.9543 C 135.71188 354.48414 130.54012 338.02852 130.54012 338.02852 L 125.67011 324.54234 C 125.23431 323.3355 123.9027 322.71047 122.69586 323.14627 C 122.37492 323.26217 122.08344 323.44734 121.84215 323.68863 L 119.25627 326.2745 C 119.25627 326.2745 114.0845 339.439 113.61434 339.439 C 113.14418 339.439 111.26354 348.37205 111.26354 348.8422 C 111.26354 349.31237 111.26354 364.82767 111.26354 364.82767 L 109.14782 369.52927 C 107.74492 372.6468 105.89227 375.5417 103.64903 378.1214 L 100.70239 381.51004 C 98.6925 383.8214 96.0832 385.5327 93.16236 386.45505 L 88.69584 387.86553 C 88.69584 387.86553 81.64343 376.1115 80.70311 376.1115 C 79.76279 376.1115 69.88942 363.4172 69.88942 363.4172 L 67.068454 358.7156 C 65.20062 355.60252 63.85933 352.20256 63.09865 348.65272 L 62.83701 347.43173 C 61.90141 343.0656 60.352026 338.854 58.235044 334.92244 L 57.85347 334.2138 C 55.87825 330.54554 54.84428 326.4444 54.84428 322.27815 L 54.84428 319.8435 C 54.84428 318.6638 53.887943 317.70745 52.70824 317.70745 C 52.29865 317.70745 51.897697 317.8252 51.55316 318.0467 L 48.262035 320.16243 C 48.262035 320.16243 47.321715 330.0358 46.851554 330.50596 C 46.381394 330.9761 38.858826 346.4914 38.388666 346.4914 C 37.918505 346.4914 13 390.6865 13 390.6865 Z" fill="#666"/>
        <path d="M 13 390.6865 L 25.224172 349.31237 C 25.224172 349.31237 40.73947 320.6326 40.73947 320.16243 C 40.73947 319.69226 55.31444 301.82617 55.31444 301.82617 L 64.71765 327.21483 C 64.71765 327.21483 75.53134 341.7898 76.47166 352.6035 C 77.411985 363.4172 92.92728 376.1115 92.92728 376.1115 C 92.92728 376.1115 103.74097 362.0067 103.74097 360.12607 C 103.74097 358.24542 102.80065 344.61077 103.74097 338.96884 C 104.68129 333.3269 110.79338 320.16243 112.67402 319.69226 C 114.55466 319.2221 129.5998 314.99066 130.06996 315.46082 C 130.54012 315.93098 133.83124 313.58018 134.3014 318.75194 C 134.77156 323.9237 145.58525 357.77526 145.58525 358.7156 C 145.58525 359.6559 140.41349 389.74618 152.63766 374.2309 C 164.86183 358.7156 166.27231 353.07366 166.27231 353.07366 C 166.27231 353.07366 160.63039 327.685 161.5707 315.46082 C 162.51103 303.23665 187.42954 285.8407 187.8997 285.8407 C 188.36986 285.8407 202.47467 287.2512 202.94483 288.1915 C 203.415 289.13183 213.75852 323.45355 213.75852 329.56563 C 213.75852 335.67772 220.81093 359.6559 221.2811 367.17847 C 221.75125 374.70104 226.92302 374.70104 228.80366 374.70104 C 230.6843 374.70104 239.1472 356.83494 239.61735 356.83494 C 240.0875 356.83494 246.1996 349.78254 246.66976 349.78254 C 247.13992 349.78254 262.6552 347.43173 262.6552 347.43173 L 266.42152 348.5906 C 266.81516 348.7117 267.03608 349.129 266.91496 349.52265 C 266.8418 349.76046 266.65482 349.9461 266.4165 350.0176 L 266.4165 350.0176 C 264.85764 350.48527 263.23887 350.72286 261.61138 350.72286 L 253.252 350.72286 C 253.252 350.72286 247.13992 356.3648 246.66976 356.3648 C 246.1996 356.3648 241.498 365.768 241.498 365.768 L 238.6363 371.0144 C 236.8405 374.30673 233.9416 376.86066 230.44922 378.22724 L 225.04237 380.34297 C 225.04237 380.34297 215.63916 375.1712 215.63916 374.70104 C 215.63916 374.2309 215.169 356.3648 215.169 356.3648 L 209.05692 335.20756 C 209.05692 335.20756 205.7658 322.9834 205.29563 322.04307 C 204.82547 321.10275 200.12387 302.7665 200.12387 302.29633 C 200.12387 301.82617 194.48194 296.18424 194.01178 295.71408 C 193.54162 295.24392 185.07873 296.6544 185.07873 296.6544 L 178.50776 301.58263 C 175.40208 303.9119 172.83287 306.88098 170.97392 310.28906 L 170.5169 311.12693 C 168.96575 313.9707 168.15296 317.1582 168.15296 320.3975 L 168.15296 325.3342 C 168.15296 325.3342 171.44408 338.4987 171.91424 338.4987 C 172.3844 338.4987 172.3844 356.83494 172.3844 356.83494 C 172.3844 356.83494 171.44408 363.4172 170.50376 363.88735 C 169.56344 364.3575 161.5707 375.64136 161.5707 376.1115 C 161.5707 376.5817 152.63766 385.04457 152.1675 385.04457 C 151.69734 385.04457 146.52557 385.04457 146.52557 385.04457 L 142.52921 383.86917 C 140.1121 383.15825 138.3649 381.0562 138.10783 378.54987 L 136.6522 364.3575 C 136.6522 364.3575 135.71188 355.42446 135.71188 354.9543 C 135.71188 354.48414 130.54012 338.02852 130.54012 338.02852 L 125.67011 324.54234 C 125.23431 323.3355 123.9027 322.71047 122.69586 323.14627 C 122.37492 323.26217 122.08344 323.44734 121.84215 323.68863 L 119.25627 326.2745 C 119.25627 326.2745 114.0845 339.439 113.61434 339.439 C 113.14418 339.439 111.26354 348.37205 111.26354 348.8422 C 111.26354 349.31237 111.26354 364.82767 111.26354 364.82767 L 109.14782 369.52927 C 107.74492 372.6468 105.89227 375.5417 103.64903 378.1214 L 100.70239 381.51004 C 98.6925 383.8214 96.0832 385.5327 93.16236 386.45505 L 88.69584 387.86553 C 88.69584 387.86553 81.64343 376.1115 80.70311 376.1115 C 79.76279 376.1115 69.88942 363.4172 69.88942 363.4172 L 67.068454 358.7156 C 65.20062 355.60252 63.85933 352.20256 63.09865 348.65272 L 62.83701 347.43173 C 61.90141 343.0656 60.352026 338.854 58.235044 334.92244 L 57.85347 334.2138 C 55.87825 330.54554 54.84428 326.4444 54.84428 322.27815 L 54.84428 319.8435 C 54.84428 318.6638 53.887943 317.70745 52.70824 317.70745 C 52.29865 317.70745 51.897697 317.8252 51.55316 318.0467 L 48.262035 320.16243 C 48.262035 320.16243 47.321715 330.0358 46.851554 330.50596 C 46.381394 330.9761 38.858826 346.4914 38.388666 346.4914 C 37.918505 346.4914 13 390.6865 13 390.6865 Z" stroke="black" stroke-linecap="round" stroke-linejoin="round" stroke-width="5"/>
      </g>
      <g id="Line_35">
        <path d="M 703.0445 326.3742 L 712.3521 318.20877 C 715.8223 315.16437 720.5835 314.05377 725.0426 315.24857 L 725.0426 315.24857 C 729.52504 316.44964 733.15945 319.72774 734.815 324.06294 L 739.3682 335.98555 L 739.3682 335.98555" stroke="black" stroke-linecap="round" stroke-linejoin="round" stroke-width="5"/>
      </g>
      <g id="Line_34">
        <path d="M 696.85425 311.26378 L 717.8444 295.76987 C 721.60075 292.9971 726.4154 292.0859 730.9252 293.2943 L 730.9252 293.2943 C 735.4077 294.49538 739.0421 297.7735 740.6977 302.1087 L 745.2508 314.0313 L 745.2508 314.0313" stroke="black" stroke-linecap="round" stroke-linejoin="round" stroke-width="6"/>
      </g>
      <g id="Line_32">
        <path d="M 696.85425 347.5823 L 706.1618 339.41685 C 709.6321 336.37244 714.3933 335.26184 718.8524 336.45665 L 718.8524 336.45665 C 723.3348 337.6577 726.9692 340.9358 728.6248 345.271 L 733.1779 357.19363 L 733.1779 357.19363" stroke="black" stroke-linecap="round" stroke-linejoin="round" stroke-width="4"/>
      </g>
      <g id="Line_31">
        <path d="M 703.0445 285.77358 L 723.308 274.95122 C 727.4953 272.71485 732.3763 272.15417 736.96166 273.3828 L 736.96166 273.3828 C 741.4441 274.58388 745.0785 277.86198 746.7341 282.19718 L 751.2872 294.1198 L 751.2872 294.1198" stroke="black" stroke-linecap="round" stroke-linejoin="round" stroke-width="6"/>
      </g>
      <g id="Line_30">
        <path d="M 708.9271 260.28338 L 729.28215 249.88393 C 733.5173 247.7202 738.4043 247.20385 742.9981 248.43475 L 742.9981 248.43475 C 747.4805 249.63582 751.1149 252.91392 752.7705 257.24912 L 757.3237 269.17173 L 757.3237 269.17173" stroke="black" stroke-linecap="round" stroke-linejoin="round" stroke-width="6"/>
      </g>
      <g id="Line_43">
        <path d="M 664.6584 488.5612 L 655.3508 496.7266 C 651.8806 499.771 647.1194 500.8816 642.6603 499.6868 L 642.6603 499.6868 C 638.17784 498.48575 634.5434 495.20765 632.88786 490.87244 L 628.3347 478.94984 L 628.3347 478.94984" stroke="black" stroke-linecap="round" stroke-linejoin="round" stroke-width="5"/>
      </g>
      <g id="Line_44">
        <path d="M 670.84864 510.01727 L 649.8585 525.5112 C 646.10214 528.28396 641.2875 529.1951 636.7777 527.9867 L 636.7777 527.9867 C 632.2952 526.78566 628.6608 523.50756 627.0052 519.17236 L 622.4521 507.24975 L 622.4521 507.24975" stroke="black" stroke-linecap="round" stroke-linejoin="round" stroke-width="6"/>
      </g>
      <g id="Line_45">
        <path d="M 670.84864 457.51606 L 661.5411 465.6815 C 658.0708 468.7259 653.3096 469.8365 648.8505 468.6417 L 648.8505 468.6417 C 644.3681 467.4406 640.7337 464.1625 639.0781 459.8273 L 634.52495 447.9047 L 634.52495 447.9047" stroke="black" stroke-linecap="round" stroke-linejoin="round" stroke-width="4"/>
      </g>
      <g id="Line_46">
        <path d="M 664.6584 535.50746 L 644.3949 546.3298 C 640.20756 548.5662 635.3266 549.1269 630.7412 547.89823 L 630.7412 547.89823 C 626.2588 546.69717 622.6244 543.41906 620.9688 539.08386 L 616.41566 527.16125 L 616.41566 527.16125" stroke="black" stroke-linecap="round" stroke-linejoin="round" stroke-width="6"/>
      </g>
      <g id="Line_47">
        <path d="M 658.7758 560.99766 L 638.4207 571.3971 C 634.1856 573.56084 629.2986 574.0772 624.7048 572.8463 L 624.7048 572.8463 C 620.22235 571.6452 616.58795 568.3671 614.9324 564.0319 L 610.3792 552.1093 L 610.3792 552.1093" stroke="black" stroke-linecap="round" stroke-linejoin="round" stroke-width="6"/>
      </g>
      <g id="Line_48">
        <path d="M 772.213 501.8669 L 760.8813 514.57153 C 757.8658 517.95235 753.2027 519.34555 748.8268 518.17303 L 748.8268 518.17303 C 744.4273 516.9942 741.0226 513.507 739.9495 509.0805 L 735.8794 492.2926 L 735.8794 492.2926" stroke="black" stroke-linecap="round" stroke-linejoin="round" stroke-width="5"/>
      </g>
      <g id="Line_49">
        <path d="M 777.3062 521.07174 L 753.4777 544.0707 C 750.1792 547.25435 745.4532 548.4759 741.0251 547.2894 L 741.0251 547.2894 C 736.6256 546.11056 733.2209 542.6234 732.1478 538.19686 L 728.0777 521.40895 L 728.0777 521.40895" stroke="black" stroke-linecap="round" stroke-linejoin="round" stroke-width="6"/>
      </g>
      <g id="Line_50">
        <path d="M 780.2682 473.69876 L 779.0685 478.84796 C 778.022 483.3392 774.9283 487.0789 770.7127 488.94844 L 770.7127 488.94844 C 766.3811 490.8694 761.5222 491.2482 756.9453 490.0218 L 756.882 490.0049 C 752.4825 488.826 749.0778 485.33883 748.0047 480.9123 L 743.9346 464.1244 L 743.9346 464.1244" stroke="black" stroke-linecap="round" stroke-linejoin="round" stroke-width="4"/>
      </g>
      <g id="Line_51">
        <path d="M 768.9018 554.8254 L 746.3357 571.3082 C 742.563 574.0638 737.7455 574.963 733.2328 573.7538 L 733.2328 573.7538 C 728.8333 572.57496 725.42864 569.0878 724.3555 564.66126 L 720.2855 547.87335 L 720.2855 547.87335" stroke="black" stroke-linecap="round" stroke-linejoin="round" stroke-width="6"/>
      </g>
      <g id="Line_52">
        <path d="M 760.8117 588.554 L 738.20975 604.44975 C 734.3798 607.1433 729.5525 607.99964 725.0298 606.7878 L 725.0298 606.7878 C 720.6303 605.6089 717.2256 602.1217 716.15245 597.6952 L 712.0824 580.9073 L 712.0824 580.9073" stroke="black" stroke-linecap="round" stroke-linejoin="round" stroke-width="6"/>
      </g>
      <g id="Line_54">
        <path d="M 775.8523 287.33213 L 798.2264 282.12312 C 802.8498 281.0467 807.7096 281.76842 811.8207 284.14197 L 811.8207 284.14197 C 815.83955 286.46226 818.5017 290.5693 818.9788 295.1853 L 820.291 307.8801 L 820.291 307.8801" stroke="black" stroke-linecap="round" stroke-linejoin="round" stroke-width="6"/>
      </g>
      <g id="Line_55">
        <path d="M 788.1318 264.23303 L 810.4848 259.4562 C 815.1356 258.46232 819.9898 259.22843 824.1085 261.60634 L 824.1085 261.60634 C 828.1273 263.92663 830.7895 268.0337 831.2666 272.64966 L 832.5788 285.34446 L 832.5788 285.34446" stroke="black" stroke-linecap="round" stroke-linejoin="round" stroke-width="6"/>
      </g>
      <g id="Line_56">
        <path d="M 749.9462 322.31536 L 774.2312 312.78203 C 778.5772 311.07595 783.46365 311.44195 787.507 313.7764 L 787.507 313.7764 C 791.5259 316.0967 794.188 320.20375 794.6652 324.81973 L 795.9774 337.51452 L 795.9774 337.51452" stroke="black" stroke-linecap="round" stroke-linejoin="round" stroke-width="6"/>
      </g>
      <g id="Line_57">
        <path d="M 750 361.2917 L 759.3076 353.12627 C 762.7778 350.08187 767.539 348.97127 771.9981 350.16607 L 771.9981 350.16607 C 776.4806 351.36714 780.115 354.64525 781.7705 358.98045 L 786.3237 370.90305 L 786.3237 370.90305" stroke="black" stroke-linecap="round" stroke-linejoin="round" stroke-width="5"/>
      </g>
      <g id="Line_58">
        <path d="M 619.8097 323.9284 L 626.68676 313.63224 C 629.2508 309.7934 633.56234 307.48835 638.1787 307.48835 L 638.1787 307.48835 C 642.8193 307.48835 647.1783 309.7141 649.8995 313.4731 L 657.3833 323.811 L 657.3833 323.811" stroke="black" stroke-linecap="round" stroke-linejoin="round" stroke-width="5"/>
      </g>
      <g id="Line_59">
        <path d="M 609.9195 310.935 L 626.1843 290.5364 C 629.09504 286.8859 633.5098 284.75963 638.1787 284.75963 L 638.1787 284.75963 C 642.8193 284.75963 647.1783 286.98538 649.8995 290.74437 L 657.3833 301.0823 L 657.3833 301.0823" stroke="black" stroke-linecap="round" stroke-linejoin="round" stroke-width="6"/>
      </g>
      <g id="Line_60">
        <path d="M 619.31945 346.016 L 626.1965 335.7198 C 628.76055 331.881 633.0721 329.57593 637.6885 329.57593 L 637.6885 329.57593 C 642.32904 329.57593 646.68804 331.8017 649.40924 335.56067 L 656.893 345.8986 L 656.893 345.8986" stroke="black" stroke-linecap="round" stroke-linejoin="round" stroke-width="4"/>
      </g>
      <g id="Line_61">
        <path d="M 609.3015 284.71123 L 626.0735 269.01304 C 629.53935 265.76912 634.1089 263.96425 638.856 263.96425 L 638.856 263.96425 C 643.4966 263.96425 647.8556 266.19 650.5768 269.949 L 658.06056 280.2869 L 658.06056 280.2869" stroke="black" stroke-linecap="round" stroke-linejoin="round" stroke-width="6"/>
      </g>
      <g id="Line_62">
        <path d="M 608.3863 258.56705 L 625.3562 243.25368 C 628.887 240.06755 633.4739 238.30393 638.2297 238.30393 L 638.2297 238.30393 C 642.8703 238.30393 647.2293 240.52968 649.9505 244.28867 L 657.4343 254.6266 L 657.4343 254.6266" stroke="black" stroke-linecap="round" stroke-linejoin="round" stroke-width="6"/>
      </g>
    </g>
  </g>
</svg>
