<?xml version="1.0" encoding="UTF-8" standalone="no"?>
<!DOCTYPE svg PUBLIC "-//W3C//DTD SVG 1.1//EN" "http://www.w3.org/Graphics/SVG/1.1/DTD/svg11.dtd">
<svg xmlns:dc="http://purl.org/dc/elements/1.1/" xmlns="http://www.w3.org/2000/svg" version="1.1" xmlns:xl="http://www.w3.org/1999/xlink" viewBox="0 0 850.394 850.394" width="850.394" height="850.394">
  <defs>
    <marker orient="auto" overflow="visible" markerUnits="strokeWidth" id="FilledArrow_Marker" stroke-linejoin="miter" stroke-miterlimit="10" viewBox="-1 -2 5 4" markerWidth="5" markerHeight="4" color="#b1001c">
      <g>
        <path d="M 2.311111 0 L 0 -.8666667 L 0 .8666667 Z" fill="currentColor" stroke="currentColor" stroke-width="1"/>
      </g>
    </marker>
  </defs>
  <metadata> Produced by OmniGraffle 7.9.4 
    <dc:date>2019-03-30 19:11:52 +0000</dc:date>
  </metadata>
  <g id="envelope_follower" stroke-dasharray="none" stroke-opacity="1" fill-opacity="1" fill="none" stroke="none">
    <title>envelope follower</title>
    <g id="envelope_follower: env">
      <title>env</title>
      <g id="Graphic_18">
        <path d="M 15 300.38046 L 150.956 273.61747 L 264.4311 305.73306 L 430.36164 362.4706 L 453.9131 599.05546 L 537.4136 326.07294 C 537.4136 326.07294 605.9269 447.04166 605.9269 445.97114 C 605.9269 444.9006 710.8378 466.311 710.8378 466.311 L 835.0181 596.9144 C 835.0181 596.9144 726.8956 441.68906 726.8956 440.61854 C 726.8956 439.548 660.5234 428.84283 660.5234 428.84283 L 585.587 365.68216 L 537.4136 305.73306 C 537.4136 305.73306 413.23333 295.02786 412.1628 286.4637 C 411.0923 277.89955 342.57903 238.29032 342.57903 238.29032 L 268.71317 252.20708 L 219.46926 177.2707 L 132.75717 169.77706 L 83.51326 70.21873 L 38.551433 206.17473 L 25.705197 278.97007 Z" fill="#ffff80"/>
        <path d="M 15 300.38046 L 150.956 273.61747 L 264.4311 305.73306 L 430.36164 362.4706 L 453.9131 599.05546 L 537.4136 326.07294 C 537.4136 326.07294 605.9269 447.04166 605.9269 445.97114 C 605.9269 444.9006 710.8378 466.311 710.8378 466.311 L 835.0181 596.9144 C 835.0181 596.9144 726.8956 441.68906 726.8956 440.61854 C 726.8956 439.548 660.5234 428.84283 660.5234 428.84283 L 585.587 365.68216 L 537.4136 305.73306 C 537.4136 305.73306 413.23333 295.02786 412.1628 286.4637 C 411.0923 277.89955 342.57903 238.29032 342.57903 238.29032 L 268.71317 252.20708 L 219.46926 177.2707 L 132.75717 169.77706 L 83.51326 70.21873 L 38.551433 206.17473 L 25.705197 278.97007 Z" stroke="black" stroke-linecap="round" stroke-linejoin="round" stroke-dasharray="3.0,12.0" stroke-width="3"/>
      </g>
      <g id="Line_16">
        <path d="M 18.21156 297.2221 L 82.09631 69 L 131.27788 168.08117 L 212.58496 181.91482 L 297.47904 301.60434" stroke="#6d5000" stroke-linecap="round" stroke-linejoin="round" stroke-dasharray="5.0,20.0" stroke-width="5"/>
      </g>
      <g id="Graphic_13">
        <circle cx="281.4426" cy="309.28334" r="50.8475096729168" fill="#a5a5a5"/>
        <circle cx="281.4426" cy="309.28334" r="50.8475096729168" stroke="black" stroke-linecap="round" stroke-linejoin="round" stroke-width="18"/>
      </g>
      <g id="Graphic_12">
        <path d="M 333.74165 313.19785 L 414.0157 419.3005 C 420.41533 425.7001 421.9169 425.4876 408.1456 439.25895 C 394.37425 453.0303 395.17376 447.4196 388.77414 441.02 L 283.84552 363.094 C 277.4459 356.69436 283.42874 340.32373 297.20007 326.5524 C 310.9714 312.78107 327.34203 306.79823 333.74165 313.19785 Z" fill="#666"/>
        <path d="M 333.74165 313.19785 L 414.0157 419.3005 C 420.41533 425.7001 421.9169 425.4876 408.1456 439.25895 C 394.37425 453.0303 395.17376 447.4196 388.77414 441.02 L 283.84552 363.094 C 277.4459 356.69436 283.42874 340.32373 297.20007 326.5524 C 310.9714 312.78107 327.34203 306.79823 333.74165 313.19785 Z" stroke="black" stroke-linecap="round" stroke-linejoin="round" stroke-width="7"/>
      </g>
      <g id="Line_11">
        <path d="M 411.6309 436.85737 L 426.7561 461.94935 L 460.6011 472.45297 L 481.6083 488.79193" stroke="black" stroke-linecap="round" stroke-linejoin="round" stroke-width="17"/>
      </g>
      <g id="Line_10">
        <path d="M 451.77204 597.67804 L 539.1161 324.29083 L 606.3578 442.98014 L 717.5219 459.5515 L 833.5902 602.9275" stroke="black" stroke-linecap="round" stroke-linejoin="round" stroke-width="11"/>
      </g>
      <g id="Line_20">
        <path d="M 477.4645 612.9722 L 540.8692 406.8032 L 583.1537 481.2378 L 699.2333 491.1755 L 788.9154 602.5921" marker-end="url(#FilledArrow_Marker)" stroke="#b1001c" stroke-linecap="round" stroke-linejoin="round" stroke-width="9"/>
      </g>
    </g>
    <g id="envelope_follower: Layer 1">
      <title>Layer 1</title>
      <g id="Graphic_2">
        <path d="M 258.1017 271.93016 L 256.18264 270.0961 C 256.18264 270.0961 252.66436 260.7439 252.66436 260.50076 C 252.66436 260.2576 249.14607 258.5817 249.14607 258.5817 L 246.26748 264.65874 C 246.26748 264.65874 243.77046 246.64286 243.55495 252.23524 C 243.33945 257.82763 239.78357 264.3926 239.78357 264.3926 C 239.78357 264.3926 237.30524 257.09818 237.30524 256.1256 C 237.30524 255.153 237.52075 248.10174 237.30524 245.18398 C 237.08973 242.2662 235.68893 235.4581 235.25792 235.21495 C 234.8269 234.9718 231.37878 232.78348 231.27103 233.02662 C 231.16328 233.26977 230.409 232.05404 230.30125 234.72865 C 230.1935 237.40327 227.71516 254.90986 227.71516 255.39616 C 227.71516 255.88245 228.90045 271.44386 226.09885 263.42 C 223.29725 255.39616 222.974 252.4784 222.974 252.4784 C 222.974 252.4784 224.26704 239.34845 224.05153 233.02662 C 223.83602 226.7048 218.12508 217.70836 218.01732 217.70836 C 217.90957 217.70836 214.67696 218.4378 214.5692 218.9241 C 214.46145 219.4104 212.09087 237.16012 212.09087 240.32104 C 212.09087 243.48195 210.47456 255.88245 210.3668 259.7728 C 210.25905 263.66316 209.07376 263.66316 208.64275 263.66316 C 208.21173 263.66316 206.27217 254.42357 206.16441 254.42357 C 206.05666 254.42357 204.65586 250.77636 204.5481 250.77636 C 204.44035 250.77636 200.88448 249.56063 200.88448 249.56063 L 199.48368 250.5332 L 199.53082 224.10524 L 203.03955 251.26265 C 203.03955 251.26265 204.44035 254.18042 204.5481 254.18042 C 204.65586 254.18042 205.7334 259.04336 205.7334 259.04336 L 207.02644 264.3926 L 209.50478 266.58092 C 209.50478 266.58092 211.65985 263.9063 211.65985 263.66316 C 211.65985 263.42 211.7676 254.18042 211.7676 254.18042 L 213.1684 243.2388 C 213.1684 243.2388 213.92268 236.91698 214.03043 236.43068 C 214.1382 235.9444 215.21573 226.46165 215.21573 226.2185 C 215.21573 225.97536 216.50877 223.0576 216.61652 222.81445 C 216.72428 222.5713 218.66384 223.30074 218.66384 223.30074 L 221.24993 227.6774 L 222.54298 233.02662 L 222.54298 238.1327 C 222.54298 238.1327 221.7887 244.94083 221.68095 244.94083 C 221.5732 244.94083 221.5732 254.42357 221.5732 254.42357 C 221.5732 254.42357 221.7887 257.82763 222.0042 258.07077 C 222.21972 258.31392 224.05153 264.14945 224.05153 264.3926 C 224.05153 264.63574 226.09885 269.0124 226.2066 269.0124 C 226.31436 269.0124 227.49965 269.0124 227.49965 269.0124 L 229.33146 267.79666 L 229.76248 258.31392 C 229.76248 258.31392 229.97799 253.69413 229.97799 253.45098 C 229.97799 253.20783 231.16328 244.69768 231.16328 244.69768 L 232.56407 235.9444 L 233.74937 238.619 C 233.74937 238.619 234.93466 245.42712 235.0424 245.42712 C 235.15016 245.42712 235.58118 250.04692 235.58118 250.29007 C 235.58118 250.5332 235.58118 258.55707 235.58118 258.55707 L 236.55096 263.42 L 238.70604 269.0124 L 240.75336 270.47127 C 240.75336 270.47127 242.36966 264.3926 242.58517 264.3926 C 242.80068 264.3926 245.0635 257.82763 245.0635 257.82763 L 246.35655 252.96468 L 247.00307 246.15657 L 250.7453 264.01905 L 250.7453 264.65874 L 249.78576 265.61827 C 249.78576 265.61827 250.63754 265.37512 250.7453 265.61827 C 250.85305 265.8614 249.678 262.09998 249.78576 262.09998 C 249.89351 262.09998 258.1017 271.93016 258.1017 271.93016 Z" fill="red"/>
        <path d="M 258.1017 271.93016 L 256.18264 270.0961 C 256.18264 270.0961 252.66436 260.7439 252.66436 260.50076 C 252.66436 260.2576 249.14607 258.5817 249.14607 258.5817 L 246.26748 264.65874 C 246.26748 264.65874 243.77046 246.64286 243.55495 252.23524 C 243.33945 257.82763 239.78357 264.3926 239.78357 264.3926 C 239.78357 264.3926 237.30524 257.09818 237.30524 256.1256 C 237.30524 255.153 237.52075 248.10174 237.30524 245.18398 C 237.08973 242.2662 235.68893 235.4581 235.25792 235.21495 C 234.8269 234.9718 231.37878 232.78348 231.27103 233.02662 C 231.16328 233.26977 230.409 232.05404 230.30125 234.72865 C 230.1935 237.40327 227.71516 254.90986 227.71516 255.39616 C 227.71516 255.88245 228.90045 271.44386 226.09885 263.42 C 223.29725 255.39616 222.974 252.4784 222.974 252.4784 C 222.974 252.4784 224.26704 239.34845 224.05153 233.02662 C 223.83602 226.7048 218.12508 217.70836 218.01732 217.70836 C 217.90957 217.70836 214.67696 218.4378 214.5692 218.9241 C 214.46145 219.4104 212.09087 237.16012 212.09087 240.32104 C 212.09087 243.48195 210.47456 255.88245 210.3668 259.7728 C 210.25905 263.66316 209.07376 263.66316 208.64275 263.66316 C 208.21173 263.66316 206.27217 254.42357 206.16441 254.42357 C 206.05666 254.42357 204.65586 250.77636 204.5481 250.77636 C 204.44035 250.77636 200.88448 249.56063 200.88448 249.56063 L 199.48368 250.5332 L 199.53082 224.10524 L 203.03955 251.26265 C 203.03955 251.26265 204.44035 254.18042 204.5481 254.18042 C 204.65586 254.18042 205.7334 259.04336 205.7334 259.04336 L 207.02644 264.3926 L 209.50478 266.58092 C 209.50478 266.58092 211.65985 263.9063 211.65985 263.66316 C 211.65985 263.42 211.7676 254.18042 211.7676 254.18042 L 213.1684 243.2388 C 213.1684 243.2388 213.92268 236.91698 214.03043 236.43068 C 214.1382 235.9444 215.21573 226.46165 215.21573 226.2185 C 215.21573 225.97536 216.50877 223.0576 216.61652 222.81445 C 216.72428 222.5713 218.66384 223.30074 218.66384 223.30074 L 221.24993 227.6774 L 222.54298 233.02662 L 222.54298 238.1327 C 222.54298 238.1327 221.7887 244.94083 221.68095 244.94083 C 221.5732 244.94083 221.5732 254.42357 221.5732 254.42357 C 221.5732 254.42357 221.7887 257.82763 222.0042 258.07077 C 222.21972 258.31392 224.05153 264.14945 224.05153 264.3926 C 224.05153 264.63574 226.09885 269.0124 226.2066 269.0124 C 226.31436 269.0124 227.49965 269.0124 227.49965 269.0124 L 229.33146 267.79666 L 229.76248 258.31392 C 229.76248 258.31392 229.97799 253.69413 229.97799 253.45098 C 229.97799 253.20783 231.16328 244.69768 231.16328 244.69768 L 232.56407 235.9444 L 233.74937 238.619 C 233.74937 238.619 234.93466 245.42712 235.0424 245.42712 C 235.15016 245.42712 235.58118 250.04692 235.58118 250.29007 C 235.58118 250.5332 235.58118 258.55707 235.58118 258.55707 L 236.55096 263.42 L 238.70604 269.0124 L 240.75336 270.47127 C 240.75336 270.47127 242.36966 264.3926 242.58517 264.3926 C 242.80068 264.3926 245.0635 257.82763 245.0635 257.82763 L 246.35655 252.96468 L 247.00307 246.15657 L 250.7453 264.01905 L 250.7453 264.65874 L 249.78576 265.61827 C 249.78576 265.61827 250.63754 265.37512 250.7453 265.61827 C 250.85305 265.8614 249.678 262.09998 249.78576 262.09998 C 249.89351 262.09998 258.1017 271.93016 258.1017 271.93016 Z" stroke="#b1001c" stroke-linecap="round" stroke-linejoin="round" stroke-width="5"/>
      </g>
      <g id="Graphic_3">
        <path d="M 96.20578 241.26266 L 102.76463 229.89067 C 102.76463 229.89067 105.56149 198.6174 105.56149 198.10471 C 105.56149 197.59204 108.73451 135.12188 108.73451 135.12188 L 109.88391 205.79486 C 109.88391 205.79486 111.83324 221.68784 112.00274 233.4794 C 112.17225 245.27097 114.96911 259.11324 114.96911 259.11324 C 114.96911 259.11324 116.91844 243.73294 116.91844 241.68223 C 116.91844 239.63153 116.74893 224.7639 116.91844 218.61178 C 117.08794 212.45966 118.18974 198.10471 118.52875 197.59204 C 118.86776 197.07936 120.16415 159.55704 120.2489 160.06972 C 120.33366 160.5824 122.34265 190.92724 122.4274 196.56668 C 122.51215 202.20613 124.46148 239.11885 124.46148 240.1442 C 124.46148 241.16956 123.5292 273.98086 125.73278 257.06253 C 127.93637 240.1442 128.19063 233.99208 128.19063 233.99208 C 128.19063 233.99208 127.17359 206.30754 127.3431 192.97795 C 127.5126 179.64835 132.63807 185.65724 132.72282 185.65724 C 132.80757 185.65724 135.19682 186.55095 135.28157 187.5763 C 135.36633 188.60166 136.75071 201.69345 136.75071 208.35825 C 136.75071 215.02304 138.02201 241.16956 138.10676 249.37238 C 138.19152 257.5752 139.1238 257.5752 139.46282 257.5752 C 139.80183 257.5752 141.32739 238.0935 141.41214 238.0935 C 141.4969 238.0935 142.59869 230.40334 142.68344 230.40334 C 142.7682 230.40334 145.56505 227.83996 145.56505 227.83996 L 146.66685 229.89067 L 145.81931 231.4287 L 143.86999 231.4287 C 143.86999 231.4287 142.7682 237.58082 142.68344 237.58082 C 142.59869 237.58082 141.75115 247.83435 141.75115 247.83435 L 140.73411 259.11324 L 138.78479 263.72733 C 138.78479 263.72733 137.08972 258.0879 137.08972 257.5752 C 137.08972 257.06253 137.00497 237.58082 137.00497 237.58082 L 135.90318 214.51037 C 135.90318 214.51037 135.3099 201.18077 135.22515 200.15542 C 135.1404 199.13007 134.32204 185.21039 134.32204 184.69771 C 134.32204 184.18503 132.80757 191.60727 132.72282 191.0946 C 132.63807 190.58192 130.80376 181.17943 130.80376 181.17943 L 129.54668 181.69906 L 128.52964 192.97795 L 128.52964 203.74416 C 128.52964 203.74416 129.12291 218.0991 129.20767 218.0991 C 129.29242 218.0991 129.29242 238.0935 129.29242 238.0935 C 129.29242 238.0935 129.12291 245.27097 128.9534 245.78365 C 128.7839 246.29632 127.3431 258.60056 127.3431 259.11324 C 127.3431 259.62592 125.73278 268.8541 125.64803 268.8541 C 125.56327 268.8541 124.63099 268.8541 124.63099 268.8541 L 123.19018 266.2907 L 122.85117 246.29632 C 122.85117 246.29632 122.68166 236.55546 122.68166 236.0428 C 122.68166 235.5301 121.74937 217.58643 121.74937 217.58643 L 120.2489 169.66504 L 120.2489 166.14675 C 120.2489 166.14675 118.78301 219.12446 118.69826 219.12446 C 118.6135 219.12446 118.27449 228.86531 118.27449 229.378 C 118.27449 229.89067 118.27449 246.809 118.27449 246.809 L 117.51171 257.06253 L 115.81664 268.8541 L 114.20633 271.93016 C 114.20633 271.93016 112.93503 259.11324 112.76552 259.11324 C 112.59602 259.11324 110.8162 245.27097 110.8162 245.27097 L 109.79916 235.01743 L 109.29064 220.6625 L 108.73451 147.5958 L 107.77498 145.67673 L 106.91755 198.10471 C 106.91755 198.10471 106.74804 208.87092 106.66329 209.3836 C 106.57853 209.89628 105.22248 226.8146 105.13773 226.8146 C 105.05297 226.8146 96.20578 241.26266 96.20578 241.26266 Z" fill="red"/>
        <path d="M 96.20578 241.26266 L 102.76463 229.89067 C 102.76463 229.89067 105.56149 198.6174 105.56149 198.10471 C 105.56149 197.59204 108.73451 135.12188 108.73451 135.12188 L 109.88391 205.79486 C 109.88391 205.79486 111.83324 221.68784 112.00274 233.4794 C 112.17225 245.27097 114.96911 259.11324 114.96911 259.11324 C 114.96911 259.11324 116.91844 243.73294 116.91844 241.68223 C 116.91844 239.63153 116.74893 224.7639 116.91844 218.61178 C 117.08794 212.45966 118.18974 198.10471 118.52875 197.59204 C 118.86776 197.07936 120.16415 159.55704 120.2489 160.06972 C 120.33366 160.5824 122.34265 190.92724 122.4274 196.56668 C 122.51215 202.20613 124.46148 239.11885 124.46148 240.1442 C 124.46148 241.16956 123.5292 273.98086 125.73278 257.06253 C 127.93637 240.1442 128.19063 233.99208 128.19063 233.99208 C 128.19063 233.99208 127.17359 206.30754 127.3431 192.97795 C 127.5126 179.64835 132.63807 185.65724 132.72282 185.65724 C 132.80757 185.65724 135.19682 186.55095 135.28157 187.5763 C 135.36633 188.60166 136.75071 201.69345 136.75071 208.35825 C 136.75071 215.02304 138.02201 241.16956 138.10676 249.37238 C 138.19152 257.5752 139.1238 257.5752 139.46282 257.5752 C 139.80183 257.5752 141.32739 238.0935 141.41214 238.0935 C 141.4969 238.0935 142.59869 230.40334 142.68344 230.40334 C 142.7682 230.40334 145.56505 227.83996 145.56505 227.83996 L 146.66685 229.89067 L 145.81931 231.4287 L 143.86999 231.4287 C 143.86999 231.4287 142.7682 237.58082 142.68344 237.58082 C 142.59869 237.58082 141.75115 247.83435 141.75115 247.83435 L 140.73411 259.11324 L 138.78479 263.72733 C 138.78479 263.72733 137.08972 258.0879 137.08972 257.5752 C 137.08972 257.06253 137.00497 237.58082 137.00497 237.58082 L 135.90318 214.51037 C 135.90318 214.51037 135.3099 201.18077 135.22515 200.15542 C 135.1404 199.13007 134.32204 185.21039 134.32204 184.69771 C 134.32204 184.18503 132.80757 191.60727 132.72282 191.0946 C 132.63807 190.58192 130.80376 181.17943 130.80376 181.17943 L 129.54668 181.69906 L 128.52964 192.97795 L 128.52964 203.74416 C 128.52964 203.74416 129.12291 218.0991 129.20767 218.0991 C 129.29242 218.0991 129.29242 238.0935 129.29242 238.0935 C 129.29242 238.0935 129.12291 245.27097 128.9534 245.78365 C 128.7839 246.29632 127.3431 258.60056 127.3431 259.11324 C 127.3431 259.62592 125.73278 268.8541 125.64803 268.8541 C 125.56327 268.8541 124.63099 268.8541 124.63099 268.8541 L 123.19018 266.2907 L 122.85117 246.29632 C 122.85117 246.29632 122.68166 236.55546 122.68166 236.0428 C 122.68166 235.5301 121.74937 217.58643 121.74937 217.58643 L 120.2489 169.66504 L 120.2489 166.14675 C 120.2489 166.14675 118.78301 219.12446 118.69826 219.12446 C 118.6135 219.12446 118.27449 228.86531 118.27449 229.378 C 118.27449 229.89067 118.27449 246.809 118.27449 246.809 L 117.51171 257.06253 L 115.81664 268.8541 L 114.20633 271.93016 C 114.20633 271.93016 112.93503 259.11324 112.76552 259.11324 C 112.59602 259.11324 110.8162 245.27097 110.8162 245.27097 L 109.79916 235.01743 L 109.29064 220.6625 L 108.73451 147.5958 L 107.77498 145.67673 L 106.91755 198.10471 C 106.91755 198.10471 106.74804 208.87092 106.66329 209.3836 C 106.57853 209.89628 105.22248 226.8146 105.13773 226.8146 C 105.05297 226.8146 96.20578 241.26266 96.20578 241.26266 Z" stroke="#b1001c" stroke-linecap="round" stroke-linejoin="round" stroke-width="5"/>
      </g>
      <g id="Graphic_5">
        <path d="M 146.36648 228.21935 L 156.98025 227.12623 C 156.98025 227.12623 159.7771 195.85295 159.7771 195.34027 C 159.7771 194.8276 161.82863 185.65724 161.82863 185.65724 L 164.09952 203.03042 C 164.09952 203.03042 166.04885 218.9234 166.21836 230.71496 C 166.38786 242.50653 169.18472 256.3488 169.18472 256.3488 C 169.18472 256.3488 171.13405 240.9685 171.13405 238.9178 C 171.13405 236.86708 170.96454 221.99946 171.13405 215.84734 C 171.30356 209.69522 172.40535 195.34027 172.74436 194.8276 C 173.08338 194.31492 175.79548 189.70083 175.88023 190.2135 C 175.96499 190.72618 176.55826 188.1628 176.64301 193.80224 C 176.72777 199.44169 178.6771 236.3544 178.6771 237.37976 C 178.6771 238.40511 177.7448 271.21642 179.9484 254.2981 C 182.15198 237.37976 182.40624 231.22764 182.40624 231.22764 C 182.40624 231.22764 182.12915 214.97904 182.29866 201.64945 C 182.46816 188.31985 188.61079 193.65335 188.69554 193.65335 C 188.7803 193.65335 189.57032 197.1058 189.65507 198.13116 C 189.73982 199.15652 190.96632 198.929 190.96632 205.5938 C 190.96632 212.2586 192.23762 238.40511 192.32238 246.60794 C 192.40713 254.81077 193.33942 254.81077 193.67843 254.81077 C 194.01744 254.81077 195.543 235.32905 195.62775 235.32905 C 195.7125 235.32905 196.8143 227.6389 196.89905 227.6389 C 196.9838 227.6389 199.78067 225.07552 199.78067 225.07552 L 200.88246 227.12623 L 200.03493 228.66426 L 198.0856 228.66426 C 198.0856 228.66426 196.9838 234.81638 196.89905 234.81638 C 196.8143 234.81638 195.96677 245.0699 195.96677 245.0699 L 194.94973 256.3488 L 193.0004 260.9629 C 193.0004 260.9629 191.30534 255.32345 191.30534 254.81077 C 191.30534 254.2981 191.22058 234.81638 191.22058 234.81638 L 190.1188 211.74593 C 190.1188 211.74593 189.52552 198.41633 189.44076 197.39098 C 189.356 196.36563 189.65507 205.6804 189.65507 205.16773 C 189.65507 204.65506 190.37951 217.1948 190.29476 216.68212 C 190.21 216.16944 185.81694 197.17163 185.81694 197.17163 L 186.77647 192.69381 L 184.21772 201.64945 L 182.74525 200.97972 C 182.74525 200.97972 183.33853 215.33466 183.42328 215.33466 C 183.50803 215.33466 183.50803 235.32905 183.50803 235.32905 C 183.50803 235.32905 183.33853 242.50653 183.16902 243.0192 C 182.99951 243.53188 181.5587 255.83612 181.5587 256.3488 C 181.5587 256.86148 179.9484 266.08966 179.86364 266.08966 C 179.77889 266.08966 178.8466 266.08966 178.8466 266.08966 L 177.4058 263.52627 L 177.06678 243.53188 C 177.06678 243.53188 176.89727 233.79102 176.89727 233.27835 C 176.89727 232.76567 175.96499 214.82199 175.96499 214.82199 L 174.8632 196.36563 L 173.9309 202.00507 C 173.9309 202.00507 172.99862 216.36002 172.91387 216.36002 C 172.82912 216.36002 172.4901 226.10087 172.4901 226.61355 C 172.4901 227.12623 172.4901 244.04456 172.4901 244.04456 L 171.72732 254.2981 L 170.03226 266.08966 L 168.42194 269.1657 C 168.42194 269.1657 167.15064 256.3488 166.98114 256.3488 C 166.81163 256.3488 165.03181 242.50653 165.03181 242.50653 L 164.01477 232.253 L 163.50625 217.89805 L 162.3197 204.56845 L 162.3197 190.72618 L 161.13316 195.34027 C 161.13316 195.34027 160.96365 206.10648 160.8789 206.61916 C 160.79415 207.13184 159.4381 224.05017 159.35334 224.05017 C 159.26859 224.05017 146.36648 228.21935 146.36648 228.21935 Z" fill="red"/>
        <path d="M 146.36648 228.21935 L 156.98025 227.12623 C 156.98025 227.12623 159.7771 195.85295 159.7771 195.34027 C 159.7771 194.8276 161.82863 185.65724 161.82863 185.65724 L 164.09952 203.03042 C 164.09952 203.03042 166.04885 218.9234 166.21836 230.71496 C 166.38786 242.50653 169.18472 256.3488 169.18472 256.3488 C 169.18472 256.3488 171.13405 240.9685 171.13405 238.9178 C 171.13405 236.86708 170.96454 221.99946 171.13405 215.84734 C 171.30356 209.69522 172.40535 195.34027 172.74436 194.8276 C 173.08338 194.31492 175.79548 189.70083 175.88023 190.2135 C 175.96499 190.72618 176.55826 188.1628 176.64301 193.80224 C 176.72777 199.44169 178.6771 236.3544 178.6771 237.37976 C 178.6771 238.40511 177.7448 271.21642 179.9484 254.2981 C 182.15198 237.37976 182.40624 231.22764 182.40624 231.22764 C 182.40624 231.22764 182.12915 214.97904 182.29866 201.64945 C 182.46816 188.31985 188.61079 193.65335 188.69554 193.65335 C 188.7803 193.65335 189.57032 197.1058 189.65507 198.13116 C 189.73982 199.15652 190.96632 198.929 190.96632 205.5938 C 190.96632 212.2586 192.23762 238.40511 192.32238 246.60794 C 192.40713 254.81077 193.33942 254.81077 193.67843 254.81077 C 194.01744 254.81077 195.543 235.32905 195.62775 235.32905 C 195.7125 235.32905 196.8143 227.6389 196.89905 227.6389 C 196.9838 227.6389 199.78067 225.07552 199.78067 225.07552 L 200.88246 227.12623 L 200.03493 228.66426 L 198.0856 228.66426 C 198.0856 228.66426 196.9838 234.81638 196.89905 234.81638 C 196.8143 234.81638 195.96677 245.0699 195.96677 245.0699 L 194.94973 256.3488 L 193.0004 260.9629 C 193.0004 260.9629 191.30534 255.32345 191.30534 254.81077 C 191.30534 254.2981 191.22058 234.81638 191.22058 234.81638 L 190.1188 211.74593 C 190.1188 211.74593 189.52552 198.41633 189.44076 197.39098 C 189.356 196.36563 189.65507 205.6804 189.65507 205.16773 C 189.65507 204.65506 190.37951 217.1948 190.29476 216.68212 C 190.21 216.16944 185.81694 197.17163 185.81694 197.17163 L 186.77647 192.69381 L 184.21772 201.64945 L 182.74525 200.97972 C 182.74525 200.97972 183.33853 215.33466 183.42328 215.33466 C 183.50803 215.33466 183.50803 235.32905 183.50803 235.32905 C 183.50803 235.32905 183.33853 242.50653 183.16902 243.0192 C 182.99951 243.53188 181.5587 255.83612 181.5587 256.3488 C 181.5587 256.86148 179.9484 266.08966 179.86364 266.08966 C 179.77889 266.08966 178.8466 266.08966 178.8466 266.08966 L 177.4058 263.52627 L 177.06678 243.53188 C 177.06678 243.53188 176.89727 233.79102 176.89727 233.27835 C 176.89727 232.76567 175.96499 214.82199 175.96499 214.82199 L 174.8632 196.36563 L 173.9309 202.00507 C 173.9309 202.00507 172.99862 216.36002 172.91387 216.36002 C 172.82912 216.36002 172.4901 226.10087 172.4901 226.61355 C 172.4901 227.12623 172.4901 244.04456 172.4901 244.04456 L 171.72732 254.2981 L 170.03226 266.08966 L 168.42194 269.1657 C 168.42194 269.1657 167.15064 256.3488 166.98114 256.3488 C 166.81163 256.3488 165.03181 242.50653 165.03181 242.50653 L 164.01477 232.253 L 163.50625 217.89805 L 162.3197 204.56845 L 162.3197 190.72618 L 161.13316 195.34027 C 161.13316 195.34027 160.96365 206.10648 160.8789 206.61916 C 160.79415 207.13184 159.4381 224.05017 159.35334 224.05017 C 159.26859 224.05017 146.36648 228.21935 146.36648 228.21935 Z" stroke="#b1001c" stroke-linecap="round" stroke-linejoin="round" stroke-width="5"/>
      </g>
      <g id="Graphic_9">
        <path d="M 46.04507 274.96045 L 52.303565 237.98356 C 52.303565 237.98356 54.36102 230.62825 54.36102 230.11557 C 54.36102 229.6029 58.838835 215.0829 58.838835 215.0829 L 59.42284 213.88776 C 59.42284 213.88776 61.37217 229.78074 61.541675 241.5723 C 61.71118 253.36386 64.50804 267.20614 64.50804 267.20614 C 64.50804 267.20614 66.45737 251.82583 66.45737 249.77513 C 66.45737 247.72442 66.28786 232.8568 66.45737 226.70468 C 66.62687 220.55256 67.72867 206.1976 68.06768 205.68493 C 68.40669 205.17226 71.1188 200.55817 71.20355 201.07084 C 71.288305 201.58352 71.88158 199.02014 71.96633 204.65958 C 72.051085 210.29902 74.00041 247.21174 74.00041 248.2371 C 74.00041 249.26245 73.068125 282.07376 75.27171 265.15543 C 77.4753 248.2371 77.72956 242.08498 77.72956 242.08498 C 77.72956 242.08498 76.71252 214.40044 76.88202 201.07084 C 77.05153 187.74125 79.2241 156.55143 79.30886 156.55143 C 79.39361 156.55143 82.74239 142.09263 82.82714 143.11798 C 82.9119 144.14333 86.28964 209.78635 86.28964 216.45114 C 86.28964 223.11594 87.56094 249.26245 87.64569 257.46528 C 87.73045 265.6681 88.66273 265.6681 89.00175 265.6681 C 89.34076 265.6681 90.86632 246.1864 90.95107 246.1864 C 91.03583 246.1864 92.13762 238.49624 92.22237 238.49624 C 92.30712 238.49624 92.74231 116.25107 92.74231 116.25107 C 92.74231 116.25107 100.23235 322.74027 96.20578 237.98356 C 92.1792 153.22685 92.74231 122.64796 92.74231 122.64796 L 93.40892 239.5216 C 93.40892 239.5216 92.30712 245.6737 92.22237 245.6737 C 92.13762 245.6737 91.29009 255.92725 91.29009 255.92725 L 90.27305 267.20614 L 88.32372 271.82023 C 88.32372 271.82023 86.62865 266.18078 86.62865 265.6681 C 86.62865 265.15543 86.5439 245.6737 86.5439 245.6737 L 85.44211 222.60326 C 85.44211 222.60326 84.84883 209.27367 84.76408 208.24832 C 84.67933 207.22296 83.83179 187.22857 83.83179 186.7159 C 83.83179 186.20322 80.35314 160.5824 80.26839 160.06972 C 80.18364 159.55704 79.30886 163.588 79.30886 163.588 L 79.08561 189.79195 L 78.06857 201.07084 L 78.06857 211.83705 C 78.06857 211.83705 78.66184 226.192 78.7466 226.192 C 78.83135 226.192 78.83135 246.1864 78.83135 246.1864 C 78.83135 246.1864 78.66184 253.36386 78.49234 253.87654 C 78.32283 254.38922 76.88202 266.69346 76.88202 267.20614 C 76.88202 267.7188 75.27171 276.947 75.18696 276.947 C 75.1022 276.947 74.16992 276.947 74.16992 276.947 L 72.72911 274.3836 L 72.3901 254.38922 C 72.3901 254.38922 72.22059 244.64836 72.22059 244.13568 C 72.22059 243.623 71.288305 225.67932 71.288305 225.67932 L 70.18651 207.22296 L 69.254226 212.8624 C 69.254226 212.8624 68.32194 227.21735 68.23719 227.21735 C 68.15243 227.21735 67.81342 236.9582 67.81342 237.4709 C 67.81342 237.98356 67.81342 254.9019 67.81342 254.9019 L 67.05064 265.15543 L 65.35557 276.947 L 63.74526 280.02305 C 63.74526 280.02305 62.47396 267.20614 62.304455 267.20614 C 62.13495 267.20614 60.35513 253.36386 60.35513 253.36386 L 59.33809 243.11033 L 58.82957 228.75538 L 57.64302 215.4258 L 59.79837 217.64165 L 57.239615 226.5973 C 57.239615 226.5973 56.28697 216.96382 56.202217 217.4765 C 56.11746 217.98917 54.76141 234.9075 54.67666 234.9075 C 54.591904 234.9075 46.04507 274.96045 46.04507 274.96045 Z" fill="red"/>
        <path d="M 46.04507 274.96045 L 52.303565 237.98356 C 52.303565 237.98356 54.36102 230.62825 54.36102 230.11557 C 54.36102 229.6029 58.838835 215.0829 58.838835 215.0829 L 59.42284 213.88776 C 59.42284 213.88776 61.37217 229.78074 61.541675 241.5723 C 61.71118 253.36386 64.50804 267.20614 64.50804 267.20614 C 64.50804 267.20614 66.45737 251.82583 66.45737 249.77513 C 66.45737 247.72442 66.28786 232.8568 66.45737 226.70468 C 66.62687 220.55256 67.72867 206.1976 68.06768 205.68493 C 68.40669 205.17226 71.1188 200.55817 71.20355 201.07084 C 71.288305 201.58352 71.88158 199.02014 71.96633 204.65958 C 72.051085 210.29902 74.00041 247.21174 74.00041 248.2371 C 74.00041 249.26245 73.068125 282.07376 75.27171 265.15543 C 77.4753 248.2371 77.72956 242.08498 77.72956 242.08498 C 77.72956 242.08498 76.71252 214.40044 76.88202 201.07084 C 77.05153 187.74125 79.2241 156.55143 79.30886 156.55143 C 79.39361 156.55143 82.74239 142.09263 82.82714 143.11798 C 82.9119 144.14333 86.28964 209.78635 86.28964 216.45114 C 86.28964 223.11594 87.56094 249.26245 87.64569 257.46528 C 87.73045 265.6681 88.66273 265.6681 89.00175 265.6681 C 89.34076 265.6681 90.86632 246.1864 90.95107 246.1864 C 91.03583 246.1864 92.13762 238.49624 92.22237 238.49624 C 92.30712 238.49624 92.74231 116.25107 92.74231 116.25107 C 92.74231 116.25107 100.23235 322.74027 96.20578 237.98356 C 92.1792 153.22685 92.74231 122.64796 92.74231 122.64796 L 93.40892 239.5216 C 93.40892 239.5216 92.30712 245.6737 92.22237 245.6737 C 92.13762 245.6737 91.29009 255.92725 91.29009 255.92725 L 90.27305 267.20614 L 88.32372 271.82023 C 88.32372 271.82023 86.62865 266.18078 86.62865 265.6681 C 86.62865 265.15543 86.5439 245.6737 86.5439 245.6737 L 85.44211 222.60326 C 85.44211 222.60326 84.84883 209.27367 84.76408 208.24832 C 84.67933 207.22296 83.83179 187.22857 83.83179 186.7159 C 83.83179 186.20322 80.35314 160.5824 80.26839 160.06972 C 80.18364 159.55704 79.30886 163.588 79.30886 163.588 L 79.08561 189.79195 L 78.06857 201.07084 L 78.06857 211.83705 C 78.06857 211.83705 78.66184 226.192 78.7466 226.192 C 78.83135 226.192 78.83135 246.1864 78.83135 246.1864 C 78.83135 246.1864 78.66184 253.36386 78.49234 253.87654 C 78.32283 254.38922 76.88202 266.69346 76.88202 267.20614 C 76.88202 267.7188 75.27171 276.947 75.18696 276.947 C 75.1022 276.947 74.16992 276.947 74.16992 276.947 L 72.72911 274.3836 L 72.3901 254.38922 C 72.3901 254.38922 72.22059 244.64836 72.22059 244.13568 C 72.22059 243.623 71.288305 225.67932 71.288305 225.67932 L 70.18651 207.22296 L 69.254226 212.8624 C 69.254226 212.8624 68.32194 227.21735 68.23719 227.21735 C 68.15243 227.21735 67.81342 236.9582 67.81342 237.4709 C 67.81342 237.98356 67.81342 254.9019 67.81342 254.9019 L 67.05064 265.15543 L 65.35557 276.947 L 63.74526 280.02305 C 63.74526 280.02305 62.47396 267.20614 62.304455 267.20614 C 62.13495 267.20614 60.35513 253.36386 60.35513 253.36386 L 59.33809 243.11033 L 58.82957 228.75538 L 57.64302 215.4258 L 59.79837 217.64165 L 57.239615 226.5973 C 57.239615 226.5973 56.28697 216.96382 56.202217 217.4765 C 56.11746 217.98917 54.76141 234.9075 54.67666 234.9075 C 54.591904 234.9075 46.04507 274.96045 46.04507 274.96045 Z" stroke="#b1001c" stroke-linecap="round" stroke-linejoin="round" stroke-width="5"/>
      </g>
    </g>
  </g>
</svg>
