<?xml version="1.0" encoding="UTF-8" standalone="no"?>
<!DOCTYPE svg PUBLIC "-//W3C//DTD SVG 1.1//EN" "http://www.w3.org/Graphics/SVG/1.1/DTD/svg11.dtd">
<svg xmlns="http://www.w3.org/2000/svg" version="1.1" xmlns:dc="http://purl.org/dc/elements/1.1/" xmlns:xl="http://www.w3.org/1999/xlink" viewBox="0 0 850.394 850.394" width="850.394" height="850.394">
  <defs/>
  <metadata> Produced by OmniGraffle 7.9.4 
    <dc:date>2019-03-12 10:22:00 +0000</dc:date>
  </metadata>
  <g id="envelope" fill="none" stroke-opacity="1" fill-opacity="1" stroke-dasharray="none" stroke="none">
    <title>envelope</title>
    <g id="envelope: Layer 1">
      <title>Layer 1</title>
      <g id="Graphic_2">
        <path d="M 751 629.7343 L 745 624 C 745 624 734 594.7602 734 594 C 734 593.2398 723 588 723 588 L 714 607 C 714 607 706.193 550.67295 705.5192 568.15766 C 704.84545 585.6424 693.7279 606.1679 693.7279 606.1679 C 693.7279 606.1679 685.97936 583.36176 685.97936 580.32094 C 685.97936 577.2801 686.65315 555.2342 685.97936 546.1117 C 685.3056 536.98926 680.9259 515.7035 679.5784 514.9433 C 678.2308 514.1831 667.45016 507.34126 667.1133 508.10147 C 666.7764 508.8617 664.4181 505.06065 664.0812 513.4229 C 663.7443 521.78516 655.99574 576.5199 655.99574 578.0403 C 655.99574 579.56074 659.7016 628.21386 650.9423 603.1271 C 642.1831 578.0403 641.1724 568.9179 641.1724 568.9179 C 641.1724 568.9179 645.2151 527.8668 644.5413 508.10147 C 643.86754 488.33614 626.0121 460.20855 625.6752 460.20855 C 625.33834 460.20855 615.2315 462.48917 614.8946 464.0096 C 614.5577 465.53 607.14604 521.02495 607.14604 530.9076 C 607.14604 540.7903 602.0926 579.56074 601.7557 591.724 C 601.4188 603.8873 597.713 603.8873 596.3654 603.8873 C 595.01784 603.8873 588.9537 574.9995 588.61684 574.9995 C 588.27995 574.9995 583.9003 563.5964 583.5634 563.5964 C 583.2265 563.5964 572.109 559.7954 572.109 559.7954 L 567.7294 562.8362 L 567.8768 480.20855 L 578.8469 565.11684 C 578.8469 565.11684 583.2265 574.2393 583.5634 574.2393 C 583.9003 574.2393 587.26926 589.4434 587.26926 589.4434 L 591.312 606.1679 L 599.0606 613.00976 C 599.0606 613.00976 605.79846 604.6475 605.79846 603.8873 C 605.79846 603.1271 606.13535 574.2393 606.13535 574.2393 L 610.515 540.0301 C 610.515 540.0301 612.87325 520.26475 613.21014 518.74434 C 613.547 517.2239 616.916 487.57593 616.916 486.8157 C 616.916 486.0555 620.9587 476.93306 621.2956 476.17286 C 621.6325 475.41265 627.6966 477.69327 627.6966 477.69327 L 635.7821 491.37696 L 639.8248 508.10147 L 639.8248 524.0658 C 639.8248 524.0658 637.46655 545.3515 637.12965 545.3515 C 636.79276 545.3515 636.79276 574.9995 636.79276 574.9995 C 636.79276 574.9995 637.46655 585.6424 638.1403 586.4026 C 638.8141 587.1628 644.5413 605.4077 644.5413 606.1679 C 644.5413 606.9281 650.9423 620.6118 651.2792 620.6118 C 651.6161 620.6118 655.32196 620.6118 655.32196 620.6118 L 661.0492 616.8108 L 662.39674 587.1628 C 662.39674 587.1628 663.0705 572.7189 663.0705 571.9587 C 663.0705 571.1985 666.7764 544.5913 666.7764 544.5913 L 671.156 517.2239 L 674.8618 525.5862 C 674.8618 525.5862 678.5677 546.8719 678.9046 546.8719 C 679.2415 546.8719 680.58904 561.3158 680.58904 562.076 C 680.58904 562.8362 680.58904 587.923 680.58904 587.923 L 683.6211 603.1271 L 690.359 620.6118 L 696.76 625.173 C 696.76 625.173 701.8134 606.1679 702.4872 606.1679 C 703.161 606.1679 710.2358 585.6424 710.2358 585.6424 L 714.2785 570.4383 L 716.2999 549.15254 L 728 605 L 728 607 L 725 610 C 725 610 727.6631 609.2398 728 610 C 728.3369 610.7602 724.6631 599 725 599 C 725.3369 599 751 629.7343 751 629.7343 Z" fill="#999"/>
        <path d="M 751 629.7343 L 745 624 C 745 624 734 594.7602 734 594 C 734 593.2398 723 588 723 588 L 714 607 C 714 607 706.193 550.67295 705.5192 568.15766 C 704.84545 585.6424 693.7279 606.1679 693.7279 606.1679 C 693.7279 606.1679 685.97936 583.36176 685.97936 580.32094 C 685.97936 577.2801 686.65315 555.2342 685.97936 546.1117 C 685.3056 536.98926 680.9259 515.7035 679.5784 514.9433 C 678.2308 514.1831 667.45016 507.34126 667.1133 508.10147 C 666.7764 508.8617 664.4181 505.06065 664.0812 513.4229 C 663.7443 521.78516 655.99574 576.5199 655.99574 578.0403 C 655.99574 579.56074 659.7016 628.21386 650.9423 603.1271 C 642.1831 578.0403 641.1724 568.9179 641.1724 568.9179 C 641.1724 568.9179 645.2151 527.8668 644.5413 508.10147 C 643.86754 488.33614 626.0121 460.20855 625.6752 460.20855 C 625.33834 460.20855 615.2315 462.48917 614.8946 464.0096 C 614.5577 465.53 607.14604 521.02495 607.14604 530.9076 C 607.14604 540.7903 602.0926 579.56074 601.7557 591.724 C 601.4188 603.8873 597.713 603.8873 596.3654 603.8873 C 595.01784 603.8873 588.9537 574.9995 588.61684 574.9995 C 588.27995 574.9995 583.9003 563.5964 583.5634 563.5964 C 583.2265 563.5964 572.109 559.7954 572.109 559.7954 L 567.7294 562.8362 L 567.8768 480.20855 L 578.8469 565.11684 C 578.8469 565.11684 583.2265 574.2393 583.5634 574.2393 C 583.9003 574.2393 587.26926 589.4434 587.26926 589.4434 L 591.312 606.1679 L 599.0606 613.00976 C 599.0606 613.00976 605.79846 604.6475 605.79846 603.8873 C 605.79846 603.1271 606.13535 574.2393 606.13535 574.2393 L 610.515 540.0301 C 610.515 540.0301 612.87325 520.26475 613.21014 518.74434 C 613.547 517.2239 616.916 487.57593 616.916 486.8157 C 616.916 486.0555 620.9587 476.93306 621.2956 476.17286 C 621.6325 475.41265 627.6966 477.69327 627.6966 477.69327 L 635.7821 491.37696 L 639.8248 508.10147 L 639.8248 524.0658 C 639.8248 524.0658 637.46655 545.3515 637.12965 545.3515 C 636.79276 545.3515 636.79276 574.9995 636.79276 574.9995 C 636.79276 574.9995 637.46655 585.6424 638.1403 586.4026 C 638.8141 587.1628 644.5413 605.4077 644.5413 606.1679 C 644.5413 606.9281 650.9423 620.6118 651.2792 620.6118 C 651.6161 620.6118 655.32196 620.6118 655.32196 620.6118 L 661.0492 616.8108 L 662.39674 587.1628 C 662.39674 587.1628 663.0705 572.7189 663.0705 571.9587 C 663.0705 571.1985 666.7764 544.5913 666.7764 544.5913 L 671.156 517.2239 L 674.8618 525.5862 C 674.8618 525.5862 678.5677 546.8719 678.9046 546.8719 C 679.2415 546.8719 680.58904 561.3158 680.58904 562.076 C 680.58904 562.8362 680.58904 587.923 680.58904 587.923 L 683.6211 603.1271 L 690.359 620.6118 L 696.76 625.173 C 696.76 625.173 701.8134 606.1679 702.4872 606.1679 C 703.161 606.1679 710.2358 585.6424 710.2358 585.6424 L 714.2785 570.4383 L 716.2999 549.15254 L 728 605 L 728 607 L 725 610 C 725 610 727.6631 609.2398 728 610 C 728.3369 610.7602 724.6631 599 725 599 C 725.3369 599 751 629.7343 751 629.7343 Z" stroke="#a5a5a5" stroke-linecap="round" stroke-linejoin="round" stroke-width="5"/>
      </g>
      <g id="Graphic_3">
        <path d="M 244.8286 533.85164 L 265.33503 498.2968 C 265.33503 498.2968 274.07948 400.5202 274.07948 398.9173 C 274.07948 397.3144 284 202 284 202 L 287.59362 422.96074 C 287.59362 422.96074 293.68823 472.6505 294.2182 509.5171 C 294.74816 546.3837 303.4926 589.6619 303.4926 589.6619 C 303.4926 589.6619 309.58722 541.575 309.58722 535.1634 C 309.58722 528.75184 309.05725 482.2679 309.58722 463.0331 C 310.1172 443.7984 313.56197 398.9173 314.6219 397.3144 C 315.68183 395.7115 319.735 278.3971 320 280 C 320.265 281.6029 326.54614 376.47676 326.81113 394.1086 C 327.0761 411.74047 333.17072 527.14895 333.17072 530.35474 C 333.17072 533.5605 330.2559 636.14585 337.14547 583.2503 C 344.03503 530.35474 344.83 511.12 344.83 511.12 C 344.83 511.12 341.6502 424.56363 342.18015 382.88835 C 342.7101 341.21306 358.735 360 359 360 C 359.265 360 366.735 362.7942 367 366 C 367.265 369.2058 371.5933 410.13757 371.5933 430.9752 C 371.5933 451.81286 375.56803 533.5605 375.833 559.20686 C 376.098 584.8532 379.0128 584.8532 380.07275 584.8532 C 381.1327 584.8532 385.90238 523.94316 386.16736 523.94316 C 386.43234 523.94316 389.87712 499.8997 390.1421 499.8997 C 390.4071 499.8997 399.15154 491.88525 399.15154 491.88525 L 402.5963 498.2968 L 399.9465 503.1055 L 393.85187 503.1055 C 393.85187 503.1055 390.4071 522.34026 390.1421 522.34026 C 389.87712 522.34026 387.2273 554.3982 387.2273 554.3982 L 384.0475 589.6619 L 377.9529 604.08794 C 377.9529 604.08794 372.6532 586.4561 372.6532 584.8532 C 372.6532 583.2503 372.38823 522.34026 372.38823 522.34026 L 368.94345 450.20996 C 368.94345 450.20996 367.08857 408.5347 366.8236 405.3289 C 366.5586 402.1231 364 358.6029 364 357 C 364 355.3971 359.265 378.6029 359 377 C 358.735 375.3971 353 346 353 346 L 349.0697 347.62464 L 345.8899 382.88835 L 345.8899 416.54915 C 345.8899 416.54915 347.7448 461.43023 348.0098 461.43023 C 348.27477 461.43023 348.27477 523.94316 348.27477 523.94316 C 348.27477 523.94316 347.7448 546.3837 347.21483 547.9866 C 346.68487 549.5895 342.18015 588.059 342.18015 589.6619 C 342.18015 591.2648 337.14547 620.1169 336.8805 620.1169 C 336.6155 620.1169 333.7007 620.1169 333.7007 620.1169 L 329.19598 612.1024 L 328.13604 549.5895 C 328.13604 549.5895 327.60608 519.1345 327.60608 517.5316 C 327.60608 515.9287 324.69126 459.82733 324.69126 459.82733 L 320 310 L 320 299 C 320 299 315.41685 464.636 315.15187 464.636 C 314.8869 464.636 313.82695 495.09104 313.82695 496.69393 C 313.82695 498.2968 313.82695 551.1924 313.82695 551.1924 L 311.4421 583.2503 L 306.14244 620.1169 L 301.10776 629.7343 C 301.10776 629.7343 297.133 589.6619 296.60305 589.6619 C 296.07308 589.6619 290.50843 546.3837 290.50843 546.3837 L 287.32863 514.3258 L 285.73873 469.4447 L 284 241 L 281 235 L 278.3192 398.9173 C 278.3192 398.9173 277.78924 432.5781 277.52426 434.181 C 277.25927 435.7839 273.01954 488.67945 272.75456 488.67945 C 272.48958 488.67945 244.8286 533.85164 244.8286 533.85164 Z" fill="#999"/>
        <path d="M 244.8286 533.85164 L 265.33503 498.2968 C 265.33503 498.2968 274.07948 400.5202 274.07948 398.9173 C 274.07948 397.3144 284 202 284 202 L 287.59362 422.96074 C 287.59362 422.96074 293.68823 472.6505 294.2182 509.5171 C 294.74816 546.3837 303.4926 589.6619 303.4926 589.6619 C 303.4926 589.6619 309.58722 541.575 309.58722 535.1634 C 309.58722 528.75184 309.05725 482.2679 309.58722 463.0331 C 310.1172 443.7984 313.56197 398.9173 314.6219 397.3144 C 315.68183 395.7115 319.735 278.3971 320 280 C 320.265 281.6029 326.54614 376.47676 326.81113 394.1086 C 327.0761 411.74047 333.17072 527.14895 333.17072 530.35474 C 333.17072 533.5605 330.2559 636.14585 337.14547 583.2503 C 344.03503 530.35474 344.83 511.12 344.83 511.12 C 344.83 511.12 341.6502 424.56363 342.18015 382.88835 C 342.7101 341.21306 358.735 360 359 360 C 359.265 360 366.735 362.7942 367 366 C 367.265 369.2058 371.5933 410.13757 371.5933 430.9752 C 371.5933 451.81286 375.56803 533.5605 375.833 559.20686 C 376.098 584.8532 379.0128 584.8532 380.07275 584.8532 C 381.1327 584.8532 385.90238 523.94316 386.16736 523.94316 C 386.43234 523.94316 389.87712 499.8997 390.1421 499.8997 C 390.4071 499.8997 399.15154 491.88525 399.15154 491.88525 L 402.5963 498.2968 L 399.9465 503.1055 L 393.85187 503.1055 C 393.85187 503.1055 390.4071 522.34026 390.1421 522.34026 C 389.87712 522.34026 387.2273 554.3982 387.2273 554.3982 L 384.0475 589.6619 L 377.9529 604.08794 C 377.9529 604.08794 372.6532 586.4561 372.6532 584.8532 C 372.6532 583.2503 372.38823 522.34026 372.38823 522.34026 L 368.94345 450.20996 C 368.94345 450.20996 367.08857 408.5347 366.8236 405.3289 C 366.5586 402.1231 364 358.6029 364 357 C 364 355.3971 359.265 378.6029 359 377 C 358.735 375.3971 353 346 353 346 L 349.0697 347.62464 L 345.8899 382.88835 L 345.8899 416.54915 C 345.8899 416.54915 347.7448 461.43023 348.0098 461.43023 C 348.27477 461.43023 348.27477 523.94316 348.27477 523.94316 C 348.27477 523.94316 347.7448 546.3837 347.21483 547.9866 C 346.68487 549.5895 342.18015 588.059 342.18015 589.6619 C 342.18015 591.2648 337.14547 620.1169 336.8805 620.1169 C 336.6155 620.1169 333.7007 620.1169 333.7007 620.1169 L 329.19598 612.1024 L 328.13604 549.5895 C 328.13604 549.5895 327.60608 519.1345 327.60608 517.5316 C 327.60608 515.9287 324.69126 459.82733 324.69126 459.82733 L 320 310 L 320 299 C 320 299 315.41685 464.636 315.15187 464.636 C 314.8869 464.636 313.82695 495.09104 313.82695 496.69393 C 313.82695 498.2968 313.82695 551.1924 313.82695 551.1924 L 311.4421 583.2503 L 306.14244 620.1169 L 301.10776 629.7343 C 301.10776 629.7343 297.133 589.6619 296.60305 589.6619 C 296.07308 589.6619 290.50843 546.3837 290.50843 546.3837 L 287.32863 514.3258 L 285.73873 469.4447 L 284 241 L 281 235 L 278.3192 398.9173 C 278.3192 398.9173 277.78924 432.5781 277.52426 434.181 C 277.25927 435.7839 273.01954 488.67945 272.75456 488.67945 C 272.48958 488.67945 244.8286 533.85164 244.8286 533.85164 Z" stroke="#a5a5a5" stroke-linecap="round" stroke-linejoin="round" stroke-width="5"/>
      </g>
      <g id="Graphic_5">
        <path d="M 401.6572 493.0714 L 434.8414 489.65374 C 434.8414 489.65374 443.58585 391.8771 443.58585 390.2742 C 443.58585 388.6713 450 360 450 360 L 457.1 414.31765 C 457.1 414.31765 463.1946 464.0074 463.72457 500.874 C 464.25454 537.7406 472.999 581.0188 472.999 581.0188 C 472.999 581.0188 479.0936 532.9319 479.0936 526.52034 C 479.0936 520.10876 478.56363 473.6248 479.0936 454.39004 C 479.62356 435.1553 483.06834 390.2742 484.1283 388.6713 C 485.1882 387.06842 493.66767 372.64236 493.93265 374.24526 C 494.19764 375.84815 496.0525 367.83368 496.3175 385.46553 C 496.5825 403.0974 502.6771 518.50586 502.6771 521.71165 C 502.6771 524.91744 499.7623 627.50276 506.65185 574.6072 C 513.5414 521.71165 514.33636 502.4769 514.33636 502.4769 C 514.33636 502.4769 513.47003 451.6753 514 410 C 514.52997 368.3247 533.735 385 534 385 C 534.265 385 536.735 395.7942 537 399 C 537.265 402.2058 541.09966 401.4945 541.09966 422.33213 C 541.09966 443.16977 545.0744 524.91744 545.3394 550.5638 C 545.6044 576.2101 548.5192 576.2101 549.5791 576.2101 C 550.63905 576.2101 555.40875 515.3001 555.67373 515.3001 C 555.9387 515.3001 559.3835 491.25664 559.6485 491.25664 C 559.91346 491.25664 568.6579 483.24216 568.6579 483.24216 L 572.1027 489.65374 L 569.45286 494.4624 L 563.35825 494.4624 C 563.35825 494.4624 559.91346 513.6972 559.6485 513.6972 C 559.3835 513.6972 556.73367 545.7551 556.73367 545.7551 L 553.5539 581.0188 L 547.45926 595.44485 C 547.45926 595.44485 542.1596 577.813 542.1596 576.2101 C 542.1596 574.6072 541.8946 513.6972 541.8946 513.6972 L 538.4498 441.56687 C 538.4498 441.56687 536.59495 399.8916 536.32996 396.6858 C 536.065 393.48 537 422.6029 537 421 C 537 419.3971 539.265 458.6029 539 457 C 538.735 455.3971 525 396 525 396 L 528 382 L 520 410 L 515.3963 407.90607 C 515.3963 407.90607 517.2512 452.78714 517.51616 452.78714 C 517.78114 452.78714 517.78114 515.3001 517.78114 515.3001 C 517.78114 515.3001 517.2512 537.7406 516.7212 539.3435 C 516.19124 540.9464 511.6865 579.4159 511.6865 581.0188 C 511.6865 582.6217 506.65185 611.4738 506.38686 611.4738 C 506.1219 611.4738 503.20706 611.4738 503.20706 611.4738 L 498.70235 603.4593 L 497.6424 540.9464 C 497.6424 540.9464 497.11245 510.4914 497.11245 508.8885 C 497.11245 507.2856 494.19764 451.18425 494.19764 451.18425 L 490.75285 393.48 L 487.83804 411.11186 C 487.83804 411.11186 484.9232 455.99293 484.65824 455.99293 C 484.39326 455.99293 483.3333 486.44795 483.3333 488.05084 C 483.3333 489.65374 483.3333 542.5493 483.3333 542.5493 L 480.9485 574.6072 L 475.6488 611.4738 L 470.61413 621.0912 C 470.61413 621.0912 466.6394 581.0188 466.1094 581.0188 C 465.57945 581.0188 460.0148 537.7406 460.0148 537.7406 L 456.835 505.6827 L 455.2451 460.8016 L 451.53534 419.12634 L 451.53534 375.84815 L 447.8256 390.2742 C 447.8256 390.2742 447.2956 423.935 447.03063 425.5379 C 446.76565 427.1408 442.5259 480.03637 442.26093 480.03637 C 441.99595 480.03637 401.6572 493.0714 401.6572 493.0714 Z" fill="#999"/>
        <path d="M 401.6572 493.0714 L 434.8414 489.65374 C 434.8414 489.65374 443.58585 391.8771 443.58585 390.2742 C 443.58585 388.6713 450 360 450 360 L 457.1 414.31765 C 457.1 414.31765 463.1946 464.0074 463.72457 500.874 C 464.25454 537.7406 472.999 581.0188 472.999 581.0188 C 472.999 581.0188 479.0936 532.9319 479.0936 526.52034 C 479.0936 520.10876 478.56363 473.6248 479.0936 454.39004 C 479.62356 435.1553 483.06834 390.2742 484.1283 388.6713 C 485.1882 387.06842 493.66767 372.64236 493.93265 374.24526 C 494.19764 375.84815 496.0525 367.83368 496.3175 385.46553 C 496.5825 403.0974 502.6771 518.50586 502.6771 521.71165 C 502.6771 524.91744 499.7623 627.50276 506.65185 574.6072 C 513.5414 521.71165 514.33636 502.4769 514.33636 502.4769 C 514.33636 502.4769 513.47003 451.6753 514 410 C 514.52997 368.3247 533.735 385 534 385 C 534.265 385 536.735 395.7942 537 399 C 537.265 402.2058 541.09966 401.4945 541.09966 422.33213 C 541.09966 443.16977 545.0744 524.91744 545.3394 550.5638 C 545.6044 576.2101 548.5192 576.2101 549.5791 576.2101 C 550.63905 576.2101 555.40875 515.3001 555.67373 515.3001 C 555.9387 515.3001 559.3835 491.25664 559.6485 491.25664 C 559.91346 491.25664 568.6579 483.24216 568.6579 483.24216 L 572.1027 489.65374 L 569.45286 494.4624 L 563.35825 494.4624 C 563.35825 494.4624 559.91346 513.6972 559.6485 513.6972 C 559.3835 513.6972 556.73367 545.7551 556.73367 545.7551 L 553.5539 581.0188 L 547.45926 595.44485 C 547.45926 595.44485 542.1596 577.813 542.1596 576.2101 C 542.1596 574.6072 541.8946 513.6972 541.8946 513.6972 L 538.4498 441.56687 C 538.4498 441.56687 536.59495 399.8916 536.32996 396.6858 C 536.065 393.48 537 422.6029 537 421 C 537 419.3971 539.265 458.6029 539 457 C 538.735 455.3971 525 396 525 396 L 528 382 L 520 410 L 515.3963 407.90607 C 515.3963 407.90607 517.2512 452.78714 517.51616 452.78714 C 517.78114 452.78714 517.78114 515.3001 517.78114 515.3001 C 517.78114 515.3001 517.2512 537.7406 516.7212 539.3435 C 516.19124 540.9464 511.6865 579.4159 511.6865 581.0188 C 511.6865 582.6217 506.65185 611.4738 506.38686 611.4738 C 506.1219 611.4738 503.20706 611.4738 503.20706 611.4738 L 498.70235 603.4593 L 497.6424 540.9464 C 497.6424 540.9464 497.11245 510.4914 497.11245 508.8885 C 497.11245 507.2856 494.19764 451.18425 494.19764 451.18425 L 490.75285 393.48 L 487.83804 411.11186 C 487.83804 411.11186 484.9232 455.99293 484.65824 455.99293 C 484.39326 455.99293 483.3333 486.44795 483.3333 488.05084 C 483.3333 489.65374 483.3333 542.5493 483.3333 542.5493 L 480.9485 574.6072 L 475.6488 611.4738 L 470.61413 621.0912 C 470.61413 621.0912 466.6394 581.0188 466.1094 581.0188 C 465.57945 581.0188 460.0148 537.7406 460.0148 537.7406 L 456.835 505.6827 L 455.2451 460.8016 L 451.53534 419.12634 L 451.53534 375.84815 L 447.8256 390.2742 C 447.8256 390.2742 447.2956 423.935 447.03063 425.5379 C 446.76565 427.1408 442.5259 480.03637 442.26093 480.03637 C 441.99595 480.03637 401.6572 493.0714 401.6572 493.0714 Z" stroke="#a5a5a5" stroke-linecap="round" stroke-linejoin="round" stroke-width="5"/>
      </g>
      <g id="Graphic_9">
        <path d="M 88 639.20855 L 107.56732 523.59945 C 107.56732 523.59945 114 500.6029 114 499 C 114 497.3971 128 452 128 452 L 129.82591 448.26336 C 129.82591 448.26336 135.92052 497.9531 136.45049 534.8197 C 136.98046 571.6863 145.7249 614.9645 145.7249 614.9645 C 145.7249 614.9645 151.81952 566.87764 151.81952 560.46605 C 151.81952 554.0545 151.28955 507.5705 151.81952 488.33575 C 152.34948 469.101 155.79426 424.21993 156.8542 422.61703 C 157.91413 421.01414 166.3936 406.5881 166.65857 408.19097 C 166.92356 409.79387 168.77844 401.7794 169.04342 419.41124 C 169.3084 437.0431 175.40302 552.4516 175.40302 555.65737 C 175.40302 558.86316 172.4882 661.4485 179.37777 608.5529 C 186.26733 555.65737 187.06228 536.4226 187.06228 536.4226 C 187.06228 536.4226 183.88248 449.86626 184.41245 408.19097 C 184.94241 366.5157 191.73502 269 192 269 C 192.26498 269 202.73502 223.7942 203 227 C 203.26498 230.2058 213.82558 435.4402 213.82558 456.27784 C 213.82558 477.1155 217.80033 558.86316 218.0653 584.5095 C 218.3303 610.1558 221.2451 610.1558 222.30504 610.1558 C 223.36497 610.1558 228.13467 549.2458 228.39965 549.2458 C 228.66464 549.2458 232.10942 525.20235 232.3744 525.20235 C 232.63939 525.20235 234 143 234 143 C 234 143 257.4178 788.5933 244.8286 523.59945 C 232.23944 258.60563 234 163 234 163 L 236.08417 528.40814 C 236.08417 528.40814 232.63939 547.6429 232.3744 547.6429 C 232.10942 547.6429 229.4596 579.7008 229.4596 579.7008 L 226.2798 614.9645 L 220.18518 629.3906 C 220.18518 629.3906 214.8855 611.7587 214.8855 610.1558 C 214.8855 608.5529 214.62053 547.6429 214.62053 547.6429 L 211.17575 475.5126 C 211.17575 475.5126 209.32087 433.8373 209.05588 430.6315 C 208.7909 427.4257 206.14107 364.9128 206.14107 363.3099 C 206.14107 361.707 195.26498 281.6029 195 280 C 194.73502 278.3971 192 291 192 291 L 191.302 372.92727 L 188.12221 408.19097 L 188.12221 441.8518 C 188.12221 441.8518 189.9771 486.73286 190.24208 486.73286 C 190.50706 486.73286 190.50706 549.2458 190.50706 549.2458 C 190.50706 549.2458 189.9771 571.6863 189.44713 573.2892 C 188.91716 574.8921 184.41245 613.3616 184.41245 614.9645 C 184.41245 616.5674 179.37777 645.4195 179.11278 645.4195 C 178.8478 645.4195 175.93299 645.4195 175.93299 645.4195 L 171.42827 637.40504 L 170.36834 574.8921 C 170.36834 574.8921 169.83837 544.4371 169.83837 542.8342 C 169.83837 541.2313 166.92356 485.12996 166.92356 485.12996 L 163.47878 427.4257 L 160.56396 445.05757 C 160.56396 445.05757 157.64915 489.93865 157.38416 489.93865 C 157.11918 489.93865 156.05925 520.39366 156.05925 521.99656 C 156.05925 523.59945 156.05925 576.495 156.05925 576.495 L 153.6744 608.5529 L 148.37473 645.4195 L 143.34005 655.0369 C 143.34005 655.0369 139.3653 614.9645 138.83534 614.9645 C 138.30537 614.9645 132.74073 571.6863 132.74073 571.6863 L 129.56093 539.6284 L 127.97103 494.74733 L 124.26127 453.07205 L 131 460 L 123 488 C 123 488 120.02153 457.88074 119.75655 459.48363 C 119.49157 461.0865 115.25184 513.9821 114.98685 513.9821 C 114.72187 513.9821 88 639.20855 88 639.20855 Z" fill="#999"/>
        <path d="M 88 639.20855 L 107.56732 523.59945 C 107.56732 523.59945 114 500.6029 114 499 C 114 497.3971 128 452 128 452 L 129.82591 448.26336 C 129.82591 448.26336 135.92052 497.9531 136.45049 534.8197 C 136.98046 571.6863 145.7249 614.9645 145.7249 614.9645 C 145.7249 614.9645 151.81952 566.87764 151.81952 560.46605 C 151.81952 554.0545 151.28955 507.5705 151.81952 488.33575 C 152.34948 469.101 155.79426 424.21993 156.8542 422.61703 C 157.91413 421.01414 166.3936 406.5881 166.65857 408.19097 C 166.92356 409.79387 168.77844 401.7794 169.04342 419.41124 C 169.3084 437.0431 175.40302 552.4516 175.40302 555.65737 C 175.40302 558.86316 172.4882 661.4485 179.37777 608.5529 C 186.26733 555.65737 187.06228 536.4226 187.06228 536.4226 C 187.06228 536.4226 183.88248 449.86626 184.41245 408.19097 C 184.94241 366.5157 191.73502 269 192 269 C 192.26498 269 202.73502 223.7942 203 227 C 203.26498 230.2058 213.82558 435.4402 213.82558 456.27784 C 213.82558 477.1155 217.80033 558.86316 218.0653 584.5095 C 218.3303 610.1558 221.2451 610.1558 222.30504 610.1558 C 223.36497 610.1558 228.13467 549.2458 228.39965 549.2458 C 228.66464 549.2458 232.10942 525.20235 232.3744 525.20235 C 232.63939 525.20235 234 143 234 143 C 234 143 257.4178 788.5933 244.8286 523.59945 C 232.23944 258.60563 234 163 234 163 L 236.08417 528.40814 C 236.08417 528.40814 232.63939 547.6429 232.3744 547.6429 C 232.10942 547.6429 229.4596 579.7008 229.4596 579.7008 L 226.2798 614.9645 L 220.18518 629.3906 C 220.18518 629.3906 214.8855 611.7587 214.8855 610.1558 C 214.8855 608.5529 214.62053 547.6429 214.62053 547.6429 L 211.17575 475.5126 C 211.17575 475.5126 209.32087 433.8373 209.05588 430.6315 C 208.7909 427.4257 206.14107 364.9128 206.14107 363.3099 C 206.14107 361.707 195.26498 281.6029 195 280 C 194.73502 278.3971 192 291 192 291 L 191.302 372.92727 L 188.12221 408.19097 L 188.12221 441.8518 C 188.12221 441.8518 189.9771 486.73286 190.24208 486.73286 C 190.50706 486.73286 190.50706 549.2458 190.50706 549.2458 C 190.50706 549.2458 189.9771 571.6863 189.44713 573.2892 C 188.91716 574.8921 184.41245 613.3616 184.41245 614.9645 C 184.41245 616.5674 179.37777 645.4195 179.11278 645.4195 C 178.8478 645.4195 175.93299 645.4195 175.93299 645.4195 L 171.42827 637.40504 L 170.36834 574.8921 C 170.36834 574.8921 169.83837 544.4371 169.83837 542.8342 C 169.83837 541.2313 166.92356 485.12996 166.92356 485.12996 L 163.47878 427.4257 L 160.56396 445.05757 C 160.56396 445.05757 157.64915 489.93865 157.38416 489.93865 C 157.11918 489.93865 156.05925 520.39366 156.05925 521.99656 C 156.05925 523.59945 156.05925 576.495 156.05925 576.495 L 153.6744 608.5529 L 148.37473 645.4195 L 143.34005 655.0369 C 143.34005 655.0369 139.3653 614.9645 138.83534 614.9645 C 138.30537 614.9645 132.74073 571.6863 132.74073 571.6863 L 129.56093 539.6284 L 127.97103 494.74733 L 124.26127 453.07205 L 131 460 L 123 488 C 123 488 120.02153 457.88074 119.75655 459.48363 C 119.49157 461.0865 115.25184 513.9821 114.98685 513.9821 C 114.72187 513.9821 88 639.20855 88 639.20855 Z" stroke="#a5a5a5" stroke-linecap="round" stroke-linejoin="round" stroke-width="5"/>
      </g>
    </g>
    <g id="envelope: env">
      <title>env</title>
      <g id="Line_10">
        <path d="M 67 645 L 234 122.2895 L 362.56467 349.2209 L 575.1081 380.90495 L 797.0282 655.0369" stroke="black" stroke-linecap="round" stroke-linejoin="round" stroke-width="11"/>
      </g>
    </g>
  </g>
</svg>
