<?xml version="1.0" encoding="UTF-8" standalone="no"?>
<!DOCTYPE svg PUBLIC "-//W3C//DTD SVG 1.1//EN" "http://www.w3.org/Graphics/SVG/1.1/DTD/svg11.dtd">
<svg xmlns:xl="http://www.w3.org/1999/xlink" xmlns:dc="http://purl.org/dc/elements/1.1/" xmlns="http://www.w3.org/2000/svg" version="1.1" viewBox="0 0 850.394 850.394" width="850.394" height="850.394">
  <defs/>
  <metadata> Produced by OmniGraffle 7.9.4 
    <dc:date>2019-05-02 17:00:53 +0000</dc:date>
  </metadata>
  <g id="Fabric" stroke-dasharray="none" fill-opacity="1" stroke="none" fill="none" stroke-opacity="1">
    <title>Fabric</title>
    <g id="Fabric: Layer 1">
      <title>Layer 1</title>
      <g id="Graphic_2">
        <path d="M 78.697 568 L 214.697 290 L 355.697 125 L 602.697 161 L 771.697 313 L 642.697 368 L 530.697 524 L 479.697 682 Z" fill="#4040ff"/>
        <path d="M 78.697 568 L 214.697 290 L 355.697 125 L 602.697 161 L 771.697 313 L 642.697 368 L 530.697 524 L 479.697 682 Z" stroke="black" stroke-linecap="round" stroke-linejoin="round" stroke-width="5"/>
      </g>
    </g>
    <g id="Fabric: stitches">
      <title>stitches</title>
      <g id="Line_3">
        <path d="M 110 550 L 137.05469 503.8036 L 137.05469 503.8036" stroke="yellow" stroke-linecap="round" stroke-linejoin="round" stroke-width="4"/>
      </g>
      <g id="Line_4">
        <path d="M 150 486 L 177.05469 430.3549 L 177.10491 430.3549" stroke="yellow" stroke-linecap="round" stroke-linejoin="round" stroke-width="4"/>
      </g>
      <g id="Line_5">
        <path d="M 186 408 L 207.31696 352.3549 L 207.31696 355.62835" stroke="yellow" stroke-linecap="round" stroke-linejoin="round" stroke-width="4"/>
      </g>
      <g id="Line_6">
        <path d="M 219 332 L 246.0547 284.65737 L 243.75112 284.65737" stroke="yellow" stroke-linecap="round" stroke-linejoin="round" stroke-width="4"/>
      </g>
      <g id="Line_7">
        <path d="M 268 263 L 302.83594 221.3203 L 302.83594 221.3203" stroke="yellow" stroke-linecap="round" stroke-linejoin="round" stroke-width="4"/>
      </g>
      <g id="Line_8">
        <path d="M 324 206 L 351.1049 159.32254 L 351.1049 159.32254" stroke="yellow" stroke-linecap="round" stroke-linejoin="round" stroke-width="4"/>
      </g>
      <g id="Line_9">
        <path d="M 381 152 L 420.55357 159.32254 L 420.55357 159.32254" stroke="yellow" stroke-linecap="round" stroke-linejoin="round" stroke-width="4"/>
      </g>
      <g id="Line_10">
        <path d="M 441 162 L 492.4788 169.32254 L 492.4788 168.7645" stroke="yellow" stroke-linecap="round" stroke-linejoin="round" stroke-width="4"/>
      </g>
      <g id="Line_11">
        <path d="M 518 175 L 569.4788 180.1875 L 570.44754 180.1875" stroke="yellow" stroke-linecap="round" stroke-linejoin="round" stroke-width="4"/>
      </g>
      <g id="Line_12">
        <path d="M 601 184 L 628.1049 212.2913 L 628.1049 212.2913" stroke="yellow" stroke-linecap="round" stroke-linejoin="round" stroke-width="4"/>
      </g>
      <g id="Line_13">
        <path d="M 640 224 L 667.0547 257.63728 L 665.6763 257.63728" stroke="yellow" stroke-linecap="round" stroke-linejoin="round" stroke-width="4"/>
      </g>
      <g id="Line_14">
        <path d="M 688 279 L 734.0301 307.2913 L 734.0301 308.61384" stroke="yellow" stroke-linecap="round" stroke-linejoin="round" stroke-width="4"/>
      </g>
    </g>
  </g>
</svg>
