<?xml version="1.0" encoding="UTF-8" standalone="no"?>
<!DOCTYPE svg PUBLIC "-//W3C//DTD SVG 1.1//EN" "http://www.w3.org/Graphics/SVG/1.1/DTD/svg11.dtd">
<svg xmlns:xl="http://www.w3.org/1999/xlink" xmlns:dc="http://purl.org/dc/elements/1.1/" xmlns="http://www.w3.org/2000/svg" version="1.1" viewBox="0 0 850.394 850.394" width="850.394" height="850.394">
  <defs/>
  <metadata> Produced by OmniGraffle 7.9.4 
    <dc:date>2019-03-14 13:04:49 +0000</dc:date>
  </metadata>
  <g id="fast_solo" fill-opacity="1" stroke-dasharray="none" stroke-opacity="1" stroke="none" fill="none">
    <title>fast solo</title>
    <g id="fast_solo: Layer 1">
      <title>Layer 1</title>
      <g id="Graphic_29">
        <rect x="273" y="201.12397" width="439.53823" height="469.6124" fill="white"/>
        <rect x="273" y="201.12397" width="439.53823" height="469.6124" stroke="black" stroke-linecap="round" stroke-linejoin="round" stroke-width="1"/>
      </g>
      <g id="Graphic_28">
        <rect x="493.0979" y="201.12397" width="55.259895" height="469.6124" fill="red" fill-opacity=".502393"/>
        <rect x="493.0979" y="201.12397" width="55.259895" height="469.6124" stroke="black" stroke-linecap="round" stroke-linejoin="round" stroke-width="2"/>
      </g>
      <g id="Graphic_27">
        <rect x="548.3578" y="201.12397" width="55.259895" height="469.6124" fill="#68bc36" fill-opacity=".503576"/>
        <rect x="548.3578" y="201.12397" width="55.259895" height="469.6124" stroke="black" stroke-linecap="round" stroke-linejoin="round" stroke-width="2"/>
      </g>
      <g id="Graphic_26">
        <rect x="602.2521" y="201.729" width="55.259895" height="467.64174" fill="lime" fill-opacity=".500853"/>
        <rect x="602.2521" y="201.729" width="55.259895" height="467.64174" stroke="black" stroke-linecap="round" stroke-linejoin="round" stroke-width="2"/>
      </g>
      <g id="Graphic_25">
        <rect x="657.512" y="201.12397" width="55.259895" height="468.13753" fill="#9662d0" fill-opacity=".502668"/>
        <rect x="657.512" y="201.12397" width="55.259895" height="468.13753" stroke="black" stroke-linecap="round" stroke-linejoin="round" stroke-width="2"/>
      </g>
      <g id="Graphic_24">
        <rect x="273" y="200" width="55.259895" height="469.6124" fill="red" fill-opacity=".502393"/>
        <rect x="273" y="200" width="55.259895" height="469.6124" stroke="black" stroke-linecap="round" stroke-linejoin="round" stroke-width="2"/>
      </g>
      <g id="Graphic_23">
        <rect x="328.2599" y="200" width="55.259895" height="469.6124" fill="#68bc36" fill-opacity=".503576"/>
        <rect x="328.2599" y="200" width="55.259895" height="469.6124" stroke="black" stroke-linecap="round" stroke-linejoin="round" stroke-width="2"/>
      </g>
      <g id="Graphic_22">
        <rect x="382.15417" y="200.60504" width="55.259895" height="467.64174" fill="lime" fill-opacity=".500853"/>
        <rect x="382.15417" y="200.60504" width="55.259895" height="467.64174" stroke="black" stroke-linecap="round" stroke-linejoin="round" stroke-width="2"/>
      </g>
      <g id="Graphic_21">
        <rect x="437.41407" y="200" width="55.259895" height="468.13753" fill="#9662d0" fill-opacity=".502668"/>
        <rect x="437.41407" y="200" width="55.259895" height="468.13753" stroke="black" stroke-linecap="round" stroke-linejoin="round" stroke-width="2"/>
      </g>
      <g id="Graphic_20">
        <path d="M 235.7804 266.1908 L 243.0154 266.39176 C 250.42534 266.5976 257.8384 266.11638 265.15955 264.9543 L 299.11665 259.56427 C 299.11665 259.56427 331.2327 251 331.94637 251 C 332.66006 251 366.20347 257.4232 366.20347 257.4232 L 388.32784 255.28214 C 388.32784 255.28214 323.3821 273.83806 322.6684 274.55175 C 321.9547 275.26544 269.1417 278.1202 269.1417 278.1202 L 262.0048 283.47287 C 260.71156 284.4428 260.44946 286.27747 261.4194 287.5707 C 261.978 288.31553 262.85764 288.75017 263.78863 288.7414 L 305.73287 288.3457 C 322.08327 288.19144 338.2917 291.39097 353.35705 297.74666 L 376.1951 307.38147 C 376.1951 307.38147 404.7427 298.8172 405.4564 298.8172 C 406.1701 298.8172 441.14086 290.25292 441.14086 290.25292 L 409.7385 306.66778 C 409.7385 306.66778 373.34036 318.0868 373.34036 318.8005 C 373.34036 319.5142 337.6559 316.65943 336.9422 316.65943 C 336.2285 316.65943 304.11248 318.0868 304.11248 318.0868 L 296.9756 320.22788 C 296.9756 320.22788 371.913 330.93322 371.913 331.6469 C 371.913 332.3606 458.2694 317.37312 458.2694 317.37312 L 477.539 319.5142 C 479.6436 319.74803 481.16015 321.6437 480.9263 323.7483 C 480.7547 325.29265 479.66796 326.58074 478.1745 327.0099 L 438.3638 338.44976 C 435.93364 339.14808 433.5262 339.92303 431.145 340.77345 L 414.73435 346.6344 C 414.73435 346.6344 351.92968 378.7504 351.216 378.7504 C 350.5023 378.7504 233.45722 312.3773 233.45722 311.6636 C 233.45722 310.9499 217.75605 275.97913 217.75605 275.97913 L 223.10872 270.9833 C 226.53844 267.78224 231.09076 266.06052 235.7804 266.1908 Z" fill="#632f1f"/>
        <path d="M 235.7804 266.1908 L 243.0154 266.39176 C 250.42534 266.5976 257.8384 266.11638 265.15955 264.9543 L 299.11665 259.56427 C 299.11665 259.56427 331.2327 251 331.94637 251 C 332.66006 251 366.20347 257.4232 366.20347 257.4232 L 388.32784 255.28214 C 388.32784 255.28214 323.3821 273.83806 322.6684 274.55175 C 321.9547 275.26544 269.1417 278.1202 269.1417 278.1202 L 262.0048 283.47287 C 260.71156 284.4428 260.44946 286.27747 261.4194 287.5707 C 261.978 288.31553 262.85764 288.75017 263.78863 288.7414 L 305.73287 288.3457 C 322.08327 288.19144 338.2917 291.39097 353.35705 297.74666 L 376.1951 307.38147 C 376.1951 307.38147 404.7427 298.8172 405.4564 298.8172 C 406.1701 298.8172 441.14086 290.25292 441.14086 290.25292 L 409.7385 306.66778 C 409.7385 306.66778 373.34036 318.0868 373.34036 318.8005 C 373.34036 319.5142 337.6559 316.65943 336.9422 316.65943 C 336.2285 316.65943 304.11248 318.0868 304.11248 318.0868 L 296.9756 320.22788 C 296.9756 320.22788 371.913 330.93322 371.913 331.6469 C 371.913 332.3606 458.2694 317.37312 458.2694 317.37312 L 477.539 319.5142 C 479.6436 319.74803 481.16015 321.6437 480.9263 323.7483 C 480.7547 325.29265 479.66796 326.58074 478.1745 327.0099 L 438.3638 338.44976 C 435.93364 339.14808 433.5262 339.92303 431.145 340.77345 L 414.73435 346.6344 C 414.73435 346.6344 351.92968 378.7504 351.216 378.7504 C 350.5023 378.7504 233.45722 312.3773 233.45722 311.6636 C 233.45722 310.9499 217.75605 275.97913 217.75605 275.97913 L 223.10872 270.9833 C 226.53844 267.78224 231.09076 266.06052 235.7804 266.1908 Z" stroke="black" stroke-linecap="round" stroke-linejoin="round" stroke-width="12"/>
      </g>
      <g id="Graphic_19">
        <path d="M 338.15923 344.12725 L 310.81777 332.3039 C 307.95445 331.06573 305.20837 329.5724 302.61274 327.84197 L 271.76837 307.27906 C 271.14708 306.86487 270.5348 306.43734 269.93192 305.99678 L 245.2964 287.9939 C 245.14485 287.88315 244.9927 287.77322 244.83993 287.6641 L 232.41176 278.78684 C 227.19963 275.0639 223.72062 269.3859 222.77047 263.05156 L 222.77047 263.05156 C 222.42007 260.71554 220.2423 259.10588 217.90627 259.45628 C 216.81578 259.61985 215.8306 260.19828 215.15636 261.07082 L 205.24285 273.90007 C 204.70508 274.596 204.14974 275.2782 203.57737 275.94595 L 176.64265 307.3698 C 175.35168 308.87593 174.14795 310.4547 173.03737 312.09836 L 152.49677 342.49844 C 150.78784 345.02766 149.30492 347.70246 148.0652 350.49182 L 145.62811 355.97527 C 143.29824 361.2175 143.06387 367.15282 144.97315 372.56244 L 145.33867 373.5981 C 146.98397 378.25976 150.68935 381.9007 155.37916 383.46397 L 155.37916 383.46397 C 159.66583 384.89287 164.35661 383.00687 166.46111 379.00832 L 171.82453 368.81783 C 172.42298 367.6808 173.06336 366.5663 173.74437 365.4767 L 179.311 356.5701 C 181.45834 353.13434 184.7356 350.55403 188.5793 349.2728 L 190.44278 348.65163 C 193.16 347.7459 195.94741 347.0662 198.77657 346.6195 L 203.94054 345.80412 C 210.09794 344.8319 215.86833 342.18165 220.618 338.14442 L 232.79892 327.79065 C 232.89535 327.7087 233.03997 327.7204 233.12193 327.81684 C 233.15715 327.85827 233.17648 327.91087 233.17648 327.96525 L 233.17648 327.96525 C 233.17648 328.2911 233.25235 328.6125 233.3981 328.904 L 256.51695 375.1417 C 258.13043 378.36867 260.07538 381.41897 262.32035 384.2433 L 282.75 409.9451 C 287.30934 415.68105 290.605 422.3158 292.42093 429.41447 L 299.33972 456.46064 C 300.13454 459.56766 301.96633 462.3102 304.532 464.23444 L 304.532 464.23444 C 306.04376 465.36827 306.35014 467.51295 305.2163 469.0247 C 304.9678 469.35605 304.6612 469.6395 304.31144 469.86133 L 278.60002 486.16613 C 271.54602 490.6394 265.6734 496.7461 261.47918 503.9695 L 252.95022 518.6583 C 251.0057 522.0072 249.44135 525.5628 248.28628 529.25905 L 247.5467 531.62576 C 247.18302 532.7895 247.8316 534.0277 248.99535 534.3914 C 249.75122 534.6276 250.5757 534.44084 251.15602 533.902 L 270.4231 516.0111 C 272.0184 514.52975 273.70518 513.15003 275.47345 511.8801 L 304.82617 490.79967 C 304.82617 490.79967 336.9422 475.97116 336.9422 477.95326 C 336.9422 479.93536 323.3821 493.6544 323.3821 493.6544 L 308.01075 513.1356 C 299.3533 524.1078 300.65945 539.90776 311.00118 549.3093 L 329.35666 565.9961 C 333.52698 569.7873 339.5699 570.69436 344.66946 568.29456 L 344.66946 568.29456 C 348.78595 566.3574 350.55263 561.4499 348.61546 557.33345 C 348.4727 557.03004 348.3115 556.73564 348.13285 556.4519 L 340.43646 544.2282 C 337.65832 539.81586 334.23235 535.84645 330.2735 532.45316 L 325.83954 528.6526 C 322.6603 525.92756 322.29213 521.1412 325.01718 517.962 C 325.94465 516.8799 327.1583 516.0812 328.519 515.6574 L 373.75584 501.5672 C 375.1763 501.12477 376.5771 500.6216 377.9544 500.059 L 443.8294 473.15233 C 445.4434 472.4931 447.02326 471.7531 448.56295 470.9351 L 462.10873 463.7389 C 467.08875 461.0933 473.27056 462.9857 475.9162 467.9657 C 476.77833 469.58855 477.1865 471.414 477.0977 473.2495 L 475.4012 508.31035 C 475.13043 513.9067 473.957 519.42246 471.92623 524.6444 L 471.5237 525.67946 C 469.33475 531.3082 464.67313 535.61347 458.88847 537.34887 L 418.5026 549.4646 C 418.5026 549.4646 397.69057 572.25875 395.70847 572.25875 C 393.72637 572.25875 383.8159 584.15134 383.8159 584.15134 C 383.8159 584.15134 403.63686 580.18714 404.6279 580.18714 C 405.61896 580.18714 436.34147 565.3214 436.34147 565.3214 L 455.16847 559.9423 C 465.39034 557.0217 474.19886 550.47873 479.9476 541.53624 L 488.86705 527.66156 C 488.86705 527.66156 501.7507 544.5094 502.7417 544.5094 C 503.7328 544.5094 474.99237 579.1961 474.99237 579.1961 L 449.2285 607.8226 C 448.5883 608.53395 448.23405 609.4571 448.23405 610.4141 L 448.23405 610.4141 C 448.23405 610.8919 448.6214 611.27926 449.0992 611.27926 C 449.249 611.27926 449.3963 611.24034 449.52656 611.1663 L 488.5223 589.00964 C 490.73127 587.75456 492.84526 586.3393 494.8473 584.77516 L 509.04026 573.6869 C 518.43014 566.3511 525.01575 556.0129 527.6951 544.40235 L 530.5474 532.0424 C 531.8227 526.51627 532.1853 520.81873 531.621 515.1755 L 530.9866 508.83163 C 530.04894 499.45484 533.5046 490.1721 540.3457 483.6911 L 557.9385 467.02424 C 563.997 461.28456 568.5851 454.17097 571.315 446.28445 L 582.6083 413.65945 C 584.19415 409.07807 585.13154 404.29743 585.3932 399.4564 L 586.4987 379.005 C 586.8117 373.21407 585.24254 367.4773 582.0256 362.65195 L 582.0256 362.65195 C 578.79055 357.79934 574.22764 353.97994 568.88136 351.6495 L 546.8607 342.05077 C 541.27667 339.6167 535.30836 338.1827 529.228 337.8142 L 513.4336 336.85696 C 508.3159 336.5468 503.1805 336.9952 498.19404 338.18762 L 465.63217 345.97416 C 461.9726 346.84926 458.2289 347.3246 454.4668 347.39176 L 405.60184 348.26435 C 404.9526 348.27595 404.3032 348.27538 403.654 348.26265 L 355.93226 347.32693 C 354.70076 347.3028 353.4705 347.2349 352.2438 347.12337 L 348.63366 346.79517 C 345.0228 346.4669 341.48715 345.56635 338.15923 344.12725 Z" fill="#b0601c"/>
        <path d="M 338.15923 344.12725 L 310.81777 332.3039 C 307.95445 331.06573 305.20837 329.5724 302.61274 327.84197 L 271.76837 307.27906 C 271.14708 306.86487 270.5348 306.43734 269.93192 305.99678 L 245.2964 287.9939 C 245.14485 287.88315 244.9927 287.77322 244.83993 287.6641 L 232.41176 278.78684 C 227.19963 275.0639 223.72062 269.3859 222.77047 263.05156 L 222.77047 263.05156 C 222.42007 260.71554 220.2423 259.10588 217.90627 259.45628 C 216.81578 259.61985 215.8306 260.19828 215.15636 261.07082 L 205.24285 273.90007 C 204.70508 274.596 204.14974 275.2782 203.57737 275.94595 L 176.64265 307.3698 C 175.35168 308.87593 174.14795 310.4547 173.03737 312.09836 L 152.49677 342.49844 C 150.78784 345.02766 149.30492 347.70246 148.0652 350.49182 L 145.62811 355.97527 C 143.29824 361.2175 143.06387 367.15282 144.97315 372.56244 L 145.33867 373.5981 C 146.98397 378.25976 150.68935 381.9007 155.37916 383.46397 L 155.37916 383.46397 C 159.66583 384.89287 164.35661 383.00687 166.46111 379.00832 L 171.82453 368.81783 C 172.42298 367.6808 173.06336 366.5663 173.74437 365.4767 L 179.311 356.5701 C 181.45834 353.13434 184.7356 350.55403 188.5793 349.2728 L 190.44278 348.65163 C 193.16 347.7459 195.94741 347.0662 198.77657 346.6195 L 203.94054 345.80412 C 210.09794 344.8319 215.86833 342.18165 220.618 338.14442 L 232.79892 327.79065 C 232.89535 327.7087 233.03997 327.7204 233.12193 327.81684 C 233.15715 327.85827 233.17648 327.91087 233.17648 327.96525 L 233.17648 327.96525 C 233.17648 328.2911 233.25235 328.6125 233.3981 328.904 L 256.51695 375.1417 C 258.13043 378.36867 260.07538 381.41897 262.32035 384.2433 L 282.75 409.9451 C 287.30934 415.68105 290.605 422.3158 292.42093 429.41447 L 299.33972 456.46064 C 300.13454 459.56766 301.96633 462.3102 304.532 464.23444 L 304.532 464.23444 C 306.04376 465.36827 306.35014 467.51295 305.2163 469.0247 C 304.9678 469.35605 304.6612 469.6395 304.31144 469.86133 L 278.60002 486.16613 C 271.54602 490.6394 265.6734 496.7461 261.47918 503.9695 L 252.95022 518.6583 C 251.0057 522.0072 249.44135 525.5628 248.28628 529.25905 L 247.5467 531.62576 C 247.18302 532.7895 247.8316 534.0277 248.99535 534.3914 C 249.75122 534.6276 250.5757 534.44084 251.15602 533.902 L 270.4231 516.0111 C 272.0184 514.52975 273.70518 513.15003 275.47345 511.8801 L 304.82617 490.79967 C 304.82617 490.79967 336.9422 475.97116 336.9422 477.95326 C 336.9422 479.93536 323.3821 493.6544 323.3821 493.6544 L 308.01075 513.1356 C 299.3533 524.1078 300.65945 539.90776 311.00118 549.3093 L 329.35666 565.9961 C 333.52698 569.7873 339.5699 570.69436 344.66946 568.29456 L 344.66946 568.29456 C 348.78595 566.3574 350.55263 561.4499 348.61546 557.33345 C 348.4727 557.03004 348.3115 556.73564 348.13285 556.4519 L 340.43646 544.2282 C 337.65832 539.81586 334.23235 535.84645 330.2735 532.45316 L 325.83954 528.6526 C 322.6603 525.92756 322.29213 521.1412 325.01718 517.962 C 325.94465 516.8799 327.1583 516.0812 328.519 515.6574 L 373.75584 501.5672 C 375.1763 501.12477 376.5771 500.6216 377.9544 500.059 L 443.8294 473.15233 C 445.4434 472.4931 447.02326 471.7531 448.56295 470.9351 L 462.10873 463.7389 C 467.08875 461.0933 473.27056 462.9857 475.9162 467.9657 C 476.77833 469.58855 477.1865 471.414 477.0977 473.2495 L 475.4012 508.31035 C 475.13043 513.9067 473.957 519.42246 471.92623 524.6444 L 471.5237 525.67946 C 469.33475 531.3082 464.67313 535.61347 458.88847 537.34887 L 418.5026 549.4646 C 418.5026 549.4646 397.69057 572.25875 395.70847 572.25875 C 393.72637 572.25875 383.8159 584.15134 383.8159 584.15134 C 383.8159 584.15134 403.63686 580.18714 404.6279 580.18714 C 405.61896 580.18714 436.34147 565.3214 436.34147 565.3214 L 455.16847 559.9423 C 465.39034 557.0217 474.19886 550.47873 479.9476 541.53624 L 488.86705 527.66156 C 488.86705 527.66156 501.7507 544.5094 502.7417 544.5094 C 503.7328 544.5094 474.99237 579.1961 474.99237 579.1961 L 449.2285 607.8226 C 448.5883 608.53395 448.23405 609.4571 448.23405 610.4141 L 448.23405 610.4141 C 448.23405 610.8919 448.6214 611.27926 449.0992 611.27926 C 449.249 611.27926 449.3963 611.24034 449.52656 611.1663 L 488.5223 589.00964 C 490.73127 587.75456 492.84526 586.3393 494.8473 584.77516 L 509.04026 573.6869 C 518.43014 566.3511 525.01575 556.0129 527.6951 544.40235 L 530.5474 532.0424 C 531.8227 526.51627 532.1853 520.81873 531.621 515.1755 L 530.9866 508.83163 C 530.04894 499.45484 533.5046 490.1721 540.3457 483.6911 L 557.9385 467.02424 C 563.997 461.28456 568.5851 454.17097 571.315 446.28445 L 582.6083 413.65945 C 584.19415 409.07807 585.13154 404.29743 585.3932 399.4564 L 586.4987 379.005 C 586.8117 373.21407 585.24254 367.4773 582.0256 362.65195 L 582.0256 362.65195 C 578.79055 357.79934 574.22764 353.97994 568.88136 351.6495 L 546.8607 342.05077 C 541.27667 339.6167 535.30836 338.1827 529.228 337.8142 L 513.4336 336.85696 C 508.3159 336.5468 503.1805 336.9952 498.19404 338.18762 L 465.63217 345.97416 C 461.9726 346.84926 458.2289 347.3246 454.4668 347.39176 L 405.60184 348.26435 C 404.9526 348.27595 404.3032 348.27538 403.654 348.26265 L 355.93226 347.32693 C 354.70076 347.3028 353.4705 347.2349 352.2438 347.12337 L 348.63366 346.79517 C 345.0228 346.4669 341.48715 345.56635 338.15923 344.12725 Z" stroke="black" stroke-linecap="round" stroke-linejoin="round" stroke-width="7"/>
      </g>
      <g id="Graphic_18">
        <path d="M 584.0077 364.13852 L 612.7481 350.26384 L 654.3722 338.37126 L 679.1484 359.1833 C 679.1484 359.1833 692.032 418.6462 692.032 420.6283 C 692.032 422.6104 675.1842 448.37766 675.1842 448.37766 L 674.19316 430.5388 L 677.1663 403.78047 L 670.229 373.05796 L 654.3722 355.2191 C 654.3722 355.2191 631.57806 356.21013 630.587 356.21013 C 629.596 356.21013 603.8287 367.11167 603.8287 367.11167 L 586.9809 374.049 Z" fill="#371e08"/>
        <path d="M 584.0077 364.13852 L 612.7481 350.26384 L 654.3722 338.37126 L 679.1484 359.1833 C 679.1484 359.1833 692.032 418.6462 692.032 420.6283 C 692.032 422.6104 675.1842 448.37766 675.1842 448.37766 L 674.19316 430.5388 L 677.1663 403.78047 L 670.229 373.05796 L 654.3722 355.2191 C 654.3722 355.2191 631.57806 356.21013 630.587 356.21013 C 629.596 356.21013 603.8287 367.11167 603.8287 367.11167 L 586.9809 374.049 Z" stroke="black" stroke-linecap="round" stroke-linejoin="round" stroke-width="3"/>
      </g>
      <g id="Graphic_17">
        <circle cx="191.55244" cy="301.70246" r="15.8568046435523" fill="#ccc"/>
        <circle cx="191.55244" cy="301.70246" r="15.8568046435523" stroke="black" stroke-linecap="round" stroke-linejoin="round" stroke-width="3"/>
      </g>
      <g id="Graphic_16">
        <circle cx="185.42545" cy="301.70246" r="9.72980860574711" fill="black"/>
        <circle cx="185.42545" cy="301.70246" r="9.72980860574711" stroke="black" stroke-linecap="round" stroke-linejoin="round" stroke-width="2"/>
      </g>
      <g id="Graphic_15">
        <path d="M 191.44237 513.34036 L 226.9241 506.01874 L 279.30187 522.3516 C 279.30187 522.3516 336.74847 534.17883 337.31167 534.17883 C 337.87487 534.17883 436.9984 521.2252 436.9984 521.2252 C 436.9984 521.2252 507.96186 497.5707 508.52506 497.5707 C 509.08826 497.5707 556.9604 481.80105 557.5236 481.80105 C 558.0868 481.80105 586.8101 504.89233 586.8101 504.89233 C 586.8101 504.89233 619.47584 553.3277 619.47584 553.8909 C 619.47584 554.4541 594.13175 606.2687 593.56855 606.8319 C 593.00535 607.3951 550.202 636.6816 546.8228 638.9344 C 543.4436 641.1872 448.26245 645.6928 448.26245 645.6928 L 375.0462 611.3375 C 375.0462 611.3375 311.9676 588.8094 310.84118 588.2462 C 309.71478 587.683 260.7162 570.22376 260.7162 570.22376 L 228.0505 567.40775 L 199.8904 548.8221 L 196.5112 538.68445 Z" fill="#cbcbcb"/>
        <path d="M 191.44237 513.34036 L 226.9241 506.01874 L 279.30187 522.3516 C 279.30187 522.3516 336.74847 534.17883 337.31167 534.17883 C 337.87487 534.17883 436.9984 521.2252 436.9984 521.2252 C 436.9984 521.2252 507.96186 497.5707 508.52506 497.5707 C 509.08826 497.5707 556.9604 481.80105 557.5236 481.80105 C 558.0868 481.80105 586.8101 504.89233 586.8101 504.89233 C 586.8101 504.89233 619.47584 553.3277 619.47584 553.8909 C 619.47584 554.4541 594.13175 606.2687 593.56855 606.8319 C 593.00535 607.3951 550.202 636.6816 546.8228 638.9344 C 543.4436 641.1872 448.26245 645.6928 448.26245 645.6928 L 375.0462 611.3375 C 375.0462 611.3375 311.9676 588.8094 310.84118 588.2462 C 309.71478 587.683 260.7162 570.22376 260.7162 570.22376 L 228.0505 567.40775 L 199.8904 548.8221 L 196.5112 538.68445 Z" stroke="black" stroke-linecap="round" stroke-linejoin="round" stroke-width="7"/>
      </g>
      <g id="Graphic_14">
        <ellipse cx="250.8635" cy="618.0959" rx="59.4212261360225" ry="59.1362975374237" fill="#666"/>
        <ellipse cx="250.8635" cy="618.0959" rx="59.4212261360225" ry="59.1362975374237" stroke="black" stroke-linecap="round" stroke-linejoin="round" stroke-width="29"/>
      </g>
      <g id="Graphic_13">
        <ellipse cx="543.7252" cy="629.07836" rx="75.7507811312713" ry="70.1187527943737" fill="#666"/>
        <ellipse cx="543.7252" cy="629.07836" rx="75.7507811312713" ry="70.1187527943737" stroke="black" stroke-linecap="round" stroke-linejoin="round" stroke-width="29"/>
      </g>
      <g id="Graphic_12">
        <ellipse cx="250.8635" cy="618.0959" rx="9.72980860574713" ry="9.68315354810285" fill="#4040ff"/>
        <ellipse cx="250.8635" cy="618.0959" rx="9.72980860574713" ry="9.68315354810285" stroke="black" stroke-linecap="round" stroke-linejoin="round" stroke-width="29"/>
      </g>
      <g id="Graphic_11">
        <ellipse cx="543.7252" cy="629.07836" rx="9.72980860574717" ry="9.68315354810288" fill="#4040ff"/>
        <ellipse cx="543.7252" cy="629.07836" rx="9.72980860574717" ry="9.68315354810288" stroke="black" stroke-linecap="round" stroke-linejoin="round" stroke-width="29"/>
      </g>
    </g>
  </g>
</svg>
