<?xml version="1.0" encoding="UTF-8" standalone="no"?>
<!DOCTYPE svg PUBLIC "-//W3C//DTD SVG 1.1//EN" "http://www.w3.org/Graphics/SVG/1.1/DTD/svg11.dtd">
<svg xmlns="http://www.w3.org/2000/svg" xmlns:xl="http://www.w3.org/1999/xlink" xmlns:dc="http://purl.org/dc/elements/1.1/" version="1.1" viewBox="0 0 850.394 850.394" width="850.394" height="850.394">
  <defs/>
  <metadata> Produced by OmniGraffle 7.9.4 
    <dc:date>2019-04-29 13:15:54 +0000</dc:date>
  </metadata>
  <g id="file" stroke-opacity="1" fill-opacity="1" fill="none" stroke="none" stroke-dasharray="none">
    <title>file</title>
    <g id="file: Layer 1">
      <title>Layer 1</title>
      <g id="Graphic_2">
        <path d="M 54.16749 653.18966 L 54.16749 208 L 333.10837 208 L 431.29557 273.83005 L 814.0025 273.83005 L 814.0025 656.53695 L 822.9286 656.53695 Z" fill="#9662d0"/>
        <path d="M 54.16749 653.18966 L 54.16749 208 L 333.10837 208 L 431.29557 273.83005 L 814.0025 273.83005 L 814.0025 656.53695 L 822.9286 656.53695 Z" stroke="black" stroke-linecap="round" stroke-linejoin="round" stroke-width="5"/>
      </g>
      <g id="Graphic_3">
        <path d="M 50.8202 659.8842 L 14 293.9138 L 301.867 267.13547 L 373.27586 340.77586 L 743.7094 328.50246 L 815.1182 656.53695 L 748.1724 661 L 105.49261 659.8842 Z" fill="#c0c0ff"/>
        <path d="M 50.8202 659.8842 L 14 293.9138 L 301.867 267.13547 L 373.27586 340.77586 L 743.7094 328.50246 L 815.1182 656.53695 L 748.1724 661 L 105.49261 659.8842 Z" stroke="black" stroke-linecap="round" stroke-linejoin="round" stroke-width="5"/>
      </g>
      <g id="Graphic_4">
        <path d="M 80.94581 628.9444 C 80.94581 627.1346 68.67241 485.96937 68.67241 485.96937 L 203.6798 462.4418 L 262.81527 446.15353 L 269.50985 609.0365 L 257.23645 627.1346 C 257.23645 627.1346 80.94581 630.7542 80.94581 628.9444 Z" fill="white"/>
        <path d="M 80.94581 628.9444 C 80.94581 627.1346 68.67241 485.96937 68.67241 485.96937 L 203.6798 462.4418 L 262.81527 446.15353 L 269.50985 609.0365 L 257.23645 627.1346 C 257.23645 627.1346 80.94581 630.7542 80.94581 628.9444 Z" stroke="black" stroke-linecap="round" stroke-linejoin="round" stroke-width="4"/>
      </g>
      <g id="Graphic_22">
        <path d="M 219.81171 505.1586 L 223.7535 510.08885 C 223.78637 510.12995 223.81987 510.1705 223.854 510.21057 L 230.26898 517.7344 C 230.53722 518.049 230.7654 518.39565 230.9483 518.7664 L 235.31218 527.61276 C 235.41645 527.8241 235.50564 528.0426 235.5791 528.26656 L 239.1674 539.20754 C 239.3611 539.7981 239.44298 540.4196 239.40886 541.0402 L 238.84267 551.3382 C 238.82154 551.7225 238.7561 552.1031 238.64766 552.4724 L 235.68887 562.5489 C 235.51707 563.134 235.18877 563.6611 234.7394 564.0733 L 234.0548 564.7012 C 234.05327 564.7026 234.05174 564.70404 234.0502 564.70544 L 228.1592 570.12254 C 227.77425 570.4765 227.30016 570.71894 226.78784 570.8238 L 226.78784 570.8238 C 226.32572 570.91834 225.85757 570.6914 225.64556 570.27005 L 222.4075 563.8349 C 222.16725 563.35745 221.852 562.9216 221.47374 562.54395 L 216.00413 557.0832 C 215.44589 556.52585 214.7637 556.1085 214.0133 555.86525 L 207.77519 553.84306 C 207.43003 553.7312 207.09808 553.58205 206.7852 553.3983 L 204.1902 551.8745 C 203.76373 551.62407 203.30248 551.4383 202.8215 551.32325 L 198.40014 550.2657 C 196.07092 549.7086 194.63434 547.3687 195.19147 545.0395 C 195.25805 544.76113 195.35203 544.49005 195.47203 544.2302 L 213.14107 505.9691 C 214.0556 503.98875 216.40238 503.1247 218.38274 504.03926 C 218.9395 504.2964 219.42875 504.6796 219.81171 505.1586 Z" fill="#999"/>
        <path d="M 219.81171 505.1586 L 223.7535 510.08885 C 223.78637 510.12995 223.81987 510.1705 223.854 510.21057 L 230.26898 517.7344 C 230.53722 518.049 230.7654 518.39565 230.9483 518.7664 L 235.31218 527.61276 C 235.41645 527.8241 235.50564 528.0426 235.5791 528.26656 L 239.1674 539.20754 C 239.3611 539.7981 239.44298 540.4196 239.40886 541.0402 L 238.84267 551.3382 C 238.82154 551.7225 238.7561 552.1031 238.64766 552.4724 L 235.68887 562.5489 C 235.51707 563.134 235.18877 563.6611 234.7394 564.0733 L 234.0548 564.7012 C 234.05327 564.7026 234.05174 564.70404 234.0502 564.70544 L 228.1592 570.12254 C 227.77425 570.4765 227.30016 570.71894 226.78784 570.8238 L 226.78784 570.8238 C 226.32572 570.91834 225.85757 570.6914 225.64556 570.27005 L 222.4075 563.8349 C 222.16725 563.35745 221.852 562.9216 221.47374 562.54395 L 216.00413 557.0832 C 215.44589 556.52585 214.7637 556.1085 214.0133 555.86525 L 207.77519 553.84306 C 207.43003 553.7312 207.09808 553.58205 206.7852 553.3983 L 204.1902 551.8745 C 203.76373 551.62407 203.30248 551.4383 202.8215 551.32325 L 198.40014 550.2657 C 196.07092 549.7086 194.63434 547.3687 195.19147 545.0395 C 195.25805 544.76113 195.35203 544.49005 195.47203 544.2302 L 213.14107 505.9691 C 214.0556 503.98875 216.40238 503.1247 218.38274 504.03926 C 218.9395 504.2964 219.42875 504.6796 219.81171 505.1586 Z" stroke="black" stroke-linecap="round" stroke-linejoin="round" stroke-width="3"/>
      </g>
      <g id="Graphic_21">
        <path d="M 201.38051 549.23807 L 196.0862 549.348 C 194.19667 549.3872 192.4465 548.35766 191.56275 546.68707 L 189.44955 542.6924 C 189.26542 542.3443 189.12305 541.9757 189.0254 541.5942 L 186.5787 532.0357 C 186.57221 532.01034 186.56553 531.9851 186.55865 531.95985 L 184.51399 524.4634 C 184.4902 524.3762 184.4688 524.2884 184.44977 524.20005 L 183.19908 518.3907 C 183.17265 518.26794 183.15086 518.14423 183.13375 518.01984 L 182.49357 513.3668 C 182.40274 512.7066 182.4448 512.0349 182.61728 511.3912 L 183.40106 508.4661 C 183.49349 508.1212 183.6226 507.7871 183.7862 507.4697 L 185.74884 503.6614 C 186.31201 502.5686 187.25805 501.7216 188.4062 501.2822 L 192.60509 499.6753 C 193.01366 499.5189 193.44098 499.41684 193.87612 499.3717 L 198.20249 498.92273 C 198.33222 498.90927 198.46137 498.89074 198.58965 498.8672 L 203.78107 497.91365 C 204.3392 497.81114 204.9107 497.8044 205.47108 497.89367 L 211.02204 498.77813 C 211.29908 498.8223 211.5719 498.88965 211.83764 498.97955 L 213.54193 499.55614 C 214.87928 500.0086 215.9576 501.0141 216.5023 502.3166 L 218.40176 506.8587 C 218.6078 507.3514 218.73358 507.8739 218.7743 508.4064 L 219.76167 521.3145 C 219.7637 521.34085 219.76591 521.3672 219.76835 521.3935 L 220.99156 534.6231 C 221.03416 535.0839 221.0126 535.5484 220.92745 536.0033 L 220.1375 540.2238 C 219.85157 541.7515 218.87147 543.05933 217.4855 543.76266 L 213.60328 545.7327 C 213.20474 545.935 212.78089 546.08287 212.34304 546.17246 L 208.37574 546.9843 C 208.1199 547.03666 207.86857 547.109 207.62403 547.2006 L 203.03086 548.92135 C 202.50255 549.1193 201.94456 549.22636 201.38051 549.23807 Z" fill="#cbcbcb"/>
        <path d="M 201.38051 549.23807 L 196.0862 549.348 C 194.19667 549.3872 192.4465 548.35766 191.56275 546.68707 L 189.44955 542.6924 C 189.26542 542.3443 189.12305 541.9757 189.0254 541.5942 L 186.5787 532.0357 C 186.57221 532.01034 186.56553 531.9851 186.55865 531.95985 L 184.51399 524.4634 C 184.4902 524.3762 184.4688 524.2884 184.44977 524.20005 L 183.19908 518.3907 C 183.17265 518.26794 183.15086 518.14423 183.13375 518.01984 L 182.49357 513.3668 C 182.40274 512.7066 182.4448 512.0349 182.61728 511.3912 L 183.40106 508.4661 C 183.49349 508.1212 183.6226 507.7871 183.7862 507.4697 L 185.74884 503.6614 C 186.31201 502.5686 187.25805 501.7216 188.4062 501.2822 L 192.60509 499.6753 C 193.01366 499.5189 193.44098 499.41684 193.87612 499.3717 L 198.20249 498.92273 C 198.33222 498.90927 198.46137 498.89074 198.58965 498.8672 L 203.78107 497.91365 C 204.3392 497.81114 204.9107 497.8044 205.47108 497.89367 L 211.02204 498.77813 C 211.29908 498.8223 211.5719 498.88965 211.83764 498.97955 L 213.54193 499.55614 C 214.87928 500.0086 215.9576 501.0141 216.5023 502.3166 L 218.40176 506.8587 C 218.6078 507.3514 218.73358 507.8739 218.7743 508.4064 L 219.76167 521.3145 C 219.7637 521.34085 219.76591 521.3672 219.76835 521.3935 L 220.99156 534.6231 C 221.03416 535.0839 221.0126 535.5484 220.92745 536.0033 L 220.1375 540.2238 C 219.85157 541.7515 218.87147 543.05933 217.4855 543.76266 L 213.60328 545.7327 C 213.20474 545.935 212.78089 546.08287 212.34304 546.17246 L 208.37574 546.9843 C 208.1199 547.03666 207.86857 547.109 207.62403 547.2006 L 203.03086 548.92135 C 202.50255 549.1193 201.94456 549.22636 201.38051 549.23807 Z" stroke="black" stroke-linecap="round" stroke-linejoin="round" stroke-width="3"/>
      </g>
      <g id="Graphic_20">
        <path d="M 206.3936 500.82314 L 205.693 496.6112 C 205.68761 496.5789 205.68256 496.54654 205.67782 496.5141 L 204.55043 488.80286 C 204.43746 488.03015 204.14506 487.29463 203.69666 486.65526 L 202.07822 484.3475 C 201.12889 482.9939 201.3373 481.14494 202.56416 480.0366 L 202.88323 479.74834 C 203.96632 478.7699 205.56631 478.62657 206.80605 479.397 L 207.9749 480.12335 C 208.56122 480.4877 208.95656 481.09255 209.055 481.7758 L 209.06392 481.83775 C 209.16049 482.50796 209.1199 483.1908 208.94466 483.84486 L 208.20267 486.614 C 208.10992 486.96016 208.05465 487.3153 208.03782 487.67326 L 207.6865 495.14507 C 207.68558 495.16466 207.68454 495.18425 207.6834 495.20384 L 207.35586 500.77206 C 207.34014 501.03936 207.1107 501.2433 206.84339 501.2276 C 206.61742 501.2143 206.43073 501.0464 206.3936 500.82314 Z" fill="#333"/>
        <path d="M 206.3936 500.82314 L 205.693 496.6112 C 205.68761 496.5789 205.68256 496.54654 205.67782 496.5141 L 204.55043 488.80286 C 204.43746 488.03015 204.14506 487.29463 203.69666 486.65526 L 202.07822 484.3475 C 201.12889 482.9939 201.3373 481.14494 202.56416 480.0366 L 202.88323 479.74834 C 203.96632 478.7699 205.56631 478.62657 206.80605 479.397 L 207.9749 480.12335 C 208.56122 480.4877 208.95656 481.09255 209.055 481.7758 L 209.06392 481.83775 C 209.16049 482.50796 209.1199 483.1908 208.94466 483.84486 L 208.20267 486.614 C 208.10992 486.96016 208.05465 487.3153 208.03782 487.67326 L 207.6865 495.14507 C 207.68558 495.16466 207.68454 495.18425 207.6834 495.20384 L 207.35586 500.77206 C 207.34014 501.03936 207.1107 501.2433 206.84339 501.2276 C 206.61742 501.2143 206.43073 501.0464 206.3936 500.82314 Z" stroke="black" stroke-linecap="round" stroke-linejoin="round" stroke-width="3"/>
      </g>
      <g id="Graphic_19">
        <path d="M 215.6512 511.63924 L 221.52614 503.97096 C 221.6122 503.8586 221.69347 503.74267 221.7697 503.6234 L 224.59542 499.2037 C 224.84252 498.8172 225.03525 498.39855 225.1682 497.9595 L 225.61045 496.4991 C 226.0089 495.18337 227.07096 494.1748 228.40553 493.84487 L 229.13613 493.66424 C 230.09634 493.42686 231.07404 493.984 231.35926 494.9311 L 231.35926 494.9311 C 231.67882 495.99227 231.4671 497.1424 230.79062 498.0202 L 229.98625 499.06397 C 229.72927 499.3974 229.4312 499.6971 229.09914 499.95584 L 223.57198 504.2628 C 223.35008 504.4357 223.14316 504.62704 222.95343 504.83476 L 217.6946 510.5924 C 217.48095 510.8263 217.24555 511.0394 216.99158 511.22876 L 215.98608 511.9785 C 215.87953 512.05795 215.72876 512.036 215.64932 511.92944 C 215.58499 511.84316 215.58576 511.72467 215.6512 511.63924 Z" fill="#333"/>
        <path d="M 215.6512 511.63924 L 221.52614 503.97096 C 221.6122 503.8586 221.69347 503.74267 221.7697 503.6234 L 224.59542 499.2037 C 224.84252 498.8172 225.03525 498.39855 225.1682 497.9595 L 225.61045 496.4991 C 226.0089 495.18337 227.07096 494.1748 228.40553 493.84487 L 229.13613 493.66424 C 230.09634 493.42686 231.07404 493.984 231.35926 494.9311 L 231.35926 494.9311 C 231.67882 495.99227 231.4671 497.1424 230.79062 498.0202 L 229.98625 499.06397 C 229.72927 499.3974 229.4312 499.6971 229.09914 499.95584 L 223.57198 504.2628 C 223.35008 504.4357 223.14316 504.62704 222.95343 504.83476 L 217.6946 510.5924 C 217.48095 510.8263 217.24555 511.0394 216.99158 511.22876 L 215.98608 511.9785 C 215.87953 512.05795 215.72876 512.036 215.64932 511.92944 C 215.58499 511.84316 215.58576 511.72467 215.6512 511.63924 Z" stroke="black" stroke-linecap="round" stroke-linejoin="round" stroke-width="3"/>
      </g>
      <g id="Graphic_18">
        <path d="M 232.8303 523.96683 C 232.8303 523.96683 229.51583 523.0787 229.37773 523.0417 C 229.23963 523.0047 223.80138 526.7282 223.80138 526.7282 L 223.85092 531.5164 C 223.86165 532.5535 224.19463 533.5616 224.80375 534.4011 L 227.8671 538.6229 C 227.8671 538.6229 232.41457 540.4335 232.55268 540.4705 C 232.69078 540.5075 236.6416 540.678 236.6416 540.678 L 237.23476 538.8223 C 237.4471 538.158 237.51812 537.45666 237.44327 536.7633 L 237.0927 533.5159 C 237.0621 533.2322 237.00724 532.9517 236.92877 532.6774 L 235.69245 528.3555 C 235.52665 527.7759 235.25738 527.231 234.89767 526.74724 Z" fill="#666"/>
        <path d="M 232.8303 523.96683 C 232.8303 523.96683 229.51583 523.0787 229.37773 523.0417 C 229.23963 523.0047 223.80138 526.7282 223.80138 526.7282 L 223.85092 531.5164 C 223.86165 532.5535 224.19463 533.5616 224.80375 534.4011 L 227.8671 538.6229 C 227.8671 538.6229 232.41457 540.4335 232.55268 540.4705 C 232.69078 540.5075 236.6416 540.678 236.6416 540.678 L 237.23476 538.8223 C 237.4471 538.158 237.51812 537.45666 237.44327 536.7633 L 237.0927 533.5159 C 237.0621 533.2322 237.00724 532.9517 236.92877 532.6774 L 235.69245 528.3555 C 235.52665 527.7759 235.25738 527.231 234.89767 526.74724 Z" stroke="black" stroke-linecap="round" stroke-linejoin="round" stroke-width="3"/>
      </g>
      <g id="Graphic_17">
        <path d="M 210.2425 524.5753 L 210.2425 524.5753 C 209.59922 524.13415 209.2853 523.34875 209.4473 522.5858 L 209.47165 522.4711 C 209.6454 521.65275 210.15832 520.9466 210.88281 520.5283 L 210.88281 520.5283 C 211.49012 520.1777 212.26668 520.3858 212.6173 520.9931 C 212.6246 521.0057 212.63168 521.0185 212.63854 521.03135 L 213.16426 522.01906 C 213.31536 522.3029 213.3531 522.63354 213.26987 522.94415 L 213.26987 522.94415 C 213.18496 523.26105 213.01987 523.55073 212.7905 523.7853 L 212.20637 524.3827 C 211.68544 524.9154 210.857 524.99666 210.2425 524.5753 Z" fill="#ff4040"/>
        <path d="M 210.2425 524.5753 L 210.2425 524.5753 C 209.59922 524.13415 209.2853 523.34875 209.4473 522.5858 L 209.47165 522.4711 C 209.6454 521.65275 210.15832 520.9466 210.88281 520.5283 L 210.88281 520.5283 C 211.49012 520.1777 212.26668 520.3858 212.6173 520.9931 C 212.6246 521.0057 212.63168 521.0185 212.63854 521.03135 L 213.16426 522.01906 C 213.31536 522.3029 213.3531 522.63354 213.26987 522.94415 L 213.26987 522.94415 C 213.18496 523.26105 213.01987 523.55073 212.7905 523.7853 L 212.20637 524.3827 C 211.68544 524.9154 210.857 524.99666 210.2425 524.5753 Z" stroke="black" stroke-linecap="round" stroke-linejoin="round" stroke-width="3"/>
      </g>
      <g id="Graphic_16">
        <path d="M 213.19346 536.7634 L 213.19346 536.7634 C 212.7139 536.3642 212.51023 535.7226 212.67172 535.1199 L 212.9015 534.2623 C 213.08624 533.5729 213.73926 533.1156 214.4503 533.1777 L 214.45443 533.17804 C 215.20305 533.2434 215.84752 533.7331 216.11116 534.4368 L 216.11116 534.4368 C 216.36566 535.11613 216.13208 535.8817 215.5417 536.30325 L 214.81312 536.82346 C 214.32233 537.1739 213.65695 537.1492 213.19346 536.7634 Z" fill="lime"/>
        <path d="M 213.19346 536.7634 L 213.19346 536.7634 C 212.7139 536.3642 212.51023 535.7226 212.67172 535.1199 L 212.9015 534.2623 C 213.08624 533.5729 213.73926 533.1156 214.4503 533.1777 L 214.45443 533.17804 C 215.20305 533.2434 215.84752 533.7331 216.11116 534.4368 L 216.11116 534.4368 C 216.36566 535.11613 216.13208 535.8817 215.5417 536.30325 L 214.81312 536.82346 C 214.32233 537.1739 213.65695 537.1492 213.19346 536.7634 Z" stroke="black" stroke-linecap="round" stroke-linejoin="round" stroke-width="3"/>
      </g>
      <g id="Graphic_15">
        <path d="M 198.61113 538.3025 L 196.07233 537.20775 C 194.90967 536.7064 193.9805 535.78265 193.4724 534.62293 L 191.09154 529.18884 C 191.00167 528.9837 190.92568 528.7728 190.86408 528.55746 L 189.6544 524.3287 C 189.6054 524.15743 189.5656 523.9837 189.53516 523.8082 L 188.2264 516.26456 C 188.16005 515.8821 188.13845 515.49326 188.16206 515.1058 L 188.40235 511.1614 C 188.5254 509.14165 189.85367 507.3952 191.7672 506.7372 L 194.66101 505.7421 C 195.60254 505.4183 196.6193 505.383 197.58101 505.6407 L 198.66243 505.9305 C 199.94333 506.2737 201.03542 507.1117 201.69846 508.2601 L 202.70893 510.0103 C 203.02698 510.56117 203.237 511.1677 203.3277 511.79727 L 205.33057 525.6986 C 205.35302 525.85443 205.38282 526.0091 205.41988 526.16216 L 206.7505 531.65796 C 206.94738 532.47107 206.93708 533.32057 206.72055 534.12866 L 206.31045 535.6592 C 205.86847 537.30867 204.4206 538.49026 202.716 538.5926 L 200.8905 538.70215 C 200.1099 538.749 199.3292 538.6121 198.61113 538.3025 Z" fill="#c0c0ff"/>
        <path d="M 198.61113 538.3025 L 196.07233 537.20775 C 194.90967 536.7064 193.9805 535.78265 193.4724 534.62293 L 191.09154 529.18884 C 191.00167 528.9837 190.92568 528.7728 190.86408 528.55746 L 189.6544 524.3287 C 189.6054 524.15743 189.5656 523.9837 189.53516 523.8082 L 188.2264 516.26456 C 188.16005 515.8821 188.13845 515.49326 188.16206 515.1058 L 188.40235 511.1614 C 188.5254 509.14165 189.85367 507.3952 191.7672 506.7372 L 194.66101 505.7421 C 195.60254 505.4183 196.6193 505.383 197.58101 505.6407 L 198.66243 505.9305 C 199.94333 506.2737 201.03542 507.1117 201.69846 508.2601 L 202.70893 510.0103 C 203.02698 510.56117 203.237 511.1677 203.3277 511.79727 L 205.33057 525.6986 C 205.35302 525.85443 205.38282 526.0091 205.41988 526.16216 L 206.7505 531.65796 C 206.94738 532.47107 206.93708 533.32057 206.72055 534.12866 L 206.31045 535.6592 C 205.86847 537.30867 204.4206 538.49026 202.716 538.5926 L 200.8905 538.70215 C 200.1099 538.749 199.3292 538.6121 198.61113 538.3025 Z" stroke="black" stroke-linecap="round" stroke-linejoin="round" stroke-width="3"/>
      </g>
      <g id="Graphic_14">
        <path d="M 154.63033 550.3791 L 154.77408 548.57775 C 154.82428 547.9487 154.75494 547.3158 154.56973 546.7125 L 150.79144 534.4061 C 150.75721 534.2946 150.7191 534.1844 150.67716 534.07555 L 146.35285 522.85486 C 146.30906 522.74125 146.26944 522.6261 146.23407 522.50957 L 144.17882 515.74104 C 144.11665 515.5363 144.06769 515.3278 144.03224 515.1168 L 142.92592 508.5323 C 142.90033 508.38004 142.88182 508.22667 142.87043 508.0727 L 142.46127 502.54153 C 142.4254 502.0566 142.46045 501.5691 142.56532 501.0943 L 143.68276 496.0351 C 143.75816 495.69373 143.86915 495.3612 144.01392 495.043 L 145.82956 491.052 C 145.91441 490.8655 146.01065 490.68436 146.11773 490.50965 L 147.68196 487.9575 C 147.93328 487.54745 148.12412 487.1033 148.24859 486.63876 L 149.12526 483.367 C 149.27793 482.7972 149.5302 482.259 149.87042 481.77714 L 154.15933 475.7028 C 154.2832 475.5274 154.5033 475.44776 154.71075 475.50334 L 154.71075 475.50334 C 154.92191 475.5599 155.08218 475.7322 155.12339 475.9469 L 156.04022 480.72304 C 156.04308 480.7379 156.04586 480.75277 156.04858 480.76765 L 156.31442 482.2238 C 156.48905 483.18037 156.98695 484.0479 157.72478 484.6812 L 159.11588 485.87526 C 159.43262 486.14714 159.78216 486.3783 160.15634 486.5633 L 164.11976 488.523 C 164.15154 488.5387 164.18316 488.55475 164.2146 488.57114 L 168.25182 490.67537 C 168.64428 490.8799 169.06215 491.03145 169.4945 491.126 L 174.59395 492.2413 C 174.76822 492.27944 174.94033 492.32686 175.10954 492.38337 L 177.23696 493.0939 C 178.41787 493.4883 179.0876 494.7339 178.76537 495.9365 L 178.61987 496.4795 C 178.3419 497.5169 177.73727 498.43726 176.8955 499.10427 L 173.47077 501.818 C 173.36095 501.905 173.2475 501.9874 173.13076 502.0649 L 168.81773 504.9279 C 168.21619 505.3272 167.70826 505.852 167.32888 506.4663 L 166.06257 508.5167 C 165.72947 509.05606 165.56406 509.6822 165.58732 510.3157 L 165.58732 510.3157 C 165.61078 510.9546 165.78331 511.5792 166.09114 512.13957 L 166.98057 513.7587 C 167.57943 514.84886 168.56313 515.6767 169.73958 516.0805 L 171.0669 516.5361 C 171.58036 516.7124 172.1191 516.80383 172.66197 516.8069 L 177.88556 516.8364 C 177.9949 516.837 178.10423 516.83405 178.21338 516.8275 L 180.64905 516.6813 C 180.72134 516.67696 180.79371 516.6742 180.86613 516.673 L 181.79823 516.6576 C 182.47757 516.6464 183.1457 516.8316 183.72236 517.1909 L 184.92674 517.94136 C 185.4746 518.28274 186.08336 518.5148 186.71944 518.62473 L 187.99952 518.84597 C 188.57445 518.94533 189.16233 518.9433 189.73656 518.84 L 190.8486 518.63986 C 191.28192 518.5619 191.6836 518.36075 192.00563 518.0605 L 192.44514 517.65075 C 192.48098 517.6173 192.51732 517.58444 192.55413 517.5521 L 193.6182 516.61695 C 193.88659 516.3811 194.25508 516.29496 194.6002 516.38744 L 194.6002 516.38744 C 194.9053 516.4692 195.08634 516.7828 195.0046 517.08787 L 194.91208 517.4331 C 194.75866 518.0057 194.37446 518.4889 193.8512 518.76745 L 192.10898 519.6948 C 192.09096 519.7044 192.073 519.7141 192.05509 519.7239 L 188.27954 521.79325 C 188.15884 521.8594 188.01727 521.87645 187.88432 521.8408 L 187.88432 521.8408 C 187.75 521.8048 187.60754 521.81425 187.47913 521.8676 L 184.12457 523.26183 C 183.60942 523.47594 183.06207 523.6023 182.5052 523.63575 L 180.4628 523.75834 C 179.68796 523.80485 178.9346 524.0311 178.26237 524.4192 L 176.91837 525.1952 C 176.0635 525.68875 175.37384 526.4243 174.93632 527.3092 L 174.0916 529.0176 C 173.8121 529.5829 173.64205 530.19595 173.59043 530.82446 L 173.37113 533.4946 C 173.30856 534.25647 173.4215 535.0225 173.70128 535.7339 L 174.77267 538.45806 C 174.77267 538.45806 178.0349 544.5128 178.173 544.5498 C 178.31111 544.5868 179.55138 547.13944 179.55138 547.13944 L 182.10642 549.4051 C 182.3163 549.59123 182.54147 549.75935 182.77954 549.9077 L 185.11518 551.36306 C 185.26438 551.456 185.41838 551.54106 185.57654 551.6178 L 188.31619 552.94726 C 188.60128 553.0856 188.89888 553.1965 189.20496 553.27855 L 194.04738 554.5761 C 194.37833 554.66475 194.71752 554.7192 195.0596 554.7385 L 197.60641 554.8823 C 197.89799 554.89875 198.19044 554.88964 198.48043 554.85505 L 200.76576 554.5825 C 200.99014 554.5557 201.21607 554.5442 201.442 554.548 L 204.6132 554.60135 C 205.02194 554.6082 205.4283 554.6652 205.82318 554.771 L 210.10355 555.91794 C 210.6003 556.05104 211.00778 556.40604 211.2077 556.8799 L 211.2077 556.8799 C 211.40118 557.3385 211.84158 557.64454 212.33886 557.666 L 213.4834 557.7154 C 213.93137 557.7347 214.3747 557.8142 214.80147 557.95177 L 215.83785 558.28575 C 216.5267 558.50775 217.15916 558.87665 217.69152 559.36697 L 219.13321 560.6948 C 219.29528 560.8441 219.4473 561.0039 219.58828 561.1732 L 220.95085 562.80964 C 221.16989 563.0727 221.36133 563.35755 221.52216 563.6597 L 222.2831 565.0893 C 222.53189 565.5567 222.85333 565.98164 223.23542 566.3482 L 223.90004 566.9858 C 224.13738 567.21346 224.1452 567.59045 223.91751 567.8278 C 223.80118 567.94905 223.63904 568.0155 223.47106 568.0108 L 221.92847 567.9675 C 221.92847 567.9675 219.72608 569.0056 219.68907 569.1437 C 219.65207 569.2818 216.81334 571.0375 216.81334 571.0375 L 215.41163 572.3928 C 214.76015 573.0227 214.29212 573.8179 214.05757 574.6932 L 213.54503 576.60604 C 213.45981 576.9241 213.34339 577.2329 213.19745 577.5281 L 211.81973 580.3145 C 211.80742 580.3394 211.7949 580.36416 211.78217 580.38885 L 210.26492 583.3329 C 210.2614 583.33975 210.25787 583.3466 210.25432 583.3534 L 209.0655 585.6343 C 209.04926 585.6654 209.0327 585.6964 209.01581 585.7272 L 206.14635 590.9605 C 205.95402 591.3113 205.80447 591.6839 205.70093 592.0703 L 205.15372 594.11254 C 205.15372 594.11254 204.59865 596.1841 204.46055 596.1471 C 204.32244 596.1101 202.38634 597.8116 202.38634 597.8116 L 202.24328 598.0693 C 202.15072 598.236 202.00376 598.36596 201.82694 598.4374 L 190.8725 602.86385 C 190.72217 602.9246 190.56898 602.978 190.41345 603.02386 L 187.86042 603.7767 C 187.78946 603.7976 187.71805 603.81696 187.64624 603.8347 L 184.17078 604.6939 C 183.50208 604.85926 182.80644 604.8846 182.12747 604.76844 L 176.0125 603.7221 C 175.68123 603.6654 175.3565 603.5755 175.04328 603.45364 L 165.98341 599.9297 C 165.81382 599.86375 165.64076 599.8071 165.465 599.76 L 163.38109 599.2016 C 163.38109 599.2016 156.87041 598.64124 156.52285 596.6239 C 156.1753 594.6065 156.1753 594.6065 156.1753 594.6065 L 154.52235 591.4466 C 154.12991 590.6964 153.5534 590.0581 152.84685 589.5916 L 150.97862 588.3581 C 150.67928 588.16045 150.35953 587.9956 150.02492 587.8664 L 147.1191 586.7442 C 146.8883 586.6551 146.65121 586.5832 146.40977 586.5292 L 144.59642 586.1234 C 143.82383 585.9505 143.02122 585.9635 142.25465 586.1614 L 140.50862 586.6122 C 140.0148 586.7397 139.54338 586.942 139.11075 587.21206 L 138.51927 587.5813 C 137.71418 588.0839 137.10573 588.8473 136.7954 589.7442 L 136.25141 591.3164 C 136.0604 591.8685 135.96761 592.44974 135.97725 593.0338 L 136.01077 595.0655 C 136.02382 595.8561 136.389 596.5996 137.00668 597.09324 L 137.00668 597.09324 C 137.61004 597.5754 138.42508 597.6984 139.14384 597.4157 L 140.639 596.82766 C 141.37225 596.5393 142.19175 596.5646 142.9058 596.8977 L 143.12633 597.00055 C 143.71913 597.2771 144.36043 597.4346 145.01389 597.4642 L 151.33638 597.7505 C 151.33638 597.7505 153.75814 598.10334 153.89624 598.14035 C 154.03434 598.17735 155.72858 598.4833 155.72858 598.4833 L 153.08214 601.1786 C 153.08214 601.1786 151.77972 604.3821 151.81672 604.244 C 151.85373 604.1059 153.05168 611.2357 153.05168 611.2357 L 153.0662 614.496 C 153.0662 614.496 152.2891 617.39616 152.2521 617.5343 C 152.2151 617.6724 149.68958 619.36395 149.68958 619.36395 L 146.78555 620.4519 C 146.41934 620.5891 146.03831 620.68285 145.65026 620.73125 L 141.38115 621.2637 C 141.34971 621.2676 141.3183 621.27185 141.28695 621.2764 L 138.1764 621.7245 C 138.126 621.7318 138.07547 621.7383 138.02487 621.744 L 134.21433 622.17464 C 133.9564 622.2038 133.69659 622.2128 133.43726 622.2016 L 130.32741 622.0674 C 130.0271 622.05444 129.72859 622.0144 129.43547 621.94785 L 126.7149 621.3299 C 126.40458 621.2594 126.08824 621.2187 125.77018 621.2083 L 122.34496 621.0967 C 122.0133 621.0859 121.68354 621.0421 121.36055 620.966 L 117.44142 620.0421 C 117.31507 620.01235 117.18993 619.97766 117.06629 619.9381 L 114.76525 619.2026 C 114.51459 619.1225 114.27064 619.0227 114.03569 618.9042 L 111.92809 617.841 C 111.48465 617.6173 111.07702 617.3288 110.71861 616.985 L 108.92143 615.2609 C 108.90995 615.2499 108.89852 615.2388 108.88715 615.2277 L 107.51865 613.88955 C 107.19282 613.57094 106.91207 613.2093 106.6842 612.8146 L 105.60714 610.9491 C 105.54315 610.83825 105.48345 610.725 105.42815 610.6096 L 104.0499 607.73314 C 103.88542 607.38986 103.68227 607.0665 103.4444 606.7693 L 100.43745 603.0124 C 100.16827 602.6761 99.94367 602.3064 99.76925 601.9125 L 97.91406 597.72295 C 97.78932 597.44124 97.69088 597.1486 97.62 596.8488 L 95.54423 588.0682 C 95.38207 587.3822 95.36677 586.66976 95.49933 585.9775 L 96.66768 579.87616 C 96.74301 579.4828 96.86533 579.0999 97.03202 578.7357 L 100.84311 570.4089 C 100.99104 570.0857 101.17302 569.77916 101.38596 569.4945 L 105.32095 564.2348 C 105.5581 563.9178 105.83206 563.6301 106.13706 563.3777 L 110.6228 559.6661 C 110.74945 559.5613 110.87085 559.45035 110.98657 559.3336 L 112.857 557.44644 C 113.11635 557.18477 113.40383 556.95256 113.7142 556.75405 L 116.89095 554.72223 C 116.96263 554.6764 117.03313 554.6287 117.10238 554.5793 L 119.24455 553.0497 C 119.4552 552.8993 119.67723 552.7655 119.9086 552.64945 L 123.89097 550.6523 C 124.08206 550.5565 124.2791 550.473 124.48089 550.4024 L 127.32561 549.4069 C 127.62204 549.3032 127.92758 549.2276 128.23818 549.1812 L 130.80199 548.7981 C 131.14484 548.7469 131.49208 548.73144 131.83812 548.75204 L 136.49307 549.02923 C 136.82996 549.0493 137.16396 549.1034 137.48995 549.19076 L 144.93424 551.18545 C 145.07653 551.2236 145.21708 551.268 145.35546 551.3185 L 155.52703 555.0335 C 155.70812 555.0996 155.88524 555.17616 156.05748 555.26276 L 162.81822 558.6615 C 163.18126 558.844 163.5207 559.0701 163.82904 559.3347 L 175.22254 569.1143 C 175.34005 569.21515 175.4528 569.3214 175.56045 569.43275 L 181.61973 575.6994 C 181.72214 575.8053 181.8198 575.9157 181.91246 576.0302 L 184.07228 578.7 C 184.15827 578.80626 184.31415 578.8227 184.42044 578.7367 C 184.5101 578.6642 184.5378 578.53936 184.48722 578.4357 L 183.89344 577.21876 C 183.65393 576.7279 183.33561 576.2796 182.95114 575.89165 L 179.34711 572.2552 C 179.34046 572.2485 179.33379 572.2418 179.3271 572.23514 L 171.77023 564.6963 C 171.67579 564.6021 171.57761 564.5117 171.47594 564.42534 L 165.15473 559.0558 C 164.88947 558.8305 164.60142 558.63347 164.29525 558.468 L 159.32809 555.7831 C 159.32635 555.78214 159.3246 555.7812 159.32287 555.78026 L 156.84212 554.44315 C 155.36443 553.6467 154.4968 552.05245 154.63033 550.3791 Z" fill="#837472"/>
        <path d="M 154.63033 550.3791 L 154.77408 548.57775 C 154.82428 547.9487 154.75494 547.3158 154.56973 546.7125 L 150.79144 534.4061 C 150.75721 534.2946 150.7191 534.1844 150.67716 534.07555 L 146.35285 522.85486 C 146.30906 522.74125 146.26944 522.6261 146.23407 522.50957 L 144.17882 515.74104 C 144.11665 515.5363 144.06769 515.3278 144.03224 515.1168 L 142.92592 508.5323 C 142.90033 508.38004 142.88182 508.22667 142.87043 508.0727 L 142.46127 502.54153 C 142.4254 502.0566 142.46045 501.5691 142.56532 501.0943 L 143.68276 496.0351 C 143.75816 495.69373 143.86915 495.3612 144.01392 495.043 L 145.82956 491.052 C 145.91441 490.8655 146.01065 490.68436 146.11773 490.50965 L 147.68196 487.9575 C 147.93328 487.54745 148.12412 487.1033 148.24859 486.63876 L 149.12526 483.367 C 149.27793 482.7972 149.5302 482.259 149.87042 481.77714 L 154.15933 475.7028 C 154.2832 475.5274 154.5033 475.44776 154.71075 475.50334 L 154.71075 475.50334 C 154.92191 475.5599 155.08218 475.7322 155.12339 475.9469 L 156.04022 480.72304 C 156.04308 480.7379 156.04586 480.75277 156.04858 480.76765 L 156.31442 482.2238 C 156.48905 483.18037 156.98695 484.0479 157.72478 484.6812 L 159.11588 485.87526 C 159.43262 486.14714 159.78216 486.3783 160.15634 486.5633 L 164.11976 488.523 C 164.15154 488.5387 164.18316 488.55475 164.2146 488.57114 L 168.25182 490.67537 C 168.64428 490.8799 169.06215 491.03145 169.4945 491.126 L 174.59395 492.2413 C 174.76822 492.27944 174.94033 492.32686 175.10954 492.38337 L 177.23696 493.0939 C 178.41787 493.4883 179.0876 494.7339 178.76537 495.9365 L 178.61987 496.4795 C 178.3419 497.5169 177.73727 498.43726 176.8955 499.10427 L 173.47077 501.818 C 173.36095 501.905 173.2475 501.9874 173.13076 502.0649 L 168.81773 504.9279 C 168.21619 505.3272 167.70826 505.852 167.32888 506.4663 L 166.06257 508.5167 C 165.72947 509.05606 165.56406 509.6822 165.58732 510.3157 L 165.58732 510.3157 C 165.61078 510.9546 165.78331 511.5792 166.09114 512.13957 L 166.98057 513.7587 C 167.57943 514.84886 168.56313 515.6767 169.73958 516.0805 L 171.0669 516.5361 C 171.58036 516.7124 172.1191 516.80383 172.66197 516.8069 L 177.88556 516.8364 C 177.9949 516.837 178.10423 516.83405 178.21338 516.8275 L 180.64905 516.6813 C 180.72134 516.67696 180.79371 516.6742 180.86613 516.673 L 181.79823 516.6576 C 182.47757 516.6464 183.1457 516.8316 183.72236 517.1909 L 184.92674 517.94136 C 185.4746 518.28274 186.08336 518.5148 186.71944 518.62473 L 187.99952 518.84597 C 188.57445 518.94533 189.16233 518.9433 189.73656 518.84 L 190.8486 518.63986 C 191.28192 518.5619 191.6836 518.36075 192.00563 518.0605 L 192.44514 517.65075 C 192.48098 517.6173 192.51732 517.58444 192.55413 517.5521 L 193.6182 516.61695 C 193.88659 516.3811 194.25508 516.29496 194.6002 516.38744 L 194.6002 516.38744 C 194.9053 516.4692 195.08634 516.7828 195.0046 517.08787 L 194.91208 517.4331 C 194.75866 518.0057 194.37446 518.4889 193.8512 518.76745 L 192.10898 519.6948 C 192.09096 519.7044 192.073 519.7141 192.05509 519.7239 L 188.27954 521.79325 C 188.15884 521.8594 188.01727 521.87645 187.88432 521.8408 L 187.88432 521.8408 C 187.75 521.8048 187.60754 521.81425 187.47913 521.8676 L 184.12457 523.26183 C 183.60942 523.47594 183.06207 523.6023 182.5052 523.63575 L 180.4628 523.75834 C 179.68796 523.80485 178.9346 524.0311 178.26237 524.4192 L 176.91837 525.1952 C 176.0635 525.68875 175.37384 526.4243 174.93632 527.3092 L 174.0916 529.0176 C 173.8121 529.5829 173.64205 530.19595 173.59043 530.82446 L 173.37113 533.4946 C 173.30856 534.25647 173.4215 535.0225 173.70128 535.7339 L 174.77267 538.45806 C 174.77267 538.45806 178.0349 544.5128 178.173 544.5498 C 178.31111 544.5868 179.55138 547.13944 179.55138 547.13944 L 182.10642 549.4051 C 182.3163 549.59123 182.54147 549.75935 182.77954 549.9077 L 185.11518 551.36306 C 185.26438 551.456 185.41838 551.54106 185.57654 551.6178 L 188.31619 552.94726 C 188.60128 553.0856 188.89888 553.1965 189.20496 553.27855 L 194.04738 554.5761 C 194.37833 554.66475 194.71752 554.7192 195.0596 554.7385 L 197.60641 554.8823 C 197.89799 554.89875 198.19044 554.88964 198.48043 554.85505 L 200.76576 554.5825 C 200.99014 554.5557 201.21607 554.5442 201.442 554.548 L 204.6132 554.60135 C 205.02194 554.6082 205.4283 554.6652 205.82318 554.771 L 210.10355 555.91794 C 210.6003 556.05104 211.00778 556.40604 211.2077 556.8799 L 211.2077 556.8799 C 211.40118 557.3385 211.84158 557.64454 212.33886 557.666 L 213.4834 557.7154 C 213.93137 557.7347 214.3747 557.8142 214.80147 557.95177 L 215.83785 558.28575 C 216.5267 558.50775 217.15916 558.87665 217.69152 559.36697 L 219.13321 560.6948 C 219.29528 560.8441 219.4473 561.0039 219.58828 561.1732 L 220.95085 562.80964 C 221.16989 563.0727 221.36133 563.35755 221.52216 563.6597 L 222.2831 565.0893 C 222.53189 565.5567 222.85333 565.98164 223.23542 566.3482 L 223.90004 566.9858 C 224.13738 567.21346 224.1452 567.59045 223.91751 567.8278 C 223.80118 567.94905 223.63904 568.0155 223.47106 568.0108 L 221.92847 567.9675 C 221.92847 567.9675 219.72608 569.0056 219.68907 569.1437 C 219.65207 569.2818 216.81334 571.0375 216.81334 571.0375 L 215.41163 572.3928 C 214.76015 573.0227 214.29212 573.8179 214.05757 574.6932 L 213.54503 576.60604 C 213.45981 576.9241 213.34339 577.2329 213.19745 577.5281 L 211.81973 580.3145 C 211.80742 580.3394 211.7949 580.36416 211.78217 580.38885 L 210.26492 583.3329 C 210.2614 583.33975 210.25787 583.3466 210.25432 583.3534 L 209.0655 585.6343 C 209.04926 585.6654 209.0327 585.6964 209.01581 585.7272 L 206.14635 590.9605 C 205.95402 591.3113 205.80447 591.6839 205.70093 592.0703 L 205.15372 594.11254 C 205.15372 594.11254 204.59865 596.1841 204.46055 596.1471 C 204.32244 596.1101 202.38634 597.8116 202.38634 597.8116 L 202.24328 598.0693 C 202.15072 598.236 202.00376 598.36596 201.82694 598.4374 L 190.8725 602.86385 C 190.72217 602.9246 190.56898 602.978 190.41345 603.02386 L 187.86042 603.7767 C 187.78946 603.7976 187.71805 603.81696 187.64624 603.8347 L 184.17078 604.6939 C 183.50208 604.85926 182.80644 604.8846 182.12747 604.76844 L 176.0125 603.7221 C 175.68123 603.6654 175.3565 603.5755 175.04328 603.45364 L 165.98341 599.9297 C 165.81382 599.86375 165.64076 599.8071 165.465 599.76 L 163.38109 599.2016 C 163.38109 599.2016 156.87041 598.64124 156.52285 596.6239 C 156.1753 594.6065 156.1753 594.6065 156.1753 594.6065 L 154.52235 591.4466 C 154.12991 590.6964 153.5534 590.0581 152.84685 589.5916 L 150.97862 588.3581 C 150.67928 588.16045 150.35953 587.9956 150.02492 587.8664 L 147.1191 586.7442 C 146.8883 586.6551 146.65121 586.5832 146.40977 586.5292 L 144.59642 586.1234 C 143.82383 585.9505 143.02122 585.9635 142.25465 586.1614 L 140.50862 586.6122 C 140.0148 586.7397 139.54338 586.942 139.11075 587.21206 L 138.51927 587.5813 C 137.71418 588.0839 137.10573 588.8473 136.7954 589.7442 L 136.25141 591.3164 C 136.0604 591.8685 135.96761 592.44974 135.97725 593.0338 L 136.01077 595.0655 C 136.02382 595.8561 136.389 596.5996 137.00668 597.09324 L 137.00668 597.09324 C 137.61004 597.5754 138.42508 597.6984 139.14384 597.4157 L 140.639 596.82766 C 141.37225 596.5393 142.19175 596.5646 142.9058 596.8977 L 143.12633 597.00055 C 143.71913 597.2771 144.36043 597.4346 145.01389 597.4642 L 151.33638 597.7505 C 151.33638 597.7505 153.75814 598.10334 153.89624 598.14035 C 154.03434 598.17735 155.72858 598.4833 155.72858 598.4833 L 153.08214 601.1786 C 153.08214 601.1786 151.77972 604.3821 151.81672 604.244 C 151.85373 604.1059 153.05168 611.2357 153.05168 611.2357 L 153.0662 614.496 C 153.0662 614.496 152.2891 617.39616 152.2521 617.5343 C 152.2151 617.6724 149.68958 619.36395 149.68958 619.36395 L 146.78555 620.4519 C 146.41934 620.5891 146.03831 620.68285 145.65026 620.73125 L 141.38115 621.2637 C 141.34971 621.2676 141.3183 621.27185 141.28695 621.2764 L 138.1764 621.7245 C 138.126 621.7318 138.07547 621.7383 138.02487 621.744 L 134.21433 622.17464 C 133.9564 622.2038 133.69659 622.2128 133.43726 622.2016 L 130.32741 622.0674 C 130.0271 622.05444 129.72859 622.0144 129.43547 621.94785 L 126.7149 621.3299 C 126.40458 621.2594 126.08824 621.2187 125.77018 621.2083 L 122.34496 621.0967 C 122.0133 621.0859 121.68354 621.0421 121.36055 620.966 L 117.44142 620.0421 C 117.31507 620.01235 117.18993 619.97766 117.06629 619.9381 L 114.76525 619.2026 C 114.51459 619.1225 114.27064 619.0227 114.03569 618.9042 L 111.92809 617.841 C 111.48465 617.6173 111.07702 617.3288 110.71861 616.985 L 108.92143 615.2609 C 108.90995 615.2499 108.89852 615.2388 108.88715 615.2277 L 107.51865 613.88955 C 107.19282 613.57094 106.91207 613.2093 106.6842 612.8146 L 105.60714 610.9491 C 105.54315 610.83825 105.48345 610.725 105.42815 610.6096 L 104.0499 607.73314 C 103.88542 607.38986 103.68227 607.0665 103.4444 606.7693 L 100.43745 603.0124 C 100.16827 602.6761 99.94367 602.3064 99.76925 601.9125 L 97.91406 597.72295 C 97.78932 597.44124 97.69088 597.1486 97.62 596.8488 L 95.54423 588.0682 C 95.38207 587.3822 95.36677 586.66976 95.49933 585.9775 L 96.66768 579.87616 C 96.74301 579.4828 96.86533 579.0999 97.03202 578.7357 L 100.84311 570.4089 C 100.99104 570.0857 101.17302 569.77916 101.38596 569.4945 L 105.32095 564.2348 C 105.5581 563.9178 105.83206 563.6301 106.13706 563.3777 L 110.6228 559.6661 C 110.74945 559.5613 110.87085 559.45035 110.98657 559.3336 L 112.857 557.44644 C 113.11635 557.18477 113.40383 556.95256 113.7142 556.75405 L 116.89095 554.72223 C 116.96263 554.6764 117.03313 554.6287 117.10238 554.5793 L 119.24455 553.0497 C 119.4552 552.8993 119.67723 552.7655 119.9086 552.64945 L 123.89097 550.6523 C 124.08206 550.5565 124.2791 550.473 124.48089 550.4024 L 127.32561 549.4069 C 127.62204 549.3032 127.92758 549.2276 128.23818 549.1812 L 130.80199 548.7981 C 131.14484 548.7469 131.49208 548.73144 131.83812 548.75204 L 136.49307 549.02923 C 136.82996 549.0493 137.16396 549.1034 137.48995 549.19076 L 144.93424 551.18545 C 145.07653 551.2236 145.21708 551.268 145.35546 551.3185 L 155.52703 555.0335 C 155.70812 555.0996 155.88524 555.17616 156.05748 555.26276 L 162.81822 558.6615 C 163.18126 558.844 163.5207 559.0701 163.82904 559.3347 L 175.22254 569.1143 C 175.34005 569.21515 175.4528 569.3214 175.56045 569.43275 L 181.61973 575.6994 C 181.72214 575.8053 181.8198 575.9157 181.91246 576.0302 L 184.07228 578.7 C 184.15827 578.80626 184.31415 578.8227 184.42044 578.7367 C 184.5101 578.6642 184.5378 578.53936 184.48722 578.4357 L 183.89344 577.21876 C 183.65393 576.7279 183.33561 576.2796 182.95114 575.89165 L 179.34711 572.2552 C 179.34046 572.2485 179.33379 572.2418 179.3271 572.23514 L 171.77023 564.6963 C 171.67579 564.6021 171.57761 564.5117 171.47594 564.42534 L 165.15473 559.0558 C 164.88947 558.8305 164.60142 558.63347 164.29525 558.468 L 159.32809 555.7831 C 159.32635 555.78214 159.3246 555.7812 159.32287 555.78026 L 156.84212 554.44315 C 155.36443 553.6467 154.4968 552.05245 154.63033 550.3791 Z" stroke="black" stroke-linecap="round" stroke-linejoin="round" stroke-width="3"/>
      </g>
      <g id="Graphic_13">
        <path d="M 161.07998 495.75815 L 161.05082 495.4824 C 160.98714 494.8803 161.28403 494.29714 161.8084 493.9944 L 162.42829 493.6365 C 162.82469 493.40764 163.29577 493.3456 163.7379 493.4641 L 163.7379 493.4641 C 164.15604 493.57613 164.4658 493.9286 164.5232 494.3577 L 164.5782 494.7688 C 164.64122 495.2398 164.56237 495.7189 164.35175 496.1449 L 164.35175 496.1449 C 164.15017 496.55257 163.75632 496.83087 163.30472 496.88473 L 163.21296 496.8957 C 162.74429 496.9516 162.26905 496.8936 161.82756 496.7267 L 161.82756 496.7267 C 161.41549 496.5709 161.12632 496.19625 161.07998 495.75815 Z" fill="blue"/>
        <path d="M 161.07998 495.75815 L 161.05082 495.4824 C 160.98714 494.8803 161.28403 494.29714 161.8084 493.9944 L 162.42829 493.6365 C 162.82469 493.40764 163.29577 493.3456 163.7379 493.4641 L 163.7379 493.4641 C 164.15604 493.57613 164.4658 493.9286 164.5232 494.3577 L 164.5782 494.7688 C 164.64122 495.2398 164.56237 495.7189 164.35175 496.1449 L 164.35175 496.1449 C 164.15017 496.55257 163.75632 496.83087 163.30472 496.88473 L 163.21296 496.8957 C 162.74429 496.9516 162.26905 496.8936 161.82756 496.7267 L 161.82756 496.7267 C 161.41549 496.5709 161.12632 496.19625 161.07998 495.75815 Z" stroke="black" stroke-linecap="round" stroke-linejoin="round" stroke-width="3"/>
      </g>
      <g id="Graphic_12">
        <path d="M 225.8212 563.46806 L 217.8708 567.08666 L 212.75258 573.92796 L 208.55093 583.4787 L 211.04765 589.4859 L 216.59663 585.6345 L 219.26577 575.67316 L 224.60943 572.588 L 228.52324 568.7091 Z" fill="#cbcbcb"/>
        <path d="M 225.8212 563.46806 L 217.8708 567.08666 L 212.75258 573.92796 L 208.55093 583.4787 L 211.04765 589.4859 L 216.59663 585.6345 L 219.26577 575.67316 L 224.60943 572.588 L 228.52324 568.7091 Z" stroke="black" stroke-linecap="round" stroke-linejoin="round" stroke-width="3"/>
      </g>
      <g id="Graphic_11">
        <path d="M 214.65864 589.0824 L 213.52563 587.8914 C 211.61817 585.8863 209.37265 584.2326 206.89187 583.006 L 206.10964 582.6192 C 203.12948 581.1457 199.84553 580.3909 196.52108 580.4154 L 194.27492 580.43195 C 191.24677 580.45426 188.28301 581.3085 185.70755 582.9014 L 185.5603 582.99246 C 183.0577 584.54025 180.88303 586.56395 179.15948 588.9489 L 179.15948 588.9489 C 177.43738 591.3319 176.22052 594.04174 175.58364 596.91205 L 175.51419 597.2251 C 174.8946 600.0174 174.95937 602.9182 175.70297 605.6801 L 175.70297 605.6801 C 176.4499 608.4544 177.74932 611.0494 179.52333 613.3094 L 179.89626 613.7845 C 181.91484 616.3561 184.44881 618.47726 187.33552 620.0118 L 187.6303 620.1685 C 190.70502 621.803 194.1116 622.7158 197.59164 622.8376 L 197.59164 622.8376 C 201.04774 622.95865 204.4683 622.106 207.4632 620.3769 L 209.11833 619.4213 C 211.4095 618.0985 213.3863 616.2942 214.91225 614.133 L 214.91225 614.133 C 216.4443 611.9632 217.58033 609.5394 218.2678 606.9737 L 218.44062 606.32876 C 219.0637 604.0034 219.22518 601.57846 218.91595 599.191 L 218.77384 598.0938 C 218.55745 596.4232 218.10442 594.7918 217.42838 593.2488 L 217.42838 593.2488 C 216.75406 591.7097 215.8168 590.29986 214.65864 589.0824 Z" fill="#666"/>
        <path d="M 214.65864 589.0824 L 213.52563 587.8914 C 211.61817 585.8863 209.37265 584.2326 206.89187 583.006 L 206.10964 582.6192 C 203.12948 581.1457 199.84553 580.3909 196.52108 580.4154 L 194.27492 580.43195 C 191.24677 580.45426 188.28301 581.3085 185.70755 582.9014 L 185.5603 582.99246 C 183.0577 584.54025 180.88303 586.56395 179.15948 588.9489 L 179.15948 588.9489 C 177.43738 591.3319 176.22052 594.04174 175.58364 596.91205 L 175.51419 597.2251 C 174.8946 600.0174 174.95937 602.9182 175.70297 605.6801 L 175.70297 605.6801 C 176.4499 608.4544 177.74932 611.0494 179.52333 613.3094 L 179.89626 613.7845 C 181.91484 616.3561 184.44881 618.47726 187.33552 620.0118 L 187.6303 620.1685 C 190.70502 621.803 194.1116 622.7158 197.59164 622.8376 L 197.59164 622.8376 C 201.04774 622.95865 204.4683 622.106 207.4632 620.3769 L 209.11833 619.4213 C 211.4095 618.0985 213.3863 616.2942 214.91225 614.133 L 214.91225 614.133 C 216.4443 611.9632 217.58033 609.5394 218.2678 606.9737 L 218.44062 606.32876 C 219.0637 604.0034 219.22518 601.57846 218.91595 599.191 L 218.77384 598.0938 C 218.55745 596.4232 218.10442 594.7918 217.42838 593.2488 L 217.42838 593.2488 C 216.75406 591.7097 215.8168 590.29986 214.65864 589.0824 Z" stroke="black" stroke-linecap="round" stroke-linejoin="round" stroke-width="3"/>
      </g>
      <g id="Graphic_10">
        <path d="M 205.4682 600.76066 L 205.31564 600.1286 C 205.0588 599.06456 204.61667 598.054 204.00948 597.1432 L 203.81803 596.85605 C 203.08862 595.7619 202.113 594.85394 200.9694 594.2049 L 200.19672 593.7663 C 199.15505 593.1751 197.9709 592.8816 196.77368 592.9179 L 196.70523 592.91995 C 195.54189 592.9552 194.39676 593.2183 193.3347 593.6944 L 193.3347 593.6944 C 192.27355 594.1701 191.32081 594.8577 190.535 595.7149 L 190.4493 595.8084 C 189.68485 596.6424 189.13336 597.6488 188.84186 598.74194 L 188.84186 598.74194 C 188.54905 599.84 188.48096 600.9858 188.64167 602.1108 L 188.67546 602.3473 C 188.85833 603.6274 189.30682 604.8551 189.99216 605.95164 L 190.06214 606.0636 C 190.79211 607.2316 191.77849 608.21795 192.94644 608.9479 L 192.94644 608.9479 C 194.10636 609.6729 195.44667 610.05726 196.8145 610.05726 L 197.57043 610.05726 C 198.61686 610.05726 199.65082 609.8302 200.60092 609.39165 L 200.60092 609.39165 C 201.55483 608.9514 202.4233 608.3458 203.1662 607.6029 L 203.35295 607.4162 C 204.02626 606.74286 204.56114 605.9442 204.92737 605.0652 L 205.09568 604.6613 C 205.35195 604.0462 205.5194 603.3978 205.59298 602.7356 L 205.59298 602.7356 C 205.66638 602.075 205.62415 601.4067 205.4682 600.76066 Z" fill="#999"/>
        <path d="M 205.4682 600.76066 L 205.31564 600.1286 C 205.0588 599.06456 204.61667 598.054 204.00948 597.1432 L 203.81803 596.85605 C 203.08862 595.7619 202.113 594.85394 200.9694 594.2049 L 200.19672 593.7663 C 199.15505 593.1751 197.9709 592.8816 196.77368 592.9179 L 196.70523 592.91995 C 195.54189 592.9552 194.39676 593.2183 193.3347 593.6944 L 193.3347 593.6944 C 192.27355 594.1701 191.32081 594.8577 190.535 595.7149 L 190.4493 595.8084 C 189.68485 596.6424 189.13336 597.6488 188.84186 598.74194 L 188.84186 598.74194 C 188.54905 599.84 188.48096 600.9858 188.64167 602.1108 L 188.67546 602.3473 C 188.85833 603.6274 189.30682 604.8551 189.99216 605.95164 L 190.06214 606.0636 C 190.79211 607.2316 191.77849 608.21795 192.94644 608.9479 L 192.94644 608.9479 C 194.10636 609.6729 195.44667 610.05726 196.8145 610.05726 L 197.57043 610.05726 C 198.61686 610.05726 199.65082 609.8302 200.60092 609.39165 L 200.60092 609.39165 C 201.55483 608.9514 202.4233 608.3458 203.1662 607.6029 L 203.35295 607.4162 C 204.02626 606.74286 204.56114 605.9442 204.92737 605.0652 L 205.09568 604.6613 C 205.35195 604.0462 205.5194 603.3978 205.59298 602.7356 L 205.59298 602.7356 C 205.66638 602.075 205.62415 601.4067 205.4682 600.76066 Z" stroke="black" stroke-linecap="round" stroke-linejoin="round" stroke-width="3"/>
      </g>
      <g id="Graphic_9">
        <path d="M 234.53244 560.9865 L 233.9243 560.3472 C 232.90048 559.271 231.69522 558.3834 230.36368 557.725 L 229.94382 557.5174 C 228.34424 556.7265 226.5816 556.3214 224.79723 556.3345 L 223.59162 556.3434 C 221.96628 556.3554 220.3755 556.8139 218.99314 557.66886 L 218.9141 557.71774 C 217.57085 558.5485 216.40362 559.6347 215.47852 560.9148 L 215.47852 560.9148 C 214.5542 562.1939 213.90105 563.64836 213.5592 565.189 L 213.52193 565.357 C 213.18938 566.85576 213.22414 568.4127 213.62326 569.89516 L 213.62326 569.89516 C 214.02417 571.38426 214.72162 572.7771 215.6738 573.9901 L 215.87398 574.24514 C 216.95744 575.62544 218.31753 576.76395 219.86695 577.5876 L 220.02517 577.6717 C 221.6755 578.549 223.50396 579.03895 225.37184 579.10435 L 225.37184 579.10435 C 227.22688 579.1693 229.06284 578.71164 230.67033 577.78355 L 231.5587 577.27065 C 232.78848 576.56064 233.8495 575.5922 234.66856 574.4322 L 234.66856 574.4322 C 235.49087 573.2676 236.10063 571.9666 236.46963 570.5895 L 236.56238 570.2433 C 236.89682 568.9952 236.9835 567.69364 236.8175 566.4122 L 236.74124 565.8233 C 236.6251 564.9266 236.38193 564.05096 236.01907 563.22277 L 236.01907 563.22277 C 235.65713 562.3967 235.15407 561.6399 234.53244 560.9865 Z" fill="#666"/>
        <path d="M 234.53244 560.9865 L 233.9243 560.3472 C 232.90048 559.271 231.69522 558.3834 230.36368 557.725 L 229.94382 557.5174 C 228.34424 556.7265 226.5816 556.3214 224.79723 556.3345 L 223.59162 556.3434 C 221.96628 556.3554 220.3755 556.8139 218.99314 557.66886 L 218.9141 557.71774 C 217.57085 558.5485 216.40362 559.6347 215.47852 560.9148 L 215.47852 560.9148 C 214.5542 562.1939 213.90105 563.64836 213.5592 565.189 L 213.52193 565.357 C 213.18938 566.85576 213.22414 568.4127 213.62326 569.89516 L 213.62326 569.89516 C 214.02417 571.38426 214.72162 572.7771 215.6738 573.9901 L 215.87398 574.24514 C 216.95744 575.62544 218.31753 576.76395 219.86695 577.5876 L 220.02517 577.6717 C 221.6755 578.549 223.50396 579.03895 225.37184 579.10435 L 225.37184 579.10435 C 227.22688 579.1693 229.06284 578.71164 230.67033 577.78355 L 231.5587 577.27065 C 232.78848 576.56064 233.8495 575.5922 234.66856 574.4322 L 234.66856 574.4322 C 235.49087 573.2676 236.10063 571.9666 236.46963 570.5895 L 236.56238 570.2433 C 236.89682 568.9952 236.9835 567.69364 236.8175 566.4122 L 236.74124 565.8233 C 236.6251 564.9266 236.38193 564.05096 236.01907 563.22277 L 236.01907 563.22277 C 235.65713 562.3967 235.15407 561.6399 234.53244 560.9865 Z" stroke="black" stroke-linecap="round" stroke-linejoin="round" stroke-width="3"/>
      </g>
      <g id="Graphic_8">
        <path d="M 230.18306 567.41105 L 230.10117 567.0718 C 229.9633 566.5007 229.726 565.9583 229.4001 565.4694 L 229.29734 565.3153 C 228.90583 564.728 228.38217 564.24066 227.76835 563.8923 L 227.35363 563.6569 C 226.79451 563.33955 226.15893 563.182 225.51633 563.2015 L 225.4796 563.2026 C 224.85518 563.2215 224.24054 563.36275 223.6705 563.6183 L 223.6705 563.6183 C 223.10092 563.8736 222.58955 564.2427 222.16777 564.7028 L 222.12177 564.75297 C 221.71145 565.2006 221.41545 565.7408 221.259 566.3275 L 221.259 566.3275 C 221.10182 566.9169 221.06528 567.5319 221.15154 568.1357 L 221.16967 568.2627 C 221.26783 568.94975 221.50855 569.6087 221.8764 570.1973 L 221.91396 570.2574 C 222.30577 570.88426 222.8352 571.4137 223.4621 571.8055 L 223.4621 571.8055 C 224.08467 572.1946 224.80407 572.4009 225.53824 572.4009 L 225.94399 572.4009 C 226.50565 572.4009 227.06062 572.27904 227.57058 572.0437 L 227.57058 572.0437 C 228.08258 571.80736 228.54873 571.4823 228.94747 571.0836 L 229.0477 570.98335 C 229.4091 570.62195 229.6962 570.19326 229.89277 569.7215 L 229.9831 569.5047 C 230.12066 569.17454 230.21053 568.8265 230.25003 568.4711 L 230.25003 568.4711 C 230.28942 568.1165 230.26676 567.7578 230.18306 567.41105 Z" fill="#999"/>
        <path d="M 230.18306 567.41105 L 230.10117 567.0718 C 229.9633 566.5007 229.726 565.9583 229.4001 565.4694 L 229.29734 565.3153 C 228.90583 564.728 228.38217 564.24066 227.76835 563.8923 L 227.35363 563.6569 C 226.79451 563.33955 226.15893 563.182 225.51633 563.2015 L 225.4796 563.2026 C 224.85518 563.2215 224.24054 563.36275 223.6705 563.6183 L 223.6705 563.6183 C 223.10092 563.8736 222.58955 564.2427 222.16777 564.7028 L 222.12177 564.75297 C 221.71145 565.2006 221.41545 565.7408 221.259 566.3275 L 221.259 566.3275 C 221.10182 566.9169 221.06528 567.5319 221.15154 568.1357 L 221.16967 568.2627 C 221.26783 568.94975 221.50855 569.6087 221.8764 570.1973 L 221.91396 570.2574 C 222.30577 570.88426 222.8352 571.4137 223.4621 571.8055 L 223.4621 571.8055 C 224.08467 572.1946 224.80407 572.4009 225.53824 572.4009 L 225.94399 572.4009 C 226.50565 572.4009 227.06062 572.27904 227.57058 572.0437 L 227.57058 572.0437 C 228.08258 571.80736 228.54873 571.4823 228.94747 571.0836 L 229.0477 570.98335 C 229.4091 570.62195 229.6962 570.19326 229.89277 569.7215 L 229.9831 569.5047 C 230.12066 569.17454 230.21053 568.8265 230.25003 568.4711 L 230.25003 568.4711 C 230.28942 568.1165 230.26676 567.7578 230.18306 567.41105 Z" stroke="black" stroke-linecap="round" stroke-linejoin="round" stroke-width="3"/>
      </g>
      <g id="Graphic_7">
        <path d="M 225.22104 482.87795 L 233.2218 486.78076 L 240.0517 493.61067 L 241.41768 501.22114 L 242.0031 496.5378 L 241.80797 492.63497 L 237.90516 487.5613 L 232.63637 484.24393 L 229.12385 483.26823 Z" fill="#666"/>
        <path d="M 225.22104 482.87795 L 233.2218 486.78076 L 240.0517 493.61067 L 241.41768 501.22114 L 242.0031 496.5378 L 241.80797 492.63497 L 237.90516 487.5613 L 232.63637 484.24393 L 229.12385 483.26823 Z" stroke="black" stroke-linecap="round" stroke-linejoin="round" stroke-width="3"/>
      </g>
      <g id="Graphic_6">
        <path d="M 232.64547 479.3654 L 238.8906 482.4118 L 244.2218 487.74303 L 245.28805 493.6835 L 245.745 490.02783 L 245.5927 486.98143 L 242.54628 483.0211 L 238.43364 480.43167 L 235.69188 479.67007 Z" fill="#666"/>
        <path d="M 232.64547 479.3654 L 238.8906 482.4118 L 244.2218 487.74303 L 245.28805 493.6835 L 245.745 490.02783 L 245.5927 486.98143 L 242.54628 483.0211 L 238.43364 480.43167 L 235.69188 479.67007 Z" stroke="black" stroke-linecap="round" stroke-linejoin="round" stroke-width="3"/>
      </g>
      <g id="Graphic_5">
        <path d="M 239.076 475.4626 L 243.8424 477.7877 L 247.9113 481.8566 L 248.72507 486.3905 L 249.07383 483.6004 L 248.95757 481.2753 L 246.6325 478.2527 L 243.49365 476.2764 L 241.40108 475.6951 Z" fill="#666"/>
        <path d="M 239.076 475.4626 L 243.8424 477.7877 L 247.9113 481.8566 L 248.72507 486.3905 L 249.07383 483.6004 L 248.95757 481.2753 L 246.6325 478.2527 L 243.49365 476.2764 L 241.40108 475.6951 Z" stroke="black" stroke-linecap="round" stroke-linejoin="round" stroke-width="3"/>
      </g>
    </g>
  </g>
</svg>
