<?xml version="1.0" encoding="UTF-8" standalone="no"?>
<!DOCTYPE svg PUBLIC "-//W3C//DTD SVG 1.1//EN" "http://www.w3.org/Graphics/SVG/1.1/DTD/svg11.dtd">
<svg xmlns="http://www.w3.org/2000/svg" version="1.1" xmlns:dc="http://purl.org/dc/elements/1.1/" xmlns:xl="http://www.w3.org/1999/xlink" viewBox="0 0 850.394 850.394" width="850.394" height="850.394">
  <defs/>
  <metadata> Produced by OmniGraffle 7.9.4 
    <dc:date>2019-03-11 11:58:28 +0000</dc:date>
  </metadata>
  <g id="filter" fill="none" stroke-opacity="1" fill-opacity="1" stroke-dasharray="none" stroke="none">
    <title>filter</title>
    <g id="filter: Layer 1">
      <title>Layer 1</title>
      <g id="Graphic_47">
        <circle cx="306.05556" cy="55.61111" r="22.9444811074157" fill="black"/>
        <circle cx="306.05556" cy="55.61111" r="22.9444811074157" stroke="black" stroke-linecap="round" stroke-linejoin="round" stroke-width="1"/>
      </g>
      <g id="Graphic_5">
        <path d="M 658.02035 383.20676 C 614.6636 501.07335 477.7075 596.971 352.12025 597.4003 C 226.53277 597.8302 159.87219 502.62904 203.2296 384.76245 C 246.58637 266.89586 383.54245 170.99817 509.1297 170.56889 C 634.7172 170.139 701.3778 265.34017 658.02035 383.20676" fill="white"/>
        <path d="M 658.02035 383.20676 C 614.6636 501.07335 477.7075 596.971 352.12025 597.4003 C 226.53277 597.8302 159.87219 502.62904 203.2296 384.76245 C 246.58637 266.89586 383.54245 170.99817 509.1297 170.56889 C 634.7172 170.139 701.3778 265.34017 658.02035 383.20676" stroke="black" stroke-linecap="round" stroke-linejoin="round" stroke-width="1"/>
      </g>
      <g id="Graphic_8">
        <path d="M 331.69812 356.2145 L 341.50756 289.51533 C 341.59537 288.91824 341.57436 288.31018 341.44554 287.72057 L 295.01196 75.19233 C 294.42255 72.49455 296.1317 69.82974 298.8295 69.24032 C 301.12908 68.73791 303.46767 69.90741 304.4452 72.04865 L 440.9555 371.0742 C 442.1023 373.58625 440.99554 376.5523 438.4835 377.6991 C 438.4044 377.73523 438.32434 377.76928 438.24344 377.8012 L 424.928 383.0591 C 422.35955 384.07333 421.0996 386.97763 422.1138 389.54606 C 422.1624 389.6691 422.21585 389.7902 422.27405 389.909 L 429.354 404.36395 C 430.06363 405.81276 429.4644 407.5625 428.0156 408.27213 C 426.84343 408.84625 425.43264 408.5731 424.5595 407.6029 L 413.3811 395.18246 C 411.75125 393.37154 409.05345 392.99897 406.9938 394.30037 L 391.2145 404.27064 C 389.7104 405.221 387.81463 405.3005 386.23625 404.47946 L 365.10647 393.4879 C 363.4119 392.60638 361.36316 392.76736 359.82707 393.90273 L 342.11473 406.99446 C 340.33898 408.30697 337.83545 407.93144 336.52294 406.1557 C 335.57465 404.87272 335.47985 403.1488 336.2817 401.7696 L 344.60204 387.45863 C 345.47344 385.95983 345.50623 384.1166 344.6887 382.58776 L 332.2357 359.29977 C 331.73075 358.35544 331.5423 357.27394 331.69812 356.2145 Z" fill="#f26077"/>
        <path d="M 331.69812 356.2145 L 341.50756 289.51533 C 341.59537 288.91824 341.57436 288.31018 341.44554 287.72057 L 295.01196 75.19233 C 294.42255 72.49455 296.1317 69.82974 298.8295 69.24032 C 301.12908 68.73791 303.46767 69.90741 304.4452 72.04865 L 440.9555 371.0742 C 442.1023 373.58625 440.99554 376.5523 438.4835 377.6991 C 438.4044 377.73523 438.32434 377.76928 438.24344 377.8012 L 424.928 383.0591 C 422.35955 384.07333 421.0996 386.97763 422.1138 389.54606 C 422.1624 389.6691 422.21585 389.7902 422.27405 389.909 L 429.354 404.36395 C 430.06363 405.81276 429.4644 407.5625 428.0156 408.27213 C 426.84343 408.84625 425.43264 408.5731 424.5595 407.6029 L 413.3811 395.18246 C 411.75125 393.37154 409.05345 392.99897 406.9938 394.30037 L 391.2145 404.27064 C 389.7104 405.221 387.81463 405.3005 386.23625 404.47946 L 365.10647 393.4879 C 363.4119 392.60638 361.36316 392.76736 359.82707 393.90273 L 342.11473 406.99446 C 340.33898 408.30697 337.83545 407.93144 336.52294 406.1557 C 335.57465 404.87272 335.47985 403.1488 336.2817 401.7696 L 344.60204 387.45863 C 345.47344 385.95983 345.50623 384.1166 344.6887 382.58776 L 332.2357 359.29977 C 331.73075 358.35544 331.5423 357.27394 331.69812 356.2145 Z" stroke="black" stroke-linecap="round" stroke-linejoin="round" stroke-width="5"/>
      </g>
      <g id="Graphic_7">
        <path d="M 407.84045 409.01247 L 298.62697 62.74157 C 297.79635 60.10803 299.2579 57.299775 301.89145 56.46916 C 304.09405 55.77446 306.48585 56.67874 307.67792 58.65688 L 495.08287 369.64 C 496.50816 372.00518 495.74625 375.07795 493.3811 376.50325 C 493.212 376.60514 493.03704 376.69693 492.8571 376.77813 L 414.66564 412.0659 C 412.14867 413.2018 409.1874 412.08223 408.0515 409.56526 C 407.9703 409.38533 407.89983 409.20074 407.84045 409.01247 Z" fill="#2cc8ff"/>
        <path d="M 407.84045 409.01247 L 298.62697 62.74157 C 297.79635 60.10803 299.2579 57.299775 301.89145 56.46916 C 304.09405 55.77446 306.48585 56.67874 307.67792 58.65688 L 495.08287 369.64 C 496.50816 372.00518 495.74625 375.07795 493.3811 376.50325 C 493.212 376.60514 493.03704 376.69693 492.8571 376.77813 L 414.66564 412.0659 C 412.14867 413.2018 409.1874 412.08223 408.0515 409.56526 C 407.9703 409.38533 407.89983 409.20074 407.84045 409.01247 Z" stroke="black" stroke-linecap="round" stroke-linejoin="round" stroke-width="5"/>
      </g>
      <g id="Graphic_9">
        <path d="M 464.8784 374.35905 L 309.11598 61.31433 C 307.88583 58.84204 308.8928 55.84063 311.36508 54.610486 C 313.5405 53.52805 316.1792 54.1663 317.61945 56.1233 L 468.9326 261.72636 C 469.19335 262.08067 469.4997 262.399 469.84377 262.67315 L 541.481 319.75333 C 543.04616 321.0004 543.7169 323.0606 543.1861 324.9901 L 539.6535 337.83004 C 538.921 340.49254 540.48554 343.24474 543.14804 343.97726 C 543.2715 344.01123 543.39626 344.04045 543.522 344.06484 L 564.2767 348.09187 C 566.2344 348.47173 567.5135 350.3667 567.13366 352.32443 C 566.8246 353.91744 565.4908 355.1086 563.8731 355.2363 L 536.56057 357.39256 C 534.2746 357.57303 532.5678 359.57245 532.7483 361.8584 C 532.77575 362.20645 532.847 362.54966 532.9604 362.8799 L 533.11724 363.33667 C 533.9977 365.9011 532.6738 368.69997 530.1329 369.64606 L 515.15045 375.2246 C 513.1353 375.9749 511.8255 377.92965 511.89797 380.07876 L 512.94335 411.09187 C 513.02054 413.38175 511.2268 415.30063 508.9369 415.3778 C 507.0243 415.4423 505.3157 414.19006 504.8013 412.34675 L 496.3974 382.23283 C 495.82604 380.1854 494.0226 378.72303 491.90126 378.58706 L 469.03504 377.12144 C 467.25614 377.00743 465.67247 375.95497 464.8784 374.35905 Z" fill="lime"/>
        <path d="M 464.8784 374.35905 L 309.11598 61.31433 C 307.88583 58.84204 308.8928 55.84063 311.36508 54.610486 C 313.5405 53.52805 316.1792 54.1663 317.61945 56.1233 L 468.9326 261.72636 C 469.19335 262.08067 469.4997 262.399 469.84377 262.67315 L 541.481 319.75333 C 543.04616 321.0004 543.7169 323.0606 543.1861 324.9901 L 539.6535 337.83004 C 538.921 340.49254 540.48554 343.24474 543.14804 343.97726 C 543.2715 344.01123 543.39626 344.04045 543.522 344.06484 L 564.2767 348.09187 C 566.2344 348.47173 567.5135 350.3667 567.13366 352.32443 C 566.8246 353.91744 565.4908 355.1086 563.8731 355.2363 L 536.56057 357.39256 C 534.2746 357.57303 532.5678 359.57245 532.7483 361.8584 C 532.77575 362.20645 532.847 362.54966 532.9604 362.8799 L 533.11724 363.33667 C 533.9977 365.9011 532.6738 368.69997 530.1329 369.64606 L 515.15045 375.2246 C 513.1353 375.9749 511.8255 377.92965 511.89797 380.07876 L 512.94335 411.09187 C 513.02054 413.38175 511.2268 415.30063 508.9369 415.3778 C 507.0243 415.4423 505.3157 414.19006 504.8013 412.34675 L 496.3974 382.23283 C 495.82604 380.1854 494.0226 378.72303 491.90126 378.58706 L 469.03504 377.12144 C 467.25614 377.00743 465.67247 375.95497 464.8784 374.35905 Z" stroke="black" stroke-linecap="round" stroke-linejoin="round" stroke-width="5"/>
      </g>
      <g id="Graphic_6">
        <path d="M 657.87024 384.05807 C 614.5135 501.92465 477.5574 597.82234 351.97014 598.2516 C 226.38266 598.6815 159.72208 503.48034 203.0795 385.61375 C 246.43626 267.74716 383.39234 171.84948 508.9796 171.42019 C 634.5671 170.9903 701.22766 266.19147 657.87024 384.05807" fill="#4040ff" fill-opacity=".699879"/>
        <path d="M 657.87024 384.05807 C 614.5135 501.92465 477.5574 597.82234 351.97014 598.2516 C 226.38266 598.6815 159.72208 503.48034 203.0795 385.61375 C 246.43626 267.74716 383.39234 171.84948 508.9796 171.42019 C 634.5671 170.9903 701.22766 266.19147 657.87024 384.05807" stroke="black" stroke-linecap="round" stroke-linejoin="round" stroke-width="9"/>
      </g>
      <g id="Graphic_11">
        <path d="M 405.49666 422.87023 L 393.9011 431.6115 C 392.00235 433.04287 389.30277 432.664 387.8714 430.76525 C 386.90506 429.48334 386.73216 427.77025 387.42287 426.3211 L 401.8971 395.9536 C 401.8971 395.9536 359.1076 388.6059 359.53983 388.1737 C 359.97205 387.7415 362.44444 387.36965 362.44444 387.36965 L 388.9561 381.66706 C 394.8954 380.38954 398.6745 374.53915 397.397 368.59986 C 397.099 367.21437 396.53604 365.8995 395.73915 364.7276 L 390.22724 356.62186 C 388.3113 353.8043 389.0422 349.96706 391.85976 348.05113 C 393.7921 346.73713 396.301 346.62766 398.34047 347.76837 L 421.7087 360.83874 C 424.7443 362.53662 428.4041 362.69877 431.578 361.276 L 432.97823 360.6483 C 436.7205 358.97073 439.2188 355.35064 439.45963 351.25664 L 440.3644 335.87545 C 440.55896 332.56814 443.3978 330.04475 446.7051 330.2393 C 448.8297 330.36427 450.72905 331.60564 451.6963 333.50145 L 463.2719 356.18965 C 463.2719 356.18965 480.9928 355.75743 481.425 356.18965 C 481.85724 356.62186 515.57017 324.6378 515.57017 324.6378 L 486.61163 371.74946 C 486.61163 371.74946 529.4011 400.708 528.9689 401.1402 C 528.5367 401.57243 472.1111 389.703 472.1111 389.703 L 478.71304 393.4766 C 478.93784 393.6051 479.2242 393.52704 479.3527 393.30225 C 479.47015 393.0968 479.41606 392.83603 479.2266 392.69424 L 476.15845 390.3983 C 473.74525 388.5925 472.7698 385.43784 473.74255 382.58507 L 473.74255 382.58507 C 474.2169 381.19395 473.4737 379.6817 472.08257 379.20734 C 471.5736 379.0338 471.024 379.0185 470.50613 379.1635 L 454.333 383.69197 C 453.9534 383.79827 453.5797 383.9249 453.21366 384.07133 L 432.6961 392.27835 C 432.3338 392.42326 431.9795 392.58735 431.63464 392.76992 L 420.34104 398.7489 C 418.45883 399.74535 416.90635 401.2668 415.87207 403.1285 L 413.4733 407.44624 C 413.24783 407.85213 413.04826 408.2719 412.8758 408.703 L 409.0883 418.17177 C 408.34244 420.03643 407.10034 421.6613 405.49666 422.87023 Z" fill="#00bfc0"/>
        <path d="M 405.49666 422.87023 L 393.9011 431.6115 C 392.00235 433.04287 389.30277 432.664 387.8714 430.76525 C 386.90506 429.48334 386.73216 427.77025 387.42287 426.3211 L 401.8971 395.9536 C 401.8971 395.9536 359.1076 388.6059 359.53983 388.1737 C 359.97205 387.7415 362.44444 387.36965 362.44444 387.36965 L 388.9561 381.66706 C 394.8954 380.38954 398.6745 374.53915 397.397 368.59986 C 397.099 367.21437 396.53604 365.8995 395.73915 364.7276 L 390.22724 356.62186 C 388.3113 353.8043 389.0422 349.96706 391.85976 348.05113 C 393.7921 346.73713 396.301 346.62766 398.34047 347.76837 L 421.7087 360.83874 C 424.7443 362.53662 428.4041 362.69877 431.578 361.276 L 432.97823 360.6483 C 436.7205 358.97073 439.2188 355.35064 439.45963 351.25664 L 440.3644 335.87545 C 440.55896 332.56814 443.3978 330.04475 446.7051 330.2393 C 448.8297 330.36427 450.72905 331.60564 451.6963 333.50145 L 463.2719 356.18965 C 463.2719 356.18965 480.9928 355.75743 481.425 356.18965 C 481.85724 356.62186 515.57017 324.6378 515.57017 324.6378 L 486.61163 371.74946 C 486.61163 371.74946 529.4011 400.708 528.9689 401.1402 C 528.5367 401.57243 472.1111 389.703 472.1111 389.703 L 478.71304 393.4766 C 478.93784 393.6051 479.2242 393.52704 479.3527 393.30225 C 479.47015 393.0968 479.41606 392.83603 479.2266 392.69424 L 476.15845 390.3983 C 473.74525 388.5925 472.7698 385.43784 473.74255 382.58507 L 473.74255 382.58507 C 474.2169 381.19395 473.4737 379.6817 472.08257 379.20734 C 471.5736 379.0338 471.024 379.0185 470.50613 379.1635 L 454.333 383.69197 C 453.9534 383.79827 453.5797 383.9249 453.21366 384.07133 L 432.6961 392.27835 C 432.3338 392.42326 431.9795 392.58735 431.63464 392.76992 L 420.34104 398.7489 C 418.45883 399.74535 416.90635 401.2668 415.87207 403.1285 L 413.4733 407.44624 C 413.24783 407.85213 413.04826 408.2719 412.8758 408.703 L 409.0883 418.17177 C 408.34244 420.03643 407.10034 421.6613 405.49666 422.87023 Z" stroke="black" stroke-linecap="round" stroke-linejoin="round" stroke-width="5"/>
      </g>
      <g id="Graphic_10">
        <path d="M 476.3636 389.0318 L 505.3248 550.96844 C 505.4783 551.8266 505.5513 552.6973 505.54283 553.56905 L 504.157 696.31204 C 504.1252 699.5875 501.44413 702.217 498.1687 702.1852 C 495.17473 702.1561 492.67194 699.9001 492.33333 696.9252 L 481.606 602.6779 C 481.4986 601.7341 481.2954 600.8037 480.99957 599.9011 L 451.20195 508.98015 C 451.1414 508.7954 451.077 508.6119 451.0088 508.42984 L 412.70135 406.14914 C 410.47484 400.2044 412.52684 393.50555 417.70095 389.82776 L 434.35913 377.98703 C 437.1352 376.01377 440.53543 375.1202 443.923 375.47363 L 464.0351 377.57206 C 470.23847 378.2193 475.26556 382.89213 476.3636 389.0318 Z" fill="#2cc8ff"/>
        <path d="M 476.3636 389.0318 L 505.3248 550.96844 C 505.4783 551.8266 505.5513 552.6973 505.54283 553.56905 L 504.157 696.31204 C 504.1252 699.5875 501.44413 702.217 498.1687 702.1852 C 495.17473 702.1561 492.67194 699.9001 492.33333 696.9252 L 481.606 602.6779 C 481.4986 601.7341 481.2954 600.8037 480.99957 599.9011 L 451.20195 508.98015 C 451.1414 508.7954 451.077 508.6119 451.0088 508.42984 L 412.70135 406.14914 C 410.47484 400.2044 412.52684 393.50555 417.70095 389.82776 L 434.35913 377.98703 C 437.1352 376.01377 440.53543 375.1202 443.923 375.47363 L 464.0351 377.57206 C 470.23847 378.2193 475.26556 382.89213 476.3636 389.0318 Z" stroke="black" stroke-linecap="round" stroke-linejoin="round" stroke-width="6"/>
      </g>
      <g id="Graphic_45">
        <path d="M 415.31145 537.6144 L 414.1246 595.5351 C 414.095 596.98124 412.89863 598.12955 411.4525 598.0999 C 410.0873 598.07194 408.9727 596.9998 408.89174 595.63674 L 407.06297 564.8496 C 406.95388 563.0129 405.3765 561.6124 403.53984 561.7215 C 401.8474 561.82204 400.50043 563.1776 400.4106 564.8706 L 397.8095 613.8932 C 397.7303 615.3858 396.4561 616.5316 394.9635 616.45244 C 393.9953 616.4011 393.1285 615.8357 392.6913 614.9703 L 388.1112 605.9052 C 388.1112 605.9052 388.03806 568.51516 391.99594 556.0141 C 395.9538 543.513 403.76433 539.8348 403.76433 539.8348 L 409.6163 534.89695 C 411.07794 533.66364 413.2626 533.8487 414.4959 535.31035 C 415.0388 535.9537 415.3287 536.7728 415.31145 537.6144 Z" fill="#2cc8ff"/>
        <path d="M 415.31145 537.6144 L 414.1246 595.5351 C 414.095 596.98124 412.89863 598.12955 411.4525 598.0999 C 410.0873 598.07194 408.9727 596.9998 408.89174 595.63674 L 407.06297 564.8496 C 406.95388 563.0129 405.3765 561.6124 403.53984 561.7215 C 401.8474 561.82204 400.50043 563.1776 400.4106 564.8706 L 397.8095 613.8932 C 397.7303 615.3858 396.4561 616.5316 394.9635 616.45244 C 393.9953 616.4011 393.1285 615.8357 392.6913 614.9703 L 388.1112 605.9052 C 388.1112 605.9052 388.03806 568.51516 391.99594 556.0141 C 395.9538 543.513 403.76433 539.8348 403.76433 539.8348 L 409.6163 534.89695 C 411.07794 533.66364 413.2626 533.8487 414.4959 535.31035 C 415.0388 535.9537 415.3287 536.7728 415.31145 537.6144 Z" stroke="black" stroke-linecap="round" stroke-linejoin="round" stroke-width="3"/>
      </g>
      <g id="Graphic_46">
        <path d="M 485.5305 821.9784 L 488.851 809.9266 C 489.343 808.141 490.18436 806.4707 491.32643 805.0126 L 497.428 797.2225 C 498.6837 795.6193 501.00125 795.3376 502.6044 796.5933 C 503.04946 796.9419 503.4084 797.3881 503.6535 797.8975 L 505.92634 802.6217 C 506.1244 803.0333 506.34243 803.435 506.57974 803.8253 L 510.3631 810.0479 C 512.26694 813.17915 512.8671 816.9321 512.0348 820.5009 L 511.7243 821.832 C 510.81126 825.747 507.53646 828.6658 503.54267 829.1244 L 498.50386 829.7029 C 497.4272 829.8265 496.3399 829.8246 495.26367 829.6974 L 490.3306 829.1143 C 487.2212 828.7468 484.9985 825.9282 485.366 822.8188 C 485.39957 822.5349 485.45455 822.254 485.5305 821.9784 Z" fill="#2cc8ff"/>
        <path d="M 485.5305 821.9784 L 488.851 809.9266 C 489.343 808.141 490.18436 806.4707 491.32643 805.0126 L 497.428 797.2225 C 498.6837 795.6193 501.00125 795.3376 502.6044 796.5933 C 503.04946 796.9419 503.4084 797.3881 503.6535 797.8975 L 505.92634 802.6217 C 506.1244 803.0333 506.34243 803.435 506.57974 803.8253 L 510.3631 810.0479 C 512.26694 813.17915 512.8671 816.9321 512.0348 820.5009 L 511.7243 821.832 C 510.81126 825.747 507.53646 828.6658 503.54267 829.1244 L 498.50386 829.7029 C 497.4272 829.8265 496.3399 829.8246 495.26367 829.6974 L 490.3306 829.1143 C 487.2212 828.7468 484.9985 825.9282 485.366 822.8188 C 485.39957 822.5349 485.45455 822.254 485.5305 821.9784 Z" stroke="black" stroke-linecap="round" stroke-linejoin="round" stroke-width="3"/>
      </g>
      <g id="Graphic_48">
        <path d="M 518.89494 473.3029 L 512.24856 455.9738 C 511.8027 454.8114 511.51393 453.5947 511.38983 452.3559 L 510.35135 441.9898 C 510.2227 440.7055 511.1595 439.56004 512.4438 439.4314 C 513.1345 439.3622 513.82024 439.6036 514.31524 440.09027 L 518.59114 444.2941 C 518.8125 444.51176 519.04107 444.722 519.2764 444.92443 L 527.33004 451.8521 C 529.0017 453.2901 530.3101 455.1026 531.1486 457.142 L 534.145 464.4298 C 535.182 466.952 534.5019 469.85445 532.4523 471.6534 L 531.1546 472.7924 C 529.74985 474.0254 528.1124 474.96465 526.3388 475.5547 L 524.76467 476.0784 C 522.3807 476.8715 519.79465 475.6487 518.89494 473.3029 Z" fill="#2cc8ff"/>
        <path d="M 518.89494 473.3029 L 512.24856 455.9738 C 511.8027 454.8114 511.51393 453.5947 511.38983 452.3559 L 510.35135 441.9898 C 510.2227 440.7055 511.1595 439.56004 512.4438 439.4314 C 513.1345 439.3622 513.82024 439.6036 514.31524 440.09027 L 518.59114 444.2941 C 518.8125 444.51176 519.04107 444.722 519.2764 444.92443 L 527.33004 451.8521 C 529.0017 453.2901 530.3101 455.1026 531.1486 457.142 L 534.145 464.4298 C 535.182 466.952 534.5019 469.85445 532.4523 471.6534 L 531.1546 472.7924 C 529.74985 474.0254 528.1124 474.96465 526.3388 475.5547 L 524.76467 476.0784 C 522.3807 476.8715 519.79465 475.6487 518.89494 473.3029 Z" stroke="black" stroke-linecap="round" stroke-linejoin="round" stroke-width="3"/>
      </g>
      <g id="Graphic_49">
        <path d="M 489.338 767.6136 L 492.2466 749.283 C 492.4417 748.0534 492.79995 746.8553 493.31187 745.7204 L 497.59557 736.2239 C 498.1263 735.0473 499.51033 734.52374 500.6869 735.0545 C 501.31967 735.3399 501.7928 735.8918 501.97816 736.5608 L 503.57927 742.3394 C 503.66216 742.63855 503.755 742.9349 503.8576 743.2279 L 507.3684 753.25425 C 508.0971 755.3354 508.32394 757.5593 508.0304 759.7447 L 506.98144 767.5543 C 506.6184 770.2571 504.5782 772.43065 501.90376 772.9638 L 500.2104 773.3014 C 498.37734 773.6668 496.48964 773.6615 494.65866 773.2857 L 493.03356 772.9521 C 490.5724 772.447 488.94426 770.095 489.338 767.6136 Z" fill="#2cc8ff"/>
        <path d="M 489.338 767.6136 L 492.2466 749.283 C 492.4417 748.0534 492.79995 746.8553 493.31187 745.7204 L 497.59557 736.2239 C 498.1263 735.0473 499.51033 734.52374 500.6869 735.0545 C 501.31967 735.3399 501.7928 735.8918 501.97816 736.5608 L 503.57927 742.3394 C 503.66216 742.63855 503.755 742.9349 503.8576 743.2279 L 507.3684 753.25425 C 508.0971 755.3354 508.32394 757.5593 508.0304 759.7447 L 506.98144 767.5543 C 506.6184 770.2571 504.5782 772.43065 501.90376 772.9638 L 500.2104 773.3014 C 498.37734 773.6668 496.48964 773.6615 494.65866 773.2857 L 493.03356 772.9521 C 490.5724 772.447 488.94426 770.095 489.338 767.6136 Z" stroke="black" stroke-linecap="round" stroke-linejoin="round" stroke-width="3"/>
      </g>
      <g id="Graphic_50">
        <path d="M 390.0035 473.17774 L 397.4511 455.1465 C 397.8536 454.17204 398.36485 453.2462 398.9752 452.3865 L 404.91693 444.0173 C 405.52617 443.15916 406.7157 442.9574 407.57385 443.5666 C 408.09786 443.93864 408.39906 444.5497 408.37495 445.1919 L 408.1501 451.1803 C 408.14024 451.44327 408.1378 451.7065 408.14274 451.9696 L 408.35064 462.9889 C 408.38515 464.8181 408.0608 466.63635 407.3959 468.3408 L 404.0562 476.9023 C 403.2301 479.02 401.16644 480.3937 398.894 480.33866 L 398.5471 480.33026 C 396.288 480.2755 394.0757 479.67474 392.09924 478.5792 L 391.8433 478.43735 C 389.98285 477.40616 389.19146 475.14374 390.0035 473.17774 Z" fill="#2cc8ff"/>
        <path d="M 390.0035 473.17774 L 397.4511 455.1465 C 397.8536 454.17204 398.36485 453.2462 398.9752 452.3865 L 404.91693 444.0173 C 405.52617 443.15916 406.7157 442.9574 407.57385 443.5666 C 408.09786 443.93864 408.39906 444.5497 408.37495 445.1919 L 408.1501 451.1803 C 408.14024 451.44327 408.1378 451.7065 408.14274 451.9696 L 408.35064 462.9889 C 408.38515 464.8181 408.0608 466.63635 407.3959 468.3408 L 404.0562 476.9023 C 403.2301 479.02 401.16644 480.3937 398.894 480.33866 L 398.5471 480.33026 C 396.288 480.2755 394.0757 479.67474 392.09924 478.5792 L 391.8433 478.43735 C 389.98285 477.40616 389.19146 475.14374 390.0035 473.17774 Z" stroke="black" stroke-linecap="round" stroke-linejoin="round" stroke-width="3"/>
      </g>
    </g>
  </g>
</svg>
