<?xml version="1.0" encoding="UTF-8" standalone="no"?>
<!DOCTYPE svg PUBLIC "-//W3C//DTD SVG 1.1//EN" "http://www.w3.org/Graphics/SVG/1.1/DTD/svg11.dtd">
<svg version="1.1" xmlns="http://www.w3.org/2000/svg" xmlns:xl="http://www.w3.org/1999/xlink" xmlns:dc="http://purl.org/dc/elements/1.1/" viewBox="0 0 850.394 850.394" width="850.394" height="850.394">
  <defs/>
  <metadata> Produced by OmniGraffle 7.9.4 
    <dc:date>2019-03-22 20:45:40 +0000</dc:date>
  </metadata>
  <g id="fizzy" stroke-opacity="1" fill-opacity="1" stroke="none" stroke-dasharray="none" fill="none">
    <title>fizzy</title>
    <g id="fizzy: synth">
      <title>synth</title>
      <g id="Graphic_170">
        <path d="M 147.77778 821.3889 L 147.77778 505.6389 L 209.30984 470.55556 L 763.0984 470.55556 L 763.0984 786.3056 L 701.5663 821.3889 Z" fill="#ffc0ff"/>
        <path d="M 147.77778 821.3889 L 147.77778 505.6389 L 209.30984 470.55556 L 763.0984 470.55556 L 763.0984 786.3056 L 701.5663 821.3889 L 147.77778 821.3889 M 147.77778 505.6389 L 701.5663 505.6389 L 763.0984 470.55556 M 701.5663 505.6389 L 701.5663 821.3889" stroke="black" stroke-linecap="round" stroke-linejoin="round" stroke-width="9"/>
      </g>
      <g id="Graphic_169">
        <path d="M 167.89725 602.17045 L 167.89725 541.74436 L 174.3427 535.03035 L 232.35175 535.03035 L 232.35175 595.45644 L 225.9063 602.17045 Z" fill="#999"/>
        <path d="M 167.89725 602.17045 L 167.89725 541.74436 L 174.3427 535.03035 L 232.35175 535.03035 L 232.35175 595.45644 L 225.9063 602.17045 L 167.89725 602.17045 M 167.89725 541.74436 L 225.9063 541.74436 L 232.35175 535.03035 M 225.9063 541.74436 L 225.9063 602.17045" stroke="black" stroke-linecap="round" stroke-linejoin="round" stroke-width="3"/>
      </g>
      <g id="Graphic_168">
        <path d="M 246.5122 602.17045 L 246.5122 541.74436 L 252.95765 535.03035 L 310.9667 535.03035 L 310.9667 595.45644 L 304.52125 602.17045 Z" fill="#999"/>
        <path d="M 246.5122 602.17045 L 246.5122 541.74436 L 252.95765 535.03035 L 310.9667 535.03035 L 310.9667 595.45644 L 304.52125 602.17045 L 246.5122 602.17045 M 246.5122 541.74436 L 304.52125 541.74436 L 310.9667 535.03035 M 304.52125 541.74436 L 304.52125 602.17045" stroke="black" stroke-linecap="round" stroke-linejoin="round" stroke-width="3"/>
      </g>
      <g id="Graphic_167">
        <path d="M 258.7195 552.12056 L 298.7594 572.1405 L 258.7195 592.1605 Z" fill="lime"/>
        <path d="M 258.7195 552.12056 L 298.7594 572.1405 L 258.7195 592.1605 Z" stroke="black" stroke-linecap="round" stroke-linejoin="round" stroke-width="8"/>
      </g>
      <g id="Graphic_166">
        <rect x="180.0705" y="555.0528" width="34.17537" height="34.17537" fill="blue"/>
        <rect x="180.0705" y="555.0528" width="34.17537" height="34.17537" stroke="black" stroke-linecap="round" stroke-linejoin="round" stroke-width="8"/>
      </g>
      <g id="Graphic_165">
        <path d="M 225.74074 802.1077 L 225.74074 693.8398 L 228.75866 681.81 L 255.91995 681.81 L 255.91995 790.078 L 252.90203 802.1077 Z" fill="#999"/>
        <path d="M 225.74074 802.1077 L 225.74074 693.8398 L 228.75866 681.81 L 255.91995 681.81 L 255.91995 790.078 L 252.90203 802.1077 L 225.74074 802.1077 M 225.74074 693.8398 L 252.90203 693.8398 L 255.91995 681.81 M 252.90203 693.8398 L 252.90203 802.1077" stroke="black" stroke-linecap="round" stroke-linejoin="round" stroke-width="4"/>
      </g>
      <g id="Graphic_164">
        <path d="M 255.91995 758.8929 L 255.91995 689.5183 L 258.93787 681.81 L 286.09916 681.81 L 286.09916 751.1846 L 283.08124 758.8929 Z" fill="#333"/>
        <path d="M 255.91995 758.8929 L 255.91995 689.5183 L 258.93787 681.81 L 286.09916 681.81 L 286.09916 751.1846 L 283.08124 758.8929 L 255.91995 758.8929 M 255.91995 689.5183 L 283.08124 689.5183 L 286.09916 681.81 M 283.08124 689.5183 L 283.08124 758.8929" stroke="black" stroke-linecap="round" stroke-linejoin="round" stroke-width="4"/>
      </g>
      <g id="Graphic_163">
        <path d="M 286.09916 802.1077 L 286.09916 693.8398 L 289.1171 681.81 L 316.27838 681.81 L 316.27838 790.078 L 313.26045 802.1077 Z" fill="#999"/>
        <path d="M 286.09916 802.1077 L 286.09916 693.8398 L 289.1171 681.81 L 316.27838 681.81 L 316.27838 790.078 L 313.26045 802.1077 L 286.09916 802.1077 M 286.09916 693.8398 L 313.26045 693.8398 L 316.27838 681.81 M 313.26045 693.8398 L 313.26045 802.1077" stroke="black" stroke-linecap="round" stroke-linejoin="round" stroke-width="4"/>
      </g>
      <g id="Graphic_162">
        <path d="M 316.27838 758.8929 L 316.27838 689.5183 L 319.2963 681.81 L 346.4576 681.81 L 346.4576 751.1846 L 343.43967 758.8929 Z" fill="#333"/>
        <path d="M 316.27838 758.8929 L 316.27838 689.5183 L 319.2963 681.81 L 346.4576 681.81 L 346.4576 751.1846 L 343.43967 758.8929 L 316.27838 758.8929 M 316.27838 689.5183 L 343.43967 689.5183 L 346.4576 681.81 M 343.43967 689.5183 L 343.43967 758.8929" stroke="black" stroke-linecap="round" stroke-linejoin="round" stroke-width="4"/>
      </g>
      <g id="Graphic_161">
        <path d="M 346.4576 802.1077 L 346.4576 693.8398 L 349.4755 681.81 L 376.6368 681.81 L 376.6368 790.078 L 373.61888 802.1077 Z" fill="#999"/>
        <path d="M 346.4576 802.1077 L 346.4576 693.8398 L 349.4755 681.81 L 376.6368 681.81 L 376.6368 790.078 L 373.61888 802.1077 L 346.4576 802.1077 M 346.4576 693.8398 L 373.61888 693.8398 L 376.6368 681.81 M 373.61888 693.8398 L 373.61888 802.1077" stroke="black" stroke-linecap="round" stroke-linejoin="round" stroke-width="4"/>
      </g>
      <g id="Graphic_160">
        <path d="M 376.6368 802.1077 L 376.6368 693.8398 L 379.6547 681.81 L 406.816 681.81 L 406.816 790.078 L 403.7981 802.1077 Z" fill="#999"/>
        <path d="M 376.6368 802.1077 L 376.6368 693.8398 L 379.6547 681.81 L 406.816 681.81 L 406.816 790.078 L 403.7981 802.1077 L 376.6368 802.1077 M 376.6368 693.8398 L 403.7981 693.8398 L 406.816 681.81 M 403.7981 693.8398 L 403.7981 802.1077" stroke="black" stroke-linecap="round" stroke-linejoin="round" stroke-width="4"/>
      </g>
      <g id="Graphic_159">
        <path d="M 406.816 758.8929 L 406.816 689.5183 L 409.83393 681.81 L 436.9952 681.81 L 436.9952 751.1846 L 433.9773 758.8929 Z" fill="#333"/>
        <path d="M 406.816 758.8929 L 406.816 689.5183 L 409.83393 681.81 L 436.9952 681.81 L 436.9952 751.1846 L 433.9773 758.8929 L 406.816 758.8929 M 406.816 689.5183 L 433.9773 689.5183 L 436.9952 681.81 M 433.9773 689.5183 L 433.9773 758.8929" stroke="black" stroke-linecap="round" stroke-linejoin="round" stroke-width="4"/>
      </g>
      <g id="Graphic_158">
        <path d="M 436.9952 802.1077 L 436.9952 693.8398 L 440.01314 681.81 L 467.17443 681.81 L 467.17443 790.078 L 464.1565 802.1077 Z" fill="#999"/>
        <path d="M 436.9952 802.1077 L 436.9952 693.8398 L 440.01314 681.81 L 467.17443 681.81 L 467.17443 790.078 L 464.1565 802.1077 L 436.9952 802.1077 M 436.9952 693.8398 L 464.1565 693.8398 L 467.17443 681.81 M 464.1565 693.8398 L 464.1565 802.1077" stroke="black" stroke-linecap="round" stroke-linejoin="round" stroke-width="4"/>
      </g>
      <g id="Graphic_157">
        <path d="M 468.2628 758.8929 L 468.2628 689.5183 L 471.2807 681.81 L 498.442 681.81 L 498.442 751.1846 L 495.4241 758.8929 Z" fill="#333"/>
        <path d="M 468.2628 758.8929 L 468.2628 689.5183 L 471.2807 681.81 L 498.442 681.81 L 498.442 751.1846 L 495.4241 758.8929 L 468.2628 758.8929 M 468.2628 689.5183 L 495.4241 689.5183 L 498.442 681.81 M 495.4241 689.5183 L 495.4241 758.8929" stroke="black" stroke-linecap="round" stroke-linejoin="round" stroke-width="4"/>
      </g>
      <g id="Graphic_156">
        <path d="M 498.442 802.1077 L 498.442 693.8398 L 501.4599 681.81 L 528.6212 681.81 L 528.6212 790.078 L 525.6033 802.1077 Z" fill="#999"/>
        <path d="M 498.442 802.1077 L 498.442 693.8398 L 501.4599 681.81 L 528.6212 681.81 L 528.6212 790.078 L 525.6033 802.1077 L 498.442 802.1077 M 498.442 693.8398 L 525.6033 693.8398 L 528.6212 681.81 M 525.6033 693.8398 L 525.6033 802.1077" stroke="black" stroke-linecap="round" stroke-linejoin="round" stroke-width="4"/>
      </g>
      <g id="Graphic_155">
        <path d="M 528.6212 758.8929 L 528.6212 689.5183 L 531.6391 681.81 L 558.8004 681.81 L 558.8004 751.1846 L 555.7825 758.8929 Z" fill="#333"/>
        <path d="M 528.6212 758.8929 L 528.6212 689.5183 L 531.6391 681.81 L 558.8004 681.81 L 558.8004 751.1846 L 555.7825 758.8929 L 528.6212 758.8929 M 528.6212 689.5183 L 555.7825 689.5183 L 558.8004 681.81 M 555.7825 689.5183 L 555.7825 758.8929" stroke="black" stroke-linecap="round" stroke-linejoin="round" stroke-width="4"/>
      </g>
      <g id="Graphic_154">
        <path d="M 558.8004 802.1077 L 558.8004 693.8398 L 561.81834 681.81 L 588.9796 681.81 L 588.9796 790.078 L 585.9617 802.1077 Z" fill="#999"/>
        <path d="M 558.8004 802.1077 L 558.8004 693.8398 L 561.81834 681.81 L 588.9796 681.81 L 588.9796 790.078 L 585.9617 802.1077 L 558.8004 802.1077 M 558.8004 693.8398 L 585.9617 693.8398 L 588.9796 681.81 M 585.9617 693.8398 L 585.9617 802.1077" stroke="black" stroke-linecap="round" stroke-linejoin="round" stroke-width="4"/>
      </g>
      <g id="Graphic_153">
        <path d="M 588.9796 802.1077 L 588.9796 693.8398 L 591.99755 681.81 L 619.15884 681.81 L 619.15884 790.078 L 616.1409 802.1077 Z" fill="#999"/>
        <path d="M 588.9796 802.1077 L 588.9796 693.8398 L 591.99755 681.81 L 619.15884 681.81 L 619.15884 790.078 L 616.1409 802.1077 L 588.9796 802.1077 M 588.9796 693.8398 L 616.1409 693.8398 L 619.15884 681.81 M 616.1409 693.8398 L 616.1409 802.1077" stroke="black" stroke-linecap="round" stroke-linejoin="round" stroke-width="4"/>
      </g>
      <g id="Graphic_152">
        <circle cx="241.68746" cy="655.8224" r="9.22144046173573" fill="black"/>
        <circle cx="241.68746" cy="655.8224" r="9.22144046173573" stroke="black" stroke-linecap="round" stroke-linejoin="round" stroke-width="3"/>
      </g>
      <g id="Graphic_151">
        <circle cx="272.0146" cy="655.8224" r="9.22144046173572" fill="black"/>
        <circle cx="272.0146" cy="655.8224" r="9.22144046173572" stroke="black" stroke-linecap="round" stroke-linejoin="round" stroke-width="3"/>
      </g>
      <g id="Graphic_150">
        <circle cx="301.97192" cy="655.8224" r="9.22144046173571" fill="black"/>
        <circle cx="301.97192" cy="655.8224" r="9.22144046173571" stroke="black" stroke-linecap="round" stroke-linejoin="round" stroke-width="3"/>
      </g>
      <g id="Graphic_149">
        <circle cx="332.29907" cy="655.8224" r="9.22144046173572" fill="black"/>
        <circle cx="332.29907" cy="655.8224" r="9.22144046173572" stroke="black" stroke-linecap="round" stroke-linejoin="round" stroke-width="3"/>
      </g>
      <g id="Graphic_148">
        <circle cx="361.6787" cy="655.8224" r="9.22144046173573" fill="black"/>
        <circle cx="361.6787" cy="655.8224" r="9.22144046173573" stroke="black" stroke-linecap="round" stroke-linejoin="round" stroke-width="3"/>
      </g>
      <g id="Graphic_147">
        <circle cx="392.00584" cy="655.8224" r="9.22144046173573" fill="black"/>
        <circle cx="392.00584" cy="655.8224" r="9.22144046173573" stroke="black" stroke-linecap="round" stroke-linejoin="round" stroke-width="3"/>
      </g>
      <g id="Graphic_146">
        <circle cx="421.96315" cy="655.8224" r="9.22144046173572" fill="red"/>
        <circle cx="421.96315" cy="655.8224" r="9.22144046173572" stroke="black" stroke-linecap="round" stroke-linejoin="round" stroke-width="3"/>
      </g>
      <g id="Graphic_145">
        <circle cx="452.2903" cy="655.8224" r="9.22144046173572" fill="black"/>
        <circle cx="452.2903" cy="655.8224" r="9.22144046173572" stroke="black" stroke-linecap="round" stroke-linejoin="round" stroke-width="3"/>
      </g>
      <g id="Graphic_144">
        <circle cx="483.62835" cy="655.8224" r="9.22144046173572" fill="black"/>
        <circle cx="483.62835" cy="655.8224" r="9.22144046173572" stroke="black" stroke-linecap="round" stroke-linejoin="round" stroke-width="3"/>
      </g>
      <g id="Graphic_143">
        <circle cx="513.9555" cy="655.8224" r="9.22144046173573" fill="black"/>
        <circle cx="513.9555" cy="655.8224" r="9.22144046173573" stroke="black" stroke-linecap="round" stroke-linejoin="round" stroke-width="3"/>
      </g>
      <g id="Graphic_142">
        <circle cx="543.9128" cy="655.8224" r="9.22144046173576" fill="black"/>
        <circle cx="543.9128" cy="655.8224" r="9.22144046173576" stroke="black" stroke-linecap="round" stroke-linejoin="round" stroke-width="3"/>
      </g>
      <g id="Graphic_141">
        <circle cx="574.23995" cy="655.8224" r="9.22144046173574" fill="black"/>
        <circle cx="574.23995" cy="655.8224" r="9.22144046173574" stroke="black" stroke-linecap="round" stroke-linejoin="round" stroke-width="3"/>
      </g>
      <g id="Graphic_140">
        <circle cx="604.3487" cy="655.8224" r="9.22144046173576" fill="black"/>
        <circle cx="604.3487" cy="655.8224" r="9.22144046173576" stroke="black" stroke-linecap="round" stroke-linejoin="round" stroke-width="3"/>
      </g>
      <g id="Graphic_139">
        <path d="M 346.17963 542.53895 C 356.798 538.2367 367.6439 543.76295 370.4046 554.8822 C 373.1654 566.0014 366.79554 578.50295 356.17716 582.80515 C 345.5588 587.1074 334.7129 581.58115 331.95217 570.4619 C 329.1914 559.3427 335.56124 546.84115 346.17963 542.53895" fill="#999"/>
        <path d="M 346.17963 542.53895 C 356.798 538.2367 367.6439 543.76295 370.4046 554.8822 C 373.1654 566.0014 366.79554 578.50295 356.17716 582.80515 C 345.5588 587.1074 334.7129 581.58115 331.95217 570.4619 C 329.1914 559.3427 335.56124 546.84115 346.17963 542.53895" stroke="black" stroke-linecap="round" stroke-linejoin="round" stroke-width="6"/>
      </g>
      <g id="Graphic_138">
        <path d="M 339.83715 549.2527 C 347.85648 546.0035 356.04762 550.1771 358.1326 558.5747 C 360.21763 566.97226 355.40693 576.4138 347.3876 579.66295 C 339.36827 582.91215 331.17712 578.73855 329.09214 570.34095 C 327.0071 561.9434 331.81782 552.50183 339.83715 549.2527" fill="#ccc"/>
        <path d="M 339.83715 549.2527 C 347.85648 546.0035 356.04762 550.1771 358.1326 558.5747 C 360.21763 566.97226 355.40693 576.4138 347.3876 579.66295 C 339.36827 582.91215 331.17712 578.73855 329.09214 570.34095 C 327.0071 561.9434 331.81782 552.50183 339.83715 549.2527" stroke="black" stroke-linecap="round" stroke-linejoin="round" stroke-width="4"/>
      </g>
      <g id="Line_137">
        <line x1="343.30272" y1="565.0334" x2="343.30272" y2="551.4087" stroke="black" stroke-linecap="round" stroke-linejoin="round" stroke-width="7"/>
      </g>
      <g id="Graphic_136">
        <path d="M 403.15555 540.68104 C 413.7739 536.3788 424.6198 541.90504 427.38053 553.0243 C 430.1413 564.1435 423.77146 576.64504 413.1531 580.94724 C 402.5347 585.2495 391.6888 579.72324 388.9281 568.604 C 386.1673 557.48477 392.53716 544.98324 403.15555 540.68104" fill="#999"/>
        <path d="M 403.15555 540.68104 C 413.7739 536.3788 424.6198 541.90504 427.38053 553.0243 C 430.1413 564.1435 423.77146 576.64504 413.1531 580.94724 C 402.5347 585.2495 391.6888 579.72324 388.9281 568.604 C 386.1673 557.48477 392.53716 544.98324 403.15555 540.68104" stroke="black" stroke-linecap="round" stroke-linejoin="round" stroke-width="6"/>
      </g>
      <g id="Graphic_135">
        <path d="M 396.81308 547.4669 C 404.8324 544.2177 413.02355 548.3913 415.10853 556.7889 C 417.19355 565.1865 412.38285 574.628 404.3635 577.8772 C 396.3442 581.1264 388.15305 576.9528 386.06806 568.5552 C 383.98304 560.1576 388.79374 550.7161 396.81308 547.4669" fill="#ccc"/>
        <path d="M 396.81308 547.4669 C 404.8324 544.2177 413.02355 548.3913 415.10853 556.7889 C 417.19355 565.1865 412.38285 574.628 404.3635 577.8772 C 396.3442 581.1264 388.15305 576.9528 386.06806 568.5552 C 383.98304 560.1576 388.79374 550.7161 396.81308 547.4669" stroke="black" stroke-linecap="round" stroke-linejoin="round" stroke-width="4"/>
      </g>
      <g id="Line_134">
        <line x1="400.27864" y1="563.1755" x2="413.6677" y2="555.8574" stroke="black" stroke-linecap="round" stroke-linejoin="round" stroke-width="7"/>
      </g>
      <g id="Graphic_133">
        <path d="M 466.2532 542.53895 C 476.8716 538.2367 487.7175 543.76295 490.4782 554.8822 C 493.239 566.0014 486.86914 578.50295 476.25075 582.80515 C 465.6324 587.1074 454.7865 581.58115 452.02577 570.4619 C 449.265 559.3427 455.63484 546.84115 466.2532 542.53895" fill="#999"/>
        <path d="M 466.2532 542.53895 C 476.8716 538.2367 487.7175 543.76295 490.4782 554.8822 C 493.239 566.0014 486.86914 578.50295 476.25075 582.80515 C 465.6324 587.1074 454.7865 581.58115 452.02577 570.4619 C 449.265 559.3427 455.63484 546.84115 466.2532 542.53895" stroke="black" stroke-linecap="round" stroke-linejoin="round" stroke-width="6"/>
      </g>
      <g id="Graphic_132">
        <path d="M 459.91075 549.2527 C 467.93007 546.0035 476.1212 550.1771 478.2062 558.5747 C 480.2912 566.97226 475.4805 576.4138 467.4612 579.66295 C 459.44187 582.91215 451.2507 578.73855 449.16574 570.34095 C 447.0807 561.9434 451.8914 552.50183 459.91075 549.2527" fill="#ccc"/>
        <path d="M 459.91075 549.2527 C 467.93007 546.0035 476.1212 550.1771 478.2062 558.5747 C 480.2912 566.97226 475.4805 576.4138 467.4612 579.66295 C 459.44187 582.91215 451.2507 578.73855 449.16574 570.34095 C 447.0807 561.9434 451.8914 552.50183 459.91075 549.2527" stroke="black" stroke-linecap="round" stroke-linejoin="round" stroke-width="4"/>
      </g>
      <g id="Line_131">
        <line x1="463.3763" y1="565.0334" x2="451.00807" y2="565.87554" stroke="black" stroke-linecap="round" stroke-linejoin="round" stroke-width="7"/>
      </g>
      <g id="Graphic_130">
        <path d="M 527.22564 544.8726 C 537.844 540.57034 548.6899 546.0966 551.4506 557.21584 C 554.2114 568.3351 547.84156 580.8366 537.2232 585.1388 C 526.6048 589.44105 515.7589 583.9148 512.9982 572.79555 C 510.2374 561.6763 516.60726 549.1748 527.22564 544.8726" fill="#999"/>
        <path d="M 527.22564 544.8726 C 537.844 540.57034 548.6899 546.0966 551.4506 557.21584 C 554.2114 568.3351 547.84156 580.8366 537.2232 585.1388 C 526.6048 589.44105 515.7589 583.9148 512.9982 572.79555 C 510.2374 561.6763 516.60726 549.1748 527.22564 544.8726" stroke="black" stroke-linecap="round" stroke-linejoin="round" stroke-width="6"/>
      </g>
      <g id="Graphic_129">
        <path d="M 520.88317 551.6585 C 528.9025 548.4093 537.09364 552.5829 539.1786 560.9805 C 541.26364 569.37805 536.45294 578.8196 528.4336 582.06874 C 520.4143 585.31794 512.22314 581.14434 510.13816 572.74674 C 508.05313 564.34916 512.86384 554.9076 520.88317 551.6585" fill="#ccc"/>
        <path d="M 520.88317 551.6585 C 528.9025 548.4093 537.09364 552.5829 539.1786 560.9805 C 541.26364 569.37805 536.45294 578.8196 528.4336 582.06874 C 520.4143 585.31794 512.22314 581.14434 510.13816 572.74674 C 508.05313 564.34916 512.86384 554.9076 520.88317 551.6585" stroke="black" stroke-linecap="round" stroke-linejoin="round" stroke-width="4"/>
      </g>
      <g id="Line_128">
        <line x1="524.34874" y1="567.36704" x2="537.7378" y2="560.04895" stroke="black" stroke-linecap="round" stroke-linejoin="round" stroke-width="7"/>
      </g>
      <g id="Graphic_127">
        <path d="M 590.3233 546.7305 C 600.9417 542.42825 611.7876 547.9545 614.5483 559.07375 C 617.3091 570.193 610.9392 582.6945 600.32084 586.9967 C 589.7025 591.29896 578.8566 585.7727 576.09586 574.65346 C 573.3351 563.53423 579.7049 551.0327 590.3233 546.7305" fill="#999"/>
        <path d="M 590.3233 546.7305 C 600.9417 542.42825 611.7876 547.9545 614.5483 559.07375 C 617.3091 570.193 610.9392 582.6945 600.32084 586.9967 C 589.7025 591.29896 578.8566 585.7727 576.09586 574.65346 C 573.3351 563.53423 579.7049 551.0327 590.3233 546.7305" stroke="black" stroke-linecap="round" stroke-linejoin="round" stroke-width="6"/>
      </g>
      <g id="Graphic_126">
        <path d="M 583.98084 553.44424 C 592.00016 550.19504 600.1913 554.36864 602.2763 562.76624 C 604.3613 571.1638 599.5506 580.60535 591.5313 583.8545 C 583.51196 587.1037 575.3208 582.9301 573.2358 574.5325 C 571.1508 566.1349 575.9615 556.6934 583.98084 553.44424" fill="#ccc"/>
        <path d="M 583.98084 553.44424 C 592.00016 550.19504 600.1913 554.36864 602.2763 562.76624 C 604.3613 571.1638 599.5506 580.60535 591.5313 583.8545 C 583.51196 587.1037 575.3208 582.9301 573.2358 574.5325 C 571.1508 566.1349 575.9615 556.6934 583.98084 553.44424" stroke="black" stroke-linecap="round" stroke-linejoin="round" stroke-width="4"/>
      </g>
      <g id="Line_125">
        <line x1="587.4464" y1="569.22495" x2="575.07816" y2="570.0671" stroke="black" stroke-linecap="round" stroke-linejoin="round" stroke-width="7"/>
      </g>
      <g id="Graphic_124">
        <path d="M 650.6817 546.7305 C 661.3001 542.42825 672.146 547.9545 674.9067 559.07375 C 677.6675 570.193 671.29765 582.6945 660.6793 586.9967 C 650.0609 591.29896 639.215 585.7727 636.4543 574.65346 C 633.6935 563.53423 640.06335 551.0327 650.6817 546.7305" fill="#999"/>
        <path d="M 650.6817 546.7305 C 661.3001 542.42825 672.146 547.9545 674.9067 559.07375 C 677.6675 570.193 671.29765 582.6945 660.6793 586.9967 C 650.0609 591.29896 639.215 585.7727 636.4543 574.65346 C 633.6935 563.53423 640.06335 551.0327 650.6817 546.7305" stroke="black" stroke-linecap="round" stroke-linejoin="round" stroke-width="6"/>
      </g>
      <g id="Graphic_123">
        <path d="M 644.3393 553.44424 C 652.3586 550.19504 660.5497 554.36864 662.6347 562.76624 C 664.71974 571.1638 659.909 580.60535 651.8897 583.8545 C 643.8704 587.1037 635.6792 582.9301 633.59425 574.5325 C 631.5092 566.1349 636.3199 556.6934 644.3393 553.44424" fill="#ccc"/>
        <path d="M 644.3393 553.44424 C 652.3586 550.19504 660.5497 554.36864 662.6347 562.76624 C 664.71974 571.1638 659.909 580.60535 651.8897 583.8545 C 643.8704 587.1037 635.6792 582.9301 633.59425 574.5325 C 631.5092 566.1349 636.3199 556.6934 644.3393 553.44424" stroke="black" stroke-linecap="round" stroke-linejoin="round" stroke-width="4"/>
      </g>
      <g id="Line_122">
        <line x1="647.8048" y1="569.22495" x2="659.5669" y2="561.7918" stroke="black" stroke-linecap="round" stroke-linejoin="round" stroke-width="7"/>
      </g>
    </g>
    <g id="fizzy: Layer 1">
      <title>Layer 1</title>
      <g id="Graphic_51">
        <ellipse cx="455.43807" cy="484.5975" rx="39.5992028045582" ry="20.2641737876906" fill="black"/>
        <ellipse cx="455.43807" cy="484.5975" rx="39.5992028045582" ry="20.2641737876906" stroke="black" stroke-linecap="round" stroke-linejoin="round" stroke-width="1"/>
      </g>
      <g id="Graphic_47">
        <circle cx="446.719" cy="480.3921" r="13.5603144097646" fill="black"/>
        <circle cx="446.719" cy="480.3921" r="13.5603144097646" stroke="black" stroke-linecap="round" stroke-linejoin="round" stroke-width="1"/>
      </g>
      <g id="Graphic_5">
        <path d="M 201.54337 380.5709 C 208.26506 306.6527 271.78 230.95856 343.408 211.50323 C 415.03605 192.04753 467.6527 236.19815 460.93066 310.11645 C 454.20897 384.03466 390.69404 459.7288 319.06603 479.18413 C 247.43798 498.63984 194.82132 454.4892 201.54337 380.5709" fill="white"/>
        <path d="M 201.54337 380.5709 C 208.26506 306.6527 271.78 230.95856 343.408 211.50323 C 415.03605 192.04753 467.6527 236.19815 460.93066 310.11645 C 454.20897 384.03466 390.69404 459.7288 319.06603 479.18413 C 247.43798 498.63984 194.82132 454.4892 201.54337 380.5709" stroke="black" stroke-linecap="round" stroke-linejoin="round" stroke-width="1"/>
      </g>
      <g id="Graphic_8">
        <path d="M 398.5622 331.6577 L 403.0438 370.1939 C 403.1135 370.79337 403.2912 371.37527 403.5682 371.91145 L 453.6392 468.82076 C 454.90676 471.27407 453.94553 474.29043 451.4922 475.558 C 449.40104 476.6385 446.83944 476.1141 445.34104 474.2988 L 335.21136 340.8789 C 333.4535 338.7493 333.75485 335.59784 335.8845 333.83996 C 335.95156 333.7846 336.02007 333.731 336.08994 333.6792 L 339.37742 331.24235 C 341.59585 329.59794 342.06118 326.4665 340.41677 324.2481 C 340.338 324.1418 340.255 324.03867 340.16805 323.93897 L 335.3706 318.43867 C 334.7439 317.72013 334.81832 316.6296 335.53685 316.0029 C 336.1182 315.49584 336.96534 315.436 337.6122 315.85626 L 344.4469 320.29694 C 346.4899 321.62432 349.1922 321.28596 350.84484 319.49582 L 356.3603 313.52147 C 357.56717 312.2142 359.37778 311.64673 361.1149 312.0313 L 372.4646 314.54398 C 374.3296 314.95686 376.26684 314.2711 377.45673 312.77685 L 384.7703 303.59257 C 385.58325 302.57167 387.0699 302.4031 388.09077 303.21605 C 388.82836 303.8034 389.1462 304.77303 388.8994 305.68304 L 386.63723 314.02442 C 386.18344 315.69768 386.62883 317.4866 387.8142 318.75174 L 397.24437 328.81668 C 397.97654 329.59813 398.4385 330.594 398.5622 331.6577 Z" fill="#f26077"/>
        <path d="M 398.5622 331.6577 L 403.0438 370.1939 C 403.1135 370.79337 403.2912 371.37527 403.5682 371.91145 L 453.6392 468.82076 C 454.90676 471.27407 453.94553 474.29043 451.4922 475.558 C 449.40104 476.6385 446.83944 476.1141 445.34104 474.2988 L 335.21136 340.8789 C 333.4535 338.7493 333.75485 335.59784 335.8845 333.83996 C 335.95156 333.7846 336.02007 333.731 336.08994 333.6792 L 339.37742 331.24235 C 341.59585 329.59794 342.06118 326.4665 340.41677 324.2481 C 340.338 324.1418 340.255 324.03867 340.16805 323.93897 L 335.3706 318.43867 C 334.7439 317.72013 334.81832 316.6296 335.53685 316.0029 C 336.1182 315.49584 336.96534 315.436 337.6122 315.85626 L 344.4469 320.29694 C 346.4899 321.62432 349.1922 321.28596 350.84484 319.49582 L 356.3603 313.52147 C 357.56717 312.2142 359.37778 311.64673 361.1149 312.0313 L 372.4646 314.54398 C 374.3296 314.95686 376.26684 314.2711 377.45673 312.77685 L 384.7703 303.59257 C 385.58325 302.57167 387.0699 302.4031 388.09077 303.21605 C 388.82836 303.8034 389.1462 304.77303 388.8994 305.68304 L 386.63723 314.02442 C 386.18344 315.69768 386.62883 317.4866 387.8142 318.75174 L 397.24437 328.81668 C 397.97654 329.59813 398.4385 330.594 398.5622 331.6577 Z" stroke="black" stroke-linecap="round" stroke-linejoin="round" stroke-width="5"/>
      </g>
      <g id="Graphic_7">
        <path d="M 348.17835 314.43613 L 453.017 478.96673 C 454.5009 481.29556 453.81597 484.3864 451.48714 485.8703 C 449.5394 487.1114 446.99505 486.857 445.3316 485.2548 L 304.8181 349.91298 C 302.82923 347.9973 302.7699 344.83203 304.68556 342.84315 C 304.8225 342.70097 304.96776 342.56702 305.12054 342.442 L 340.79543 313.25324 C 342.93265 311.5046 346.08276 311.8196 347.8314 313.9568 C 347.9564 314.1096 348.07226 314.26965 348.17835 314.43613 Z" fill="#2cc8ff"/>
        <path d="M 348.17835 314.43613 L 453.017 478.96673 C 454.5009 481.29556 453.81597 484.3864 451.48714 485.8703 C 449.5394 487.1114 446.99505 486.857 445.3316 485.2548 L 304.8181 349.91298 C 302.82923 347.9973 302.7699 344.83203 304.68556 342.84315 C 304.8225 342.70097 304.96776 342.56702 305.12054 342.442 L 340.79543 313.25324 C 342.93265 311.5046 346.08276 311.8196 347.8314 313.9568 C 347.9564 314.1096 348.07226 314.26965 348.17835 314.43613 Z" stroke="black" stroke-linecap="round" stroke-linejoin="round" stroke-width="5"/>
      </g>
      <g id="Graphic_9">
        <path d="M 320.46026 341.88416 L 440.8495 478.1814 C 442.6776 480.25104 442.4818 483.4108 440.4121 485.2389 C 438.591 486.8475 435.877 486.91394 433.9793 485.3964 L 334.8065 406.0892 C 334.46295 405.81445 334.08462 405.58624 333.68134 405.4105 L 285.54023 384.4305 C 283.70566 383.631 282.52452 381.81464 282.5379 379.81347 L 282.5667 375.5009 C 282.58516 372.73954 280.3616 370.48606 277.60023 370.4676 C 277.47217 370.46675 277.3441 370.4708 277.21636 370.4798 L 266.9552 371.2008 C 265.7795 371.2834 264.75944 370.3973 264.67683 369.2216 C 264.6096 368.2649 265.18883 367.3809 266.09278 367.06054 L 281.35477 361.6518 C 282.63214 361.1991 283.30067 359.7966 282.84798 358.51925 C 282.77905 358.32476 282.68587 358.13974 282.57063 357.96856 L 282.57063 357.96856 C 281.58705 356.50756 281.94715 354.52884 283.3824 353.50803 L 289.6496 349.0505 C 291.4019 347.80418 292.1611 345.57705 291.5349 343.51992 L 286.62304 327.38403 C 286.2287 326.08862 286.95918 324.7188 288.2546 324.3245 C 289.3366 323.9951 290.5035 324.44863 291.07912 325.42222 L 299.74415 340.0782 C 300.82598 341.908 302.94647 342.85374 305.0307 342.43604 L 315.73028 340.2917 C 317.47808 339.94143 319.28018 340.54815 320.46026 341.88416 Z" fill="lime"/>
        <path d="M 320.46026 341.88416 L 440.8495 478.1814 C 442.6776 480.25104 442.4818 483.4108 440.4121 485.2389 C 438.591 486.8475 435.877 486.91394 433.9793 485.3964 L 334.8065 406.0892 C 334.46295 405.81445 334.08462 405.58624 333.68134 405.4105 L 285.54023 384.4305 C 283.70566 383.631 282.52452 381.81464 282.5379 379.81347 L 282.5667 375.5009 C 282.58516 372.73954 280.3616 370.48606 277.60023 370.4676 C 277.47217 370.46675 277.3441 370.4708 277.21636 370.4798 L 266.9552 371.2008 C 265.7795 371.2834 264.75944 370.3973 264.67683 369.2216 C 264.6096 368.2649 265.18883 367.3809 266.09278 367.06054 L 281.35477 361.6518 C 282.63214 361.1991 283.30067 359.7966 282.84798 358.51925 C 282.77905 358.32476 282.68587 358.13974 282.57063 357.96856 L 282.57063 357.96856 C 281.58705 356.50756 281.94715 354.52884 283.3824 353.50803 L 289.6496 349.0505 C 291.4019 347.80418 292.1611 345.57705 291.5349 343.51992 L 286.62304 327.38403 C 286.2287 326.08862 286.95918 324.7188 288.2546 324.3245 C 289.3366 323.9951 290.5035 324.44863 291.07912 325.42222 L 299.74415 340.0782 C 300.82598 341.908 302.94647 342.85374 305.0307 342.43604 L 315.73028 340.2917 C 317.47808 339.94143 319.28018 340.54815 320.46026 341.88416 Z" stroke="black" stroke-linecap="round" stroke-linejoin="round" stroke-width="5"/>
      </g>
      <g id="Graphic_6">
        <path d="M 201.49885 380.06197 C 208.22053 306.14377 271.73546 230.44962 343.36347 210.9943 C 414.9915 191.53858 467.6082 235.6892 460.88613 309.6075 C 454.16444 383.5257 390.6495 459.21986 319.0215 478.6752 C 247.39345 498.1309 194.7768 453.9803 201.49885 380.06197" fill="#4040ff" fill-opacity=".699879"/>
        <path d="M 201.49885 380.06197 C 208.22053 306.14377 271.73546 230.44962 343.36347 210.9943 C 414.9915 191.53858 467.6082 235.6892 460.88613 309.6075 C 454.16444 383.5257 390.6495 459.21986 319.0215 478.6752 C 247.39345 498.1309 194.7768 453.9803 201.49885 380.06197" stroke="black" stroke-linecap="round" stroke-linejoin="round" stroke-width="9"/>
      </g>
      <g id="Graphic_11">
        <path d="M 346.93205 303.23515 L 351.44164 297.4609 C 352.30663 296.35336 353.9057 296.15672 355.01323 297.0217 C 355.761 297.6057 356.12172 298.55718 355.9491 299.4901 L 352.33134 319.03995 C 352.33134 319.03995 377.8824 316.68928 377.70176 317.00213 C 377.52114 317.31498 376.1666 317.90544 376.1666 317.90544 L 364.7407 323.76223 C 360.49045 325.94087 358.81107 331.1525 360.9897 335.40277 C 361.49793 336.39425 362.19296 337.2782 363.03656 338.00596 L 365.0096 339.7081 C 366.53433 341.0235 366.70404 343.32584 365.38866 344.85057 C 364.48653 345.89627 363.07102 346.34253 361.7323 346.0033 L 347.16043 342.31085 C 344.68483 341.68354 342.0584 342.26403 340.07777 343.87626 L 340.07777 343.87626 C 338.1432 345.451 337.2453 347.97115 337.7483 350.41436 L 339.56136 359.2207 C 339.9562 361.1385 338.7216 363.01326 336.8038 363.4081 C 335.5718 363.66174 334.29765 363.2436 333.4555 362.3093 L 323.3769 351.128 C 323.3769 351.128 313.3267 354.0854 313.01386 353.90477 C 312.701 353.72414 298.3478 377.13965 298.3478 377.13965 L 307.6729 345.81554 C 307.6729 345.81554 278.8162 335.8293 278.99682 335.51643 C 279.17744 335.20358 313.20456 333.3484 313.20456 333.3484 L 308.8585 332.204 C 308.71052 332.16505 308.55897 332.25342 308.52 332.4014 C 308.4844 332.53666 308.55516 332.67724 308.685 332.7292 L 310.7877 333.57056 C 312.44154 334.2323 313.48094 335.884 313.362 337.66134 L 313.362 337.66134 C 313.304 338.52805 313.9596 339.27767 314.8263 339.33566 C 315.1434 339.3569 315.4595 339.28154 315.73294 339.11956 L 324.0647 334.18387 C 324.4039 333.98293 324.73206 333.7639 325.04775 333.52772 L 335.11955 325.99266 C 335.432 325.7589 335.73177 325.5087 336.0176 325.2431 L 340.861 320.7428 C 342.1183 319.57453 343.0095 318.06638 343.4263 316.40143 L 343.89565 314.52653 C 344.0084 314.0761 344.09253 313.619 344.14752 313.15793 L 344.67884 308.7031 C 344.9167 306.70893 345.6959 304.81794 346.93205 303.23515 Z" fill="#00bfc0"/>
        <path d="M 346.93205 303.23515 L 351.44164 297.4609 C 352.30663 296.35336 353.9057 296.15672 355.01323 297.0217 C 355.761 297.6057 356.12172 298.55718 355.9491 299.4901 L 352.33134 319.03995 C 352.33134 319.03995 377.8824 316.68928 377.70176 317.00213 C 377.52114 317.31498 376.1666 317.90544 376.1666 317.90544 L 364.7407 323.76223 C 360.49045 325.94087 358.81107 331.1525 360.9897 335.40277 C 361.49793 336.39425 362.19296 337.2782 363.03656 338.00596 L 365.0096 339.7081 C 366.53433 341.0235 366.70404 343.32584 365.38866 344.85057 C 364.48653 345.89627 363.07102 346.34253 361.7323 346.0033 L 347.16043 342.31085 C 344.68483 341.68354 342.0584 342.26403 340.07777 343.87626 L 340.07777 343.87626 C 338.1432 345.451 337.2453 347.97115 337.7483 350.41436 L 339.56136 359.2207 C 339.9562 361.1385 338.7216 363.01326 336.8038 363.4081 C 335.5718 363.66174 334.29765 363.2436 333.4555 362.3093 L 323.3769 351.128 C 323.3769 351.128 313.3267 354.0854 313.01386 353.90477 C 312.701 353.72414 298.3478 377.13965 298.3478 377.13965 L 307.6729 345.81554 C 307.6729 345.81554 278.8162 335.8293 278.99682 335.51643 C 279.17744 335.20358 313.20456 333.3484 313.20456 333.3484 L 308.8585 332.204 C 308.71052 332.16505 308.55897 332.25342 308.52 332.4014 C 308.4844 332.53666 308.55516 332.67724 308.685 332.7292 L 310.7877 333.57056 C 312.44154 334.2323 313.48094 335.884 313.362 337.66134 L 313.362 337.66134 C 313.304 338.52805 313.9596 339.27767 314.8263 339.33566 C 315.1434 339.3569 315.4595 339.28154 315.73294 339.11956 L 324.0647 334.18387 C 324.4039 333.98293 324.73206 333.7639 325.04775 333.52772 L 335.11955 325.99266 C 335.432 325.7589 335.73177 325.5087 336.0176 325.2431 L 340.861 320.7428 C 342.1183 319.57453 343.0095 318.06638 343.4263 316.40143 L 343.89565 314.52653 C 344.0084 314.0761 344.09253 313.619 344.14752 313.15793 L 344.67884 308.7031 C 344.9167 306.70893 345.6959 304.81794 346.93205 303.23515 Z" stroke="black" stroke-linecap="round" stroke-linejoin="round" stroke-width="5"/>
      </g>
      <g id="Graphic_10">
        <path d="M 309.0498 330.4828 L 269.67333 246.57466 C 269.38957 245.97 269.14945 245.3458 268.9548 244.70687 L 228.94228 113.36133 C 228.32903 111.34827 229.4638 109.21922 231.47687 108.60597 C 233.39238 108.02243 235.43274 109.02112 236.14698 110.89183 L 274.98038 212.60252 C 275.33656 213.53542 275.79154 214.42753 276.33753 215.26363 L 306.83065 261.95874 C 306.93695 262.12153 307.04664 262.28208 307.15963 262.4403 L 342.0447 311.2886 C 345.73394 316.45453 345.48565 323.4562 341.43973 328.34783 L 337.92566 332.5964 C 335.7549 335.22094 332.7018 336.9641 329.3382 337.49948 L 323.9242 338.3612 C 317.76467 339.34156 311.69946 336.12906 309.0498 330.4828 Z" fill="#2cc8ff"/>
        <path d="M 309.0498 330.4828 L 269.67333 246.57466 C 269.38957 245.97 269.14945 245.3458 268.9548 244.70687 L 228.94228 113.36133 C 228.32903 111.34827 229.4638 109.21922 231.47687 108.60597 C 233.39238 108.02243 235.43274 109.02112 236.14698 110.89183 L 274.98038 212.60252 C 275.33656 213.53542 275.79154 214.42753 276.33753 215.26363 L 306.83065 261.95874 C 306.93695 262.12153 307.04664 262.28208 307.15963 262.4403 L 342.0447 311.2886 C 345.73394 316.45453 345.48565 323.4562 341.43973 328.34783 L 337.92566 332.5964 C 335.7549 335.22094 332.7018 336.9641 329.3382 337.49948 L 323.9242 338.3612 C 317.76467 339.34156 311.69946 336.12906 309.0498 330.4828 Z" stroke="black" stroke-linecap="round" stroke-linejoin="round" stroke-width="6"/>
      </g>
      <g id="Graphic_45">
        <path d="M 304.27603 191.5586 L 333.57063 209.2818 C 334.30204 209.7243 334.53625 210.67595 334.09375 211.40736 C 333.676 212.09783 332.7979 212.3515 332.07632 211.99015 L 315.77825 203.82846 C 314.80595 203.34156 313.62303 203.73505 313.13613 204.70734 C 312.68747 205.60327 312.98323 206.69326 313.8232 207.23953 L 338.14563 223.05716 C 338.8862 223.53877 339.0961 224.52952 338.6145 225.27008 C 338.3021 225.75045 337.7566 226.027 337.18445 225.99507 L 331.19127 225.6605 C 331.19127 225.6605 312.03248 214.6491 306.80366 208.92924 C 301.57484 203.2094 302.0003 198.12486 302.0003 198.12486 L 301.20224 193.6705 C 301.00292 192.55797 301.74323 191.4945 302.85577 191.29517 C 303.34547 191.20743 303.85037 191.30108 304.27603 191.5586 Z" fill="#2cc8ff"/>
        <path d="M 304.27603 191.5586 L 333.57063 209.2818 C 334.30204 209.7243 334.53625 210.67595 334.09375 211.40736 C 333.676 212.09783 332.7979 212.3515 332.07632 211.99015 L 315.77825 203.82846 C 314.80595 203.34156 313.62303 203.73505 313.13613 204.70734 C 312.68747 205.60327 312.98323 206.69326 313.8232 207.23953 L 338.14563 223.05716 C 338.8862 223.53877 339.0961 224.52952 338.6145 225.27008 C 338.3021 225.75045 337.7566 226.027 337.18445 225.99507 L 331.19127 225.6605 C 331.19127 225.6605 312.03248 214.6491 306.80366 208.92924 C 301.57484 203.2094 302.0003 198.12486 302.0003 198.12486 L 301.20224 193.6705 C 301.00292 192.55797 301.74323 191.4945 302.85577 191.29517 C 303.34547 191.20743 303.85037 191.30108 304.27603 191.5586 Z" stroke="black" stroke-linecap="round" stroke-linejoin="round" stroke-width="3"/>
      </g>
      <g id="Graphic_46">
        <path d="M 206.05438 223.67482 L 206.01038 229.9152 C 205.99732 231.76729 205.6169 233.59838 204.89113 235.3024 L 203.0492 239.62704 C 202.5776 240.7343 201.29768 241.24963 200.1904 240.77803 C 199.88303 240.6471 199.60987 240.44727 199.39204 240.19395 L 197.55473 238.05734 C 197.2569 237.711 196.94231 237.37945 196.61208 237.06387 L 194.18402 234.74356 C 192.31 232.9527 191.21288 230.49843 191.1282 227.9077 L 191.12355 227.76507 C 191.04594 225.39048 192.46894 223.2233 194.67873 222.35063 L 196.84627 221.49465 C 197.85423 221.0966 198.905 220.81694 199.97746 220.66127 L 202.2226 220.33538 C 204.05387 220.06957 205.7539 221.33862 206.0197 223.1699 C 206.04398 223.3371 206.05557 223.50588 206.05438 223.67482 Z" fill="#2cc8ff"/>
        <path d="M 206.05438 223.67482 L 206.01038 229.9152 C 205.99732 231.76729 205.6169 233.59838 204.89113 235.3024 L 203.0492 239.62704 C 202.5776 240.7343 201.29768 241.24963 200.1904 240.77803 C 199.88303 240.6471 199.60987 240.44727 199.39204 240.19395 L 197.55473 238.05734 C 197.2569 237.711 196.94231 237.37945 196.61208 237.06387 L 194.18402 234.74356 C 192.31 232.9527 191.21288 230.49843 191.1282 227.9077 L 191.12355 227.76507 C 191.04594 225.39048 192.46894 223.2233 194.67873 222.35063 L 196.84627 221.49465 C 197.85423 221.0966 198.905 220.81694 199.97746 220.66127 L 202.2226 220.33538 C 204.05387 220.06957 205.7539 221.33862 206.0197 223.1699 C 206.04398 223.3371 206.05557 223.50588 206.05438 223.67482 Z" stroke="black" stroke-linecap="round" stroke-linejoin="round" stroke-width="3"/>
      </g>
      <g id="Graphic_48">
        <path d="M 273.70946 292.78017 L 279.7036 301.0353 C 280.4351 302.04274 281.02896 303.14323 281.46946 304.3077 L 283.37648 309.34894 C 283.64638 310.06242 283.2868 310.8596 282.5733 311.1295 C 282.18958 311.27467 281.7612 311.24173 281.40418 311.03963 L 278.48596 309.3877 C 278.2158 309.23477 277.94062 309.09086 277.6609 308.95623 L 273.4115 306.91096 C 271.42462 305.95465 269.69172 304.54254 268.35396 302.78965 L 266.36096 300.1782 C 265.38317 298.897 265.32745 297.13605 266.2223 295.79558 L 266.24452 295.7623 C 267.21713 294.30536 268.47164 293.05792 269.93407 292.09357 L 269.93407 292.09357 C 271.17368 291.27614 272.83702 291.57864 273.70946 292.78017 Z" fill="#2cc8ff"/>
        <path d="M 273.70946 292.78017 L 279.7036 301.0353 C 280.4351 302.04274 281.02896 303.14323 281.46946 304.3077 L 283.37648 309.34894 C 283.64638 310.06242 283.2868 310.8596 282.5733 311.1295 C 282.18958 311.27467 281.7612 311.24173 281.40418 311.03963 L 278.48596 309.3877 C 278.2158 309.23477 277.94062 309.09086 277.6609 308.95623 L 273.4115 306.91096 C 271.42462 305.95465 269.69172 304.54254 268.35396 302.78965 L 266.36096 300.1782 C 265.38317 298.897 265.32745 297.13605 266.2223 295.79558 L 266.24452 295.7623 C 267.21713 294.30536 268.47164 293.05792 269.93407 292.09357 L 269.93407 292.09357 C 271.17368 291.27614 272.83702 291.57864 273.70946 292.78017 Z" stroke="black" stroke-linecap="round" stroke-linejoin="round" stroke-width="3"/>
      </g>
      <g id="Graphic_49">
        <path d="M 242.48005 153.35574 L 243.54355 163.50198 C 243.67334 164.74018 243.63738 165.99016 243.43664 167.21886 L 242.56755 172.53822 C 242.44454 173.29107 241.73453 173.80166 240.98168 173.67866 C 240.5768 173.6125 240.22227 173.3698 240.01413 173.01626 L 238.31285 170.12654 C 238.15535 169.859 237.989 169.5968 237.81406 169.34033 L 235.15662 165.44439 C 233.91408 163.62275 233.1194 161.53338 232.8373 159.34645 L 232.41704 156.08838 C 232.21085 154.4899 233.04307 152.93704 234.48827 152.22358 L 234.52414 152.20588 C 236.09492 151.43043 237.80508 150.97737 239.55376 150.87343 L 239.55376 150.87343 C 241.036 150.78532 242.32525 151.87896 242.48005 153.35574 Z" fill="#2cc8ff"/>
        <path d="M 242.48005 153.35574 L 243.54355 163.50198 C 243.67334 164.74018 243.63738 165.99016 243.43664 167.21886 L 242.56755 172.53822 C 242.44454 173.29107 241.73453 173.80166 240.98168 173.67866 C 240.5768 173.6125 240.22227 173.3698 240.01413 173.01626 L 238.31285 170.12654 C 238.15535 169.859 237.989 169.5968 237.81406 169.34033 L 235.15662 165.44439 C 233.91408 163.62275 233.1194 161.53338 232.8373 159.34645 L 232.41704 156.08838 C 232.21085 154.4899 233.04307 152.93704 234.48827 152.22358 L 234.52414 152.20588 C 236.09492 151.43043 237.80508 150.97737 239.55376 150.87343 L 239.55376 150.87343 C 241.036 150.78532 242.32525 151.87896 242.48005 153.35574 Z" stroke="black" stroke-linecap="round" stroke-linejoin="round" stroke-width="3"/>
      </g>
      <g id="Graphic_50">
        <path d="M 347.30853 273.13592 L 345.8991 283.9252 C 345.76255 284.9706 345.50833 285.99723 345.1413 286.98557 L 343.25542 292.06388 C 343.0389 292.64695 342.3907 292.9441 341.8076 292.72757 C 341.45157 292.59534 341.18615 292.29257 341.1017 291.92228 L 340.34995 288.62677 C 340.2914 288.3702 340.22566 288.1153 340.15276 287.8624 L 338.7072 282.8478 C 338.2004 281.08984 338.04312 279.2496 338.2442 277.43116 L 338.7166 273.15925 C 338.86424 271.82397 339.8322 270.72407 341.13788 270.4079 L 341.16908 270.40035 C 342.57753 270.0593 344.0476 270.06425 345.45374 270.4148 L 345.45374 270.4148 C 346.67353 270.7189 347.47137 271.88938 347.30853 273.13592 Z" fill="#2cc8ff"/>
        <path d="M 347.30853 273.13592 L 345.8991 283.9252 C 345.76255 284.9706 345.50833 285.99723 345.1413 286.98557 L 343.25542 292.06388 C 343.0389 292.64695 342.3907 292.9441 341.8076 292.72757 C 341.45157 292.59534 341.18615 292.29257 341.1017 291.92228 L 340.34995 288.62677 C 340.2914 288.3702 340.22566 288.1153 340.15276 287.8624 L 338.7072 282.8478 C 338.2004 281.08984 338.04312 279.2496 338.2442 277.43116 L 338.7166 273.15925 C 338.86424 271.82397 339.8322 270.72407 341.13788 270.4079 L 341.16908 270.40035 C 342.57753 270.0593 344.0476 270.06425 345.45374 270.4148 L 345.45374 270.4148 C 346.67353 270.7189 347.47137 271.88938 347.30853 273.13592 Z" stroke="black" stroke-linecap="round" stroke-linejoin="round" stroke-width="3"/>
      </g>
      <g id="Graphic_52">
        <path d="M 434.0039 378.9394 C 486.6667 431.24343 583.9772 448.4019 651.3531 417.26395 C 718.7293 386.12626 730.6565 318.4836 677.9933 266.17973 C 625.3305 213.87572 528.02 196.71725 460.6441 227.8552 C 393.26796 258.9929 381.34073 326.63556 434.0039 378.9394" fill="white"/>
        <path d="M 434.0039 378.9394 C 486.6667 431.24343 583.9772 448.4019 651.3531 417.26395 C 718.7293 386.12626 730.6565 318.4836 677.9933 266.17973 C 625.3305 213.87572 528.02 196.71725 460.6441 227.8552 C 393.26796 258.9929 381.34073 326.63556 434.0039 378.9394" stroke="black" stroke-linecap="round" stroke-linejoin="round" stroke-width="1"/>
      </g>
      <g id="Graphic_53">
        <path d="M 524.7939 344.14778 L 506.39344 379.24176 C 506.36763 379.291 506.341 379.3398 506.31357 379.3881 L 450.17876 478.28536 C 448.81564 480.6869 449.65743 483.73874 452.05896 485.1019 C 453.9094 486.1522 456.22184 485.9164 457.8222 484.5142 L 581.9785 375.7295 C 583.8331 374.1045 584.22615 371.37004 582.9043 369.28847 L 580.1836 365.00416 C 578.70327 362.67305 579.39296 359.58326 581.7241 358.10293 C 581.83575 358.032 581.9502 357.96554 582.0672 357.9037 L 588.5192 354.49195 C 589.3621 354.04626 589.68405 353.0017 589.23835 352.1588 C 588.87776 351.4769 588.10854 351.11695 587.35395 351.27703 L 579.38075 352.9685 C 576.99744 353.4741 574.5967 352.1883 573.69674 349.92427 L 570.6933 342.3683 C 570.0361 340.71497 568.5498 339.5354 566.79045 339.2708 L 555.2952 337.54212 C 553.4063 337.25807 551.8443 335.92264 551.27 334.10086 L 547.7405 322.90346 C 547.34816 321.6588 546.0211 320.96784 544.77645 321.36017 C 543.8772 321.64363 543.2325 322.43456 543.1362 323.3725 L 542.2535 331.97 C 542.07646 333.69464 541.01863 335.20446 539.45814 335.95982 L 527.04365 341.9691 C 526.0798 342.43568 525.29116 343.19937 524.7939 344.14778 Z" fill="#f26077"/>
        <path d="M 524.7939 344.14778 L 506.39344 379.24176 C 506.36763 379.291 506.341 379.3398 506.31357 379.3881 L 450.17876 478.28536 C 448.81564 480.6869 449.65743 483.73874 452.05896 485.1019 C 453.9094 486.1522 456.22184 485.9164 457.8222 484.5142 L 581.9785 375.7295 C 583.8331 374.1045 584.22615 371.37004 582.9043 369.28847 L 580.1836 365.00416 C 578.70327 362.67305 579.39296 359.58326 581.7241 358.10293 C 581.83575 358.032 581.9502 357.96554 582.0672 357.9037 L 588.5192 354.49195 C 589.3621 354.04626 589.68405 353.0017 589.23835 352.1588 C 588.87776 351.4769 588.10854 351.11695 587.35395 351.27703 L 579.38075 352.9685 C 576.99744 353.4741 574.5967 352.1883 573.69674 349.92427 L 570.6933 342.3683 C 570.0361 340.71497 568.5498 339.5354 566.79045 339.2708 L 555.2952 337.54212 C 553.4063 337.25807 551.8443 335.92264 551.27 334.10086 L 547.7405 322.90346 C 547.34816 321.6588 546.0211 320.96784 544.77645 321.36017 C 543.8772 321.64363 543.2325 322.43456 543.1362 323.3725 L 542.2535 331.97 C 542.07646 333.69464 541.01863 335.20446 539.45814 335.95982 L 527.04365 341.9691 C 526.0798 342.43568 525.29116 343.19937 524.7939 344.14778 Z" stroke="black" stroke-linecap="round" stroke-linejoin="round" stroke-width="5"/>
      </g>
      <g id="Graphic_54">
        <path d="M 550.18047 305.2784 L 455.8179 476.03307 C 454.48224 478.45 455.3588 481.49205 457.7757 482.8277 C 459.79714 483.9448 462.32064 483.532 463.8808 481.8291 L 595.6709 337.9791 C 597.5363 335.94298 597.39795 332.7802 595.36185 330.91477 C 595.2163 330.78142 595.06296 330.6568 594.9027 330.54158 L 557.47513 303.6369 C 555.2329 302.0251 552.1086 302.53613 550.4968 304.77835 C 550.3816 304.93864 550.27595 305.1056 550.18047 305.2784 Z" fill="#2cc8ff"/>
        <path d="M 550.18047 305.2784 L 455.8179 476.03307 C 454.48224 478.45 455.3588 481.49205 457.7757 482.8277 C 459.79714 483.9448 462.32064 483.532 463.8808 481.8291 L 595.6709 337.9791 C 597.5363 335.94298 597.39795 332.7802 595.36185 330.91477 C 595.2163 330.78142 595.06296 330.6568 594.9027 330.54158 L 557.47513 303.6369 C 555.2329 302.0251 552.1086 302.53613 550.4968 304.77835 C 550.3816 304.93864 550.27595 305.1056 550.18047 305.2784 Z" stroke="black" stroke-linecap="round" stroke-linejoin="round" stroke-width="5"/>
      </g>
      <g id="Graphic_55">
        <path d="M 521.3748 342.2511 L 460.53666 476.414 C 459.39623 478.92894 460.5105 481.8922 463.0254 483.03263 C 464.97633 483.9173 467.27406 483.46093 468.7388 481.89783 L 540.0732 405.7734 C 540.1816 405.6577 540.2844 405.537 540.3813 405.41155 L 572.7488 363.5203 C 573.97236 361.9367 574.13383 359.7761 573.15924 358.02825 L 571.059 354.26156 C 569.7142 351.84973 570.57916 348.80436 572.991 347.45955 C 573.10285 347.3972 573.21706 347.33913 573.3334 347.28553 L 582.6756 342.9804 C 583.746 342.48715 584.2139 341.21953 583.7206 340.1491 C 583.3192 339.2781 582.3861 338.78184 581.4395 338.93595 L 565.4579 341.5378 C 564.1203 341.75555 562.8594 340.84775 562.64164 339.51015 C 562.6085 339.3065 562.60115 339.09945 562.6198 338.89395 L 562.6198 338.89395 C 562.7791 337.13993 561.51134 335.57857 559.762 335.37426 L 552.1232 334.4821 C 549.98736 334.23267 548.2502 332.6456 547.8094 330.54093 L 544.3515 314.03225 C 544.0739 312.7069 542.77444 311.85756 541.4491 312.13516 C 540.3421 312.36704 539.53736 313.32606 539.5012 314.4565 L 538.95687 331.47368 C 538.8889 333.59826 537.48506 335.44763 535.45697 336.0843 L 524.43096 339.54557 C 523.0738 339.9716 521.9623 340.9556 521.3748 342.2511 Z" fill="lime"/>
        <path d="M 521.3748 342.2511 L 460.53666 476.414 C 459.39623 478.92894 460.5105 481.8922 463.0254 483.03263 C 464.97633 483.9173 467.27406 483.46093 468.7388 481.89783 L 540.0732 405.7734 C 540.1816 405.6577 540.2844 405.537 540.3813 405.41155 L 572.7488 363.5203 C 573.97236 361.9367 574.13383 359.7761 573.15924 358.02825 L 571.059 354.26156 C 569.7142 351.84973 570.57916 348.80436 572.991 347.45955 C 573.10285 347.3972 573.21706 347.33913 573.3334 347.28553 L 582.6756 342.9804 C 583.746 342.48715 584.2139 341.21953 583.7206 340.1491 C 583.3192 339.2781 582.3861 338.78184 581.4395 338.93595 L 565.4579 341.5378 C 564.1203 341.75555 562.8594 340.84775 562.64164 339.51015 C 562.6085 339.3065 562.60115 339.09945 562.6198 338.89395 L 562.6198 338.89395 C 562.7791 337.13993 561.51134 335.57857 559.762 335.37426 L 552.1232 334.4821 C 549.98736 334.23267 548.2502 332.6456 547.8094 330.54093 L 544.3515 314.03225 C 544.0739 312.7069 542.77444 311.85756 541.4491 312.13516 C 540.3421 312.36704 539.53736 313.32606 539.5012 314.4565 L 538.95687 331.47368 C 538.8889 333.59826 537.48506 335.44763 535.45697 336.0843 L 524.43096 339.54557 C 523.0738 339.9716 521.9623 340.9556 521.3748 342.2511 Z" stroke="black" stroke-linecap="round" stroke-linejoin="round" stroke-width="5"/>
      </g>
      <g id="Graphic_56">
        <path d="M 434.4224 378.6464 C 487.0852 430.9504 584.3957 448.10887 651.7716 416.9709 C 719.14776 385.83323 731.075 318.19056 678.4118 265.8867 C 625.749 213.5827 528.4385 196.42422 461.0626 227.56217 C 393.68645 258.69985 381.7592 326.34253 434.4224 378.6464" fill="#3aff33" fill-opacity=".699879"/>
        <path d="M 434.4224 378.6464 C 487.0852 430.9504 584.3957 448.10887 651.7716 416.9709 C 719.14776 385.83323 731.075 318.19056 678.4118 265.8867 C 625.749 213.5827 528.4385 196.42422 461.0626 227.56217 C 393.68645 258.69985 381.7592 326.34253 434.4224 378.6464" stroke="black" stroke-linecap="round" stroke-linejoin="round" stroke-width="9"/>
      </g>
      <g id="Graphic_58">
        <path d="M 632.5897 150.12951 L 590.76334 239.25818 C 590.393 240.0474 590.0971 240.8695 589.8797 241.71375 L 568.97005 322.894 C 568.4872 324.7687 569.6155 326.6799 571.4902 327.16276 C 573.2038 327.60413 574.97764 326.6991 575.626 325.0526 L 595.9522 273.43438 C 596.30024 272.55057 596.7373 271.70448 597.25666 270.90917 L 627.7009 224.28897 C 627.8666 224.03517 628.02406 223.77605 628.173 223.51202 L 657.7238 171.11958 C 659.4215 168.10964 659.946 164.57816 659.19634 161.20475 L 648.1081 111.30753 C 647.9803 110.73271 647.81646 110.16653 647.6174 109.61234 L 628.08294 55.22222 C 627.1654 52.6676 624.3507 51.340455 621.7961 52.25796 C 619.5384 53.068816 618.19595 55.391046 618.6199 57.752156 L 633.69545 141.70758 C 634.20795 144.56166 633.8216 147.50446 632.5897 150.12951 Z" fill="lime"/>
        <path d="M 632.5897 150.12951 L 590.76334 239.25818 C 590.393 240.0474 590.0971 240.8695 589.8797 241.71375 L 568.97005 322.894 C 568.4872 324.7687 569.6155 326.6799 571.4902 327.16276 C 573.2038 327.60413 574.97764 326.6991 575.626 325.0526 L 595.9522 273.43438 C 596.30024 272.55057 596.7373 271.70448 597.25666 270.90917 L 627.7009 224.28897 C 627.8666 224.03517 628.02406 223.77605 628.173 223.51202 L 657.7238 171.11958 C 659.4215 168.10964 659.946 164.57816 659.19634 161.20475 L 648.1081 111.30753 C 647.9803 110.73271 647.81646 110.16653 647.6174 109.61234 L 628.08294 55.22222 C 627.1654 52.6676 624.3507 51.340455 621.7961 52.25796 C 619.5384 53.068816 618.19595 55.391046 618.6199 57.752156 L 633.69545 141.70758 C 634.20795 144.56166 633.8216 147.50446 632.5897 150.12951 Z" stroke="black" stroke-linecap="round" stroke-linejoin="round" stroke-width="6"/>
      </g>
      <g id="Graphic_57">
        <path d="M 585.0829 370.6481 L 592.81905 376.58215 C 594.09385 377.56 595.92 377.31926 596.8978 376.04446 C 597.5756 375.16084 597.68945 373.9678 597.19104 372.97195 L 586.46304 351.53666 C 586.46304 351.53666 616.1475 347.34646 615.8366 347.03556 C 615.5257 346.72465 613.79314 346.4113 613.79314 346.4113 L 594.7923 341.7605 C 588.8914 340.31617 585.2786 334.36163 586.72296 328.4607 C 586.7345 328.41366 586.7463 328.3667 586.7584 328.31983 L 592.7163 305.2996 C 593.3376 302.89897 591.89516 300.4492 589.49454 299.8279 C 587.5696 299.32972 585.5462 300.15693 584.52164 301.861 L 584.52164 301.861 C 582.9903 304.40788 579.6842 305.23112 577.13734 303.69977 C 575.1905 302.5292 574.1885 300.2621 574.63336 298.03444 L 578.7432 277.45512 C 579.2571 274.8815 577.58746 272.37855 575.01386 271.8646 C 573.13766 271.4899 571.21974 272.27695 570.1476 273.86155 L 557.37264 292.7421 C 557.0809 293.17335 556.8201 293.62475 556.59224 294.0929 L 542.78646 322.46123 C 542.78646 322.46123 530.41697 321.77267 530.12494 322.0647 C 529.8329 322.3567 505.62 299.3119 505.62 299.3119 L 526.84726 332.80412 C 526.84726 332.80412 497.63484 352.06755 497.94575 352.37845 C 498.25665 352.68936 537.3533 345.64318 537.3533 345.64318 L 532.831 348.131 C 532.668 348.2207 532.4631 348.16125 532.3734 347.9982 C 532.29186 347.85 532.33286 347.6643 532.4692 347.5642 L 534.40504 346.1429 C 536.12074 344.88325 536.79566 342.6402 536.05994 340.6429 L 536.05994 340.6429 C 535.7206 339.72173 536.1923 338.6999 537.1135 338.36056 C 537.4794 338.22578 537.87944 338.21505 538.25204 338.33004 L 549.4792 341.7949 C 549.84145 341.90667 550.19766 342.0371 550.5464 342.18568 L 564.7717 348.2454 C 565.11366 348.39106 565.44805 348.554 565.77354 348.7335 L 573.02074 352.73097 C 574.7766 353.6995 576.23434 355.12955 577.2363 356.86655 L 578.5577 359.15735 C 578.7786 359.54023 578.9762 359.93607 579.1494 360.34272 L 581.6577 366.231 C 582.4001 367.97373 583.5799 369.4952 585.0829 370.6481 Z" fill="#00bfc0"/>
        <path d="M 585.0829 370.6481 L 592.81905 376.58215 C 594.09385 377.56 595.92 377.31926 596.8978 376.04446 C 597.5756 375.16084 597.68945 373.9678 597.19104 372.97195 L 586.46304 351.53666 C 586.46304 351.53666 616.1475 347.34646 615.8366 347.03556 C 615.5257 346.72465 613.79314 346.4113 613.79314 346.4113 L 594.7923 341.7605 C 588.8914 340.31617 585.2786 334.36163 586.72296 328.4607 C 586.7345 328.41366 586.7463 328.3667 586.7584 328.31983 L 592.7163 305.2996 C 593.3376 302.89897 591.89516 300.4492 589.49454 299.8279 C 587.5696 299.32972 585.5462 300.15693 584.52164 301.861 L 584.52164 301.861 C 582.9903 304.40788 579.6842 305.23112 577.13734 303.69977 C 575.1905 302.5292 574.1885 300.2621 574.63336 298.03444 L 578.7432 277.45512 C 579.2571 274.8815 577.58746 272.37855 575.01386 271.8646 C 573.13766 271.4899 571.21974 272.27695 570.1476 273.86155 L 557.37264 292.7421 C 557.0809 293.17335 556.8201 293.62475 556.59224 294.0929 L 542.78646 322.46123 C 542.78646 322.46123 530.41697 321.77267 530.12494 322.0647 C 529.8329 322.3567 505.62 299.3119 505.62 299.3119 L 526.84726 332.80412 C 526.84726 332.80412 497.63484 352.06755 497.94575 352.37845 C 498.25665 352.68936 537.3533 345.64318 537.3533 345.64318 L 532.831 348.131 C 532.668 348.2207 532.4631 348.16125 532.3734 347.9982 C 532.29186 347.85 532.33286 347.6643 532.4692 347.5642 L 534.40504 346.1429 C 536.12074 344.88325 536.79566 342.6402 536.05994 340.6429 L 536.05994 340.6429 C 535.7206 339.72173 536.1923 338.6999 537.1135 338.36056 C 537.4794 338.22578 537.87944 338.21505 538.25204 338.33004 L 549.4792 341.7949 C 549.84145 341.90667 550.19766 342.0371 550.5464 342.18568 L 564.7717 348.2454 C 565.11366 348.39106 565.44805 348.554 565.77354 348.7335 L 573.02074 352.73097 C 574.7766 353.6995 576.23434 355.12955 577.2363 356.86655 L 578.5577 359.15735 C 578.7786 359.54023 578.9762 359.93607 579.1494 360.34272 L 581.6577 366.231 C 582.4001 367.97373 583.5799 369.4952 585.0829 370.6481 Z" stroke="black" stroke-linecap="round" stroke-linejoin="round" stroke-width="5"/>
      </g>
      <g id="Graphic_59">
        <path d="M 664.8757 226.48162 L 641.1664 251.1829 C 640.57446 251.79963 640.5945 252.77947 641.2113 253.37144 C 641.7935 253.93026 642.7073 253.948 643.3108 253.41222 L 656.9411 241.31038 C 657.7543 240.58842 658.9987 240.66234 659.7207 241.47549 C 660.3859 242.22477 660.3824 243.35416 659.7124 244.09922 L 640.31264 265.67298 C 639.722 266.32985 639.7756 267.34118 640.4325 267.93185 C 640.8586 268.315 641.4571 268.44095 642.00145 268.26202 L 647.7038 266.3877 C 647.7038 266.3877 663.3598 250.79283 666.9301 243.91456 C 670.5003 237.0363 668.7734 232.23512 668.7734 232.23512 L 668.3914 227.726 C 668.296 226.59978 667.3056 225.76415 666.1794 225.85957 C 665.6837 225.90156 665.22024 226.1227 664.8757 226.48162 Z" fill="#40ff40"/>
        <path d="M 664.8757 226.48162 L 641.1664 251.1829 C 640.57446 251.79963 640.5945 252.77947 641.2113 253.37144 C 641.7935 253.93026 642.7073 253.948 643.3108 253.41222 L 656.9411 241.31038 C 657.7543 240.58842 658.9987 240.66234 659.7207 241.47549 C 660.3859 242.22477 660.3824 243.35416 659.7124 244.09922 L 640.31264 265.67298 C 639.722 266.32985 639.7756 267.34118 640.4325 267.93185 C 640.8586 268.315 641.4571 268.44095 642.00145 268.26202 L 647.7038 266.3877 C 647.7038 266.3877 663.3598 250.79283 666.9301 243.91456 C 670.5003 237.0363 668.7734 232.23512 668.7734 232.23512 L 668.3914 227.726 C 668.296 226.59978 667.3056 225.76415 666.1794 225.85957 C 665.6837 225.90156 665.22024 226.1227 664.8757 226.48162 Z" stroke="black" stroke-linecap="round" stroke-linejoin="round" stroke-width="3"/>
      </g>
      <g id="Graphic_60">
        <path d="M 599.3855 26.343145 L 603.8292 30.72464 C 605.14805 32.025036 606.71184 33.05081 608.42996 33.742544 L 612.7904 35.498094 C 613.9068 35.94758 615.1762 35.406916 615.6257 34.290485 C 615.7505 33.980564 615.80234 33.646104 615.77725 33.31295 L 615.5656 30.502967 C 615.5313 30.047476 615.5193 29.59058 615.5297 29.133916 L 615.60586 25.77631 C 615.66466 23.184852 614.705 20.673646 612.93296 18.781843 L 612.8354 18.677695 C 611.2112 16.94373 608.67254 16.41751 606.4929 17.363004 L 604.355 18.29042 C 603.3608 18.72169 602.42 19.266936 601.5516 19.915208 L 599.7336 21.272324 C 598.25074 22.379273 597.946 24.478733 599.05295 25.9616 C 599.154 26.096983 599.2652 26.224528 599.3855 26.343145 Z" fill="lime"/>
        <path d="M 599.3855 26.343145 L 603.8292 30.72464 C 605.14805 32.025036 606.71184 33.05081 608.42996 33.742544 L 612.7904 35.498094 C 613.9068 35.94758 615.1762 35.406916 615.6257 34.290485 C 615.7505 33.980564 615.80234 33.646104 615.77725 33.31295 L 615.5656 30.502967 C 615.5313 30.047476 615.5193 29.59058 615.5297 29.133916 L 615.60586 25.77631 C 615.66466 23.184852 614.705 20.673646 612.93296 18.781843 L 612.8354 18.677695 C 611.2112 16.94373 608.67254 16.41751 606.4929 17.363004 L 604.355 18.29042 C 603.3608 18.72169 602.42 19.266936 601.5516 19.915208 L 599.7336 21.272324 C 598.25074 22.379273 597.946 24.478733 599.05295 25.9616 C 599.154 26.096983 599.2652 26.224528 599.3855 26.343145 Z" stroke="black" stroke-linecap="round" stroke-linejoin="round" stroke-width="3"/>
      </g>
      <g id="Graphic_61">
        <path d="M 551.6889 266.0638 L 552.7524 255.91755 C 552.8822 254.67934 552.84624 253.42936 552.6455 252.20066 L 551.7764 246.8813 C 551.6534 246.12845 550.9434 245.61786 550.19053 245.74087 C 549.78565 245.80702 549.4311 246.04973 549.223 246.40327 L 547.5217 249.293 C 547.3642 249.5605 547.19784 249.82273 547.0229 250.0792 L 544.3655 253.97514 C 543.1229 255.79677 542.32825 257.88614 542.04615 260.07307 L 541.6259 263.33115 C 541.4197 264.9296 542.2519 266.4825 543.6971 267.19594 L 543.733 267.21365 C 545.3038 267.9891 547.01394 268.44215 548.7626 268.5461 L 548.7626 268.5461 C 550.24486 268.6342 551.5341 267.54056 551.6889 266.0638 Z" fill="#2cc8ff"/>
        <path d="M 551.6889 266.0638 L 552.7524 255.91755 C 552.8822 254.67934 552.84624 253.42936 552.6455 252.20066 L 551.7764 246.8813 C 551.6534 246.12845 550.9434 245.61786 550.19053 245.74087 C 549.78565 245.80702 549.4311 246.04973 549.223 246.40327 L 547.5217 249.293 C 547.3642 249.5605 547.19784 249.82273 547.0229 250.0792 L 544.3655 253.97514 C 543.1229 255.79677 542.32825 257.88614 542.04615 260.07307 L 541.6259 263.33115 C 541.4197 264.9296 542.2519 266.4825 543.6971 267.19594 L 543.733 267.21365 C 545.3038 267.9891 547.01394 268.44215 548.7626 268.5461 L 548.7626 268.5461 C 550.24486 268.6342 551.5341 267.54056 551.6889 266.0638 Z" stroke="black" stroke-linecap="round" stroke-linejoin="round" stroke-width="3"/>
      </g>
      <g id="Graphic_62">
        <path d="M 688.2046 61.03946 L 694.6271 68.96595 C 695.4108 69.93327 696.3201 70.791715 697.3309 71.51858 L 701.7068 74.6654 C 702.3261 75.11077 703.1892 74.96975 703.6346 74.35043 C 703.8741 74.01736 703.9532 73.59505 703.85035 73.19789 L 703.01 69.95156 C 702.9322 69.65102 702.8644 69.34797 702.8068 69.04293 L 701.931 64.40898 C 701.5215 62.242286 700.60605 60.20295 699.2591 58.45709 L 697.2525 55.85611 C 696.268 54.58003 694.5815 54.07045 693.0551 54.58787 L 693.0172 54.600716 C 691.3582 55.1631 689.8285 56.05201 688.5185 57.21501 L 688.5185 57.21501 C 687.4081 58.20082 687.2698 59.88577 688.2046 61.03946 Z" fill="#40ff40"/>
        <path d="M 688.2046 61.03946 L 694.6271 68.96595 C 695.4108 69.93327 696.3201 70.791715 697.3309 71.51858 L 701.7068 74.6654 C 702.3261 75.11077 703.1892 74.96975 703.6346 74.35043 C 703.8741 74.01736 703.9532 73.59505 703.85035 73.19789 L 703.01 69.95156 C 702.9322 69.65102 702.8644 69.34797 702.8068 69.04293 L 701.931 64.40898 C 701.5215 62.242286 700.60605 60.20295 699.2591 58.45709 L 697.2525 55.85611 C 696.268 54.58003 694.5815 54.07045 693.0551 54.58787 L 693.0172 54.600716 C 691.3582 55.1631 689.8285 56.05201 688.5185 57.21501 L 688.5185 57.21501 C 687.4081 58.20082 687.2698 59.88577 688.2046 61.03946 Z" stroke="black" stroke-linecap="round" stroke-linejoin="round" stroke-width="3"/>
      </g>
      <g id="Graphic_63">
        <path d="M 593.6105 311.86732 L 602.2496 305.2521 C 603.08666 304.6111 603.84864 303.87764 604.52105 303.0656 L 607.97606 298.89324 C 608.37275 298.4142 608.306 297.70425 607.8269 297.30756 C 607.5344 297.06532 607.1395 296.98685 606.77656 297.09885 L 603.5467 298.09558 C 603.2952 298.1732 603.0416 298.2437 602.78615 298.307 L 597.72056 299.5624 C 595.94475 300.0025 594.2724 300.7864 592.79814 301.86976 L 589.33475 304.4148 C 588.2522 305.2103 587.7836 306.59854 588.16266 307.8874 L 588.1717 307.9182 C 588.5806 309.30846 589.3199 310.5791 590.32656 311.62158 L 590.32656 311.62158 C 591.1998 312.5259 592.6124 312.6316 593.6105 311.86732 Z" fill="#2cc8ff"/>
        <path d="M 593.6105 311.86732 L 602.2496 305.2521 C 603.08666 304.6111 603.84864 303.87764 604.52105 303.0656 L 607.97606 298.89324 C 608.37275 298.4142 608.306 297.70425 607.8269 297.30756 C 607.5344 297.06532 607.1395 296.98685 606.77656 297.09885 L 603.5467 298.09558 C 603.2952 298.1732 603.0416 298.2437 602.78615 298.307 L 597.72056 299.5624 C 595.94475 300.0025 594.2724 300.7864 592.79814 301.86976 L 589.33475 304.4148 C 588.2522 305.2103 587.7836 306.59854 588.16266 307.8874 L 588.1717 307.9182 C 588.5806 309.30846 589.3199 310.5791 590.32656 311.62158 L 590.32656 311.62158 C 591.1998 312.5259 592.6124 312.6316 593.6105 311.86732 Z" stroke="black" stroke-linecap="round" stroke-linejoin="round" stroke-width="3"/>
      </g>
      <g id="Graphic_64">
        <path d="M 651.9631 27.270282 L 654.2734 29.062368 C 656.02165 30.418495 658.0664 31.34095 660.2401 31.754098 L 664.45026 32.55433 C 666.0115 32.851073 667.51765 31.826014 667.8144 30.264797 C 667.8309 30.177798 667.8434 30.09008 667.8519 30.00193 L 668.0767 27.65531 C 668.12746 27.12566 668.20836 26.599333 668.319 26.078892 L 669.0168 22.796948 C 669.4554 20.734437 668.7389 18.596501 667.1462 17.214691 L 667.1462 17.214691 C 665.5787 15.854836 663.3539 15.554498 661.482 16.450066 L 656.97066 18.60838 C 656.3094 18.924738 655.674 19.292541 655.0704 19.708397 L 652.1194 21.741305 C 650.56106 22.814846 650.16804 24.948415 651.2416 26.506763 C 651.4414 26.796846 651.6848 27.05438 651.9631 27.270282 Z" fill="#40ff40"/>
        <path d="M 651.9631 27.270282 L 654.2734 29.062368 C 656.02165 30.418495 658.0664 31.34095 660.2401 31.754098 L 664.45026 32.55433 C 666.0115 32.851073 667.51765 31.826014 667.8144 30.264797 C 667.8309 30.177798 667.8434 30.09008 667.8519 30.00193 L 668.0767 27.65531 C 668.12746 27.12566 668.20836 26.599333 668.319 26.078892 L 669.0168 22.796948 C 669.4554 20.734437 668.7389 18.596501 667.1462 17.214691 L 667.1462 17.214691 C 665.5787 15.854836 663.3539 15.554498 661.482 16.450066 L 656.97066 18.60838 C 656.3094 18.924738 655.674 19.292541 655.0704 19.708397 L 652.1194 21.741305 C 650.56106 22.814846 650.16804 24.948415 651.2416 26.506763 C 651.4414 26.796846 651.6848 27.05438 651.9631 27.270282 Z" stroke="black" stroke-linecap="round" stroke-linejoin="round" stroke-width="3"/>
      </g>
      <g id="Graphic_65">
        <path d="M 149.48348 192.7612 L 146.32519 198.14352 C 145.38783 199.74096 144.14282 201.13652 142.66228 202.24936 L 138.90481 205.07365 C 137.94276 205.79677 136.57665 205.60308 135.85353 204.64103 C 135.65279 204.37396 135.51614 204.06432 135.45415 203.73602 L 134.9313 200.967 C 134.84655 200.51816 134.73988 200.07373 134.61168 199.6353 L 133.66908 196.41183 C 132.94156 193.9239 133.21856 191.24988 134.4406 188.9639 L 134.50788 188.83805 C 135.62796 186.74279 137.94391 185.57745 140.29398 185.9266 L 142.5991 186.26907 C 143.67105 186.42833 144.72087 186.7115 145.72748 187.11293 L 147.83478 187.95327 C 149.55361 188.6387 150.39135 190.58776 149.70592 192.3066 C 149.64334 192.46352 149.56898 192.6155 149.48348 192.7612 Z" fill="#2cc8ff"/>
        <path d="M 149.48348 192.7612 L 146.32519 198.14352 C 145.38783 199.74096 144.14282 201.13652 142.66228 202.24936 L 138.90481 205.07365 C 137.94276 205.79677 136.57665 205.60308 135.85353 204.64103 C 135.65279 204.37396 135.51614 204.06432 135.45415 203.73602 L 134.9313 200.967 C 134.84655 200.51816 134.73988 200.07373 134.61168 199.6353 L 133.66908 196.41183 C 132.94156 193.9239 133.21856 191.24988 134.4406 188.9639 L 134.50788 188.83805 C 135.62796 186.74279 137.94391 185.57745 140.29398 185.9266 L 142.5991 186.26907 C 143.67105 186.42833 144.72087 186.7115 145.72748 187.11293 L 147.83478 187.95327 C 149.55361 188.6387 150.39135 190.58776 149.70592 192.3066 C 149.64334 192.46352 149.56898 192.6155 149.48348 192.7612 Z" stroke="black" stroke-linecap="round" stroke-linejoin="round" stroke-width="3"/>
      </g>
      <g id="Graphic_66">
        <path d="M 462.15014 155.76867 L 458.99185 161.15099 C 458.0545 162.74842 456.8095 164.14398 455.32895 165.25683 L 451.5715 168.08111 C 450.6094 168.80424 449.2433 168.61055 448.5202 167.6485 C 448.31945 167.38143 448.1828 167.07178 448.1208 166.7435 L 447.59797 163.97448 C 447.5132 163.52563 447.40655 163.0812 447.27835 162.64277 L 446.33574 159.4193 C 445.6082 156.93136 445.8852 154.25734 447.10727 151.97136 L 447.17454 151.84551 C 448.29463 149.75025 450.6106 148.58491 452.96064 148.93406 L 455.2658 149.27654 C 456.3377 149.4358 457.38753 149.71898 458.39415 150.1204 L 460.50144 150.96074 C 462.2203 151.64617 463.058 153.59522 462.3726 155.31406 C 462.31 155.47099 462.23564 155.62296 462.15014 155.76867 Z" fill="#2cc8ff"/>
        <path d="M 462.15014 155.76867 L 458.99185 161.15099 C 458.0545 162.74842 456.8095 164.14398 455.32895 165.25683 L 451.5715 168.08111 C 450.6094 168.80424 449.2433 168.61055 448.5202 167.6485 C 448.31945 167.38143 448.1828 167.07178 448.1208 166.7435 L 447.59797 163.97448 C 447.5132 163.52563 447.40655 163.0812 447.27835 162.64277 L 446.33574 159.4193 C 445.6082 156.93136 445.8852 154.25734 447.10727 151.97136 L 447.17454 151.84551 C 448.29463 149.75025 450.6106 148.58491 452.96064 148.93406 L 455.2658 149.27654 C 456.3377 149.4358 457.38753 149.71898 458.39415 150.1204 L 460.50144 150.96074 C 462.2203 151.64617 463.058 153.59522 462.3726 155.31406 C 462.31 155.47099 462.23564 155.62296 462.15014 155.76867 Z" stroke="black" stroke-linecap="round" stroke-linejoin="round" stroke-width="3"/>
      </g>
      <g id="Graphic_67">
        <path d="M 198.33137 120.67284 L 198.28737 126.9132 C 198.27431 128.7653 197.89388 130.5964 197.16812 132.30042 L 195.3262 136.62506 C 194.8546 137.73233 193.57467 138.24764 192.4674 137.77604 C 192.16003 137.64513 191.88686 137.44529 191.66903 137.19197 L 189.83173 135.05536 C 189.5339 134.70902 189.2193 134.37747 188.88907 134.06188 L 186.46101 131.74157 C 184.587 129.95071 183.48988 127.49645 183.4052 124.90571 L 183.40054 124.76308 C 183.32294 122.38849 184.74594 120.2213 186.95573 119.34864 L 189.12327 118.49267 C 190.13122 118.09462 191.18199 117.81495 192.25445 117.65928 L 194.4996 117.3334 C 196.33087 117.06758 198.0309 118.33664 198.2967 120.16791 C 198.32098 120.33511 198.33256 120.5039 198.33137 120.67284 Z" fill="#2cc8ff"/>
        <path d="M 198.33137 120.67284 L 198.28737 126.9132 C 198.27431 128.7653 197.89388 130.5964 197.16812 132.30042 L 195.3262 136.62506 C 194.8546 137.73233 193.57467 138.24764 192.4674 137.77604 C 192.16003 137.64513 191.88686 137.44529 191.66903 137.19197 L 189.83173 135.05536 C 189.5339 134.70902 189.2193 134.37747 188.88907 134.06188 L 186.46101 131.74157 C 184.587 129.95071 183.48988 127.49645 183.4052 124.90571 L 183.40054 124.76308 C 183.32294 122.38849 184.74594 120.2213 186.95573 119.34864 L 189.12327 118.49267 C 190.13122 118.09462 191.18199 117.81495 192.25445 117.65928 L 194.4996 117.3334 C 196.33087 117.06758 198.0309 118.33664 198.2967 120.16791 C 198.32098 120.33511 198.33256 120.5039 198.33137 120.67284 Z" stroke="black" stroke-linecap="round" stroke-linejoin="round" stroke-width="3"/>
      </g>
      <g id="Graphic_68">
        <path d="M 224.14413 33.65756 L 220.98584 39.03988 C 220.04848 40.63731 218.80347 42.03287 217.32293 43.145715 L 213.56547 45.970003 C 212.60341 46.69313 211.2373 46.49944 210.51418 45.537384 C 210.31344 45.27032 210.1768 44.960674 210.1148 44.63238 L 209.59196 41.863366 C 209.5072 41.414517 209.40054 40.970084 209.27234 40.531663 L 208.32973 37.308185 C 207.60221 34.820247 207.8792 32.146234 209.10126 29.86025 L 209.16853 29.7344 C 210.28862 27.639142 212.60457 26.473802 214.95463 26.822952 L 217.25976 27.165426 C 218.3317 27.324684 219.38152 27.607866 220.38814 28.009283 L 222.49543 28.849627 C 224.21427 29.535063 225.052 31.484113 224.36657 33.20295 C 224.304 33.35988 224.22963 33.511848 224.14413 33.65756 Z" fill="#2cc8ff"/>
        <path d="M 224.14413 33.65756 L 220.98584 39.03988 C 220.04848 40.63731 218.80347 42.03287 217.32293 43.145715 L 213.56547 45.970003 C 212.60341 46.69313 211.2373 46.49944 210.51418 45.537384 C 210.31344 45.27032 210.1768 44.960674 210.1148 44.63238 L 209.59196 41.863366 C 209.5072 41.414517 209.40054 40.970084 209.27234 40.531663 L 208.32973 37.308185 C 207.60221 34.820247 207.8792 32.146234 209.10126 29.86025 L 209.16853 29.7344 C 210.28862 27.639142 212.60457 26.473802 214.95463 26.822952 L 217.25976 27.165426 C 218.3317 27.324684 219.38152 27.607866 220.38814 28.009283 L 222.49543 28.849627 C 224.21427 29.535063 225.052 31.484113 224.36657 33.20295 C 224.304 33.35988 224.22963 33.511848 224.14413 33.65756 Z" stroke="black" stroke-linecap="round" stroke-linejoin="round" stroke-width="3"/>
      </g>
      <g id="Graphic_69">
        <path d="M 373.5187 84.04806 L 375.82895 85.84015 C 377.5772 87.19627 379.622 88.11873 381.79563 88.53188 L 386.0058 89.33211 C 387.56703 89.62885 389.0732 88.60379 389.36995 87.04257 C 389.3865 86.95558 389.399 86.86786 389.40744 86.77971 L 389.63227 84.43309 C 389.683 83.90344 389.7639 83.37711 389.87457 82.85667 L 390.5724 79.57473 C 391.01093 77.51221 390.2945 75.37428 388.70173 73.99247 L 388.70173 73.99247 C 387.1343 72.63261 384.90943 72.33228 383.0375 73.22784 L 378.5262 75.38616 C 377.86496 75.70252 377.22958 76.07032 376.62592 76.486175 L 373.67496 78.51908 C 372.1166 79.59262 371.7236 81.72619 372.79714 83.28454 C 372.997 83.57462 373.24035 83.83216 373.5187 84.04806 Z" fill="#40ff40"/>
        <path d="M 373.5187 84.04806 L 375.82895 85.84015 C 377.5772 87.19627 379.622 88.11873 381.79563 88.53188 L 386.0058 89.33211 C 387.56703 89.62885 389.0732 88.60379 389.36995 87.04257 C 389.3865 86.95558 389.399 86.86786 389.40744 86.77971 L 389.63227 84.43309 C 389.683 83.90344 389.7639 83.37711 389.87457 82.85667 L 390.5724 79.57473 C 391.01093 77.51221 390.2945 75.37428 388.70173 73.99247 L 388.70173 73.99247 C 387.1343 72.63261 384.90943 72.33228 383.0375 73.22784 L 378.5262 75.38616 C 377.86496 75.70252 377.22958 76.07032 376.62592 76.486175 L 373.67496 78.51908 C 372.1166 79.59262 371.7236 81.72619 372.79714 83.28454 C 372.997 83.57462 373.24035 83.83216 373.5187 84.04806 Z" stroke="black" stroke-linecap="round" stroke-linejoin="round" stroke-width="3"/>
      </g>
      <g id="Graphic_70">
        <path d="M 318.29816 146.89939 L 319.40286 149.60651 C 320.23883 151.65508 321.54843 153.47634 323.2243 154.92096 L 326.4703 157.71907 C 327.674 158.75667 329.4909 158.62203 330.5285 157.41834 C 330.5863 157.35127 330.641 157.28156 330.6924 157.20944 L 332.0604 155.28962 C 332.3692 154.8563 332.7024 154.44094 333.05846 154.04556 L 335.30376 151.55222 C 336.7148 149.9853 337.1633 147.77558 336.47486 145.78252 L 336.47486 145.78252 C 335.79733 143.82112 334.02072 142.4486 331.9518 142.28822 L 326.96575 141.90172 C 326.2349 141.84507 325.50075 141.84591 324.77005 141.90422 L 321.198 142.1893 C 319.31165 142.33983 317.9045 143.99105 318.05504 145.87739 C 318.08306 146.22853 318.16507 146.57324 318.29816 146.89939 Z" fill="#40ff40"/>
        <path d="M 318.29816 146.89939 L 319.40286 149.60651 C 320.23883 151.65508 321.54843 153.47634 323.2243 154.92096 L 326.4703 157.71907 C 327.674 158.75667 329.4909 158.62203 330.5285 157.41834 C 330.5863 157.35127 330.641 157.28156 330.6924 157.20944 L 332.0604 155.28962 C 332.3692 154.8563 332.7024 154.44094 333.05846 154.04556 L 335.30376 151.55222 C 336.7148 149.9853 337.1633 147.77558 336.47486 145.78252 L 336.47486 145.78252 C 335.79733 143.82112 334.02072 142.4486 331.9518 142.28822 L 326.96575 141.90172 C 326.2349 141.84507 325.50075 141.84591 324.77005 141.90422 L 321.198 142.1893 C 319.31165 142.33983 317.9045 143.99105 318.05504 145.87739 C 318.08306 146.22853 318.16507 146.57324 318.29816 146.89939 Z" stroke="black" stroke-linecap="round" stroke-linejoin="round" stroke-width="3"/>
      </g>
      <g id="Graphic_71">
        <path d="M 702.2046 127.98437 L 708.6271 135.91086 C 709.4108 136.87817 710.3201 137.73662 711.3309 138.46349 L 715.7068 141.6103 C 716.3261 142.05567 717.1892 141.91466 717.6346 141.29534 C 717.8741 140.96226 717.9532 140.53995 717.85035 140.14279 L 717.01 136.89646 C 716.9322 136.59592 716.8644 136.29288 716.8068 135.98783 L 715.931 131.35389 C 715.5215 129.18719 714.60605 127.14786 713.2591 125.40199 L 711.2525 122.80102 C 710.268 121.52493 708.5815 121.01535 707.0551 121.53278 L 707.0172 121.54562 C 705.3582 122.108 703.8285 122.99691 702.5185 124.15992 L 702.5185 124.15992 C 701.4081 125.14572 701.2698 126.83068 702.2046 127.98437 Z" fill="#40ff40"/>
        <path d="M 702.2046 127.98437 L 708.6271 135.91086 C 709.4108 136.87817 710.3201 137.73662 711.3309 138.46349 L 715.7068 141.6103 C 716.3261 142.05567 717.1892 141.91466 717.6346 141.29534 C 717.8741 140.96226 717.9532 140.53995 717.85035 140.14279 L 717.01 136.89646 C 716.9322 136.59592 716.8644 136.29288 716.8068 135.98783 L 715.931 131.35389 C 715.5215 129.18719 714.60605 127.14786 713.2591 125.40199 L 711.2525 122.80102 C 710.268 121.52493 708.5815 121.01535 707.0551 121.53278 L 707.0172 121.54562 C 705.3582 122.108 703.8285 122.99691 702.5185 124.15992 L 702.5185 124.15992 C 701.4081 125.14572 701.2698 126.83068 702.2046 127.98437 Z" stroke="black" stroke-linecap="round" stroke-linejoin="round" stroke-width="3"/>
      </g>
      <g id="Graphic_72">
        <path d="M 377.31374 175.97434 L 378.9125 186.0501 C 379.1076 187.27971 379.46586 188.4778 379.9778 189.61267 L 382.194 194.52584 C 382.50767 195.2212 383.32565 195.53063 384.021 195.21696 C 384.39497 195.04827 384.6746 194.72207 384.78414 194.32672 L 385.67954 191.09513 C 385.76243 190.79596 385.85526 190.49963 385.95785 190.20662 L 387.5164 185.75563 C 388.24513 183.67448 388.47196 181.45062 388.1784 179.2652 L 387.7411 176.00937 C 387.52656 174.412 386.3208 173.12743 384.74018 172.81234 L 384.70094 172.80452 C 382.983 172.46204 381.21383 172.46704 379.49784 172.81923 L 379.49784 172.81923 C 378.0433 173.11776 377.08104 174.50782 377.31374 175.97434 Z" fill="#2cc8ff"/>
        <path d="M 377.31374 175.97434 L 378.9125 186.0501 C 379.1076 187.27971 379.46586 188.4778 379.9778 189.61267 L 382.194 194.52584 C 382.50767 195.2212 383.32565 195.53063 384.021 195.21696 C 384.39497 195.04827 384.6746 194.72207 384.78414 194.32672 L 385.67954 191.09513 C 385.76243 190.79596 385.85526 190.49963 385.95785 190.20662 L 387.5164 185.75563 C 388.24513 183.67448 388.47196 181.45062 388.1784 179.2652 L 387.7411 176.00937 C 387.52656 174.412 386.3208 173.12743 384.74018 172.81234 L 384.70094 172.80452 C 382.983 172.46204 381.21383 172.46704 379.49784 172.81923 L 379.49784 172.81923 C 378.0433 173.11776 377.08104 174.50782 377.31374 175.97434 Z" stroke="black" stroke-linecap="round" stroke-linejoin="round" stroke-width="3"/>
      </g>
    </g>
  </g>
</svg>
