<?xml version="1.0" encoding="UTF-8" standalone="no"?>
<!DOCTYPE svg PUBLIC "-//W3C//DTD SVG 1.1//EN" "http://www.w3.org/Graphics/SVG/1.1/DTD/svg11.dtd">
<svg xmlns:xl="http://www.w3.org/1999/xlink" version="1.1" xmlns:dc="http://purl.org/dc/elements/1.1/" xmlns="http://www.w3.org/2000/svg" viewBox="0 0 850.394 850.394" width="850.394" height="850.394">
  <defs/>
  <metadata> Produced by OmniGraffle 7.9.4 
    <dc:date>2019-05-15 18:20:23 +0000</dc:date>
  </metadata>
  <g id="fsr" fill="none" stroke-opacity="1" fill-opacity="1" stroke="none" stroke-dasharray="none">
    <title>fsr</title>
    <g id="fsr: Layer 1">
      <title>Layer 1</title>
      <g id="Graphic_13">
        <path d="M 199.33458 717.3346 L 209.49328 727.4933 L 466 459 L 428 376 L 401.2745 410.11365 L 171 691 Z" fill="#87dfff"/>
        <path d="M 199.33458 717.3346 L 209.49328 727.4933 L 466 459 L 428 376 L 401.2745 410.11365 L 171 691 Z" stroke="black" stroke-linecap="round" stroke-linejoin="round" stroke-width="5"/>
      </g>
      <g id="Graphic_6">
        <path d="M 469 461 L 206.18974 714.10335 L 196.18904 704.10265 L 452.13 424.87 L 434.5 390.5 Z" fill="#fffcc7"/>
        <path d="M 469 461 L 206.18974 714.10335 L 196.18904 704.10265 L 452.13 424.87 L 434.5 390.5 Z" stroke="black" stroke-linecap="round" stroke-linejoin="round" stroke-width="5"/>
      </g>
      <g id="Graphic_37">
        <circle cx="560.24664" cy="311.24664" r="176.246921023974" fill="#fffcc7"/>
        <circle cx="560.24664" cy="311.24664" r="176.246921023974" stroke="black" stroke-linecap="round" stroke-linejoin="round" stroke-width="7"/>
      </g>
      <g id="Graphic_3"/>
      <g id="Graphic_8">
        <path d="M 425 426 L 193.0007 697.2432 L 183 687.2425 L 413 401 Z" fill="#fffcc7"/>
        <path d="M 425 426 L 193.0007 697.2432 L 183 687.2425 L 413 401 Z" stroke="black" stroke-linecap="round" stroke-linejoin="round" stroke-width="5"/>
      </g>
      <g id="Graphic_11">
        <path d="M 204.22294 715.8445 L 172.62074 753.0471 L 165.62025 756.04735 L 151.61927 770.0483 L 149.61913 768.0482 L 165.82026 748.2468 L 167.62039 732.0457 L 192.62213 701.4435 Z" fill="#999"/>
        <path d="M 204.22294 715.8445 L 172.62074 753.0471 L 165.62025 756.04735 L 151.61927 770.0483 L 149.61913 768.0482 L 165.82026 748.2468 L 167.62039 732.0457 L 192.62213 701.4435 Z" stroke="black" stroke-linecap="round" stroke-linejoin="round" stroke-width="5"/>
      </g>
      <g id="Graphic_12">
        <path d="M 192.99994 701.888 L 163.22007 735.2459 L 156.21958 738.6461 L 140.39626 756.0918 L 138.39612 754.0917 L 153.39717 731.0901 L 156.39738 718.08915 L 181.39913 687.487 Z" fill="#999"/>
        <path d="M 192.99994 701.888 L 163.22007 735.2459 L 156.21958 738.6461 L 140.39626 756.0918 L 138.39612 754.0917 L 153.39717 731.0901 L 156.39738 718.08915 L 181.39913 687.487 Z" stroke="black" stroke-linecap="round" stroke-linejoin="round" stroke-width="5"/>
      </g>
      <g id="Graphic_39">
        <circle cx="560.24664" cy="311.24664" r="147.438390623178" fill="#333"/>
        <circle cx="560.24664" cy="311.24664" r="147.438390623178" stroke="black" stroke-linecap="round" stroke-linejoin="round" stroke-width="7"/>
      </g>
      <g id="Line_40">
        <line x1="436" y1="330" x2="540.4412" y2="434.4412" stroke="#fffcc7" stroke-linecap="round" stroke-linejoin="round" stroke-width="21"/>
      </g>
      <g id="Line_41">
        <line x1="443" y1="279.35853" x2="589.2591" y2="425.61765" stroke="#fffcc7" stroke-linecap="round" stroke-linejoin="round" stroke-width="21"/>
      </g>
      <g id="Line_42">
        <line x1="464.12197" y1="239" x2="632.2634" y2="404.2003" stroke="#fffcc7" stroke-linecap="round" stroke-linejoin="round" stroke-width="21"/>
      </g>
      <g id="Line_45">
        <line x1="690.7567" y1="285" x2="586.31554" y2="180.55882" stroke="#fffcc7" stroke-linecap="round" stroke-linejoin="round" stroke-width="21"/>
      </g>
      <g id="Line_44">
        <line x1="683.7567" y1="335.64147" x2="537.4976" y2="189.38235" stroke="#fffcc7" stroke-linecap="round" stroke-linejoin="round" stroke-width="21"/>
      </g>
      <g id="Line_43">
        <line x1="662.63475" y1="376" x2="494.4933" y2="210.7997" stroke="#fffcc7" stroke-linecap="round" stroke-linejoin="round" stroke-width="21"/>
      </g>
      <g id="Graphic_46">
        <circle cx="441.30914" cy="425.197" r="15.3091638616373" fill="#333"/>
        <circle cx="441.30914" cy="425.197" r="15.3091638616373" stroke="black" stroke-linecap="round" stroke-linejoin="round" stroke-width="7"/>
      </g>
    </g>
  </g>
</svg>
