<?xml version="1.0" encoding="UTF-8" standalone="no"?>
<!DOCTYPE svg PUBLIC "-//W3C//DTD SVG 1.1//EN" "http://www.w3.org/Graphics/SVG/1.1/DTD/svg11.dtd">
<svg xmlns:xl="http://www.w3.org/1999/xlink" version="1.1" xmlns:dc="http://purl.org/dc/elements/1.1/" xmlns="http://www.w3.org/2000/svg" viewBox="0 0 850.394 850.394" width="850.394" height="850.394">
  <defs/>
  <metadata> Produced by OmniGraffle 7.9.4 
    <dc:date>2019-05-06 23:00:35 +0000</dc:date>
  </metadata>
  <g id="Generate" fill="none" stroke-opacity="1" fill-opacity="1" stroke="none" stroke-dasharray="none">
    <title>Generate</title>
    <g id="Generate: Layer 1">
      <title>Layer 1</title>
      <g id="Graphic_8">
        <path d="M 430.92567 728.3073 L 404.3383 722.0921 C 384.30094 717.408 363.54816 716.6331 343.2173 719.8098 L 333.19725 721.3754 C 318.6429 723.64955 306.0879 732.8242 299.5 746 L 299.5 746 C 294.14126 756.7175 298.48538 769.7498 309.20285 775.1085 C 309.7131 775.3637 310.23325 775.5986 310.76203 775.8127 L 370.9772 800.1974 C 395.16837 809.9938 422.73255 806.3081 443.5 790.5 L 460.59614 777.4865 C 469.3731 770.80555 471.07224 758.2744 464.39126 749.4975 C 464.2635 749.3296 464.13304 749.1637 464 749 L 464 749 C 455.57277 738.628 443.9388 731.3493 430.92567 728.3073 Z" fill="#5d2906"/>
        <path d="M 430.92567 728.3073 L 404.3383 722.0921 C 384.30094 717.408 363.54816 716.6331 343.2173 719.8098 L 333.19725 721.3754 C 318.6429 723.64955 306.0879 732.8242 299.5 746 L 299.5 746 C 294.14126 756.7175 298.48538 769.7498 309.20285 775.1085 C 309.7131 775.3637 310.23325 775.5986 310.76203 775.8127 L 370.9772 800.1974 C 395.16837 809.9938 422.73255 806.3081 443.5 790.5 L 460.59614 777.4865 C 469.3731 770.80555 471.07224 758.2744 464.39126 749.4975 C 464.2635 749.3296 464.13304 749.1637 464 749 L 464 749 C 455.57277 738.628 443.9388 731.3493 430.92567 728.3073 Z" stroke="black" stroke-linecap="round" stroke-linejoin="round" stroke-width="6"/>
      </g>
      <g id="Graphic_7">
        <path d="M 467.56565 743.4181 L 506.2201 718.0779 C 529.8454 702.59025 560.82265 704.38605 582.5 722.5 L 586.4799 725.8257 C 596.67716 734.3467 598.036 749.5208 589.51505 759.718 C 586.7312 763.04955 583.0978 765.5658 579 767 L 551.5587 776.60445 C 543.20066 779.5298 534.6142 781.7562 525.88775 783.2607 L 492.3435 789.0442 C 485.06907 790.2984 477.5922 788.6684 471.5 784.5 L 471.5 784.5 C 465.39594 780.3235 461.1074 773.9832 459.50294 766.7632 L 459 764.5 C 457.1945 756.3753 460.6051 747.9811 467.56565 743.4181 Z" fill="#5d2906"/>
        <path d="M 467.56565 743.4181 L 506.2201 718.0779 C 529.8454 702.59025 560.82265 704.38605 582.5 722.5 L 586.4799 725.8257 C 596.67716 734.3467 598.036 749.5208 589.51505 759.718 C 586.7312 763.04955 583.0978 765.5658 579 767 L 551.5587 776.60445 C 543.20066 779.5298 534.6142 781.7562 525.88775 783.2607 L 492.3435 789.0442 C 485.06907 790.2984 477.5922 788.6684 471.5 784.5 L 471.5 784.5 C 465.39594 780.3235 461.1074 773.9832 459.50294 766.7632 L 459 764.5 C 457.1945 756.3753 460.6051 747.9811 467.56565 743.4181 Z" stroke="black" stroke-linecap="round" stroke-linejoin="round" stroke-width="6"/>
      </g>
      <g id="Graphic_2">
        <path d="M 388.1883 783.9192 L 412.06176 726.9579 C 425.642 694.5559 428.17993 658.5849 419.2838 624.59706 L 400.0927 551.27716 C 396.0536 535.8458 394.3448 519.8972 395.02296 503.96044 L 400.5867 373.21235 C 401.51895 351.3047 397.93818 329.43926 390.06667 308.97334 L 366.36447 247.34762 C 360.5211 232.15483 347.41187 220.93197 331.5 217.5 L 331.5 217.5 C 314.8569 213.91031 297.5303 215.21848 281.61487 221.26635 L 278.2048 222.56218 C 276.05068 223.38074 273.64083 222.29806 272.82227 220.14394 C 272.19847 218.50236 272.66928 216.6459 274 215.5 L 277.97616 212.07609 C 286.99984 204.3057 298.59613 200.17827 310.5 200.5 L 310.5 200.5 C 322.62323 200.82765 334.4511 204.3134 344.81443 210.6127 L 355.11595 216.8744 C 371.1141 226.59878 382.85673 241.99856 388 260 L 388 260 C 391.4285 271.9998 403.93563 278.9482 415.93543 275.51968 C 417.7553 274.99972 419.50265 274.25317 421.1364 273.29758 L 428.8487 268.78662 C 430.45363 267.84787 432.5157 268.38794 433.45445 269.9929 C 434.20823 271.2816 434.02323 272.91282 433 274 L 418.6611 289.23507 C 417.55377 290.41162 416.42867 291.57133 415.2862 292.7138 L 409.5 298.5 C 404.85055 303.14945 402.99727 309.906 404.6239 316.27692 L 409.02683 333.52177 C 412.3293 346.4564 414 359.7535 414 373.1031 L 414 405.345 C 414 406.4483 413.9886 407.5516 413.96577 408.65464 L 411.70973 517.69626 C 411.4347 530.99054 421.98884 541.99065 435.2831 542.2657 C 438.07475 542.32346 440.85515 541.8952 443.5 541 L 443.5 541 C 464.79606 533.7921 483.8371 521.14066 498.7336 504.3011 L 530.28474 468.63464 C 531.018 467.8057 532.28446 467.72817 533.1134 468.46146 C 533.8387 469.1031 534.0014 470.17156 533.5 471 L 527.8697 480.30224 C 523.9644 486.7545 519.49 492.84466 514.5 498.5 L 514.5 498.5 C 512.6308 500.61845 512.8328 503.8511 514.95127 505.7203 C 515.88587 506.54494 517.0894 507 518.3358 507 L 528.341 507 C 536.76705 507 545.1798 506.33123 553.5 505 L 556.5675 504.5092 C 558.3628 504.22195 560.05106 505.4445 560.3383 507.2398 C 560.4983 508.23984 560.1891 509.25786 559.5 510 L 557.475 512.1808 C 554.5769 515.3018 550.7095 517.3524 546.5 518 L 546.5 518 C 542.173 518.6657 537.80145 519 533.4235 519 L 523 519 C 511.92154 519 501.09745 522.3211 491.9254 528.5344 L 489.93343 529.8838 C 480.00924 536.60664 469.361 542.19295 458.18913 546.53756 L 448 550.5 C 432.4217 556.55823 423.5106 572.99504 426.93485 589.3554 L 433.59534 621.17774 C 437.1743 638.2771 443.5295 654.675 452.40865 669.7202 L 457 677.5 C 468.67913 697.2896 473.5706 720.354 470.9295 743.1807 L 462.37923 817.0795 C 461.5931 823.8737 455.83954 829 449 829 L 449 829 C 441.033 829 433.09897 827.9768 425.39264 825.9554 L 406.5 821 C 391.868 817.1621 383.11765 802.1893 386.95556 787.5573 C 387.2808 786.3172 387.69274 785.1015 388.1883 783.9192 Z" fill="lime"/>
        <path d="M 388.1883 783.9192 L 412.06176 726.9579 C 425.642 694.5559 428.17993 658.5849 419.2838 624.59706 L 400.0927 551.27716 C 396.0536 535.8458 394.3448 519.8972 395.02296 503.96044 L 400.5867 373.21235 C 401.51895 351.3047 397.93818 329.43926 390.06667 308.97334 L 366.36447 247.34762 C 360.5211 232.15483 347.41187 220.93197 331.5 217.5 L 331.5 217.5 C 314.8569 213.91031 297.5303 215.21848 281.61487 221.26635 L 278.2048 222.56218 C 276.05068 223.38074 273.64083 222.29806 272.82227 220.14394 C 272.19847 218.50236 272.66928 216.6459 274 215.5 L 277.97616 212.07609 C 286.99984 204.3057 298.59613 200.17827 310.5 200.5 L 310.5 200.5 C 322.62323 200.82765 334.4511 204.3134 344.81443 210.6127 L 355.11595 216.8744 C 371.1141 226.59878 382.85673 241.99856 388 260 L 388 260 C 391.4285 271.9998 403.93563 278.9482 415.93543 275.51968 C 417.7553 274.99972 419.50265 274.25317 421.1364 273.29758 L 428.8487 268.78662 C 430.45363 267.84787 432.5157 268.38794 433.45445 269.9929 C 434.20823 271.2816 434.02323 272.91282 433 274 L 418.6611 289.23507 C 417.55377 290.41162 416.42867 291.57133 415.2862 292.7138 L 409.5 298.5 C 404.85055 303.14945 402.99727 309.906 404.6239 316.27692 L 409.02683 333.52177 C 412.3293 346.4564 414 359.7535 414 373.1031 L 414 405.345 C 414 406.4483 413.9886 407.5516 413.96577 408.65464 L 411.70973 517.69626 C 411.4347 530.99054 421.98884 541.99065 435.2831 542.2657 C 438.07475 542.32346 440.85515 541.8952 443.5 541 L 443.5 541 C 464.79606 533.7921 483.8371 521.14066 498.7336 504.3011 L 530.28474 468.63464 C 531.018 467.8057 532.28446 467.72817 533.1134 468.46146 C 533.8387 469.1031 534.0014 470.17156 533.5 471 L 527.8697 480.30224 C 523.9644 486.7545 519.49 492.84466 514.5 498.5 L 514.5 498.5 C 512.6308 500.61845 512.8328 503.8511 514.95127 505.7203 C 515.88587 506.54494 517.0894 507 518.3358 507 L 528.341 507 C 536.76705 507 545.1798 506.33123 553.5 505 L 556.5675 504.5092 C 558.3628 504.22195 560.05106 505.4445 560.3383 507.2398 C 560.4983 508.23984 560.1891 509.25786 559.5 510 L 557.475 512.1808 C 554.5769 515.3018 550.7095 517.3524 546.5 518 L 546.5 518 C 542.173 518.6657 537.80145 519 533.4235 519 L 523 519 C 511.92154 519 501.09745 522.3211 491.9254 528.5344 L 489.93343 529.8838 C 480.00924 536.60664 469.361 542.19295 458.18913 546.53756 L 448 550.5 C 432.4217 556.55823 423.5106 572.99504 426.93485 589.3554 L 433.59534 621.17774 C 437.1743 638.2771 443.5295 654.675 452.40865 669.7202 L 457 677.5 C 468.67913 697.2896 473.5706 720.354 470.9295 743.1807 L 462.37923 817.0795 C 461.5931 823.8737 455.83954 829 449 829 L 449 829 C 441.033 829 433.09897 827.9768 425.39264 825.9554 L 406.5 821 C 391.868 817.1621 383.11765 802.1893 386.95556 787.5573 C 387.2808 786.3172 387.69274 785.1015 388.1883 783.9192 Z" stroke="black" stroke-linecap="round" stroke-linejoin="round" stroke-width="6"/>
      </g>
      <g id="Graphic_3">
        <path d="M 364.14103 781.4733 L 329 677 C 329 677 204 727 203 727 C 202 727 123 752 123 752 L 210.89348 779.1005 C 232.06693 785.629 254.36556 787.6886 276.3766 785.1489 L 335.15175 778.3671 C 342.41053 777.5296 349.5178 780.8735 353.5 787 L 356.8222 792.1111 C 357.9186 793.7979 360.17485 794.2765 361.86164 793.18005 C 362.32584 792.8783 362.71515 792.4747 363 792 L 363 792 C 364.9035 788.8275 365.32055 784.98 364.14103 781.4733 Z" fill="#5d2906"/>
        <path d="M 364.14103 781.4733 L 329 677 C 329 677 204 727 203 727 C 202 727 123 752 123 752 L 210.89348 779.1005 C 232.06693 785.629 254.36556 787.6886 276.3766 785.1489 L 335.15175 778.3671 C 342.41053 777.5296 349.5178 780.8735 353.5 787 L 356.8222 792.1111 C 357.9186 793.7979 360.17485 794.2765 361.86164 793.18005 C 362.32584 792.8783 362.71515 792.4747 363 792 L 363 792 C 364.9035 788.8275 365.32055 784.98 364.14103 781.4733 Z" stroke="black" stroke-linecap="round" stroke-linejoin="round" stroke-width="6"/>
      </g>
      <g id="Graphic_4">
        <path d="M 532.692 733.0793 L 559.21485 722.8378 C 590.9132 710.5979 625.68515 708.7673 658.49344 717.6113 L 686.50075 725.1611 C 699.9979 728.7994 707.9901 742.69055 704.3517 756.1877 C 703.4908 759.3813 702.0124 762.3751 700 765 L 700 765 C 685.2507 784.2382 663.5832 796.9694 639.5987 800.4901 L 591.93545 807.4865 C 576.1923 809.7975 560.1279 808.433 545 803.5 L 545 803.5 C 530.6247 798.8124 519.5296 787.2712 515.412 772.7224 L 514.5 769.5 C 510.2501 754.4836 518.13346 738.7009 532.692 733.0793 Z" fill="#8c3d0a"/>
        <path d="M 532.692 733.0793 L 559.21485 722.8378 C 590.9132 710.5979 625.68515 708.7673 658.49344 717.6113 L 686.50075 725.1611 C 699.9979 728.7994 707.9901 742.69055 704.3517 756.1877 C 703.4908 759.3813 702.0124 762.3751 700 765 L 700 765 C 685.2507 784.2382 663.5832 796.9694 639.5987 800.4901 L 591.93545 807.4865 C 576.1923 809.7975 560.1279 808.433 545 803.5 L 545 803.5 C 530.6247 798.8124 519.5296 787.2712 515.412 772.7224 L 514.5 769.5 C 510.2501 754.4836 518.13346 738.7009 532.692 733.0793 Z" stroke="black" stroke-linecap="round" stroke-linejoin="round" stroke-width="6"/>
      </g>
      <g id="Graphic_5">
        <path d="M 553.0187 777.2457 L 524.5 768.5 C 499.9656 760.9761 473.8433 760.2892 448.9474 766.51315 L 429.6482 771.33795 C 414.79766 775.0506 401.147 782.5087 390 793 L 390 793 C 383.67774 798.9504 383.37626 808.8993 389.3266 815.2215 C 390.7155 816.6972 392.37655 817.8904 394.2184 818.7355 L 415.5 828.5 C 442.5394 840.9063 473.5871 841.1888 500.8478 829.2766 L 573.22186 797.651 C 575.60444 796.6098 577.3694 794.5225 578 792 L 578 792 C 578.5811 789.6755 577.4373 787.2646 575.26934 786.2444 L 570.5 784 C 564.8405 781.3367 558.99865 779.0796 553.0187 777.2457 Z" fill="#8c3d0a"/>
        <path d="M 553.0187 777.2457 L 524.5 768.5 C 499.9656 760.9761 473.8433 760.2892 448.9474 766.51315 L 429.6482 771.33795 C 414.79766 775.0506 401.147 782.5087 390 793 L 390 793 C 383.67774 798.9504 383.37626 808.8993 389.3266 815.2215 C 390.7155 816.6972 392.37655 817.8904 394.2184 818.7355 L 415.5 828.5 C 442.5394 840.9063 473.5871 841.1888 500.8478 829.2766 L 573.22186 797.651 C 575.60444 796.6098 577.3694 794.5225 578 792 L 578 792 C 578.5811 789.6755 577.4373 787.2646 575.26934 786.2444 L 570.5 784 C 564.8405 781.3367 558.99865 779.0796 553.0187 777.2457 Z" stroke="black" stroke-linecap="round" stroke-linejoin="round" stroke-width="6"/>
      </g>
      <g id="Graphic_6">
        <path d="M 356.9184 751.48275 L 261.91527 764.1944 C 238.4381 767.33575 216.3031 776.9653 198 792 L 198 792 C 191.1662 797.6135 190.17692 807.704 195.7904 814.5378 C 198.32155 817.6192 201.91133 819.6453 205.85741 820.21975 L 328 838 C 328 838 453 837 453 836 C 453 835 388 760 388 760 L 378 755 C 371.4839 751.74195 364.1393 750.5166 356.9184 751.48275 Z" fill="#8c3d0a"/>
        <path d="M 356.9184 751.48275 L 261.91527 764.1944 C 238.4381 767.33575 216.3031 776.9653 198 792 L 198 792 C 191.1662 797.6135 190.17692 807.704 195.7904 814.5378 C 198.32155 817.6192 201.91133 819.6453 205.85741 820.21975 L 328 838 C 328 838 453 837 453 836 C 453 835 388 760 388 760 L 378 755 C 371.4839 751.74195 364.1393 750.5166 356.9184 751.48275 Z" stroke="black" stroke-linecap="round" stroke-linejoin="round" stroke-width="6"/>
      </g>
      <g id="Graphic_9">
        <path d="M 539.5 791 L 534.7593 792.4873 C 520.98316 796.8092 507.8554 802.9759 495.7335 810.8195 L 488.5 815.5 C 483.6251 818.65435 482.2303 825.16335 485.38466 830.0383 C 487.13626 832.7453 490.03315 834.4989 493.24375 834.7956 L 569.17135 841.8142 C 577.71 842.6034 586.2982 842.705 594.8531 842.1179 L 651.54175 838.2275 C 659.4632 837.6839 665.4441 830.8216 664.9005 822.9001 C 664.6553 819.3281 663.0862 815.9761 660.5 813.5 L 660.5 813.5 C 645.2584 798.907 625.6366 789.7374 604.6644 787.4072 L 591.562 785.9513 C 574.0457 784.0051 556.316 785.7244 539.5 791 Z" fill="#a5511c"/>
        <path d="M 539.5 791 L 534.7593 792.4873 C 520.98316 796.8092 507.8554 802.9759 495.7335 810.8195 L 488.5 815.5 C 483.6251 818.65435 482.2303 825.16335 485.38466 830.0383 C 487.13626 832.7453 490.03315 834.4989 493.24375 834.7956 L 569.17135 841.8142 C 577.71 842.6034 586.2982 842.705 594.8531 842.1179 L 651.54175 838.2275 C 659.4632 837.6839 665.4441 830.8216 664.9005 822.9001 C 664.6553 819.3281 663.0862 815.9761 660.5 813.5 L 660.5 813.5 C 645.2584 798.907 625.6366 789.7374 604.6644 787.4072 L 591.562 785.9513 C 574.0457 784.0051 556.316 785.7244 539.5 791 Z" stroke="black" stroke-linecap="round" stroke-linejoin="round" stroke-width="6"/>
      </g>
    </g>
  </g>
</svg>
