<?xml version="1.0" encoding="UTF-8" standalone="no"?>
<!DOCTYPE svg PUBLIC "-//W3C//DTD SVG 1.1//EN" "http://www.w3.org/Graphics/SVG/1.1/DTD/svg11.dtd">
<svg xmlns:xl="http://www.w3.org/1999/xlink" xmlns:dc="http://purl.org/dc/elements/1.1/" xmlns="http://www.w3.org/2000/svg" version="1.1" viewBox="0 0 850.394 850.394" width="850.394" height="850.394">
  <defs/>
  <metadata> Produced by OmniGraffle 7.9.4 
    <dc:date>2019-03-14 13:49:51 +0000</dc:date>
  </metadata>
  <g id="gesture" fill-opacity="1" stroke-dasharray="none" stroke-opacity="1" stroke="none" fill="none">
    <title>gesture</title>
    <g id="gesture: Layer 1">
      <title>Layer 1</title>
      <g id="Group_30">
        <g id="Graphic_29">
          <path d="M 707.7464 585.082 C 867.9963 583.50624 875.0497 624.4717 723.5005 676.581 C 571.9522 728.69026 319.19056 772.2103 158.9414 773.7858 C -1.3085369 775.3615 -8.361901 734.396 143.18726 682.28676 C 294.7356 630.1775 547.4972 586.65746 707.7464 585.082" fill="#333"/>
          <path d="M 707.7464 585.082 C 867.9963 583.50624 875.0497 624.4717 723.5005 676.581 C 571.9522 728.69026 319.19056 772.2103 158.9414 773.7858 C -1.3085369 775.3615 -8.361901 734.396 143.18726 682.28676 C 294.7356 630.1775 547.4972 586.65746 707.7464 585.082" stroke="black" stroke-linecap="round" stroke-linejoin="round" stroke-width="12"/>
        </g>
        <g id="Group_26">
          <g id="Graphic_28">
            <rect x="383.06576" y="580.573" width="90" height="29.2238" fill="#ffe45f"/>
            <rect x="383.06576" y="580.573" width="90" height="29.2238" stroke="black" stroke-linecap="round" stroke-linejoin="round" stroke-width="1"/>
          </g>
          <g id="Graphic_27">
            <path d="M 408.9325 585.9848 L 447.199 585.9848 C 452.28006 585.9848 456.3991 590.1038 456.3991 595.1849 L 456.3991 595.1849 C 456.3991 600.26594 452.28006 604.38496 447.199 604.38496 L 408.9325 604.38496 C 403.85142 604.38496 399.7324 600.26594 399.7324 595.1849 L 399.7324 595.1849 C 399.7324 590.1038 403.85142 585.9848 408.9325 585.9848 Z" fill="white"/>
            <path d="M 408.9325 585.9848 L 447.199 585.9848 C 452.28006 585.9848 456.3991 590.1038 456.3991 595.1849 L 456.3991 595.1849 C 456.3991 600.26594 452.28006 604.38496 447.199 604.38496 L 408.9325 604.38496 C 403.85142 604.38496 399.7324 600.26594 399.7324 595.1849 L 399.7324 595.1849 C 399.7324 590.1038 403.85142 585.9848 408.9325 585.9848 Z" stroke="black" stroke-linecap="round" stroke-linejoin="round" stroke-width="1"/>
          </g>
        </g>
        <g id="Group_23">
          <g id="Graphic_25">
            <rect x="383.06576" y="746.8239" width="90" height="29.2238" fill="#ffe45f"/>
            <rect x="383.06576" y="746.8239" width="90" height="29.2238" stroke="black" stroke-linecap="round" stroke-linejoin="round" stroke-width="1"/>
          </g>
          <g id="Graphic_24">
            <path d="M 408.9325 752.2357 L 447.199 752.2357 C 452.28006 752.2357 456.3991 756.35475 456.3991 761.4358 L 456.3991 761.4358 C 456.3991 766.5169 452.28006 770.6359 447.199 770.6359 L 408.9325 770.6359 C 403.85142 770.6359 399.7324 766.5169 399.7324 761.4358 L 399.7324 761.4358 C 399.7324 756.35475 403.85142 752.2357 408.9325 752.2357 Z" fill="white"/>
            <path d="M 408.9325 752.2357 L 447.199 752.2357 C 452.28006 752.2357 456.3991 756.35475 456.3991 761.4358 L 456.3991 761.4358 C 456.3991 766.5169 452.28006 770.6359 447.199 770.6359 L 408.9325 770.6359 C 403.85142 770.6359 399.7324 766.5169 399.7324 761.4358 L 399.7324 761.4358 C 399.7324 756.35475 403.85142 752.2357 408.9325 752.2357 Z" stroke="black" stroke-linecap="round" stroke-linejoin="round" stroke-width="1"/>
          </g>
        </g>
        <g id="Group_20">
          <g id="Graphic_22">
            <path d="M 554.7618 599.95754 L 674.58915 631.97036 L 672.2973 640.5491 L 552.4699 608.5363 Z" fill="#ffe45f"/>
            <path d="M 554.7618 599.95754 L 674.58915 631.97036 L 672.2973 640.5491 L 552.4699 608.5363 Z" stroke="black" stroke-linecap="round" stroke-linejoin="round" stroke-width="1"/>
          </g>
          <g id="Graphic_21">
            <path d="M 579.22834 608.196 L 649.2737 626.9092 C 650.7653 627.3077 651.6514 628.8399 651.2529 630.3314 L 651.2529 630.3314 C 650.85445 631.823 649.32226 632.7091 647.8307 632.31064 C 647.8307 632.31064 647.8307 632.31064 647.8307 632.31064 L 577.7853 613.59746 C 576.2937 613.199 575.4076 611.6668 575.8061 610.1752 L 575.8061 610.1752 C 576.2046 608.68365 577.7368 607.7975 579.22834 608.196 Z" fill="white"/>
            <path d="M 579.22834 608.196 L 649.2737 626.9092 C 650.7653 627.3077 651.6514 628.8399 651.2529 630.3314 L 651.2529 630.3314 C 650.85445 631.823 649.32226 632.7091 647.8307 632.31064 C 647.8307 632.31064 647.8307 632.31064 647.8307 632.31064 L 577.7853 613.59746 C 576.2937 613.199 575.4076 611.6668 575.8061 610.1752 L 575.8061 610.1752 C 576.2046 608.68365 577.7368 607.7975 579.22834 608.196 Z" stroke="black" stroke-linecap="round" stroke-linejoin="round" stroke-width="1"/>
          </g>
        </g>
        <g id="Group_17">
          <g id="Graphic_19">
            <path d="M 188.2787 716.7931 L 308.10603 748.80595 L 305.81415 757.3847 L 185.98681 725.3719 Z" fill="#ffe45f"/>
            <path d="M 188.2787 716.7931 L 308.10603 748.80595 L 305.81415 757.3847 L 185.98681 725.3719 Z" stroke="black" stroke-linecap="round" stroke-linejoin="round" stroke-width="1"/>
          </g>
          <g id="Graphic_18">
            <path d="M 212.74522 725.0316 L 282.7906 743.7448 C 284.28218 744.1433 285.1683 745.6755 284.76982 747.167 L 284.76982 747.167 C 284.37133 748.6586 282.83914 749.5447 281.34757 749.1462 C 281.34757 749.1462 281.34757 749.1462 281.34757 749.1462 L 211.30218 730.43305 C 209.81061 730.0346 208.9245 728.5024 209.32298 727.0108 L 209.32298 727.0108 C 209.72146 725.5192 211.25365 724.6331 212.74522 725.0316 Z" fill="white"/>
            <path d="M 212.74522 725.0316 L 282.7906 743.7448 C 284.28218 744.1433 285.1683 745.6755 284.76982 747.167 L 284.76982 747.167 C 284.37133 748.6586 282.83914 749.5447 281.34757 749.1462 C 281.34757 749.1462 281.34757 749.1462 281.34757 749.1462 L 211.30218 730.43305 C 209.81061 730.0346 208.9245 728.5024 209.32298 727.0108 L 209.32298 727.0108 C 209.72146 725.5192 211.25365 724.6331 212.74522 725.0316 Z" stroke="black" stroke-linecap="round" stroke-linejoin="round" stroke-width="1"/>
          </g>
        </g>
        <g id="Group_14">
          <g id="Graphic_16">
            <rect x="643.5102" y="663.69844" width="90" height="29.2238" fill="#ffe45f"/>
            <rect x="643.5102" y="663.69844" width="90" height="29.2238" stroke="black" stroke-linecap="round" stroke-linejoin="round" stroke-width="1"/>
          </g>
          <g id="Graphic_15">
            <path d="M 716.8435 678.3103 L 716.8435 678.3103 C 716.8435 683.3914 712.7245 687.5104 707.64345 687.5104 L 669.37696 687.5104 C 664.2959 687.5104 660.1769 683.3914 660.1769 678.3103 L 660.1769 678.3103 C 660.1769 673.2293 664.2959 669.11025 669.37696 669.11025 L 707.64345 669.11025 C 712.7245 669.11025 716.8435 673.2293 716.8435 678.3103 Z" fill="white"/>
            <path d="M 716.8435 678.3103 L 716.8435 678.3103 C 716.8435 683.3914 712.7245 687.5104 707.64345 687.5104 L 669.37696 687.5104 C 664.2959 687.5104 660.1769 683.3914 660.1769 678.3103 L 660.1769 678.3103 C 660.1769 673.2293 664.2959 669.11025 669.37696 669.11025 L 707.64345 669.11025 C 712.7245 669.11025 716.8435 673.2293 716.8435 678.3103 Z" stroke="black" stroke-linecap="round" stroke-linejoin="round" stroke-width="1"/>
          </g>
        </g>
        <g id="Group_11">
          <g id="Graphic_13">
            <rect x="127.06576" y="663.69844" width="90" height="29.2238" fill="#ffe45f"/>
            <rect x="127.06576" y="663.69844" width="90" height="29.2238" stroke="black" stroke-linecap="round" stroke-linejoin="round" stroke-width="1"/>
          </g>
          <g id="Graphic_12">
            <path d="M 200.3991 678.3103 L 200.3991 678.3103 C 200.3991 683.3914 196.28007 687.5104 191.199 687.5104 L 152.93251 687.5104 C 147.85144 687.5104 143.73243 683.3914 143.73243 678.3103 L 143.73243 678.3103 C 143.73243 673.2293 147.85144 669.11025 152.93251 669.11025 L 191.199 669.11025 C 196.28007 669.11025 200.3991 673.2293 200.3991 678.3103 Z" fill="white"/>
            <path d="M 200.3991 678.3103 L 200.3991 678.3103 C 200.3991 683.3914 196.28007 687.5104 191.199 687.5104 L 152.93251 687.5104 C 147.85144 687.5104 143.73243 683.3914 143.73243 678.3103 L 143.73243 678.3103 C 143.73243 673.2293 147.85144 669.11025 152.93251 669.11025 L 191.199 669.11025 C 196.28007 669.11025 200.3991 673.2293 200.3991 678.3103 Z" stroke="black" stroke-linecap="round" stroke-linejoin="round" stroke-width="1"/>
          </g>
        </g>
        <g id="Group_8">
          <g id="Graphic_10">
            <path d="M 670.1447 725.3719 L 550.3174 757.3847 L 548.0255 748.80595 L 667.8528 716.7931 Z" fill="#ffe45f"/>
            <path d="M 670.1447 725.3719 L 550.3174 757.3847 L 548.0255 748.80595 L 667.8528 716.7931 Z" stroke="black" stroke-linecap="round" stroke-linejoin="round" stroke-width="1"/>
          </g>
          <g id="Graphic_9">
            <path d="M 644.8293 730.43305 L 574.78395 749.1462 C 573.2924 749.5447 571.7602 748.6586 571.3617 747.167 L 571.3617 747.167 C 570.9632 745.6755 571.84934 744.1433 573.3409 743.7448 C 573.3409 743.7448 573.3409 743.7448 573.3409 743.7448 L 643.3863 725.0316 C 644.8779 724.6331 646.41006 725.5192 646.80854 727.0108 L 646.80854 727.0108 C 647.207 728.5024 646.3209 730.0346 644.8293 730.43305 C 644.8293 730.43305 644.8293 730.43305 644.8293 730.43305 Z" fill="white"/>
            <path d="M 644.8293 730.43305 L 574.78395 749.1462 C 573.2924 749.5447 571.7602 748.6586 571.3617 747.167 L 571.3617 747.167 C 570.9632 745.6755 571.84934 744.1433 573.3409 743.7448 C 573.3409 743.7448 573.3409 743.7448 573.3409 743.7448 L 643.3863 725.0316 C 644.8779 724.6331 646.41006 725.5192 646.80854 727.0108 L 646.80854 727.0108 C 647.207 728.5024 646.3209 730.0346 644.8293 730.43305 C 644.8293 730.43305 644.8293 730.43305 644.8293 730.43305 Z" stroke="black" stroke-linecap="round" stroke-linejoin="round" stroke-width="1"/>
          </g>
        </g>
        <g id="Group_5">
          <g id="Graphic_7">
            <path d="M 308.10603 607.8147 L 188.2787 639.82756 L 185.98681 631.2488 L 305.81415 599.23596 Z" fill="#ffe45f"/>
            <path d="M 308.10603 607.8147 L 188.2787 639.82756 L 185.98681 631.2488 L 305.81415 599.23596 Z" stroke="black" stroke-linecap="round" stroke-linejoin="round" stroke-width="1"/>
          </g>
          <g id="Graphic_6">
            <path d="M 282.79066 612.8759 L 212.74527 631.5891 C 211.2537 631.98755 209.72151 631.1014 209.32303 629.60986 L 209.32303 629.60986 C 208.92455 628.1183 209.81067 626.5861 211.30223 626.1876 L 281.34762 607.4744 C 282.8392 607.07595 284.3714 607.9621 284.76987 609.45364 C 284.76987 609.45364 284.76987 609.45364 284.76987 609.45364 L 284.76987 609.45364 C 285.16835 610.9452 284.28223 612.4774 282.79066 612.8759 Z" fill="white"/>
            <path d="M 282.79066 612.8759 L 212.74527 631.5891 C 211.2537 631.98755 209.72151 631.1014 209.32303 629.60986 L 209.32303 629.60986 C 208.92455 628.1183 209.81067 626.5861 211.30223 626.1876 L 281.34762 607.4744 C 282.8392 607.07595 284.3714 607.9621 284.76987 609.45364 C 284.76987 609.45364 284.76987 609.45364 284.76987 609.45364 L 284.76987 609.45364 C 285.16835 610.9452 284.28223 612.4774 282.79066 612.8759 Z" stroke="black" stroke-linecap="round" stroke-linejoin="round" stroke-width="1"/>
          </g>
        </g>
      </g>
      <g id="Group_53">
        <g id="Graphic_50">
          <path d="M 781.4069 1043.0261 C 748.1904 1044.5934 733.8152 1045.1001 678.7262 1074.7436 C 678.7262 1074.7436 556.6613 1163.5966 515.1521 1167.935 M 799.6823 1042.0396 C 792.898 1042.488 786.8927 1042.7664 781.4064 1043.0242 M 934.8978 1069.857 C 890.8699 1051.7323 834.178 1039.701 799.6809 1042.042 M 262.15714 193.16337 C 262.15714 193.16337 143.22046 278.6556 133.32134 289.65953 C 127.1016 296.66312 94.62261 354.5521 69.253475 400.8151 C 54.32443 428.0084 41.879177 451.19517 38.64427 457.6541 C 22.640244 489.59485 58.29732 515.1649 75.11555 491.884 C 75.331075 491.5915 75.55915 491.27733 75.764985 490.9487 M 312.6454 250.13677 C 312.6454 250.13677 174.1798 342.15163 165.31377 351.1766 C 159.01536 357.59716 108.06187 440.91094 76.91002 493.691 C 64.257355 515.15164 54.89287 531.5861 53.131183 535.73586 C 41.36567 563.5693 79.82134 587.89964 100.13032 564.0732 C 105.35796 557.96 110.72973 551.00605 116.17814 543.46216 C 141.10303 509.0535 167.50788 462.7865 187.70952 431.18637 C 212.27837 392.6688 228.84598 381.9496 251.42304 370.60187 C 274.02054 359.2466 343.97657 315.98024 343.97657 315.98024 M 479.85175 380.99225 C 501.60236 381.51963 517.5701 386.08034 511.8537 396.56965 C 511.8537 396.56965 508.40226 418.4976 461.5756 447.3742 C 404.8401 482.3285 385.32845 526.0628 389.17643 548.9697 C 393.04025 571.852 408.09306 580.15804 422.24726 574.9572 C 436.4548 569.74206 445.4175 550.34574 493.30167 510.3117 C 541.2268 470.2096 592.9316 453.04904 631.0523 427.81547 C 669.1585 402.60415 725.8355 344.5888 741.63124 281.6471 C 756.4728 222.81436 871.3558 110.8905 910.7714 67.63148 C 913.125 65.07194 915.4336 62.47132 917.696 59.83083" stroke="#231f20" stroke-linecap="butt" stroke-linejoin="round" stroke-width="13.415"/>
        </g>
        <g id="Graphic_49">
          <path d="M 115.36691 541.7447 C 115.36691 541.7447 115.63435 542.3772 116.17814 543.46216 C 120.48332 552.30095 142.31217 590.7094 178.7213 552.2255 C 211.11435 518.0241 262.28262 457.76825 282.66024 441.632 C 302.99467 425.48693 385.6986 396.06896 422.71653 387.0113 C 439.6098 382.9154 461.7531 380.52108 479.85175 380.99225 M 273.23952 93.87854 C 237.22988 114.94831 117.08235 218.03326 102.60404 243.99143 C 88.11368 269.97324 42.5228 348.8581 33.286 370.4382 C 22.752782 394.77395 53.54016 414.6464 69.11534 400.73375 M 669.3983 -76.026275 C 644.7127 -35.324265 606.1881 7.969498 577.0062 26.566892 C 536.5863 52.336937 532.3789 61.679015 460.2233 71.92074 C 460.2233 71.92074 309.2488 72.731315 273.24003 93.88045" stroke="#231f20" stroke-linecap="butt" stroke-linejoin="round" stroke-width="13.415"/>
        </g>
      </g>
    </g>
  </g>
</svg>
