<?xml version="1.0" encoding="UTF-8" standalone="no"?>
<!DOCTYPE svg PUBLIC "-//W3C//DTD SVG 1.1//EN" "http://www.w3.org/Graphics/SVG/1.1/DTD/svg11.dtd">
<svg xmlns:xl="http://www.w3.org/1999/xlink" xmlns:dc="http://purl.org/dc/elements/1.1/" xmlns="http://www.w3.org/2000/svg" version="1.1" viewBox="0 0 850.394 850.394" width="850.394" height="850.394">
  <defs/>
  <metadata> Produced by OmniGraffle 7.9.4 
    <dc:date>2019-03-14 02:58:17 +0000</dc:date>
  </metadata>
  <g id="Guitar" fill-opacity="1" stroke-dasharray="none" stroke-opacity="1" stroke="none" fill="none">
    <title>Guitar</title>
    <g id="Guitar: Layer 2">
      <title>Layer 2</title>
      <g id="Graphic_25">
        <path d="M 555.3588 99.05363 L 565.25826 108.95313 L 555.3588 118.85262 L 545.4593 108.95313 Z" fill="#999"/>
        <path d="M 555.3588 99.05363 L 565.25826 108.95313 L 555.3588 118.85262 L 545.4593 108.95313 Z" stroke="black" stroke-linecap="round" stroke-linejoin="round" stroke-width="3"/>
      </g>
      <g id="Graphic_26">
        <path d="M 588.09406 83 L 597.99356 92.8995 L 588.09406 102.79899 L 578.1946 92.8995 Z" fill="#999"/>
        <path d="M 588.09406 83 L 597.99356 92.8995 L 588.09406 102.79899 L 578.1946 92.8995 Z" stroke="black" stroke-linecap="round" stroke-linejoin="round" stroke-width="3"/>
      </g>
      <g id="Graphic_27">
        <path d="M 621.13655 63.378086 L 631.03604 73.27758 L 621.13655 83.17708 L 611.23705 73.27758 Z" fill="#999"/>
        <path d="M 621.13655 63.378086 L 631.03604 73.27758 L 621.13655 83.17708 L 611.23705 73.27758 Z" stroke="black" stroke-linecap="round" stroke-linejoin="round" stroke-width="3"/>
      </g>
      <g id="Graphic_28">
        <path d="M 654.179 44 L 664.0785 53.899495 L 654.179 63.79899 L 644.2795 53.899495 Z" fill="#999"/>
        <path d="M 654.179 44 L 664.0785 53.899495 L 654.179 63.79899 L 644.2795 53.899495 Z" stroke="black" stroke-linecap="round" stroke-linejoin="round" stroke-width="3"/>
      </g>
      <g id="Graphic_29">
        <path d="M 689.4437 23.692084 L 699.3432 33.59158 L 689.4437 43.491074 L 679.54424 33.59158 Z" fill="#999"/>
        <path d="M 689.4437 23.692084 L 699.3432 33.59158 L 689.4437 43.491074 L 679.54424 33.59158 Z" stroke="black" stroke-linecap="round" stroke-linejoin="round" stroke-width="3"/>
      </g>
      <g id="Graphic_30">
        <path d="M 718.4077 9.860674 L 728.3072 19.76017 L 718.4077 29.659664 L 708.5082 19.76017 Z" fill="#999"/>
        <path d="M 718.4077 9.860674 L 728.3072 19.76017 L 718.4077 29.659664 L 708.5082 19.76017 Z" stroke="black" stroke-linecap="round" stroke-linejoin="round" stroke-width="3"/>
      </g>
      <g id="Graphic_18">
        <path d="M 61.60945 669.09326 L 191.10652 800.9448 C 196.88632 806.8297 204.38316 810.7305 212.51944 812.0866 L 232.81618 815.4694 C 234.9351 815.8225 237.07959 816 239.22774 816 L 266.26347 816 C 272.01653 816 277.69834 814.7272 282.9016 812.2728 L 320.0582 794.7461 C 325.28728 792.2796 329.90255 788.6813 333.56993 784.21165 L 355.42967 757.5701 C 358.451 753.88785 360.77223 749.6833 362.27846 745.1646 L 372.38847 714.8346 C 372.7959 713.6123 373.1425 712.3705 373.42704 711.1139 L 383.91023 664.8132 C 384.63386 661.6171 385.7574 658.52504 387.25433 655.61 L 399.89535 630.9933 C 402.5964 625.7333 406.4581 621.1564 411.18846 617.60865 L 427.1208 605.6594 C 430.35395 603.23454 433.94437 601.32695 437.7635 600.00495 L 475.8884 586.80786 C 481.2322 584.9581 486.1098 581.96836 490.1831 578.0459 L 503.924 564.81395 C 508.552 560.3573 511.8649 554.7134 513.5 548.5 L 513.5 548.5 C 515.0945 542.4409 514.1 535.9917 510.75435 530.6944 L 510 529.5 C 506.22736 523.52666 499.83946 519.7028 492.79245 519.19946 L 436.65303 515.1895 C 434.8864 515.0633 433.1304 514.8169 431.39726 514.45205 L 400.5026 507.9479 C 397.51124 507.31816 394.6043 506.3389 391.84164 505.03025 L 386.5 502.5 C 380.3159 499.5707 375.1796 494.8143 371.78464 488.8731 L 371 487.5 C 367.13417 480.7348 365.8773 472.78887 367.4665 465.1608 L 369.5667 455.07976 C 369.85536 453.6943 370.2192 452.32554 370.65663 450.9796 L 382.4428 414.7145 C 382.7947 413.6317 382.63156 412.44735 382 411.5 L 382 411.5 C 381.41724 410.62586 381.52666 409.46296 382.26226 408.71287 L 572.5328 214.69318 C 579.86735 207.21408 589.9023 203 600.37766 203 L 617.5239 203 C 630.8947 203 643.3334 196.15038 650.482 184.85103 L 694.5787 115.14975 C 698.5515 108.87019 705.5757 105.19065 713 105.5 L 718.7128 105.73803 C 722.8773 105.91156 727.0428 105.41635 731.0505 104.27128 L 739 102 C 748.0233 99.42193 755.7989 93.64616 760.87355 85.75226 L 766.5629 76.90212 C 769.4889 72.35053 771.4358 67.239865 772.2797 61.89511 L 772.762 58.84065 C 773.579 53.66659 773.3452 48.38098 772.0748 43.29922 L 771.4971 40.98823 C 769.9041 34.616353 765.74145 29.189692 760 26 L 759.8342 25.907866 C 754.0404 22.68911 747.5219 21 740.8941 21 L 737.20665 21 C 731.1521 21 725.1807 22.409659 719.7653 25.11734 L 688.8608 40.56961 C 688.287 40.856494 687.7204 41.15749 687.1615 41.47232 L 535.92535 126.6623 C 532.0209 128.86164 528.63575 131.87584 526 135.5 L 526 135.5 C 523.40033 139.07454 522 143.38082 522 147.80074 L 522 153 C 522 160.69059 518.9793 168.07348 513.5885 173.55843 L 299.0905 391.8031 C 295.07934 395.88434 290.2192 399.03287 284.8549 401.02533 L 266.31723 407.91074 C 260.84236 409.94427 255.8941 413.18145 251.83776 417.3833 L 61.37518 614.6786 C 46.696336 629.8841 46.800226 654.0148 61.60945 669.09326 Z" fill="#a58465"/>
        <path d="M 61.60945 669.09326 L 191.10652 800.9448 C 196.88632 806.8297 204.38316 810.7305 212.51944 812.0866 L 232.81618 815.4694 C 234.9351 815.8225 237.07959 816 239.22774 816 L 266.26347 816 C 272.01653 816 277.69834 814.7272 282.9016 812.2728 L 320.0582 794.7461 C 325.28728 792.2796 329.90255 788.6813 333.56993 784.21165 L 355.42967 757.5701 C 358.451 753.88785 360.77223 749.6833 362.27846 745.1646 L 372.38847 714.8346 C 372.7959 713.6123 373.1425 712.3705 373.42704 711.1139 L 383.91023 664.8132 C 384.63386 661.6171 385.7574 658.52504 387.25433 655.61 L 399.89535 630.9933 C 402.5964 625.7333 406.4581 621.1564 411.18846 617.60865 L 427.1208 605.6594 C 430.35395 603.23454 433.94437 601.32695 437.7635 600.00495 L 475.8884 586.80786 C 481.2322 584.9581 486.1098 581.96836 490.1831 578.0459 L 503.924 564.81395 C 508.552 560.3573 511.8649 554.7134 513.5 548.5 L 513.5 548.5 C 515.0945 542.4409 514.1 535.9917 510.75435 530.6944 L 510 529.5 C 506.22736 523.52666 499.83946 519.7028 492.79245 519.19946 L 436.65303 515.1895 C 434.8864 515.0633 433.1304 514.8169 431.39726 514.45205 L 400.5026 507.9479 C 397.51124 507.31816 394.6043 506.3389 391.84164 505.03025 L 386.5 502.5 C 380.3159 499.5707 375.1796 494.8143 371.78464 488.8731 L 371 487.5 C 367.13417 480.7348 365.8773 472.78887 367.4665 465.1608 L 369.5667 455.07976 C 369.85536 453.6943 370.2192 452.32554 370.65663 450.9796 L 382.4428 414.7145 C 382.7947 413.6317 382.63156 412.44735 382 411.5 L 382 411.5 C 381.41724 410.62586 381.52666 409.46296 382.26226 408.71287 L 572.5328 214.69318 C 579.86735 207.21408 589.9023 203 600.37766 203 L 617.5239 203 C 630.8947 203 643.3334 196.15038 650.482 184.85103 L 694.5787 115.14975 C 698.5515 108.87019 705.5757 105.19065 713 105.5 L 718.7128 105.73803 C 722.8773 105.91156 727.0428 105.41635 731.0505 104.27128 L 739 102 C 748.0233 99.42193 755.7989 93.64616 760.87355 85.75226 L 766.5629 76.90212 C 769.4889 72.35053 771.4358 67.239865 772.2797 61.89511 L 772.762 58.84065 C 773.579 53.66659 773.3452 48.38098 772.0748 43.29922 L 771.4971 40.98823 C 769.9041 34.616353 765.74145 29.189692 760 26 L 759.8342 25.907866 C 754.0404 22.68911 747.5219 21 740.8941 21 L 737.20665 21 C 731.1521 21 725.1807 22.409659 719.7653 25.11734 L 688.8608 40.56961 C 688.287 40.856494 687.7204 41.15749 687.1615 41.47232 L 535.92535 126.6623 C 532.0209 128.86164 528.63575 131.87584 526 135.5 L 526 135.5 C 523.40033 139.07454 522 143.38082 522 147.80074 L 522 153 C 522 160.69059 518.9793 168.07348 513.5885 173.55843 L 299.0905 391.8031 C 295.07934 395.88434 290.2192 399.03287 284.8549 401.02533 L 266.31723 407.91074 C 260.84236 409.94427 255.8941 413.18145 251.83776 417.3833 L 61.37518 614.6786 C 46.696336 629.8841 46.800226 654.0148 61.60945 669.09326 Z" stroke="black" stroke-linecap="round" stroke-linejoin="round" stroke-width="4"/>
      </g>
    </g>
    <g id="Guitar: Layer 3">
      <title>Layer 3</title>
      <g id="Graphic_19">
        <path d="M 524 165 L 575 213 L 382 410 L 330.68124 359.68124 Z" fill="#c7ab93"/>
        <path d="M 524 165 L 575 213 L 382 410 L 330.68124 359.68124 Z" stroke="black" stroke-linecap="round" stroke-linejoin="round" stroke-width="4"/>
      </g>
      <g id="Graphic_24">
        <path d="M 523 159 L 577.3333 213.33333 L 572.3775 218.2892 L 518.04413 163.95587 Z" fill="#ccc"/>
        <path d="M 523 159 L 577.3333 213.33333 L 572.3775 218.2892 L 518.04413 163.95587 Z" stroke="black" stroke-linecap="round" stroke-linejoin="round" stroke-width="1"/>
      </g>
      <g id="Graphic_20">
        <path d="M 126.51494 564.9901 L 199.12607 637.6012 L 189.22657 647.5007 L 116.61545 574.8896 Z" fill="black"/>
        <path d="M 126.51494 564.9901 L 199.12607 637.6012 L 189.22657 647.5007 L 116.61545 574.8896 Z" stroke="black" stroke-linecap="round" stroke-linejoin="round" stroke-width="1"/>
      </g>
      <g id="Line_5">
        <line x1="89.23529" y1="614.8138" x2="563.4025" y2="128.70982" stroke="black" stroke-linecap="round" stroke-linejoin="round" stroke-width="2"/>
      </g>
      <g id="Line_6">
        <line x1="114.34272" y1="607.44844" x2="596" y2="111.05634" stroke="black" stroke-linecap="round" stroke-linejoin="round" stroke-width="2"/>
      </g>
      <g id="Line_7">
        <line x1="123.53129" y1="614.8138" x2="636" y2="88.52113" stroke="black" stroke-linecap="round" stroke-linejoin="round" stroke-width="2"/>
      </g>
      <g id="Line_8">
        <line x1="133.63871" y1="622.1434" x2="669.8925" y2="67.258065" stroke="black" stroke-linecap="round" stroke-linejoin="round" stroke-width="2"/>
      </g>
      <g id="Line_9">
        <line x1="143.74613" y1="627.68525" x2="696.7742" y2="53.27957" stroke="black" stroke-linecap="round" stroke-linejoin="round" stroke-width="2"/>
      </g>
      <g id="Line_10">
        <line x1="149.76725" y1="637" x2="730.5294" y2="32.058824" stroke="black" stroke-linecap="round" stroke-linejoin="round" stroke-width="2"/>
      </g>
      <g id="Graphic_11">
        <path d="M 111.87006 581 L 169.43503 638.565 L 136.5 671.5 L 78.93503 613.935 Z" fill="#666"/>
        <path d="M 111.87006 581 L 169.43503 638.565 L 136.5 671.5 L 78.93503 613.935 Z" stroke="black" stroke-linecap="round" stroke-linejoin="round" stroke-width="3"/>
      </g>
      <g id="Graphic_12">
        <circle cx="568.2903" cy="123.69892" r="7.00001118531322" fill="black"/>
        <circle cx="568.2903" cy="123.69892" r="7.00001118531322" stroke="black" stroke-linecap="round" stroke-linejoin="round" stroke-width="1"/>
      </g>
      <g id="Graphic_13">
        <circle cx="599" cy="104.05634" r="7.00001118531325" fill="black"/>
        <circle cx="599" cy="104.05634" r="7.00001118531325" stroke="black" stroke-linecap="round" stroke-linejoin="round" stroke-width="1"/>
      </g>
      <g id="Graphic_14">
        <circle cx="634" cy="86" r="7.00001118531325" fill="black"/>
        <circle cx="634" cy="86" r="7.00001118531325" stroke="black" stroke-linecap="round" stroke-linejoin="round" stroke-width="1"/>
      </g>
      <g id="Graphic_15">
        <circle cx="667" cy="68" r="7.00001118531322" fill="black"/>
        <circle cx="667" cy="68" r="7.00001118531322" stroke="black" stroke-linecap="round" stroke-linejoin="round" stroke-width="1"/>
      </g>
      <g id="Graphic_16">
        <circle cx="698" cy="51" r="7.00001118531325" fill="black"/>
        <circle cx="698" cy="51" r="7.00001118531325" stroke="black" stroke-linecap="round" stroke-linejoin="round" stroke-width="1"/>
      </g>
      <g id="Graphic_17">
        <circle cx="731" cy="33" r="7.00001118531325" fill="black"/>
        <circle cx="731" cy="33" r="7.00001118531325" stroke="black" stroke-linecap="round" stroke-linejoin="round" stroke-width="1"/>
      </g>
      <g id="Graphic_22">
        <path d="M 268.97422 734.0643 C 268.93177 742.8087 261.80868 749.9318 253.06434 749.9742 C 244.32 750.0167 237.26577 742.9625 237.30826 734.21815 C 237.3507 725.4738 244.4738 718.3507 253.21815 718.3083 C 261.9625 718.2658 269.01672 725.32 268.97422 734.0643" fill="black"/>
        <path d="M 268.97422 734.0643 C 268.93177 742.8087 261.80868 749.9318 253.06434 749.9742 C 244.32 750.0167 237.26577 742.9625 237.30826 734.21815 C 237.3507 725.4738 244.4738 718.3507 253.21815 718.3083 C 261.9625 718.2658 269.01672 725.32 268.97422 734.0643" stroke="black" stroke-linecap="round" stroke-linejoin="round" stroke-width="1"/>
      </g>
      <g id="Graphic_23">
        <path d="M 342.8564 345 L 400.42136 402.56497 L 367.48633 435.5 L 309.92136 377.93503 Z" fill="#999"/>
        <path d="M 342.8564 345 L 400.42136 402.56497 L 367.48633 435.5 L 309.92136 377.93503 Z" stroke="black" stroke-linecap="round" stroke-linejoin="round" stroke-width="5"/>
      </g>
    </g>
  </g>
</svg>
