<?xml version="1.0" encoding="UTF-8" standalone="no"?>
<!DOCTYPE svg PUBLIC "-//W3C//DTD SVG 1.1//EN" "http://www.w3.org/Graphics/SVG/1.1/DTD/svg11.dtd">
<svg xmlns:xl="http://www.w3.org/1999/xlink" xmlns:dc="http://purl.org/dc/elements/1.1/" version="1.1" xmlns="http://www.w3.org/2000/svg" viewBox="0 0 850.394 850.394" width="850.394" height="850.394">
  <defs/>
  <metadata> Produced by OmniGraffle 7.9.4 
    <dc:date>2019-04-17 15:35:40 +0000</dc:date>
  </metadata>
  <g id="Guitarist" stroke-opacity="1" stroke="none" fill="none" fill-opacity="1" stroke-dasharray="none">
    <title>Guitarist</title>
    <g id="Guitarist: shirt">
      <title>shirt</title>
      <g id="Graphic_75">
        <path d="M 584 757 L 584 793 L 560 825 L 541 848 L 527 847 L 517 832 L 473 763 L 482 761 Z" fill="#333"/>
        <path d="M 584 757 L 584 793 L 560 825 L 541 848 L 527 847 L 517 832 L 473 763 L 482 761 Z" stroke="black" stroke-linecap="round" stroke-linejoin="round" stroke-width="5"/>
      </g>
      <g id="Graphic_76">
        <path d="M 85 704 L 78 787 L 98 849.5 L 125.5 849.5 L 103 769 L 105 684 L 88 678 Z" fill="#333"/>
        <path d="M 85 704 L 78 787 L 98 849.5 L 125.5 849.5 L 103 769 L 105 684 L 88 678 Z" stroke="black" stroke-linecap="round" stroke-linejoin="round" stroke-width="4"/>
      </g>
      <g id="Graphic_73">
        <path d="M 176.5 628.5 C 176.5 628.5 176.5 648.5 176.5 647.5 C 176.5 646.5 169.5 664.5 169.5 664.5 L 149.5 656.5 L 146.5 647 L 146.5 625 Z" fill="#333"/>
        <path d="M 176.5 628.5 C 176.5 628.5 176.5 648.5 176.5 647.5 C 176.5 646.5 169.5 664.5 169.5 664.5 L 149.5 656.5 L 146.5 647 L 146.5 625 Z" stroke="black" stroke-linecap="round" stroke-linejoin="round" stroke-width="5"/>
      </g>
      <g id="Graphic_72">
        <path d="M 188 628.5 L 188 643 L 188.5 658.5 C 188.5 658.5 199 664.5 199.5 664.5 C 200 664.5 200 642.5 200 642.5 L 200 626.5 L 198.5 613.5 Z" fill="#333"/>
        <path d="M 188 628.5 L 188 643 L 188.5 658.5 C 188.5 658.5 199 664.5 199.5 664.5 C 200 664.5 200 642.5 200 642.5 L 200 626.5 L 198.5 613.5 Z" stroke="black" stroke-linecap="round" stroke-linejoin="round" stroke-width="5"/>
      </g>
      <g id="Graphic_70">
        <path d="M 395.839 386.3518 L 539.3635 397.98893 C 539.4545 397.9963 539.5454 398.0048 539.63616 398.01446 L 585.83785 402.92083 C 591.56716 403.52926 595.8563 408.45545 595.6705 414.214 L 592.5036 512.38936 C 592.5012 512.4631 592.49955 512.5369 592.49866 512.6107 L 591.5102 594.15676 C 591.5034 594.7181 591.45365 595.2781 591.36136 595.8318 L 585.9306 628.4162 C 585.3466 631.92035 586.4908 635.4908 589.0028 638.0028 L 612 661 C 612 661 618.5 707 618.5 704.5 C 618.5 702 599 715 599 715 L 518.184 704.025 C 518.06135 704.0083 517.9384 703.99374 517.81525 703.9812 L 457.0152 697.8062 C 455.04183 697.6058 453.15937 696.8755 451.5671 695.6927 L 443.2735 689.53176 C 439.2779 686.5636 437.77333 681.28225 439.6048 676.654 L 473.5 591 C 473.5 591 482.5 562 482.5 561 C 482.5 560 430.5 469.5 430.5 469.5 L 385.8389 403.47923 C 382.43494 398.4473 383.75468 391.60867 388.7866 388.2047 C 390.85836 386.80323 393.3459 386.14967 395.839 386.3518 Z" fill="#333"/>
        <path d="M 395.839 386.3518 L 539.3635 397.98893 C 539.4545 397.9963 539.5454 398.0048 539.63616 398.01446 L 585.83785 402.92083 C 591.56716 403.52926 595.8563 408.45545 595.6705 414.214 L 592.5036 512.38936 C 592.5012 512.4631 592.49955 512.5369 592.49866 512.6107 L 591.5102 594.15676 C 591.5034 594.7181 591.45365 595.2781 591.36136 595.8318 L 585.9306 628.4162 C 585.3466 631.92035 586.4908 635.4908 589.0028 638.0028 L 612 661 C 612 661 618.5 707 618.5 704.5 C 618.5 702 599 715 599 715 L 518.184 704.025 C 518.06135 704.0083 517.9384 703.99374 517.81525 703.9812 L 457.0152 697.8062 C 455.04183 697.6058 453.15937 696.8755 451.5671 695.6927 L 443.2735 689.53176 C 439.2779 686.5636 437.77333 681.28225 439.6048 676.654 L 473.5 591 C 473.5 591 482.5 562 482.5 561 C 482.5 560 430.5 469.5 430.5 469.5 L 385.8389 403.47923 C 382.43494 398.4473 383.75468 391.60867 388.7866 388.2047 C 390.85836 386.80323 393.3459 386.14967 395.839 386.3518 Z" stroke="black" stroke-linecap="round" stroke-linejoin="round" stroke-width="5"/>
      </g>
      <g id="Graphic_69">
        <path d="M 394.5 415.5 C 394.5 415.5 568 427 568 426.5 C 568 426 564.5 599 564.5 599 L 558.5 658 C 558.5 658 482.5 684.5 482.5 685 C 482.5 685.5 383.5 686 383.5 686 C 383.5 686 365.5 573.5 365.5 574 C 365.5 574.5 365.5 574.5 365.5 574.5 Z" fill="#666"/>
        <path d="M 394.5 415.5 C 394.5 415.5 568 427 568 426.5 C 568 426 564.5 599 564.5 599 L 558.5 658 C 558.5 658 482.5 684.5 482.5 685 C 482.5 685.5 383.5 686 383.5 686 C 383.5 686 365.5 573.5 365.5 574 C 365.5 574.5 365.5 574.5 365.5 574.5 Z" stroke="black" stroke-linecap="round" stroke-linejoin="round" stroke-width="5"/>
      </g>
      <g id="Graphic_65">
        <path d="M 191 615 L 195 605 L 188 587 L 141 583 L 131 586 L 115 586 L 115 599 L 133 617 L 143 639 L 165 639 L 195 623 Z" fill="#333"/>
        <path d="M 191 615 L 195 605 L 188 587 L 141 583 L 131 586 L 115 586 L 115 599 L 133 617 L 143 639 L 165 639 L 195 623 Z" stroke="black" stroke-linecap="round" stroke-linejoin="round" stroke-width="5"/>
      </g>
      <g id="Line_68">
        <path d="M 568.2519 429.7481 L 577.31034 415.5 L 592.48276 408.0668" stroke="black" stroke-linecap="round" stroke-linejoin="round" stroke-width="5"/>
      </g>
      <g id="Graphic_74">
        <path d="M 286.5 712 L 236.5 827 L 283 849 L 429 848 L 527.5 844 C 527.5 844 528.5 796 527.5 796 C 526.5 796 526.5 796 526.5 796 Z" fill="#333"/>
        <path d="M 286.5 712 L 236.5 827 L 283 849 L 429 848 L 527.5 844 C 527.5 844 528.5 796 527.5 796 C 526.5 796 526.5 796 526.5 796 Z" stroke="black" stroke-linecap="round" stroke-linejoin="round" stroke-width="5"/>
      </g>
      <g id="Graphic_78">
        <path d="M 200 673 C 200 672 194 726 194 726 C 194 726 226.5 768 227 768.5 C 227.5 769 271 694 271 694 L 228 658.5 C 228 658.5 200 674 200 673 Z" fill="#333"/>
        <path d="M 200 673 C 200 672 194 726 194 726 C 194 726 226.5 768 227 768.5 C 227.5 769 271 694 271 694 L 228 658.5 C 228 658.5 200 674 200 673 Z" stroke="black" stroke-linecap="round" stroke-linejoin="round" stroke-width="5"/>
      </g>
      <g id="Graphic_38">
        <path d="M 237.01187 411.9655 L 220.2518 386.3843 C 220.08407 386.1283 219.9018 385.88215 219.70587 385.64704 L 199.85387 361.82465 C 197.13206 358.55847 197.44048 353.73384 200.55603 350.84082 L 207.7905 344.1231 C 208.58843 343.38217 209.2267 342.48614 209.66623 341.4899 L 224 309 C 224 309 247 301 248 301 C 249 301 274 299 274 299 L 296.1198 330.7371 C 296.70126 331.57137 297.43647 332.28715 298.28604 332.84608 L 330.64815 354.13694 C 333.29368 355.8774 336.71685 355.8936 339.3787 354.17817 L 378.0997 329.22463 C 379.34224 328.4239 380.3386 327.29454 380.9783 325.9619 L 389.19513 308.84347 C 390.83036 305.43675 394.62634 303.63884 398.29813 304.53198 L 427.875 311.72635 C 428.6211 311.90784 429.3372 312.1958 430.00126 312.58138 L 457.9314 328.7989 C 459.28095 329.5825 460.37185 330.7437 461.06974 332.1395 L 483.7943 377.58855 C 483.9313 377.86262 484.0525 378.14434 484.1572 378.4323 L 495.7825 410.40185 C 495.92727 410.8 496.0402 411.209 496.1202 411.625 L 500.57475 434.7887 C 500.85285 436.2348 500.7264 437.7296 500.2093 439.10845 L 487.6971 472.4744 C 487.56586 472.8244 487.4593 473.1831 487.37823 473.54796 L 481.6501 499.32457 C 481.5502 499.774 481.4893 500.23125 481.4681 500.6912 L 478.5776 563.3183 C 478.52643 564.4273 478.7066 565.5348 479.1067 566.57034 L 484.06663 579.40776 C 485.659 583.5291 483.6088 588.161 479.48744 589.75334 C 479.44453 589.7699 479.4015 589.7861 479.3583 589.80196 L 457.49646 597.818 C 457.16585 597.9392 456.8436 598.0821 456.5318 598.2458 L 424.045 615.3014 C 420.148 617.3473 415.3303 615.861 413.26335 611.9751 L 398.7821 584.7504 C 396.70724 580.8496 391.863 579.3694 387.96224 581.4443 C 386.63737 582.149 385.53743 583.2122 384.78806 584.5123 L 312.0147 710.7697 C 310.2304 713.8653 306.60967 715.4024 303.14332 714.5358 L 233.45357 697.1134 C 233.15145 697.0379 232.854 696.94475 232.56272 696.83454 L 201.46892 685.0693 C 198.21164 683.8368 196.12594 680.6387 196.31141 677.161 L 199.9741 608.4855 C 199.99135 608.1621 200.02821 607.8401 200.08449 607.52124 L 208.92478 557.42625 C 208.9749 557.1423 209.0096 556.8558 209.0288 556.5681 L 211.94529 512.8207 C 211.98167 512.275 212.0739 511.7345 212.22056 511.2076 L 238.02718 418.49494 C 238.64543 416.27383 238.27537 413.894 237.01187 411.9655 Z" fill="#004d00"/>
        <path d="M 237.01187 411.9655 L 220.2518 386.3843 C 220.08407 386.1283 219.9018 385.88215 219.70587 385.64704 L 199.85387 361.82465 C 197.13206 358.55847 197.44048 353.73384 200.55603 350.84082 L 207.7905 344.1231 C 208.58843 343.38217 209.2267 342.48614 209.66623 341.4899 L 224 309 C 224 309 247 301 248 301 C 249 301 274 299 274 299 L 296.1198 330.7371 C 296.70126 331.57137 297.43647 332.28715 298.28604 332.84608 L 330.64815 354.13694 C 333.29368 355.8774 336.71685 355.8936 339.3787 354.17817 L 378.0997 329.22463 C 379.34224 328.4239 380.3386 327.29454 380.9783 325.9619 L 389.19513 308.84347 C 390.83036 305.43675 394.62634 303.63884 398.29813 304.53198 L 427.875 311.72635 C 428.6211 311.90784 429.3372 312.1958 430.00126 312.58138 L 457.9314 328.7989 C 459.28095 329.5825 460.37185 330.7437 461.06974 332.1395 L 483.7943 377.58855 C 483.9313 377.86262 484.0525 378.14434 484.1572 378.4323 L 495.7825 410.40185 C 495.92727 410.8 496.0402 411.209 496.1202 411.625 L 500.57475 434.7887 C 500.85285 436.2348 500.7264 437.7296 500.2093 439.10845 L 487.6971 472.4744 C 487.56586 472.8244 487.4593 473.1831 487.37823 473.54796 L 481.6501 499.32457 C 481.5502 499.774 481.4893 500.23125 481.4681 500.6912 L 478.5776 563.3183 C 478.52643 564.4273 478.7066 565.5348 479.1067 566.57034 L 484.06663 579.40776 C 485.659 583.5291 483.6088 588.161 479.48744 589.75334 C 479.44453 589.7699 479.4015 589.7861 479.3583 589.80196 L 457.49646 597.818 C 457.16585 597.9392 456.8436 598.0821 456.5318 598.2458 L 424.045 615.3014 C 420.148 617.3473 415.3303 615.861 413.26335 611.9751 L 398.7821 584.7504 C 396.70724 580.8496 391.863 579.3694 387.96224 581.4443 C 386.63737 582.149 385.53743 583.2122 384.78806 584.5123 L 312.0147 710.7697 C 310.2304 713.8653 306.60967 715.4024 303.14332 714.5358 L 233.45357 697.1134 C 233.15145 697.0379 232.854 696.94475 232.56272 696.83454 L 201.46892 685.0693 C 198.21164 683.8368 196.12594 680.6387 196.31141 677.161 L 199.9741 608.4855 C 199.99135 608.1621 200.02821 607.8401 200.08449 607.52124 L 208.92478 557.42625 C 208.9749 557.1423 209.0096 556.8558 209.0288 556.5681 L 211.94529 512.8207 C 211.98167 512.275 212.0739 511.7345 212.22056 511.2076 L 238.02718 418.49494 C 238.64543 416.27383 238.27537 413.894 237.01187 411.9655 Z" stroke="black" stroke-linecap="round" stroke-linejoin="round" stroke-width="5"/>
      </g>
    </g>
    <g id="Guitarist: Layer 3">
      <title>Layer 3</title>
      <g id="Group_33">
        <g id="Graphic_25">
          <path d="M 672.833 614.6192 L 669.9829 622.4498 L 662.1523 619.5997 L 665.0024 611.7691 Z" fill="#999"/>
          <path d="M 672.833 614.6192 L 669.9829 622.4498 L 662.1523 619.5997 L 665.0024 611.7691 Z" stroke="black" stroke-linecap="round" stroke-linejoin="round" stroke-width="3"/>
        </g>
        <g id="Graphic_26">
          <path d="M 689.728 628.2402 L 686.87786 636.0708 L 679.04724 633.2207 L 681.89735 625.3901 Z" fill="#999"/>
          <path d="M 689.728 628.2402 L 686.87786 636.0708 L 679.04724 633.2207 L 681.89735 625.3901 Z" stroke="black" stroke-linecap="round" stroke-linejoin="round" stroke-width="3"/>
        </g>
        <g id="Graphic_27">
          <path d="M 708.6251 641.12926 L 705.775 648.9599 L 697.9444 646.1098 L 700.7945 638.27915 Z" fill="#999"/>
          <path d="M 708.6251 641.12926 L 705.775 648.9599 L 697.9444 646.1098 L 700.7945 638.27915 Z" stroke="black" stroke-linecap="round" stroke-linejoin="round" stroke-width="3"/>
        </g>
        <g id="Graphic_28">
          <path d="M 727.3907 654.0797 L 724.5406 661.9103 L 716.71 659.0602 L 719.5601 651.2296 Z" fill="#999"/>
          <path d="M 727.3907 654.0797 L 724.5406 661.9103 L 716.71 659.0602 L 719.5601 651.2296 Z" stroke="black" stroke-linecap="round" stroke-linejoin="round" stroke-width="3"/>
        </g>
        <g id="Graphic_29">
          <path d="M 747.217 667.995 L 744.36685 675.8256 L 736.5362 672.9755 L 739.3863 665.1449 Z" fill="#999"/>
          <path d="M 747.217 667.995 L 744.36685 675.8256 L 736.5362 672.9755 L 739.3863 665.1449 Z" stroke="black" stroke-linecap="round" stroke-linejoin="round" stroke-width="3"/>
        </g>
        <g id="Graphic_30">
          <path d="M 761.9644 680.1405 L 759.1143 687.9711 L 751.2837 685.121 L 754.1338 677.2904 Z" fill="#999"/>
          <path d="M 761.9644 680.1405 L 759.1143 687.9711 L 751.2837 685.121 L 754.1338 677.2904 Z" stroke="black" stroke-linecap="round" stroke-linejoin="round" stroke-width="3"/>
        </g>
        <g id="Graphic_18">
          <path d="M 235.729 506.05396 L 203.72234 591.5861 C 201.24834 598.1974 200.93423 605.4229 202.82515 612.22396 L 204.87012 619.5791 C 205.44555 621.6487 206.191 623.6673 207.09884 625.6142 L 211.8531 635.80974 C 214.28445 641.0238 217.83924 645.63535 222.26264 649.31384 L 235.6126 660.4156 C 240.05796 664.1124 245.26964 666.7745 250.8704 668.2094 L 264.47296 671.69414 C 269.08707 672.8762 273.87867 673.20305 278.61055 672.6585 L 293.8406 670.9057 C 295.12057 670.7584 296.39246 670.5478 297.6516 670.27455 L 322.5489 664.87225 C 325.7513 664.1774 329.02852 663.8889 332.30308 664.0136 L 343.13205 664.426 C 349.0407 664.6511 354.82082 666.2167 360.0353 669.0045 L 365.10464 671.7147 C 368.6687 673.6201 371.91495 676.068 374.7271 678.97056 L 387.30136 691.9491 C 391.2362 696.0105 396.0072 699.1676 401.2836 701.20156 L 408.63627 704.0359 C 412.20464 705.41146 416.08264 705.7789 419.84585 705.0979 L 419.84585 705.0979 C 423.5156 704.4339 426.7445 702.2751 428.76055 699.1377 L 429.2151 698.4303 C 431.48846 694.8925 431.94436 690.4846 430.4432 686.5564 L 418.86867 656.2685 C 418.2364 654.6141 417.7176 652.9185 417.31584 651.1935 L 413.7196 635.7535 C 413.02616 632.77625 412.68516 629.7278 412.70363 626.67094 L 412.71363 625.0153 C 412.73824 620.9424 414.01205 616.9751 416.36306 613.6491 L 416.9064 612.8804 C 419.5835 609.09314 423.55383 606.4163 428.0686 605.3547 L 433.19816 604.1486 C 434.5758 603.8247 435.9701 603.576 437.37477 603.4036 L 459.0496 600.7439 C 459.7223 600.6613 460.32014 600.2754 460.6723 599.6964 L 460.6723 599.6964 C 460.9973 599.1621 461.65215 598.9286 462.24184 599.13675 L 608.5277 650.7699 C 618.4004 654.2546 626.4562 661.5644 630.88084 671.0531 L 630.88084 671.0531 C 635.18774 680.2893 643.92595 686.6753 654.0339 687.9737 L 699.1711 693.7716 C 703.558 694.3351 707.30995 697.1987 709.0107 701.28165 L 709.3399 702.0721 C 710.9427 705.9198 713.1519 709.4856 715.8834 712.634 L 717.4392 714.4271 C 721.0998 718.6463 726.1715 721.388 731.7065 722.1398 L 737.0789 722.86956 C 740.8197 723.3777 744.6253 723.1018 748.2537 722.0595 L 748.2537 722.0595 C 751.8846 721.0165 755.2682 719.2527 758.20255 716.87345 L 758.5272 716.6102 C 761.56385 714.148 763.4442 710.5373 763.7206 706.6377 L 763.7206 706.6377 C 764.0048 702.6286 763.2626 698.6133 761.564 694.9707 L 761.26105 694.321 C 759.3586 690.24125 756.5324 686.6604 753.0063 683.8622 L 738.2707 672.16824 C 737.7682 671.7695 737.256 671.3832 736.73445 671.0097 L 653.0508 611.08076 C 650.88214 609.5277 648.40456 608.4598 645.78644 607.9496 L 645.78644 607.9496 C 643.2042 607.4464 640.52886 607.7742 638.1445 608.88606 L 635.3397 610.19395 C 631.191 612.12854 626.4483 612.3562 622.1334 610.82784 L 453.757 551.1896 C 448.36296 549.27905 443.45544 546.2049 439.3826 542.1852 L 436.06426 538.9102 C 431.9075 534.8077 426.88237 531.6911 421.3599 529.7906 L 284.9464 482.845 C 264.96205 475.96756 243.1361 486.2598 235.729 506.05396 Z" fill="#a58465"/>
          <path d="M 235.729 506.05396 L 203.72234 591.5861 C 201.24834 598.1974 200.93423 605.4229 202.82515 612.22396 L 204.87012 619.5791 C 205.44555 621.6487 206.191 623.6673 207.09884 625.6142 L 211.8531 635.80974 C 214.28445 641.0238 217.83924 645.63535 222.26264 649.31384 L 235.6126 660.4156 C 240.05796 664.1124 245.26964 666.7745 250.8704 668.2094 L 264.47296 671.69414 C 269.08707 672.8762 273.87867 673.20305 278.61055 672.6585 L 293.8406 670.9057 C 295.12057 670.7584 296.39246 670.5478 297.6516 670.27455 L 322.5489 664.87225 C 325.7513 664.1774 329.02852 663.8889 332.30308 664.0136 L 343.13205 664.426 C 349.0407 664.6511 354.82082 666.2167 360.0353 669.0045 L 365.10464 671.7147 C 368.6687 673.6201 371.91495 676.068 374.7271 678.97056 L 387.30136 691.9491 C 391.2362 696.0105 396.0072 699.1676 401.2836 701.20156 L 408.63627 704.0359 C 412.20464 705.41146 416.08264 705.7789 419.84585 705.0979 L 419.84585 705.0979 C 423.5156 704.4339 426.7445 702.2751 428.76055 699.1377 L 429.2151 698.4303 C 431.48846 694.8925 431.94436 690.4846 430.4432 686.5564 L 418.86867 656.2685 C 418.2364 654.6141 417.7176 652.9185 417.31584 651.1935 L 413.7196 635.7535 C 413.02616 632.77625 412.68516 629.7278 412.70363 626.67094 L 412.71363 625.0153 C 412.73824 620.9424 414.01205 616.9751 416.36306 613.6491 L 416.9064 612.8804 C 419.5835 609.09314 423.55383 606.4163 428.0686 605.3547 L 433.19816 604.1486 C 434.5758 603.8247 435.9701 603.576 437.37477 603.4036 L 459.0496 600.7439 C 459.7223 600.6613 460.32014 600.2754 460.6723 599.6964 L 460.6723 599.6964 C 460.9973 599.1621 461.65215 598.9286 462.24184 599.13675 L 608.5277 650.7699 C 618.4004 654.2546 626.4562 661.5644 630.88084 671.0531 L 630.88084 671.0531 C 635.18774 680.2893 643.92595 686.6753 654.0339 687.9737 L 699.1711 693.7716 C 703.558 694.3351 707.30995 697.1987 709.0107 701.28165 L 709.3399 702.0721 C 710.9427 705.9198 713.1519 709.4856 715.8834 712.634 L 717.4392 714.4271 C 721.0998 718.6463 726.1715 721.388 731.7065 722.1398 L 737.0789 722.86956 C 740.8197 723.3777 744.6253 723.1018 748.2537 722.0595 L 748.2537 722.0595 C 751.8846 721.0165 755.2682 719.2527 758.20255 716.87345 L 758.5272 716.6102 C 761.56385 714.148 763.4442 710.5373 763.7206 706.6377 L 763.7206 706.6377 C 764.0048 702.6286 763.2626 698.6133 761.564 694.9707 L 761.26105 694.321 C 759.3586 690.24125 756.5324 686.6604 753.0063 683.8622 L 738.2707 672.16824 C 737.7682 671.7695 737.256 671.3832 736.73445 671.0097 L 653.0508 611.08076 C 650.88214 609.5277 648.40456 608.4598 645.78644 607.9496 L 645.78644 607.9496 C 643.2042 607.4464 640.52886 607.7742 638.1445 608.88606 L 635.3397 610.19395 C 631.191 612.12854 626.4483 612.3562 622.1334 610.82784 L 453.757 551.1896 C 448.36296 549.27905 443.45544 546.2049 439.3826 542.1852 L 436.06426 538.9102 C 431.9075 534.8077 426.88237 531.6911 421.3599 529.7906 L 284.9464 482.845 C 264.96205 475.96756 243.1361 486.2598 235.729 506.05396 Z" stroke="black" stroke-linecap="round" stroke-linejoin="round" stroke-width="4"/>
        </g>
        <g id="Graphic_19">
          <path d="M 629.3693 614.2915 L 616.30456 653.8784 L 461.4815 599.31905 L 475.71696 558.9769 Z" fill="#c7ab93"/>
          <path d="M 629.3693 614.2915 L 616.30456 653.8784 L 461.4815 599.31905 L 475.71696 558.9769 Z" stroke="black" stroke-linecap="round" stroke-linejoin="round" stroke-width="4"/>
        </g>
        <g id="Graphic_24">
          <path d="M 632.3545 612.2427 L 616.7117 655.221 L 612.79155 653.7942 L 628.4344 610.8159 Z" fill="#ccc"/>
          <path d="M 632.3545 612.2427 L 616.7117 655.221 L 612.79155 653.7942 L 628.4344 610.8159 Z" stroke="black" stroke-linecap="round" stroke-linejoin="round" stroke-width="1"/>
        </g>
        <g id="Graphic_20">
          <path d="M 313.60272 500.48386 L 292.69764 557.9201 L 284.86703 555.07 L 305.7721 497.63375 Z" fill="black"/>
          <path d="M 313.60272 500.48386 L 292.69764 557.9201 L 284.86703 555.07 L 305.7721 497.63375 Z" stroke="black" stroke-linecap="round" stroke-linejoin="round" stroke-width="1"/>
        </g>
        <g id="Line_5">
          <line x1="296.37288" y1="498.5593" x2="658.86156" y2="626.409" stroke="black" stroke-linecap="round" stroke-linejoin="round" stroke-width="2"/>
        </g>
        <g id="Line_6">
          <line x1="287.63625" y1="504.598" x2="676.5815" y2="639.5628" stroke="black" stroke-linecap="round" stroke-linejoin="round" stroke-width="2"/>
        </g>
        <g id="Line_7">
          <line x1="285.97438" y1="511.4076" x2="698.80045" y2="655.4723" stroke="black" stroke-linecap="round" stroke-linejoin="round" stroke-width="2"/>
        </g>
        <g id="Line_8">
          <line x1="284.56293" y1="518.70394" x2="718.79675" y2="668.4071" stroke="black" stroke-linecap="round" stroke-linejoin="round" stroke-width="2"/>
        </g>
        <g id="Line_9">
          <line x1="284.11587" y1="525.55055" x2="733.09975" y2="679.3923" stroke="black" stroke-linecap="round" stroke-linejoin="round" stroke-width="2"/>
        </g>
        <g id="Line_10">
          <line x1="280.6056" y1="531.14185" x2="753.0387" y2="692.26366" stroke="black" stroke-linecap="round" stroke-linejoin="round" stroke-width="2"/>
        </g>
        <g id="Graphic_11">
          <path d="M 301.28207 496.6109 L 284.70885 542.14547 L 258.65686 532.6633 L 275.2301 487.12877 Z" fill="#666"/>
          <path d="M 301.28207 496.6109 L 284.70885 542.14547 L 258.65686 532.6633 L 275.2301 487.12877 Z" stroke="black" stroke-linecap="round" stroke-linejoin="round" stroke-width="3"/>
        </g>
        <g id="Graphic_12">
          <circle cx="662.7909" cy="627.79485" r="4.16658946496087" fill="black"/>
          <circle cx="662.7909" cy="627.79485" r="4.16658946496087" stroke="black" stroke-linecap="round" stroke-linejoin="round" stroke-width="1"/>
        </g>
        <g id="Graphic_13">
          <circle cx="681.1124" cy="639.4203" r="4.16658946496086" fill="black"/>
          <circle cx="681.1124" cy="639.4203" r="4.16658946496086" stroke="black" stroke-linecap="round" stroke-linejoin="round" stroke-width="1"/>
        </g>
        <g id="Graphic_14">
          <circle cx="699.6574" cy="653.7592" r="4.16658946496087" fill="black"/>
          <circle cx="699.6574" cy="653.7592" r="4.16658946496087" stroke="black" stroke-linecap="round" stroke-linejoin="round" stroke-width="1"/>
        </g>
        <g id="Graphic_15">
          <circle cx="717.6689" cy="667.0333" r="4.16658946496085" fill="black"/>
          <circle cx="717.6689" cy="667.0333" r="4.16658946496085" stroke="black" stroke-linecap="round" stroke-linejoin="round" stroke-width="1"/>
        </g>
        <g id="Graphic_16">
          <circle cx="734.6378" cy="679.4801" r="4.16658946496085" fill="black"/>
          <circle cx="734.6378" cy="679.4801" r="4.16658946496085" stroke="black" stroke-linecap="round" stroke-linejoin="round" stroke-width="1"/>
        </g>
        <g id="Graphic_17">
          <circle cx="752.64935" cy="692.7543" r="4.16658946496085" fill="black"/>
          <circle cx="752.64935" cy="692.7543" r="4.16658946496085" stroke="black" stroke-linecap="round" stroke-linejoin="round" stroke-width="1"/>
        </g>
        <g id="Graphic_22">
          <path d="M 258.23037 619.8659 C 253.5025 622.04265 247.86804 619.9919 245.64547 615.28535 C 243.42288 610.57884 245.45382 604.99886 250.18172 602.8221 C 254.9096 600.64534 260.54405 602.6961 262.76662 607.40264 C 264.9892 612.10916 262.95826 617.68914 258.23037 619.8659" fill="black"/>
          <path d="M 258.23037 619.8659 C 253.5025 622.04265 247.86804 619.9919 245.64547 615.28535 C 243.42288 610.57884 245.45382 604.99886 250.18172 602.8221 C 254.9096 600.64534 260.54405 602.6961 262.76662 607.40264 C 264.9892 612.10916 262.95826 617.68914 258.23037 619.8659" stroke="black" stroke-linecap="round" stroke-linejoin="round" stroke-width="1"/>
        </g>
        <g id="Graphic_23">
          <path d="M 486.6996 561.85174 L 470.12635 607.3863 L 444.07437 597.90415 L 460.6476 552.3696 Z" fill="#999"/>
          <path d="M 486.6996 561.85174 L 470.12635 607.3863 L 444.07437 597.90415 L 460.6476 552.3696 Z" stroke="black" stroke-linecap="round" stroke-linejoin="round" stroke-width="5"/>
        </g>
      </g>
    </g>
    <g id="Guitarist: jk">
      <title>jk</title>
      <g id="Graphic_77">
        <path d="M 160.5 645.5 L 201 621 L 204 656 L 169 666 L 160 662.5 Z" fill="#333"/>
        <path d="M 160.5 645.5 L 201 621 L 204 656 L 169 666 L 160 662.5 Z" stroke="black" stroke-linecap="round" stroke-linejoin="round" stroke-width="5"/>
      </g>
      <g id="Graphic_62">
        <path d="M 385 758 L 350 743 L 380 783 L 409 847 L 459 849 L 528 849 L 517 798 L 492 767 L 457 762 Z" fill="#3f342d"/>
        <path d="M 385 758 L 350 743 L 380 783 L 409 847 L 459 849 L 528 849 L 517 798 L 492 767 L 457 762 Z" stroke="black" stroke-linecap="round" stroke-linejoin="round" stroke-width="5"/>
      </g>
      <g id="Graphic_67">
        <path d="M 177 586 L 178 579 L 175 577 L 176 568 L 166 562 L 166 547 L 164 542 L 158 541 L 152 547 L 155 556 L 154 562 L 148 566 L 147 570 L 153 578 L 154 585 L 160 590 Z" fill="#666"/>
        <path d="M 177 586 L 178 579 L 175 577 L 176 568 L 166 562 L 166 547 L 164 542 L 158 541 L 152 547 L 155 556 L 154 562 L 148 566 L 147 570 L 153 578 L 154 585 L 160 590 Z" stroke="black" stroke-linecap="round" stroke-linejoin="round" stroke-width="5"/>
      </g>
      <g id="Graphic_61">
        <path d="M 214 695 L 176 725 L 158 778 L 158.5 848.5 L 171 848 L 280 849 L 312 811 L 324 765 L 289 702 Z" fill="#3f342d"/>
        <path d="M 214 695 L 176 725 L 158 778 L 158.5 848.5 L 171 848 L 280 849 L 312 811 L 324 765 L 289 702 Z" stroke="black" stroke-linecap="round" stroke-linejoin="round" stroke-width="6"/>
      </g>
      <g id="Graphic_60">
        <path d="M 236 713 L 212 734 L 209 760 L 498 776 L 575 772 L 634 746 L 639 717 L 613 706 L 491 699 Z" fill="#333"/>
        <path d="M 236 713 L 212 734 L 209 760 L 498 776 L 575 772 L 634 746 L 639 717 L 613 706 L 491 699 Z" stroke="black" stroke-linecap="round" stroke-linejoin="round" stroke-width="6"/>
      </g>
      <g id="Graphic_43">
        <path d="M 271.5 284 L 269.5 262 L 269 247 L 267 231 L 264.5 220 L 267 203 L 276 184.5 L 282.5 165 L 292.5 155.5 L 312 142.5 L 328.5 141 L 348 149 L 363 150 L 361.5 152.5 L 370 154.5 L 370 157 L 380 167 L 376.5 168 L 385.5 173.5 C 385.5 173.5 385 180 385 180.5 C 385 181 390.5 193.5 390.5 193.5 L 390.5 200.5 L 392 203.5 L 398 212 L 398 221.5 L 402.5 234 L 402 240 L 402.5 257 C 402.5 257 394.5 268.5 394.5 268 C 394.5 267.5 390 276 390 276 L 384 260.5 L 378 254 L 370.5 235 L 362.5 232.5 L 353.5 234 L 340.5 237 L 327 251.5 C 327 251.5 312 248 311.5 248 C 311 248 294.5 241.5 294.5 241.5 L 283 233 L 278.5 235 L 278.5 241.5 L 279.5 248.5 L 274 266 Z" fill="#92673c"/>
        <path d="M 271.5 284 L 269.5 262 L 269 247 L 267 231 L 264.5 220 L 267 203 L 276 184.5 L 282.5 165 L 292.5 155.5 L 312 142.5 L 328.5 141 L 348 149 L 363 150 L 361.5 152.5 L 370 154.5 L 370 157 L 380 167 L 376.5 168 L 385.5 173.5 C 385.5 173.5 385 180 385 180.5 C 385 181 390.5 193.5 390.5 193.5 L 390.5 200.5 L 392 203.5 L 398 212 L 398 221.5 L 402.5 234 L 402 240 L 402.5 257 C 402.5 257 394.5 268.5 394.5 268 C 394.5 267.5 390 276 390 276 L 384 260.5 L 378 254 L 370.5 235 L 362.5 232.5 L 353.5 234 L 340.5 237 L 327 251.5 C 327 251.5 312 248 311.5 248 C 311 248 294.5 241.5 294.5 241.5 L 283 233 L 278.5 235 L 278.5 241.5 L 279.5 248.5 L 274 266 Z" stroke="black" stroke-linecap="round" stroke-linejoin="round" stroke-width="5"/>
      </g>
      <g id="Graphic_42">
        <path d="M 387.5 257 L 399.5 238.5 L 397.5 273 L 395 278 L 391 290.5 L 386 290.5 L 386 269.5 Z" fill="#fff2cc"/>
        <path d="M 387.5 257 L 399.5 238.5 L 397.5 273 L 395 278 L 391 290.5 L 386 290.5 L 386 269.5 Z" stroke="black" stroke-linecap="round" stroke-linejoin="round" stroke-width="4"/>
      </g>
      <g id="Graphic_35">
        <path d="M 208 370.4 L 236.8 410.2 L 244.8 461.4 L 248.4 471.4 L 287.6 473.2 L 343.4 460.8 L 351.4 460.4 L 364.2 467.2 L 371.4 473.2 L 382.4 493.6 L 390 504 L 392.4 509 L 391.2 516.4 L 386.2 521.2 L 377.4 529.2 L 371.8 536.8 C 371.8 536.8 363.2 544.6 363.2 544.8 C 363.2 545 349 553 349 553 L 344 555.6 L 330.2 564.8 L 320.2 562.4 L 320.4 557.8 L 328.2 553.6 L 336 536 L 335.8 515.4 L 335.4 504.4 L 335.8 503.6 L 317.4 501.4 L 306.8 501.2 C 306.8 501.2 280.6 510.8 280.6 510.6 C 280.6 510.4 251.6 520.8 251.6 520.8 L 214 524.2 L 207.8 513.6 L 203.8 499.2 L 201.6 435.4 L 205.6 379.6 Z" fill="#fff2cc"/>
        <path d="M 208 370.4 L 236.8 410.2 L 244.8 461.4 L 248.4 471.4 L 287.6 473.2 L 343.4 460.8 L 351.4 460.4 L 364.2 467.2 L 371.4 473.2 L 382.4 493.6 L 390 504 L 392.4 509 L 391.2 516.4 L 386.2 521.2 L 377.4 529.2 L 371.8 536.8 C 371.8 536.8 363.2 544.6 363.2 544.8 C 363.2 545 349 553 349 553 L 344 555.6 L 330.2 564.8 L 320.2 562.4 L 320.4 557.8 L 328.2 553.6 L 336 536 L 335.8 515.4 L 335.4 504.4 L 335.8 503.6 L 317.4 501.4 L 306.8 501.2 C 306.8 501.2 280.6 510.8 280.6 510.6 C 280.6 510.4 251.6 520.8 251.6 520.8 L 214 524.2 L 207.8 513.6 L 203.8 499.2 L 201.6 435.4 L 205.6 379.6 Z" stroke="black" stroke-linecap="round" stroke-linejoin="round" stroke-width="5"/>
      </g>
      <g id="Graphic_36">
        <path d="M 470.5 383 L 458 371.5 L 443 375.5 L 432 393.5 L 432.5 442 L 430.5 473.5 L 411 515.5 L 395.5 534.5 L 379 560 L 364 603.5 L 361 618 L 411 589.5 L 433 563 L 446 544 L 457.5 525 L 464.5 502 L 464.5 497.5 L 468 488 L 475 462 L 487 449 L 480.5 419.5 L 476.5 395.5 Z" fill="#fff2cc"/>
        <path d="M 470.5 383 L 458 371.5 L 443 375.5 L 432 393.5 L 432.5 442 L 430.5 473.5 L 411 515.5 L 395.5 534.5 L 379 560 L 364 603.5 L 361 618 L 411 589.5 L 433 563 L 446 544 L 457.5 525 L 464.5 502 L 464.5 497.5 L 468 488 L 475 462 L 487 449 L 480.5 419.5 L 476.5 395.5 Z" stroke="black" stroke-linecap="round" stroke-linejoin="round" stroke-width="5"/>
      </g>
      <g id="Line_37">
        <path d="M 465.9392 494.5674 L 467.5608 469.6365 L 467.5608 440.6326" stroke="black" stroke-linecap="round" stroke-linejoin="round" stroke-width="5"/>
      </g>
      <g id="Graphic_39">
        <path d="M 289 697 C 289 697 337 644 337 643 C 337 642 366 610 366 610 L 391 597 L 538 590 L 540 602 L 531 606 L 426 609 L 386 609 L 328 669 L 299 701 Z" fill="#999"/>
        <path d="M 289 697 C 289 697 337 644 337 643 C 337 642 366 610 366 610 L 391 597 L 538 590 L 540 602 L 531 606 L 426 609 L 386 609 L 328 669 L 299 701 Z" stroke="black" stroke-linecap="round" stroke-linejoin="round" stroke-width="5"/>
      </g>
      <g id="Graphic_40">
        <path d="M 386 608 L 421 609 L 538 603 L 538 606 L 478 675 L 455 689 L 392 688 C 392 688 318 694 317 694 C 316 694 293 701 293 701 Z" fill="#666"/>
        <path d="M 386 608 L 421 609 L 538 603 L 538 606 L 478 675 L 455 689 L 392 688 C 392 688 318 694 317 694 C 316 694 293 701 293 701 Z" stroke="black" stroke-linecap="round" stroke-linejoin="round" stroke-width="5"/>
      </g>
      <g id="Graphic_41">
        <path d="M 323.5 252.5 L 300.5 241.5 L 282 233 L 276.5 234.5 L 277 254.5 L 272.5 269.5 L 276 296 L 289 324 L 304 345 L 326.5 359 L 349 355.5 L 371 341 L 381 324.5 L 387.5 311.5 L 389 300.5 L 389 290 L 389.5 270.5 L 379 252.5 L 373 234 L 365 229.5 L 341 236 Z" fill="#fff2cc"/>
        <path d="M 323.5 252.5 L 300.5 241.5 L 282 233 L 276.5 234.5 L 277 254.5 L 272.5 269.5 L 276 296 L 289 324 L 304 345 L 326.5 359 L 349 355.5 L 371 341 L 381 324.5 L 387.5 311.5 L 389 300.5 L 389 290 L 389.5 270.5 L 379 252.5 L 373 234 L 365 229.5 L 341 236 Z" stroke="black" stroke-linecap="round" stroke-linejoin="round" stroke-width="5"/>
      </g>
      <g id="Line_48">
        <path d="M 344.4 555.8 L 351.24914 544.2634 L 351.58826 538.2352 L 351.58826 538.2352" stroke="black" stroke-linecap="round" stroke-linejoin="round" stroke-width="5"/>
      </g>
      <g id="Line_49">
        <path d="M 363.6 543.6 L 367.3635 534.4348 L 366.85983 525.82246 L 366.85983 525.82246" stroke="black" stroke-linecap="round" stroke-linejoin="round" stroke-width="5"/>
      </g>
      <g id="Line_50">
        <path d="M 379.5578 526.47076 L 379.71398 523.3323 L 380.9968 515.61224 L 379.37525 508" stroke="black" stroke-linecap="round" stroke-linejoin="round" stroke-width="5"/>
      </g>
      <g id="Line_51">
        <path d="M 285.2 279.8 L 292.3219 276.58126 L 310.13525 282.51904 L 314.53713 287.37595 L 314.53713 287.37595" stroke="black" stroke-linecap="round" stroke-linejoin="round" stroke-width="4"/>
      </g>
      <g id="Line_52">
        <path d="M 367.92115 279.80287 L 354.99237 275.84947 L 346.05735 276.58126 L 338.8889 278.7276 L 335.1376 282.61468" stroke="black" stroke-linecap="round" stroke-linejoin="round" stroke-width="4"/>
      </g>
      <g id="Line_53">
        <path d="M 291.4 289.6 L 297.58217 291.94736 L 308.04017 291.15823 L 310.21835 289.9376" stroke="black" stroke-linecap="round" stroke-linejoin="round" stroke-width="3"/>
      </g>
      <g id="Line_54">
        <path d="M 342.1202 286.4 L 348.30237 288.74736 L 358.76037 287.95823 L 360.93855 286.7376" stroke="black" stroke-linecap="round" stroke-linejoin="round" stroke-width="3"/>
      </g>
      <g id="Line_55">
        <path d="M 309.63945 326.09417 L 320.73032 331.10407 C 321.2154 331.3232 321.7239 331.48626 322.24594 331.59013 L 334.60295 334.04882 C 335.56042 334.23933 336.54716 334.22746 337.49977 334.01397 L 345.13785 332.3022 C 345.44146 332.23415 345.7402 332.14594 346.03208 332.03815 L 351.79784 329.90884 C 353.03465 329.4521 354.1173 328.65533 354.9212 327.6103 L 357.36055 324.43912" stroke="black" stroke-linecap="round" stroke-linejoin="round" stroke-width="3"/>
      </g>
      <g id="Line_56">
        <path d="M 324.6 296.2 L 324.0582 314.96703 L 330.20212 317.8813 L 334.7298 314.88317 L 336.05505 312.52294" stroke="black" stroke-linecap="round" stroke-linejoin="round" stroke-width="3"/>
      </g>
      <g id="Graphic_58">
        <path d="M 233 712.2 L 239 735.5 L 278 750 L 481.5 720.5 L 490 704 L 394.5 705 Z" fill="#333"/>
        <path d="M 233 712.2 L 239 735.5 L 278 750 L 481.5 720.5 L 490 704 L 394.5 705 Z" stroke="black" stroke-linecap="round" stroke-linejoin="round" stroke-width="5"/>
      </g>
      <g id="Graphic_57">
        <path d="M 319 697.5 L 232.5 711.5 L 278.5 728 L 491 705.5 L 483 685.5 L 458 687.5 L 373 689.5 Z" fill="#666"/>
        <path d="M 319 697.5 L 232.5 711.5 L 278.5 728 L 491 705.5 L 483 685.5 L 458 687.5 L 373 689.5 Z" stroke="black" stroke-linecap="round" stroke-linejoin="round" stroke-width="6"/>
      </g>
      <g id="Line_59">
        <path d="M 280.84112 730.3271 L 278.355 750.1468 L 278.355 750.1468" stroke="black" stroke-linecap="round" stroke-linejoin="round" stroke-width="5"/>
      </g>
      <g id="Graphic_63">
        <path d="M 568 810.394 L 545 827.394 L 543.5 849 L 582 850.394 L 599 830.394 L 613 824.394 L 609 812.394 L 587 805.394 Z" fill="red"/>
        <path d="M 568 810.394 L 545 827.394 L 543.5 849 L 582 850.394 L 599 830.394 L 613 824.394 L 609 812.394 L 587 805.394 Z" stroke="black" stroke-linecap="round" stroke-linejoin="round" stroke-width="5"/>
      </g>
      <g id="Graphic_64">
        <path d="M 582 849.394 L 600.8182 828.394 L 615.45455 832.394 L 624.8636 841.394 L 628 850.394 L 622.7727 849.394 Z" fill="#666"/>
        <path d="M 582 849.394 L 600.8182 828.394 L 615.45455 832.394 L 624.8636 841.394 L 628 850.394 L 622.7727 849.394 Z" stroke="black" stroke-linecap="round" stroke-linejoin="round" stroke-width="6"/>
      </g>
      <g id="Line_79">
        <path d="M 558.5 658.5 L 611.5385 666.27846 L 613 666.27846" stroke="black" stroke-linecap="round" stroke-linejoin="round" stroke-width="5"/>
      </g>
      <g id="Line_82">
        <path d="M 249.84646 619.64994 L 234.51242 648.8646 C 233.86596 650.0963 233.7618 651.5415 234.22493 652.85315 L 244.6334 682.3299 C 245.31028 684.2468 244.75918 686.3827 243.23935 687.7328 L 232.80415 697.0026 C 232.63529 697.1526 232.47678 697.3139 232.32972 697.4853 L 188.88873 748.12835 C 188.55973 748.5119 188.29078 748.9431 188.09103 749.40725 L 156.47498 822.8741 C 156.14676 823.6368 156.01365 824.4692 156.08766 825.2962 L 157.8167 844.6174 C 157.99565 846.6172 156.95194 848.5278 155.1725 849.4578" stroke="black" stroke-linecap="round" stroke-linejoin="round" stroke-width="5"/>
      </g>
      <g id="Graphic_71">
        <path d="M 22.5 632.5 L 139.5 641.5 L 202 657 L 236.5 685 L 189.5 695 C 189.5 695 130 701.5 129.5 701.5 C 129 701.5 48.5 712 48.5 712 L 24 711 L 13.5 706.5 L .5 695.5 L 1 631 L 15.5 628.5 Z" fill="#333"/>
        <path d="M 22.5 632.5 L 139.5 641.5 L 202 657 L 236.5 685 L 189.5 695 C 189.5 695 130 701.5 129.5 701.5 C 129 701.5 48.5 712 48.5 712 L 24 711 L 13.5 706.5 L .5 695.5 L 1 631 L 15.5 628.5 Z" stroke="black" stroke-linecap="round" stroke-linejoin="round" stroke-width="5"/>
      </g>
    </g>
  </g>
</svg>
