<?xml version="1.0" encoding="UTF-8" standalone="no"?>
<!DOCTYPE svg PUBLIC "-//W3C//DTD SVG 1.1//EN" "http://www.w3.org/Graphics/SVG/1.1/DTD/svg11.dtd">
<svg xmlns:xl="http://www.w3.org/1999/xlink" version="1.1" xmlns="http://www.w3.org/2000/svg" xmlns:dc="http://purl.org/dc/elements/1.1/" viewBox="0 0 850.4 850.4" width="850.4" height="850.4">
  <defs/>
  <metadata> Produced by OmniGraffle 7.9.4 
    <dc:date>2019-12-02 21:39:21 +0000</dc:date>
  </metadata>
  <g id="Canvas_2" stroke-opacity="1" stroke="none" stroke-dasharray="none" fill="none" fill-opacity="1">
    <title>Canvas 2</title>
    <g id="Canvas_2: draw">
      <title>draw</title>
      <g id="Graphic_47">
        <rect x="411.89815" y="45.950506" width="422" height="230" fill="#ffff40"/>
        <rect x="411.89815" y="45.950506" width="422" height="230" stroke="black" stroke-linecap="round" stroke-linejoin="round" stroke-width="6"/>
      </g>
      <g id="Graphic_46">
        <path d="M 458.39815 223.98892 L 475.25016 166.95134 C 475.25016 166.95134 496.63926 127.41393 496.63926 126.76577 C 496.63926 126.11762 516.73204 101.48775 516.73204 101.48775 L 529.6951 136.48809 C 529.6951 136.48809 544.6027 156.58087 545.899 171.48842 C 547.1953 186.39597 568.5844 203.89614 568.5844 203.89614 C 568.5844 203.89614 583.49194 184.4515 583.49194 181.8589 C 583.49194 179.26627 582.1956 160.4698 583.49194 152.69195 C 584.78825 144.9141 593.21425 126.76577 595.8069 126.11762 C 598.3995 125.46946 619.1404 119.63607 619.7886 120.28423 C 620.4367 120.93238 624.9738 117.69161 625.622 124.82131 C 626.2701 131.951 641.1777 178.61812 641.1777 179.91443 C 641.1777 181.21074 634.048 222.6926 650.9 201.30352 C 667.752 179.91443 669.6965 172.13658 669.6965 172.13658 C 669.6965 172.13658 661.9186 137.13624 663.2149 120.28423 C 664.5112 103.43222 698.8634 79.45051 699.5116 79.45051 C 700.1597 79.45051 719.60435 81.39497 720.2525 82.69128 C 720.90066 83.98759 735.16005 131.30285 735.16005 139.72886 C 735.16005 148.15486 744.8824 181.21074 745.5305 191.5812 C 746.1787 201.95167 753.3084 201.95167 755.901 201.95167 C 758.4936 201.95167 770.1604 177.3218 770.8085 177.3218 C 771.4567 177.3218 779.8827 167.5995 780.5309 167.5995 C 781.179 167.5995 802.5681 164.35872 802.5681 164.35872 L 810.9941 166.95134 L 804.5126 168.8958 L 789.605 168.8958 C 789.605 168.8958 781.179 176.67366 780.5309 176.67366 C 779.8827 176.67366 773.4012 189.63674 773.4012 189.63674 L 765.6233 203.89614 L 750.71575 209.72953 C 750.71575 209.72953 737.7527 202.59983 737.7527 201.95167 C 737.7527 201.30352 737.1045 176.67366 737.1045 176.67366 L 728.6785 147.50671 C 728.6785 147.50671 724.1414 130.6547 723.4933 129.35839 C 722.8451 128.06208 716.3636 102.78406 716.3636 102.13591 C 716.3636 101.48775 708.5857 93.7099 707.9376 93.06175 C 707.2894 92.41359 695.6226 94.35806 695.6226 94.35806 L 680.0669 106.02483 L 672.2891 120.28423 L 672.2891 133.89547 C 672.2891 133.89547 676.8262 152.04379 677.4743 152.04379 C 678.1225 152.04379 678.1225 177.3218 678.1225 177.3218 C 678.1225 177.3218 676.8262 186.39597 675.52985 187.04412 C 674.23354 187.69228 663.2149 203.24798 663.2149 203.89614 C 663.2149 204.5443 650.9 216.21107 650.2518 216.21107 C 649.6037 216.21107 642.474 216.21107 642.474 216.21107 L 631.45536 212.9703 L 628.86274 187.69228 C 628.86274 187.69228 627.5664 175.37735 627.5664 174.7292 C 627.5664 174.08104 620.4367 151.39564 620.4367 151.39564 L 612.0107 128.06208 L 604.881 135.19178 C 604.881 135.19178 597.7513 153.3401 597.1032 153.3401 C 596.455 153.3401 593.8624 165.65503 593.8624 166.30319 C 593.8624 166.95134 593.8624 188.34043 593.8624 188.34043 L 588.029 201.30352 L 575.0659 216.21107 L 562.751 220.1 C 562.751 220.1 553.0287 203.89614 551.7324 203.89614 C 550.43607 203.89614 536.8248 186.39597 536.8248 186.39597 L 529.047 173.43288 L 525.15805 155.28456 L 516.0839 138.43255 L 516.0839 120.93238 L 507.0097 126.76577 C 507.0097 126.76577 505.7134 140.37701 505.06526 141.02517 C 504.4171 141.67332 494.04664 163.06241 493.3985 163.06241 C 492.75033 163.06241 458.39815 223.98892 458.39815 223.98892 Z" fill="black"/>
        <path d="M 458.39815 223.98892 L 475.25016 166.95134 C 475.25016 166.95134 496.63926 127.41393 496.63926 126.76577 C 496.63926 126.11762 516.73204 101.48775 516.73204 101.48775 L 529.6951 136.48809 C 529.6951 136.48809 544.6027 156.58087 545.899 171.48842 C 547.1953 186.39597 568.5844 203.89614 568.5844 203.89614 C 568.5844 203.89614 583.49194 184.4515 583.49194 181.8589 C 583.49194 179.26627 582.1956 160.4698 583.49194 152.69195 C 584.78825 144.9141 593.21425 126.76577 595.8069 126.11762 C 598.3995 125.46946 619.1404 119.63607 619.7886 120.28423 C 620.4367 120.93238 624.9738 117.69161 625.622 124.82131 C 626.2701 131.951 641.1777 178.61812 641.1777 179.91443 C 641.1777 181.21074 634.048 222.6926 650.9 201.30352 C 667.752 179.91443 669.6965 172.13658 669.6965 172.13658 C 669.6965 172.13658 661.9186 137.13624 663.2149 120.28423 C 664.5112 103.43222 698.8634 79.45051 699.5116 79.45051 C 700.1597 79.45051 719.60435 81.39497 720.2525 82.69128 C 720.90066 83.98759 735.16005 131.30285 735.16005 139.72886 C 735.16005 148.15486 744.8824 181.21074 745.5305 191.5812 C 746.1787 201.95167 753.3084 201.95167 755.901 201.95167 C 758.4936 201.95167 770.1604 177.3218 770.8085 177.3218 C 771.4567 177.3218 779.8827 167.5995 780.5309 167.5995 C 781.179 167.5995 802.5681 164.35872 802.5681 164.35872 L 810.9941 166.95134 L 804.5126 168.8958 L 789.605 168.8958 C 789.605 168.8958 781.179 176.67366 780.5309 176.67366 C 779.8827 176.67366 773.4012 189.63674 773.4012 189.63674 L 765.6233 203.89614 L 750.71575 209.72953 C 750.71575 209.72953 737.7527 202.59983 737.7527 201.95167 C 737.7527 201.30352 737.1045 176.67366 737.1045 176.67366 L 728.6785 147.50671 C 728.6785 147.50671 724.1414 130.6547 723.4933 129.35839 C 722.8451 128.06208 716.3636 102.78406 716.3636 102.13591 C 716.3636 101.48775 708.5857 93.7099 707.9376 93.06175 C 707.2894 92.41359 695.6226 94.35806 695.6226 94.35806 L 680.0669 106.02483 L 672.2891 120.28423 L 672.2891 133.89547 C 672.2891 133.89547 676.8262 152.04379 677.4743 152.04379 C 678.1225 152.04379 678.1225 177.3218 678.1225 177.3218 C 678.1225 177.3218 676.8262 186.39597 675.52985 187.04412 C 674.23354 187.69228 663.2149 203.24798 663.2149 203.89614 C 663.2149 204.5443 650.9 216.21107 650.2518 216.21107 C 649.6037 216.21107 642.474 216.21107 642.474 216.21107 L 631.45536 212.9703 L 628.86274 187.69228 C 628.86274 187.69228 627.5664 175.37735 627.5664 174.7292 C 627.5664 174.08104 620.4367 151.39564 620.4367 151.39564 L 612.0107 128.06208 L 604.881 135.19178 C 604.881 135.19178 597.7513 153.3401 597.1032 153.3401 C 596.455 153.3401 593.8624 165.65503 593.8624 166.30319 C 593.8624 166.95134 593.8624 188.34043 593.8624 188.34043 L 588.029 201.30352 L 575.0659 216.21107 L 562.751 220.1 C 562.751 220.1 553.0287 203.89614 551.7324 203.89614 C 550.43607 203.89614 536.8248 186.39597 536.8248 186.39597 L 529.047 173.43288 L 525.15805 155.28456 L 516.0839 138.43255 L 516.0839 120.93238 L 507.0097 126.76577 C 507.0097 126.76577 505.7134 140.37701 505.06526 141.02517 C 504.4171 141.67332 494.04664 163.06241 493.3985 163.06241 C 492.75033 163.06241 458.39815 223.98892 458.39815 223.98892 Z" stroke="black" stroke-linecap="round" stroke-linejoin="round" stroke-width="5"/>
      </g>
      <g id="Graphic_4">
        <path d="M 41 243.38313 L 47 205.38313 L 126 158.38313 L 352 36.38313 L 402 70.38313 L 542 294.38313 L 560 320.38313 L 581 325.38313 L 647 444.38313 L 643 466.38313 L 723 630.3831 L 705 671.3831 L 385 837.3831 L 234 612.3831 L 165 486.38313 Z" fill="#333"/>
        <path d="M 41 243.38313 L 47 205.38313 L 126 158.38313 L 352 36.38313 L 402 70.38313 L 542 294.38313 L 560 320.38313 L 581 325.38313 L 647 444.38313 L 643 466.38313 L 723 630.3831 L 705 671.3831 L 385 837.3831 L 234 612.3831 L 165 486.38313 Z" stroke="black" stroke-linecap="round" stroke-linejoin="round" stroke-width="6"/>
      </g>
      <g id="Graphic_7">
        <circle cx="401.4" cy="459.7831" r="20.4000264936733" fill="red"/>
        <circle cx="401.4" cy="459.7831" r="20.4000264936733" stroke="black" stroke-linecap="round" stroke-linejoin="round" stroke-width="4"/>
      </g>
    </g>
    <g id="Canvas_2: mic">
      <title>mic</title>
      <g id="Line_44">
        <path d="M 141.36801 314.831 L 281.84463 111.55128 L 280.6553 111.38313" stroke="#a5a5a5" stroke-linecap="round" stroke-linejoin="round" stroke-width="3"/>
      </g>
      <g id="Line_43">
        <path d="M 234.1238 398.59583 L 167.67875 290.58742 L 132.46846 229.0538" stroke="#a5a5a5" stroke-linecap="round" stroke-linejoin="round" stroke-width="3"/>
      </g>
      <g id="Line_42">
        <path d="M 292.80614 409.29057 L 214.20078 272.52872 L 158.23 183.34178" stroke="#a5a5a5" stroke-linecap="round" stroke-linejoin="round" stroke-width="3"/>
      </g>
      <g id="Line_41">
        <path d="M 324.19025 405.87607 L 245.5849 269.1142 L 175.14784 158.64427" stroke="#a5a5a5" stroke-linecap="round" stroke-linejoin="round" stroke-width="3"/>
      </g>
      <g id="Line_40">
        <path d="M 257.0147 404.54513 L 194.4792 295.7483 L 139.83031 208.0077" stroke="#a5a5a5" stroke-linecap="round" stroke-linejoin="round" stroke-width="3"/>
      </g>
      <g id="Line_39">
        <path d="M 305.35082 410.18167 L 226.74546 273.4198 L 163.59698 173.81844" stroke="#a5a5a5" stroke-linecap="round" stroke-linejoin="round" stroke-width="3"/>
      </g>
      <g id="Line_38">
        <path d="M 281.72875 407.7251 L 203.1234 270.96323 L 150.97272 190.89728" stroke="#a5a5a5" stroke-linecap="round" stroke-linejoin="round" stroke-width="3"/>
      </g>
      <g id="Line_37">
        <path d="M 269.93498 405.3897 L 189.89113 267.43374 L 145.04372 200.08738" stroke="#a5a5a5" stroke-linecap="round" stroke-linejoin="round" stroke-width="3"/>
      </g>
      <g id="Line_36">
        <path d="M 247.4632 402.8381 L 184.9277 294.04126 L 136.09874 215.9596" stroke="#a5a5a5" stroke-linecap="round" stroke-linejoin="round" stroke-width="3"/>
      </g>
      <g id="Line_35">
        <path d="M 222.21535 398.10016 L 156.84669 298.0332 L 130.31838 251.496" stroke="#a5a5a5" stroke-linecap="round" stroke-linejoin="round" stroke-width="3"/>
      </g>
      <g id="Line_34">
        <path d="M 132.82523 275.9505 L 261.7644 112.55008 L 256.58045 116.79149" stroke="#a5a5a5" stroke-linecap="round" stroke-linejoin="round" stroke-width="3"/>
      </g>
      <g id="Line_33">
        <path d="M 131.11478 243.0169 L 241.02865 118.20529 L 242.44245 117.26275" stroke="#a5a5a5" stroke-linecap="round" stroke-linejoin="round" stroke-width="3"/>
      </g>
      <g id="Line_32">
        <path d="M 155.62627 338.57356 L 255.24314 180.91383 L 305.1887 118.5729 L 303.9994 118.40474" stroke="#a5a5a5" stroke-linecap="round" stroke-linejoin="round" stroke-width="3"/>
      </g>
      <g id="Line_31">
        <path d="M 171.76907 369.3458 L 272.00095 202.96967 L 325.65204 130.70616 L 335.71948 124.4291" stroke="#a5a5a5" stroke-linecap="round" stroke-linejoin="round" stroke-width="3"/>
      </g>
      <g id="Line_30">
        <path d="M 194.04414 382.72735 L 341.57277 153.96305 L 355.898 138.0496" stroke="#a5a5a5" stroke-linecap="round" stroke-linejoin="round" stroke-width="3"/>
      </g>
      <g id="Line_29">
        <path d="M 223.12068 392.97027 L 367.59626 168.65116 L 378.09435 155.20133" stroke="#a5a5a5" stroke-linecap="round" stroke-linejoin="round" stroke-width="3"/>
      </g>
      <g id="Line_28">
        <path d="M 237.74575 401.8072 L 383.41572 189.5584 L 392.2193 170.33522" stroke="#a5a5a5" stroke-linecap="round" stroke-linejoin="round" stroke-width="3"/>
      </g>
      <g id="Line_27">
        <path d="M 424.50493 289.38843 L 335.7204 134.5214 L 329.66593 124.4291" stroke="#a5a5a5" stroke-linecap="round" stroke-linejoin="round" stroke-width="3"/>
      </g>
      <g id="Line_26">
        <path d="M 420.46923 305.02678 L 315.72815 131.65524 L 302.39364 115.90146" stroke="#a5a5a5" stroke-linecap="round" stroke-linejoin="round" stroke-width="3"/>
      </g>
      <g id="Line_25">
        <path d="M 411.89336 323.6919 L 311.20725 152.67198 L 292.81093 117.37319" stroke="#a5a5a5" stroke-linecap="round" stroke-linejoin="round" stroke-width="3"/>
      </g>
      <g id="Line_24">
        <path d="M 407.3532 339.33025 L 304.4551 172.18494 L 270.60325 114.64139" stroke="#a5a5a5" stroke-linecap="round" stroke-linejoin="round" stroke-width="3"/>
      </g>
      <g id="Line_23">
        <path d="M 392.2193 354.9686 L 298.6924 191.59234 L 256.55966 114.34205" stroke="#a5a5a5" stroke-linecap="round" stroke-linejoin="round" stroke-width="3"/>
      </g>
      <g id="Line_22">
        <path d="M 387.1747 364.5534 L 293.7192 208.43534 L 240.96617 115.53198" stroke="#a5a5a5" stroke-linecap="round" stroke-linejoin="round" stroke-width="3"/>
      </g>
      <g id="Line_21">
        <path d="M 334.1227 399.44225 L 253.907 261.87895 L 181.97688 149.592" stroke="#a5a5a5" stroke-linecap="round" stroke-linejoin="round" stroke-width="3"/>
      </g>
      <g id="Line_20">
        <path d="M 379.1033 372.6248 L 287.79713 225.43706 L 280.02118 214.63404 L 227.16413 118.58685" stroke="#a5a5a5" stroke-linecap="round" stroke-linejoin="round" stroke-width="3"/>
      </g>
      <g id="Line_19">
        <path d="M 369.5185 380.19174 L 283.65046 235.5322 L 255.67 196.2097 L 216.89698 122.93491" stroke="#a5a5a5" stroke-linecap="round" stroke-linejoin="round" stroke-width="3"/>
      </g>
      <g id="Line_18">
        <path d="M 359.42923 385.23636 L 275.06717 241.53202 L 205.467 130.60724" stroke="#a5a5a5" stroke-linecap="round" stroke-linejoin="round" stroke-width="3"/>
      </g>
      <g id="Line_17">
        <path d="M 348.66766 387.17467 L 270.0623 250.4128 L 245.4321 208.75695 L 195.3934 135.8728" stroke="#a5a5a5" stroke-linecap="round" stroke-linejoin="round" stroke-width="3"/>
      </g>
      <g id="Line_16">
        <path d="M 341.24466 392.3279 L 262.6393 255.56602 L 211.95242 170.86217 L 187.9704 141.02602" stroke="#a5a5a5" stroke-linecap="round" stroke-linejoin="round" stroke-width="3"/>
      </g>
      <g id="Line_15">
        <path d="M 315.72815 408.26086 L 237.12279 271.499 L 169.0146 166.86625" stroke="#a5a5a5" stroke-linecap="round" stroke-linejoin="round" stroke-width="3"/>
      </g>
      <g id="Line_14">
        <path d="M 305.823 411.60707 L 391.2949 286.80365 L 425.0094 240.45554" stroke="#a5a5a5" stroke-linecap="round" stroke-linejoin="round" stroke-width="3"/>
      </g>
      <g id="Line_13">
        <path d="M 289.69196 410.8741 L 396.08983 260.70223 L 421.9826 222.79935" stroke="#a5a5a5" stroke-linecap="round" stroke-linejoin="round" stroke-width="3"/>
      </g>
      <g id="Line_12">
        <path d="M 273.1022 408.15764 L 387.002 238.2442 L 412.9023 201.10745" stroke="#a5a5a5" stroke-linecap="round" stroke-linejoin="round" stroke-width="3"/>
      </g>
      <g id="Line_11">
        <path d="M 254.95545 405.40797 L 389.576 208.60897 L 407.85766 185.97356" stroke="#a5a5a5" stroke-linecap="round" stroke-linejoin="round" stroke-width="3"/>
      </g>
      <g id="Line_10">
        <path d="M 211.11717 399.3613 L 151.52831 312.31617 L 125 265.77897" stroke="#a5a5a5" stroke-linecap="round" stroke-linejoin="round" stroke-width="3"/>
      </g>
      <g id="Line_9">
        <path d="M 429.54956 264.66976 L 349.4144 134.5214 L 343.35993 124.4291" stroke="#a5a5a5" stroke-linecap="round" stroke-linejoin="round" stroke-width="3"/>
      </g>
      <g id="Line_8">
        <path d="M 319.8193 410.37385 L 399.78625 305.02678 L 429.54956 258.11174" stroke="#a5a5a5" stroke-linecap="round" stroke-linejoin="round" stroke-width="3"/>
      </g>
      <g id="Graphic_45">
        <circle cx="278.0548" cy="262.31442" r="150.068947732189" stroke="black" stroke-linecap="round" stroke-linejoin="round" stroke-width="14"/>
      </g>
    </g>
  </g>
</svg>
