<?xml version="1.0" encoding="UTF-8" standalone="no"?>
<!DOCTYPE svg PUBLIC "-//W3C//DTD SVG 1.1//EN" "http://www.w3.org/Graphics/SVG/1.1/DTD/svg11.dtd">
<svg xmlns:xl="http://www.w3.org/1999/xlink" version="1.1" xmlns:dc="http://purl.org/dc/elements/1.1/" xmlns="http://www.w3.org/2000/svg" viewBox="0 0 850.394 850.394" width="850.394" height="850.394">
  <defs/>
  <metadata> Produced by OmniGraffle 7.9.4 
    <dc:date>2019-05-07 15:04:47 +0000</dc:date>
  </metadata>
  <g id="haptic" fill="none" stroke-opacity="1" fill-opacity="1" stroke="none" stroke-dasharray="none">
    <title>haptic</title>
    <g id="haptic: Layer 1">
      <title>Layer 1</title>
      <g id="Graphic_27">
        <path d="M 425.8945 567.2147 L 373.8764 565.52 L 319.22314 537.7577 C 319.22314 537.7577 301.01483 475.1593 302.04942 474.562 C 303.084 473.9647 416.58014 438.7856 420.004 442.32663 C 423.42787 445.86767 444.9314 483.11285 444.9314 483.11285 Z" stroke="black" stroke-linecap="round" stroke-linejoin="round" stroke-width="1"/>
      </g>
      <g id="Graphic_18">
        <path d="M 395.5073 397.5342 L 417.4226 323.35928 C 417.4226 323.35928 445.2382 271.94258 445.2382 271.0997 C 445.2382 270.2568 471.368 238.22672 471.368 238.22672 L 488.2259 283.74314 C 488.2259 283.74314 507.61254 309.87293 509.29833 329.25955 C 510.9841 348.64618 538.7997 371.4044 538.7997 371.4044 C 538.7997 371.4044 558.18634 346.1175 558.18634 342.7459 C 558.18634 339.3743 556.50054 314.9303 558.18634 304.81555 C 559.8721 294.7008 570.8298 271.0997 574.2014 270.2568 C 577.57296 269.4139 604.54565 261.82782 605.38855 262.67072 C 606.23145 263.51362 612.1317 259.29913 612.9746 268.571 C 613.8175 277.84286 633.20414 338.5314 633.20414 340.2172 C 633.20414 341.903 623.9323 395.8484 645.8476 368.0328 C 667.7629 340.2172 670.2916 330.10245 670.2916 330.10245 C 670.2916 330.10245 660.1768 284.58603 661.8626 262.67072 C 663.5484 240.7554 708.2219 209.56823 709.0648 209.56823 C 709.9077 209.56823 735.1946 212.09692 736.0375 213.78271 C 736.8804 215.4685 755.42415 276.99996 755.42415 287.95762 C 755.42415 298.91528 768.0676 341.903 768.9105 355.38935 C 769.7534 368.8757 779.0253 368.8757 782.3968 368.8757 C 785.7684 368.8757 800.9406 336.84562 801.7835 336.84562 C 802.6264 336.84562 813.584 324.20217 814.4269 324.20217 C 815.2698 324.20217 843.0854 319.9877 843.0854 319.9877 L 854.0431 323.35928 L 845.6141 325.88797 L 826.2275 325.88797 C 826.2275 325.88797 815.2698 336.00273 814.4269 336.00273 C 813.584 336.00273 805.1551 352.86066 805.1551 352.86066 L 795.0403 371.4044 L 775.6537 378.99046 C 775.6537 378.99046 758.7957 369.7186 758.7957 368.8757 C 758.7957 368.0328 757.9528 336.00273 757.9528 336.00273 L 746.9952 298.07238 C 746.9952 298.07238 741.0949 276.15707 740.252 274.47127 C 739.4091 272.78548 730.98015 239.9125 730.98015 239.0696 C 730.98015 238.22672 720.8654 228.11196 720.0225 227.26906 C 719.1796 226.42616 704.00746 228.95485 704.00746 228.95485 L 683.7779 244.127 L 673.6632 262.67072 L 673.6632 280.37155 C 673.6632 280.37155 679.56345 303.97265 680.40635 303.97265 C 681.24925 303.97265 681.24925 336.84562 681.24925 336.84562 C 681.24925 336.84562 679.56345 348.64618 677.8777 349.48907 C 676.1919 350.33197 661.8626 370.5615 661.8626 371.4044 C 661.8626 372.2473 645.8476 387.4194 645.0047 387.4194 C 644.1618 387.4194 634.8899 387.4194 634.8899 387.4194 L 620.5607 383.20494 L 617.1891 350.33197 C 617.1891 350.33197 615.5033 334.31693 615.5033 333.47404 C 615.5033 332.63114 606.23145 303.12976 606.23145 303.12976 L 595.2738 272.78548 L 586.0019 282.05734 C 586.0019 282.05734 576.73006 305.65845 575.8872 305.65845 C 575.0443 305.65845 571.6727 321.6735 571.6727 322.5164 C 571.6727 323.35928 571.6727 351.17487 571.6727 351.17487 L 564.0866 368.0328 L 547.2287 387.4194 L 531.21364 392.4768 C 531.21364 392.4768 518.5702 371.4044 516.8844 371.4044 C 515.1986 371.4044 497.4978 348.64618 497.4978 348.64618 L 487.383 331.78824 L 482.32564 308.18714 L 470.5251 286.27183 L 470.5251 263.51362 L 458.72453 271.0997 C 458.72453 271.0997 457.03874 288.8005 456.19584 289.6434 C 455.35295 290.4863 441.8666 318.3019 441.0237 318.3019 C 440.1808 318.3019 395.5073 397.5342 395.5073 397.5342 Z" fill="black"/>
        <path d="M 395.5073 397.5342 L 417.4226 323.35928 C 417.4226 323.35928 445.2382 271.94258 445.2382 271.0997 C 445.2382 270.2568 471.368 238.22672 471.368 238.22672 L 488.2259 283.74314 C 488.2259 283.74314 507.61254 309.87293 509.29833 329.25955 C 510.9841 348.64618 538.7997 371.4044 538.7997 371.4044 C 538.7997 371.4044 558.18634 346.1175 558.18634 342.7459 C 558.18634 339.3743 556.50054 314.9303 558.18634 304.81555 C 559.8721 294.7008 570.8298 271.0997 574.2014 270.2568 C 577.57296 269.4139 604.54565 261.82782 605.38855 262.67072 C 606.23145 263.51362 612.1317 259.29913 612.9746 268.571 C 613.8175 277.84286 633.20414 338.5314 633.20414 340.2172 C 633.20414 341.903 623.9323 395.8484 645.8476 368.0328 C 667.7629 340.2172 670.2916 330.10245 670.2916 330.10245 C 670.2916 330.10245 660.1768 284.58603 661.8626 262.67072 C 663.5484 240.7554 708.2219 209.56823 709.0648 209.56823 C 709.9077 209.56823 735.1946 212.09692 736.0375 213.78271 C 736.8804 215.4685 755.42415 276.99996 755.42415 287.95762 C 755.42415 298.91528 768.0676 341.903 768.9105 355.38935 C 769.7534 368.8757 779.0253 368.8757 782.3968 368.8757 C 785.7684 368.8757 800.9406 336.84562 801.7835 336.84562 C 802.6264 336.84562 813.584 324.20217 814.4269 324.20217 C 815.2698 324.20217 843.0854 319.9877 843.0854 319.9877 L 854.0431 323.35928 L 845.6141 325.88797 L 826.2275 325.88797 C 826.2275 325.88797 815.2698 336.00273 814.4269 336.00273 C 813.584 336.00273 805.1551 352.86066 805.1551 352.86066 L 795.0403 371.4044 L 775.6537 378.99046 C 775.6537 378.99046 758.7957 369.7186 758.7957 368.8757 C 758.7957 368.0328 757.9528 336.00273 757.9528 336.00273 L 746.9952 298.07238 C 746.9952 298.07238 741.0949 276.15707 740.252 274.47127 C 739.4091 272.78548 730.98015 239.9125 730.98015 239.0696 C 730.98015 238.22672 720.8654 228.11196 720.0225 227.26906 C 719.1796 226.42616 704.00746 228.95485 704.00746 228.95485 L 683.7779 244.127 L 673.6632 262.67072 L 673.6632 280.37155 C 673.6632 280.37155 679.56345 303.97265 680.40635 303.97265 C 681.24925 303.97265 681.24925 336.84562 681.24925 336.84562 C 681.24925 336.84562 679.56345 348.64618 677.8777 349.48907 C 676.1919 350.33197 661.8626 370.5615 661.8626 371.4044 C 661.8626 372.2473 645.8476 387.4194 645.0047 387.4194 C 644.1618 387.4194 634.8899 387.4194 634.8899 387.4194 L 620.5607 383.20494 L 617.1891 350.33197 C 617.1891 350.33197 615.5033 334.31693 615.5033 333.47404 C 615.5033 332.63114 606.23145 303.12976 606.23145 303.12976 L 595.2738 272.78548 L 586.0019 282.05734 C 586.0019 282.05734 576.73006 305.65845 575.8872 305.65845 C 575.0443 305.65845 571.6727 321.6735 571.6727 322.5164 C 571.6727 323.35928 571.6727 351.17487 571.6727 351.17487 L 564.0866 368.0328 L 547.2287 387.4194 L 531.21364 392.4768 C 531.21364 392.4768 518.5702 371.4044 516.8844 371.4044 C 515.1986 371.4044 497.4978 348.64618 497.4978 348.64618 L 487.383 331.78824 L 482.32564 308.18714 L 470.5251 286.27183 L 470.5251 263.51362 L 458.72453 271.0997 C 458.72453 271.0997 457.03874 288.8005 456.19584 289.6434 C 455.35295 290.4863 441.8666 318.3019 441.0237 318.3019 C 440.1808 318.3019 395.5073 397.5342 395.5073 397.5342 Z" stroke="black" stroke-linecap="round" stroke-linejoin="round" stroke-width="5"/>
      </g>
      <g id="Graphic_10">
        <path d="M 521.96966 510.94804 L 481.6032 576.9234 C 481.6032 576.9234 441.4278 619.3889 441.20964 620.2031 C 440.9915 621.01726 407.46204 645.19304 407.46204 645.19304 L 402.95905 596.8644 C 402.95905 596.8644 390.9959 566.6073 394.38517 547.445 C 397.77445 528.2826 376.7969 499.1007 376.7969 499.1007 C 376.7969 499.1007 351.52614 518.5083 350.6535 521.765 C 349.78088 525.0217 345.08265 549.0691 340.8364 558.4029 C 336.59017 567.7367 319.89747 587.6976 316.4226 587.6391 C 312.94775 587.5807 284.9307 587.9272 284.3347 586.8949 C 283.73867 585.86254 276.94865 588.4063 278.5342 579.2322 C 280.11977 570.05813 277.1011 506.41986 277.5374 504.7915 C 277.97372 503.16316 300.89174 453.45565 272.52397 474.65135 C 244.1562 495.84704 239.09578 504.9627 239.09578 504.9627 C 239.09578 504.9627 237.08537 551.54606 229.78492 572.2783 C 222.48447 593.01056 171.26133 611.5727 170.44715 611.35454 C 169.63297 611.1364 145.86218 602.1491 145.48432 600.3026 C 145.10646 598.4561 143.1201 534.2218 145.95616 523.63753 C 148.7922 513.05325 147.70561 468.2579 150.38196 455.01296 C 153.05831 441.768 144.10238 439.36826 140.84568 438.4956 C 137.58897 437.623 114.64382 464.63483 113.82964 464.41667 C 113.01547 464.1985 99.15882 473.5751 98.34464 473.35694 C 97.53047 473.1388 69.57188 470.01046 69.57188 470.01046 L 59.86023 463.9177 L 68.65646 463.65675 L 87.3825 468.6744 C 87.3825 468.6744 100.58468 461.7403 101.39885 461.9585 C 102.21303 462.17664 114.71794 448.0747 114.71794 448.0747 L 129.28751 432.78073 L 149.97697 430.4708 C 149.97697 430.4708 163.86075 443.78986 163.6426 444.60404 C 163.42444 445.4182 155.94862 476.57505 155.94862 476.57505 L 156.7158 516.049 C 156.7158 516.049 156.74293 538.7447 157.1208 540.5912 C 157.49865 542.4377 157.13226 576.3721 156.9141 577.1863 C 156.69595 578.0005 163.84816 590.3885 164.44418 591.4208 C 165.0402 592.4531 180.34983 593.93745 180.34983 593.93745 L 203.81688 584.5181 L 218.38646 569.2241 L 222.96777 552.1264 C 222.96777 552.1264 223.37696 527.8024 222.56278 527.5842 C 221.7486 527.3661 230.25676 495.6132 230.25676 495.6132 C 230.25676 495.6132 234.93932 484.6511 236.78583 484.2732 C 238.63234 483.89536 257.7091 468.0638 257.92726 467.24965 C 258.14542 466.4355 277.5416 455.9253 278.35577 456.14347 C 279.16995 456.3616 288.12588 458.76136 288.12588 458.76136 L 300.87608 466.5409 L 295.62463 499.1664 C 295.62463 499.1664 293.108 515.07205 292.88983 515.8862 C 292.67167 516.7004 293.9921 547.5963 293.9921 547.5963 L 296.7227 579.74266 L 308.07836 573.18646 C 308.07836 573.18646 323.1427 552.7893 323.95688 553.00744 C 324.77105 553.2256 332.17275 538.6289 332.3909 537.8147 C 332.60907 537.00054 339.80827 510.13274 339.80827 510.13274 L 351.499 495.81265 L 372.80015 481.44976 L 389.57843 480.7097 C 389.57843 480.7097 396.3371 504.33646 397.96547 504.7728 C 399.59383 505.2091 410.80126 531.77314 410.80126 531.77314 L 416.2082 550.67455 L 414.98485 574.7804 L 420.7112 599.0032 L 414.82095 620.9859 L 428.18283 616.71256 C 428.18283 616.71256 434.3925 600.0512 435.4248 599.4552 C 436.45716 598.85915 456.68317 575.4819 457.49735 575.7 C 458.3115 575.9182 521.96966 510.94804 521.96966 510.94804 Z" fill="black"/>
        <path d="M 521.96966 510.94804 L 481.6032 576.9234 C 481.6032 576.9234 441.4278 619.3889 441.20964 620.2031 C 440.9915 621.01726 407.46204 645.19304 407.46204 645.19304 L 402.95905 596.8644 C 402.95905 596.8644 390.9959 566.6073 394.38517 547.445 C 397.77445 528.2826 376.7969 499.1007 376.7969 499.1007 C 376.7969 499.1007 351.52614 518.5083 350.6535 521.765 C 349.78088 525.0217 345.08265 549.0691 340.8364 558.4029 C 336.59017 567.7367 319.89747 587.6976 316.4226 587.6391 C 312.94775 587.5807 284.9307 587.9272 284.3347 586.8949 C 283.73867 585.86254 276.94865 588.4063 278.5342 579.2322 C 280.11977 570.05813 277.1011 506.41986 277.5374 504.7915 C 277.97372 503.16316 300.89174 453.45565 272.52397 474.65135 C 244.1562 495.84704 239.09578 504.9627 239.09578 504.9627 C 239.09578 504.9627 237.08537 551.54606 229.78492 572.2783 C 222.48447 593.01056 171.26133 611.5727 170.44715 611.35454 C 169.63297 611.1364 145.86218 602.1491 145.48432 600.3026 C 145.10646 598.4561 143.1201 534.2218 145.95616 523.63753 C 148.7922 513.05325 147.70561 468.2579 150.38196 455.01296 C 153.05831 441.768 144.10238 439.36826 140.84568 438.4956 C 137.58897 437.623 114.64382 464.63483 113.82964 464.41667 C 113.01547 464.1985 99.15882 473.5751 98.34464 473.35694 C 97.53047 473.1388 69.57188 470.01046 69.57188 470.01046 L 59.86023 463.9177 L 68.65646 463.65675 L 87.3825 468.6744 C 87.3825 468.6744 100.58468 461.7403 101.39885 461.9585 C 102.21303 462.17664 114.71794 448.0747 114.71794 448.0747 L 129.28751 432.78073 L 149.97697 430.4708 C 149.97697 430.4708 163.86075 443.78986 163.6426 444.60404 C 163.42444 445.4182 155.94862 476.57505 155.94862 476.57505 L 156.7158 516.049 C 156.7158 516.049 156.74293 538.7447 157.1208 540.5912 C 157.49865 542.4377 157.13226 576.3721 156.9141 577.1863 C 156.69595 578.0005 163.84816 590.3885 164.44418 591.4208 C 165.0402 592.4531 180.34983 593.93745 180.34983 593.93745 L 203.81688 584.5181 L 218.38646 569.2241 L 222.96777 552.1264 C 222.96777 552.1264 223.37696 527.8024 222.56278 527.5842 C 221.7486 527.3661 230.25676 495.6132 230.25676 495.6132 C 230.25676 495.6132 234.93932 484.6511 236.78583 484.2732 C 238.63234 483.89536 257.7091 468.0638 257.92726 467.24965 C 258.14542 466.4355 277.5416 455.9253 278.35577 456.14347 C 279.16995 456.3616 288.12588 458.76136 288.12588 458.76136 L 300.87608 466.5409 L 295.62463 499.1664 C 295.62463 499.1664 293.108 515.07205 292.88983 515.8862 C 292.67167 516.7004 293.9921 547.5963 293.9921 547.5963 L 296.7227 579.74266 L 308.07836 573.18646 C 308.07836 573.18646 323.1427 552.7893 323.95688 553.00744 C 324.77105 553.2256 332.17275 538.6289 332.3909 537.8147 C 332.60907 537.00054 339.80827 510.13274 339.80827 510.13274 L 351.499 495.81265 L 372.80015 481.44976 L 389.57843 480.7097 C 389.57843 480.7097 396.3371 504.33646 397.96547 504.7728 C 399.59383 505.2091 410.80126 531.77314 410.80126 531.77314 L 416.2082 550.67455 L 414.98485 574.7804 L 420.7112 599.0032 L 414.82095 620.9859 L 428.18283 616.71256 C 428.18283 616.71256 434.3925 600.0512 435.4248 599.4552 C 436.45716 598.85915 456.68317 575.4819 457.49735 575.7 C 458.3115 575.9182 521.96966 510.94804 521.96966 510.94804 Z" stroke="black" stroke-linecap="round" stroke-linejoin="round" stroke-width="5"/>
      </g>
      <g id="Graphic_22">
        <path d="M 764.8522 304.7402 L 727.9773 288.5178 L 665.2309 293.90122 L 615.51695 290.0931 L 553.77563 279.89135 L 462.8252 268.78864 L 541.3558 226.2225 L 573.11885 185.98931 L 544.608 155.80087 L 500.63457 173.45125 L 461.238 192.328 L 416.8157 202.49985 L 347.35175 214.01058 L 303.78108 242.50053 L 273.96484 263.04935 L 227.75176 301.4009 L 196.19736 313.0415 L 132.66351 320.129 L 75.49779 319.3941 L 50.08735 484.56195 L 77.61532 575.616 L 151.15584 553.19 L 195.16912 545.28506 L 253.97092 538.8447 L 327.54618 552.2173 L 377.0477 568.6521 L 427.7478 572.7245 L 478.7166 571.0562 L 498.80364 555.5901 L 504.04136 512.83794 L 529.1202 494.19064 L 532.88566 459.1515 L 535.0032 440.0937 L 555.2932 408.84474 L 537.19394 357.39275 L 594.0616 358.3317 L 662.1965 356.50606 L 707.5789 352.81177 L 741.1274 345.94658 L 764.4274 329.99352 Z" fill="#ad7526"/>
        <path d="M 764.8522 304.7402 L 727.9773 288.5178 L 665.2309 293.90122 L 615.51695 290.0931 L 553.77563 279.89135 L 462.8252 268.78864 L 541.3558 226.2225 L 573.11885 185.98931 L 544.608 155.80087 L 500.63457 173.45125 L 461.238 192.328 L 416.8157 202.49985 L 347.35175 214.01058 L 303.78108 242.50053 L 273.96484 263.04935 L 227.75176 301.4009 L 196.19736 313.0415 L 132.66351 320.129 L 75.49779 319.3941 L 50.08735 484.56195 L 77.61532 575.616 L 151.15584 553.19 L 195.16912 545.28506 L 253.97092 538.8447 L 327.54618 552.2173 L 377.0477 568.6521 L 427.7478 572.7245 L 478.7166 571.0562 L 498.80364 555.5901 L 504.04136 512.83794 L 529.1202 494.19064 L 532.88566 459.1515 L 535.0032 440.0937 L 555.2932 408.84474 L 537.19394 357.39275 L 594.0616 358.3317 L 662.1965 356.50606 L 707.5789 352.81177 L 741.1274 345.94658 L 764.4274 329.99352 Z" stroke="black" stroke-linecap="round" stroke-linejoin="round" stroke-width="6"/>
      </g>
      <g id="Graphic_21">
        <ellipse cx="82.78486" cy="445.5207" rx="43.3694428947829" ry="129.459757884114" fill="black"/>
        <ellipse cx="82.78486" cy="445.5207" rx="43.3694428947829" ry="129.459757884114" stroke="black" stroke-linecap="round" stroke-linejoin="round" stroke-width="7"/>
      </g>
      <g id="Graphic_20">
        <path d="M 224.55473 343.23734 L 225.64867 300.31673 C 225.64867 300.31673 233.17602 268.7512 233.05492 268.29924 C 232.93382 267.8473 242.34257 246.9189 242.34257 246.9189 L 257.9211 268.9024 C 257.9211 268.9024 272.07018 280.12768 275.7594 290.28043 C 279.44863 300.43318 297.63285 308.6396 297.63285 308.6396 C 297.63285 308.6396 304.39477 292.29567 303.91037 290.48785 C 303.42597 288.68003 299.01013 275.81556 298.46083 270.1499 C 297.91153 264.48425 300.3961 250.25522 302.08283 249.31886 C 303.76955 248.3825 317.14218 240.4397 317.71524 240.77054 C 318.2883 241.1014 320.84647 237.99392 322.63053 242.84432 C 324.4146 247.6947 343.5288 277.4501 343.771 278.354 C 344.0132 279.25793 346.79216 309.5151 354.54664 291.452 C 362.30113 273.38888 362.2038 267.60213 362.2038 267.60213 C 362.2038 267.60213 350.2409 244.6498 347.99618 232.6568 C 345.75146 220.66378 365.2243 197.52312 365.67627 197.40202 C 366.12822 197.28092 380.05016 195.00376 380.7443 195.78657 C 381.43847 196.56938 400.2218 226.89782 401.79613 232.77323 C 403.37044 238.64864 416.3259 259.8818 418.71547 266.99197 C 421.10503 274.10213 426.07653 272.77003 427.88435 272.28562 C 429.69217 271.80122 433.2255 252.44714 433.67747 252.32604 C 434.1294 252.20494 438.1883 243.8513 438.64027 243.7302 C 439.0922 243.6091 453.4012 237.353 453.4012 237.353 L 459.761 237.58652 L 455.6048 240.1534 L 445.20983 242.9387 C 445.20983 242.9387 440.78764 249.93647 440.3357 250.05757 C 439.88373 250.17867 437.7862 260.42877 437.7862 260.42877 L 435.02697 271.82497 L 425.7219 278.67788 C 425.7219 278.67788 415.35073 276.1284 415.22963 275.67644 C 415.10853 275.2245 410.05474 258.17133 410.05474 258.17133 L 398.7298 239.4077 C 398.7298 239.4077 392.4175 228.50458 391.72334 227.72178 C 391.0292 226.93897 381.7867 210.52376 381.6656 210.0718 C 381.5445 209.61985 374.66785 205.6496 374.0948 205.31875 C 373.52174 204.9879 365.74986 208.52358 365.74986 208.52358 L 357.08277 219.56517 L 354.32354 230.96138 L 356.86665 240.45242 C 356.86665 240.45242 363.42116 252.25944 363.8731 252.13833 C 364.32507 252.01723 369.048 269.64345 369.048 269.64345 C 369.048 269.64345 369.8395 276.213 369.0567 276.90717 C 368.2739 277.60133 363.4971 290.50695 363.6182 290.9589 C 363.7393 291.41085 357.33196 301.84695 356.88 301.96805 C 356.42805 302.08915 351.45656 303.42126 351.45656 303.42126 L 343.16783 303.2202 L 336.6371 286.0784 C 336.6371 286.0784 333.43226 277.73345 333.31116 277.2815 C 333.19005 276.82954 323.98003 262.34325 323.98003 262.34325 L 313.745 247.6472 L 310.1056 253.9508 C 310.1056 253.9508 308.52493 267.93764 308.07297 268.05874 C 307.62102 268.17984 308.1141 277.25138 308.23522 277.70333 C 308.35632 278.1553 312.35265 293.06978 312.35265 293.06978 L 310.70707 303.19878 L 304.4533 316.01574 L 296.59278 321.0284 C 296.59278 321.0284 286.78594 311.54604 285.88203 311.78824 C 284.97812 312.03044 272.21736 302.3708 272.21736 302.3708 L 264.3719 294.7849 L 258.26934 282.8568 L 248.79336 272.8014 L 245.52364 260.59863 L 240.2862 266.36163 C 240.2862 266.36163 241.9254 276.09487 241.59454 276.66792 C 241.2637 277.24098 238.02875 294.0931 237.5768 294.2142 C 237.12484 294.3353 224.55473 343.23734 224.55473 343.23734 Z" fill="black"/>
        <path d="M 224.55473 343.23734 L 225.64867 300.31673 C 225.64867 300.31673 233.17602 268.7512 233.05492 268.29924 C 232.93382 267.8473 242.34257 246.9189 242.34257 246.9189 L 257.9211 268.9024 C 257.9211 268.9024 272.07018 280.12768 275.7594 290.28043 C 279.44863 300.43318 297.63285 308.6396 297.63285 308.6396 C 297.63285 308.6396 304.39477 292.29567 303.91037 290.48785 C 303.42597 288.68003 299.01013 275.81556 298.46083 270.1499 C 297.91153 264.48425 300.3961 250.25522 302.08283 249.31886 C 303.76955 248.3825 317.14218 240.4397 317.71524 240.77054 C 318.2883 241.1014 320.84647 237.99392 322.63053 242.84432 C 324.4146 247.6947 343.5288 277.4501 343.771 278.354 C 344.0132 279.25793 346.79216 309.5151 354.54664 291.452 C 362.30113 273.38888 362.2038 267.60213 362.2038 267.60213 C 362.2038 267.60213 350.2409 244.6498 347.99618 232.6568 C 345.75146 220.66378 365.2243 197.52312 365.67627 197.40202 C 366.12822 197.28092 380.05016 195.00376 380.7443 195.78657 C 381.43847 196.56938 400.2218 226.89782 401.79613 232.77323 C 403.37044 238.64864 416.3259 259.8818 418.71547 266.99197 C 421.10503 274.10213 426.07653 272.77003 427.88435 272.28562 C 429.69217 271.80122 433.2255 252.44714 433.67747 252.32604 C 434.1294 252.20494 438.1883 243.8513 438.64027 243.7302 C 439.0922 243.6091 453.4012 237.353 453.4012 237.353 L 459.761 237.58652 L 455.6048 240.1534 L 445.20983 242.9387 C 445.20983 242.9387 440.78764 249.93647 440.3357 250.05757 C 439.88373 250.17867 437.7862 260.42877 437.7862 260.42877 L 435.02697 271.82497 L 425.7219 278.67788 C 425.7219 278.67788 415.35073 276.1284 415.22963 275.67644 C 415.10853 275.2245 410.05474 258.17133 410.05474 258.17133 L 398.7298 239.4077 C 398.7298 239.4077 392.4175 228.50458 391.72334 227.72178 C 391.0292 226.93897 381.7867 210.52376 381.6656 210.0718 C 381.5445 209.61985 374.66785 205.6496 374.0948 205.31875 C 373.52174 204.9879 365.74986 208.52358 365.74986 208.52358 L 357.08277 219.56517 L 354.32354 230.96138 L 356.86665 240.45242 C 356.86665 240.45242 363.42116 252.25944 363.8731 252.13833 C 364.32507 252.01723 369.048 269.64345 369.048 269.64345 C 369.048 269.64345 369.8395 276.213 369.0567 276.90717 C 368.2739 277.60133 363.4971 290.50695 363.6182 290.9589 C 363.7393 291.41085 357.33196 301.84695 356.88 301.96805 C 356.42805 302.08915 351.45656 303.42126 351.45656 303.42126 L 343.16783 303.2202 L 336.6371 286.0784 C 336.6371 286.0784 333.43226 277.73345 333.31116 277.2815 C 333.19005 276.82954 323.98003 262.34325 323.98003 262.34325 L 313.745 247.6472 L 310.1056 253.9508 C 310.1056 253.9508 308.52493 267.93764 308.07297 268.05874 C 307.62102 268.17984 308.1141 277.25138 308.23522 277.70333 C 308.35632 278.1553 312.35265 293.06978 312.35265 293.06978 L 310.70707 303.19878 L 304.4533 316.01574 L 296.59278 321.0284 C 296.59278 321.0284 286.78594 311.54604 285.88203 311.78824 C 284.97812 312.03044 272.21736 302.3708 272.21736 302.3708 L 264.3719 294.7849 L 258.26934 282.8568 L 248.79336 272.8014 L 245.52364 260.59863 L 240.2862 266.36163 C 240.2862 266.36163 241.9254 276.09487 241.59454 276.66792 C 241.2637 277.24098 238.02875 294.0931 237.5768 294.2142 C 237.12484 294.3353 224.55473 343.23734 224.55473 343.23734 Z" stroke="black" stroke-linecap="round" stroke-linejoin="round" stroke-width="5"/>
      </g>
      <g id="Graphic_17">
        <path d="M 272.19343 460.8811 L 285.1544 417.0132 C 285.1544 417.0132 301.60485 386.6048 301.60485 386.1063 C 301.60485 385.6078 317.0583 366.66484 317.0583 366.66484 L 327.02828 393.58376 C 327.02828 393.58376 338.49375 409.0372 339.49074 420.5027 C 340.48774 431.96816 356.9382 445.4276 356.9382 445.4276 C 356.9382 445.4276 368.40367 430.47266 368.40367 428.47867 C 368.40367 426.4847 367.40667 412.0282 368.40367 406.04623 C 369.40066 400.06425 375.88115 386.1063 377.87514 385.6078 C 379.86913 385.1093 395.8211 380.6228 396.3196 381.1213 C 396.8181 381.6198 400.3076 379.1273 400.8061 384.6108 C 401.3046 390.09427 412.77005 425.9862 412.77005 426.98317 C 412.77005 427.98017 407.28656 459.8841 420.2475 443.43363 C 433.2085 426.98317 434.704 421.0012 434.704 421.0012 C 434.704 421.0012 428.722 394.08226 429.719 381.1213 C 430.716 368.16033 457.1364 349.7159 457.6349 349.7159 C 458.1334 349.7159 473.0884 351.2114 473.5869 352.20838 C 474.0854 353.20537 485.05235 389.59577 485.05235 396.07626 C 485.05235 402.55674 492.5298 427.98017 493.0283 435.95615 C 493.5268 443.93213 499.0103 443.93213 501.0043 443.93213 C 502.9983 443.93213 511.9713 424.9892 512.4698 424.9892 C 512.9683 424.9892 519.44876 417.5117 519.94725 417.5117 C 520.44575 417.5117 536.8962 415.0192 536.8962 415.0192 L 543.3767 417.0132 L 538.3917 418.5087 L 526.92623 418.5087 C 526.92623 418.5087 520.44575 424.4907 519.94725 424.4907 C 519.44876 424.4907 514.46377 434.46065 514.46377 434.46065 L 508.4818 445.4276 L 497.0163 449.9141 C 497.0163 449.9141 487.04634 444.4306 487.04634 443.93213 C 487.04634 443.43363 486.54784 424.4907 486.54784 424.4907 L 480.06736 402.05824 C 480.06736 402.05824 476.5779 389.09728 476.0794 388.1003 C 475.5809 387.1033 470.5959 367.66183 470.5959 367.16334 C 470.5959 366.66484 464.6139 360.68285 464.1154 360.18435 C 463.6169 359.68586 454.64393 361.18135 454.64393 361.18135 L 442.67996 370.15433 L 436.698 381.1213 L 436.698 391.58977 C 436.698 391.58977 440.18747 405.54773 440.68597 405.54773 C 441.18447 405.54773 441.18447 424.9892 441.18447 424.9892 C 441.18447 424.9892 440.18747 431.96816 439.19047 432.46666 C 438.1935 432.96516 429.719 444.9291 429.719 445.4276 C 429.719 445.9261 420.2475 454.8991 419.74903 454.8991 C 419.25053 454.8991 413.76704 454.8991 413.76704 454.8991 L 405.29257 452.4066 L 403.29857 432.96516 C 403.29857 432.96516 402.30157 423.4937 402.30157 422.9952 C 402.30157 422.4967 396.8181 405.04923 396.8181 405.04923 L 390.3376 387.1033 L 384.8541 392.58677 C 384.8541 392.58677 379.37064 406.54473 378.87214 406.54473 C 378.37364 406.54473 376.37964 416.0162 376.37964 416.5147 C 376.37964 417.0132 376.37964 433.46366 376.37964 433.46366 L 371.89316 443.43363 L 361.9232 454.8991 L 352.4517 457.8901 C 352.4517 457.8901 344.97423 445.4276 343.97723 445.4276 C 342.98024 445.4276 332.51176 431.96816 332.51176 431.96816 L 326.52978 421.9982 L 323.5388 408.04022 L 316.5598 395.07926 L 316.5598 381.6198 L 309.58083 386.1063 C 309.58083 386.1063 308.58383 396.57476 308.08533 397.07325 C 307.58683 397.57175 299.61085 414.0222 299.11235 414.0222 C 298.61386 414.0222 272.19343 460.8811 272.19343 460.8811 Z" fill="black"/>
        <path d="M 272.19343 460.8811 L 285.1544 417.0132 C 285.1544 417.0132 301.60485 386.6048 301.60485 386.1063 C 301.60485 385.6078 317.0583 366.66484 317.0583 366.66484 L 327.02828 393.58376 C 327.02828 393.58376 338.49375 409.0372 339.49074 420.5027 C 340.48774 431.96816 356.9382 445.4276 356.9382 445.4276 C 356.9382 445.4276 368.40367 430.47266 368.40367 428.47867 C 368.40367 426.4847 367.40667 412.0282 368.40367 406.04623 C 369.40066 400.06425 375.88115 386.1063 377.87514 385.6078 C 379.86913 385.1093 395.8211 380.6228 396.3196 381.1213 C 396.8181 381.6198 400.3076 379.1273 400.8061 384.6108 C 401.3046 390.09427 412.77005 425.9862 412.77005 426.98317 C 412.77005 427.98017 407.28656 459.8841 420.2475 443.43363 C 433.2085 426.98317 434.704 421.0012 434.704 421.0012 C 434.704 421.0012 428.722 394.08226 429.719 381.1213 C 430.716 368.16033 457.1364 349.7159 457.6349 349.7159 C 458.1334 349.7159 473.0884 351.2114 473.5869 352.20838 C 474.0854 353.20537 485.05235 389.59577 485.05235 396.07626 C 485.05235 402.55674 492.5298 427.98017 493.0283 435.95615 C 493.5268 443.93213 499.0103 443.93213 501.0043 443.93213 C 502.9983 443.93213 511.9713 424.9892 512.4698 424.9892 C 512.9683 424.9892 519.44876 417.5117 519.94725 417.5117 C 520.44575 417.5117 536.8962 415.0192 536.8962 415.0192 L 543.3767 417.0132 L 538.3917 418.5087 L 526.92623 418.5087 C 526.92623 418.5087 520.44575 424.4907 519.94725 424.4907 C 519.44876 424.4907 514.46377 434.46065 514.46377 434.46065 L 508.4818 445.4276 L 497.0163 449.9141 C 497.0163 449.9141 487.04634 444.4306 487.04634 443.93213 C 487.04634 443.43363 486.54784 424.4907 486.54784 424.4907 L 480.06736 402.05824 C 480.06736 402.05824 476.5779 389.09728 476.0794 388.1003 C 475.5809 387.1033 470.5959 367.66183 470.5959 367.16334 C 470.5959 366.66484 464.6139 360.68285 464.1154 360.18435 C 463.6169 359.68586 454.64393 361.18135 454.64393 361.18135 L 442.67996 370.15433 L 436.698 381.1213 L 436.698 391.58977 C 436.698 391.58977 440.18747 405.54773 440.68597 405.54773 C 441.18447 405.54773 441.18447 424.9892 441.18447 424.9892 C 441.18447 424.9892 440.18747 431.96816 439.19047 432.46666 C 438.1935 432.96516 429.719 444.9291 429.719 445.4276 C 429.719 445.9261 420.2475 454.8991 419.74903 454.8991 C 419.25053 454.8991 413.76704 454.8991 413.76704 454.8991 L 405.29257 452.4066 L 403.29857 432.96516 C 403.29857 432.96516 402.30157 423.4937 402.30157 422.9952 C 402.30157 422.4967 396.8181 405.04923 396.8181 405.04923 L 390.3376 387.1033 L 384.8541 392.58677 C 384.8541 392.58677 379.37064 406.54473 378.87214 406.54473 C 378.37364 406.54473 376.37964 416.0162 376.37964 416.5147 C 376.37964 417.0132 376.37964 433.46366 376.37964 433.46366 L 371.89316 443.43363 L 361.9232 454.8991 L 352.4517 457.8901 C 352.4517 457.8901 344.97423 445.4276 343.97723 445.4276 C 342.98024 445.4276 332.51176 431.96816 332.51176 431.96816 L 326.52978 421.9982 L 323.5388 408.04022 L 316.5598 395.07926 L 316.5598 381.6198 L 309.58083 386.1063 C 309.58083 386.1063 308.58383 396.57476 308.08533 397.07325 C 307.58683 397.57175 299.61085 414.0222 299.11235 414.0222 C 298.61386 414.0222 272.19343 460.8811 272.19343 460.8811 Z" stroke="black" stroke-linecap="round" stroke-linejoin="round" stroke-width="5"/>
      </g>
      <g id="Graphic_30">
        <path d="M 144.89488 556.75525 L 151.2974 554.8028 L 157.71144 553.65084 C 157.7395 546.92265 157.70641 541.18114 157.55708 540.4514 C 157.17922 538.6049 157.1521 515.9092 157.1521 515.9092 L 156.3849 476.43526 C 156.3849 476.43526 163.86072 445.2784 164.07888 444.46425 C 164.29704 443.6501 150.41326 430.331 150.41326 430.331 L 129.7238 432.64094 L 115.15422 447.9349 C 115.15422 447.9349 102.64931 462.03685 101.83514 461.8187 C 101.02096 461.60053 87.81879 468.5346 87.81879 468.5346 L 69.092746 463.51696 L 60.296516 463.7779 L 70.00817 469.87067 C 70.00817 469.87067 97.96675 472.999 98.78093 473.21715 C 99.5951 473.4353 113.45175 464.0587 114.26593 464.2769 C 115.0801 464.49504 138.02526 437.4832 141.28196 438.35583 C 144.53866 439.22847 153.4946 441.6282 150.81825 454.87317 C 148.1419 468.11814 149.2285 512.91346 146.39244 523.49774 C 145.1979 527.95585 144.8589 541.932 144.89488 556.75525 Z M 223.49362 543.8111 L 236.28842 542.4097 C 238.72758 523.46373 239.53207 504.8229 239.53207 504.8229 C 239.53207 504.8229 244.5925 495.70725 272.96026 474.51156 C 301.32803 453.31586 278.41 503.02337 277.9737 504.6517 C 277.73052 505.5592 278.5605 525.72716 279.0685 544.9934 L 294.45672 547.79027 L 294.42837 547.4565 C 294.42837 547.4565 293.10796 516.5606 293.3261 515.74644 C 293.54427 514.93226 296.0609 499.0266 296.0609 499.0266 L 301.31237 466.40113 L 288.56217 458.62157 C 288.56217 458.62157 279.60624 456.22183 278.79206 456.0037 C 277.9779 455.7855 258.5817 466.2957 258.36355 467.10986 C 258.1454 467.92404 239.06862 483.75557 237.2221 484.13343 C 235.3756 484.5113 230.69305 495.47343 230.69305 495.47343 C 230.69305 495.47343 222.1849 527.2263 222.99907 527.44444 C 223.4969 527.57784 223.53735 536.72394 223.49362 543.8111 Z M 460.49143 573.2702 L 478.85817 572.669 L 489.6328 564.373 L 500.1784 547.1372 L 502.09656 531.4803 C 486.82095 546.99504 467.38516 566.65335 460.49143 573.2702 Z" fill="black"/>
        <path d="M 144.89488 556.75525 L 151.2974 554.8028 L 157.71144 553.65084 C 157.7395 546.92265 157.70641 541.18114 157.55708 540.4514 C 157.17922 538.6049 157.1521 515.9092 157.1521 515.9092 L 156.3849 476.43526 C 156.3849 476.43526 163.86072 445.2784 164.07888 444.46425 C 164.29704 443.6501 150.41326 430.331 150.41326 430.331 L 129.7238 432.64094 L 115.15422 447.9349 C 115.15422 447.9349 102.64931 462.03685 101.83514 461.8187 C 101.02096 461.60053 87.81879 468.5346 87.81879 468.5346 L 69.092746 463.51696 L 60.296516 463.7779 L 70.00817 469.87067 C 70.00817 469.87067 97.96675 472.999 98.78093 473.21715 C 99.5951 473.4353 113.45175 464.0587 114.26593 464.2769 C 115.0801 464.49504 138.02526 437.4832 141.28196 438.35583 C 144.53866 439.22847 153.4946 441.6282 150.81825 454.87317 C 148.1419 468.11814 149.2285 512.91346 146.39244 523.49774 C 145.1979 527.95585 144.8589 541.932 144.89488 556.75525 Z M 223.49362 543.8111 L 236.28842 542.4097 C 238.72758 523.46373 239.53207 504.8229 239.53207 504.8229 C 239.53207 504.8229 244.5925 495.70725 272.96026 474.51156 C 301.32803 453.31586 278.41 503.02337 277.9737 504.6517 C 277.73052 505.5592 278.5605 525.72716 279.0685 544.9934 L 294.45672 547.79027 L 294.42837 547.4565 C 294.42837 547.4565 293.10796 516.5606 293.3261 515.74644 C 293.54427 514.93226 296.0609 499.0266 296.0609 499.0266 L 301.31237 466.40113 L 288.56217 458.62157 C 288.56217 458.62157 279.60624 456.22183 278.79206 456.0037 C 277.9779 455.7855 258.5817 466.2957 258.36355 467.10986 C 258.1454 467.92404 239.06862 483.75557 237.2221 484.13343 C 235.3756 484.5113 230.69305 495.47343 230.69305 495.47343 C 230.69305 495.47343 222.1849 527.2263 222.99907 527.44444 C 223.4969 527.57784 223.53735 536.72394 223.49362 543.8111 Z M 460.49143 573.2702 L 478.85817 572.669 L 489.6328 564.373 L 500.1784 547.1372 L 502.09656 531.4803 C 486.82095 546.99504 467.38516 566.65335 460.49143 573.2702 Z" stroke="black" stroke-linecap="round" stroke-linejoin="round" stroke-width="5"/>
      </g>
      <g id="Line_34">
        <path d="M 774 247 L 794.8047 146.98717 L 794.8047 146.98717" stroke="black" stroke-linecap="round" stroke-linejoin="round" stroke-width="7"/>
      </g>
      <g id="Line_35">
        <line x1="796" y1="293" x2="846.3532" y2="253.54408" stroke="black" stroke-linecap="round" stroke-linejoin="round" stroke-width="7"/>
      </g>
      <g id="Line_36">
        <path d="M 806 399 L 837.2782 445.51535 L 837.2782 445.51535" stroke="black" stroke-linecap="round" stroke-linejoin="round" stroke-width="7"/>
      </g>
      <g id="Line_37">
        <path d="M 753 405 L 796 566.3859 L 796 566.3859" stroke="black" stroke-linecap="round" stroke-linejoin="round" stroke-width="7"/>
      </g>
    </g>
  </g>
</svg>
