<?xml version="1.0" encoding="UTF-8" standalone="no"?>
<!DOCTYPE svg PUBLIC "-//W3C//DTD SVG 1.1//EN" "http://www.w3.org/Graphics/SVG/1.1/DTD/svg11.dtd">
<svg xmlns="http://www.w3.org/2000/svg" version="1.1" xmlns:dc="http://purl.org/dc/elements/1.1/" xmlns:xl="http://www.w3.org/1999/xlink" viewBox="0 0 850.394 850.394" width="850.394" height="850.394">
  <defs/>
  <metadata> Produced by OmniGraffle 7.9.4 
    <dc:date>2019-03-12 09:20:27 +0000</dc:date>
  </metadata>
  <g id="Headphones" fill="none" stroke-opacity="1" fill-opacity="1" stroke-dasharray="none" stroke="none">
    <title>Headphones</title>
    <g id="Headphones: Layer 1">
      <title>Layer 1</title>
      <g id="Graphic_6">
        <path d="M 144 304 L 139.31371 299.3137 C 132.06966 292.06966 128 282.24463 128 272 L 128 272 C 128 261.75537 132.06966 251.93034 139.31371 244.6863 L 180.52524 203.47476 C 188.12537 195.87463 196.90106 189.54947 206.51456 184.74272 L 374.18167 100.90916 C 380.70762 97.64619 387.5711 95.10723 394.64947 93.33763 L 423.74644 86.06339 C 439.67044 82.08239 456.32956 82.08239 472.25356 86.06339 L 501.3505 93.33763 C 508.4289 95.10723 515.2924 97.64619 521.8183 100.90916 L 689.48544 184.74272 C 699.0989 189.54947 707.8746 195.87463 715.4748 203.47476 L 756.6863 244.6863 C 763.9303 251.93034 768 261.75537 768 272 L 768 272 C 768 282.24463 763.9303 292.06966 756.6863 299.3137 L 752 304 C 743.1634 312.83656 728.83656 312.83656 720 304 L 720 304 C 711.16344 295.16344 711.16344 280.83656 720 272 L 721.8579 270.14214 C 729.9726 262.02744 730.88555 249.18073 724 240 L 719.6172 234.1562 C 714.55935 227.41247 708.6691 221.3353 702.0867 216.06933 L 680.27255 198.61804 C 674.7729 194.21832 668.82384 190.41192 662.5244 187.2622 L 509.4493 110.72464 C 500.5332 106.26661 491.0007 103.16678 481.1678 101.52797 L 464.4399 98.73998 C 453.55504 96.92584 442.44496 96.92584 431.5601 98.73998 L 414.83217 101.52797 C 404.99933 103.16678 395.4668 106.26661 386.5507 110.72464 L 222.51456 192.74272 C 212.90106 197.54947 204.12537 203.87463 196.52524 211.47476 L 189.02525 218.97475 C 185.6793 222.3207 182.57506 225.89992 179.73593 229.68542 L 172 240 C 165.11445 249.18073 166.02744 262.02744 174.14214 270.14214 L 176 272 C 184.83656 280.83656 184.83656 295.16344 176 304 C 176 304 176 304 176 304 L 176 304 C 167.16344 312.83656 152.83656 312.83656 144 304 C 144 304 144 304 144 304 Z" fill="black"/>
        <path d="M 144 304 L 139.31371 299.3137 C 132.06966 292.06966 128 282.24463 128 272 L 128 272 C 128 261.75537 132.06966 251.93034 139.31371 244.6863 L 180.52524 203.47476 C 188.12537 195.87463 196.90106 189.54947 206.51456 184.74272 L 374.18167 100.90916 C 380.70762 97.64619 387.5711 95.10723 394.64947 93.33763 L 423.74644 86.06339 C 439.67044 82.08239 456.32956 82.08239 472.25356 86.06339 L 501.3505 93.33763 C 508.4289 95.10723 515.2924 97.64619 521.8183 100.90916 L 689.48544 184.74272 C 699.0989 189.54947 707.8746 195.87463 715.4748 203.47476 L 756.6863 244.6863 C 763.9303 251.93034 768 261.75537 768 272 L 768 272 C 768 282.24463 763.9303 292.06966 756.6863 299.3137 L 752 304 C 743.1634 312.83656 728.83656 312.83656 720 304 L 720 304 C 711.16344 295.16344 711.16344 280.83656 720 272 L 721.8579 270.14214 C 729.9726 262.02744 730.88555 249.18073 724 240 L 719.6172 234.1562 C 714.55935 227.41247 708.6691 221.3353 702.0867 216.06933 L 680.27255 198.61804 C 674.7729 194.21832 668.82384 190.41192 662.5244 187.2622 L 509.4493 110.72464 C 500.5332 106.26661 491.0007 103.16678 481.1678 101.52797 L 464.4399 98.73998 C 453.55504 96.92584 442.44496 96.92584 431.5601 98.73998 L 414.83217 101.52797 C 404.99933 103.16678 395.4668 106.26661 386.5507 110.72464 L 222.51456 192.74272 C 212.90106 197.54947 204.12537 203.87463 196.52524 211.47476 L 189.02525 218.97475 C 185.6793 222.3207 182.57506 225.89992 179.73593 229.68542 L 172 240 C 165.11445 249.18073 166.02744 262.02744 174.14214 270.14214 L 176 272 C 184.83656 280.83656 184.83656 295.16344 176 304 C 176 304 176 304 176 304 L 176 304 C 167.16344 312.83656 152.83656 312.83656 144 304 C 144 304 144 304 144 304 Z" stroke="black" stroke-linecap="round" stroke-linejoin="round" stroke-width="6"/>
      </g>
      <g id="Graphic_3">
        <path d="M 271.41505 647.9684 L 157.46437 668.061 C 149.60178 669.4474 127.93394 583.878 109.09867 477.05786 C 90.2634 370.23773 81.35804 282.41795 89.22064 281.03157 L 203.17132 260.939 C 211.0339 259.5526 232.70175 345.122 251.53702 451.94214 C 270.3723 558.76227 279.27765 646.58205 271.41505 647.9684" fill="#a5a5a5"/>
        <path d="M 271.41505 647.9684 L 157.46437 668.061 C 149.60178 669.4474 127.93394 583.878 109.09867 477.05786 C 90.2634 370.23773 81.35804 282.41795 89.22064 281.03157 L 203.17132 260.939 C 211.0339 259.5526 232.70175 345.122 251.53702 451.94214 C 270.3723 558.76227 279.27765 646.58205 271.41505 647.9684 M 157.46437 668.061 C 165.32697 666.6746 156.42161 578.85484 137.58634 472.0347 C 118.75107 365.2146 97.08324 279.64518 89.22064 281.03157" stroke="black" stroke-linecap="round" stroke-linejoin="round" stroke-width="8"/>
      </g>
      <g id="Graphic_4">
        <path d="M 674.4876 260.939 L 788.4382 281.03157 C 796.3008 282.41795 787.3955 370.23773 768.5602 477.05786 C 749.7249 583.878 728.0571 669.4474 720.1945 668.061 L 606.2438 647.9684 C 598.38124 646.58205 607.2866 558.76227 626.1219 451.94214 C 644.9571 345.122 666.625 259.5526 674.4876 260.939" fill="#a5a5a5"/>
        <path d="M 674.4876 260.939 L 788.4382 281.03157 C 796.3008 282.41795 787.3955 370.23773 768.5602 477.05786 C 749.7249 583.878 728.0571 669.4474 720.1945 668.061 L 606.2438 647.9684 C 598.38124 646.58205 607.2866 558.76227 626.1219 451.94214 C 644.9571 345.122 666.625 259.5526 674.4876 260.939 M 788.4382 281.03157 C 780.57565 279.64518 758.9078 365.2146 740.07254 472.0347 C 721.2373 578.85484 712.3319 666.6746 720.1945 668.061" stroke="black" stroke-linecap="round" stroke-linejoin="round" stroke-width="8"/>
      </g>
      <g id="Line_7">
        <path d="M 251.84883 655.4802 L 288 752 L 248 840 L 96 800 L 8 840" stroke="black" stroke-linecap="round" stroke-linejoin="round" stroke-width="12"/>
      </g>
      <g id="Graphic_8">
        <path d="M 313.21973 464 L 326.16143 420.1973 C 326.16143 420.1973 342.58744 389.8341 342.58744 389.3363 C 342.58744 388.83857 358.01794 369.92377 358.01794 369.92377 L 367.9731 396.8027 C 367.9731 396.8027 379.42152 412.2332 380.41704 423.6816 C 381.41256 435.13004 397.83857 448.5695 397.83857 448.5695 C 397.83857 448.5695 409.287 433.63677 409.287 431.64574 C 409.287 429.6547 408.2915 415.21973 409.287 409.24664 C 410.2825 403.27354 416.75336 389.3363 418.7444 388.83857 C 420.73543 388.3408 436.6637 383.861 437.16143 384.35874 C 437.6592 384.8565 441.1435 382.3677 441.64126 387.84305 C 442.139 393.3184 453.58744 429.15695 453.58744 430.15247 C 453.58744 431.148 448.1121 463.0045 461.0538 446.5785 C 473.9955 430.15247 475.4888 424.17937 475.4888 424.17937 C 475.4888 424.17937 469.5157 397.30045 470.5112 384.35874 C 471.5067 371.41704 497.8879 353 498.38565 353 C 498.8834 353 513.81614 354.49327 514.3139 355.4888 C 514.81166 356.4843 525.76233 392.82063 525.76233 399.2915 C 525.76233 405.76233 533.2287 431.148 533.72646 439.1121 C 534.2242 447.07623 539.69955 447.07623 541.6906 447.07623 C 543.6816 447.07623 552.64126 428.16143 553.139 428.16143 C 553.6368 428.16143 560.1076 420.69507 560.6054 420.69507 C 561.10314 420.69507 577.52915 418.2063 577.52915 418.2063 L 584 420.1973 L 579.0224 421.6906 L 567.574 421.6906 C 567.574 421.6906 561.10314 427.6637 560.6054 427.6637 C 560.1076 427.6637 555.13004 437.61883 555.13004 437.61883 L 549.15695 448.5695 L 537.7085 453.04933 C 537.7085 453.04933 527.75336 447.574 527.75336 447.07623 C 527.75336 446.5785 527.2556 427.6637 527.2556 427.6637 L 520.78475 405.26457 C 520.78475 405.26457 517.30045 392.32287 516.8027 391.32735 C 516.30493 390.33184 511.32735 370.9193 511.32735 370.42152 C 511.32735 369.92377 505.35426 363.95067 504.8565 363.4529 C 504.35874 362.95516 495.3991 364.44843 495.3991 364.44843 L 483.4529 373.40807 L 477.4798 384.35874 L 477.4798 394.81166 C 477.4798 394.81166 480.9641 408.7489 481.4619 408.7489 C 481.95964 408.7489 481.95964 428.16143 481.95964 428.16143 C 481.95964 428.16143 480.9641 435.13004 479.9686 435.6278 C 478.9731 436.12556 470.5112 448.07175 470.5112 448.5695 C 470.5112 449.06726 461.0538 458.0269 460.55605 458.0269 C 460.0583 458.0269 454.58296 458.0269 454.58296 458.0269 L 446.1211 455.5381 L 444.13004 436.12556 C 444.13004 436.12556 443.13453 426.66816 443.13453 426.1704 C 443.13453 425.67265 437.6592 408.2511 437.6592 408.2511 L 431.18834 390.33184 L 425.713 395.80717 C 425.713 395.80717 420.23767 409.7444 419.7399 409.7444 C 419.24215 409.7444 417.2511 419.2018 417.2511 419.69955 C 417.2511 420.1973 417.2511 436.6233 417.2511 436.6233 L 412.7713 446.5785 L 402.81614 458.0269 L 393.35874 461.01345 C 393.35874 461.01345 385.89238 448.5695 384.89686 448.5695 C 383.90135 448.5695 373.44843 435.13004 373.44843 435.13004 L 367.47534 425.1749 L 364.4888 411.23767 L 357.5202 398.29596 L 357.5202 384.8565 L 350.55157 389.3363 C 350.55157 389.3363 349.55605 399.78924 349.0583 400.287 C 348.56054 400.78475 340.5964 417.21076 340.09865 417.21076 C 339.6009 417.21076 313.21973 464 313.21973 464 Z" fill="#999"/>
        <path d="M 313.21973 464 L 326.16143 420.1973 C 326.16143 420.1973 342.58744 389.8341 342.58744 389.3363 C 342.58744 388.83857 358.01794 369.92377 358.01794 369.92377 L 367.9731 396.8027 C 367.9731 396.8027 379.42152 412.2332 380.41704 423.6816 C 381.41256 435.13004 397.83857 448.5695 397.83857 448.5695 C 397.83857 448.5695 409.287 433.63677 409.287 431.64574 C 409.287 429.6547 408.2915 415.21973 409.287 409.24664 C 410.2825 403.27354 416.75336 389.3363 418.7444 388.83857 C 420.73543 388.3408 436.6637 383.861 437.16143 384.35874 C 437.6592 384.8565 441.1435 382.3677 441.64126 387.84305 C 442.139 393.3184 453.58744 429.15695 453.58744 430.15247 C 453.58744 431.148 448.1121 463.0045 461.0538 446.5785 C 473.9955 430.15247 475.4888 424.17937 475.4888 424.17937 C 475.4888 424.17937 469.5157 397.30045 470.5112 384.35874 C 471.5067 371.41704 497.8879 353 498.38565 353 C 498.8834 353 513.81614 354.49327 514.3139 355.4888 C 514.81166 356.4843 525.76233 392.82063 525.76233 399.2915 C 525.76233 405.76233 533.2287 431.148 533.72646 439.1121 C 534.2242 447.07623 539.69955 447.07623 541.6906 447.07623 C 543.6816 447.07623 552.64126 428.16143 553.139 428.16143 C 553.6368 428.16143 560.1076 420.69507 560.6054 420.69507 C 561.10314 420.69507 577.52915 418.2063 577.52915 418.2063 L 584 420.1973 L 579.0224 421.6906 L 567.574 421.6906 C 567.574 421.6906 561.10314 427.6637 560.6054 427.6637 C 560.1076 427.6637 555.13004 437.61883 555.13004 437.61883 L 549.15695 448.5695 L 537.7085 453.04933 C 537.7085 453.04933 527.75336 447.574 527.75336 447.07623 C 527.75336 446.5785 527.2556 427.6637 527.2556 427.6637 L 520.78475 405.26457 C 520.78475 405.26457 517.30045 392.32287 516.8027 391.32735 C 516.30493 390.33184 511.32735 370.9193 511.32735 370.42152 C 511.32735 369.92377 505.35426 363.95067 504.8565 363.4529 C 504.35874 362.95516 495.3991 364.44843 495.3991 364.44843 L 483.4529 373.40807 L 477.4798 384.35874 L 477.4798 394.81166 C 477.4798 394.81166 480.9641 408.7489 481.4619 408.7489 C 481.95964 408.7489 481.95964 428.16143 481.95964 428.16143 C 481.95964 428.16143 480.9641 435.13004 479.9686 435.6278 C 478.9731 436.12556 470.5112 448.07175 470.5112 448.5695 C 470.5112 449.06726 461.0538 458.0269 460.55605 458.0269 C 460.0583 458.0269 454.58296 458.0269 454.58296 458.0269 L 446.1211 455.5381 L 444.13004 436.12556 C 444.13004 436.12556 443.13453 426.66816 443.13453 426.1704 C 443.13453 425.67265 437.6592 408.2511 437.6592 408.2511 L 431.18834 390.33184 L 425.713 395.80717 C 425.713 395.80717 420.23767 409.7444 419.7399 409.7444 C 419.24215 409.7444 417.2511 419.2018 417.2511 419.69955 C 417.2511 420.1973 417.2511 436.6233 417.2511 436.6233 L 412.7713 446.5785 L 402.81614 458.0269 L 393.35874 461.01345 C 393.35874 461.01345 385.89238 448.5695 384.89686 448.5695 C 383.90135 448.5695 373.44843 435.13004 373.44843 435.13004 L 367.47534 425.1749 L 364.4888 411.23767 L 357.5202 398.29596 L 357.5202 384.8565 L 350.55157 389.3363 C 350.55157 389.3363 349.55605 399.78924 349.0583 400.287 C 348.56054 400.78475 340.5964 417.21076 340.09865 417.21076 C 339.6009 417.21076 313.21973 464 313.21973 464 Z" stroke="#a5a5a5" stroke-linecap="round" stroke-linejoin="round" stroke-width="5"/>
      </g>
    </g>
  </g>
</svg>
