<?xml version="1.0" encoding="UTF-8" standalone="no"?>
<!DOCTYPE svg PUBLIC "-//W3C//DTD SVG 1.1//EN" "http://www.w3.org/Graphics/SVG/1.1/DTD/svg11.dtd">
<svg xmlns:dc="http://purl.org/dc/elements/1.1/" xmlns:xl="http://www.w3.org/1999/xlink" version="1.1" xmlns="http://www.w3.org/2000/svg" viewBox="0 0 850.394 850.394" width="850.394" height="850.394">
  <defs/>
  <metadata> Produced by OmniGraffle 7.9.4 
    <dc:date>2019-08-05 01:28:40 +0000</dc:date>
  </metadata>
  <g id="instrument" fill="none" stroke-opacity="1" stroke="none" stroke-dasharray="none" fill-opacity="1">
    <title>instrument</title>
    <g id="instrument: Layer 2">
      <title>Layer 2</title>
      <g id="Graphic_63">
        <path d="M 434.17167 102.35177 L 735.83305 276.51605 C 771.5153 297.1172 731.08376 434.02574 645.5841 582.1155 C 560.08445 730.2052 461.73394 833.6742 426.0517 813.0731 L 124.39032 638.9088 C 88.70809 618.30765 129.13962 481.3991 214.63927 333.30937 C 300.13892 185.21962 398.48944 81.75062 434.17167 102.35177 Z" fill="#333"/>
        <path d="M 434.17167 102.35177 L 735.83305 276.51605 C 771.5153 297.1172 731.08376 434.02574 645.5841 582.1155 C 560.08445 730.2052 461.73394 833.6742 426.0517 813.0731 L 124.39032 638.9088 C 88.70809 618.30765 129.13962 481.3991 214.63927 333.30937 C 300.13892 185.21962 398.48944 81.75062 434.17167 102.35177 Z" stroke="black" stroke-linecap="round" stroke-linejoin="round" stroke-width="8"/>
      </g>
      <g id="Graphic_62">
        <path d="M 424.3423 79.01843 L 726.0037 253.1827 C 761.6859 273.78386 721.2544 410.6924 635.7547 558.78215 C 550.2551 706.8719 451.90456 810.3409 416.22233 789.73975 L 114.56095 615.5755 C 78.878715 594.9743 119.31024 458.0658 204.8099 309.97603 C 290.30955 161.8863 388.66006 58.41729 424.3423 79.01843 Z" fill="#333"/>
        <path d="M 424.3423 79.01843 L 726.0037 253.1827 C 761.6859 273.78386 721.2544 410.6924 635.7547 558.78215 C 550.2551 706.8719 451.90456 810.3409 416.22233 789.73975 L 114.56095 615.5755 C 78.878715 594.9743 119.31024 458.0658 204.8099 309.97603 C 290.30955 161.8863 388.66006 58.41729 424.3423 79.01843 Z" stroke="black" stroke-linecap="round" stroke-linejoin="round" stroke-width="8"/>
      </g>
      <g id="Graphic_61">
        <path d="M 432.9385 152.17358 L 663.62075 285.35803 C 690.9072 301.11184 659.9889 405.8066 594.60685 519.0517 C 529.22476 632.2968 454.01554 711.4202 426.72913 695.66635 L 196.0469 562.4819 C 168.76048 546.7281 199.6787 442.0333 265.0608 328.7882 C 330.4429 215.54311 405.6521 136.41976 432.9385 152.17358 Z" fill="#76bdff"/>
        <path d="M 432.9385 152.17358 L 663.62075 285.35803 C 690.9072 301.11184 659.9889 405.8066 594.60685 519.0517 C 529.22476 632.2968 454.01554 711.4202 426.72913 695.66635 L 196.0469 562.4819 C 168.76048 546.7281 199.6787 442.0333 265.0608 328.7882 C 330.4429 215.54311 405.6521 136.41976 432.9385 152.17358 Z" stroke="#506fff" stroke-linecap="round" stroke-linejoin="round" stroke-width="7"/>
      </g>
      <g id="Graphic_60">
        <path d="M 318.24893 660.6609 C 322.0896 674.0979 314.21283 687.74084 300.6557 691.13325 C 287.09857 694.5257 272.99495 686.383 269.15436 672.94596 C 265.3137 659.5089 273.19046 645.866 286.7476 642.4736 C 300.30472 639.0811 314.40834 647.2238 318.24893 660.6609" fill="#666"/>
        <path d="M 318.24893 660.6609 C 322.0896 674.0979 314.21283 687.74084 300.6557 691.13325 C 287.09857 694.5257 272.99495 686.383 269.15436 672.94596 C 265.3137 659.5089 273.19046 645.866 286.7476 642.4736 C 300.30472 639.0811 314.40834 647.2238 318.24893 660.6609" stroke="black" stroke-linecap="round" stroke-linejoin="round" stroke-width="7"/>
      </g>
      <g id="Graphic_59">
        <path d="M 569.78015 231.67684 L 575.7377 237.6344 L 569.78015 243.592 L 563.8226 237.6344 Z" fill="#999"/>
        <path d="M 569.78015 231.67684 L 575.7377 237.6344 L 569.78015 243.592 L 563.8226 237.6344 Z" stroke="black" stroke-linecap="round" stroke-linejoin="round" stroke-width="3"/>
      </g>
      <g id="Graphic_58">
        <path d="M 589.48044 222.01567 L 595.438 227.97324 L 589.48044 233.93082 L 583.52286 227.97324 Z" fill="#999"/>
        <path d="M 589.48044 222.01567 L 595.438 227.97324 L 589.48044 233.93082 L 583.52286 227.97324 Z" stroke="black" stroke-linecap="round" stroke-linejoin="round" stroke-width="3"/>
      </g>
      <g id="Graphic_57">
        <path d="M 609.3656 210.2071 L 615.3232 216.16466 L 609.3656 222.12224 L 603.408 216.16466 Z" fill="#999"/>
        <path d="M 609.3656 210.2071 L 615.3232 216.16466 L 609.3656 222.12224 L 603.408 216.16466 Z" stroke="black" stroke-linecap="round" stroke-linejoin="round" stroke-width="3"/>
      </g>
      <g id="Graphic_56">
        <path d="M 629.25076 198.54524 L 635.2083 204.50282 L 629.25076 210.4604 L 623.2932 204.50282 Z" fill="#999"/>
        <path d="M 629.25076 198.54524 L 635.2083 204.50282 L 629.25076 210.4604 L 623.2932 204.50282 Z" stroke="black" stroke-linecap="round" stroke-linejoin="round" stroke-width="3"/>
      </g>
      <g id="Graphic_55">
        <path d="M 650.47326 186.32382 L 656.4308 192.2814 L 650.47326 198.23897 L 644.5157 192.2814 Z" fill="#999"/>
        <path d="M 650.47326 186.32382 L 656.4308 192.2814 L 650.47326 198.23897 L 644.5157 192.2814 Z" stroke="black" stroke-linecap="round" stroke-linejoin="round" stroke-width="3"/>
      </g>
      <g id="Graphic_54">
        <path d="M 667.9039 178 L 673.8615 183.95757 L 667.9039 189.91515 L 661.9464 183.95757 Z" fill="#999"/>
        <path d="M 667.9039 178 L 673.8615 183.95757 L 667.9039 189.91515 L 661.9464 183.95757 Z" stroke="black" stroke-linecap="round" stroke-linejoin="round" stroke-width="3"/>
      </g>
      <g id="Graphic_53">
        <path d="M 283.23467 585.5184 L 348.22805 651.69346 C 353.22905 656.7854 359.71572 660.1606 366.7557 661.3339 L 374.40436 662.6087 C 376.5233 662.96184 378.66777 663.1393 380.81593 663.1393 L 392.3221 663.1393 C 398.07514 663.1393 403.75696 661.8665 408.9602 659.41216 L 425.0125 651.8403 C 430.2416 649.3738 434.85687 645.77545 438.52425 641.3058 L 447.6418 630.19384 C 450.6631 626.5116 452.98434 622.30706 454.49057 617.7884 L 459.42405 602.9879 C 459.8315 601.7656 460.1781 600.52386 460.4626 599.26724 L 466.1675 574.0708 C 466.8911 570.87475 468.01466 567.78266 469.5116 564.8676 L 474.5869 554.9841 C 477.28796 549.7241 481.1497 545.1472 485.88 541.59946 L 490.6629 538.0123 C 493.8961 535.5874 497.4865 533.67983 501.3056 532.35783 L 518.7244 526.32824 C 524.0682 524.4785 528.9458 521.48873 533.01914 517.5663 L 538.8264 511.9741 C 541.6116 509.2921 543.6053 505.89555 544.5893 502.1563 L 544.5893 502.1563 C 545.5489 498.5099 544.9504 494.6287 542.93695 491.44075 L 542.483 490.72196 C 540.2126 487.12717 536.3683 484.82596 532.1274 484.52304 L 499.39877 482.1853 C 497.63213 482.0591 495.87614 481.8127 494.143 481.44783 L 478.3797 478.12925 C 475.38835 477.4995 472.4814 476.5202 469.71875 475.2116 L 468.15996 474.4732 C 464.43834 472.71033 461.3473 469.8479 459.30417 466.27247 L 458.83197 465.4461 C 456.5055 461.3748 455.7491 456.5929 456.7055 452.00227 L 457.7969 446.7636 C 458.0855 445.3781 458.44936 444.00936 458.8868 442.66343 L 465.7183 421.6434 C 465.9301 420.99174 465.8319 420.279 465.45183 419.7089 L 465.45183 419.7089 C 465.1011 419.1828 465.167 418.483 465.60966 418.03157 L 575.5494 305.92555 C 582.88396 298.44645 592.9189 294.23237 603.3943 294.23237 L 603.5663 294.23237 C 613.8699 294.23237 623.4553 288.954 628.9641 280.2466 L 653.5635 241.36357 C 655.9544 237.5845 660.1816 235.37014 664.64956 235.5563 L 665.584 235.59524 C 669.7486 235.76876 673.914 235.27356 677.92175 234.12848 L 680.2965 233.44998 C 685.72676 231.89848 690.4062 228.4226 693.4601 223.672 L 696.4244 219.06092 C 698.4884 215.85025 699.8617 212.2452 700.457 208.47504 L 700.457 208.47504 C 701.0527 204.70228 700.8823 200.84818 699.9559 197.14272 L 699.8534 196.73274 C 698.8948 192.8981 696.3897 189.63232 692.9344 187.71274 L 692.9344 187.71274 C 689.38225 185.7393 685.38575 184.70371 681.3222 184.70371 L 680.5974 184.70371 C 676.0461 184.70371 671.5573 185.76337 667.4865 187.79877 L 650.4652 196.30944 C 649.8914 196.59632 649.3248 196.89731 648.7659 197.21215 L 558.085 248.2919 C 555.7353 249.61547 553.6981 251.42943 552.1119 253.61048 L 552.1119 253.61048 C 550.5474 255.76166 549.70465 258.3532 549.70465 261.01313 L 549.70465 264.14208 C 549.70465 268.77032 547.88676 273.2134 544.64256 276.51426 L 417.9816 405.3876 C 413.97045 409.46884 409.1103 412.61737 403.746 414.60983 L 399.14515 416.3187 C 393.67027 418.35224 388.722 421.58943 384.66567 425.7913 L 283.0004 531.10374 C 268.32156 546.3092 268.42545 570.4399 283.23467 585.5184 Z" fill="#a58465"/>
        <path d="M 283.23467 585.5184 L 348.22805 651.69346 C 353.22905 656.7854 359.71572 660.1606 366.7557 661.3339 L 374.40436 662.6087 C 376.5233 662.96184 378.66777 663.1393 380.81593 663.1393 L 392.3221 663.1393 C 398.07514 663.1393 403.75696 661.8665 408.9602 659.41216 L 425.0125 651.8403 C 430.2416 649.3738 434.85687 645.77545 438.52425 641.3058 L 447.6418 630.19384 C 450.6631 626.5116 452.98434 622.30706 454.49057 617.7884 L 459.42405 602.9879 C 459.8315 601.7656 460.1781 600.52386 460.4626 599.26724 L 466.1675 574.0708 C 466.8911 570.87475 468.01466 567.78266 469.5116 564.8676 L 474.5869 554.9841 C 477.28796 549.7241 481.1497 545.1472 485.88 541.59946 L 490.6629 538.0123 C 493.8961 535.5874 497.4865 533.67983 501.3056 532.35783 L 518.7244 526.32824 C 524.0682 524.4785 528.9458 521.48873 533.01914 517.5663 L 538.8264 511.9741 C 541.6116 509.2921 543.6053 505.89555 544.5893 502.1563 L 544.5893 502.1563 C 545.5489 498.5099 544.9504 494.6287 542.93695 491.44075 L 542.483 490.72196 C 540.2126 487.12717 536.3683 484.82596 532.1274 484.52304 L 499.39877 482.1853 C 497.63213 482.0591 495.87614 481.8127 494.143 481.44783 L 478.3797 478.12925 C 475.38835 477.4995 472.4814 476.5202 469.71875 475.2116 L 468.15996 474.4732 C 464.43834 472.71033 461.3473 469.8479 459.30417 466.27247 L 458.83197 465.4461 C 456.5055 461.3748 455.7491 456.5929 456.7055 452.00227 L 457.7969 446.7636 C 458.0855 445.3781 458.44936 444.00936 458.8868 442.66343 L 465.7183 421.6434 C 465.9301 420.99174 465.8319 420.279 465.45183 419.7089 L 465.45183 419.7089 C 465.1011 419.1828 465.167 418.483 465.60966 418.03157 L 575.5494 305.92555 C 582.88396 298.44645 592.9189 294.23237 603.3943 294.23237 L 603.5663 294.23237 C 613.8699 294.23237 623.4553 288.954 628.9641 280.2466 L 653.5635 241.36357 C 655.9544 237.5845 660.1816 235.37014 664.64956 235.5563 L 665.584 235.59524 C 669.7486 235.76876 673.914 235.27356 677.92175 234.12848 L 680.2965 233.44998 C 685.72676 231.89848 690.4062 228.4226 693.4601 223.672 L 696.4244 219.06092 C 698.4884 215.85025 699.8617 212.2452 700.457 208.47504 L 700.457 208.47504 C 701.0527 204.70228 700.8823 200.84818 699.9559 197.14272 L 699.8534 196.73274 C 698.8948 192.8981 696.3897 189.63232 692.9344 187.71274 L 692.9344 187.71274 C 689.38225 185.7393 685.38575 184.70371 681.3222 184.70371 L 680.5974 184.70371 C 676.0461 184.70371 671.5573 185.76337 667.4865 187.79877 L 650.4652 196.30944 C 649.8914 196.59632 649.3248 196.89731 648.7659 197.21215 L 558.085 248.2919 C 555.7353 249.61547 553.6981 251.42943 552.1119 253.61048 L 552.1119 253.61048 C 550.5474 255.76166 549.70465 258.3532 549.70465 261.01313 L 549.70465 264.14208 C 549.70465 268.77032 547.88676 273.2134 544.64256 276.51426 L 417.9816 405.3876 C 413.97045 409.46884 409.1103 412.61737 403.746 414.60983 L 399.14515 416.3187 C 393.67027 418.35224 388.722 421.58943 384.66567 425.7913 L 283.0004 531.10374 C 268.32156 546.3092 268.42545 570.4399 283.23467 585.5184 Z" stroke="black" stroke-linecap="round" stroke-linejoin="round" stroke-width="4"/>
      </g>
      <g id="Graphic_52">
        <path d="M 550.90826 271.36375 L 581.60035 300.25043 L 465.45183 418.80617 L 434.5679 388.52405 Z" fill="#c7ab93"/>
        <path d="M 550.90826 271.36375 L 581.60035 300.25043 L 465.45183 418.80617 L 434.5679 388.52405 Z" stroke="black" stroke-linecap="round" stroke-linejoin="round" stroke-width="4"/>
      </g>
      <g id="Graphic_51">
        <path d="M 550.30645 267.7529 L 583.0046 300.45103 L 580.0221 303.4335 L 547.324 270.73538 Z" fill="#ccc"/>
        <path d="M 550.30645 267.7529 L 583.0046 300.45103 L 580.0221 303.4335 L 547.324 270.73538 Z" stroke="black" stroke-linecap="round" stroke-linejoin="round" stroke-width="1"/>
      </g>
      <g id="Graphic_50">
        <path d="M 311.69944 512.0801 L 355.39724 555.7779 L 349.43967 561.7355 L 305.74187 518.0377 Z" fill="black"/>
        <path d="M 311.69944 512.0801 L 355.39724 555.7779 L 349.43967 561.7355 L 305.74187 518.0377 Z" stroke="black" stroke-linecap="round" stroke-linejoin="round" stroke-width="1"/>
      </g>
      <g id="Line_49">
        <line x1="289.26433" y1="542.0643" x2="574.6209" y2="249.5241" stroke="black" stroke-linecap="round" stroke-linejoin="round" stroke-width="2"/>
      </g>
      <g id="Line_48">
        <line x1="304.37413" y1="537.6318" x2="594.2383" y2="238.90014" stroke="black" stroke-linecap="round" stroke-linejoin="round" stroke-width="2"/>
      </g>
      <g id="Line_47">
        <line x1="309.90386" y1="542.0643" x2="618.3105" y2="225.33832" stroke="black" stroke-linecap="round" stroke-linejoin="round" stroke-width="2"/>
      </g>
      <g id="Line_46">
        <line x1="315.98657" y1="546.4753" x2="638.7072" y2="212.54208" stroke="black" stroke-linecap="round" stroke-linejoin="round" stroke-width="2"/>
      </g>
      <g id="Line_45">
        <line x1="322.06927" y1="549.8104" x2="654.8848" y2="204.12974" stroke="black" stroke-linecap="round" stroke-linejoin="round" stroke-width="2"/>
      </g>
      <g id="Line_44">
        <line x1="325.6928" y1="555.4161" x2="675.19886" y2="191.35898" stroke="black" stroke-linecap="round" stroke-linejoin="round" stroke-width="2"/>
      </g>
      <g id="Graphic_43">
        <path d="M 302.88607 521.71496 L 337.529 556.3579 L 317.7085 576.1784 L 283.06558 541.53545 Z" fill="#666"/>
        <path d="M 302.88607 521.71496 L 337.529 556.3579 L 317.7085 576.1784 L 283.06558 541.53545 Z" stroke="black" stroke-linecap="round" stroke-linejoin="round" stroke-width="3"/>
      </g>
      <g id="Graphic_42">
        <circle cx="577.5624" cy="246.50852" r="4.21264736610905" fill="black"/>
        <circle cx="577.5624" cy="246.50852" r="4.21264736610905" stroke="black" stroke-linecap="round" stroke-linejoin="round" stroke-width="1"/>
      </g>
      <g id="Graphic_41">
        <circle cx="596.0437" cy="234.6875" r="4.21264736610904" fill="black"/>
        <circle cx="596.0437" cy="234.6875" r="4.21264736610904" stroke="black" stroke-linecap="round" stroke-linejoin="round" stroke-width="1"/>
      </g>
      <g id="Graphic_40">
        <circle cx="617.1069" cy="223.8211" r="4.21264736610907" fill="black"/>
        <circle cx="617.1069" cy="223.8211" r="4.21264736610907" stroke="black" stroke-linecap="round" stroke-linejoin="round" stroke-width="1"/>
      </g>
      <g id="Graphic_39">
        <circle cx="636.9665" cy="212.98858" r="4.21264736610904" fill="black"/>
        <circle cx="636.9665" cy="212.98858" r="4.21264736610904" stroke="black" stroke-linecap="round" stroke-linejoin="round" stroke-width="1"/>
      </g>
      <g id="Graphic_38">
        <circle cx="655.6225" cy="202.75789" r="4.21264736610906" fill="black"/>
        <circle cx="655.6225" cy="202.75789" r="4.21264736610906" stroke="black" stroke-linecap="round" stroke-linejoin="round" stroke-width="1"/>
      </g>
      <g id="Graphic_37">
        <circle cx="675.4821" cy="191.92538" r="4.21264736610906" fill="black"/>
        <circle cx="675.4821" cy="191.92538" r="4.21264736610906" stroke="black" stroke-linecap="round" stroke-linejoin="round" stroke-width="1"/>
      </g>
      <g id="Graphic_36">
        <path d="M 397.43227 613.83 C 397.4067 619.0924 393.12 623.3791 387.8576 623.4046 C 382.5952 623.4302 378.34993 619.1849 378.3755 613.9225 C 378.40105 608.66014 382.68777 604.3734 387.95017 604.3479 C 393.21256 604.3223 397.45784 608.5676 397.43227 613.83" fill="black"/>
        <path d="M 397.43227 613.83 C 397.4067 619.0924 393.12 623.3791 387.8576 623.4046 C 382.5952 623.4302 378.34993 619.1849 378.3755 613.9225 C 378.40105 608.66014 382.68777 604.3734 387.95017 604.3479 C 393.21256 604.3223 397.45784 608.5676 397.43227 613.83" stroke="black" stroke-linecap="round" stroke-linejoin="round" stroke-width="1"/>
      </g>
      <g id="Graphic_35">
        <path d="M 441.895 379.6888 L 476.5379 414.33173 L 456.7174 434.1522 L 422.0745 399.5093 Z" fill="#999"/>
        <path d="M 441.895 379.6888 L 476.5379 414.33173 L 456.7174 434.1522 L 422.0745 399.5093 Z" stroke="black" stroke-linecap="round" stroke-linejoin="round" stroke-width="5"/>
      </g>
    </g>
    <g id="instrument: Layer 1">
      <title>Layer 1</title>
      <g id="Graphic_4">
        <path d="M 542.40307 328.76567 L 524.67486 320.74577 C 506.3204 312.44256 485.8861 309.8765 466.0485 313.3837 L 406 324 C 406 324 400.5 369 401 369 C 401.5 369 427 406 427 406 C 427 406 486.5 403.5 487 403.5 C 487.5 403.5 494 448.5 494 448.5 L 444.25 441.5 C 413.31285 437.14703 386.81807 417.1242 374.1854 388.55026 L 352.5 339.5 C 352.5 339.5 306.5 281 306 280.5 C 305.5 280 215.5 244.5 215.5 244.5 L 214.5 244.5 C 213.97513 244.5 213.54965 244.9255 213.54965 245.45035 C 213.54965 245.46648 213.55006 245.4826 213.55088 245.4987 L 225.82644 486.4634 C 226.45855 498.8715 237.02972 508.4178 249.43782 507.7857 C 249.62535 507.77615 249.81276 507.76425 250 507.75 L 250 507.75 C 264.44725 506.65075 277.4921 498.6929 285.0801 486.3497 L 295.9489 468.6698 C 305.4693 453.18326 310.58812 435.3945 310.7549 417.2164 L 311.2761 360.40312 C 311.31924 355.7029 315.16448 351.92757 319.8647 351.9707 C 322.46088 351.9945 324.9042 353.20205 326.5 355.25 L 336.13955 367.62076 C 339.7064 372.19823 342.86806 377.0775 345.5887 382.2033 L 376 439.5 C 376 439.5 398 456 398.5 456 C 399 456 455.5 473 456 473 C 456.5 473 503.5 468.5 503.5 468.5 L 504.5 428 C 504.5 428 496 389 495.5 388.5 C 495 388 433 383.5 433 383.5 C 433 383.5 431.5 350.5 433 348 C 434.5 345.5 457 331 457 331 C 457 331 508 352 508 352.5 C 508 353 549 377 549 377 L 553.5 375.5 C 556.2083 374.59723 558.0755 372.1129 558.1896 369.26037 L 558.75 355.25 C 559.20334 343.91655 552.7373 333.4407 542.40307 328.76567 Z" fill="#bfbc2f"/>
        <path d="M 542.40307 328.76567 L 524.67486 320.74577 C 506.3204 312.44256 485.8861 309.8765 466.0485 313.3837 L 406 324 C 406 324 400.5 369 401 369 C 401.5 369 427 406 427 406 C 427 406 486.5 403.5 487 403.5 C 487.5 403.5 494 448.5 494 448.5 L 444.25 441.5 C 413.31285 437.14703 386.81807 417.1242 374.1854 388.55026 L 352.5 339.5 C 352.5 339.5 306.5 281 306 280.5 C 305.5 280 215.5 244.5 215.5 244.5 L 214.5 244.5 C 213.97513 244.5 213.54965 244.9255 213.54965 245.45035 C 213.54965 245.46648 213.55006 245.4826 213.55088 245.4987 L 225.82644 486.4634 C 226.45855 498.8715 237.02972 508.4178 249.43782 507.7857 C 249.62535 507.77615 249.81276 507.76425 250 507.75 L 250 507.75 C 264.44725 506.65075 277.4921 498.6929 285.0801 486.3497 L 295.9489 468.6698 C 305.4693 453.18326 310.58812 435.3945 310.7549 417.2164 L 311.2761 360.40312 C 311.31924 355.7029 315.16448 351.92757 319.8647 351.9707 C 322.46088 351.9945 324.9042 353.20205 326.5 355.25 L 336.13955 367.62076 C 339.7064 372.19823 342.86806 377.0775 345.5887 382.2033 L 376 439.5 C 376 439.5 398 456 398.5 456 C 399 456 455.5 473 456 473 C 456.5 473 503.5 468.5 503.5 468.5 L 504.5 428 C 504.5 428 496 389 495.5 388.5 C 495 388 433 383.5 433 383.5 C 433 383.5 431.5 350.5 433 348 C 434.5 345.5 457 331 457 331 C 457 331 508 352 508 352.5 C 508 353 549 377 549 377 L 553.5 375.5 C 556.2083 374.59723 558.0755 372.1129 558.1896 369.26037 L 558.75 355.25 C 559.20334 343.91655 552.7373 333.4407 542.40307 328.76567 Z" stroke="black" stroke-linecap="round" stroke-linejoin="round" stroke-width="4"/>
      </g>
      <g id="Graphic_2">
        <path d="M 184.65929 472.9722 L 173.77321 445.8597 C 168.64626 433.0907 166.20968 419.401 166.6159 405.64715 L 168.9639 326.15084 C 169.3184 314.14842 171.83168 302.30796 176.38338 291.19645 L 190.09528 257.7233 C 194.91495 245.95762 208.36002 240.32678 220.1257 245.14645 C 223.09485 246.36273 225.77698 248.18625 228 250.5 L 239.0779 262.03005 C 247.92503 271.2383 254.71555 282.22057 259 294.25 L 260.79896 299.30093 C 263.91776 308.05754 265.8004 317.20624 266.39252 326.4828 L 271.44853 405.6936 C 271.48284 406.2312 271.5128 406.76905 271.53843 407.3071 L 273.5 448.5 C 273.5 448.5 256.5 499 256.5 499.5 C 256.5 500 231 509.5 231 509.5 L 211.75 501 C 199.40835 495.55044 189.68616 485.49195 184.65929 472.9722 Z" fill="yellow"/>
        <path d="M 184.65929 472.9722 L 173.77321 445.8597 C 168.64626 433.0907 166.20968 419.401 166.6159 405.64715 L 168.9639 326.15084 C 169.3184 314.14842 171.83168 302.30796 176.38338 291.19645 L 190.09528 257.7233 C 194.91495 245.95762 208.36002 240.32678 220.1257 245.14645 C 223.09485 246.36273 225.77698 248.18625 228 250.5 L 239.0779 262.03005 C 247.92503 271.2383 254.71555 282.22057 259 294.25 L 260.79896 299.30093 C 263.91776 308.05754 265.8004 317.20624 266.39252 326.4828 L 271.44853 405.6936 C 271.48284 406.2312 271.5128 406.76905 271.53843 407.3071 L 273.5 448.5 C 273.5 448.5 256.5 499 256.5 499.5 C 256.5 500 231 509.5 231 509.5 L 211.75 501 C 199.40835 495.55044 189.68616 485.49195 184.65929 472.9722 Z" stroke="black" stroke-linecap="round" stroke-linejoin="round" stroke-width="4"/>
      </g>
      <g id="Graphic_3">
        <path d="M 545.8252 376.9384 L 544.77944 374.3339 C 543.08995 370.12614 542.287 365.61497 542.4209 361.08265 L 542.6386 353.7118 C 542.80785 347.98125 544.0078 342.32803 546.181 337.02285 L 546.87606 335.3261 C 547.8078 333.05156 550.40703 331.963 552.6816 332.89474 C 553.2556 333.12988 553.7741 333.4824 554.20387 333.9297 L 556.34546 336.1587 C 558.0558 337.93886 559.36856 340.06197 560.19684 342.38752 L 560.19684 342.38752 C 561.0305 344.72817 561.5337 347.17362 561.692 349.65325 L 562.5619 363.2815 C 562.5962 363.81907 562.6262 364.3569 562.6518 364.895 L 563 372.2074 C 563 372.2074 559.7135 381.97012 559.7135 382.0668 C 559.7135 382.16344 554.7838 384 554.7838 384 L 551.0624 382.35677 C 548.6765 381.30325 546.797 379.35872 545.8252 376.9384 Z" fill="#c5cb4d"/>
        <path d="M 545.8252 376.9384 L 544.77944 374.3339 C 543.08995 370.12614 542.287 365.61497 542.4209 361.08265 L 542.6386 353.7118 C 542.80785 347.98125 544.0078 342.32803 546.181 337.02285 L 546.87606 335.3261 C 547.8078 333.05156 550.40703 331.963 552.6816 332.89474 C 553.2556 333.12988 553.7741 333.4824 554.20387 333.9297 L 556.34546 336.1587 C 558.0558 337.93886 559.36856 340.06197 560.19684 342.38752 L 560.19684 342.38752 C 561.0305 344.72817 561.5337 347.17362 561.692 349.65325 L 562.5619 363.2815 C 562.5962 363.81907 562.6262 364.3569 562.6518 364.895 L 563 372.2074 C 563 372.2074 559.7135 381.97012 559.7135 382.0668 C 559.7135 382.16344 554.7838 384 554.7838 384 L 551.0624 382.35677 C 548.6765 381.30325 546.797 379.35872 545.8252 376.9384 Z" stroke="black" stroke-linecap="round" stroke-linejoin="round" stroke-width="4"/>
      </g>
      <g id="Graphic_5">
        <path d="M 188.23817 458.3819 L 181.648 441.96866 C 176.52104 429.19965 174.08446 415.50996 174.49069 401.7561 L 176.03288 349.54188 C 176.38738 337.53946 178.90066 325.699 183.45236 314.5875 L 192.42264 292.68945 C 196.13269 283.63258 206.48232 279.29812 215.5392 283.00816 C 217.82477 283.94442 219.8894 285.3481 221.60062 287.12917 L 230.12806 296.00468 C 236.93833 303.09292 242.16548 311.54677 245.46353 320.80668 L 245.766 321.65594 C 248.8848 330.41255 250.76745 339.56125 251.35957 348.8378 L 255.0342 406.40715 C 255.06852 406.94473 255.0985 407.4826 255.1241 408.02065 L 256.62522 439.54394 C 256.62522 439.54394 243.5391 478.4174 243.5391 478.8023 C 243.5391 479.18717 223.90993 486.5 223.90993 486.5 L 209.09183 479.95694 C 199.59158 475.762 192.10771 468.0193 188.23817 458.3819 Z" fill="#ebec00"/>
        <path d="M 188.23817 458.3819 L 181.648 441.96866 C 176.52104 429.19965 174.08446 415.50996 174.49069 401.7561 L 176.03288 349.54188 C 176.38738 337.53946 178.90066 325.699 183.45236 314.5875 L 192.42264 292.68945 C 196.13269 283.63258 206.48232 279.29812 215.5392 283.00816 C 217.82477 283.94442 219.8894 285.3481 221.60062 287.12917 L 230.12806 296.00468 C 236.93833 303.09292 242.16548 311.54677 245.46353 320.80668 L 245.766 321.65594 C 248.8848 330.41255 250.76745 339.56125 251.35957 348.8378 L 255.0342 406.40715 C 255.06852 406.94473 255.0985 407.4826 255.1241 408.02065 L 256.62522 439.54394 C 256.62522 439.54394 243.5391 478.4174 243.5391 478.8023 C 243.5391 479.18717 223.90993 486.5 223.90993 486.5 L 209.09183 479.95694 C 199.59158 475.762 192.10771 468.0193 188.23817 458.3819 Z" stroke="black" stroke-linecap="round" stroke-linejoin="round" stroke-width="4"/>
      </g>
      <g id="Graphic_6">
        <path d="M 355.38186 389.15466 L 355.38186 389.15466 C 354.51246 388.3884 354.0568 387.256 354.1532 386.10113 L 354.1825 385.75 C 354.2995 384.3483 354.96115 383.0483 356.02554 382.12877 L 356.13798 382.03163 C 357.23197 381.08655 358.7529 380.8101 360.10947 381.30978 L 362.1245 382.05196 C 362.71538 382.2696 363.25244 382.612 363.6991 383.0558 L 363.6991 383.0558 C 364.14037 383.4942 364.43623 384.05765 364.54665 384.6698 L 364.86395 386.429 C 364.9565 386.942 365.03754 387.457 365.10706 387.97364 L 365.21135 388.7487 C 365.21135 388.7487 363.4384 390.6125 363.4384 390.63093 C 363.4384 390.6494 360.77896 391 360.77896 391 L 358.58362 390.65696 C 357.3951 390.47124 356.2843 389.95005 355.38186 389.15466 Z" fill="black"/>
        <path d="M 355.38186 389.15466 L 355.38186 389.15466 C 354.51246 388.3884 354.0568 387.256 354.1532 386.10113 L 354.1825 385.75 C 354.2995 384.3483 354.96115 383.0483 356.02554 382.12877 L 356.13798 382.03163 C 357.23197 381.08655 358.7529 380.8101 360.10947 381.30978 L 362.1245 382.05196 C 362.71538 382.2696 363.25244 382.612 363.6991 383.0558 L 363.6991 383.0558 C 364.14037 383.4942 364.43623 384.05765 364.54665 384.6698 L 364.86395 386.429 C 364.9565 386.942 365.03754 387.457 365.10706 387.97364 L 365.21135 388.7487 C 365.21135 388.7487 363.4384 390.6125 363.4384 390.63093 C 363.4384 390.6494 360.77896 391 360.77896 391 L 358.58362 390.65696 C 357.3951 390.47124 356.2843 389.95005 355.38186 389.15466 Z" stroke="black" stroke-linecap="round" stroke-linejoin="round" stroke-width="4"/>
      </g>
      <g id="Graphic_7">
        <path d="M 366.38186 409.15466 L 366.38186 409.15466 C 365.51246 408.3884 365.0568 407.256 365.1532 406.10113 L 365.1825 405.75 C 365.2995 404.3483 365.96115 403.0483 367.02554 402.12877 L 367.138 402.03163 C 368.23197 401.08655 369.7529 400.8101 371.10947 401.30978 L 373.1245 402.05196 C 373.71538 402.2696 374.25244 402.612 374.6991 403.0558 L 374.6991 403.0558 C 375.14037 403.4942 375.43623 404.05765 375.54665 404.6698 L 375.86395 406.429 C 375.9565 406.942 376.03754 407.457 376.10706 407.97364 L 376.21135 408.7487 C 376.21135 408.7487 374.4384 410.6125 374.4384 410.63093 C 374.4384 410.6494 371.77896 411 371.77896 411 L 369.58362 410.65696 C 368.3951 410.47124 367.2843 409.95005 366.38186 409.15466 Z" fill="black"/>
        <path d="M 366.38186 409.15466 L 366.38186 409.15466 C 365.51246 408.3884 365.0568 407.256 365.1532 406.10113 L 365.1825 405.75 C 365.2995 404.3483 365.96115 403.0483 367.02554 402.12877 L 367.138 402.03163 C 368.23197 401.08655 369.7529 400.8101 371.10947 401.30978 L 373.1245 402.05196 C 373.71538 402.2696 374.25244 402.612 374.6991 403.0558 L 374.6991 403.0558 C 375.14037 403.4942 375.43623 404.05765 375.54665 404.6698 L 375.86395 406.429 C 375.9565 406.942 376.03754 407.457 376.10706 407.97364 L 376.21135 408.7487 C 376.21135 408.7487 374.4384 410.6125 374.4384 410.63093 C 374.4384 410.6494 371.77896 411 371.77896 411 L 369.58362 410.65696 C 368.3951 410.47124 367.2843 409.95005 366.38186 409.15466 Z" stroke="black" stroke-linecap="round" stroke-linejoin="round" stroke-width="4"/>
      </g>
      <g id="Graphic_8">
        <path d="M 382.2762 428.60166 L 382.2762 428.60166 C 381.4068 427.8354 380.95114 426.703 381.04753 425.54813 L 381.07684 425.197 C 381.19382 423.7953 381.85547 422.4953 382.91986 421.57577 L 383.0323 421.47863 C 384.1263 420.53355 385.6472 420.2571 387.0038 420.7568 L 389.0188 421.49896 C 389.6097 421.7166 390.14676 422.059 390.59345 422.5028 L 390.59345 422.5028 C 391.0347 422.9412 391.33056 423.50465 391.44097 424.1168 L 391.75828 425.876 C 391.8508 426.389 391.93186 426.904 392.0014 427.42064 L 392.10567 428.1957 C 392.10567 428.1957 390.3327 430.0595 390.3327 430.07793 C 390.3327 430.0964 387.6733 430.447 387.6733 430.447 L 385.47795 430.10396 C 384.28943 429.91824 383.17864 429.39705 382.2762 428.60166 Z" fill="black"/>
        <path d="M 382.2762 428.60166 L 382.2762 428.60166 C 381.4068 427.8354 380.95114 426.703 381.04753 425.54813 L 381.07684 425.197 C 381.19382 423.7953 381.85547 422.4953 382.91986 421.57577 L 383.0323 421.47863 C 384.1263 420.53355 385.6472 420.2571 387.0038 420.7568 L 389.0188 421.49896 C 389.6097 421.7166 390.14676 422.059 390.59345 422.5028 L 390.59345 422.5028 C 391.0347 422.9412 391.33056 423.50465 391.44097 424.1168 L 391.75828 425.876 C 391.8508 426.389 391.93186 426.904 392.0014 427.42064 L 392.10567 428.1957 C 392.10567 428.1957 390.3327 430.0595 390.3327 430.07793 C 390.3327 430.0964 387.6733 430.447 387.6733 430.447 L 385.47795 430.10396 C 384.28943 429.91824 383.17864 429.39705 382.2762 428.60166 Z" stroke="black" stroke-linecap="round" stroke-linejoin="round" stroke-width="4"/>
      </g>
      <g id="Graphic_9">
        <path d="M 548.9493 367.52594 L 548.38515 366.1209 C 547.4737 363.85092 547.04056 361.41727 547.1128 358.9722 L 547.2302 354.99584 C 547.32153 351.90437 547.9689 348.8546 549.14127 345.9926 L 549.5162 345.0773 C 550.0189 343.8502 551.4211 343.26297 552.64814 343.76562 C 552.9578 343.89247 553.2375 344.08265 553.4694 344.32395 L 554.6247 345.52644 C 555.5474 346.4868 556.2556 347.63214 556.7024 348.8867 L 556.7024 348.8867 C 557.15214 350.14943 557.4236 351.46868 557.509 352.80637 L 557.9546 359.78706 C 557.9889 360.32464 558.01887 360.8625 558.0445 361.40056 L 558.21464 364.9737 C 558.21464 364.9737 556.4417 370.2404 556.4417 370.29257 C 556.4417 370.3447 553.78224 371.3355 553.78224 371.3355 L 551.7746 370.449 C 550.4875 369.88066 549.47356 368.83165 548.9493 367.52594 Z" fill="#333"/>
        <path d="M 548.9493 367.52594 L 548.38515 366.1209 C 547.4737 363.85092 547.04056 361.41727 547.1128 358.9722 L 547.2302 354.99584 C 547.32153 351.90437 547.9689 348.8546 549.14127 345.9926 L 549.5162 345.0773 C 550.0189 343.8502 551.4211 343.26297 552.64814 343.76562 C 552.9578 343.89247 553.2375 344.08265 553.4694 344.32395 L 554.6247 345.52644 C 555.5474 346.4868 556.2556 347.63214 556.7024 348.8867 L 556.7024 348.8867 C 557.15214 350.14943 557.4236 351.46868 557.509 352.80637 L 557.9546 359.78706 C 557.9889 360.32464 558.01887 360.8625 558.0445 361.40056 L 558.21464 364.9737 C 558.21464 364.9737 556.4417 370.2404 556.4417 370.29257 C 556.4417 370.3447 553.78224 371.3355 553.78224 371.3355 L 551.7746 370.449 C 550.4875 369.88066 549.47356 368.83165 548.9493 367.52594 Z" stroke="black" stroke-linecap="round" stroke-linejoin="round" stroke-width="4"/>
      </g>
    </g>
  </g>
</svg>
