<?xml version="1.0" encoding="UTF-8" standalone="no"?>
<!DOCTYPE svg PUBLIC "-//W3C//DTD SVG 1.1//EN" "http://www.w3.org/Graphics/SVG/1.1/DTD/svg11.dtd">
<svg xmlns:xl="http://www.w3.org/1999/xlink" version="1.1" xmlns:dc="http://purl.org/dc/elements/1.1/" xmlns="http://www.w3.org/2000/svg" viewBox="0 0 850.394 850.394" width="850.394" height="850.394">
  <defs/>
  <metadata> Produced by OmniGraffle 7.9.4 
    <dc:date>2019-05-10 18:15:57 +0000</dc:date>
  </metadata>
  <g id="adapter" fill="none" stroke-opacity="1" fill-opacity="1" stroke="none" stroke-dasharray="none">
    <title>adapter</title>
    <g id="adapter: Layer 1">
      <title>Layer 1</title>
      <g id="Graphic_5">
        <path d="M 268.73943 210.40213 L 484.25307 425.91576 C 488.93936 430.60206 488.93936 438.20004 484.25307 442.88633 L 449.15945 477.97995 C 444.47316 482.66624 436.8752 482.66624 432.1889 477.97995 L 216.67525 262.4663 C 211.98896 257.78002 211.98896 250.18204 216.67525 245.49575 L 251.76887 210.40213 C 256.45516 205.71584 264.05314 205.71584 268.73943 210.40213 Z" fill="#e6e6e6"/>
        <path d="M 268.73943 210.40213 L 484.25307 425.91576 C 488.93936 430.60206 488.93936 438.20004 484.25307 442.88633 L 449.15945 477.97995 C 444.47316 482.66624 436.8752 482.66624 432.1889 477.97995 L 216.67525 262.4663 C 211.98896 257.78002 211.98896 250.18204 216.67525 245.49575 L 251.76887 210.40213 C 256.45516 205.71584 264.05314 205.71584 268.73943 210.40213 Z" stroke="black" stroke-linecap="round" stroke-linejoin="round" stroke-width="2"/>
      </g>
      <g id="Graphic_16">
        <path d="M 536.2787 457.27867 L 667.2746 588.27464 C 671.9609 592.9609 671.9609 600.5589 667.2746 605.2452 C 667.2746 605.2452 667.2746 605.2452 667.2746 605.2452 L 612.7452 659.7746 C 608.0589 664.4609 600.4609 664.4609 595.77464 659.7746 C 595.77464 659.7746 595.77464 659.7746 595.77464 659.7746 L 464.77867 528.7787 C 460.0924 524.0924 460.0924 516.4944 464.77867 511.8081 L 519.3081 457.27867 C 523.9944 452.5924 531.5924 452.5924 536.2787 457.27867 Z" fill="black"/>
        <path d="M 536.2787 457.27867 L 667.2746 588.27464 C 671.9609 592.9609 671.9609 600.5589 667.2746 605.2452 C 667.2746 605.2452 667.2746 605.2452 667.2746 605.2452 L 612.7452 659.7746 C 608.0589 664.4609 600.4609 664.4609 595.77464 659.7746 C 595.77464 659.7746 595.77464 659.7746 595.77464 659.7746 L 464.77867 528.7787 C 460.0924 524.0924 460.0924 516.4944 464.77867 511.8081 L 519.3081 457.27867 C 523.9944 452.5924 531.5924 452.5924 536.2787 457.27867 Z" stroke="black" stroke-linecap="round" stroke-linejoin="round" stroke-width="7"/>
      </g>
      <g id="Graphic_6">
        <path d="M 316.3823 258.045 L 531.8959 473.5586 C 536.5822 478.2449 536.5822 485.8429 531.8959 490.5292 L 496.8023 525.6228 C 492.116 530.3091 484.51803 530.3091 479.83174 525.6228 L 264.3181 310.10917 C 259.63182 305.42288 259.63182 297.8249 264.3181 293.1386 L 299.41173 258.045 C 304.09802 253.3587 311.696 253.3587 316.3823 258.045 Z" fill="#e6e6e6"/>
        <path d="M 316.3823 258.045 L 531.8959 473.5586 C 536.5822 478.2449 536.5822 485.8429 531.8959 490.5292 L 496.8023 525.6228 C 492.116 530.3091 484.51803 530.3091 479.83174 525.6228 L 264.3181 310.10917 C 259.63182 305.42288 259.63182 297.8249 264.3181 293.1386 L 299.41173 258.045 C 304.09802 253.3587 311.696 253.3587 316.3823 258.045 Z" stroke="black" stroke-linecap="round" stroke-linejoin="round" stroke-width="2"/>
      </g>
      <g id="Graphic_15">
        <path d="M 252.60503 189.97897 L 245.60923 182.98317 C 225.35318 168.26026 215.30452 174.81102 189.96036 182.6657 C 182.10567 208.00987 175.55491 218.05853 190.27782 238.31458 L 197.27362 245.31038 C 206.59095 232.49515 214.58727 242.13886 214.58727 242.13886 L 214.14353 256.72474 C 214.14353 256.72474 223.30212 243.40237 237.64378 227.31176 C 253.7344 212.9701 262.98976 207.8785 262.98976 207.8785 L 248.4039 208.32224 C 248.4039 208.32224 239.7898 199.2963 252.60503 189.97897 Z" fill="#e6e6e6"/>
        <path d="M 252.60503 189.97897 L 245.60923 182.98317 C 225.35318 168.26026 215.30452 174.81102 189.96036 182.6657 C 182.10567 208.00987 175.55491 218.05853 190.27782 238.31458 L 197.27362 245.31038 C 206.59095 232.49515 214.58727 242.13886 214.58727 242.13886 L 214.14353 256.72474 C 214.14353 256.72474 223.30212 243.40237 237.64378 227.31176 C 253.7344 212.9701 262.98976 207.8785 262.98976 207.8785 L 248.4039 208.32224 C 248.4039 208.32224 239.7898 199.2963 252.60503 189.97897 Z" stroke="black" stroke-linecap="round" stroke-linejoin="round" stroke-width="2"/>
      </g>
      <g id="Graphic_4">
        <path d="M 421.07395 337.41645 L 567.36465 483.70715 C 572.05094 488.39344 572.05094 495.9914 567.36465 500.6777 L 507.77024 560.2721 C 503.08395 564.9584 495.486 564.9584 490.7997 560.2721 L 344.50898 413.9814 C 339.8227 409.29513 339.8227 401.69715 344.50898 397.01086 L 404.1034 337.41645 C 408.7897 332.73016 416.38766 332.73016 421.07395 337.41645 Z" fill="#e6e6e6"/>
        <path d="M 421.07395 337.41645 L 567.36465 483.70715 C 572.05094 488.39344 572.05094 495.9914 567.36465 500.6777 L 507.77024 560.2721 C 503.08395 564.9584 495.486 564.9584 490.7997 560.2721 L 344.50898 413.9814 C 339.8227 409.29513 339.8227 401.69715 344.50898 397.01086 L 404.1034 337.41645 C 408.7897 332.73016 416.38766 332.73016 421.07395 337.41645 Z" stroke="black" stroke-linecap="round" stroke-linejoin="round" stroke-width="2"/>
      </g>
      <g id="Graphic_3">
        <path d="M 393.49916 463.44826 L 450.72346 520.67256 C 597.6522 659.86535 612.2854 600.2345 612.2854 600.2345 C 612.2854 600.2345 509.5472 551.9119 604.2854 600.2345 C 555.9628 505.4963 607.2854 603.2345 607.2854 603.2345 C 607.2854 603.2345 667.2756 590.24196 528.0828 443.31323 L 470.8585 386.08893 C 469.6927 415.86687 474.91175 424.9539 460.791 453.38075 C 432.3641 467.5015 423.2771 462.28247 393.49916 463.44826 Z" fill="#030303"/>
        <path d="M 393.49916 463.44826 L 450.72346 520.67256 C 597.6522 659.86535 612.2854 600.2345 612.2854 600.2345 C 612.2854 600.2345 509.5472 551.9119 604.2854 600.2345 C 555.9628 505.4963 607.2854 603.2345 607.2854 603.2345 C 607.2854 603.2345 667.2756 590.24196 528.0828 443.31323 L 470.8585 386.08893 C 469.6927 415.86687 474.91175 424.9539 460.791 453.38075 C 432.3641 467.5015 423.2771 462.28247 393.49916 463.44826 Z" stroke="black" stroke-linecap="round" stroke-linejoin="round" stroke-width="2"/>
      </g>
    </g>
    <g id="adapter: Layer 2">
      <title>Layer 2</title>
      <g id="Line_12">
        <path d="M 255.83283 303.82097 L 267.0701 285.3542 C 268.60258 282.83583 270.43052 280.50963 272.51506 278.4251 L 289.06854 261.8716 C 292.24095 258.6992 295.9639 256.1302 300.0556 254.29005 L 310.5738 249.5597" stroke="black" stroke-linecap="round" stroke-linejoin="round" stroke-width="10"/>
      </g>
      <g id="Line_13">
        <path d="M 213.07222 258.48062 L 219.73404 243.81173 C 221.57034 239.7683 224.11955 236.0885 227.2597 232.94833 L 240.0942 220.11385 C 244.62105 215.587 250.24502 212.31216 256.41638 210.60946 L 265.123 208.20726" stroke="black" stroke-linecap="round" stroke-linejoin="round" stroke-width="10"/>
      </g>
      <g id="Graphic_17">
        <path d="M 648.3721 592.0904 C 669.1256 585.2195 680.3797 596.4735 673.5087 617.2271 C 666.6379 637.9806 644.2439 660.37455 623.4904 667.2454 C 602.7369 674.11635 591.4828 662.8623 598.3538 642.10875 C 605.2246 621.3552 627.6186 598.9613 648.3721 592.0904" fill="#ccc"/>
        <path d="M 648.3721 592.0904 C 669.1256 585.2195 680.3797 596.4735 673.5087 617.2271 C 666.6379 637.9806 644.2439 660.37455 623.4904 667.2454 C 602.7369 674.11635 591.4828 662.8623 598.3538 642.10875 C 605.2246 621.3552 627.6186 598.9613 648.3721 592.0904" stroke="black" stroke-linecap="round" stroke-linejoin="round" stroke-width="3"/>
      </g>
      <g id="Graphic_18">
        <path d="M 642.1395 613.8838 C 649.99465 611.31725 654.2819 615.6045 651.7154 623.45966 C 649.1489 631.3148 640.70054 639.7632 632.8454 642.32964 C 624.9903 644.8962 620.703 640.6089 623.2695 632.75375 C 625.836 624.8986 634.2844 616.45025 642.1395 613.8838" fill="#333"/>
        <path d="M 642.1395 613.8838 C 649.99465 611.31725 654.2819 615.6045 651.7154 623.45966 C 649.1489 631.3148 640.70054 639.7632 632.8454 642.32964 C 624.9903 644.8962 620.703 640.6089 623.2695 632.75375 C 625.836 624.8986 634.2844 616.45025 642.1395 613.8838" stroke="black" stroke-linecap="round" stroke-linejoin="round" stroke-width="3"/>
      </g>
    </g>
  </g>
</svg>
