<?xml version="1.0" encoding="UTF-8" standalone="no"?>
<!DOCTYPE svg PUBLIC "-//W3C//DTD SVG 1.1//EN" "http://www.w3.org/Graphics/SVG/1.1/DTD/svg11.dtd">
<svg xmlns="http://www.w3.org/2000/svg" version="1.1" xmlns:dc="http://purl.org/dc/elements/1.1/" xmlns:xl="http://www.w3.org/1999/xlink" viewBox="0 0 850.394 850.394" width="850.394" height="850.394">
  <defs/>
  <metadata> Produced by OmniGraffle 7.9.4 
    <dc:date>2019-03-10 04:27:10 +0000</dc:date>
  </metadata>
  <g id="jack_plug" fill="none" stroke-opacity="1" fill-opacity="1" stroke-dasharray="none" stroke="none">
    <title>jack_plug</title>
    <g id="jack_plug: Layer 1">
      <title>Layer 1</title>
      <g id="Graphic_8">
        <path d="M 179.99398 96.42922 L 161.00586 77.44111 C 110.93237 32.574036 98.37572 35.636635 59.02132 27.520748 C 67.13721 66.87514 64.07461 79.4318 108.94168 129.50529 L 127.9298 148.4934 C 133.5956 133.33354 132.5237 129.65842 144.46783 112.96726 C 161.159 101.02312 164.83411 102.09503 179.99398 96.42922" fill="#e6e6e6"/>
        <path d="M 179.99398 96.42922 L 161.00586 77.44111 C 110.93237 32.574036 98.37572 35.636635 59.02132 27.520748 C 67.13721 66.87514 64.07461 79.4318 108.94168 129.50529 L 127.9298 148.4934 C 133.5956 133.33354 132.5237 129.65842 144.46783 112.96726 C 161.159 101.02312 164.83411 102.09503 179.99398 96.42922" stroke="black" stroke-linecap="round" stroke-linejoin="round" stroke-width="2"/>
      </g>
      <g id="Line_7">
        <path d="M 579 542 C 607.20706 573.0216 639.5481 605.4865 663.6296 635.0741 C 687.7112 664.6616 715.7885 699.792 723.5038 719.5431 C 731.219 739.2942 707.4627 742.0877 709.9259 753.5926 C 712.3892 765.0975 728.8328 776.9182 738.2848 788.5793" stroke="black" stroke-linecap="round" stroke-linejoin="round" stroke-width="22"/>
      </g>
      <g id="Graphic_6">
        <path d="M 214.8747 131.81052 L 430.38833 347.32415 C 435.0746 352.01044 435.0746 359.60842 430.38833 364.2947 C 430.38833 364.2947 430.38833 364.2947 430.38833 364.2947 L 395.2947 399.38833 C 390.6084 404.07462 383.01044 404.07462 378.32415 399.38833 L 162.81052 183.8747 C 158.12423 179.1884 158.12423 171.59043 162.81052 166.90414 L 197.90414 131.81052 C 202.59043 127.12423 210.1884 127.12423 214.8747 131.81052 Z" fill="#e6e6e6"/>
        <path d="M 214.8747 131.81052 L 430.38833 347.32415 C 435.0746 352.01044 435.0746 359.60842 430.38833 364.2947 C 430.38833 364.2947 430.38833 364.2947 430.38833 364.2947 L 395.2947 399.38833 C 390.6084 404.07462 383.01044 404.07462 378.32415 399.38833 L 162.81052 183.8747 C 158.12423 179.1884 158.12423 171.59043 162.81052 166.90414 L 197.90414 131.81052 C 202.59043 127.12423 210.1884 127.12423 214.8747 131.81052 Z" stroke="black" stroke-linecap="round" stroke-linejoin="round" stroke-width="2"/>
      </g>
      <g id="Graphic_5">
        <path d="M 167.23184 84.16766 L 382.74548 299.6813 C 387.43177 304.3676 387.43177 311.96557 382.74548 316.65186 C 382.74548 316.65186 382.74548 316.65186 382.74548 316.65186 L 347.65186 351.74548 C 342.96557 356.43177 335.3676 356.43177 330.6813 351.74548 L 115.16766 136.23184 C 110.48137 131.54555 110.48137 123.94757 115.16766 119.26128 L 150.26128 84.16766 C 154.94757 79.48137 162.54555 79.48137 167.23184 84.16766 Z" fill="#e6e6e6"/>
        <path d="M 167.23184 84.16766 L 382.74548 299.6813 C 387.43177 304.3676 387.43177 311.96557 382.74548 316.65186 C 382.74548 316.65186 382.74548 316.65186 382.74548 316.65186 L 347.65186 351.74548 C 342.96557 356.43177 335.3676 356.43177 330.6813 351.74548 L 115.16766 136.23184 C 110.48137 131.54555 110.48137 123.94757 115.16766 119.26128 L 150.26128 84.16766 C 154.94757 79.48137 162.54555 79.48137 167.23184 84.16766 Z" stroke="black" stroke-linecap="round" stroke-linejoin="round" stroke-width="2"/>
      </g>
      <g id="Graphic_4">
        <path d="M 252.56565 141.95905 L 468.0793 357.4727 C 472.7656 362.15897 472.7656 369.75695 468.0793 374.44324 C 468.0793 374.44324 468.0793 374.44324 468.0793 374.44324 L 408.48487 434.03765 C 403.7986 438.72395 396.2006 438.72395 391.5143 434.03765 L 176.00068 218.52402 C 171.31439 213.83773 171.31439 206.23975 176.00068 201.55346 L 235.5951 141.95905 C 240.28138 137.27276 247.87936 137.27276 252.56565 141.95905 Z" fill="#e6e6e6"/>
        <path d="M 252.56565 141.95905 L 468.0793 357.4727 C 472.7656 362.15897 472.7656 369.75695 468.0793 374.44324 C 468.0793 374.44324 468.0793 374.44324 468.0793 374.44324 L 408.48487 434.03765 C 403.7986 438.72395 396.2006 438.72395 391.5143 434.03765 L 176.00068 218.52402 C 171.31439 213.83773 171.31439 206.23975 176.00068 201.55346 L 235.5951 141.95905 C 240.28138 137.27276 247.87936 137.27276 252.56565 141.95905 Z" stroke="black" stroke-linecap="round" stroke-linejoin="round" stroke-width="2"/>
      </g>
      <g id="Graphic_3">
        <path d="M 294.2138 337.2138 L 351.4381 394.4381 C 498.3668 533.6309 524.2768 536.33306 619.015 584.65564 C 570.6924 489.91746 567.9902 464.0075 428.7974 317.07876 L 371.5731 259.85446 C 370.40733 289.6324 375.6264 298.71942 361.5056 327.14628 C 333.07875 341.26706 323.99173 336.048 294.2138 337.2138" fill="#030303"/>
        <path d="M 294.2138 337.2138 L 351.4381 394.4381 C 498.3668 533.6309 524.2768 536.33306 619.015 584.65564 C 570.6924 489.91746 567.9902 464.0075 428.7974 317.07876 L 371.5731 259.85446 C 370.40733 289.6324 375.6264 298.71942 361.5056 327.14628 C 333.07875 341.26706 323.99173 336.048 294.2138 337.2138" stroke="black" stroke-linecap="round" stroke-linejoin="round" stroke-width="2"/>
      </g>
      <g id="Graphic_2">
        <path d="M 267.02642 236.02642 L 107.46492 130.01508 C 122.44708 109.5704 140.5704 91.44708 161.01508 76.46492 Z" stroke="black" stroke-linecap="round" stroke-linejoin="round" stroke-width="9"/>
      </g>
    </g>
  </g>
</svg>
