<?xml version="1.0" encoding="UTF-8" standalone="no"?>
<!DOCTYPE svg PUBLIC "-//W3C//DTD SVG 1.1//EN" "http://www.w3.org/Graphics/SVG/1.1/DTD/svg11.dtd">
<svg xmlns="http://www.w3.org/2000/svg" version="1.1" xmlns:dc="http://purl.org/dc/elements/1.1/" xmlns:xl="http://www.w3.org/1999/xlink" viewBox="0 0 850.394 850.394" width="850.394" height="850.394">
  <defs/>
  <metadata> Produced by OmniGraffle 7.9.4 
    <dc:date>2019-03-10 11:11:29 +0000</dc:date>
  </metadata>
  <g id="jack_plug" fill="none" stroke-opacity="1" fill-opacity="1" stroke-dasharray="none" stroke="none">
    <title>jack_plug</title>
    <g id="jack_plug: Layer 1">
      <title>Layer 1</title>
      <g id="Line_7">
        <path d="M 579 542 C 607.20706 573.0216 639.5481 605.4865 663.6296 635.0741 C 687.7112 664.6616 715.7885 699.792 723.5038 719.5431 C 731.219 739.2942 704.9548 737.7958 709.9259 753.5926 C 714.897 769.3894 738.86564 794.0884 753.3333 814.3333" stroke="black" stroke-linecap="round" stroke-linejoin="round" stroke-width="37"/>
      </g>
      <g id="Graphic_6">
        <path d="M 217.09692 131.81052 L 432.61055 347.32415 C 437.29685 352.01044 437.29685 359.60842 432.61055 364.2947 C 432.61055 364.2947 432.61055 364.2947 432.61055 364.2947 L 397.51694 399.38833 C 392.83065 404.07462 385.23267 404.07462 380.54637 399.38833 L 165.03274 183.8747 C 160.34645 179.1884 160.34645 171.59043 165.03274 166.90414 L 200.12636 131.81052 C 204.81265 127.12423 212.41063 127.12423 217.09692 131.81052 Z" fill="#e6e6e6"/>
        <path d="M 217.09692 131.81052 L 432.61055 347.32415 C 437.29685 352.01044 437.29685 359.60842 432.61055 364.2947 C 432.61055 364.2947 432.61055 364.2947 432.61055 364.2947 L 397.51694 399.38833 C 392.83065 404.07462 385.23267 404.07462 380.54637 399.38833 L 165.03274 183.8747 C 160.34645 179.1884 160.34645 171.59043 165.03274 166.90414 L 200.12636 131.81052 C 204.81265 127.12423 212.41063 127.12423 217.09692 131.81052 Z" stroke="black" stroke-linecap="round" stroke-linejoin="round" stroke-width="2"/>
      </g>
      <g id="Graphic_5">
        <path d="M 169.45406 84.16766 L 384.9677 299.6813 C 389.654 304.3676 389.654 311.96557 384.9677 316.65186 C 384.9677 316.65186 384.9677 316.65186 384.9677 316.65186 L 349.8741 351.74548 C 345.1878 356.43177 337.5898 356.43177 332.9035 351.74548 L 117.38988 136.23184 C 112.70359 131.54555 112.70359 123.94757 117.38988 119.26128 L 152.4835 84.16766 C 157.1698 79.48137 164.76777 79.48137 169.45406 84.16766 Z" fill="#e6e6e6"/>
        <path d="M 169.45406 84.16766 L 384.9677 299.6813 C 389.654 304.3676 389.654 311.96557 384.9677 316.65186 C 384.9677 316.65186 384.9677 316.65186 384.9677 316.65186 L 349.8741 351.74548 C 345.1878 356.43177 337.5898 356.43177 332.9035 351.74548 L 117.38988 136.23184 C 112.70359 131.54555 112.70359 123.94757 117.38988 119.26128 L 152.4835 84.16766 C 157.1698 79.48137 164.76777 79.48137 169.45406 84.16766 Z" stroke="black" stroke-linecap="round" stroke-linejoin="round" stroke-width="2"/>
      </g>
      <g id="Graphic_4">
        <path d="M 321.7886 211.18198 L 468.0793 357.4727 C 472.7656 362.15897 472.7656 369.75695 468.0793 374.44324 L 408.48487 434.03765 C 403.7986 438.72395 396.2006 438.72395 391.5143 434.03765 C 391.5143 434.03765 391.5143 434.03765 391.5143 434.03765 L 245.2236 287.74695 C 240.53732 283.06066 240.53732 275.46268 245.2236 270.7764 L 304.81802 211.18198 C 309.5043 206.4957 317.1023 206.4957 321.7886 211.18198 Z" fill="#e6e6e6"/>
        <path d="M 321.7886 211.18198 L 468.0793 357.4727 C 472.7656 362.15897 472.7656 369.75695 468.0793 374.44324 L 408.48487 434.03765 C 403.7986 438.72395 396.2006 438.72395 391.5143 434.03765 C 391.5143 434.03765 391.5143 434.03765 391.5143 434.03765 L 245.2236 287.74695 C 240.53732 283.06066 240.53732 275.46268 245.2236 270.7764 L 304.81802 211.18198 C 309.5043 206.4957 317.1023 206.4957 321.7886 211.18198 Z" stroke="black" stroke-linecap="round" stroke-linejoin="round" stroke-width="2"/>
      </g>
      <g id="Graphic_3">
        <path d="M 294.2138 337.2138 L 351.4381 394.4381 C 498.3668 533.6309 524.2768 536.33306 619.015 584.65564 C 570.6924 489.91746 567.9902 464.0075 428.7974 317.07876 L 371.5731 259.85446 C 370.40733 289.6324 375.6264 298.71942 361.5056 327.14628 C 333.07875 341.26706 323.99173 336.048 294.2138 337.2138" fill="#030303"/>
        <path d="M 294.2138 337.2138 L 351.4381 394.4381 C 498.3668 533.6309 524.2768 536.33306 619.015 584.65564 C 570.6924 489.91746 567.9902 464.0075 428.7974 317.07876 L 371.5731 259.85446 C 370.40733 289.6324 375.6264 298.71942 361.5056 327.14628 C 333.07875 341.26706 323.99173 336.048 294.2138 337.2138" stroke="black" stroke-linecap="round" stroke-linejoin="round" stroke-width="2"/>
      </g>
      <g id="Graphic_15">
        <path d="M 153.31966 63.744496 L 146.32387 56.7487 C 126.06781 42.02579 116.01915 48.576553 90.67499 56.431235 C 82.82031 81.7754 76.26954 91.82406 90.99246 112.08011 L 97.98825 119.0759 C 107.30558 106.26068 115.3019 115.90439 115.3019 115.90439 L 114.85816 130.49026 C 114.85816 130.49026 124.01675 117.1679 138.35842 101.07729 C 154.44903 86.73563 163.7044 81.64403 163.7044 81.64403 L 149.11852 82.08777 C 149.11852 82.08777 140.50443 73.06183 153.31966 63.744496 Z" fill="#e6e6e6"/>
        <path d="M 153.31966 63.744496 L 146.32387 56.7487 C 126.06781 42.02579 116.01915 48.576553 90.67499 56.431235 C 82.82031 81.7754 76.26954 91.82406 90.99246 112.08011 L 97.98825 119.0759 C 107.30558 106.26068 115.3019 115.90439 115.3019 115.90439 L 114.85816 130.49026 C 114.85816 130.49026 124.01675 117.1679 138.35842 101.07729 C 154.44903 86.73563 163.7044 81.64403 163.7044 81.64403 L 149.11852 82.08777 C 149.11852 82.08777 140.50443 73.06183 153.31966 63.744496 Z" stroke="black" stroke-linecap="round" stroke-linejoin="round" stroke-width="2"/>
      </g>
    </g>
    <g id="jack_plug: Layer 2">
      <title>Layer 2</title>
      <g id="Line_12">
        <path d="M 156.54746 177.5865 L 167.78475 159.11973 C 169.3172 156.60136 171.14515 154.27516 173.2297 152.19062 L 189.78318 135.63714 C 192.95559 132.46473 196.67852 129.89574 200.77023 128.05558 L 211.28842 123.32524" stroke="black" stroke-linecap="round" stroke-linejoin="round" stroke-width="10"/>
      </g>
      <g id="Line_13">
        <path d="M 113.78685 132.24615 L 120.44867 117.57726 C 122.28497 113.53384 124.83418 109.85403 127.97434 106.71386 L 140.80883 93.87938 C 145.33569 89.35252 150.95966 86.07769 157.13101 84.37499 L 165.83764 81.97279" stroke="black" stroke-linecap="round" stroke-linejoin="round" stroke-width="10"/>
      </g>
    </g>
  </g>
</svg>
