<?xml version="1.0" encoding="UTF-8" standalone="no"?>
<!DOCTYPE svg PUBLIC "-//W3C//DTD SVG 1.1//EN" "http://www.w3.org/Graphics/SVG/1.1/DTD/svg11.dtd">
<svg xmlns="http://www.w3.org/2000/svg" version="1.1" xmlns:dc="http://purl.org/dc/elements/1.1/" xmlns:xl="http://www.w3.org/1999/xlink" viewBox="0 0 850.394 850.394" width="850.394" height="850.394">
  <defs/>
  <metadata> Produced by OmniGraffle 7.9.4 
    <dc:date>2019-03-11 12:53:59 +0000</dc:date>
  </metadata>
  <g id="jumper_lead" fill="none" stroke-opacity="1" fill-opacity="1" stroke-dasharray="none" stroke="none">
    <title>jumper lead</title>
    <g id="jumper_lead: Layer 1">
      <title>Layer 1</title>
      <g id="Line_7">
        <path d="M 240.12103 191.94042 C 283.43795 236.03146 342.6536 294.0372 370.0848 324.22678 C 397.516 354.41635 400.26106 361.66906 404.7247 373.09598 C 409.18835 384.5229 393.9933 383.656 396.8693 392.79516 C 399.7453 401.9343 413.61226 416.22386 421.9825 427.93645" stroke="#b7b000" stroke-linecap="round" stroke-linejoin="round" stroke-width="14"/>
      </g>
      <g id="Graphic_5">
        <path d="M 80.6125 23.870833 L 205.37357 148.6319 C 208.06366 151.322 208.06366 155.68348 205.37357 158.37357 L 205.37357 158.37357 C 202.68348 161.06366 198.322 161.06366 195.6319 158.37357 C 195.6319 158.37357 195.6319 158.37357 195.6319 158.37357 L 70.87083 33.6125 C 68.18075 30.922412 68.18075 26.56092 70.87083 23.870833 L 70.87083 23.870833 C 73.56092 21.180746 77.92241 21.180746 80.6125 23.870833 C 80.6125 23.870833 80.6125 23.870833 80.6125 23.870833 Z" fill="#e6e6e6"/>
        <path d="M 80.6125 23.870833 L 205.37357 148.6319 C 208.06366 151.322 208.06366 155.68348 205.37357 158.37357 L 205.37357 158.37357 C 202.68348 161.06366 198.322 161.06366 195.6319 158.37357 C 195.6319 158.37357 195.6319 158.37357 195.6319 158.37357 L 70.87083 33.6125 C 68.18075 30.922412 68.18075 26.56092 70.87083 23.870833 L 70.87083 23.870833 C 73.56092 21.180746 77.92241 21.180746 80.6125 23.870833 C 80.6125 23.870833 80.6125 23.870833 80.6125 23.870833 Z" stroke="black" stroke-linecap="round" stroke-linejoin="round" stroke-width="2"/>
      </g>
      <g id="Graphic_4">
        <path d="M 171.16334 104.8802 L 248.64688 182.36375 C 253.33317 187.05004 253.33317 194.64802 248.64688 199.33431 C 248.64688 199.33431 248.64688 199.33431 248.64688 199.33431 L 246.11916 201.86203 C 241.43287 206.54833 233.8349 206.54833 229.1486 201.86203 L 151.66505 124.37849 C 146.97876 119.6922 146.97876 112.09422 151.66505 107.40793 C 151.66505 107.40793 151.66505 107.40793 151.66505 107.40793 L 154.19278 104.8802 C 158.87907 100.19391 166.47705 100.19391 171.16334 104.8802 Z" fill="black"/>
        <path d="M 171.16334 104.8802 L 248.64688 182.36375 C 253.33317 187.05004 253.33317 194.64802 248.64688 199.33431 C 248.64688 199.33431 248.64688 199.33431 248.64688 199.33431 L 246.11916 201.86203 C 241.43287 206.54833 233.8349 206.54833 229.1486 201.86203 L 151.66505 124.37849 C 146.97876 119.6922 146.97876 112.09422 151.66505 107.40793 C 151.66505 107.40793 151.66505 107.40793 151.66505 107.40793 L 154.19278 104.8802 C 158.87907 100.19391 166.47705 100.19391 171.16334 104.8802 Z" stroke="black" stroke-linecap="round" stroke-linejoin="round" stroke-width="2"/>
      </g>
      <g id="Line_26">
        <path d="M 605.16485 664.5235 C 561.8479 620.43246 502.6323 562.4267 475.2011 532.23714 C 447.7699 502.04757 445.0248 494.79486 440.5612 483.36794 C 436.09754 471.941 451.2926 472.8079 448.4166 463.66876 C 445.54057 454.5296 431.67363 440.24006 423.3034 428.52746" stroke="#b7b000" stroke-linecap="round" stroke-linejoin="round" stroke-width="14"/>
      </g>
      <g id="Graphic_27">
        <path d="M 764.6734 832.5931 L 639.9123 707.832 C 637.2222 705.1419 637.2222 700.7804 639.9123 698.09035 L 639.9123 698.09035 C 642.6024 695.4003 646.9639 695.4003 649.654 698.09035 L 774.41505 822.8514 C 777.1051 825.5415 777.1051 829.903 774.41505 832.5931 L 774.41505 832.5931 C 771.725 835.2832 767.3635 835.2832 764.6734 832.5931 Z" fill="#e6e6e6"/>
        <path d="M 764.6734 832.5931 L 639.9123 707.832 C 637.2222 705.1419 637.2222 700.7804 639.9123 698.09035 L 639.9123 698.09035 C 642.6024 695.4003 646.9639 695.4003 649.654 698.09035 L 774.41505 822.8514 C 777.1051 825.5415 777.1051 829.903 774.41505 832.5931 L 774.41505 832.5931 C 771.725 835.2832 767.3635 835.2832 764.6734 832.5931 Z" stroke="black" stroke-linecap="round" stroke-linejoin="round" stroke-width="2"/>
      </g>
      <g id="Graphic_28">
        <path d="M 674.12255 751.5837 L 596.639 674.1002 C 591.9527 669.4139 591.9527 661.8159 596.639 657.1296 L 599.1667 654.6019 C 603.853 649.9156 611.451 649.9156 616.1373 654.6019 L 693.6208 732.0854 C 698.3071 736.7717 698.3071 744.3697 693.6208 749.056 L 691.0931 751.5837 C 686.4068 756.27 678.8088 756.27 674.12255 751.5837 C 674.12255 751.5837 674.12255 751.5837 674.12255 751.5837 Z" fill="black"/>
        <path d="M 674.12255 751.5837 L 596.639 674.1002 C 591.9527 669.4139 591.9527 661.8159 596.639 657.1296 L 599.1667 654.6019 C 603.853 649.9156 611.451 649.9156 616.1373 654.6019 L 693.6208 732.0854 C 698.3071 736.7717 698.3071 744.3697 693.6208 749.056 L 691.0931 751.5837 C 686.4068 756.27 678.8088 756.27 674.12255 751.5837 C 674.12255 751.5837 674.12255 751.5837 674.12255 751.5837 Z" stroke="black" stroke-linecap="round" stroke-linejoin="round" stroke-width="2"/>
      </g>
    </g>
  </g>
</svg>
