<?xml version="1.0" encoding="UTF-8" standalone="no"?>
<!DOCTYPE svg PUBLIC "-//W3C//DTD SVG 1.1//EN" "http://www.w3.org/Graphics/SVG/1.1/DTD/svg11.dtd">
<svg version="1.1" xmlns="http://www.w3.org/2000/svg" xmlns:xl="http://www.w3.org/1999/xlink" xmlns:dc="http://purl.org/dc/elements/1.1/" viewBox="0 0 850.394 850.394" width="850.394" height="850.394">
  <defs/>
  <metadata> Produced by OmniGraffle 7.9.4 
    <dc:date>2019-03-18 14:28:41 +0000</dc:date>
  </metadata>
  <g id="keyboard" stroke-opacity="1" fill-opacity="1" stroke="none" stroke-dasharray="none" fill="none">
    <title>keyboard</title>
    <g id="keyboard: Layer 1">
      <title>Layer 1</title>
      <g id="Graphic_18">
        <rect x="21.555556" y="273" width="803" height="354" fill="#c0c0ff"/>
        <rect x="21.555556" y="273" width="803" height="354" stroke="black" stroke-linecap="round" stroke-linejoin="round" stroke-width="6"/>
      </g>
      <g id="Graphic_15">
        <rect x="67.386234" y="328" width="59.456446" height="237" fill="white"/>
        <rect x="67.386234" y="328" width="59.456446" height="237" stroke="black" stroke-linecap="round" stroke-linejoin="round" stroke-width="6"/>
      </g>
      <g id="Graphic_14">
        <rect x="126.84268" y="328" width="59.456446" height="151.86197" fill="#333"/>
        <rect x="126.84268" y="328" width="59.456446" height="151.86197" stroke="black" stroke-linecap="round" stroke-linejoin="round" stroke-width="6"/>
      </g>
      <g id="Graphic_13">
        <rect x="186.29913" y="328" width="59.456446" height="237" fill="white"/>
        <rect x="186.29913" y="328" width="59.456446" height="237" stroke="black" stroke-linecap="round" stroke-linejoin="round" stroke-width="6"/>
      </g>
      <g id="Graphic_12">
        <rect x="245.75557" y="328" width="59.456446" height="151.86197" fill="#333"/>
        <rect x="245.75557" y="328" width="59.456446" height="151.86197" stroke="black" stroke-linecap="round" stroke-linejoin="round" stroke-width="6"/>
      </g>
      <g id="Graphic_11">
        <rect x="305.212" y="328" width="59.456446" height="237" fill="white"/>
        <rect x="305.212" y="328" width="59.456446" height="237" stroke="black" stroke-linecap="round" stroke-linejoin="round" stroke-width="6"/>
      </g>
      <g id="Graphic_10">
        <rect x="364.66846" y="328" width="59.456446" height="237" fill="white"/>
        <rect x="364.66846" y="328" width="59.456446" height="237" stroke="black" stroke-linecap="round" stroke-linejoin="round" stroke-width="6"/>
      </g>
      <g id="Graphic_9">
        <rect x="424.1249" y="328" width="59.456446" height="151.86197" fill="#333"/>
        <rect x="424.1249" y="328" width="59.456446" height="151.86197" stroke="black" stroke-linecap="round" stroke-linejoin="round" stroke-width="6"/>
      </g>
      <g id="Graphic_8">
        <rect x="483.58136" y="328" width="59.456446" height="237" fill="white"/>
        <rect x="483.58136" y="328" width="59.456446" height="237" stroke="black" stroke-linecap="round" stroke-linejoin="round" stroke-width="6"/>
      </g>
      <g id="Graphic_7">
        <rect x="545.182" y="328" width="59.456446" height="151.86197" fill="#333"/>
        <rect x="545.182" y="328" width="59.456446" height="151.86197" stroke="black" stroke-linecap="round" stroke-linejoin="round" stroke-width="6"/>
      </g>
      <g id="Graphic_6">
        <rect x="604.6384" y="328" width="59.456446" height="237" fill="white"/>
        <rect x="604.6384" y="328" width="59.456446" height="237" stroke="black" stroke-linecap="round" stroke-linejoin="round" stroke-width="6"/>
      </g>
      <g id="Graphic_5">
        <rect x="664.0949" y="328" width="59.456446" height="151.86197" fill="#333"/>
        <rect x="664.0949" y="328" width="59.456446" height="151.86197" stroke="black" stroke-linecap="round" stroke-linejoin="round" stroke-width="6"/>
      </g>
      <g id="Graphic_4">
        <rect x="723.5513" y="328" width="59.456446" height="237" fill="white"/>
        <rect x="723.5513" y="328" width="59.456446" height="237" stroke="black" stroke-linecap="round" stroke-linejoin="round" stroke-width="6"/>
      </g>
    </g>
  </g>
</svg>
