<?xml version="1.0" encoding="UTF-8" standalone="no"?>
<!DOCTYPE svg PUBLIC "-//W3C//DTD SVG 1.1//EN" "http://www.w3.org/Graphics/SVG/1.1/DTD/svg11.dtd">
<svg xmlns:dc="http://purl.org/dc/elements/1.1/" xmlns="http://www.w3.org/2000/svg" version="1.1" xmlns:xl="http://www.w3.org/1999/xlink" viewBox="0 0 850.394 850.394" width="850.394" height="850.394">
  <defs/>
  <metadata> Produced by OmniGraffle 7.9.4 
    <dc:date>2019-03-30 21:07:25 +0000</dc:date>
  </metadata>
  <g id="led" stroke-dasharray="none" stroke-opacity="1" fill-opacity="1" fill="none" stroke="none">
    <title>led</title>
    <g id="led: Layer 2">
      <title>Layer 2</title>
      <g id="Graphic_23">
        <path d="M 618.53465 116.01857 C 731.0061 228.48948 731.0061 410.8407 618.53465 523.3116 C 506.06374 635.7831 323.7125 635.7831 211.2416 523.3116 C 98.77011 410.8407 98.77011 228.48948 211.2416 116.01857 C 323.7125 3.5470773 506.06374 3.5470773 618.53465 116.01857" fill="#1e1e1e"/>
        <path d="M 618.53465 116.01857 C 731.0061 228.48948 731.0061 410.8407 618.53465 523.3116 C 506.06374 635.7831 323.7125 635.7831 211.2416 523.3116 C 98.77011 410.8407 98.77011 228.48948 211.2416 116.01857 C 323.7125 3.5470773 506.06374 3.5470773 618.53465 116.01857" stroke="black" stroke-linecap="round" stroke-linejoin="round" stroke-width=".5"/>
      </g>
      <g id="Graphic_22">
        <path d="M 595.34616 139.7701 C 695.9438 240.36725 695.9438 403.46733 595.34616 504.0645 C 494.749 604.66215 331.64894 604.66215 231.0518 504.0645 C 130.45412 403.46733 130.45412 240.36725 231.0518 139.7701 C 331.64894 39.17244 494.749 39.17244 595.34616 139.7701" fill="#333"/>
        <path d="M 595.34616 139.7701 C 695.9438 240.36725 695.9438 403.46733 595.34616 504.0645 C 494.749 604.66215 331.64894 604.66215 231.0518 504.0645 C 130.45412 403.46733 130.45412 240.36725 231.0518 139.7701 C 331.64894 39.17244 494.749 39.17244 595.34616 139.7701" stroke="black" stroke-linecap="round" stroke-linejoin="round" stroke-width=".5"/>
      </g>
      <g id="Graphic_21">
        <path d="M 574.9992 148.77751 C 661.60505 235.3829 661.60505 375.7979 574.9992 462.4033 C 488.3938 549.00913 347.97883 549.00913 261.37343 462.4033 C 174.76759 375.7979 174.76759 235.3829 261.37343 148.77751 C 347.97883 62.17167 488.3938 62.17167 574.9992 148.77751" fill="#666"/>
        <path d="M 574.9992 148.77751 C 661.60505 235.3829 661.60505 375.7979 574.9992 462.4033 C 488.3938 549.00913 347.97883 549.00913 261.37343 462.4033 C 174.76759 375.7979 174.76759 235.3829 261.37343 148.77751 C 347.97883 62.17167 488.3938 62.17167 574.9992 148.77751" stroke="black" stroke-linecap="round" stroke-linejoin="round" stroke-width=".5"/>
      </g>
      <g id="Graphic_20">
        <circle cx="415.7133" cy="298.19076" r="192.191064130583" fill="#999"/>
        <circle cx="415.7133" cy="298.19076" r="192.191064130583" stroke="black" stroke-linecap="round" stroke-linejoin="round" stroke-width=".5"/>
      </g>
      <g id="Graphic_19">
        <circle cx="411.2283" cy="292.81787" r="159.818124754628" fill="#ccc"/>
        <circle cx="411.2283" cy="292.81787" r="159.818124754628" stroke="black" stroke-linecap="round" stroke-linejoin="round" stroke-width=".5"/>
      </g>
      <g id="Graphic_18">
        <path d="M 585.6815 54.59649 C 583.92776 75.06573 577.83214 69.23729 560.9821 80.99067 C 544.1321 92.74415 545.323 92.04392 545.323 92.04392 L 524.7342 106.27924 C 524.7342 106.27924 542.14745 89.08657 543.90124 68.61727 C 545.65495 48.148023 541.4973 50.56848 558.3473 38.8151 C 575.19734 27.06162 587.43526 34.127184 585.6815 54.59649 Z" fill="white"/>
        <path d="M 585.6815 54.59649 C 583.92776 75.06573 577.83214 69.23729 560.9821 80.99067 C 544.1321 92.74415 545.323 92.04392 545.323 92.04392 L 524.7342 106.27924 C 524.7342 106.27924 542.14745 89.08657 543.90124 68.61727 C 545.65495 48.148023 541.4973 50.56848 558.3473 38.8151 C 575.19734 27.06162 587.43526 34.127184 585.6815 54.59649 Z" stroke="black" stroke-linecap="round" stroke-linejoin="round" stroke-width="8"/>
      </g>
      <g id="Graphic_17">
        <path d="M 722.1186 250.54593 C 709.59555 260.88473 709.4882 254.349 693.4736 251.65684 C 677.4589 248.96474 678.51714 249.227 678.51714 249.227 L 659.0201 245.868 C 659.0201 245.868 678.4167 245.86577 690.9398 235.52698 C 703.4628 225.18818 699.7818 224.25926 715.7964 226.95141 C 731.8111 229.64352 734.64165 240.20714 722.1186 250.54593 Z" fill="white"/>
        <path d="M 722.1186 250.54593 C 709.59555 260.88473 709.4882 254.349 693.4736 251.65684 C 677.4589 248.96474 678.51714 249.227 678.51714 249.227 L 659.0201 245.868 C 659.0201 245.868 678.4167 245.86577 690.9398 235.52698 C 703.4628 225.18818 699.7818 224.25926 715.7964 226.95141 C 731.8111 229.64352 734.64165 240.20714 722.1186 250.54593 Z" stroke="black" stroke-linecap="round" stroke-linejoin="round" stroke-width="8"/>
      </g>
      <g id="Graphic_16">
        <path d="M 232.15705 615.16506 C 231.48114 591.907 236.91962 595.84486 249.134 576.04076 C 261.34836 556.23654 260.47188 557.49255 260.47188 557.49255 L 275.4092 533.43294 C 275.4092 533.43294 263.2971 559.457 263.97293 582.7151 C 264.64884 605.97316 267.71122 601.61484 255.49684 621.41894 C 243.28247 641.22316 232.8329 638.4232 232.15705 615.16506 Z" fill="white"/>
        <path d="M 232.15705 615.16506 C 231.48114 591.907 236.91962 595.84486 249.134 576.04076 C 261.34836 556.23654 260.47188 557.49255 260.47188 557.49255 L 275.4092 533.43294 C 275.4092 533.43294 263.2971 559.457 263.97293 582.7151 C 264.64884 605.97316 267.71122 601.61484 255.49684 621.41894 C 243.28247 641.22316 232.8329 638.4232 232.15705 615.16506 Z" stroke="black" stroke-linecap="round" stroke-linejoin="round" stroke-width="8"/>
      </g>
      <g id="Graphic_15">
        <path d="M 104.0607 379.6479 C 117.59381 358.2745 121.0275 369.03893 146.30398 368.00562 C 171.58053 366.9722 169.86796 366.90108 169.86796 366.90108 L 200.68157 365.77767 C 200.68157 365.77767 171.7015 372.42157 158.16826 393.795 C 144.63515 415.1684 150.60031 415.44343 125.32383 416.47674 C 100.04728 417.51016 90.52745 401.02134 104.0607 379.6479 Z" fill="white"/>
        <path d="M 104.0607 379.6479 C 117.59381 358.2745 121.0275 369.03893 146.30398 368.00562 C 171.58053 366.9722 169.86796 366.90108 169.86796 366.90108 L 200.68157 365.77767 C 200.68157 365.77767 171.7015 372.42157 158.16826 393.795 C 144.63515 415.1684 150.60031 415.44343 125.32383 416.47674 C 100.04728 417.51016 90.52745 401.02134 104.0607 379.6479 Z" stroke="black" stroke-linecap="round" stroke-linejoin="round" stroke-width="8"/>
      </g>
      <g id="Graphic_14">
        <path d="M 94.87152 146.9145 C 117.31194 146.01952 113.46199 151.48154 132.44847 163.47684 C 151.43507 175.47213 150.23189 174.6098 150.23189 174.6098 L 173.29725 189.2807 C 173.29725 189.2807 148.31024 177.44647 125.86972 178.3414 C 103.42929 179.23638 107.60412 182.2496 88.61764 170.2543 C 69.63104 158.25901 72.43099 147.80943 94.87152 146.9145 Z" fill="white"/>
        <path d="M 94.87152 146.9145 C 117.31194 146.01952 113.46199 151.48154 132.44847 163.47684 C 151.43507 175.47213 150.23189 174.6098 150.23189 174.6098 L 173.29725 189.2807 C 173.29725 189.2807 148.31024 177.44647 125.86972 178.3414 C 103.42929 179.23638 107.60412 182.2496 88.61764 170.2543 C 69.63104 158.25901 72.43099 147.80943 94.87152 146.9145 Z" stroke="black" stroke-linecap="round" stroke-linejoin="round" stroke-width="8"/>
      </g>
      <g id="Graphic_13">
        <path d="M 248.4247 31.61284 C 264.4115 45.812135 257.82967 47.09368 262.13323 68.03829 C 266.43686 88.98298 266.23803 87.58415 266.23803 87.58415 L 271.3948 113.0974 C 271.3948 113.0974 262.873 88.30112 246.88617 74.101715 C 230.89938 59.90242 231.574 64.770876 227.27045 43.82626 C 222.96682 22.881572 232.4379 17.41344 248.4247 31.61284 Z" fill="white"/>
        <path d="M 248.4247 31.61284 C 264.4115 45.812135 257.82967 47.09368 262.13323 68.03829 C 266.43686 88.98298 266.23803 87.58415 266.23803 87.58415 L 271.3948 113.0974 C 271.3948 113.0974 262.873 88.30112 246.88617 74.101715 C 230.89938 59.90242 231.574 64.770876 227.27045 43.82626 C 222.96682 22.881572 232.4379 17.41344 248.4247 31.61284 Z" stroke="black" stroke-linecap="round" stroke-linejoin="round" stroke-width="8"/>
      </g>
      <g id="Graphic_12">
        <path d="M 699.1606 588.86584 C 670.3735 577.3598 680.6615 571.40304 669.1554 542.6159 C 657.6493 513.8287 658.27545 515.8056 658.27545 515.8056 L 644.397 480.68674 C 644.397 480.68674 663.5218 512.6675 692.309 524.17365 C 721.0961 535.6797 718.9446 528.78865 730.45066 557.5758 C 741.9568 586.363 727.9478 600.372 699.1606 588.86584 Z" fill="white"/>
        <path d="M 699.1606 588.86584 C 670.3735 577.3598 680.6615 571.40304 669.1554 542.6159 C 657.6493 513.8287 658.27545 515.8056 658.27545 515.8056 L 644.397 480.68674 C 644.397 480.68674 663.5218 512.6675 692.309 524.17365 C 721.0961 535.6797 718.9446 528.78865 730.45066 557.5758 C 741.9568 586.363 727.9478 600.372 699.1606 588.86584 Z" stroke="black" stroke-linecap="round" stroke-linejoin="round" stroke-width="8"/>
      </g>
      <g id="Graphic_11">
        <circle cx="413.7761" cy="293.51273" r="148.005480751025" fill="white"/>
        <circle cx="413.7761" cy="293.51273" r="148.005480751025" stroke="black" stroke-linecap="round" stroke-linejoin="round" stroke-width=".5"/>
      </g>
    </g>
    <g id="led: Layer 1">
      <title>Layer 1</title>
      <g id="Line_6">
        <line x1="391.78322" y1="346.98605" x2="391.78322" y2="731.3676" stroke="black" stroke-linecap="round" stroke-linejoin="round" stroke-width="8"/>
      </g>
      <g id="Line_7">
        <line x1="436.3427" y1="346.98605" x2="436.3427" y2="819.0213" stroke="black" stroke-linecap="round" stroke-linejoin="round" stroke-width="8"/>
      </g>
      <g id="Graphic_3"/>
      <g id="Graphic_5">
        <ellipse cx="415.7133" cy="333.78325" rx="62.7133995367553" ry="21.4545840520479" fill="#8080ff"/>
        <ellipse cx="415.7133" cy="333.78325" rx="62.7133995367553" ry="21.4545840520479" stroke="black" stroke-linecap="round" stroke-linejoin="round" stroke-width="7"/>
      </g>
      <g id="Graphic_4">
        <path d="M 371.97902 314.9983 L 371.97902 212.25995 C 371.97902 203.59014 376.14234 195.4477 383.1708 190.37162 L 393.7352 182.74175 C 398.87115 179.03246 405.1479 177.24733 411.46713 177.6987 L 420.77686 178.36368 C 423.43774 178.55374 426.05577 179.1371 428.5456 180.09473 L 435.5175 182.77622 C 442.3098 185.38866 447.578 190.9017 449.8793 197.80566 L 456.1469 216.6084 C 456.1469 216.6084 457.7972 228.16085 457.7972 229.8112 C 457.7972 231.46155 457.7972 238.06295 457.7972 239.7133 C 457.7972 241.36365 457.7972 284.27275 457.7972 284.27275 L 455.57227 318.2587 C 455.2158 323.70373 452.1046 328.5901 447.3217 331.2168 L 442.1094 334.0793 C 440.4698 334.97973 438.7411 335.70733 436.95115 336.2504 L 423.59785 340.30166 C 419.90874 341.4209 416.02274 341.73716 412.2012 341.22915 L 398.32856 339.385 C 395.0921 338.95477 391.96046 337.9411 389.08577 336.39317 L 382.7063 332.95807 C 376.0992 329.4004 371.97902 322.50233 371.97902 314.9983 Z" fill="#c0c0ff"/>
        <path d="M 371.97902 314.9983 L 371.97902 212.25995 C 371.97902 203.59014 376.14234 195.4477 383.1708 190.37162 L 393.7352 182.74175 C 398.87115 179.03246 405.1479 177.24733 411.46713 177.6987 L 420.77686 178.36368 C 423.43774 178.55374 426.05577 179.1371 428.5456 180.09473 L 435.5175 182.77622 C 442.3098 185.38866 447.578 190.9017 449.8793 197.80566 L 456.1469 216.6084 C 456.1469 216.6084 457.7972 228.16085 457.7972 229.8112 C 457.7972 231.46155 457.7972 238.06295 457.7972 239.7133 C 457.7972 241.36365 457.7972 284.27275 457.7972 284.27275 L 455.57227 318.2587 C 455.2158 323.70373 452.1046 328.5901 447.3217 331.2168 L 442.1094 334.0793 C 440.4698 334.97973 438.7411 335.70733 436.95115 336.2504 L 423.59785 340.30166 C 419.90874 341.4209 416.02274 341.73716 412.2012 341.22915 L 398.32856 339.385 C 395.0921 338.95477 391.96046 337.9411 389.08577 336.39317 L 382.7063 332.95807 C 376.0992 329.4004 371.97902 322.50233 371.97902 314.9983 Z" stroke="black" stroke-linecap="round" stroke-linejoin="round" stroke-width="5"/>
      </g>
      <g id="Graphic_8">
        <rect x="386.007" y="378.35937" width="13.2028" height="36.3077" fill="#ccc"/>
        <rect x="386.007" y="378.35937" width="13.2028" height="36.3077" stroke="black" stroke-linecap="round" stroke-linejoin="round" stroke-width="3"/>
      </g>
      <g id="Graphic_9">
        <rect x="430.56645" y="378.35937" width="13.2028" height="36.3077" fill="#ccc"/>
        <rect x="430.56645" y="378.35937" width="13.2028" height="36.3077" stroke="black" stroke-linecap="round" stroke-linejoin="round" stroke-width="3"/>
      </g>
    </g>
  </g>
</svg>
