<?xml version="1.0" encoding="UTF-8" standalone="no"?>
<!DOCTYPE svg PUBLIC "-//W3C//DTD SVG 1.1//EN" "http://www.w3.org/Graphics/SVG/1.1/DTD/svg11.dtd">
<svg xmlns="http://www.w3.org/2000/svg" version="1.1" xmlns:dc="http://purl.org/dc/elements/1.1/" xmlns:xl="http://www.w3.org/1999/xlink" viewBox="0 0 850.394 850.394" width="850.394" height="850.394">
  <defs/>
  <metadata> Produced by OmniGraffle 7.9.4 
    <dc:date>2019-03-11 12:14:54 +0000</dc:date>
  </metadata>
  <g id="light_1" fill="none" stroke-opacity="1" fill-opacity="1" stroke-dasharray="none" stroke="none">
    <title>light 1</title>
    <g id="light_1: Layer 1">
      <title>Layer 1</title>
      <g id="Graphic_14">
        <path d="M 722.6992 160.07855 C 878.0635 315.442 878.0635 567.33576 722.6992 722.6992 C 567.33576 878.0635 315.442 878.0635 160.07855 722.6992 C 4.7142916 567.33576 4.7142916 315.442 160.07855 160.07855 C 315.442 4.7142916 567.33576 4.7142916 722.6992 160.07855" fill="black"/>
        <path d="M 722.6992 160.07855 C 878.0635 315.442 878.0635 567.33576 722.6992 722.6992 C 567.33576 878.0635 315.442 878.0635 160.07855 722.6992 C 4.7142916 567.33576 4.7142916 315.442 160.07855 160.07855 C 315.442 4.7142916 567.33576 4.7142916 722.6992 160.07855" stroke="black" stroke-linecap="round" stroke-linejoin="round" stroke-width="8"/>
      </g>
      <g id="Graphic_13">
        <path d="M 690.6674 192.88812 C 829.6296 331.84957 829.6296 557.1504 690.6674 696.1119 C 551.706 835.0741 326.40513 835.0741 187.44367 696.1119 C 48.4815 557.1504 48.4815 331.84957 187.44367 192.88812 C 326.40513 53.925947 551.706 53.925947 690.6674 192.88812" fill="#333"/>
        <path d="M 690.6674 192.88812 C 829.6296 331.84957 829.6296 557.1504 690.6674 696.1119 C 551.706 835.0741 326.40513 835.0741 187.44367 696.1119 C 48.4815 557.1504 48.4815 331.84957 187.44367 192.88812 C 326.40513 53.925947 551.706 53.925947 690.6674 192.88812" stroke="black" stroke-linecap="round" stroke-linejoin="round" stroke-width="8"/>
      </g>
      <g id="Graphic_12">
        <path d="M 657.5714 209.65079 C 783.62455 335.70325 783.62455 540.0745 657.5714 666.127 C 531.51897 792.1801 327.1477 792.1801 201.09523 666.127 C 75.04212 540.0745 75.04212 335.70325 201.09523 209.65079 C 327.1477 83.59767 531.51897 83.59767 657.5714 209.65079" fill="#666"/>
        <path d="M 657.5714 209.65079 C 783.62455 335.70325 783.62455 540.0745 657.5714 666.127 C 531.51897 792.1801 327.1477 792.1801 201.09523 666.127 C 75.04212 540.0745 75.04212 335.70325 201.09523 209.65079 C 327.1477 83.59767 531.51897 83.59767 657.5714 209.65079" stroke="black" stroke-linecap="round" stroke-linejoin="round" stroke-width="8"/>
      </g>
      <g id="Graphic_11">
        <path d="M 643.6725 218.88303 C 758.1834 333.39334 758.1834 519.0511 643.6725 633.5614 C 529.1622 748.0723 343.50446 748.0723 228.99414 633.5614 C 114.48324 519.0511 114.48324 333.39334 228.99414 218.88303 C 343.50446 104.37213 529.1622 104.37213 643.6725 218.88303" fill="#999"/>
        <path d="M 643.6725 218.88303 C 758.1834 333.39334 758.1834 519.0511 643.6725 633.5614 C 529.1622 748.0723 343.50446 748.0723 228.99414 633.5614 C 114.48324 519.0511 114.48324 333.39334 228.99414 218.88303 C 343.50446 104.37213 529.1622 104.37213 643.6725 218.88303" stroke="black" stroke-linecap="round" stroke-linejoin="round" stroke-width="8"/>
      </g>
      <g id="Graphic_2">
        <path d="M 624.5179 232.59322 C 729.309 337.38383 729.309 507.28284 624.5179 612.07344 C 519.7273 716.8646 349.82827 716.8646 245.03767 612.07344 C 140.24652 507.28284 140.24652 337.38383 245.03767 232.59322 C 349.82827 127.80208 519.7273 127.80208 624.5179 232.59322" fill="#ccc"/>
        <path d="M 624.5179 232.59322 C 729.309 337.38383 729.309 507.28284 624.5179 612.07344 C 519.7273 716.8646 349.82827 716.8646 245.03767 612.07344 C 140.24652 507.28284 140.24652 337.38383 245.03767 232.59322 C 349.82827 127.80208 519.7273 127.80208 624.5179 232.59322" stroke="black" stroke-linecap="round" stroke-linejoin="round" stroke-width="8"/>
      </g>
      <g id="Graphic_3">
        <path d="M 674.0489 113.14898 C 670.92414 149.62155 660.0628 139.2363 630.03906 160.17874 C 600.0153 181.12137 602.1373 179.87368 602.1373 179.87368 L 565.45166 205.2385 C 565.45166 205.2385 596.479 174.6042 599.604 138.13153 C 602.72876 101.65895 595.3205 105.97178 625.3443 85.02934 C 655.3681 64.08671 677.1739 76.6763 674.0489 113.14898 Z" fill="white"/>
        <path d="M 674.0489 113.14898 C 670.92414 149.62155 660.0628 139.2363 630.03906 160.17874 C 600.0153 181.12137 602.1373 179.87368 602.1373 179.87368 L 565.45166 205.2385 C 565.45166 205.2385 596.479 174.6042 599.604 138.13153 C 602.72876 101.65895 595.3205 105.97178 625.3443 85.02934 C 655.3681 64.08671 677.1739 76.6763 674.0489 113.14898 Z" stroke="black" stroke-linecap="round" stroke-linejoin="round" stroke-width="8"/>
      </g>
      <g id="Graphic_4">
        <path d="M 819.1409 424.64967 C 796.8271 443.0716 796.6358 431.42607 768.1006 426.6291 C 739.5652 421.83226 741.45085 422.29956 741.45085 422.29956 L 706.7106 416.3144 C 706.7106 416.3144 741.2718 416.31045 763.5858 397.88856 C 785.8996 379.46664 779.3407 377.81146 807.87595 382.6084 C 836.4113 387.40527 841.4548 406.22777 819.1409 424.64967 Z" fill="white"/>
        <path d="M 819.1409 424.64967 C 796.8271 443.0716 796.6358 431.42607 768.1006 426.6291 C 739.5652 421.83226 741.45085 422.29956 741.45085 422.29956 L 706.7106 416.3144 C 706.7106 416.3144 741.2718 416.31045 763.5858 397.88856 C 785.8996 379.46664 779.3407 377.81146 807.87595 382.6084 C 836.4113 387.40527 841.4548 406.22777 819.1409 424.64967 Z" stroke="black" stroke-linecap="round" stroke-linejoin="round" stroke-width="8"/>
      </g>
      <g id="Graphic_5">
        <path d="M 262.75488 788.7908 C 261.55053 747.3491 271.24093 754.3656 293.0048 719.0782 C 314.76864 683.7906 313.2069 686.02856 313.2069 686.02856 L 339.82254 643.1586 C 339.82254 643.1586 318.24092 689.5288 319.44516 730.9707 C 320.6495 772.4124 326.10612 764.6467 304.34227 799.9341 C 282.57842 835.2217 263.95912 830.2327 262.75488 788.7908 Z" fill="white"/>
        <path d="M 262.75488 788.7908 C 261.55053 747.3491 271.24093 754.3656 293.0048 719.0782 C 314.76864 683.7906 313.2069 686.02856 313.2069 686.02856 L 339.82254 643.1586 C 339.82254 643.1586 318.24092 689.5288 319.44516 730.9707 C 320.6495 772.4124 326.10612 764.6467 304.34227 799.9341 C 282.57842 835.2217 263.95912 830.2327 262.75488 788.7908 Z" stroke="black" stroke-linecap="round" stroke-linejoin="round" stroke-width="8"/>
      </g>
      <g id="Graphic_6">
        <path d="M 34.288033 571.4917 C 58.40165 533.408 64.519864 552.58836 109.55809 550.7472 C 154.59643 548.9058 151.54494 548.7791 151.54494 548.7791 L 206.44934 546.77736 C 206.44934 546.77736 154.812 558.6156 130.69815 596.6993 C 106.58453 634.7829 117.2134 635.273 72.17518 637.11415 C 27.13683 638.9555 10.174185 609.57535 34.288033 571.4917 Z" fill="white"/>
        <path d="M 34.288033 571.4917 C 58.40165 533.408 64.519864 552.58836 109.55809 550.7472 C 154.59643 548.9058 151.54494 548.7791 151.54494 548.7791 L 206.44934 546.77736 C 206.44934 546.77736 154.812 558.6156 130.69815 596.6993 C 106.58453 634.7829 117.2134 635.273 72.17518 637.11415 C 27.13683 638.9555 10.174185 609.57535 34.288033 571.4917 Z" stroke="black" stroke-linecap="round" stroke-linejoin="round" stroke-width="8"/>
      </g>
      <g id="Graphic_7">
        <path d="M 62.530775 287.6457 C 102.51564 286.05098 95.65571 295.78334 129.48627 317.15684 C 163.31703 338.53032 161.17316 336.9938 161.17316 336.9938 L 202.27157 363.13476 C 202.27157 363.13476 157.74913 342.04825 117.76409 343.64285 C 77.77922 345.23756 85.21803 350.60657 51.38747 329.23307 C 17.556706 307.8596 22.545732 289.2403 62.530775 287.6457 Z" fill="white"/>
        <path d="M 62.530775 287.6457 C 102.51564 286.05098 95.65571 295.78334 129.48627 317.15684 C 163.31703 338.53032 161.17316 336.9938 161.17316 336.9938 L 202.27157 363.13476 C 202.27157 363.13476 157.74913 342.04825 117.76409 343.64285 C 77.77922 345.23756 85.21803 350.60657 51.38747 329.23307 C 17.556706 307.8596 22.545732 289.2403 62.530775 287.6457 Z" stroke="black" stroke-linecap="round" stroke-linejoin="round" stroke-width="8"/>
      </g>
      <g id="Graphic_8">
        <path d="M 331.35966 38.49301 C 359.8453 63.79364 348.11763 66.077124 355.7858 103.39673 C 363.4541 140.71646 363.09984 138.22399 363.09984 138.22399 L 372.28826 183.6841 C 372.28826 183.6841 357.1039 139.5015 328.61824 114.20067 C 300.1326 88.90004 301.33467 97.57477 293.6665 60.255164 C 285.9982 22.935433 302.87398 13.19219 331.35966 38.49301 Z" fill="white"/>
        <path d="M 331.35966 38.49301 C 359.8453 63.79364 348.11763 66.077124 355.7858 103.39673 C 363.4541 140.71646 363.09984 138.22399 363.09984 138.22399 L 372.28826 183.6841 C 372.28826 183.6841 357.1039 139.5015 328.61824 114.20067 C 300.1326 88.90004 301.33467 97.57477 293.6665 60.255164 C 285.9982 22.935433 302.87398 13.19219 331.35966 38.49301 Z" stroke="black" stroke-linecap="round" stroke-linejoin="round" stroke-width="8"/>
      </g>
      <g id="Graphic_9">
        <path d="M 700.6502 819.7253 C 649.3566 799.2236 667.688 788.6097 647.1863 737.3161 C 626.68435 686.0224 627.8001 689.5449 627.8001 689.5449 L 603.0711 626.96925 C 603.0711 626.96925 637.1481 683.9533 688.4418 704.4552 C 739.7354 724.9569 735.90185 712.67834 756.40355 763.9719 C 776.9055 815.2656 751.9439 840.2272 700.6502 819.7253 Z" fill="white"/>
        <path d="M 700.6502 819.7253 C 649.3566 799.2236 667.688 788.6097 647.1863 737.3161 C 626.68435 686.0224 627.8001 689.5449 627.8001 689.5449 L 603.0711 626.96925 C 603.0711 626.96925 637.1481 683.9533 688.4418 704.4552 C 739.7354 724.9569 735.90185 712.67834 756.40355 763.9719 C 776.9055 815.2656 751.9439 840.2272 700.6502 819.7253 Z" stroke="black" stroke-linecap="round" stroke-linejoin="round" stroke-width="8"/>
      </g>
      <g id="Graphic_10">
        <path d="M 614.7714 247.78416 C 711.8171 344.82937 711.8171 502.1706 614.7714 599.21584 C 517.7262 696.26155 360.38493 696.26155 263.3397 599.21584 C 166.294 502.1706 166.294 344.82937 263.3397 247.78416 C 360.38493 150.73845 517.7262 150.73845 614.7714 247.78416" fill="white"/>
        <path d="M 614.7714 247.78416 C 711.8171 344.82937 711.8171 502.1706 614.7714 599.21584 C 517.7262 696.26155 360.38493 696.26155 263.3397 599.21584 C 166.294 502.1706 166.294 344.82937 263.3397 247.78416 C 360.38493 150.73845 517.7262 150.73845 614.7714 247.78416" stroke="black" stroke-linecap="round" stroke-linejoin="round" stroke-width="8"/>
      </g>
    </g>
  </g>
</svg>
