<?xml version="1.0" encoding="UTF-8" standalone="no"?>
<!DOCTYPE svg PUBLIC "-//W3C//DTD SVG 1.1//EN" "http://www.w3.org/Graphics/SVG/1.1/DTD/svg11.dtd">
<svg version="1.1" xmlns:xl="http://www.w3.org/1999/xlink" xmlns="http://www.w3.org/2000/svg" xmlns:dc="http://purl.org/dc/elements/1.1/" viewBox="0 0 850.394 850.394" width="850.394" height="850.394">
  <defs>
    <marker orient="auto" overflow="visible" markerUnits="strokeWidth" id="FilledArrow_Marker" stroke-linejoin="miter" stroke-miterlimit="10" viewBox="-1 -3 6 6" markerWidth="6" markerHeight="6" color="black">
      <g>
        <path d="M 3.2 0 L 0 -1.2 L 0 1.2 Z" fill="currentColor" stroke="currentColor" stroke-width="1"/>
      </g>
    </marker>
  </defs>
  <metadata> Produced by OmniGraffle 7.9.4 
    <dc:date>2019-07-02 13:08:32 +0000</dc:date>
  </metadata>
  <g id="long_touch" stroke-dasharray="none" stroke="none" fill="none" fill-opacity="1" stroke-opacity="1">
    <title>long touch</title>
    <g id="long_touch: Layer 1">
      <title>Layer 1</title>
      <g id="Graphic_7">
        <path d="M 697.4514 341.0197 C 833.6708 361.05934 856.5879 446.5873 748.6383 532.05184 C 640.6894 617.5165 442.75255 670.5535 306.53374 650.5134 C 170.31437 630.4738 147.39722 544.9458 255.34683 459.48126 C 363.29573 374.01663 561.2326 320.9796 697.4514 341.0197" fill="#c0c0ff"/>
        <path d="M 697.4514 341.0197 C 833.6708 361.05934 856.5879 446.5873 748.6383 532.05184 C 640.6894 617.5165 442.75255 670.5535 306.53374 650.5134 C 170.31437 630.4738 147.39722 544.9458 255.34683 459.48126 C 363.29573 374.01663 561.2326 320.9796 697.4514 341.0197" stroke="black" stroke-linecap="round" stroke-linejoin="round" stroke-width="5"/>
      </g>
      <g id="Graphic_6">
        <path d="M 680.8524 360.94024 C 793.0415 370.15763 808.9622 429.57446 716.4123 493.6515 C 623.86296 557.7286 457.8902 602.20085 345.7016 592.9831 C 233.5125 583.76574 217.5918 524.3489 310.1417 460.27187 C 402.69104 396.1948 568.6638 351.7225 680.8524 360.94024" fill="#d9dfff"/>
        <path d="M 680.8524 360.94024 C 793.0415 370.15763 808.9622 429.57446 716.4123 493.6515 C 623.86296 557.7286 457.8902 602.20085 345.7016 592.9831 C 233.5125 583.76574 217.5918 524.3489 310.1417 460.27187 C 402.69104 396.1948 568.6638 351.7225 680.8524 360.94024" stroke="black" stroke-linecap="round" stroke-linejoin="round" stroke-width="5"/>
      </g>
      <g id="Graphic_8">
        <path d="M 655.62 382.12694 C 737.4963 378.8839 752.7857 418.714 689.76965 471.0899 C 626.75406 523.46585 509.2963 568.5537 427.42024 571.7964 C 345.54387 575.03945 330.25454 535.2094 393.27055 482.83345 C 456.28614 430.4575 573.7439 385.3697 655.62 382.12694" fill="white"/>
        <path d="M 655.62 382.12694 C 737.4963 378.8839 752.7857 418.714 689.76965 471.0899 C 626.75406 523.46585 509.2963 568.5537 427.42024 571.7964 C 345.54387 575.03945 330.25454 535.2094 393.27055 482.83345 C 456.28614 430.4575 573.7439 385.3697 655.62 382.12694" stroke="black" stroke-linecap="round" stroke-linejoin="round" stroke-width="5"/>
      </g>
      <g id="Line_10">
        <line x1="538.8294" y1="361.01974" x2="582.47086" y2="398.4205" marker-end="url(#FilledArrow_Marker)" stroke="black" stroke-linecap="round" stroke-linejoin="round" stroke-width="4"/>
      </g>
      <g id="Graphic_4">
        <path d="M 586.9702 414.34227 L 559.24774 400.3256 L 520.3954 383.9132 L 486.49255 371.98717 L 445.4084 353.36578 L 384.15555 328.66786 L 446.77355 313.68183 L 476.39444 291.5952 L 462.1757 265.25753 L 428.2664 269.34294 L 397.3149 275.13607 L 364.48823 273.9308 L 313.97656 268.986 L 278.32543 280.69358 L 253.7323 289.43818 L 214.40163 307.51895 L 190.26023 309.73693 L 144.70258 302.81874 L 105.03806 291.64228 L 56.53243 401.89976 L 58.711766 470.4317 L 114.09811 468.5373 L 146.21707 471.2446 L 188.35931 477.7305 L 237.09126 500.76736 L 268.4906 521.44506 L 303.0308 533.739 L 338.82904 542.0862 L 355.69997 535.06535 L 367.32255 506.27634 L 388.26253 497.97186 L 397.4211 474.27836 L 402.45084 461.4044 L 422.40754 443.43264 L 419.4048 404.2326 L 458.8237 415.49556 L 506.6032 426.9357 L 538.8899 432.83005 L 563.5288 434.30896 L 581.4798 434.83265 Z" fill="#ffc797"/>
        <path d="M 586.9702 414.34227 L 559.24774 400.3256 L 520.3954 383.9132 L 486.49255 371.98717 L 445.4084 353.36578 L 384.15555 328.66786 L 446.77355 313.68183 L 476.39444 291.5952 L 462.1757 265.25753 L 428.2664 269.34294 L 397.3149 275.13607 L 364.48823 273.9308 L 313.97656 268.986 L 278.32543 280.69358 L 253.7323 289.43818 L 214.40163 307.51895 L 190.26023 309.73693 L 144.70258 302.81874 L 105.03806 291.64228 L 56.53243 401.89976 L 58.711766 470.4317 L 114.09811 468.5373 L 146.21707 471.2446 L 188.35931 477.7305 L 237.09126 500.76736 L 268.4906 521.44506 L 303.0308 533.739 L 338.82904 542.0862 L 355.69997 535.06535 L 367.32255 506.27634 L 388.26253 497.97186 L 397.4211 474.27836 L 402.45084 461.4044 L 422.40754 443.43264 L 419.4048 404.2326 L 458.8237 415.49556 L 506.6032 426.9357 L 538.8899 432.83005 L 563.5288 434.30896 L 581.4798 434.83265 Z" stroke="black" stroke-linecap="round" stroke-linejoin="round" stroke-width="6"/>
      </g>
      <g id="Graphic_3">
        <path d="M 81.62156 450.84006 C 60.39739 482.88085 41.278427 477.75794 38.91815 439.3977 C 36.557763 401.03765 51.84988 343.96668 73.07407 311.9261 C 94.29824 279.8853 113.4172 285.0082 115.77748 323.36843 C 118.13787 361.7285 102.84575 418.79946 81.62156 450.84006" fill="black"/>
        <path d="M 81.62156 450.84006 C 60.39739 482.88085 41.278427 477.75794 38.91815 439.3977 C 36.557763 401.03765 51.84988 343.96668 73.07407 311.9261 C 94.29824 279.8853 113.4172 285.0082 115.77748 323.36843 C 118.13787 361.7285 102.84575 418.79946 81.62156 450.84006" stroke="black" stroke-linecap="round" stroke-linejoin="round" stroke-width="7"/>
      </g>
    </g>
  </g>
</svg>
