<?xml version="1.0" encoding="UTF-8" standalone="no"?>
<!DOCTYPE svg PUBLIC "-//W3C//DTD SVG 1.1//EN" "http://www.w3.org/Graphics/SVG/1.1/DTD/svg11.dtd">
<svg xmlns:dc="http://purl.org/dc/elements/1.1/" xmlns:xl="http://www.w3.org/1999/xlink" version="1.1" xmlns="http://www.w3.org/2000/svg" viewBox="0 0 850.394 850.394" width="850.394" height="850.394">
  <defs>
    <marker orient="auto" overflow="visible" markerUnits="strokeWidth" id="FilledArrow_Marker" stroke-linejoin="miter" stroke-miterlimit="10" viewBox="-5 -3 6 6" markerWidth="6" markerHeight="6" color="#a5a5a5">
      <g>
        <path d="M -3.2 0 L 0 1.2 L 0 -1.2 Z" fill="currentColor" stroke="currentColor" stroke-width="1"/>
      </g>
    </marker>
    <marker orient="auto" overflow="visible" markerUnits="strokeWidth" id="FilledArrow_Marker_2" stroke-linejoin="miter" stroke-miterlimit="10" viewBox="-4 -2 5 4" markerWidth="5" markerHeight="4" color="black">
      <g>
        <path d="M -2.5142857 0 L 0 .9428571 L 0 -.9428571 Z" fill="currentColor" stroke="currentColor" stroke-width="1"/>
      </g>
    </marker>
    <marker orient="auto" overflow="visible" markerUnits="strokeWidth" id="FilledArrow_Marker_3" stroke-linejoin="miter" stroke-miterlimit="10" viewBox="-5 -3 6 6" markerWidth="6" markerHeight="6" color="#666">
      <g>
        <path d="M -3.2 0 L 0 1.2 L 0 -1.2 Z" fill="currentColor" stroke="currentColor" stroke-width="1"/>
      </g>
    </marker>
  </defs>
  <metadata> Produced by OmniGraffle 7.9.4 
    <dc:date>2019-08-05 00:19:24 +0000</dc:date>
  </metadata>
  <g id="short_touch" fill="none" stroke-opacity="1" stroke="none" stroke-dasharray="none" fill-opacity="1">
    <title>short touch</title>
    <g id="short_touch: Layer 1">
      <title>Layer 1</title>
      <g id="Graphic_13">
        <path d="M 554.9273 184.89629 L 523.91067 186.61872 L 482.05734 191.8313 L 446.7336 198.4545 L 401.843 202.86998 L 336.4475 212.10738 L 383.18327 167.8201 L 397.7924 133.88207 L 372.3098 118.18234 L 344.98614 138.67508 L 321.07795 159.16781 L 292.04657 174.53737 L 245.82978 195.51086 L 220.8088 223.4755 L 203.88283 243.3451 L 178.86184 278.66885 L 159.06377 292.66038 L 116.15059 309.44788 L 76.21188 319.60103 L 89.3335 439.33963 L 125.48685 497.6004 L 172.50561 468.2666 L 201.6751 454.5517 L 241.4143 439.09754 L 295.13584 434.68207 L 332.66733 436.8898 L 368.727 430.2666 L 403.90276 419.59634 L 415.003 405.08065 L 410.67394 374.33734 L 424.65625 356.67546 L 420.74105 331.577 L 418.65997 317.91296 L 426.9571 292.3706 L 404.7566 259.92377 L 444.52586 249.9683 L 491.6242 235.986 L 522.5325 224.94732 L 544.6098 213.90865 L 560.4177 205.38667 Z" fill="#f9f9f9"/>
        <path d="M 554.9273 184.89629 L 523.91067 186.61872 L 482.05734 191.8313 L 446.7336 198.4545 L 401.843 202.86998 L 336.4475 212.10738 L 383.18327 167.8201 L 397.7924 133.88207 L 372.3098 118.18234 L 344.98614 138.67508 L 321.07795 159.16781 L 292.04657 174.53737 L 245.82978 195.51086 L 220.8088 223.4755 L 203.88283 243.3451 L 178.86184 278.66885 L 159.06377 292.66038 L 116.15059 309.44788 L 76.21188 319.60103 L 89.3335 439.33963 L 125.48685 497.6004 L 172.50561 468.2666 L 201.6751 454.5517 L 241.4143 439.09754 L 295.13584 434.68207 L 332.66733 436.8898 L 368.727 430.2666 L 403.90276 419.59634 L 415.003 405.08065 L 410.67394 374.33734 L 424.65625 356.67546 L 420.74105 331.577 L 418.65997 317.91296 L 426.9571 292.3706 L 404.7566 259.92377 L 444.52586 249.9683 L 491.6242 235.986 L 522.5325 224.94732 L 544.6098 213.90865 L 560.4177 205.38667 Z" stroke="#e7e7e7" stroke-linecap="round" stroke-linejoin="round" stroke-width="6"/>
      </g>
      <g id="Graphic_14">
        <path d="M 135.53148 469.1786 C 133.1712 507.53883 114.05224 512.66174 92.82807 480.62095 C 71.60388 448.58035 56.31176 391.5094 58.67215 353.1493 C 61.03243 314.7891 80.15139 309.66618 101.37556 341.70697 C 122.59975 373.74757 137.89187 430.81854 135.53148 469.1786" fill="#ccc"/>
        <path d="M 135.53148 469.1786 C 133.1712 507.53883 114.05224 512.66174 92.82807 480.62095 C 71.60388 448.58035 56.31176 391.5094 58.67215 353.1493 C 61.03243 314.7891 80.15139 309.66618 101.37556 341.70697 C 122.59975 373.74757 137.89187 430.81854 135.53148 469.1786" stroke="#a5a5a5" stroke-linecap="round" stroke-linejoin="round" stroke-width="7"/>
      </g>
      <g id="Graphic_11">
        <path d="M 599.37205 338.9711 L 569.08216 332.07744 L 527.4134 325.55176 L 491.6324 322.18185 L 447.26373 314.05275 L 381.85537 304.90687 L 438.9879 275.21733 L 462.3857 246.6208 L 442.21767 224.5053 L 410.30393 236.67277 L 381.67333 249.78167 L 349.53016 256.5537 L 299.32265 263.97564 L 267.56283 283.96025 L 245.81575 298.3947 L 212.02748 325.45336 L 189.13977 333.4458 L 143.26171 337.7545 L 102.07157 336.50574 L 81.68046 455.2227 L 100.37444 521.1917 L 153.65727 505.9544 L 185.47711 500.811 L 227.93664 496.9091 L 280.79416 507.47236 L 316.2632 519.93964 L 352.75157 523.5124 L 389.5058 522.95124 L 404.1771 512.0575 L 408.48976 481.3119 L 426.7987 468.18825 L 429.95324 442.9829 L 431.7191 429.27454 L 446.73523 407.00865 L 434.33833 369.69947 L 475.3111 371.09156 L 524.43894 370.63295 L 557.19256 368.54138 L 581.4573 364.01566 L 599.0018 360.18106 Z" fill="#c7c7c7"/>
        <path d="M 599.37205 338.9711 L 569.08216 332.07744 L 527.4134 325.55176 L 491.6324 322.18185 L 447.26373 314.05275 L 381.85537 304.90687 L 438.9879 275.21733 L 462.3857 246.6208 L 442.21767 224.5053 L 410.30393 236.67277 L 381.67333 249.78167 L 349.53016 256.5537 L 299.32265 263.97564 L 267.56283 283.96025 L 245.81575 298.3947 L 212.02748 325.45336 L 189.13977 333.4458 L 143.26171 337.7545 L 102.07157 336.50574 L 81.68046 455.2227 L 100.37444 521.1917 L 153.65727 505.9544 L 185.47711 500.811 L 227.93664 496.9091 L 280.79416 507.47236 L 316.2632 519.93964 L 352.75157 523.5124 L 389.5058 522.95124 L 404.1771 512.0575 L 408.48976 481.3119 L 426.7987 468.18825 L 429.95324 442.9829 L 431.7191 429.27454 L 446.73523 407.00865 L 434.33833 369.69947 L 475.3111 371.09156 L 524.43894 370.63295 L 557.19256 368.54138 L 581.4573 364.01566 L 599.0018 360.18106 Z" stroke="#dbdbdb" stroke-linecap="round" stroke-linejoin="round" stroke-width="6"/>
      </g>
      <g id="Graphic_12">
        <path d="M 117.86407 496.6396 C 105.02171 532.86326 85.23132 532.5178 73.66097 495.86806 C 62.09056 459.2185 63.12172 400.14327 75.96414 363.9198 C 88.8065 327.69618 108.59689 328.0416 120.16723 364.6914 C 131.73765 401.34096 130.70648 460.4162 117.86407 496.6396" fill="#999"/>
        <path d="M 117.86407 496.6396 C 105.02171 532.86326 85.23132 532.5178 73.66097 495.86806 C 62.09056 459.2185 63.12172 400.14327 75.96414 363.9198 C 88.8065 327.69618 108.59689 328.0416 120.16723 364.6914 C 131.73765 401.34096 130.70648 460.4162 117.86407 496.6396" stroke="#a5a5a5" stroke-linecap="round" stroke-linejoin="round" stroke-width="7"/>
      </g>
      <g id="Graphic_7">
        <path d="M 741.4415 402.5891 C 813.3233 418.7202 827.6686 472.2577 773.4827 522.1685 C 719.2972 572.0794 617.0998 599.4631 545.21836 583.3318 C 473.3366 567.2007 458.9913 513.6632 513.17716 463.7524 C 567.36266 413.8415 669.5601 386.45777 741.4415 402.5891" fill="#c0c0ff"/>
        <path d="M 741.4415 402.5891 C 813.3233 418.7202 827.6686 472.2577 773.4827 522.1685 C 719.2972 572.0794 617.0998 599.4631 545.21836 583.3318 C 473.3366 567.2007 458.9913 513.6632 513.17716 463.7524 C 567.36266 413.8415 669.5601 386.45777 741.4415 402.5891" stroke="black" stroke-linecap="round" stroke-linejoin="round" stroke-width="5"/>
      </g>
      <g id="Graphic_6">
        <path d="M 667.96174 434.32517 C 702.8515 442.15484 709.8144 468.14075 683.5138 492.36634 C 657.2134 516.592 607.60906 529.8834 572.7194 522.0536 C 537.8296 514.22395 530.8667 488.23804 557.1673 464.01245 C 583.46775 439.7868 633.0721 426.4954 667.96174 434.32517" fill="#d9dfff"/>
        <path d="M 667.96174 434.32517 C 702.8515 442.15484 709.8144 468.14075 683.5138 492.36634 C 657.2134 516.592 607.60906 529.8834 572.7194 522.0536 C 537.8296 514.22395 530.8667 488.23804 557.1673 464.01245 C 583.46775 439.7868 633.0721 426.4954 667.96174 434.32517" stroke="black" stroke-linecap="round" stroke-linejoin="round" stroke-width="5"/>
      </g>
      <g id="Graphic_4">
        <path d="M 600.6744 432.2137 L 571.6387 421.1716 L 531.28363 408.91025 L 496.3199 400.5934 L 453.51435 386.36847 L 390.0154 368.2085 L 450.7239 346.75922 L 477.87384 321.69735 L 460.98 296.99023 L 427.68345 304.59774 L 397.5071 313.59445 L 364.73424 315.8271 L 313.9824 316.1893 L 279.75035 331.5593 L 256.20602 342.8267 L 218.98075 364.9196 L 195.20344 369.64887 L 149.1722 367.53066 L 108.55672 360.5615 L 71.84185 475.2852 L 81.17279 543.2139 L 136.0577 535.5404 L 168.2837 534.8755 L 210.87304 536.92086 L 261.74604 554.73765 L 295.1348 572.01994 L 330.77083 580.6361 L 367.2455 585.1956 L 383.2901 576.44976 L 391.83975 546.60356 L 411.79697 536.15576 L 418.4287 511.6347 L 422.0852 498.30554 L 440.05403 478.3462 L 432.9702 439.6748 L 473.35047 446.7556 L 522.06405 453.13875 L 554.79 455.62596 L 579.4485 454.5213 L 597.3559 453.16573 Z" fill="#ad7526"/>
        <path d="M 600.6744 432.2137 L 571.6387 421.1716 L 531.28363 408.91025 L 496.3199 400.5934 L 453.51435 386.36847 L 390.0154 368.2085 L 450.7239 346.75922 L 477.87384 321.69735 L 460.98 296.99023 L 427.68345 304.59774 L 397.5071 313.59445 L 364.73424 315.8271 L 313.9824 316.1893 L 279.75035 331.5593 L 256.20602 342.8267 L 218.98075 364.9196 L 195.20344 369.64887 L 149.1722 367.53066 L 108.55672 360.5615 L 71.84185 475.2852 L 81.17279 543.2139 L 136.0577 535.5404 L 168.2837 534.8755 L 210.87304 536.92086 L 261.74604 554.73765 L 295.1348 572.01994 L 330.77083 580.6361 L 367.2455 585.1956 L 383.2901 576.44976 L 391.83975 546.60356 L 411.79697 536.15576 L 418.4287 511.6347 L 422.0852 498.30554 L 440.05403 478.3462 L 432.9702 439.6748 L 473.35047 446.7556 L 522.06405 453.13875 L 554.79 455.62596 L 579.4485 454.5213 L 597.3559 453.16573 Z" stroke="black" stroke-linecap="round" stroke-linejoin="round" stroke-width="6"/>
      </g>
      <g id="Graphic_3">
        <path d="M 101.9092 521.33485 C 84.15047 555.41866 64.60075 552.3223 58.24367 514.4189 C 51.88649 476.5157 61.1293 418.15893 78.88806 384.0753 C 96.6468 349.9915 116.19651 353.0879 122.5536 390.99126 C 128.91077 428.89446 119.66796 487.25125 101.9092 521.33485" fill="black"/>
        <path d="M 101.9092 521.33485 C 84.15047 555.41866 64.60075 552.3223 58.24367 514.4189 C 51.88649 476.5157 61.1293 418.15893 78.88806 384.0753 C 96.6468 349.9915 116.19651 353.0879 122.5536 390.99126 C 128.91077 428.89446 119.66796 487.25125 101.9092 521.33485" stroke="black" stroke-linecap="round" stroke-linejoin="round" stroke-width="7"/>
      </g>
      <g id="Graphic_8">
        <path d="M 648.4304 445.1274 C 672.27425 447.4856 679.0272 464.1997 663.5135 482.45937 C 647.9999 500.71906 616.0945 513.6097 592.25075 511.2514 C 568.4069 508.8932 561.654 492.1791 577.16766 473.9194 C 592.6812 455.65974 624.5866 442.7691 648.4304 445.1274" fill="white"/>
        <path d="M 648.4304 445.1274 C 672.27425 447.4856 679.0272 464.1997 663.5135 482.45937 C 647.9999 500.71906 616.0945 513.6097 592.25075 511.2514 C 568.4069 508.8932 561.654 492.1791 577.16766 473.9194 C 592.6812 455.65974 624.5866 442.7691 648.4304 445.1274" stroke="black" stroke-linecap="round" stroke-linejoin="round" stroke-width="5"/>
      </g>
      <g id="Line_9">
        <path d="M 568.2594 234.13682 L 617.7924 325.42775 C 628.8231 345.7577 632.46535 369.28286 628.09885 391.9967 L 618.149 443.7541" marker-start="url(#FilledArrow_Marker)" stroke="#a5a5a5" stroke-linecap="round" stroke-linejoin="round" stroke-dasharray="4.0,16.0" stroke-width="4"/>
      </g>
      <g id="Line_15">
        <path d="M 620.7904 446.2291 L 612.0616 408.8068 C 608.78135 394.7438 594.72184 386.0026 580.6588 389.28282 C 572.714 391.13596 566.08947 396.59114 562.74684 404.03296 L 562.74684 404.03296" marker-start="url(#FilledArrow_Marker_2)" stroke="black" stroke-linecap="round" stroke-linejoin="round" stroke-width="7"/>
      </g>
      <g id="Line_16">
        <path d="M 622.3513 333.9933 C 630.95336 352.8291 633.5239 373.94348 629.5891 394.41156 L 619.78835 445.39344" marker-start="url(#FilledArrow_Marker_3)" stroke="#666" stroke-linecap="round" stroke-linejoin="round" stroke-dasharray="4.0,16.0" stroke-width="4"/>
      </g>
    </g>
  </g>
</svg>
