<?xml version="1.0" encoding="UTF-8" standalone="no"?>
<!DOCTYPE svg PUBLIC "-//W3C//DTD SVG 1.1//EN" "http://www.w3.org/Graphics/SVG/1.1/DTD/svg11.dtd">
<svg xmlns:xl="http://www.w3.org/1999/xlink" xmlns:dc="http://purl.org/dc/elements/1.1/" version="1.1" xmlns="http://www.w3.org/2000/svg" viewBox="0 0 850.394 850.394" width="850.394" height="850.394">
  <defs>
    <marker orient="auto" overflow="visible" markerUnits="strokeWidth" id="FilledArrow_Marker" stroke-linejoin="miter" stroke-miterlimit="10" viewBox="-1 -2 5 4" markerWidth="5" markerHeight="4" color="black">
      <g>
        <path d="M 2.55744 0 L 0 -.95904 L 0 .95904 Z" fill="currentColor" stroke="currentColor" stroke-width="1"/>
      </g>
    </marker>
  </defs>
  <metadata> Produced by OmniGraffle 7.9.4 
    <dc:date>2019-04-17 15:35:40 +0000</dc:date>
  </metadata>
  <g id="looper" stroke-opacity="1" stroke="none" fill="none" fill-opacity="1" stroke-dasharray="none">
    <title>looper</title>
    <g id="looper: Layer 1">
      <title>Layer 1</title>
      <g id="Graphic_2">
        <path d="M 107.0414 468.2098 L 80.07192 418.62077 C 80.07192 418.62077 67.89215 377.73155 67.45716 377.29656 C 67.02217 376.86157 63.97723 346.84715 63.97723 346.84715 L 96.16661 361.63686 C 96.16661 361.63686 119.65616 365.1168 130.53096 374.2516 C 141.40575 383.38645 167.50525 380.7765 167.50525 380.7765 C 167.50525 380.7765 164.4603 357.72194 162.72034 355.98197 C 160.98037 354.242 147.49563 342.49723 143.14571 336.40734 C 138.7958 330.31746 132.27092 312.4828 133.5759 310.30784 C 134.88087 308.1329 144.88568 290.29823 145.75566 290.29823 C 146.62565 290.29823 147.49563 285.07833 152.71553 289.42824 C 157.93543 293.77816 199.25964 315.09275 200.12962 315.96274 C 200.9996 316.8327 224.05417 349.4571 221.00923 323.7926 C 217.96428 298.12808 214.04936 291.6032 214.04936 291.6032 C 214.04936 291.6032 185.3399 273.33355 174.9001 261.15378 C 164.4603 248.97402 171.42017 209.82476 171.85517 209.38977 C 172.29016 208.95478 186.64488 197.21 187.94986 197.645 C 189.25483 198.08 230.57904 220.26456 236.23393 225.91946 C 241.88883 231.57435 270.59828 247.23405 277.99314 253.75892 C 285.388 260.2838 290.1729 255.4989 291.91287 253.75892 C 293.65284 252.01896 284.953 227.65942 285.388 227.22443 C 285.823 226.78944 284.953 214.60967 285.388 214.17468 C 285.823 213.7397 298.00275 197.21 298.00275 197.21 L 305.3976 193.29508 L 302.35267 198.94997 L 292.34786 208.95478 C 292.34786 208.95478 291.91287 219.82957 291.47788 220.26456 C 291.0429 220.69956 295.3928 233.7493 295.3928 233.7493 L 299.74272 248.53902 L 293.65284 262.45876 C 293.65284 262.45876 280.1681 266.37368 279.7331 265.9387 C 279.2981 265.5037 262.33344 249.409 262.33344 249.409 L 237.10392 235.48927 C 237.10392 235.48927 222.7492 227.22443 221.44422 226.78944 C 220.13924 226.35445 198.82465 213.7397 198.38966 213.3047 C 197.95467 212.8697 187.51487 212.8697 186.64488 212.8697 C 185.7749 212.8697 179.25002 222.00453 179.25002 222.00453 L 176.64007 240.27418 L 180.99 255.0639 L 190.12482 264.19872 C 190.12482 264.19872 205.34953 273.33355 205.78452 272.89856 C 206.2195 272.46357 223.18418 289.42824 223.18418 289.42824 C 223.18418 289.42824 228.40408 296.3881 227.9691 297.6931 C 227.5341 298.99806 230.57904 316.8327 231.01403 317.2677 C 231.44903 317.7027 231.01403 333.7974 230.57904 334.2324 C 230.14405 334.66738 225.35914 339.4523 225.35914 339.4523 L 215.78933 344.6722 L 197.08468 329.44748 C 197.08468 329.44748 187.94986 322.0526 187.51487 321.61763 C 187.07987 321.18264 167.07026 310.74284 167.07026 310.74284 L 145.75566 300.73803 L 145.75566 310.30784 C 145.75566 310.30784 153.15052 327.2725 152.71553 327.7075 C 152.28054 328.1425 158.80541 338.1473 159.2404 338.5823 C 159.6754 339.0173 174.03012 353.372 174.03012 353.372 L 178.81503 365.9868 L 180.12 384.6914 L 174.46512 395.5662 C 174.46512 395.5662 157.06545 391.2163 156.19546 392.0863 C 155.32548 392.95626 134.44588 390.3463 134.44588 390.3463 L 120.52615 386.8664 L 105.73643 377.29656 L 88.33676 372.07666 L 76.59199 360.3319 L 74.41703 370.3367 C 74.41703 370.3367 82.68187 380.3415 82.68187 381.2115 C 82.68187 382.08147 90.07673 403.39606 89.64174 403.83106 C 89.20674 404.26605 107.0414 468.2098 107.0414 468.2098 Z" fill="#666"/>
        <path d="M 107.0414 468.2098 L 80.07192 418.62077 C 80.07192 418.62077 67.89215 377.73155 67.45716 377.29656 C 67.02217 376.86157 63.97723 346.84715 63.97723 346.84715 L 96.16661 361.63686 C 96.16661 361.63686 119.65616 365.1168 130.53096 374.2516 C 141.40575 383.38645 167.50525 380.7765 167.50525 380.7765 C 167.50525 380.7765 164.4603 357.72194 162.72034 355.98197 C 160.98037 354.242 147.49563 342.49723 143.14571 336.40734 C 138.7958 330.31746 132.27092 312.4828 133.5759 310.30784 C 134.88087 308.1329 144.88568 290.29823 145.75566 290.29823 C 146.62565 290.29823 147.49563 285.07833 152.71553 289.42824 C 157.93543 293.77816 199.25964 315.09275 200.12962 315.96274 C 200.9996 316.8327 224.05417 349.4571 221.00923 323.7926 C 217.96428 298.12808 214.04936 291.6032 214.04936 291.6032 C 214.04936 291.6032 185.3399 273.33355 174.9001 261.15378 C 164.4603 248.97402 171.42017 209.82476 171.85517 209.38977 C 172.29016 208.95478 186.64488 197.21 187.94986 197.645 C 189.25483 198.08 230.57904 220.26456 236.23393 225.91946 C 241.88883 231.57435 270.59828 247.23405 277.99314 253.75892 C 285.388 260.2838 290.1729 255.4989 291.91287 253.75892 C 293.65284 252.01896 284.953 227.65942 285.388 227.22443 C 285.823 226.78944 284.953 214.60967 285.388 214.17468 C 285.823 213.7397 298.00275 197.21 298.00275 197.21 L 305.3976 193.29508 L 302.35267 198.94997 L 292.34786 208.95478 C 292.34786 208.95478 291.91287 219.82957 291.47788 220.26456 C 291.0429 220.69956 295.3928 233.7493 295.3928 233.7493 L 299.74272 248.53902 L 293.65284 262.45876 C 293.65284 262.45876 280.1681 266.37368 279.7331 265.9387 C 279.2981 265.5037 262.33344 249.409 262.33344 249.409 L 237.10392 235.48927 C 237.10392 235.48927 222.7492 227.22443 221.44422 226.78944 C 220.13924 226.35445 198.82465 213.7397 198.38966 213.3047 C 197.95467 212.8697 187.51487 212.8697 186.64488 212.8697 C 185.7749 212.8697 179.25002 222.00453 179.25002 222.00453 L 176.64007 240.27418 L 180.99 255.0639 L 190.12482 264.19872 C 190.12482 264.19872 205.34953 273.33355 205.78452 272.89856 C 206.2195 272.46357 223.18418 289.42824 223.18418 289.42824 C 223.18418 289.42824 228.40408 296.3881 227.9691 297.6931 C 227.5341 298.99806 230.57904 316.8327 231.01403 317.2677 C 231.44903 317.7027 231.01403 333.7974 230.57904 334.2324 C 230.14405 334.66738 225.35914 339.4523 225.35914 339.4523 L 215.78933 344.6722 L 197.08468 329.44748 C 197.08468 329.44748 187.94986 322.0526 187.51487 321.61763 C 187.07987 321.18264 167.07026 310.74284 167.07026 310.74284 L 145.75566 300.73803 L 145.75566 310.30784 C 145.75566 310.30784 153.15052 327.2725 152.71553 327.7075 C 152.28054 328.1425 158.80541 338.1473 159.2404 338.5823 C 159.6754 339.0173 174.03012 353.372 174.03012 353.372 L 178.81503 365.9868 L 180.12 384.6914 L 174.46512 395.5662 C 174.46512 395.5662 157.06545 391.2163 156.19546 392.0863 C 155.32548 392.95626 134.44588 390.3463 134.44588 390.3463 L 120.52615 386.8664 L 105.73643 377.29656 L 88.33676 372.07666 L 76.59199 360.3319 L 74.41703 370.3367 C 74.41703 370.3367 82.68187 380.3415 82.68187 381.2115 C 82.68187 382.08147 90.07673 403.39606 89.64174 403.83106 C 89.20674 404.26605 107.0414 468.2098 107.0414 468.2098 Z" stroke="#a5a5a5" stroke-linecap="round" stroke-linejoin="round" stroke-width="5"/>
      </g>
      <g id="Graphic_6">
        <path d="M 316 176.3854 L 345.46064 128.23462 C 345.46064 128.23462 374.78186 97.24202 374.94107 96.64781 C 375.1003 96.0536 399.57108 78.40939 399.57108 78.40939 L 402.8575 113.68108 C 402.8575 113.68108 411.58856 135.76359 409.11497 149.74885 C 406.64137 163.7341 421.9514 185.03196 421.9514 185.03196 C 421.9514 185.03196 440.39477 170.86769 441.03164 168.49085 C 441.6685 166.11401 445.0974 148.5635 448.19645 141.75141 C 451.2955 134.93933 463.4783 120.3713 466.0144 120.41396 C 468.55043 120.45662 488.9981 120.20371 489.4331 120.95714 C 489.8681 121.71056 494.82364 119.85404 493.66646 126.54957 C 492.50927 133.24509 494.7124 179.6902 494.39396 180.87862 C 494.0755 182.06704 477.34926 218.34506 498.0529 202.87581 C 518.75656 187.40656 522.4498 180.7537 522.4498 180.7537 C 522.4498 180.7537 523.91706 146.75576 529.24514 131.62474 C 534.57323 116.49373 571.9574 102.94652 572.5516 103.10574 C 573.1458 103.26496 590.4945 109.82413 590.77024 111.17177 C 591.046 112.5194 592.4957 159.3995 590.4259 167.12423 C 588.35605 174.84896 589.1491 207.54192 587.1958 217.2085 C 585.2425 226.87507 591.7788 228.62647 594.15566 229.26334 C 596.5325 229.9002 613.27856 210.18617 613.8728 210.34539 C 614.467 210.5046 624.58 203.6613 625.1742 203.8205 C 625.7684 203.97973 646.1734 206.26287 646.1734 206.26287 L 653.26126 210.70955 L 646.8415 210.9 L 633.1747 207.23798 C 633.1747 207.23798 623.53934 212.29866 622.9451 212.13945 C 622.3509 211.98023 613.2245 222.27224 613.2245 222.27224 L 602.59115 233.43424 L 587.4914 235.1201 C 587.4914 235.1201 577.3586 225.39945 577.5178 224.80524 C 577.677 224.21103 583.1331 201.47184 583.1331 201.47184 L 582.5732 172.66257 C 582.5732 172.66257 582.5534 156.0986 582.2776 154.75095 C 582.0018 153.40332 582.2692 128.63696 582.42844 128.04275 C 582.58766 127.44854 577.36776 118.4074 576.9328 117.65398 C 576.4978 116.90055 565.32435 115.81726 565.32435 115.81726 L 548.1974 122.6918 L 537.5641 133.8538 L 534.2205 146.3322 C 534.2205 146.3322 533.92187 164.0846 534.5161 164.24381 C 535.1103 164.40303 528.9008 187.5772 528.9008 187.5772 C 528.9008 187.5772 525.4833 195.5777 524.1357 195.85348 C 522.78804 196.12926 508.86524 207.68358 508.706 208.2778 C 508.5468 208.872 494.3909 216.54264 493.7967 216.38342 C 493.2025 216.2242 486.66617 214.4728 486.66617 214.4728 L 477.3607 208.79505 L 481.19336 184.984 C 481.19336 184.984 483.0301 173.37558 483.1893 172.78137 C 483.3485 172.18716 482.38484 149.63842 482.38484 149.63842 L 480.39196 126.17704 L 472.10426 130.96195 C 472.10426 130.96195 461.10985 145.84842 460.51564 145.6892 C 459.92143 145.52998 454.51945 156.1831 454.36023 156.7773 C 454.201 157.37151 448.9468 176.98043 448.9468 176.98043 L 440.41457 187.43167 L 424.86836 197.91413 L 412.62307 198.45424 C 412.62307 198.45424 407.69037 181.21073 406.50195 180.8923 C 405.31353 180.57386 397.134 161.18662 397.134 161.18662 L 393.18786 147.39181 L 394.0807 129.79863 L 389.90144 112.12013 L 394.20033 96.07647 L 384.44843 99.1953 C 384.44843 99.1953 379.91643 111.35527 379.163 111.79026 C 378.40958 112.22525 363.64803 129.28668 363.0538 129.12746 C 362.4596 128.96825 316 176.3854 316 176.3854 Z" fill="#666"/>
        <path d="M 316 176.3854 L 345.46064 128.23462 C 345.46064 128.23462 374.78186 97.24202 374.94107 96.64781 C 375.1003 96.0536 399.57108 78.40939 399.57108 78.40939 L 402.8575 113.68108 C 402.8575 113.68108 411.58856 135.76359 409.11497 149.74885 C 406.64137 163.7341 421.9514 185.03196 421.9514 185.03196 C 421.9514 185.03196 440.39477 170.86769 441.03164 168.49085 C 441.6685 166.11401 445.0974 148.5635 448.19645 141.75141 C 451.2955 134.93933 463.4783 120.3713 466.0144 120.41396 C 468.55043 120.45662 488.9981 120.20371 489.4331 120.95714 C 489.8681 121.71056 494.82364 119.85404 493.66646 126.54957 C 492.50927 133.24509 494.7124 179.6902 494.39396 180.87862 C 494.0755 182.06704 477.34926 218.34506 498.0529 202.87581 C 518.75656 187.40656 522.4498 180.7537 522.4498 180.7537 C 522.4498 180.7537 523.91706 146.75576 529.24514 131.62474 C 534.57323 116.49373 571.9574 102.94652 572.5516 103.10574 C 573.1458 103.26496 590.4945 109.82413 590.77024 111.17177 C 591.046 112.5194 592.4957 159.3995 590.4259 167.12423 C 588.35605 174.84896 589.1491 207.54192 587.1958 217.2085 C 585.2425 226.87507 591.7788 228.62647 594.15566 229.26334 C 596.5325 229.9002 613.27856 210.18617 613.8728 210.34539 C 614.467 210.5046 624.58 203.6613 625.1742 203.8205 C 625.7684 203.97973 646.1734 206.26287 646.1734 206.26287 L 653.26126 210.70955 L 646.8415 210.9 L 633.1747 207.23798 C 633.1747 207.23798 623.53934 212.29866 622.9451 212.13945 C 622.3509 211.98023 613.2245 222.27224 613.2245 222.27224 L 602.59115 233.43424 L 587.4914 235.1201 C 587.4914 235.1201 577.3586 225.39945 577.5178 224.80524 C 577.677 224.21103 583.1331 201.47184 583.1331 201.47184 L 582.5732 172.66257 C 582.5732 172.66257 582.5534 156.0986 582.2776 154.75095 C 582.0018 153.40332 582.2692 128.63696 582.42844 128.04275 C 582.58766 127.44854 577.36776 118.4074 576.9328 117.65398 C 576.4978 116.90055 565.32435 115.81726 565.32435 115.81726 L 548.1974 122.6918 L 537.5641 133.8538 L 534.2205 146.3322 C 534.2205 146.3322 533.92187 164.0846 534.5161 164.24381 C 535.1103 164.40303 528.9008 187.5772 528.9008 187.5772 C 528.9008 187.5772 525.4833 195.5777 524.1357 195.85348 C 522.78804 196.12926 508.86524 207.68358 508.706 208.2778 C 508.5468 208.872 494.3909 216.54264 493.7967 216.38342 C 493.2025 216.2242 486.66617 214.4728 486.66617 214.4728 L 477.3607 208.79505 L 481.19336 184.984 C 481.19336 184.984 483.0301 173.37558 483.1893 172.78137 C 483.3485 172.18716 482.38484 149.63842 482.38484 149.63842 L 480.39196 126.17704 L 472.10426 130.96195 C 472.10426 130.96195 461.10985 145.84842 460.51564 145.6892 C 459.92143 145.52998 454.51945 156.1831 454.36023 156.7773 C 454.201 157.37151 448.9468 176.98043 448.9468 176.98043 L 440.41457 187.43167 L 424.86836 197.91413 L 412.62307 198.45424 C 412.62307 198.45424 407.69037 181.21073 406.50195 180.8923 C 405.31353 180.57386 397.134 161.18662 397.134 161.18662 L 393.18786 147.39181 L 394.0807 129.79863 L 389.90144 112.12013 L 394.20033 96.07647 L 384.44843 99.1953 C 384.44843 99.1953 379.91643 111.35527 379.163 111.79026 C 378.40958 112.22525 363.64803 129.28668 363.0538 129.12746 C 362.4596 128.96825 316 176.3854 316 176.3854 Z" stroke="#a5a5a5" stroke-linecap="round" stroke-linejoin="round" stroke-width="5"/>
      </g>
      <g id="Graphic_7">
        <path d="M 634.8473 229.5744 L 678.5317 230.6878 C 678.5317 230.6878 710.659 238.3491 711.119 238.22584 C 711.579 238.1026 732.8798 247.67878 732.8798 247.67878 L 710.5051 263.53454 C 710.5051 263.53454 699.0801 277.9354 688.74664 281.6903 C 678.4132 285.44517 670.0607 303.953 670.0607 303.953 C 670.0607 303.953 686.6955 310.83526 688.5355 310.34223 C 690.3755 309.8492 703.4689 305.3548 709.2354 304.7957 C 715.0019 304.23664 729.4841 306.76544 730.4372 308.48217 C 731.3902 310.1989 739.4743 323.8095 739.1376 324.39277 C 738.8009 324.97602 741.9636 327.57972 737.0269 329.39554 C 732.0902 331.21135 701.8053 350.6657 700.8853 350.91222 C 699.9653 351.15873 669.16966 353.98714 687.5542 361.87963 C 705.9388 369.7721 711.8285 369.67303 711.8285 369.67303 C 711.8285 369.67303 735.1893 357.49725 747.39575 355.2126 C 759.6022 352.92793 783.15465 372.7473 783.2779 373.2073 C 783.4012 373.6673 785.71885 387.837 784.9221 388.5435 C 784.1254 389.25 753.2572 408.36764 747.2772 409.96996 C 741.2973 411.5723 719.68625 424.7583 712.44955 427.1904 C 705.21284 429.6225 706.5687 434.68246 707.0617 436.52244 C 707.5547 438.36243 727.2532 441.95866 727.3765 442.41866 C 727.4997 442.87866 736.002 447.0098 736.1253 447.4698 C 736.2485 447.9298 742.61595 462.4934 742.61595 462.4934 L 742.3783 468.9664 L 739.7657 464.7362 L 736.93085 454.15625 C 736.93085 454.15625 729.8086 449.65536 729.6853 449.19536 C 729.56205 448.73536 719.1295 446.6005 719.1295 446.6005 L 707.5305 443.79217 L 700.5557 434.32154 C 700.5557 434.32154 703.1505 423.7658 703.6105 423.6425 C 704.0705 423.51926 721.42716 418.37554 721.42716 418.37554 L 740.5247 406.84906 C 740.5247 406.84906 751.62185 400.42443 752.4186 399.7179 C 753.2153 399.0114 769.9227 389.60446 770.3827 389.4812 C 770.84265 389.35794 774.88355 382.3589 775.2203 381.77565 C 775.557 381.1924 771.9584 373.2822 771.9584 373.2822 L 760.7203 364.4609 L 749.1213 361.65255 L 739.4614 364.24092 C 739.4614 364.24092 727.44425 370.91207 727.5675 371.37207 C 727.6908 371.83206 709.7509 376.63905 709.7509 376.63905 C 709.7509 376.63905 703.0644 377.44463 702.3579 376.6479 C 701.6514 375.85116 688.5161 370.98934 688.0561 371.1126 C 687.5961 371.23586 676.9743 364.7145 676.851 364.2545 C 676.7278 363.7945 675.37196 358.73455 675.37196 358.73455 L 675.5766 350.2983 L 693.0235 343.65135 C 693.0235 343.65135 701.5169 340.3895 701.9769 340.26623 C 702.4369 340.14298 717.181 330.76905 717.181 330.76905 L 732.1386 320.35187 L 725.7228 316.6477 C 725.7228 316.6477 711.487 315.0389 711.3638 314.5789 C 711.2405 314.1189 702.00756 314.6208 701.5476 314.74405 C 701.0876 314.8673 685.90765 318.93475 685.90765 318.93475 L 675.5984 317.2599 L 662.55335 310.89483 L 657.4515 302.8944 C 657.4515 302.8944 667.1026 292.91306 666.8561 291.99306 C 666.6096 291.07307 676.4411 278.08522 676.4411 278.08522 L 684.162 270.10013 L 696.3024 263.88898 L 706.5367 254.24437 L 718.9567 250.91646 L 713.0911 245.5858 C 713.0911 245.5858 703.18465 247.25418 702.6014 246.91744 C 702.0181 246.5807 684.8661 243.28818 684.7429 242.8282 C 684.6196 242.3682 634.8473 229.5744 634.8473 229.5744 Z" fill="#666"/>
        <path d="M 634.8473 229.5744 L 678.5317 230.6878 C 678.5317 230.6878 710.659 238.3491 711.119 238.22584 C 711.579 238.1026 732.8798 247.67878 732.8798 247.67878 L 710.5051 263.53454 C 710.5051 263.53454 699.0801 277.9354 688.74664 281.6903 C 678.4132 285.44517 670.0607 303.953 670.0607 303.953 C 670.0607 303.953 686.6955 310.83526 688.5355 310.34223 C 690.3755 309.8492 703.4689 305.3548 709.2354 304.7957 C 715.0019 304.23664 729.4841 306.76544 730.4372 308.48217 C 731.3902 310.1989 739.4743 323.8095 739.1376 324.39277 C 738.8009 324.97602 741.9636 327.57972 737.0269 329.39554 C 732.0902 331.21135 701.8053 350.6657 700.8853 350.91222 C 699.9653 351.15873 669.16966 353.98714 687.5542 361.87963 C 705.9388 369.7721 711.8285 369.67303 711.8285 369.67303 C 711.8285 369.67303 735.1893 357.49725 747.39575 355.2126 C 759.6022 352.92793 783.15465 372.7473 783.2779 373.2073 C 783.4012 373.6673 785.71885 387.837 784.9221 388.5435 C 784.1254 389.25 753.2572 408.36764 747.2772 409.96996 C 741.2973 411.5723 719.68625 424.7583 712.44955 427.1904 C 705.21284 429.6225 706.5687 434.68246 707.0617 436.52244 C 707.5547 438.36243 727.2532 441.95866 727.3765 442.41866 C 727.4997 442.87866 736.002 447.0098 736.1253 447.4698 C 736.2485 447.9298 742.61595 462.4934 742.61595 462.4934 L 742.3783 468.9664 L 739.7657 464.7362 L 736.93085 454.15625 C 736.93085 454.15625 729.8086 449.65536 729.6853 449.19536 C 729.56205 448.73536 719.1295 446.6005 719.1295 446.6005 L 707.5305 443.79217 L 700.5557 434.32154 C 700.5557 434.32154 703.1505 423.7658 703.6105 423.6425 C 704.0705 423.51926 721.42716 418.37554 721.42716 418.37554 L 740.5247 406.84906 C 740.5247 406.84906 751.62185 400.42443 752.4186 399.7179 C 753.2153 399.0114 769.9227 389.60446 770.3827 389.4812 C 770.84265 389.35794 774.88355 382.3589 775.2203 381.77565 C 775.557 381.1924 771.9584 373.2822 771.9584 373.2822 L 760.7203 364.4609 L 749.1213 361.65255 L 739.4614 364.24092 C 739.4614 364.24092 727.44425 370.91207 727.5675 371.37207 C 727.6908 371.83206 709.7509 376.63905 709.7509 376.63905 C 709.7509 376.63905 703.0644 377.44463 702.3579 376.6479 C 701.6514 375.85116 688.5161 370.98934 688.0561 371.1126 C 687.5961 371.23586 676.9743 364.7145 676.851 364.2545 C 676.7278 363.7945 675.37196 358.73455 675.37196 358.73455 L 675.5766 350.2983 L 693.0235 343.65135 C 693.0235 343.65135 701.5169 340.3895 701.9769 340.26623 C 702.4369 340.14298 717.181 330.76905 717.181 330.76905 L 732.1386 320.35187 L 725.7228 316.6477 C 725.7228 316.6477 711.487 315.0389 711.3638 314.5789 C 711.2405 314.1189 702.00756 314.6208 701.5476 314.74405 C 701.0876 314.8673 685.90765 318.93475 685.90765 318.93475 L 675.5984 317.2599 L 662.55335 310.89483 L 657.4515 302.8944 C 657.4515 302.8944 667.1026 292.91306 666.8561 291.99306 C 666.6096 291.07307 676.4411 278.08522 676.4411 278.08522 L 684.162 270.10013 L 696.3024 263.88898 L 706.5367 254.24437 L 718.9567 250.91646 L 713.0911 245.5858 C 713.0911 245.5858 703.18465 247.25418 702.6014 246.91744 C 702.0181 246.5807 684.8661 243.28818 684.7429 242.8282 C 684.6196 242.3682 634.8473 229.5744 634.8473 229.5744 Z" stroke="#a5a5a5" stroke-linecap="round" stroke-linejoin="round" stroke-width="5"/>
      </g>
      <g id="Graphic_8">
        <path d="M 738.0287 462.13614 L 741.4513 530.5365 C 741.4513 530.5365 763.3207 577.2769 763.8244 577.93146 C 764.3281 578.586 775.1497 609.859 775.1497 609.859 L 742.5854 578.6432 C 742.5854 578.6432 720.8004 563.10115 708.6794 548.45965 C 696.5584 533.81815 674.105 522.95896 674.105 522.95896 C 674.105 522.95896 683.0439 547.3439 685.05855 549.9621 C 687.0732 552.58025 702.2162 571.149 707.7236 579.4164 C 713.231 587.68384 723.8457 608.69505 723.2761 610.17546 C 722.7065 611.6559 718.6535 624.1537 717.8815 623.7056 C 717.1095 623.2575 717.7497 627.9755 711.941 620.982 C 706.1323 613.98855 663.697 571.61036 662.68965 570.3013 C 661.6823 568.9922 632.399 524.83046 642.0439 551.79844 C 651.6888 578.7664 656.9279 587.2403 656.9279 587.2403 C 656.9279 587.2403 687.3457 620.1079 699.9045 637.5389 C 712.46325 654.9699 716.8784 690.13065 716.61005 690.3371 C 716.3417 690.5436 706.7813 694.774 705.5057 693.6714 C 704.23 692.56874 661.5593 649.32955 655.0116 640.8205 C 648.46394 632.3115 618.75214 602.0269 610.4251 591.76074 C 602.0981 581.49456 599.1467 583.7657 598.0734 584.59156 C 597.0002 585.4174 611.3099 614.0064 611.0416 614.21285 C 610.7733 614.4193 614.84025 626.9215 614.57194 627.128 C 614.3036 627.3344 607.9676 637.42055 607.9676 637.42055 L 602.4649 637.48646 L 603.637 633.4582 L 609.8082 628.7094 C 609.8082 628.7094 607.2523 618.1709 607.5206 617.9644 C 607.7889 617.7579 600.39866 602.60245 600.39866 602.60245 L 592.5377 585.72495 L 594.1759 575.08534 C 594.1759 575.08534 605.0825 578.15595 605.5862 578.8105 C 606.0899 579.465 625.4976 604.1311 625.4976 604.1311 L 651.65075 630.9014 C 651.65075 630.9014 666.6243 646.47415 667.9 647.5768 C 669.1756 648.6794 691.5018 672.1418 692.0055 672.7963 C 692.5092 673.4509 701.77295 678.8278 702.5449 679.2758 C 703.3169 679.7239 706.63555 674.0439 706.63555 674.0439 L 704.00905 657.3069 L 696.1481 640.42944 L 685.5711 626.6841 C 685.5711 626.6841 669.59015 609.8022 669.3218 610.0087 C 669.0535 610.21515 649.41045 584.68806 649.41045 584.68806 C 649.41045 584.68806 642.8957 575.11156 642.9287 574.0441 C 642.9616 572.9766 635.4349 553.7577 634.93125 553.10315 C 634.4276 552.4486 630.4595 536.744 630.7278 536.53754 C 630.9961 536.3311 633.9476 534.05994 633.9476 534.05994 L 641.02726 533.8227 L 661.7436 558.5239 C 661.7436 558.5239 671.8499 570.54726 672.3536 571.2018 C 672.85725 571.85634 693.4371 592.4941 693.4371 592.4941 L 715.0572 613.3735 L 712.4683 603.9024 C 712.4683 603.9024 701.3171 583.30415 701.5854 583.0977 C 701.8537 582.8912 693.35725 569.6291 692.8536 568.97454 C 692.3499 568.32 675.72885 546.72015 675.72885 546.72015 L 668.0703 531.77114 L 661.8522 512.58736 L 663.92814 504.73724 C 663.92814 504.73724 680.54456 518.00375 681.0812 517.5908 C 681.6178 517.1779 700.85145 530.5147 700.85145 530.5147 L 714.1446 541.1279 L 729.8572 558.2162 L 746.70895 572.34374 L 760.308 590.01634 L 759.5314 581.2349 C 759.5314 581.2349 749.491 567.07664 749.2556 566.21564 C 749.02025 565.3546 736.6922 540.4513 736.9605 540.24485 C 737.2288 540.0384 738.0287 462.13614 738.0287 462.13614 Z" fill="#666"/>
        <path d="M 738.0287 462.13614 L 741.4513 530.5365 C 741.4513 530.5365 763.3207 577.2769 763.8244 577.93146 C 764.3281 578.586 775.1497 609.859 775.1497 609.859 L 742.5854 578.6432 C 742.5854 578.6432 720.8004 563.10115 708.6794 548.45965 C 696.5584 533.81815 674.105 522.95896 674.105 522.95896 C 674.105 522.95896 683.0439 547.3439 685.05855 549.9621 C 687.0732 552.58025 702.2162 571.149 707.7236 579.4164 C 713.231 587.68384 723.8457 608.69505 723.2761 610.17546 C 722.7065 611.6559 718.6535 624.1537 717.8815 623.7056 C 717.1095 623.2575 717.7497 627.9755 711.941 620.982 C 706.1323 613.98855 663.697 571.61036 662.68965 570.3013 C 661.6823 568.9922 632.399 524.83046 642.0439 551.79844 C 651.6888 578.7664 656.9279 587.2403 656.9279 587.2403 C 656.9279 587.2403 687.3457 620.1079 699.9045 637.5389 C 712.46325 654.9699 716.8784 690.13065 716.61005 690.3371 C 716.3417 690.5436 706.7813 694.774 705.5057 693.6714 C 704.23 692.56874 661.5593 649.32955 655.0116 640.8205 C 648.46394 632.3115 618.75214 602.0269 610.4251 591.76074 C 602.0981 581.49456 599.1467 583.7657 598.0734 584.59156 C 597.0002 585.4174 611.3099 614.0064 611.0416 614.21285 C 610.7733 614.4193 614.84025 626.9215 614.57194 627.128 C 614.3036 627.3344 607.9676 637.42055 607.9676 637.42055 L 602.4649 637.48646 L 603.637 633.4582 L 609.8082 628.7094 C 609.8082 628.7094 607.2523 618.1709 607.5206 617.9644 C 607.7889 617.7579 600.39866 602.60245 600.39866 602.60245 L 592.5377 585.72495 L 594.1759 575.08534 C 594.1759 575.08534 605.0825 578.15595 605.5862 578.8105 C 606.0899 579.465 625.4976 604.1311 625.4976 604.1311 L 651.65075 630.9014 C 651.65075 630.9014 666.6243 646.47415 667.9 647.5768 C 669.1756 648.6794 691.5018 672.1418 692.0055 672.7963 C 692.5092 673.4509 701.77295 678.8278 702.5449 679.2758 C 703.3169 679.7239 706.63555 674.0439 706.63555 674.0439 L 704.00905 657.3069 L 696.1481 640.42944 L 685.5711 626.6841 C 685.5711 626.6841 669.59015 609.8022 669.3218 610.0087 C 669.0535 610.21515 649.41045 584.68806 649.41045 584.68806 C 649.41045 584.68806 642.8957 575.11156 642.9287 574.0441 C 642.9616 572.9766 635.4349 553.7577 634.93125 553.10315 C 634.4276 552.4486 630.4595 536.744 630.7278 536.53754 C 630.9961 536.3311 633.9476 534.05994 633.9476 534.05994 L 641.02726 533.8227 L 661.7436 558.5239 C 661.7436 558.5239 671.8499 570.54726 672.3536 571.2018 C 672.85725 571.85634 693.4371 592.4941 693.4371 592.4941 L 715.0572 613.3735 L 712.4683 603.9024 C 712.4683 603.9024 701.3171 583.30415 701.5854 583.0977 C 701.8537 582.8912 693.35725 569.6291 692.8536 568.97454 C 692.3499 568.32 675.72885 546.72015 675.72885 546.72015 L 668.0703 531.77114 L 661.8522 512.58736 L 663.92814 504.73724 C 663.92814 504.73724 680.54456 518.00375 681.0812 517.5908 C 681.6178 517.1779 700.85145 530.5147 700.85145 530.5147 L 714.1446 541.1279 L 729.8572 558.2162 L 746.70895 572.34374 L 760.308 590.01634 L 759.5314 581.2349 C 759.5314 581.2349 749.491 567.07664 749.2556 566.21564 C 749.02025 565.3546 736.6922 540.4513 736.9605 540.24485 C 737.2288 540.0384 738.0287 462.13614 738.0287 462.13614 Z" stroke="#a5a5a5" stroke-linecap="round" stroke-linejoin="round" stroke-width="5"/>
      </g>
      <g id="Graphic_9">
        <path d="M 608.0287 637.13614 L 558.8931 753.8281 C 558.8931 753.8281 528.5642 755.0771 528.3833 755.3268 C 528.20244 755.5764 503.2033 751.9306 503.2033 751.9306 L 501.27736 729.9766 C 501.27736 729.9766 493.43694 712.4936 496.42795 705.9043 C 499.41895 699.315 485.00807 678.5943 485.00807 678.5943 C 485.00807 678.5943 466.1336 676.3404 465.41004 677.339 C 464.6865 678.3376 460.61017 686.4249 457.27015 688.57345 C 453.93013 690.72204 441.26433 692.2051 438.7447 690.7602 C 436.22503 689.31535 415.88693 678.0059 415.48313 677.3326 C 415.0793 676.6593 410.08205 674.9422 411.4871 671.7723 C 412.89217 668.6025 412.4681 640.8837 412.82986 640.3844 C 413.19163 639.8851 431.19996 628.5672 410.02874 625.79126 C 388.8575 623.01536 384.9328 624.7403 384.9328 624.7403 C 384.9328 624.7403 382.18124 643.3053 376.3088 648.94906 C 370.4364 654.5928 332.75496 641.3774 332.17027 640.95374 C 331.58558 640.5301 314.5875 627.0721 314.3646 626.1491 C 314.14166 625.2262 314.48316 597.6814 316.8347 594.4359 C 319.1862 591.1904 319.64104 572.10345 321.95053 567.6853 C 324.26 563.2672 317.8284 558.6072 315.48965 556.9127 C 313.1509 555.21815 295.75276 557.0796 295.16807 556.65596 C 294.58338 556.2323 284.2691 554.4699 283.6844 554.04626 C 283.09972 553.6226 262.90048 540.8909 262.90048 540.8909 L 256.02304 534.38505 L 262.4126 537.87244 L 275.8605 547.61605 C 275.8605 547.61605 285.63213 550.12745 286.21682 550.5511 C 286.8015 550.9747 296.26615 550.218 296.26615 550.218 L 307.26194 549.8092 L 322.3378 557.3059 C 322.3378 557.3059 332.0419 568.5248 331.861 568.7745 C 331.6801 569.0241 325.39113 578.93465 325.39113 578.93465 L 324.85223 595.6764 C 324.85223 595.6764 324.24202 605.13286 324.46494 606.0558 C 324.68786 606.97875 323.4802 620.95165 323.29932 621.2013 C 323.11843 621.45096 327.9641 629.53044 328.3679 630.2037 C 328.7717 630.877 339.8388 637.7535 339.8388 637.7535 L 357.12735 643.42695 L 368.12314 643.0182 L 371.92175 637.7754 C 371.92175 637.7754 372.89373 627.8196 372.30904 627.396 C 371.72435 626.97235 378.7789 617.2358 378.7789 617.2358 C 378.7789 617.2358 382.4807 614.5879 383.83098 615.1855 C 385.18124 615.78314 399.46227 616.9932 399.64315 616.7436 C 399.82404 616.4939 414.18913 620.0492 414.7738 620.4728 C 415.3585 620.8965 421.7901 625.55646 421.7901 625.55646 L 430.82543 634.0065 L 426.10963 645.4376 C 426.10963 645.4376 423.84217 651.0283 423.6613 651.278 C 423.4804 651.52764 423.581 664.92555 423.581 664.92555 L 424.67006 679.4204 L 433.0914 681.3342 C 433.0914 681.3342 444.58783 679.0038 445.1725 679.42746 C 445.7572 679.8511 451.5328 676.8022 451.7137 676.5525 C 451.8946 676.3029 457.86384 668.0643 457.86384 668.0643 L 466.7438 666.8839 L 482.598 669.6145 L 494.79245 676.1657 C 494.79245 676.1657 499.04066 688.7616 500.21004 689.60884 C 501.3794 690.4561 508.774 706.0931 508.774 706.0931 L 512.1726 716.1699 L 510.6159 725.702 L 514.09854 738.1239 L 509.2146 744.8646 L 519.02826 748.5486 C 519.02826 748.5486 523.99626 744.1531 524.76184 744.3271 C 525.5274 744.5011 540.8517 743.04065 541.4364 743.4643 C 542.0211 743.8879 608.0287 637.13614 608.0287 637.13614 Z" fill="#666"/>
        <path d="M 608.0287 637.13614 L 558.8931 753.8281 C 558.8931 753.8281 528.5642 755.0771 528.3833 755.3268 C 528.20244 755.5764 503.2033 751.9306 503.2033 751.9306 L 501.27736 729.9766 C 501.27736 729.9766 493.43694 712.4936 496.42795 705.9043 C 499.41895 699.315 485.00807 678.5943 485.00807 678.5943 C 485.00807 678.5943 466.1336 676.3404 465.41004 677.339 C 464.6865 678.3376 460.61017 686.4249 457.27015 688.57345 C 453.93013 690.72204 441.26433 692.2051 438.7447 690.7602 C 436.22503 689.31535 415.88693 678.0059 415.48313 677.3326 C 415.0793 676.6593 410.08205 674.9422 411.4871 671.7723 C 412.89217 668.6025 412.4681 640.8837 412.82986 640.3844 C 413.19163 639.8851 431.19996 628.5672 410.02874 625.79126 C 388.8575 623.01536 384.9328 624.7403 384.9328 624.7403 C 384.9328 624.7403 382.18124 643.3053 376.3088 648.94906 C 370.4364 654.5928 332.75496 641.3774 332.17027 640.95374 C 331.58558 640.5301 314.5875 627.0721 314.3646 626.1491 C 314.14166 625.2262 314.48316 597.6814 316.8347 594.4359 C 319.1862 591.1904 319.64104 572.10345 321.95053 567.6853 C 324.26 563.2672 317.8284 558.6072 315.48965 556.9127 C 313.1509 555.21815 295.75276 557.0796 295.16807 556.65596 C 294.58338 556.2323 284.2691 554.4699 283.6844 554.04626 C 283.09972 553.6226 262.90048 540.8909 262.90048 540.8909 L 256.02304 534.38505 L 262.4126 537.87244 L 275.8605 547.61605 C 275.8605 547.61605 285.63213 550.12745 286.21682 550.5511 C 286.8015 550.9747 296.26615 550.218 296.26615 550.218 L 307.26194 549.8092 L 322.3378 557.3059 C 322.3378 557.3059 332.0419 568.5248 331.861 568.7745 C 331.6801 569.0241 325.39113 578.93465 325.39113 578.93465 L 324.85223 595.6764 C 324.85223 595.6764 324.24202 605.13286 324.46494 606.0558 C 324.68786 606.97875 323.4802 620.95165 323.29932 621.2013 C 323.11843 621.45096 327.9641 629.53044 328.3679 630.2037 C 328.7717 630.877 339.8388 637.7535 339.8388 637.7535 L 357.12735 643.42695 L 368.12314 643.0182 L 371.92175 637.7754 C 371.92175 637.7754 372.89373 627.8196 372.30904 627.396 C 371.72435 626.97235 378.7789 617.2358 378.7789 617.2358 C 378.7789 617.2358 382.4807 614.5879 383.83098 615.1855 C 385.18124 615.78314 399.46227 616.9932 399.64315 616.7436 C 399.82404 616.4939 414.18913 620.0492 414.7738 620.4728 C 415.3585 620.8965 421.7901 625.55646 421.7901 625.55646 L 430.82543 634.0065 L 426.10963 645.4376 C 426.10963 645.4376 423.84217 651.0283 423.6613 651.278 C 423.4804 651.52764 423.581 664.92555 423.581 664.92555 L 424.67006 679.4204 L 433.0914 681.3342 C 433.0914 681.3342 444.58783 679.0038 445.1725 679.42746 C 445.7572 679.8511 451.5328 676.8022 451.7137 676.5525 C 451.8946 676.3029 457.86384 668.0643 457.86384 668.0643 L 466.7438 666.8839 L 482.598 669.6145 L 494.79245 676.1657 C 494.79245 676.1657 499.04066 688.7616 500.21004 689.60884 C 501.3794 690.4561 508.774 706.0931 508.774 706.0931 L 512.1726 716.1699 L 510.6159 725.702 L 514.09854 738.1239 L 509.2146 744.8646 L 519.02826 748.5486 C 519.02826 748.5486 523.99626 744.1531 524.76184 744.3271 C 525.5274 744.5011 540.8517 743.04065 541.4364 743.4643 C 542.0211 743.8879 608.0287 637.13614 608.0287 637.13614 Z" stroke="#a5a5a5" stroke-linecap="round" stroke-linejoin="round" stroke-width="5"/>
      </g>
      <g id="Graphic_10">
        <path d="M 258.0287 535.13614 L 166.33082 596.0381 C 166.33082 596.0381 145.7679 595.27325 145.49378 595.3985 C 145.21965 595.5238 131.19445 592.3873 131.19445 592.3873 L 143.6693 580.5285 C 143.6693 580.5285 149.49003 570.7866 155.56214 567.396 C 161.63426 564.0055 165.19449 552.21736 165.19449 552.21736 C 165.19449 552.21736 154.2935 550.1166 153.19699 550.61765 C 152.10048 551.1187 144.3836 555.26084 140.86129 556.2546 C 137.33897 557.2483 128.15023 557.44426 127.4105 556.5506 C 126.67077 555.657 120.47884 548.6331 120.63657 548.2531 C 120.7943 547.8731 118.60887 546.71637 121.50786 545.0837 C 124.40686 543.4511 141.46678 528.5733 142.01504 528.3228 C 142.56329 528.07226 161.3878 522.8573 149.31522 520.36815 C 137.24265 517.879 133.60393 518.618 133.60393 518.618 C 133.60393 518.618 120.19789 528.439 112.8378 531.18644 C 105.4777 533.9339 89.16583 525.06816 89.04943 524.81343 C 88.93303 524.5587 86.26342 516.5411 86.69528 516.03586 C 87.12713 515.5306 104.57758 500.7823 108.14123 499.15385 C 111.70488 497.5254 123.93934 487.316 128.20897 485.05705 C 132.4786 482.7981 131.1982 479.9961 130.7326 478.9772 C 130.267 477.9583 117.755 478.13326 117.6386 477.87854 C 117.5222 477.6238 111.8971 476.19134 111.7807 475.9366 C 111.6643 475.6819 106.45248 467.90223 106.45248 467.90223 L 106.03579 464.08973 L 108.02217 466.2612 L 110.69936 472.1199 C 110.69936 472.1199 115.50207 473.9282 115.61847 474.1829 C 115.73487 474.43763 122.3814 474.4796 122.3814 474.4796 L 129.80899 474.7805 L 134.95332 479.5118 C 134.95332 479.5118 134.26592 485.98427 133.99179 486.10953 C 133.71766 486.2348 123.41725 491.2496 123.41725 491.2496 L 112.59475 500.19794 C 112.59475 500.19794 106.28225 505.2379 105.8504 505.74317 C 105.41854 506.2484 95.8916 513.681 95.61747 513.8063 C 95.34335 513.93154 93.45062 518.49144 93.2929 518.8714 C 93.13517 519.2514 96.05274 523.4607 96.05274 523.4607 L 103.78062 527.3194 L 111.2082 527.6203 L 116.96486 524.9897 C 116.96486 524.9897 123.8256 519.6992 123.70921 519.4445 C 123.59281 519.18976 134.28375 514.30443 134.28375 514.30443 C 134.28375 514.30443 138.35432 513.0602 138.86125 513.44437 C 139.36817 513.82856 147.926 515.15255 148.20013 515.0273 C 148.47426 514.902 155.62013 517.48706 155.73653 517.7418 C 155.85293 517.9965 157.13333 520.7985 157.13333 520.7985 L 157.7415 525.7552 L 147.51615 531.6594 C 147.51615 531.6594 142.54054 534.5489 142.26642 534.67416 C 141.99229 534.7994 133.67825 541.9857 133.67825 541.9857 L 125.32289 549.80666 L 129.61868 551.23074 C 129.61868 551.23074 138.57462 550.5253 138.69102 550.78005 C 138.80742 551.0348 144.48143 549.67365 144.75555 549.5484 C 145.02968 549.4231 154.07586 545.2894 154.07586 545.2894 L 160.60599 545.0766 L 169.2389 547.29007 L 173.09525 551.3783 C 173.09525 551.3783 167.98808 558.3308 168.22088 558.84025 C 168.45368 559.3497 163.49665 568.0811 163.49665 568.0811 L 159.41091 573.6431 L 152.43376 578.6789 L 146.93607 585.50195 L 139.53465 588.8841 L 143.63138 591.3229 C 143.63138 591.3229 149.62084 589.2018 150.01137 589.33124 C 150.4019 589.4607 161.31047 589.4026 161.42687 589.6573 C 161.54327 589.91205 258.0287 535.13614 258.0287 535.13614 Z" fill="#666"/>
        <path d="M 258.0287 535.13614 L 166.33082 596.0381 C 166.33082 596.0381 145.7679 595.27325 145.49378 595.3985 C 145.21965 595.5238 131.19445 592.3873 131.19445 592.3873 L 143.6693 580.5285 C 143.6693 580.5285 149.49003 570.7866 155.56214 567.396 C 161.63426 564.0055 165.19449 552.21736 165.19449 552.21736 C 165.19449 552.21736 154.2935 550.1166 153.19699 550.61765 C 152.10048 551.1187 144.3836 555.26084 140.86129 556.2546 C 137.33897 557.2483 128.15023 557.44426 127.4105 556.5506 C 126.67077 555.657 120.47884 548.6331 120.63657 548.2531 C 120.7943 547.8731 118.60887 546.71637 121.50786 545.0837 C 124.40686 543.4511 141.46678 528.5733 142.01504 528.3228 C 142.56329 528.07226 161.3878 522.8573 149.31522 520.36815 C 137.24265 517.879 133.60393 518.618 133.60393 518.618 C 133.60393 518.618 120.19789 528.439 112.8378 531.18644 C 105.4777 533.9339 89.16583 525.06816 89.04943 524.81343 C 88.93303 524.5587 86.26342 516.5411 86.69528 516.03586 C 87.12713 515.5306 104.57758 500.7823 108.14123 499.15385 C 111.70488 497.5254 123.93934 487.316 128.20897 485.05705 C 132.4786 482.7981 131.1982 479.9961 130.7326 478.9772 C 130.267 477.9583 117.755 478.13326 117.6386 477.87854 C 117.5222 477.6238 111.8971 476.19134 111.7807 475.9366 C 111.6643 475.6819 106.45248 467.90223 106.45248 467.90223 L 106.03579 464.08973 L 108.02217 466.2612 L 110.69936 472.1199 C 110.69936 472.1199 115.50207 473.9282 115.61847 474.1829 C 115.73487 474.43763 122.3814 474.4796 122.3814 474.4796 L 129.80899 474.7805 L 134.95332 479.5118 C 134.95332 479.5118 134.26592 485.98427 133.99179 486.10953 C 133.71766 486.2348 123.41725 491.2496 123.41725 491.2496 L 112.59475 500.19794 C 112.59475 500.19794 106.28225 505.2379 105.8504 505.74317 C 105.41854 506.2484 95.8916 513.681 95.61747 513.8063 C 95.34335 513.93154 93.45062 518.49144 93.2929 518.8714 C 93.13517 519.2514 96.05274 523.4607 96.05274 523.4607 L 103.78062 527.3194 L 111.2082 527.6203 L 116.96486 524.9897 C 116.96486 524.9897 123.8256 519.6992 123.70921 519.4445 C 123.59281 519.18976 134.28375 514.30443 134.28375 514.30443 C 134.28375 514.30443 138.35432 513.0602 138.86125 513.44437 C 139.36817 513.82856 147.926 515.15255 148.20013 515.0273 C 148.47426 514.902 155.62013 517.48706 155.73653 517.7418 C 155.85293 517.9965 157.13333 520.7985 157.13333 520.7985 L 157.7415 525.7552 L 147.51615 531.6594 C 147.51615 531.6594 142.54054 534.5489 142.26642 534.67416 C 141.99229 534.7994 133.67825 541.9857 133.67825 541.9857 L 125.32289 549.80666 L 129.61868 551.23074 C 129.61868 551.23074 138.57462 550.5253 138.69102 550.78005 C 138.80742 551.0348 144.48143 549.67365 144.75555 549.5484 C 145.02968 549.4231 154.07586 545.2894 154.07586 545.2894 L 160.60599 545.0766 L 169.2389 547.29007 L 173.09525 551.3783 C 173.09525 551.3783 167.98808 558.3308 168.22088 558.84025 C 168.45368 559.3497 163.49665 568.0811 163.49665 568.0811 L 159.41091 573.6431 L 152.43376 578.6789 L 146.93607 585.50195 L 139.53465 588.8841 L 143.63138 591.3229 C 143.63138 591.3229 149.62084 589.2018 150.01137 589.33124 C 150.4019 589.4607 161.31047 589.4026 161.42687 589.6573 C 161.54327 589.91205 258.0287 535.13614 258.0287 535.13614 Z" stroke="#a5a5a5" stroke-linecap="round" stroke-linejoin="round" stroke-width="5"/>
      </g>
    </g>
    <g id="looper: Layer 2">
      <title>Layer 2</title>
      <g id="Line_12">
        <path d="M 576.42516 231.2757 C 576.42516 231.2757 639.6148 267.2064 662.3501 339.44155 C 685.08535 411.6767 678.1338 395.00795 656.67535 486.24876 C 635.2169 577.4896 641.49176 603.6833 586.6069 661.5001 C 531.72204 719.317 535.4353 685.22224 462.9447 690.3286 C 390.45413 695.4349 390.9835 699.36475 330.7322 679.52434 C 270.48094 659.6839 288.87182 684.6677 250.2719 620.2966 C 211.672 555.92555 206.82272 537.6327 194.48359 452.3096 C 182.14445 366.98654 182.3602 394.40705 206.71766 319.12626 C 231.0751 243.84548 251.21106 225.54094 280.45966 186.58615 C 309.70826 147.63135 256.33747 185.83918 309.95833 181.625 C 335.2188 179.63972 358.5918 175.95801 382.63065 173.26269" marker-end="url(#FilledArrow_Marker)" stroke="black" stroke-linecap="round" stroke-linejoin="round" stroke-dasharray="100.0,100.0" stroke-width="50"/>
      </g>
      <g id="Graphic_16">
        <rect x="233.84536" y="263" width="422" height="230" fill="#ffff40"/>
        <rect x="233.84536" y="263" width="422" height="230" stroke="black" stroke-linecap="round" stroke-linejoin="round" stroke-width="6"/>
      </g>
      <g id="Graphic_15">
        <path d="M 280.34536 441.0384 L 297.19737 384.00083 C 297.19737 384.00083 318.58647 344.4634 318.58647 343.81527 C 318.58647 343.1671 338.67925 318.53725 338.67925 318.53725 L 351.64234 353.5376 C 351.64234 353.5376 366.5499 373.63037 367.8462 388.5379 C 369.1425 403.44546 390.5316 420.94563 390.5316 420.94563 C 390.5316 420.94563 405.43915 401.501 405.43915 398.9084 C 405.43915 396.31577 404.14284 377.5193 405.43915 369.74144 C 406.73546 361.9636 415.16146 343.81527 417.7541 343.1671 C 420.3467 342.51896 441.08763 336.68557 441.7358 337.33372 C 442.38394 337.98188 446.921 334.7411 447.5692 341.8708 C 448.21733 349.0005 463.1249 395.6676 463.1249 396.9639 C 463.1249 398.26023 455.9952 439.7421 472.8472 418.353 C 489.6992 396.9639 491.6437 389.18607 491.6437 389.18607 C 491.6437 389.18607 483.8658 354.18574 485.16213 337.33372 C 486.45844 320.4817 520.8106 296.5 521.4588 296.5 C 522.1069 296.5 541.55156 298.44446 542.1997 299.74077 C 542.84786 301.03708 557.10726 348.35235 557.10726 356.77835 C 557.10726 365.20436 566.8296 398.26023 567.4777 408.6307 C 568.1259 419.00117 575.2556 419.00117 577.8482 419.00117 C 580.4408 419.00117 592.1076 394.3713 592.75575 394.3713 C 593.4039 394.3713 601.8299 384.649 602.47806 384.649 C 603.1262 384.649 624.5153 381.4082 624.5153 381.4082 L 632.9413 384.00083 L 626.4598 385.9453 L 611.5522 385.9453 C 611.5522 385.9453 603.1262 393.72315 602.47806 393.72315 C 601.8299 393.72315 595.3484 406.68624 595.3484 406.68624 L 587.5705 420.94563 L 572.66296 426.779 C 572.66296 426.779 559.6999 419.6493 559.6999 419.00117 C 559.6999 418.353 559.0517 393.72315 559.0517 393.72315 L 550.6257 364.5562 C 550.6257 364.5562 546.08864 347.7042 545.4405 346.4079 C 544.7923 345.11157 538.3108 319.83356 538.3108 319.1854 C 538.3108 318.53725 530.53293 310.7594 529.8848 310.11124 C 529.2366 309.4631 517.56985 311.40755 517.56985 311.40755 L 502.01414 323.07433 L 494.2363 337.33372 L 494.2363 350.94496 C 494.2363 350.94496 498.77337 369.0933 499.4215 369.0933 C 500.0697 369.0933 500.0697 394.3713 500.0697 394.3713 C 500.0697 394.3713 498.77337 403.44546 497.47706 404.0936 C 496.18075 404.74177 485.16213 420.2975 485.16213 420.94563 C 485.16213 421.5938 472.8472 433.26056 472.19904 433.26056 C 471.5509 433.26056 464.4212 433.26056 464.4212 433.26056 L 453.40257 430.0198 L 450.80995 404.74177 C 450.80995 404.74177 449.51364 392.42684 449.51364 391.7787 C 449.51364 391.13053 442.38394 368.44513 442.38394 368.44513 L 433.95794 345.11157 L 426.82824 352.24127 C 426.82824 352.24127 419.69854 370.3896 419.0504 370.3896 C 418.40223 370.3896 415.8096 382.70453 415.8096 383.3527 C 415.8096 384.00083 415.8096 405.38993 415.8096 405.38993 L 409.97623 418.353 L 397.01314 433.26056 L 384.6982 437.1495 C 384.6982 437.1495 374.9759 420.94563 373.6796 420.94563 C 372.38328 420.94563 358.77203 403.44546 358.77203 403.44546 L 350.9942 390.4824 L 347.10526 372.33406 L 338.0311 355.48204 L 338.0311 337.98188 L 328.95694 343.81527 C 328.95694 343.81527 327.66063 357.4265 327.01247 358.07466 C 326.3643 358.7228 315.99385 380.1119 315.3457 380.1119 C 314.69754 380.1119 280.34536 441.0384 280.34536 441.0384 Z" fill="black"/>
        <path d="M 280.34536 441.0384 L 297.19737 384.00083 C 297.19737 384.00083 318.58647 344.4634 318.58647 343.81527 C 318.58647 343.1671 338.67925 318.53725 338.67925 318.53725 L 351.64234 353.5376 C 351.64234 353.5376 366.5499 373.63037 367.8462 388.5379 C 369.1425 403.44546 390.5316 420.94563 390.5316 420.94563 C 390.5316 420.94563 405.43915 401.501 405.43915 398.9084 C 405.43915 396.31577 404.14284 377.5193 405.43915 369.74144 C 406.73546 361.9636 415.16146 343.81527 417.7541 343.1671 C 420.3467 342.51896 441.08763 336.68557 441.7358 337.33372 C 442.38394 337.98188 446.921 334.7411 447.5692 341.8708 C 448.21733 349.0005 463.1249 395.6676 463.1249 396.9639 C 463.1249 398.26023 455.9952 439.7421 472.8472 418.353 C 489.6992 396.9639 491.6437 389.18607 491.6437 389.18607 C 491.6437 389.18607 483.8658 354.18574 485.16213 337.33372 C 486.45844 320.4817 520.8106 296.5 521.4588 296.5 C 522.1069 296.5 541.55156 298.44446 542.1997 299.74077 C 542.84786 301.03708 557.10726 348.35235 557.10726 356.77835 C 557.10726 365.20436 566.8296 398.26023 567.4777 408.6307 C 568.1259 419.00117 575.2556 419.00117 577.8482 419.00117 C 580.4408 419.00117 592.1076 394.3713 592.75575 394.3713 C 593.4039 394.3713 601.8299 384.649 602.47806 384.649 C 603.1262 384.649 624.5153 381.4082 624.5153 381.4082 L 632.9413 384.00083 L 626.4598 385.9453 L 611.5522 385.9453 C 611.5522 385.9453 603.1262 393.72315 602.47806 393.72315 C 601.8299 393.72315 595.3484 406.68624 595.3484 406.68624 L 587.5705 420.94563 L 572.66296 426.779 C 572.66296 426.779 559.6999 419.6493 559.6999 419.00117 C 559.6999 418.353 559.0517 393.72315 559.0517 393.72315 L 550.6257 364.5562 C 550.6257 364.5562 546.08864 347.7042 545.4405 346.4079 C 544.7923 345.11157 538.3108 319.83356 538.3108 319.1854 C 538.3108 318.53725 530.53293 310.7594 529.8848 310.11124 C 529.2366 309.4631 517.56985 311.40755 517.56985 311.40755 L 502.01414 323.07433 L 494.2363 337.33372 L 494.2363 350.94496 C 494.2363 350.94496 498.77337 369.0933 499.4215 369.0933 C 500.0697 369.0933 500.0697 394.3713 500.0697 394.3713 C 500.0697 394.3713 498.77337 403.44546 497.47706 404.0936 C 496.18075 404.74177 485.16213 420.2975 485.16213 420.94563 C 485.16213 421.5938 472.8472 433.26056 472.19904 433.26056 C 471.5509 433.26056 464.4212 433.26056 464.4212 433.26056 L 453.40257 430.0198 L 450.80995 404.74177 C 450.80995 404.74177 449.51364 392.42684 449.51364 391.7787 C 449.51364 391.13053 442.38394 368.44513 442.38394 368.44513 L 433.95794 345.11157 L 426.82824 352.24127 C 426.82824 352.24127 419.69854 370.3896 419.0504 370.3896 C 418.40223 370.3896 415.8096 382.70453 415.8096 383.3527 C 415.8096 384.00083 415.8096 405.38993 415.8096 405.38993 L 409.97623 418.353 L 397.01314 433.26056 L 384.6982 437.1495 C 384.6982 437.1495 374.9759 420.94563 373.6796 420.94563 C 372.38328 420.94563 358.77203 403.44546 358.77203 403.44546 L 350.9942 390.4824 L 347.10526 372.33406 L 338.0311 355.48204 L 338.0311 337.98188 L 328.95694 343.81527 C 328.95694 343.81527 327.66063 357.4265 327.01247 358.07466 C 326.3643 358.7228 315.99385 380.1119 315.3457 380.1119 C 314.69754 380.1119 280.34536 441.0384 280.34536 441.0384 Z" stroke="black" stroke-linecap="round" stroke-linejoin="round" stroke-width="5"/>
      </g>
      <g id="Graphic_14">
        <circle cx="188.92408" cy="524.4241" r="111.9242621534" fill="#a5a5a5"/>
        <circle cx="188.92408" cy="524.4241" r="111.9242621534" stroke="black" stroke-linecap="round" stroke-linejoin="round" stroke-width="18"/>
      </g>
      <g id="Graphic_13">
        <path d="M 304.0434 533.0406 L 480.74065 766.5911 C 494.82733 780.6778 498.1326 780.21 467.81946 810.5231 C 437.50636 840.8362 439.2662 828.4862 425.17954 814.3995 L 194.2133 642.8707 C 180.12662 628.784 193.2959 592.7494 223.609 562.4363 C 253.9221 532.1232 289.95672 518.9539 304.0434 533.0406 Z" fill="#666"/>
        <path d="M 304.0434 533.0406 L 480.74065 766.5911 C 494.82733 780.6778 498.1326 780.21 467.81946 810.5231 C 437.50636 840.8362 439.2662 828.4862 425.17954 814.3995 L 194.2133 642.8707 C 180.12662 628.784 193.2959 592.7494 223.609 562.4363 C 253.9221 532.1232 289.95672 518.9539 304.0434 533.0406 Z" stroke="black" stroke-linecap="round" stroke-linejoin="round" stroke-width="7"/>
      </g>
    </g>
  </g>
</svg>
