<?xml version="1.0" encoding="UTF-8" standalone="no"?>
<!DOCTYPE svg PUBLIC "-//W3C//DTD SVG 1.1//EN" "http://www.w3.org/Graphics/SVG/1.1/DTD/svg11.dtd">
<svg xmlns:xl="http://www.w3.org/1999/xlink" xmlns:dc="http://purl.org/dc/elements/1.1/" xmlns="http://www.w3.org/2000/svg" version="1.1" viewBox="0 0 850.394 850.394" width="850.394" height="850.394">
  <defs/>
  <metadata> Produced by OmniGraffle 7.9.4 
    <dc:date>2019-05-02 22:29:23 +0000</dc:date>
  </metadata>
  <g id="Magnet" stroke-dasharray="none" fill-opacity="1" stroke="none" fill="none" stroke-opacity="1">
    <title>Magnet</title>
    <g id="Magnet: Layer 1">
      <title>Layer 1</title>
      <g id="Graphic_4">
        <path d="M 640.5492 515.141 L 700.5753 416.16864 C 729.3324 368.7532 736.775 311.4138 721.0758 258.22796 L 721.0758 258.22796 C 705.4484 205.2854 667.24576 161.9422 616.68475 139.79013 L 576.98136 122.39505 C 521.57083 98.11828 456.83924 112.08732 416.37154 157.05457 L 367.42673 211.4415 C 354.9255 225.33272 344.4329 240.90754 336.2552 257.71146 L 236.48907 462.71474 C 227.43788 481.31347 235.1777 503.72815 253.77642 512.77933 C 256.49983 514.1047 259.37396 515.0948 262.33583 515.72796 L 262.33583 515.72796 C 289.0834 521.4458 315.91517 506.4051 324.9948 480.6042 L 381.6827 319.5187 C 394.61155 282.77984 419.7835 251.60583 452.9745 231.22796 L 452.9745 231.22796 C 485.6797 211.14833 525.2889 205.65208 562.2258 216.06803 L 596.661 225.77854 C 626.96886 234.32516 649.82976 259.2873 655.68525 290.22796 L 655.68525 290.22796 C 661.8134 322.60948 655.0635 356.1042 636.8718 383.5847 L 560.45355 499.02276 C 551.8499 512.0195 555.4112 529.53 568.40794 538.13366 C 571.3905 540.10805 574.72113 541.4975 578.2226 542.22796 L 578.2226 542.22796 C 602.6393 547.32185 627.61476 536.4676 640.5492 515.141 Z" fill="maroon"/>
        <path d="M 640.5492 515.141 L 700.5753 416.16864 C 729.3324 368.7532 736.775 311.4138 721.0758 258.22796 L 721.0758 258.22796 C 705.4484 205.2854 667.24576 161.9422 616.68475 139.79013 L 576.98136 122.39505 C 521.57083 98.11828 456.83924 112.08732 416.37154 157.05457 L 367.42673 211.4415 C 354.9255 225.33272 344.4329 240.90754 336.2552 257.71146 L 236.48907 462.71474 C 227.43788 481.31347 235.1777 503.72815 253.77642 512.77933 C 256.49983 514.1047 259.37396 515.0948 262.33583 515.72796 L 262.33583 515.72796 C 289.0834 521.4458 315.91517 506.4051 324.9948 480.6042 L 381.6827 319.5187 C 394.61155 282.77984 419.7835 251.60583 452.9745 231.22796 L 452.9745 231.22796 C 485.6797 211.14833 525.2889 205.65208 562.2258 216.06803 L 596.661 225.77854 C 626.96886 234.32516 649.82976 259.2873 655.68525 290.22796 L 655.68525 290.22796 C 661.8134 322.60948 655.0635 356.1042 636.8718 383.5847 L 560.45355 499.02276 C 551.8499 512.0195 555.4112 529.53 568.40794 538.13366 C 571.3905 540.10805 574.72113 541.4975 578.2226 542.22796 L 578.2226 542.22796 C 602.6393 547.32185 627.61476 536.4676 640.5492 515.141 Z" stroke="black" stroke-linecap="round" stroke-linejoin="round" stroke-width="3"/>
      </g>
      <g id="Graphic_5">
        <path d="M 617.7158 506.838 L 677.7419 407.86564 C 706.499 360.4502 713.9416 303.1108 698.24244 249.92496 L 698.24244 249.92496 C 682.59305 196.90785 644.6339 153.33267 594.2631 130.562 L 577.872 123.15221 C 520.77714 97.34186 453.559 111.17985 411.3018 157.4435 L 300.5647 278.67972 C 285.91534 294.718 273.97654 313.03563 265.21736 332.91293 L 212.01287 453.65037 C 203.34187 473.32755 212.26414 496.3083 231.94133 504.9793 C 234.3717 506.0503 236.90526 506.86976 239.50245 507.42496 L 239.50245 507.42496 C 266.25002 513.1428 293.0818 498.1021 302.16143 472.3012 L 358.84933 311.2157 C 371.77817 274.47684 396.9501 243.30283 430.1411 222.92496 L 430.1411 222.92496 C 462.8463 202.84533 502.45554 197.34908 539.3924 207.76503 L 573.8276 217.47554 C 604.1355 226.02216 626.9964 250.9843 632.8519 281.92496 L 632.8519 281.92496 C 638.98005 314.30648 632.2301 347.8012 614.0384 375.2817 L 537.6202 490.71976 C 529.01654 503.7165 532.57783 521.227 545.57456 529.83066 C 548.5571 531.80505 551.88775 533.1945 555.3892 533.92496 L 555.3892 533.92496 C 579.8059 539.01885 604.7814 528.1646 617.7158 506.838 Z" fill="red"/>
        <path d="M 617.7158 506.838 L 677.7419 407.86564 C 706.499 360.4502 713.9416 303.1108 698.24244 249.92496 L 698.24244 249.92496 C 682.59305 196.90785 644.6339 153.33267 594.2631 130.562 L 577.872 123.15221 C 520.77714 97.34186 453.559 111.17985 411.3018 157.4435 L 300.5647 278.67972 C 285.91534 294.718 273.97654 313.03563 265.21736 332.91293 L 212.01287 453.65037 C 203.34187 473.32755 212.26414 496.3083 231.94133 504.9793 C 234.3717 506.0503 236.90526 506.86976 239.50245 507.42496 L 239.50245 507.42496 C 266.25002 513.1428 293.0818 498.1021 302.16143 472.3012 L 358.84933 311.2157 C 371.77817 274.47684 396.9501 243.30283 430.1411 222.92496 L 430.1411 222.92496 C 462.8463 202.84533 502.45554 197.34908 539.3924 207.76503 L 573.8276 217.47554 C 604.1355 226.02216 626.9964 250.9843 632.8519 281.92496 L 632.8519 281.92496 C 638.98005 314.30648 632.2301 347.8012 614.0384 375.2817 L 537.6202 490.71976 C 529.01654 503.7165 532.57783 521.227 545.57456 529.83066 C 548.5571 531.80505 551.88775 533.1945 555.3892 533.92496 L 555.3892 533.92496 C 579.8059 539.01885 604.7814 528.1646 617.7158 506.838 Z" stroke="black" stroke-linecap="round" stroke-linejoin="round" stroke-width="3"/>
      </g>
      <g id="Graphic_9">
        <path d="M 256.6259 369.2415 L 224.772 476.6067 C 217.96514 499.5496 231.04598 523.66655 253.98887 530.4734 C 255.06653 530.79315 256.15623 531.0708 257.2555 531.3058 C 283.44695 536.90474 309.72087 522.1768 318.61173 496.9123 L 354.32785 395.42065 Z M 587.0249 457.77164 L 549.17506 514.9479 C 540.7503 527.6744 544.23756 544.8209 556.9641 553.2457 C 559.8846 555.179 563.146 556.53956 566.57465 557.25485 L 566.57465 557.25485 C 590.4837 562.2428 614.9399 551.61424 627.60545 530.731 L 627.60545 530.731 L 659.9963 477.32427 Z" fill="#666"/>
        <path d="M 256.6259 369.2415 L 224.772 476.6067 C 217.96514 499.5496 231.04598 523.66655 253.98887 530.4734 C 255.06653 530.79315 256.15623 531.0708 257.2555 531.3058 C 283.44695 536.90474 309.72087 522.1768 318.61173 496.9123 L 354.32785 395.42065 Z M 587.0249 457.77164 L 549.17506 514.9479 C 540.7503 527.6744 544.23756 544.8209 556.9641 553.2457 C 559.8846 555.179 563.146 556.53956 566.57465 557.25485 L 566.57465 557.25485 C 590.4837 562.2428 614.9399 551.61424 627.60545 530.731 L 627.60545 530.731 L 659.9963 477.32427 Z" stroke="black" stroke-linecap="round" stroke-linejoin="round" stroke-width="3"/>
      </g>
      <g id="Graphic_8">
        <path d="M 252.3125 367.63693 L 208.06636 459.0004 C 201.2595 481.94326 208.68732 515.5362 231.6302 522.34305 C 232.70788 522.6628 233.79758 522.94045 234.89684 523.17544 L 234.89684 523.17544 C 261.0883 528.77437 287.36222 514.0464 296.25308 488.78195 L 330.6757 390.96596 Z M 562.4047 453.05756 L 526.8164 506.81755 C 518.39165 519.54406 521.8789 536.69054 534.6054 545.1153 C 537.52594 547.04864 540.78736 548.4092 544.216 549.1245 C 568.1251 554.11246 592.5813 543.48387 605.2468 522.60066 L 635.5392 472.6539 Z" fill="#999"/>
        <path d="M 252.3125 367.63693 L 208.06636 459.0004 C 201.2595 481.94326 208.68732 515.5362 231.6302 522.34305 C 232.70788 522.6628 233.79758 522.94045 234.89684 523.17544 L 234.89684 523.17544 C 261.0883 528.77437 287.36222 514.0464 296.25308 488.78195 L 330.6757 390.96596 Z M 562.4047 453.05756 L 526.8164 506.81755 C 518.39165 519.54406 521.8789 536.69054 534.6054 545.1153 C 537.52594 547.04864 540.78736 548.4092 544.216 549.1245 C 568.1251 554.11246 592.5813 543.48387 605.2468 522.60066 L 635.5392 472.6539 Z" stroke="black" stroke-linecap="round" stroke-linejoin="round" stroke-width="3"/>
      </g>
      <g id="Line_10">
        <path d="M 213.2841 562.22036 L 190.86356 646.1781 L 250.71432 611.62324" stroke="black" stroke-linecap="round" stroke-linejoin="round" stroke-width="7"/>
      </g>
      <g id="Line_11">
        <line x1="250.71432" y1="611.62324" x2="223.68293" y2="726.6829" stroke="black" stroke-linecap="round" stroke-linejoin="round" stroke-width="7"/>
      </g>
      <g id="Line_12">
        <path d="M 514.08146 589.6424 L 476.8328 654.2848 L 534.144 638.9283" stroke="black" stroke-linecap="round" stroke-linejoin="round" stroke-width="7"/>
      </g>
      <g id="Line_13">
        <line x1="534.144" y1="638.9283" x2="470.0244" y2="755.9512" stroke="black" stroke-linecap="round" stroke-linejoin="round" stroke-width="7"/>
      </g>
    </g>
  </g>
</svg>
