<?xml version="1.0" encoding="UTF-8" standalone="no"?>
<!DOCTYPE svg PUBLIC "-//W3C//DTD SVG 1.1//EN" "http://www.w3.org/Graphics/SVG/1.1/DTD/svg11.dtd">
<svg xmlns="http://www.w3.org/2000/svg" version="1.1" xmlns:dc="http://purl.org/dc/elements/1.1/" xmlns:xl="http://www.w3.org/1999/xlink" viewBox="0 0 850.394 850.394" width="850.394" height="850.394">
  <defs>
    <marker orient="auto" overflow="visible" markerUnits="strokeWidth" id="FilledArrow_Marker" stroke-linejoin="miter" stroke-miterlimit="10" viewBox="-1 -3 6 6" markerWidth="6" markerHeight="6" color="black">
      <g>
        <path d="M 3.2 0 L 0 -1.2 L 0 1.2 Z" fill="currentColor" stroke="currentColor" stroke-width="1"/>
      </g>
    </marker>
    <marker orient="auto" overflow="visible" markerUnits="strokeWidth" id="FilledArrow_Marker_2" stroke-linejoin="miter" stroke-miterlimit="10" viewBox="-5 -3 6 6" markerWidth="6" markerHeight="6" color="black">
      <g>
        <path d="M -3.2 0 L 0 1.2 L 0 -1.2 Z" fill="currentColor" stroke="currentColor" stroke-width="1"/>
      </g>
    </marker>
    <marker orient="auto" overflow="visible" markerUnits="strokeWidth" id="FilledArrow_Marker_3" stroke-linejoin="miter" stroke-miterlimit="10" viewBox="-1 -2 5 4" markerWidth="5" markerHeight="4" color="black">
      <g>
        <path d="M 2.24 0 L 0 -.84 L 0 .84 Z" fill="currentColor" stroke="currentColor" stroke-width="1"/>
      </g>
    </marker>
    <marker orient="auto" overflow="visible" markerUnits="strokeWidth" id="FilledArrow_Marker_4" stroke-linejoin="miter" stroke-miterlimit="10" viewBox="-4 -2 6 4" markerWidth="6" markerHeight="4" color="black">
      <g>
        <path d="M -2.24 0 L 0 .84 L 0 -.84 Z" fill="currentColor" stroke="currentColor" stroke-width="1"/>
      </g>
    </marker>
  </defs>
  <metadata> Produced by OmniGraffle 7.9.4 
    <dc:date>2019-03-12 10:34:43 +0000</dc:date>
  </metadata>
  <g id="map" fill="none" stroke-opacity="1" fill-opacity="1" stroke-dasharray="none" stroke="none">
    <title>map</title>
    <g id="map: Layer 1">
      <title>Layer 1</title>
      <g id="Graphic_11">
        <path d="M 377 132 L 156 620 L 685 622 L 516 129 L 514 130 Z" fill="#ebffed"/>
      </g>
      <g id="Graphic_2">
        <ellipse cx="342.9128" cy="131.0265" rx="6.91279320362407" ry="45.0265719479297" fill="blue"/>
        <ellipse cx="342.9128" cy="131.0265" rx="6.91279320362407" ry="45.0265719479297" stroke="black" stroke-linecap="round" stroke-linejoin="round" stroke-width="1"/>
      </g>
      <g id="Graphic_3">
        <ellipse cx="549.1016" cy="131.0265" rx="6.9127932036241" ry="45.0265719479297" fill="blue"/>
        <ellipse cx="549.1016" cy="131.0265" rx="6.9127932036241" ry="45.0265719479297" stroke="black" stroke-linecap="round" stroke-linejoin="round" stroke-width="1"/>
      </g>
      <g id="Line_4">
        <line x1="385.1766" y1="130.5265" x2="500.49535" y2="130.5265" marker-end="url(#FilledArrow_Marker)" marker-start="url(#FilledArrow_Marker_2)" stroke="black" stroke-linecap="round" stroke-linejoin="round" stroke-width="4"/>
      </g>
      <g id="Graphic_5">
        <path d="M 69 711.6007 L 69 553.4738 C 69 542.56304 75.79749 533.7079 84.17297 533.7079 C 92.54844 533.7079 99.34593 542.56304 99.34593 553.4738 L 99.34593 711.6007 C 99.34593 722.51145 92.54844 731.3666 84.17297 731.3666 C 75.79749 731.3666 69 722.51145 69 711.6007" fill="black"/>
        <path d="M 69 711.6007 L 69 553.4738 C 69 542.56304 75.79749 533.7079 84.17297 533.7079 C 92.54844 533.7079 99.34593 542.56304 99.34593 553.4738 L 99.34593 711.6007 C 99.34593 722.51145 92.54844 731.3666 84.17297 731.3666 C 75.79749 731.3666 69 722.51145 69 711.6007 M 69 553.4738 C 69 564.38455 75.79749 573.23966 84.17297 573.23966 C 92.54844 573.23966 99.34593 564.38455 99.34593 553.4738" stroke="black" stroke-linecap="round" stroke-linejoin="round" stroke-width="1"/>
      </g>
      <g id="Graphic_6">
        <path d="M 736.6685 700.8928 L 736.6685 542.76586 C 736.6685 531.8551 743.466 523 751.84145 523 C 760.2169 523 767.0144 531.8551 767.0144 542.76586 L 767.0144 700.8928 C 767.0144 711.8035 760.2169 720.6586 751.84145 720.6586 C 743.466 720.6586 736.6685 711.8035 736.6685 700.8928" fill="black"/>
        <path d="M 736.6685 700.8928 L 736.6685 542.76586 C 736.6685 531.8551 743.466 523 751.84145 523 C 760.2169 523 767.0144 531.8551 767.0144 542.76586 L 767.0144 700.8928 C 767.0144 711.8035 760.2169 720.6586 751.84145 720.6586 C 743.466 720.6586 736.6685 711.8035 736.6685 700.8928 M 736.6685 542.76586 C 736.6685 553.6766 743.466 562.5317 751.84145 562.5317 C 760.2169 562.5317 767.0144 553.6766 767.0144 542.76586" stroke="black" stroke-linecap="round" stroke-linejoin="round" stroke-width="1"/>
      </g>
      <g id="Line_7">
        <line x1="186.2757" y1="620.73186" x2="649.7387" y2="620.73186" marker-end="url(#FilledArrow_Marker_3)" marker-start="url(#FilledArrow_Marker_4)" stroke="black" stroke-linecap="round" stroke-linejoin="round" stroke-width="10"/>
      </g>
    </g>
  </g>
</svg>
