<?xml version="1.0" encoding="UTF-8" standalone="no"?>
<!DOCTYPE svg PUBLIC "-//W3C//DTD SVG 1.1//EN" "http://www.w3.org/Graphics/SVG/1.1/DTD/svg11.dtd">
<svg xmlns="http://www.w3.org/2000/svg" version="1.1" xmlns:dc="http://purl.org/dc/elements/1.1/" xmlns:xl="http://www.w3.org/1999/xlink" viewBox="0 0 850.394 850.394" width="850.394" height="850.394">
  <defs/>
  <metadata> Produced by OmniGraffle 7.9.4 
    <dc:date>2019-03-10 04:23:42 +0000</dc:date>
  </metadata>
  <g id="MIDI" fill="none" stroke-opacity="1" fill-opacity="1" stroke-dasharray="none" stroke="none">
    <title>MIDI</title>
    <g id="MIDI: Layer 1">
      <title>Layer 1</title>
      <g id="Graphic_8">
        <path d="M 687.4148 153.16269 C 828.9653 294.71245 828.9653 524.2098 687.4148 665.75956 C 545.865 807.31 316.3677 807.31 174.81792 665.75956 C 33.267426 524.2098 33.267426 294.71245 174.81792 153.16269 C 316.3677 11.612196 545.865 11.612196 687.4148 153.16269" fill="#b8b8b8"/>
        <path d="M 687.4148 153.16269 C 828.9653 294.71245 828.9653 524.2098 687.4148 665.75956 C 545.865 807.31 316.3677 807.31 174.81792 665.75956 C 33.267426 524.2098 33.267426 294.71245 174.81792 153.16269 C 316.3677 11.612196 545.865 11.612196 687.4148 153.16269" stroke="black" stroke-linecap="round" stroke-linejoin="round" stroke-width="7"/>
      </g>
      <g id="Graphic_7">
        <path d="M 347.139 530.0525 L 123.03221 440.67364 C 80.15582 382.67565 97.89091 351.9576 169.55683 360.09064 L 359.0146 509.48336 C 364.21875 513.587 365.1109 521.1324 361.0073 526.3365 C 357.71713 530.5091 352.07464 532.021 347.139 530.0525 Z" fill="#030303"/>
        <path d="M 347.139 530.0525 L 123.03221 440.67364 C 80.15582 382.67565 97.89091 351.9576 169.55683 360.09064 L 359.0146 509.48336 C 364.21875 513.587 365.1109 521.1324 361.0073 526.3365 C 357.71713 530.5091 352.07464 532.021 347.139 530.0525 Z" stroke="#969696" stroke-linecap="round" stroke-linejoin="round" stroke-width="1"/>
      </g>
      <g id="Graphic_6">
        <path d="M 367.7886 461.83577 L 218.39586 272.378 C 210.2628 200.71207 240.98087 182.97698 298.97886 225.85337 L 388.35775 449.96016 C 390.81286 456.11606 387.8128 463.09666 381.6569 465.5518 C 376.72124 467.5202 371.07875 466.0083 367.7886 461.83577 Z" fill="#030303"/>
        <path d="M 367.7886 461.83577 L 218.39586 272.378 C 210.2628 200.71207 240.98087 182.97698 298.97886 225.85337 L 388.35775 449.96016 C 390.81286 456.11606 387.8128 463.09666 381.6569 465.5518 C 376.72124 467.5202 371.07875 466.0083 367.7886 461.83577 Z" stroke="#969696" stroke-linecap="round" stroke-linejoin="round" stroke-width="1"/>
      </g>
      <g id="Graphic_5">
        <path d="M 488.8843 509.48336 L 678.3421 360.09064 C 750.008 351.9576 767.7431 382.67565 724.8667 440.67364 L 500.7599 530.0525 C 494.604 532.50764 487.6234 529.50756 485.1683 523.35167 C 483.19984 518.416 484.71174 512.77353 488.8843 509.48336 Z" fill="#030303"/>
        <path d="M 488.8843 509.48336 L 678.3421 360.09064 C 750.008 351.9576 767.7431 382.67565 724.8667 440.67364 L 500.7599 530.0525 C 494.604 532.50764 487.6234 529.50756 485.1683 523.35167 C 483.19984 518.416 484.71174 512.77353 488.8843 509.48336 Z" stroke="#969696" stroke-linecap="round" stroke-linejoin="round" stroke-width="1"/>
      </g>
      <g id="Graphic_4">
        <path d="M 458.5804 449.9602 L 547.95926 225.85338 C 605.95725 182.977 636.6753 200.71208 628.5423 272.378 L 479.14955 461.8358 C 475.04594 467.03993 467.5005 467.9321 462.2964 463.8285 C 458.12384 460.5383 456.61194 454.8958 458.5804 449.9602 Z" fill="#030303"/>
        <path d="M 458.5804 449.9602 L 547.95926 225.85338 C 605.95725 182.977 636.6753 200.71208 628.5423 272.378 L 479.14955 461.8358 C 475.04594 467.03993 467.5005 467.9321 462.2964 463.8285 C 458.12384 460.5383 456.61194 454.8958 458.5804 449.9602 Z" stroke="#969696" stroke-linecap="round" stroke-linejoin="round" stroke-width="1"/>
      </g>
      <g id="Graphic_3">
        <path d="M 412.07384 444.93393 L 377.42483 206.16231 C 406.21437 140.03128 441.68453 140.03128 470.47407 206.16231 L 435.82506 444.93393 C 434.8733 451.49265 428.78486 456.038 422.22614 455.08623 C 416.96753 454.32313 412.83693 450.19254 412.07384 444.93393 Z" fill="#030303"/>
        <path d="M 412.07384 444.93393 L 377.42483 206.16231 C 406.21437 140.03128 441.68453 140.03128 470.47407 206.16231 L 435.82506 444.93393 C 434.8733 451.49265 428.78486 456.038 422.22614 455.08623 C 416.96753 454.32313 412.83693 450.19254 412.07384 444.93393 Z" stroke="#969696" stroke-linecap="round" stroke-linejoin="round" stroke-width="1"/>
      </g>
      <g id="Graphic_2">
        <path d="M 412.77945 646.3856 L 377.42483 556.3327 C 406.21437 531.8891 441.68453 531.8891 470.47407 556.3327 L 435.11945 646.3856 C 432.6975 652.55464 425.73315 655.59225 419.56413 653.1703 C 416.4575 651.9506 413.9991 649.4923 412.77945 646.3856 Z" fill="#030303"/>
        <path d="M 412.77945 646.3856 L 377.42483 556.3327 C 406.21437 531.8891 441.68453 531.8891 470.47407 556.3327 L 435.11945 646.3856 C 432.6975 652.55464 425.73315 655.59225 419.56413 653.1703 C 416.4575 651.9506 413.9991 649.4923 412.77945 646.3856 Z" stroke="#969696" stroke-linecap="round" stroke-linejoin="round" stroke-width="1"/>
      </g>
    </g>
  </g>
</svg>
