<?xml version="1.0" encoding="UTF-8" standalone="no"?>
<!DOCTYPE svg PUBLIC "-//W3C//DTD SVG 1.1//EN" "http://www.w3.org/Graphics/SVG/1.1/DTD/svg11.dtd">
<svg xmlns:xl="http://www.w3.org/1999/xlink" version="1.1" xmlns:dc="http://purl.org/dc/elements/1.1/" xmlns="http://www.w3.org/2000/svg" viewBox="0 0 850.394 850.394" width="850.394" height="850.394">
  <defs/>
  <metadata> Produced by OmniGraffle 7.9.4 
    <dc:date>2019-05-10 18:22:07 +0000</dc:date>
  </metadata>
  <g id="minijack_plug_stereo" fill="none" stroke-opacity="1" fill-opacity="1" stroke="none" stroke-dasharray="none">
    <title>minijack_plug_stereo</title>
    <g id="minijack_plug_stereo: Layer 1">
      <title>Layer 1</title>
      <g id="Line_7">
        <path d="M 526.85185 492 C 555.0589 523.0216 587.3999 555.4865 611.4815 585.0741 C 635.563 614.6616 663.6403 649.792 671.3556 669.5431 C 679.0709 689.2942 640.2971 675.2752 657.7778 703.5926 C 675.2584 731.90996 736.7632 794.17825 776.25 839.4643" stroke="black" stroke-linecap="round" stroke-linejoin="round" stroke-width="20"/>
      </g>
      <g id="Graphic_4">
        <path d="M 389 305 L 458.367 377.04263 C 463.0533 381.72892 463.0533 389.3269 458.367 394.0132 L 428.8202 423.56 C 424.1339 428.2463 416.5359 428.2463 411.8496 423.56 L 346 358 C 341.3137 353.3137 324.9438 329.0562 329.63008 324.36992 L 359.1769 294.8231 C 363.8632 290.1368 384.3137 300.3137 389 305 Z" fill="#e6e6e6"/>
        <path d="M 389 305 L 458.367 377.04263 C 463.0533 381.72892 463.0533 389.3269 458.367 394.0132 L 428.8202 423.56 C 424.1339 428.2463 416.5359 428.2463 411.8496 423.56 L 346 358 C 341.3137 353.3137 324.9438 329.0562 329.63008 324.36992 L 359.1769 294.8231 C 363.8632 290.1368 384.3137 300.3137 389 305 Z" stroke="black" stroke-linecap="round" stroke-linejoin="round" stroke-width="2"/>
      </g>
      <g id="Graphic_3">
        <path d="M 356.06427 368.06427 L 390.83114 402.83114 C 480.09833 487.39833 495.84005 489.04005 553.39865 518.39865 C 524.04005 460.84005 522.39833 445.09833 437.83114 355.83114 L 403.06427 321.06427 C 402.356 339.156 405.52685 344.67685 396.9477 361.9477 C 379.67685 370.52685 374.156 367.356 356.06427 368.06427" fill="#030303"/>
        <path d="M 356.06427 368.06427 L 390.83114 402.83114 C 480.09833 487.39833 495.84005 489.04005 553.39865 518.39865 C 524.04005 460.84005 522.39833 445.09833 437.83114 355.83114 L 403.06427 321.06427 C 402.356 339.156 405.52685 344.67685 396.9477 361.9477 C 379.67685 370.52685 374.156 367.356 356.06427 368.06427" stroke="black" stroke-linecap="round" stroke-linejoin="round" stroke-width="2"/>
      </g>
    </g>
    <g id="minijack_plug_stereo: Layer 2">
      <title>Layer 2</title>
      <g id="Graphic_20">
        <path d="M 286.78496 222.30524 L 348.5494 290.9016 C 352.984 295.82675 352.58637 303.4143 347.66124 307.84892 C 347.66124 307.84892 347.66124 307.84892 347.66124 307.84892 L 346.14055 309.21816 C 341.2154 313.65277 333.62785 313.25512 329.19324 308.33 L 267.4288 239.73362 C 262.99418 234.80849 263.39183 227.22092 268.31696 222.7863 C 268.31696 222.7863 268.31696 222.7863 268.31696 222.7863 L 269.83766 221.41707 C 274.7628 216.98247 282.35035 217.3801 286.78496 222.30524 C 286.78496 222.30524 286.78496 222.30524 286.78496 222.30524 Z" fill="#e6e6e6"/>
        <path d="M 286.78496 222.30524 L 348.5494 290.9016 C 352.984 295.82675 352.58637 303.4143 347.66124 307.84892 C 347.66124 307.84892 347.66124 307.84892 347.66124 307.84892 L 346.14055 309.21816 C 341.2154 313.65277 333.62785 313.25512 329.19324 308.33 L 267.4288 239.73362 C 262.99418 234.80849 263.39183 227.22092 268.31696 222.7863 C 268.31696 222.7863 268.31696 222.7863 268.31696 222.7863 L 269.83766 221.41707 C 274.7628 216.98247 282.35035 217.3801 286.78496 222.30524 C 286.78496 222.30524 286.78496 222.30524 286.78496 222.30524 Z" stroke="black" stroke-linecap="round" stroke-linejoin="round" stroke-width="2"/>
      </g>
      <g id="Graphic_19">
        <path d="M 302.7333 240.01767 L 364.49776 308.61405 C 368.93236 313.53918 368.5347 321.12675 363.6096 325.56135 C 363.6096 325.56135 363.6096 325.56135 363.6096 325.56135 L 362.0889 326.9306 C 357.16376 331.3652 349.5762 330.96755 345.1416 326.04242 L 283.37714 257.44605 C 278.94253 252.52092 279.34018 244.93335 284.2653 240.49874 C 284.2653 240.49874 284.2653 240.49874 284.2653 240.49874 L 285.786 239.1295 C 290.71113 234.6949 298.2987 235.09254 302.7333 240.01767 C 302.7333 240.01767 302.7333 240.01767 302.7333 240.01767 Z" fill="#e6e6e6"/>
        <path d="M 302.7333 240.01767 L 364.49776 308.61405 C 368.93236 313.53918 368.5347 321.12675 363.6096 325.56135 C 363.6096 325.56135 363.6096 325.56135 363.6096 325.56135 L 362.0889 326.9306 C 357.16376 331.3652 349.5762 330.96755 345.1416 326.04242 L 283.37714 257.44605 C 278.94253 252.52092 279.34018 244.93335 284.2653 240.49874 C 284.2653 240.49874 284.2653 240.49874 284.2653 240.49874 L 285.786 239.1295 C 290.71113 234.6949 298.2987 235.09254 302.7333 240.01767 C 302.7333 240.01767 302.7333 240.01767 302.7333 240.01767 Z" stroke="black" stroke-linecap="round" stroke-linejoin="round" stroke-width="2"/>
      </g>
      <g id="Graphic_18">
        <path d="M 276.27427 209.0287 L 273.93244 206.42784 C 267.04933 200.85178 263.37825 202.97988 254.2797 205.28542 C 251.03574 214.09312 248.53557 217.52165 253.3616 224.9499 L 255.70342 227.55077 C 259.23213 223.19614 261.8784 226.75093 261.8784 226.75093 L 261.4516 231.89535 C 261.4516 231.89535 264.9336 227.35863 270.29787 221.93995 C 276.24758 217.1715 279.6114 215.54417 279.6114 215.54417 L 274.45056 215.4309 C 274.45056 215.4309 271.57464 212.0829 276.27427 209.0287 Z" fill="#e6e6e6"/>
        <path d="M 276.27427 209.0287 L 273.93244 206.42784 C 267.04933 200.85178 263.37825 202.97988 254.2797 205.28542 C 251.03574 214.09312 248.53557 217.52165 253.3616 224.9499 L 255.70342 227.55077 C 259.23213 223.19614 261.8784 226.75093 261.8784 226.75093 L 261.4516 231.89535 C 261.4516 231.89535 264.9336 227.35863 270.29787 221.93995 C 276.24758 217.1715 279.6114 215.54417 279.6114 215.54417 L 274.45056 215.4309 C 274.45056 215.4309 271.57464 212.0829 276.27427 209.0287 Z" stroke="black" stroke-linecap="round" stroke-linejoin="round" stroke-width="2"/>
      </g>
      <g id="Line_17">
        <path d="M 277.27834 251.49397 L 279.97288 247.54703 C 281.63505 245.11232 283.58223 242.88497 285.773 240.9124 L 287.0274 239.78292 C 290.0372 237.07288 293.5148 234.93284 297.2904 233.46725 L 297.6208 233.339" stroke="black" stroke-linecap="round" stroke-linejoin="round" stroke-width="5"/>
      </g>
      <g id="Line_16">
        <path d="M 262.94767 232.53949 L 263.14286 230.20382 C 263.47056 226.2824 265.281 222.63345 268.20534 220.00036 L 268.20534 220.00036 C 271.0572 217.43254 274.98554 216.42365 278.7218 217.29948 L 280.12586 217.62861" stroke="black" stroke-linecap="round" stroke-linejoin="round" stroke-width="4"/>
      </g>
    </g>
  </g>
</svg>
