<?xml version="1.0" encoding="UTF-8" standalone="no"?>
<!DOCTYPE svg PUBLIC "-//W3C//DTD SVG 1.1//EN" "http://www.w3.org/Graphics/SVG/1.1/DTD/svg11.dtd">
<svg xmlns:xl="http://www.w3.org/1999/xlink" xmlns:dc="http://purl.org/dc/elements/1.1/" xmlns="http://www.w3.org/2000/svg" version="1.1" viewBox="0 0 850.394 850.394" width="850.394" height="850.394">
  <defs/>
  <metadata> Produced by OmniGraffle 7.9.4 
    <dc:date>2019-09-30 13:29:20 +0000</dc:date>
  </metadata>
  <g id="minijack_cable" stroke="none" stroke-dasharray="none" fill="none" stroke-opacity="1" fill-opacity="1">
    <title>minijack_cable</title>
    <g id="minijack_cable: Layer 1">
      <title>Layer 1</title>
      <g id="Line_7">
        <path d="M 269.4969 209.18745 C 286.94562 228.37725 306.9516 248.45988 321.84833 266.7626 C 336.74505 285.0653 354.1135 306.79676 358.88615 319.0147 C 363.6588 331.23262 339.67353 322.56055 350.48697 340.0775 C 361.3004 357.5945 399.34694 396.11333 423.77326 424.12703" stroke="black" stroke-linecap="round" stroke-linejoin="round" stroke-width="20"/>
      </g>
      <g id="Graphic_4">
        <path d="M 184.22246 93.51024 L 227.1325 138.07543 C 230.03143 140.97435 230.03143 145.67442 227.1325 148.57333 L 208.855 166.85084 C 205.9561 169.74976 201.25602 169.74976 198.3571 166.85084 L 157.62288 126.29576 C 154.72397 123.39685 144.59762 108.39129 147.49653 105.49237 L 165.77404 87.21486 C 168.67296 84.31595 181.32354 90.61133 184.22246 93.51024 Z" fill="#e6e6e6"/>
        <path d="M 184.22246 93.51024 L 227.1325 138.07543 C 230.03143 140.97435 230.03143 145.67442 227.1325 148.57333 L 208.855 166.85084 C 205.9561 169.74976 201.25602 169.74976 198.3571 166.85084 L 157.62288 126.29576 C 154.72397 123.39685 144.59762 108.39129 147.49653 105.49237 L 165.77404 87.21486 C 168.67296 84.31595 181.32354 90.61133 184.22246 93.51024 Z" stroke="black" stroke-linecap="round" stroke-linejoin="round" stroke-width="2"/>
      </g>
      <g id="Graphic_3">
        <path d="M 163.84858 132.52146 L 185.3552 154.02807 C 240.5754 206.34089 250.31315 207.35645 285.9186 225.51752 C 267.75752 189.91207 266.74196 180.17433 214.42914 124.95412 L 192.92254 103.44751 C 192.4844 114.63895 194.44587 118.05413 189.13886 128.73779 C 178.4552 134.0448 175.04003 132.08332 163.84858 132.52146" fill="#030303"/>
        <path d="M 163.84858 132.52146 L 185.3552 154.02807 C 240.5754 206.34089 250.31315 207.35645 285.9186 225.51752 C 267.75752 189.91207 266.74196 180.17433 214.42914 124.95412 L 192.92254 103.44751 C 192.4844 114.63895 194.44587 118.05413 189.13886 128.73779 C 178.4552 134.0448 175.04003 132.08332 163.84858 132.52146" stroke="black" stroke-linecap="round" stroke-linejoin="round" stroke-width="2"/>
      </g>
      <g id="Line_30">
        <path d="M 580.8971 641.20655 C 563.4484 622.01675 543.4424 601.9341 528.5457 583.6314 C 513.64895 565.3287 496.2805 543.59724 491.50785 531.3793 C 486.7352 519.1614 510.72047 527.83345 499.907 510.3165 C 489.0936 492.7995 451.04706 454.28067 426.62074 426.26697" stroke="black" stroke-linecap="round" stroke-linejoin="round" stroke-width="20"/>
      </g>
      <g id="Graphic_31">
        <path d="M 666.17154 756.8838 L 623.2615 712.3186 C 620.3626 709.41965 620.3626 704.7196 623.2615 701.8207 L 641.539 683.54316 C 644.4379 680.64424 649.138 680.64424 652.0369 683.54316 L 692.7711 724.0982 C 695.67 726.99715 705.7964 742.0027 702.8975 744.9016 L 684.61996 763.1791 C 681.72104 766.07805 669.0705 759.7827 666.17154 756.8838 Z" fill="#e6e6e6"/>
        <path d="M 666.17154 756.8838 L 623.2615 712.3186 C 620.3626 709.41965 620.3626 704.7196 623.2615 701.8207 L 641.539 683.54316 C 644.4379 680.64424 649.138 680.64424 652.0369 683.54316 L 692.7711 724.0982 C 695.67 726.99715 705.7964 742.0027 702.8975 744.9016 L 684.61996 763.1791 C 681.72104 766.07805 669.0705 759.7827 666.17154 756.8838 Z" stroke="black" stroke-linecap="round" stroke-linejoin="round" stroke-width="2"/>
      </g>
      <g id="Graphic_32">
        <path d="M 686.5454 717.8725 L 665.0388 696.3659 C 609.8186 644.0531 600.08085 643.03755 564.4754 624.8765 C 582.6365 660.4819 583.65204 670.2197 635.96486 725.4399 L 657.4715 746.9465 C 657.9096 735.75505 655.9481 732.3399 661.2551 721.6562 C 671.9388 716.3492 675.354 718.3107 686.5454 717.8725" fill="#030303"/>
        <path d="M 686.5454 717.8725 L 665.0388 696.3659 C 609.8186 644.0531 600.08085 643.03755 564.4754 624.8765 C 582.6365 660.4819 583.65204 670.2197 635.96486 725.4399 L 657.4715 746.9465 C 657.9096 735.75505 655.9481 732.3399 661.2551 721.6562 C 671.9388 716.3492 675.354 718.3107 686.5454 717.8725" stroke="black" stroke-linecap="round" stroke-linejoin="round" stroke-width="2"/>
      </g>
    </g>
    <g id="minijack_cable: Layer 2">
      <title>Layer 2</title>
      <g id="Graphic_20">
        <path d="M 121.41627 42.826046 L 158.77643 84.31871 C 161.75355 87.62513 161.4866 92.71895 158.18017 95.69607 L 158.18017 95.69607 C 154.87375 98.67319 149.77993 98.40623 146.80281 95.09981 C 146.80281 95.09981 146.80281 95.09981 146.80281 95.09981 L 109.44265 53.607146 C 106.46553 50.30072 106.73249 45.2069 110.03891 42.229784 L 110.03891 42.229784 C 113.34534 39.252665 118.43915 39.51962 121.41627 42.826046 C 121.41627 42.826046 121.41627 42.826046 121.41627 42.826046 Z" fill="#e6e6e6"/>
        <path d="M 121.41627 42.826046 L 158.77643 84.31871 C 161.75355 87.62513 161.4866 92.71895 158.18017 95.69607 L 158.18017 95.69607 C 154.87375 98.67319 149.77993 98.40623 146.80281 95.09981 C 146.80281 95.09981 146.80281 95.09981 146.80281 95.09981 L 109.44265 53.607146 C 106.46553 50.30072 106.73249 45.2069 110.03891 42.229784 L 110.03891 42.229784 C 113.34534 39.252665 118.43915 39.51962 121.41627 42.826046 C 121.41627 42.826046 121.41627 42.826046 121.41627 42.826046 Z" stroke="black" stroke-linecap="round" stroke-linejoin="round" stroke-width="2"/>
      </g>
      <g id="Graphic_19">
        <path d="M 131.28183 53.78286 L 168.642 95.27552 C 171.61911 98.58195 171.35216 103.67577 168.04573 106.65289 L 168.04573 106.65289 C 164.7393 109.63 159.64549 109.36305 156.66837 106.05662 C 156.66837 106.05662 156.66837 106.05662 156.66837 106.05662 L 119.30821 64.56396 C 116.33109 61.25754 116.59805 56.16372 119.90447 53.1866 L 119.90447 53.1866 C 123.2109 50.20948 128.30472 50.47644 131.28183 53.78286 C 131.28183 53.78286 131.28183 53.78286 131.28183 53.78286 Z" fill="#e6e6e6"/>
        <path d="M 131.28183 53.78286 L 168.642 95.27552 C 171.61911 98.58195 171.35216 103.67577 168.04573 106.65289 L 168.04573 106.65289 C 164.7393 109.63 159.64549 109.36305 156.66837 106.05662 C 156.66837 106.05662 156.66837 106.05662 156.66837 106.05662 L 119.30821 64.56396 C 116.33109 61.25754 116.59805 56.16372 119.90447 53.1866 L 119.90447 53.1866 C 123.2109 50.20948 128.30472 50.47644 131.28183 53.78286 C 131.28183 53.78286 131.28183 53.78286 131.28183 53.78286 Z" stroke="black" stroke-linecap="round" stroke-linejoin="round" stroke-width="2"/>
      </g>
      <g id="Graphic_18">
        <path d="M 114.49091 34.1429 L 113.04227 32.53402 C 108.78441 29.084702 106.5135 30.40113 100.88519 31.827328 C 98.87849 37.275724 97.3319 39.39659 100.31725 43.991674 L 101.7659 45.600554 C 103.94874 42.906803 105.58569 45.10578 105.58569 45.10578 L 105.32168 48.288086 C 105.32168 48.288086 107.47564 45.481696 110.79394 42.12973 C 114.4744 39.179985 116.55525 38.17334 116.55525 38.17334 L 113.36278 38.10326 C 113.36278 38.10326 111.58375 36.03221 114.49091 34.1429 Z" fill="#e6e6e6"/>
        <path d="M 114.49091 34.1429 L 113.04227 32.53402 C 108.78441 29.084702 106.5135 30.40113 100.88519 31.827328 C 98.87849 37.275724 97.3319 39.39659 100.31725 43.991674 L 101.7659 45.600554 C 103.94874 42.906803 105.58569 45.10578 105.58569 45.10578 L 105.32168 48.288086 C 105.32168 48.288086 107.47564 45.481696 110.79394 42.12973 C 114.4744 39.179985 116.55525 38.17334 116.55525 38.17334 L 113.36278 38.10326 C 113.36278 38.10326 111.58375 36.03221 114.49091 34.1429 Z" stroke="black" stroke-linecap="round" stroke-linejoin="round" stroke-width="2"/>
      </g>
      <g id="Line_17">
        <path d="M 115.11202 60.41169 L 116.19012 58.832504 C 117.60942 56.753544 119.27208 54.851656 121.14275 53.1673 L 121.14275 53.1673 C 123.0046 51.490884 125.15581 50.167063 127.49138 49.26046 L 127.69576 49.181126" stroke="black" stroke-linecap="round" stroke-linejoin="round" stroke-width="5"/>
      </g>
      <g id="Line_16">
        <path d="M 106.24715 48.68655 L 106.36789 47.24172 C 106.5706 44.81595 107.69053 42.558724 109.49951 40.92991 L 109.49951 40.92991 C 111.26365 39.34147 113.69371 38.717375 116.00494 39.25916 L 116.87348 39.46276" stroke="black" stroke-linecap="round" stroke-linejoin="round" stroke-width="4"/>
      </g>
      <g id="Graphic_33">
        <path d="M 728.9777 807.568 L 691.6176 766.0753 C 688.64045 762.7689 688.9074 757.67505 692.2138 754.6979 L 692.2138 754.6979 C 695.52025 751.7208 700.6141 751.9878 703.5912 755.2942 C 703.5912 755.2942 703.5912 755.2942 703.5912 755.2942 L 740.95135 796.7869 C 743.9285 800.0933 743.6615 805.1871 740.3551 808.1642 L 740.3551 808.1642 C 737.0487 811.1413 731.95485 810.8744 728.9777 807.568 C 728.9777 807.568 728.9777 807.568 728.9777 807.568 Z" fill="#e6e6e6"/>
        <path d="M 728.9777 807.568 L 691.6176 766.0753 C 688.64045 762.7689 688.9074 757.67505 692.2138 754.6979 L 692.2138 754.6979 C 695.52025 751.7208 700.6141 751.9878 703.5912 755.2942 C 703.5912 755.2942 703.5912 755.2942 703.5912 755.2942 L 740.95135 796.7869 C 743.9285 800.0933 743.6615 805.1871 740.3551 808.1642 L 740.3551 808.1642 C 737.0487 811.1413 731.95485 810.8744 728.9777 807.568 C 728.9777 807.568 728.9777 807.568 728.9777 807.568 Z" stroke="black" stroke-linecap="round" stroke-linejoin="round" stroke-width="2"/>
      </g>
      <g id="Graphic_34">
        <path d="M 719.1122 796.6111 L 681.752 755.1185 C 678.7749 751.81205 679.04184 746.7182 682.3483 743.7411 L 682.3483 743.7411 C 685.6547 740.764 690.7485 741.03095 693.7256 744.3374 C 693.7256 744.3374 693.7256 744.3374 693.7256 744.3374 L 731.0858 785.83 C 734.0629 789.1365 733.79595 794.2303 730.4895 797.2074 L 730.4895 797.2074 C 727.1831 800.1845 722.0893 799.9176 719.1122 796.6111 C 719.1122 796.6111 719.1122 796.6111 719.1122 796.6111 Z" fill="#e6e6e6"/>
        <path d="M 719.1122 796.6111 L 681.752 755.1185 C 678.7749 751.81205 679.04184 746.7182 682.3483 743.7411 L 682.3483 743.7411 C 685.6547 740.764 690.7485 741.03095 693.7256 744.3374 C 693.7256 744.3374 693.7256 744.3374 693.7256 744.3374 L 731.0858 785.83 C 734.0629 789.1365 733.79595 794.2303 730.4895 797.2074 L 730.4895 797.2074 C 727.1831 800.1845 722.0893 799.9176 719.1122 796.6111 C 719.1122 796.6111 719.1122 796.6111 719.1122 796.6111 Z" stroke="black" stroke-linecap="round" stroke-linejoin="round" stroke-width="2"/>
      </g>
      <g id="Graphic_35">
        <path d="M 735.9031 816.2511 L 737.3517 817.86 C 741.6096 821.3093 743.8805 819.9929 749.5088 818.5667 C 751.5155 813.1183 753.0621 810.9974 750.07675 806.4023 L 748.6281 804.7934 C 746.4453 807.4872 744.8083 805.2882 744.8083 805.2882 L 745.0723 802.1059 C 745.0723 802.1059 742.9184 804.9123 739.6001 808.2643 C 735.9196 811.214 733.83875 812.2207 733.83875 812.2207 L 737.0312 812.2907 C 737.0312 812.2907 738.81025 814.3618 735.9031 816.2511 Z" fill="#e6e6e6"/>
        <path d="M 735.9031 816.2511 L 737.3517 817.86 C 741.6096 821.3093 743.8805 819.9929 749.5088 818.5667 C 751.5155 813.1183 753.0621 810.9974 750.07675 806.4023 L 748.6281 804.7934 C 746.4453 807.4872 744.8083 805.2882 744.8083 805.2882 L 745.0723 802.1059 C 745.0723 802.1059 742.9184 804.9123 739.6001 808.2643 C 735.9196 811.214 733.83875 812.2207 733.83875 812.2207 L 737.0312 812.2907 C 737.0312 812.2907 738.81025 814.3618 735.9031 816.2511 Z" stroke="black" stroke-linecap="round" stroke-linejoin="round" stroke-width="2"/>
      </g>
      <g id="Line_36">
        <path d="M 735.282 789.9823 L 734.2039 791.5615 C 732.7846 793.6405 731.1219 795.5423 729.25125 797.2267 L 729.25125 797.2267 C 727.3894 798.9031 725.2382 800.2269 722.9026 801.1335 L 722.69824 801.2129" stroke="black" stroke-linecap="round" stroke-linejoin="round" stroke-width="5"/>
      </g>
      <g id="Line_37">
        <path d="M 744.14685 801.70745 L 744.0261 803.1523 C 743.8234 805.57805 742.7035 807.8353 740.8945 809.4641 L 740.8945 809.4641 C 739.13035 811.0525 736.7003 811.6766 734.3891 811.1348 L 733.5205 810.9312" stroke="black" stroke-linecap="round" stroke-linejoin="round" stroke-width="4"/>
      </g>
    </g>
  </g>
</svg>
