<?xml version="1.0" encoding="UTF-8" standalone="no"?>
<!DOCTYPE svg PUBLIC "-//W3C//DTD SVG 1.1//EN" "http://www.w3.org/Graphics/SVG/1.1/DTD/svg11.dtd">
<svg xmlns:xl="http://www.w3.org/1999/xlink" version="1.1" xmlns:dc="http://purl.org/dc/elements/1.1/" xmlns="http://www.w3.org/2000/svg" viewBox="0 0 850.394 850.394" width="850.394" height="850.394">
  <defs/>
  <metadata> Produced by OmniGraffle 7.9.4 
    <dc:date>2019-05-10 18:22:07 +0000</dc:date>
  </metadata>
  <g id="minijack_adapter" fill="none" stroke-opacity="1" fill-opacity="1" stroke="none" stroke-dasharray="none">
    <title>minijack_adapter</title>
    <g id="minijack_adapter: Layer 2">
      <title>Layer 2</title>
      <g id="Graphic_28">
        <path d="M 302.89053 277.0628 L 368.1604 342.33265 C 372.8467 347.01895 372.8467 354.61693 368.1604 359.3032 L 366.71344 360.75017 C 362.02715 365.43646 354.42917 365.43646 349.7429 360.75017 L 284.47302 295.4803 C 279.78673 290.794 279.78673 283.19603 284.47302 278.50974 L 285.91997 277.0628 C 290.60626 272.3765 298.20424 272.3765 302.89053 277.0628 Z" fill="#e6e6e6"/>
        <path d="M 302.89053 277.0628 L 368.1604 342.33265 C 372.8467 347.01895 372.8467 354.61693 368.1604 359.3032 L 366.71344 360.75017 C 362.02715 365.43646 354.42917 365.43646 349.7429 360.75017 L 284.47302 295.4803 C 279.78673 290.794 279.78673 283.19603 284.47302 278.50974 L 285.91997 277.0628 C 290.60626 272.3765 298.20424 272.3765 302.89053 277.0628 Z" stroke="black" stroke-linecap="round" stroke-linejoin="round" stroke-width="2"/>
      </g>
      <g id="Graphic_27">
        <path d="M 536.2787 457.27867 L 667.2746 588.27464 C 671.9609 592.9609 671.9609 600.5589 667.2746 605.2452 C 667.2746 605.2452 667.2746 605.2452 667.2746 605.2452 L 612.7452 659.7746 C 608.0589 664.4609 600.4609 664.4609 595.77464 659.7746 C 595.77464 659.7746 595.77464 659.7746 595.77464 659.7746 L 464.77867 528.7787 C 460.0924 524.0924 460.0924 516.4944 464.77867 511.8081 L 519.3081 457.27867 C 523.9944 452.5924 531.5924 452.5924 536.2787 457.27867 Z" fill="black"/>
        <path d="M 536.2787 457.27867 L 667.2746 588.27464 C 671.9609 592.9609 671.9609 600.5589 667.2746 605.2452 C 667.2746 605.2452 667.2746 605.2452 667.2746 605.2452 L 612.7452 659.7746 C 608.0589 664.4609 600.4609 664.4609 595.77464 659.7746 C 595.77464 659.7746 595.77464 659.7746 595.77464 659.7746 L 464.77867 528.7787 C 460.0924 524.0924 460.0924 516.4944 464.77867 511.8081 L 519.3081 457.27867 C 523.9944 452.5924 531.5924 452.5924 536.2787 457.27867 Z" stroke="black" stroke-linecap="round" stroke-linejoin="round" stroke-width="7"/>
      </g>
      <g id="Graphic_26">
        <path d="M 319.744 293.91628 L 385.0139 359.18614 C 389.70017 363.87243 389.70017 371.4704 385.0139 376.1567 L 383.56693 377.60365 C 378.88064 382.28994 371.28266 382.28994 366.59637 377.60365 L 301.3265 312.3338 C 296.6402 307.6475 296.6402 300.0495 301.3265 295.36322 L 302.77345 293.91628 C 307.45974 289.23 315.05772 289.23 319.744 293.91628 Z" fill="#e6e6e6"/>
        <path d="M 319.744 293.91628 L 385.0139 359.18614 C 389.70017 363.87243 389.70017 371.4704 385.0139 376.1567 L 383.56693 377.60365 C 378.88064 382.28994 371.28266 382.28994 366.59637 377.60365 L 301.3265 312.3338 C 296.6402 307.6475 296.6402 300.0495 301.3265 295.36322 L 302.77345 293.91628 C 307.45974 289.23 315.05772 289.23 319.744 293.91628 Z" stroke="black" stroke-linecap="round" stroke-linejoin="round" stroke-width="2"/>
      </g>
      <g id="Graphic_25">
        <path d="M 291.6994 264.35453 L 289.22466 261.8798 C 282.05916 256.67162 278.5045 258.98892 269.53908 261.7675 C 266.7605 270.7329 264.4432 274.28757 269.65138 281.45307 L 272.12612 283.9278 C 275.4221 279.39447 278.25076 282.8059 278.25076 282.8059 L 278.0938 287.9656 C 278.0938 287.9656 281.3336 283.25286 286.4069 277.56087 C 292.0989 272.48756 295.37296 270.68642 295.37296 270.68642 L 290.21326 270.8434 C 290.21326 270.8434 287.16606 267.6505 291.6994 264.35453 Z" fill="#e6e6e6"/>
        <path d="M 291.6994 264.35453 L 289.22466 261.8798 C 282.05916 256.67162 278.5045 258.98892 269.53908 261.7675 C 266.7605 270.7329 264.4432 274.28757 269.65138 281.45307 L 272.12612 283.9278 C 275.4221 279.39447 278.25076 282.8059 278.25076 282.8059 L 278.0938 287.9656 C 278.0938 287.9656 281.3336 283.25286 286.4069 277.56087 C 292.0989 272.48756 295.37296 270.68642 295.37296 270.68642 L 290.21326 270.8434 C 290.21326 270.8434 287.16606 267.6505 291.6994 264.35453 Z" stroke="black" stroke-linecap="round" stroke-linejoin="round" stroke-width="2"/>
      </g>
      <g id="Graphic_24">
        <path d="M 421.07395 337.41645 L 567.36465 483.70715 C 572.05094 488.39344 572.05094 495.9914 567.36465 500.6777 L 507.77024 560.2721 C 503.08395 564.9584 495.486 564.9584 490.7997 560.2721 L 344.50898 413.9814 C 339.8227 409.29513 339.8227 401.69715 344.50898 397.01086 L 404.1034 337.41645 C 408.7897 332.73016 416.38766 332.73016 421.07395 337.41645 Z" fill="#e6e6e6"/>
        <path d="M 421.07395 337.41645 L 567.36465 483.70715 C 572.05094 488.39344 572.05094 495.9914 567.36465 500.6777 L 507.77024 560.2721 C 503.08395 564.9584 495.486 564.9584 490.7997 560.2721 L 344.50898 413.9814 C 339.8227 409.29513 339.8227 401.69715 344.50898 397.01086 L 404.1034 337.41645 C 408.7897 332.73016 416.38766 332.73016 421.07395 337.41645 Z" stroke="black" stroke-linecap="round" stroke-linejoin="round" stroke-width="2"/>
      </g>
      <g id="Graphic_23">
        <path d="M 393.49916 463.44826 L 450.72346 520.67256 C 597.6522 659.86535 612.2854 600.2345 612.2854 600.2345 C 612.2854 600.2345 509.5472 551.9119 604.2854 600.2345 C 555.9628 505.4963 607.2854 603.2345 607.2854 603.2345 C 607.2854 603.2345 667.2756 590.24196 528.0828 443.31323 L 470.8585 386.08893 C 469.6927 415.86687 474.91175 424.9539 460.791 453.38075 C 432.3641 467.5015 423.2771 462.28247 393.49916 463.44826 Z" fill="#030303"/>
        <path d="M 393.49916 463.44826 L 450.72346 520.67256 C 597.6522 659.86535 612.2854 600.2345 612.2854 600.2345 C 612.2854 600.2345 509.5472 551.9119 604.2854 600.2345 C 555.9628 505.4963 607.2854 603.2345 607.2854 603.2345 C 607.2854 603.2345 667.2756 590.24196 528.0828 443.31323 L 470.8585 386.08893 C 469.6927 415.86687 474.91175 424.9539 460.791 453.38075 C 432.3641 467.5015 423.2771 462.28247 393.49916 463.44826 Z" stroke="black" stroke-linecap="round" stroke-linejoin="round" stroke-width="2"/>
      </g>
      <g id="Line_22">
        <path d="M 294.92456 306.70905 L 297.40884 302.6265 C 298.9413 300.10814 300.76925 297.78194 302.8538 295.6974 L 304.04736 294.50383 C 306.9112 291.64 310.27202 289.32087 313.96575 287.6597 L 314.28897 287.51433" stroke="black" stroke-linecap="round" stroke-linejoin="round" stroke-width="5"/>
      </g>
      <g id="Line_21">
        <path d="M 279.62153 288.53055 L 279.6942 286.18788 C 279.81623 282.25468 281.4332 278.51597 284.21574 275.73345 L 284.21574 275.73345 C 286.9293 273.0199 290.79946 271.8068 294.57644 272.48588 L 295.9958 272.74108" stroke="black" stroke-linecap="round" stroke-linejoin="round" stroke-width="4"/>
      </g>
      <g id="Graphic_20">
        <path d="M 648.3721 592.0904 C 669.1256 585.2195 680.3797 596.4735 673.5087 617.2271 C 666.6379 637.9806 644.2439 660.37455 623.4904 667.2454 C 602.7369 674.11635 591.4828 662.8623 598.3538 642.10875 C 605.2246 621.3552 627.6186 598.9613 648.3721 592.0904" fill="#ccc"/>
        <path d="M 648.3721 592.0904 C 669.1256 585.2195 680.3797 596.4735 673.5087 617.2271 C 666.6379 637.9806 644.2439 660.37455 623.4904 667.2454 C 602.7369 674.11635 591.4828 662.8623 598.3538 642.10875 C 605.2246 621.3552 627.6186 598.9613 648.3721 592.0904" stroke="black" stroke-linecap="round" stroke-linejoin="round" stroke-width="3"/>
      </g>
      <g id="Graphic_19">
        <path d="M 642.8905 608.36805 C 654.6542 604.5245 661.07466 610.945 657.2311 622.7086 C 653.3876 634.47225 640.7356 647.1243 628.972 650.9678 C 617.20834 654.8113 610.78785 648.3908 614.6314 636.6272 C 618.4749 624.8636 631.1269 612.21154 642.8905 608.36805" fill="#333"/>
        <path d="M 642.8905 608.36805 C 654.6542 604.5245 661.07466 610.945 657.2311 622.7086 C 653.3876 634.47225 640.7356 647.1243 628.972 650.9678 C 617.20834 654.8113 610.78785 648.3908 614.6314 636.6272 C 618.4749 624.8636 631.1269 612.21154 642.8905 608.36805" stroke="black" stroke-linecap="round" stroke-linejoin="round" stroke-width="3"/>
      </g>
    </g>
  </g>
</svg>
