<?xml version="1.0" encoding="UTF-8" standalone="no"?>
<!DOCTYPE svg PUBLIC "-//W3C//DTD SVG 1.1//EN" "http://www.w3.org/Graphics/SVG/1.1/DTD/svg11.dtd">
<svg xmlns="http://www.w3.org/2000/svg" version="1.1" xmlns:dc="http://purl.org/dc/elements/1.1/" xmlns:xl="http://www.w3.org/1999/xlink" viewBox="0 0 850.394 850.394" width="850.394" height="850.394">
  <defs/>
  <metadata> Produced by OmniGraffle 7.9.4 
    <dc:date>2019-03-10 22:21:59 +0000</dc:date>
  </metadata>
  <g id="Mixer" fill="none" stroke-opacity="1" fill-opacity="1" stroke-dasharray="none" stroke="none">
    <title>Mixer</title>
    <g id="Mixer: Layer 1">
      <title>Layer 1</title>
      <g id="Graphic_36">
        <rect x="46.697" y="45.697" width="757" height="759" fill="#c0c0ff"/>
        <rect x="46.697" y="45.697" width="757" height="759" stroke="black" stroke-linecap="round" stroke-linejoin="round" stroke-width="5"/>
      </g>
      <g id="Graphic_3">
        <rect x="125.6097" y="78.697" width="17.506098" height="693" fill="black"/>
        <rect x="125.6097" y="78.697" width="17.506098" height="693" stroke="black" stroke-linecap="round" stroke-linejoin="round" stroke-width="1"/>
      </g>
      <g id="Graphic_4">
        <path d="M 102.6355 198.32048 L 166.09 198.32048 L 159.16575 293.82048 L 166.09 389.32048 L 102.6355 389.32048 L 109.16575 295.82048 Z" fill="white"/>
        <path d="M 102.6355 198.32048 L 166.09 198.32048 L 159.16575 293.82048 L 166.09 389.32048 L 102.6355 389.32048 L 109.16575 295.82048 Z" stroke="black" stroke-linecap="round" stroke-linejoin="round" stroke-width="5"/>
      </g>
      <g id="Graphic_6">
        <path d="M 161.16575 296.44395 L 161.16575 292.98458 L 131.44471 293.94894 L 110.09 292.98458 L 110.09 296.44395 Z" fill="black"/>
        <path d="M 161.16575 296.44395 L 161.16575 292.98458 L 131.44471 293.94894 L 110.09 292.98458 L 110.09 296.44395 Z" stroke="black" stroke-linecap="round" stroke-linejoin="round" stroke-width="1"/>
      </g>
      <g id="Graphic_7">
        <circle cx="207.2208" cy="733.1355" r="19.0615285639126" fill="#00b600"/>
        <circle cx="207.2208" cy="733.1355" r="19.0615285639126" stroke="black" stroke-linecap="round" stroke-linejoin="round" stroke-width="5"/>
      </g>
      <g id="Graphic_8">
        <circle cx="207.2208" cy="682.66625" r="19.0615285639127" fill="lime"/>
        <circle cx="207.2208" cy="682.66625" r="19.0615285639127" stroke="black" stroke-linecap="round" stroke-linejoin="round" stroke-width="5"/>
      </g>
      <g id="Graphic_9">
        <circle cx="207.2208" cy="632.197" r="19.0615285639126" fill="#e9e700"/>
        <circle cx="207.2208" cy="632.197" r="19.0615285639126" stroke="black" stroke-linecap="round" stroke-linejoin="round" stroke-width="5"/>
      </g>
      <g id="Graphic_10">
        <circle cx="207.2208" cy="581.72775" r="19.0615285639127" fill="#fffc75"/>
        <circle cx="207.2208" cy="581.72775" r="19.0615285639127" stroke="black" stroke-linecap="round" stroke-linejoin="round" stroke-width="5"/>
      </g>
      <g id="Graphic_11">
        <circle cx="207.2208" cy="531.2585" r="19.0615285639126" fill="red"/>
        <circle cx="207.2208" cy="531.2585" r="19.0615285639126" stroke="black" stroke-linecap="round" stroke-linejoin="round" stroke-width="5"/>
      </g>
      <g id="Graphic_12">
        <rect x="302.6097" y="78.697" width="17.506098" height="693" fill="black"/>
        <rect x="302.6097" y="78.697" width="17.506098" height="693" stroke="black" stroke-linecap="round" stroke-linejoin="round" stroke-width="1"/>
      </g>
      <g id="Graphic_13">
        <path d="M 279.6355 435.7585 L 343.09 435.7585 L 336.16575 531.2585 L 343.09 626.7585 L 279.6355 626.7585 L 286.16575 533.2585 Z" fill="white"/>
        <path d="M 279.6355 435.7585 L 343.09 435.7585 L 336.16575 531.2585 L 343.09 626.7585 L 279.6355 626.7585 L 286.16575 533.2585 Z" stroke="black" stroke-linecap="round" stroke-linejoin="round" stroke-width="5"/>
      </g>
      <g id="Graphic_14">
        <title>Bézier</title>
        <path d="M 338.16575 533.882 L 338.16575 530.4226 L 308.4447 531.38696 L 287.09 530.4226 L 287.09 533.882 Z" fill="black"/>
        <path d="M 338.16575 533.882 L 338.16575 530.4226 L 308.4447 531.38696 L 287.09 530.4226 L 287.09 533.882 Z" stroke="black" stroke-linecap="round" stroke-linejoin="round" stroke-width="1"/>
      </g>
      <g id="Graphic_15">
        <circle cx="384.2208" cy="733.1355" r="19.0615285639127" fill="#00b600"/>
        <circle cx="384.2208" cy="733.1355" r="19.0615285639127" stroke="black" stroke-linecap="round" stroke-linejoin="round" stroke-width="5"/>
      </g>
      <g id="Graphic_16">
        <circle cx="384.2208" cy="682.66625" r="19.0615285639126" fill="lime"/>
        <circle cx="384.2208" cy="682.66625" r="19.0615285639126" stroke="black" stroke-linecap="round" stroke-linejoin="round" stroke-width="5"/>
      </g>
      <g id="Graphic_17">
        <circle cx="384.2208" cy="632.197" r="19.0615285639127" fill="#e9e700"/>
        <circle cx="384.2208" cy="632.197" r="19.0615285639127" stroke="black" stroke-linecap="round" stroke-linejoin="round" stroke-width="5"/>
      </g>
      <g id="Graphic_18">
        <circle cx="384.2208" cy="581.72775" r="19.0615285639126" fill="#bab953"/>
        <circle cx="384.2208" cy="581.72775" r="19.0615285639126" stroke="black" stroke-linecap="round" stroke-linejoin="round" stroke-width="5"/>
      </g>
      <g id="Graphic_19">
        <circle cx="384.2208" cy="531.2585" r="19.0615285639126" fill="#b40000"/>
        <circle cx="384.2208" cy="531.2585" r="19.0615285639126" stroke="black" stroke-linecap="round" stroke-linejoin="round" stroke-width="5"/>
      </g>
      <g id="Graphic_20">
        <rect x="479.6097" y="78.697" width="17.506098" height="693" fill="black"/>
        <rect x="479.6097" y="78.697" width="17.506098" height="693" stroke="black" stroke-linecap="round" stroke-linejoin="round" stroke-width="1"/>
      </g>
      <g id="Graphic_21">
        <path d="M 456.6355 291.197 L 520.09 291.197 L 513.16575 386.697 L 520.09 482.197 L 456.6355 482.197 L 463.16575 388.697 Z" fill="white"/>
        <path d="M 456.6355 291.197 L 520.09 291.197 L 513.16575 386.697 L 520.09 482.197 L 456.6355 482.197 L 463.16575 388.697 Z" stroke="black" stroke-linecap="round" stroke-linejoin="round" stroke-width="5"/>
      </g>
      <g id="Graphic_22">
        <path d="M 515.16575 389.32048 L 515.16575 385.8611 L 485.4447 386.82546 L 464.09 385.8611 L 464.09 389.32048 Z" fill="black"/>
        <path d="M 515.16575 389.32048 L 515.16575 385.8611 L 485.4447 386.82546 L 464.09 385.8611 L 464.09 389.32048 Z" stroke="black" stroke-linecap="round" stroke-linejoin="round" stroke-width="1"/>
      </g>
      <g id="Graphic_23">
        <circle cx="561.2208" cy="733.1355" r="19.0615285639126" fill="#00b600"/>
        <circle cx="561.2208" cy="733.1355" r="19.0615285639126" stroke="black" stroke-linecap="round" stroke-linejoin="round" stroke-width="5"/>
      </g>
      <g id="Graphic_24">
        <circle cx="561.2208" cy="682.66625" r="19.0615285639126" fill="lime"/>
        <circle cx="561.2208" cy="682.66625" r="19.0615285639126" stroke="black" stroke-linecap="round" stroke-linejoin="round" stroke-width="5"/>
      </g>
      <g id="Graphic_25">
        <circle cx="561.2208" cy="632.197" r="19.0615285639126" fill="#e9e700"/>
        <circle cx="561.2208" cy="632.197" r="19.0615285639126" stroke="black" stroke-linecap="round" stroke-linejoin="round" stroke-width="5"/>
      </g>
      <g id="Graphic_26">
        <circle cx="561.2208" cy="581.72775" r="19.0615285639126" fill="#fffc75"/>
        <circle cx="561.2208" cy="581.72775" r="19.0615285639126" stroke="black" stroke-linecap="round" stroke-linejoin="round" stroke-width="5"/>
      </g>
      <g id="Graphic_27">
        <circle cx="561.2208" cy="531.2585" r="19.0615285639127" fill="#d20000"/>
        <circle cx="561.2208" cy="531.2585" r="19.0615285639127" stroke="black" stroke-linecap="round" stroke-linejoin="round" stroke-width="5"/>
      </g>
      <g id="Graphic_28">
        <rect x="656.6097" y="78.697" width="17.506098" height="693" fill="black"/>
        <rect x="656.6097" y="78.697" width="17.506098" height="693" stroke="black" stroke-linecap="round" stroke-linejoin="round" stroke-width="1"/>
      </g>
      <g id="Graphic_29">
        <path d="M 638.55975 549 L 702.01425 549 L 695.09 644.5 L 702.01425 740 L 638.55975 740 L 645.09 646.5 Z" fill="white"/>
        <path d="M 638.55975 549 L 702.01425 549 L 695.09 644.5 L 702.01425 740 L 638.55975 740 L 645.09 646.5 Z" stroke="black" stroke-linecap="round" stroke-linejoin="round" stroke-width="5"/>
      </g>
      <g id="Graphic_30">
        <path d="M 697.09 647.1235 L 697.09 643.6641 L 667.369 644.6285 L 646.01425 643.6641 L 646.01425 647.1235 Z" fill="black"/>
        <path d="M 697.09 647.1235 L 697.09 643.6641 L 667.369 644.6285 L 646.01425 643.6641 L 646.01425 647.1235 Z" stroke="black" stroke-linecap="round" stroke-linejoin="round" stroke-width="1"/>
      </g>
      <g id="Graphic_31">
        <circle cx="738.2208" cy="733.1355" r="19.0615285639126" fill="#00b600"/>
        <circle cx="738.2208" cy="733.1355" r="19.0615285639126" stroke="black" stroke-linecap="round" stroke-linejoin="round" stroke-width="5"/>
      </g>
      <g id="Graphic_32">
        <circle cx="738.2208" cy="682.66625" r="19.0615285639126" fill="green"/>
        <circle cx="738.2208" cy="682.66625" r="19.0615285639126" stroke="black" stroke-linecap="round" stroke-linejoin="round" stroke-width="5"/>
      </g>
      <g id="Graphic_33">
        <circle cx="738.2208" cy="632.197" r="19.0615285639127" fill="#a8a600"/>
        <circle cx="738.2208" cy="632.197" r="19.0615285639127" stroke="black" stroke-linecap="round" stroke-linejoin="round" stroke-width="5"/>
      </g>
      <g id="Graphic_34">
        <circle cx="738.2208" cy="581.72775" r="19.0615285639126" fill="#a3a249"/>
        <circle cx="738.2208" cy="581.72775" r="19.0615285639126" stroke="black" stroke-linecap="round" stroke-linejoin="round" stroke-width="5"/>
      </g>
      <g id="Graphic_35">
        <circle cx="738.2208" cy="531.2585" r="19.0615285639126" fill="#6c0000"/>
        <circle cx="738.2208" cy="531.2585" r="19.0615285639126" stroke="black" stroke-linecap="round" stroke-linejoin="round" stroke-width="5"/>
      </g>
    </g>
  </g>
</svg>
