<?xml version="1.0" encoding="UTF-8" standalone="no"?>
<!DOCTYPE svg PUBLIC "-//W3C//DTD SVG 1.1//EN" "http://www.w3.org/Graphics/SVG/1.1/DTD/svg11.dtd">
<svg xmlns="http://www.w3.org/2000/svg" version="1.1" xmlns:dc="http://purl.org/dc/elements/1.1/" xmlns:xl="http://www.w3.org/1999/xlink" viewBox="0 0 850.394 850.394" width="850.394" height="850.394">
  <defs/>
  <metadata> Produced by OmniGraffle 7.9.4 
    <dc:date>2019-03-10 20:27:05 +0000</dc:date>
  </metadata>
  <g id="mono" fill="none" stroke-opacity="1" fill-opacity="1" stroke-dasharray="none" stroke="none">
    <title>mono</title>
    <g id="mono: Layer 1">
      <title>Layer 1</title>
      <g id="Graphic_2">
        <path d="M 570.68406 279.70994 C 651.0348 360.06025 651.0348 490.33375 570.68406 570.68406 C 490.33375 651.0348 360.06025 651.0348 279.70994 570.68406 C 199.35922 490.33375 199.35922 360.06025 279.70994 279.70994 C 360.06025 199.35922 490.33375 199.35922 570.68406 279.70994" fill="#4040ff"/>
        <path d="M 570.68406 279.70994 C 651.0348 360.06025 651.0348 490.33375 570.68406 570.68406 C 490.33375 651.0348 360.06025 651.0348 279.70994 570.68406 C 199.35922 490.33375 199.35922 360.06025 279.70994 279.70994 C 360.06025 199.35922 490.33375 199.35922 570.68406 279.70994" stroke="black" stroke-linecap="round" stroke-linejoin="round" stroke-width="1"/>
      </g>
      <g id="Graphic_4">
        <circle cx="425.197" cy="425.197" r="158.52050070913" fill="black"/>
        <circle cx="425.197" cy="425.197" r="158.52050070913" stroke="#fffc00" stroke-linecap="round" stroke-linejoin="round" stroke-width="12"/>
      </g>
    </g>
  </g>
</svg>
