<?xml version="1.0" encoding="UTF-8" standalone="no"?>
<!DOCTYPE svg PUBLIC "-//W3C//DTD SVG 1.1//EN" "http://www.w3.org/Graphics/SVG/1.1/DTD/svg11.dtd">
<svg xmlns:dc="http://purl.org/dc/elements/1.1/" xmlns="http://www.w3.org/2000/svg" version="1.1" xmlns:xl="http://www.w3.org/1999/xlink" viewBox="0 0 850.394 850.394" width="850.394" height="850.394">
  <defs/>
  <metadata> Produced by OmniGraffle 7.9.4 
    <dc:date>2019-03-30 21:11:12 +0000</dc:date>
  </metadata>
  <g id="neopixel" stroke-dasharray="none" stroke-opacity="1" fill-opacity="1" fill="none" stroke="none">
    <title>neopixel</title>
    <g id="neopixel: Layer 2">
      <title>Layer 2</title>
      <g id="Graphic_23">
        <path d="M 647.53465 213.21244 C 760.0061 325.68335 760.0061 508.0346 647.53465 620.5055 C 535.06374 732.977 352.7125 732.977 240.2416 620.5055 C 127.77011 508.0346 127.77011 325.68335 240.2416 213.21244 C 352.7125 100.74095 535.06374 100.74095 647.53465 213.21244" fill="#1e1e1e"/>
        <path d="M 647.53465 213.21244 C 760.0061 325.68335 760.0061 508.0346 647.53465 620.5055 C 535.06374 732.977 352.7125 732.977 240.2416 620.5055 C 127.77011 508.0346 127.77011 325.68335 240.2416 213.21244 C 352.7125 100.74095 535.06374 100.74095 647.53465 213.21244" stroke="black" stroke-linecap="round" stroke-linejoin="round" stroke-width=".5"/>
      </g>
      <g id="Graphic_22">
        <path d="M 624.34616 236.96398 C 724.9438 337.56113 724.9438 500.6612 624.34616 601.25836 C 523.749 701.856 360.64894 701.856 260.0518 601.25836 C 159.45412 500.6612 159.45412 337.56113 260.0518 236.96398 C 360.64894 136.36632 523.749 136.36632 624.34616 236.96398" fill="#333"/>
        <path d="M 624.34616 236.96398 C 724.9438 337.56113 724.9438 500.6612 624.34616 601.25836 C 523.749 701.856 360.64894 701.856 260.0518 601.25836 C 159.45412 500.6612 159.45412 337.56113 260.0518 236.96398 C 360.64894 136.36632 523.749 136.36632 624.34616 236.96398" stroke="black" stroke-linecap="round" stroke-linejoin="round" stroke-width=".5"/>
      </g>
      <g id="Graphic_21">
        <path d="M 603.9992 245.9714 C 690.60505 332.5768 690.60505 472.99177 603.9992 559.5972 C 517.3938 646.203 376.97883 646.203 290.37343 559.5972 C 203.76759 472.99177 203.76759 332.5768 290.37343 245.9714 C 376.97883 159.36555 517.3938 159.36555 603.9992 245.9714" fill="#666"/>
        <path d="M 603.9992 245.9714 C 690.60505 332.5768 690.60505 472.99177 603.9992 559.5972 C 517.3938 646.203 376.97883 646.203 290.37343 559.5972 C 203.76759 472.99177 203.76759 332.5768 290.37343 245.9714 C 376.97883 159.36555 517.3938 159.36555 603.9992 245.9714" stroke="black" stroke-linecap="round" stroke-linejoin="round" stroke-width=".5"/>
      </g>
      <g id="Graphic_20">
        <circle cx="444.7133" cy="395.38463" r="192.191064130583" fill="#999"/>
        <circle cx="444.7133" cy="395.38463" r="192.191064130583" stroke="black" stroke-linecap="round" stroke-linejoin="round" stroke-width=".5"/>
      </g>
      <g id="Graphic_19">
        <circle cx="440.2283" cy="390.01175" r="159.818124754628" fill="#ccc"/>
        <circle cx="440.2283" cy="390.01175" r="159.818124754628" stroke="black" stroke-linecap="round" stroke-linejoin="round" stroke-width=".5"/>
      </g>
      <g id="Graphic_15">
        <path d="M 144.9171 469.9965 C 174.25869 439.49605 175.99307 451.2416 217.07802 441.08125 C 258.16312 430.92076 255.42926 431.43927 255.42926 431.43927 L 305.4663 419.2172 C 305.4663 419.2172 256.4357 437.4373 227.0939 467.9378 C 197.75232 498.43824 207.2652 496.665 166.18024 506.8253 C 125.09514 516.9858 115.57532 500.497 144.9171 469.9965 Z" fill="aqua"/>
        <path d="M 144.9171 469.9965 C 174.25869 439.49605 175.99307 451.2416 217.07802 441.08125 C 258.16312 430.92076 255.42926 431.43927 255.42926 431.43927 L 305.4663 419.2172 C 305.4663 419.2172 256.4357 437.4373 227.0939 467.9378 C 197.75232 498.43824 207.2652 496.665 166.18024 506.8253 C 125.09514 516.9858 115.57532 500.497 144.9171 469.9965 Z" stroke="black" stroke-linecap="round" stroke-linejoin="round" stroke-width="8"/>
      </g>
      <g id="Graphic_11">
        <circle cx="442.7761" cy="390.7066" r="148.005480751025" fill="white"/>
        <circle cx="442.7761" cy="390.7066" r="148.005480751025" stroke="black" stroke-linecap="round" stroke-linejoin="round" stroke-width=".5"/>
      </g>
      <g id="Graphic_33">
        <rect x="323.8076" y="270.51175" width="237.93707" height="239" fill="#333"/>
        <rect x="323.8076" y="270.51175" width="237.93707" height="239" stroke="black" stroke-linecap="round" stroke-linejoin="round" stroke-width="7"/>
      </g>
      <g id="Graphic_32">
        <rect x="338.31695" y="284.05037" width="199.69384" height="199.69384" fill="#666"/>
        <rect x="338.31695" y="284.05037" width="199.69384" height="199.69384" stroke="black" stroke-linecap="round" stroke-linejoin="round" stroke-width="7"/>
      </g>
      <g id="Line_30">
        <line x1="440.5627" y1="295.36976" x2="440.5627" y2="377.90795" stroke="black" stroke-linecap="round" stroke-linejoin="round" stroke-width="1"/>
      </g>
      <g id="Line_29">
        <line x1="512.0429" y1="419.17704" x2="440.5627" y2="377.90795" stroke="black" stroke-linecap="round" stroke-linejoin="round" stroke-width="1"/>
      </g>
      <g id="Line_28">
        <line x1="369.41564" y1="419.17704" x2="440.8958" y2="377.90795" stroke="black" stroke-linecap="round" stroke-linejoin="round" stroke-width="1"/>
      </g>
      <g id="Graphic_27">
        <path d="M 441.2241 295.4174 L 440.66364 378.0763 L 512.6105 419.3791 L 522.9362 387.73584 L 520.2715 354.09403 L 505.61564 327.11397 L 488.2951 310.12652 L 463.97974 298.80156 Z" fill="red"/>
        <path d="M 441.2241 295.4174 L 440.66364 378.0763 L 512.6105 419.3791 L 522.9362 387.73584 L 520.2715 354.09403 L 505.61564 327.11397 L 488.2951 310.12652 L 463.97974 298.80156 Z" stroke="black" stroke-linecap="round" stroke-linejoin="round" stroke-width="17"/>
      </g>
      <g id="Graphic_26">
        <path d="M 512.27415 419.16684 L 440.95914 378.4094 L 369.21644 420.06577 L 391.45747 444.82973 L 421.9245 459.34294 L 452.6178 460.14065 L 475.98964 453.63435 L 490.3945 445.51653 L 497.95503 438.2391 Z" fill="lime"/>
        <path d="M 512.27415 419.16684 L 440.95914 378.4094 L 369.21644 420.06577 L 391.45747 444.82973 L 421.9245 459.34294 L 452.6178 460.14065 L 475.98964 453.63435 L 490.3945 445.51653 L 497.95503 438.2391 Z" stroke="black" stroke-linecap="round" stroke-linejoin="round" stroke-width="17"/>
      </g>
      <g id="Graphic_25">
        <path d="M 369.233 419.63737 L 440.2434 378.37884 L 440.0393 295.41965 L 407.47255 302.29897 L 379.67024 321.42757 L 363.63274 347.60993 L 357.58144 371.10367 L 359.9314 397.8239 Z" fill="blue"/>
        <path d="M 369.233 419.63737 L 440.2434 378.37884 L 440.0393 295.41965 L 407.47255 302.29897 L 379.67024 321.42757 L 363.63274 347.60993 L 357.58144 371.10367 L 359.9314 397.8239 Z" stroke="black" stroke-linecap="round" stroke-linejoin="round" stroke-width="17"/>
      </g>
      <g id="Graphic_24">
        <circle cx="440.72926" cy="378.14193" r="82.7722965953738" stroke="black" stroke-linecap="round" stroke-linejoin="round" stroke-width="18"/>
      </g>
      <g id="Graphic_31">
        <circle cx="438.16387" cy="383.8973" r="20.8647450945812" fill="white"/>
        <circle cx="438.16387" cy="383.8973" r="20.8647450945812" stroke="black" stroke-linecap="round" stroke-linejoin="round" stroke-width="14"/>
      </g>
      <g id="Graphic_14">
        <path d="M 142.28534 249.04235 C 189.2774 254.72596 182.78833 259.48083 226.32645 278.05472 C 269.86482 296.62863 267.0755 295.3413 267.0755 295.3413 L 319.9962 318.0119 C 319.9962 318.0119 263.86928 297.83377 216.877 292.15007 C 169.88493 286.46647 179.56959 290.95603 136.03146 272.38215 C 92.4931 253.80823 95.29305 243.35865 142.28534 249.04235 Z" fill="red"/>
        <path d="M 142.28534 249.04235 C 189.2774 254.72596 182.78833 259.48083 226.32645 278.05472 C 269.86482 296.62863 267.0755 295.3413 267.0755 295.3413 L 319.9962 318.0119 C 319.9962 318.0119 263.86928 297.83377 216.877 292.15007 C 169.88493 286.46647 179.56959 290.95603 136.03146 272.38215 C 92.4931 253.80823 95.29305 243.35865 142.28534 249.04235 Z" stroke="black" stroke-linecap="round" stroke-linejoin="round" stroke-width="8"/>
      </g>
      <g id="Graphic_13">
        <path d="M 287.31374 145.935 C 316.48583 182.9719 308.48667 181.79857 325.9755 225.58079 C 343.4645 269.3632 342.41387 266.48897 342.41387 266.48897 L 363.6042 319.77323 C 363.6042 319.77323 338.35894 266.01104 309.18677 228.97392 C 280.01468 191.93702 283.64832 201.93065 266.15947 158.14843 C 248.67048 114.36602 258.14156 108.89789 287.31374 145.935 Z" fill="lime"/>
        <path d="M 287.31374 145.935 C 316.48583 182.9719 308.48667 181.79857 325.9755 225.58079 C 343.4645 269.3632 342.41387 266.48897 342.41387 266.48897 L 363.6042 319.77323 C 363.6042 319.77323 338.35894 266.01104 309.18677 228.97392 C 280.01468 191.93702 283.64832 201.93065 266.15947 158.14843 C 248.67048 114.36602 258.14156 108.89789 287.31374 145.935 Z" stroke="black" stroke-linecap="round" stroke-linejoin="round" stroke-width="8"/>
      </g>
      <g id="Graphic_18">
        <path d="M 604.2138 169.92091 C 588.50325 214.5641 583.9079 206.13714 553.101 242.06446 C 522.2941 277.992 524.38666 275.73004 524.38666 275.73004 L 486.82605 319.3614 C 486.82605 319.3614 521.94137 271.50788 537.65206 226.8645 C 553.3626 182.22133 546.07276 190.06685 576.8796 154.13953 C 607.6866 118.21198 619.9245 125.27754 604.2138 169.92091 Z" fill="#c0c0ff"/>
        <path d="M 604.2138 169.92091 C 588.50325 214.5641 583.9079 206.13714 553.101 242.06446 C 522.2941 277.992 524.38666 275.73004 524.38666 275.73004 L 486.82605 319.3614 C 486.82605 319.3614 521.94137 271.50788 537.65206 226.8645 C 553.3626 182.22133 546.07276 190.06685 576.8796 154.13953 C 607.6866 118.21198 619.9245 125.27754 604.2138 169.92091 Z" stroke="black" stroke-linecap="round" stroke-linejoin="round" stroke-width="8"/>
      </g>
      <g id="Graphic_17">
        <path d="M 726.6108 354.30665 C 681.4109 373.4012 684.8161 365.9243 636.12456 371.98787 C 587.4328 378.05155 590.6021 377.74816 590.6021 377.74816 L 531.3693 385.03632 C 531.3693 385.03632 592.21135 373.9288 637.4115 354.83424 C 682.6114 335.7397 671.5971 336.7757 720.2886 330.71213 C 768.9804 324.64845 771.8109 335.21207 726.6108 354.30665 Z" fill="#ff8080"/>
        <path d="M 726.6108 354.30665 C 681.4109 373.4012 684.8161 365.9243 636.12456 371.98787 C 587.4328 378.05155 590.6021 377.74816 590.6021 377.74816 L 531.3693 385.03632 C 531.3693 385.03632 592.21135 373.9288 637.4115 354.83424 C 682.6114 335.7397 671.5971 336.7757 720.2886 330.71213 C 768.9804 324.64845 771.8109 335.21207 726.6108 354.30665 Z" stroke="black" stroke-linecap="round" stroke-linejoin="round" stroke-width="8"/>
      </g>
      <g id="Graphic_12">
        <path d="M 690.4997 689.7552 C 634.7128 651.2494 647.9031 648.1949 609.39726 592.408 C 570.89115 536.62086 573.2616 540.34206 573.2616 540.34206 L 526.5508 472.39085 C 526.5508 472.39085 579.9206 538.6166 635.70775 577.1227 C 691.4947 615.6285 683.28396 602.67824 721.7898 658.4652 C 760.2959 714.2523 746.28685 728.2613 690.4997 689.7552 Z" fill="lime"/>
        <path d="M 690.4997 689.7552 C 634.7128 651.2494 647.9031 648.1949 609.39726 592.408 C 570.89115 536.62086 573.2616 540.34206 573.2616 540.34206 L 526.5508 472.39085 C 526.5508 472.39085 579.9206 538.6166 635.70775 577.1227 C 691.4947 615.6285 683.28396 602.67824 721.7898 658.4652 C 760.2959 714.2523 746.28685 728.2613 690.4997 689.7552 Z" stroke="black" stroke-linecap="round" stroke-linejoin="round" stroke-width="8"/>
      </g>
      <g id="Graphic_16">
        <path d="M 294.55276 703.354 C 303.2948 644.94765 307.72093 652.6637 329.35327 597.71126 C 350.98565 542.75853 349.50073 546.28526 349.50073 546.28526 L 375.8905 479.48453 C 375.8905 479.48453 351.8332 550.0887 343.091 608.49534 C 334.34895 666.9017 339.5249 654.6555 317.89255 709.6079 C 296.26017 764.5606 285.8106 761.7607 294.55276 703.354 Z" fill="white"/>
        <path d="M 294.55276 703.354 C 303.2948 644.94765 307.72093 652.6637 329.35327 597.71126 C 350.98565 542.75853 349.50073 546.28526 349.50073 546.28526 L 375.8905 479.48453 C 375.8905 479.48453 351.8332 550.0887 343.091 608.49534 C 334.34895 666.9017 339.5249 654.6555 317.89255 709.6079 C 296.26017 764.5606 285.8106 761.7607 294.55276 703.354 Z" stroke="black" stroke-linecap="round" stroke-linejoin="round" stroke-width="8"/>
      </g>
    </g>
    <g id="neopixel: Layer 1">
      <title>Layer 1</title>
      <g id="Graphic_3"/>
    </g>
  </g>
</svg>
