<?xml version="1.0" encoding="UTF-8" standalone="no"?>
<!DOCTYPE svg PUBLIC "-//W3C//DTD SVG 1.1//EN" "http://www.w3.org/Graphics/SVG/1.1/DTD/svg11.dtd">
<svg xmlns:dc="http://purl.org/dc/elements/1.1/" xmlns="http://www.w3.org/2000/svg" version="1.1" xmlns:xl="http://www.w3.org/1999/xlink" viewBox="0 0 850.394 850.394" width="850.394" height="850.394">
  <defs/>
  <metadata> Produced by OmniGraffle 7.9.4 
    <dc:date>2019-03-30 18:48:29 +0000</dc:date>
  </metadata>
  <g id="no-input_mixer" stroke-dasharray="none" stroke-opacity="1" fill-opacity="1" fill="none" stroke="none">
    <title>no-input mixer</title>
    <g id="no-input_mixer: Layer 1">
      <title>Layer 1</title>
      <g id="Line_49">
        <path d="M 485.672 478.55313 L 477.37827 218.11373 C 476.89353 202.8921 479.91153 187.76252 486.1995 173.89189 L 487.138 171.82159 C 491.9796 161.14156 504.30224 156.08086 515.25254 160.27544 L 515.25254 160.27544 C 527.2672 164.87773 540.8369 162.53875 550.6175 154.17967 L 581.30514 127.95206 C 604.79476 107.87636 640.1114 110.64388 660.1871 134.1335 C 661.28166 135.41416 662.3178 136.7436 663.2924 138.11777 L 684.7589 168.38621 C 717.1858 214.10906 710.1879 276.87745 668.4872 314.3359 L 485.672 478.55313" stroke="#b34400" stroke-linecap="round" stroke-linejoin="round" stroke-width="14"/>
      </g>
      <g id="Line_46">
        <path d="M 314.5809 378.06055 L 385.5034 77.48129 C 388.931 62.95464 397.5053 50.1616 409.6392 41.470163 L 411.4871 40.146493 C 421.02005 33.3181 434.22214 35.096733 441.6081 44.204497 L 441.6081 44.204497 C 450.3565 54.992306 458.1138 66.547355 464.78577 78.72915 L 473.76665 95.12663 C 486.3824 118.16072 502.0325 139.39745 520.29787 158.26812 L 543.1432 181.87052 C 563.82616 203.23893 563.2705 237.32832 541.9021 258.0113 C 538.12825 261.6641 533.8403 264.74512 529.1744 267.1565 L 314.5809 378.06055" stroke="#b1001c" stroke-linecap="round" stroke-linejoin="round" stroke-width="14"/>
      </g>
      <g id="Graphic_50">
        <path d="M 728 354 L 728 404 L 497 770 L 497 752 L 86 517 L 89 548 L 497 771 L 498 716 Z" fill="#8080ff"/>
        <path d="M 728 354 L 728 404 L 497 770 L 497 752 L 86 517 L 89 548 L 497 771 L 498 716 Z" stroke="black" stroke-linecap="round" stroke-linejoin="round" stroke-width="4"/>
      </g>
      <g id="Graphic_36">
        <path d="M 318.58325 117.78173 L 727.23695 353.71805 L 496.07016 754.1107 L 87.41646 518.17436 Z" fill="#c0c0ff"/>
        <path d="M 318.58325 117.78173 L 727.23695 353.71805 L 496.07016 754.1107 L 87.41646 518.17436 Z" stroke="black" stroke-linecap="round" stroke-linejoin="round" stroke-width="5"/>
      </g>
      <g id="Graphic_51">
        <path d="M 303 229 L 309.7004 213.27412 C 309.7004 211.32403 312.8106 208.82892 326.00498 208.82892 C 339.19935 208.82892 351 205.04991 351 207 L 347 234 C 347 235.9501 339.67424 246.73012 326.47987 246.73012 C 313.2855 246.73012 303 230.9501 303 229 Z" fill="#dadada"/>
        <path d="M 303 229 L 309.7004 213.27412 C 309.7004 211.32403 312.8106 208.82892 326.00498 208.82892 C 339.19935 208.82892 351 205.04991 351 207 L 347 234 C 347 235.9501 339.67424 246.73012 326.47987 246.73012 C 313.2855 246.73012 303 230.9501 303 229 Z" stroke="black" stroke-linecap="round" stroke-linejoin="round" stroke-width="6"/>
      </g>
      <g id="Graphic_52">
        <path d="M 390 279 L 400.09022 265.2696 C 400.59494 263.38595 405.9092 262.22677 425.7141 267.53347 C 445.519 272.84018 445.44644 274.67724 444.9417 276.56088 L 440 297 C 439.4953 298.88364 436.42225 309.64093 416.61736 304.33422 C 396.81246 299.0275 389.4953 280.88364 390 279 Z" fill="#dadada"/>
        <path d="M 390 279 L 400.09022 265.2696 C 400.59494 263.38595 405.9092 262.22677 425.7141 267.53347 C 445.519 272.84018 445.44644 274.67724 444.9417 276.56088 L 440 297 C 439.4953 298.88364 436.42225 309.64093 416.61736 304.33422 C 396.81246 299.0275 389.4953 280.88364 390 279 Z" stroke="black" stroke-linecap="round" stroke-linejoin="round" stroke-width="6"/>
      </g>
      <g id="Line_45">
        <path d="M 401.57415 162.8098 C 403.04626 156.46078 405.14583 150.25212 407.8542 144.27771 L 408.79273 142.20741 C 413.6343 131.52738 425.95695 126.46668 436.90726 130.66126 L 436.90726 130.66126 C 449.8775 135.62958 462.37306 141.75788 474.24204 148.97165 L 490.21845 158.68184 C 512.66105 172.32207 536.8328 182.88857 562.0864 190.09837 L 593.6722 199.11599 C 614.2145 204.98073 626.11305 226.38788 620.2483 246.93018 C 618.1459 254.2943 613.9048 260.86863 608.0624 265.8201 L 596.6889 275.45933" stroke="black" stroke-linecap="round" stroke-linejoin="round" stroke-width="14"/>
      </g>
      <g id="Graphic_7">
        <circle cx="196.3763" cy="529.574" r="11.8819207328175" fill="#00b600"/>
        <circle cx="196.3763" cy="529.574" r="11.8819207328175" stroke="black" stroke-linecap="round" stroke-linejoin="round" stroke-width="5"/>
      </g>
      <g id="Graphic_8">
        <circle cx="212.1062" cy="502.329" r="11.8819207328175" fill="lime"/>
        <circle cx="212.1062" cy="502.329" r="11.8819207328175" stroke="black" stroke-linecap="round" stroke-linejoin="round" stroke-width="5"/>
      </g>
      <g id="Graphic_9">
        <circle cx="227.8361" cy="475.08405" r="11.8819207328174" fill="#e9e700"/>
        <circle cx="227.8361" cy="475.08405" r="11.8819207328174" stroke="black" stroke-linecap="round" stroke-linejoin="round" stroke-width="5"/>
      </g>
      <g id="Graphic_10">
        <circle cx="243.566" cy="447.8391" r="11.8819207328175" fill="#fffc75"/>
        <circle cx="243.566" cy="447.8391" r="11.8819207328175" stroke="black" stroke-linecap="round" stroke-linejoin="round" stroke-width="5"/>
      </g>
      <g id="Graphic_11">
        <circle cx="259.29588" cy="420.5941" r="11.8819207328174" fill="red"/>
        <circle cx="259.29588" cy="420.5941" r="11.8819207328174" stroke="black" stroke-linecap="round" stroke-linejoin="round" stroke-width="5"/>
      </g>
      <g id="Graphic_15">
        <circle cx="291.92677" cy="584.7401" r="11.8819207328174" fill="#00b600"/>
        <circle cx="291.92677" cy="584.7401" r="11.8819207328174" stroke="black" stroke-linecap="round" stroke-linejoin="round" stroke-width="5"/>
      </g>
      <g id="Graphic_16">
        <circle cx="307.65667" cy="557.4951" r="11.8819207328175" fill="lime"/>
        <circle cx="307.65667" cy="557.4951" r="11.8819207328175" stroke="black" stroke-linecap="round" stroke-linejoin="round" stroke-width="5"/>
      </g>
      <g id="Graphic_17">
        <circle cx="323.38656" cy="530.25014" r="11.8819207328174" fill="#e9e700"/>
        <circle cx="323.38656" cy="530.25014" r="11.8819207328174" stroke="black" stroke-linecap="round" stroke-linejoin="round" stroke-width="5"/>
      </g>
      <g id="Graphic_18">
        <circle cx="339.11646" cy="503.00517" r="11.8819207328175" fill="#bab953"/>
        <circle cx="339.11646" cy="503.00517" r="11.8819207328175" stroke="black" stroke-linecap="round" stroke-linejoin="round" stroke-width="5"/>
      </g>
      <g id="Graphic_19">
        <circle cx="354.84635" cy="475.7602" r="11.8819207328175" fill="#b40000"/>
        <circle cx="354.84635" cy="475.7602" r="11.8819207328175" stroke="black" stroke-linecap="round" stroke-linejoin="round" stroke-width="5"/>
      </g>
      <g id="Graphic_20">
        <path d="M 487.45594 364.99415 L 496.9063 370.45032 L 340.85266 640.7432 L 331.4023 635.287 Z" fill="black"/>
        <path d="M 487.45594 364.99415 L 496.9063 370.45032 L 340.85266 640.7432 L 331.4023 635.287 Z" stroke="black" stroke-linecap="round" stroke-linejoin="round" stroke-width="1"/>
      </g>
      <g id="Graphic_23">
        <circle cx="387.47724" cy="639.9062" r="11.8819207328175" fill="#00b600"/>
        <circle cx="387.47724" cy="639.9062" r="11.8819207328175" stroke="black" stroke-linecap="round" stroke-linejoin="round" stroke-width="5"/>
      </g>
      <g id="Graphic_24">
        <circle cx="403.20714" cy="612.6612" r="11.8819207328175" fill="lime"/>
        <circle cx="403.20714" cy="612.6612" r="11.8819207328175" stroke="black" stroke-linecap="round" stroke-linejoin="round" stroke-width="5"/>
      </g>
      <g id="Graphic_25">
        <circle cx="418.93703" cy="585.4162" r="11.8819207328174" fill="#e9e700"/>
        <circle cx="418.93703" cy="585.4162" r="11.8819207328174" stroke="black" stroke-linecap="round" stroke-linejoin="round" stroke-width="5"/>
      </g>
      <g id="Graphic_26">
        <circle cx="434.6669" cy="558.17125" r="11.8819207328175" fill="#fffc75"/>
        <circle cx="434.6669" cy="558.17125" r="11.8819207328175" stroke="black" stroke-linecap="round" stroke-linejoin="round" stroke-width="5"/>
      </g>
      <g id="Graphic_27">
        <circle cx="450.3968" cy="530.9263" r="11.8819207328175" fill="red"/>
        <circle cx="450.3968" cy="530.9263" r="11.8819207328175" stroke="black" stroke-linecap="round" stroke-linejoin="round" stroke-width="5"/>
      </g>
      <g id="Graphic_31">
        <path d="M 479.95245 683.59524 C 473.61384 685.29365 428.07365 690.7024 429.7721 697.041 C 431.4705 703.3796 479.7644 708.2477 486.103 706.5493 C 492.4416 704.8509 496.2032 698.3356 494.50474 691.997 C 492.80633 685.6584 486.29105 681.8968 479.95245 683.59524 Z" fill="#00b600"/>
        <path d="M 479.95245 683.59524 C 473.61384 685.29365 428.07365 690.7024 429.7721 697.041 C 431.4705 703.3796 479.7644 708.2477 486.103 706.5493 C 492.4416 704.8509 496.2032 698.3356 494.50474 691.997 C 492.80633 685.6584 486.29105 681.8968 479.95245 683.59524 Z" stroke="black" stroke-linecap="round" stroke-linejoin="round" stroke-width="5"/>
      </g>
      <g id="Graphic_32">
        <path d="M 495.68235 656.3503 C 489.34374 658.0487 444.6022 663.24345 446.30066 669.58205 C 447.99906 675.9207 495.49427 681.0028 501.83287 679.3043 C 508.1715 677.6059 511.9331 671.0906 510.23464 664.752 C 508.5362 658.4134 502.02095 654.6518 495.68235 656.3503 Z" fill="green"/>
        <path d="M 495.68235 656.3503 C 489.34374 658.0487 444.6022 663.24345 446.30066 669.58205 C 447.99906 675.9207 495.49427 681.0028 501.83287 679.3043 C 508.1715 677.6059 511.9331 671.0906 510.23464 664.752 C 508.5362 658.4134 502.02095 654.6518 495.68235 656.3503 Z" stroke="black" stroke-linecap="round" stroke-linejoin="round" stroke-width="5"/>
      </g>
      <g id="Graphic_33">
        <path d="M 511.41224 629.1053 C 505.0736 630.8037 476.88926 631.562 478.5877 637.9006 C 480.2861 644.2392 511.22416 653.7578 517.56276 652.05935 C 523.9014 650.36094 527.663 643.84566 525.9645 637.50706 C 524.2661 631.16845 517.75084 627.40685 511.41224 629.1053 Z" fill="#a8a600"/>
        <path d="M 511.41224 629.1053 C 505.0736 630.8037 476.88926 631.562 478.5877 637.9006 C 480.2861 644.2392 511.22416 653.7578 517.56276 652.05935 C 523.9014 650.36094 527.663 643.84566 525.9645 637.50706 C 524.2661 631.16845 517.75084 627.40685 511.41224 629.1053 Z" stroke="black" stroke-linecap="round" stroke-linejoin="round" stroke-width="5"/>
      </g>
      <g id="Graphic_34">
        <path d="M 527.14213 601.8603 C 520.8035 603.5587 517.0419 610.074 518.74037 616.4126 C 520.4388 622.7512 538.5553 633.2108 544.89393 631.5124 C 551.23254 629.814 543.39286 616.6007 541.6944 610.2621 C 539.996 603.9235 533.48074 600.1619 527.14213 601.8603 Z" fill="#a3a249"/>
        <path d="M 527.14213 601.8603 C 520.8035 603.5587 517.0419 610.074 518.74037 616.4126 C 520.4388 622.7512 538.5553 633.2108 544.89393 631.5124 C 551.23254 629.814 543.39286 616.6007 541.6944 610.2621 C 539.996 603.9235 533.48074 600.1619 527.14213 601.8603 Z" stroke="black" stroke-linecap="round" stroke-linejoin="round" stroke-width="5"/>
      </g>
      <g id="Graphic_35">
        <path d="M 546.447 583.8348 C 540.1084 585.5332 532.7718 582.829 534.47026 589.1676 C 536.16867 595.50624 543.1847 599.55695 549.5233 597.8585 C 555.8619 596.1601 579.4669 569.5301 577.7685 563.1915 C 576.0701 556.8529 552.7856 582.13634 546.447 583.8348 Z" fill="red"/>
        <path d="M 546.447 583.8348 C 540.1084 585.5332 532.7718 582.829 534.47026 589.1676 C 536.16867 595.50624 543.1847 599.55695 549.5233 597.8585 C 555.8619 596.1601 579.4669 569.5301 577.7685 563.1915 C 576.0701 556.8529 552.7856 582.13634 546.447 583.8348 Z" stroke="black" stroke-linecap="round" stroke-linejoin="round" stroke-width="5"/>
      </g>
      <g id="Graphic_53">
        <path d="M 483 333 L 494.3671 316.5069 C 494.8718 314.62328 500.18606 313.4641 519.99095 318.7708 C 539.79585 324.0775 539.7233 325.91457 539.2186 327.7982 L 535 348 C 534.4953 349.88364 519.8049 360.3067 500 355 C 480.1951 349.6933 482.4953 334.88364 483 333 Z" fill="#dadada"/>
        <path d="M 483 333 L 494.3671 316.5069 C 494.8718 314.62328 500.18606 313.4641 519.99095 318.7708 C 539.79585 324.0775 539.7233 325.91457 539.2186 327.7982 L 535 348 C 534.4953 349.88364 519.8049 360.3067 500 355 C 480.1951 349.6933 482.4953 334.88364 483 333 Z" stroke="black" stroke-linecap="round" stroke-linejoin="round" stroke-width="6"/>
      </g>
      <g id="Graphic_47">
        <path d="M 338.62446 191.51547 L 422.20343 91.81384 C 422.20343 91.81384 476.8691 90.29898 477.552 89.90472 C 478.23485 89.51047 516.40595 95.69776 516.40595 95.69776 L 487.416 130.64506 C 487.416 130.64506 475.31483 158.57308 460.3973 169.00672 C 445.47973 179.44036 440.05265 212.62008 440.05265 212.62008 C 440.05265 212.62008 469.6067 216.49844 472.3382 214.92142 C 475.0697 213.3444 494.0845 200.5452 503.06746 197.17988 C 512.05044 193.81454 536.2962 191.6527 538.5561 193.98993 C 540.816 196.32717 559.57805 214.63077 559.28944 215.7079 C 559.0008 216.78503 565.175 219.59385 558.05764 224.61355 C 550.9403 229.63324 510.8414 273.72577 509.47565 274.5143 C 508.1099 275.3028 460.06926 293.02362 492.8547 297.76783 C 525.64017 302.51205 538.0691 245.98202 538.0691 245.98202 C 538.0691 245.98202 567.1614 270.34527 585.7046 261.46034 C 604.2478 252.57542 650.4097 274.18016 650.80395 274.86303 C 651.1982 275.5459 660.9773 297.21484 660.0058 298.68623 C 659.0343 300.1576 617.8583 343.96153 608.9809 349.08687 C 600.1036 354.2122 571.19095 384.56237 560.65925 391.55334 C 550.12755 398.5443 554.4644 406.0559 556.0414 408.7874 C 557.6184 411.5189 590.6642 408.82885 591.05844 409.5117 C 591.4527 410.1946 606.8211 413.1581 607.2154 413.84096 C 607.6096 414.52383 624.03446 435.08733 624.03446 435.08733 L 504.53087 565.55476 L 495.90187 575.3735 L 611.3692 424.1897 C 611.3692 424.1897 598.0494 420.0434 597.65516 419.36055 C 597.2609 418.6777 579.6609 419.7341 579.6609 419.7341 L 442.94144 472.27335 L 175.83862 473.4688 C 175.83862 473.4688 544.31934 390.06124 545.0022 389.667 C 545.6851 389.27272 571.24 373.6081 571.24 373.6081 L 596.8439 346.98922 C 596.8439 346.98922 611.8388 331.95845 612.8103 330.48706 C 613.78176 329.01568 636.4712 306.81095 637.1541 306.4167 C 637.83696 306.02244 641.30035 293.0969 641.589 292.01976 C 641.8776 290.94263 632.73234 279.8337 632.73234 279.8337 L 610.9785 270.54138 L 591.2242 271.02056 L 576.8839 279.29994 C 576.8839 279.29994 560.5233 295.11923 560.9175 295.8021 C 561.3118 296.48498 543.8248 274.46625 543.8248 274.46625 C 543.8248 274.46625 525.52064 289.18152 524.04926 288.21003 C 522.5779 287.23855 498.29697 311.92518 497.6141 312.31943 C 496.9312 312.7137 477.14865 306.83573 476.7544 306.15286 C 476.36014 305.47 472.0233 297.9584 472.0233 297.9584 L 175.83862 473.4688 L 493.7903 266.2708 C 493.7903 266.2708 505.9764 257.41417 506.65924 257.0199 C 507.3421 256.62566 526.9058 235.31508 526.9058 235.31508 L 546.3639 212.2445 L 534.5155 209.06974 C 534.5155 209.06974 511.0582 212.59732 510.664 211.91445 C 510.2697 211.23158 495.7181 215.99096 495.03524 216.38522 C 494.3524 216.77948 471.8176 229.78994 471.8176 229.78994 L 454.61183 231.52922 L 168.31967 483.92846 L 419.43253 216.33064 C 419.43253 216.33064 430.5905 196.23114 429.802 194.8654 C 429.01346 193.49965 439.17163 168.5144 439.17163 168.5144 L 448.098 152.43481 L 464.8529 137.2984 L 477.088 117.48751 L 495.5255 106.84259 L 483.8601 100.83068 C 483.8601 100.83068 468.73125 107.74432 467.6541 107.45571 C 466.577 107.16709 437.7341 109.2516 437.33985 108.56873 C 436.9456 107.88586 338.62446 191.51547 338.62446 191.51547 Z" fill="#f26077"/>
        <path d="M 338.62446 191.51547 L 422.20343 91.81384 C 422.20343 91.81384 476.8691 90.29898 477.552 89.90472 C 478.23485 89.51047 516.40595 95.69776 516.40595 95.69776 L 487.416 130.64506 C 487.416 130.64506 475.31483 158.57308 460.3973 169.00672 C 445.47973 179.44036 440.05265 212.62008 440.05265 212.62008 C 440.05265 212.62008 469.6067 216.49844 472.3382 214.92142 C 475.0697 213.3444 494.0845 200.5452 503.06746 197.17988 C 512.05044 193.81454 536.2962 191.6527 538.5561 193.98993 C 540.816 196.32717 559.57805 214.63077 559.28944 215.7079 C 559.0008 216.78503 565.175 219.59385 558.05764 224.61355 C 550.9403 229.63324 510.8414 273.72577 509.47565 274.5143 C 508.1099 275.3028 460.06926 293.02362 492.8547 297.76783 C 525.64017 302.51205 538.0691 245.98202 538.0691 245.98202 C 538.0691 245.98202 567.1614 270.34527 585.7046 261.46034 C 604.2478 252.57542 650.4097 274.18016 650.80395 274.86303 C 651.1982 275.5459 660.9773 297.21484 660.0058 298.68623 C 659.0343 300.1576 617.8583 343.96153 608.9809 349.08687 C 600.1036 354.2122 571.19095 384.56237 560.65925 391.55334 C 550.12755 398.5443 554.4644 406.0559 556.0414 408.7874 C 557.6184 411.5189 590.6642 408.82885 591.05844 409.5117 C 591.4527 410.1946 606.8211 413.1581 607.2154 413.84096 C 607.6096 414.52383 624.03446 435.08733 624.03446 435.08733 L 504.53087 565.55476 L 495.90187 575.3735 L 611.3692 424.1897 C 611.3692 424.1897 598.0494 420.0434 597.65516 419.36055 C 597.2609 418.6777 579.6609 419.7341 579.6609 419.7341 L 442.94144 472.27335 L 175.83862 473.4688 C 175.83862 473.4688 544.31934 390.06124 545.0022 389.667 C 545.6851 389.27272 571.24 373.6081 571.24 373.6081 L 596.8439 346.98922 C 596.8439 346.98922 611.8388 331.95845 612.8103 330.48706 C 613.78176 329.01568 636.4712 306.81095 637.1541 306.4167 C 637.83696 306.02244 641.30035 293.0969 641.589 292.01976 C 641.8776 290.94263 632.73234 279.8337 632.73234 279.8337 L 610.9785 270.54138 L 591.2242 271.02056 L 576.8839 279.29994 C 576.8839 279.29994 560.5233 295.11923 560.9175 295.8021 C 561.3118 296.48498 543.8248 274.46625 543.8248 274.46625 C 543.8248 274.46625 525.52064 289.18152 524.04926 288.21003 C 522.5779 287.23855 498.29697 311.92518 497.6141 312.31943 C 496.9312 312.7137 477.14865 306.83573 476.7544 306.15286 C 476.36014 305.47 472.0233 297.9584 472.0233 297.9584 L 175.83862 473.4688 L 493.7903 266.2708 C 493.7903 266.2708 505.9764 257.41417 506.65924 257.0199 C 507.3421 256.62566 526.9058 235.31508 526.9058 235.31508 L 546.3639 212.2445 L 534.5155 209.06974 C 534.5155 209.06974 511.0582 212.59732 510.664 211.91445 C 510.2697 211.23158 495.7181 215.99096 495.03524 216.38522 C 494.3524 216.77948 471.8176 229.78994 471.8176 229.78994 L 454.61183 231.52922 L 168.31967 483.92846 L 419.43253 216.33064 C 419.43253 216.33064 430.5905 196.23114 429.802 194.8654 C 429.01346 193.49965 439.17163 168.5144 439.17163 168.5144 L 448.098 152.43481 L 464.8529 137.2984 L 477.088 117.48751 L 495.5255 106.84259 L 483.8601 100.83068 C 483.8601 100.83068 468.73125 107.74432 467.6541 107.45571 C 466.577 107.16709 437.7341 109.2516 437.33985 108.56873 C 436.9456 107.88586 338.62446 191.51547 338.62446 191.51547 Z" stroke="#005c5d" stroke-linecap="round" stroke-linejoin="round" stroke-width="5"/>
      </g>
      <g id="Graphic_39">
        <path d="M 447.7587 268.96517 C 446.2075 282.7302 433.9308 291.7268 420.3378 289.05965 C 406.74485 286.39258 396.9831 273.07175 398.53435 259.30673 C 400.0855 245.5417 412.36225 236.5451 425.9552 239.21224 C 439.54817 241.87932 449.3099 255.20015 447.7587 268.96517" fill="#666"/>
        <path d="M 447.7587 268.96517 C 446.2075 282.7302 433.9308 291.7268 420.3378 289.05965 C 406.74485 286.39258 396.9831 273.07175 398.53435 259.30673 C 400.0855 245.5417 412.36225 236.5451 425.9552 239.21224 C 439.54817 241.87932 449.3099 255.20015 447.7587 268.96517" stroke="black" stroke-linecap="round" stroke-linejoin="round" stroke-width="6"/>
      </g>
      <g id="Line_40">
        <line x1="409.89054" y1="240.44484" x2="426.19806" y2="267.8494" stroke="black" stroke-linecap="round" stroke-linejoin="round" stroke-width="4"/>
      </g>
      <g id="Graphic_41">
        <path d="M 520.5355 343.93813 C 506.74366 346.58352 494.2567 337.41897 492.6451 323.46852 C 491.0334 309.5181 500.9073 296.06458 514.69915 293.41926 C 528.49097 290.77386 540.9779 299.9384 542.58955 313.88886 C 544.20125 327.8393 534.3273 341.2928 520.5355 343.93813" fill="#666"/>
        <path d="M 520.5355 343.93813 C 506.74366 346.58352 494.2567 337.41897 492.6451 323.46852 C 491.0334 309.5181 500.9073 296.06458 514.69915 293.41926 C 528.49097 290.77386 540.9779 299.9384 542.58955 313.88886 C 544.20125 327.8393 534.3273 341.2928 520.5355 343.93813" stroke="black" stroke-linecap="round" stroke-linejoin="round" stroke-width="6"/>
      </g>
      <g id="Line_42">
        <line x1="524.9961" y1="292.55316" x2="517.1493" y2="323.46226" stroke="black" stroke-linecap="round" stroke-linejoin="round" stroke-width="4"/>
      </g>
      <g id="Graphic_3">
        <path d="M 296.355 254.66197 L 305.80537 260.11815 L 149.75172 530.411 L 140.30135 524.9548 Z" fill="black"/>
        <path d="M 296.355 254.66197 L 305.80537 260.11815 L 149.75172 530.411 L 140.30135 524.9548 Z" stroke="black" stroke-linecap="round" stroke-linejoin="round" stroke-width="1"/>
      </g>
      <g id="Graphic_4">
        <title>Bézier</title>
        <path d="M 265.6585 279.18812 L 299.91335 298.96517 L 266.41065 348.36113 L 240.38384 402.0733 L 206.129 382.29626 L 238.79565 333.85716 Z" fill="white"/>
        <path d="M 265.6585 279.18812 L 299.91335 298.96517 L 266.41065 348.36113 L 240.38384 402.0733 L 206.129 382.29626 L 238.79565 333.85716 Z" stroke="black" stroke-linecap="round" stroke-linejoin="round" stroke-width="5"/>
      </g>
      <g id="Graphic_6">
        <path d="M 266.67265 350.4007 L 267.75085 348.53323 L 251.40588 339.7906 L 240.17846 332.6143 L 239.10027 334.4818 Z" fill="black"/>
        <path d="M 266.67265 350.4007 L 267.75085 348.53323 L 251.40588 339.7906 L 240.17846 332.6143 L 239.10027 334.4818 Z" stroke="black" stroke-linecap="round" stroke-linejoin="round" stroke-width="1"/>
      </g>
      <g id="Graphic_38">
        <path d="M 333.59 188.69518 C 345.4005 189.73895 352.77455 199.94146 350.0604 211.48315 C 347.34635 223.02485 335.5719 231.53505 323.7614 230.49123 C 311.95093 229.44747 304.57687 219.24495 307.291 207.70326 C 310.00507 196.16156 321.77953 187.65136 333.59 188.69518" fill="#666"/>
        <path d="M 333.59 188.69518 C 345.4005 189.73895 352.77455 199.94146 350.0604 211.48315 C 347.34635 223.02485 335.5719 231.53505 323.7614 230.49123 C 311.95093 229.44747 304.57687 219.24495 307.291 207.70326 C 310.00507 196.16156 321.77953 187.65136 333.59 188.69518" stroke="black" stroke-linecap="round" stroke-linejoin="round" stroke-width="6"/>
      </g>
      <g id="Line_37">
        <line x1="308.2712" y1="214.1017" x2="333.0524" y2="207.60675" stroke="black" stroke-linecap="round" stroke-linejoin="round" stroke-width="4"/>
      </g>
      <g id="Graphic_21">
        <path d="M 468.75885 368.73672 L 503.0137 388.51377 L 469.511 437.90973 L 443.4842 491.6219 L 409.22934 471.84486 L 441.896 423.40576 Z" fill="white"/>
        <path d="M 468.75885 368.73672 L 503.0137 388.51377 L 469.511 437.90973 L 443.4842 491.6219 L 409.22934 471.84486 L 441.896 423.40576 Z" stroke="black" stroke-linecap="round" stroke-linejoin="round" stroke-width="5"/>
      </g>
      <g id="Graphic_22">
        <path d="M 469.773 439.9493 L 470.8512 438.08183 L 454.5062 429.3392 L 443.2788 422.1629 L 442.2006 424.0304 Z" fill="black"/>
        <path d="M 469.773 439.9493 L 470.8512 438.08183 L 454.5062 429.3392 L 443.2788 422.1629 L 442.2006 424.0304 Z" stroke="black" stroke-linecap="round" stroke-linejoin="round" stroke-width="1"/>
      </g>
      <g id="Graphic_48">
        <path d="M 261.43428 549.54896 L 205.04125 511.23327 C 205.04125 511.23327 224.91964 484.8833 224.83348 484.5617 C 224.74732 484.24017 245.08415 465.6943 245.08415 465.6943 L 264.9698 478.97696 C 264.9698 478.97696 285.15868 484.2515 288.6637 491.23924 C 292.16872 498.227 319.6294 500.17445 319.6294 500.17445 C 319.6294 500.17445 334.56236 485.8337 334.2177 484.54746 C 333.87306 483.2612 329.85107 474.3441 330.3404 470.0772 C 330.82975 465.8103 338.3186 454.1535 341.279 453.0156 C 344.23943 451.8777 367.8366 442.453 368.68442 442.5705 C 369.53223 442.688 374.43294 439.6516 376.14237 442.9847 C 377.8518 446.3178 401.5733 464.77634 401.74564 465.41946 C 401.91796 466.0626 399.05424 488.88744 416.01366 472.96976 C 432.9731 457.0521 387.42277 452.1983 387.42277 452.1983 C 387.42277 452.1983 420.43157 437.66576 419.71465 428.897 C 418.9977 420.1282 456.1769 397.4141 456.93855 397.21 C 457.7002 397.0059 480.80804 391.84813 481.742 392.28718 C 482.676 392.7262 505.722 411.7104 506.8421 415.8907 C 507.9622 420.071 523.7812 433.40943 525.9214 438.35034 C 528.06166 443.29124 536.43975 441.04634 539.48633 440.23 C 542.5329 439.4137 552.96836 423.52086 553.73 423.31677 C 554.49165 423.1127 563.1006 415.6362 563.86225 415.4321 C 564.6239 415.22803 589.3274 406.8855 589.3274 406.8855 L 603 411 L 620 412 L 625 392 L 598 412 L 591 419 L 574.6976 413.2181 C 574.6976 413.2181 565.83017 419.7299 565.0685 419.934 C 564.3069 420.13806 558.4137 428.6101 558.4137 428.6101 L 552.1418 493.525 L 459.4969 646.1194 C 459.4969 646.1194 518.24643 446.26587 518.1603 445.9443 C 518.0741 445.62275 514.0383 433.6075 514.0383 433.6075 L 500.2596 421.7903 C 500.2596 421.7903 492.6879 414.85825 491.7539 414.4192 C 490.81994 413.98017 479.84316 403.4801 479.757 403.1585 C 479.67084 402.83696 469.49715 401.4272 468.64935 401.30973 C 467.80154 401.19225 454.3504 405.8304 454.3504 405.8304 L 437.62185 416.5165 L 430.3777 426.03984 L 432.1871 432.79263 C 432.1871 432.79263 439.93114 440.3678 440.6928 440.1637 C 441.45443 439.9596 415.04166 448.8442 415.04166 448.8442 C 415.04166 448.8442 421.04714 457.3796 419.61 458.1093 C 418.1729 458.83903 430.7434 470.0569 430.82957 470.37845 C 430.91573 470.7 417.9954 480.3657 417.23375 480.56976 C 416.4721 480.77385 408.094 483.01875 408.094 483.01875 L 465.56234 640.7409 L 388.30832 473.15576 C 388.30832 473.15576 385.14795 467.45425 385.0618 467.1327 C 384.97563 466.81113 373.58186 457.8014 373.58186 457.8014 L 360.57863 448.8782 L 353.1483 454.6603 C 353.1483 454.6603 347.18276 465.90894 346.4211 466.113 C 345.65947 466.3171 344.24997 473.2431 344.33614 473.56466 C 344.4223 473.8862 347.26565 484.49776 347.26565 484.49776 L 342.1341 492.76573 L 456.29245 651.6697 L 314.92863 510.0502 C 314.92863 510.0502 301.3499 505.0724 299.8266 505.4806 C 298.30332 505.88875 279.9824 501.4923 279.9824 501.4923 L 269.1194 497.51006 L 262.137 489.7308 L 249.23375 484.2274 L 246.90737 475.5452 L 237.0198 481.2964 C 237.0198 481.2964 237.30592 488.4574 236.63043 488.983 C 235.95495 489.50866 226.61198 503.3855 225.85034 503.5896 C 225.0887 503.7937 261.43428 549.54896 261.43428 549.54896 Z" fill="#00bfc0"/>
        <path d="M 261.43428 549.54896 L 205.04125 511.23327 C 205.04125 511.23327 224.91964 484.8833 224.83348 484.5617 C 224.74732 484.24017 245.08415 465.6943 245.08415 465.6943 L 264.9698 478.97696 C 264.9698 478.97696 285.15868 484.2515 288.6637 491.23924 C 292.16872 498.227 319.6294 500.17445 319.6294 500.17445 C 319.6294 500.17445 334.56236 485.8337 334.2177 484.54746 C 333.87306 483.2612 329.85107 474.3441 330.3404 470.0772 C 330.82975 465.8103 338.3186 454.1535 341.279 453.0156 C 344.23943 451.8777 367.8366 442.453 368.68442 442.5705 C 369.53223 442.688 374.43294 439.6516 376.14237 442.9847 C 377.8518 446.3178 401.5733 464.77634 401.74564 465.41946 C 401.91796 466.0626 399.05424 488.88744 416.01366 472.96976 C 432.9731 457.0521 387.42277 452.1983 387.42277 452.1983 C 387.42277 452.1983 420.43157 437.66576 419.71465 428.897 C 418.9977 420.1282 456.1769 397.4141 456.93855 397.21 C 457.7002 397.0059 480.80804 391.84813 481.742 392.28718 C 482.676 392.7262 505.722 411.7104 506.8421 415.8907 C 507.9622 420.071 523.7812 433.40943 525.9214 438.35034 C 528.06166 443.29124 536.43975 441.04634 539.48633 440.23 C 542.5329 439.4137 552.96836 423.52086 553.73 423.31677 C 554.49165 423.1127 563.1006 415.6362 563.86225 415.4321 C 564.6239 415.22803 589.3274 406.8855 589.3274 406.8855 L 603 411 L 620 412 L 625 392 L 598 412 L 591 419 L 574.6976 413.2181 C 574.6976 413.2181 565.83017 419.7299 565.0685 419.934 C 564.3069 420.13806 558.4137 428.6101 558.4137 428.6101 L 552.1418 493.525 L 459.4969 646.1194 C 459.4969 646.1194 518.24643 446.26587 518.1603 445.9443 C 518.0741 445.62275 514.0383 433.6075 514.0383 433.6075 L 500.2596 421.7903 C 500.2596 421.7903 492.6879 414.85825 491.7539 414.4192 C 490.81994 413.98017 479.84316 403.4801 479.757 403.1585 C 479.67084 402.83696 469.49715 401.4272 468.64935 401.30973 C 467.80154 401.19225 454.3504 405.8304 454.3504 405.8304 L 437.62185 416.5165 L 430.3777 426.03984 L 432.1871 432.79263 C 432.1871 432.79263 439.93114 440.3678 440.6928 440.1637 C 441.45443 439.9596 415.04166 448.8442 415.04166 448.8442 C 415.04166 448.8442 421.04714 457.3796 419.61 458.1093 C 418.1729 458.83903 430.7434 470.0569 430.82957 470.37845 C 430.91573 470.7 417.9954 480.3657 417.23375 480.56976 C 416.4721 480.77385 408.094 483.01875 408.094 483.01875 L 465.56234 640.7409 L 388.30832 473.15576 C 388.30832 473.15576 385.14795 467.45425 385.0618 467.1327 C 384.97563 466.81113 373.58186 457.8014 373.58186 457.8014 L 360.57863 448.8782 L 353.1483 454.6603 C 353.1483 454.6603 347.18276 465.90894 346.4211 466.113 C 345.65947 466.3171 344.24997 473.2431 344.33614 473.56466 C 344.4223 473.8862 347.26565 484.49776 347.26565 484.49776 L 342.1341 492.76573 L 456.29245 651.6697 L 314.92863 510.0502 C 314.92863 510.0502 301.3499 505.0724 299.8266 505.4806 C 298.30332 505.88875 279.9824 501.4923 279.9824 501.4923 L 269.1194 497.51006 L 262.137 489.7308 L 249.23375 484.2274 L 246.90737 475.5452 L 237.0198 481.2964 C 237.0198 481.2964 237.30592 488.4574 236.63043 488.983 C 235.95495 489.50866 226.61198 503.3855 225.85034 503.5896 C 225.0887 503.7937 261.43428 549.54896 261.43428 549.54896 Z" stroke="#005c5d" stroke-linecap="round" stroke-linejoin="round" stroke-width="5"/>
      </g>
      <g id="Graphic_12">
        <path d="M 391.90547 309.82806 L 401.35584 315.28423 L 245.3022 585.5771 L 235.85182 580.1209 Z" fill="black"/>
        <path d="M 391.90547 309.82806 L 401.35584 315.28423 L 245.3022 585.5771 L 235.85182 580.1209 Z" stroke="black" stroke-linecap="round" stroke-linejoin="round" stroke-width="1"/>
      </g>
      <g id="Graphic_28">
        <path d="M 583.0064 420.16024 L 592.4568 425.6164 L 436.40313 695.90926 L 426.95276 690.4531 Z" fill="black"/>
        <path d="M 583.0064 420.16024 L 592.4568 425.6164 L 436.40313 695.90926 L 426.95276 690.4531 Z" stroke="black" stroke-linecap="round" stroke-linejoin="round" stroke-width="1"/>
      </g>
      <g id="Graphic_13">
        <path d="M 328.1525 391.60973 L 362.40733 411.38677 L 328.90464 460.78274 L 302.87782 514.4949 L 268.62298 494.71786 L 301.28963 446.27876 Z" fill="white"/>
        <path d="M 328.1525 391.60973 L 362.40733 411.38677 L 328.90464 460.78274 L 302.87782 514.4949 L 268.62298 494.71786 L 301.28963 446.27876 Z" stroke="black" stroke-linecap="round" stroke-linejoin="round" stroke-width="5"/>
      </g>
      <g id="Graphic_14">
        <title>Bézier</title>
        <path d="M 329.16664 462.8223 L 330.24483 460.95484 L 313.89986 452.2122 L 302.67245 445.0359 L 301.59425 446.9034 Z" fill="black"/>
        <path d="M 329.16664 462.8223 L 330.24483 460.95484 L 313.89986 452.2122 L 302.67245 445.0359 L 301.59425 446.9034 Z" stroke="black" stroke-linecap="round" stroke-linejoin="round" stroke-width="1"/>
      </g>
      <g id="Graphic_29">
        <path d="M 511.61744 515.1678 L 545.8723 534.94486 L 512.3696 584.3408 L 486.3428 638.053 L 452.08793 618.27595 L 484.7546 569.83685 Z" fill="white"/>
        <path d="M 511.61744 515.1678 L 545.8723 534.94486 L 512.3696 584.3408 L 486.3428 638.053 L 452.08793 618.27595 L 484.7546 569.83685 Z" stroke="black" stroke-linecap="round" stroke-linejoin="round" stroke-width="5"/>
      </g>
      <g id="Graphic_30">
        <path d="M 510.9384 587.7358 L 512.0166 585.86835 L 495.67165 577.1257 L 484.44424 569.9494 L 483.36605 571.8169 Z" fill="black"/>
        <path d="M 510.9384 587.7358 L 512.0166 585.86835 L 495.67165 577.1257 L 484.44424 569.9494 L 483.36605 571.8169 Z" stroke="black" stroke-linecap="round" stroke-linejoin="round" stroke-width="1"/>
      </g>
      <g id="Graphic_54">
        <path d="M 590 385 L 594.0281 367.3061 C 595.0032 365.61726 600.4364 365.873 618.19295 376.12478 C 635.9495 386.37654 635.404 388.13223 634.42895 389.82106 L 620 412 C 619.02496 413.68883 617.638 419.56893 599.88144 409.31716 C 582.12486 399.0654 589.02496 386.68883 590 385 Z" fill="#dadada"/>
        <path d="M 590 385 L 594.0281 367.3061 C 595.0032 365.61726 600.4364 365.873 618.19295 376.12478 C 635.9495 386.37654 635.404 388.13223 634.42895 389.82106 L 620 412 C 619.02496 413.68883 617.638 419.56893 599.88144 409.31716 C 582.12486 399.0654 589.02496 386.68883 590 385 Z" stroke="black" stroke-linecap="round" stroke-linejoin="round" stroke-width="6"/>
      </g>
      <g id="Graphic_43">
        <path d="M 636.22514 380.00577 C 635.1814 391.81626 624.97886 399.1903 613.4372 396.4762 C 601.8955 393.7621 593.3853 381.98766 594.4291 370.1772 C 595.47286 358.3667 605.6754 350.99264 617.2171 353.70677 C 628.7588 356.42083 637.269 368.1953 636.22514 380.00577" fill="#666"/>
        <path d="M 636.22514 380.00577 C 635.1814 391.81626 624.97886 399.1903 613.4372 396.4762 C 601.8955 393.7621 593.3853 381.98766 594.4291 370.1772 C 595.47286 358.3667 605.6754 350.99264 617.2171 353.70677 C 628.7588 356.42083 637.269 368.1953 636.22514 380.00577" stroke="black" stroke-linecap="round" stroke-linejoin="round" stroke-width="6"/>
      </g>
      <g id="Line_44">
        <line x1="611.661" y1="351.38983" x2="617.3136" y2="379.4682" stroke="black" stroke-linecap="round" stroke-linejoin="round" stroke-width="4"/>
      </g>
    </g>
  </g>
</svg>
