<?xml version="1.0" encoding="UTF-8" standalone="no"?>
<!DOCTYPE svg PUBLIC "-//W3C//DTD SVG 1.1//EN" "http://www.w3.org/Graphics/SVG/1.1/DTD/svg11.dtd">
<svg xmlns="http://www.w3.org/2000/svg" version="1.1" xmlns:dc="http://purl.org/dc/elements/1.1/" xmlns:xl="http://www.w3.org/1999/xlink" viewBox="0 0 850.394 850.394" width="850.394" height="850.394">
  <defs/>
  <metadata> Produced by OmniGraffle 7.9.4 
    <dc:date>2019-03-11 02:51:18 +0000</dc:date>
  </metadata>
  <g id="Noise" fill="none" stroke-opacity="1" fill-opacity="1" stroke-dasharray="none" stroke="none">
    <title>Noise</title>
    <g id="Noise: Layer 1">
      <title>Layer 1</title>
      <g id="Graphic_2">
        <rect x="152.41281" y="123.8937" width="132.00993" height="132.00993" fill="white"/>
        <rect x="152.41281" y="123.8937" width="132.00993" height="132.00993" stroke="black" stroke-linecap="round" stroke-linejoin="round" stroke-width="3"/>
      </g>
      <g id="Graphic_3">
        <rect x="282.57875" y="42.171266" width="132.00993" height="132.00993" fill="black"/>
        <rect x="282.57875" y="42.171266" width="132.00993" height="132.00993" stroke="white" stroke-linecap="round" stroke-linejoin="round" stroke-width="3"/>
      </g>
      <g id="Graphic_4">
        <rect x="246.77277" y="283.88238" width="132.00993" height="132.00993" fill="white"/>
        <rect x="246.77277" y="283.88238" width="132.00993" height="132.00993" stroke="black" stroke-linecap="round" stroke-linejoin="round" stroke-width="3"/>
      </g>
      <g id="Graphic_5">
        <rect x="78.92405" y="233.10362" width="132.00993" height="132.00993" fill="black"/>
        <rect x="78.92405" y="233.10362" width="132.00993" height="132.00993" stroke="white" stroke-linecap="round" stroke-linejoin="round" stroke-width="3"/>
      </g>
      <g id="Graphic_6">
        <rect x="115.91793" y="415.8923" width="132.00993" height="132.00993" fill="black"/>
        <rect x="115.91793" y="415.8923" width="132.00993" height="132.00993" stroke="white" stroke-linecap="round" stroke-linejoin="round" stroke-width="3"/>
      </g>
      <g id="Graphic_7">
        <rect x="111.21658" y="615.52224" width="132.00993" height="132.00993" fill="white"/>
        <rect x="111.21658" y="615.52224" width="132.00993" height="132.00993" stroke="black" stroke-linecap="round" stroke-linejoin="round" stroke-width="3"/>
      </g>
      <g id="Graphic_8">
        <rect x="409.43236" y="352.8213" width="132.00993" height="132.00993" fill="black"/>
        <rect x="409.43236" y="352.8213" width="132.00993" height="132.00993" stroke="white" stroke-linecap="round" stroke-linejoin="round" stroke-width="3"/>
      </g>
      <g id="Graphic_9">
        <rect x="475.648" y="491.47814" width="132.00993" height="132.00993" fill="white"/>
        <rect x="475.648" y="491.47814" width="132.00993" height="132.00993" stroke="black" stroke-linecap="round" stroke-linejoin="round" stroke-width="3"/>
      </g>
      <g id="Graphic_10">
        <rect x="660.3505" y="491.47814" width="132.00993" height="132.00993" fill="black"/>
        <rect x="660.3505" y="491.47814" width="132.00993" height="132.00993" stroke="white" stroke-linecap="round" stroke-linejoin="round" stroke-width="3"/>
      </g>
      <g id="Graphic_11">
        <rect x="607.6579" y="625.4682" width="132.00993" height="132.00993" fill="white"/>
        <rect x="607.6579" y="625.4682" width="132.00993" height="132.00993" stroke="black" stroke-linecap="round" stroke-linejoin="round" stroke-width="3"/>
      </g>
      <g id="Graphic_12">
        <rect x="543.4224" y="218.8312" width="132.00993" height="132.00993" fill="black"/>
        <rect x="543.4224" y="218.8312" width="132.00993" height="132.00993" stroke="white" stroke-linecap="round" stroke-linejoin="round" stroke-width="3"/>
      </g>
      <g id="Graphic_13">
        <rect x="409.43236" y="218.17116" width="132.00993" height="132.00993" fill="white"/>
        <rect x="409.43236" y="218.17116" width="132.00993" height="132.00993" stroke="black" stroke-linecap="round" stroke-linejoin="round" stroke-width="3"/>
      </g>
      <g id="Graphic_14">
        <rect x="243.88655" y="615.52224" width="132.00993" height="132.00993" fill="black"/>
        <rect x="243.88655" y="615.52224" width="132.00993" height="132.00993" stroke="white" stroke-linecap="round" stroke-linejoin="round" stroke-width="3"/>
      </g>
      <g id="Graphic_15">
        <rect x="309.66005" y="427.66005" width="132.00993" height="132.00993" fill="white"/>
        <rect x="309.66005" y="427.66005" width="132.00993" height="132.00993" stroke="black" stroke-linecap="round" stroke-linejoin="round" stroke-width="3"/>
      </g>
      <g id="Graphic_16">
        <rect x="455.3579" y="655.3973" width="132.00993" height="132.00993" fill="white"/>
        <rect x="455.3579" y="655.3973" width="132.00993" height="132.00993" stroke="black" stroke-linecap="round" stroke-linejoin="round" stroke-width="3"/>
      </g>
      <g id="Graphic_17">
        <rect x="646.8997" y="671.06355" width="132.00993" height="132.00993" fill="black"/>
        <rect x="646.8997" y="671.06355" width="132.00993" height="132.00993" stroke="white" stroke-linecap="round" stroke-linejoin="round" stroke-width="3"/>
      </g>
      <g id="Graphic_18">
        <rect x="543.4224" y="352.16123" width="132.00993" height="132.00993" fill="white"/>
        <rect x="543.4224" y="352.16123" width="132.00993" height="132.00993" stroke="black" stroke-linecap="round" stroke-linejoin="round" stroke-width="3"/>
      </g>
      <g id="Graphic_19">
        <rect x="543.4224" y="218.17116" width="132.00993" height="132.00993" fill="white"/>
        <rect x="543.4224" y="218.17116" width="132.00993" height="132.00993" stroke="black" stroke-linecap="round" stroke-linejoin="round" stroke-width="3"/>
      </g>
      <g id="Graphic_20">
        <rect x="543.4224" y="354.80143" width="132.00993" height="132.00993" fill="black"/>
        <rect x="543.4224" y="354.80143" width="132.00993" height="132.00993" stroke="white" stroke-linecap="round" stroke-linejoin="round" stroke-width="3"/>
      </g>
      <g id="Graphic_21">
        <path d="M 291.30697 160.23365 L 375.8965 182.89934 L 353.2308 267.48885 L 268.64128 244.82316 Z" fill="white"/>
        <path d="M 291.30697 160.23365 L 375.8965 182.89934 L 353.2308 267.48885 L 268.64128 244.82316 Z" stroke="black" stroke-linecap="round" stroke-linejoin="round" stroke-width="3"/>
      </g>
      <g id="Graphic_22">
        <path d="M 400.038 220.63736 L 484.6275 243.30305 L 461.9618 327.89256 L 377.3723 305.22687 Z" fill="black"/>
        <path d="M 400.038 220.63736 L 484.6275 243.30305 L 461.9618 327.89256 L 377.3723 305.22687 Z" stroke="white" stroke-linecap="round" stroke-linejoin="round" stroke-width="3"/>
      </g>
      <g id="Graphic_23">
        <path d="M 438.53317 413.6376 L 353.94366 390.9719 L 376.60935 306.38238 L 461.19886 329.04807 Z" fill="white"/>
        <path d="M 438.53317 413.6376 L 353.94366 390.9719 L 376.60935 306.38238 L 461.19886 329.04807 Z" stroke="black" stroke-linecap="round" stroke-linejoin="round" stroke-width="3"/>
      </g>
      <g id="Graphic_24">
        <path d="M 292.97725 379.23248 L 208.38775 356.5668 L 231.05344 271.97728 L 315.64294 294.64297 Z" fill="black"/>
        <path d="M 292.97725 379.23248 L 208.38775 356.5668 L 231.05344 271.97728 L 315.64294 294.64297 Z" stroke="white" stroke-linecap="round" stroke-linejoin="round" stroke-width="3"/>
      </g>
      <g id="Graphic_25">
        <path d="M 101.58974 136.27106 L 186.17925 158.93675 L 163.51356 243.52626 L 78.92405 220.86057 Z" fill="black"/>
        <path d="M 101.58974 136.27106 L 186.17925 158.93675 L 163.51356 243.52626 L 78.92405 220.86057 Z" stroke="white" stroke-linecap="round" stroke-linejoin="round" stroke-width="3"/>
      </g>
      <g id="Graphic_26">
        <path d="M 247.51736 549.737 L 162.92785 527.0713 L 185.59354 442.4818 L 270.18305 465.1475 Z" fill="white"/>
        <path d="M 247.51736 549.737 L 162.92785 527.0713 L 185.59354 442.4818 L 270.18305 465.1475 Z" stroke="black" stroke-linecap="round" stroke-linejoin="round" stroke-width="3"/>
      </g>
      <g id="Graphic_27">
        <path d="M 430.5393 386.33256 L 515.1288 408.99825 L 492.4631 493.58775 L 407.8736 470.92206 Z" fill="black"/>
        <path d="M 430.5393 386.33256 L 515.1288 408.99825 L 492.4631 493.58775 L 407.8736 470.92206 Z" stroke="white" stroke-linecap="round" stroke-linejoin="round" stroke-width="3"/>
      </g>
      <g id="Graphic_28">
        <path d="M 568.5704 631.0354 L 483.9809 608.36974 L 506.6466 523.7802 L 591.2361 546.4459 Z" fill="white"/>
        <path d="M 568.5704 631.0354 L 483.9809 608.36974 L 506.6466 523.7802 L 591.2361 546.4459 Z" stroke="black" stroke-linecap="round" stroke-linejoin="round" stroke-width="3"/>
      </g>
      <g id="Graphic_29">
        <path d="M 558.9988 499.5234 L 643.5883 522.1891 L 620.9226 606.7786 L 536.3331 584.1129 Z" fill="black"/>
        <path d="M 558.9988 499.5234 L 643.5883 522.1891 L 620.9226 606.7786 L 536.3331 584.1129 Z" stroke="white" stroke-linecap="round" stroke-linejoin="round" stroke-width="3"/>
      </g>
      <g id="Graphic_30">
        <path d="M 597.494 692.5236 L 512.9045 669.8579 L 535.5702 585.2684 L 620.1597 607.9341 Z" fill="white"/>
        <path d="M 597.494 692.5236 L 512.9045 669.8579 L 535.5702 585.2684 L 620.1597 607.9341 Z" stroke="black" stroke-linecap="round" stroke-linejoin="round" stroke-width="3"/>
      </g>
      <g id="Graphic_31">
        <path d="M 623.9928 346.14557 L 601.3271 430.7351 L 516.7376 408.0694 L 539.4033 323.4799 Z" fill="black"/>
        <path d="M 623.9928 346.14557 L 601.3271 430.7351 L 516.7376 408.0694 L 539.4033 323.4799 Z" stroke="white" stroke-linecap="round" stroke-linejoin="round" stroke-width="3"/>
      </g>
      <g id="Graphic_32">
        <path d="M 430.9926 384.64077 L 453.6583 300.05126 L 538.2478 322.71695 L 515.5821 407.30646 Z" fill="white"/>
        <path d="M 430.9926 384.64077 L 453.6583 300.05126 L 538.2478 322.71695 L 515.5821 407.30646 Z" stroke="black" stroke-linecap="round" stroke-linejoin="round" stroke-width="3"/>
      </g>
      <g id="Graphic_33">
        <path d="M 393.60196 584.28376 L 309.01246 561.6181 L 331.67815 477.02856 L 416.26765 499.69425 Z" fill="black"/>
        <path d="M 393.60196 584.28376 L 309.01246 561.6181 L 331.67815 477.02856 L 416.26765 499.69425 Z" stroke="white" stroke-linecap="round" stroke-linejoin="round" stroke-width="3"/>
      </g>
      <g id="Graphic_34">
        <path d="M 355.10677 391.28354 L 439.6963 413.94923 L 417.0306 498.53874 L 332.44108 475.87305 Z" fill="white"/>
        <path d="M 355.10677 391.28354 L 439.6963 413.94923 L 417.0306 498.53874 L 332.44108 475.87305 Z" stroke="black" stroke-linecap="round" stroke-linejoin="round" stroke-width="3"/>
      </g>
      <g id="Graphic_35">
        <path d="M 546.8336 717.2338 L 462.2441 694.5681 L 484.9098 609.9786 L 569.4993 632.64426 Z" fill="white"/>
        <path d="M 546.8336 717.2338 L 462.2441 694.5681 L 484.9098 609.9786 L 569.4993 632.64426 Z" stroke="black" stroke-linecap="round" stroke-linejoin="round" stroke-width="3"/>
      </g>
      <g id="Graphic_36">
        <path d="M 599.1858 692.9769 L 514.5963 670.3112 L 537.262 585.7217 L 621.8515 608.3874 Z" fill="black"/>
        <path d="M 599.1858 692.9769 L 514.5963 670.3112 L 537.262 585.7217 L 621.8515 608.3874 Z" stroke="white" stroke-linecap="round" stroke-linejoin="round" stroke-width="3"/>
      </g>
      <g id="Graphic_37">
        <path d="M 493.84527 493.5048 L 516.51096 408.9153 L 601.10046 431.581 L 578.4348 516.1705 Z" fill="white"/>
        <path d="M 493.84527 493.5048 L 516.51096 408.9153 L 601.10046 431.581 L 578.4348 516.1705 Z" stroke="black" stroke-linecap="round" stroke-linejoin="round" stroke-width="3"/>
      </g>
      <g id="Graphic_38">
        <path d="M 516.85094 407.64644 L 539.5166 323.05693 L 624.10614 345.72262 L 601.44045 430.31213 Z" fill="white"/>
        <path d="M 516.85094 407.64644 L 539.5166 323.05693 L 624.10614 345.72262 L 601.44045 430.31213 Z" stroke="black" stroke-linecap="round" stroke-linejoin="round" stroke-width="3"/>
      </g>
      <g id="Graphic_39">
        <path d="M 493.39195 495.1966 L 516.05764 410.60707 L 600.64715 433.27276 L 577.98146 517.8623 Z" fill="black"/>
        <path d="M 493.39195 495.1966 L 516.05764 410.60707 L 600.64715 433.27276 L 577.98146 517.8623 Z" stroke="white" stroke-linecap="round" stroke-linejoin="round" stroke-width="3"/>
      </g>
      <g id="Graphic_40">
        <path d="M 513.8296 75 L 598.4191 97.66569 L 575.7534 182.2552 L 491.1639 159.5895 Z" fill="white"/>
        <path d="M 513.8296 75 L 598.4191 97.66569 L 575.7534 182.2552 L 491.1639 159.5895 Z" stroke="black" stroke-linecap="round" stroke-linejoin="round" stroke-width="3"/>
      </g>
      <g id="Graphic_41">
        <path d="M 607.6657 34.21804 L 692.2552 56.88373 L 669.5895 141.47324 L 585 118.80755 Z" fill="black"/>
        <path d="M 607.6657 34.21804 L 692.2552 56.88373 L 669.5895 141.47324 L 585 118.80755 Z" stroke="white" stroke-linecap="round" stroke-linejoin="round" stroke-width="3"/>
      </g>
      <g id="Graphic_42">
        <path d="M 636.8086 290.63758 L 552.21905 267.9719 L 574.88475 183.38238 L 659.47425 206.04807 Z" fill="white"/>
        <path d="M 636.8086 290.63758 L 552.21905 267.9719 L 574.88475 183.38238 L 659.47425 206.04807 Z" stroke="black" stroke-linecap="round" stroke-linejoin="round" stroke-width="3"/>
      </g>
      <g id="Graphic_43">
        <path d="M 528.6771 216.191 L 444.0876 193.52532 L 466.7533 108.93581 L 551.3428 131.6015 Z" fill="black"/>
        <path d="M 528.6771 216.191 L 444.0876 193.52532 L 466.7533 108.93581 L 551.3428 131.6015 Z" stroke="white" stroke-linecap="round" stroke-linejoin="round" stroke-width="3"/>
      </g>
      <g id="Graphic_44">
        <path d="M 437.28717 302.67568 L 521.8767 325.34137 L 499.211 409.9309 L 414.6215 387.2652 Z" fill="black"/>
        <path d="M 437.28717 302.67568 L 521.8767 325.34137 L 499.211 409.9309 L 414.6215 387.2652 Z" stroke="white" stroke-linecap="round" stroke-linejoin="round" stroke-width="3"/>
      </g>
      <g id="Graphic_45">
        <path d="M 506.8649 438.50474 L 422.2754 415.83905 L 444.9411 331.24954 L 529.5306 353.91523 Z" fill="white"/>
        <path d="M 506.8649 438.50474 L 422.2754 415.83905 L 444.9411 331.24954 L 529.5306 353.91523 Z" stroke="black" stroke-linecap="round" stroke-linejoin="round" stroke-width="3"/>
      </g>
      <g id="Graphic_46">
        <path d="M 659.8972 206.1614 L 744.4867 228.8271 L 721.821 313.4166 L 637.2315 290.7509 Z" fill="black"/>
        <path d="M 659.8972 206.1614 L 744.4867 228.8271 L 721.821 313.4166 L 637.2315 290.7509 Z" stroke="white" stroke-linecap="round" stroke-linejoin="round" stroke-width="3"/>
      </g>
      <g id="Graphic_47">
        <path d="M 698.3924 399.1616 L 613.8029 376.49593 L 636.4686 291.90642 L 721.0581 314.5721 Z" fill="white"/>
        <path d="M 698.3924 399.1616 L 613.8029 376.49593 L 636.4686 291.90642 L 721.0581 314.5721 Z" stroke="black" stroke-linecap="round" stroke-linejoin="round" stroke-width="3"/>
      </g>
      <g id="Graphic_48">
        <path d="M 721.481 314.68544 L 806.0705 337.35113 L 783.40485 421.94064 L 698.81534 399.27495 Z" fill="black"/>
        <path d="M 721.481 314.68544 L 806.0705 337.35113 L 783.40485 421.94064 L 698.81534 399.27495 Z" stroke="white" stroke-linecap="round" stroke-linejoin="round" stroke-width="3"/>
      </g>
      <g id="Graphic_49">
        <path d="M 759.9762 507.68566 L 675.3867 485.01997 L 698.0524 400.43046 L 782.6419 423.09615 Z" fill="white"/>
        <path d="M 759.9762 507.68566 L 675.3867 485.01997 L 698.0524 400.43046 L 782.6419 423.09615 Z" stroke="black" stroke-linecap="round" stroke-linejoin="round" stroke-width="3"/>
      </g>
      <g id="Graphic_50">
        <path d="M 826.5128 195.08864 L 803.8471 279.67815 L 719.2576 257.01246 L 741.9233 172.42295 Z" fill="black"/>
        <path d="M 826.5128 195.08864 L 803.8471 279.67815 L 719.2576 257.01246 L 741.9233 172.42295 Z" stroke="white" stroke-linecap="round" stroke-linejoin="round" stroke-width="3"/>
      </g>
      <g id="Graphic_51">
        <path d="M 660.3505 204.4696 L 683.0162 119.8801 L 767.6057 142.54579 L 744.94 227.1353 Z" fill="white"/>
        <path d="M 660.3505 204.4696 L 683.0162 119.8801 L 767.6057 142.54579 L 744.94 227.1353 Z" stroke="black" stroke-linecap="round" stroke-linejoin="round" stroke-width="3"/>
      </g>
      <g id="Graphic_52">
        <path d="M 560.7948 518.4549 L 476.2053 495.7892 L 498.871 411.1997 L 583.4605 433.8654 Z" fill="black"/>
        <path d="M 560.7948 518.4549 L 476.2053 495.7892 L 498.871 411.1997 L 583.4605 433.8654 Z" stroke="white" stroke-linecap="round" stroke-linejoin="round" stroke-width="3"/>
      </g>
      <g id="Graphic_53">
        <path d="M 522.2996 325.4547 L 606.88914 348.1204 L 584.22345 432.7099 L 499.63394 410.0442 Z" fill="white"/>
        <path d="M 522.2996 325.4547 L 606.88914 348.1204 L 584.22345 432.7099 L 499.63394 410.0442 Z" stroke="black" stroke-linecap="round" stroke-linejoin="round" stroke-width="3"/>
      </g>
      <g id="Graphic_54">
        <path d="M 676.6556 485.35995 L 592.06605 462.69426 L 614.73174 378.10476 L 699.32125 400.77045 Z" fill="white"/>
        <path d="M 676.6556 485.35995 L 592.06605 462.69426 L 614.73174 378.10476 L 699.32125 400.77045 Z" stroke="black" stroke-linecap="round" stroke-linejoin="round" stroke-width="3"/>
      </g>
      <g id="Graphic_55">
        <path d="M 761.668 508.139 L 677.0785 485.4733 L 699.7442 400.88377 L 784.3337 423.54946 Z" fill="black"/>
        <path d="M 761.668 508.139 L 677.0785 485.4733 L 699.7442 400.88377 L 784.3337 423.54946 Z" stroke="white" stroke-linecap="round" stroke-linejoin="round" stroke-width="3"/>
      </g>
      <g id="Graphic_56">
        <path d="M 696.36524 342.44786 L 719.0309 257.85835 L 803.6204 280.52404 L 780.95475 365.11355 Z" fill="white"/>
        <path d="M 696.36524 342.44786 L 719.0309 257.85835 L 803.6204 280.52404 L 780.95475 365.11355 Z" stroke="black" stroke-linecap="round" stroke-linejoin="round" stroke-width="3"/>
      </g>
      <g id="Graphic_57">
        <path d="M 719.3709 256.5895 L 742.0366 172 L 826.6261 194.6657 L 803.9604 279.2552 Z" fill="white"/>
        <path d="M 719.3709 256.5895 L 742.0366 172 L 826.6261 194.6657 L 803.9604 279.2552 Z" stroke="black" stroke-linecap="round" stroke-linejoin="round" stroke-width="3"/>
      </g>
      <g id="Graphic_58">
        <path d="M 695.9119 344.13965 L 718.5776 259.55014 L 803.1671 282.21583 L 780.5014 366.80534 Z" fill="black"/>
        <path d="M 695.9119 344.13965 L 718.5776 259.55014 L 803.1671 282.21583 L 780.5014 366.80534 Z" stroke="white" stroke-linecap="round" stroke-linejoin="round" stroke-width="3"/>
      </g>
      <g id="Graphic_59">
        <path d="M 49.19085 283.88238 L 133.78036 306.54807 L 111.11467 391.1376 L 26.525158 368.4719 Z" fill="white"/>
        <path d="M 49.19085 283.88238 L 133.78036 306.54807 L 111.11467 391.1376 L 26.525158 368.4719 Z" stroke="black" stroke-linecap="round" stroke-linejoin="round" stroke-width="3"/>
      </g>
      <g id="Graphic_60">
        <path d="M 194.96583 371.8115 L 279.55534 394.4772 L 256.88965 479.0667 L 172.30014 456.401 Z" fill="black"/>
        <path d="M 194.96583 371.8115 L 279.55534 394.4772 L 256.88965 479.0667 L 172.30014 456.401 Z" stroke="white" stroke-linecap="round" stroke-linejoin="round" stroke-width="3"/>
      </g>
      <g id="Graphic_61">
        <path d="M 294.53317 576.57947 L 209.94366 553.9138 L 232.60935 469.32427 L 317.19886 491.98996 Z" fill="white"/>
        <path d="M 294.53317 576.57947 L 209.94366 553.9138 L 232.60935 469.32427 L 317.19886 491.98996 Z" stroke="black" stroke-linecap="round" stroke-linejoin="round" stroke-width="3"/>
      </g>
      <g id="Graphic_62">
        <path d="M 148.97725 542.17436 L 64.387746 519.5087 L 87.05344 434.91917 L 171.64294 457.58486 Z" fill="black"/>
        <path d="M 148.97725 542.17436 L 64.387746 519.5087 L 87.05344 434.91917 L 171.64294 457.58486 Z" stroke="white" stroke-linecap="round" stroke-linejoin="round" stroke-width="3"/>
      </g>
      <g id="Graphic_63">
        <path d="M 126.09431 531.4464 L 210.68382 554.1121 L 188.01813 638.7016 L 103.42862 616.0359 Z" fill="black"/>
        <path d="M 126.09431 531.4464 L 210.68382 554.1121 L 188.01813 638.7016 L 103.42862 616.0359 Z" stroke="white" stroke-linecap="round" stroke-linejoin="round" stroke-width="3"/>
      </g>
      <g id="Graphic_64">
        <path d="M 99.47606 778.31875 L 14.886552 755.6531 L 37.552242 671.06355 L 122.14175 693.72924 Z" fill="white"/>
        <path d="M 99.47606 778.31875 L 14.886552 755.6531 L 37.552242 671.06355 L 122.14175 693.72924 Z" stroke="black" stroke-linecap="round" stroke-linejoin="round" stroke-width="3"/>
      </g>
      <g id="Graphic_65">
        <path d="M 317.6218 492.1033 L 402.2113 514.769 L 379.54563 599.3585 L 294.95612 576.6928 Z" fill="black"/>
        <path d="M 317.6218 492.1033 L 402.2113 514.769 L 379.54563 599.3585 L 294.95612 576.6928 Z" stroke="white" stroke-linecap="round" stroke-linejoin="round" stroke-width="3"/>
      </g>
      <g id="Graphic_66">
        <path d="M 291.00355 738.9756 L 206.41405 716.3099 L 229.07974 631.7204 L 313.66924 654.3861 Z" fill="white"/>
        <path d="M 291.00355 738.9756 L 206.41405 716.3099 L 229.07974 631.7204 L 313.66924 654.3861 Z" stroke="black" stroke-linecap="round" stroke-linejoin="round" stroke-width="3"/>
      </g>
      <g id="Graphic_67">
        <path d="M 411.8659 647.6632 L 496.4554 670.3289 L 473.7897 754.9184 L 389.2002 732.2527 Z" fill="black"/>
        <path d="M 411.8659 647.6632 L 496.4554 670.3289 L 473.7897 754.9184 L 389.2002 732.2527 Z" stroke="white" stroke-linecap="round" stroke-linejoin="round" stroke-width="3"/>
      </g>
      <g id="Graphic_68">
        <path d="M 417.70083 793.6275 L 333.11133 770.9619 L 355.777 686.37235 L 440.3665 709.038 Z" fill="white"/>
        <path d="M 417.70083 793.6275 L 333.11133 770.9619 L 355.777 686.37235 L 440.3665 709.038 Z" stroke="black" stroke-linecap="round" stroke-linejoin="round" stroke-width="3"/>
      </g>
      <g id="Graphic_69">
        <path d="M 579.52876 560.7901 L 556.8631 645.3796 L 472.27357 622.7139 L 494.93926 538.1244 Z" fill="black"/>
        <path d="M 579.52876 560.7901 L 556.8631 645.3796 L 472.27357 622.7139 L 494.93926 538.1244 Z" stroke="white" stroke-linecap="round" stroke-linejoin="round" stroke-width="3"/>
      </g>
      <g id="Graphic_70">
        <path d="M 318.07512 490.4115 L 340.7408 405.822 L 425.3303 428.4877 L 402.66463 513.0772 Z" fill="white"/>
        <path d="M 318.07512 490.4115 L 340.7408 405.822 L 425.3303 428.4877 L 402.66463 513.0772 Z" stroke="black" stroke-linecap="round" stroke-linejoin="round" stroke-width="3"/>
      </g>
      <g id="Graphic_71">
        <path d="M 183.74836 843.5704 L 99.15885 820.9047 L 121.82454 736.3152 L 206.41405 758.9809 Z" fill="black"/>
        <path d="M 183.74836 843.5704 L 99.15885 820.9047 L 121.82454 736.3152 L 206.41405 758.9809 Z" stroke="white" stroke-linecap="round" stroke-linejoin="round" stroke-width="3"/>
      </g>
      <g id="Graphic_72">
        <path d="M 145.99332 608.09755 L 230.58283 630.76324 L 207.91714 715.35275 L 123.32763 692.68706 Z" fill="white"/>
        <path d="M 145.99332 608.09755 L 230.58283 630.76324 L 207.91714 715.35275 L 123.32763 692.68706 Z" stroke="black" stroke-linecap="round" stroke-linejoin="round" stroke-width="3"/>
      </g>
      <g id="Graphic_73">
        <path d="M 269.26672 825.174 L 184.67721 802.5083 L 207.3429 717.9188 L 291.9324 740.58445 Z" fill="white"/>
        <path d="M 269.26672 825.174 L 184.67721 802.5083 L 207.3429 717.9188 L 291.9324 740.58445 Z" stroke="black" stroke-linecap="round" stroke-linejoin="round" stroke-width="3"/>
      </g>
      <g id="Graphic_74">
        <path d="M 419.3926 794.0809 L 334.8031 771.4152 L 357.4688 686.8257 L 442.0583 709.49135 Z" fill="black"/>
        <path d="M 419.3926 794.0809 L 334.8031 771.4152 L 357.4688 686.8257 L 442.0583 709.49135 Z" stroke="white" stroke-linecap="round" stroke-linejoin="round" stroke-width="3"/>
      </g>
      <g id="Graphic_75">
        <path d="M 449.3812 708.1493 L 472.0469 623.5598 L 556.6364 646.2255 L 533.9707 730.815 Z" fill="white"/>
        <path d="M 449.3812 708.1493 L 472.0469 623.5598 L 556.6364 646.2255 L 533.9707 730.815 Z" stroke="black" stroke-linecap="round" stroke-linejoin="round" stroke-width="3"/>
      </g>
      <g id="Graphic_76">
        <path d="M 472.3869 622.291 L 495.0526 537.7015 L 579.6421 560.36716 L 556.9764 644.9567 Z" fill="white"/>
        <path d="M 472.3869 622.291 L 495.0526 537.7015 L 579.6421 560.36716 L 556.9764 644.9567 Z" stroke="black" stroke-linecap="round" stroke-linejoin="round" stroke-width="3"/>
      </g>
      <g id="Graphic_77">
        <path d="M 448.9279 709.8411 L 471.5936 625.2516 L 556.1831 647.9173 L 533.5174 732.5068 Z" fill="black"/>
        <path d="M 448.9279 709.8411 L 471.5936 625.2516 L 556.1831 647.9173 L 533.5174 732.5068 Z" stroke="white" stroke-linecap="round" stroke-linejoin="round" stroke-width="3"/>
      </g>
    </g>
  </g>
</svg>
