<?xml version="1.0" encoding="UTF-8" standalone="no"?>
<!DOCTYPE svg PUBLIC "-//W3C//DTD SVG 1.1//EN" "http://www.w3.org/Graphics/SVG/1.1/DTD/svg11.dtd">
<svg xmlns:xl="http://www.w3.org/1999/xlink" xmlns:dc="http://purl.org/dc/elements/1.1/" version="1.1" xmlns="http://www.w3.org/2000/svg" viewBox="0 0 850.394 850.394" width="850.394" height="850.394">
  <defs>
    <marker orient="auto" overflow="visible" markerUnits="strokeWidth" id="FilledArrow_Marker" stroke-linejoin="miter" stroke-miterlimit="10" viewBox="-1 -2 4 4" markerWidth="4" markerHeight="4" color="#00fa00">
      <g>
        <path d="M 1.7828571 0 L 0 -.6685714 L 0 .6685714 Z" fill="currentColor" stroke="currentColor" stroke-width="1"/>
      </g>
    </marker>
    <marker orient="auto" overflow="visible" markerUnits="strokeWidth" id="FilledArrow_Marker_2" stroke-linejoin="miter" stroke-miterlimit="10" viewBox="-1 -3 5 6" markerWidth="5" markerHeight="6" color="black">
      <g>
        <path d="M 2.88 0 L 0 -1.08 L 0 1.08 Z" fill="currentColor" stroke="currentColor" stroke-width="1"/>
      </g>
    </marker>
    <marker orient="auto" overflow="visible" markerUnits="strokeWidth" id="FilledArrow_Marker_3" stroke-linejoin="miter" stroke-miterlimit="10" viewBox="-4 -3 5 6" markerWidth="5" markerHeight="6" color="black">
      <g>
        <path d="M -2.88 0 L 0 1.08 L 0 -1.08 Z" fill="currentColor" stroke="currentColor" stroke-width="1"/>
      </g>
    </marker>
  </defs>
  <metadata> Produced by OmniGraffle 7.9.4 
    <dc:date>2019-04-17 14:10:35 +0000</dc:date>
  </metadata>
  <g id="NoteIn" stroke-opacity="1" stroke="none" fill="none" fill-opacity="1" stroke-dasharray="none">
    <title>NoteIn</title>
    <g id="NoteIn: Layer 1">
      <title>Layer 1</title>
      <g id="Line_18">
        <path d="M 509.3666 256.43617 L 588 499.82456 L 629.42985 592.5" stroke="#b3fab5" stroke-linecap="round" stroke-linejoin="round" stroke-width="35"/>
      </g>
      <g id="Line_17">
        <path d="M 396.121 271 L 340.77193 541.9298 L 333.7544 678.7719" stroke="#b3fab5" stroke-linecap="round" stroke-linejoin="round" stroke-width="35"/>
      </g>
      <g id="Line_16">
        <path d="M 358.121 226.01184 L 328.91274 284.0351 L 308 371" stroke="#b3fab5" stroke-linecap="round" stroke-linejoin="round" stroke-width="35"/>
      </g>
      <g id="Line_15">
        <line x1="435.22807" y1="296.3158" x2="426.46805" y2="407.5681" marker-end="url(#FilledArrow_Marker)" stroke="#00fa00" stroke-linecap="round" stroke-linejoin="round" stroke-width="35"/>
      </g>
      <g id="Graphic_8">
        <circle cx="427.2932" cy="198.35733" r="128.357530144124" fill="#b8b8b8"/>
        <circle cx="427.2932" cy="198.35733" r="128.357530144124" stroke="black" stroke-linecap="round" stroke-linejoin="round" stroke-width="7"/>
      </g>
      <g id="Graphic_7">
        <path d="M 371.47373 230.6604 L 318.19224 209.41052 C 303.00855 188.87186 309.28902 177.99376 334.66787 180.8739 L 379.71154 216.39208 C 383.3215 219.23865 383.9404 224.47272 381.0938 228.0827 C 378.8115 230.97709 374.89746 232.02585 371.47373 230.6604 Z" fill="#030303"/>
        <path d="M 371.47373 230.6604 L 318.19224 209.41052 C 303.00855 188.87186 309.28902 177.99376 334.66787 180.8739 L 379.71154 216.39208 C 383.3215 219.23865 383.9404 224.47272 381.0938 228.0827 C 378.8115 230.97709 374.89746 232.02585 371.47373 230.6604 Z" stroke="#969696" stroke-linecap="round" stroke-linejoin="round" stroke-width="1"/>
      </g>
      <g id="Graphic_6">
        <path d="M 387.4813 194.85613 L 351.9631 149.81247 C 349.08297 124.43362 359.96107 118.15314 380.49973 133.33684 L 401.7496 186.61832 C 403.45265 190.8885 401.37157 195.73078 397.10138 197.43383 C 393.67765 198.7993 389.7636 197.75052 387.4813 194.85613 Z" fill="#030303"/>
        <path d="M 387.4813 194.85613 L 351.9631 149.81247 C 349.08297 124.43362 359.96107 118.15314 380.49973 133.33684 L 401.7496 186.61832 C 403.45265 190.8885 401.37157 195.73078 397.10138 197.43383 C 393.67765 198.7993 389.7636 197.75052 387.4813 194.85613 Z" stroke="#969696" stroke-linecap="round" stroke-linejoin="round" stroke-width="1"/>
      </g>
      <g id="Graphic_5">
        <path d="M 469.7989 216.39208 L 514.84254 180.8739 C 540.2214 177.99376 546.50187 188.87186 531.3182 209.41052 L 478.0367 230.6604 C 473.7665 232.36344 468.92423 230.28236 467.2212 226.01217 C 465.8557 222.58844 466.9045 218.67439 469.7989 216.39208 Z" fill="#030303"/>
        <path d="M 469.7989 216.39208 L 514.84254 180.8739 C 540.2214 177.99376 546.50187 188.87186 531.3182 209.41052 L 478.0367 230.6604 C 473.7665 232.36344 468.92423 230.28236 467.2212 226.01217 C 465.8557 222.58844 466.9045 218.67439 469.7989 216.39208 Z" stroke="#969696" stroke-linecap="round" stroke-linejoin="round" stroke-width="1"/>
      </g>
      <g id="Graphic_4">
        <path d="M 447.4206 186.61832 L 468.67045 133.33684 C 489.2091 118.15315 500.0872 124.43362 497.2071 149.81247 L 461.6889 194.85614 C 458.84233 198.46612 453.60826 199.08498 449.9983 196.23841 C 447.1039 193.9561 446.0551 190.04205 447.4206 186.61832 Z" fill="#030303"/>
        <path d="M 447.4206 186.61832 L 468.67045 133.33684 C 489.2091 118.15315 500.0872 124.43362 497.2071 149.81247 L 461.6889 194.85614 C 458.84233 198.46612 453.60826 199.08498 449.9983 196.23841 C 447.1039 193.9561 446.0551 190.04205 447.4206 186.61832 Z" stroke="#969696" stroke-linecap="round" stroke-linejoin="round" stroke-width="1"/>
      </g>
      <g id="Graphic_3">
        <path d="M 416.5174 183.13175 L 408.2796 126.3637 C 418.47473 102.9449 431.0357 102.9449 441.23084 126.3637 L 432.993 183.13175 C 432.3328 187.68137 428.1094 190.83436 423.5598 190.17414 C 419.912 189.6448 417.04673 186.77952 416.5174 183.13175 Z" fill="#030303"/>
        <path d="M 416.5174 183.13175 L 408.2796 126.3637 C 418.47473 102.9449 431.0357 102.9449 441.23084 126.3637 L 432.993 183.13175 C 432.3328 187.68137 428.1094 190.83436 423.5598 190.17414 C 419.912 189.6448 417.04673 186.77952 416.5174 183.13175 Z" stroke="#969696" stroke-linecap="round" stroke-linejoin="round" stroke-width="1"/>
      </g>
      <g id="Graphic_2">
        <path d="M 416.5174 271.35135 L 408.2796 250.36854 C 418.47473 241.7124 431.0357 241.7124 441.23084 250.36854 L 432.993 271.35135 C 431.20685 275.90097 426.0707 278.1412 421.52106 276.355 C 419.2299 275.45552 417.4169 273.6425 416.5174 271.35135 Z" fill="#030303"/>
        <path d="M 416.5174 271.35135 L 408.2796 250.36854 C 418.47473 241.7124 431.0357 241.7124 441.23084 250.36854 L 432.993 271.35135 C 431.20685 275.90097 426.0707 278.1412 421.52106 276.355 C 419.2299 275.45552 417.4169 273.6425 416.5174 271.35135 Z" stroke="#969696" stroke-linecap="round" stroke-linejoin="round" stroke-width="1"/>
      </g>
      <g id="Graphic_9">
        <rect x="352.49947" y="478" width="141" height="49" fill="#8080ff"/>
        <rect x="352.49947" y="478" width="141" height="49" stroke="black" stroke-linecap="round" stroke-linejoin="round" stroke-width="7"/>
      </g>
      <g id="Graphic_10">
        <rect x="262" y="362" width="84" height="49" fill="#c0c0ff"/>
        <path d="M 262 362 L 346 362 L 346 411 L 262 411 Z" stroke="black" stroke-linecap="round" stroke-linejoin="round" stroke-dasharray="20.0,20.0" stroke-width="5"/>
      </g>
      <g id="Graphic_11">
        <rect x="571" y="595" width="141" height="49" fill="#c0c0ff"/>
        <path d="M 571 595 L 712 595 L 712 644 L 571 644 Z" stroke="black" stroke-linecap="round" stroke-linejoin="round" stroke-dasharray="20.0,20.0" stroke-width="5"/>
      </g>
      <g id="Graphic_12">
        <rect x="294.74348" y="664.2081" width="198.756" height="49" fill="#c0c0ff"/>
        <path d="M 294.74348 664.2081 L 493.49947 664.2081 L 493.49947 713.2081 L 294.74348 713.2081 Z" stroke="black" stroke-linecap="round" stroke-linejoin="round" stroke-dasharray="20.0,20.0" stroke-width="5"/>
      </g>
      <g id="Line_13">
        <line x1="190" y1="344.9" x2="190" y2="727.2941" marker-end="url(#FilledArrow_Marker_2)" marker-start="url(#FilledArrow_Marker_3)" stroke="black" stroke-linecap="round" stroke-linejoin="round" stroke-width="5"/>
      </g>
      <g id="Line_14">
        <line x1="379.9" y1="557" x2="463.1633" y2="557" marker-end="url(#FilledArrow_Marker_2)" marker-start="url(#FilledArrow_Marker_3)" stroke="black" stroke-linecap="round" stroke-linejoin="round" stroke-width="5"/>
      </g>
    </g>
  </g>
</svg>
