<?xml version="1.0" encoding="UTF-8" standalone="no"?>
<!DOCTYPE svg PUBLIC "-//W3C//DTD SVG 1.1//EN" "http://www.w3.org/Graphics/SVG/1.1/DTD/svg11.dtd">
<svg xmlns="http://www.w3.org/2000/svg" version="1.1" xmlns:dc="http://purl.org/dc/elements/1.1/" xmlns:xl="http://www.w3.org/1999/xlink" viewBox="0 0 850.394 850.394" width="850.394" height="850.394">
  <defs>
    <marker orient="auto" overflow="visible" markerUnits="strokeWidth" id="FilledArrow_Marker" stroke-linejoin="miter" stroke-miterlimit="10" viewBox="-1 -2 5 4" markerWidth="5" markerHeight="4" color="black">
      <g>
        <path d="M 2.0571429 0 L 0 -.7714286 L 0 .7714286 Z" fill="currentColor" stroke="currentColor" stroke-width="1"/>
      </g>
    </marker>
    <marker orient="auto" overflow="visible" markerUnits="strokeWidth" id="FilledArrow_Marker_2" stroke-linejoin="miter" stroke-miterlimit="10" viewBox="-4 -2 5 4" markerWidth="5" markerHeight="4" color="black">
      <g>
        <path d="M -2.0571429 0 L 0 .7714286 L 0 -.7714286 Z" fill="currentColor" stroke="currentColor" stroke-width="1"/>
      </g>
    </marker>
  </defs>
  <metadata> Produced by OmniGraffle 7.9.4 
    <dc:date>2019-03-12 13:25:12 +0000</dc:date>
  </metadata>
  <g id="pan" fill="none" stroke-opacity="1" fill-opacity="1" stroke-dasharray="none" stroke="none">
    <title>pan</title>
    <g id="pan: Layer 1">
      <title>Layer 1</title>
      <g id="Graphic_2">
        <circle cx="355.43606" cy="658.27325" r="61.6738476417081" fill="#4040ff"/>
        <circle cx="355.43606" cy="658.27325" r="61.6738476417081" stroke="black" stroke-linecap="round" stroke-linejoin="round" stroke-width="1"/>
      </g>
      <g id="Graphic_4">
        <circle cx="355.43606" cy="658.27325" r="47.5166638485962" fill="black"/>
        <circle cx="355.43606" cy="658.27325" r="47.5166638485962" stroke="#fffc00" stroke-linecap="round" stroke-linejoin="round" stroke-width="12"/>
      </g>
      <g id="Graphic_5">
        <circle cx="479.53294" cy="657.67375" r="61.6738476417081" fill="#4040ff"/>
        <circle cx="479.53294" cy="657.67375" r="61.6738476417081" stroke="black" stroke-linecap="round" stroke-linejoin="round" stroke-width="1"/>
      </g>
      <g id="Graphic_6">
        <circle cx="479.53294" cy="657.67375" r="47.5166638485963" fill="black"/>
        <circle cx="479.53294" cy="657.67375" r="47.5166638485963" stroke="#fffc00" stroke-linecap="round" stroke-linejoin="round" stroke-width="12"/>
      </g>
      <g id="Graphic_11">
        <path d="M 88.09244 181 L 278.19783 181 L 297.77508 545.34136 L 68 545.34136 Z" fill="#666"/>
        <path d="M 88.09244 181 L 278.19783 181 L 297.77508 545.34136 L 68 545.34136 Z" stroke="black" stroke-linecap="round" stroke-linejoin="round" stroke-width="22"/>
      </g>
      <g id="Graphic_10">
        <circle cx="185.0498" cy="422.08197" r="80.164724225853" fill="#ccc"/>
        <circle cx="185.0498" cy="422.08197" r="80.164724225853" stroke="black" stroke-linecap="round" stroke-linejoin="round" stroke-width="18"/>
      </g>
      <g id="Graphic_9">
        <circle cx="185.0498" cy="424.0903" r="34.0026443834401" fill="#999"/>
        <circle cx="185.0498" cy="424.0903" r="34.0026443834401" stroke="black" stroke-linecap="round" stroke-linejoin="round" stroke-width="18"/>
      </g>
      <g id="Graphic_8">
        <circle cx="185.0498" cy="266.62316" r="43.972515620752" fill="#ccc"/>
        <circle cx="185.0498" cy="266.62316" r="43.972515620752" stroke="black" stroke-linecap="round" stroke-linejoin="round" stroke-width="18"/>
      </g>
      <g id="Graphic_7">
        <circle cx="185.0498" cy="267.72478" r="18.6513684882795" fill="#a5a5a5"/>
        <circle cx="185.0498" cy="267.72478" r="18.6513684882795" stroke="black" stroke-linecap="round" stroke-linejoin="round" stroke-width="18"/>
      </g>
      <g id="Graphic_17">
        <path d="M 280.2875 824.5943 L 294.13915 777.7118 C 294.13915 777.7118 311.72008 745.21375 311.72008 744.681 C 311.72008 744.1482 328.2355 723.9035 328.2355 723.9035 L 338.8906 752.6723 C 338.8906 752.6723 351.144 769.1877 352.2095 781.4411 C 353.275 793.6945 370.85594 808.0789 370.85594 808.0789 C 370.85594 808.0789 383.1093 792.0962 383.1093 789.9652 C 383.1093 787.8342 382.0438 772.3843 383.1093 765.9912 C 384.17483 759.5981 391.10065 744.681 393.23167 744.1482 C 395.3627 743.6155 412.41087 738.8207 412.9436 739.3534 C 413.4764 739.8862 417.20567 737.2224 417.7384 743.0827 C 418.2712 748.943 430.52456 787.3014 430.52456 788.3669 C 430.52456 789.4325 424.66424 823.5288 438.5159 805.9479 C 452.36753 788.3669 453.9658 781.9739 453.9658 781.9739 C 453.9658 781.9739 447.57273 753.2051 448.63824 739.3534 C 449.70375 725.5018 477.9398 705.7898 478.47255 705.7898 C 479.0053 705.7898 494.988 707.3881 495.5207 708.4536 C 496.0535 709.5191 507.7741 748.4103 507.7741 755.3361 C 507.7741 762.2619 515.76544 789.4325 516.2982 797.9565 C 516.83095 806.4806 522.69126 806.4806 524.8223 806.4806 C 526.9533 806.4806 536.5429 786.2359 537.07566 786.2359 C 537.6084 786.2359 544.53423 778.2446 545.067 778.2446 C 545.59974 778.2446 563.1807 775.5808 563.1807 775.5808 L 570.1065 777.7118 L 564.77894 779.3101 L 552.52557 779.3101 C 552.52557 779.3101 545.59974 785.7032 545.067 785.7032 C 544.53423 785.7032 539.2067 796.3583 539.2067 796.3583 L 532.8136 808.0789 L 520.56024 812.8737 C 520.56024 812.8737 509.9051 807.0134 509.9051 806.4806 C 509.9051 805.9479 509.3724 785.7032 509.3724 785.7032 L 502.44655 761.7292 C 502.44655 761.7292 498.71726 747.8775 498.1845 746.812 C 497.65175 745.7465 492.3242 724.969 492.3242 724.4363 C 492.3242 723.9035 485.9311 717.5105 485.3984 716.9777 C 484.8656 716.44495 475.276 718.0432 475.276 718.0432 L 462.4899 727.6328 L 456.0968 739.3534 L 456.0968 750.5413 C 456.0968 750.5413 459.8261 765.4585 460.35886 765.4585 C 460.8916 765.4585 460.8916 786.2359 460.8916 786.2359 C 460.8916 786.2359 459.8261 793.6945 458.7606 794.2273 C 457.6951 794.76 448.63824 807.5461 448.63824 808.0789 C 448.63824 808.61165 438.5159 818.20125 437.98313 818.20125 C 437.4504 818.20125 431.59007 818.20125 431.59007 818.20125 L 422.5332 815.5375 L 420.4022 794.76 C 420.4022 794.76 419.3367 784.6377 419.3367 784.1049 C 419.3367 783.5721 413.4764 764.9257 413.4764 764.9257 L 406.55056 745.7465 L 400.69025 751.6068 C 400.69025 751.6068 394.82994 766.524 394.2972 766.524 C 393.76443 766.524 391.6334 776.6463 391.6334 777.1791 C 391.6334 777.7118 391.6334 795.2928 391.6334 795.2928 L 386.8386 805.9479 L 376.1835 818.20125 L 366.06114 821.3978 C 366.06114 821.3978 358.0698 808.0789 357.0043 808.0789 C 355.9388 808.0789 344.7509 793.6945 344.7509 793.6945 L 338.35785 783.0394 L 335.1613 768.1222 L 327.70274 754.2706 L 327.70274 739.8862 L 320.24417 744.681 C 320.24417 744.681 319.17865 755.8689 318.6459 756.4016 C 318.11314 756.9344 309.58906 774.5153 309.0563 774.5153 C 308.52354 774.5153 280.2875 824.5943 280.2875 824.5943 Z" fill="black"/>
        <path d="M 280.2875 824.5943 L 294.13915 777.7118 C 294.13915 777.7118 311.72008 745.21375 311.72008 744.681 C 311.72008 744.1482 328.2355 723.9035 328.2355 723.9035 L 338.8906 752.6723 C 338.8906 752.6723 351.144 769.1877 352.2095 781.4411 C 353.275 793.6945 370.85594 808.0789 370.85594 808.0789 C 370.85594 808.0789 383.1093 792.0962 383.1093 789.9652 C 383.1093 787.8342 382.0438 772.3843 383.1093 765.9912 C 384.17483 759.5981 391.10065 744.681 393.23167 744.1482 C 395.3627 743.6155 412.41087 738.8207 412.9436 739.3534 C 413.4764 739.8862 417.20567 737.2224 417.7384 743.0827 C 418.2712 748.943 430.52456 787.3014 430.52456 788.3669 C 430.52456 789.4325 424.66424 823.5288 438.5159 805.9479 C 452.36753 788.3669 453.9658 781.9739 453.9658 781.9739 C 453.9658 781.9739 447.57273 753.2051 448.63824 739.3534 C 449.70375 725.5018 477.9398 705.7898 478.47255 705.7898 C 479.0053 705.7898 494.988 707.3881 495.5207 708.4536 C 496.0535 709.5191 507.7741 748.4103 507.7741 755.3361 C 507.7741 762.2619 515.76544 789.4325 516.2982 797.9565 C 516.83095 806.4806 522.69126 806.4806 524.8223 806.4806 C 526.9533 806.4806 536.5429 786.2359 537.07566 786.2359 C 537.6084 786.2359 544.53423 778.2446 545.067 778.2446 C 545.59974 778.2446 563.1807 775.5808 563.1807 775.5808 L 570.1065 777.7118 L 564.77894 779.3101 L 552.52557 779.3101 C 552.52557 779.3101 545.59974 785.7032 545.067 785.7032 C 544.53423 785.7032 539.2067 796.3583 539.2067 796.3583 L 532.8136 808.0789 L 520.56024 812.8737 C 520.56024 812.8737 509.9051 807.0134 509.9051 806.4806 C 509.9051 805.9479 509.3724 785.7032 509.3724 785.7032 L 502.44655 761.7292 C 502.44655 761.7292 498.71726 747.8775 498.1845 746.812 C 497.65175 745.7465 492.3242 724.969 492.3242 724.4363 C 492.3242 723.9035 485.9311 717.5105 485.3984 716.9777 C 484.8656 716.44495 475.276 718.0432 475.276 718.0432 L 462.4899 727.6328 L 456.0968 739.3534 L 456.0968 750.5413 C 456.0968 750.5413 459.8261 765.4585 460.35886 765.4585 C 460.8916 765.4585 460.8916 786.2359 460.8916 786.2359 C 460.8916 786.2359 459.8261 793.6945 458.7606 794.2273 C 457.6951 794.76 448.63824 807.5461 448.63824 808.0789 C 448.63824 808.61165 438.5159 818.20125 437.98313 818.20125 C 437.4504 818.20125 431.59007 818.20125 431.59007 818.20125 L 422.5332 815.5375 L 420.4022 794.76 C 420.4022 794.76 419.3367 784.6377 419.3367 784.1049 C 419.3367 783.5721 413.4764 764.9257 413.4764 764.9257 L 406.55056 745.7465 L 400.69025 751.6068 C 400.69025 751.6068 394.82994 766.524 394.2972 766.524 C 393.76443 766.524 391.6334 776.6463 391.6334 777.1791 C 391.6334 777.7118 391.6334 795.2928 391.6334 795.2928 L 386.8386 805.9479 L 376.1835 818.20125 L 366.06114 821.3978 C 366.06114 821.3978 358.0698 808.0789 357.0043 808.0789 C 355.9388 808.0789 344.7509 793.6945 344.7509 793.6945 L 338.35785 783.0394 L 335.1613 768.1222 L 327.70274 754.2706 L 327.70274 739.8862 L 320.24417 744.681 C 320.24417 744.681 319.17865 755.8689 318.6459 756.4016 C 318.11314 756.9344 309.58906 774.5153 309.0563 774.5153 C 308.52354 774.5153 280.2875 824.5943 280.2875 824.5943 Z" stroke="black" stroke-linecap="round" stroke-linejoin="round" stroke-width="5"/>
      </g>
      <g id="Graphic_22">
        <path d="M 585.09244 181 L 775.1978 181 L 794.7751 545.34136 L 565 545.34136 Z" fill="#666"/>
        <path d="M 585.09244 181 L 775.1978 181 L 794.7751 545.34136 L 565 545.34136 Z" stroke="black" stroke-linecap="round" stroke-linejoin="round" stroke-width="22"/>
      </g>
      <g id="Graphic_23">
        <circle cx="682.0498" cy="422.08197" r="80.1647242258531" fill="#ccc"/>
        <circle cx="682.0498" cy="422.08197" r="80.1647242258531" stroke="black" stroke-linecap="round" stroke-linejoin="round" stroke-width="18"/>
      </g>
      <g id="Graphic_24">
        <circle cx="682.0498" cy="424.0903" r="34.0026443834401" fill="#999"/>
        <circle cx="682.0498" cy="424.0903" r="34.0026443834401" stroke="black" stroke-linecap="round" stroke-linejoin="round" stroke-width="18"/>
      </g>
      <g id="Graphic_25">
        <circle cx="682.0498" cy="266.62316" r="43.9725156207519" fill="#ccc"/>
        <circle cx="682.0498" cy="266.62316" r="43.9725156207519" stroke="black" stroke-linecap="round" stroke-linejoin="round" stroke-width="18"/>
      </g>
      <g id="Graphic_26">
        <circle cx="682.0498" cy="267.72478" r="18.6513684882795" fill="#a5a5a5"/>
        <circle cx="682.0498" cy="267.72478" r="18.6513684882795" stroke="black" stroke-linecap="round" stroke-linejoin="round" stroke-width="18"/>
      </g>
      <g id="Line_27">
        <line x1="376.91553" y1="377.92593" x2="489.3222" y2="377.92593" marker-end="url(#FilledArrow_Marker)" marker-start="url(#FilledArrow_Marker_2)" stroke="black" stroke-linecap="round" stroke-linejoin="round" stroke-width="14"/>
      </g>
    </g>
  </g>
</svg>
