<?xml version="1.0" encoding="UTF-8" standalone="no"?>
<!DOCTYPE svg PUBLIC "-//W3C//DTD SVG 1.1//EN" "http://www.w3.org/Graphics/SVG/1.1/DTD/svg11.dtd">
<svg xmlns:xl="http://www.w3.org/1999/xlink" xmlns:dc="http://purl.org/dc/elements/1.1/" xmlns="http://www.w3.org/2000/svg" version="1.1" viewBox="0 0 850.394 850.394" width="850.394" height="850.394">
  <defs/>
  <metadata> Produced by OmniGraffle 7.9.4 
    <dc:date>2019-09-30 13:03:15 +0000</dc:date>
  </metadata>
  <g id="paper_circuit" stroke="none" stroke-dasharray="none" fill="none" stroke-opacity="1" fill-opacity="1">
    <title>paper circuit</title>
    <g id="paper_circuit: Layer 1">
      <title>Layer 1</title>
      <g id="Graphic_52">
        <path d="M 566.4257 42 L 174 42 L 174 690.1825 L 729 690.1825 L 729 183.068 Z" fill="#fff0e0"/>
        <path d="M 566.4257 42 L 174 42 L 174 690.1825 L 729 690.1825 L 729 183.068 Z" stroke="black" stroke-linecap="round" stroke-linejoin="round" stroke-width="3"/>
      </g>
      <g id="Group_82">
        <title>resistor</title>
        <g id="Group_83">
          <title>resistor: Layer 1</title>
          <g id="Group_97">
            <title>Line_9</title>
            <g id="Graphic_98">
              <path d="M 499.0687 293.75904 L 481.2655 299.47123 C 479.95996 299.89012 478.89685 300.849 478.34594 302.10455 L 468.2213 325.1791 C 468.2189 325.18452 468.2165 325.18996 468.21415 325.1954 L 459.6013 345.0247 C 459.5013 345.25492 459.38336 345.4769 459.24854 345.6886 L 439.56426 376.59894" stroke="black" stroke-linecap="round" stroke-linejoin="round" stroke-width="2"/>
            </g>
          </g>
          <g id="Group_95">
            <title>Line_8</title>
            <g id="Graphic_96">
              <path d="M 573.6045 275.44292 L 590.94274 274.9504 C 593.5841 274.87537 595.78614 276.95577 595.86116 279.5971 C 595.8711 279.94582 595.8428 280.29458 595.7769 280.63715 L 591.3829 303.46924 C 591.3586 303.5953 591.3293 303.7203 591.295 303.844 L 574.5681 364.14185 C 574.5363 364.25654 574.5002 364.37 574.4599 364.48197 L 566.0814 387.78055" stroke="black" stroke-linecap="round" stroke-linejoin="round" stroke-width="2"/>
            </g>
          </g>
          <g id="Group_92">
            <title>Graphic_11</title>
            <g id="Graphic_94">
              <path d="M 498.27224 287.58332 L 509.01145 278.05707 L 527.83863 269.4244 L 556.24374 264.72266 L 575.70105 272.73815 L 575.5697 280.07538 L 562.02635 290.2612 L 530.7145 299.17737 L 499.5684 296.21746 Z" fill="#ffd348"/>
            </g>
            <g id="Graphic_93">
              <path d="M 498.27224 287.58332 L 509.01145 278.05707 L 527.83863 269.4244 L 556.24374 264.72266 L 575.70105 272.73815 L 575.5697 280.07538 L 562.02635 290.2612 L 530.7145 299.17737 L 499.5684 296.21746 Z" stroke="black" stroke-linecap="round" stroke-linejoin="round" stroke-width="2"/>
            </g>
          </g>
          <g id="Group_90">
            <title>Line_12</title>
            <g id="Graphic_91">
              <path d="M 516.3125 274.29542 L 512.432 285.63744 L 515.2808 291.54446 L 519.3878 296.99164 L 521.30143 297.7267" stroke="black" stroke-linecap="round" stroke-linejoin="round" stroke-width="2"/>
            </g>
          </g>
          <g id="Group_88">
            <title>Line_14</title>
            <g id="Graphic_89">
              <path d="M 529.8823 269.79767 L 526.0018 281.1397 L 528.8506 287.0467 L 534.3868 295.9118 L 536.08755 297.54632" stroke="white" stroke-linecap="round" stroke-linejoin="round" stroke-width="2"/>
            </g>
          </g>
          <g id="Group_86">
            <title>Line_15</title>
            <g id="Graphic_87">
              <path d="M 543.9951 266.36567 L 540.1146 277.7077 L 542.9634 283.6147 L 548.49964 292.4798 L 550.20036 294.11432" stroke="#b34400" stroke-linecap="round" stroke-linejoin="round" stroke-width="2"/>
            </g>
          </g>
          <g id="Group_84">
            <title>Line_16</title>
            <g id="Graphic_85">
              <path d="M 555.25185 264.52316 L 553.20555 272.40713 L 553.6816 280.71517 L 557.1311 286.82408 L 561.59134 290.87892" stroke="#b1001c" stroke-linecap="round" stroke-linejoin="round" stroke-width="2"/>
            </g>
          </g>
        </g>
      </g>
      <g id="Group_61">
        <title>LDR</title>
        <g id="Group_62">
          <title>LDR: Layer 1</title>
          <g id="Group_79">
            <title>Line_9</title>
            <g id="Graphic_80">
              <path d="M 390.61905 248.95676 L 384.87953 321.3416 C 384.8766 321.37877 384.87315 321.41593 384.86923 321.45306 L 380.83304 359.6952 C 380.8002 360.0063 380.73345 360.314 380.634 360.6129 L 371.0827 389.30976" stroke="black" stroke-linecap="round" stroke-linejoin="round" stroke-width="2"/>
            </g>
          </g>
          <g id="Group_77">
            <title>Line_8</title>
            <g id="Graphic_78">
              <path d="M 433.67054 254.68425 L 434.60924 307.67597 C 434.61033 307.7375 434.6101 307.79908 434.6085 307.8607 L 433.1755 363.772 C 433.1701 363.98345 433.149 364.19475 433.1123 364.40413 L 424.7629 412.08553" stroke="black" stroke-linecap="round" stroke-linejoin="round" stroke-width="2"/>
            </g>
          </g>
          <g id="Group_74">
            <title>Graphic_7</title>
            <g id="Graphic_76">
              <path d="M 381.05205 229.5601 L 381.5197 240.3429 L 385.1825 250.17633 L 402.28145 256.8316 L 418.7785 260.54786 L 430.13253 256.87075 L 438.446 251.65646 L 444.31403 238.80422 L 444.377 229.83765 L 437.78583 225.71622 Z" fill="#666"/>
            </g>
            <g id="Graphic_75">
              <path d="M 381.05205 229.5601 L 381.5197 240.3429 L 385.1825 250.17633 L 402.28145 256.8316 L 418.7785 260.54786 L 430.13253 256.87075 L 438.446 251.65646 L 444.31403 238.80422 L 444.377 229.83765 L 437.78583 225.71622 Z" stroke="black" stroke-linecap="round" stroke-linejoin="round" stroke-width="2"/>
            </g>
          </g>
          <g id="Group_71">
            <title>Graphic_6</title>
            <g id="Graphic_73">
              <path d="M 441.4417 238.516 L 437.8737 245.49456 L 419.3736 254.4471 L 413.9982 252.78766 L 393.3872 247.02328 L 384.2655 242.41173 L 380.7861 229.96568 L 383.9253 220.75994 L 392.28814 210.17418 L 404.1797 206.663 L 408.6811 205.65856 L 427.142 210.75916 L 439.32066 215.1174 L 443.2023 222.89945 L 444.39626 229.85177 Z" fill="#cbcbcb"/>
            </g>
            <g id="Graphic_72">
              <path d="M 441.4417 238.516 L 437.8737 245.49456 L 419.3736 254.4471 L 413.9982 252.78766 L 393.3872 247.02328 L 384.2655 242.41173 L 380.7861 229.96568 L 383.9253 220.75994 L 392.28814 210.17418 L 404.1797 206.663 L 408.6811 205.65856 L 427.142 210.75916 L 439.32066 215.1174 L 443.2023 222.89945 L 444.39626 229.85177 Z" stroke="black" stroke-linecap="round" stroke-linejoin="round" stroke-width="2"/>
            </g>
          </g>
          <g id="Group_69">
            <title>Line_5</title>
            <g id="Line_70">
              <line x1="384.73727" y1="249.73963" x2="384.4717" y2="242.12942" stroke="black" stroke-linecap="round" stroke-linejoin="round" stroke-width="2"/>
            </g>
          </g>
          <g id="Group_67">
            <title>Line_4</title>
            <g id="Line_68">
              <line x1="419.1396" y1="260.36008" x2="419.3635" y2="255.0425" stroke="black" stroke-linecap="round" stroke-linejoin="round" stroke-width="2"/>
            </g>
          </g>
          <g id="Group_65">
            <title>Line_3</title>
            <g id="Line_66">
              <line x1="438.60574" y1="250.9406" x2="438.24214" y2="245.58236" stroke="black" stroke-linecap="round" stroke-linejoin="round" stroke-width="2"/>
            </g>
          </g>
          <g id="Group_63">
            <title>Line_2</title>
            <g id="Graphic_64">
              <path d="M 387.9034 243.0369 L 389.27517 240.4824 L 417.13374 250.9085 L 418.38943 247.64322 L 390.9793 237.8218 L 392.3892 234.95012 L 419.99617 244.63093 L 421.51387 242.2574 L 394.67747 232.34284 L 396.2765 229.9944 L 423.5633 239.72505 L 424.60036 236.9396 L 397.86 226.81818 L 399.1786 224.21426 L 425.77967 234.12647 L 427.9036 231.3914 L 400.76025 221.63345 L 402.1354 218.48208 L 429.45336 228.13314 L 431.38214 226.1041 L 404.2902 216.53769 L 406.26986 213.69458 L 433.44384 223.25254 L 434.9148 220.27266 L 407.7606 210.9438 L 409.3299 208.297 L 436.63 216.8006 L 436.70213 216.43105 L 437.0879 215.43293" stroke="#ff2600" stroke-linecap="square" stroke-linejoin="round" stroke-width="2"/>
            </g>
          </g>
        </g>
      </g>
      <g id="Graphic_51">
        <path d="M 730 182 L 565.7136 211.85928 L 564.1457 42 Z" fill="white"/>
        <path d="M 730 182 L 565.7136 211.85928 L 564.1457 42 Z" stroke="gray" stroke-linecap="round" stroke-linejoin="round" stroke-width="3"/>
      </g>
      <g id="Graphic_54">
        <rect x="224.5" y="374.1825" width="20" height="316" fill="#ff914d"/>
        <rect x="224.5" y="374.1825" width="20" height="316" stroke="black" stroke-linecap="round" stroke-linejoin="round" stroke-width="3"/>
      </g>
      <g id="Graphic_55">
        <rect x="658.5" y="379" width="20" height="316" fill="#ff914d"/>
        <rect x="658.5" y="379" width="20" height="316" stroke="black" stroke-linecap="round" stroke-linejoin="round" stroke-width="3"/>
      </g>
      <g id="Graphic_56">
        <rect x="231.5" y="367.1825" width="135" height="20" fill="#ff914d"/>
        <rect x="231.5" y="367.1825" width="135" height="20" stroke="black" stroke-linecap="round" stroke-linejoin="round" stroke-width="3"/>
      </g>
      <g id="Graphic_57">
        <rect x="543.5" y="372" width="135" height="20" fill="#ff914d"/>
        <rect x="543.5" y="372" width="135" height="20" stroke="black" stroke-linecap="round" stroke-linejoin="round" stroke-width="3"/>
      </g>
      <g id="Graphic_58">
        <rect x="427.6825" y="374.1825" width="20" height="316" fill="#ff914d"/>
        <rect x="427.6825" y="374.1825" width="20" height="316" stroke="black" stroke-linecap="round" stroke-linejoin="round" stroke-width="3"/>
      </g>
      <g id="Graphic_59">
        <path d="M 399.865 394.22287 L 385.72287 408.365 L 337.5 360.14214 L 351.64214 346 Z" fill="#ff914d"/>
        <path d="M 399.865 394.22287 L 385.72287 408.365 L 337.5 360.14214 L 351.64214 346 Z" stroke="black" stroke-linecap="round" stroke-linejoin="round" stroke-width="3"/>
      </g>
      <g id="Graphic_60">
        <path d="M 582.865 399.04037 L 568.7229 413.1825 L 520.5 364.95963 L 534.64214 350.8175 Z" fill="#ff914d"/>
        <path d="M 582.865 399.04037 L 568.7229 413.1825 L 520.5 364.95963 L 534.64214 350.8175 Z" stroke="black" stroke-linecap="round" stroke-linejoin="round" stroke-width="3"/>
      </g>
      <g id="Graphic_81">
        <path d="M 453.06755 346 L 467.93045 359.3826 L 422.29745 410.0632 L 407.43456 396.68057 Z" fill="#ff914d"/>
        <path d="M 453.06755 346 L 467.93045 359.3826 L 422.29745 410.0632 L 407.43456 396.68057 Z" stroke="black" stroke-linecap="round" stroke-linejoin="round" stroke-width="3"/>
      </g>
      <g id="Group_99">
        <title>crocodile_clip</title>
        <g id="Group_100">
          <title>crocodile_clip: Layer 1</title>
          <g id="Group_110">
            <title>Line_5</title>
            <g id="Graphic_111">
              <path d="M 228.91198 788.6805 C 225.76283 810.702 200.25703 820.9014 194.86966 837.3467 C 189.4823 853.792 191.11126 836.9121 187.29848 842.3467 L 160.29848 839.3467" stroke="black" stroke-linecap="round" stroke-linejoin="round" stroke-width="2"/>
            </g>
          </g>
          <g id="Group_104">
            <title>Graphic_3</title>
            <g id="Graphic_106">
              <path d="M 241.4468 618.01566 L 222.05475 657.3143 C 221.8191 657.7918 221.70335 658.31956 221.71747 658.8519 L 222.85146 701.59705 C 222.866 702.1446 223.01748 702.6798 223.2921 703.1537 L 233.2555 720.348 C 234.0087 721.6478 235.54905 722.26936 236.99342 721.8562 L 238.30068 721.4823 C 239.98554 721.0004 240.9607 719.2439 240.4788 717.5591 C 240.4181 717.3468 240.33537 717.1414 240.232 716.94625 L 234.55734 706.2346 C 233.82356 704.8495 234.17297 703.13875 235.39112 702.1523 L 241.62887 697.1011 C 243.0359 695.9617 243.25286 693.8974 242.11347 692.4904 C 242.03297 692.391 241.9467 692.29636 241.85514 692.207 L 236.0902 686.5824 C 234.79432 685.318 234.76876 683.2425 236.03312 681.9466 C 236.12245 681.8551 236.21707 681.7688 236.3165 681.6883 L 240.38646 678.3925 C 241.7935 677.2531 242.01045 675.1888 240.87106 673.7818 C 240.79056 673.6824 240.7043 673.5878 240.61274 673.4984 L 235.1929 668.2105 C 233.89701 666.9461 233.87145 664.87064 235.1358 663.57475 C 235.3176 663.3884 235.52094 663.2244 235.74154 663.0862 L 239.83713 660.5198 C 241.37132 659.5584 241.8357 657.5354 240.87433 656.0012 C 240.80415 655.8892 240.72726 655.78155 240.6441 655.67884 L 237.3225 651.577 C 236.1831 650.17 236.40006 648.1057 237.8071 646.9663 L 248.1109 638.62244 C 249.51794 637.48305 249.7349 635.4188 248.5955 634.01174 L 246.49515 631.418 C 245.5434 630.2427 245.51918 628.5689 246.4365 627.3665 L 250.06745 622.60735 C 251.16564 621.1679 250.889 619.1108 249.4496 618.0126 C 249.19453 617.818 248.9123 617.6619 248.6119 617.5493 L 245.53733 616.3967 C 243.96038 615.8055 242.19204 616.5054 241.4468 618.01566 Z" fill="#e1e1e1"/>
            </g>
            <g id="Graphic_105">
              <path d="M 241.4468 618.01566 L 222.05475 657.3143 C 221.8191 657.7918 221.70335 658.31956 221.71747 658.8519 L 222.85146 701.59705 C 222.866 702.1446 223.01748 702.6798 223.2921 703.1537 L 233.2555 720.348 C 234.0087 721.6478 235.54905 722.26936 236.99342 721.8562 L 238.30068 721.4823 C 239.98554 721.0004 240.9607 719.2439 240.4788 717.5591 C 240.4181 717.3468 240.33537 717.1414 240.232 716.94625 L 234.55734 706.2346 C 233.82356 704.8495 234.17297 703.13875 235.39112 702.1523 L 241.62887 697.1011 C 243.0359 695.9617 243.25286 693.8974 242.11347 692.4904 C 242.03297 692.391 241.9467 692.29636 241.85514 692.207 L 236.0902 686.5824 C 234.79432 685.318 234.76876 683.2425 236.03312 681.9466 C 236.12245 681.8551 236.21707 681.7688 236.3165 681.6883 L 240.38646 678.3925 C 241.7935 677.2531 242.01045 675.1888 240.87106 673.7818 C 240.79056 673.6824 240.7043 673.5878 240.61274 673.4984 L 235.1929 668.2105 C 233.89701 666.9461 233.87145 664.87064 235.1358 663.57475 C 235.3176 663.3884 235.52094 663.2244 235.74154 663.0862 L 239.83713 660.5198 C 241.37132 659.5584 241.8357 657.5354 240.87433 656.0012 C 240.80415 655.8892 240.72726 655.78155 240.6441 655.67884 L 237.3225 651.577 C 236.1831 650.17 236.40006 648.1057 237.8071 646.9663 L 248.1109 638.62244 C 249.51794 637.48305 249.7349 635.4188 248.5955 634.01174 L 246.49515 631.418 C 245.5434 630.2427 245.51918 628.5689 246.4365 627.3665 L 250.06745 622.60735 C 251.16564 621.1679 250.889 619.1108 249.4496 618.0126 C 249.19453 617.818 248.9123 617.6619 248.6119 617.5493 L 245.53733 616.3967 C 243.96038 615.8055 242.19204 616.5054 241.4468 618.01566 Z" stroke="black" stroke-linecap="round" stroke-linejoin="round" stroke-width="2"/>
            </g>
          </g>
          <g id="Group_101">
            <title>Graphic_2</title>
            <g id="Graphic_103">
              <path d="M 221.43083 676.9785 L 218.54243 700.5027 C 213.40893 759.5694 218.94934 766.2194 227.86388 797.1624 C 243.9994 769.2951 250.98402 764.183 260.29254 705.62895 L 263.18094 682.1048 C 254.10882 686.9606 252.70402 689.77295 240.8617 691.30374 C 229.74146 686.9535 229.05876 683.8848 221.43083 676.9785" fill="red"/>
            </g>
            <g id="Graphic_102">
              <path d="M 221.43083 676.9785 L 218.54243 700.5027 C 213.40893 759.5694 218.94934 766.2194 227.86388 797.1624 C 243.9994 769.2951 250.98402 764.183 260.29254 705.62895 L 263.18094 682.1048 C 254.10882 686.9606 252.70402 689.77295 240.8617 691.30374 C 229.74146 686.9535 229.05876 683.8848 221.43083 676.9785" stroke="black" stroke-linecap="round" stroke-linejoin="round" stroke-width="2"/>
            </g>
          </g>
        </g>
      </g>
      <g id="Group_112">
        <title>crocodile_clip</title>
        <g id="Group_113">
          <title>crocodile_clip: Layer 1</title>
          <g id="Group_120">
            <title>Line_5</title>
            <g id="Graphic_121">
              <path d="M 423.9155 788.6805 C 420.76635 810.702 403.5289 794.9014 398.14155 811.3467 C 392.7542 827.792 333.95433 840.9121 330.14155 846.3467 L 317.14155 843.3467" stroke="black" stroke-linecap="round" stroke-linejoin="round" stroke-width="2"/>
            </g>
          </g>
          <g id="Group_117">
            <title>Graphic_3</title>
            <g id="Graphic_119">
              <path d="M 436.45033 618.01566 L 417.0583 657.3143 C 416.82264 657.7918 416.70687 658.31956 416.721 658.8519 L 417.855 701.59705 C 417.8695 702.1446 418.021 702.6798 418.29563 703.1537 L 428.25903 720.348 C 429.01224 721.6478 430.5526 722.26936 431.99694 721.8562 L 433.3042 721.4823 C 434.98906 721.0004 435.96424 719.2439 435.48234 717.5591 C 435.4216 717.3468 435.3389 717.1414 435.2355 716.94625 L 429.56087 706.2346 C 428.8271 704.8495 429.1765 703.13875 430.39464 702.1523 L 436.6324 697.1011 C 438.0394 695.9617 438.2564 693.8974 437.117 692.4904 C 437.0365 692.391 436.95023 692.29636 436.85867 692.207 L 431.09374 686.5824 C 429.79785 685.318 429.7723 683.2425 431.03664 681.9466 C 431.126 681.8551 431.2206 681.7688 431.32 681.6883 L 435.39 678.3925 C 436.797 677.2531 437.014 675.1888 435.8746 673.7818 C 435.7941 673.6824 435.70783 673.5878 435.61626 673.4984 L 430.19643 668.2105 C 428.90054 666.9461 428.875 664.87064 430.13933 663.57475 C 430.32113 663.3884 430.52447 663.2244 430.74506 663.0862 L 434.84066 660.5198 C 436.37484 659.5584 436.8392 657.5354 435.87786 656.0012 C 435.8077 655.8892 435.7308 655.78155 435.6476 655.67884 L 432.326 651.577 C 431.1866 650.17 431.4036 648.1057 432.8106 646.9663 L 443.11443 638.62244 C 444.52146 637.48305 444.73843 635.4188 443.59904 634.01174 L 441.4987 631.418 C 440.54694 630.2427 440.5227 628.5689 441.44003 627.3665 L 445.071 622.60735 C 446.16916 621.1679 445.89254 619.1108 444.4531 618.0126 C 444.19806 617.818 443.9158 617.6619 443.6154 617.5493 L 440.54085 616.3967 C 438.9639 615.8055 437.19557 616.5054 436.45033 618.01566 Z" fill="#e1e1e1"/>
            </g>
            <g id="Graphic_118">
              <path d="M 436.45033 618.01566 L 417.0583 657.3143 C 416.82264 657.7918 416.70687 658.31956 416.721 658.8519 L 417.855 701.59705 C 417.8695 702.1446 418.021 702.6798 418.29563 703.1537 L 428.25903 720.348 C 429.01224 721.6478 430.5526 722.26936 431.99694 721.8562 L 433.3042 721.4823 C 434.98906 721.0004 435.96424 719.2439 435.48234 717.5591 C 435.4216 717.3468 435.3389 717.1414 435.2355 716.94625 L 429.56087 706.2346 C 428.8271 704.8495 429.1765 703.13875 430.39464 702.1523 L 436.6324 697.1011 C 438.0394 695.9617 438.2564 693.8974 437.117 692.4904 C 437.0365 692.391 436.95023 692.29636 436.85867 692.207 L 431.09374 686.5824 C 429.79785 685.318 429.7723 683.2425 431.03664 681.9466 C 431.126 681.8551 431.2206 681.7688 431.32 681.6883 L 435.39 678.3925 C 436.797 677.2531 437.014 675.1888 435.8746 673.7818 C 435.7941 673.6824 435.70783 673.5878 435.61626 673.4984 L 430.19643 668.2105 C 428.90054 666.9461 428.875 664.87064 430.13933 663.57475 C 430.32113 663.3884 430.52447 663.2244 430.74506 663.0862 L 434.84066 660.5198 C 436.37484 659.5584 436.8392 657.5354 435.87786 656.0012 C 435.8077 655.8892 435.7308 655.78155 435.6476 655.67884 L 432.326 651.577 C 431.1866 650.17 431.4036 648.1057 432.8106 646.9663 L 443.11443 638.62244 C 444.52146 637.48305 444.73843 635.4188 443.59904 634.01174 L 441.4987 631.418 C 440.54694 630.2427 440.5227 628.5689 441.44003 627.3665 L 445.071 622.60735 C 446.16916 621.1679 445.89254 619.1108 444.4531 618.0126 C 444.19806 617.818 443.9158 617.6619 443.6154 617.5493 L 440.54085 616.3967 C 438.9639 615.8055 437.19557 616.5054 436.45033 618.01566 Z" stroke="black" stroke-linecap="round" stroke-linejoin="round" stroke-width="2"/>
            </g>
          </g>
          <g id="Group_114">
            <title>Graphic_2</title>
            <g id="Graphic_116">
              <path d="M 416.43436 676.9785 L 413.54596 700.5027 C 408.41246 759.5694 413.95287 766.2194 422.8674 797.1624 C 439.00294 769.2951 445.98755 764.183 455.29607 705.62895 L 458.18447 682.1048 C 449.11234 686.9606 447.70754 689.77295 435.8652 691.30374 C 424.745 686.9535 424.0623 683.8848 416.43436 676.9785" fill="#ffff40"/>
            </g>
            <g id="Graphic_115">
              <path d="M 416.43436 676.9785 L 413.54596 700.5027 C 408.41246 759.5694 413.95287 766.2194 422.8674 797.1624 C 439.00294 769.2951 445.98755 764.183 455.29607 705.62895 L 458.18447 682.1048 C 449.11234 686.9606 447.70754 689.77295 435.8652 691.30374 C 424.745 686.9535 424.0623 683.8848 416.43436 676.9785" stroke="black" stroke-linecap="round" stroke-linejoin="round" stroke-width="2"/>
            </g>
          </g>
        </g>
      </g>
      <g id="Group_122">
        <title>crocodile_clip</title>
        <g id="Group_123">
          <title>crocodile_clip: Layer 1</title>
          <g id="Group_130">
            <title>Line_5</title>
            <g id="Graphic_131">
              <path d="M 658.0406 795.7837 C 654.89146 817.8052 637.88905 807.4655 632.5017 823.9108 C 627.1143 840.3561 610.31446 837.4762 606.5017 842.9108 L 579.5017 842.9108" stroke="black" stroke-linecap="round" stroke-linejoin="round" stroke-width="2"/>
            </g>
          </g>
          <g id="Group_127">
            <title>Graphic_3</title>
            <g id="Graphic_129">
              <path d="M 670.5754 625.1189 L 651.1834 664.4175 C 650.94774 664.895 650.832 665.4228 650.8461 665.9551 L 651.9801 708.70025 C 651.9946 709.2478 652.1461 709.783 652.4207 710.2569 L 662.38414 727.4512 C 663.13734 728.751 664.6777 729.3726 666.12205 728.9594 L 667.4293 728.5855 C 669.1142 728.1036 670.08934 726.3471 669.60744 724.6623 C 669.5467 724.45 669.464 724.2446 669.3606 724.04946 L 663.686 713.3378 C 662.9522 711.9527 663.3016 710.242 664.51975 709.2555 L 670.7575 704.2043 C 672.1645 703.0649 672.3815 701.0006 671.2421 699.5936 C 671.1616 699.4942 671.0753 699.3996 670.9838 699.3102 L 665.21884 693.6856 C 663.92295 692.4212 663.8974 690.3457 665.16175 689.0498 C 665.2511 688.9583 665.3457 688.872 665.4451 688.7915 L 669.5151 685.4957 C 670.9221 684.3563 671.1391 682.29204 669.9997 680.885 C 669.9192 680.7856 669.8329 680.691 669.7414 680.60164 L 664.3215 675.3137 C 663.02564 674.04934 663.0001 671.97385 664.2644 670.67795 C 664.4462 670.4916 664.6496 670.3276 664.8702 670.1894 L 668.9658 667.623 C 670.49995 666.6616 670.9643 664.6386 670.003 663.1044 C 669.9328 662.9924 669.8559 662.8848 669.7727 662.78205 L 666.4511 658.6802 C 665.3117 657.2732 665.5287 655.2089 666.9357 654.0695 L 677.2395 645.72565 C 678.6466 644.58626 678.8635 642.522 677.72414 641.11495 L 675.6238 638.5212 C 674.67204 637.3459 674.6478 635.6721 675.5651 634.4697 L 679.1961 629.71056 C 680.2943 628.27114 680.01764 626.214 678.5782 625.1158 C 678.3232 624.9212 678.0409 624.7651 677.7405 624.6525 L 674.66596 623.4999 C 673.089 622.90874 671.3207 623.6086 670.5754 625.1189 Z" fill="#e1e1e1"/>
            </g>
            <g id="Graphic_128">
              <path d="M 670.5754 625.1189 L 651.1834 664.4175 C 650.94774 664.895 650.832 665.4228 650.8461 665.9551 L 651.9801 708.70025 C 651.9946 709.2478 652.1461 709.783 652.4207 710.2569 L 662.38414 727.4512 C 663.13734 728.751 664.6777 729.3726 666.12205 728.9594 L 667.4293 728.5855 C 669.1142 728.1036 670.08934 726.3471 669.60744 724.6623 C 669.5467 724.45 669.464 724.2446 669.3606 724.04946 L 663.686 713.3378 C 662.9522 711.9527 663.3016 710.242 664.51975 709.2555 L 670.7575 704.2043 C 672.1645 703.0649 672.3815 701.0006 671.2421 699.5936 C 671.1616 699.4942 671.0753 699.3996 670.9838 699.3102 L 665.21884 693.6856 C 663.92295 692.4212 663.8974 690.3457 665.16175 689.0498 C 665.2511 688.9583 665.3457 688.872 665.4451 688.7915 L 669.5151 685.4957 C 670.9221 684.3563 671.1391 682.29204 669.9997 680.885 C 669.9192 680.7856 669.8329 680.691 669.7414 680.60164 L 664.3215 675.3137 C 663.02564 674.04934 663.0001 671.97385 664.2644 670.67795 C 664.4462 670.4916 664.6496 670.3276 664.8702 670.1894 L 668.9658 667.623 C 670.49995 666.6616 670.9643 664.6386 670.003 663.1044 C 669.9328 662.9924 669.8559 662.8848 669.7727 662.78205 L 666.4511 658.6802 C 665.3117 657.2732 665.5287 655.2089 666.9357 654.0695 L 677.2395 645.72565 C 678.6466 644.58626 678.8635 642.522 677.72414 641.11495 L 675.6238 638.5212 C 674.67204 637.3459 674.6478 635.6721 675.5651 634.4697 L 679.1961 629.71056 C 680.2943 628.27114 680.01764 626.214 678.5782 625.1158 C 678.3232 624.9212 678.0409 624.7651 677.7405 624.6525 L 674.66596 623.4999 C 673.089 622.90874 671.3207 623.6086 670.5754 625.1189 Z" stroke="black" stroke-linecap="round" stroke-linejoin="round" stroke-width="2"/>
            </g>
          </g>
          <g id="Group_124">
            <title>Graphic_2</title>
            <g id="Graphic_126">
              <path d="M 650.5595 684.0817 L 647.6711 707.6059 C 642.53756 766.6726 648.078 773.3226 656.9925 804.2656 C 673.12804 776.3983 680.11265 771.2862 689.4212 712.7322 L 692.3096 689.208 C 683.23745 694.0638 681.83265 696.87615 669.9903 698.40695 C 658.8701 694.0567 658.1874 690.988 650.5595 684.0817" fill="black"/>
            </g>
            <g id="Graphic_125">
              <path d="M 650.5595 684.0817 L 647.6711 707.6059 C 642.53756 766.6726 648.078 773.3226 656.9925 804.2656 C 673.12804 776.3983 680.11265 771.2862 689.4212 712.7322 L 692.3096 689.208 C 683.23745 694.0638 681.83265 696.87615 669.9903 698.40695 C 658.8701 694.0567 658.1874 690.988 650.5595 684.0817" stroke="black" stroke-linecap="round" stroke-linejoin="round" stroke-width="2"/>
            </g>
          </g>
        </g>
      </g>
    </g>
  </g>
</svg>
