<?xml version="1.0" encoding="UTF-8" standalone="no"?>
<!DOCTYPE svg PUBLIC "-//W3C//DTD SVG 1.1//EN" "http://www.w3.org/Graphics/SVG/1.1/DTD/svg11.dtd">
<svg xmlns="http://www.w3.org/2000/svg" version="1.1" xmlns:dc="http://purl.org/dc/elements/1.1/" xmlns:xl="http://www.w3.org/1999/xlink" viewBox="0 0 850.394 850.394" width="850.394" height="850.394">
  <defs/>
  <metadata> Produced by OmniGraffle 7.9.4 
    <dc:date>2019-03-11 12:55:10 +0000</dc:date>
  </metadata>
  <g id="patch_cable_1" fill="none" stroke-opacity="1" fill-opacity="1" stroke-dasharray="none" stroke="none">
    <title>patch cable 1</title>
    <g id="patch_cable_1: Layer 1">
      <title>Layer 1</title>
      <g id="Line_7">
        <path d="M 324.55418 285.20512 C 338.36026 300.3888 354.18973 316.2789 365.97656 330.76068 C 377.7634 345.24246 391.50597 362.4372 395.28225 372.10446 C 399.05853 381.77174 386.2034 381.03833 388.6365 388.77015 C 391.06964 396.50196 402.8012 408.59104 409.8825 418.5" stroke="#b1001c" stroke-linecap="round" stroke-linejoin="round" stroke-width="14"/>
      </g>
      <g id="Graphic_6">
        <path d="M 151.75107 88.76799 L 248.57103 185.58796 C 253.25732 190.27425 253.25732 197.87223 248.57103 202.55852 L 240.05852 211.07102 C 235.37223 215.75731 227.77425 215.75731 223.08796 211.07102 C 223.08796 211.07102 223.08796 211.07102 223.08796 211.07102 L 126.268 114.25106 C 121.58171 109.56477 121.58171 101.96679 126.268 97.2805 L 134.7805 88.76799 C 139.4668 84.0817 147.06478 84.0817 151.75107 88.76799 Z" fill="#e6e6e6"/>
        <path d="M 151.75107 88.76799 L 248.57103 185.58796 C 253.25732 190.27425 253.25732 197.87223 248.57103 202.55852 L 240.05852 211.07102 C 235.37223 215.75731 227.77425 215.75731 223.08796 211.07102 C 223.08796 211.07102 223.08796 211.07102 223.08796 211.07102 L 126.268 114.25106 C 121.58171 109.56477 121.58171 101.96679 126.268 97.2805 L 134.7805 88.76799 C 139.4668 84.0817 147.06478 84.0817 151.75107 88.76799 Z" stroke="black" stroke-linecap="round" stroke-linejoin="round" stroke-width="2"/>
      </g>
      <g id="Graphic_5">
        <path d="M 128.43204 65.44896 L 225.252 162.26893 C 229.9383 166.95522 229.9383 174.5532 225.252 179.23949 L 216.7395 187.752 C 212.0532 192.43829 204.45522 192.43829 199.76893 187.752 L 102.94897 90.93203 C 98.26268 86.24574 98.26268 78.64776 102.94897 73.96147 L 111.46147 65.44896 C 116.14777 60.76267 123.74575 60.76267 128.43204 65.44896 Z" fill="#e6e6e6"/>
        <path d="M 128.43204 65.44896 L 225.252 162.26893 C 229.9383 166.95522 229.9383 174.5532 225.252 179.23949 L 216.7395 187.752 C 212.0532 192.43829 204.45522 192.43829 199.76893 187.752 L 102.94897 90.93203 C 98.26268 86.24574 98.26268 78.64776 102.94897 73.96147 L 111.46147 65.44896 C 116.14777 60.76267 123.74575 60.76267 128.43204 65.44896 Z" stroke="black" stroke-linecap="round" stroke-linejoin="round" stroke-width="2"/>
      </g>
      <g id="Graphic_4">
        <path d="M 202.9929 127.61674 L 265.93137 190.5552 C 270.61766 195.2415 270.61766 202.83947 265.93137 207.52577 L 245.42683 228.0303 C 240.74054 232.7166 233.14256 232.7166 228.45627 228.0303 L 165.51781 165.09184 C 160.83152 160.40555 160.83152 152.80757 165.51781 148.12128 L 186.02235 127.61674 C 190.70864 122.93045 198.30662 122.93045 202.9929 127.61674 Z" fill="#e6e6e6"/>
        <path d="M 202.9929 127.61674 L 265.93137 190.5552 C 270.61766 195.2415 270.61766 202.83947 265.93137 207.52577 L 245.42683 228.0303 C 240.74054 232.7166 233.14256 232.7166 228.45627 228.0303 L 165.51781 165.09184 C 160.83152 160.40555 160.83152 152.80757 165.51781 148.12128 L 186.02235 127.61674 C 190.70864 122.93045 198.30662 122.93045 202.9929 127.61674 Z" stroke="black" stroke-linecap="round" stroke-linejoin="round" stroke-width="2"/>
      </g>
      <g id="Graphic_3">
        <path d="M 185.16418 184.9715 L 213.1729 212.98022 C 285.10355 281.09314 297.83235 282.3687 344.2965 305.92634 C 320.73884 259.4622 319.4633 246.7334 251.35037 174.80274 L 223.34166 146.79403 C 222.70834 161.4317 225.255 165.88723 218.25727 179.88713 C 204.25738 186.88484 199.80185 184.3382 185.16418 184.9715" fill="red"/>
        <path d="M 185.16418 184.9715 L 213.1729 212.98022 C 285.10355 281.09314 297.83235 282.3687 344.2965 305.92634 C 320.73884 259.4622 319.4633 246.7334 251.35037 174.80274 L 223.34166 146.79403 C 222.70834 161.4317 225.255 165.88723 218.25727 179.88713 C 204.25738 186.88484 199.80185 184.3382 185.16418 184.9715" stroke="#b1001c" stroke-linecap="round" stroke-linejoin="round" stroke-width="2"/>
      </g>
      <g id="Graphic_15">
        <path d="M 117.20285 52.120626 L 113.77873 48.6965 C 103.8643 41.4903 98.94594 44.6966 86.54111 48.541115 C 82.6966 60.94594 79.4903 65.864305 86.6965 75.77873 L 90.12063 79.202855 C 94.68104 72.93038 98.59488 77.65054 98.59488 77.65054 L 98.37769 84.78967 C 98.37769 84.78967 102.8604 78.26897 109.88 70.393345 C 117.75563 63.37375 122.28571 60.88164 122.28571 60.88164 L 115.14659 61.09883 C 115.14659 61.09883 110.93038 56.68104 117.20285 52.120626 Z" fill="#e6e6e6"/>
        <path d="M 117.20285 52.120626 L 113.77873 48.6965 C 103.8643 41.4903 98.94594 44.6966 86.54111 48.541115 C 82.6966 60.94594 79.4903 65.864305 86.6965 75.77873 L 90.12063 79.202855 C 94.68104 72.93038 98.59488 77.65054 98.59488 77.65054 L 98.37769 84.78967 C 98.37769 84.78967 102.8604 78.26897 109.88 70.393345 C 117.75563 63.37375 122.28571 60.88164 122.28571 60.88164 L 115.14659 61.09883 C 115.14659 61.09883 110.93038 56.68104 117.20285 52.120626 Z" stroke="black" stroke-linecap="round" stroke-linejoin="round" stroke-width="2"/>
      </g>
      <g id="Line_19">
        <path d="M 495.2108 551.7949 C 481.4047 536.6112 465.57523 520.7211 453.7884 506.2393 C 442.00156 491.75754 428.259 474.5628 424.4827 464.89554 C 420.70643 455.22826 433.5616 455.96167 431.12845 448.22985 C 428.6953 440.49804 416.96376 428.40896 409.8825 418.5" stroke="#b1001c" stroke-linecap="round" stroke-linejoin="round" stroke-width="14"/>
      </g>
      <g id="Graphic_20">
        <path d="M 668.0139 748.232 L 571.1939 651.41204 C 566.50764 646.72575 566.50764 639.1278 571.1939 634.4415 L 579.7064 625.929 C 584.3927 621.2427 591.9907 621.2427 596.677 625.929 L 693.497 722.7489 C 698.18325 727.4352 698.18325 735.0332 693.497 739.7195 L 684.98446 748.232 C 680.2982 752.9183 672.7002 752.9183 668.0139 748.232 C 668.0139 748.232 668.0139 748.232 668.0139 748.232 Z" fill="#e6e6e6"/>
        <path d="M 668.0139 748.232 L 571.1939 651.41204 C 566.50764 646.72575 566.50764 639.1278 571.1939 634.4415 L 579.7064 625.929 C 584.3927 621.2427 591.9907 621.2427 596.677 625.929 L 693.497 722.7489 C 698.18325 727.4352 698.18325 735.0332 693.497 739.7195 L 684.98446 748.232 C 680.2982 752.9183 672.7002 752.9183 668.0139 748.232 C 668.0139 748.232 668.0139 748.232 668.0139 748.232 Z" stroke="black" stroke-linecap="round" stroke-linejoin="round" stroke-width="2"/>
      </g>
      <g id="Graphic_21">
        <path d="M 691.3329 771.551 L 594.51296 674.7311 C 589.8267 670.0448 589.8267 662.4468 594.51296 657.7605 L 603.02546 649.248 C 607.71176 644.5617 615.3097 644.5617 619.996 649.248 L 716.816 746.068 C 721.5023 750.7543 721.5023 758.3522 716.816 763.0385 L 708.3035 771.551 C 703.6172 776.2373 696.0192 776.2373 691.3329 771.551 C 691.3329 771.551 691.3329 771.551 691.3329 771.551 Z" fill="#e6e6e6"/>
        <path d="M 691.3329 771.551 L 594.51296 674.7311 C 589.8267 670.0448 589.8267 662.4468 594.51296 657.7605 L 603.02546 649.248 C 607.71176 644.5617 615.3097 644.5617 619.996 649.248 L 716.816 746.068 C 721.5023 750.7543 721.5023 758.3522 716.816 763.0385 L 708.3035 771.551 C 703.6172 776.2373 696.0192 776.2373 691.3329 771.551 C 691.3329 771.551 691.3329 771.551 691.3329 771.551 Z" stroke="black" stroke-linecap="round" stroke-linejoin="round" stroke-width="2"/>
      </g>
      <g id="Graphic_22">
        <path d="M 616.77205 709.38326 L 553.8336 646.4448 C 549.1473 641.7585 549.1473 634.1605 553.8336 629.4742 L 574.3381 608.9697 C 579.0244 604.2834 586.6224 604.2834 591.3087 608.9697 L 654.24715 671.90816 C 658.9334 676.59445 658.9334 684.1924 654.24715 688.8787 L 633.7426 709.38326 C 629.0563 714.06955 621.45834 714.06955 616.77205 709.38326 C 616.77205 709.38326 616.77205 709.38326 616.77205 709.38326 Z" fill="#e6e6e6"/>
        <path d="M 616.77205 709.38326 L 553.8336 646.4448 C 549.1473 641.7585 549.1473 634.1605 553.8336 629.4742 L 574.3381 608.9697 C 579.0244 604.2834 586.6224 604.2834 591.3087 608.9697 L 654.24715 671.90816 C 658.9334 676.59445 658.9334 684.1924 654.24715 688.8787 L 633.7426 709.38326 C 629.0563 714.06955 621.45834 714.06955 616.77205 709.38326 C 616.77205 709.38326 616.77205 709.38326 616.77205 709.38326 Z" stroke="black" stroke-linecap="round" stroke-linejoin="round" stroke-width="2"/>
      </g>
      <g id="Graphic_23">
        <path d="M 634.6008 652.0285 L 606.5921 624.0198 C 534.6614 555.90686 521.9326 554.6313 475.46847 531.07366 C 499.0261 577.5378 500.3017 590.2666 568.4146 662.19726 L 596.4233 690.206 C 597.0566 675.5683 594.51 671.1128 601.5077 657.1129 C 615.5076 650.11516 619.9631 652.6618 634.6008 652.0285" fill="red"/>
        <path d="M 634.6008 652.0285 L 606.5921 624.0198 C 534.6614 555.90686 521.9326 554.6313 475.46847 531.07366 C 499.0261 577.5378 500.3017 590.2666 568.4146 662.19726 L 596.4233 690.206 C 597.0566 675.5683 594.51 671.1128 601.5077 657.1129 C 615.5076 650.11516 619.9631 652.6618 634.6008 652.0285" stroke="#b1001c" stroke-linecap="round" stroke-linejoin="round" stroke-width="2"/>
      </g>
      <g id="Graphic_24">
        <path d="M 702.04695 784.3642 L 705.4711 787.78835 C 715.3855 794.99455 720.3039 791.7882 732.7087 787.9437 C 736.5532 775.5389 739.7595 770.6205 732.5533 760.7061 L 729.1292 757.282 C 724.5688 763.5545 720.6549 758.8343 720.6549 758.8343 L 720.8721 751.6952 C 720.8721 751.6952 716.3894 758.2159 709.3698 766.0915 C 701.4942 773.1111 696.9641 775.6032 696.9641 775.6032 L 704.1032 775.386 C 704.1032 775.386 708.3194 779.8038 702.04695 784.3642 Z" fill="#e6e6e6"/>
        <path d="M 702.04695 784.3642 L 705.4711 787.78835 C 715.3855 794.99455 720.3039 791.7882 732.7087 787.9437 C 736.5532 775.5389 739.7595 770.6205 732.5533 760.7061 L 729.1292 757.282 C 724.5688 763.5545 720.6549 758.8343 720.6549 758.8343 L 720.8721 751.6952 C 720.8721 751.6952 716.3894 758.2159 709.3698 766.0915 C 701.4942 773.1111 696.9641 775.6032 696.9641 775.6032 L 704.1032 775.386 C 704.1032 775.386 708.3194 779.8038 702.04695 784.3642 Z" stroke="black" stroke-linecap="round" stroke-linejoin="round" stroke-width="2"/>
      </g>
    </g>
    <g id="patch_cable_1: Layer 2">
      <title>Layer 2</title>
      <g id="Line_13">
        <path d="M 98.17817 85.97394 L 100.02107 81.916 C 101.85738 77.87258 104.40659 74.192765 107.54675 71.052604 L 108.79135 69.808 C 112.71962 65.879735 117.59993 63.037936 122.95524 61.56038 L 123.65469 61.3674" stroke="black" stroke-linecap="round" stroke-linejoin="round" stroke-width="4"/>
      </g>
      <g id="Line_25">
        <path d="M 719.5868 749.0261 L 717.7439 753.084 C 715.9076 757.1274 713.3584 760.8072 710.2182 763.9474 L 708.9736 765.192 C 705.0453 769.1203 700.165 771.9621 694.8097 773.4396 L 694.1103 773.6326" stroke="black" stroke-linecap="round" stroke-linejoin="round" stroke-width="4"/>
      </g>
    </g>
  </g>
</svg>
