<?xml version="1.0" encoding="UTF-8" standalone="no"?>
<!DOCTYPE svg PUBLIC "-//W3C//DTD SVG 1.1//EN" "http://www.w3.org/Graphics/SVG/1.1/DTD/svg11.dtd">
<svg xmlns:xl="http://www.w3.org/1999/xlink" xmlns:dc="http://purl.org/dc/elements/1.1/" xmlns="http://www.w3.org/2000/svg" version="1.1" viewBox="0 0 850.394 850.394" width="850.394" height="850.394">
  <defs/>
  <metadata> Produced by OmniGraffle 7.9.4 
    <dc:date>2019-03-14 13:08:37 +0000</dc:date>
  </metadata>
  <g id="play_3" fill-opacity="1" stroke-dasharray="none" stroke-opacity="1" stroke="none" fill="none">
    <title>play 3</title>
    <g id="play_3: Layer 1">
      <title>Layer 1</title>
      <g id="Graphic_28">
        <rect x="142" y="102" width="265.94625" height="642" fill="#80ff80"/>
        <rect x="142" y="102" width="265.94625" height="642" stroke="black" stroke-linecap="round" stroke-linejoin="round" stroke-width="12"/>
      </g>
      <g id="Graphic_25">
        <path d="M 313.66625 525.9843 L 438.26734 492.59755 L 515.0854 727.9602 L 364.48353 768.3139 Z" fill="#666"/>
        <path d="M 313.66625 525.9843 L 438.26734 492.59755 L 515.0854 727.9602 L 364.48353 768.3139 Z" stroke="black" stroke-linecap="round" stroke-linejoin="round" stroke-width="16"/>
      </g>
      <g id="Graphic_24">
        <circle cx="419.55456" cy="666.9692" r="54.395998637125" fill="#ccc"/>
        <circle cx="419.55456" cy="666.9692" r="54.395998637125" stroke="black" stroke-linecap="round" stroke-linejoin="round" stroke-width="13"/>
      </g>
      <g id="Graphic_23">
        <circle cx="419.90727" cy="668.2855" r="23.0725897881124" fill="#999"/>
        <circle cx="419.90727" cy="668.2855" r="23.0725897881124" stroke="black" stroke-linecap="round" stroke-linejoin="round" stroke-width="12"/>
      </g>
      <g id="Graphic_29">
        <path d="M 495.4203 453.3163 C 398.6304 453.3163 320 531.7748 320 628.7366 C 320 725.6984 398.6304 804.1569 495.4203 804.1569 C 592.38216 804.1569 670.84066 725.6984 670.84066 628.7366 C 670.84066 531.7748 592.38216 453.3163 495.4203 453.3163 M 591.0104 533.14656 C 638.9773 581.1135 642.7453 655.80396 603.68625 708.9107 L 415.41813 520.4707 C 468.35297 481.4116 543.04344 485.52345 591.0104 533.14656 M 399.8303 724.32665 C 352.03526 676.3597 348.0953 601.66925 387.1544 548.5625 L 575.4225 737.0025 C 522.4877 776.0616 447.7972 772.2936 399.8303 724.32665 Z" fill="red"/>
        <path d="M 495.4203 453.3163 C 398.6304 453.3163 320 531.7748 320 628.7366 C 320 725.6984 398.6304 804.1569 495.4203 804.1569 C 592.38216 804.1569 670.84066 725.6984 670.84066 628.7366 C 670.84066 531.7748 592.38216 453.3163 495.4203 453.3163 M 591.0104 533.14656 C 638.9773 581.1135 642.7453 655.80396 603.68625 708.9107 L 415.41813 520.4707 C 468.35297 481.4116 543.04344 485.52345 591.0104 533.14656 M 399.8303 724.32665 C 352.03526 676.3597 348.0953 601.66925 387.1544 548.5625 L 575.4225 737.0025 C 522.4877 776.0616 447.7972 772.2936 399.8303 724.32665 Z" stroke="black" stroke-linecap="round" stroke-linejoin="round" stroke-width="4"/>
      </g>
      <g id="Graphic_22">
        <circle cx="392.2525" cy="565.07656" r="29.8376739005358" fill="#ccc"/>
        <circle cx="392.2525" cy="565.07656" r="29.8376739005358" stroke="black" stroke-linecap="round" stroke-linejoin="round" stroke-width="14"/>
      </g>
      <g id="Graphic_21">
        <circle cx="392.446" cy="565.7986" r="12.6559384400873" fill="#a5a5a5"/>
        <circle cx="392.446" cy="565.7986" r="12.6559384400873" stroke="black" stroke-linecap="round" stroke-linejoin="round" stroke-width="9"/>
      </g>
      <g id="Graphic_31">
        <rect x="448.16526" y="104.197" width="265.94625" height="642" fill="#8080ff"/>
        <rect x="448.16526" y="104.197" width="265.94625" height="642" stroke="black" stroke-linecap="round" stroke-linejoin="round" stroke-width="12"/>
      </g>
      <g id="Graphic_18">
        <path d="M 419.8733 676.6336 L 432.281 656.35436 C 432.281 656.35436 444.62994 643.3015 444.697 643.0512 C 444.76406 642.80096 455.0702 635.3699 455.0702 635.3699 L 456.4543 650.225 C 456.4543 650.225 460.1315 659.5253 459.0897 665.4153 C 458.04794 671.3054 464.49594 680.2752 464.49594 680.2752 C 464.49594 680.2752 472.2636 674.3098 472.5318 673.3087 C 472.8 672.3077 474.24415 664.9161 475.54934 662.0471 C 476.85454 659.1781 481.9855 653.0426 483.05356 653.0606 C 484.12165 653.0786 492.7334 652.97205 492.9166 653.2894 C 493.09983 653.6067 495.1869 652.8248 494.69956 655.6447 C 494.2122 658.4646 495.14007 678.0255 495.00595 678.526 C 494.87184 679.0265 487.8274 694.3054 496.54696 687.79036 C 505.26654 681.2753 506.822 678.4734 506.822 678.4734 C 506.822 678.4734 507.43994 664.15475 509.6839 657.78215 C 511.9279 651.40955 527.6727 645.704 527.92295 645.77105 C 528.1732 645.8381 535.4798 648.6006 535.5959 649.16814 C 535.7121 649.7357 536.32263 669.4798 535.4509 672.7332 C 534.57916 675.9865 534.91316 689.75554 534.0905 693.8267 C 533.26787 697.8979 536.0207 698.6355 537.02174 698.9038 C 538.0228 699.172 545.07557 690.8692 545.3258 690.93625 C 545.5761 691.0033 549.8353 688.1212 550.08555 688.1882 C 550.3358 688.2553 558.9296 689.21686 558.9296 689.21686 L 561.91474 691.0896 L 559.211 691.1698 L 553.45505 689.6275 C 553.45505 689.6275 549.397 691.7589 549.14676 691.69184 C 548.8965 691.6248 545.0528 695.9594 545.0528 695.9594 L 540.57444 700.6604 L 534.215 701.3704 C 534.215 701.3704 529.94745 697.27644 530.0145 697.0262 C 530.08157 696.7759 532.37945 687.19906 532.37945 687.19906 L 532.14364 675.0657 C 532.14364 675.0657 532.1353 668.0896 532.01915 667.522 C 531.903 666.95445 532.0156 656.5238 532.0827 656.27355 C 532.14974 656.0233 529.9513 652.2155 529.7681 651.8982 C 529.5849 651.5809 524.8791 651.12465 524.8791 651.12465 L 517.6659 654.0199 L 513.18754 658.72094 L 511.77936 663.9764 C 511.77936 663.9764 511.6536 671.453 511.90384 671.52005 C 512.1541 671.5871 509.5389 681.3472 509.5389 681.3472 C 509.5389 681.3472 508.0996 684.7167 507.532 684.8328 C 506.96444 684.949 501.1007 689.8152 501.03364 690.0655 C 500.9666 690.3157 495.00466 693.5463 494.7544 693.4792 C 494.50415 693.4122 491.7513 692.6746 491.7513 692.6746 L 487.8322 690.2833 L 489.44637 680.255 C 489.44637 680.255 490.2199 675.366 490.287 675.1157 C 490.35404 674.8655 489.9482 665.3688 489.9482 665.3688 L 489.10885 655.4878 L 485.6184 657.503 C 485.6184 657.503 480.98797 663.7726 480.7377 663.70556 C 480.48745 663.6385 478.21234 668.1252 478.1453 668.37544 C 478.07823 668.6257 475.86537 676.8842 475.86537 676.8842 L 472.2719 681.2859 L 465.72445 685.7007 L 460.5672 685.9282 C 460.5672 685.9282 458.48974 678.66586 457.9892 678.53175 C 457.4887 678.3976 454.0438 670.2325 454.0438 670.2325 L 452.38184 664.4226 L 452.7579 657.0131 L 450.99773 649.56756 L 452.80825 642.8106 L 448.70113 644.1241 C 448.70113 644.1241 446.79243 649.2454 446.4751 649.4286 C 446.1578 649.6118 439.9408 656.79745 439.69054 656.7304 C 439.4403 656.6633 419.8733 676.6336 419.8733 676.6336 Z" fill="black"/>
        <path d="M 419.8733 676.6336 L 432.281 656.35436 C 432.281 656.35436 444.62994 643.3015 444.697 643.0512 C 444.76406 642.80096 455.0702 635.3699 455.0702 635.3699 L 456.4543 650.225 C 456.4543 650.225 460.1315 659.5253 459.0897 665.4153 C 458.04794 671.3054 464.49594 680.2752 464.49594 680.2752 C 464.49594 680.2752 472.2636 674.3098 472.5318 673.3087 C 472.8 672.3077 474.24415 664.9161 475.54934 662.0471 C 476.85454 659.1781 481.9855 653.0426 483.05356 653.0606 C 484.12165 653.0786 492.7334 652.97205 492.9166 653.2894 C 493.09983 653.6067 495.1869 652.8248 494.69956 655.6447 C 494.2122 658.4646 495.14007 678.0255 495.00595 678.526 C 494.87184 679.0265 487.8274 694.3054 496.54696 687.79036 C 505.26654 681.2753 506.822 678.4734 506.822 678.4734 C 506.822 678.4734 507.43994 664.15475 509.6839 657.78215 C 511.9279 651.40955 527.6727 645.704 527.92295 645.77105 C 528.1732 645.8381 535.4798 648.6006 535.5959 649.16814 C 535.7121 649.7357 536.32263 669.4798 535.4509 672.7332 C 534.57916 675.9865 534.91316 689.75554 534.0905 693.8267 C 533.26787 697.8979 536.0207 698.6355 537.02174 698.9038 C 538.0228 699.172 545.07557 690.8692 545.3258 690.93625 C 545.5761 691.0033 549.8353 688.1212 550.08555 688.1882 C 550.3358 688.2553 558.9296 689.21686 558.9296 689.21686 L 561.91474 691.0896 L 559.211 691.1698 L 553.45505 689.6275 C 553.45505 689.6275 549.397 691.7589 549.14676 691.69184 C 548.8965 691.6248 545.0528 695.9594 545.0528 695.9594 L 540.57444 700.6604 L 534.215 701.3704 C 534.215 701.3704 529.94745 697.27644 530.0145 697.0262 C 530.08157 696.7759 532.37945 687.19906 532.37945 687.19906 L 532.14364 675.0657 C 532.14364 675.0657 532.1353 668.0896 532.01915 667.522 C 531.903 666.95445 532.0156 656.5238 532.0827 656.27355 C 532.14974 656.0233 529.9513 652.2155 529.7681 651.8982 C 529.5849 651.5809 524.8791 651.12465 524.8791 651.12465 L 517.6659 654.0199 L 513.18754 658.72094 L 511.77936 663.9764 C 511.77936 663.9764 511.6536 671.453 511.90384 671.52005 C 512.1541 671.5871 509.5389 681.3472 509.5389 681.3472 C 509.5389 681.3472 508.0996 684.7167 507.532 684.8328 C 506.96444 684.949 501.1007 689.8152 501.03364 690.0655 C 500.9666 690.3157 495.00466 693.5463 494.7544 693.4792 C 494.50415 693.4122 491.7513 692.6746 491.7513 692.6746 L 487.8322 690.2833 L 489.44637 680.255 C 489.44637 680.255 490.2199 675.366 490.287 675.1157 C 490.35404 674.8655 489.9482 665.3688 489.9482 665.3688 L 489.10885 655.4878 L 485.6184 657.503 C 485.6184 657.503 480.98797 663.7726 480.7377 663.70556 C 480.48745 663.6385 478.21234 668.1252 478.1453 668.37544 C 478.07823 668.6257 475.86537 676.8842 475.86537 676.8842 L 472.2719 681.2859 L 465.72445 685.7007 L 460.5672 685.9282 C 460.5672 685.9282 458.48974 678.66586 457.9892 678.53175 C 457.4887 678.3976 454.0438 670.2325 454.0438 670.2325 L 452.38184 664.4226 L 452.7579 657.0131 L 450.99773 649.56756 L 452.80825 642.8106 L 448.70113 644.1241 C 448.70113 644.1241 446.79243 649.2454 446.4751 649.4286 C 446.1578 649.6118 439.9408 656.79745 439.69054 656.7304 C 439.4403 656.6633 419.8733 676.6336 419.8733 676.6336 Z" stroke="black" stroke-linecap="round" stroke-linejoin="round" stroke-width="5"/>
      </g>
    </g>
  </g>
</svg>
