<?xml version="1.0" encoding="UTF-8" standalone="no"?>
<!DOCTYPE svg PUBLIC "-//W3C//DTD SVG 1.1//EN" "http://www.w3.org/Graphics/SVG/1.1/DTD/svg11.dtd">
<svg xmlns:xl="http://www.w3.org/1999/xlink" xmlns:dc="http://purl.org/dc/elements/1.1/" xmlns="http://www.w3.org/2000/svg" version="1.1" viewBox="0 0 850.394 850.394" width="850.394" height="850.394">
  <defs/>
  <metadata> Produced by OmniGraffle 7.9.4 
    <dc:date>2019-09-29 21:35:31 +0000</dc:date>
  </metadata>
  <g id="PCB" stroke="none" stroke-dasharray="none" fill="none" stroke-opacity="1" fill-opacity="1">
    <title>PCB</title>
    <g id="PCB: Layer 1">
      <title>Layer 1</title>
      <g id="Graphic_48">
        <path d="M 66.026055 138.0985 L 66.026055 712.2955 L 784.3679 712.2955 L 784.3679 138.0985 Z M 249.99567 350.37207 C 258.00146 358.3778 258.00146 371.35767 249.99567 379.3634 C 241.98993 387.3692 229.01007 387.3692 221.00433 379.3634 C 212.99854 371.35767 212.99854 358.3778 221.00433 350.37207 C 229.01007 342.3663 241.98993 342.3663 249.99567 350.37207 M 319.99567 470.0043 C 328.00146 478.01007 328.00146 490.98993 319.99567 498.9957 C 311.98993 507.00146 299.01007 507.00146 291.00433 498.9957 C 282.99854 490.98993 282.99854 478.01007 291.00433 470.0043 C 299.01007 461.99854 311.98993 461.99854 319.99567 470.0043 M 461.75006 470.0043 C 469.75584 478.01007 469.75584 490.98993 461.75006 498.9957 C 453.7443 507.00146 440.76445 507.00146 432.7587 498.9957 C 424.75293 490.98993 424.75293 478.01007 432.7587 470.0043 C 440.76445 461.99854 453.7443 461.99854 461.75006 470.0043 M 421.99567 369.00433 C 430.00146 377.01007 430.00146 389.98993 421.99567 397.99567 C 413.98993 406.00146 401.01007 406.00146 393.00433 397.99567 C 384.99854 389.98993 384.99854 377.01007 393.00433 369.00433 C 401.01007 360.99854 413.98993 360.99854 421.99567 369.00433 M 561.9957 369.00433 C 570.00146 377.01007 570.00146 389.98993 561.9957 397.99567 C 553.9899 406.00146 541.0101 406.00146 533.0043 397.99567 C 524.99854 389.98993 524.99854 377.01007 533.0043 369.00433 C 541.0101 360.99854 553.9899 360.99854 561.9957 369.00433 M 634.9957 488.0043 C 643.00146 496.01007 643.00146 508.98993 634.9957 516.9957 C 626.9899 525.00146 614.0101 525.00146 606.0043 516.9957 C 597.99854 508.98993 597.99854 496.01007 606.0043 488.0043 C 614.0101 479.99854 626.9899 479.99854 634.9957 488.0043" fill="#68bc36"/>
        <path d="M 66.026055 138.0985 L 66.026055 712.2955 L 784.3679 712.2955 L 784.3679 138.0985 Z M 249.99567 350.37207 C 258.00146 358.3778 258.00146 371.35767 249.99567 379.3634 C 241.98993 387.3692 229.01007 387.3692 221.00433 379.3634 C 212.99854 371.35767 212.99854 358.3778 221.00433 350.37207 C 229.01007 342.3663 241.98993 342.3663 249.99567 350.37207 M 319.99567 470.0043 C 328.00146 478.01007 328.00146 490.98993 319.99567 498.9957 C 311.98993 507.00146 299.01007 507.00146 291.00433 498.9957 C 282.99854 490.98993 282.99854 478.01007 291.00433 470.0043 C 299.01007 461.99854 311.98993 461.99854 319.99567 470.0043 M 461.75006 470.0043 C 469.75584 478.01007 469.75584 490.98993 461.75006 498.9957 C 453.7443 507.00146 440.76445 507.00146 432.7587 498.9957 C 424.75293 490.98993 424.75293 478.01007 432.7587 470.0043 C 440.76445 461.99854 453.7443 461.99854 461.75006 470.0043 M 421.99567 369.00433 C 430.00146 377.01007 430.00146 389.98993 421.99567 397.99567 C 413.98993 406.00146 401.01007 406.00146 393.00433 397.99567 C 384.99854 389.98993 384.99854 377.01007 393.00433 369.00433 C 401.01007 360.99854 413.98993 360.99854 421.99567 369.00433 M 561.9957 369.00433 C 570.00146 377.01007 570.00146 389.98993 561.9957 397.99567 C 553.9899 406.00146 541.0101 406.00146 533.0043 397.99567 C 524.99854 389.98993 524.99854 377.01007 533.0043 369.00433 C 541.0101 360.99854 553.9899 360.99854 561.9957 369.00433 M 634.9957 488.0043 C 643.00146 496.01007 643.00146 508.98993 634.9957 516.9957 C 626.9899 525.00146 614.0101 525.00146 606.0043 516.9957 C 597.99854 508.98993 597.99854 496.01007 606.0043 488.0043 C 614.0101 479.99854 626.9899 479.99854 634.9957 488.0043" stroke="black" stroke-linecap="round" stroke-linejoin="round" stroke-width="4"/>
      </g>
      <g id="Graphic_23">
        <path d="M 247.3507 351.858 C 254.18197 358.68925 254.18197 369.76486 247.3507 376.5961 C 240.51947 383.42736 229.44386 383.42736 222.61263 376.5961 C 215.78136 369.76486 215.78136 358.68925 222.61263 351.858 C 229.44386 345.02675 240.51947 345.02675 247.3507 351.858 M 317.7073 472.92856 C 324.023 479.24423 324.023 489.48395 317.7073 495.7996 C 311.39163 502.1153 301.1519 502.1153 294.83625 495.7996 C 288.52055 489.48395 288.52055 479.24423 294.83625 472.92856 C 301.1519 466.61286 311.39163 466.61286 317.7073 472.92856 M 458.96153 472.92856 C 465.27724 479.24423 465.27724 489.48395 458.96153 495.7996 C 452.64587 502.1153 442.40615 502.1153 436.0905 495.7996 C 429.7748 489.48395 429.7748 479.24423 436.0905 472.92856 C 442.40615 466.61286 452.64587 466.61286 458.96153 472.92856 M 209.65376 398.86733 C 226.43953 411.17253 250.14827 409.7388 265.3208 394.5662 C 282.07675 377.81035 282.07675 350.64376 265.3208 333.8879 C 248.56496 317.13197 221.39837 317.13197 204.64252 333.8879 C 191.14786 347.3825 188.52133 367.6296 196.76293 383.75276 L 104.7256 475.7901 C 104.60541 475.9103 104.60541 476.10515 104.7256 476.22534 C 104.7256 476.22534 104.7256 476.22534 104.7256 476.22534 L 104.78934 476.2891 C 104.82455 476.3243 104.82455 476.38136 104.78934 476.41656 C 104.77244 476.43347 104.74951 476.44297 104.7256 476.44297 L 104.7256 476.44297 C 104.60541 476.44297 104.50798 476.5404 104.50798 476.6606 L 104.50798 612.6151 C 104.50798 613.373 105.12238 613.9874 105.88028 613.9874 L 105.88028 613.9874 C 106.75895 613.9874 107.60163 614.33645 108.22294 614.95776 L 165.60206 672.3369 C 166.06939 672.8042 166.33193 673.438 166.33193 674.09894 L 166.33193 674.09894 C 166.33193 674.669 166.79406 675.1311 167.36413 675.1311 L 452.15246 675.1311 C 453.24613 675.1311 454.13274 674.2445 454.13274 673.15085 L 454.13274 672.4908 C 454.13274 671.76164 454.7238 671.1706 455.4529 671.1706 L 455.4529 671.1706 C 456.18204 671.1706 456.7731 670.5795 456.7731 669.8504 L 456.7731 524.0804 C 463.749 522.3483 470.35774 518.75584 475.8106 513.30297 C 491.7932 497.32046 491.7932 471.4077 475.8106 455.4252 C 459.8281 439.4426 433.91533 439.4426 417.93283 455.4252 C 401.95024 471.4077 401.95024 497.32046 417.93283 513.30297 C 423.38567 518.75584 429.9944 522.3483 436.9703 524.0804 L 436.9703 604.3283 C 436.9703 632.49485 414.13682 655.3283 385.9703 655.3283 C 385.9703 655.3283 385.9703 655.3283 385.9703 655.3283 L 367.17318 655.3283 C 339.00665 655.3283 316.17318 632.49485 316.17318 604.3283 L 316.17318 524.0804 C 323.14908 522.3483 329.7578 518.75584 335.21065 513.30297 C 351.19324 497.32046 351.19324 471.4077 335.21065 455.4252 C 319.22814 439.4426 293.3154 439.4426 277.3329 455.4252 C 261.3503 471.4077 261.3503 497.32046 277.3329 513.30297 C 282.78574 518.75584 289.39447 522.3483 296.37037 524.0804 L 296.37037 604.3283 C 296.37037 632.49485 273.5369 655.3283 245.37037 655.3283 L 197.7238 655.3283 C 184.19776 655.3283 171.22571 649.9551 161.66136 640.3908 L 139.24834 617.97775 C 129.68398 608.4134 124.31078 595.44135 124.31078 581.9153 L 124.31078 505.3352 C 124.31078 491.80916 129.68398 478.8371 139.24834 469.27275 Z" fill="#af8d65"/>
        <path d="M 247.3507 351.858 C 254.18197 358.68925 254.18197 369.76486 247.3507 376.5961 C 240.51947 383.42736 229.44386 383.42736 222.61263 376.5961 C 215.78136 369.76486 215.78136 358.68925 222.61263 351.858 C 229.44386 345.02675 240.51947 345.02675 247.3507 351.858 M 317.7073 472.92856 C 324.023 479.24423 324.023 489.48395 317.7073 495.7996 C 311.39163 502.1153 301.1519 502.1153 294.83625 495.7996 C 288.52055 489.48395 288.52055 479.24423 294.83625 472.92856 C 301.1519 466.61286 311.39163 466.61286 317.7073 472.92856 M 458.96153 472.92856 C 465.27724 479.24423 465.27724 489.48395 458.96153 495.7996 C 452.64587 502.1153 442.40615 502.1153 436.0905 495.7996 C 429.7748 489.48395 429.7748 479.24423 436.0905 472.92856 C 442.40615 466.61286 452.64587 466.61286 458.96153 472.92856 M 209.65376 398.86733 C 226.43953 411.17253 250.14827 409.7388 265.3208 394.5662 C 282.07675 377.81035 282.07675 350.64376 265.3208 333.8879 C 248.56496 317.13197 221.39837 317.13197 204.64252 333.8879 C 191.14786 347.3825 188.52133 367.6296 196.76293 383.75276 L 104.7256 475.7901 C 104.60541 475.9103 104.60541 476.10515 104.7256 476.22534 C 104.7256 476.22534 104.7256 476.22534 104.7256 476.22534 L 104.78934 476.2891 C 104.82455 476.3243 104.82455 476.38136 104.78934 476.41656 C 104.77244 476.43347 104.74951 476.44297 104.7256 476.44297 L 104.7256 476.44297 C 104.60541 476.44297 104.50798 476.5404 104.50798 476.6606 L 104.50798 612.6151 C 104.50798 613.373 105.12238 613.9874 105.88028 613.9874 L 105.88028 613.9874 C 106.75895 613.9874 107.60163 614.33645 108.22294 614.95776 L 165.60206 672.3369 C 166.06939 672.8042 166.33193 673.438 166.33193 674.09894 L 166.33193 674.09894 C 166.33193 674.669 166.79406 675.1311 167.36413 675.1311 L 452.15246 675.1311 C 453.24613 675.1311 454.13274 674.2445 454.13274 673.15085 L 454.13274 672.4908 C 454.13274 671.76164 454.7238 671.1706 455.4529 671.1706 L 455.4529 671.1706 C 456.18204 671.1706 456.7731 670.5795 456.7731 669.8504 L 456.7731 524.0804 C 463.749 522.3483 470.35774 518.75584 475.8106 513.30297 C 491.7932 497.32046 491.7932 471.4077 475.8106 455.4252 C 459.8281 439.4426 433.91533 439.4426 417.93283 455.4252 C 401.95024 471.4077 401.95024 497.32046 417.93283 513.30297 C 423.38567 518.75584 429.9944 522.3483 436.9703 524.0804 L 436.9703 604.3283 C 436.9703 632.49485 414.13682 655.3283 385.9703 655.3283 C 385.9703 655.3283 385.9703 655.3283 385.9703 655.3283 L 367.17318 655.3283 C 339.00665 655.3283 316.17318 632.49485 316.17318 604.3283 L 316.17318 524.0804 C 323.14908 522.3483 329.7578 518.75584 335.21065 513.30297 C 351.19324 497.32046 351.19324 471.4077 335.21065 455.4252 C 319.22814 439.4426 293.3154 439.4426 277.3329 455.4252 C 261.3503 471.4077 261.3503 497.32046 277.3329 513.30297 C 282.78574 518.75584 289.39447 522.3483 296.37037 524.0804 L 296.37037 604.3283 C 296.37037 632.49485 273.5369 655.3283 245.37037 655.3283 L 197.7238 655.3283 C 184.19776 655.3283 171.22571 649.9551 161.66136 640.3908 L 139.24834 617.97775 C 129.68398 608.4134 124.31078 595.44135 124.31078 581.9153 L 124.31078 505.3352 C 124.31078 491.80916 129.68398 478.8371 139.24834 469.27275 Z" stroke="gray" stroke-linecap="round" stroke-linejoin="round" stroke-width="1"/>
      </g>
      <g id="Graphic_24">
        <path d="M 607.0364 514.74454 C 600.20515 507.9133 600.20515 496.8377 607.0364 490.00646 C 613.86765 483.1752 624.9433 483.1752 631.7745 490.00646 C 638.6058 496.8377 638.6058 507.9133 631.7745 514.74454 C 624.9433 521.5758 613.86765 521.5758 607.0364 514.74454 M 536.6798 393.674 C 530.3641 387.35833 530.3641 377.1186 536.6798 370.80294 C 542.9955 364.48724 553.2352 364.48724 559.5509 370.80294 C 565.8666 377.1186 565.8666 387.35833 559.5509 393.674 C 553.2352 399.9897 542.9955 399.9897 536.6798 393.674 M 395.4256 393.674 C 389.1099 387.35833 389.1099 377.1186 395.4256 370.80294 C 401.74126 364.48724 411.98097 364.48724 418.29664 370.80294 C 424.61234 377.1186 424.61234 387.35833 418.29664 393.674 C 411.98097 399.9897 401.74126 399.9897 395.4256 393.674 M 644.7334 467.7352 C 627.9476 455.43 604.23885 456.86373 589.0663 472.03635 C 572.3104 488.7922 572.3104 515.9588 589.0663 532.71465 C 605.8222 549.4706 632.98875 549.4706 649.7446 532.71465 C 663.2393 519.22007 665.8658 498.97294 657.6242 482.8498 L 749.6615 390.81247 C 749.7817 390.6923 749.7817 390.4974 749.6615 390.3772 L 749.5978 390.31348 C 749.5626 390.27827 749.5626 390.2212 749.5978 390.186 C 749.6147 390.1691 749.6376 390.1596 749.6615 390.1596 L 749.6615 390.1596 C 749.7817 390.1596 749.87915 390.06216 749.87915 389.94197 L 749.87915 253.98746 C 749.87915 253.22956 749.26475 252.61516 748.50685 252.61516 L 748.50685 252.61516 C 747.6282 252.61516 746.7855 252.2661 746.1642 251.6448 L 688.7851 194.26568 C 688.3177 193.79835 688.0552 193.16452 688.0552 192.50362 L 688.0552 192.50362 C 688.0552 191.93355 687.5931 191.47142 687.023 191.47142 L 402.23467 191.47142 C 401.141 191.47142 400.2544 192.35802 400.2544 193.4517 L 400.2544 194.1118 C 400.2544 194.84092 399.6633 195.43198 398.9342 195.43198 L 398.9342 195.43198 C 398.2051 195.43198 397.614 196.02305 397.614 196.75217 C 397.614 196.75217 397.614 196.75217 397.614 196.75217 L 397.614 342.52213 C 390.6381 344.25423 384.0294 347.8467 378.57654 353.2996 C 362.59395 369.2821 362.59395 395.19484 378.57654 411.17735 C 394.55904 427.15994 420.4718 427.15994 436.4543 411.17735 C 452.4369 395.19484 452.4369 369.2821 436.4543 353.2996 C 431.00145 347.8467 424.3927 344.25423 417.4168 342.52213 L 417.4168 262.27423 C 417.4168 234.1077 440.2503 211.27423 468.4168 211.27423 C 468.4168 211.27423 468.4168 211.27423 468.4168 211.27423 L 487.21395 211.27423 C 515.3805 211.27423 538.21395 234.1077 538.21395 262.27423 C 538.21395 262.27423 538.21395 262.27423 538.21395 262.27423 L 538.21395 342.52213 C 531.23805 344.25423 524.6293 347.8467 519.1765 353.2996 C 503.1939 369.2821 503.1939 395.19484 519.1765 411.17735 C 535.159 427.15994 561.0717 427.15994 577.0542 411.17735 C 593.0368 395.19484 593.0368 369.2821 577.0542 353.2996 C 571.6014 347.8467 564.99265 344.25423 558.01675 342.52213 L 558.01675 262.27423 C 558.01675 234.1077 580.8502 211.27423 609.01675 211.27423 L 656.6633 211.27423 C 670.1894 211.27423 683.1614 216.64743 692.7258 226.21178 L 715.1388 248.6248 C 724.7031 258.18916 730.0763 271.1612 730.0763 284.68725 L 730.0763 361.26736 C 730.0763 374.7934 724.7031 387.76545 715.1388 397.3298 Z" fill="#af8d65"/>
        <path d="M 607.0364 514.74454 C 600.20515 507.9133 600.20515 496.8377 607.0364 490.00646 C 613.86765 483.1752 624.9433 483.1752 631.7745 490.00646 C 638.6058 496.8377 638.6058 507.9133 631.7745 514.74454 C 624.9433 521.5758 613.86765 521.5758 607.0364 514.74454 M 536.6798 393.674 C 530.3641 387.35833 530.3641 377.1186 536.6798 370.80294 C 542.9955 364.48724 553.2352 364.48724 559.5509 370.80294 C 565.8666 377.1186 565.8666 387.35833 559.5509 393.674 C 553.2352 399.9897 542.9955 399.9897 536.6798 393.674 M 395.4256 393.674 C 389.1099 387.35833 389.1099 377.1186 395.4256 370.80294 C 401.74126 364.48724 411.98097 364.48724 418.29664 370.80294 C 424.61234 377.1186 424.61234 387.35833 418.29664 393.674 C 411.98097 399.9897 401.74126 399.9897 395.4256 393.674 M 644.7334 467.7352 C 627.9476 455.43 604.23885 456.86373 589.0663 472.03635 C 572.3104 488.7922 572.3104 515.9588 589.0663 532.71465 C 605.8222 549.4706 632.98875 549.4706 649.7446 532.71465 C 663.2393 519.22007 665.8658 498.97294 657.6242 482.8498 L 749.6615 390.81247 C 749.7817 390.6923 749.7817 390.4974 749.6615 390.3772 L 749.5978 390.31348 C 749.5626 390.27827 749.5626 390.2212 749.5978 390.186 C 749.6147 390.1691 749.6376 390.1596 749.6615 390.1596 L 749.6615 390.1596 C 749.7817 390.1596 749.87915 390.06216 749.87915 389.94197 L 749.87915 253.98746 C 749.87915 253.22956 749.26475 252.61516 748.50685 252.61516 L 748.50685 252.61516 C 747.6282 252.61516 746.7855 252.2661 746.1642 251.6448 L 688.7851 194.26568 C 688.3177 193.79835 688.0552 193.16452 688.0552 192.50362 L 688.0552 192.50362 C 688.0552 191.93355 687.5931 191.47142 687.023 191.47142 L 402.23467 191.47142 C 401.141 191.47142 400.2544 192.35802 400.2544 193.4517 L 400.2544 194.1118 C 400.2544 194.84092 399.6633 195.43198 398.9342 195.43198 L 398.9342 195.43198 C 398.2051 195.43198 397.614 196.02305 397.614 196.75217 C 397.614 196.75217 397.614 196.75217 397.614 196.75217 L 397.614 342.52213 C 390.6381 344.25423 384.0294 347.8467 378.57654 353.2996 C 362.59395 369.2821 362.59395 395.19484 378.57654 411.17735 C 394.55904 427.15994 420.4718 427.15994 436.4543 411.17735 C 452.4369 395.19484 452.4369 369.2821 436.4543 353.2996 C 431.00145 347.8467 424.3927 344.25423 417.4168 342.52213 L 417.4168 262.27423 C 417.4168 234.1077 440.2503 211.27423 468.4168 211.27423 C 468.4168 211.27423 468.4168 211.27423 468.4168 211.27423 L 487.21395 211.27423 C 515.3805 211.27423 538.21395 234.1077 538.21395 262.27423 C 538.21395 262.27423 538.21395 262.27423 538.21395 262.27423 L 538.21395 342.52213 C 531.23805 344.25423 524.6293 347.8467 519.1765 353.2996 C 503.1939 369.2821 503.1939 395.19484 519.1765 411.17735 C 535.159 427.15994 561.0717 427.15994 577.0542 411.17735 C 593.0368 395.19484 593.0368 369.2821 577.0542 353.2996 C 571.6014 347.8467 564.99265 344.25423 558.01675 342.52213 L 558.01675 262.27423 C 558.01675 234.1077 580.8502 211.27423 609.01675 211.27423 L 656.6633 211.27423 C 670.1894 211.27423 683.1614 216.64743 692.7258 226.21178 L 715.1388 248.6248 C 724.7031 258.18916 730.0763 271.1612 730.0763 284.68725 L 730.0763 361.26736 C 730.0763 374.7934 724.7031 387.76545 715.1388 397.3298 Z" stroke="gray" stroke-linecap="round" stroke-linejoin="round" stroke-width="1"/>
      </g>
    </g>
  </g>
</svg>
