<?xml version="1.0" encoding="UTF-8" standalone="no"?>
<!DOCTYPE svg PUBLIC "-//W3C//DTD SVG 1.1//EN" "http://www.w3.org/Graphics/SVG/1.1/DTD/svg11.dtd">
<svg xmlns="http://www.w3.org/2000/svg" version="1.1" xmlns:dc="http://purl.org/dc/elements/1.1/" xmlns:xl="http://www.w3.org/1999/xlink" viewBox="0 0 850.394 850.394" width="850.394" height="850.394">
  <defs/>
  <metadata> Produced by OmniGraffle 7.9.4 
    <dc:date>2019-03-11 03:14:12 +0000</dc:date>
  </metadata>
  <g id="pedal" fill="none" stroke-opacity="1" fill-opacity="1" stroke-dasharray="none" stroke="none">
    <title>pedal</title>
    <g id="pedal: Layer 1">
      <title>Layer 1</title>
      <g id="Line_10">
        <path d="M 683.3754 326.0965 C 691.8309 323.56758 699.8355 321.48036 707.2587 319.92405 C 805.4191 299.3441 733.7756 372.6327 755.7613 381.27387 C 777.7469 389.91504 764.1499 350.44687 784.86285 350.42535 C 805.5758 350.40383 812.5316 373.4144 828.8733 381.1979 C 845.2149 388.98143 838.6718 378.8338 842.5451 377.8993" stroke="black" stroke-linecap="round" stroke-linejoin="round" stroke-width="11"/>
      </g>
      <g id="Graphic_23">
        <path d="M 453.8813 109.4101 L 587.4688 145.20477 C 631.998 157.13633 654.2626 163.10211 677.4795 183.3254 C 696.2435 202.35553 709.7567 240.9822 709.911 276.0294 C 708.3151 317.60876 699.5637 350.26965 682.06075 415.5914 L 629.552 611.5567 C 612.0491 676.8785 603.2976 709.5394 583.89005 746.3461 C 566.23276 776.6207 535.2167 803.3158 509.45154 810.4144 C 479.23344 816.3198 456.96885 810.354 412.43967 798.4225 L 278.85213 762.6278 C 234.32295 750.6962 212.05836 744.7304 188.84144 724.50715 C 170.07743 705.477 156.5643 666.85036 156.40992 631.8032 C 158.00583 590.2238 166.75729 557.5629 184.2602 492.24114 L 236.76895 296.27584 C 254.27186 230.95407 263.02332 198.29318 282.4309 161.48643 C 300.0882 131.21186 331.10425 104.51676 356.8694 97.41818 C 387.0875 91.51276 409.3521 97.47854 453.8813 109.4101 M 453.8813 109.4101" fill="#999"/>
        <path d="M 453.8813 109.4101 L 587.4688 145.20477 C 631.998 157.13633 654.2626 163.10211 677.4795 183.3254 C 696.2435 202.35553 709.7567 240.9822 709.911 276.0294 C 708.3151 317.60876 699.5637 350.26965 682.06075 415.5914 L 629.552 611.5567 C 612.0491 676.8785 603.2976 709.5394 583.89005 746.3461 C 566.23276 776.6207 535.2167 803.3158 509.45154 810.4144 C 479.23344 816.3198 456.96885 810.354 412.43967 798.4225 L 278.85213 762.6278 C 234.32295 750.6962 212.05836 744.7304 188.84144 724.50715 C 170.07743 705.477 156.5643 666.85036 156.40992 631.8032 C 158.00583 590.2238 166.75729 557.5629 184.2602 492.24114 L 236.76895 296.27584 C 254.27186 230.95407 263.02332 198.29318 282.4309 161.48643 C 300.0882 131.21186 331.10425 104.51676 356.8694 97.41818 C 387.0875 91.51276 409.3521 97.47854 453.8813 109.4101 M 453.8813 109.4101" stroke="black" stroke-linecap="round" stroke-linejoin="round" stroke-width="6"/>
      </g>
      <g id="Graphic_5">
        <path d="M 602.2216 282.63015 L 601.5592 282.07536 C 598.9078 281.8769 595.7558 285.30374 588.9549 291.74133 C 583.8099 299.5659 580.989 303.27013 581.64944 305.8456 L 582.3118 306.4004 C 586.1282 301.50765 586.66686 302.56097 586.66686 302.56097 L 584.6323 306.35007 C 584.6323 306.35007 588.4798 301.3561 593.8722 294.7499 C 599.4302 288.28245 602.2085 285.36584 602.2085 285.36584 L 598.835 288.03342 C 598.835 288.03342 598.074 287.2455 602.2216 282.63015 Z" fill="#e6e6e6"/>
        <path d="M 602.2216 282.63015 L 601.5592 282.07536 C 598.9078 281.8769 595.7558 285.30374 588.9549 291.74133 C 583.8099 299.5659 580.989 303.27013 581.64944 305.8456 L 582.3118 306.4004 C 586.1282 301.50765 586.66686 302.56097 586.66686 302.56097 L 584.6323 306.35007 C 584.6323 306.35007 588.4798 301.3561 593.8722 294.7499 C 599.4302 288.28245 602.2085 285.36584 602.2085 285.36584 L 598.835 288.03342 C 598.835 288.03342 598.074 287.2455 602.2216 282.63015 Z" stroke="black" stroke-linecap="round" stroke-linejoin="round" stroke-width="2"/>
      </g>
      <g id="Line_4">
        <path d="M 603.7317 306.86483 L 603.0471 305.04116 C 601.6243 301.25084 600.8955 297.23535 600.8955 293.1868 L 600.8955 293.1868 C 600.8955 289.1739 601.9367 285.22965 603.91736 281.7396 L 604.17605 281.2838" stroke="black" stroke-linecap="round" stroke-linejoin="round" stroke-width="10"/>
      </g>
      <g id="Graphic_2">
        <path d="M 429.999 109.4101 L 563.5865 145.20477 C 608.1157 157.13633 630.3803 163.10211 653.5972 183.3254 C 672.3612 202.35553 685.8744 240.9822 686.02875 276.0294 C 684.4328 317.60876 675.6814 350.26965 658.1785 415.5914 L 605.6697 611.5567 C 588.1668 676.8785 579.41534 709.5394 560.00776 746.3461 C 542.35047 776.6207 511.3344 803.3158 485.56924 810.4144 C 455.35115 816.3198 433.08656 810.354 388.5574 798.4225 L 254.96984 762.6278 C 210.44066 750.6962 188.17607 744.7304 164.95914 724.50715 C 146.19514 705.477 132.682 666.85036 132.52763 631.8032 C 134.12354 590.2238 142.875 557.5629 160.37791 492.24114 L 212.88666 296.27584 C 230.38957 230.95407 239.14103 198.29318 258.5486 161.48643 C 276.2059 131.21186 307.22195 104.51676 332.98713 97.41818 C 363.2052 91.51276 385.4698 97.47854 429.999 109.4101 M 429.999 109.4101" fill="#999"/>
        <path d="M 429.999 109.4101 L 563.5865 145.20477 C 608.1157 157.13633 630.3803 163.10211 653.5972 183.3254 C 672.3612 202.35553 685.8744 240.9822 686.02875 276.0294 C 684.4328 317.60876 675.6814 350.26965 658.1785 415.5914 L 605.6697 611.5567 C 588.1668 676.8785 579.41534 709.5394 560.00776 746.3461 C 542.35047 776.6207 511.3344 803.3158 485.56924 810.4144 C 455.35115 816.3198 433.08656 810.354 388.5574 798.4225 L 254.96984 762.6278 C 210.44066 750.6962 188.17607 744.7304 164.95914 724.50715 C 146.19514 705.477 132.682 666.85036 132.52763 631.8032 C 134.12354 590.2238 142.875 557.5629 160.37791 492.24114 L 212.88666 296.27584 C 230.38957 230.95407 239.14103 198.29318 258.5486 161.48643 C 276.2059 131.21186 307.22195 104.51676 332.98713 97.41818 C 363.2052 91.51276 385.4698 97.47854 429.999 109.4101 M 429.999 109.4101" stroke="black" stroke-linecap="round" stroke-linejoin="round" stroke-width="6"/>
      </g>
      <g id="Graphic_3">
        <path d="M 371.42515 382.35673 L 478.56457 411.06465 C 514.2777 420.63396 532.1343 425.4186 551.78954 437.7757 C 567.8735 449.1759 581.2985 470.4993 584.0096 488.95197 C 585.8343 510.7124 581.4028 527.25116 572.5397 560.32874 L 545.95034 659.5615 C 537.0872 692.63904 532.6557 709.1778 520.1952 727.1105 C 508.621 741.7354 486.3329 753.4896 466.7037 755.3204 C 443.5032 756.1944 425.6466 751.4097 389.93347 741.8404 L 282.79406 713.1325 C 247.08092 703.5632 229.22435 698.7785 209.5691 686.4214 C 193.48514 675.0213 180.06013 653.6978 177.34906 635.2452 C 175.5243 613.4848 179.95585 596.946 188.81896 563.8684 L 215.4083 464.6357 C 224.2714 431.5581 228.70295 415.0193 241.16345 397.08663 C 252.73763 382.4617 275.02575 370.70757 294.65494 368.8767 C 317.85545 368.00277 335.712 372.78743 371.42515 382.35673 M 371.42515 382.35673" fill="black"/>
        <path d="M 371.42515 382.35673 L 478.56457 411.06465 C 514.2777 420.63396 532.1343 425.4186 551.78954 437.7757 C 567.8735 449.1759 581.2985 470.4993 584.0096 488.95197 C 585.8343 510.7124 581.4028 527.25116 572.5397 560.32874 L 545.95034 659.5615 C 537.0872 692.63904 532.6557 709.1778 520.1952 727.1105 C 508.621 741.7354 486.3329 753.4896 466.7037 755.3204 C 443.5032 756.1944 425.6466 751.4097 389.93347 741.8404 L 282.79406 713.1325 C 247.08092 703.5632 229.22435 698.7785 209.5691 686.4214 C 193.48514 675.0213 180.06013 653.6978 177.34906 635.2452 C 175.5243 613.4848 179.95585 596.946 188.81896 563.8684 L 215.4083 464.6357 C 224.2714 431.5581 228.70295 415.0193 241.16345 397.08663 C 252.73763 382.4617 275.02575 370.70757 294.65494 368.8767 C 317.85545 368.00277 335.712 372.78743 371.42515 382.35673 M 371.42515 382.35673" stroke="black" stroke-linecap="round" stroke-linejoin="round" stroke-width="43"/>
      </g>
      <g id="Line_11">
        <path d="M 196.95169 344.15484 C 178.86455 336.10666 162.03771 329.23087 147.69922 324.31858 C 61.683695 294.85014 132.57391 346.11853 105.66363 349.8996 C 78.75334 353.6807 64.35265 343.1924 52.71224 337.66493 C 41.07183 332.13744 70.0029 338.92856 64.575714 330.3889 C 59.14853 321.84922 47.85243 309.8828 33.555556 307.5219 C 19.25868 305.16104 14.111111 322.05556 14.111111 322.05556" stroke="black" stroke-linecap="round" stroke-linejoin="round" stroke-width="13"/>
      </g>
      <g id="Graphic_15">
        <path d="M 310 200 L 291.21907 141.30073 C 288.0238 135.76634 290.45838 124.91915 318.1303 108.94275 C 345.80224 92.96635 349.28764 97.73973 352.48292 103.27412 L 391 169 C 394.1953 174.53439 397.67193 196.0236 370 212 C 342.32807 227.9764 313.19528 205.53439 310 200 Z" fill="#dadada"/>
        <path d="M 310 200 L 291.21907 141.30073 C 288.0238 135.76634 290.45838 124.91915 318.1303 108.94275 C 345.80224 92.96635 349.28764 97.73973 352.48292 103.27412 L 391 169 C 394.1953 174.53439 397.67193 196.0236 370 212 C 342.32807 227.9764 313.19528 205.53439 310 200 Z" stroke="black" stroke-linecap="round" stroke-linejoin="round" stroke-width="11"/>
      </g>
      <g id="Graphic_14">
        <path d="M 333.7215 90.46596 C 349.19215 88.96723 354.41067 98.00597 345.3774 110.65457 C 336.34422 123.30316 316.48 134.77177 301.0094 136.27044 C 285.53877 137.76918 280.32025 128.73043 289.3535 116.08183 C 298.3867 103.43324 318.2509 91.96463 333.7215 90.46596" fill="#666"/>
        <path d="M 333.7215 90.46596 C 349.19215 88.96723 354.41067 98.00597 345.3774 110.65457 C 336.34422 123.30316 316.48 134.77177 301.0094 136.27044 C 285.53877 137.76918 280.32025 128.73043 289.3535 116.08183 C 298.3867 103.43324 318.2509 91.96463 333.7215 90.46596" stroke="black" stroke-linecap="round" stroke-linejoin="round" stroke-width="9"/>
      </g>
      <g id="Line_13">
        <line x1="298" y1="129.63278" x2="321.28737" y2="110" stroke="black" stroke-linecap="round" stroke-linejoin="round" stroke-width="8"/>
      </g>
      <g id="Graphic_16">
        <path d="M 439 226 L 410.21907 155.30073 C 407.0238 149.76634 409.4584 138.91915 437.1303 122.94275 C 464.80224 106.96635 468.28764 111.73973 471.4829 117.27412 L 539.3576 184.23456 C 542.55285 189.76895 520.67193 204.0236 493 220 C 465.32807 235.9764 442.1953 231.5344 439 226 Z" fill="#dadada"/>
        <path d="M 439 226 L 410.21907 155.30073 C 407.0238 149.76634 409.4584 138.91915 437.1303 122.94275 C 464.80224 106.96635 468.28764 111.73973 471.4829 117.27412 L 539.3576 184.23456 C 542.55285 189.76895 520.67193 204.0236 493 220 C 465.32807 235.9764 442.1953 231.5344 439 226 Z" stroke="black" stroke-linecap="round" stroke-linejoin="round" stroke-width="10"/>
      </g>
      <g id="Graphic_17">
        <path d="M 454.89543 114.49926 C 471.9313 115.71158 479.68756 129.14582 472.21953 144.50548 C 464.7516 159.86514 444.88737 171.33375 427.85154 170.12135 C 410.81567 168.90903 403.0594 155.4748 410.52744 140.11513 C 417.9954 124.75547 437.8596 113.28686 454.89543 114.49926" fill="#666"/>
        <path d="M 454.89543 114.49926 C 471.9313 115.71158 479.68756 129.14582 472.21953 144.50548 C 464.7516 159.86514 444.88737 171.33375 427.85154 170.12135 C 410.81567 168.90903 403.0594 155.4748 410.52744 140.11513 C 417.9954 124.75547 437.8596 113.28686 454.89543 114.49926" stroke="black" stroke-linecap="round" stroke-linejoin="round" stroke-width="9"/>
      </g>
      <g id="Line_18">
        <line x1="443" y1="135.63278" x2="466.2874" y2="116" stroke="black" stroke-linecap="round" stroke-linejoin="round" stroke-width="8"/>
      </g>
      <g id="Graphic_19">
        <path d="M 543.5604 272.72733 L 517.77946 205.02805 C 514.5842 199.49367 517.0188 188.64647 544.6907 172.67007 C 572.36264 156.69368 575.84804 161.46705 579.0433 167.00144 L 638.5604 225.72733 C 641.7557 231.2617 635.4609 263.68303 607.789 279.65943 C 580.11706 295.63583 546.7557 278.2617 543.5604 272.72733 Z" fill="#dadada"/>
        <path d="M 543.5604 272.72733 L 517.77946 205.02805 C 514.5842 199.49367 517.0188 188.64647 544.6907 172.67007 C 572.36264 156.69368 575.84804 161.46705 579.0433 167.00144 L 638.5604 225.72733 C 641.7557 231.2617 635.4609 263.68303 607.789 279.65943 C 580.11706 295.63583 546.7557 278.2617 543.5604 272.72733 Z" stroke="black" stroke-linecap="round" stroke-linejoin="round" stroke-width="11"/>
      </g>
      <g id="Graphic_20">
        <path d="M 560.2819 154.19329 C 575.75254 152.69455 580.97106 161.7333 571.9378 174.3819 C 562.9046 187.03049 543.0404 198.4991 527.5698 199.99777 C 512.09917 201.4965 506.88065 192.45776 515.9139 179.80916 C 524.9471 167.16057 544.8113 155.69196 560.2819 154.19329" fill="#666"/>
        <path d="M 560.2819 154.19329 C 575.75254 152.69455 580.97106 161.7333 571.9378 174.3819 C 562.9046 187.03049 543.0404 198.4991 527.5698 199.99777 C 512.09917 201.4965 506.88065 192.45776 515.9139 179.80916 C 524.9471 167.16057 544.8113 155.69196 560.2819 154.19329" stroke="black" stroke-linecap="round" stroke-linejoin="round" stroke-width="9"/>
      </g>
      <g id="Line_21">
        <line x1="518.433" y1="197.65255" x2="543.2551" y2="180" stroke="black" stroke-linecap="round" stroke-linejoin="round" stroke-width="8"/>
      </g>
      <g id="Graphic_22">
        <circle cx="446.5" cy="296.87342" r="24.5000391485964" fill="red"/>
        <circle cx="446.5" cy="296.87342" r="24.5000391485964" stroke="black" stroke-linecap="round" stroke-linejoin="round" stroke-width="11"/>
      </g>
    </g>
  </g>
</svg>
