<?xml version="1.0" encoding="UTF-8" standalone="no"?>
<!DOCTYPE svg PUBLIC "-//W3C//DTD SVG 1.1//EN" "http://www.w3.org/Graphics/SVG/1.1/DTD/svg11.dtd">
<svg xmlns="http://www.w3.org/2000/svg" xmlns:xl="http://www.w3.org/1999/xlink" xmlns:dc="http://purl.org/dc/elements/1.1/" version="1.1" viewBox="0 0 850.394 850.394" width="850.394" height="850.394">
  <defs/>
  <metadata> Produced by OmniGraffle 7.9.4 
    <dc:date>2019-04-30 23:07:35 +0000</dc:date>
  </metadata>
  <g id="Phantom_power" stroke-opacity="1" fill-opacity="1" fill="none" stroke="none" stroke-dasharray="none">
    <title>Phantom power</title>
    <g id="Phantom_power: Layer 1">
      <title>Layer 1</title>
      <g id="Line_9">
        <path d="M 253.62438 241.91844 L 344.0706 121.55608 L 479.7101 57 L 606.0068 124.3184 L 646.2996 578.86704" stroke="black" stroke-linecap="round" stroke-linejoin="round" stroke-width="25"/>
      </g>
      <g id="Graphic_8">
        <path d="M 501.8087 634.11355 C 501.8087 634.9635 642.04984 517.6709 642.04984 517.6709 L 661.5986 600.96564 L 843.4871 473.4737 L 680.2974 649.4126 L 633.5504 639.2132 L 627.60075 564.41795 C 627.60075 564.41795 501.8087 633.2636 501.8087 634.11355 Z" fill="#ffff40"/>
        <path d="M 501.8087 634.11355 C 501.8087 634.9635 642.04984 517.6709 642.04984 517.6709 L 661.5986 600.96564 L 843.4871 473.4737 L 680.2974 649.4126 L 633.5504 639.2132 L 627.60075 564.41795 C 627.60075 564.41795 501.8087 633.2636 501.8087 634.11355 Z" stroke="black" stroke-linecap="round" stroke-linejoin="round" stroke-width="7"/>
      </g>
      <g id="Graphic_7">
        <path d="M 107.74638 330.37553 L 11.258991 715.3505 L 11.258991 715.3505 C 10.358605 718.9429 11.198552 722.7497 13.527064 725.6297 C 17.62105 730.6933 25.04475 731.4793 30.108365 727.3853 L 39.74027 719.5978 C 51.57238 710.03145 64.31166 701.6451 77.77622 694.5585 L 90.78818 687.7101 C 109.47924 677.8727 132.5979 684.2704 143.57238 702.31735 L 150.30107 713.3823 C 151.57697 715.48045 153.03253 717.4639 154.65136 719.3104 C 170.10635 736.9388 196.9257 738.7006 214.55405 723.2456 L 219.14931 719.2169 C 242.67902 698.5881 278.47245 700.9226 299.12337 724.4329 L 308.4574 735.0593 C 309.12484 735.8192 309.82017 736.5541 310.54197 737.2625 C 326.7004 753.1217 352.6558 752.8791 368.515 736.7207 C 386.31925 718.5805 414.67885 716.0999 435.36204 730.8736 L 448.449 740.22145 C 453.84325 744.0745 460.5051 745.7226 467.07363 744.829 C 481.3079 742.8926 491.2773 729.7837 489.3409 715.5494 L 440.2451 354.6523 C 434.175 310.0317 415.3256 268.12006 385.97014 233.97188 L 339.7059 180.1543 C 334.49553 174.09325 328.5459 168.70926 321.9962 164.12825 C 278.71264 133.85477 219.08288 144.40153 188.8094 187.6851 L 142.8808 253.3516 C 126.57165 276.66966 114.66431 302.7737 107.74638 330.37553 L 107.74638 330.37553 Z M 218.3606 279.49354 C 229.52554 290.65843 229.52554 308.7603 218.3606 319.9252 C 207.1957 331.09014 189.09383 331.09014 177.92894 319.9252 C 166.76398 308.7603 166.76398 290.65843 177.92894 279.49354 C 189.09383 268.32858 207.1957 268.32858 218.3606 279.49354 M 345.60175 284.75855 C 358.63444 297.79118 358.63444 318.9212 345.60175 331.95384 C 332.56913 344.98653 311.4391 344.98653 298.40646 331.95384 C 285.37377 318.9212 285.37377 297.79118 298.40646 284.75855 C 311.4391 271.72586 332.56913 271.72586 345.60175 284.75855" fill="#c0c0ff"/>
        <path d="M 107.74638 330.37553 L 11.258991 715.3505 L 11.258991 715.3505 C 10.358605 718.9429 11.198552 722.7497 13.527064 725.6297 C 17.62105 730.6933 25.04475 731.4793 30.108365 727.3853 L 39.74027 719.5978 C 51.57238 710.03145 64.31166 701.6451 77.77622 694.5585 L 90.78818 687.7101 C 109.47924 677.8727 132.5979 684.2704 143.57238 702.31735 L 150.30107 713.3823 C 151.57697 715.48045 153.03253 717.4639 154.65136 719.3104 C 170.10635 736.9388 196.9257 738.7006 214.55405 723.2456 L 219.14931 719.2169 C 242.67902 698.5881 278.47245 700.9226 299.12337 724.4329 L 308.4574 735.0593 C 309.12484 735.8192 309.82017 736.5541 310.54197 737.2625 C 326.7004 753.1217 352.6558 752.8791 368.515 736.7207 C 386.31925 718.5805 414.67885 716.0999 435.36204 730.8736 L 448.449 740.22145 C 453.84325 744.0745 460.5051 745.7226 467.07363 744.829 C 481.3079 742.8926 491.2773 729.7837 489.3409 715.5494 L 440.2451 354.6523 C 434.175 310.0317 415.3256 268.12006 385.97014 233.97188 L 339.7059 180.1543 C 334.49553 174.09325 328.5459 168.70926 321.9962 164.12825 C 278.71264 133.85477 219.08288 144.40153 188.8094 187.6851 L 142.8808 253.3516 C 126.57165 276.66966 114.66431 302.7737 107.74638 330.37553 L 107.74638 330.37553 Z M 218.3606 279.49354 C 229.52554 290.65843 229.52554 308.7603 218.3606 319.9252 C 207.1957 331.09014 189.09383 331.09014 177.92894 319.9252 C 166.76398 308.7603 166.76398 290.65843 177.92894 279.49354 C 189.09383 268.32858 207.1957 268.32858 218.3606 279.49354 M 345.60175 284.75855 C 358.63444 297.79118 358.63444 318.9212 345.60175 331.95384 C 332.56913 344.98653 311.4391 344.98653 298.40646 331.95384 C 285.37377 318.9212 285.37377 297.79118 298.40646 284.75855 C 311.4391 271.72586 332.56913 271.72586 345.60175 284.75855" stroke="black" stroke-linecap="round" stroke-linejoin="round" stroke-width="10"/>
      </g>
    </g>
  </g>
</svg>
