<?xml version="1.0" encoding="UTF-8" standalone="no"?>
<!DOCTYPE svg PUBLIC "-//W3C//DTD SVG 1.1//EN" "http://www.w3.org/Graphics/SVG/1.1/DTD/svg11.dtd">
<svg xmlns="http://www.w3.org/2000/svg" version="1.1" xmlns:dc="http://purl.org/dc/elements/1.1/" xmlns:xl="http://www.w3.org/1999/xlink" viewBox="0 0 850.394 850.394" width="850.394" height="850.394">
  <defs/>
  <metadata> Produced by OmniGraffle 7.9.4 
    <dc:date>2019-03-11 02:51:18 +0000</dc:date>
  </metadata>
  <g id="pink_noise" fill="none" stroke-opacity="1" fill-opacity="1" stroke-dasharray="none" stroke="none">
    <title>pink noise</title>
    <g id="pink_noise: Layer 1">
      <title>Layer 1</title>
      <g id="Graphic_2">
        <path d="M 671.8742 279.27464 L 624.566 402.5165 L 501.32415 355.2084 L 548.6323 231.96651 Z" fill="fuchsia"/>
        <path d="M 671.8742 279.27464 L 624.566 402.5165 L 501.32415 355.2084 L 548.6323 231.96651 Z" stroke="black" stroke-linecap="round" stroke-linejoin="round" stroke-width="3"/>
      </g>
      <g id="Graphic_3">
        <path d="M 710.6869 527.0234 L 633.0934 633.82164 L 526.2951 556.22816 L 603.8886 449.4299 Z" fill="fuchsia"/>
        <path d="M 710.6869 527.0234 L 633.0934 633.82164 L 526.2951 556.22816 L 603.8886 449.4299 Z" stroke="white" stroke-linecap="round" stroke-linejoin="round" stroke-width="3"/>
      </g>
      <g id="Graphic_4">
        <path d="M 240.5719 388.82856 L 318.1654 282.0303 L 424.96367 359.62377 L 347.37018 466.42205 Z" fill="fuchsia"/>
        <path d="M 240.5719 388.82856 L 318.1654 282.0303 L 424.96367 359.62377 L 347.37018 466.42205 Z" stroke="black" stroke-linecap="round" stroke-linejoin="round" stroke-width="3"/>
      </g>
      <g id="Graphic_5">
        <path d="M 402.29884 239.74244 L 449.60697 116.50056 L 572.84885 163.80869 L 525.5407 287.05057 Z" fill="#7b007c"/>
        <path d="M 402.29884 239.74244 L 449.60697 116.50056 L 572.84885 163.80869 L 525.5407 287.05057 Z" stroke="white" stroke-linecap="round" stroke-linejoin="round" stroke-width="3"/>
      </g>
      <g id="Graphic_6">
        <path d="M 388.9435 132.83984 L 341.63537 256.08172 L 218.3935 208.7736 L 265.7016 85.53171 Z" fill="#7b007c"/>
        <path d="M 388.9435 132.83984 L 341.63537 256.08172 L 218.3935 208.7736 L 265.7016 85.53171 Z" stroke="white" stroke-linecap="round" stroke-linejoin="round" stroke-width="3"/>
      </g>
      <g id="Graphic_7">
        <path d="M 509.2848 478.7915 L 386.04293 431.48337 L 433.35106 308.2415 L 556.59294 355.5496 Z" fill="#7b007c"/>
        <path d="M 509.2848 478.7915 L 386.04293 431.48337 L 433.35106 308.2415 L 556.59294 355.5496 Z" stroke="black" stroke-linecap="round" stroke-linejoin="round" stroke-width="3"/>
      </g>
      <g id="Graphic_8">
        <path d="M 679.8959 330.08228 L 602.3024 436.88055 L 495.50415 359.28706 L 573.09764 252.4888 Z" fill="fuchsia"/>
        <path d="M 679.8959 330.08228 L 602.3024 436.88055 L 495.50415 359.28706 L 573.09764 252.4888 Z" stroke="white" stroke-linecap="round" stroke-linejoin="round" stroke-width="3"/>
      </g>
      <g id="Graphic_9">
        <path d="M 277.40646 607.4147 L 223.7132 486.81765 L 344.31026 433.12437 L 398.00353 553.72144 Z" fill="fuchsia"/>
        <path d="M 277.40646 607.4147 L 223.7132 486.81765 L 344.31026 433.12437 L 398.00353 553.72144 Z" stroke="black" stroke-linecap="round" stroke-linejoin="round" stroke-width="3"/>
      </g>
      <g id="Graphic_10">
        <path d="M 666.7711 522.84294 L 790.013 570.15106 L 742.70485 693.39294 L 619.463 646.0848 Z" fill="#b31fff"/>
        <path d="M 666.7711 522.84294 L 790.013 570.15106 L 742.70485 693.39294 L 619.463 646.0848 Z" stroke="white" stroke-linecap="round" stroke-linejoin="round" stroke-width="3"/>
      </g>
      <g id="Graphic_11">
        <path d="M 562.87454 786.6001 L 439.63265 739.292 L 486.9408 616.0501 L 610.18266 663.35824 Z" fill="fuchsia"/>
        <path d="M 562.87454 786.6001 L 439.63265 739.292 L 486.9408 616.0501 L 610.18266 663.35824 Z" stroke="black" stroke-linecap="round" stroke-linejoin="round" stroke-width="3"/>
      </g>
      <g id="Graphic_12">
        <path d="M 447.6155 641.0785 L 317.23082 661.7294 L 296.5799 531.34474 L 426.9646 510.69384 Z" fill="fuchsia"/>
        <path d="M 447.6155 641.0785 L 317.23082 661.7294 L 296.5799 531.34474 L 426.9646 510.69384 Z" stroke="white" stroke-linecap="round" stroke-linejoin="round" stroke-width="3"/>
      </g>
      <g id="Graphic_13">
        <path d="M 275.71798 452.24875 L 382.51625 529.84223 L 304.92277 636.6405 L 198.1245 559.047 Z" fill="fuchsia"/>
        <path d="M 275.71798 452.24875 L 382.51625 529.84223 L 304.92277 636.6405 L 198.1245 559.047 Z" stroke="black" stroke-linecap="round" stroke-linejoin="round" stroke-width="3"/>
      </g>
      <g id="Graphic_14">
        <path d="M 186.97042 99.69327 L 307.5675 46 L 361.26076 166.59707 L 240.6637 220.29034 Z" fill="#7b007c"/>
        <path d="M 186.97042 99.69327 L 307.5675 46 L 361.26076 166.59707 L 240.6637 220.29034 Z" stroke="white" stroke-linecap="round" stroke-linejoin="round" stroke-width="3"/>
      </g>
      <g id="Graphic_15">
        <path d="M 377.5841 364.9702 L 256.98705 418.6635 L 203.29378 298.06642 L 323.89084 244.37315 Z" fill="fuchsia"/>
        <path d="M 377.5841 364.9702 L 256.98705 418.6635 L 203.29378 298.06642 L 323.89084 244.37315 Z" stroke="black" stroke-linecap="round" stroke-linejoin="round" stroke-width="3"/>
      </g>
      <g id="Graphic_16">
        <path d="M 525.72004 534.9361 L 472.02677 414.33906 L 592.62384 360.6458 L 646.3171 481.24285 Z" fill="#7b007c"/>
        <path d="M 525.72004 534.9361 L 472.02677 414.33906 L 592.62384 360.6458 L 646.3171 481.24285 Z" stroke="black" stroke-linecap="round" stroke-linejoin="round" stroke-width="3"/>
      </g>
      <g id="Graphic_17">
        <path d="M 473.39353 619.2035 L 350.15165 571.89535 L 397.45977 448.65347 L 520.70166 495.9616 Z" fill="#4e054e"/>
        <path d="M 473.39353 619.2035 L 350.15165 571.89535 L 397.45977 448.65347 L 520.70166 495.9616 Z" stroke="white" stroke-linecap="round" stroke-linejoin="round" stroke-width="3"/>
      </g>
      <g id="Graphic_18">
        <path d="M 571.2053 431.58755 L 701.59 410.93665 L 722.2409 541.3213 L 591.8562 561.9722 Z" fill="fuchsia"/>
        <path d="M 571.2053 431.58755 L 701.59 410.93665 L 722.2409 541.3213 L 591.8562 561.9722 Z" stroke="black" stroke-linecap="round" stroke-linejoin="round" stroke-width="3"/>
      </g>
      <g id="Graphic_19">
        <path d="M 297.23184 531.2415 L 427.6165 510.5906 L 448.2674 640.97525 L 317.88274 661.62615 Z" fill="fuchsia"/>
        <path d="M 297.23184 531.2415 L 427.6165 510.5906 L 448.2674 640.97525 L 317.88274 661.62615 Z" stroke="black" stroke-linecap="round" stroke-linejoin="round" stroke-width="3"/>
      </g>
      <g id="Graphic_20">
        <path d="M 568.5976 432.00057 L 698.9823 411.34967 L 719.6332 541.7343 L 589.2485 562.38523 Z" fill="fuchsia"/>
        <path d="M 568.5976 432.00057 L 698.9823 411.34967 L 719.6332 541.7343 L 589.2485 562.38523 Z" stroke="white" stroke-linecap="round" stroke-linejoin="round" stroke-width="3"/>
      </g>
      <g id="Graphic_21">
        <path d="M 610.0421 464.6893 L 541.9847 519.8011 L 486.8729 451.7437 L 554.9303 396.6319 Z" fill="fuchsia"/>
        <path d="M 610.0421 464.6893 L 541.9847 519.8011 L 486.8729 451.7437 L 554.9303 396.6319 Z" stroke="black" stroke-linecap="round" stroke-linejoin="round" stroke-width="3"/>
      </g>
      <g id="Graphic_22">
        <path d="M 386.04293 520.7924 L 317.98554 575.9042 L 262.87375 507.8468 L 330.93114 452.73503 Z" fill="#4e054e"/>
        <path d="M 386.04293 520.7924 L 317.98554 575.9042 L 262.87375 507.8468 L 330.93114 452.73503 Z" stroke="white" stroke-linecap="round" stroke-linejoin="round" stroke-width="3"/>
      </g>
      <g id="Graphic_23">
        <path d="M 207.27557 438.493 L 275.33296 383.3812 L 330.44475 451.4386 L 262.38736 506.5504 Z" fill="fuchsia"/>
        <path d="M 207.27557 438.493 L 275.33296 383.3812 L 330.44475 451.4386 L 262.38736 506.5504 Z" stroke="black" stroke-linecap="round" stroke-linejoin="round" stroke-width="3"/>
      </g>
      <g id="Graphic_24">
        <path d="M 523.74293 398.7832 L 610.23826 385.0837 L 623.9378 471.57903 L 537.44245 485.27854 Z" fill="fuchsia"/>
        <path d="M 523.74293 398.7832 L 610.23826 385.0837 L 623.9378 471.57903 L 537.44245 485.27854 Z" stroke="white" stroke-linecap="round" stroke-linejoin="round" stroke-width="3"/>
      </g>
      <g id="Graphic_25">
        <path d="M 614.4324 314.23525 L 562.958 385.0837 L 492.10953 333.6093 L 543.58395 262.76084 Z" fill="fuchsia"/>
        <path d="M 614.4324 314.23525 L 562.958 385.0837 L 492.10953 333.6093 L 543.58395 262.76084 Z" stroke="white" stroke-linecap="round" stroke-linejoin="round" stroke-width="3"/>
      </g>
      <g id="Graphic_26">
        <path d="M 216.8277 207.73285 L 268.3021 136.8844 L 339.15056 188.3588 L 287.67614 259.20726 Z" fill="#7b007c"/>
        <path d="M 216.8277 207.73285 L 268.3021 136.8844 L 339.15056 188.3588 L 287.67614 259.20726 Z" stroke="black" stroke-linecap="round" stroke-linejoin="round" stroke-width="3"/>
      </g>
      <g id="Graphic_27">
        <path d="M 529.42374 395.407 L 584.5355 463.4644 L 516.47813 518.5762 L 461.36634 450.5188 Z" fill="fuchsia"/>
        <path d="M 529.42374 395.407 L 584.5355 463.4644 L 516.47813 518.5762 L 461.36634 450.5188 Z" stroke="white" stroke-linecap="round" stroke-linejoin="round" stroke-width="3"/>
      </g>
      <g id="Graphic_28">
        <path d="M 254.61328 574.7763 L 240.91377 488.28096 L 327.4091 474.58144 L 341.1086 561.0768 Z" fill="fuchsia"/>
        <path d="M 254.61328 574.7763 L 240.91377 488.28096 L 327.4091 474.58144 L 341.1086 561.0768 Z" stroke="black" stroke-linecap="round" stroke-linejoin="round" stroke-width="3"/>
      </g>
      <g id="Graphic_29">
        <path d="M 370.8624 512.5414 L 384.5619 599.03674 L 298.06658 612.73625 L 284.36706 526.2409 Z" fill="fuchsia"/>
        <path d="M 370.8624 512.5414 L 384.5619 599.03674 L 298.06658 612.73625 L 284.36706 526.2409 Z" stroke="white" stroke-linecap="round" stroke-linejoin="round" stroke-width="3"/>
      </g>
      <g id="Graphic_30">
        <path d="M 210.20532 626.2088 L 196.5058 539.71346 L 283.00113 526.01394 L 296.70065 612.5093 Z" fill="white"/>
        <path d="M 210.20532 626.2088 L 196.5058 539.71346 L 283.00113 526.01394 L 296.70065 612.5093 Z" stroke="black" stroke-linecap="round" stroke-linejoin="round" stroke-width="3"/>
      </g>
      <g id="Graphic_31">
        <path d="M 709.55225 476.6042 L 641.49486 531.716 L 586.3831 463.6586 L 654.44046 408.5468 Z" fill="fuchsia"/>
        <path d="M 709.55225 476.6042 L 641.49486 531.716 L 586.3831 463.6586 L 654.44046 408.5468 Z" stroke="white" stroke-linecap="round" stroke-linejoin="round" stroke-width="3"/>
      </g>
      <g id="Graphic_32">
        <path d="M 641.4806 328.82185 L 696.5924 396.87924 L 628.535 451.99103 L 573.4232 383.93364 Z" fill="fuchsia"/>
        <path d="M 641.4806 328.82185 L 696.5924 396.87924 L 628.535 451.99103 L 573.4232 383.93364 Z" stroke="black" stroke-linecap="round" stroke-linejoin="round" stroke-width="3"/>
      </g>
      <g id="Graphic_33">
        <path d="M 237.19476 256.0296 L 323.6901 242.33007 L 337.3896 328.8254 L 250.89428 342.5249 Z" fill="black"/>
        <path d="M 237.19476 256.0296 L 323.6901 242.33007 L 337.3896 328.8254 L 250.89428 342.5249 Z" stroke="white" stroke-linecap="round" stroke-linejoin="round" stroke-width="3"/>
      </g>
      <g id="Graphic_34">
        <path d="M 350.86213 416.68665 L 264.3668 430.38617 L 250.6673 343.89084 L 337.16262 330.19133 Z" fill="fuchsia"/>
        <path d="M 350.86213 416.68665 L 264.3668 430.38617 L 250.6673 343.89084 L 337.16262 330.19133 Z" stroke="black" stroke-linecap="round" stroke-linejoin="round" stroke-width="3"/>
      </g>
      <g id="Graphic_35">
        <path d="M 573.3399 469.3641 L 559.6404 382.8688 L 646.1357 369.1693 L 659.83524 455.6646 Z" fill="#7b007c"/>
        <path d="M 573.3399 469.3641 L 559.6404 382.8688 L 646.1357 369.1693 L 659.83524 455.6646 Z" stroke="black" stroke-linecap="round" stroke-linejoin="round" stroke-width="3"/>
      </g>
      <g id="Graphic_36">
        <path d="M 210.4793 627.9387 L 196.7798 541.44336 L 283.27513 527.74385 L 296.97464 614.2392 Z" fill="black"/>
        <path d="M 210.4793 627.9387 L 196.7798 541.44336 L 283.27513 527.74385 L 296.97464 614.2392 Z" stroke="white" stroke-linecap="round" stroke-linejoin="round" stroke-width="3"/>
      </g>
      <g id="Graphic_37">
        <path d="M 461.08136 446.9304 L 547.5767 433.2309 L 561.2762 519.72624 L 474.7809 533.42575 Z" fill="fuchsia"/>
        <path d="M 461.08136 446.9304 L 547.5767 433.2309 L 561.2762 519.72624 L 474.7809 533.42575 Z" stroke="black" stroke-linecap="round" stroke-linejoin="round" stroke-width="3"/>
      </g>
      <g id="Graphic_38">
        <path d="M 586.72335 463.38304 L 654.78075 408.27124 L 709.8925 476.32864 L 641.83514 531.4404 Z" fill="fuchsia"/>
        <path d="M 586.72335 463.38304 L 654.78075 408.27124 L 709.8925 476.32864 L 641.83514 531.4404 Z" stroke="black" stroke-linecap="round" stroke-linejoin="round" stroke-width="3"/>
      </g>
      <g id="Graphic_39">
        <path d="M 348.1304 450.8467 L 434.62573 437.1472 L 448.32524 523.6425 L 361.8299 537.342 Z" fill="fuchsia"/>
        <path d="M 348.1304 450.8467 L 434.62573 437.1472 L 448.32524 523.6425 L 361.8299 537.342 Z" stroke="white" stroke-linecap="round" stroke-linejoin="round" stroke-width="3"/>
      </g>
      <g id="Graphic_40">
        <path d="M 436.981 698.4553 L 368.9236 753.5671 L 313.8118 685.5097 L 381.8692 630.3979 Z" fill="#ff45bf"/>
        <path d="M 436.981 698.4553 L 368.9236 753.5671 L 313.8118 685.5097 L 381.8692 630.3979 Z" stroke="black" stroke-linecap="round" stroke-linejoin="round" stroke-width="3"/>
      </g>
      <g id="Graphic_41">
        <path d="M 701.9745 558.2663 L 692.8206 645.36006 L 605.7268 636.2061 L 614.88075 549.1124 Z" fill="#b31fff"/>
        <path d="M 701.9745 558.2663 L 692.8206 645.36006 L 605.7268 636.2061 L 614.88075 549.1124 Z" stroke="white" stroke-linecap="round" stroke-linejoin="round" stroke-width="3"/>
      </g>
      <g id="Graphic_42">
        <path d="M 370.65108 614.1632 L 379.805 527.06945 L 466.89877 536.2234 L 457.74484 623.31714 Z" fill="fuchsia"/>
        <path d="M 370.65108 614.1632 L 379.805 527.06945 L 466.89877 536.2234 L 457.74484 623.31714 Z" stroke="black" stroke-linecap="round" stroke-linejoin="round" stroke-width="3"/>
      </g>
      <g id="Graphic_43">
        <path d="M 314.02792 627.47716 L 382.0853 572.3654 L 437.1971 640.4228 L 369.1397 695.53456 Z" fill="black"/>
        <path d="M 314.02792 627.47716 L 382.0853 572.3654 L 437.1971 640.4228 L 369.1397 695.53456 Z" stroke="white" stroke-linecap="round" stroke-linejoin="round" stroke-width="3"/>
      </g>
      <g id="Graphic_44">
        <path d="M 704.0919 382.09214 L 636.0345 437.20393 L 580.9227 369.14654 L 648.9801 314.03475 Z" fill="fuchsia"/>
        <path d="M 704.0919 382.09214 L 636.0345 437.20393 L 580.9227 369.14654 L 648.9801 314.03475 Z" stroke="white" stroke-linecap="round" stroke-linejoin="round" stroke-width="3"/>
      </g>
      <g id="Graphic_45">
        <path d="M 560.5064 482.4783 L 505.39463 414.4209 L 573.452 359.3091 L 628.5638 427.3665 Z" fill="#4e054e"/>
        <path d="M 560.5064 482.4783 L 505.39463 414.4209 L 573.452 359.3091 L 628.5638 427.3665 Z" stroke="black" stroke-linecap="round" stroke-linejoin="round" stroke-width="3"/>
      </g>
      <g id="Graphic_46">
        <path d="M 231.29792 230.47248 L 222.144 317.56625 L 135.05023 308.41232 L 144.20415 221.31856 Z" fill="black"/>
        <path d="M 231.29792 230.47248 L 222.144 317.56625 L 135.05023 308.41232 L 144.20415 221.31856 Z" stroke="white" stroke-linecap="round" stroke-linejoin="round" stroke-width="3"/>
      </g>
      <g id="Graphic_47">
        <path d="M 273.09698 691.96575 L 282.2509 604.872 L 369.34467 614.0259 L 360.19075 701.1197 Z" fill="#ff45bf"/>
        <path d="M 273.09698 691.96575 L 282.2509 604.872 L 369.34467 614.0259 L 360.19075 701.1197 Z" stroke="black" stroke-linecap="round" stroke-linejoin="round" stroke-width="3"/>
      </g>
      <g id="Graphic_48">
        <path d="M 349.7525 325.5873 L 436.84625 334.74122 L 427.6923 421.835 L 340.59856 412.68107 Z" fill="#b31fff"/>
        <path d="M 349.7525 325.5873 L 436.84625 334.74122 L 427.6923 421.835 L 340.59856 412.68107 Z" stroke="white" stroke-linecap="round" stroke-linejoin="round" stroke-width="3"/>
      </g>
      <g id="Graphic_49">
        <path d="M 219.34082 529.37206 L 132.24705 520.21814 L 141.40097 433.12437 L 228.49474 442.2783 Z" fill="#b31fff"/>
        <path d="M 219.34082 529.37206 L 132.24705 520.21814 L 141.40097 433.12437 L 228.49474 442.2783 Z" stroke="black" stroke-linecap="round" stroke-linejoin="round" stroke-width="3"/>
      </g>
      <g id="Graphic_50">
        <path d="M 580.5724 204.51876 L 571.4185 291.61253 L 484.32473 282.4586 L 493.47866 195.36484 Z" fill="black"/>
        <path d="M 580.5724 204.51876 L 571.4185 291.61253 L 484.32473 282.4586 L 493.47866 195.36484 Z" stroke="white" stroke-linecap="round" stroke-linejoin="round" stroke-width="3"/>
      </g>
      <g id="Graphic_51">
        <path d="M 483.981 548.6937 L 571.0748 557.84764 L 561.92086 644.9414 L 474.8271 635.7875 Z" fill="#ff45bf"/>
        <path d="M 483.981 548.6937 L 571.0748 557.84764 L 561.92086 644.9414 L 474.8271 635.7875 Z" stroke="black" stroke-linecap="round" stroke-linejoin="round" stroke-width="3"/>
      </g>
      <g id="Graphic_52">
        <path d="M 354.29807 521.8823 L 340.59856 435.387 L 427.0939 421.68746 L 440.7934 508.1828 Z" fill="fuchsia"/>
        <path d="M 354.29807 521.8823 L 340.59856 435.387 L 427.0939 421.68746 L 440.7934 508.1828 Z" stroke="white" stroke-linecap="round" stroke-linejoin="round" stroke-width="3"/>
      </g>
      <g id="Graphic_53">
        <path d="M 639.4425 400.0912 L 694.5543 468.14857 L 626.4969 523.26036 L 571.38514 455.20297 Z" fill="fuchsia"/>
        <path d="M 639.4425 400.0912 L 694.5543 468.14857 L 626.4969 523.26036 L 571.38514 455.20297 Z" stroke="black" stroke-linecap="round" stroke-linejoin="round" stroke-width="3"/>
      </g>
      <g id="Graphic_54">
        <path d="M 184.5595 683.9809 L 193.71342 596.88716 L 280.8072 606.0411 L 271.65326 693.13485 Z" fill="#ff45bf"/>
        <path d="M 184.5595 683.9809 L 193.71342 596.88716 L 280.8072 606.0411 L 271.65326 693.13485 Z" stroke="black" stroke-linecap="round" stroke-linejoin="round" stroke-width="3"/>
      </g>
      <g id="Graphic_55">
        <path d="M 759.4132 523.9383 L 672.3194 514.78437 L 681.4733 427.6906 L 768.5671 436.8445 Z" fill="#b31fff"/>
        <path d="M 759.4132 523.9383 L 672.3194 514.78437 L 681.4733 427.6906 L 768.5671 436.8445 Z" stroke="white" stroke-linecap="round" stroke-linejoin="round" stroke-width="3"/>
      </g>
      <g id="Graphic_56">
        <path d="M 556 232.84578 L 565.1539 145.75201 L 652.2477 154.90594 L 643.0938 241.9997 Z" fill="#ff3ddc"/>
        <path d="M 556 232.84578 L 565.1539 145.75201 L 652.2477 154.90594 L 643.0938 241.9997 Z" stroke="black" stroke-linecap="round" stroke-linejoin="round" stroke-width="3"/>
      </g>
      <g id="Graphic_57">
        <path d="M 618.7171 360.01536 L 627.871 272.9216 L 714.9648 282.07552 L 705.8109 369.1693 Z" fill="#b31fff"/>
        <path d="M 618.7171 360.01536 L 627.871 272.9216 L 714.9648 282.07552 L 705.8109 369.1693 Z" stroke="black" stroke-linecap="round" stroke-linejoin="round" stroke-width="3"/>
      </g>
      <g id="Graphic_58">
        <path d="M 633.8701 277.89664 L 643.024 190.80288 L 730.1178 199.9568 L 720.96385 287.05057 Z" fill="black"/>
        <path d="M 633.8701 277.89664 L 643.024 190.80288 L 730.1178 199.9568 L 720.96385 287.05057 Z" stroke="white" stroke-linecap="round" stroke-linejoin="round" stroke-width="3"/>
      </g>
      <g id="Graphic_59">
        <path d="M 536.0982 117.85287 L 484.6238 188.70132 L 413.77536 137.22691 L 465.2498 66.37846 Z" fill="#7b007c"/>
        <path d="M 536.0982 117.85287 L 484.6238 188.70132 L 413.77536 137.22691 L 465.2498 66.37846 Z" stroke="black" stroke-linecap="round" stroke-linejoin="round" stroke-width="3"/>
      </g>
      <g id="Graphic_60">
        <path d="M 401.76824 222.43456 L 350.29382 293.283 L 279.44537 241.8086 L 330.9198 170.96015 Z" fill="#7b007c"/>
        <path d="M 401.76824 222.43456 L 350.29382 293.283 L 279.44537 241.8086 L 330.9198 170.96015 Z" stroke="white" stroke-linecap="round" stroke-linejoin="round" stroke-width="3"/>
      </g>
      <g id="Graphic_61">
        <path d="M 330.83223 222.7729 L 417.32755 209.0734 L 431.02707 295.5687 L 344.53174 309.26823 Z" fill="#4e054e"/>
        <path d="M 330.83223 222.7729 L 417.32755 209.0734 L 431.02707 295.5687 L 344.53174 309.26823 Z" stroke="black" stroke-linecap="round" stroke-linejoin="round" stroke-width="3"/>
      </g>
      <g id="Graphic_62">
        <path d="M 259.20164 118.44794 L 310.67605 47.599486 L 381.5245 99.0739 L 330.0501 169.92235 Z" fill="#7b007c"/>
        <path d="M 259.20164 118.44794 L 310.67605 47.599486 L 381.5245 99.0739 L 330.0501 169.92235 Z" stroke="white" stroke-linecap="round" stroke-linejoin="round" stroke-width="3"/>
      </g>
      <g id="Graphic_63">
        <path d="M 366.14965 238.72392 L 436.9981 290.19833 L 385.5237 361.0468 L 314.67524 309.57237 Z" fill="#7b007c"/>
        <path d="M 366.14965 238.72392 L 436.9981 290.19833 L 385.5237 361.0468 L 314.67524 309.57237 Z" stroke="white" stroke-linecap="round" stroke-linejoin="round" stroke-width="3"/>
      </g>
      <g id="Graphic_64">
        <path d="M 123.10422 466.86603 L 52.25577 415.3916 L 103.73018 344.54317 L 174.57863 396.0176 Z" fill="#7b007c"/>
        <path d="M 123.10422 466.86603 L 52.25577 415.3916 L 103.73018 344.54317 L 174.57863 396.0176 Z" stroke="black" stroke-linecap="round" stroke-linejoin="round" stroke-width="3"/>
      </g>
      <g id="Graphic_65">
        <path d="M 344.09926 309.33673 L 257.60394 323.03624 L 243.90442 236.54091 L 330.39975 222.8414 Z" fill="black"/>
        <path d="M 344.09926 309.33673 L 257.60394 323.03624 L 243.90442 236.54091 L 330.39975 222.8414 Z" stroke="white" stroke-linecap="round" stroke-linejoin="round" stroke-width="3"/>
      </g>
      <g id="Graphic_66">
        <path d="M 208.9703 478.34554 L 195.2708 391.8502 L 281.76612 378.1507 L 295.46564 464.646 Z" fill="#ff45bf"/>
        <path d="M 208.9703 478.34554 L 195.2708 391.8502 L 281.76612 378.1507 L 295.46564 464.646 Z" stroke="black" stroke-linecap="round" stroke-linejoin="round" stroke-width="3"/>
      </g>
      <g id="Graphic_67">
        <path d="M 581.9995 317.7681 L 595.699 404.26342 L 509.20367 417.96294 L 495.50415 331.4676 Z" fill="#7b007c"/>
        <path d="M 581.9995 317.7681 L 595.699 404.26342 L 509.20367 417.96294 L 495.50415 331.4676 Z" stroke="white" stroke-linecap="round" stroke-linejoin="round" stroke-width="3"/>
      </g>
      <g id="Graphic_68">
        <path d="M 339.80664 386.1099 L 326.10713 299.6146 L 412.60246 285.91507 L 426.30197 372.4104 Z" fill="#7b007c"/>
        <path d="M 339.80664 386.1099 L 326.10713 299.6146 L 412.60246 285.91507 L 426.30197 372.4104 Z" stroke="black" stroke-linecap="round" stroke-linejoin="round" stroke-width="3"/>
      </g>
      <g id="Graphic_69">
        <path d="M 323.24273 556.2159 L 236.7474 569.9154 L 223.04789 483.42007 L 309.5432 469.72056 Z" fill="black"/>
        <path d="M 323.24273 556.2159 L 236.7474 569.9154 L 223.04789 483.42007 L 309.5432 469.72056 Z" stroke="white" stroke-linecap="round" stroke-linejoin="round" stroke-width="3"/>
      </g>
      <g id="Graphic_70">
        <path d="M 344.37325 311.06663 L 358.07277 397.56196 L 271.57744 411.26148 L 257.87793 324.76615 Z" fill="fuchsia"/>
        <path d="M 344.37325 311.06663 L 358.07277 397.56196 L 271.57744 411.26148 L 257.87793 324.76615 Z" stroke="black" stroke-linecap="round" stroke-linejoin="round" stroke-width="3"/>
      </g>
      <g id="Graphic_71">
        <path d="M 205.84807 632.91345 L 134.99962 581.439 L 186.47404 510.5906 L 257.3225 562.065 Z" fill="#7b007c"/>
        <path d="M 205.84807 632.91345 L 134.99962 581.439 L 186.47404 510.5906 L 257.3225 562.065 Z" stroke="white" stroke-linecap="round" stroke-linejoin="round" stroke-width="3"/>
      </g>
      <g id="Graphic_72">
        <path d="M 357.25767 317.4151 L 428.1061 368.8895 L 376.6317 439.73795 L 305.78325 388.26354 Z" fill="#7b007c"/>
        <path d="M 357.25767 317.4151 L 428.1061 368.8895 L 376.6317 439.73795 L 305.78325 388.26354 Z" stroke="black" stroke-linecap="round" stroke-linejoin="round" stroke-width="3"/>
      </g>
      <g id="Graphic_73">
        <path d="M 394.55007 564.2506 L 323.70162 512.7762 L 375.17603 441.92775 L 446.0245 493.40216 Z" fill="#7b007c"/>
        <path d="M 394.55007 564.2506 L 323.70162 512.7762 L 375.17603 441.92775 L 446.0245 493.40216 Z" stroke="black" stroke-linecap="round" stroke-linejoin="round" stroke-width="3"/>
      </g>
      <g id="Graphic_74">
        <path d="M 122.69951 439.73795 L 109 353.24263 L 195.49533 339.5431 L 209.19484 426.03844 Z" fill="#7b007c"/>
        <path d="M 122.69951 439.73795 L 109 353.24263 L 195.49533 339.5431 L 209.19484 426.03844 Z" stroke="white" stroke-linecap="round" stroke-linejoin="round" stroke-width="3"/>
      </g>
      <g id="Graphic_75">
        <path d="M 542.0015 376.642 L 628.4968 362.94247 L 642.19635 449.4378 L 555.701 463.1373 Z" fill="#7b007c"/>
        <path d="M 542.0015 376.642 L 628.4968 362.94247 L 642.19635 449.4378 L 555.701 463.1373 Z" stroke="black" stroke-linecap="round" stroke-linejoin="round" stroke-width="3"/>
      </g>
      <g id="Graphic_76">
        <path d="M 593.5722 327.81183 L 680.0675 314.1123 L 693.76705 400.60764 L 607.2717 414.30716 Z" fill="#ff45bf"/>
        <path d="M 593.5722 327.81183 L 680.0675 314.1123 L 693.76705 400.60764 L 607.2717 414.30716 Z" stroke="black" stroke-linecap="round" stroke-linejoin="round" stroke-width="3"/>
      </g>
      <g id="Graphic_77">
        <path d="M 540.2716 376.91597 L 626.7669 363.21646 L 640.46644 449.7118 L 553.9711 463.4113 Z" fill="#7b007c"/>
        <path d="M 540.2716 376.91597 L 626.7669 363.21646 L 640.46644 449.7118 L 553.9711 463.4113 Z" stroke="white" stroke-linecap="round" stroke-linejoin="round" stroke-width="3"/>
      </g>
    </g>
  </g>
</svg>
