<?xml version="1.0" encoding="UTF-8" standalone="no"?>
<!DOCTYPE svg PUBLIC "-//W3C//DTD SVG 1.1//EN" "http://www.w3.org/Graphics/SVG/1.1/DTD/svg11.dtd">
<svg xmlns:dc="http://purl.org/dc/elements/1.1/" version="1.1" xmlns="http://www.w3.org/2000/svg" xmlns:xl="http://www.w3.org/1999/xlink" viewBox="145 177 850.4 850.4" width="850.4" height="850.4">
  <defs>
    <marker orient="auto" overflow="visible" markerUnits="strokeWidth" id="FilledArrow_Marker" stroke-linejoin="miter" stroke-miterlimit="10" viewBox="-1 -2 5 4" markerWidth="5" markerHeight="4" color="black">
      <g>
        <path d="M 2.6666667 0 L 0 -1 L 0 1 Z" fill="currentColor" stroke="currentColor" stroke-width="1"/>
      </g>
    </marker>
  </defs>
  <metadata> Produced by OmniGraffle 7.9.4 
    <dc:date>2019-10-13 10:21:54 +0000</dc:date>
  </metadata>
  <g id="pitch_bend" stroke-dasharray="none" stroke-opacity="1" fill="none" fill-opacity="1" stroke="none">
    <title>pitch bend</title>
    <g id="pitch_bend: Layer 1">
      <title>Layer 1</title>
      <g id="Line_31">
        <path d="M 435.86865 688.7082 C 435.86865 688.7082 463.1143 652.92975 474.1089 617.375 C 485.10344 581.82025 474.67686 563.2083 474.67686 563.2083" stroke="#a5a5a5" stroke-linecap="round" stroke-linejoin="round" stroke-dasharray="20.0,20.0" stroke-width="5"/>
      </g>
      <g id="Line_32">
        <path d="M 525.97595 676.3602 C 525.97595 676.3602 515.3289 660.2978 573.7083 611.125 C 632.0878 561.95216 732.0417 502.79167 732.0417 502.79167" stroke="#a5a5a5" stroke-linecap="round" stroke-linejoin="round" stroke-dasharray="20.0,20.0" stroke-width="5"/>
      </g>
      <g id="Line_33">
        <path d="M 598.0322 689.568 C 598.0322 689.568 641.9669 639.2281 704.9583 579.875 C 767.9497 520.5219 820.377 480.0656 820.377 480.0656" stroke="#a5a5a5" stroke-linecap="round" stroke-linejoin="round" stroke-dasharray="20.0,20.0" stroke-width="5"/>
      </g>
      <g id="Graphic_11">
        <rect x="343.49118" y="420.06963" width="64.382445" height="49.00772" fill="lime"/>
        <rect x="343.49118" y="420.06963" width="64.382445" height="49.00772" stroke="black" stroke-linecap="round" stroke-linejoin="round" stroke-width="6"/>
      </g>
      <g id="Graphic_12">
        <rect x="203.87362" y="492.8635" width="136.25175" height="49.00772" fill="red"/>
        <rect x="203.87362" y="492.8635" width="136.25175" height="49.00772" stroke="black" stroke-linecap="round" stroke-linejoin="round" stroke-width="6"/>
      </g>
      <g id="Graphic_13">
        <rect x="409.72644" y="358" width="64.382445" height="49.00772" fill="#ff40ff"/>
        <rect x="409.72644" y="358" width="64.382445" height="49.00772" stroke="black" stroke-linecap="round" stroke-linejoin="round" stroke-width="6"/>
      </g>
      <g id="Graphic_14">
        <path d="M 474.67686 496.9923 L 692 434 L 897 359 L 899 407 L 697 480 L 474.67686 546 Z" fill="red"/>
        <path d="M 474.67686 496.9923 L 692 434 L 897 359 L 899 407 L 697 480 L 474.67686 546 Z" stroke="black" stroke-linecap="round" stroke-linejoin="round" stroke-width="6"/>
      </g>
      <g id="Graphic_27">
        <path d="M 289.65408 846.6879 C 290.19864 846.9472 290.7373 847.2293 291.26893 847.5346 C 300.65314 852.9234 304.85976 863.8131 302.16585 873.7735 L 639.2065 783.4637 C 631.8933 776.1847 630.0915 764.6507 635.52406 755.2917 C 635.9129 754.6219 636.3299 753.9784 636.7728 753.3619 C 625.7632 743.1514 610.6737 734.7367 591.698 728.8407 C 591.1939 730.4044 590.51565 731.9391 589.6564 733.4194 C 583.1713 744.5917 568.8328 748.43365 557.63044 742.0007 C 549.7194 737.4578 545.48796 729.0057 545.9683 720.4965 C 531.58346 719.4302 516.6646 719.60015 501.5704 720.9102 C 501.4718 724.6815 500.4519 728.48475 498.42075 731.984 C 491.9357 743.1563 477.5972 746.9983 466.3948 740.5653 C 461.37583 737.6832 457.8379 733.2276 456.04454 728.18225 C 439.2402 732.0785 422.6641 737.27 406.81207 743.6239 C 407.2202 748.2416 406.2544 753.029 403.74487 757.3523 C 397.2598 768.5246 382.9213 772.3666 371.7189 765.9336 C 370.1319 765.0223 368.69296 763.9536 367.41043 762.7587 C 356.4276 769.152 346.13427 776.17 336.759 783.7515 C 343.198 791.0558 344.57522 801.9246 339.40832 810.8259 C 332.92325 821.9982 318.58475 825.8402 307.38237 819.4072 C 306.3383 818.8077 305.3583 818.14 304.44478 817.4131 C 297.486 827.2466 292.5752 837.0774 289.65408 846.6879 Z" fill="#666"/>
        <path d="M 289.65408 846.6879 C 290.19864 846.9472 290.7373 847.2293 291.26893 847.5346 C 300.65314 852.9234 304.85976 863.8131 302.16585 873.7735 L 639.2065 783.4637 C 631.8933 776.1847 630.0915 764.6507 635.52406 755.2917 C 635.9129 754.6219 636.3299 753.9784 636.7728 753.3619 C 625.7632 743.1514 610.6737 734.7367 591.698 728.8407 C 591.1939 730.4044 590.51565 731.9391 589.6564 733.4194 C 583.1713 744.5917 568.8328 748.43365 557.63044 742.0007 C 549.7194 737.4578 545.48796 729.0057 545.9683 720.4965 C 531.58346 719.4302 516.6646 719.60015 501.5704 720.9102 C 501.4718 724.6815 500.4519 728.48475 498.42075 731.984 C 491.9357 743.1563 477.5972 746.9983 466.3948 740.5653 C 461.37583 737.6832 457.8379 733.2276 456.04454 728.18225 C 439.2402 732.0785 422.6641 737.27 406.81207 743.6239 C 407.2202 748.2416 406.2544 753.029 403.74487 757.3523 C 397.2598 768.5246 382.9213 772.3666 371.7189 765.9336 C 370.1319 765.0223 368.69296 763.9536 367.41043 762.7587 C 356.4276 769.152 346.13427 776.17 336.759 783.7515 C 343.198 791.0558 344.57522 801.9246 339.40832 810.8259 C 332.92325 821.9982 318.58475 825.8402 307.38237 819.4072 C 306.3383 818.8077 305.3583 818.14 304.44478 817.4131 C 297.486 827.2466 292.5752 837.0774 289.65408 846.6879 Z" stroke="black" stroke-linecap="round" stroke-linejoin="round" stroke-width="6"/>
      </g>
      <g id="Line_28">
        <path d="M 427.875 692.375 C 427.875 692.375 448.78215 680.0235 492.45833 677.7917 C 536.1345 675.5598 541.3166 674.6927 582.0417 684.4971 C 596.9159 688.078 608.15056 692.7652 616.4201 697.2728" marker-end="url(#FilledArrow_Marker)" stroke="black" stroke-linecap="round" stroke-linejoin="round" stroke-width="6"/>
      </g>
      <g id="Line_29">
        <path d="M 474.67686 563.2083 C 474.67686 563.2083 630.7984 527.58085 732.0417 502.79167 C 833.2849 478.0025 790.1361 491.054 832.0417 475.70833 C 844.1059 471.29045 853.1951 467.1716 860.0224 463.5458" marker-end="url(#FilledArrow_Marker)" stroke="black" stroke-linecap="round" stroke-linejoin="round" stroke-width="6"/>
      </g>
      <g id="Group_34">
        <g id="Graphic_36">
          <path d="M 502.4796 724.0938 L 488.9633 714.00206 L 462.85673 710.2883 L 442.933 704.0521 L 418.7045 694.0745 L 382.64406 680.97814 L 418.6925 671.0087 L 435.44085 657.586 L 426.6524 642.5842 L 407.04947 645.6434 L 389.19835 649.634 L 370.1167 649.5998 L 340.6924 647.7532 L 320.23286 655.2726 L 306.13285 660.8478 L 283.66636 672.1418 L 269.69628 673.9188 L 243.10798 670.8261 L 219.85457 665.1418 L 193.93034 730.1341 L 196.58488 769.8754 L 228.70046 767.6528 L 247.4017 768.5733 L 271.99844 771.4843 L 300.7563 783.8702 L 319.4041 795.2379 L 339.70528 801.6748 L 360.6568 805.7949 L 370.30873 801.377 L 376.47247 784.4282 L 388.4606 779.1826 L 393.2972 765.2419 L 395.95616 757.6661 L 407.1775 746.8282 L 404.63957 724.1319 L 427.75215 729.8714 L 455.722 735.5442 L 474.5852 738.31155 L 488.91904 738.6706 L 499.92766 734.3567 Z" fill="#ad7526"/>
          <path d="M 502.4796 724.0938 L 488.9633 714.00206 L 462.85673 710.2883 L 442.933 704.0521 L 418.7045 694.0745 L 382.64406 680.97814 L 418.6925 671.0087 L 435.44085 657.586 L 426.6524 642.5842 L 407.04947 645.6434 L 389.19835 649.634 L 370.1167 649.5998 L 340.6924 647.7532 L 320.23286 655.2726 L 306.13285 660.8478 L 283.66636 672.1418 L 269.69628 673.9188 L 243.10798 670.8261 L 219.85457 665.1418 L 193.93034 730.1341 L 196.58488 769.8754 L 228.70046 767.6528 L 247.4017 768.5733 L 271.99844 771.4843 L 300.7563 783.8702 L 319.4041 795.2379 L 339.70528 801.6748 L 360.6568 805.7949 L 370.30873 801.377 L 376.47247 784.4282 L 388.4606 779.1826 L 393.2972 765.2419 L 395.95616 757.6661 L 407.1775 746.8282 L 404.63957 724.1319 L 427.75215 729.8714 L 455.722 735.5442 L 474.5852 738.31155 L 488.91904 738.6706 L 499.92766 734.3567 Z" stroke="black" stroke-linecap="round" stroke-linejoin="round" stroke-width="6"/>
        </g>
        <g id="Graphic_35">
          <path d="M 214.83685 757.5216 C 203.16492 776.5529 191.96174 773.9664 189.81384 751.7446 C 187.66587 729.5229 195.38656 696.0809 207.0585 677.0498 C 218.73042 658.01854 229.9336 660.605 232.0815 682.8268 C 234.22947 705.0485 226.50878 738.4905 214.83685 757.5216" fill="black"/>
          <path d="M 214.83685 757.5216 C 203.16492 776.5529 191.96174 773.9664 189.81384 751.7446 C 187.66587 729.5229 195.38656 696.0809 207.0585 677.0498 C 218.73042 658.01854 229.9336 660.605 232.0815 682.8268 C 234.22947 705.0485 226.50878 738.4905 214.83685 757.5216" stroke="black" stroke-linecap="round" stroke-linejoin="round" stroke-width="7"/>
        </g>
      </g>
    </g>
  </g>
</svg>
