<?xml version="1.0" encoding="UTF-8" standalone="no"?>
<!DOCTYPE svg PUBLIC "-//W3C//DTD SVG 1.1//EN" "http://www.w3.org/Graphics/SVG/1.1/DTD/svg11.dtd">
<svg xmlns="http://www.w3.org/2000/svg" version="1.1" xmlns:dc="http://purl.org/dc/elements/1.1/" xmlns:xl="http://www.w3.org/1999/xlink" viewBox="0 0 850.394 850.394" width="850.394" height="850.394">
  <defs/>
  <metadata> Produced by OmniGraffle 7.9.4 
    <dc:date>2019-03-11 12:23:48 +0000</dc:date>
  </metadata>
  <g id="play" fill="none" stroke-opacity="1" fill-opacity="1" stroke-dasharray="none" stroke="none">
    <title>play</title>
    <g id="play: Layer 1">
      <title>Layer 1</title>
      <g id="Graphic_28">
        <path d="M 113 35 L 837 397 L 113 759 Z" fill="lime"/>
        <path d="M 113 35 L 837 397 L 113 759 Z" stroke="black" stroke-linecap="round" stroke-linejoin="round" stroke-width="12"/>
      </g>
      <g id="Graphic_18">
        <path d="M 491 694.8076 L 503.4077 674.5283 C 503.4077 674.5283 515.75665 661.47544 515.8237 661.2252 C 515.89077 660.9749 526.1969 653.5439 526.1969 653.5439 L 527.58103 668.3989 C 527.58103 668.3989 531.2582 677.69924 530.21644 683.5893 C 529.17465 689.47935 535.62265 698.4492 535.62265 698.4492 C 535.62265 698.4492 543.3903 692.4837 543.6585 691.4827 C 543.92674 690.4817 545.37086 683.0901 546.67605 680.2211 C 547.98125 677.3521 553.1122 671.2166 554.1803 671.2346 C 555.24837 671.2525 563.86014 671.146 564.04334 671.4633 C 564.22654 671.78065 566.3136 670.99875 565.8263 673.81865 C 565.3389 676.63855 566.2668 696.1994 566.13266 696.69996 C 565.99855 697.2005 558.9541 712.4794 567.6737 705.9643 C 576.39325 699.4493 577.9487 696.64734 577.9487 696.64734 C 577.9487 696.64734 578.56666 682.3287 580.81064 675.9561 C 583.0546 669.5835 598.7994 663.87796 599.04966 663.945 C 599.2999 664.0121 606.6065 666.77454 606.72264 667.3421 C 606.8388 667.9097 607.44934 687.6538 606.5776 690.9071 C 605.7059 694.1605 606.0399 707.9295 605.2172 712.0007 C 604.3946 716.0719 607.1474 716.8095 608.14845 717.0777 C 609.1495 717.346 616.2023 709.0432 616.4525 709.1102 C 616.7028 709.1773 620.962 706.2951 621.21226 706.3622 C 621.4625 706.42925 630.0563 707.3908 630.0563 707.3908 L 633.04145 709.2636 L 630.3377 709.3438 L 624.58176 707.8015 C 624.58176 707.8015 620.5237 709.9329 620.2735 709.8658 C 620.0232 709.79876 616.1795 714.13335 616.1795 714.13335 L 611.70115 718.8344 L 605.3417 719.5444 C 605.3417 719.5444 601.07416 715.4504 601.1412 715.20015 C 601.2083 714.9499 603.5062 705.373 603.5062 705.373 L 603.27035 693.2397 C 603.27035 693.2397 603.262 686.2636 603.1459 685.696 C 603.0297 685.1284 603.14234 674.6978 603.2094 674.4475 C 603.27645 674.1973 601.078 670.3895 600.8948 670.0722 C 600.7116 669.75486 596.0058 669.2986 596.0058 669.2986 L 588.7926 672.1939 L 584.31426 676.8949 L 582.9061 682.1503 C 582.9061 682.1503 582.7803 689.627 583.03055 689.694 C 583.2808 689.7611 580.6656 699.52114 580.6656 699.52114 C 580.6656 699.52114 579.2263 702.89065 578.6587 703.0068 C 578.09116 703.1229 572.2274 707.9892 572.16035 708.2394 C 572.0933 708.4897 566.1314 711.7203 565.8811 711.6532 C 565.63086 711.58615 562.878 710.8485 562.878 710.8485 L 558.9589 708.4573 L 560.5731 698.429 C 560.5731 698.429 561.34664 693.54 561.4137 693.2897 C 561.48075 693.03945 561.0749 683.5428 561.0749 683.5428 L 560.23556 673.66176 L 556.7451 675.677 C 556.7451 675.677 552.1147 681.9466 551.8644 681.8795 C 551.61416 681.8125 549.33906 686.29915 549.272 686.5494 C 549.20494 686.7997 546.9921 695.0582 546.9921 695.0582 L 543.3986 699.45985 L 536.85116 703.87466 L 531.6939 704.1021 C 531.6939 704.1021 529.61645 696.8398 529.11594 696.7057 C 528.6154 696.5716 525.1705 688.40644 525.1705 688.40644 L 523.50855 682.5966 L 523.8846 675.187 L 522.12444 667.7415 L 523.93497 660.98455 L 519.82784 662.2981 C 519.82784 662.2981 517.91914 667.4194 517.6018 667.6026 C 517.2845 667.7858 511.0675 674.9714 510.81725 674.9044 C 510.567 674.8373 491 694.8076 491 694.8076 Z" fill="black"/>
        <path d="M 491 694.8076 L 503.4077 674.5283 C 503.4077 674.5283 515.75665 661.47544 515.8237 661.2252 C 515.89077 660.9749 526.1969 653.5439 526.1969 653.5439 L 527.58103 668.3989 C 527.58103 668.3989 531.2582 677.69924 530.21644 683.5893 C 529.17465 689.47935 535.62265 698.4492 535.62265 698.4492 C 535.62265 698.4492 543.3903 692.4837 543.6585 691.4827 C 543.92674 690.4817 545.37086 683.0901 546.67605 680.2211 C 547.98125 677.3521 553.1122 671.2166 554.1803 671.2346 C 555.24837 671.2525 563.86014 671.146 564.04334 671.4633 C 564.22654 671.78065 566.3136 670.99875 565.8263 673.81865 C 565.3389 676.63855 566.2668 696.1994 566.13266 696.69996 C 565.99855 697.2005 558.9541 712.4794 567.6737 705.9643 C 576.39325 699.4493 577.9487 696.64734 577.9487 696.64734 C 577.9487 696.64734 578.56666 682.3287 580.81064 675.9561 C 583.0546 669.5835 598.7994 663.87796 599.04966 663.945 C 599.2999 664.0121 606.6065 666.77454 606.72264 667.3421 C 606.8388 667.9097 607.44934 687.6538 606.5776 690.9071 C 605.7059 694.1605 606.0399 707.9295 605.2172 712.0007 C 604.3946 716.0719 607.1474 716.8095 608.14845 717.0777 C 609.1495 717.346 616.2023 709.0432 616.4525 709.1102 C 616.7028 709.1773 620.962 706.2951 621.21226 706.3622 C 621.4625 706.42925 630.0563 707.3908 630.0563 707.3908 L 633.04145 709.2636 L 630.3377 709.3438 L 624.58176 707.8015 C 624.58176 707.8015 620.5237 709.9329 620.2735 709.8658 C 620.0232 709.79876 616.1795 714.13335 616.1795 714.13335 L 611.70115 718.8344 L 605.3417 719.5444 C 605.3417 719.5444 601.07416 715.4504 601.1412 715.20015 C 601.2083 714.9499 603.5062 705.373 603.5062 705.373 L 603.27035 693.2397 C 603.27035 693.2397 603.262 686.2636 603.1459 685.696 C 603.0297 685.1284 603.14234 674.6978 603.2094 674.4475 C 603.27645 674.1973 601.078 670.3895 600.8948 670.0722 C 600.7116 669.75486 596.0058 669.2986 596.0058 669.2986 L 588.7926 672.1939 L 584.31426 676.8949 L 582.9061 682.1503 C 582.9061 682.1503 582.7803 689.627 583.03055 689.694 C 583.2808 689.7611 580.6656 699.52114 580.6656 699.52114 C 580.6656 699.52114 579.2263 702.89065 578.6587 703.0068 C 578.09116 703.1229 572.2274 707.9892 572.16035 708.2394 C 572.0933 708.4897 566.1314 711.7203 565.8811 711.6532 C 565.63086 711.58615 562.878 710.8485 562.878 710.8485 L 558.9589 708.4573 L 560.5731 698.429 C 560.5731 698.429 561.34664 693.54 561.4137 693.2897 C 561.48075 693.03945 561.0749 683.5428 561.0749 683.5428 L 560.23556 673.66176 L 556.7451 675.677 C 556.7451 675.677 552.1147 681.9466 551.8644 681.8795 C 551.61416 681.8125 549.33906 686.29915 549.272 686.5494 C 549.20494 686.7997 546.9921 695.0582 546.9921 695.0582 L 543.3986 699.45985 L 536.85116 703.87466 L 531.6939 704.1021 C 531.6939 704.1021 529.61645 696.8398 529.11594 696.7057 C 528.6154 696.5716 525.1705 688.40644 525.1705 688.40644 L 523.50855 682.5966 L 523.8846 675.187 L 522.12444 667.7415 L 523.93497 660.98455 L 519.82784 662.2981 C 519.82784 662.2981 517.91914 667.4194 517.6018 667.6026 C 517.2845 667.7858 511.0675 674.9714 510.81725 674.9044 C 510.567 674.8373 491 694.8076 491 694.8076 Z" stroke="black" stroke-linecap="round" stroke-linejoin="round" stroke-width="5"/>
      </g>
      <g id="Graphic_16">
        <rect x="43" y="248" width="168.68584" height="91.93778" fill="#ffff40"/>
        <rect x="43" y="248" width="168.68584" height="91.93778" stroke="black" stroke-linecap="round" stroke-linejoin="round" stroke-width="6"/>
      </g>
      <g id="Graphic_15">
        <path d="M 61.58742 319.1672 L 68.32367 296.3676 C 68.32367 296.3676 76.87352 280.56333 76.87352 280.30424 C 76.87352 280.04516 84.9052 270.19987 84.9052 270.19987 L 90.08692 284.19054 C 90.08692 284.19054 96.04591 292.22222 96.56408 298.1812 C 97.08226 304.1402 105.63211 311.13552 105.63211 311.13552 C 105.63211 311.13552 111.5911 303.36293 111.5911 302.3266 C 111.5911 301.29024 111.07292 293.77674 111.5911 290.6677 C 112.10927 287.55866 115.47739 280.30424 116.51373 280.04516 C 117.55008 279.78607 125.84084 277.4543 126.09993 277.71338 C 126.35902 277.97247 128.17262 276.67703 128.43171 279.527 C 128.6908 282.37693 134.64978 301.03115 134.64978 301.54933 C 134.64978 302.0675 131.79983 318.64903 138.53608 310.09918 C 145.27232 301.54933 146.04958 298.4403 146.04958 298.4403 C 146.04958 298.4403 142.94055 284.44963 143.45872 277.71338 C 143.9769 270.97713 157.70847 261.39094 157.96756 261.39094 C 158.22664 261.39094 165.99924 262.1682 166.25832 262.68637 C 166.5174 263.20454 172.2173 282.11785 172.2173 285.48597 C 172.2173 288.8541 176.1036 302.0675 176.3627 306.2129 C 176.62178 310.35826 179.47173 310.35826 180.50807 310.35826 C 181.54442 310.35826 186.20797 300.513 186.46706 300.513 C 186.72615 300.513 190.09427 296.6267 190.35336 296.6267 C 190.61244 296.6267 199.1623 295.33125 199.1623 295.33125 L 202.53042 296.3676 L 199.93955 297.14486 L 193.98057 297.14486 C 193.98057 297.14486 190.61244 300.2539 190.35336 300.2539 C 190.09427 300.2539 187.5034 305.43562 187.5034 305.43562 L 184.39437 311.13552 L 178.43538 313.4673 C 178.43538 313.4673 173.25365 310.61735 173.25365 310.35826 C 173.25365 310.09918 172.99457 300.2539 172.99457 300.2539 L 169.62644 288.595 C 169.62644 288.595 167.81284 281.85876 167.55375 281.3406 C 167.29467 280.8224 164.7038 270.71805 164.7038 270.45896 C 164.7038 270.19987 161.59477 267.09084 161.33568 266.83175 C 161.0766 266.57267 156.41304 267.34992 156.41304 267.34992 L 150.19497 272.01348 L 147.08593 277.71338 L 147.08593 283.1542 C 147.08593 283.1542 148.89953 290.4086 149.15862 290.4086 C 149.4177 290.4086 149.4177 300.513 149.4177 300.513 C 149.4177 300.513 148.89953 304.1402 148.38136 304.39928 C 147.86319 304.65836 143.45872 310.87644 143.45872 311.13552 C 143.45872 311.3946 138.53608 316.05817 138.27699 316.05817 C 138.0179 316.05817 135.16795 316.05817 135.16795 316.05817 L 130.76349 314.76273 L 129.72714 304.65836 C 129.72714 304.65836 129.20897 299.73572 129.20897 299.47664 C 129.20897 299.21755 126.35902 290.14953 126.35902 290.14953 L 122.9909 280.8224 L 120.14094 283.67237 C 120.14094 283.67237 117.291 290.9268 117.03191 290.9268 C 116.77282 290.9268 115.73648 295.84943 115.73648 296.1085 C 115.73648 296.3676 115.73648 304.91745 115.73648 304.91745 L 113.4047 310.09918 L 108.22297 316.05817 L 103.30033 317.6127 C 103.30033 317.6127 99.41403 311.13552 98.89586 311.13552 C 98.37769 311.13552 92.93687 304.1402 92.93687 304.1402 L 89.82784 298.95846 L 88.27332 291.70404 L 84.64611 284.9678 L 84.64611 277.97247 L 81.0189 280.30424 C 81.0189 280.30424 80.50073 285.74506 80.24164 286.00414 C 79.98255 286.26323 75.83717 294.81308 75.57809 294.81308 C 75.319 294.81308 61.58742 319.1672 61.58742 319.1672 Z" fill="black"/>
        <path d="M 61.58742 319.1672 L 68.32367 296.3676 C 68.32367 296.3676 76.87352 280.56333 76.87352 280.30424 C 76.87352 280.04516 84.9052 270.19987 84.9052 270.19987 L 90.08692 284.19054 C 90.08692 284.19054 96.04591 292.22222 96.56408 298.1812 C 97.08226 304.1402 105.63211 311.13552 105.63211 311.13552 C 105.63211 311.13552 111.5911 303.36293 111.5911 302.3266 C 111.5911 301.29024 111.07292 293.77674 111.5911 290.6677 C 112.10927 287.55866 115.47739 280.30424 116.51373 280.04516 C 117.55008 279.78607 125.84084 277.4543 126.09993 277.71338 C 126.35902 277.97247 128.17262 276.67703 128.43171 279.527 C 128.6908 282.37693 134.64978 301.03115 134.64978 301.54933 C 134.64978 302.0675 131.79983 318.64903 138.53608 310.09918 C 145.27232 301.54933 146.04958 298.4403 146.04958 298.4403 C 146.04958 298.4403 142.94055 284.44963 143.45872 277.71338 C 143.9769 270.97713 157.70847 261.39094 157.96756 261.39094 C 158.22664 261.39094 165.99924 262.1682 166.25832 262.68637 C 166.5174 263.20454 172.2173 282.11785 172.2173 285.48597 C 172.2173 288.8541 176.1036 302.0675 176.3627 306.2129 C 176.62178 310.35826 179.47173 310.35826 180.50807 310.35826 C 181.54442 310.35826 186.20797 300.513 186.46706 300.513 C 186.72615 300.513 190.09427 296.6267 190.35336 296.6267 C 190.61244 296.6267 199.1623 295.33125 199.1623 295.33125 L 202.53042 296.3676 L 199.93955 297.14486 L 193.98057 297.14486 C 193.98057 297.14486 190.61244 300.2539 190.35336 300.2539 C 190.09427 300.2539 187.5034 305.43562 187.5034 305.43562 L 184.39437 311.13552 L 178.43538 313.4673 C 178.43538 313.4673 173.25365 310.61735 173.25365 310.35826 C 173.25365 310.09918 172.99457 300.2539 172.99457 300.2539 L 169.62644 288.595 C 169.62644 288.595 167.81284 281.85876 167.55375 281.3406 C 167.29467 280.8224 164.7038 270.71805 164.7038 270.45896 C 164.7038 270.19987 161.59477 267.09084 161.33568 266.83175 C 161.0766 266.57267 156.41304 267.34992 156.41304 267.34992 L 150.19497 272.01348 L 147.08593 277.71338 L 147.08593 283.1542 C 147.08593 283.1542 148.89953 290.4086 149.15862 290.4086 C 149.4177 290.4086 149.4177 300.513 149.4177 300.513 C 149.4177 300.513 148.89953 304.1402 148.38136 304.39928 C 147.86319 304.65836 143.45872 310.87644 143.45872 311.13552 C 143.45872 311.3946 138.53608 316.05817 138.27699 316.05817 C 138.0179 316.05817 135.16795 316.05817 135.16795 316.05817 L 130.76349 314.76273 L 129.72714 304.65836 C 129.72714 304.65836 129.20897 299.73572 129.20897 299.47664 C 129.20897 299.21755 126.35902 290.14953 126.35902 290.14953 L 122.9909 280.8224 L 120.14094 283.67237 C 120.14094 283.67237 117.291 290.9268 117.03191 290.9268 C 116.77282 290.9268 115.73648 295.84943 115.73648 296.1085 C 115.73648 296.3676 115.73648 304.91745 115.73648 304.91745 L 113.4047 310.09918 L 108.22297 316.05817 L 103.30033 317.6127 C 103.30033 317.6127 99.41403 311.13552 98.89586 311.13552 C 98.37769 311.13552 92.93687 304.1402 92.93687 304.1402 L 89.82784 298.95846 L 88.27332 291.70404 L 84.64611 284.9678 L 84.64611 277.97247 L 81.0189 280.30424 C 81.0189 280.30424 80.50073 285.74506 80.24164 286.00414 C 79.98255 286.26323 75.83717 294.81308 75.57809 294.81308 C 75.319 294.81308 61.58742 319.1672 61.58742 319.1672 Z" stroke="black" stroke-linecap="round" stroke-linejoin="round" stroke-width="5"/>
      </g>
      <g id="Graphic_25">
        <path d="M 271.66625 541.9843 L 396.26734 508.59755 L 473.0854 743.9602 L 322.48353 784.3139 Z" fill="#666"/>
        <path d="M 271.66625 541.9843 L 396.26734 508.59755 L 473.0854 743.9602 L 322.48353 784.3139 Z" stroke="black" stroke-linecap="round" stroke-linejoin="round" stroke-width="16"/>
      </g>
      <g id="Graphic_24">
        <circle cx="377.55456" cy="682.9692" r="54.395998637125" fill="#ccc"/>
        <circle cx="377.55456" cy="682.9692" r="54.395998637125" stroke="black" stroke-linecap="round" stroke-linejoin="round" stroke-width="13"/>
      </g>
      <g id="Graphic_23">
        <circle cx="377.90727" cy="684.2855" r="23.0725897881123" fill="#999"/>
        <circle cx="377.90727" cy="684.2855" r="23.0725897881123" stroke="black" stroke-linecap="round" stroke-linejoin="round" stroke-width="12"/>
      </g>
      <g id="Graphic_22">
        <circle cx="350.2525" cy="581.07656" r="29.8376739005358" fill="#ccc"/>
        <circle cx="350.2525" cy="581.07656" r="29.8376739005358" stroke="black" stroke-linecap="round" stroke-linejoin="round" stroke-width="14"/>
      </g>
      <g id="Graphic_21">
        <circle cx="350.446" cy="581.7986" r="12.6559384400873" fill="#a5a5a5"/>
        <circle cx="350.446" cy="581.7986" r="12.6559384400873" stroke="black" stroke-linecap="round" stroke-linejoin="round" stroke-width="9"/>
      </g>
      <g id="Line_27">
        <path d="M 277.70395 609.7549 L 104.37054 540.91976 C 77.68138 530.3208 58.11465 507.0065 52.306 478.8834 L 52.306 478.8834 C 46.323103 449.9167 51.48411 419.7591 66.758855 394.4303 L 97.81183 342.93778" stroke="black" stroke-linecap="round" stroke-linejoin="round" stroke-width="10"/>
      </g>
    </g>
  </g>
</svg>
