<?xml version="1.0" encoding="UTF-8" standalone="no"?>
<!DOCTYPE svg PUBLIC "-//W3C//DTD SVG 1.1//EN" "http://www.w3.org/Graphics/SVG/1.1/DTD/svg11.dtd">
<svg xmlns:dc="http://purl.org/dc/elements/1.1/" version="1.1" xmlns="http://www.w3.org/2000/svg" xmlns:xl="http://www.w3.org/1999/xlink" viewBox="145 177 850.4 850.4" width="850.4" height="850.4">
  <defs/>
  <metadata> Produced by OmniGraffle 7.9.4 
    <dc:date>2019-10-13 10:12:26 +0000</dc:date>
  </metadata>
  <g id="polyphonic" stroke-dasharray="none" stroke-opacity="1" fill="none" fill-opacity="1" stroke="none">
    <title>polyphonic</title>
    <g id="polyphonic: Layer 1">
      <title>Layer 1</title>
      <g id="Graphic_6">
        <rect x="343.49118" y="387.06963" width="223.03523" height="49.00772" fill="lime"/>
        <rect x="343.49118" y="387.06963" width="223.03523" height="49.00772" stroke="black" stroke-linecap="round" stroke-linejoin="round" stroke-width="6"/>
      </g>
      <g id="Graphic_5">
        <rect x="203.87362" y="459.8635" width="136.25175" height="49.00772" fill="red"/>
        <rect x="203.87362" y="459.8635" width="136.25175" height="49.00772" stroke="black" stroke-linecap="round" stroke-linejoin="round" stroke-width="6"/>
      </g>
      <g id="Graphic_4">
        <rect x="409.72644" y="325" width="300.39893" height="49.00772" fill="#ff40ff"/>
        <rect x="409.72644" y="325" width="300.39893" height="49.00772" stroke="black" stroke-linecap="round" stroke-linejoin="round" stroke-width="6"/>
      </g>
      <g id="Graphic_3">
        <rect x="474.67686" y="463.9923" width="91.84955" height="49.00772" fill="red"/>
        <rect x="474.67686" y="463.9923" width="91.84955" height="49.00772" stroke="black" stroke-linecap="round" stroke-linejoin="round" stroke-width="6"/>
      </g>
      <g id="Graphic_7">
        <rect x="713.4912" y="387.06963" width="223.03523" height="49.00772" fill="lime"/>
        <rect x="713.4912" y="387.06963" width="223.03523" height="49.00772" stroke="black" stroke-linecap="round" stroke-linejoin="round" stroke-width="6"/>
      </g>
      <g id="Graphic_8">
        <rect x="573.8736" y="463.5672" width="136.25175" height="49.00772" fill="red"/>
        <rect x="573.8736" y="463.5672" width="136.25175" height="49.00772" stroke="black" stroke-linecap="round" stroke-linejoin="round" stroke-width="6"/>
      </g>
      <g id="Graphic_9">
        <rect x="779.7264" y="325" width="156.79997" height="49.00772" fill="#ff40ff"/>
        <rect x="779.7264" y="325" width="156.79997" height="49.00772" stroke="black" stroke-linecap="round" stroke-linejoin="round" stroke-width="6"/>
      </g>
      <g id="Graphic_10">
        <rect x="844.6769" y="463.9923" width="91.84955" height="49.00772" fill="red"/>
        <rect x="844.6769" y="463.9923" width="91.84955" height="49.00772" stroke="black" stroke-linecap="round" stroke-linejoin="round" stroke-width="6"/>
      </g>
      <g id="Graphic_11">
        <rect x="343.49118" y="749.0696" width="64.382445" height="49.00772" fill="#999"/>
        <path d="M 343.49118 749.0696 L 407.8736 749.0696 L 407.8736 798.07735 L 343.49118 798.07735 Z" stroke="#a5a5a5" stroke-linecap="round" stroke-linejoin="round" stroke-dasharray="6.0,24.0" stroke-width="6"/>
      </g>
      <g id="Graphic_12">
        <rect x="203.87362" y="821.8635" width="136.25175" height="49.00772" fill="#999"/>
        <path d="M 203.87362 821.8635 L 340.12537 821.8635 L 340.12537 870.8712 L 203.87362 870.8712 Z" stroke="#a5a5a5" stroke-linecap="round" stroke-linejoin="round" stroke-dasharray="6.0,24.0" stroke-width="6"/>
      </g>
      <g id="Graphic_13">
        <rect x="409.72644" y="687" width="64.382445" height="49.00772" fill="#999"/>
        <path d="M 409.72644 687 L 474.1089 687 L 474.1089 736.0077 L 409.72644 736.0077 Z" stroke="#a5a5a5" stroke-linecap="round" stroke-linejoin="round" stroke-dasharray="6.0,24.0" stroke-width="6"/>
      </g>
      <g id="Graphic_14">
        <rect x="474.67686" y="825.9923" width="91.84955" height="49.00772" fill="#999"/>
        <path d="M 474.67686 825.9923 L 566.5264 825.9923 L 566.5264 875 L 474.67686 875 Z" stroke="#a5a5a5" stroke-linecap="round" stroke-linejoin="round" stroke-dasharray="6.0,24.0" stroke-width="6"/>
      </g>
      <g id="Graphic_15">
        <rect x="713.4912" y="749.0696" width="64.382445" height="49.00772" fill="#999"/>
        <path d="M 713.4912 749.0696 L 777.8736 749.0696 L 777.8736 798.07735 L 713.4912 798.07735 Z" stroke="#a5a5a5" stroke-linecap="round" stroke-linejoin="round" stroke-dasharray="6.0,24.0" stroke-width="6"/>
      </g>
      <g id="Graphic_16">
        <rect x="573.8736" y="825.5672" width="136.25175" height="49.00772" fill="#999"/>
        <path d="M 573.8736 825.5672 L 710.1254 825.5672 L 710.1254 874.5749 L 573.8736 874.5749 Z" stroke="#a5a5a5" stroke-linecap="round" stroke-linejoin="round" stroke-dasharray="6.0,24.0" stroke-width="6"/>
      </g>
      <g id="Graphic_17">
        <rect x="779.7264" y="687" width="64.382445" height="49.00772" fill="#999"/>
        <path d="M 779.7264 687 L 844.1089 687 L 844.1089 736.0077 L 779.7264 736.0077 Z" stroke="#a5a5a5" stroke-linecap="round" stroke-linejoin="round" stroke-dasharray="6.0,24.0" stroke-width="6"/>
      </g>
      <g id="Graphic_18">
        <rect x="844.6769" y="825.9923" width="91.84955" height="49.00772" fill="#999"/>
        <path d="M 844.6769 825.9923 L 936.5264 825.9923 L 936.5264 875 L 844.6769 875 Z" stroke="#a5a5a5" stroke-linecap="round" stroke-linejoin="round" stroke-dasharray="6.0,24.0" stroke-width="6"/>
      </g>
    </g>
  </g>
</svg>
