<?xml version="1.0" encoding="UTF-8" standalone="no"?>
<!DOCTYPE svg PUBLIC "-//W3C//DTD SVG 1.1//EN" "http://www.w3.org/Graphics/SVG/1.1/DTD/svg11.dtd">
<svg version="1.1" xmlns="http://www.w3.org/2000/svg" xmlns:xl="http://www.w3.org/1999/xlink" xmlns:dc="http://purl.org/dc/elements/1.1/" viewBox="0 0 850.394 850.394" width="850.394" height="850.394">
  <defs/>
  <metadata> Produced by OmniGraffle 7.9.4 
    <dc:date>2019-03-18 13:41:02 +0000</dc:date>
  </metadata>
  <g id="pot" stroke-opacity="1" fill-opacity="1" stroke="none" stroke-dasharray="none" fill="none">
    <title>pot</title>
    <g id="pot: Layer 2">
      <title>Layer 2</title>
      <g id="Graphic_34">
        <path d="M 296.81084 220.4536 L 171.94704 493.79955 L 516.81563 705.6086 L 696.5986 451.27117 Z M 417.06 532.3736 C 411.69894 547.49614 395.01685 555.6325 379.7995 550.54674 C 364.58215 545.46103 356.5921 529.07904 361.95327 513.9565 C 367.31434 498.83396 383.99643 490.69757 399.21377 495.78336 C 414.43113 500.86907 422.42116 517.25106 417.06 532.3736 Z M 282.18 457.6865 C 276.35135 474.12803 258.21426 482.9741 241.66968 477.4447 C 225.12507 471.91543 216.43815 454.1046 222.2669 437.6631 C 228.09556 421.2216 246.23264 412.37554 262.77722 417.9049 C 279.32184 423.4342 288.00875 441.245 282.18 457.6865 Z M 545.4364 601.8387 C 539.60775 618.2802 521.4707 627.1263 504.9261 621.5969 C 488.3815 616.0676 479.69456 598.2568 485.5233 581.8153 C 491.35197 565.3738 509.48905 556.5277 526.03363 562.0571 C 542.57824 567.5864 551.26516 585.3972 545.4364 601.8387 Z" fill="red"/>
        <path d="M 296.81084 220.4536 L 171.94704 493.79955 L 516.81563 705.6086 L 696.5986 451.27117 Z M 417.06 532.3736 C 411.69894 547.49614 395.01685 555.6325 379.7995 550.54674 C 364.58215 545.46103 356.5921 529.07904 361.95327 513.9565 C 367.31434 498.83396 383.99643 490.69757 399.21377 495.78336 C 414.43113 500.86907 422.42116 517.25106 417.06 532.3736 Z M 282.18 457.6865 C 276.35135 474.12803 258.21426 482.9741 241.66968 477.4447 C 225.12507 471.91543 216.43815 454.1046 222.2669 437.6631 C 228.09556 421.2216 246.23264 412.37554 262.77722 417.9049 C 279.32184 423.4342 288.00875 441.245 282.18 457.6865 Z M 545.4364 601.8387 C 539.60775 618.2802 521.4707 627.1263 504.9261 621.5969 C 488.3815 616.0676 479.69456 598.2568 485.5233 581.8153 C 491.35197 565.3738 509.48905 556.5277 526.03363 562.0571 C 542.57824 567.5864 551.26516 585.3972 545.4364 601.8387 Z" stroke="black" stroke-linecap="round" stroke-linejoin="round" stroke-width="7"/>
      </g>
      <g id="Graphic_33">
        <path d="M 261.58723 320.83747 L 185.52455 484.2953 L 522.24663 685.24235 L 619.0445 527.2155 Z M 409.1494 526.7366 C 405.60937 536.7224 394.5938 542.0951 384.5454 538.7368 C 374.497 535.3786 369.22098 524.56114 372.76108 514.57537 C 376.30113 504.5896 387.3167 499.2169 397.3651 502.5752 C 407.4135 505.9334 412.6895 516.75084 409.1494 526.7366 Z M 271.46217 451.94623 C 267.92212 461.932 256.90653 467.3047 246.85814 463.9464 C 236.80974 460.5882 231.53373 449.77076 235.07383 439.785 C 238.61388 429.7992 249.62947 424.4265 259.67785 427.7848 C 269.72625 431.143 275.00227 441.96045 271.46217 451.94623 Z M 536.8526 599.7428 C 533.31256 609.72856 522.297 615.1012 512.2486 611.74296 C 502.2002 608.3847 496.92417 597.5673 500.46427 587.5815 C 504.0043 577.5957 515.0199 572.2231 525.0683 575.58134 C 535.1167 578.93956 540.3927 589.757 536.8526 599.7428 Z" fill="#ff9e47"/>
        <path d="M 261.58723 320.83747 L 185.52455 484.2953 L 522.24663 685.24235 L 619.0445 527.2155 Z M 409.1494 526.7366 C 405.60937 536.7224 394.5938 542.0951 384.5454 538.7368 C 374.497 535.3786 369.22098 524.56114 372.76108 514.57537 C 376.30113 504.5896 387.3167 499.2169 397.3651 502.5752 C 407.4135 505.9334 412.6895 516.75084 409.1494 526.7366 Z M 271.46217 451.94623 C 267.92212 461.932 256.90653 467.3047 246.85814 463.9464 C 236.80974 460.5882 231.53373 449.77076 235.07383 439.785 C 238.61388 429.7992 249.62947 424.4265 259.67785 427.7848 C 269.72625 431.143 275.00227 441.96045 271.46217 451.94623 Z M 536.8526 599.7428 C 533.31256 609.72856 522.297 615.1012 512.2486 611.74296 C 502.2002 608.3847 496.92417 597.5673 500.46427 587.5815 C 504.0043 577.5957 515.0199 572.2231 525.0683 575.58134 C 535.1167 578.93956 540.3927 589.757 536.8526 599.7428 Z" stroke="black" stroke-linecap="round" stroke-linejoin="round" stroke-width="4"/>
      </g>
      <g id="Graphic_4">
        <path d="M 700.4328 318.15717 C 752.3704 418.5535 702.9389 504.1714 590.0243 509.3902 C 477.11 514.6095 343.4716 437.45337 291.5345 337.05703 C 239.59682 236.6607 289.02834 151.0428 401.94294 145.82399 C 514.8573 140.60467 648.4957 217.76083 700.4328 318.15717" fill="#666"/>
        <path d="M 700.4328 318.15717 C 752.3704 418.5535 702.9389 504.1714 590.0243 509.3902 C 477.11 514.6095 343.4716 437.45337 291.5345 337.05703 C 239.59682 236.6607 289.02834 151.0428 401.94294 145.82399 C 514.8573 140.60467 648.4957 217.76083 700.4328 318.15717" stroke="black" stroke-linecap="round" stroke-linejoin="round" stroke-width="7"/>
      </g>
      <g id="Graphic_39">
        <path d="M 280.9217 457.7763 C 286.75045 441.3348 278.06353 423.524 261.51892 417.9947 C 244.97434 412.46535 226.83726 421.3114 221.0086 437.7529 C 215.17985 454.1944 223.86677 472.00524 240.41138 477.5345 C 256.95596 483.0639 275.09304 474.21784 280.9217 457.7763 M 269.15932 453.84524 C 265.61927 463.83103 254.60368 469.2037 244.5553 465.8454 C 234.5069 462.4872 229.23088 451.66977 232.77098 441.684 C 236.31103 431.6982 247.32662 426.32554 257.375 429.6838 C 267.4234 433.04203 272.69942 443.85947 269.15932 453.84524" fill="#999"/>
        <path d="M 280.9217 457.7763 C 286.75045 441.3348 278.06353 423.524 261.51892 417.9947 C 244.97434 412.46535 226.83726 421.3114 221.0086 437.7529 C 215.17985 454.1944 223.86677 472.00524 240.41138 477.5345 C 256.95596 483.0639 275.09304 474.21784 280.9217 457.7763 M 269.15932 453.84524 C 265.61927 463.83103 254.60368 469.2037 244.5553 465.8454 C 234.5069 462.4872 229.23088 451.66977 232.77098 441.684 C 236.31103 431.6982 247.32662 426.32554 257.375 429.6838 C 267.4234 433.04203 272.69942 443.85947 269.15932 453.84524" stroke="black" stroke-linecap="round" stroke-linejoin="round" stroke-width="2"/>
      </g>
      <g id="Graphic_37">
        <path d="M 281.70353 456.9239 C 276.11646 472.68393 258.73115 481.1633 242.87234 475.86314 C 227.0135 470.56304 218.68664 453.49047 224.2738 437.73047 C 229.86086 421.97044 247.24616 413.49105 263.10498 418.79123 C 278.96383 424.0913 287.29068 441.1639 281.70353 456.9239 M 221.27146 486.1748 L 211.21316 482.1303 L 158.95335 605.7417 L 133.65996 686.9456 L 167.66707 665.6647 L 209.50495 589.0691 L 265.5161 514.52236 L 247.31633 496.665 C 270.0318 498.92176 292.3481 485.4671 300.26746 463.1281 C 309.46665 437.1794 295.75656 409.06953 269.6451 400.34297 C 243.5337 391.61627 214.90892 405.5775 205.70986 431.52627 C 198.495 451.87765 205.37198 473.5584 221.27146 486.1748 Z" fill="#999"/>
        <path d="M 281.70353 456.9239 C 276.11646 472.68393 258.73115 481.1633 242.87234 475.86314 C 227.0135 470.56304 218.68664 453.49047 224.2738 437.73047 C 229.86086 421.97044 247.24616 413.49105 263.10498 418.79123 C 278.96383 424.0913 287.29068 441.1639 281.70353 456.9239 M 221.27146 486.1748 L 211.21316 482.1303 L 158.95335 605.7417 L 133.65996 686.9456 L 167.66707 665.6647 L 209.50495 589.0691 L 265.5161 514.52236 L 247.31633 496.665 C 270.0318 498.92176 292.3481 485.4671 300.26746 463.1281 C 309.46665 437.1794 295.75656 409.06953 269.6451 400.34297 C 243.5337 391.61627 214.90892 405.5775 205.70986 431.52627 C 198.495 451.87765 205.37198 473.5584 221.27146 486.1748 Z" stroke="black" stroke-linecap="round" stroke-linejoin="round" stroke-width="7"/>
      </g>
      <g id="Graphic_18">
        <path d="M 647.6829 304.5974 C 683.51966 373.87035 649.41215 432.9463 571.50164 436.54724 C 493.5913 440.14854 401.3815 386.91118 365.54514 317.6382 C 329.7084 248.36523 363.8159 189.2893 441.7264 185.68835 C 519.63675 182.08704 611.8466 235.3244 647.6829 304.5974" fill="#999"/>
        <path d="M 647.6829 304.5974 C 683.51966 373.87035 649.41215 432.9463 571.50164 436.54724 C 493.5913 440.14854 401.3815 386.91118 365.54514 317.6382 C 329.7084 248.36523 363.8159 189.2893 441.7264 185.68835 C 519.63675 182.08704 611.8466 235.3244 647.6829 304.5974" stroke="black" stroke-linecap="round" stroke-linejoin="round" stroke-width="7"/>
      </g>
      <g id="Graphic_14">
        <path d="M 430.4293 297.79443 L 550.2541 52.23454 C 560.0896 35.198978 604.9466 42.66255 650.3813 68.8943 C 695.816 95.12605 749.816 71.25288 739.9805 88.28844 L 613.1729 293.55583 C 603.3374 310.5914 524.7883 380.4929 479.35355 354.26117 C 433.91883 328.02942 420.5938 314.83 430.4293 297.79443 Z" fill="#ccc"/>
        <path d="M 430.4293 297.79443 L 550.2541 52.23454 C 560.0896 35.198978 604.9466 42.66255 650.3813 68.8943 C 695.816 95.12605 749.816 71.25288 739.9805 88.28844 L 613.1729 293.55583 C 603.3374 310.5914 524.7883 380.4929 479.35355 354.26117 C 433.91883 328.02942 420.5938 314.83 430.4293 297.79443 Z" stroke="black" stroke-linecap="round" stroke-linejoin="round" stroke-width="7"/>
      </g>
      <g id="Graphic_13">
        <ellipse cx="641.8812" cy="74.90504" rx="101.801283314254" ry="65.2208778893549" fill="#ccc"/>
        <ellipse cx="641.8812" cy="74.90504" rx="101.801283314254" ry="65.2208778893549" stroke="black" stroke-linecap="round" stroke-linejoin="round" stroke-width="7"/>
      </g>
      <g id="Graphic_16">
        <path d="M 559.26936 107.2229 L 592.19305 126.23141 L 465.2434 346.11467 L 432.3197 327.10616 Z" fill="black"/>
      </g>
      <g id="Graphic_17">
        <path d="M 705.7365 25.403288 L 722.8528 39.204907 L 574.0249 145.07757 L 555.59387 111.82715 Z" fill="black"/>
      </g>
      <g id="Graphic_35">
        <path d="M 421.4684 528.07346 C 427.29716 511.63196 418.61025 493.82114 402.06563 488.29186 C 385.52105 482.7625 367.38397 491.60854 361.5553 508.05006 C 355.72656 524.49156 364.41348 542.3024 380.9581 547.83167 C 397.50267 553.361 415.63976 544.515 421.4684 528.07346 M 409.70603 524.1424 C 406.166 534.1282 395.1504 539.50084 385.102 536.1426 C 375.0536 532.78435 369.7776 521.9669 373.3177 511.98114 C 376.85774 501.99534 387.87333 496.6227 397.9217 499.98095 C 407.9701 503.3392 413.24613 514.1566 409.70603 524.1424" fill="#999"/>
        <path d="M 421.4684 528.07346 C 427.29716 511.63196 418.61025 493.82114 402.06563 488.29186 C 385.52105 482.7625 367.38397 491.60854 361.5553 508.05006 C 355.72656 524.49156 364.41348 542.3024 380.9581 547.83167 C 397.50267 553.361 415.63976 544.515 421.4684 528.07346 M 409.70603 524.1424 C 406.166 534.1282 395.1504 539.50084 385.102 536.1426 C 375.0536 532.78435 369.7776 521.9669 373.3177 511.98114 C 376.85774 501.99534 387.87333 496.6227 397.9217 499.98095 C 407.9701 503.3392 413.24613 514.1566 409.70603 524.1424" stroke="black" stroke-linecap="round" stroke-linejoin="round" stroke-width="2"/>
      </g>
      <g id="Graphic_38">
        <path d="M 415.65766 527.9912 C 410.0706 543.7512 392.6853 552.2306 376.82647 546.9304 C 360.9676 541.6303 352.64077 524.55775 358.2279 508.79774 C 363.815 493.0377 381.2003 484.5583 397.0591 489.8585 C 412.91796 495.1586 421.2448 512.23117 415.65766 527.9912 M 355.2256 557.24206 L 345.1673 553.1976 L 292.90748 676.80895 L 267.6141 758.0129 L 301.6212 736.7319 L 343.4591 660.1364 L 399.47023 585.58964 L 381.27046 567.7323 C 403.98594 569.989 426.30223 556.53435 434.2216 534.1954 C 443.4208 508.24665 429.7107 480.1368 403.59923 471.41024 C 377.4878 462.68354 348.86305 476.6448 339.664 502.59354 C 332.44913 522.9449 339.3261 544.62566 355.2256 557.24206 Z" fill="#999"/>
        <path d="M 415.65766 527.9912 C 410.0706 543.7512 392.6853 552.2306 376.82647 546.9304 C 360.9676 541.6303 352.64077 524.55775 358.2279 508.79774 C 363.815 493.0377 381.2003 484.5583 397.0591 489.8585 C 412.91796 495.1586 421.2448 512.23117 415.65766 527.9912 M 355.2256 557.24206 L 345.1673 553.1976 L 292.90748 676.80895 L 267.6141 758.0129 L 301.6212 736.7319 L 343.4591 660.1364 L 399.47023 585.58964 L 381.27046 567.7323 C 403.98594 569.989 426.30223 556.53435 434.2216 534.1954 C 443.4208 508.24665 429.7107 480.1368 403.59923 471.41024 C 377.4878 462.68354 348.86305 476.6448 339.664 502.59354 C 332.44913 522.9449 339.3261 544.62566 355.2256 557.24206 Z" stroke="black" stroke-linecap="round" stroke-linejoin="round" stroke-width="7"/>
      </g>
      <g id="Graphic_40">
        <path d="M 546.11446 604.61425 C 551.9432 588.17275 543.2563 570.3619 526.7117 564.83264 C 510.1671 559.3033 492.03 568.1493 486.20135 584.59085 C 480.3726 601.03235 489.0595 618.8432 505.60414 624.37245 C 522.1487 629.9018 540.2858 621.0558 546.11446 604.61425 M 534.3521 600.6832 C 530.812 610.669 519.79644 616.0416 509.74806 612.68336 C 499.69965 609.32514 494.42364 598.5077 497.96374 588.5219 C 501.5038 578.5361 512.5194 573.1635 522.56776 576.52174 C 532.61616 579.87996 537.8922 590.6974 534.3521 600.6832" fill="#999"/>
        <path d="M 546.11446 604.61425 C 551.9432 588.17275 543.2563 570.3619 526.7117 564.83264 C 510.1671 559.3033 492.03 568.1493 486.20135 584.59085 C 480.3726 601.03235 489.0595 618.8432 505.60414 624.37245 C 522.1487 629.9018 540.2858 621.0558 546.11446 604.61425 M 534.3521 600.6832 C 530.812 610.669 519.79644 616.0416 509.74806 612.68336 C 499.69965 609.32514 494.42364 598.5077 497.96374 588.5219 C 501.5038 578.5361 512.5194 573.1635 522.56776 576.52174 C 532.61616 579.87996 537.8922 590.6974 534.3521 600.6832" stroke="black" stroke-linecap="round" stroke-linejoin="round" stroke-width="2"/>
      </g>
      <g id="Graphic_41">
        <path d="M 546.8963 603.7618 C 541.3092 619.5219 523.9239 628.00125 508.0651 622.7011 C 492.20625 617.401 483.8794 600.3284 489.46655 584.5684 C 495.0536 568.80837 512.4389 560.329 528.29774 565.62916 C 544.1566 570.92926 552.48344 588.0018 546.8963 603.7618 M 486.4642 633.0127 L 476.4059 628.9682 L 424.1461 752.5796 L 398.8527 833.7836 L 432.85983 812.5026 L 474.6977 735.9071 L 530.70886 661.3603 L 512.5091 643.5029 C 535.2246 645.7597 557.54086 632.305 565.4602 609.966 C 574.6594 584.0173 560.9493 555.90746 534.83786 547.1809 C 508.72645 538.4542 480.1017 552.4154 470.9026 578.3642 C 463.68776 598.7156 470.56474 620.3963 486.4642 633.0127 Z" fill="#999"/>
        <path d="M 546.8963 603.7618 C 541.3092 619.5219 523.9239 628.00125 508.0651 622.7011 C 492.20625 617.401 483.8794 600.3284 489.46655 584.5684 C 495.0536 568.80837 512.4389 560.329 528.29774 565.62916 C 544.1566 570.92926 552.48344 588.0018 546.8963 603.7618 M 486.4642 633.0127 L 476.4059 628.9682 L 424.1461 752.5796 L 398.8527 833.7836 L 432.85983 812.5026 L 474.6977 735.9071 L 530.70886 661.3603 L 512.5091 643.5029 C 535.2246 645.7597 557.54086 632.305 565.4602 609.966 C 574.6594 584.0173 560.9493 555.90746 534.83786 547.1809 C 508.72645 538.4542 480.1017 552.4154 470.9026 578.3642 C 463.68776 598.7156 470.56474 620.3963 486.4642 633.0127 Z" stroke="black" stroke-linecap="round" stroke-linejoin="round" stroke-width="7"/>
      </g>
    </g>
  </g>
</svg>
