<?xml version="1.0" encoding="UTF-8" standalone="no"?>
<!DOCTYPE svg PUBLIC "-//W3C//DTD SVG 1.1//EN" "http://www.w3.org/Graphics/SVG/1.1/DTD/svg11.dtd">
<svg version="1.1" xmlns="http://www.w3.org/2000/svg" xmlns:xl="http://www.w3.org/1999/xlink" xmlns:dc="http://purl.org/dc/elements/1.1/" viewBox="0 0 850.394 850.394" width="850.394" height="850.394">
  <defs/>
  <metadata> Produced by OmniGraffle 7.9.4 
    <dc:date>2019-10-05 07:19:38 +0000</dc:date>
  </metadata>
  <g id="press" fill-opacity="1" stroke="none" stroke-dasharray="none" stroke-opacity="1" fill="none">
    <title>press</title>
    <g id="press: Layer 1">
      <title>Layer 1</title>
      <g id="Graphic_10">
        <path d="M 510.07744 553 L 399.5658 616.6977 C 399.5658 616.6977 358.12395 650.4651 367.33326 650.4651 C 376.54256 650.4651 619.0542 701.8837 619.0542 701.8837 L 741.8449 622.0698 L 750.2867 569.1163 Z" fill="#999"/>
        <path d="M 510.07744 553 L 399.5658 616.6977 C 399.5658 616.6977 358.12395 650.4651 367.33326 650.4651 C 376.54256 650.4651 619.0542 701.8837 619.0542 701.8837 L 741.8449 622.0698 L 750.2867 569.1163 Z" stroke="black" stroke-linecap="round" stroke-linejoin="round" stroke-width="5"/>
      </g>
      <g id="Graphic_9">
        <path d="M 368.86814 649.6977 L 366.5658 694.2093 L 602.9379 817 L 619.8216 703.4186 Z" fill="#666"/>
        <path d="M 368.86814 649.6977 L 366.5658 694.2093 L 602.9379 817 L 619.8216 703.4186 Z" stroke="black" stroke-linecap="round" stroke-linejoin="round" stroke-width="5"/>
      </g>
      <g id="Graphic_8">
        <path d="M 618.28674 700.3488 L 740.31 622.0698 L 749.903 570.26744 L 751.8216 685.76744 C 751.8216 685.76744 688.8914 764.81395 688.8914 765.5814 C 688.8914 766.3488 604.4728 817 604.4728 817 Z" fill="#666"/>
        <path d="M 618.28674 700.3488 L 740.31 622.0698 L 749.903 570.26744 L 751.8216 685.76744 C 751.8216 685.76744 688.8914 764.81395 688.8914 765.5814 C 688.8914 766.3488 604.4728 817 604.4728 817 Z" stroke="black" stroke-linecap="round" stroke-linejoin="round" stroke-width="5"/>
      </g>
      <g id="Line_7">
        <line x1="741.8449" y1="621.3023" x2="749.7929" y2="683.4553" stroke="black" stroke-linecap="round" stroke-linejoin="round" stroke-width="5"/>
      </g>
      <g id="Group_4">
        <g id="Graphic_3">
          <path d="M 610.1869 638.34775 L 607.9184 598.4448 L 574.89826 545.4035 L 555.8731 499.74266 L 537.0825 440.57024 L 505.9324 355.17204 L 578.9302 405.41873 L 628.8014 415.3751 L 642.6457 376.5753 L 607.2374 345.6539 L 572.8065 319.3307 L 543.8068 284.64412 L 502.3447 228.42455 L 457.536 202.7414 L 425.94203 185.64002 L 371.22576 162.06277 L 346.72355 139.4126 L 311.84243 86.44279 L 286.74428 35.57898 L 129.29578 87.5094 L 61.205415 152.85457 L 114.15241 207.76142 L 140.96396 243.10743 L 173.14171 292.1857 L 194.4594 363.2472 L 202.22728 414.4074 L 221.46303 461.059 L 245.8944 505.3625 L 268.61327 516.15283 L 308.764 501.527 L 336.54333 515.29716 L 369.21285 502.8439 L 387.01316 496.13196 L 423.77504 499.99304 L 461.1051 460.81956 L 485.88857 511.5118 L 518.1907 570.9188 L 541.89686 609.3716 L 563.0759 635.9353 L 587.6724 649.3465 Z" fill="#ad7526"/>
          <path d="M 610.1869 638.34775 L 607.9184 598.4448 L 574.89826 545.4035 L 555.8731 499.74266 L 537.0825 440.57024 L 505.9324 355.17204 L 578.9302 405.41873 L 628.8014 415.3751 L 642.6457 376.5753 L 607.2374 345.6539 L 572.8065 319.3307 L 543.8068 284.64412 L 502.3447 228.42455 L 457.536 202.7414 L 425.94203 185.64002 L 371.22576 162.06277 L 346.72355 139.4126 L 311.84243 86.44279 L 286.74428 35.57898 L 129.29578 87.5094 L 61.205415 152.85457 L 114.15241 207.76142 L 140.96396 243.10743 L 173.14171 292.1857 L 194.4594 363.2472 L 202.22728 414.4074 L 221.46303 461.059 L 245.8944 505.3625 L 268.61327 516.15283 L 308.764 501.527 L 336.54333 515.29716 L 369.21285 502.8439 L 387.01316 496.13196 L 423.77504 499.99304 L 461.1051 460.81956 L 485.88857 511.5118 L 518.1907 570.9188 L 541.89686 609.3716 L 563.0759 635.9353 L 587.6724 649.3465 Z" stroke="black" stroke-linecap="round" stroke-linejoin="round" stroke-width="6"/>
        </g>
        <g id="Graphic_2">
          <path d="M 111.42659 167.168 C 59.10699 174.96768 46.738886 150.69391 83.80165 112.951 C 120.86414 75.20814 193.32243 38.288793 245.64184 30.489307 C 297.96144 22.68963 310.32954 46.963394 273.26678 84.7063 C 236.2043 122.44917 163.746 159.36852 111.42659 167.168" fill="black"/>
          <path d="M 111.42659 167.168 C 59.10699 174.96768 46.738886 150.69391 83.80165 112.951 C 120.86414 75.20814 193.32243 38.288793 245.64184 30.489307 C 297.96144 22.68963 310.32954 46.963394 273.26678 84.7063 C 236.2043 122.44917 163.746 159.36852 111.42659 167.168" stroke="black" stroke-linecap="round" stroke-linejoin="round" stroke-width="7"/>
        </g>
      </g>
    </g>
  </g>
</svg>
