<?xml version="1.0" encoding="UTF-8" standalone="no"?>
<!DOCTYPE svg PUBLIC "-//W3C//DTD SVG 1.1//EN" "http://www.w3.org/Graphics/SVG/1.1/DTD/svg11.dtd">
<svg xmlns="http://www.w3.org/2000/svg" xmlns:xl="http://www.w3.org/1999/xlink" xmlns:dc="http://purl.org/dc/elements/1.1/" version="1.1" viewBox="0 0 850.394 850.394" width="850.394" height="850.394">
  <defs/>
  <metadata> Produced by OmniGraffle 7.9.4 
    <dc:date>2019-08-26 19:57:06 +0000</dc:date>
  </metadata>
  <g id="Pressure_pad" stroke="none" fill="none" fill-opacity="1" stroke-opacity="1" stroke-dasharray="none">
    <title>Pressure pad</title>
    <g id="Pressure_pad: Layer 1">
      <title>Layer 1</title>
      <g id="Line_5">
        <path d="M 169 569 L 147.38643 626.1488 C 146.5398 628.38735 145.9641 630.7192 145.6716 633.09455 L 134.79731 721.40075 C 133.69474 730.3544 128.62148 738.33655 120.98289 743.1361 L 54.29669 785.0367 C 52.72846 786.0221 51.25485 787.1505 49.894733 788.4077 L 7.4592725 827.6296 L 7.4592725 827.6296" stroke="black" stroke-linecap="round" stroke-linejoin="round" stroke-width="4"/>
      </g>
      <g id="Line_6">
        <path d="M 181.54073 571 L 159.92716 628.1488 C 159.08054 630.38735 158.50483 632.7192 158.21232 635.09455 L 147.33804 723.40075 C 146.23546 732.3544 141.16221 740.33655 133.52362 745.1361 L 66.83742 787.0367 C 65.26919 788.0221 63.79558 789.1505 62.43546 790.4077 L 20 829.6296 L 20 829.6296" stroke="#b1001c" stroke-linecap="round" stroke-linejoin="round" stroke-width="4"/>
      </g>
      <g id="Graphic_4">
        <path d="M 121.56295 550.9388 C 117.47503 546.70874 114.97077 541.5827 114.67632 535.9642 L 111.92053 483.38064 C 111.08657 467.4677 128.29458 453.63046 150.3557 452.4743 L 755.5252 420.7587 C 777.5863 419.6025 796.1464 431.56524 796.9804 447.47817 L 799.7362 500.06175 C 800.5701 515.9747 783.3621 529.8119 761.301 530.9681 L 363.6968 551.80566 C 360.0998 564.43694 345.04654 574.4521 326.53175 575.42244 L 161.75787 584.0579 C 139.97252 585.1996 121.6444 573.3864 120.82086 557.6724 C 120.70036 555.373 120.96132 553.11754 121.56296 550.93876 Z" fill="#333"/>
        <path d="M 121.56295 550.9388 C 117.47503 546.70874 114.97077 541.5827 114.67632 535.9642 L 111.92053 483.38064 C 111.08657 467.4677 128.29458 453.63046 150.3557 452.4743 L 755.5252 420.7587 C 777.5863 419.6025 796.1464 431.56524 796.9804 447.47817 L 799.7362 500.06175 C 800.5701 515.9747 783.3621 529.8119 761.301 530.9681 L 363.6968 551.80566 C 360.0998 564.43694 345.04654 574.4521 326.53175 575.42244 L 161.75787 584.0579 C 139.97252 585.1996 121.6444 573.3864 120.82086 557.6724 C 120.70036 555.373 120.96132 553.11754 121.56296 550.93876 Z" stroke="black" stroke-linecap="round" stroke-linejoin="round" stroke-width="5"/>
      </g>
      <g id="Line_10">
        <line x1="415.5123" y1="479.9667" x2="207" y2="234" stroke="#ffbc01" stroke-linecap="round" stroke-linejoin="round" stroke-width="4"/>
      </g>
      <g id="Line_11">
        <line x1="554" y1="489.4749" x2="680.5574" y2="211.78689" stroke="#ffbc01" stroke-linecap="round" stroke-linejoin="round" stroke-width="4"/>
      </g>
      <g id="Line_12">
        <line x1="482.791" y1="464.7536" x2="439" y2="162" stroke="#ffbc01" stroke-linecap="round" stroke-linejoin="round" stroke-width="4"/>
      </g>
      <g id="Graphic_17">
        <path d="M 473.3879 246.07805 C 482.56113 253.77528 483.75764 267.45147 476.06037 276.62468 C 468.36313 285.79793 454.68695 286.99445 445.51373 279.29717 C 436.3405 271.59993 435.14397 257.92375 442.84125 248.75054 C 450.5385 239.57728 464.21467 238.38077 473.3879 246.07805 M 435.68255 291.26468 L 394.44478 295.26118 L 334.2021 513.9852 L 626.4341 488.4182 L 530.285 282.0964 L 488.27595 286.16765 C 501.56866 270.24993 499.47526 246.56737 483.58015 233.22985 C 467.66193 219.8728 443.9297 221.9491 430.57276 237.8674 C 417.2157 253.78562 419.292 277.51783 435.2103 290.8748 C 435.36697 291.00625 435.5244 291.1362 435.68255 291.26468 Z" fill="#666"/>
        <path d="M 473.3879 246.07805 C 482.56113 253.77528 483.75764 267.45147 476.06037 276.62468 C 468.36313 285.79793 454.68695 286.99445 445.51373 279.29717 C 436.3405 271.59993 435.14397 257.92375 442.84125 248.75054 C 450.5385 239.57728 464.21467 238.38077 473.3879 246.07805 M 435.68255 291.26468 L 394.44478 295.26118 L 334.2021 513.9852 L 626.4341 488.4182 L 530.285 282.0964 L 488.27595 286.16765 C 501.56866 270.24993 499.47526 246.56737 483.58015 233.22985 C 467.66193 219.8728 443.9297 221.9491 430.57276 237.8674 C 417.2157 253.78562 419.292 277.51783 435.2103 290.8748 C 435.36697 291.00625 435.5244 291.1362 435.68255 291.26468 Z" stroke="black" stroke-linecap="round" stroke-linejoin="round" stroke-width="4"/>
      </g>
      <g id="Graphic_18">
        <path d="M 432.19093 400.9167 C 432.19093 401.32944 438.5496 387.2957 438.5496 387.2957 L 444.71843 386.3505 C 447.59897 385.90917 450.5412 386.5431 452.9844 388.1315 L 456.7779 390.59775 C 456.7779 390.59775 455.08223 409.17183 455.08223 409.5846 C 455.08223 409.99735 441.517 416.1887 441.517 416.1887 L 447.4518 415.98233 C 451.39164 415.84533 455.297 415.19724 459.0699 414.05433 L 470.0925 410.71533 C 471.0637 410.42113 472.08955 410.96996 472.38375 411.9412 C 472.4361 412.1139 472.46267 412.2934 472.46267 412.4739 L 472.46267 412.4739 C 472.46267 413.9122 471.4436 415.1489 470.0318 415.4238 L 458.12077 417.74333 C 454.97195 418.3565 451.77143 418.66525 448.56346 418.66525 L 437.86356 418.66525 C 436.83774 418.66525 436.00615 417.83366 436.00615 416.80785 L 436.00615 416.80785 C 436.00615 415.6674 436.64385 414.62273 437.6582 414.10147 L 445.5269 410.0578 C 449.1223 408.2102 451.5838 404.71763 452.11484 400.7103 L 452.22065 399.9119 C 452.64074 396.74184 450.57177 393.77534 447.4518 393.0743 L 447.4518 393.0743 C 444.14276 392.33077 440.7219 393.73517 438.88983 396.5893 L 435.58223 401.7422 C 435.58223 401.7422 432.19093 400.50393 432.19093 400.9167 Z" fill="#333"/>
        <path d="M 432.19093 400.9167 C 432.19093 401.32944 438.5496 387.2957 438.5496 387.2957 L 444.71843 386.3505 C 447.59897 385.90917 450.5412 386.5431 452.9844 388.1315 L 456.7779 390.59775 C 456.7779 390.59775 455.08223 409.17183 455.08223 409.5846 C 455.08223 409.99735 441.517 416.1887 441.517 416.1887 L 447.4518 415.98233 C 451.39164 415.84533 455.297 415.19724 459.0699 414.05433 L 470.0925 410.71533 C 471.0637 410.42113 472.08955 410.96996 472.38375 411.9412 C 472.4361 412.1139 472.46267 412.2934 472.46267 412.4739 L 472.46267 412.4739 C 472.46267 413.9122 471.4436 415.1489 470.0318 415.4238 L 458.12077 417.74333 C 454.97195 418.3565 451.77143 418.66525 448.56346 418.66525 L 437.86356 418.66525 C 436.83774 418.66525 436.00615 417.83366 436.00615 416.80785 L 436.00615 416.80785 C 436.00615 415.6674 436.64385 414.62273 437.6582 414.10147 L 445.5269 410.0578 C 449.1223 408.2102 451.5838 404.71763 452.11484 400.7103 L 452.22065 399.9119 C 452.64074 396.74184 450.57177 393.77534 447.4518 393.0743 L 447.4518 393.0743 C 444.14276 392.33077 440.7219 393.73517 438.88983 396.5893 L 435.58223 401.7422 C 435.58223 401.7422 432.19093 400.50393 432.19093 400.9167 Z" stroke="black" stroke-linecap="round" stroke-linejoin="round" stroke-width="2"/>
      </g>
      <g id="Graphic_19">
        <path d="M 487.7555 380.0671 L 475.8855 381.9663 C 472.2213 382.55257 469.72614 385.99826 470.3124 389.66247 C 470.32185 389.7215 470.3321 389.7804 470.3431 389.83917 L 470.7546 392.03387 C 471.24797 394.6651 473.60356 396.5314 476.2779 396.4098 L 476.2779 396.4098 C 479.34685 396.2703 482.40764 396.82645 485.23137 398.0366 L 486.0604 398.39193 C 488.2599 399.33456 489.48825 401.69862 488.9953 404.04025 L 488.8461 404.74887 C 488.4389 406.68295 486.7326 408.06743 484.75615 408.06743 L 484.451 408.06743 C 482.40355 408.06743 480.3661 407.78208 478.39745 407.2196 L 477.2643 406.89584 C 476.50016 406.6775 475.70374 407.11997 475.4854 407.8841 C 475.4487 408.01264 475.43006 408.1457 475.43006 408.2794 L 475.43006 408.2794 C 475.43006 409.35165 476.2638 410.2391 477.33395 410.306 L 484.50776 410.75435 C 487.3609 410.93267 490.1532 409.8769 492.1746 407.85547 L 492.8017 407.2284 C 494.4251 405.605 495.27684 403.3648 495.142 401.07286 L 495.142 401.07286 C 495.00853 398.8036 493.8182 396.72836 491.9268 395.4674 L 491.11484 394.92612 C 488.61545 393.25986 485.7215 392.28083 482.7238 392.08743 L 476.9803 391.7169 C 475.30544 391.60883 473.89984 390.41475 473.52245 388.7794 L 473.52245 388.7794 C 473.2215 387.4753 474.0347 386.17413 475.3388 385.8732 C 475.4599 385.84524 475.58296 385.82665 475.7069 385.8176 L 487.7303 384.93782 C 489.1603 384.8332 490.267 383.6425 490.267 382.20873 L 490.267 382.20873 C 490.267 381.0109 489.296 380.03986 488.09814 380.03986 C 487.9834 380.03986 487.8688 380.04897 487.7555 380.0671 Z" fill="#333"/>
        <path d="M 487.7555 380.0671 L 475.8855 381.9663 C 472.2213 382.55257 469.72614 385.99826 470.3124 389.66247 C 470.32185 389.7215 470.3321 389.7804 470.3431 389.83917 L 470.7546 392.03387 C 471.24797 394.6651 473.60356 396.5314 476.2779 396.4098 L 476.2779 396.4098 C 479.34685 396.2703 482.40764 396.82645 485.23137 398.0366 L 486.0604 398.39193 C 488.2599 399.33456 489.48825 401.69862 488.9953 404.04025 L 488.8461 404.74887 C 488.4389 406.68295 486.7326 408.06743 484.75615 408.06743 L 484.451 408.06743 C 482.40355 408.06743 480.3661 407.78208 478.39745 407.2196 L 477.2643 406.89584 C 476.50016 406.6775 475.70374 407.11997 475.4854 407.8841 C 475.4487 408.01264 475.43006 408.1457 475.43006 408.2794 L 475.43006 408.2794 C 475.43006 409.35165 476.2638 410.2391 477.33395 410.306 L 484.50776 410.75435 C 487.3609 410.93267 490.1532 409.8769 492.1746 407.85547 L 492.8017 407.2284 C 494.4251 405.605 495.27684 403.3648 495.142 401.07286 L 495.142 401.07286 C 495.00853 398.8036 493.8182 396.72836 491.9268 395.4674 L 491.11484 394.92612 C 488.61545 393.25986 485.7215 392.28083 482.7238 392.08743 L 476.9803 391.7169 C 475.30544 391.60883 473.89984 390.41475 473.52245 388.7794 L 473.52245 388.7794 C 473.2215 387.4753 474.0347 386.17413 475.3388 385.8732 C 475.4599 385.84524 475.58296 385.82665 475.7069 385.8176 L 487.7303 384.93782 C 489.1603 384.8332 490.267 383.6425 490.267 382.20873 L 490.267 382.20873 C 490.267 381.0109 489.296 380.03986 488.09814 380.03986 C 487.9834 380.03986 487.8688 380.04897 487.7555 380.0671 Z" stroke="black" stroke-linecap="round" stroke-linejoin="round" stroke-width="2"/>
      </g>
      <g id="Graphic_20">
        <path d="M 506.3757 411.45873 C 506.3757 411.88265 505.5279 392.80656 505.5279 392.80656 L 507.22354 392.80656 C 508.16 392.80656 508.9192 393.56573 508.9192 394.5022 L 508.9192 396.6218 C 508.9192 397.09785 509.3051 397.4838 509.7812 397.4838 C 510.1137 397.4838 510.41653 397.29257 510.5595 396.9924 L 512.61156 392.683 C 512.94556 391.9816 513.6532 391.5348 514.43006 391.5348 L 514.43006 391.5348 C 514.86414 391.5348 515.21604 391.8867 515.21604 392.3208 C 515.21604 392.4428 515.1876 392.56316 515.13306 392.6723 L 512.66275 397.61293 C 511.2583 400.42186 512.2045 403.8379 514.854 405.52395 L 517.8206 407.4118 C 518.2665 407.6956 518.398 408.28714 518.1142 408.7331 C 517.9962 408.91853 517.81794 409.0577 517.6094 409.1272 L 517.6094 409.1272 C 516.4269 409.52138 515.1242 409.2625 514.18226 408.44615 L 509.3431 404.2522 C 509.3431 404.2522 506.3757 411.0348 506.3757 411.45873 Z" fill="#333"/>
        <path d="M 506.3757 411.45873 C 506.3757 411.88265 505.5279 392.80656 505.5279 392.80656 L 507.22354 392.80656 C 508.16 392.80656 508.9192 393.56573 508.9192 394.5022 L 508.9192 396.6218 C 508.9192 397.09785 509.3051 397.4838 509.7812 397.4838 C 510.1137 397.4838 510.41653 397.29257 510.5595 396.9924 L 512.61156 392.683 C 512.94556 391.9816 513.6532 391.5348 514.43006 391.5348 L 514.43006 391.5348 C 514.86414 391.5348 515.21604 391.8867 515.21604 392.3208 C 515.21604 392.4428 515.1876 392.56316 515.13306 392.6723 L 512.66275 397.61293 C 511.2583 400.42186 512.2045 403.8379 514.854 405.52395 L 517.8206 407.4118 C 518.2665 407.6956 518.398 408.28714 518.1142 408.7331 C 517.9962 408.91853 517.81794 409.0577 517.6094 409.1272 L 517.6094 409.1272 C 516.4269 409.52138 515.1242 409.2625 514.18226 408.44615 L 509.3431 404.2522 C 509.3431 404.2522 506.3757 411.0348 506.3757 411.45873 Z" stroke="black" stroke-linecap="round" stroke-linejoin="round" stroke-width="2"/>
      </g>
      <g id="Graphic_21">
        <path d="M 526.62424 389.431 L 525.4518 388.99134 C 523.45934 388.24417 521.2141 388.9507 520.0086 390.7042 L 517.39745 394.5022 C 517.39745 394.5022 517.82136 398.74134 517.82136 399.16525 C 517.82136 399.58917 524.18006 404.67612 524.18006 404.67612 L 526.72354 404.8881 C 528.2984 405.0193 529.8244 404.3038 530.73066 403.0091 L 531.0373 402.5711 C 531.411 402.0372 532.14675 401.90736 532.6806 402.2811 C 532.8563 402.40405 532.99514 402.57256 533.08223 402.7685 L 533.236 403.11456 C 533.64817 404.04186 534.6188 404.59003 535.6257 404.46417 L 535.6257 404.46417 C 536.39345 404.3682 536.938 403.66803 536.84205 402.9003 C 536.8306 402.80876 536.81015 402.71857 536.781 402.63106 L 536.0496 400.437 C 535.32794 398.2719 533.08173 397.00727 530.8563 397.51305 L 526.8986 398.4125 C 526.05234 398.60486 525.4518 399.3572 525.4518 400.22504 L 525.4518 400.22504 C 525.4518 400.799 525.9171 401.26426 526.491 401.26426 C 526.61214 401.26426 526.73234 401.2431 526.84617 401.2017 L 528.8394 400.4769 C 528.9552 400.43477 529.08326 400.49452 529.1254 400.61036 C 529.1581 400.7003 529.1298 400.8011 529.05506 400.8609 L 529.05506 400.8609 C 528.4034 401.38223 527.51643 401.49924 526.7519 401.16475 L 524.1319 400.0185 C 522.3803 399.2522 521.29745 397.46966 521.4246 395.562 L 521.542 393.80134 C 521.6006 392.92256 522.12056 392.14066 522.9083 391.74678 L 522.9083 391.74678 C 523.75187 391.325 524.6511 391.02527 525.579 390.85656 L 526.5116 390.687 C 526.867 390.62237 527.10274 390.28186 527.0381 389.92645 C 526.99694 389.7 526.83976 389.51183 526.62424 389.431 Z" fill="#333"/>
        <path d="M 526.62424 389.431 L 525.4518 388.99134 C 523.45934 388.24417 521.2141 388.9507 520.0086 390.7042 L 517.39745 394.5022 C 517.39745 394.5022 517.82136 398.74134 517.82136 399.16525 C 517.82136 399.58917 524.18006 404.67612 524.18006 404.67612 L 526.72354 404.8881 C 528.2984 405.0193 529.8244 404.3038 530.73066 403.0091 L 531.0373 402.5711 C 531.411 402.0372 532.14675 401.90736 532.6806 402.2811 C 532.8563 402.40405 532.99514 402.57256 533.08223 402.7685 L 533.236 403.11456 C 533.64817 404.04186 534.6188 404.59003 535.6257 404.46417 L 535.6257 404.46417 C 536.39345 404.3682 536.938 403.66803 536.84205 402.9003 C 536.8306 402.80876 536.81015 402.71857 536.781 402.63106 L 536.0496 400.437 C 535.32794 398.2719 533.08173 397.00727 530.8563 397.51305 L 526.8986 398.4125 C 526.05234 398.60486 525.4518 399.3572 525.4518 400.22504 L 525.4518 400.22504 C 525.4518 400.799 525.9171 401.26426 526.491 401.26426 C 526.61214 401.26426 526.73234 401.2431 526.84617 401.2017 L 528.8394 400.4769 C 528.9552 400.43477 529.08326 400.49452 529.1254 400.61036 C 529.1581 400.7003 529.1298 400.8011 529.05506 400.8609 L 529.05506 400.8609 C 528.4034 401.38223 527.51643 401.49924 526.7519 401.16475 L 524.1319 400.0185 C 522.3803 399.2522 521.29745 397.46966 521.4246 395.562 L 521.542 393.80134 C 521.6006 392.92256 522.12056 392.14066 522.9083 391.74678 L 522.9083 391.74678 C 523.75187 391.325 524.6511 391.02527 525.579 390.85656 L 526.5116 390.687 C 526.867 390.62237 527.10274 390.28186 527.0381 389.92645 C 526.99694 389.7 526.83976 389.51183 526.62424 389.431 Z" stroke="black" stroke-linecap="round" stroke-linejoin="round" stroke-width="2"/>
      </g>
    </g>
  </g>
</svg>
