<?xml version="1.0" encoding="UTF-8" standalone="no"?>
<!DOCTYPE svg PUBLIC "-//W3C//DTD SVG 1.1//EN" "http://www.w3.org/Graphics/SVG/1.1/DTD/svg11.dtd">
<svg version="1.1" xmlns:dc="http://purl.org/dc/elements/1.1/" xmlns="http://www.w3.org/2000/svg" xmlns:xl="http://www.w3.org/1999/xlink" viewBox="0 0 850.394 850.394" width="850.394" height="850.394">
  <defs/>
  <metadata> Produced by OmniGraffle 7.9.4 
    <dc:date>2019-07-07 19:41:45 +0000</dc:date>
  </metadata>
  <g id="proximity_sensor" fill-opacity="1" stroke="none" stroke-opacity="1" stroke-dasharray="none" fill="none">
    <title>proximity sensor</title>
    <g id="proximity_sensor: Layer 1">
      <title>Layer 1</title>
      <g id="Line_36">
        <path d="M 293.58815 480.6593 L 283.26278 614.17996 C 280.92317 644.43415 295.9019 673.4077 321.9389 688.9918 L 489.70124 789.4036 C 527.6121 812.0946 576.7397 799.7565 599.4307 761.8456 C 600.3337 760.3369 601.18676 758.7988 601.9884 757.2339 L 745.8226 476.45353 C 747.685 472.8178 751.3612 470.4668 755.4429 470.3012 L 762.0489 470.0331 L 762.0489 470.0331" stroke="#ff002a" stroke-linecap="round" stroke-linejoin="round" stroke-width="8"/>
      </g>
      <g id="Line_37">
        <path d="M 339.35177 450.6839 L 329.0264 584.2046 C 326.6868 614.4588 341.6655 643.43235 367.70252 659.01644 L 535.46486 759.4282 C 573.37575 782.11925 622.5033 769.7811 645.1943 731.8702 C 646.09735 730.3615 646.9504 728.82346 647.752 727.2585 L 791.5862 446.47817 C 793.4487 442.8424 797.1248 440.49145 801.2065 440.3258 L 807.8125 440.05774 L 807.8125 440.05774" stroke="#39be00" stroke-linecap="round" stroke-linejoin="round" stroke-width="8"/>
      </g>
      <g id="Line_38">
        <path d="M 311.83913 459.42996 L 301.51376 592.9506 C 299.17415 623.2048 314.15287 652.1784 340.1899 667.7625 L 507.9522 768.1743 C 545.8631 790.8653 594.9907 778.52715 617.6817 740.6163 C 618.5847 739.10756 619.4377 737.5695 620.2394 736.0046 L 764.0735 455.2242 C 765.936 451.58845 769.6122 449.2375 773.69385 449.07185 L 780.2998 448.80377 L 780.2998 448.80377" stroke="#a0a04f" stroke-linecap="round" stroke-linejoin="round" stroke-width="8"/>
      </g>
      <g id="Line_39">
        <path d="M 368.5393 437.1501 L 358.21393 570.67074 C 355.8743 600.9249 370.85303 629.8985 396.89005 645.4826 L 564.6524 745.8944 C 602.5633 768.5854 651.6908 756.2473 674.38186 718.3364 C 675.2849 716.8277 676.1379 715.2896 676.93956 713.7247 L 820.7737 432.9443 C 822.6362 429.30856 826.3123 426.9576 830.394 426.79196 L 837 426.5239 L 837 426.5239" stroke="black" stroke-linecap="round" stroke-linejoin="round" stroke-width="8"/>
      </g>
      <g id="Graphic_35">
        <path d="M 63.439276 158.26647 C 63.439276 156.33656 88.5281 83 88.5281 83 L 181.78548 83 C 182.65719 83 183.52848 83.03799 184.39689 83.11387 L 580.30384 117.70769 C 580.53795 117.72814 580.7718 117.75135 581.0054 117.7773 L 690.14824 129.90428 C 706.4757 131.71844 718.30725 146.32707 716.6895 162.67512 L 685.8036 474.7849 C 684.2079 490.90967 670.0963 502.8535 653.9295 501.7625 L 368.63496 482.5095 C 368.45497 482.49734 368.27488 482.4868 368.0947 482.4779 L 212.7817 474.80814 C 212.28884 474.7838 211.79547 474.7716 211.30202 474.7716 L 67.299095 474.7716 C 67.299095 474.7716 63.439276 160.19638 63.439276 158.26647 Z" fill="#8080ff"/>
        <path d="M 63.439276 158.26647 C 63.439276 156.33656 88.5281 83 88.5281 83 L 181.78548 83 C 182.65719 83 183.52848 83.03799 184.39689 83.11387 L 580.30384 117.70769 C 580.53795 117.72814 580.7718 117.75135 581.0054 117.7773 L 690.14824 129.90428 C 706.4757 131.71844 718.30725 146.32707 716.6895 162.67512 L 685.8036 474.7849 C 684.2079 490.90967 670.0963 502.8535 653.9295 501.7625 L 368.63496 482.5095 C 368.45497 482.49734 368.27488 482.4868 368.0947 482.4779 L 212.7817 474.80814 C 212.28884 474.7838 211.79547 474.7716 211.30202 474.7716 L 67.299095 474.7716 C 67.299095 474.7716 63.439276 160.19638 63.439276 158.26647 Z" stroke="black" stroke-linecap="round" stroke-linejoin="round" stroke-width="11"/>
      </g>
      <g id="Graphic_4">
        <path d="M 134.99027 175.75182 L 185.10027 137.20566 C 201.25867 124.77613 221.55265 118.98413 241.83743 121.0126 L 275.0307 124.33193 C 295.39952 126.36881 314.2126 136.1363 327.5979 151.62407 L 340.60718 166.67676 C 357.96612 186.76234 364.23057 214.15092 357.32896 239.78548 L 322.1535 370.43718 C 317.10883 389.1745 305.4258 405.4396 289.28026 416.2033 L 246.044 445.0275 C 243.94052 446.4298 241.0985 445.8614 239.6962 443.75793 C 238.53713 442.01934 238.70253 439.7165 240.09816 438.1614 L 240.09816 438.1614 C 253.24126 423.5166 252.02388 400.99007 237.37907 387.84697 C 237.23234 387.7153 237.08452 387.58483 236.93563 387.4556 L 131.43831 295.8919 C 99.06428 267.79367 95.59804 218.77122 123.69626 186.39718 C 127.09582 182.4803 130.8794 178.91403 134.99027 175.75182 Z" fill="#cbcbcb"/>
        <path d="M 134.99027 175.75182 L 185.10027 137.20566 C 201.25867 124.77613 221.55265 118.98413 241.83743 121.0126 L 275.0307 124.33193 C 295.39952 126.36881 314.2126 136.1363 327.5979 151.62407 L 340.60718 166.67676 C 357.96612 186.76234 364.23057 214.15092 357.32896 239.78548 L 322.1535 370.43718 C 317.10883 389.1745 305.4258 405.4396 289.28026 416.2033 L 246.044 445.0275 C 243.94052 446.4298 241.0985 445.8614 239.6962 443.75793 C 238.53713 442.01934 238.70253 439.7165 240.09816 438.1614 L 240.09816 438.1614 C 253.24126 423.5166 252.02388 400.99007 237.37907 387.84697 C 237.23234 387.7153 237.08452 387.58483 236.93563 387.4556 L 131.43831 295.8919 C 99.06428 267.79367 95.59804 218.77122 123.69626 186.39718 C 127.09582 182.4803 130.8794 178.91403 134.99027 175.75182 Z" stroke="black" stroke-linecap="round" stroke-linejoin="round" stroke-width="5"/>
      </g>
      <g id="Graphic_18">
        <circle cx="185.98853" cy="319.4139" r="137.988747984616" fill="#999"/>
        <circle cx="185.98853" cy="319.4139" r="137.988747984616" stroke="black" stroke-linecap="round" stroke-linejoin="round" stroke-width="9"/>
      </g>
      <g id="Graphic_40">
        <circle cx="183.29225" cy="318.44993" r="86.846065165143" fill="#ccc"/>
        <circle cx="183.29225" cy="318.44993" r="86.846065165143" stroke="#666" stroke-linecap="round" stroke-linejoin="round" stroke-width="30"/>
      </g>
      <g id="Line_17">
        <line x1="89.59432" y1="222.00142" x2="282.33298" y2="221.45207" stroke="black" stroke-linecap="round" stroke-linejoin="round" stroke-width="2"/>
      </g>
      <g id="Graphic_43">
        <circle cx="193.2832" cy="325.36824" r="32.0794994336178" fill="#333"/>
        <circle cx="193.2832" cy="325.36824" r="32.0794994336178" stroke="#666" stroke-linecap="round" stroke-linejoin="round" stroke-width="10"/>
      </g>
      <g id="Line_16">
        <line x1="59.723796" y1="257.08515" x2="306.89618" y2="257.35214" stroke="black" stroke-linecap="round" stroke-linejoin="round" stroke-width="2"/>
      </g>
      <g id="Line_15">
        <line x1="56.97173" y1="298.36612" x2="323.90148" y2="293.2522" stroke="black" stroke-linecap="round" stroke-linejoin="round" stroke-width="2"/>
      </g>
      <g id="Line_14">
        <line x1="56.97173" y1="339.6471" x2="320.12252" y2="338.59966" stroke="black" stroke-linecap="round" stroke-linejoin="round" stroke-width="2"/>
      </g>
      <g id="Line_13">
        <line x1="59.723796" y1="375.42393" x2="291.57287" y2="376.1284" stroke="black" stroke-linecap="round" stroke-linejoin="round" stroke-width="2"/>
      </g>
      <g id="Line_12">
        <line x1="83.65682" y1="415.4478" x2="291.57287" y2="415.4478" stroke="black" stroke-linecap="round" stroke-linejoin="round" stroke-width="2"/>
      </g>
      <g id="Line_11">
        <line x1="291.78036" y1="227.1205" x2="293.6493" y2="411.20077" stroke="black" stroke-linecap="round" stroke-linejoin="round" stroke-width="2"/>
      </g>
      <g id="Line_10">
        <line x1="252.10134" y1="202.5573" x2="252.2578" y2="438.6031" stroke="black" stroke-linecap="round" stroke-linejoin="round" stroke-width="2"/>
      </g>
      <g id="Line_9">
        <line x1="212.42231" y1="183.66252" x2="212.4744" y2="456.982" stroke="black" stroke-linecap="round" stroke-linejoin="round" stroke-width="2"/>
      </g>
      <g id="Line_8">
        <line x1="172.7433" y1="189.33096" x2="173.155" y2="456.982" stroke="black" stroke-linecap="round" stroke-linejoin="round" stroke-width="2"/>
      </g>
      <g id="Line_7">
        <line x1="133.06427" y1="194.99939" x2="136.84322" y2="440.63144" stroke="black" stroke-linecap="round" stroke-linejoin="round" stroke-width="2"/>
      </g>
      <g id="Line_6">
        <line x1="94.51642" y1="218.36753" x2="94.51642" y2="426.2836" stroke="black" stroke-linecap="round" stroke-linejoin="round" stroke-width="2"/>
      </g>
      <g id="Graphic_19">
        <path d="M 689.4804 272.8029 L 630.8399 193.1588 C 614.0869 170.40522 586.5735 158.17677 558.4579 160.98833 L 539.03996 162.93012 C 518.67115 164.967 499.8581 174.73448 486.4728 190.22226 L 459.8719 221.0014 C 450.59485 231.73565 444.3393 244.74393 441.7466 258.69263 L 431.76726 312.38086 C 430.76105 317.79426 430.3164 323.2971 430.44037 328.8018 L 431.8941 393.34617 C 432.65944 427.32827 454.81487 457.1165 487.1403 467.6254 L 563.7173 492.5203 C 568.83056 494.1826 574.3232 491.38506 575.9855 486.27183 C 577.0592 482.969 576.29216 479.3443 573.9725 476.7596 L 573.9725 476.7596 C 563.5945 465.1958 564.55576 447.4085 576.11955 437.03047 C 577.8678 435.4615 579.8056 434.1177 581.8878 433.03035 L 662.08976 391.14873 C 701.2541 370.69703 716.4237 322.36868 695.972 283.20433 C 694.0774 279.57623 691.90715 276.09888 689.4804 272.8029 Z" fill="#cbcbcb"/>
        <path d="M 689.4804 272.8029 L 630.8399 193.1588 C 614.0869 170.40522 586.5735 158.17677 558.4579 160.98833 L 539.03996 162.93012 C 518.67115 164.967 499.8581 174.73448 486.4728 190.22226 L 459.8719 221.0014 C 450.59485 231.73565 444.3393 244.74393 441.7466 258.69263 L 431.76726 312.38086 C 430.76105 317.79426 430.3164 323.2971 430.44037 328.8018 L 431.8941 393.34617 C 432.65944 427.32827 454.81487 457.1165 487.1403 467.6254 L 563.7173 492.5203 C 568.83056 494.1826 574.3232 491.38506 575.9855 486.27183 C 577.0592 482.969 576.29216 479.3443 573.9725 476.7596 L 573.9725 476.7596 C 563.5945 465.1958 564.55576 447.4085 576.11955 437.03047 C 577.8678 435.4615 579.8056 434.1177 581.8878 433.03035 L 662.08976 391.14873 C 701.2541 370.69703 716.4237 322.36868 695.972 283.20433 C 694.0774 279.57623 691.90715 276.09888 689.4804 272.8029 Z" stroke="black" stroke-linecap="round" stroke-linejoin="round" stroke-width="5"/>
      </g>
      <g id="Graphic_20">
        <path d="M 564.7487 220.21283 C 488.644 224.20111 430.1825 289.1292 434.17116 365.23385 C 438.15944 441.3385 503.08753 499.80004 579.1922 495.81137 C 655.29684 491.8231 713.7584 426.895 709.7697 350.79035 C 705.7814 274.68568 640.8533 216.22416 564.7487 220.21283" fill="#999"/>
        <path d="M 564.7487 220.21283 C 488.644 224.20111 430.1825 289.1292 434.17116 365.23385 C 438.15944 441.3385 503.08753 499.80004 579.1922 495.81137 C 655.29684 491.8231 713.7584 426.895 709.7697 350.79035 C 705.7814 274.68568 640.8533 216.22416 564.7487 220.21283" stroke="black" stroke-linecap="round" stroke-linejoin="round" stroke-width="9"/>
      </g>
      <g id="Line_21">
        <line x1="710.85815" y1="347.74617" x2="561.4724" y2="216.73899" stroke="black" stroke-linecap="round" stroke-linejoin="round" stroke-width="2"/>
      </g>
      <g id="Graphic_41">
        <path d="M 656.74896 355.6307 C 659.2593 403.52875 622.46535 444.3926 574.5673 446.9027 C 526.6693 449.41304 485.80544 412.6191 483.29534 364.72104 C 480.785 316.823 517.57895 275.95917 565.477 273.44907 C 613.375 270.9387 654.23885 307.73268 656.74896 355.6307" fill="#ccc"/>
        <path d="M 656.74896 355.6307 C 659.2593 403.52875 622.46535 444.3926 574.5673 446.9027 C 526.6693 449.41304 485.80544 412.6191 483.29534 364.72104 C 480.785 316.823 517.57895 275.95917 565.477 273.44907 C 613.375 270.9387 654.23885 307.73268 656.74896 355.6307" stroke="#666" stroke-linecap="round" stroke-linejoin="round" stroke-width="30"/>
      </g>
      <g id="Line_22">
        <line x1="703.5284" y1="392.5958" x2="519.6649" y2="227.40362" stroke="black" stroke-linecap="round" stroke-linejoin="round" stroke-width="2"/>
      </g>
      <g id="Line_23">
        <line x1="688.5434" y1="434.6523" x2="493.59785" y2="252.24108" stroke="black" stroke-linecap="round" stroke-linejoin="round" stroke-width="2"/>
      </g>
      <g id="Line_24">
        <line x1="658.1128" y1="462.80144" x2="463.2545" y2="285.9408" stroke="black" stroke-linecap="round" stroke-linejoin="round" stroke-width="2"/>
      </g>
      <g id="Graphic_44">
        <circle cx="559.776" cy="352.06832" r="32.0794994336177" fill="#333"/>
        <circle cx="559.776" cy="352.06832" r="32.0794994336177" stroke="#666" stroke-linecap="round" stroke-linejoin="round" stroke-width="10"/>
      </g>
      <g id="Line_25">
        <line x1="612.95686" y1="470.2854" x2="440.18805" y2="315.67158" stroke="black" stroke-linecap="round" stroke-linejoin="round" stroke-width="2"/>
      </g>
      <g id="Line_26">
        <line x1="586.1757" y1="500.0289" x2="431.66393" y2="360.9059" stroke="black" stroke-linecap="round" stroke-linejoin="round" stroke-width="2"/>
      </g>
      <g id="Line_27">
        <line x1="713.7343" y1="361.46385" x2="589.1717" y2="497.0116" stroke="black" stroke-linecap="round" stroke-linejoin="round" stroke-width="2"/>
      </g>
      <g id="Line_28">
        <line x1="696.46486" y1="298.63772" x2="531.2156" y2="488.01406" stroke="black" stroke-linecap="round" stroke-linejoin="round" stroke-width="2"/>
      </g>
      <g id="Line_29">
        <line x1="682.4887" y1="274.85166" x2="499.5635" y2="477.9328" stroke="black" stroke-linecap="round" stroke-linejoin="round" stroke-width="2"/>
      </g>
      <g id="Line_30">
        <line x1="649.4757" y1="252.7543" x2="470.07626" y2="451.38233" stroke="black" stroke-linecap="round" stroke-linejoin="round" stroke-width="2"/>
      </g>
      <g id="Line_31">
        <line x1="618.6979" y1="232.66946" x2="451.5297" y2="412.68104" stroke="black" stroke-linecap="round" stroke-linejoin="round" stroke-width="2"/>
      </g>
      <g id="Line_32">
        <line x1="571.6066" y1="221.71322" x2="432.48363" y2="376.22496" stroke="black" stroke-linecap="round" stroke-linejoin="round" stroke-width="2"/>
      </g>
      <g id="Graphic_42">
        <path d="M 368.36497 149.58188 L 368.36497 149.58188 C 366.572 139.27222 373.4761 129.4611 383.78577 127.66812 C 384.85787 127.48166 385.94405 127.38792 387.03225 127.38792 L 456.17585 127.38792 C 464.1698 127.38792 470.6502 133.8683 470.6502 141.86224 L 470.6502 145.62311 C 470.6502 152.73367 469.7022 159.8125 467.8313 166.6725 L 467.7553 166.95106 C 466.0696 173.1321 460.274 177.27891 453.8797 176.87927 L 394.708 173.18104 C 381.52454 172.35707 370.62825 162.59574 368.36497 149.58188 Z" fill="#ccc"/>
        <path d="M 368.36497 149.58188 L 368.36497 149.58188 C 366.572 139.27222 373.4761 129.4611 383.78577 127.66812 C 384.85787 127.48166 385.94405 127.38792 387.03225 127.38792 L 456.17585 127.38792 C 464.1698 127.38792 470.6502 133.8683 470.6502 141.86224 L 470.6502 145.62311 C 470.6502 152.73367 469.7022 159.8125 467.8313 166.6725 L 467.7553 166.95106 C 466.0696 173.1321 460.274 177.27891 453.8797 176.87927 L 394.708 173.18104 C 381.52454 172.35707 370.62825 162.59574 368.36497 149.58188 Z" stroke="black" stroke-linecap="round" stroke-linejoin="round" stroke-width="7"/>
      </g>
      <g id="Graphic_46">
        <path d="M 203.00487 753.39865 C 203.00487 753.39865 129.24061 717.9351 128.53134 717.9351 C 127.82207 717.9351 180.30817 830 180.30817 830 L 303.72145 793.8271 L 234.21282 764.747 L 335.6387 542.0357 L 360.4632 546.2913 L 351.95193 497.35156 L 291.66383 525.01316 L 322.8718 538.4893 Z" fill="#ff4040"/>
        <path d="M 203.00487 753.39865 C 203.00487 753.39865 129.24061 717.9351 128.53134 717.9351 C 127.82207 717.9351 180.30817 830 180.30817 830 L 303.72145 793.8271 L 234.21282 764.747 L 335.6387 542.0357 L 360.4632 546.2913 L 351.95193 497.35156 L 291.66383 525.01316 L 322.8718 538.4893 Z" stroke="black" stroke-linecap="round" stroke-linejoin="round" stroke-width="4"/>
      </g>
      <g id="Graphic_47">
        <path d="M 346.12665 621.587 C 346.12665 621.587 343.2391 572.4989 344.20162 571.5364 C 345.16413 570.5739 458.7405 535.92345 458.7405 535.92345 C 458.7405 535.92345 493.39094 610.03686 493.39094 610.9994 C 493.39094 611.9619 476.0657 664.9 475.1032 664.9 C 474.1407 664.9 434.6777 674.5251 434.6777 674.5251 L 435.37437 700.9977 C 435.5174 706.4325 431.2276 710.9542 425.7928 711.0972 C 425.7065 711.09945 425.6202 711.1006 425.53386 711.1006 L 425.53386 711.1006 C 419.85876 711.1006 415.1673 706.677 414.834 701.01165 L 413.6142 680.275 C 412.94595 668.9144 418.17824 658.0111 427.4589 651.42486 L 436.8779 644.7404 C 440.538 642.1429 443.97306 639.242 447.14667 636.0684 L 454.89047 628.3246 C 462.7077 620.5074 466.10084 609.3005 463.93274 598.46 L 461.62805 586.9366 C 458.45654 571.079 443.0304 560.7949 427.17284 563.96643 C 427.11877 563.97725 427.06473 563.9882 427.0107 563.99934 L 402.4071 569.0648 C 394.45025 570.70296 386.78933 573.5435 379.6879 577.4888 L 374.0261 580.6342 C 368.56602 583.6676 366.2852 590.3394 368.74567 596.0804 L 368.74567 596.0804 C 371.3733 602.21155 377.40193 606.1868 384.0724 606.1868 L 392.84416 606.1868 C 396.86613 606.1868 400.1266 609.44726 400.1266 613.4692 C 400.1266 614.8049 399.75925 616.1148 399.0648 617.2557 L 399.0648 617.2557 C 394.97953 623.9672 387.27947 627.58845 379.50463 626.4546 Z" fill="#4040ff"/>
        <path d="M 346.12665 621.587 C 346.12665 621.587 343.2391 572.4989 344.20162 571.5364 C 345.16413 570.5739 458.7405 535.92345 458.7405 535.92345 C 458.7405 535.92345 493.39094 610.03686 493.39094 610.9994 C 493.39094 611.9619 476.0657 664.9 475.1032 664.9 C 474.1407 664.9 434.6777 674.5251 434.6777 674.5251 L 435.37437 700.9977 C 435.5174 706.4325 431.2276 710.9542 425.7928 711.0972 C 425.7065 711.09945 425.6202 711.1006 425.53386 711.1006 L 425.53386 711.1006 C 419.85876 711.1006 415.1673 706.677 414.834 701.01165 L 413.6142 680.275 C 412.94595 668.9144 418.17824 658.0111 427.4589 651.42486 L 436.8779 644.7404 C 440.538 642.1429 443.97306 639.242 447.14667 636.0684 L 454.89047 628.3246 C 462.7077 620.5074 466.10084 609.3005 463.93274 598.46 L 461.62805 586.9366 C 458.45654 571.079 443.0304 560.7949 427.17284 563.96643 C 427.11877 563.97725 427.06473 563.9882 427.0107 563.99934 L 402.4071 569.0648 C 394.45025 570.70296 386.78933 573.5435 379.6879 577.4888 L 374.0261 580.6342 C 368.56602 583.6676 366.2852 590.3394 368.74567 596.0804 L 368.74567 596.0804 C 371.3733 602.21155 377.40193 606.1868 384.0724 606.1868 L 392.84416 606.1868 C 396.86613 606.1868 400.1266 609.44726 400.1266 613.4692 C 400.1266 614.8049 399.75925 616.1148 399.0648 617.2557 L 399.0648 617.2557 C 394.97953 623.9672 387.27947 627.58845 379.50463 626.4546 Z" stroke="black" stroke-linecap="round" stroke-linejoin="round" stroke-width="5"/>
      </g>
      <g id="Graphic_48">
        <path d="M 406.53797 772.4529 L 406.4106 771.8585 C 404.9401 764.9962 407.6509 757.91175 413.3267 753.7839 L 413.3267 753.7839 C 418.9012 749.7297 426.4445 749.6975 432.05344 753.7039 L 439.8709 759.2878 C 444.12847 762.3289 447.31307 766.6407 448.9676 771.6043 L 448.9676 771.6043 C 450.1145 775.0449 448.25505 778.7638 444.81446 779.9106 C 444.39397 780.0508 443.96036 780.148 443.5203 780.20085 L 421.1472 782.8856 C 414.3132 783.7057 407.98016 779.1832 406.53797 772.4529 Z" fill="#8080ff"/>
        <path d="M 406.53797 772.4529 L 406.4106 771.8585 C 404.9401 764.9962 407.6509 757.91175 413.3267 753.7839 L 413.3267 753.7839 C 418.9012 749.7297 426.4445 749.6975 432.05344 753.7039 L 439.8709 759.2878 C 444.12847 762.3289 447.31307 766.6407 448.9676 771.6043 L 448.9676 771.6043 C 450.1145 775.0449 448.25505 778.7638 444.81446 779.9106 C 444.39397 780.0508 443.96036 780.148 443.5203 780.20085 L 421.1472 782.8856 C 414.3132 783.7057 407.98016 779.1832 406.53797 772.4529 Z" stroke="black" stroke-linecap="round" stroke-linejoin="round" stroke-width="5"/>
      </g>
      <g id="Graphic_49">
        <path d="M 307.06085 676.088 L 344.50458 676.088 C 347.44248 676.088 349.8241 678.4697 349.8241 681.4076 L 349.8241 681.4076 C 349.8241 684.0371 347.69245 686.1688 345.0629 686.1688 C 344.88724 686.1688 344.7117 686.1591 344.5371 686.1397 L 332.87563 684.84395 C 331.40885 684.681 329.93418 684.5993 328.45837 684.5993 L 311.31648 684.5993 C 308.4005 684.5993 305.7348 682.9518 304.43072 680.3437 L 304.43072 680.3437 C 303.70444 678.8911 304.2932 677.1248 305.7458 676.3985 C 306.1541 676.1943 306.60434 676.088 307.06085 676.088 Z" fill="#ffc0ff"/>
        <path d="M 307.06085 676.088 L 344.50458 676.088 C 347.44248 676.088 349.8241 678.4697 349.8241 681.4076 L 349.8241 681.4076 C 349.8241 684.0371 347.69245 686.1688 345.0629 686.1688 C 344.88724 686.1688 344.7117 686.1591 344.5371 686.1397 L 332.87563 684.84395 C 331.40885 684.681 329.93418 684.5993 328.45837 684.5993 L 311.31648 684.5993 C 308.4005 684.5993 305.7348 682.9518 304.43072 680.3437 L 304.43072 680.3437 C 303.70444 678.8911 304.2932 677.1248 305.7458 676.3985 C 306.1541 676.1943 306.60434 676.088 307.06085 676.088 Z" stroke="black" stroke-linecap="round" stroke-linejoin="round" stroke-width="4"/>
      </g>
      <g id="Graphic_50">
        <path d="M 311.1806 703.0404 L 340.6036 703.0404 C 344.5208 703.0404 347.6963 706.2159 347.6963 710.1331 L 347.6963 710.1331 C 347.6963 713.1677 345.23623 715.6278 342.2016 715.6278 C 341.7384 715.6278 341.27708 715.5692 340.8286 715.4535 L 332.82103 713.387 C 328.1189 712.1736 323.2351 711.8265 318.40864 712.3628 L 311.85728 713.0907 C 309.05713 713.4018 306.53493 711.3841 306.2238 708.5839 C 306.21553 708.5094 306.2089 708.4347 306.2039 708.3599 L 306.2039 708.3599 C 306.02067 705.6113 308.10027 703.23465 310.84883 703.0514 C 310.95927 703.04405 311.06993 703.0404 311.1806 703.0404 Z" fill="#ffc0ff"/>
        <path d="M 311.1806 703.0404 L 340.6036 703.0404 C 344.5208 703.0404 347.6963 706.2159 347.6963 710.1331 L 347.6963 710.1331 C 347.6963 713.1677 345.23623 715.6278 342.2016 715.6278 C 341.7384 715.6278 341.27708 715.5692 340.8286 715.4535 L 332.82103 713.387 C 328.1189 712.1736 323.2351 711.8265 318.40864 712.3628 L 311.85728 713.0907 C 309.05713 713.4018 306.53493 711.3841 306.2238 708.5839 C 306.21553 708.5094 306.2089 708.4347 306.2039 708.3599 L 306.2039 708.3599 C 306.02067 705.6113 308.10027 703.23465 310.84883 703.0514 C 310.95927 703.04405 311.06993 703.0404 311.1806 703.0404 Z" stroke="black" stroke-linecap="round" stroke-linejoin="round" stroke-width="4"/>
      </g>
      <g id="Line_51">
        <path d="M 333.6266 418.80425 L 349.50964 435.52674 C 354.47465 440.75416 361.0462 444.1697 368.17746 445.22923 L 368.17746 445.22923 C 375.39426 446.3015 382.7654 445.50915 389.58944 442.92763 L 405.81915 436.788 C 409.9206 435.2364 412.68026 431.363 412.80715 426.9797 L 413.01685 419.73565 L 413.01685 419.73565" stroke="black" stroke-linecap="round" stroke-linejoin="round" stroke-width="6"/>
      </g>
    </g>
  </g>
</svg>
