<?xml version="1.0" encoding="UTF-8" standalone="no"?>
<!DOCTYPE svg PUBLIC "-//W3C//DTD SVG 1.1//EN" "http://www.w3.org/Graphics/SVG/1.1/DTD/svg11.dtd">
<svg version="1.1" xmlns:dc="http://purl.org/dc/elements/1.1/" xmlns="http://www.w3.org/2000/svg" xmlns:xl="http://www.w3.org/1999/xlink" viewBox="0 0 850.394 850.394" width="850.394" height="850.394">
  <defs/>
  <metadata> Produced by OmniGraffle 7.9.4 
    <dc:date>2019-07-06 21:19:09 +0000</dc:date>
  </metadata>
  <g id="push_terminal" fill-opacity="1" stroke="none" stroke-opacity="1" stroke-dasharray="none" fill="none">
    <title>push terminal</title>
    <g id="push_terminal: Layer 2">
      <title>Layer 2</title>
      <g id="Graphic_5">
        <path d="M 42.47755 467.6204 L 379.4694 122.9347 L 542.5796 206.02857 L 548.7347 372.21633 L 214.8204 693.8204 L 131.72653 663.0449 L 56.32653 635.34694 Z" fill="#cbcbcb"/>
        <path d="M 42.47755 467.6204 L 379.4694 122.9347 L 542.5796 206.02857 L 548.7347 372.21633 L 214.8204 693.8204 L 131.72653 663.0449 L 56.32653 635.34694 Z" stroke="black" stroke-linecap="round" stroke-linejoin="round" stroke-width="5"/>
      </g>
      <g id="Graphic_14">
        <path d="M 62.509015 626.1143 L 56.13009 481.4694 L 231.5505 550.7143 L 226.7663 663.0449 L 198.06115 681.5102 Z" fill="#dcdcdc"/>
        <path d="M 62.509015 626.1143 L 56.13009 481.4694 L 231.5505 550.7143 L 226.7663 663.0449 L 198.06115 681.5102 Z" stroke="black" stroke-linecap="round" stroke-linejoin="round" stroke-width="5"/>
      </g>
      <g id="Graphic_6">
        <path d="M 280.98776 593.8 L 617.9796 249.1143 L 781.0898 332.20816 L 790.32245 481.4694 L 453.3306 820 L 370.23673 789.2245 L 294.83673 761.5265 Z" fill="#cbcbcb"/>
        <path d="M 280.98776 593.8 L 617.9796 249.1143 L 781.0898 332.20816 L 790.32245 481.4694 L 453.3306 820 L 370.23673 789.2245 L 294.83673 761.5265 Z" stroke="black" stroke-linecap="round" stroke-linejoin="round" stroke-width="5"/>
      </g>
      <g id="Graphic_15">
        <path d="M 300.15928 757.6796 L 293.78035 613.0347 L 469.20076 682.2796 L 464.41657 794.6102 L 435.7114 813.0755 Z" fill="#dcdcdc"/>
        <path d="M 300.15928 757.6796 L 293.78035 613.0347 L 469.20076 682.2796 L 464.41657 794.6102 L 435.7114 813.0755 Z" stroke="black" stroke-linecap="round" stroke-linejoin="round" stroke-width="5"/>
      </g>
      <g id="Graphic_7">
        <path d="M 76.33061 603.03265 L 70.17551 496.85714 L 207.12653 556.8694 L 205.58776 667.6612 Z" fill="#999"/>
        <path d="M 76.33061 603.03265 L 70.17551 496.85714 L 207.12653 556.8694 L 205.58776 667.6612 Z" stroke="black" stroke-linecap="round" stroke-linejoin="round" stroke-width="5"/>
      </g>
      <g id="Graphic_8">
        <path d="M 311.76327 733.8286 L 305.60816 627.65306 L 442.5592 687.6653 L 441.0204 798.4571 Z" fill="#999"/>
        <path d="M 311.76327 733.8286 L 305.60816 627.65306 L 442.5592 687.6653 L 441.0204 798.4571 Z" stroke="black" stroke-linecap="round" stroke-linejoin="round" stroke-width="5"/>
      </g>
      <g id="Graphic_9">
        <path d="M 181.73673 456.0796 L 165.985 454.1894 C 139.39397 450.99846 115.58106 436.196 100.95102 413.76327 L 97.92043 409.11636 C 85.73104 390.42597 85.71263 366.3049 97.87347 347.5959 L 97.87347 347.5959 C 110.95417 327.47176 129.34723 311.35865 151.01752 301.03947 L 208.07364 273.8699 C 233.52067 261.75226 254.7177 242.23608 268.8917 217.87452 L 296.3755 170.63673 C 296.3755 170.63673 319.45714 119.85714 320.9959 119.85714 C 322.5347 119.85714 362.54286 81.387755 362.54286 81.387755 L 396.3959 73.69388 C 417.9416 68.79713 440.55315 73.28831 458.59196 86.04747 L 461.7939 88.31224 C 481.4821 102.23806 492.8383 125.1387 492.0072 149.23982 L 491.8 155.24898 C 490.82217 183.6061 477.6462 210.15955 455.65586 228.09015 L 392.2071 279.8253 C 390.89636 280.89405 389.56634 281.939 388.2177 282.95956 L 351.74204 310.56278 C 339.5341 319.80122 328.92414 330.9795 320.3347 343.65246 L 272.04804 414.89506 C 252.0225 444.44095 217.17538 460.33223 181.73673 456.0796 Z" fill="#cbcbcb"/>
        <path d="M 181.73673 456.0796 L 165.985 454.1894 C 139.39397 450.99846 115.58106 436.196 100.95102 413.76327 L 97.92043 409.11636 C 85.73104 390.42597 85.71263 366.3049 97.87347 347.5959 L 97.87347 347.5959 C 110.95417 327.47176 129.34723 311.35865 151.01752 301.03947 L 208.07364 273.8699 C 233.52067 261.75226 254.7177 242.23608 268.8917 217.87452 L 296.3755 170.63673 C 296.3755 170.63673 319.45714 119.85714 320.9959 119.85714 C 322.5347 119.85714 362.54286 81.387755 362.54286 81.387755 L 396.3959 73.69388 C 417.9416 68.79713 440.55315 73.28831 458.59196 86.04747 L 461.7939 88.31224 C 481.4821 102.23806 492.8383 125.1387 492.0072 149.23982 L 491.8 155.24898 C 490.82217 183.6061 477.6462 210.15955 455.65586 228.09015 L 392.2071 279.8253 C 390.89636 280.89405 389.56634 281.939 388.2177 282.95956 L 351.74204 310.56278 C 339.5341 319.80122 328.92414 330.9795 320.3347 343.65246 L 272.04804 414.89506 C 252.0225 444.44095 217.17538 460.33223 181.73673 456.0796 Z" stroke="black" stroke-linecap="round" stroke-linejoin="round" stroke-width="5"/>
      </g>
      <g id="Graphic_10">
        <path d="M 409.4755 573.0265 L 393.7238 571.1363 C 367.13275 567.9454 343.31983 553.1429 328.6898 530.7102 L 325.6592 526.0633 C 313.4698 507.3729 313.4514 483.25184 325.61224 464.54286 L 325.61224 464.54286 C 338.69295 444.4187 357.086 428.3056 378.7563 417.9864 L 474.87347 372.21633 C 474.87347 372.21633 548.7347 224.49388 550.2735 224.49388 C 551.81224 224.49388 601.05306 192.1796 601.05306 192.1796 L 629.5204 187.56327 C 647.7653 184.60463 666.4425 188.92714 681.53254 199.60057 L 689.53265 205.25918 C 709.2209 219.185 720.5771 242.08564 719.746 266.18676 L 719.5388 272.19592 C 718.56094 300.55304 705.385 327.1065 683.3946 345.0371 L 619.9459 396.7722 C 618.6351 397.841 617.3051 398.88592 615.9565 399.9065 L 579.4808 427.5097 C 567.2729 436.74816 556.6629 447.92644 548.0735 460.5994 L 499.7868 531.842 C 479.76127 561.3879 444.91415 577.2792 409.4755 573.0265 Z" fill="#cbcbcb"/>
        <path d="M 409.4755 573.0265 L 393.7238 571.1363 C 367.13275 567.9454 343.31983 553.1429 328.6898 530.7102 L 325.6592 526.0633 C 313.4698 507.3729 313.4514 483.25184 325.61224 464.54286 L 325.61224 464.54286 C 338.69295 444.4187 357.086 428.3056 378.7563 417.9864 L 474.87347 372.21633 C 474.87347 372.21633 548.7347 224.49388 550.2735 224.49388 C 551.81224 224.49388 601.05306 192.1796 601.05306 192.1796 L 629.5204 187.56327 C 647.7653 184.60463 666.4425 188.92714 681.53254 199.60057 L 689.53265 205.25918 C 709.2209 219.185 720.5771 242.08564 719.746 266.18676 L 719.5388 272.19592 C 718.56094 300.55304 705.385 327.1065 683.3946 345.0371 L 619.9459 396.7722 C 618.6351 397.841 617.3051 398.88592 615.9565 399.9065 L 579.4808 427.5097 C 567.2729 436.74816 556.6629 447.92644 548.0735 460.5994 L 499.7868 531.842 C 479.76127 561.3879 444.91415 577.2792 409.4755 573.0265 Z" stroke="black" stroke-linecap="round" stroke-linejoin="round" stroke-width="5"/>
      </g>
      <g id="Graphic_11">
        <path d="M 403.30404 393.7592 L 403.30404 393.7592 C 404.7159 387.1234 409.65264 381.79607 416.16193 379.88396 L 434.31045 374.55284 C 439.2726 373.0952 444.6352 374.2422 448.56696 377.60204 L 448.56696 377.60204 C 450.6715 379.4005 450.91967 382.5645 449.12123 384.66904 C 448.5942 385.28576 447.9254 385.76536 447.1722 386.06664 L 411.23713 400.44066 C 408.2227 401.64643 404.80156 400.1802 403.5958 397.1658 C 403.16317 396.08425 403.0616 394.89855 403.30404 393.7592 Z" fill="#999"/>
        <path d="M 403.30404 393.7592 L 403.30404 393.7592 C 404.7159 387.1234 409.65264 381.79607 416.16193 379.88396 L 434.31045 374.55284 C 439.2726 373.0952 444.6352 374.2422 448.56696 377.60204 L 448.56696 377.60204 C 450.6715 379.4005 450.91967 382.5645 449.12123 384.66904 C 448.5942 385.28576 447.9254 385.76536 447.1722 386.06664 L 411.23713 400.44066 C 408.2227 401.64643 404.80156 400.1802 403.5958 397.1658 C 403.16317 396.08425 403.0616 394.89855 403.30404 393.7592 Z" stroke="black" stroke-linecap="round" stroke-linejoin="round" stroke-width="5"/>
      </g>
      <g id="Line_12">
        <path d="M 228.0099 544.5592 L 524.7127 224.4084 L 534.9712 212.44014" stroke="#888" stroke-linecap="round" stroke-linejoin="round" stroke-width="8"/>
      </g>
      <g id="Line_13">
        <path d="M 474.87347 672.03454 L 759.8034 358.6238 L 774.3363 341.5263" stroke="#888" stroke-linecap="round" stroke-linejoin="round" stroke-width="8"/>
      </g>
      <g id="Line_16">
        <line x1="113.94118" y1="351" x2="243.35294" y2="433.35294" stroke="#a9a9a9" stroke-linecap="round" stroke-linejoin="round" stroke-width="11"/>
      </g>
      <g id="Line_17">
        <line x1="158.05882" y1="324.5294" x2="258.05882" y2="398.0588" stroke="#a9a9a9" stroke-linecap="round" stroke-linejoin="round" stroke-width="11"/>
      </g>
      <g id="Line_18">
        <line x1="202.17647" y1="295.11765" x2="284.5294" y2="362.7647" stroke="#a9a9a9" stroke-linecap="round" stroke-linejoin="round" stroke-width="11"/>
      </g>
      <g id="Line_19">
        <line x1="244.4276" y1="269.35294" x2="311" y2="324.5294" stroke="#a9a9a9" stroke-linecap="round" stroke-linejoin="round" stroke-width="11"/>
      </g>
      <g id="Line_21">
        <line x1="337.91238" y1="462.20624" x2="467.32414" y2="544.5592" stroke="#a9a9a9" stroke-linecap="round" stroke-linejoin="round" stroke-width="11"/>
      </g>
      <g id="Line_22">
        <line x1="382.03003" y1="435.73565" x2="482.03" y2="509.26507" stroke="#a9a9a9" stroke-linecap="round" stroke-linejoin="round" stroke-width="11"/>
      </g>
      <g id="Line_23">
        <line x1="426.14767" y1="406.3239" x2="508.5006" y2="473.97095" stroke="#a9a9a9" stroke-linecap="round" stroke-linejoin="round" stroke-width="11"/>
      </g>
      <g id="Line_24">
        <line x1="477.1155" y1="394.2558" x2="534.5294" y2="439.2353" stroke="#a9a9a9" stroke-linecap="round" stroke-linejoin="round" stroke-width="11"/>
      </g>
      <g id="Line_25">
        <line x1="702.1765" y1="289.2353" x2="580.58915" y2="224.37347" stroke="#a9a9a9" stroke-linecap="round" stroke-linejoin="round" stroke-width="11"/>
      </g>
      <g id="Line_26">
        <line x1="665.8833" y1="333.197" x2="565.8833" y2="259.6676" stroke="#a9a9a9" stroke-linecap="round" stroke-linejoin="round" stroke-width="11"/>
      </g>
      <g id="Line_27">
        <line x1="621.7656" y1="362.60876" x2="539.4127" y2="294.9617" stroke="#a9a9a9" stroke-linecap="round" stroke-linejoin="round" stroke-width="11"/>
      </g>
      <g id="Line_28">
        <line x1="579.5145" y1="388.37347" x2="512.9421" y2="333.197" stroke="#a9a9a9" stroke-linecap="round" stroke-linejoin="round" stroke-width="11"/>
      </g>
      <g id="Line_29">
        <line x1="466.88235" y1="177.47059" x2="352.61826" y2="105.35294" stroke="#a9a9a9" stroke-linecap="round" stroke-linejoin="round" stroke-width="11"/>
      </g>
      <g id="Line_30">
        <line x1="437.9124" y1="214.17647" x2="337.91238" y2="140.64706" stroke="#a9a9a9" stroke-linecap="round" stroke-linejoin="round" stroke-width="11"/>
      </g>
      <g id="Line_31">
        <line x1="393.79473" y1="243.58824" x2="311.4418" y2="175.94118" stroke="#a9a9a9" stroke-linecap="round" stroke-linejoin="round" stroke-width="11"/>
      </g>
      <g id="Line_32">
        <line x1="351.5436" y1="269.35294" x2="284.9712" y2="214.17647" stroke="#a9a9a9" stroke-linecap="round" stroke-linejoin="round" stroke-width="11"/>
      </g>
    </g>
  </g>
</svg>
