<?xml version="1.0" encoding="UTF-8" standalone="no"?>
<!DOCTYPE svg PUBLIC "-//W3C//DTD SVG 1.1//EN" "http://www.w3.org/Graphics/SVG/1.1/DTD/svg11.dtd">
<svg version="1.1" xmlns="http://www.w3.org/2000/svg" xmlns:xl="http://www.w3.org/1999/xlink" xmlns:dc="http://purl.org/dc/elements/1.1/" viewBox="0 0 850.394 850.394" width="850.394" height="850.394">
  <defs/>
  <metadata> Produced by OmniGraffle 7.9.4 
    <dc:date>2019-04-22 12:44:15 +0000</dc:date>
  </metadata>
  <g id="radio" stroke-opacity="1" stroke="none" fill-opacity="1" stroke-dasharray="none" fill="none">
    <title>radio</title>
    <g id="radio: Layer 1">
      <title>Layer 1</title>
      <g id="Graphic_20">
        <path d="M 34 770.5 L 34 356.05 L 110.17846 310 L 795.7846 310 L 795.7846 724.45 L 719.6061 770.5 Z" fill="#666"/>
        <path d="M 34 770.5 L 34 356.05 L 110.17846 310 L 795.7846 310 L 795.7846 724.45 L 719.6061 770.5 L 34 770.5 M 34 356.05 L 719.6061 356.05 L 795.7846 310 M 719.6061 356.05 L 719.6061 770.5" stroke="black" stroke-linecap="round" stroke-linejoin="round" stroke-width="11"/>
      </g>
      <g id="Graphic_15">
        <rect x="182.45279" y="606" width="502" height="120" fill="black"/>
        <rect x="182.45279" y="606" width="502" height="120" stroke="#9d9d9d" stroke-linecap="round" stroke-linejoin="round" stroke-width="6"/>
      </g>
      <g id="Graphic_14">
        <path d="M 200.43797 697.41135 L 221.92229 667.6526 C 221.92229 667.6526 249.19085 647.0244 249.19085 646.6862 C 249.19085 646.34806 274.80676 633.4977 274.80676 633.4977 L 291.33316 651.7587 C 291.33316 651.7587 310.33852 662.2419 311.99116 670.0198 C 313.6438 677.7976 340.91236 686.92816 340.91236 686.92816 C 340.91236 686.92816 359.91772 676.7831 359.91772 675.4305 C 359.91772 674.0778 358.2651 664.2709 359.91772 660.2129 C 361.57036 656.1549 372.3125 646.6862 375.6178 646.34806 C 378.9231 646.0099 405.3653 642.9664 406.19164 643.30455 C 407.01796 643.6427 412.8022 641.9519 413.6285 645.6717 C 414.45484 649.3916 433.4602 673.7396 433.4602 674.41596 C 433.4602 675.0923 424.3707 696.735 445.855 685.5755 C 467.3393 674.41596 469.8183 670.35795 469.8183 670.35795 C 469.8183 670.35795 459.90244 652.0969 461.5551 643.30455 C 463.2077 634.5122 507.0027 622 507.829 622 C 508.6553 622 533.4449 623.0145 534.27124 623.69084 C 535.09756 624.3672 553.2766 649.0534 553.2766 653.4496 C 553.2766 657.84575 565.6714 675.0923 566.4977 680.503 C 567.32404 685.91365 576.41356 685.91365 579.71884 685.91365 C 583.0241 685.91365 597.8979 673.0633 598.7242 673.0633 C 599.5505 673.0633 610.2927 667.9908 611.119 667.9908 C 611.9453 667.9908 639.2139 666.2999 639.2139 666.2999 L 649.956 667.6526 L 641.6928 668.6671 L 622.6875 668.6671 C 622.6875 668.6671 611.9453 672.7251 611.119 672.7251 C 610.2927 672.7251 602.0295 679.4885 602.0295 679.4885 L 592.1136 686.92816 L 573.1083 689.9717 C 573.1083 689.9717 556.5819 686.2518 556.5819 685.91365 C 556.5819 685.5755 555.75556 672.7251 555.75556 672.7251 L 545.0134 657.5076 C 545.0134 657.5076 539.22916 648.7152 538.40284 648.0389 C 537.5765 647.36256 529.3133 634.174 529.3133 633.83586 C 529.3133 633.4977 519.3975 629.4397 518.57116 629.1015 C 517.74484 628.76335 502.8711 629.77785 502.8711 629.77785 L 483.0394 635.8649 L 473.12356 643.30455 L 473.12356 650.4061 C 473.12356 650.4061 478.9078 659.87476 479.7341 659.87476 C 480.56044 659.87476 480.56044 673.0633 480.56044 673.0633 C 480.56044 673.0633 478.9078 677.7976 477.25516 678.1358 C 475.6025 678.474 461.5551 686.59 461.5551 686.92816 C 461.5551 687.2663 445.855 693.3533 445.0287 693.3533 C 444.20236 693.3533 435.11284 693.3533 435.11284 693.3533 L 421.0654 691.6625 L 417.7601 678.474 C 417.7601 678.474 416.1075 672.0488 416.1075 671.7106 C 416.1075 671.37245 407.01796 659.5366 407.01796 659.5366 L 396.2758 647.36256 L 387.1863 651.0824 C 387.1863 651.0824 378.09676 660.5511 377.27044 660.5511 C 376.4441 660.5511 373.13884 666.9763 373.13884 667.31444 C 373.13884 667.6526 373.13884 678.8121 373.13884 678.8121 L 365.70196 685.5755 L 349.17556 693.3533 L 333.4755 695.38234 C 333.4755 695.38234 321.0807 686.92816 319.42804 686.92816 C 317.7754 686.92816 300.4227 677.7976 300.4227 677.7976 L 290.50684 671.0343 L 285.54892 661.5656 L 273.98044 652.77324 L 273.98044 643.6427 L 262.41197 646.6862 C 262.41197 646.6862 260.75933 653.78774 259.933 654.1259 C 259.1067 654.4641 245.88557 665.6236 245.05925 665.6236 C 244.23293 665.6236 200.43797 697.41135 200.43797 697.41135 Z" fill="lime"/>
      </g>
      <g id="Graphic_13">
        <ellipse cx="126.19091" cy="469.1574" rx="54.1909956826655" ry="56.4489538361098" fill="#999"/>
        <ellipse cx="126.19091" cy="469.1574" rx="54.1909956826655" ry="56.4489538361098" stroke="black" stroke-linecap="round" stroke-linejoin="round" stroke-width="5"/>
      </g>
      <g id="Graphic_21">
        <ellipse cx="109.6" cy="475.4678" rx="57.6000920391492" ry="60.0000958741137" fill="#999"/>
        <ellipse cx="109.6" cy="475.4678" rx="57.6000920391492" ry="60.0000958741137" stroke="black" stroke-linecap="round" stroke-linejoin="round" stroke-width="5"/>
      </g>
      <g id="Line_22">
        <line x1="219" y1="473.58817" x2="672.4528" y2="473.58817" stroke="black" stroke-linecap="round" stroke-linejoin="round" stroke-width="30"/>
      </g>
      <g id="Line_23">
        <line x1="263.9264" y1="403" x2="263.9264" y2="545.17634" stroke="black" stroke-linecap="round" stroke-linejoin="round" stroke-width="5"/>
      </g>
      <g id="Line_24">
        <line x1="341.2996" y1="403" x2="341.2996" y2="545.17634" stroke="black" stroke-linecap="round" stroke-linejoin="round" stroke-width="5"/>
      </g>
      <g id="Line_25">
        <line x1="418.6728" y1="403" x2="418.6728" y2="545.17634" stroke="black" stroke-linecap="round" stroke-linejoin="round" stroke-width="5"/>
      </g>
      <g id="Line_27">
        <line x1="496.04604" y1="407.58817" x2="496.04604" y2="549.7645" stroke="black" stroke-linecap="round" stroke-linejoin="round" stroke-width="5"/>
      </g>
      <g id="Line_28">
        <line x1="573.41925" y1="407.58817" x2="573.41925" y2="549.7645" stroke="black" stroke-linecap="round" stroke-linejoin="round" stroke-width="5"/>
      </g>
      <g id="Line_29">
        <line x1="650.7925" y1="407.58817" x2="650.7925" y2="549.7645" stroke="black" stroke-linecap="round" stroke-linejoin="round" stroke-width="5"/>
      </g>
      <g id="Line_30">
        <line x1="109.6" y1="475.4678" x2="141.28571" y2="431.38095" stroke="black" stroke-linecap="round" stroke-linejoin="round" stroke-width="6"/>
      </g>
      <g id="Graphic_34">
        <path d="M 179.85369 183.0697 L 174.5347 202.9204 L 329.68366 244.49245 L 335.00264 224.64174 Z" fill="#999"/>
        <path d="M 179.85369 183.0697 L 174.5347 202.9204 L 329.68366 244.49245 L 335.00264 224.64174 Z" stroke="black" stroke-linecap="round" stroke-linejoin="round" stroke-width="7"/>
      </g>
      <g id="Graphic_35">
        <path d="M 151.85785 199.92643 C 157.32793 208.96964 169.26807 212.169 178.5269 207.07238 C 187.78576 201.9758 190.85714 190.51328 185.387 181.4701 C 179.91693 172.42688 167.9768 169.22753 158.71797 174.32414 C 149.4591 179.42071 146.38773 190.88324 151.85785 199.92643" fill="#999"/>
        <path d="M 151.85785 199.92643 C 157.32793 208.96964 169.26807 212.169 178.5269 207.07238 C 187.78576 201.9758 190.85714 190.51328 185.387 181.4701 C 179.91693 172.42688 167.9768 169.22753 158.71797 174.32414 C 149.4591 179.42071 146.38773 190.88324 151.85785 199.92643" stroke="black" stroke-linecap="round" stroke-linejoin="round" stroke-width="7"/>
      </g>
      <g id="Graphic_33">
        <path d="M 268.9657 203.6559 L 262.00106 229.64825 L 465.1519 284.08236 L 472.11653 258.09 Z" fill="#999"/>
        <path d="M 268.9657 203.6559 L 262.00106 229.64825 L 465.1519 284.08236 L 472.11653 258.09 Z" stroke="black" stroke-linecap="round" stroke-linejoin="round" stroke-width="7"/>
      </g>
      <g id="Graphic_32">
        <path d="M 435.28237 244.6939 L 426.55454 277.26662 L 681.136 345.4815 L 701.20084 331.11664 L 689.8638 312.9088 Z" fill="#999"/>
        <path d="M 435.28237 244.6939 L 426.55454 277.26662 L 681.136 345.4815 L 701.20084 331.11664 L 689.8638 312.9088 Z" stroke="black" stroke-linecap="round" stroke-linejoin="round" stroke-width="7"/>
      </g>
      <g id="Line_38">
        <path d="M 102.33169 42 L 102.33169 42 C 98.44811 79.7907 70.95187 110.92345 33.930754 119.44729 L 26 121.27329" stroke="#235e00" stroke-linecap="round" stroke-linejoin="round" stroke-width="12"/>
      </g>
      <g id="Line_37">
        <path d="M 135.6577 84 L 135.6577 84 C 129.48794 122.24382 99.71837 152.3524 61.546864 158.95482 L 56 159.91424" stroke="#235e00" stroke-linecap="round" stroke-linejoin="round" stroke-width="9"/>
      </g>
      <g id="Line_36">
        <path d="M 167.2 111.21693 L 167.2 111.21693 C 161.03024 149.46075 131.26067 179.56934 93.08916 186.17175 L 87.5423 187.13118" stroke="#235e00" stroke-linecap="round" stroke-linejoin="round" stroke-width="6"/>
      </g>
    </g>
  </g>
</svg>
