<?xml version="1.0" encoding="UTF-8" standalone="no"?>
<!DOCTYPE svg PUBLIC "-//W3C//DTD SVG 1.1//EN" "http://www.w3.org/Graphics/SVG/1.1/DTD/svg11.dtd">
<svg xmlns="http://www.w3.org/2000/svg" version="1.1" xmlns:dc="http://purl.org/dc/elements/1.1/" xmlns:xl="http://www.w3.org/1999/xlink" viewBox="0 0 850.394 850.394" width="850.394" height="850.394">
  <defs/>
  <metadata> Produced by OmniGraffle 7.9.4 
    <dc:date>2019-03-11 02:35:04 +0000</dc:date>
  </metadata>
  <g id="Random" fill="none" stroke-opacity="1" fill-opacity="1" stroke-dasharray="none" stroke="none">
    <title>Random</title>
    <g id="Random: Layer 1">
      <title>Layer 1</title>
      <g id="Graphic_20">
        <path d="M 526.2388 455.70055 L 634.37195 599.1981 L 779.3045 489.9836 L 671.1713 346.48607 Z" fill="#bf0029"/>
        <path d="M 526.2388 455.70055 L 634.37195 599.1981 L 779.3045 489.9836 L 671.1713 346.48607 Z" stroke="black" stroke-linecap="round" stroke-linejoin="round" stroke-width="6"/>
      </g>
      <g id="Graphic_21">
        <path d="M 550.3174 319.85794 L 681.5509 494.0107 L 507.39816 625.2442 L 376.16463 451.09146 Z" fill="#bf0029"/>
        <path d="M 550.3174 319.85794 L 681.5509 494.0107 L 507.39816 625.2442 L 376.16463 451.09146 Z" stroke="black" stroke-linecap="round" stroke-linejoin="round" stroke-width="6"/>
      </g>
      <g id="Graphic_22">
        <path d="M 647.5425 315.12954 L 779.3045 489.9836 L 682.0794 494.712 L 550.3174 319.85794 Z" fill="#bf0029"/>
        <path d="M 647.5425 315.12954 L 779.3045 489.9836 L 682.0794 494.712 L 550.3174 319.85794 Z" stroke="black" stroke-linecap="round" stroke-linejoin="round" stroke-width="6"/>
      </g>
      <g id="Graphic_23">
        <path d="M 633.20314 600.07884 L 775.798 492.6259 L 679.7894 491.6731 L 506.22935 626.125 Z" fill="#bf0029"/>
        <path d="M 633.20314 600.07884 L 775.798 492.6259 L 679.7894 491.6731 L 506.22935 626.125 Z" stroke="black" stroke-linecap="round" stroke-linejoin="round" stroke-width="6"/>
      </g>
      <g id="Graphic_24">
        <path d="M 642.6891 345.0066 C 642.5981 341.72818 645.18206 339.14425 648.4605 339.23524 C 651.7389 339.3262 654.47036 342.05766 654.5613 345.3361 C 654.6523 348.6145 652.0684 351.19844 648.79 351.10745 C 645.51154 351.01647 642.7801 348.28503 642.6891 345.0066" fill="black"/>
        <path d="M 642.6891 345.0066 C 642.5981 341.72818 645.18206 339.14425 648.4605 339.23524 C 651.7389 339.3262 654.47036 342.05766 654.5613 345.3361 C 654.6523 348.6145 652.0684 351.19844 648.79 351.10745 C 645.51154 351.01647 642.7801 348.28503 642.6891 345.0066" stroke="black" stroke-linecap="round" stroke-linejoin="round" stroke-width="1"/>
      </g>
      <g id="Graphic_25">
        <path d="M 668.8719 399.9779 C 663.8152 401.39853 657.8977 398.6999 655.6549 393.9503 C 653.4121 389.20073 655.6932 384.1988 660.75 382.7782 C 665.8067 381.3576 671.7241 384.05623 673.9669 388.8058 C 676.2098 393.5554 673.9286 398.5573 668.8719 399.9779" fill="black"/>
        <path d="M 668.8719 399.9779 C 663.8152 401.39853 657.8977 398.6999 655.6549 393.9503 C 653.4121 389.20073 655.6932 384.1988 660.75 382.7782 C 665.8067 381.3576 671.7241 384.05623 673.9669 388.8058 C 676.2098 393.5554 673.9286 398.5573 668.8719 399.9779" stroke="black" stroke-linecap="round" stroke-linejoin="round" stroke-width="1"/>
      </g>
      <g id="Graphic_26">
        <path d="M 672.796 447.42507 C 669.2899 441.3216 671.5062 433.7335 677.74626 430.47663 C 683.9863 427.2197 691.8871 429.52734 695.39315 435.63085 C 698.8993 441.73434 696.683 449.3224 690.4429 452.5793 C 684.2029 455.8362 676.3021 453.5286 672.796 447.42507" fill="black"/>
        <path d="M 672.796 447.42507 C 669.2899 441.3216 671.5062 433.7335 677.74626 430.47663 C 683.9863 427.2197 691.8871 429.52734 695.39315 435.63085 C 698.8993 441.73434 696.683 449.3224 690.4429 452.5793 C 684.2029 455.8362 676.3021 453.5286 672.796 447.42507" stroke="black" stroke-linecap="round" stroke-linejoin="round" stroke-width="1"/>
      </g>
      <g id="Graphic_27">
        <path d="M 541.8962 474.2015 C 539.8444 479.5809 533.6 483.04856 527.949 481.94674 C 522.29796 480.84494 519.38026 475.5909 521.4321 470.2115 C 523.48395 464.8321 529.72833 461.36444 535.37935 462.46627 C 541.0304 463.56806 543.9481 468.8221 541.8962 474.2015" fill="black"/>
        <path d="M 541.8962 474.2015 C 539.8444 479.5809 533.6 483.04856 527.949 481.94674 C 522.29796 480.84494 519.38026 475.5909 521.4321 470.2115 C 523.48395 464.8321 529.72833 461.36444 535.37935 462.46627 C 541.0304 463.56806 543.9481 468.8221 541.8962 474.2015" stroke="black" stroke-linecap="round" stroke-linejoin="round" stroke-width="1"/>
      </g>
      <g id="Graphic_28">
        <path d="M 634.6421 569.62825 C 627.7426 570.8046 624.60776 566.6445 627.6403 560.3365 C 630.6728 554.0285 638.7242 547.9613 645.62374 546.785 C 652.5233 545.6087 655.6581 549.7687 652.6256 556.07674 C 649.5931 562.38475 641.5416 568.45196 634.6421 569.62825" fill="black"/>
        <path d="M 634.6421 569.62825 C 627.7426 570.8046 624.60776 566.6445 627.6403 560.3365 C 630.6728 554.0285 638.7242 547.9613 645.62374 546.785 C 652.5233 545.6087 655.6581 549.7687 652.6256 556.07674 C 649.5931 562.38475 641.5416 568.45196 634.6421 569.62825" stroke="black" stroke-linecap="round" stroke-linejoin="round" stroke-width="1"/>
      </g>
      <g id="Graphic_29">
        <path d="M 447.1524 465.44676 C 445.1006 470.82616 438.8562 474.2938 433.2052 473.192 C 427.55416 472.0902 424.63647 466.83617 426.6883 461.4568 C 428.74016 456.07737 434.98454 452.6097 440.63555 453.71153 C 446.2866 454.8133 449.2043 460.06736 447.1524 465.44676" fill="black"/>
        <path d="M 447.1524 465.44676 C 445.1006 470.82616 438.8562 474.2938 433.2052 473.192 C 427.55416 472.0902 424.63647 466.83617 426.6883 461.4568 C 428.74016 456.07737 434.98454 452.6097 440.63555 453.71153 C 446.2866 454.8133 449.2043 460.06736 447.1524 465.44676" stroke="black" stroke-linecap="round" stroke-linejoin="round" stroke-width="1"/>
      </g>
      <g id="Graphic_30">
        <path d="M 525.3659 569.2396 C 523.3141 574.619 517.0697 578.08665 511.4187 576.9848 C 505.76767 575.883 502.84997 570.629 504.9018 565.2496 C 506.95366 559.8702 513.19804 556.4025 518.84906 557.50435 C 524.5001 558.60615 527.4178 563.8602 525.3659 569.2396" fill="black"/>
        <path d="M 525.3659 569.2396 C 523.3141 574.619 517.0697 578.08665 511.4187 576.9848 C 505.76767 575.883 502.84997 570.629 504.9018 565.2496 C 506.95366 559.8702 513.19804 556.4025 518.84906 557.50435 C 524.5001 558.60615 527.4178 563.8602 525.3659 569.2396" stroke="black" stroke-linecap="round" stroke-linejoin="round" stroke-width="1"/>
      </g>
      <g id="Graphic_31">
        <path d="M 631.0835 489.57567 C 629.0317 494.95507 622.7873 498.4227 617.1363 497.3209 C 611.48526 496.2191 608.56756 490.9651 610.6194 485.5857 C 612.67125 480.2063 618.9156 476.7386 624.56665 477.84044 C 630.2177 478.94223 633.1354 484.19627 631.0835 489.57567" fill="black"/>
        <path d="M 631.0835 489.57567 C 629.0317 494.95507 622.7873 498.4227 617.1363 497.3209 C 611.48526 496.2191 608.56756 490.9651 610.6194 485.5857 C 612.67125 480.2063 618.9156 476.7386 624.56665 477.84044 C 630.2177 478.94223 633.1354 484.19627 631.0835 489.57567" stroke="black" stroke-linecap="round" stroke-linejoin="round" stroke-width="1"/>
      </g>
      <g id="Graphic_32">
        <path d="M 540.65726 394.9858 C 538.6054 400.3652 532.36104 403.83287 526.71 402.73105 C 521.059 401.62926 518.1413 396.3752 520.19317 390.9958 C 522.245 385.6164 528.4894 382.14876 534.1404 383.2506 C 539.7914 384.35237 542.7091 389.6064 540.65726 394.9858" fill="black"/>
        <path d="M 540.65726 394.9858 C 538.6054 400.3652 532.36104 403.83287 526.71 402.73105 C 521.059 401.62926 518.1413 396.3752 520.19317 390.9958 C 522.245 385.6164 528.4894 382.14876 534.1404 383.2506 C 539.7914 384.35237 542.7091 389.6064 540.65726 394.9858" stroke="black" stroke-linecap="round" stroke-linejoin="round" stroke-width="1"/>
      </g>
      <g id="Graphic_3">
        <path d="M 239.83984 594.834 L 453.9287 471.22973 L 329.0884 255 L 114.99954 378.60425 Z" fill="#4040ff"/>
        <path d="M 239.83984 594.834 L 453.9287 471.22973 L 329.0884 255 L 114.99954 378.60425 Z" stroke="black" stroke-linecap="round" stroke-linejoin="round" stroke-width="9"/>
      </g>
      <g id="Graphic_2">
        <path d="M 58.37271 539.17557 L 318.19715 389.16586 L 468.20685 648.9903 L 208.38242 799 Z" fill="red"/>
        <path d="M 58.37271 539.17557 L 318.19715 389.16586 L 468.20685 648.9903 L 208.38242 799 Z" stroke="black" stroke-linecap="round" stroke-linejoin="round" stroke-width="9"/>
      </g>
      <g id="Graphic_4">
        <path d="M 68.21768 405.61377 L 329.0884 255 L 319.2434 388.5618 L 58.37271 539.17557 Z" fill="red"/>
        <path d="M 68.21768 405.61377 L 329.0884 255 L 319.2434 388.5618 L 58.37271 539.17557 Z" stroke="black" stroke-linecap="round" stroke-linejoin="round" stroke-width="9"/>
      </g>
      <g id="Graphic_5">
        <path d="M 454.93545 472.9735 L 332.1087 260.23136 L 314.70957 391.1794 L 469.21363 650.7341 Z" fill="red"/>
        <path d="M 454.93545 472.9735 L 332.1087 260.23136 L 314.70957 391.1794 L 469.21363 650.7341 Z" stroke="black" stroke-linecap="round" stroke-linejoin="round" stroke-width="9"/>
      </g>
      <g id="Graphic_11">
        <ellipse cx="235.44852" cy="521.19056" rx="16.8859625498735" ry="17.9850311837536" fill="black"/>
        <ellipse cx="235.44852" cy="521.19056" rx="16.8859625498735" ry="17.9850311837536" stroke="black" stroke-linecap="round" stroke-linejoin="round" stroke-width="1"/>
      </g>
      <g id="Graphic_15">
        <path d="M 372.30378 386.123 C 368.6769 392.85525 361.56367 393.72865 356.41587 388.0738 C 351.26805 382.419 350.0351 372.37733 353.66197 365.64512 C 357.28883 358.9129 364.4021 358.0395 369.5499 363.69433 C 374.6977 369.34915 375.93066 379.3908 372.30378 386.123" fill="black"/>
        <path d="M 372.30378 386.123 C 368.6769 392.85525 361.56367 393.72865 356.41587 388.0738 C 351.26805 382.419 350.0351 372.37733 353.66197 365.64512 C 357.28883 358.9129 364.4021 358.0395 369.5499 363.69433 C 374.6977 369.34915 375.93066 379.3908 372.30378 386.123" stroke="black" stroke-linecap="round" stroke-linejoin="round" stroke-width="1"/>
      </g>
      <g id="Graphic_16">
        <ellipse cx="235.44852" cy="718.10544" rx="16.8859625498735" ry="17.9850311837536" fill="black"/>
        <ellipse cx="235.44852" cy="718.10544" rx="16.8859625498735" ry="17.9850311837536" stroke="black" stroke-linecap="round" stroke-linejoin="round" stroke-width="1"/>
      </g>
      <g id="Graphic_17">
        <ellipse cx="390.30056" cy="628.7016" rx="16.8859625498735" ry="17.9850311837537" fill="black"/>
        <ellipse cx="390.30056" cy="628.7016" rx="16.8859625498735" ry="17.9850311837537" stroke="black" stroke-linecap="round" stroke-linejoin="round" stroke-width="1"/>
      </g>
      <g id="Graphic_18">
        <ellipse cx="299.23876" cy="470.9779" rx="16.8859625498735" ry="17.9850311837535" fill="black"/>
        <ellipse cx="299.23876" cy="470.9779" rx="16.8859625498735" ry="17.9850311837535" stroke="black" stroke-linecap="round" stroke-linejoin="round" stroke-width="1"/>
      </g>
      <g id="Graphic_19">
        <ellipse cx="154.9064" cy="578.6024" rx="16.8859625498735" ry="17.9850311837536" fill="black"/>
        <ellipse cx="154.9064" cy="578.6024" rx="16.8859625498735" ry="17.9850311837536" stroke="black" stroke-linecap="round" stroke-linejoin="round" stroke-width="1"/>
      </g>
      <g id="Graphic_33">
        <ellipse cx="319.75422" cy="670.7326" rx="16.8859625498735" ry="17.9850311837536" fill="black"/>
        <ellipse cx="319.75422" cy="670.7326" rx="16.8859625498735" ry="17.9850311837536" stroke="black" stroke-linecap="round" stroke-linejoin="round" stroke-width="1"/>
      </g>
      <g id="Graphic_34">
        <path d="M 441.56617 545.15583 C 438.22146 554.1859 431.1082 555.0593 425.67827 547.1066 C 420.2483 539.154 418.5579 525.3868 421.90266 516.3568 C 425.2474 507.3267 432.36063 506.4533 437.79057 514.406 C 443.2205 522.3586 444.9109 536.1258 441.56617 545.15583" fill="black"/>
        <path d="M 441.56617 545.15583 C 438.22146 554.1859 431.1082 555.0593 425.67827 547.1066 C 420.2483 539.154 418.5579 525.3868 421.90266 516.3568 C 425.2474 507.3267 432.36063 506.4533 437.79057 514.406 C 443.2205 522.3586 444.9109 536.1258 441.56617 545.15583" stroke="black" stroke-linecap="round" stroke-linejoin="round" stroke-width="1"/>
      </g>
      <g id="Graphic_35">
        <path d="M 273.4067 325.1539 C 273.4107 331.0276 268.88442 337.2575 263.29698 339.06876 C 257.70954 340.88007 253.17682 337.58685 253.17286 331.71316 C 253.16887 325.83947 257.69514 319.6096 263.28258 317.7983 C 268.87002 315.987 273.40275 319.28022 273.4067 325.1539" fill="black"/>
        <path d="M 273.4067 325.1539 C 273.4107 331.0276 268.88442 337.2575 263.29698 339.06876 C 257.70954 340.88007 253.17682 337.58685 253.17286 331.71316 C 253.16887 325.83947 257.69514 319.6096 263.28258 317.7983 C 268.87002 315.987 273.40275 319.28022 273.4067 325.1539" stroke="black" stroke-linecap="round" stroke-linejoin="round" stroke-width="1"/>
      </g>
      <g id="Graphic_36">
        <path d="M 123.20018 461.6378 C 123.63491 470.63524 116.94153 479.8479 108.2501 482.2148 C 99.55866 484.58177 92.16049 479.2067 91.7258 470.2092 C 91.29107 461.21173 97.98445 451.9991 106.67589 449.63217 C 115.36732 447.2652 122.7655 452.6403 123.20018 461.6378" fill="black"/>
        <path d="M 123.20018 461.6378 C 123.63491 470.63524 116.94153 479.8479 108.2501 482.2148 C 99.55866 484.58177 92.16049 479.2067 91.7258 470.2092 C 91.29107 461.21173 97.98445 451.9991 106.67589 449.63217 C 115.36732 447.2652 122.7655 452.6403 123.20018 461.6378" stroke="black" stroke-linecap="round" stroke-linejoin="round" stroke-width="1"/>
      </g>
      <g id="Graphic_38">
        <path d="M 204.44146 390.86185 C 204.8312 398.92845 198.83032 407.18797 191.03808 409.31 C 183.24584 411.4321 176.61307 406.6131 176.22336 398.5465 C 175.8336 390.4799 181.8345 382.22036 189.62674 380.0983 C 197.41897 377.97624 204.05175 382.79523 204.44146 390.86185" fill="black"/>
        <path d="M 204.44146 390.86185 C 204.8312 398.92845 198.83032 407.18797 191.03808 409.31 C 183.24584 411.4321 176.61307 406.6131 176.22336 398.5465 C 175.8336 390.4799 181.8345 382.22036 189.62674 380.0983 C 197.41897 377.97624 204.05175 382.79523 204.44146 390.86185" stroke="black" stroke-linecap="round" stroke-linejoin="round" stroke-width="1"/>
      </g>
      <g id="Line_40">
        <path d="M 335 239.1174 L 453.48483 137.1914 L 535.4776 40.47059" stroke="black" stroke-linecap="round" stroke-linejoin="round" stroke-dasharray="8.0,32.0" stroke-width="8"/>
      </g>
      <g id="Line_41">
        <path d="M 615.5882 287.5294 L 611.4848 199.33502 L 598.7984 52.235294" stroke="black" stroke-linecap="round" stroke-linejoin="round" stroke-dasharray="8.0,32.0" stroke-width="8"/>
      </g>
      <g id="Line_42">
        <path d="M 445.63863 328.7059 L 540.9349 146.33502 L 580.05424 50" stroke="black" stroke-linecap="round" stroke-linejoin="round" stroke-dasharray="8.0,32.0" stroke-width="8"/>
      </g>
    </g>
  </g>
</svg>
