<?xml version="1.0" encoding="UTF-8" standalone="no"?>
<!DOCTYPE svg PUBLIC "-//W3C//DTD SVG 1.1//EN" "http://www.w3.org/Graphics/SVG/1.1/DTD/svg11.dtd">
<svg xmlns="http://www.w3.org/2000/svg" version="1.1" xmlns:dc="http://purl.org/dc/elements/1.1/" xmlns:xl="http://www.w3.org/1999/xlink" viewBox="0 0 850.394 850.394" width="850.394" height="850.394">
  <defs/>
  <metadata> Produced by OmniGraffle 7.9.4 
    <dc:date>2019-03-11 12:19:06 +0000</dc:date>
  </metadata>
  <g id="record" fill="none" stroke-opacity="1" fill-opacity="1" stroke-dasharray="none" stroke="none">
    <title>record</title>
    <g id="record: Layer 1">
      <title>Layer 1</title>
      <g id="Graphic_8">
        <path d="M 685.9724 176.02763 C 827.3428 317.3973 827.3428 546.6027 685.9724 687.9724 C 544.6027 829.3428 315.3973 829.3428 174.02763 687.9724 C 32.657216 546.6027 32.657216 317.3973 174.02763 176.02763 C 315.3973 34.657216 544.6027 34.657216 685.9724 176.02763" fill="red"/>
        <path d="M 685.9724 176.02763 C 827.3428 317.3973 827.3428 546.6027 685.9724 687.9724 C 544.6027 829.3428 315.3973 829.3428 174.02763 687.9724 C 32.657216 546.6027 32.657216 317.3973 174.02763 176.02763 C 315.3973 34.657216 544.6027 34.657216 685.9724 176.02763" stroke="black" stroke-linecap="round" stroke-linejoin="round" stroke-width="12"/>
      </g>
      <g id="Graphic_20">
        <circle cx="484.1935" cy="505.1557" r="63.9134662837283" fill="#a5a5a5"/>
        <circle cx="484.1935" cy="505.1557" r="63.9134662837283" stroke="black" stroke-linecap="round" stroke-linejoin="round" stroke-width="18"/>
      </g>
      <g id="Graphic_19">
        <path d="M 549.93145 510.0761 L 650.833 643.4433 C 658.8771 651.4874 660.7645 651.22026 643.4545 668.5303 C 626.1444 685.8404 627.1494 678.788 619.1053 670.7439 L 487.21384 572.7937 C 479.16975 564.74965 486.68996 544.17237 504 526.8623 C 521.3101 509.55224 541.88736 502.03203 549.93145 510.0761 Z" fill="#666"/>
        <path d="M 549.93145 510.0761 L 650.833 643.4433 C 658.8771 651.4874 660.7645 651.22026 643.4545 668.5303 C 626.1444 685.8404 627.1494 678.788 619.1053 670.7439 L 487.21384 572.7937 C 479.16975 564.74965 486.68996 544.17237 504 526.8623 C 521.3101 509.55224 541.88736 502.03203 549.93145 510.0761 Z" stroke="black" stroke-linecap="round" stroke-linejoin="round" stroke-width="7"/>
      </g>
      <g id="Graphic_18">
        <path d="M 322 337.88813 L 345.11316 332.3221 C 345.11316 332.3221 363.075 331.82434 363.29936 331.6948 C 363.52373 331.56526 376.06584 333.59825 376.06584 333.59825 L 366.54043 345.0811 C 366.54043 345.0811 362.5643 354.25757 357.66274 357.6858 C 352.7612 361.11406 350.978 372.0161 350.978 372.0161 C 350.978 372.0161 360.68874 373.29045 361.58624 372.77228 C 362.48374 372.2541 368.73154 368.0486 371.68313 366.94283 C 374.6347 365.83706 382.6013 365.12674 383.34384 365.8947 C 384.0864 366.66265 390.25115 372.67678 390.1563 373.0307 C 390.0615 373.3846 392.09017 374.30752 389.7516 375.95688 C 387.413 377.60623 374.23746 392.09397 373.7887 392.35306 C 373.33996 392.61214 357.55496 398.4348 368.32747 399.9936 C 379.1 401.55245 382.1811 400.67106 382.1811 400.67106 C 382.1811 400.67106 392.74287 390.9832 398.8357 388.06385 C 404.92856 385.14447 420.09624 392.24327 420.2258 392.46765 C 420.3553 392.692 423.5685 399.8119 423.2493 400.29538 C 422.9301 400.77884 409.40063 415.17175 406.48375 416.8558 C 403.56687 418.53987 394.06687 428.5122 390.6064 430.80927 C 387.14594 433.10634 388.5709 435.57447 389.0891 436.47197 C 389.60726 437.36947 400.4653 436.4856 400.59485 436.70996 C 400.7244 436.93434 405.7741 437.90807 405.90363 438.13245 C 406.03317 438.3568 411.42997 445.1135 411.42997 445.1135 L 412.21653 448.54855 L 410.24797 446.6934 L 407.2685 441.5328 C 407.2685 441.5328 402.8919 440.1704 402.76237 439.94605 C 402.63283 439.7217 396.8499 440.0688 396.8499 440.0688 L 390.3591 440.22623 L 385.36024 436.2315 C 385.36024 436.2315 385.2375 430.319 385.4619 430.18946 C 385.68626 430.0599 394.083 424.9129 394.083 424.9129 L 402.4958 416.16657 C 402.4958 416.16657 407.42277 411.2278 407.74197 410.74436 C 408.0612 410.2609 415.5164 402.96496 415.74077 402.8354 C 415.96514 402.70588 417.10313 398.45885 417.19796 398.10493 C 417.2928 397.751 414.2879 394.1009 414.2879 394.1009 L 407.1401 391.04766 L 400.6493 391.2051 L 395.93743 393.9255 C 395.93743 393.9255 390.56173 399.12335 390.69127 399.3477 C 390.8208 399.5721 382.07017 404.6243 382.07017 404.6243 C 382.07017 404.6243 378.66983 405.98914 378.18637 405.66993 C 377.7029 405.3507 370.11566 404.64537 369.8913 404.7749 C 369.6669 404.90446 363.16683 402.9731 363.0373 402.74873 C 362.90775 402.52436 361.48277 400.05623 361.48277 400.05623 L 360.4024 395.59413 L 368.6349 389.64444 C 368.6349 389.64444 372.63893 386.73437 372.8633 386.60483 C 373.0877 386.4753 379.51584 379.47314 379.51584 379.47314 L 385.9093 371.8927 L 382.0162 370.84955 C 382.0162 370.84955 374.3087 372.00863 374.17916 371.78426 C 374.0496 371.5599 369.2683 373.1237 369.04394 373.25325 C 368.81956 373.3828 361.41517 377.6577 361.41517 377.6577 L 355.76178 378.2292 L 348.0103 376.7212 L 344.2027 373.2353 C 344.2027 373.2353 347.86894 366.6311 347.60986 366.18235 C 347.35077 365.7336 350.6885 357.52405 350.6885 357.52405 L 353.6215 352.2407 L 359.12674 347.2672 L 363.1469 340.75784 L 369.20503 337.26017 L 365.37205 335.2848 C 365.37205 335.2848 360.4011 337.55646 360.04716 337.46163 C 359.69324 337.3668 350.21616 338.0517 350.0866 337.82734 C 349.95708 337.60297 322 337.88813 322 337.88813 Z" fill="black"/>
        <path d="M 322 337.88813 L 345.11316 332.3221 C 345.11316 332.3221 363.075 331.82434 363.29936 331.6948 C 363.52373 331.56526 376.06584 333.59825 376.06584 333.59825 L 366.54043 345.0811 C 366.54043 345.0811 362.5643 354.25757 357.66274 357.6858 C 352.7612 361.11406 350.978 372.0161 350.978 372.0161 C 350.978 372.0161 360.68874 373.29045 361.58624 372.77228 C 362.48374 372.2541 368.73154 368.0486 371.68313 366.94283 C 374.6347 365.83706 382.6013 365.12674 383.34384 365.8947 C 384.0864 366.66265 390.25115 372.67678 390.1563 373.0307 C 390.0615 373.3846 392.09017 374.30752 389.7516 375.95688 C 387.413 377.60623 374.23746 392.09397 373.7887 392.35306 C 373.33996 392.61214 357.55496 398.4348 368.32747 399.9936 C 379.1 401.55245 382.1811 400.67106 382.1811 400.67106 C 382.1811 400.67106 392.74287 390.9832 398.8357 388.06385 C 404.92856 385.14447 420.09624 392.24327 420.2258 392.46765 C 420.3553 392.692 423.5685 399.8119 423.2493 400.29538 C 422.9301 400.77884 409.40063 415.17175 406.48375 416.8558 C 403.56687 418.53987 394.06687 428.5122 390.6064 430.80927 C 387.14594 433.10634 388.5709 435.57447 389.0891 436.47197 C 389.60726 437.36947 400.4653 436.4856 400.59485 436.70996 C 400.7244 436.93434 405.7741 437.90807 405.90363 438.13245 C 406.03317 438.3568 411.42997 445.1135 411.42997 445.1135 L 412.21653 448.54855 L 410.24797 446.6934 L 407.2685 441.5328 C 407.2685 441.5328 402.8919 440.1704 402.76237 439.94605 C 402.63283 439.7217 396.8499 440.0688 396.8499 440.0688 L 390.3591 440.22623 L 385.36024 436.2315 C 385.36024 436.2315 385.2375 430.319 385.4619 430.18946 C 385.68626 430.0599 394.083 424.9129 394.083 424.9129 L 402.4958 416.16657 C 402.4958 416.16657 407.42277 411.2278 407.74197 410.74436 C 408.0612 410.2609 415.5164 402.96496 415.74077 402.8354 C 415.96514 402.70588 417.10313 398.45885 417.19796 398.10493 C 417.2928 397.751 414.2879 394.1009 414.2879 394.1009 L 407.1401 391.04766 L 400.6493 391.2051 L 395.93743 393.9255 C 395.93743 393.9255 390.56173 399.12335 390.69127 399.3477 C 390.8208 399.5721 382.07017 404.6243 382.07017 404.6243 C 382.07017 404.6243 378.66983 405.98914 378.18637 405.66993 C 377.7029 405.3507 370.11566 404.64537 369.8913 404.7749 C 369.6669 404.90446 363.16683 402.9731 363.0373 402.74873 C 362.90775 402.52436 361.48277 400.05623 361.48277 400.05623 L 360.4024 395.59413 L 368.6349 389.64444 C 368.6349 389.64444 372.63893 386.73437 372.8633 386.60483 C 373.0877 386.4753 379.51584 379.47314 379.51584 379.47314 L 385.9093 371.8927 L 382.0162 370.84955 C 382.0162 370.84955 374.3087 372.00863 374.17916 371.78426 C 374.0496 371.5599 369.2683 373.1237 369.04394 373.25325 C 368.81956 373.3828 361.41517 377.6577 361.41517 377.6577 L 355.76178 378.2292 L 348.0103 376.7212 L 344.2027 373.2353 C 344.2027 373.2353 347.86894 366.6311 347.60986 366.18235 C 347.35077 365.7336 350.6885 357.52405 350.6885 357.52405 L 353.6215 352.2407 L 359.12674 347.2672 L 363.1469 340.75784 L 369.20503 337.26017 L 365.37205 335.2848 C 365.37205 335.2848 360.4011 337.55646 360.04716 337.46163 C 359.69324 337.3668 350.21616 338.0517 350.0866 337.82734 C 349.95708 337.60297 322 337.88813 322 337.88813 Z" stroke="black" stroke-linecap="round" stroke-linejoin="round" stroke-width="5"/>
      </g>
      <g id="Line_17">
        <path d="M 647.229 669.7019 L 657.3164 679.7355 L 664.3986 699.6585" stroke="black" stroke-linecap="round" stroke-linejoin="round" stroke-width="13"/>
      </g>
      <g id="Graphic_16">
        <rect x="592.1638" y="693.643" width="168.68584" height="91.93778" fill="#ffff40"/>
        <rect x="592.1638" y="693.643" width="168.68584" height="91.93778" stroke="black" stroke-linecap="round" stroke-linejoin="round" stroke-width="6"/>
      </g>
      <g id="Graphic_15">
        <path d="M 610.7512 764.8102 L 617.48745 742.0106 C 617.48745 742.0106 626.0373 726.2063 626.0373 725.9472 C 626.0373 725.6881 634.069 715.8428 634.069 715.8428 L 639.2507 729.8335 C 639.2507 729.8335 645.2097 737.8652 645.7279 743.8242 C 646.246 749.7832 654.7959 756.7785 654.7959 756.7785 C 654.7959 756.7785 660.7549 749.0059 660.7549 747.96955 C 660.7549 746.9332 660.2367 739.4197 660.7549 736.3107 C 661.27305 733.2016 664.6412 725.9472 665.6775 725.6881 C 666.7139 725.429 675.0046 723.0973 675.2637 723.35635 C 675.5228 723.6154 677.3364 722.32 677.5955 725.16995 C 677.8546 728.0199 683.8136 746.6741 683.8136 747.1923 C 683.8136 747.7105 680.9636 764.292 687.6999 755.74215 C 694.4361 747.1923 695.2134 744.0833 695.2134 744.0833 C 695.2134 744.0833 692.1043 730.0926 692.6225 723.35635 C 693.1407 716.6201 706.87225 707.0339 707.1313 707.0339 C 707.3904 707.0339 715.163 707.8112 715.4221 708.3293 C 715.6812 708.8475 721.3811 727.7608 721.3811 731.1289 C 721.3811 734.4971 725.2674 747.7105 725.5265 751.85585 C 725.7856 756.0012 728.6355 756.0012 729.67185 756.0012 C 730.7082 756.0012 735.37175 746.15595 735.6308 746.15595 C 735.8899 746.15595 739.25805 742.26965 739.5171 742.26965 C 739.7762 742.26965 748.3261 740.9742 748.3261 740.9742 L 751.6942 742.0106 L 749.1033 742.7878 L 743.14435 742.7878 C 743.14435 742.7878 739.7762 745.8969 739.5171 745.8969 C 739.25805 745.8969 736.6672 751.0786 736.6672 751.0786 L 733.55815 756.7785 L 727.5992 759.1103 C 727.5992 759.1103 722.4174 756.2603 722.4174 756.0012 C 722.4174 755.74215 722.15835 745.8969 722.15835 745.8969 L 718.7902 734.238 C 718.7902 734.238 716.9766 727.5017 716.7175 726.9836 C 716.45845 726.4654 713.8676 716.361 713.8676 716.1019 C 713.8676 715.8428 710.75855 712.7338 710.4995 712.4747 C 710.2404 712.2156 705.5768 712.9929 705.5768 712.9929 L 699.35875 717.65645 L 696.2497 723.35635 L 696.2497 728.7972 C 696.2497 728.7972 698.0633 736.0516 698.3224 736.0516 C 698.5815 736.0516 698.5815 746.15595 698.5815 746.15595 C 698.5815 746.15595 698.0633 749.7832 697.54514 750.04225 C 697.027 750.3013 692.6225 756.5194 692.6225 756.7785 C 692.6225 757.0376 687.6999 761.7011 687.4408 761.7011 C 687.1817 761.7011 684.3317 761.7011 684.3317 761.7011 L 679.9273 760.4057 L 678.8909 750.3013 C 678.8909 750.3013 678.37275 745.3787 678.37275 745.1196 C 678.37275 744.8605 675.5228 735.7925 675.5228 735.7925 L 672.1547 726.4654 L 669.3047 729.3153 C 669.3047 729.3153 666.4548 736.56975 666.1957 736.56975 C 665.9366 736.56975 664.90026 741.4924 664.90026 741.7515 C 664.90026 742.0106 664.90026 750.5604 664.90026 750.5604 L 662.5685 755.74215 L 657.38675 761.7011 L 652.4641 763.25565 C 652.4641 763.25565 648.5778 756.7785 648.05964 756.7785 C 647.5415 756.7785 642.10065 749.7832 642.10065 749.7832 L 638.9916 744.6014 L 637.4371 737.347 L 633.8099 730.6108 L 633.8099 723.6154 L 630.1827 725.9472 C 630.1827 725.9472 629.6645 731.388 629.4054 731.6471 C 629.1463 731.9062 625.00095 740.45605 624.7419 740.45605 C 624.4828 740.45605 610.7512 764.8102 610.7512 764.8102 Z" fill="black"/>
        <path d="M 610.7512 764.8102 L 617.48745 742.0106 C 617.48745 742.0106 626.0373 726.2063 626.0373 725.9472 C 626.0373 725.6881 634.069 715.8428 634.069 715.8428 L 639.2507 729.8335 C 639.2507 729.8335 645.2097 737.8652 645.7279 743.8242 C 646.246 749.7832 654.7959 756.7785 654.7959 756.7785 C 654.7959 756.7785 660.7549 749.0059 660.7549 747.96955 C 660.7549 746.9332 660.2367 739.4197 660.7549 736.3107 C 661.27305 733.2016 664.6412 725.9472 665.6775 725.6881 C 666.7139 725.429 675.0046 723.0973 675.2637 723.35635 C 675.5228 723.6154 677.3364 722.32 677.5955 725.16995 C 677.8546 728.0199 683.8136 746.6741 683.8136 747.1923 C 683.8136 747.7105 680.9636 764.292 687.6999 755.74215 C 694.4361 747.1923 695.2134 744.0833 695.2134 744.0833 C 695.2134 744.0833 692.1043 730.0926 692.6225 723.35635 C 693.1407 716.6201 706.87225 707.0339 707.1313 707.0339 C 707.3904 707.0339 715.163 707.8112 715.4221 708.3293 C 715.6812 708.8475 721.3811 727.7608 721.3811 731.1289 C 721.3811 734.4971 725.2674 747.7105 725.5265 751.85585 C 725.7856 756.0012 728.6355 756.0012 729.67185 756.0012 C 730.7082 756.0012 735.37175 746.15595 735.6308 746.15595 C 735.8899 746.15595 739.25805 742.26965 739.5171 742.26965 C 739.7762 742.26965 748.3261 740.9742 748.3261 740.9742 L 751.6942 742.0106 L 749.1033 742.7878 L 743.14435 742.7878 C 743.14435 742.7878 739.7762 745.8969 739.5171 745.8969 C 739.25805 745.8969 736.6672 751.0786 736.6672 751.0786 L 733.55815 756.7785 L 727.5992 759.1103 C 727.5992 759.1103 722.4174 756.2603 722.4174 756.0012 C 722.4174 755.74215 722.15835 745.8969 722.15835 745.8969 L 718.7902 734.238 C 718.7902 734.238 716.9766 727.5017 716.7175 726.9836 C 716.45845 726.4654 713.8676 716.361 713.8676 716.1019 C 713.8676 715.8428 710.75855 712.7338 710.4995 712.4747 C 710.2404 712.2156 705.5768 712.9929 705.5768 712.9929 L 699.35875 717.65645 L 696.2497 723.35635 L 696.2497 728.7972 C 696.2497 728.7972 698.0633 736.0516 698.3224 736.0516 C 698.5815 736.0516 698.5815 746.15595 698.5815 746.15595 C 698.5815 746.15595 698.0633 749.7832 697.54514 750.04225 C 697.027 750.3013 692.6225 756.5194 692.6225 756.7785 C 692.6225 757.0376 687.6999 761.7011 687.4408 761.7011 C 687.1817 761.7011 684.3317 761.7011 684.3317 761.7011 L 679.9273 760.4057 L 678.8909 750.3013 C 678.8909 750.3013 678.37275 745.3787 678.37275 745.1196 C 678.37275 744.8605 675.5228 735.7925 675.5228 735.7925 L 672.1547 726.4654 L 669.3047 729.3153 C 669.3047 729.3153 666.4548 736.56975 666.1957 736.56975 C 665.9366 736.56975 664.90026 741.4924 664.90026 741.7515 C 664.90026 742.0106 664.90026 750.5604 664.90026 750.5604 L 662.5685 755.74215 L 657.38675 761.7011 L 652.4641 763.25565 C 652.4641 763.25565 648.5778 756.7785 648.05964 756.7785 C 647.5415 756.7785 642.10065 749.7832 642.10065 749.7832 L 638.9916 744.6014 L 637.4371 737.347 L 633.8099 730.6108 L 633.8099 723.6154 L 630.1827 725.9472 C 630.1827 725.9472 629.6645 731.388 629.4054 731.6471 C 629.1463 731.9062 625.00095 740.45605 624.7419 740.45605 C 624.4828 740.45605 610.7512 764.8102 610.7512 764.8102 Z" stroke="black" stroke-linecap="round" stroke-linejoin="round" stroke-width="5"/>
      </g>
    </g>
  </g>
</svg>
