<?xml version="1.0" encoding="UTF-8" standalone="no"?>
<!DOCTYPE svg PUBLIC "-//W3C//DTD SVG 1.1//EN" "http://www.w3.org/Graphics/SVG/1.1/DTD/svg11.dtd">
<svg version="1.1" xmlns="http://www.w3.org/2000/svg" xmlns:xl="http://www.w3.org/1999/xlink" xmlns:dc="http://purl.org/dc/elements/1.1/" viewBox="0 0 850.394 850.394" width="850.394" height="850.394">
  <defs>
    <marker orient="auto" overflow="visible" markerUnits="strokeWidth" id="FilledArrow_Marker" stroke-linejoin="miter" stroke-miterlimit="10" viewBox="-1 -2 5 4" markerWidth="5" markerHeight="4" color="black">
      <g>
        <path d="M 2.55744 0 L 0 -.95904 L 0 .95904 Z" fill="currentColor" stroke="currentColor" stroke-width="1"/>
      </g>
    </marker>
  </defs>
  <metadata> Produced by OmniGraffle 7.9.4 
    <dc:date>2019-03-18 12:31:34 +0000</dc:date>
  </metadata>
  <g id="reset" stroke-opacity="1" fill-opacity="1" stroke="none" stroke-dasharray="none" fill="none">
    <title>reset</title>
    <g id="reset: Layer 1">
      <title>Layer 1</title>
      <g id="Graphic_25">
        <path d="M 251.5536 691.4538 C 196.3204 685.4927 218.346 635.31065 306.4553 643.8732 C 314.6299 627.1821 417.08914 629.8912 416.4193 643.8732 C 480.6644 625.9901 562.76574 661.6486 507.6966 679.5317 C 573.77684 688.2019 506.8627 734.9157 452.63085 727.1123 C 448.29066 740.1187 351.34038 744.6702 342.83087 727.1123 C 287.9326 745.8633 173.46092 717.0326 251.5536 691.4538 Z" fill="white"/>
        <path d="M 251.5536 691.4538 C 196.3204 685.4927 218.346 635.31065 306.4553 643.8732 C 314.6299 627.1821 417.08914 629.8912 416.4193 643.8732 C 480.6644 625.9901 562.76574 661.6486 507.6966 679.5317 C 573.77684 688.2019 506.8627 734.9157 452.63085 727.1123 C 448.29066 740.1187 351.34038 744.6702 342.83087 727.1123 C 287.9326 745.8633 173.46092 717.0326 251.5536 691.4538 Z" stroke="black" stroke-linecap="round" stroke-linejoin="round" stroke-width="7"/>
      </g>
      <g id="Graphic_24">
        <path d="M 308.53963 621.9081 C 262.3163 612.5 280.749 533.2995 354.48553 546.8134 C 361.32665 520.47045 447.0723 524.7462 446.51175 546.8134 C 500.2769 518.5892 568.9855 574.8677 522.8995 603.0919 C 578.20045 616.77576 522.20165 690.5024 476.8163 678.1866 C 473.1841 698.7141 392.04877 705.8976 384.92737 678.1866 C 338.98433 707.7806 243.18577 662.2782 308.53963 621.9081 Z" fill="white"/>
        <path d="M 308.53963 621.9081 C 262.3163 612.5 280.749 533.2995 354.48553 546.8134 C 361.32665 520.47045 447.0723 524.7462 446.51175 546.8134 C 500.2769 518.5892 568.9855 574.8677 522.8995 603.0919 C 578.20045 616.77576 522.20165 690.5024 476.8163 678.1866 C 473.1841 698.7141 392.04877 705.8976 384.92737 678.1866 C 338.98433 707.7806 243.18577 662.2782 308.53963 621.9081 Z" stroke="black" stroke-linecap="round" stroke-linejoin="round" stroke-width="7"/>
      </g>
      <g id="Graphic_23">
        <path d="M 480.6003 555.7337 C 438.35654 557.31293 433.7327 476.5575 500.7343 472.5951 C 499.808 445.57107 574.76115 429.914 579.9898 451.35865 C 618.98885 411.689 692.7286 450.19434 660.343 488.0919 C 711.5113 488.5479 682.3655 572.68497 640.0908 571.2622 C 642.27556 591.9284 574.2588 617.5903 560.9535 592.46695 C 529.0456 631.6546 434.76433 609.8096 480.6003 555.7337 Z" fill="white"/>
        <path d="M 480.6003 555.7337 C 438.35654 557.31293 433.7327 476.5575 500.7343 472.5951 C 499.808 445.57107 574.76115 429.914 579.9898 451.35865 C 618.98885 411.689 692.7286 450.19434 660.343 488.0919 C 711.5113 488.5479 682.3655 572.68497 640.0908 571.2622 C 642.27556 591.9284 574.2588 617.5903 560.9535 592.46695 C 529.0456 631.6546 434.76433 609.8096 480.6003 555.7337 Z" stroke="black" stroke-linecap="round" stroke-linejoin="round" stroke-width="7"/>
      </g>
      <g id="Graphic_22">
        <path d="M 602.887 695.4462 C 555.54724 711.9143 532.94904 633.5085 607.71954 605.94426 C 600.8582 579.4874 682.0867 537.5274 692.6032 556.93664 C 728.0833 503.8617 819.5985 516.0102 791.2015 564.99576 C 849.0522 547.39635 834.263 641.0671 786.2423 654.5708 C 793.1558 674.2824 721.9094 723.7113 701.4853 703.5053 C 673.90505 753.601 562.7906 765.21125 602.887 695.4462 Z" fill="white"/>
        <path d="M 602.887 695.4462 C 555.54724 711.9143 532.94904 633.5085 607.71954 605.94426 C 600.8582 579.4874 682.0867 537.5274 692.6032 556.93664 C 728.0833 503.8617 819.5985 516.0102 791.2015 564.99576 C 849.0522 547.39635 834.263 641.0671 786.2423 654.5708 C 793.1558 674.2824 721.9094 723.7113 701.4853 703.5053 C 673.90505 753.601 562.7906 765.21125 602.887 695.4462 Z" stroke="black" stroke-linecap="round" stroke-linejoin="round" stroke-width="7"/>
      </g>
      <g id="Graphic_21">
        <path d="M 212.63531 779.2883 C 159.84626 771.4033 180.89721 705.0247 265.10754 716.3508 C 272.9204 694.2726 370.8457 697.8561 370.2055 716.3508 C 431.60765 692.6959 510.0759 739.8634 457.44365 763.51835 C 520.59977 774.9869 456.6467 836.7778 404.81465 826.4558 C 400.6665 843.6601 308.0064 849.6807 299.87346 826.4558 C 247.4045 851.2588 137.99835 813.1229 212.63531 779.2883 Z" fill="white"/>
        <path d="M 212.63531 779.2883 C 159.84626 771.4033 180.89721 705.0247 265.10754 716.3508 C 272.9204 694.2726 370.8457 697.8561 370.2055 716.3508 C 431.60765 692.6959 510.0759 739.8634 457.44365 763.51835 C 520.59977 774.9869 456.6467 836.7778 404.81465 826.4558 C 400.6665 843.6601 308.0064 849.6807 299.87346 826.4558 C 247.4045 851.2588 137.99835 813.1229 212.63531 779.2883 Z" stroke="black" stroke-linecap="round" stroke-linejoin="round" stroke-width="7"/>
      </g>
      <g id="Graphic_20">
        <path d="M 296.78142 745.0573 C 249.69813 747.9333 247.00415 666.6607 321.72582 660.62975 C 321.51578 633.4138 405.44637 615.35126 410.6163 636.8116 C 455.2445 595.6337 536.1779 632.21145 498.96717 671.4019 C 555.9254 670.3065 520.9166 756.0145 473.89017 755.865 C 475.69464 776.6331 399.18314 804.5712 385.13227 779.6476 C 348.4142 820.1241 244.103 800.9667 296.78142 745.0573 Z" fill="white"/>
        <path d="M 296.78142 745.0573 C 249.69813 747.9333 247.00415 666.6607 321.72582 660.62975 C 321.51578 633.4138 405.44637 615.35126 410.6163 636.8116 C 455.2445 595.6337 536.1779 632.21145 498.96717 671.4019 C 555.9254 670.3065 520.9166 756.0145 473.89017 755.865 C 475.69464 776.6331 399.18314 804.5712 385.13227 779.6476 C 348.4142 820.1241 244.103 800.9667 296.78142 745.0573 Z" stroke="black" stroke-linecap="round" stroke-linejoin="round" stroke-width="7"/>
      </g>
      <g id="Line_10">
        <path d="M 490.1282 547.41026 C 490.1282 547.41026 600.8322 708.0267 567.0513 749.9744 C 533.27034 791.922 466.0483 742.2348 370.88942 695.4756 C 275.73055 648.71635 305.7822 608.0775 231.16283 584.92534 C 156.54347 561.77315 144.03001 618.0291 107.50065 613.7538 C 70.97128 609.4785 114.61435 597.53196 102.22276 569.83454 C 89.83116 542.1371 37.7698 560.3002 63.76122 515.9884 C 89.75264 471.6766 197.4677 489.6987 193.96635 413.4243 C 190.46499 337.14985 65.04447 301.96577 51.402244 246.7576 C 37.76002 191.54946 136.369 270.85495 145.8125 218.55248 C 155.256 166.25002 51.91578 97.01054 84.73558 62.14223 C 117.55537 27.27392 168.56754 6.8519445 261.65865 95.47556 C 306.11766 137.80095 331.75977 182.9803 351.6446 228.4078" marker-end="url(#FilledArrow_Marker)" stroke="black" stroke-linecap="round" stroke-linejoin="round" stroke-width="50"/>
      </g>
      <g id="Graphic_9">
        <path d="M 515.7362 505.72065 L 570 630 L 542.0929 618.7019 L 486.27866 501.2014 Z" fill="#666"/>
        <path d="M 515.7362 505.72065 L 570 630 L 542.0929 618.7019 L 486.27866 501.2014 Z" stroke="black" stroke-linecap="round" stroke-linejoin="round" stroke-width="11"/>
      </g>
      <g id="Graphic_8">
        <path d="M 468.6664 575.7719 L 539.89405 652 L 503.2627 645.0702 L 430 573 Z" fill="#666"/>
        <path d="M 468.6664 575.7719 L 539.89405 652 L 503.2627 645.0702 L 430 573 Z" stroke="black" stroke-linecap="round" stroke-linejoin="round" stroke-width="11"/>
      </g>
      <g id="Graphic_3">
        <path d="M 415.53806 590.934 L 332.59816 506.53917 C 328.0185 498.60694 344.7572 475.4106 440.6254 420.06105 C 536.4936 364.71153 542.6004 370.9114 547.18005 378.84364 C 547.18005 378.84364 578.5978 500.7802 577.48285 511.5351 C 576.3679 522.28993 623.22286 545.8272 527.35467 601.17675 C 431.4865 656.5263 420.11773 598.8662 415.53806 590.934 Z" fill="#8d0000"/>
        <path d="M 415.53806 590.934 L 332.59816 506.53917 C 328.0185 498.60694 344.7572 475.4106 440.6254 420.06105 C 536.4936 364.71153 542.6004 370.9114 547.18005 378.84364 C 547.18005 378.84364 578.5978 500.7802 577.48285 511.5351 C 576.3679 522.28993 623.22286 545.8272 527.35467 601.17675 C 431.4865 656.5263 420.11773 598.8662 415.53806 590.934 Z" stroke="black" stroke-linecap="round" stroke-linejoin="round" stroke-width="18"/>
      </g>
      <g id="Graphic_2">
        <path d="M 494.6404 356.04903 C 548.23775 350.85674 566.3171 382.17107 535.02175 425.9916 C 503.7267 469.8121 434.908 509.5446 381.3108 514.73665 C 327.71345 519.92895 309.6341 488.6146 340.92944 444.7941 C 372.2245 400.9736 441.0432 361.2411 494.6404 356.04903" fill="red"/>
        <path d="M 494.6404 356.04903 C 548.23775 350.85674 566.3171 382.17107 535.02175 425.9916 C 503.7267 469.8121 434.908 509.5446 381.3108 514.73665 C 327.71345 519.92895 309.6341 488.6146 340.92944 444.7941 C 372.2245 400.9736 441.0432 361.2411 494.6404 356.04903" stroke="black" stroke-linecap="round" stroke-linejoin="round" stroke-width="18"/>
      </g>
      <g id="Graphic_7">
        <path d="M 475.97526 349.2538 C 518.49085 345.13506 532.8321 369.97485 508.0074 404.73506 C 483.1829 439.49524 428.5931 471.01267 386.07764 475.13123 C 343.56205 479.24997 329.2208 454.4102 354.0455 419.64997 C 378.87002 384.8898 433.4598 353.37236 475.97526 349.2538" fill="red"/>
        <path d="M 475.97526 349.2538 C 518.49085 345.13506 532.8321 369.97485 508.0074 404.73506 C 483.1829 439.49524 428.5931 471.01267 386.07764 475.13123 C 343.56205 479.24997 329.2208 454.4102 354.0455 419.64997 C 378.87002 384.8898 433.4598 353.37236 475.97526 349.2538" stroke="black" stroke-linecap="round" stroke-linejoin="round" stroke-width="18"/>
      </g>
      <g id="Line_11">
        <line x1="423" y1="323.18363" x2="496.6778" y2="193.24505" stroke="black" stroke-linecap="round" stroke-linejoin="round" stroke-width="4"/>
      </g>
      <g id="Line_12">
        <line x1="438" y1="336.16427" x2="548.7473" y2="281" stroke="black" stroke-linecap="round" stroke-linejoin="round" stroke-width="4"/>
      </g>
      <g id="Line_13">
        <line x1="359.8507" y1="367.22624" x2="235.66317" y2="368.1927" stroke="black" stroke-linecap="round" stroke-linejoin="round" stroke-width="4"/>
      </g>
      <g id="Line_14">
        <line x1="366.75814" y1="348.80873" x2="281" y2="292" stroke="black" stroke-linecap="round" stroke-linejoin="round" stroke-width="4"/>
      </g>
      <g id="Graphic_15">
        <path d="M 563.5642 627.8738 C 523.1686 640.3327 497.80124 563.5257 561.49426 542.35704 C 553.6052 516.4936 621.95206 481.9707 632.5528 501.33136 C 659.95576 452.91975 741.1488 471.0278 719.6753 516.016 C 769.21815 503.21317 762.8417 592.0268 721.63925 601.594 C 729.0984 620.9906 670.041 663.3821 650.6867 642.5585 C 630.0085 688.6692 533.2859 691.9704 563.5642 627.8738 Z" fill="white"/>
        <path d="M 563.5642 627.8738 C 523.1686 640.3327 497.80124 563.5257 561.49426 542.35704 C 553.6052 516.4936 621.95206 481.9707 632.5528 501.33136 C 659.95576 452.91975 741.1488 471.0278 719.6753 516.016 C 769.21815 503.21317 762.8417 592.0268 721.63925 601.594 C 729.0984 620.9906 670.041 663.3821 650.6867 642.5585 C 630.0085 688.6692 533.2859 691.9704 563.5642 627.8738 Z" stroke="black" stroke-linecap="round" stroke-linejoin="round" stroke-width="7"/>
      </g>
      <g id="Graphic_16">
        <path d="M 343.2858 676.9902 C 297.0625 667.5821 315.4952 588.3816 389.2317 601.8955 C 396.07284 575.5526 481.8185 579.82834 481.25794 601.8955 C 535.0231 573.6713 603.7317 629.94984 557.6457 658.17406 C 612.94664 671.8579 556.94784 745.5845 511.5625 733.2687 C 507.9303 753.7962 426.79496 760.9797 419.67356 733.2687 C 373.7305 762.8627 277.93196 717.3603 343.2858 676.9902 Z" fill="white"/>
        <path d="M 343.2858 676.9902 C 297.0625 667.5821 315.4952 588.3816 389.2317 601.8955 C 396.07284 575.5526 481.8185 579.82834 481.25794 601.8955 C 535.0231 573.6713 603.7317 629.94984 557.6457 658.17406 C 612.94664 671.8579 556.94784 745.5845 511.5625 733.2687 C 507.9303 753.7962 426.79496 760.9797 419.67356 733.2687 C 373.7305 762.8627 277.93196 717.3603 343.2858 676.9902 Z" stroke="black" stroke-linecap="round" stroke-linejoin="round" stroke-width="7"/>
      </g>
      <g id="Graphic_18">
        <path d="M 405.17455 788.0573 C 358.09126 790.9333 355.39728 709.6607 430.11895 703.62975 C 429.9089 676.4138 513.8395 658.35126 519.00945 679.8116 C 563.6376 638.6337 644.571 675.21145 607.3603 714.4019 C 664.31856 713.3065 629.3097 799.0145 582.2833 798.865 C 584.0878 819.6331 507.57627 847.5712 493.5254 822.6476 C 456.8073 863.1241 352.4961 843.9667 405.17455 788.0573 Z" fill="white"/>
        <path d="M 405.17455 788.0573 C 358.09126 790.9333 355.39728 709.6607 430.11895 703.62975 C 429.9089 676.4138 513.8395 658.35126 519.00945 679.8116 C 563.6376 638.6337 644.571 675.21145 607.3603 714.4019 C 664.31856 713.3065 629.3097 799.0145 582.2833 798.865 C 584.0878 819.6331 507.57627 847.5712 493.5254 822.6476 C 456.8073 863.1241 352.4961 843.9667 405.17455 788.0573 Z" stroke="black" stroke-linecap="round" stroke-linejoin="round" stroke-width="7"/>
      </g>
      <g id="Graphic_19">
        <path d="M 617.24435 726.9902 C 576.03125 717.5821 592.466 638.3816 658.2101 651.8955 C 664.3097 625.5526 740.76125 629.82834 740.26145 651.8955 C 788.1989 623.6713 849.4601 679.94984 808.3694 708.1741 C 857.6762 721.8579 807.7472 795.5845 767.28125 783.2687 C 764.04275 803.7962 691.7018 810.9797 685.3523 783.2687 C 644.3891 812.8627 558.9743 767.3603 617.24435 726.9902 Z" fill="white"/>
        <path d="M 617.24435 726.9902 C 576.03125 717.5821 592.466 638.3816 658.2101 651.8955 C 664.3097 625.5526 740.76125 629.82834 740.26145 651.8955 C 788.1989 623.6713 849.4601 679.94984 808.3694 708.1741 C 857.6762 721.8579 807.7472 795.5845 767.28125 783.2687 C 764.04275 803.7962 691.7018 810.9797 685.3523 783.2687 C 644.3891 812.8627 558.9743 767.3603 617.24435 726.9902 Z" stroke="black" stroke-linecap="round" stroke-linejoin="round" stroke-width="7"/>
      </g>
      <g id="Graphic_17">
        <path d="M 503.8711 711.3593 C 456.92167 689.0393 497.11355 617.81424 572.3951 651.9765 C 586.5221 628.4896 677.0251 657.1664 670.7148 678.3212 C 735.4618 666.45024 794.3033 740.4806 737.7606 754.5499 C 793.3018 783.5987 714.3915 838.7821 669.08995 813.8934 C 659.89644 832.6816 571.3532 816.3934 570.9169 787.588 C 514.1724 803.0213 423.5993 731.6447 503.8711 711.3593 Z" fill="white"/>
        <path d="M 503.8711 711.3593 C 456.92167 689.0393 497.11355 617.81424 572.3951 651.9765 C 586.5221 628.4896 677.0251 657.1664 670.7148 678.3212 C 735.4618 666.45024 794.3033 740.4806 737.7606 754.5499 C 793.3018 783.5987 714.3915 838.7821 669.08995 813.8934 C 659.89644 832.6816 571.3532 816.3934 570.9169 787.588 C 514.1724 803.0213 423.5993 731.6447 503.8711 711.3593 Z" stroke="black" stroke-linecap="round" stroke-linejoin="round" stroke-width="7"/>
      </g>
    </g>
  </g>
</svg>
