<?xml version="1.0" encoding="UTF-8" standalone="no"?>
<!DOCTYPE svg PUBLIC "-//W3C//DTD SVG 1.1//EN" "http://www.w3.org/Graphics/SVG/1.1/DTD/svg11.dtd">
<svg xmlns="http://www.w3.org/2000/svg" xmlns:xl="http://www.w3.org/1999/xlink" xmlns:dc="http://purl.org/dc/elements/1.1/" version="1.1" viewBox="0 0 850.394 850.394" width="850.394" height="850.394">
  <defs>
    <marker orient="auto" overflow="visible" markerUnits="strokeWidth" id="FilledArrow_Marker" stroke-linejoin="miter" stroke-miterlimit="10" viewBox="-1 -2 5 4" markerWidth="5" markerHeight="4" color="#fffc00">
      <g>
        <path d="M 2.0923077 0 L 0 -.7846154 L 0 .7846154 Z" fill="currentColor" stroke="currentColor" stroke-width="1"/>
      </g>
    </marker>
    <marker orient="auto" overflow="visible" markerUnits="strokeWidth" id="FilledArrow_Marker_2" stroke-linejoin="miter" stroke-miterlimit="10" viewBox="-1 -2 5 4" markerWidth="5" markerHeight="4" color="#0432ff">
      <g>
        <path d="M 2.1333333 0 L 0 -.8 L 0 .8 Z" fill="currentColor" stroke="currentColor" stroke-width="1"/>
      </g>
    </marker>
  </defs>
  <metadata> Produced by OmniGraffle 7.9.4 
    <dc:date>2019-07-25 12:56:33 +0000</dc:date>
  </metadata>
  <g id="Canvas_284" stroke="none" stroke-dasharray="none" stroke-opacity="1" fill-opacity="1" fill="none">
    <title>Canvas 284</title>
    <g id="Canvas_284: Layer 2">
      <title>Layer 2</title>
      <g id="Line_31">
        <path d="M 504.6236 392.99463 L 568.5047 350.5208 C 591.1979 335.4323 604.7761 309.93797 604.6328 282.68683 L 604.6328 282.68683 C 604.4919 255.87837 589.37716 231.39773 565.47284 219.26112 L 503.1845 187.6363 C 480.7827 176.26253 454.9204 173.73783 430.74187 180.56437 L 273.32442 225.00946 C 247.3784 232.33503 227.47878 253.20604 221.39717 279.4715 L 221.39717 279.4715 C 215.2302 306.1056 222.66658 334.06462 241.25057 354.1156 L 268.64248 383.6698 C 274.9599 390.48593 282.35388 396.1398 290.48353 400.4333" marker-end="url(#FilledArrow_Marker)" stroke="#fffc00" stroke-linecap="round" stroke-linejoin="round" stroke-width="13"/>
      </g>
      <g id="Graphic_29">
        <path d="M 237.03695 600.6241 L 237.03695 678.43775 L 415.08514 740.4249 L 415.08514 749.657 L 442.7815 760.208 L 611.5976 629.63936 L 611.5976 597.98635 L 639.294 582.15984 L 639.294 543.91245 L 433.5494 481.9253 L 317.48835 520.1727 Z" fill="lime"/>
        <path d="M 237.03695 600.6241 L 237.03695 678.43775 L 415.08514 740.4249 L 415.08514 749.657 L 442.7815 760.208 L 611.5976 629.63936 L 611.5976 597.98635 L 639.294 582.15984 L 639.294 543.91245 L 433.5494 481.9253 L 317.48835 520.1727 Z" stroke="black" stroke-linecap="round" stroke-linejoin="round" stroke-width="5"/>
      </g>
      <g id="Graphic_24">
        <path d="M 213.2972 551.8257 L 212.63775 597.3269 L 447.3976 677.7783 L 535.76225 623.045 L 645.88835 545.2313 L 649.845 500.38956 L 412.4474 432.46747 Z" fill="#999"/>
        <path d="M 213.2972 551.8257 L 212.63775 597.3269 L 447.3976 677.7783 L 535.76225 623.045 L 645.88835 545.2313 L 649.845 500.38956 L 412.4474 432.46747 Z" stroke="black" stroke-linecap="round" stroke-linejoin="round" stroke-width="5"/>
      </g>
      <g id="Graphic_23">
        <path d="M 403.8747 425.8731 L 283.1976 501.049 L 210 555.1229 L 446.0787 648.1036 L 607.641 512.25944 L 628.0835 518.1944 L 649.845 499.7301 L 513.34137 452.2506 Z" fill="#ccc"/>
        <path d="M 403.8747 425.8731 L 283.1976 501.049 L 210 555.1229 L 446.0787 648.1036 L 607.641 512.25944 L 628.0835 518.1944 L 649.845 499.7301 L 513.34137 452.2506 Z" stroke="black" stroke-linecap="round" stroke-linejoin="round" stroke-width="5"/>
      </g>
      <g id="Graphic_22">
        <ellipse cx="427.21484" cy="529.73454" rx="132.876919151251" ry="57.0414566083534" fill="white"/>
        <ellipse cx="427.21484" cy="529.73454" rx="132.876919151251" ry="57.0414566083534" stroke="black" stroke-linecap="round" stroke-linejoin="round" stroke-width="5"/>
      </g>
      <g id="Graphic_3">
        <path d="M 492.8988 38.783133 L 452.01365 20.318876 L 390.0265 21.63775 L 351.7791 44.058635 L 346.5036 65.16064 L 346.5036 361.90763 L 384.751 375.0964 L 463.88353 372.45863 L 496.8554 351.35663 L 496.8554 273.54297 L 494.2177 252.44096 Z" fill="#ccc"/>
        <path d="M 492.8988 38.783133 L 452.01365 20.318876 L 390.0265 21.63775 L 351.7791 44.058635 L 346.5036 65.16064 L 346.5036 361.90763 L 384.751 375.0964 L 463.88353 372.45863 L 496.8554 351.35663 L 496.8554 273.54297 L 494.2177 252.44096 Z" stroke="black" stroke-linecap="round" stroke-linejoin="round" stroke-width="5"/>
      </g>
      <g id="Graphic_4">
        <path d="M 488.94217 40.10201 C 490.26104 40.10201 422.9984 83.6249 422.9984 83.6249 L 415.08514 106.04578 L 413.76627 328.93574 L 442.7815 327.61687 L 487.6233 315.747 L 494.2177 293.3261 C 494.2177 293.3261 487.6233 40.10201 488.94217 40.10201 Z" fill="#999"/>
        <path d="M 488.94217 40.10201 C 490.26104 40.10201 422.9984 83.6249 422.9984 83.6249 L 415.08514 106.04578 L 413.76627 328.93574 L 442.7815 327.61687 L 487.6233 315.747 L 494.2177 293.3261 C 494.2177 293.3261 487.6233 40.10201 488.94217 40.10201 Z" stroke="black" stroke-linecap="round" stroke-linejoin="round" stroke-width="2"/>
      </g>
      <g id="Graphic_5">
        <path d="M 401.8964 20.318876 L 353.098 44.058635 L 372.88112 74.39277 L 436.18715 77.03052 L 495.53655 42.73976 L 453.33253 19 Z" fill="#ebebeb"/>
        <path d="M 401.8964 20.318876 L 353.098 44.058635 L 372.88112 74.39277 L 436.18715 77.03052 L 495.53655 42.73976 L 453.33253 19 Z" stroke="black" stroke-linecap="round" stroke-linejoin="round" stroke-width="5"/>
      </g>
      <g id="Graphic_6">
        <path d="M 353.66707 47.6 L 346.5036 69.11727 L 355.73574 92.85703 L 412.4474 100.77028 L 417.7229 96.81365 L 426.955 78.3494 L 372.88112 75.71165 L 370.24337 74.39277 Z" fill="white"/>
        <path d="M 353.66707 47.6 L 346.5036 69.11727 L 355.73574 92.85703 L 412.4474 100.77028 L 417.7229 96.81365 L 426.955 78.3494 L 372.88112 75.71165 L 370.24337 74.39277 Z" stroke="black" stroke-linecap="round" stroke-linejoin="round" stroke-width="2"/>
      </g>
      <g id="Graphic_8">
        <path d="M 341.50125 357.4698 L 340.23896 357.6213 C 337.67147 357.9294 335.83987 360.2605 336.14797 362.828 C 336.2497 363.67587 336.5814 364.47977 337.10713 365.1527 L 342.24766 371.7326 C 346.29175 376.909 351.92306 380.61504 358.277 382.28165 L 388.70763 390.26345 C 388.70763 390.26345 449.3759 392.24177 450.03534 392.24177 C 450.6948 392.24177 480.3695 385.6474 480.3695 384.98795 C 480.3695 384.3285 488.94217 379.71245 488.94217 379.71245 L 499.74204 370.98947 C 503.6117 367.86397 505.31567 362.77673 504.10924 357.951 L 504.10924 357.951 C 503.24007 354.4743 499.71705 352.3605 496.2404 353.2297 C 495.76395 353.3488 495.3026 353.5216 494.86516 353.74477 L 475.53084 363.6092 C 471.76513 365.5305 467.6359 366.6342 463.4138 366.848 L 420.099 369.04114 C 418.5174 369.1212 416.93196 369.07594 415.3575 368.90573 L 372.41943 364.26377 C 370.0974 364.01275 367.81266 363.49142 365.6116 362.7104 L 355.1079 358.9833 C 350.74963 357.4368 346.09283 356.9188 341.50125 357.4698 Z" fill="#cbcbcb"/>
        <path d="M 341.50125 357.4698 L 340.23896 357.6213 C 337.67147 357.9294 335.83987 360.2605 336.14797 362.828 C 336.2497 363.67587 336.5814 364.47977 337.10713 365.1527 L 342.24766 371.7326 C 346.29175 376.909 351.92306 380.61504 358.277 382.28165 L 388.70763 390.26345 C 388.70763 390.26345 449.3759 392.24177 450.03534 392.24177 C 450.6948 392.24177 480.3695 385.6474 480.3695 384.98795 C 480.3695 384.3285 488.94217 379.71245 488.94217 379.71245 L 499.74204 370.98947 C 503.6117 367.86397 505.31567 362.77673 504.10924 357.951 L 504.10924 357.951 C 503.24007 354.4743 499.71705 352.3605 496.2404 353.2297 C 495.76395 353.3488 495.3026 353.5216 494.86516 353.74477 L 475.53084 363.6092 C 471.76513 365.5305 467.6359 366.6342 463.4138 366.848 L 420.099 369.04114 C 418.5174 369.1212 416.93196 369.07594 415.3575 368.90573 L 372.41943 364.26377 C 370.0974 364.01275 367.81266 363.49142 365.6116 362.7104 L 355.1079 358.9833 C 350.74963 357.4368 346.09283 356.9188 341.50125 357.4698 Z" stroke="black" stroke-linecap="round" stroke-linejoin="round" stroke-width="5"/>
      </g>
      <g id="Graphic_9">
        <path d="M 341.50125 369.18796 L 340.23896 369.33944 C 337.67147 369.64753 335.83987 371.97866 336.14797 374.54615 C 336.2497 375.394 336.5814 376.1979 337.10713 376.87086 L 342.24766 383.45073 C 346.29175 388.62717 351.92306 392.3332 358.277 393.9998 L 388.70763 401.9816 C 388.70763 401.9816 449.3759 403.9599 450.03534 403.9599 C 450.6948 403.9599 480.3695 397.36554 480.3695 396.7061 C 480.3695 396.04666 488.94217 391.4306 488.94217 391.4306 L 499.74204 382.70762 C 503.6117 379.5821 505.31567 374.4949 504.10924 369.66915 L 504.10924 369.66915 C 503.24007 366.19247 499.71705 364.07866 496.2404 364.94784 C 495.76395 365.06694 495.3026 365.23974 494.86516 365.46292 L 475.53084 375.32737 C 471.76513 377.24865 467.6359 378.35236 463.4138 378.56613 L 420.099 380.7593 C 418.5174 380.83937 416.93196 380.7941 415.3575 380.6239 L 372.41943 375.98192 C 370.0974 375.7309 367.81266 375.20957 365.6116 374.42855 L 355.1079 370.70143 C 350.74963 369.15495 346.09283 368.63697 341.50125 369.18796 Z" fill="#cbcbcb"/>
        <path d="M 341.50125 369.18796 L 340.23896 369.33944 C 337.67147 369.64753 335.83987 371.97866 336.14797 374.54615 C 336.2497 375.394 336.5814 376.1979 337.10713 376.87086 L 342.24766 383.45073 C 346.29175 388.62717 351.92306 392.3332 358.277 393.9998 L 388.70763 401.9816 C 388.70763 401.9816 449.3759 403.9599 450.03534 403.9599 C 450.6948 403.9599 480.3695 397.36554 480.3695 396.7061 C 480.3695 396.04666 488.94217 391.4306 488.94217 391.4306 L 499.74204 382.70762 C 503.6117 379.5821 505.31567 374.4949 504.10924 369.66915 L 504.10924 369.66915 C 503.24007 366.19247 499.71705 364.07866 496.2404 364.94784 C 495.76395 365.06694 495.3026 365.23974 494.86516 365.46292 L 475.53084 375.32737 C 471.76513 377.24865 467.6359 378.35236 463.4138 378.56613 L 420.099 380.7593 C 418.5174 380.83937 416.93196 380.7941 415.3575 380.6239 L 372.41943 375.98192 C 370.0974 375.7309 367.81266 375.20957 365.6116 374.42855 L 355.1079 370.70143 C 350.74963 369.15495 346.09283 368.63697 341.50125 369.18796 Z" stroke="black" stroke-linecap="round" stroke-linejoin="round" stroke-width="5"/>
      </g>
      <g id="Graphic_10">
        <path d="M 341.50125 382.52844 L 340.23896 382.6799 C 337.67147 382.988 335.83987 385.31914 336.14797 387.88663 C 336.2497 388.7345 336.5814 389.5384 337.10713 390.21134 L 342.24766 396.7912 C 346.29175 401.96766 351.92306 405.6737 358.277 407.3403 L 388.70763 415.3221 C 388.70763 415.3221 449.3759 417.3004 450.03534 417.3004 C 450.6948 417.3004 480.3695 410.706 480.3695 410.0466 C 480.3695 409.38715 488.94217 404.7711 488.94217 404.7711 L 499.74204 396.0481 C 503.6117 392.9226 505.31567 387.83537 504.10924 383.00964 L 504.10924 383.00964 C 503.24007 379.53295 499.71705 377.41915 496.2404 378.2883 C 495.76395 378.40742 495.3026 378.58023 494.86516 378.8034 L 475.53084 388.66786 C 471.76513 390.58914 467.6359 391.69284 463.4138 391.9066 L 420.099 394.09977 C 418.5174 394.17985 416.93196 394.13457 415.3575 393.96436 L 372.41943 389.3224 C 370.0974 389.0714 367.81266 388.55006 365.6116 387.76903 L 355.1079 384.0419 C 350.74963 382.49543 346.09283 381.97745 341.50125 382.52844 Z" fill="#cbcbcb"/>
        <path d="M 341.50125 382.52844 L 340.23896 382.6799 C 337.67147 382.988 335.83987 385.31914 336.14797 387.88663 C 336.2497 388.7345 336.5814 389.5384 337.10713 390.21134 L 342.24766 396.7912 C 346.29175 401.96766 351.92306 405.6737 358.277 407.3403 L 388.70763 415.3221 C 388.70763 415.3221 449.3759 417.3004 450.03534 417.3004 C 450.6948 417.3004 480.3695 410.706 480.3695 410.0466 C 480.3695 409.38715 488.94217 404.7711 488.94217 404.7711 L 499.74204 396.0481 C 503.6117 392.9226 505.31567 387.83537 504.10924 383.00964 L 504.10924 383.00964 C 503.24007 379.53295 499.71705 377.41915 496.2404 378.2883 C 495.76395 378.40742 495.3026 378.58023 494.86516 378.8034 L 475.53084 388.66786 C 471.76513 390.58914 467.6359 391.69284 463.4138 391.9066 L 420.099 394.09977 C 418.5174 394.17985 416.93196 394.13457 415.3575 393.96436 L 372.41943 389.3224 C 370.0974 389.0714 367.81266 388.55006 365.6116 387.76903 L 355.1079 384.0419 C 350.74963 382.49543 346.09283 381.97745 341.50125 382.52844 Z" stroke="black" stroke-linecap="round" stroke-linejoin="round" stroke-width="5"/>
      </g>
      <g id="Graphic_11">
        <path d="M 341.50125 399.67383 L 340.23896 399.8253 C 337.67147 400.1334 335.83987 402.46452 336.14797 405.032 C 336.2497 405.8799 336.5814 406.6838 337.10713 407.3567 L 342.24766 413.9366 C 346.29175 419.11304 351.92306 422.81906 358.277 424.48567 L 388.70763 432.46747 C 388.70763 432.46747 449.3759 434.4458 450.03534 434.4458 C 450.6948 434.4458 480.3695 427.8514 480.3695 427.19197 C 480.3695 426.53253 488.94217 421.91647 488.94217 421.91647 L 499.74204 413.1935 C 503.6117 410.068 505.31567 404.98075 504.10924 400.155 L 504.10924 400.155 C 503.24007 396.67834 499.71705 394.56453 496.2404 395.4337 C 495.76395 395.5528 495.3026 395.7256 494.86516 395.9488 L 475.53084 405.81324 C 471.76513 407.7345 467.6359 408.8382 463.4138 409.052 L 420.099 411.24515 C 418.5174 411.32523 416.93196 411.27996 415.3575 411.10975 L 372.41943 406.4678 C 370.0974 406.21676 367.81266 405.69544 365.6116 404.9144 L 355.1079 401.1873 C 350.74963 399.6408 346.09283 399.12284 341.50125 399.67383 Z" fill="#cbcbcb"/>
        <path d="M 341.50125 399.67383 L 340.23896 399.8253 C 337.67147 400.1334 335.83987 402.46452 336.14797 405.032 C 336.2497 405.8799 336.5814 406.6838 337.10713 407.3567 L 342.24766 413.9366 C 346.29175 419.11304 351.92306 422.81906 358.277 424.48567 L 388.70763 432.46747 C 388.70763 432.46747 449.3759 434.4458 450.03534 434.4458 C 450.6948 434.4458 480.3695 427.8514 480.3695 427.19197 C 480.3695 426.53253 488.94217 421.91647 488.94217 421.91647 L 499.74204 413.1935 C 503.6117 410.068 505.31567 404.98075 504.10924 400.155 L 504.10924 400.155 C 503.24007 396.67834 499.71705 394.56453 496.2404 395.4337 C 495.76395 395.5528 495.3026 395.7256 494.86516 395.9488 L 475.53084 405.81324 C 471.76513 407.7345 467.6359 408.8382 463.4138 409.052 L 420.099 411.24515 C 418.5174 411.32523 416.93196 411.27996 415.3575 411.10975 L 372.41943 406.4678 C 370.0974 406.21676 367.81266 405.69544 365.6116 404.9144 L 355.1079 401.1873 C 350.74963 399.6408 346.09283 399.12284 341.50125 399.67383 Z" stroke="black" stroke-linecap="round" stroke-linejoin="round" stroke-width="5"/>
      </g>
      <g id="Graphic_12">
        <path d="M 341.50125 410.22483 L 340.23896 410.3763 C 337.67147 410.6844 335.83987 413.01553 336.14797 415.583 C 336.2497 416.4309 336.5814 417.2348 337.10713 417.90773 L 342.24766 424.4876 C 346.29175 429.66404 351.92306 433.37006 358.277 435.03667 L 388.70763 443.0185 C 388.70763 443.0185 449.3759 444.9968 450.03534 444.9968 C 450.6948 444.9968 480.3695 438.4024 480.3695 437.74297 C 480.3695 437.08353 488.94217 432.46747 488.94217 432.46747 L 499.74204 423.7445 C 503.6117 420.619 505.31567 415.53175 504.10924 410.706 L 504.10924 410.706 C 503.24007 407.22934 499.71705 405.11553 496.2404 405.9847 C 495.76395 406.1038 495.3026 406.2766 494.86516 406.4998 L 475.53084 416.36424 C 471.76513 418.2855 467.6359 419.38923 463.4138 419.603 L 420.099 421.79616 C 418.5174 421.87624 416.93196 421.83096 415.3575 421.66075 L 372.41943 417.0188 C 370.0974 416.76777 367.81266 416.24644 365.6116 415.4654 L 355.1079 411.7383 C 350.74963 410.1918 346.09283 409.67384 341.50125 410.22483 Z" fill="#cbcbcb"/>
        <path d="M 341.50125 410.22483 L 340.23896 410.3763 C 337.67147 410.6844 335.83987 413.01553 336.14797 415.583 C 336.2497 416.4309 336.5814 417.2348 337.10713 417.90773 L 342.24766 424.4876 C 346.29175 429.66404 351.92306 433.37006 358.277 435.03667 L 388.70763 443.0185 C 388.70763 443.0185 449.3759 444.9968 450.03534 444.9968 C 450.6948 444.9968 480.3695 438.4024 480.3695 437.74297 C 480.3695 437.08353 488.94217 432.46747 488.94217 432.46747 L 499.74204 423.7445 C 503.6117 420.619 505.31567 415.53175 504.10924 410.706 L 504.10924 410.706 C 503.24007 407.22934 499.71705 405.11553 496.2404 405.9847 C 495.76395 406.1038 495.3026 406.2766 494.86516 406.4998 L 475.53084 416.36424 C 471.76513 418.2855 467.6359 419.38923 463.4138 419.603 L 420.099 421.79616 C 418.5174 421.87624 416.93196 421.83096 415.3575 421.66075 L 372.41943 417.0188 C 370.0974 416.76777 367.81266 416.24644 365.6116 415.4654 L 355.1079 411.7383 C 350.74963 410.1918 346.09283 409.67384 341.50125 410.22483 Z" stroke="black" stroke-linecap="round" stroke-linejoin="round" stroke-width="5"/>
      </g>
      <g id="Graphic_13">
        <path d="M 341.50125 424.73246 L 340.23896 424.88394 C 337.67147 425.19203 335.83987 427.52316 336.14797 430.09065 C 336.2497 430.9385 336.5814 431.7424 337.10713 432.41536 L 342.24766 438.99523 C 346.29175 444.17167 351.92306 447.8777 358.277 449.5443 L 388.70763 457.5261 C 388.70763 457.5261 449.3759 459.5044 450.03534 459.5044 C 450.6948 459.5044 480.3695 452.91004 480.3695 452.2506 C 480.3695 451.59116 488.94217 446.9751 488.94217 446.9751 L 499.74204 438.2521 C 503.6117 435.1266 505.31567 430.0394 504.10924 425.21365 L 504.10924 425.21365 C 503.24007 421.73697 499.71705 419.62316 496.2404 420.49234 C 495.76395 420.61144 495.3026 420.78424 494.86516 421.0074 L 475.53084 430.87187 C 471.76513 432.79315 467.6359 433.89686 463.4138 434.11063 L 420.099 436.3038 C 418.5174 436.38387 416.93196 436.3386 415.3575 436.1684 L 372.41943 431.5264 C 370.0974 431.2754 367.81266 430.75407 365.6116 429.97305 L 355.1079 426.24593 C 350.74963 424.69945 346.09283 424.18147 341.50125 424.73246 Z" fill="#cbcbcb"/>
        <path d="M 341.50125 424.73246 L 340.23896 424.88394 C 337.67147 425.19203 335.83987 427.52316 336.14797 430.09065 C 336.2497 430.9385 336.5814 431.7424 337.10713 432.41536 L 342.24766 438.99523 C 346.29175 444.17167 351.92306 447.8777 358.277 449.5443 L 388.70763 457.5261 C 388.70763 457.5261 449.3759 459.5044 450.03534 459.5044 C 450.6948 459.5044 480.3695 452.91004 480.3695 452.2506 C 480.3695 451.59116 488.94217 446.9751 488.94217 446.9751 L 499.74204 438.2521 C 503.6117 435.1266 505.31567 430.0394 504.10924 425.21365 L 504.10924 425.21365 C 503.24007 421.73697 499.71705 419.62316 496.2404 420.49234 C 495.76395 420.61144 495.3026 420.78424 494.86516 421.0074 L 475.53084 430.87187 C 471.76513 432.79315 467.6359 433.89686 463.4138 434.11063 L 420.099 436.3038 C 418.5174 436.38387 416.93196 436.3386 415.3575 436.1684 L 372.41943 431.5264 C 370.0974 431.2754 367.81266 430.75407 365.6116 429.97305 L 355.1079 426.24593 C 350.74963 424.69945 346.09283 424.18147 341.50125 424.73246 Z" stroke="black" stroke-linecap="round" stroke-linejoin="round" stroke-width="5"/>
      </g>
      <g id="Graphic_14">
        <path d="M 341.50125 441.87784 L 340.23896 442.0293 C 337.67147 442.3374 335.83987 444.66854 336.14797 447.23603 C 336.2497 448.0839 336.5814 448.8878 337.10713 449.56074 L 342.24766 456.1406 C 346.29175 461.31705 351.92306 465.0231 358.277 466.6897 L 388.70763 474.6715 C 388.70763 474.6715 449.3759 476.6498 450.03534 476.6498 C 450.6948 476.6498 480.3695 470.0554 480.3695 469.396 C 480.3695 468.73655 488.94217 464.1205 488.94217 464.1205 L 499.74204 455.3975 C 503.6117 452.272 505.31567 447.18476 504.10924 442.35904 L 504.10924 442.35904 C 503.24007 438.88235 499.71705 436.76855 496.2404 437.6377 C 495.76395 437.7568 495.3026 437.9296 494.86516 438.1528 L 475.53084 448.01725 C 471.76513 449.93853 467.6359 451.04224 463.4138 451.256 L 420.099 453.44917 C 418.5174 453.52925 416.93196 453.48397 415.3575 453.31376 L 372.41943 448.6718 C 370.0974 448.4208 367.81266 447.89945 365.6116 447.11843 L 355.1079 443.3913 C 350.74963 441.84483 346.09283 441.32685 341.50125 441.87784 Z" fill="#cbcbcb"/>
        <path d="M 341.50125 441.87784 L 340.23896 442.0293 C 337.67147 442.3374 335.83987 444.66854 336.14797 447.23603 C 336.2497 448.0839 336.5814 448.8878 337.10713 449.56074 L 342.24766 456.1406 C 346.29175 461.31705 351.92306 465.0231 358.277 466.6897 L 388.70763 474.6715 C 388.70763 474.6715 449.3759 476.6498 450.03534 476.6498 C 450.6948 476.6498 480.3695 470.0554 480.3695 469.396 C 480.3695 468.73655 488.94217 464.1205 488.94217 464.1205 L 499.74204 455.3975 C 503.6117 452.272 505.31567 447.18476 504.10924 442.35904 L 504.10924 442.35904 C 503.24007 438.88235 499.71705 436.76855 496.2404 437.6377 C 495.76395 437.7568 495.3026 437.9296 494.86516 438.1528 L 475.53084 448.01725 C 471.76513 449.93853 467.6359 451.04224 463.4138 451.256 L 420.099 453.44917 C 418.5174 453.52925 416.93196 453.48397 415.3575 453.31376 L 372.41943 448.6718 C 370.0974 448.4208 367.81266 447.89945 365.6116 447.11843 L 355.1079 443.3913 C 350.74963 441.84483 346.09283 441.32685 341.50125 441.87784 Z" stroke="black" stroke-linecap="round" stroke-linejoin="round" stroke-width="5"/>
      </g>
      <g id="Graphic_15">
        <path d="M 341.50125 452.42885 L 340.23896 452.5803 C 337.67147 452.8884 335.83987 455.21954 336.14797 457.78703 C 336.2497 458.6349 336.5814 459.4388 337.10713 460.11174 L 342.24766 466.6916 C 346.29175 471.86806 351.92306 475.5741 358.277 477.2407 L 388.70763 485.2225 C 388.70763 485.2225 449.3759 487.2008 450.03534 487.2008 C 450.6948 487.2008 480.3695 480.6064 480.3695 479.947 C 480.3695 479.28755 488.94217 474.6715 488.94217 474.6715 L 499.74204 465.9485 C 503.6117 462.823 505.31567 457.73577 504.10924 452.91004 L 504.10924 452.91004 C 503.24007 449.43336 499.71705 447.31955 496.2404 448.1887 C 495.76395 448.3078 495.3026 448.48063 494.86516 448.7038 L 475.53084 458.56826 C 471.76513 460.48954 467.6359 461.59324 463.4138 461.807 L 420.099 464.00017 C 418.5174 464.08025 416.93196 464.035 415.3575 463.86477 L 372.41943 459.2228 C 370.0974 458.9718 367.81266 458.45046 365.6116 457.66943 L 355.1079 453.9423 C 350.74963 452.39583 346.09283 451.87786 341.50125 452.42885 Z" fill="#cbcbcb"/>
        <path d="M 341.50125 452.42885 L 340.23896 452.5803 C 337.67147 452.8884 335.83987 455.21954 336.14797 457.78703 C 336.2497 458.6349 336.5814 459.4388 337.10713 460.11174 L 342.24766 466.6916 C 346.29175 471.86806 351.92306 475.5741 358.277 477.2407 L 388.70763 485.2225 C 388.70763 485.2225 449.3759 487.2008 450.03534 487.2008 C 450.6948 487.2008 480.3695 480.6064 480.3695 479.947 C 480.3695 479.28755 488.94217 474.6715 488.94217 474.6715 L 499.74204 465.9485 C 503.6117 462.823 505.31567 457.73577 504.10924 452.91004 L 504.10924 452.91004 C 503.24007 449.43336 499.71705 447.31955 496.2404 448.1887 C 495.76395 448.3078 495.3026 448.48063 494.86516 448.7038 L 475.53084 458.56826 C 471.76513 460.48954 467.6359 461.59324 463.4138 461.807 L 420.099 464.00017 C 418.5174 464.08025 416.93196 464.035 415.3575 463.86477 L 372.41943 459.2228 C 370.0974 458.9718 367.81266 458.45046 365.6116 457.66943 L 355.1079 453.9423 C 350.74963 452.39583 346.09283 451.87786 341.50125 452.42885 Z" stroke="black" stroke-linecap="round" stroke-linejoin="round" stroke-width="5"/>
      </g>
      <g id="Graphic_16">
        <path d="M 341.50125 466.9365 L 340.23896 467.08795 C 337.67147 467.39605 335.83987 469.7272 336.14797 472.29466 C 336.2497 473.14254 336.5814 473.94644 337.10713 474.6194 L 342.24766 481.19925 C 346.29175 486.3757 351.92306 490.0817 358.277 491.7483 L 388.70763 499.7301 C 388.70763 499.7301 449.3759 501.70843 450.03534 501.70843 C 450.6948 501.70843 480.3695 495.11406 480.3695 494.4546 C 480.3695 493.7952 488.94217 489.1791 488.94217 489.1791 L 499.74204 480.45614 C 503.6117 477.33064 505.31567 472.2434 504.10924 467.41767 L 504.10924 467.41767 C 503.24007 463.941 499.71705 461.8272 496.2404 462.69635 C 495.76395 462.81546 495.3026 462.98826 494.86516 463.21144 L 475.53084 473.0759 C 471.76513 474.99717 467.6359 476.1009 463.4138 476.31465 L 420.099 478.5078 C 418.5174 478.5879 416.93196 478.5426 415.3575 478.3724 L 372.41943 473.73044 C 370.0974 473.4794 367.81266 472.9581 365.6116 472.17706 L 355.1079 468.44995 C 350.74963 466.90346 346.09283 466.3855 341.50125 466.9365 Z" fill="#cbcbcb"/>
        <path d="M 341.50125 466.9365 L 340.23896 467.08795 C 337.67147 467.39605 335.83987 469.7272 336.14797 472.29466 C 336.2497 473.14254 336.5814 473.94644 337.10713 474.6194 L 342.24766 481.19925 C 346.29175 486.3757 351.92306 490.0817 358.277 491.7483 L 388.70763 499.7301 C 388.70763 499.7301 449.3759 501.70843 450.03534 501.70843 C 450.6948 501.70843 480.3695 495.11406 480.3695 494.4546 C 480.3695 493.7952 488.94217 489.1791 488.94217 489.1791 L 499.74204 480.45614 C 503.6117 477.33064 505.31567 472.2434 504.10924 467.41767 L 504.10924 467.41767 C 503.24007 463.941 499.71705 461.8272 496.2404 462.69635 C 495.76395 462.81546 495.3026 462.98826 494.86516 463.21144 L 475.53084 473.0759 C 471.76513 474.99717 467.6359 476.1009 463.4138 476.31465 L 420.099 478.5078 C 418.5174 478.5879 416.93196 478.5426 415.3575 478.3724 L 372.41943 473.73044 C 370.0974 473.4794 367.81266 472.9581 365.6116 472.17706 L 355.1079 468.44995 C 350.74963 466.90346 346.09283 466.3855 341.50125 466.9365 Z" stroke="black" stroke-linecap="round" stroke-linejoin="round" stroke-width="5"/>
      </g>
      <g id="Graphic_17">
        <path d="M 341.50125 484.08186 L 340.23896 484.23333 C 337.67147 484.54143 335.83987 486.87256 336.14797 489.44005 C 336.2497 490.2879 336.5814 491.0918 337.10713 491.76475 L 342.24766 498.34463 C 346.29175 503.5211 351.92306 507.2271 358.277 508.8937 L 388.70763 516.8755 C 388.70763 516.8755 449.3759 518.8538 450.03534 518.8538 C 450.6948 518.8538 480.3695 512.25944 480.3695 511.6 C 480.3695 510.94056 488.94217 506.3245 488.94217 506.3245 L 499.74204 497.6015 C 503.6117 494.476 505.31567 489.3888 504.10924 484.56305 L 504.10924 484.56305 C 503.24007 481.08637 499.71705 478.97256 496.2404 479.84173 C 495.76395 479.96084 495.3026 480.13364 494.86516 480.3568 L 475.53084 490.22127 C 471.76513 492.14255 467.6359 493.24625 463.4138 493.46003 L 420.099 495.6532 C 418.5174 495.73326 416.93196 495.688 415.3575 495.5178 L 372.41943 490.8758 C 370.0974 490.6248 367.81266 490.10347 365.6116 489.32244 L 355.1079 485.59533 C 350.74963 484.04885 346.09283 483.53087 341.50125 484.08186 Z" fill="#cbcbcb"/>
        <path d="M 341.50125 484.08186 L 340.23896 484.23333 C 337.67147 484.54143 335.83987 486.87256 336.14797 489.44005 C 336.2497 490.2879 336.5814 491.0918 337.10713 491.76475 L 342.24766 498.34463 C 346.29175 503.5211 351.92306 507.2271 358.277 508.8937 L 388.70763 516.8755 C 388.70763 516.8755 449.3759 518.8538 450.03534 518.8538 C 450.6948 518.8538 480.3695 512.25944 480.3695 511.6 C 480.3695 510.94056 488.94217 506.3245 488.94217 506.3245 L 499.74204 497.6015 C 503.6117 494.476 505.31567 489.3888 504.10924 484.56305 L 504.10924 484.56305 C 503.24007 481.08637 499.71705 478.97256 496.2404 479.84173 C 495.76395 479.96084 495.3026 480.13364 494.86516 480.3568 L 475.53084 490.22127 C 471.76513 492.14255 467.6359 493.24625 463.4138 493.46003 L 420.099 495.6532 C 418.5174 495.73326 416.93196 495.688 415.3575 495.5178 L 372.41943 490.8758 C 370.0974 490.6248 367.81266 490.10347 365.6116 489.32244 L 355.1079 485.59533 C 350.74963 484.04885 346.09283 483.53087 341.50125 484.08186 Z" stroke="black" stroke-linecap="round" stroke-linejoin="round" stroke-width="5"/>
      </g>
      <g id="Graphic_18">
        <path d="M 341.50125 494.63286 L 340.23896 494.78434 C 337.67147 495.09244 335.83987 497.42356 336.14797 499.99105 C 336.2497 500.8389 336.5814 501.6428 337.10713 502.31576 L 342.24766 508.89564 C 346.29175 514.0721 351.92306 517.7781 358.277 519.4447 L 388.70763 527.4265 C 388.70763 527.4265 449.3759 529.4048 450.03534 529.4048 C 450.6948 529.4048 480.3695 522.81044 480.3695 522.151 C 480.3695 521.49157 488.94217 516.8755 488.94217 516.8755 L 499.74204 508.1525 C 503.6117 505.027 505.31567 499.9398 504.10924 495.11406 L 504.10924 495.11406 C 503.24007 491.6374 499.71705 489.52357 496.2404 490.39274 C 495.76395 490.51184 495.3026 490.68464 494.86516 490.9078 L 475.53084 500.7723 C 471.76513 502.69355 467.6359 503.79726 463.4138 504.01104 L 420.099 506.2042 C 418.5174 506.28427 416.93196 506.239 415.3575 506.0688 L 372.41943 501.4268 C 370.0974 501.1758 367.81266 500.6545 365.6116 499.87345 L 355.1079 496.14633 C 350.74963 494.59985 346.09283 494.0819 341.50125 494.63286 Z" fill="#cbcbcb"/>
        <path d="M 341.50125 494.63286 L 340.23896 494.78434 C 337.67147 495.09244 335.83987 497.42356 336.14797 499.99105 C 336.2497 500.8389 336.5814 501.6428 337.10713 502.31576 L 342.24766 508.89564 C 346.29175 514.0721 351.92306 517.7781 358.277 519.4447 L 388.70763 527.4265 C 388.70763 527.4265 449.3759 529.4048 450.03534 529.4048 C 450.6948 529.4048 480.3695 522.81044 480.3695 522.151 C 480.3695 521.49157 488.94217 516.8755 488.94217 516.8755 L 499.74204 508.1525 C 503.6117 505.027 505.31567 499.9398 504.10924 495.11406 L 504.10924 495.11406 C 503.24007 491.6374 499.71705 489.52357 496.2404 490.39274 C 495.76395 490.51184 495.3026 490.68464 494.86516 490.9078 L 475.53084 500.7723 C 471.76513 502.69355 467.6359 503.79726 463.4138 504.01104 L 420.099 506.2042 C 418.5174 506.28427 416.93196 506.239 415.3575 506.0688 L 372.41943 501.4268 C 370.0974 501.1758 367.81266 500.6545 365.6116 499.87345 L 355.1079 496.14633 C 350.74963 494.59985 346.09283 494.0819 341.50125 494.63286 Z" stroke="black" stroke-linecap="round" stroke-linejoin="round" stroke-width="5"/>
      </g>
      <g id="Graphic_19">
        <path d="M 341.50125 509.1405 L 340.23896 509.29197 C 337.67147 509.60007 335.83987 511.9312 336.14797 514.4987 C 336.2497 515.34655 336.5814 516.15045 337.10713 516.8234 L 342.24766 523.40327 C 346.29175 528.5797 351.92306 532.2857 358.277 533.95233 L 388.70763 541.93414 C 388.70763 541.93414 449.3759 543.91245 450.03534 543.91245 C 450.6948 543.91245 480.3695 537.3181 480.3695 536.65863 C 480.3695 535.9992 488.94217 531.38313 488.94217 531.38313 L 499.74204 522.66016 C 503.6117 519.53465 505.31567 514.4474 504.10924 509.6217 L 504.10924 509.6217 C 503.24007 506.145 499.71705 504.0312 496.2404 504.90037 C 495.76395 505.0195 495.3026 505.1923 494.86516 505.41545 L 475.53084 515.2799 C 471.76513 517.2012 467.6359 518.3049 463.4138 518.51867 L 420.099 520.7118 C 418.5174 520.7919 416.93196 520.7466 415.3575 520.5764 L 372.41943 515.93446 C 370.0974 515.6834 367.81266 515.1621 365.6116 514.3811 L 355.1079 510.65396 C 350.74963 509.1075 346.09283 508.5895 341.50125 509.1405 Z" fill="#cbcbcb"/>
        <path d="M 341.50125 509.1405 L 340.23896 509.29197 C 337.67147 509.60007 335.83987 511.9312 336.14797 514.4987 C 336.2497 515.34655 336.5814 516.15045 337.10713 516.8234 L 342.24766 523.40327 C 346.29175 528.5797 351.92306 532.2857 358.277 533.95233 L 388.70763 541.93414 C 388.70763 541.93414 449.3759 543.91245 450.03534 543.91245 C 450.6948 543.91245 480.3695 537.3181 480.3695 536.65863 C 480.3695 535.9992 488.94217 531.38313 488.94217 531.38313 L 499.74204 522.66016 C 503.6117 519.53465 505.31567 514.4474 504.10924 509.6217 L 504.10924 509.6217 C 503.24007 506.145 499.71705 504.0312 496.2404 504.90037 C 495.76395 505.0195 495.3026 505.1923 494.86516 505.41545 L 475.53084 515.2799 C 471.76513 517.2012 467.6359 518.3049 463.4138 518.51867 L 420.099 520.7118 C 418.5174 520.7919 416.93196 520.7466 415.3575 520.5764 L 372.41943 515.93446 C 370.0974 515.6834 367.81266 515.1621 365.6116 514.3811 L 355.1079 510.65396 C 350.74963 509.1075 346.09283 508.5895 341.50125 509.1405 Z" stroke="black" stroke-linecap="round" stroke-linejoin="round" stroke-width="5"/>
      </g>
      <g id="Graphic_25">
        <path d="M 266.0522 634.91486 L 239.6747 650.7414 L 242.31245 687.6699 L 246.26908 687.6699 L 254.18233 779.9912 L 272.6466 797.1365 L 275.28434 777.3534 L 267.3711 688.98876 L 271.3277 685.0321 L 271.3277 657.33574 L 293.7486 641.5092 Z" fill="#ccc"/>
        <path d="M 266.0522 634.91486 L 239.6747 650.7414 L 242.31245 687.6699 L 246.26908 687.6699 L 254.18233 779.9912 L 272.6466 797.1365 L 275.28434 777.3534 L 267.3711 688.98876 L 271.3277 685.0321 L 271.3277 657.33574 L 293.7486 641.5092 Z" stroke="black" stroke-linecap="round" stroke-linejoin="round" stroke-width="5"/>
      </g>
      <g id="Graphic_26">
        <path d="M 314.8506 656.6763 L 288.4731 672.5028 L 291.11084 709.4313 L 295.06747 709.4313 L 302.98072 801.7526 L 321.44498 818.898 L 324.08273 799.1149 L 316.16948 710.7502 L 320.1261 706.7936 L 320.1261 679.0972 L 342.547 663.2707 Z" fill="#ccc"/>
        <path d="M 314.8506 656.6763 L 288.4731 672.5028 L 291.11084 709.4313 L 295.06747 709.4313 L 302.98072 801.7526 L 321.44498 818.898 L 324.08273 799.1149 L 316.16948 710.7502 L 320.1261 706.7936 L 320.1261 679.0972 L 342.547 663.2707 Z" stroke="black" stroke-linecap="round" stroke-linejoin="round" stroke-width="5"/>
      </g>
      <g id="Graphic_27">
        <path d="M 358.3735 677.7783 L 331.996 693.6048 L 334.63373 730.5333 L 338.59036 730.5333 L 346.5036 822.8546 L 364.96787 840 L 367.60562 820.2169 L 359.69237 731.8522 L 363.649 727.8956 L 363.649 700.1992 L 386.0699 684.3727 Z" fill="#ccc"/>
        <path d="M 358.3735 677.7783 L 331.996 693.6048 L 334.63373 730.5333 L 338.59036 730.5333 L 346.5036 822.8546 L 364.96787 840 L 367.60562 820.2169 L 359.69237 731.8522 L 363.649 727.8956 L 363.649 700.1992 L 386.0699 684.3727 Z" stroke="black" stroke-linecap="round" stroke-linejoin="round" stroke-width="5"/>
      </g>
      <g id="Graphic_28">
        <path d="M 513.9309 689.6482 L 513.9309 719.9823 L 528.43853 751.6353 L 523.16303 784.6072 L 556.1349 758.2297 L 560.09155 725.2578 L 546.9028 708.11245 L 546.9028 677.7783 Z" fill="#ccc"/>
        <path d="M 513.9309 689.6482 L 513.9309 719.9823 L 528.43853 751.6353 L 523.16303 784.6072 L 556.1349 758.2297 L 560.09155 725.2578 L 546.9028 708.11245 L 546.9028 677.7783 Z" stroke="black" stroke-linecap="round" stroke-linejoin="round" stroke-width="5"/>
      </g>
      <g id="Line_30">
        <path d="M 336.88596 171.46587 L 268.5692 207.21064 C 244.10555 220.01055 226.02258 242.35535 218.6052 268.95028 L 217.346 273.46506 C 209.8195 300.45124 222.05806 329.0426 246.7789 342.22527 L 326.78584 384.8899 C 341.78183 392.8867 358.56846 396.9297 375.5609 396.6372 L 529.96155 393.97934 C 569.9013 393.2918 605.29815 368.0917 619.0191 330.57644 L 621.23984 324.50457 C 633.7312 290.35118 624.8844 252.04375 598.6819 226.8264 L 571.37374 200.545 C 564.5095 193.93882 556.7551 188.36517 548.35635 183.97487" marker-end="url(#FilledArrow_Marker_2)" stroke="#0432ff" stroke-linecap="round" stroke-linejoin="round" stroke-width="12"/>
      </g>
    </g>
  </g>
</svg>
