<?xml version="1.0" encoding="UTF-8" standalone="no"?>
<!DOCTYPE svg PUBLIC "-//W3C//DTD SVG 1.1//EN" "http://www.w3.org/Graphics/SVG/1.1/DTD/svg11.dtd">
<svg xmlns="http://www.w3.org/2000/svg" version="1.1" xmlns:dc="http://purl.org/dc/elements/1.1/" xmlns:xl="http://www.w3.org/1999/xlink" viewBox="0 0 850.394 850.394" width="850.394" height="850.394">
  <defs/>
  <metadata> Produced by OmniGraffle 7.9.4 
    <dc:date>2019-03-10 21:54:02 +0000</dc:date>
  </metadata>
  <g id="Scale" fill="none" stroke-opacity="1" fill-opacity="1" stroke-dasharray="none" stroke="none">
    <title>Scale</title>
    <g id="Scale: Layer 1">
      <title>Layer 1</title>
      <g id="Line_2">
        <line x1="114.72923" y1="228" x2="114.72923" y2="600.7617" stroke="black" stroke-linecap="round" stroke-linejoin="round" stroke-width="11"/>
      </g>
      <g id="Line_3">
        <line x1="225.72923" y1="228" x2="225.72923" y2="600.7617" stroke="black" stroke-linecap="round" stroke-linejoin="round" stroke-width="11"/>
      </g>
      <g id="Line_4">
        <line x1="408.42623" y1="228" x2="408.42623" y2="600.7617" stroke="black" stroke-linecap="round" stroke-linejoin="round" stroke-width="11"/>
      </g>
      <g id="Line_5">
        <line x1="539.7292" y1="228" x2="539.7292" y2="600.7617" stroke="black" stroke-linecap="round" stroke-linejoin="round" stroke-width="11"/>
      </g>
      <g id="Line_6">
        <line x1="612.7292" y1="228" x2="612.7292" y2="600.7617" stroke="black" stroke-linecap="round" stroke-linejoin="round" stroke-width="11"/>
      </g>
      <g id="Line_7">
        <line x1="762.7292" y1="228" x2="762.7292" y2="600.7617" stroke="black" stroke-linecap="round" stroke-linejoin="round" stroke-width="11"/>
      </g>
      <g id="Line_8">
        <line x1="38.729227" y1="420" x2="811.6648" y2="420" stroke="black" stroke-linecap="round" stroke-linejoin="round" stroke-width="4"/>
      </g>
      <g id="Line_9">
        <path d="M 101 637 L 108.52734 660.1016 L 114.72923 654.0957 L 115.72923 658.4414 L 121.85742 627.5918 L 129.9043 658.4219 L 125.8711 658.4219 L 125.8711 658.4219" stroke="black" stroke-linecap="round" stroke-linejoin="round" stroke-width="2"/>
      </g>
      <g id="Line_10">
        <path d="M 254.25 652.25 L 219.30442 666.5098 L 225.5063 660.5039 L 226.5063 664.8496 L 232.6345 634 L 240.68138 664.8301 L 236.64817 664.8301 L 236.64817 664.8301" stroke="black" stroke-linecap="round" stroke-linejoin="round" stroke-width="2"/>
      </g>
      <g id="Line_11">
        <path d="M 426.399 645.8418 L 391.45344 660.1016 L 397.6553 654.0957 L 398.6553 658.4414 L 394.25 634.75 L 412.8304 658.4219 L 408.7972 658.4219 L 408.7972 658.4219" stroke="black" stroke-linecap="round" stroke-linejoin="round" stroke-width="2"/>
      </g>
      <g id="Line_12">
        <path d="M 541.75 662.9307 L 522.75644 662.9307 L 528.9583 656.9248 L 529.9583 661.2705 L 525.553 637.5791 L 544.1334 661.251 L 540.1002 661.251 L 540.1002 661.251" stroke="black" stroke-linecap="round" stroke-linejoin="round" stroke-width="2"/>
      </g>
      <g id="Line_13">
        <path d="M 613.7292 649.75 L 601.52734 662.9307 L 607.7292 656.9248 L 608.7292 661.2705 L 613.7292 664.75 L 622.9043 661.251 L 618.8711 661.251 L 618.8711 661.251" stroke="black" stroke-linecap="round" stroke-linejoin="round" stroke-width="2"/>
      </g>
      <g id="Line_14">
        <path d="M 748.7771 643.4082 L 756.3044 666.5098 L 762.5063 660.5039 L 763.5063 664.8496 L 769.6345 634 L 777.6814 664.8301 L 773.6482 664.8301 L 773.6482 664.8301" stroke="black" stroke-linecap="round" stroke-linejoin="round" stroke-width="2"/>
      </g>
    </g>
  </g>
</svg>
