<?xml version="1.0" encoding="UTF-8" standalone="no"?>
<!DOCTYPE svg PUBLIC "-//W3C//DTD SVG 1.1//EN" "http://www.w3.org/Graphics/SVG/1.1/DTD/svg11.dtd">
<svg xmlns:xl="http://www.w3.org/1999/xlink" xmlns:dc="http://purl.org/dc/elements/1.1/" version="1.1" xmlns="http://www.w3.org/2000/svg" viewBox="0 0 850.394 850.394" width="850.394" height="850.394">
  <defs/>
  <metadata> Produced by OmniGraffle 7.9.4 
    <dc:date>2019-05-18 01:33:39 +0000</dc:date>
  </metadata>
  <g id="Canvas_221" stroke-dasharray="none" fill-opacity="1" stroke="none" fill="none" stroke-opacity="1">
    <title>Canvas 221</title>
    <g id="Canvas_221: Layer 1">
      <title>Layer 1</title>
      <g id="Line_64">
        <path d="M 616.7638 523.04734 L 497.45734 521.86464 C 497.28346 521.8629 497.1096 521.8589 496.93584 521.8527 L 435.34244 519.63464 C 433.88636 519.5822 432.44036 519.3708 431.0302 519.0042 L 384.61186 506.9372" stroke="black" stroke-linecap="round" stroke-linejoin="round" stroke-width="16"/>
      </g>
      <g id="Line_63">
        <path d="M 609.8532 594.434 L 522.96616 601.9887 C 522.6794 602.0136 522.3922 602.0324 522.10464 602.0449 L 431.2335 606.0057 C 430.2466 606.0487 429.25784 606.0185 428.27537 605.9154 L 350.26233 597.7291" stroke="black" stroke-linecap="round" stroke-linejoin="round" stroke-width="16"/>
      </g>
      <g id="Graphic_62">
        <path d="M 648.13 505.119 L 630.4097 507.1157 L 614.4387 514.2539 L 604.4841 543.1059 L 599.3317 570.6341 L 606.0476 588.8701 L 615.1158 601.9353 L 636.6126 610.11245 L 651.3745 609.1945 L 657.7728 597.8956 Z" fill="#666"/>
        <path d="M 648.13 505.119 L 630.4097 507.1157 L 614.4387 514.2539 L 604.4841 543.1059 L 599.3317 570.6341 L 606.0476 588.8701 L 615.1158 601.9353 L 636.6126 610.11245 L 651.3745 609.1945 L 657.7728 597.8956 Z" stroke="black" stroke-linecap="round" stroke-linejoin="round" stroke-width="5"/>
      </g>
      <g id="Graphic_61">
        <path d="M 636.9191 605.3603 L 625.2244 600.293 L 609.40785 570.9169 L 611.825 561.89606 L 620.108 527.3752 L 627.16504 511.8628 L 647.4469 504.72825 L 662.7823 508.83737 L 680.6945 521.3717 L 687.1686 540.5098 L 689.085 547.7912 L 681.7688 578.70377 L 675.3074 599.21 L 662.7256 606.47406 L 651.3524 609.2277 Z" fill="#cbcbcb"/>
        <path d="M 636.9191 605.3603 L 625.2244 600.293 L 609.40785 570.9169 L 611.825 561.89606 L 620.108 527.3752 L 627.16504 511.8628 L 647.4469 504.72825 L 662.7823 508.83737 L 680.6945 521.3717 L 687.1686 540.5098 L 689.085 547.7912 L 681.7688 578.70377 L 675.3074 599.21 L 662.7256 606.47406 L 651.3524 609.2277 Z" stroke="black" stroke-linecap="round" stroke-linejoin="round" stroke-width="5"/>
      </g>
      <g id="Line_60">
        <line x1="615.1315" y1="513.47267" x2="627.6418" y2="512.1694" stroke="black" stroke-linecap="round" stroke-linejoin="round" stroke-width="3"/>
      </g>
      <g id="Line_59">
        <line x1="599.6619" y1="571.206" x2="608.42726" y2="570.9682" stroke="black" stroke-linecap="round" stroke-linejoin="round" stroke-width="3"/>
      </g>
      <g id="Line_58">
        <line x1="616.3034" y1="602.11616" x2="625.1014" y2="600.9084" stroke="black" stroke-linecap="round" stroke-linejoin="round" stroke-width="3"/>
      </g>
      <g id="Line_57">
        <path d="M 626.3487 517.9111 L 630.6334 519.87394 L 615.1012 566.8337 L 620.549 568.52484 L 635.1121 522.37077 L 639.9211 524.3601 L 625.6009 570.8216 L 629.5962 573.0448 L 644.34625 527.8228 L 648.305 530.1825 L 633.8841 576.1236 L 638.5293 577.5102 L 653.6254 532.4224 L 657.9883 534.2922 L 643.22845 579.12735 L 647.8543 582.3054 L 662.3286 536.5969 L 667.5959 538.4973 L 653.3077 584.48054 L 656.7601 587.4184 L 670.92214 541.8162 L 675.7174 544.7449 L 661.5741 590.481 L 666.5647 592.5583 L 680.3321 546.8809 L 684.78025 549.15775 L 672.3797 594.9809 L 672.99215 595.0573 L 674.6575 595.5775" stroke="#ff2600" stroke-linecap="square" stroke-linejoin="miter" stroke-width="3"/>
      </g>
      <g id="Graphic_15">
        <path d="M 226.03096 569.9721 L 232.90707 571.8146 L 276.45915 393.04935 L 239.5893 366.8471 L 236.5726 388.1072 L 207.34765 565.6914 Z" fill="#87dfff"/>
        <path d="M 226.03096 569.9721 L 232.90707 571.8146 L 276.45915 393.04935 L 239.5893 366.8471 L 236.5726 388.1072 L 207.34765 565.6914 Z" stroke="black" stroke-linecap="round" stroke-linejoin="round" stroke-width="5"/>
      </g>
      <g id="Graphic_14">
        <path d="M 278.242 393.16433 L 228.1721 566.8872 L 221.40292 565.0734 L 262.05153 381.83985 L 245.97095 371.45893 Z" fill="#fffcc7"/>
        <path d="M 278.242 393.16433 L 228.1721 566.8872 L 221.40292 565.0734 L 262.05153 381.83985 L 245.97095 371.45893 Z" stroke="black" stroke-linecap="round" stroke-linejoin="round" stroke-width="5"/>
      </g>
      <g id="Graphic_13">
        <circle cx="280.29598" cy="306.29598" r="87.3308547752388" fill="#fffcc7"/>
        <circle cx="280.29598" cy="306.29598" r="87.3308547752388" stroke="black" stroke-linecap="round" stroke-linejoin="round" stroke-width="7"/>
      </g>
      <g id="Graphic_12">
        <path d="M 250.6895 389.04627 L 218.33532 562.9198 L 211.56615 561.106 L 239.3463 381.29133 Z" fill="#fffcc7"/>
        <path d="M 250.6895 389.04627 L 218.33532 562.9198 L 211.56615 561.106 L 239.3463 381.29133 Z" stroke="black" stroke-linecap="round" stroke-linejoin="round" stroke-width="5"/>
      </g>
      <g id="Graphic_11">
        <path d="M 227.75948 568.1216 L 223.4154 591.9154 L 221.15467 594.93725 L 218.61536 604.4141 L 217.26153 604.0513 L 219.3079 591.54034 L 216.06652 584.14216 L 219.2135 564.816 Z" fill="#999"/>
        <path d="M 227.75948 568.1216 L 223.4154 591.9154 L 221.15467 594.93725 L 218.61536 604.4141 L 217.26153 604.0513 L 219.3079 591.54034 L 216.06652 584.14216 L 219.2135 564.816 Z" stroke="black" stroke-linecap="round" stroke-linejoin="round" stroke-width="5"/>
      </g>
      <g id="Graphic_10">
        <path d="M 219.48574 564.91314 L 214.97112 586.6056 L 212.8095 589.7991 L 210.34162 601.2056 L 208.98779 600.84285 L 209.72633 587.2559 L 207.79278 580.9337 L 210.93975 561.6075 Z" fill="#999"/>
        <path d="M 219.48574 564.91314 L 214.97112 586.6056 L 212.8095 589.7991 L 210.34162 601.2056 L 208.98779 600.84285 L 209.72633 587.2559 L 207.79278 580.9337 L 210.93975 561.6075 Z" stroke="black" stroke-linecap="round" stroke-linejoin="round" stroke-width="5"/>
      </g>
      <g id="Graphic_9">
        <circle cx="280.29598" cy="306.29598" r="73.0561453499451" fill="#333"/>
        <circle cx="280.29598" cy="306.29598" r="73.0561453499451" stroke="black" stroke-linecap="round" stroke-linejoin="round" stroke-width="7"/>
      </g>
      <g id="Line_8">
        <line x1="231.62567" y1="345.12566" x2="302.3187" y2="364.0678" stroke="#fffcc7" stroke-linecap="round" stroke-linejoin="round" stroke-width="21"/>
      </g>
      <g id="Line_7">
        <line x1="222.083" y1="321.66024" x2="321.08133" y2="348.18676" stroke="#fffcc7" stroke-linecap="round" stroke-linejoin="round" stroke-width="21"/>
      </g>
      <g id="Line_6">
        <line x1="221.14793" y1="299.10866" x2="334.2291" y2="328.3418" stroke="#fffcc7" stroke-linecap="round" stroke-linejoin="round" stroke-width="21"/>
      </g>
      <g id="Line_5">
        <line x1="329.79756" y1="262.699" x2="259.10452" y2="243.75687" stroke="#fffcc7" stroke-linecap="round" stroke-linejoin="round" stroke-width="21"/>
      </g>
      <g id="Line_4">
        <line x1="339.34023" y1="286.16444" x2="240.3419" y2="259.63792" stroke="#fffcc7" stroke-linecap="round" stroke-linejoin="round" stroke-width="21"/>
      </g>
      <g id="Line_3">
        <line x1="340.2753" y1="308.716" x2="227.19415" y2="279.48287" stroke="#fffcc7" stroke-linecap="round" stroke-linejoin="round" stroke-width="21"/>
      </g>
      <g id="Graphic_2">
        <circle cx="257.4891" cy="384.66107" r="7.58573459418976" fill="#333"/>
        <circle cx="257.4891" cy="384.66107" r="7.58573459418976" stroke="black" stroke-linecap="round" stroke-linejoin="round" stroke-width="7"/>
      </g>
      <g id="Graphic_39">
        <path d="M 310.82018 529.7429 L 310.82018 529.7429 C 304.31754 517.59536 306.2737 502.6554 315.68463 492.5915 L 572.15655 218.32405 C 579.13985 210.8562 590.8548 210.4634 598.32265 217.4467 C 599.4297 218.4819 600.4054 219.6491 601.22786 220.92214 L 604.6213 226.17448 C 610.20196 234.8122 609.23786 246.1303 602.27664 253.69968 L 590.6692 266.3212 C 590.5258 266.4771 590.38124 266.63194 590.2355 266.78566 L 337.552 533.3358 C 331.23294 540.0016 320.7066 540.2827 314.0408 533.9637 C 312.74816 532.7383 311.66077 531.3132 310.82018 529.7429 Z" fill="#ffb161"/>
        <path d="M 310.82018 529.7429 L 310.82018 529.7429 C 304.31754 517.59536 306.2737 502.6554 315.68463 492.5915 L 572.15655 218.32405 C 579.13985 210.8562 590.8548 210.4634 598.32265 217.4467 C 599.4297 218.4819 600.4054 219.6491 601.22786 220.92214 L 604.6213 226.17448 C 610.20196 234.8122 609.23786 246.1303 602.27664 253.69968 L 590.6692 266.3212 C 590.5258 266.4771 590.38124 266.63194 590.2355 266.78566 L 337.552 533.3358 C 331.23294 540.0016 320.7066 540.2827 314.0408 533.9637 C 312.74816 532.7383 311.66077 531.3132 310.82018 529.7429 Z" stroke="black" stroke-linecap="round" stroke-linejoin="round" stroke-width="5"/>
      </g>
      <g id="Graphic_38">
        <path d="M 267.53277 590.9065 L 271.84934 595.2231 L 337.3331 527.4581 L 309.97897 500.5857 L 307.2566 506.4474 L 253.16876 566.8139 Z" fill="#ffb261"/>
        <path d="M 267.53277 590.9065 L 271.84934 595.2231 L 337.3331 527.4581 L 309.97897 500.5857 L 307.2566 506.4474 L 253.16876 566.8139 Z" stroke="black" stroke-linecap="round" stroke-linejoin="round" stroke-width="5"/>
      </g>
      <g id="Graphic_37">
        <path d="M 598.2707 241.34232 L 267.62945 589.89045 L 261.90674 584.1677 L 584.5371 248.2091 L 579.9593 223.0309 Z" fill="#fffcc7"/>
        <path d="M 598.2707 241.34232 L 267.62945 589.89045 L 261.90674 584.1677 L 584.5371 248.2091 L 579.9593 223.0309 Z" stroke="black" stroke-linecap="round" stroke-linejoin="round" stroke-width="5"/>
      </g>
      <g id="Graphic_36">
        <path d="M 587.9705 232.75885 L 260.08227 580.24256 L 254.35955 574.51984 L 578.2426 218.45306 Z" fill="#fffcc7"/>
        <path d="M 587.9705 232.75885 L 260.08227 580.24256 L 254.35955 574.51984 L 578.2426 218.45306 Z" stroke="black" stroke-linecap="round" stroke-linejoin="round" stroke-width="5"/>
      </g>
      <g id="Graphic_35">
        <path d="M 266.504 590.8868 L 248.4202 612.1753 L 244.4143 613.8921 L 236.4025 621.9039 L 235.25796 620.7594 L 244.52876 609.4284 L 245.55885 600.1576 L 259.86564 582.6461 Z" fill="#999"/>
        <path d="M 266.504 590.8868 L 248.4202 612.1753 L 244.4143 613.8921 L 236.4025 621.9039 L 235.25796 620.7594 L 244.52876 609.4284 L 245.55885 600.1576 L 259.86564 582.6461 Z" stroke="black" stroke-linecap="round" stroke-linejoin="round" stroke-width="5"/>
      </g>
      <g id="Graphic_34">
        <path d="M 260.08183 582.90044 L 243.04085 601.9889 L 239.03495 603.9346 L 229.98035 613.9176 L 228.8358 612.773 L 237.41988 599.6108 L 239.1367 592.17125 L 253.44348 574.6597 Z" fill="#999"/>
        <path d="M 260.08183 582.90044 L 243.04085 601.9889 L 239.03495 603.9346 L 229.98035 613.9176 L 228.8358 612.773 L 237.41988 599.6108 L 239.1367 592.17125 L 253.44348 574.6597 Z" stroke="black" stroke-linecap="round" stroke-linejoin="round" stroke-width="5"/>
      </g>
      <g id="Graphic_33">
        <path d="M 337.6805 484.7656 L 345.69172 492.7768 L 336.7899 501.67865 L 328.77865 493.6674 Z" fill="black"/>
        <path d="M 337.6805 484.7656 L 345.69172 492.7768 L 336.7899 501.67865 L 328.77865 493.6674 Z" stroke="black" stroke-linecap="round" stroke-linejoin="round" stroke-width="7"/>
      </g>
      <g id="Graphic_32">
        <path d="M 353.10173 467.8525 L 361.11297 475.86374 L 352.21114 484.7656 L 344.1999 476.75434 Z" fill="black"/>
        <path d="M 353.10173 467.8525 L 361.11297 475.86374 L 352.21114 484.7656 L 344.1999 476.75434 Z" stroke="black" stroke-linecap="round" stroke-linejoin="round" stroke-width="7"/>
      </g>
      <g id="Graphic_31">
        <path d="M 369.1242 450.93943 L 377.13545 458.95067 L 368.2336 467.8525 L 360.22238 459.84126 Z" fill="black"/>
        <path d="M 369.1242 450.93943 L 377.13545 458.95067 L 368.2336 467.8525 L 360.22238 459.84126 Z" stroke="black" stroke-linecap="round" stroke-linejoin="round" stroke-width="7"/>
      </g>
      <g id="Graphic_30">
        <path d="M 386.8924 432.6925 L 394.90363 440.70375 L 386.0018 449.6056 L 377.99056 441.59434 Z" fill="black"/>
        <path d="M 386.8924 432.6925 L 394.90363 440.70375 L 386.0018 449.6056 L 377.99056 441.59434 Z" stroke="black" stroke-linecap="round" stroke-linejoin="round" stroke-width="7"/>
      </g>
      <g id="Graphic_29">
        <path d="M 402.31364 415.77944 L 410.3249 423.7907 L 401.42305 432.6925 L 393.4118 424.68127 Z" fill="black"/>
        <path d="M 402.31364 415.77944 L 410.3249 423.7907 L 401.42305 432.6925 L 393.4118 424.68127 Z" stroke="black" stroke-linecap="round" stroke-linejoin="round" stroke-width="7"/>
      </g>
      <g id="Graphic_28">
        <path d="M 418.3361 398.86636 L 426.34736 406.8776 L 417.44553 415.77944 L 409.4343 407.7682 Z" fill="black"/>
        <path d="M 418.3361 398.86636 L 426.34736 406.8776 L 417.44553 415.77944 L 409.4343 407.7682 Z" stroke="black" stroke-linecap="round" stroke-linejoin="round" stroke-width="7"/>
      </g>
      <g id="Graphic_27">
        <path d="M 419.2444 399.77467 L 426.108 406.63823 L 417.20616 415.54007 L 410.3426 408.6765 Z" fill="black"/>
        <path d="M 419.2444 399.77467 L 426.108 406.63823 L 417.20616 415.54007 L 410.3426 408.6765 Z" stroke="black" stroke-linecap="round" stroke-linejoin="round" stroke-width="7"/>
      </g>
      <g id="Graphic_26">
        <path d="M 434.3876 380.0472 L 442.39885 388.05845 L 433.497 396.9603 L 425.48577 388.94904 Z" fill="black"/>
        <path d="M 434.3876 380.0472 L 442.39885 388.05845 L 433.497 396.9603 L 425.48577 388.94904 Z" stroke="black" stroke-linecap="round" stroke-linejoin="round" stroke-width="7"/>
      </g>
      <g id="Graphic_25">
        <path d="M 449.80885 363.13414 L 457.8201 371.1454 L 448.91826 380.0472 L 440.907 372.03597 Z" fill="black"/>
        <path d="M 449.80885 363.13414 L 457.8201 371.1454 L 448.91826 380.0472 L 440.907 372.03597 Z" stroke="black" stroke-linecap="round" stroke-linejoin="round" stroke-width="7"/>
      </g>
      <g id="Graphic_24">
        <path d="M 465.83134 346.22106 L 473.8426 354.2323 L 464.94074 363.13414 L 456.9295 355.1229 Z" fill="black"/>
        <path d="M 465.83134 346.22106 L 473.8426 354.2323 L 464.94074 363.13414 L 456.9295 355.1229 Z" stroke="black" stroke-linecap="round" stroke-linejoin="round" stroke-width="7"/>
      </g>
      <g id="Graphic_23">
        <path d="M 482.6912 327.97414 L 490.70245 335.9854 L 481.8006 344.8872 L 473.7894 336.87598 Z" fill="black"/>
        <path d="M 482.6912 327.97414 L 490.70245 335.9854 L 481.8006 344.8872 L 473.7894 336.87598 Z" stroke="black" stroke-linecap="round" stroke-linejoin="round" stroke-width="7"/>
      </g>
      <g id="Graphic_22">
        <path d="M 498.11246 310.15277 L 506.1237 318.164 L 497.22187 327.06584 L 489.2106 319.0546 Z" fill="black"/>
        <path d="M 498.11246 310.15277 L 506.1237 318.164 L 497.22187 327.06584 L 489.2106 319.0546 Z" stroke="black" stroke-linecap="round" stroke-linejoin="round" stroke-width="7"/>
      </g>
      <g id="Graphic_21">
        <path d="M 515.02553 293.2397 L 523.0368 301.25093 L 514.13494 310.15277 L 506.1237 302.14153 Z" fill="black"/>
        <path d="M 515.02553 293.2397 L 523.0368 301.25093 L 514.13494 310.15277 L 506.1237 302.14153 Z" stroke="black" stroke-linecap="round" stroke-linejoin="round" stroke-width="7"/>
      </g>
      <g id="Graphic_20">
        <path d="M 530.75866 275.90108 L 538.7699 283.91232 L 529.86807 292.81415 L 521.8568 284.8029 Z" fill="black"/>
        <path d="M 530.75866 275.90108 L 538.7699 283.91232 L 529.86807 292.81415 L 521.8568 284.8029 Z" stroke="black" stroke-linecap="round" stroke-linejoin="round" stroke-width="7"/>
      </g>
      <g id="Graphic_19">
        <path d="M 546.1799 258.0797 L 554.19115 266.09094 L 545.2893 274.99277 L 537.2781 266.98153 Z" fill="black"/>
        <path d="M 546.1799 258.0797 L 554.19115 266.09094 L 545.2893 274.99277 L 537.2781 266.98153 Z" stroke="black" stroke-linecap="round" stroke-linejoin="round" stroke-width="7"/>
      </g>
      <g id="Graphic_18">
        <path d="M 560.3065 242.1365 L 568.3177 250.14775 L 559.4159 259.04958 L 551.40465 251.03834 Z" fill="black"/>
        <path d="M 560.3065 242.1365 L 568.3177 250.14775 L 559.4159 259.04958 L 551.40465 251.03834 Z" stroke="black" stroke-linecap="round" stroke-linejoin="round" stroke-width="7"/>
      </g>
      <g id="Graphic_17">
        <path d="M 573.0132 228.57865 L 581.02445 236.5899 L 572.1226 245.49172 L 564.1114 237.48048 Z" fill="black"/>
        <path d="M 573.0132 228.57865 L 581.02445 236.5899 L 572.1226 245.49172 L 564.1114 237.48048 Z" stroke="black" stroke-linecap="round" stroke-linejoin="round" stroke-width="7"/>
      </g>
      <g id="Graphic_16">
        <path d="M 584.7156 213.00324 L 596.6749 224.96259 L 587.7731 233.86442 L 575.81375 221.90507 Z" fill="black"/>
        <path d="M 584.7156 213.00324 L 596.6749 224.96259 L 587.7731 233.86442 L 575.81375 221.90507 Z" stroke="black" stroke-linecap="round" stroke-linejoin="round" stroke-width="7"/>
      </g>
      <g id="Graphic_48">
        <path d="M 417.04753 583.4842 L 379.67246 493.37937 L 643.9689 310.5783 L 687.4454 401.73768 L 665.0008 418.35785 Z" fill="#c2cb6b"/>
        <path d="M 417.04753 583.4842 L 379.67246 493.37937 L 643.9689 310.5783 L 687.4454 401.73768 L 665.0008 418.35785 Z" stroke="black" stroke-linecap="round" stroke-linejoin="round" stroke-width="5"/>
      </g>
      <g id="Graphic_47">
        <path d="M 333.10383 602.1974 L 337.4642 609.7498 L 408.0613 563.9556 L 388.56673 514.3342 L 385.00298 520.0535 L 319.51634 565.1857 Z" fill="#8080ff"/>
        <path d="M 333.10383 602.1974 L 337.4642 609.7498 L 408.0613 563.9556 L 388.56673 514.3342 L 385.00298 520.0535 L 319.51634 565.1857 Z" stroke="black" stroke-linecap="round" stroke-linejoin="round" stroke-width="5"/>
      </g>
      <g id="Graphic_46">
        <path d="M 430.1057 534.7504 L 424.84636 524.0553 L 345.338 578.19844 L 340.24175 582.0562 L 331.02606 588.2923 L 328.2513 583.48626 L 341.48023 573.1022 L 343.93636 572.5996 L 422.25555 516.39675 L 420.66997 513.65044 L 395.0246 531.3862 L 392.20163 524.594 L 420.2451 506.57223 L 417.86674 502.45276 L 628.63856 356.96222 L 644.81304 389.734 L 648.0127 401.61825 L 429.97867 550.3862 L 410.19496 546.2459 L 403.039 551.2928 L 401.46896 547.6221 L 408.79334 540.64704 L 429.66003 545.0775 L 638.7685 401.46274 L 635.8875 394.88715 Z" fill="#fffcc7"/>
        <path d="M 430.1057 534.7504 L 424.84636 524.0553 L 345.338 578.19844 L 340.24175 582.0562 L 331.02606 588.2923 L 328.2513 583.48626 L 341.48023 573.1022 L 343.93636 572.5996 L 422.25555 516.39675 L 420.66997 513.65044 L 395.0246 531.3862 L 392.20163 524.594 L 420.2451 506.57223 L 417.86674 502.45276 L 628.63856 356.96222 L 644.81304 389.734 L 648.0127 401.61825 L 429.97867 550.3862 L 410.19496 546.2459 L 403.039 551.2928 L 401.46896 547.6221 L 408.79334 540.64704 L 429.66003 545.0775 L 638.7685 401.46274 L 635.8875 394.88715 Z" stroke="black" stroke-linecap="round" stroke-linejoin="round" stroke-width="5"/>
      </g>
      <g id="Graphic_45">
        <path d="M 347.85103 590.4791 L 333.8293 599.49 L 329.86533 592.6242 L 344.97004 583.9035 Z" fill="#fffcc7"/>
        <path d="M 347.85103 590.4791 L 333.8293 599.49 L 329.86533 592.6242 L 344.97004 583.9035 Z" stroke="black" stroke-linecap="round" stroke-linejoin="round" stroke-width="5"/>
      </g>
      <g id="Graphic_44">
        <path d="M 339.45853 569.33626 L 325.4368 578.34715 L 321.47283 571.4814 L 336.57754 562.76066 Z" fill="#fffcc7"/>
        <path d="M 339.45853 569.33626 L 325.4368 578.34715 L 321.47283 571.4814 L 336.57754 562.76066 Z" stroke="black" stroke-linecap="round" stroke-linejoin="round" stroke-width="5"/>
      </g>
      <g id="Graphic_43">
        <path d="M 341.63574 563.85806 L 348.82016 565.20275 L 345.04017 555.48445 Z" fill="#fffcc7"/>
        <path d="M 341.63574 563.85806 L 348.82016 565.20275 L 345.04017 555.48445 Z" stroke="black" stroke-linecap="round" stroke-linejoin="round" stroke-width="5"/>
      </g>
      <g id="Graphic_42">
        <path d="M 333.88316 602.75445 L 310.1177 618.6725 L 305.892 619.2813 L 296.27992 624.8309 L 295.48713 623.4577 L 306.94653 613.1799 L 310.45718 606.5758 L 329.17875 593.0206 Z" fill="#999"/>
        <path d="M 333.88316 602.75445 L 310.1177 618.6725 L 305.892 619.2813 L 296.27992 624.8309 L 295.48713 623.4577 L 306.94653 613.1799 L 310.45718 606.5758 L 329.17875 593.0206 Z" stroke="black" stroke-linecap="round" stroke-linejoin="round" stroke-width="5"/>
      </g>
      <g id="Graphic_41">
        <path d="M 329.71663 590.1468 L 307.20825 605.7053 L 302.98257 606.3141 L 293.37048 611.86364 L 292.5777 610.4905 L 304.22258 602.1195 L 307.54773 593.6086 L 325.5247 580.66636 Z" fill="#999"/>
        <path d="M 329.71663 590.1468 L 307.20825 605.7053 L 302.98257 606.3141 L 293.37048 611.86364 L 292.5777 610.4905 L 304.22258 602.1195 L 307.54773 593.6086 L 325.5247 580.66636 Z" stroke="black" stroke-linecap="round" stroke-linejoin="round" stroke-width="5"/>
      </g>
      <g id="Graphic_40">
        <path d="M 325.66477 580.96184 L 304.7009 594.70295 L 300.41718 595.52836 L 289.31862 602.67865 L 288.52583 601.3055 L 299.98522 591.02766 L 303.49587 584.4236 L 321.47283 571.4814 Z" fill="#999"/>
        <path d="M 325.66477 580.96184 L 304.7009 594.70295 L 300.41718 595.52836 L 289.31862 602.67865 L 288.52583 601.3055 L 299.98522 591.02766 L 303.49587 584.4236 L 321.47283 571.4814 Z" stroke="black" stroke-linecap="round" stroke-linejoin="round" stroke-width="5"/>
      </g>
    </g>
  </g>
</svg>
