<?xml version="1.0" encoding="UTF-8" standalone="no"?>
<!DOCTYPE svg PUBLIC "-//W3C//DTD SVG 1.1//EN" "http://www.w3.org/Graphics/SVG/1.1/DTD/svg11.dtd">
<svg xmlns:xl="http://www.w3.org/1999/xlink" xmlns:dc="http://purl.org/dc/elements/1.1/" version="1.1" xmlns="http://www.w3.org/2000/svg" viewBox="0 0 850.394 850.394" width="850.394" height="850.394">
  <defs>
    <marker orient="auto" overflow="visible" markerUnits="strokeWidth" id="FilledArrow_Marker" stroke-linejoin="miter" stroke-miterlimit="10" viewBox="-1 -2 4 4" markerWidth="4" markerHeight="4" color="#00fa00">
      <g>
        <path d="M 1.7828571 0 L 0 -.6685714 L 0 .6685714 Z" fill="currentColor" stroke="currentColor" stroke-width="1"/>
      </g>
    </marker>
  </defs>
  <metadata> Produced by OmniGraffle 7.9.4 
    <dc:date>2019-04-17 14:07:46 +0000</dc:date>
  </metadata>
  <g id="Set_(fader)" stroke-opacity="1" stroke="none" fill="none" fill-opacity="1" stroke-dasharray="none">
    <title>Set (fader)</title>
    <g id="Set_(fader): Layer 1">
      <title>Layer 1</title>
      <g id="Graphic_36">
        <rect x="486" y="45.697" width="177.792" height="759" fill="#c0c0ff"/>
        <rect x="486" y="45.697" width="177.792" height="759" stroke="black" stroke-linecap="round" stroke-linejoin="round" stroke-width="9"/>
      </g>
      <g id="Graphic_3">
        <rect x="564.9127" y="78.697" width="17.506098" height="693" fill="black"/>
        <rect x="564.9127" y="78.697" width="17.506098" height="693" stroke="black" stroke-linecap="round" stroke-linejoin="round" stroke-width="1"/>
      </g>
      <g id="Graphic_4">
        <path d="M 532.09967 203.07478 L 623.86866 203.50237 L 613.4434 291.73184 L 623.046 380.05464 L 531.27705 379.62705 L 541.1239 293.24364 Z" fill="white"/>
        <path d="M 532.09967 203.07478 L 623.86866 203.50237 L 613.4434 291.73184 L 623.046 380.05464 L 531.27705 379.62705 L 541.1239 293.24364 Z" stroke="black" stroke-linecap="round" stroke-linejoin="round" stroke-width="8"/>
      </g>
      <g id="Graphic_6">
        <path d="M 607.9304 289.44193 L 607.2829 285.56447 L 574.176 292.20406 L 550.0783 295.11708 L 550.7258 298.99454 Z" fill="black"/>
        <path d="M 607.9304 289.44193 L 607.2829 285.56447 L 574.176 292.20406 L 550.0783 295.11708 L 550.7258 298.99454 Z" stroke="black" stroke-linecap="round" stroke-linejoin="round" stroke-width="5"/>
      </g>
      <g id="Line_37">
        <line x1="151.53266" y1="788.4033" x2="158.34347" y2="290.47448" stroke="#00fa00" stroke-linecap="round" stroke-linejoin="round" stroke-width="35"/>
      </g>
      <g id="Line_38">
        <line x1="161.53266" y1="287.18784" x2="317.957" y2="287.18784" marker-end="url(#FilledArrow_Marker)" stroke="#00fa00" stroke-linecap="round" stroke-linejoin="round" stroke-width="35"/>
      </g>
      <g id="Graphic_39">
        <circle cx="579.00436" cy="292.2795" r="131.396208233172" stroke="#00fa00" stroke-linecap="round" stroke-linejoin="round" stroke-width="35"/>
      </g>
    </g>
  </g>
</svg>
