<?xml version="1.0" encoding="UTF-8" standalone="no"?>
<!DOCTYPE svg PUBLIC "-//W3C//DTD SVG 1.1//EN" "http://www.w3.org/Graphics/SVG/1.1/DTD/svg11.dtd">
<svg version="1.1" xmlns:xl="http://www.w3.org/1999/xlink" xmlns="http://www.w3.org/2000/svg" xmlns:dc="http://purl.org/dc/elements/1.1/" viewBox="0 0 850.394 850.394" width="850.394" height="850.394">
  <defs>
    <marker orient="auto" overflow="visible" markerUnits="strokeWidth" id="FilledArrow_Marker" stroke-linejoin="miter" stroke-miterlimit="10" viewBox="-5 -3 6 6" markerWidth="6" markerHeight="6" color="black">
      <g>
        <path d="M -3.2 0 L 0 1.2 L 0 -1.2 Z" fill="currentColor" stroke="currentColor" stroke-width="1"/>
      </g>
    </marker>
    <marker orient="auto" overflow="visible" markerUnits="strokeWidth" id="FilledArrow_Marker_2" stroke-linejoin="miter" stroke-miterlimit="10" viewBox="-1 -3 6 6" markerWidth="6" markerHeight="6" color="black">
      <g>
        <path d="M 3.2 0 L 0 -1.2 L 0 1.2 Z" fill="currentColor" stroke="currentColor" stroke-width="1"/>
      </g>
    </marker>
  </defs>
  <metadata> Produced by OmniGraffle 7.9.4 
    <dc:date>2019-07-02 13:08:32 +0000</dc:date>
  </metadata>
  <g id="short_touch" stroke-dasharray="none" stroke="none" fill="none" fill-opacity="1" stroke-opacity="1">
    <title>short touch</title>
    <g id="short_touch: Layer 1">
      <title>Layer 1</title>
      <g id="Graphic_7">
        <path d="M 741.4415 402.5891 C 813.3233 418.7202 827.6686 472.2577 773.4827 522.1685 C 719.2972 572.0794 617.0998 599.4631 545.21836 583.3318 C 473.3366 567.2007 458.9913 513.6632 513.17716 463.7524 C 567.36266 413.8415 669.5601 386.45777 741.4415 402.5891" fill="#c0c0ff"/>
        <path d="M 741.4415 402.5891 C 813.3233 418.7202 827.6686 472.2577 773.4827 522.1685 C 719.2972 572.0794 617.0998 599.4631 545.21836 583.3318 C 473.3366 567.2007 458.9913 513.6632 513.17716 463.7524 C 567.36266 413.8415 669.5601 386.45777 741.4415 402.5891" stroke="black" stroke-linecap="round" stroke-linejoin="round" stroke-width="5"/>
      </g>
      <g id="Graphic_6">
        <path d="M 667.96174 434.32517 C 702.8515 442.15484 709.8144 468.14075 683.5138 492.36634 C 657.2134 516.592 607.60906 529.8834 572.7194 522.0536 C 537.8296 514.22395 530.8667 488.23804 557.1673 464.01245 C 583.46775 439.7868 633.0721 426.4954 667.96174 434.32517" fill="#d9dfff"/>
        <path d="M 667.96174 434.32517 C 702.8515 442.15484 709.8144 468.14075 683.5138 492.36634 C 657.2134 516.592 607.60906 529.8834 572.7194 522.0536 C 537.8296 514.22395 530.8667 488.23804 557.1673 464.01245 C 583.46775 439.7868 633.0721 426.4954 667.96174 434.32517" stroke="black" stroke-linecap="round" stroke-linejoin="round" stroke-width="5"/>
      </g>
      <g id="Graphic_4">
        <path d="M 586.9702 414.34227 L 559.24774 400.3256 L 520.3954 383.9132 L 486.49255 371.98717 L 445.4084 353.36578 L 384.15555 328.66786 L 446.77355 313.68183 L 476.39444 291.5952 L 462.1757 265.25753 L 428.2664 269.34294 L 397.3149 275.13607 L 364.48823 273.9308 L 313.97656 268.986 L 278.32543 280.69358 L 253.7323 289.43818 L 214.40163 307.51895 L 190.26023 309.73693 L 144.70258 302.81874 L 105.03806 291.64228 L 56.53243 401.89976 L 58.711766 470.4317 L 114.09811 468.5373 L 146.21707 471.2446 L 188.35931 477.7305 L 237.09126 500.76736 L 268.4906 521.44506 L 303.0308 533.739 L 338.82904 542.0862 L 355.69997 535.06535 L 367.32255 506.27634 L 388.26253 497.97186 L 397.4211 474.27836 L 402.45084 461.4044 L 422.40754 443.43264 L 419.4048 404.2326 L 458.8237 415.49556 L 506.6032 426.9357 L 538.8899 432.83005 L 563.5288 434.30896 L 581.4798 434.83265 Z" fill="#ad7526"/>
        <path d="M 586.9702 414.34227 L 559.24774 400.3256 L 520.3954 383.9132 L 486.49255 371.98717 L 445.4084 353.36578 L 384.15555 328.66786 L 446.77355 313.68183 L 476.39444 291.5952 L 462.1757 265.25753 L 428.2664 269.34294 L 397.3149 275.13607 L 364.48823 273.9308 L 313.97656 268.986 L 278.32543 280.69358 L 253.7323 289.43818 L 214.40163 307.51895 L 190.26023 309.73693 L 144.70258 302.81874 L 105.03806 291.64228 L 56.53243 401.89976 L 58.711766 470.4317 L 114.09811 468.5373 L 146.21707 471.2446 L 188.35931 477.7305 L 237.09126 500.76736 L 268.4906 521.44506 L 303.0308 533.739 L 338.82904 542.0862 L 355.69997 535.06535 L 367.32255 506.27634 L 388.26253 497.97186 L 397.4211 474.27836 L 402.45084 461.4044 L 422.40754 443.43264 L 419.4048 404.2326 L 458.8237 415.49556 L 506.6032 426.9357 L 538.8899 432.83005 L 563.5288 434.30896 L 581.4798 434.83265 Z" stroke="black" stroke-linecap="round" stroke-linejoin="round" stroke-width="6"/>
      </g>
      <g id="Graphic_3">
        <path d="M 81.62156 450.84006 C 60.39739 482.88085 41.278427 477.75794 38.91815 439.3977 C 36.557763 401.03765 51.84988 343.96668 73.07407 311.9261 C 94.29824 279.8853 113.4172 285.0082 115.77748 323.36843 C 118.13787 361.7285 102.84575 418.79946 81.62156 450.84006" fill="black"/>
        <path d="M 81.62156 450.84006 C 60.39739 482.88085 41.278427 477.75794 38.91815 439.3977 C 36.557763 401.03765 51.84988 343.96668 73.07407 311.9261 C 94.29824 279.8853 113.4172 285.0082 115.77748 323.36843 C 118.13787 361.7285 102.84575 418.79946 81.62156 450.84006" stroke="black" stroke-linecap="round" stroke-linejoin="round" stroke-width="7"/>
      </g>
      <g id="Graphic_8">
        <path d="M 648.4304 445.1274 C 672.27425 447.4856 679.0272 464.1997 663.5135 482.45937 C 647.9999 500.71906 616.0945 513.6097 592.25075 511.2514 C 568.4069 508.8932 561.654 492.1791 577.16766 473.9194 C 592.6812 455.65974 624.5866 442.7691 648.4304 445.1274" fill="white"/>
        <path d="M 648.4304 445.1274 C 672.27425 447.4856 679.0272 464.1997 663.5135 482.45937 C 647.9999 500.71906 616.0945 513.6097 592.25075 511.2514 C 568.4069 508.8932 561.654 492.1791 577.16766 473.9194 C 592.6812 455.65974 624.5866 442.7691 648.4304 445.1274" stroke="black" stroke-linecap="round" stroke-linejoin="round" stroke-width="5"/>
      </g>
      <g id="Line_9">
        <line x1="603.5766" y1="408.7098" x2="647.21805" y2="446.11057" marker-start="url(#FilledArrow_Marker)" stroke="black" stroke-linecap="round" stroke-linejoin="round" stroke-width="4"/>
      </g>
      <g id="Line_10">
        <line x1="582.2681" y1="403.82504" x2="625.9096" y2="441.2258" marker-end="url(#FilledArrow_Marker_2)" stroke="black" stroke-linecap="round" stroke-linejoin="round" stroke-width="4"/>
      </g>
    </g>
  </g>
</svg>
