<?xml version="1.0" encoding="UTF-8" standalone="no"?>
<!DOCTYPE svg PUBLIC "-//W3C//DTD SVG 1.1//EN" "http://www.w3.org/Graphics/SVG/1.1/DTD/svg11.dtd">
<svg xmlns="http://www.w3.org/2000/svg" version="1.1" xmlns:dc="http://purl.org/dc/elements/1.1/" xmlns:xl="http://www.w3.org/1999/xlink" viewBox="0 0 850.394 850.394" width="850.394" height="850.394">
  <defs/>
  <metadata> Produced by OmniGraffle 7.9.4 
    <dc:date>2019-03-11 03:00:43 +0000</dc:date>
  </metadata>
  <g id="sine_wave" fill="none" stroke-opacity="1" fill-opacity="1" stroke-dasharray="none" stroke="none">
    <title>sine wave</title>
    <g id="sine_wave: Layer 1">
      <title>Layer 1</title>
      <g id="Graphic_2">
        <path d="M 64.783424 419.6469 L 78.21705 359.15135 C 78.29803 358.78666 78.39035 358.4246 78.49386 358.06564 L 106.82016 259.8432 C 107.3873 257.8766 108.2857 256.02115 109.4767 254.35663 L 148.803 199.39522 C 149.74207 198.0828 150.85337 196.90263 152.10702 195.88643 L 194.22584 161.74522 C 194.22584 161.74522 251.436 163.06642 252.90294 163.06642 C 254.36987 163.06642 291.04306 206.66606 291.04306 206.66606 L 320.3816 244.9809 C 320.3816 244.9809 340.9186 321.61056 342.38553 322.93176 C 343.85246 324.25296 367.3233 406.16742 368.79023 410.13103 C 370.25715 414.09463 387.8603 488.0819 389.3272 490.7243 C 390.79414 493.3667 420.1327 591.1356 421.5996 593.778 C 423.06655 596.4204 468.5413 674.37125 470.00823 675.69245 C 471.47516 677.01365 522.8176 732.5041 524.28455 733.8253 C 525.7515 735.1465 578.5609 728.5405 580.0278 728.5405 C 581.4947 728.5405 628.4364 695.5105 628.4364 695.5105 C 628.4364 695.5105 687.1135 604.3476 688.58045 603.0264 C 690.0474 601.7052 735.5221 534.3239 736.9891 531.6815 C 738.456 529.0391 775.1292 456.37307 775.1292 456.37307 L 790.6304 424.6429 C 791.053 423.7777 791.4056 422.88 791.6847 421.95843 L 810.4993 359.82467 C 811.7187 355.79764 809.4427 351.54454 805.4157 350.32512 C 804.8686 350.15945 804.3045 350.0559 803.7343 350.01638 L 803.7343 350.01638 C 798.0296 349.62115 792.7035 352.89204 790.4759 358.1586 L 782.4638 377.101 C 782.4638 377.101 770.7284 419.37944 769.2615 419.37944 C 767.7945 419.37944 750.1914 457.69427 750.1914 459.01547 C 750.1914 460.33667 739.9229 494.6879 738.456 496.0091 C 736.9891 497.3303 714.98515 544.89354 713.5182 546.21474 C 712.0513 547.53594 695.9151 575.28116 694.4482 576.6024 C 692.9812 577.9236 660.7088 629.4504 660.7088 629.4504 L 636.2784 660.51415 C 635.94034 660.944 635.5829 661.3582 635.2071 661.7555 L 605.6426 693.0139 C 603.2846 695.507 600.263 697.2742 596.93394 698.10704 L 575.7526 703.40625 C 575.6689 703.4272 575.585 703.4475 575.501 703.4673 L 541.8877 711.3649 C 541.8877 711.3649 515.483 702.1165 515.483 700.7953 C 515.483 699.4741 486.14444 669.08644 486.14444 667.76524 C 486.14444 666.44404 471.47516 633.414 471.47516 633.414 C 471.47516 633.414 453.87203 581.8872 453.87203 580.566 C 453.87203 579.2448 426.0004 513.1847 426.0004 513.1847 C 426.0004 513.1847 417.19884 470.9063 415.7319 470.9063 C 414.265 470.9063 399.5957 422.02184 399.5957 422.02184 L 389.5843 370.49682 C 389.41314 369.61604 389.1764 368.7493 388.876 367.9038 L 365.85637 303.11374 C 365.85637 303.11374 348.25324 237.05369 348.25324 234.41128 C 348.25324 231.76888 315.98083 177.59964 315.98083 177.59964 L 275.2943 152.32744 C 274.06256 151.56236 272.7429 150.94891 271.364 150.50044 L 224.4041 135.2273 C 221.91823 134.41881 219.2861 134.16145 216.6907 134.47313 L 154.61879 141.9272 C 154.61879 141.9272 115.01174 180.24204 113.54482 180.24204 C 112.07789 180.24204 88.60705 239.6961 88.60705 239.6961 C 88.60705 239.6961 71.003915 308.39854 69.53699 308.39854 C 68.07006 308.39854 49 387.6706 49 387.6706 L 49 406.0056 C 49 409.55716 50.05066 413.02937 52.019725 415.98513 L 55.601174 421.36124 C 57.15586 423.69497 60.30804 424.3265 62.64177 422.77183 C 63.73207 422.0455 64.499425 420.92584 64.783424 419.6469 Z" fill="black"/>
        <path d="M 64.783424 419.6469 L 78.21705 359.15135 C 78.29803 358.78666 78.39035 358.4246 78.49386 358.06564 L 106.82016 259.8432 C 107.3873 257.8766 108.2857 256.02115 109.4767 254.35663 L 148.803 199.39522 C 149.74207 198.0828 150.85337 196.90263 152.10702 195.88643 L 194.22584 161.74522 C 194.22584 161.74522 251.436 163.06642 252.90294 163.06642 C 254.36987 163.06642 291.04306 206.66606 291.04306 206.66606 L 320.3816 244.9809 C 320.3816 244.9809 340.9186 321.61056 342.38553 322.93176 C 343.85246 324.25296 367.3233 406.16742 368.79023 410.13103 C 370.25715 414.09463 387.8603 488.0819 389.3272 490.7243 C 390.79414 493.3667 420.1327 591.1356 421.5996 593.778 C 423.06655 596.4204 468.5413 674.37125 470.00823 675.69245 C 471.47516 677.01365 522.8176 732.5041 524.28455 733.8253 C 525.7515 735.1465 578.5609 728.5405 580.0278 728.5405 C 581.4947 728.5405 628.4364 695.5105 628.4364 695.5105 C 628.4364 695.5105 687.1135 604.3476 688.58045 603.0264 C 690.0474 601.7052 735.5221 534.3239 736.9891 531.6815 C 738.456 529.0391 775.1292 456.37307 775.1292 456.37307 L 790.6304 424.6429 C 791.053 423.7777 791.4056 422.88 791.6847 421.95843 L 810.4993 359.82467 C 811.7187 355.79764 809.4427 351.54454 805.4157 350.32512 C 804.8686 350.15945 804.3045 350.0559 803.7343 350.01638 L 803.7343 350.01638 C 798.0296 349.62115 792.7035 352.89204 790.4759 358.1586 L 782.4638 377.101 C 782.4638 377.101 770.7284 419.37944 769.2615 419.37944 C 767.7945 419.37944 750.1914 457.69427 750.1914 459.01547 C 750.1914 460.33667 739.9229 494.6879 738.456 496.0091 C 736.9891 497.3303 714.98515 544.89354 713.5182 546.21474 C 712.0513 547.53594 695.9151 575.28116 694.4482 576.6024 C 692.9812 577.9236 660.7088 629.4504 660.7088 629.4504 L 636.2784 660.51415 C 635.94034 660.944 635.5829 661.3582 635.2071 661.7555 L 605.6426 693.0139 C 603.2846 695.507 600.263 697.2742 596.93394 698.10704 L 575.7526 703.40625 C 575.6689 703.4272 575.585 703.4475 575.501 703.4673 L 541.8877 711.3649 C 541.8877 711.3649 515.483 702.1165 515.483 700.7953 C 515.483 699.4741 486.14444 669.08644 486.14444 667.76524 C 486.14444 666.44404 471.47516 633.414 471.47516 633.414 C 471.47516 633.414 453.87203 581.8872 453.87203 580.566 C 453.87203 579.2448 426.0004 513.1847 426.0004 513.1847 C 426.0004 513.1847 417.19884 470.9063 415.7319 470.9063 C 414.265 470.9063 399.5957 422.02184 399.5957 422.02184 L 389.5843 370.49682 C 389.41314 369.61604 389.1764 368.7493 388.876 367.9038 L 365.85637 303.11374 C 365.85637 303.11374 348.25324 237.05369 348.25324 234.41128 C 348.25324 231.76888 315.98083 177.59964 315.98083 177.59964 L 275.2943 152.32744 C 274.06256 151.56236 272.7429 150.94891 271.364 150.50044 L 224.4041 135.2273 C 221.91823 134.41881 219.2861 134.16145 216.6907 134.47313 L 154.61879 141.9272 C 154.61879 141.9272 115.01174 180.24204 113.54482 180.24204 C 112.07789 180.24204 88.60705 239.6961 88.60705 239.6961 C 88.60705 239.6961 71.003915 308.39854 69.53699 308.39854 C 68.07006 308.39854 49 387.6706 49 387.6706 L 49 406.0056 C 49 409.55716 50.05066 413.02937 52.019725 415.98513 L 55.601174 421.36124 C 57.15586 423.69497 60.30804 424.3265 62.64177 422.77183 C 63.73207 422.0455 64.499425 420.92584 64.783424 419.6469 Z" stroke="black" stroke-linecap="round" stroke-linejoin="round" stroke-width="3"/>
      </g>
    </g>
  </g>
</svg>
