<?xml version="1.0" encoding="UTF-8" standalone="no"?>
<!DOCTYPE svg PUBLIC "-//W3C//DTD SVG 1.1//EN" "http://www.w3.org/Graphics/SVG/1.1/DTD/svg11.dtd">
<svg version="1.1" xmlns="http://www.w3.org/2000/svg" xmlns:xl="http://www.w3.org/1999/xlink" xmlns:dc="http://purl.org/dc/elements/1.1/" viewBox="0 0 850.394 850.394" width="850.394" height="850.394">
  <defs/>
  <metadata> Produced by OmniGraffle 7.9.4 
    <dc:date>2019-04-23 21:33:10 +0000</dc:date>
  </metadata>
  <g id="Singer" stroke-opacity="1" stroke="none" fill-opacity="1" stroke-dasharray="none" fill="none">
    <title>Singer</title>
    <g id="Singer: gift">
      <title>gift</title>
      <g id="Graphic_52">
        <path d="M 759.4465 643.6916 L 658.3063 709.1841 L 633.4357 744.0028 C 633.4357 744.0028 637.5808 821.9306 637.5808 822.7596 C 637.5808 823.5886 659.9643 843.4851 659.9643 843.4851 L 841.5194 845.1431 L 844.8354 693.4327 L 844.8354 616.334 L 821.6229 606.38576 Z" fill="#333"/>
        <path d="M 759.4465 643.6916 L 658.3063 709.1841 L 633.4357 744.0028 C 633.4357 744.0028 637.5808 821.9306 637.5808 822.7596 C 637.5808 823.5886 659.9643 843.4851 659.9643 843.4851 L 841.5194 845.1431 L 844.8354 693.4327 L 844.8354 616.334 L 821.6229 606.38576 Z" stroke="black" stroke-linecap="round" stroke-linejoin="round" stroke-width="5"/>
      </g>
      <g id="Graphic_51">
        <path d="M 235.85505 728.5781 L 235.85505 826.4023 L 238.3421 842.9827 L 270.67383 844.6407 L 259.06757 757.5938 L 260.7256 716.9719 Z" fill="#333"/>
        <path d="M 235.85505 728.5781 L 235.85505 826.4023 L 238.3421 842.9827 L 270.67383 844.6407 L 259.06757 757.5938 L 260.7256 716.9719 Z" stroke="black" stroke-linecap="round" stroke-linejoin="round" stroke-width="5"/>
      </g>
      <g id="Graphic_30">
        <path d="M 441.1034 719.9613 L 411.25873 741.5158 L 368.9788 774.6765 L 368.9788 790.4279 L 441.1034 821.1016 L 496.64764 821.1016 L 509.0829 747.3189 L 480.0673 716.6452 Z" fill="#333"/>
        <path d="M 441.1034 719.9613 L 411.25873 741.5158 L 368.9788 774.6765 L 368.9788 790.4279 L 441.1034 821.1016 L 496.64764 821.1016 L 509.0829 747.3189 L 480.0673 716.6452 Z" stroke="black" stroke-linecap="round" stroke-linejoin="round" stroke-width="5"/>
      </g>
      <g id="Graphic_46">
        <path d="M 481.9582 152.00142 L 481.9582 152.00142 C 470.372 159.4764 462.4304 171.44695 460.04763 185.02776 L 454.61265 216.00486 C 452.09976 230.3273 451.15634 244.8811 451.79913 259.4081 L 453.5392 298.73315 C 453.9815 308.72953 455.1734 318.67862 457.1048 328.4966 L 458.2494 334.3151 C 460.93555 347.96964 465.36064 361.2236 471.41655 373.75305 L 472.0726 375.11046 C 478.30246 387.99976 489.6589 397.68034 503.37194 401.79097 L 763.0345 479.62745 C 763.0345 479.62745 763.0345 479.62745 763.0345 480.30176 C 763.0345 480.97606 773.149 460.07266 773.149 460.07266 L 779.892 445.57514 C 784.3238 436.0468 786.4267 425.60123 786.027 415.10024 L 783.8881 358.90007 C 783.8743 358.5366 783.86145 358.1731 783.8496 357.80956 L 783.0421 333.03703 C 782.7411 323.8007 781.4591 314.62254 779.2177 305.65722 L 779.2177 305.65722 C 776.9732 296.67902 775.4015 287.5459 774.5157 278.33386 L 774.1605 274.63928 C 773.03945 262.98067 770.7536 251.46364 767.33705 240.26064 L 753.5808 195.15281 C 747.0768 173.82588 732.926 155.65205 713.84386 144.11894 L 713.84386 144.11894 C 694.3664 132.3469 672.3674 125.3784 649.6644 123.78918 L 602.0985 120.45957 C 578.9 118.83568 555.60845 121.78444 533.5466 129.1384 L 520.64865 133.4377 C 507.02457 137.97907 494.02575 144.21591 481.9582 152.00142 Z" fill="black"/>
        <path d="M 481.9582 152.00142 L 481.9582 152.00142 C 470.372 159.4764 462.4304 171.44695 460.04763 185.02776 L 454.61265 216.00486 C 452.09976 230.3273 451.15634 244.8811 451.79913 259.4081 L 453.5392 298.73315 C 453.9815 308.72953 455.1734 318.67862 457.1048 328.4966 L 458.2494 334.3151 C 460.93555 347.96964 465.36064 361.2236 471.41655 373.75305 L 472.0726 375.11046 C 478.30246 387.99976 489.6589 397.68034 503.37194 401.79097 L 763.0345 479.62745 C 763.0345 479.62745 763.0345 479.62745 763.0345 480.30176 C 763.0345 480.97606 773.149 460.07266 773.149 460.07266 L 779.892 445.57514 C 784.3238 436.0468 786.4267 425.60123 786.027 415.10024 L 783.8881 358.90007 C 783.8743 358.5366 783.86145 358.1731 783.8496 357.80956 L 783.0421 333.03703 C 782.7411 323.8007 781.4591 314.62254 779.2177 305.65722 L 779.2177 305.65722 C 776.9732 296.67902 775.4015 287.5459 774.5157 278.33386 L 774.1605 274.63928 C 773.03945 262.98067 770.7536 251.46364 767.33705 240.26064 L 753.5808 195.15281 C 747.0768 173.82588 732.926 155.65205 713.84386 144.11894 L 713.84386 144.11894 C 694.3664 132.3469 672.3674 125.3784 649.6644 123.78918 L 602.0985 120.45957 C 578.9 118.83568 555.60845 121.78444 533.5466 129.1384 L 520.64865 133.4377 C 507.02457 137.97907 494.02575 144.21591 481.9582 152.00142 Z" stroke="black" stroke-linecap="round" stroke-linejoin="round" stroke-width="5"/>
      </g>
      <g id="Graphic_28">
        <path d="M 814.2262 677.1983 L 844.0064 657.6435 L 840.6975 472.2101 L 839.3739 400.734 L 838.7122 385.225 L 790.402 362.2987 L 707.0173 330.60644 L 507.15877 364.9959 L 470.7607 430.4033 C 470.7607 430.4033 454.8779 507.2739 454.8779 507.9482 C 454.8779 508.6225 467.4518 578.0757 467.4518 578.0757 L 482.6728 617.8596 C 482.6728 617.8596 522.3798 659.6664 522.3798 658.9921 C 522.3798 658.3178 579.9549 706.8676 579.9549 706.8676 Z" fill="#333"/>
        <path d="M 814.2262 677.1983 L 844.0064 657.6435 L 840.6975 472.2101 L 839.3739 400.734 L 838.7122 385.225 L 790.402 362.2987 L 707.0173 330.60644 L 507.15877 364.9959 L 470.7607 430.4033 C 470.7607 430.4033 454.8779 507.2739 454.8779 507.9482 C 454.8779 508.6225 467.4518 578.0757 467.4518 578.0757 L 482.6728 617.8596 C 482.6728 617.8596 522.3798 659.6664 522.3798 658.9921 C 522.3798 658.3178 579.9549 706.8676 579.9549 706.8676 Z" stroke="black" stroke-linecap="round" stroke-linejoin="round" stroke-width="5"/>
      </g>
      <g id="Graphic_16">
        <path d="M 506.59587 649.4947 L 504.93783 678.5104 L 496.64764 691.7747 L 498.3057 712.5001 C 498.3057 712.5001 497.359 725.0738 498.0333 725.7481 C 498.7076 726.4224 536.4686 760.8119 536.4686 760.8119 L 558.7206 805.3159 L 569.50944 834.3109 L 586.367 802.6187 C 586.367 802.6187 600.4297 737.3707 601.104 737.3707 C 601.7783 737.3707 582.8656 734.0546 582.8656 734.0546 L 548 714 L 529.72555 677.8726 Z" fill="white"/>
        <path d="M 506.59587 649.4947 L 504.93783 678.5104 L 496.64764 691.7747 L 498.3057 712.5001 C 498.3057 712.5001 497.359 725.0738 498.0333 725.7481 C 498.7076 726.4224 536.4686 760.8119 536.4686 760.8119 L 558.7206 805.3159 L 569.50944 834.3109 L 586.367 802.6187 C 586.367 802.6187 600.4297 737.3707 601.104 737.3707 C 601.7783 737.3707 582.8656 734.0546 582.8656 734.0546 L 548 714 L 529.72555 677.8726 Z" stroke="black" stroke-linecap="round" stroke-linejoin="round" stroke-width="5"/>
      </g>
      <g id="Graphic_22">
        <path d="M 505.25034 630.6714 L 482.32403 638.763 C 482.32403 638.763 461.42063 665.73514 461.42063 666.40945 C 461.42063 667.08375 459.3977 675.1754 459.3977 675.1754 C 459.3977 675.1754 464.79215 725.0738 464.79215 725.7481 C 464.79215 726.4224 481.6497 758.789 481.6497 758.789 L 495.1358 743.28 L 518.0621 743.28 L 530.19956 734.5141 L 515.3649 693.3816 L 510.64476 663.0379 Z" fill="#333"/>
        <path d="M 505.25034 630.6714 L 482.32403 638.763 C 482.32403 638.763 461.42063 665.73514 461.42063 666.40945 C 461.42063 667.08375 459.3977 675.1754 459.3977 675.1754 C 459.3977 675.1754 464.79215 725.0738 464.79215 725.7481 C 464.79215 726.4224 481.6497 758.789 481.6497 758.789 L 495.1358 743.28 L 518.0621 743.28 L 530.19956 734.5141 L 515.3649 693.3816 L 510.64476 663.0379 Z" stroke="black" stroke-linecap="round" stroke-linejoin="round" stroke-width="5"/>
      </g>
      <g id="Graphic_18">
        <path d="M 701.6729 646.18035 L 684.141 712.9364 L 715.8332 705.519 L 751.5713 690.01006 L 738.08524 668.43235 L 700.9986 654.9463 Z" fill="#333"/>
        <path d="M 701.6729 646.18035 L 684.141 712.9364 L 715.8332 705.519 L 751.5713 690.01006 L 738.08524 668.43235 L 700.9986 654.9463 Z" stroke="black" stroke-linecap="round" stroke-linejoin="round" stroke-width="5"/>
      </g>
      <g id="Graphic_17">
        <path d="M 692.2326 643.4831 L 677.39796 663.7122 L 659.1918 688.66145 L 652.4487 712.2621 L 688.1868 713.6107 L 700.3243 677.8726 L 705.7187 665.0608 L 707.7416 650.9005 Z" fill="white"/>
        <path d="M 692.2326 643.4831 L 677.39796 663.7122 L 659.1918 688.66145 L 652.4487 712.2621 L 688.1868 713.6107 L 700.3243 677.8726 L 705.7187 665.0608 L 707.7416 650.9005 Z" stroke="black" stroke-linecap="round" stroke-linejoin="round" stroke-width="5"/>
      </g>
      <g id="Graphic_3">
        <path d="M 582 156 C 582 156 528 165.3257 528 166 C 528 166.6743 482.6743 189 482 189 C 481.3257 189 471.06117 201.81453 471.06117 201.81453 C 471.06117 201.81453 464.31814 311.72595 464.31814 313.07456 C 464.31814 314.42317 475.107 375.78476 475.107 376.45906 C 475.107 377.13337 481.1757 419.61447 481.1757 418.94016 C 481.1757 418.26586 478.4785 492.4392 478.4785 492.4392 L 491.90616 568.4687 C 491.9687 568.8229 492.0303 569.1773 492.091 569.5318 L 500.98486 621.5269 C 503.6356 637.0235 509.3156 651.8455 517.6999 665.145 L 529.65576 684.1096 C 530.1518 684.8965 530.6424 685.6868 531.1274 686.4805 L 540.6999 702.145 C 547.4073 713.1209 557.2979 721.7942 569.0557 727.0109 L 588.6687 735.7127 C 588.6687 735.7127 635.09374 724.7807 635.09374 724.1064 C 635.09374 723.4321 663.9119 694.7302 663.9119 694.7302 L 692.4267 668.5849 C 704.4533 657.5576 715.0853 645.1 724.0856 631.4898 L 731.4297 620.3841 C 740.0829 607.2987 746.2113 592.70965 749.4983 577.3701 L 749.7582 576.15715 C 752.8911 561.5369 754.37465 546.6114 754.181 531.6605 L 753.9501 513.84345 C 753.717 495.84856 758.2469 478.11205 767.0803 462.4327 L 767.0803 462.4327 C 775.9502 446.6886 781.0505 429.10294 781.9807 411.0561 L 783.2437 386.55425 C 783.70595 377.58663 783.5637 368.59805 782.818 359.64954 L 778.5434 308.35444 C 778.5434 308.35444 755.6171 312.40026 755.6171 313.07456 C 755.6171 313.74886 740.7825 354.88136 740.7825 354.88136 L 740.7825 300.80594 C 740.7825 268.5355 730.11444 237.17025 710.4388 211.59193 L 696.3712 193.30401 C 685.6462 179.36153 672.04604 167.89065 656.49456 159.67058 L 655.7256 159.26414 C 640.9233 151.44007 623.9448 148.74406 607.447 151.59798 Z" fill="#bd7e54"/>
        <path d="M 582 156 C 582 156 528 165.3257 528 166 C 528 166.6743 482.6743 189 482 189 C 481.3257 189 471.06117 201.81453 471.06117 201.81453 C 471.06117 201.81453 464.31814 311.72595 464.31814 313.07456 C 464.31814 314.42317 475.107 375.78476 475.107 376.45906 C 475.107 377.13337 481.1757 419.61447 481.1757 418.94016 C 481.1757 418.26586 478.4785 492.4392 478.4785 492.4392 L 491.90616 568.4687 C 491.9687 568.8229 492.0303 569.1773 492.091 569.5318 L 500.98486 621.5269 C 503.6356 637.0235 509.3156 651.8455 517.6999 665.145 L 529.65576 684.1096 C 530.1518 684.8965 530.6424 685.6868 531.1274 686.4805 L 540.6999 702.145 C 547.4073 713.1209 557.2979 721.7942 569.0557 727.0109 L 588.6687 735.7127 C 588.6687 735.7127 635.09374 724.7807 635.09374 724.1064 C 635.09374 723.4321 663.9119 694.7302 663.9119 694.7302 L 692.4267 668.5849 C 704.4533 657.5576 715.0853 645.1 724.0856 631.4898 L 731.4297 620.3841 C 740.0829 607.2987 746.2113 592.70965 749.4983 577.3701 L 749.7582 576.15715 C 752.8911 561.5369 754.37465 546.6114 754.181 531.6605 L 753.9501 513.84345 C 753.717 495.84856 758.2469 478.11205 767.0803 462.4327 L 767.0803 462.4327 C 775.9502 446.6886 781.0505 429.10294 781.9807 411.0561 L 783.2437 386.55425 C 783.70595 377.58663 783.5637 368.59805 782.818 359.64954 L 778.5434 308.35444 C 778.5434 308.35444 755.6171 312.40026 755.6171 313.07456 C 755.6171 313.74886 740.7825 354.88136 740.7825 354.88136 L 740.7825 300.80594 C 740.7825 268.5355 730.11444 237.17025 710.4388 211.59193 L 696.3712 193.30401 C 685.6462 179.36153 672.04604 167.89065 656.49456 159.67058 L 655.7256 159.26414 C 640.9233 151.44007 623.9448 148.74406 607.447 151.59798 Z" stroke="black" stroke-linecap="round" stroke-linejoin="round" stroke-width="5"/>
      </g>
      <g id="Line_4">
        <path d="M 558.0463 399.38537 L 528.5299 386.8 C 527.7203 386.4548 526.86866 386.21798 525.99706 386.0957 L 497.39674 382.08316 C 494.7335 381.7095 492.05753 382.67513 490.24655 384.6633 L 488.14767 386.96753 C 487.61935 387.54754 487.16113 388.1877 486.78245 388.8748 L 481.1757 399.0482" stroke="black" stroke-linecap="round" stroke-linejoin="round" stroke-width="5"/>
      </g>
      <g id="Line_6">
        <path d="M 606.7939 389.1073 L 640.2955 363.2199 C 641.825 362.03807 643.66416 361.3248 645.5905 361.1664 L 664.5254 359.60956 C 666.6682 359.43338 668.8107 359.9525 670.6352 361.0899 L 690.7866 373.65264 L 690.7866 373.65264" stroke="black" stroke-linecap="round" stroke-linejoin="round" stroke-width="5"/>
      </g>
      <g id="Graphic_10">
        <path d="M 539.2575 424.55446 C 550.108 430.24204 550.108 439.4634 539.2575 445.151 C 528.407 450.8386 510.815 450.8386 499.96453 445.151 C 489.114 439.4634 489.114 430.24204 499.96453 424.55446 C 510.815 418.86685 517.92524 421.6374 517.92524 421.6374 C 517.92524 421.6374 528.407 418.86685 539.2575 424.55446 Z" fill="white"/>
        <path d="M 539.2575 424.55446 C 550.108 430.24204 550.108 439.4634 539.2575 445.151 C 528.407 450.8386 510.815 450.8386 499.96453 445.151 C 489.114 439.4634 489.114 430.24204 499.96453 424.55446 C 510.815 418.86685 517.92524 421.6374 517.92524 421.6374 C 517.92524 421.6374 528.407 418.86685 539.2575 424.55446 Z" stroke="black" stroke-linecap="round" stroke-linejoin="round" stroke-width="4"/>
      </g>
      <g id="Graphic_9">
        <ellipse cx="519.67105" cy="433.97145" rx="6.64258601176573" ry="6.44129552656068" fill="black"/>
        <ellipse cx="519.67105" cy="433.97145" rx="6.64258601176573" ry="6.44129552656068" stroke="black" stroke-linecap="round" stroke-linejoin="round" stroke-width="1"/>
      </g>
      <g id="Graphic_8">
        <path d="M 663.5747 395.2003 C 675.3459 398.8372 678.5645 406.77357 670.18885 415.8088 C 661.81324 424.84405 645.4811 429.22023 633.71 425.5833 C 621.93884 421.94637 619.461 414.01294 627.8367 404.9777 C 636.2123 395.94246 641.6599 395.8746 641.6599 395.8746 C 641.6599 395.8746 651.8036 391.56336 663.5747 395.2003 Z" fill="white"/>
        <path d="M 663.5747 395.2003 C 675.3459 398.8372 678.5645 406.77357 670.18885 415.8088 C 661.81324 424.84405 645.4811 429.22023 633.71 425.5833 C 621.93884 421.94637 619.461 414.01294 627.8367 404.9777 C 636.2123 395.94246 641.6599 395.8746 641.6599 395.8746 C 641.6599 395.8746 651.8036 391.56336 663.5747 395.2003 Z" stroke="black" stroke-linecap="round" stroke-linejoin="round" stroke-width="4"/>
      </g>
      <g id="Graphic_7">
        <path d="M 652.2676 405.0429 C 655.4243 406.8013 656.4799 410.7407 654.62524 413.84187 C 652.7706 416.94304 648.7081 418.0316 645.5513 416.2732 C 642.3946 414.51485 641.339 410.57543 643.19366 407.47427 C 645.0483 404.3731 649.1108 403.28454 652.2676 405.0429" fill="black"/>
        <path d="M 652.2676 405.0429 C 655.4243 406.8013 656.4799 410.7407 654.62524 413.84187 C 652.7706 416.94304 648.7081 418.0316 645.5513 416.2732 C 642.3946 414.51485 641.339 410.57543 643.19366 407.47427 C 645.0483 404.3731 649.1108 403.28454 652.2676 405.0429" stroke="black" stroke-linecap="round" stroke-linejoin="round" stroke-width="1"/>
      </g>
      <g id="Line_11">
        <path d="M 570.18374 408.1513 L 562.47465 491.33614 C 562.4571 491.52583 562.4368 491.71526 562.4138 491.90437 L 558.3222 525.5584 C 558.13884 527.0663 558.1279 528.59015 558.28954 530.1005 L 559.8155 544.3589 C 560.53826 551.1118 566.5985 556.00026 573.3514 555.27753 C 574.5646 555.1477 575.75174 554.838 576.8738 554.3587 L 599.9161 544.515 C 600.7189 544.17203 601.5433 543.882 602.384 543.64676 L 622.7794 537.94" stroke="black" stroke-linecap="round" stroke-linejoin="round" stroke-width="5"/>
      </g>
      <g id="Line_13">
        <path d="M 542.5373 617.8596 L 569.6299 610.8502 L 618.6681 609.7737 L 648.5582 597.8978 L 655.0287 596.5751" stroke="black" stroke-linecap="round" stroke-linejoin="round" stroke-width="5"/>
      </g>
      <g id="Graphic_15">
        <path d="M 754.4724 562.4478 L 778.4118 656.9481 L 784.5514 685.1167 L 757.1121 718.8932 L 743.9153 730.034 L 719.2557 690.2125 L 695.183 672.6352 L 674.0576 685.97154 L 705.9867 647.63136 L 716 625 L 728.2289 610.5549 L 737 595 Z" fill="#666"/>
        <path d="M 754.4724 562.4478 L 778.4118 656.9481 L 784.5514 685.1167 L 757.1121 718.8932 L 743.9153 730.034 L 719.2557 690.2125 L 695.183 672.6352 L 674.0576 685.97154 L 705.9867 647.63136 L 716 625 L 728.2289 610.5549 L 737 595 Z" stroke="black" stroke-linecap="round" stroke-linejoin="round" stroke-width="5"/>
      </g>
      <g id="Line_14">
        <path d="M 549.78905 634.22225 L 557.5091 642.1079 C 561.6527 646.3403 567.4591 648.5184 573.364 648.0554 L 625.4425 643.9716 C 630.5729 643.5693 635.3507 641.205 638.7825 637.37025 L 655.0287 619.2165 L 655.0287 619.2165" stroke="black" stroke-linecap="round" stroke-linejoin="round" stroke-width="4"/>
      </g>
      <g id="Graphic_35">
        <path d="M 761.0579 844.6407 L 767.7546 832.9623 L 826.419 742.6057 L 826.419 701.4732 L 823.04745 673.8268 L 792.0295 663.0379 C 792.0295 663.0379 760.33725 683.9413 760.33725 683.267 C 760.33725 682.5927 742.1311 712.2621 742.1311 712.2621 L 698.30135 787.784 L 658.2911 844.6407 Z" fill="#666"/>
        <path d="M 761.0579 844.6407 L 767.7546 832.9623 L 826.419 742.6057 L 826.419 701.4732 L 823.04745 673.8268 L 792.0295 663.0379 C 792.0295 663.0379 760.33725 683.9413 760.33725 683.267 C 760.33725 682.5927 742.1311 712.2621 742.1311 712.2621 L 698.30135 787.784 L 658.2911 844.6407 Z" stroke="black" stroke-linecap="round" stroke-linejoin="round" stroke-width="5"/>
      </g>
      <g id="Graphic_37">
        <path d="M 660.64585 844.6407 L 663.9119 839.7054 L 663.9119 820.1506 L 669.9806 781.041 L 677.39796 760.8119 L 677.39796 735.1884 L 655.8192 709.1841 L 645.871 710.0131 L 616.0263 729.0805 L 606.0248 733.114 L 591.76145 781.7153 L 570.85805 837.0082 L 571.7485 844.6407 Z" fill="#333"/>
        <path d="M 660.64585 844.6407 L 663.9119 839.7054 L 663.9119 820.1506 L 669.9806 781.041 L 677.39796 760.8119 L 677.39796 735.1884 L 655.8192 709.1841 L 645.871 710.0131 L 616.0263 729.0805 L 606.0248 733.114 L 591.76145 781.7153 L 570.85805 837.0082 L 571.7485 844.6407 Z" stroke="black" stroke-linecap="round" stroke-linejoin="round" stroke-width="5"/>
      </g>
      <g id="Graphic_21">
        <path d="M 654.13495 708.0546 L 646.7176 720.1921 L 646.7176 724.2379 L 670.9925 741.0955 L 670.9925 753.9072 L 659.5294 809.8744 L 659.5294 832.8007 L 691.8959 793.0168 L 722.2396 736.3753 C 722.2396 736.3753 737.74855 708.0546 738.42285 708.0546 C 739.0972 708.0546 739.0972 697.26576 739.0972 697.26576 L 732.3541 693.8942 L 689.4665 674.87795 L 668.3265 690.6293 L 655.8912 701.82105 Z" fill="white"/>
        <path d="M 654.13495 708.0546 L 646.7176 720.1921 L 646.7176 724.2379 L 670.9925 741.0955 L 670.9925 753.9072 L 659.5294 809.8744 L 659.5294 832.8007 L 691.8959 793.0168 L 722.2396 736.3753 C 722.2396 736.3753 737.74855 708.0546 738.42285 708.0546 C 739.0972 708.0546 739.0972 697.26576 739.0972 697.26576 L 732.3541 693.8942 L 689.4665 674.87795 L 668.3265 690.6293 L 655.8912 701.82105 Z" stroke="black" stroke-linecap="round" stroke-linejoin="round" stroke-width="5"/>
      </g>
      <g id="Graphic_41">
        <path d="M 493.6418 844.6407 L 482.5243 758.789 L 455.5522 797.2243 C 455.5522 797.2243 435.3231 841.7283 435.3231 842.4026 C 435.3231 842.4674 435.3231 843.2602 435.3231 844.6407 Z" fill="#666"/>
        <path d="M 493.6418 844.6407 L 482.5243 758.789 L 455.5522 797.2243 C 455.5522 797.2243 435.3231 841.7283 435.3231 842.4026 C 435.3231 842.4674 435.3231 843.2602 435.3231 844.6407 Z" stroke="black" stroke-linecap="round" stroke-linejoin="round" stroke-width="5"/>
      </g>
      <g id="Graphic_39">
        <path d="M 575.21616 844.6407 L 573.55526 835.6596 L 543.2116 766.8806 L 503.2798 735.7127 L 491.67353 736.5417 L 481.85 761.4862 L 489.94166 770.2521 C 489.94166 770.2521 492.9375 822.8936 494.15575 844.6407 Z" fill="white"/>
        <path d="M 575.21616 844.6407 L 573.55526 835.6596 L 543.2116 766.8806 L 503.2798 735.7127 L 491.67353 736.5417 L 481.85 761.4862 L 489.94166 770.2521 C 489.94166 770.2521 492.9375 822.8936 494.15575 844.6407 Z" stroke="black" stroke-linecap="round" stroke-linejoin="round" stroke-width="5"/>
      </g>
      <g id="Line_27">
        <path d="M 749.7026 391.7901 L 756.7988 377.9825 L 768.0245 391.50867 L 763.1775 441.13557 L 753.9426 449.4167 L 750.1851 429.39433 L 750.65805 408.0031 L 756.3881 412.4776" stroke="black" stroke-linecap="round" stroke-linejoin="round" stroke-width="3"/>
      </g>
      <g id="Graphic_43">
        <path d="M 440.3936 844.6407 C 444.99546 833.6674 451.0516 819.1286 451.0516 818.6145 C 451.0516 817.7855 430.32616 793.744 430.32616 793.744 L 381.41407 787.9408 L 315.9216 822.7596 C 315.9216 822.7596 296.83214 835.3723 283.13507 844.6407 Z" fill="#333"/>
        <path d="M 440.3936 844.6407 C 444.99546 833.6674 451.0516 819.1286 451.0516 818.6145 C 451.0516 817.7855 430.32616 793.744 430.32616 793.744 L 381.41407 787.9408 L 315.9216 822.7596 C 315.9216 822.7596 296.83214 835.3723 283.13507 844.6407 Z" stroke="black" stroke-linecap="round" stroke-linejoin="round" stroke-width="5"/>
      </g>
      <g id="Graphic_49">
        <circle cx="338.91825" cy="668.3463" r="68.5927846976931" fill="#a5a5a5"/>
        <circle cx="338.91825" cy="668.3463" r="68.5927846976931" stroke="black" stroke-linecap="round" stroke-linejoin="round" stroke-width="18"/>
      </g>
      <g id="Line_47">
        <path d="M 235.85505 774.5815 L 215.4513 808.43035 L 210.7749 794.8872 L 201.847 796.9101 L 141.45618 844.6407" stroke="black" stroke-linecap="round" stroke-linejoin="round" stroke-width="17"/>
      </g>
      <g id="Graphic_48">
        <path d="M 273.21266 665.784 L 164.92375 808.9154 C 156.29073 817.5484 154.26511 817.2618 172.8425 835.8392 C 191.4199 854.4166 190.34136 846.8478 198.97438 838.2148 L 340.52204 733.0934 C 349.15506 724.4604 341.08427 702.37655 322.5069 683.7992 C 303.9295 665.2218 281.8457 657.151 273.21266 665.784 Z" fill="#666"/>
        <path d="M 273.21266 665.784 L 164.92375 808.9154 C 156.29073 817.5484 154.26511 817.2618 172.8425 835.8392 C 191.4199 854.4166 190.34136 846.8478 198.97438 838.2148 L 340.52204 733.0934 C 349.15506 724.4604 341.08427 702.37655 322.5069 683.7992 C 303.9295 665.2218 281.8457 657.151 273.21266 665.784 Z" stroke="black" stroke-linecap="round" stroke-linejoin="round" stroke-width="7"/>
      </g>
      <g id="Graphic_50">
        <path d="M 254.57423 743.1738 C 254.57423 742.3448 219.75545 773.0185 219.75545 773.0185 L 206.49115 802.8632 L 229.70367 816.9565 L 281.93184 777.9926 L 270.32558 756.4381 C 270.32558 756.4381 254.57423 744.0028 254.57423 743.1738 Z" fill="#333"/>
        <path d="M 254.57423 743.1738 C 254.57423 742.3448 219.75545 773.0185 219.75545 773.0185 L 206.49115 802.8632 L 229.70367 816.9565 L 281.93184 777.9926 L 270.32558 756.4381 C 270.32558 756.4381 254.57423 744.0028 254.57423 743.1738 Z" stroke="black" stroke-linecap="round" stroke-linejoin="round" stroke-width="5"/>
      </g>
    </g>
  </g>
</svg>
