<?xml version="1.0" encoding="UTF-8" standalone="no"?>
<!DOCTYPE svg PUBLIC "-//W3C//DTD SVG 1.1//EN" "http://www.w3.org/Graphics/SVG/1.1/DTD/svg11.dtd">
<svg xmlns:xl="http://www.w3.org/1999/xlink" xmlns:dc="http://purl.org/dc/elements/1.1/" version="1.1" xmlns="http://www.w3.org/2000/svg" viewBox="0 0 850.394 850.394" width="850.394" height="850.394">
  <defs/>
  <metadata> Produced by OmniGraffle 7.9.4 
    <dc:date>2019-04-17 15:35:40 +0000</dc:date>
  </metadata>
  <g id="Singer" stroke-opacity="1" stroke="none" fill="none" fill-opacity="1" stroke-dasharray="none">
    <title>Singer</title>
    <g id="Singer: gift">
      <title>gift</title>
      <g id="Graphic_52">
        <path d="M 753 608 L 631 687 L 601 729 C 601 729 606 823 606 824 C 606 825 633 849 633 849 L 852 851 L 856 668 L 856 575 L 828 563 Z" fill="#333"/>
        <path d="M 753 608 L 631 687 L 601 729 C 601 729 606 823 606 824 C 606 825 633 849 633 849 L 852 851 L 856 668 L 856 575 L 828 563 Z" stroke="black" stroke-linecap="round" stroke-linejoin="round" stroke-width="5"/>
      </g>
      <g id="Graphic_51">
        <path d="M 121.42008 710.394 L 121.42008 828.394 L 124.42008 848.394 L 163.42008 850.394 L 149.42008 745.394 L 151.42008 696.394 Z" fill="#333"/>
        <path d="M 121.42008 710.394 L 121.42008 828.394 L 124.42008 848.394 L 163.42008 850.394 L 149.42008 745.394 L 151.42008 696.394 Z" stroke="black" stroke-linecap="round" stroke-linejoin="round" stroke-width="5"/>
      </g>
      <g id="Graphic_30">
        <path d="M 369 700 L 333 726 L 282 766 L 282 785 L 369 822 L 436 822 L 451 733 L 416 696 Z" fill="#333"/>
        <path d="M 369 700 L 333 726 L 282 766 L 282 785 L 369 822 L 436 822 L 451 733 L 416 696 Z" stroke="black" stroke-linecap="round" stroke-linejoin="round" stroke-width="5"/>
      </g>
      <g id="Graphic_46">
        <path d="M 428.6701 -.65617624 L 382.3619 33.505586 L 380.73517 118.09662 L 384.80205 210.00803 L 394.56255 259.62392 L 418.15043 308.42644 L 757.3279 410.09835 C 757.3279 410.09835 757.3279 410.09835 757.3279 410.9117 C 757.3279 411.7251 769.5286 386.51046 769.5286 386.51046 L 785.7961 351.53533 L 792.3031 255.55704 L 780.9158 216.51503 L 772.7821 183.98002 L 768.7152 141.6845 L 733.74005 26.998584 L 696.029 -.65617624 Z" fill="black"/>
        <path d="M 428.6701 -.65617624 L 382.3619 33.505586 L 380.73517 118.09662 L 384.80205 210.00803 L 394.56255 259.62392 L 418.15043 308.42644 L 757.3279 410.09835 C 757.3279 410.09835 757.3279 410.09835 757.3279 410.9117 C 757.3279 411.7251 769.5286 386.51046 769.5286 386.51046 L 785.7961 351.53533 L 792.3031 255.55704 L 780.9158 216.51503 L 772.7821 183.98002 L 768.7152 141.6845 L 733.74005 26.998584 L 696.029 -.65617624 Z" stroke="black" stroke-linecap="round" stroke-linejoin="round" stroke-width="5"/>
      </g>
      <g id="Graphic_28">
        <path d="M 819.0777 648.4173 L 855 624.8294 L 851.0086 401.1512 L 849.4121 314.93344 L 848.6138 296.2258 L 790.3399 268.57105 L 689.7575 230.3424 L 448.679 271.82455 L 404.77398 350.72195 C 404.77398 350.72195 385.6154 443.44673 385.6154 444.2601 C 385.6154 445.0735 400.7826 528.85114 400.7826 528.85114 L 419.1429 576.8403 C 419.1429 576.8403 467.0393 627.26955 467.0393 626.4562 C 467.0393 625.6428 536.48904 684.2058 536.48904 684.2058 Z" fill="#333"/>
        <path d="M 819.0777 648.4173 L 855 624.8294 L 851.0086 401.1512 L 849.4121 314.93344 L 848.6138 296.2258 L 790.3399 268.57105 L 689.7575 230.3424 L 448.679 271.82455 L 404.77398 350.72195 C 404.77398 350.72195 385.6154 443.44673 385.6154 444.2601 C 385.6154 445.0735 400.7826 528.85114 400.7826 528.85114 L 419.1429 576.8403 C 419.1429 576.8403 467.0393 627.26955 467.0393 626.4562 C 467.0393 625.6428 536.48904 684.2058 536.48904 684.2058 Z" stroke="black" stroke-linecap="round" stroke-linejoin="round" stroke-width="5"/>
      </g>
      <g id="Graphic_22">
        <path d="M 437.8043 592.2944 L 410.14956 602.0549 C 410.14956 602.0549 384.9349 634.5899 384.9349 635.4033 C 384.9349 636.2167 382.4948 645.9772 382.4948 645.9772 C 382.4948 645.9772 389.0018 706.16696 389.0018 706.9803 C 389.0018 707.7937 409.3362 746.8357 409.3362 746.8357 L 425.6037 728.1281 L 453.25845 728.1281 L 467.8992 717.5542 L 450.00495 667.9383 L 444.3113 631.3364 Z" fill="#333"/>
        <path d="M 437.8043 592.2944 L 410.14956 602.0549 C 410.14956 602.0549 384.9349 634.5899 384.9349 635.4033 C 384.9349 636.2167 382.4948 645.9772 382.4948 645.9772 C 382.4948 645.9772 389.0018 706.16696 389.0018 706.9803 C 389.0018 707.7937 409.3362 746.8357 409.3362 746.8357 L 425.6037 728.1281 L 453.25845 728.1281 L 467.8992 717.5542 L 450.00495 667.9383 L 444.3113 631.3364 Z" stroke="black" stroke-linecap="round" stroke-linejoin="round" stroke-width="5"/>
      </g>
      <g id="Graphic_18">
        <path d="M 683.3108 611.00205 L 662.163 691.5262 L 700.3917 682.5791 L 743.50055 663.87144 L 727.23304 637.8434 L 682.4974 621.5759 Z" fill="#333"/>
        <path d="M 683.3108 611.00205 L 662.163 691.5262 L 700.3917 682.5791 L 743.50055 663.87144 L 727.23304 637.8434 L 682.4974 621.5759 Z" stroke="black" stroke-linecap="round" stroke-linejoin="round" stroke-width="5"/>
      </g>
      <g id="Graphic_17">
        <path d="M 671.9235 607.74854 L 654.0293 632.1498 L 632.0681 662.2447 L 623.9344 690.7128 L 667.0433 692.3396 L 681.684 649.2307 L 688.191 633.77655 L 690.63116 616.6957 Z" fill="white"/>
        <path d="M 671.9235 607.74854 L 654.0293 632.1498 L 632.0681 662.2447 L 623.9344 690.7128 L 667.0433 692.3396 L 681.684 649.2307 L 688.191 633.77655 L 690.63116 616.6957 Z" stroke="black" stroke-linecap="round" stroke-linejoin="round" stroke-width="5"/>
      </g>
      <g id="Graphic_3">
        <path d="M 514.1287 -.65617624 C 514.1287 -.65617624 460.44595 11.544453 460.44595 12.357828 C 460.44595 13.171204 424.65744 40.825964 423.84406 40.825964 C 423.0307 40.825964 405.13643 74.98773 405.13643 74.98773 C 405.13643 74.98773 397.00268 207.5679 397.00268 209.19465 C 397.00268 210.8214 410.0167 284.83855 410.0167 285.65193 C 410.0167 286.4653 417.33706 337.70795 417.33706 336.89457 C 417.33706 336.0812 414.08356 425.5525 414.08356 425.5525 L 419.945 516.15005 C 419.9816 516.716 420.0583 517.2786 420.1745 517.83366 L 437.49464 600.5855 C 437.82806 602.1785 438.48204 603.68704 439.4168 605.01934 L 476.2695 657.5451 C 476.5652 657.9665 476.8334 658.4064 477.07254 658.86226 L 503.0753 708.4253 C 504.90674 711.9162 508.3359 714.2849 512.249 714.7621 L 547 719 C 547 719 603 705.8134 603 705 C 603 704.1866 637.7618 669.5651 637.7618 669.5651 L 693.323 618.62075 C 693.7737 618.2075 694.1921 617.76045 694.57464 617.28345 L 749.8092 548.40874 C 751.517 546.2792 752.4477 543.631 752.4477 540.90124 L 752.4477 487.12576 C 752.4477 486.7459 752.4296 486.3662 752.3936 485.98806 L 746.2976 421.9799 C 746.0652 419.54 746.58555 417.08744 747.7886 414.95207 L 777.0917 362.939 C 778.002 361.3233 778.5254 359.51862 778.6208 357.6666 L 782.5009 282.39305 C 782.52865 281.855 782.5201 281.31568 782.4754 280.77877 L 776.0356 203.50102 C 776.0356 203.50102 748.3808 208.38127 748.3808 209.19465 C 748.3808 210.00803 730.48655 259.62392 730.48655 259.62392 L 730.48655 138.44559 C 730.48655 135.79906 729.61165 133.22676 727.998 131.12906 L 658.87614 41.270597 C 657.8262 39.90567 656.4948 38.782707 654.97234 37.977987 L 602.3512 10.163953 C 601.02645 9.463732 599.5823 9.017812 598.0934 8.849257 Z" fill="#bd7e54"/>
        <path d="M 514.1287 -.65617624 C 514.1287 -.65617624 460.44595 11.544453 460.44595 12.357828 C 460.44595 13.171204 424.65744 40.825964 423.84406 40.825964 C 423.0307 40.825964 405.13643 74.98773 405.13643 74.98773 C 405.13643 74.98773 397.00268 207.5679 397.00268 209.19465 C 397.00268 210.8214 410.0167 284.83855 410.0167 285.65193 C 410.0167 286.4653 417.33706 337.70795 417.33706 336.89457 C 417.33706 336.0812 414.08356 425.5525 414.08356 425.5525 L 419.945 516.15005 C 419.9816 516.716 420.0583 517.2786 420.1745 517.83366 L 437.49464 600.5855 C 437.82806 602.1785 438.48204 603.68704 439.4168 605.01934 L 476.2695 657.5451 C 476.5652 657.9665 476.8334 658.4064 477.07254 658.86226 L 503.0753 708.4253 C 504.90674 711.9162 508.3359 714.2849 512.249 714.7621 L 547 719 C 547 719 603 705.8134 603 705 C 603 704.1866 637.7618 669.5651 637.7618 669.5651 L 693.323 618.62075 C 693.7737 618.2075 694.1921 617.76045 694.57464 617.28345 L 749.8092 548.40874 C 751.517 546.2792 752.4477 543.631 752.4477 540.90124 L 752.4477 487.12576 C 752.4477 486.7459 752.4296 486.3662 752.3936 485.98806 L 746.2976 421.9799 C 746.0652 419.54 746.58555 417.08744 747.7886 414.95207 L 777.0917 362.939 C 778.002 361.3233 778.5254 359.51862 778.6208 357.6666 L 782.5009 282.39305 C 782.52865 281.855 782.5201 281.31568 782.4754 280.77877 L 776.0356 203.50102 C 776.0356 203.50102 748.3808 208.38127 748.3808 209.19465 C 748.3808 210.00803 730.48655 259.62392 730.48655 259.62392 L 730.48655 138.44559 C 730.48655 135.79906 729.61165 133.22676 727.998 131.12906 L 658.87614 41.270597 C 657.8262 39.90567 656.4948 38.782707 654.97234 37.977987 L 602.3512 10.163953 C 601.02645 9.463732 599.5823 9.017812 598.0934 8.849257 Z" stroke="black" stroke-linecap="round" stroke-linejoin="round" stroke-width="5"/>
      </g>
      <g id="Line_4">
        <path d="M 510.06184 313.3067 L 472.98654 297.4983 L 431.7697 291.7157 L 424.7877 299.3808 L 417.33706 312.9" stroke="black" stroke-linecap="round" stroke-linejoin="round" stroke-width="5"/>
      </g>
      <g id="Line_6">
        <path d="M 568.8634 300.9088 L 612.1014 267.49797 L 642.4824 265 L 670.17926 282.2667 L 670.17926 282.2667" stroke="black" stroke-linecap="round" stroke-linejoin="round" stroke-width="5"/>
      </g>
      <g id="Graphic_10">
        <path d="M 487.3979 343.6668 C 500.4863 350.5274 500.4863 361.65065 487.3979 368.51127 C 474.3096 375.3719 453.0893 375.3719 440.001 368.51127 C 426.9126 361.65065 426.9126 350.5274 440.001 343.6668 C 453.0893 336.80614 461.666 340.14807 461.666 340.14807 C 461.666 340.14807 474.3096 336.80614 487.3979 343.6668 Z" fill="white"/>
        <path d="M 487.3979 343.6668 C 500.4863 350.5274 500.4863 361.65065 487.3979 368.51127 C 474.3096 375.3719 453.0893 375.3719 440.001 368.51127 C 426.9126 361.65065 426.9126 350.5274 440.001 343.6668 C 453.0893 336.80614 461.666 340.14807 461.666 340.14807 C 461.666 340.14807 474.3096 336.80614 487.3979 343.6668 Z" stroke="black" stroke-linecap="round" stroke-linejoin="round" stroke-width="4"/>
      </g>
      <g id="Graphic_9">
        <ellipse cx="463.69945" cy="357.2254" rx="10.1198909452818" ry="9.8132275833035" fill="black"/>
        <ellipse cx="463.69945" cy="357.2254" rx="10.1198909452818" ry="9.8132275833035" stroke="black" stroke-linecap="round" stroke-linejoin="round" stroke-width="1"/>
      </g>
      <g id="Graphic_8">
        <path d="M 637.3551 302.32612 C 651.554 306.71312 655.4364 316.2863 645.3333 327.18502 C 635.2303 338.08375 615.5297 343.3625 601.33086 338.97544 C 587.13195 334.58844 584.1431 325.01877 594.2462 314.12006 C 604.3492 303.22133 610.9204 303.1395 610.9204 303.1395 C 610.9204 303.1395 623.1562 297.93906 637.3551 302.32612 Z" fill="white"/>
        <path d="M 637.3551 302.32612 C 651.554 306.71312 655.4364 316.2863 645.3333 327.18502 C 635.2303 338.08375 615.5297 343.3625 601.33086 338.97544 C 587.13195 334.58844 584.1431 325.01877 594.2462 314.12006 C 604.3492 303.22133 610.9204 303.1395 610.9204 303.1395 C 610.9204 303.1395 623.1562 297.93906 637.3551 302.32612 Z" stroke="black" stroke-linecap="round" stroke-linejoin="round" stroke-width="4"/>
      </g>
      <g id="Graphic_7">
        <path d="M 625.5245 312.78454 C 631.0711 315.8741 632.9258 322.7959 629.66706 328.24485 C 626.40834 333.6938 619.2702 335.60647 613.7236 332.5169 C 608.177 329.42733 606.3223 322.5055 609.581 317.05657 C 612.83974 311.6076 619.9779 309.69496 625.5245 312.78454" fill="black"/>
        <path d="M 625.5245 312.78454 C 631.0711 315.8741 632.9258 322.7959 629.66706 328.24485 C 626.40834 333.6938 619.2702 335.60647 613.7236 332.5169 C 608.177 329.42733 606.3223 322.5055 609.581 317.05657 C 612.83974 311.6076 619.9779 309.69496 625.5245 312.78454" stroke="black" stroke-linecap="round" stroke-linejoin="round" stroke-width="1"/>
      </g>
      <g id="Line_11">
        <path d="M 524.7026 323.88057 L 506.89813 430.4098 L 492.8492 478.51056 L 514.3301 508.1211 L 558.58366 497.17343 L 588.1459 480.43763" stroke="black" stroke-linecap="round" stroke-linejoin="round" stroke-width="5"/>
      </g>
      <g id="Line_13">
        <path d="M 491.3542 576.8403 L 524.03455 568.3852 L 583.1866 567.0867 L 619.24145 552.76145 L 627.0464 551.1659" stroke="black" stroke-linecap="round" stroke-linejoin="round" stroke-width="5"/>
      </g>
      <g id="Graphic_15">
        <path d="M 749.8305 548.11234 L 775.8767 623.99064 L 783.2826 657.9689 L 750.1841 698.71155 L 734.2656 712.15016 L 704.52 664.1156 L 675.4824 642.9131 L 650 659 L 688.5143 612.7523 L 699.6924 581.44655 L 715.3439 568.029 L 718.20705 566.1154 Z" fill="#666"/>
        <path d="M 749.8305 548.11234 L 775.8767 623.99064 L 783.2826 657.9689 L 750.1841 698.71155 L 734.2656 712.15016 L 704.52 664.1156 L 675.4824 642.9131 L 650 659 L 688.5143 612.7523 L 699.6924 581.44655 L 715.3439 568.029 L 718.20705 566.1154 Z" stroke="black" stroke-linecap="round" stroke-linejoin="round" stroke-width="5"/>
      </g>
      <g id="Line_14">
        <path d="M 506.80834 595.5479 L 524.0069 613.1153 L 586.0185 608.4047 L 633.7532 577.4473 L 633.7532 577.4473" stroke="black" stroke-linecap="round" stroke-linejoin="round" stroke-width="4"/>
      </g>
      <g id="Graphic_16">
        <path d="M 448 615 L 446 650 L 436 666 L 438 691 C 438 691 436.85806 706.16696 437.67144 706.9803 C 438.4848 707.7937 484.03383 749.27585 484.03383 749.27585 L 510.8752 802.9586 L 523.8892 837.9338 L 544.2236 799.7051 C 544.2236 799.7051 561.1866 721 562 721 C 562.8134 721 540 717 540 717 L 497.04784 692.3396 L 475.9001 649.2307 Z" fill="white"/>
        <path d="M 448 615 L 446 650 L 436 666 L 438 691 C 438 691 436.85806 706.16696 437.67144 706.9803 C 438.4848 707.7937 484.03383 749.27585 484.03383 749.27585 L 510.8752 802.9586 L 523.8892 837.9338 L 544.2236 799.7051 C 544.2236 799.7051 561.1866 721 562 721 C 562.8134 721 540 717 540 717 L 497.04784 692.3396 L 475.9001 649.2307 Z" stroke="black" stroke-linecap="round" stroke-linejoin="round" stroke-width="5"/>
      </g>
      <g id="Graphic_35">
        <path d="M 754.9437 850.394 L 763.0216 836.307 L 833.7852 727.3147 L 833.7852 677.6988 L 829.7183 644.3504 L 792.3031 631.3364 C 792.3031 631.3364 754.0744 656.5511 754.0744 655.7377 C 754.0744 654.9243 732.1133 690.7128 732.1133 690.7128 L 679.2439 781.8109 L 630.9817 850.394 Z" fill="#666"/>
        <path d="M 754.9437 850.394 L 763.0216 836.307 L 833.7852 727.3147 L 833.7852 677.6988 L 829.7183 644.3504 L 792.3031 631.3364 C 792.3031 631.3364 754.0744 656.5511 754.0744 655.7377 C 754.0744 654.9243 732.1133 690.7128 732.1133 690.7128 L 679.2439 781.8109 L 630.9817 850.394 Z" stroke="black" stroke-linecap="round" stroke-linejoin="round" stroke-width="5"/>
      </g>
      <g id="Graphic_37">
        <path d="M 633.8221 850.394 L 637.7618 844.4408 L 637.7618 820.8529 L 645.08214 773.6771 L 654.0293 749.27585 L 654.0293 718.3676 L 628 687 L 616 688 L 580 711 L 565 711 L 550.7306 774.4905 L 525.516 841.1873 L 526.5901 850.394 Z" fill="#333"/>
        <path d="M 633.8221 850.394 L 637.7618 844.4408 L 637.7618 820.8529 L 645.08214 773.6771 L 654.0293 749.27585 L 654.0293 718.3676 L 628 687 L 616 688 L 580 711 L 565 711 L 550.7306 774.4905 L 525.516 841.1873 L 526.5901 850.394 Z" stroke="black" stroke-linecap="round" stroke-linejoin="round" stroke-width="5"/>
      </g>
      <g id="Graphic_21">
        <path d="M 625.9684 685.6376 L 617.02124 700.27835 L 617.02124 705.1586 L 646.30275 725.493 L 646.30275 740.9471 L 632.4754 808.4573 L 632.4754 836.112 L 671.5174 788.1229 L 708.1193 719.7994 C 708.1193 719.7994 726.8269 685.6376 727.6403 685.6376 C 728.4537 685.6376 728.4537 672.6236 728.4537 672.6236 L 720.3199 668.5567 L 668.5869 645.6184 L 643.08686 664.6184 L 628.08686 678.1184 Z" fill="white"/>
        <path d="M 625.9684 685.6376 L 617.02124 700.27835 L 617.02124 705.1586 L 646.30275 725.493 L 646.30275 740.9471 L 632.4754 808.4573 L 632.4754 836.112 L 671.5174 788.1229 L 708.1193 719.7994 C 708.1193 719.7994 726.8269 685.6376 727.6403 685.6376 C 728.4537 685.6376 728.4537 672.6236 728.4537 672.6236 L 720.3199 668.5567 L 668.5869 645.6184 L 643.08686 664.6184 L 628.08686 678.1184 Z" stroke="black" stroke-linecap="round" stroke-linejoin="round" stroke-width="5"/>
      </g>
      <g id="Graphic_41">
        <path d="M 432.37423 850.394 L 418.9638 746.8357 L 386.4288 793.1981 C 386.4288 793.1981 362.02754 846.8809 362.02754 847.6943 C 362.02754 847.7724 362.02754 848.7288 362.02754 850.394 Z" fill="#666"/>
        <path d="M 432.37423 850.394 L 418.9638 746.8357 L 386.4288 793.1981 C 386.4288 793.1981 362.02754 846.8809 362.02754 847.6943 C 362.02754 847.7724 362.02754 848.7288 362.02754 850.394 Z" stroke="black" stroke-linecap="round" stroke-linejoin="round" stroke-width="5"/>
      </g>
      <g id="Graphic_39">
        <path d="M 530.7729 850.394 L 528.7695 839.5605 L 492.1676 756.5962 L 444 719 L 430 720 L 418.15043 750.0892 L 427.91094 760.6631 C 427.91094 760.6631 431.5247 824.1617 432.99417 850.394 Z" fill="white"/>
        <path d="M 530.7729 850.394 L 528.7695 839.5605 L 492.1676 756.5962 L 444 719 L 430 720 L 418.15043 750.0892 L 427.91094 760.6631 C 427.91094 760.6631 431.5247 824.1617 432.99417 850.394 Z" stroke="black" stroke-linecap="round" stroke-linejoin="round" stroke-width="5"/>
      </g>
      <g id="Line_27">
        <path d="M 741.2464 304.14493 L 749.8062 287.4896 L 763.3471 303.80546 L 757.5005 363.6677 L 746.3609 373.65676 L 741.8285 349.50486 L 742.3989 323.70176 L 752.8406 324.4348" stroke="black" stroke-linecap="round" stroke-linejoin="round" stroke-width="5"/>
      </g>
      <g id="Graphic_43">
        <path d="M 368.14382 850.394 C 373.6948 837.1575 381 819.6201 381 819 C 381 818 356 789 356 789 L 297 782 L 218 824 C 218 824 194.97342 839.214 178.4514 850.394 Z" fill="#333"/>
        <path d="M 368.14382 850.394 C 373.6948 837.1575 381 819.6201 381 819 C 381 818 356 789 356 789 L 297 782 L 218 824 C 218 824 194.97342 839.214 178.4514 850.394 Z" stroke="black" stroke-linecap="round" stroke-linejoin="round" stroke-width="5"/>
      </g>
      <g id="Graphic_49">
        <circle cx="245.7396" cy="637.7396" r="82.739745448" fill="#a5a5a5"/>
        <circle cx="245.7396" cy="637.7396" r="82.739745448" stroke="black" stroke-linecap="round" stroke-linejoin="round" stroke-width="18"/>
      </g>
      <g id="Line_47">
        <path d="M 121.42008 765.8854 L 96.80814 806.7154 L 91.16724 790.379 L 80.39801 792.81915 L 7.551858 850.394" stroke="black" stroke-linecap="round" stroke-linejoin="round" stroke-width="17"/>
      </g>
      <g id="Graphic_48">
        <path d="M 166.48253 634.6489 L 35.85951 807.3005 C 25.445965 817.71405 23.002574 817.3683 45.411467 839.7772 C 67.82036 862.1861 66.51938 853.0563 76.93293 842.6427 L 247.67417 715.8405 C 258.08772 705.427 248.35236 678.7885 225.94347 656.3796 C 203.53458 633.9707 176.89608 624.2353 166.48253 634.6489 Z" fill="#666"/>
        <path d="M 166.48253 634.6489 L 35.85951 807.3005 C 25.445965 817.71405 23.002574 817.3683 45.411467 839.7772 C 67.82036 862.1861 66.51938 853.0563 76.93293 842.6427 L 247.67417 715.8405 C 258.08772 705.427 248.35236 678.7885 225.94347 656.3796 C 203.53458 633.9707 176.89608 624.2353 166.48253 634.6489 Z" stroke="black" stroke-linecap="round" stroke-linejoin="round" stroke-width="7"/>
      </g>
      <g id="Graphic_50">
        <path d="M 144 728 C 144 727 102 764 102 764 L 86 800 L 114 817 L 177 770 L 163 744 C 163 744 144 729 144 728 Z" fill="#333"/>
        <path d="M 144 728 C 144 727 102 764 102 764 L 86 800 L 114 817 L 177 770 L 163 744 C 163 744 144 729 144 728 Z" stroke="black" stroke-linecap="round" stroke-linejoin="round" stroke-width="5"/>
      </g>
    </g>
  </g>
</svg>
