<?xml version="1.0" encoding="UTF-8" standalone="no"?>
<!DOCTYPE svg PUBLIC "-//W3C//DTD SVG 1.1//EN" "http://www.w3.org/Graphics/SVG/1.1/DTD/svg11.dtd">
<svg xmlns="http://www.w3.org/2000/svg" xmlns:xl="http://www.w3.org/1999/xlink" xmlns:dc="http://purl.org/dc/elements/1.1/" version="1.1" viewBox="0 0 850.394 850.394" width="850.394" height="850.394">
  <defs/>
  <metadata> Produced by OmniGraffle 7.9.4 
    <dc:date>2019-08-27 03:35:53 +0000</dc:date>
  </metadata>
  <g id="slide" stroke="none" fill="none" fill-opacity="1" stroke-opacity="1" stroke-dasharray="none">
    <title>slide</title>
    <g id="slide: Layer 1">
      <title>Layer 1</title>
      <g id="Graphic_3">
        <path d="M 41.966147 491.5293 L 123.66787 483.03706 C 127.63181 482.62504 130.97268 479.8987 132.17114 476.09785 L 169.77605 356.8366 C 169.90028 356.44257 170.04882 356.05664 170.2208 355.681 L 204.67603 280.4235 C 206.913 275.5375 212.68734 273.39 217.57337 275.62698 C 219.59154 276.55097 221.23314 278.1372 222.2258 280.1225 L 229.3134 294.29774 C 230.58696 296.84484 230.71415 299.8141 229.66308 302.46078 L 139.46922 529.5754 C 137.98193 533.3205 134.3921 535.80704 130.3632 535.88276 L 43.18791 537.52115 C 37.666036 537.6249 33.105545 533.2327 33.001766 527.7108 C 33.00059 527.6482 33 527.58555 33 527.5229 L 33 501.47573 C 33 496.35315 36.871014 492.0589 41.966147 491.5293 Z" fill="#4040ff"/>
        <path d="M 41.966147 491.5293 L 123.66787 483.03706 C 127.63181 482.62504 130.97268 479.8987 132.17114 476.09785 L 169.77605 356.8366 C 169.90028 356.44257 170.04882 356.05664 170.2208 355.681 L 204.67603 280.4235 C 206.913 275.5375 212.68734 273.39 217.57337 275.62698 C 219.59154 276.55097 221.23314 278.1372 222.2258 280.1225 L 229.3134 294.29774 C 230.58696 296.84484 230.71415 299.8141 229.66308 302.46078 L 139.46922 529.5754 C 137.98193 533.3205 134.3921 535.80704 130.3632 535.88276 L 43.18791 537.52115 C 37.666036 537.6249 33.105545 533.2327 33.001766 527.7108 C 33.00059 527.6482 33 527.58555 33 527.5229 L 33 501.47573 C 33 496.35315 36.871014 492.0589 41.966147 491.5293 Z" stroke="black" stroke-linecap="round" stroke-linejoin="round" stroke-width="6"/>
      </g>
      <g id="Graphic_5">
        <path d="M 356.12795 437.39097 L 370.71058 495.72146 C 371.62346 499.373 374.5094 502.20265 378.17824 503.0434 L 423.11016 513.3403 C 425.4479 513.87605 427.5152 515.2341 428.9352 517.1669 L 464.8533 566.05536 C 466.61573 568.45426 467.21785 571.5136 466.4959 574.4015 L 463.51845 586.3112 C 462.17897 591.6692 456.7496 594.9268 451.39167 593.5873 C 449.95266 593.22754 448.6117 592.5522 447.466 591.6101 L 410.75083 561.4221 C 409.3157 560.2421 407.5802 559.48526 405.73896 559.23644 L 371.75796 554.6444 C 368.4795 554.2014 365.63236 552.1656 364.15287 549.2066 L 326.43006 473.761 C 325.1865 471.2739 325.03467 468.38127 326.01104 465.7776 L 337.06324 436.3051 C 339.00244 431.1339 344.76656 428.51383 349.93776 430.45304 C 353.01622 431.60746 355.33055 434.20134 356.12795 437.39097 Z" fill="#4040ff"/>
        <path d="M 356.12795 437.39097 L 370.71058 495.72146 C 371.62346 499.373 374.5094 502.20265 378.17824 503.0434 L 423.11016 513.3403 C 425.4479 513.87605 427.5152 515.2341 428.9352 517.1669 L 464.8533 566.05536 C 466.61573 568.45426 467.21785 571.5136 466.4959 574.4015 L 463.51845 586.3112 C 462.17897 591.6692 456.7496 594.9268 451.39167 593.5873 C 449.95266 593.22754 448.6117 592.5522 447.466 591.6101 L 410.75083 561.4221 C 409.3157 560.2421 407.5802 559.48526 405.73896 559.23644 L 371.75796 554.6444 C 368.4795 554.2014 365.63236 552.1656 364.15287 549.2066 L 326.43006 473.761 C 325.1865 471.2739 325.03467 468.38127 326.01104 465.7776 L 337.06324 436.3051 C 339.00244 431.1339 344.76656 428.51383 349.93776 430.45304 C 353.01622 431.60746 355.33055 434.20134 356.12795 437.39097 Z" stroke="black" stroke-linecap="round" stroke-linejoin="round" stroke-width="6"/>
      </g>
      <g id="Graphic_7">
        <path d="M 513.131 581.51054 L 555.1502 590.33944 C 555.885 590.4938 556.6348 590.565 557.3855 590.5515 L 815.502 585.9309 C 821.0239 585.832 825.5805 590.2283 825.6794 595.7503 C 825.6804 595.80995 825.681 595.8696 825.681 595.9293 L 825.681 620.84775 C 825.681 626.3706 821.2038 630.84775 815.681 630.84775 C 815.6306 630.84775 815.5802 630.8474 815.5299 630.8466 L 557.90114 626.9536 C 556.8116 626.9372 555.7321 626.74274 554.7053 626.37805 L 503.1745 608.0755 C 497.97016 606.227 495.2497 600.5096 497.09815 595.3053 C 497.33604 594.6355 497.64466 593.993 498.01877 593.38866 L 502.5721 586.0333 C 504.78847 582.453 509.0102 580.6447 513.131 581.51054 Z" fill="#4040ff"/>
        <path d="M 513.131 581.51054 L 555.1502 590.33944 C 555.885 590.4938 556.6348 590.565 557.3855 590.5515 L 815.502 585.9309 C 821.0239 585.832 825.5805 590.2283 825.6794 595.7503 C 825.6804 595.80995 825.681 595.8696 825.681 595.9293 L 825.681 620.84775 C 825.681 626.3706 821.2038 630.84775 815.681 630.84775 C 815.6306 630.84775 815.5802 630.8474 815.5299 630.8466 L 557.90114 626.9536 C 556.8116 626.9372 555.7321 626.74274 554.7053 626.37805 L 503.1745 608.0755 C 497.97016 606.227 495.2497 600.5096 497.09815 595.3053 C 497.33604 594.6355 497.64466 593.993 498.01877 593.38866 L 502.5721 586.0333 C 504.78847 582.453 509.0102 580.6447 513.131 581.51054 Z" stroke="black" stroke-linecap="round" stroke-linejoin="round" stroke-width="6"/>
      </g>
      <g id="Graphic_8">
        <path d="M 230.21724 218.33329 L 244.4792 211.57762 C 245.54147 211.07444 246.68412 210.76248 247.8547 210.65606 L 311.39737 204.87946 C 316.785 204.38967 321.5853 208.2733 322.2312 213.64446 L 342.36567 381.07846 C 342.55798 382.67764 342.36114 384.2996 341.7919 385.8064 L 333.00107 409.0763 C 331.74135 412.41085 328.01694 414.09284 324.6824 412.8331 C 322.39594 411.96935 320.79356 409.88813 320.54307 407.45684 L 305.0135 256.72877 C 304.46353 251.39072 299.79824 247.43838 294.4424 247.77312 L 251.13443 250.47987 C 250.0478 250.54778 248.97956 250.7927 247.97188 251.20493 L 236.99583 255.69513 C 232.36196 257.5908 227.06872 255.37106 225.17304 250.7372 C 224.72735 249.64772 224.4981 248.48188 224.4981 247.30477 L 224.4981 227.37066 C 224.4981 223.5062 226.72477 219.98761 230.21724 218.33329 Z" fill="#4040ff"/>
        <path d="M 230.21724 218.33329 L 244.4792 211.57762 C 245.54147 211.07444 246.68412 210.76248 247.8547 210.65606 L 311.39737 204.87946 C 316.785 204.38967 321.5853 208.2733 322.2312 213.64446 L 342.36567 381.07846 C 342.55798 382.67764 342.36114 384.2996 341.7919 385.8064 L 333.00107 409.0763 C 331.74135 412.41085 328.01694 414.09284 324.6824 412.8331 C 322.39594 411.96935 320.79356 409.88813 320.54307 407.45684 L 305.0135 256.72877 C 304.46353 251.39072 299.79824 247.43838 294.4424 247.77312 L 251.13443 250.47987 C 250.0478 250.54778 248.97956 250.7927 247.97188 251.20493 L 236.99583 255.69513 C 232.36196 257.5908 227.06872 255.37106 225.17304 250.7372 C 224.72735 249.64772 224.4981 248.48188 224.4981 247.30477 L 224.4981 227.37066 C 224.4981 223.5062 226.72477 219.98761 230.21724 218.33329 Z" stroke="black" stroke-linecap="round" stroke-linejoin="round" stroke-width="6"/>
      </g>
    </g>
  </g>
</svg>
