<?xml version="1.0" encoding="UTF-8" standalone="no"?>
<!DOCTYPE svg PUBLIC "-//W3C//DTD SVG 1.1//EN" "http://www.w3.org/Graphics/SVG/1.1/DTD/svg11.dtd">
<svg xmlns:dc="http://purl.org/dc/elements/1.1/" xmlns:xl="http://www.w3.org/1999/xlink" version="1.1" xmlns="http://www.w3.org/2000/svg" viewBox="0 0 850.394 850.394" width="850.394" height="850.394">
  <defs/>
  <metadata> Produced by OmniGraffle 7.9.4 
    <dc:date>2019-08-04 22:34:48 +0000</dc:date>
  </metadata>
  <g id="Canvas___2_slow" fill="none" stroke-opacity="1" stroke="none" stroke-dasharray="none" fill-opacity="1">
    <title>🐢 2 slow</title>
    <g id="Canvas___2_slow: slow">
      <title>slow</title>
      <g id="Graphic_39">
        <path d="M 738.3715 485.11064 L 762.2955 490.4858 L 777.949 490.0214 L 761.7524 486.7168 L 739.9244 479.3151 Z" fill="#ffffc0"/>
        <path d="M 738.3715 485.11064 L 762.2955 490.4858 L 777.949 490.0214 L 761.7524 486.7168 L 739.9244 479.3151 Z" stroke="black" stroke-linecap="round" stroke-linejoin="round" stroke-width="3"/>
      </g>
      <g id="Graphic_38">
        <path d="M 741.4773 473.51953 L 765.4013 478.89467 L 781.0549 478.4303 L 764.8583 475.1257 L 743.0302 467.724 Z" fill="#ffffc0"/>
        <path d="M 741.4773 473.51953 L 765.4013 478.89467 L 781.0549 478.4303 L 764.8583 475.1257 L 743.0302 467.724 Z" stroke="black" stroke-linecap="round" stroke-linejoin="round" stroke-width="3"/>
      </g>
      <g id="Graphic_37">
        <path d="M 744.5567 466.10457 L 769.0754 466.3882 L 784.2904 462.6794 L 767.7607 462.81447 L 744.8707 460.1128 Z" fill="#ffffc0"/>
        <path d="M 744.5567 466.10457 L 769.0754 466.3882 L 784.2904 462.6794 L 767.7607 462.81447 L 744.8707 460.1128 Z" stroke="black" stroke-linecap="round" stroke-linejoin="round" stroke-width="3"/>
      </g>
      <g id="Graphic_36">
        <path d="M 750.0407 341.69215 L 749.0407 317.19215 L 744.5407 302.19215 L 745.5407 318.69215 L 744.0407 341.69215 Z" fill="#ffffc0"/>
        <path d="M 750.0407 341.69215 L 749.0407 317.19215 L 744.5407 302.19215 L 745.5407 318.69215 L 744.0407 341.69215 Z" stroke="black" stroke-linecap="round" stroke-linejoin="round" stroke-width="3"/>
      </g>
      <g id="Graphic_35">
        <path d="M 738.0407 341.69215 L 737.0407 317.19215 L 732.5407 302.19215 L 733.5407 318.69215 L 732.0407 341.69215 Z" fill="#ffffc0"/>
        <path d="M 738.0407 341.69215 L 737.0407 317.19215 L 732.5407 302.19215 L 733.5407 318.69215 L 732.0407 341.69215 Z" stroke="black" stroke-linecap="round" stroke-linejoin="round" stroke-width="3"/>
      </g>
      <g id="Graphic_34">
        <path d="M 730.0814 340.63683 L 724.0094 316.88013 L 716.4891 303.1435 L 720.8978 319.07504 L 724.2125 341.8843 Z" fill="#ffffc0"/>
        <path d="M 730.0814 340.63683 L 724.0094 316.88013 L 716.4891 303.1435 L 720.8978 319.07504 L 724.2125 341.8843 Z" stroke="black" stroke-linecap="round" stroke-linejoin="round" stroke-width="3"/>
      </g>
      <g id="Graphic_26">
        <path d="M 93.5 382.5 L 69 383.5 L 54 388 L 70.5 387 L 93.5 388.5 Z" fill="#ffffc0"/>
        <path d="M 93.5 382.5 L 69 383.5 L 54 388 L 70.5 387 L 93.5 388.5 Z" stroke="black" stroke-linecap="round" stroke-linejoin="round" stroke-width="3"/>
      </g>
      <g id="Graphic_27">
        <path d="M 93.5 394.5 L 69 395.5 L 54 400 L 70.5 399 L 93.5 400.5 Z" fill="#ffffc0"/>
        <path d="M 93.5 394.5 L 69 395.5 L 54 400 L 70.5 399 L 93.5 400.5 Z" stroke="black" stroke-linecap="round" stroke-linejoin="round" stroke-width="3"/>
      </g>
      <g id="Graphic_28">
        <path d="M 92.44468 402.4593 L 68.687976 408.5313 L 54.951364 416.05162 L 70.88289 411.64293 L 93.69215 408.3282 Z" fill="#ffffc0"/>
        <path d="M 92.44468 402.4593 L 68.687976 408.5313 L 54.951364 416.05162 L 70.88289 411.64293 L 93.69215 408.3282 Z" stroke="black" stroke-linecap="round" stroke-linejoin="round" stroke-width="3"/>
      </g>
      <g id="Graphic_31">
        <path d="M 74.22184 443.2657 L 50.46513 449.33766 L 36.72852 456.858 L 52.660043 452.4493 L 75.46931 449.13457 Z" fill="#ffffc0"/>
        <path d="M 74.22184 443.2657 L 50.46513 449.33766 L 36.72852 456.858 L 52.660043 452.4493 L 75.46931 449.13457 Z" stroke="black" stroke-linecap="round" stroke-linejoin="round" stroke-width="3"/>
      </g>
      <g id="Graphic_30">
        <path d="M 76.71678 455.00345 L 52.96007 461.07543 L 39.22346 468.5958 L 55.154984 464.1871 L 77.96425 460.87234 Z" fill="#ffffc0"/>
        <path d="M 76.71678 455.00345 L 52.96007 461.07543 L 39.22346 468.5958 L 55.154984 464.1871 L 77.96425 460.87234 Z" stroke="black" stroke-linecap="round" stroke-linejoin="round" stroke-width="3"/>
      </g>
      <g id="Graphic_29">
        <path d="M 77.33935 463.00824 L 55.36422 473.88683 L 43.491355 484.09883 L 58.15812 476.47413 L 79.77977 468.4895 Z" fill="#ffffc0"/>
        <path d="M 77.33935 463.00824 L 55.36422 473.88683 L 43.491355 484.09883 L 58.15812 476.47413 L 79.77977 468.4895 Z" stroke="black" stroke-linecap="round" stroke-linejoin="round" stroke-width="3"/>
      </g>
      <g id="Graphic_25">
        <path d="M 263 370 L 213 363 L 174 366 L 132 371 C 132 371 97 381 96 382 C 95 383 89 399 89 399 L 89 410 L 121 413 C 121 413 153 409 154 409 C 155 409 207 402 207 402 L 243 395 L 258 399 L 283 402 L 283 389 Z" fill="#6d5f4f"/>
        <path d="M 263 370 L 213 363 L 174 366 L 132 371 C 132 371 97 381 96 382 C 95 383 89 399 89 399 L 89 410 L 121 413 C 121 413 153 409 154 409 C 155 409 207 402 207 402 L 243 395 L 258 399 L 283 402 L 283 389 Z" stroke="black" stroke-linecap="round" stroke-linejoin="round" stroke-width="5"/>
      </g>
      <g id="Graphic_14">
        <path d="M 278 299.0564 L 278 280.90897 C 278 280.303 277.9931 279.69707 277.97935 279.09126 L 277.46703 256.5495 C 277.16524 243.27042 272.2237 230.5161 263.5 220.5 L 263.5 220.5 C 255.01295 210.7556 242.39375 205.63385 229.5162 206.70698 L 222.2338 207.31385 C 209.0323 208.41398 196.43917 213.3444 186 221.5 L 170 234 C 170 234 166 263.5 166 264.5 C 166 265.5 173 295 173 295 L 192.76483 305.90474 C 198.85672 309.26578 205.57378 311.34036 212.5 312 L 212.5 312 C 219.21814 312.63982 225.3997 315.9451 229.66258 321.1768 L 236.49584 329.56308 C 242.1021 336.4435 246.19267 344.4299 248.5 353 L 250.62747 360.90203 C 251.5415 364.297 252.67833 367.628 254.03058 370.8734 L 260.49803 386.39527 C 261.4937 388.78486 262.84274 391.0113 264.5 393 L 264.5 393 C 265.42757 394.1131 265.27718 395.76736 264.1641 396.69493 C 263.90282 396.91266 263.6017 397.0775 263.2775 397.1803 L 228.60238 408.17486 C 226.86796 408.7248 225.15282 409.33374 223.45993 410.00063 L 207.13245 416.43267 C 197.79423 420.11136 187.84717 422 177.81049 422 L 146 422 C 146 422 98 424 97 425 C 96 426 74 437 74 437 L 68.5 445 C 65.063904 449.99796 64.353 456.3825 66.60555 462.0139 L 67 463 C 69.57669 469.44173 74.42778 474.7139 80.63328 477.81664 L 81 478 C 87.28067 481.14034 94.68672 481.0765 100.91232 477.82835 L 106.60126 474.8602 C 111.5204 472.2937 116.69321 470.2459 122.03614 468.7499 L 133.14718 465.6388 C 137.04345 464.54784 141.01686 463.75404 145.03322 463.26424 L 178.75721 459.15156 C 179.58569 459.0505 180.41253 458.93653 181.23744 458.8096 L 219 453 C 219 453 241 448 242 448 C 243 448 256 445 256 445 L 262 445 C 265.93186 445 269.79565 446.0261 273.20946 447.97683 L 275 449 C 279.64865 451.6564 284.60937 453.7248 289.76813 455.1578 L 320.8986 463.80517 C 330.8714 466.5754 341.287 467.38404 351.5679 466.18627 L 428.279 457.24905 C 429.32505 457.1272 430.07425 456.1804 429.9524 455.13434 C 429.85966 454.33854 429.2794 453.68557 428.5 453.5 L 418 451 C 418 451 447 447 448 447 C 449 447 471 442 471 441 C 471 440 487 443 488 443 C 489 443 500 455 500 455 L 500 453.5 C 500 452.57846 499.48647 451.7337 498.66837 451.3095 L 392.5222 396.27076 C 392.17406 396.09026 391.82463 395.9123 391.4739 395.73695 L 304.86607 352.43303 C 295.30035 347.65017 287.86076 339.47363 284 329.5 L 283.39455 327.93593 C 279.82902 318.72497 278 308.93338 278 299.0564 Z" fill="#6e5f4f"/>
        <path d="M 278 299.0564 L 278 280.90897 C 278 280.303 277.9931 279.69707 277.97935 279.09126 L 277.46703 256.5495 C 277.16524 243.27042 272.2237 230.5161 263.5 220.5 L 263.5 220.5 C 255.01295 210.7556 242.39375 205.63385 229.5162 206.70698 L 222.2338 207.31385 C 209.0323 208.41398 196.43917 213.3444 186 221.5 L 170 234 C 170 234 166 263.5 166 264.5 C 166 265.5 173 295 173 295 L 192.76483 305.90474 C 198.85672 309.26578 205.57378 311.34036 212.5 312 L 212.5 312 C 219.21814 312.63982 225.3997 315.9451 229.66258 321.1768 L 236.49584 329.56308 C 242.1021 336.4435 246.19267 344.4299 248.5 353 L 250.62747 360.90203 C 251.5415 364.297 252.67833 367.628 254.03058 370.8734 L 260.49803 386.39527 C 261.4937 388.78486 262.84274 391.0113 264.5 393 L 264.5 393 C 265.42757 394.1131 265.27718 395.76736 264.1641 396.69493 C 263.90282 396.91266 263.6017 397.0775 263.2775 397.1803 L 228.60238 408.17486 C 226.86796 408.7248 225.15282 409.33374 223.45993 410.00063 L 207.13245 416.43267 C 197.79423 420.11136 187.84717 422 177.81049 422 L 146 422 C 146 422 98 424 97 425 C 96 426 74 437 74 437 L 68.5 445 C 65.063904 449.99796 64.353 456.3825 66.60555 462.0139 L 67 463 C 69.57669 469.44173 74.42778 474.7139 80.63328 477.81664 L 81 478 C 87.28067 481.14034 94.68672 481.0765 100.91232 477.82835 L 106.60126 474.8602 C 111.5204 472.2937 116.69321 470.2459 122.03614 468.7499 L 133.14718 465.6388 C 137.04345 464.54784 141.01686 463.75404 145.03322 463.26424 L 178.75721 459.15156 C 179.58569 459.0505 180.41253 458.93653 181.23744 458.8096 L 219 453 C 219 453 241 448 242 448 C 243 448 256 445 256 445 L 262 445 C 265.93186 445 269.79565 446.0261 273.20946 447.97683 L 275 449 C 279.64865 451.6564 284.60937 453.7248 289.76813 455.1578 L 320.8986 463.80517 C 330.8714 466.5754 341.287 467.38404 351.5679 466.18627 L 428.279 457.24905 C 429.32505 457.1272 430.07425 456.1804 429.9524 455.13434 C 429.85966 454.33854 429.2794 453.68557 428.5 453.5 L 418 451 C 418 451 447 447 448 447 C 449 447 471 442 471 441 C 471 440 487 443 488 443 C 489 443 500 455 500 455 L 500 453.5 C 500 452.57846 499.48647 451.7337 498.66837 451.3095 L 392.5222 396.27076 C 392.17406 396.09026 391.82463 395.9123 391.4739 395.73695 L 304.86607 352.43303 C 295.30035 347.65017 287.86076 339.47363 284 329.5 L 283.39455 327.93593 C 279.82902 318.72497 278 308.93338 278 299.0564 Z" stroke="black" stroke-linecap="round" stroke-linejoin="round" stroke-width="4"/>
      </g>
      <g id="Graphic_15">
        <path d="M 467.02504 452.75626 L 475.3631 454.84077 C 489.05757 458.2644 502.22356 463.5323 514.5 470.5 L 514.5 470.5 C 526.7924 477.47677 539.8477 483.01403 553.4077 487.00226 L 568.7744 491.5219 C 578.9172 494.50506 589.2156 496.93135 599.62335 498.7899 L 612 501 C 630.5577 504.3139 649.5128 504.77254 668.2091 502.3601 L 702 498 C 702 498 734 492 735 492 C 736 492 752 477 752 477 L 759 467.5 C 760.6732 465.2292 760.1888 462.0319 757.918 460.3587 C 756.8724 459.5882 755.5725 459.2451 754.2828 459.39907 L 699 466 C 699 466 625 471 625 470 C 625 469 588 455 586 455 C 584 455 523 426 523 425 C 523 424 491 415 490 415 C 489 415 475 408 475 408 L 475.5 404.5 C 475.7215 402.9494 477.1581 401.87197 478.7087 402.0935 C 478.91354 402.12275 479.11457 402.17434 479.3082 402.24735 L 506.5 412.5 C 526.70306 420.11755 547.9953 424.45186 569.5685 425.33843 L 606.9073 426.8729 C 608.96905 426.95763 611.0298 427.06436 613.0893 427.1931 L 658.7401 430.04625 C 679.4161 431.3385 700.15736 428.9528 720 423 L 732.41665 419.275 C 743.69715 415.89086 753.2261 408.2647 759 398 L 759 398 C 764.8573 387.58703 767.3622 375.62155 766.1734 363.73355 L 765.1356 353.35607 C 764.4247 346.2469 760.2602 339.94312 754 336.5 L 754 336.5 C 747.4283 332.88555 740.0889 330.89136 732.5917 330.6831 L 726 330.5 C 720.2838 330.3412 715.52116 334.8464 715.3624 340.56262 C 715.3116 342.3918 715.7464 344.20177 716.6227 345.8082 L 720 352 C 724.5681 360.3748 721.4821 370.8671 713.1073 375.4352 C 711.2632 376.44105 709.2512 377.1021 707.1699 377.38593 L 666 383 C 666 383 633 384 632 385 C 631 386 630 384 630 384 L 642 383 C 642 383 628 383 623 383 C 618 383 587 382 586 382 C 585 382 558 379 558 379 C 558 379 529 379 528 379 C 527 379 498 379 498 379 L 492 379 C 488.06924 379 484.20765 380.03405 480.8029 381.99833 L 473 386.5 C 464.58897 391.3525 458.09816 398.9448 454.6123 408.00796 L 450 420 C 445.1139 432.70384 451.45144 446.9633 464.1553 451.8494 C 465.0925 452.20987 466.0509 452.5127 467.02504 452.75626 Z" fill="#6d5f4f"/>
        <path d="M 467.02504 452.75626 L 475.3631 454.84077 C 489.05757 458.2644 502.22356 463.5323 514.5 470.5 L 514.5 470.5 C 526.7924 477.47677 539.8477 483.01403 553.4077 487.00226 L 568.7744 491.5219 C 578.9172 494.50506 589.2156 496.93135 599.62335 498.7899 L 612 501 C 630.5577 504.3139 649.5128 504.77254 668.2091 502.3601 L 702 498 C 702 498 734 492 735 492 C 736 492 752 477 752 477 L 759 467.5 C 760.6732 465.2292 760.1888 462.0319 757.918 460.3587 C 756.8724 459.5882 755.5725 459.2451 754.2828 459.39907 L 699 466 C 699 466 625 471 625 470 C 625 469 588 455 586 455 C 584 455 523 426 523 425 C 523 424 491 415 490 415 C 489 415 475 408 475 408 L 475.5 404.5 C 475.7215 402.9494 477.1581 401.87197 478.7087 402.0935 C 478.91354 402.12275 479.11457 402.17434 479.3082 402.24735 L 506.5 412.5 C 526.70306 420.11755 547.9953 424.45186 569.5685 425.33843 L 606.9073 426.8729 C 608.96905 426.95763 611.0298 427.06436 613.0893 427.1931 L 658.7401 430.04625 C 679.4161 431.3385 700.15736 428.9528 720 423 L 732.41665 419.275 C 743.69715 415.89086 753.2261 408.2647 759 398 L 759 398 C 764.8573 387.58703 767.3622 375.62155 766.1734 363.73355 L 765.1356 353.35607 C 764.4247 346.2469 760.2602 339.94312 754 336.5 L 754 336.5 C 747.4283 332.88555 740.0889 330.89136 732.5917 330.6831 L 726 330.5 C 720.2838 330.3412 715.52116 334.8464 715.3624 340.56262 C 715.3116 342.3918 715.7464 344.20177 716.6227 345.8082 L 720 352 C 724.5681 360.3748 721.4821 370.8671 713.1073 375.4352 C 711.2632 376.44105 709.2512 377.1021 707.1699 377.38593 L 666 383 C 666 383 633 384 632 385 C 631 386 630 384 630 384 L 642 383 C 642 383 628 383 623 383 C 618 383 587 382 586 382 C 585 382 558 379 558 379 C 558 379 529 379 528 379 C 527 379 498 379 498 379 L 492 379 C 488.06924 379 484.20765 380.03405 480.8029 381.99833 L 473 386.5 C 464.58897 391.3525 458.09816 398.9448 454.6123 408.00796 L 450 420 C 445.1139 432.70384 451.45144 446.9633 464.1553 451.8494 C 465.0925 452.20987 466.0509 452.5127 467.02504 452.75626 Z" stroke="black" stroke-linecap="round" stroke-linejoin="round" stroke-width="5"/>
      </g>
      <g id="Graphic_17">
        <path d="M 174 252 L 182 238 L 199 236 C 199 236 217 232 218 232 C 219 232 254 239 254 239 L 268 242 L 268 254 L 256 265 L 241 261 L 225 254 L 220 254 L 231 269 L 254 278 C 254 278 263 285 263 286 C 263 287 258 293 257 293 C 256 293 249 294 248 295 C 247 296 219 302 219 302 L 202 302 L 177 296 L 173 287 L 179 274 L 188 270 L 204 262 L 209 256 L 200 250 L 192 250 L 184 250 Z" fill="#ffffc0"/>
        <path d="M 174 252 L 182 238 L 199 236 C 199 236 217 232 218 232 C 219 232 254 239 254 239 L 268 242 L 268 254 L 256 265 L 241 261 L 225 254 L 220 254 L 231 269 L 254 278 C 254 278 263 285 263 286 C 263 287 258 293 257 293 C 256 293 249 294 248 295 C 247 296 219 302 219 302 L 202 302 L 177 296 L 173 287 L 179 274 L 188 270 L 204 262 L 209 256 L 200 250 L 192 250 L 184 250 Z" stroke="black" stroke-linecap="round" stroke-linejoin="round" stroke-width="2"/>
      </g>
      <g id="Graphic_18">
        <circle cx="190" cy="259" r="8.00001278321516" fill="#90916d"/>
        <circle cx="190" cy="259" r="8.00001278321516" stroke="black" stroke-linecap="round" stroke-linejoin="round" stroke-width="1"/>
      </g>
      <g id="Graphic_19">
        <circle cx="239" cy="267" r="8.00001278321516" fill="#90916d"/>
        <circle cx="239" cy="267" r="8.00001278321516" stroke="black" stroke-linecap="round" stroke-linejoin="round" stroke-width="1"/>
      </g>
      <g id="Graphic_20">
        <circle cx="209" cy="276" r="11.0000175769209" fill="#333"/>
        <circle cx="209" cy="276" r="11.0000175769209" stroke="black" stroke-linecap="round" stroke-linejoin="round" stroke-width="1"/>
      </g>
      <g id="Graphic_21">
        <circle cx="202.6923" cy="279.3846" r="3.0000047937057" fill="black"/>
        <circle cx="202.6923" cy="279.3846" r="3.0000047937057" stroke="black" stroke-linecap="round" stroke-linejoin="round" stroke-width="1"/>
      </g>
      <g id="Graphic_22">
        <circle cx="214.46154" cy="280.15385" r="3.00000479370571" fill="black"/>
        <circle cx="214.46154" cy="280.15385" r="3.00000479370571" stroke="black" stroke-linecap="round" stroke-linejoin="round" stroke-width="1"/>
      </g>
      <g id="Line_24">
        <path d="M 190.04477 287 L 206.04477 294.41887 L 218.16256 293.20493 L 227.95523 291.3029 L 227.95523 291.3029" stroke="black" stroke-linecap="round" stroke-linejoin="round" stroke-width="1"/>
      </g>
      <g id="Graphic_32">
        <circle cx="190" cy="262.09116" r="4.90884481293427" fill="black"/>
        <circle cx="190" cy="262.09116" r="4.90884481293427" stroke="black" stroke-linecap="round" stroke-linejoin="round" stroke-width="1"/>
      </g>
      <g id="Graphic_33">
        <circle cx="235.90884" cy="267" r="4.90884481293426" fill="black"/>
        <circle cx="235.90884" cy="267" r="4.90884481293426" stroke="black" stroke-linecap="round" stroke-linejoin="round" stroke-width="1"/>
      </g>
    </g>
    <g id="Canvas___2_slow: Layer 2">
      <title>Layer 2</title>
      <g id="Graphic_5">
        <path d="M 293 315 L 329 299 L 356 292 L 387 285 L 425 286 L 462 298 L 496 322 L 522 357 L 535 383 L 536 386 L 545 383 L 549 391 L 542 411 L 528 433 L 500 454 L 457 463 L 416 462 L 375 443 L 344 424 L 314 393 L 294 366 L 285 345 L 281 319 L 281 303 L 288 301 Z" fill="#008b00"/>
        <path d="M 293 315 L 329 299 L 356 292 L 387 285 L 425 286 L 462 298 L 496 322 L 522 357 L 535 383 L 536 386 L 545 383 L 549 391 L 542 411 L 528 433 L 500 454 L 457 463 L 416 462 L 375 443 L 344 424 L 314 393 L 294 366 L 285 345 L 281 319 L 281 303 L 288 301 Z" stroke="black" stroke-linecap="round" stroke-linejoin="round" stroke-width="6"/>
      </g>
      <g id="Line_7">
        <path d="M 358 292 L 377.1571 324.38387 L 330.56715 379.57285 L 303.7143 340.91153 L 295.97572 316.3655 L 295.97572 316.3655" stroke="black" stroke-linecap="round" stroke-linejoin="round" stroke-width="4"/>
      </g>
      <g id="Line_8">
        <path d="M 377.1571 324.38387 L 438.17905 332.81398 L 473.8368 305.67082 L 473.8368 305.67082" stroke="black" stroke-linecap="round" stroke-linejoin="round" stroke-width="4"/>
      </g>
      <g id="Line_9">
        <path d="M 438.17905 332.81398 L 473.49894 370.67293 L 513.82834 390.3467 L 541.3885 385.0944 L 541.3885 385.0944" stroke="black" stroke-linecap="round" stroke-linejoin="round" stroke-width="4"/>
      </g>
      <g id="Line_10">
        <path d="M 506.18606 386.6186 L 484.3019 443.2657 L 499.0796 451.0414 L 499.0796 451.0414" stroke="black" stroke-linecap="round" stroke-linejoin="round" stroke-width="4"/>
      </g>
      <g id="Line_11">
        <path d="M 465.78367 362.403 L 406 456.5946 L 370.6801 441.7878" stroke="black" stroke-linecap="round" stroke-linejoin="round" stroke-width="4"/>
      </g>
      <g id="Line_12">
        <path d="M 330.56715 379.57285 L 377.1571 419.72276 L 437.4981 442.69573 L 492.2173 436.19764 L 500.0743 427.0109 L 524.41216 415.16723 L 541.3885 385.0944" stroke="black" stroke-linecap="round" stroke-linejoin="round" stroke-width="4"/>
      </g>
      <g id="Line_13">
        <path d="M 330.56715 379.57285 L 317.89295 394.02597 L 317.89295 394.02597" stroke="black" stroke-linecap="round" stroke-linejoin="round" stroke-width="4"/>
      </g>
    </g>
  </g>
</svg>
