<?xml version="1.0" encoding="UTF-8" standalone="no"?>
<!DOCTYPE svg PUBLIC "-//W3C//DTD SVG 1.1//EN" "http://www.w3.org/Graphics/SVG/1.1/DTD/svg11.dtd">
<svg xmlns:xl="http://www.w3.org/1999/xlink" version="1.1" xmlns:dc="http://purl.org/dc/elements/1.1/" xmlns="http://www.w3.org/2000/svg" viewBox="0 0 850.394 850.394" width="850.394" height="850.394">
  <defs/>
  <metadata> Produced by OmniGraffle 7.9.4 
    <dc:date>2019-05-15 17:56:50 +0000</dc:date>
  </metadata>
  <g id="soft_pot" fill="none" stroke-opacity="1" fill-opacity="1" stroke="none" stroke-dasharray="none">
    <title>soft_pot</title>
    <g id="soft_pot: Layer 1">
      <title>Layer 1</title>
      <g id="Graphic_4">
        <path d="M 348.0219 654.0402 L 242.01448 516.03056 L 613.0404 79 L 730.0486 216.00958 L 699.0464 255.0123 Z" fill="#c2cb6b"/>
        <path d="M 348.0219 654.0402 L 242.01448 516.03056 L 613.0404 79 L 730.0486 216.00958 L 699.0464 255.0123 Z" stroke="black" stroke-linecap="round" stroke-linejoin="round" stroke-width="5"/>
      </g>
      <g id="Graphic_3"/>
      <g id="Graphic_13">
        <path d="M 212.01238 725.0452 L 223.01315 736.04595 L 323.52018 624.53815 L 267.01623 548.0328 L 263.51598 559.5336 L 171.50955 667.5412 Z" fill="#8080ff"/>
        <path d="M 212.01238 725.0452 L 223.01315 736.04595 L 323.52018 624.53815 L 267.01623 548.0328 L 263.51598 559.5336 L 171.50955 667.5412 Z" stroke="black" stroke-linecap="round" stroke-linejoin="round" stroke-width="5"/>
      </g>
      <g id="Graphic_5">
        <path d="M 348.0219 564.0339 L 334.0209 548.0328 L 222.01308 678.0419 L 215.0126 687.0425 L 202.01168 702.0436 L 195.0112 695.0431 L 213.01245 671.0414 L 217.01273 669.0413 L 326.02035 536.03196 L 322.02007 532.0317 L 286.01755 574.43464 L 278.017 564.0339 L 318.0198 520.03084 L 312.01937 514.0304 L 608.0401 166.00608 L 651.0431 215.0095 L 662.04385 234.01084 L 355.0224 591.0358 L 319.01986 593.03595 L 309.01916 605.0368 L 304.61885 599.4364 L 314.0195 584.0353 L 352.02217 582.0352 L 646.0427 238.01112 L 638.0422 228.01042 Z" fill="#fffcc7"/>
        <path d="M 348.0219 564.0339 L 334.0209 548.0328 L 222.01308 678.0419 L 215.0126 687.0425 L 202.01168 702.0436 L 195.0112 695.0431 L 213.01245 671.0414 L 217.01273 669.0413 L 326.02035 536.03196 L 322.02007 532.0317 L 286.01755 574.43464 L 278.017 564.0339 L 318.0198 520.03084 L 312.01937 514.0304 L 608.0401 166.00608 L 651.0431 215.0095 L 662.04385 234.01084 L 355.0224 591.0358 L 319.01986 593.03595 L 309.01916 605.0368 L 304.61885 599.4364 L 314.0195 584.0353 L 352.02217 582.0352 L 646.0427 238.01112 L 638.0422 228.01042 Z" stroke="black" stroke-linecap="round" stroke-linejoin="round" stroke-width="5"/>
      </g>
      <g id="Graphic_6">
        <path d="M 232.01378 698.0433 L 212.01238 720.0448 L 202.01168 710.0441 L 224.01322 688.0426 Z" fill="#fffcc7"/>
        <path d="M 232.01378 698.0433 L 212.01238 720.0448 L 202.01168 710.0441 L 224.01322 688.0426 Z" stroke="black" stroke-linecap="round" stroke-linejoin="round" stroke-width="5"/>
      </g>
      <g id="Graphic_8">
        <path d="M 207.78986 665.4855 L 187.78846 687.487 L 177.78776 677.4863 L 199.7893 655.4848 Z" fill="#fffcc7"/>
        <path d="M 207.78986 665.4855 L 187.78846 687.487 L 177.78776 677.4863 L 199.7893 655.4848 Z" stroke="black" stroke-linecap="round" stroke-linejoin="round" stroke-width="5"/>
      </g>
      <g id="Graphic_9">
        <path d="M 209.01217 655.0403 L 222.01308 654.0402 L 211.0123 639.0392 Z" fill="#fffcc7"/>
        <path d="M 209.01217 655.0403 L 222.01308 654.0402 L 211.0123 639.0392 Z" stroke="black" stroke-linecap="round" stroke-linejoin="round" stroke-width="5"/>
      </g>
      <g id="Graphic_10">
        <path d="M 213.6125 725.6452 L 180.01014 764.0479 L 173.00965 767.0481 L 159.00867 781.0491 L 157.00853 779.049 L 172.00958 756.04735 L 175.0098 743.0464 L 201.0116 711.0442 Z" fill="#999"/>
        <path d="M 213.6125 725.6452 L 180.01014 764.0479 L 173.00965 767.0481 L 159.00867 781.0491 L 157.00853 779.049 L 172.00958 756.04735 L 175.0098 743.0464 L 201.0116 711.0442 Z" stroke="black" stroke-linecap="round" stroke-linejoin="round" stroke-width="5"/>
      </g>
      <g id="Graphic_11">
        <path d="M 200.61158 705.8438 L 169.00937 743.0464 L 162.00888 746.04665 L 148.0079 760.0476 L 146.00776 758.0475 L 162.2089 738.2461 L 164.00902 722.045 L 189.01077 691.4428 Z" fill="#999"/>
        <path d="M 200.61158 705.8438 L 169.00937 743.0464 L 162.00888 746.04665 L 148.0079 760.0476 L 146.00776 758.0475 L 162.2089 738.2461 L 164.00902 722.045 L 189.01077 691.4428 Z" stroke="black" stroke-linecap="round" stroke-linejoin="round" stroke-width="5"/>
      </g>
      <g id="Graphic_12">
        <path d="M 189.38858 691.8873 L 159.60871 725.2452 L 152.60822 728.6454 L 136.7849 746.0911 L 134.78476 744.091 L 149.78581 721.0894 L 152.78602 708.08845 L 177.78776 677.4863 Z" fill="#999"/>
        <path d="M 189.38858 691.8873 L 159.60871 725.2452 L 152.60822 728.6454 L 136.7849 746.0911 L 134.78476 744.091 L 149.78581 721.0894 L 152.78602 708.08845 L 177.78776 677.4863 Z" stroke="black" stroke-linecap="round" stroke-linejoin="round" stroke-width="5"/>
      </g>
    </g>
  </g>
</svg>
