<?xml version="1.0" encoding="UTF-8" standalone="no"?>
<!DOCTYPE svg PUBLIC "-//W3C//DTD SVG 1.1//EN" "http://www.w3.org/Graphics/SVG/1.1/DTD/svg11.dtd">
<svg xmlns="http://www.w3.org/2000/svg" version="1.1" xmlns:dc="http://purl.org/dc/elements/1.1/" xmlns:xl="http://www.w3.org/1999/xlink" viewBox="0 0 850.394 850.394" width="850.394" height="850.394">
  <defs/>
  <metadata> Produced by OmniGraffle 7.9.4 
    <dc:date>2019-03-10 03:48:39 +0000</dc:date>
  </metadata>
  <g id="Solenoid" fill="none" stroke-opacity="1" fill-opacity="1" stroke-dasharray="none" stroke="none">
    <title>Solenoid</title>
    <g id="Solenoid: Layer 1">
      <title>Layer 1</title>
      <g id="Line_18">
        <line x1="539.5244" y1="375.7448" x2="503.4116" y2="482.4964" stroke="black" stroke-linecap="round" stroke-linejoin="round" stroke-width="1"/>
      </g>
      <g id="Graphic_17">
        <path d="M 164.97292 320.31163 L 492.75867 232.4817 C 499.16026 230.7664 505.7403 234.5654 507.4556 240.96699 C 507.4556 240.96699 507.4556 240.96699 507.4556 240.96699 L 548.7602 395.11793 C 550.4755 401.51952 546.67654 408.09957 540.27495 409.81487 L 212.4892 497.6448 C 206.0876 499.3601 199.50756 495.5611 197.79226 489.1595 L 156.48764 335.00857 C 154.77234 328.60698 158.57133 322.02693 164.97292 320.31163 C 164.97292 320.31163 164.97292 320.31163 164.97292 320.31163 Z" fill="#e6e6e6"/>
        <path d="M 164.97292 320.31163 L 492.75867 232.4817 C 499.16026 230.7664 505.7403 234.5654 507.4556 240.96699 C 507.4556 240.96699 507.4556 240.96699 507.4556 240.96699 L 548.7602 395.11793 C 550.4755 401.51952 546.67654 408.09957 540.27495 409.81487 L 212.4892 497.6448 C 206.0876 499.3601 199.50756 495.5611 197.79226 489.1595 L 156.48764 335.00857 C 154.77234 328.60698 158.57133 322.02693 164.97292 320.31163 C 164.97292 320.31163 164.97292 320.31163 164.97292 320.31163 Z" stroke="black" stroke-linecap="round" stroke-linejoin="round" stroke-width="6"/>
      </g>
      <g id="Graphic_16">
        <path d="M 170.18343 385.04347 L 497.9692 297.21354 C 504.3708 295.49824 510.9508 299.29723 512.6661 305.69882 L 541.84646 414.6013 C 543.56176 421.0029 539.76277 427.58295 533.3612 429.29826 C 533.3612 429.29826 533.3612 429.29826 533.3612 429.29826 L 205.57543 517.1282 C 199.17383 518.8435 192.5938 515.0445 190.8785 508.6429 L 161.69815 399.7404 C 159.98285 393.3388 163.78184 386.75877 170.18343 385.04347 Z" fill="#005cff"/>
        <path d="M 170.18343 385.04347 L 497.9692 297.21354 C 504.3708 295.49824 510.9508 299.29723 512.6661 305.69882 L 541.84646 414.6013 C 543.56176 421.0029 539.76277 427.58295 533.3612 429.29826 C 533.3612 429.29826 533.3612 429.29826 533.3612 429.29826 L 205.57543 517.1282 C 199.17383 518.8435 192.5938 515.0445 190.8785 508.6429 L 161.69815 399.7404 C 159.98285 393.3388 163.78184 386.75877 170.18343 385.04347 Z" stroke="black" stroke-linecap="round" stroke-linejoin="round" stroke-width="1"/>
      </g>
      <g id="Graphic_15">
        <path d="M 557.2991 338.66048 L 627.6198 319.8181 C 634.0214 318.1028 640.6014 321.9018 642.3167 328.30338 C 642.3167 328.30338 642.3167 328.30338 642.3167 328.30338 L 642.48875 328.94536 C 644.20405 335.34695 640.4051 341.927 634.0035 343.6423 L 563.68275 362.48468 C 557.28115 364.19998 550.7011 360.401 548.9858 353.9994 L 548.8138 353.3574 C 547.0985 346.95582 550.8975 340.37578 557.2991 338.66048 Z" fill="#c1c9c2"/>
        <path d="M 557.2991 338.66048 L 627.6198 319.8181 C 634.0214 318.1028 640.6014 321.9018 642.3167 328.30338 C 642.3167 328.30338 642.3167 328.30338 642.3167 328.30338 L 642.48875 328.94536 C 644.20405 335.34695 640.4051 341.927 634.0035 343.6423 L 563.68275 362.48468 C 557.28115 364.19998 550.7011 360.401 548.9858 353.9994 L 548.8138 353.3574 C 547.0985 346.95582 550.8975 340.37578 557.2991 338.66048 Z" stroke="black" stroke-linecap="round" stroke-linejoin="round" stroke-width="4"/>
      </g>
      <g id="Graphic_14">
        <path d="M 489.9916 340.7614 L 560.3123 321.91904 C 566.7139 320.20374 573.29395 324.00273 575.00925 330.4043 C 575.00925 330.4043 575.00925 330.4043 575.00925 330.4043 L 583.48445 362.03417 C 585.19975 368.43576 581.40076 375.0158 574.99917 376.7311 L 504.67844 395.5735 C 498.27685 397.2888 491.6968 393.4898 489.9815 387.0882 L 481.5063 355.45836 C 479.791 349.05676 483.59 342.4767 489.9916 340.7614 C 489.9916 340.7614 489.9916 340.7614 489.9916 340.7614 Z" fill="#c1c9c2"/>
        <path d="M 489.9916 340.7614 L 560.3123 321.91904 C 566.7139 320.20374 573.29395 324.00273 575.00925 330.4043 C 575.00925 330.4043 575.00925 330.4043 575.00925 330.4043 L 583.48445 362.03417 C 585.19975 368.43576 581.40076 375.0158 574.99917 376.7311 L 504.67844 395.5735 C 498.27685 397.2888 491.6968 393.4898 489.9815 387.0882 L 481.5063 355.45836 C 479.791 349.05676 483.59 342.4767 489.9916 340.7614 C 489.9916 340.7614 489.9916 340.7614 489.9916 340.7614 Z" stroke="black" stroke-linecap="round" stroke-linejoin="round" stroke-width="4"/>
      </g>
      <g id="Graphic_13">
        <path d="M 634.1138 311.1666 L 646.3982 307.875 C 652.7998 306.1597 659.3798 309.95867 661.0951 316.36027 L 665.5868 333.12345 C 667.3021 339.52504 663.5031 346.1051 657.1015 347.8204 C 657.1015 347.8204 657.1015 347.8204 657.1015 347.8204 L 644.8171 351.112 C 638.4155 352.8273 631.8355 349.0283 630.1202 342.6267 L 625.6285 325.86352 C 623.9132 319.46193 627.7122 312.8819 634.1138 311.1666 C 634.1138 311.1666 634.1138 311.1666 634.1138 311.1666 Z" fill="#c1c9c2"/>
        <path d="M 634.1138 311.1666 L 646.3982 307.875 C 652.7998 306.1597 659.3798 309.95867 661.0951 316.36027 L 665.5868 333.12345 C 667.3021 339.52504 663.5031 346.1051 657.1015 347.8204 C 657.1015 347.8204 657.1015 347.8204 657.1015 347.8204 L 644.8171 351.112 C 638.4155 352.8273 631.8355 349.0283 630.1202 342.6267 L 625.6285 325.86352 C 623.9132 319.46193 627.7122 312.8819 634.1138 311.1666 C 634.1138 311.1666 634.1138 311.1666 634.1138 311.1666 Z" stroke="black" stroke-linecap="round" stroke-linejoin="round" stroke-width="4"/>
      </g>
      <g id="Line_12">
        <path d="M 168.60968 462.5186 C 128.16178 490.4778 65.165596 514.21125 47.25384 546.4047 C 29.342087 578.5982 62.53843 632.2072 61.1284 655.6987 C 59.718365 679.1903 43.313736 681.8763 38.79279 687.368 C 34.27184 692.8597 35.597436 688.2242 34 688.65224" stroke="black" stroke-linecap="round" stroke-linejoin="round" stroke-width="7"/>
      </g>
      <g id="Line_11">
        <path d="M 259.67265 438.1183 C 219.22475 466.0776 156.22857 489.811 138.31682 522.0045 C 120.40506 554.19794 168.07766 597.9356 152.19138 631.2985 C 136.30509 664.6614 47.510514 716.7101 42.989566 722.2018 C 38.46862 727.6935 97.70791 683.56665 125.06298 664.252" stroke="#ff2c29" stroke-linecap="round" stroke-linejoin="round" stroke-width="7"/>
      </g>
      <g id="Graphic_10">
        <path d="M 168.18407 459.90296 L 168.18407 459.90296 C 169.79071 459.90296 171.09316 461.2054 171.09316 462.81205 L 171.09316 462.81205 C 171.09316 464.4187 169.79071 465.72114 168.18407 465.72114 L 168.18407 465.72114 C 166.57742 465.72114 165.27497 464.4187 165.27497 462.81205 L 165.27497 462.81205 C 165.27497 461.2054 166.57742 459.90296 168.18407 459.90296 Z" fill="#d4dfd7"/>
        <path d="M 168.18407 459.90296 L 168.18407 459.90296 C 169.79071 459.90296 171.09316 461.2054 171.09316 462.81205 L 171.09316 462.81205 C 171.09316 464.4187 169.79071 465.72114 168.18407 465.72114 L 168.18407 465.72114 C 166.57742 465.72114 165.27497 464.4187 165.27497 462.81205 L 165.27497 462.81205 C 165.27497 461.2054 166.57742 459.90296 168.18407 459.90296 Z" stroke="black" stroke-linecap="round" stroke-linejoin="round" stroke-width="1"/>
      </g>
      <g id="Graphic_9">
        <path d="M 626.9556 110.07337 L 664.15494 100.10583 C 670.5565 98.39053 677.1366 102.18952 678.8519 108.59111 C 678.8519 108.59111 678.8519 108.59111 678.8519 108.59111 L 783.98525 500.9542 C 785.70055 507.3558 781.9016 513.9358 775.5 515.6511 L 738.3006 525.61866 C 731.899 527.33397 725.319 523.535 723.6037 517.1334 C 723.6037 517.1334 723.6037 517.1334 723.6037 517.1334 L 618.4703 124.7703 C 616.755 118.36871 620.554 111.78867 626.9556 110.07337 Z" fill="#eb786e"/>
        <path d="M 626.9556 110.07337 L 664.15494 100.10583 C 670.5565 98.39053 677.1366 102.18952 678.8519 108.59111 C 678.8519 108.59111 678.8519 108.59111 678.8519 108.59111 L 783.98525 500.9542 C 785.70055 507.3558 781.9016 513.9358 775.5 515.6511 L 738.3006 525.61866 C 731.899 527.33397 725.319 523.535 723.6037 517.1334 C 723.6037 517.1334 723.6037 517.1334 723.6037 517.1334 L 618.4703 124.7703 C 616.755 118.36871 620.554 111.78867 626.9556 110.07337 Z" stroke="black" stroke-linecap="round" stroke-linejoin="round" stroke-width="5"/>
      </g>
      <g id="Line_8">
        <line x1="630.76444" y1="278.49072" x2="545.10286" y2="200.3237" stroke="black" stroke-linecap="round" stroke-linejoin="round" stroke-width="4"/>
      </g>
      <g id="Line_7">
        <line x1="663.3809" y1="406.70806" x2="627.01005" y2="506.00547" stroke="black" stroke-linecap="round" stroke-linejoin="round" stroke-width="4"/>
      </g>
      <g id="Line_6">
        <line x1="639.076" y1="372.05175" x2="597.958" y2="445.02835" stroke="black" stroke-linecap="round" stroke-linejoin="round" stroke-width="4"/>
      </g>
      <g id="Line_5">
        <line x1="607.3811" y1="296.89067" x2="549.6684" y2="271.30003" stroke="black" stroke-linecap="round" stroke-linejoin="round" stroke-width="4"/>
      </g>
      <g id="Graphic_4">
        <path d="M 147.98132 407.85207 L 475.76707 320.02214 C 482.16866 318.30684 488.7487 322.10583 490.464 328.50742 C 490.464 328.50742 490.464 328.50742 490.464 328.50742 L 531.7686 482.65837 C 533.4839 489.05996 529.68494 495.64 523.28334 497.3553 L 195.4976 585.1852 C 189.096 586.90054 182.51596 583.10155 180.80066 576.69995 L 139.49604 422.549 C 137.78074 416.1474 141.57973 409.56737 147.98132 407.85207 C 147.98132 407.85207 147.98132 407.85207 147.98132 407.85207 Z" fill="#e6e6e6"/>
        <path d="M 147.98132 407.85207 L 475.76707 320.02214 C 482.16866 318.30684 488.7487 322.10583 490.464 328.50742 C 490.464 328.50742 490.464 328.50742 490.464 328.50742 L 531.7686 482.65837 C 533.4839 489.05996 529.68494 495.64 523.28334 497.3553 L 195.4976 585.1852 C 189.096 586.90054 182.51596 583.10155 180.80066 576.69995 L 139.49604 422.549 C 137.78074 416.1474 141.57973 409.56737 147.98132 407.85207 C 147.98132 407.85207 147.98132 407.85207 147.98132 407.85207 Z" stroke="black" stroke-linecap="round" stroke-linejoin="round" stroke-width="6"/>
      </g>
      <g id="Line_3">
        <line x1="494.4783" y1="237.82097" x2="472.4951" y2="321.8281" stroke="black" stroke-linecap="round" stroke-linejoin="round" stroke-width="5"/>
      </g>
      <g id="Line_2">
        <line x1="206.7386" y1="311.21212" x2="168.44783" y2="403.34436" stroke="black" stroke-linecap="round" stroke-linejoin="round" stroke-width="5"/>
      </g>
    </g>
  </g>
</svg>
