<?xml version="1.0" encoding="UTF-8" standalone="no"?>
<!DOCTYPE svg PUBLIC "-//W3C//DTD SVG 1.1//EN" "http://www.w3.org/Graphics/SVG/1.1/DTD/svg11.dtd">
<svg xmlns:xl="http://www.w3.org/1999/xlink" xmlns:dc="http://purl.org/dc/elements/1.1/" xmlns="http://www.w3.org/2000/svg" version="1.1" viewBox="0 0 850.394 850.394" width="850.394" height="850.394">
  <defs/>
  <metadata> Produced by OmniGraffle 7.9.4 
    <dc:date>2019-09-30 15:52:41 +0000</dc:date>
  </metadata>
  <g id="sound" stroke="none" stroke-dasharray="none" fill="none" stroke-opacity="1" fill-opacity="1">
    <title>sound</title>
    <g id="sound: Layer 1">
      <title>Layer 1</title>
      <g id="Graphic_2">
        <path d="M 72.63287 545.39113 L 107.18968 428.4296 C 107.18968 428.4296 151.05025 347.354 151.05025 346.0249 C 151.05025 344.6958 192.2526 294.18968 192.2526 294.18968 L 218.83477 365.96152 C 218.83477 365.96152 249.40426 407.1639 252.06248 437.73337 C 254.7207 468.30286 298.58126 504.1888 298.58126 504.1888 C 298.58126 504.1888 329.15075 464.31553 329.15075 458.9991 C 329.15075 453.68267 326.49254 415.13853 329.15075 399.18923 C 331.80897 383.23993 349.08738 346.0249 354.4038 344.6958 C 359.72024 343.3667 402.2517 331.4047 403.5808 332.7338 C 404.9099 334.06293 414.2137 327.4174 415.5428 342.03758 C 416.8719 356.65777 447.4414 452.35356 447.4414 455.0118 C 447.4414 457.67 432.8212 542.7329 467.378 498.87235 C 501.9348 455.0118 505.92215 439.0625 505.92215 439.0625 C 505.92215 439.0625 489.97285 367.29063 492.63106 332.7338 C 495.2893 298.177 565.732 249 567.0611 249 C 568.3902 249 608.2635 252.98732 609.5926 255.64554 C 610.9217 258.30376 640.1621 355.32866 640.1621 372.60706 C 640.1621 389.88547 660.0987 457.67 661.4278 478.9357 C 662.7569 500.20145 677.3771 500.20145 682.6935 500.20145 C 688.01 500.20145 711.9339 449.69534 713.263 449.69534 C 714.5921 449.69534 731.8705 429.7587 733.19965 429.7587 C 734.5288 429.7587 778.3893 423.1132 778.3893 423.1132 L 795.6677 428.4296 L 782.3767 432.41693 L 751.8072 432.41693 C 751.8072 432.41693 734.5288 448.36623 733.19965 448.36623 C 731.8705 448.36623 718.5795 474.9484 718.5795 474.9484 L 702.6302 504.1888 L 672.0607 516.15075 C 672.0607 516.15075 645.4785 501.53056 645.4785 500.20145 C 645.4785 498.87235 644.1494 448.36623 644.1494 448.36623 L 626.871 388.55636 C 626.871 388.55636 617.5672 353.99955 616.2381 351.34133 C 614.909 348.6831 601.61794 296.8479 601.61794 295.5188 C 601.61794 294.18968 585.66864 278.24038 584.3395 276.91127 C 583.0104 275.58216 559.0865 279.5695 559.0865 279.5695 L 527.1879 303.49344 L 511.2386 332.7338 L 511.2386 360.6451 C 511.2386 360.6451 520.54234 397.8601 521.87144 397.8601 C 523.20055 397.8601 523.20055 449.69534 523.20055 449.69534 C 523.20055 449.69534 520.54234 468.30286 517.8841 469.63196 C 515.2259 470.9611 492.63106 502.85967 492.63106 504.1888 C 492.63106 505.5179 467.378 529.44183 466.0489 529.44183 C 464.7198 529.44183 450.0996 529.44183 450.0996 529.44183 L 427.50476 522.7963 L 422.18833 470.9611 C 422.18833 470.9611 419.5301 445.708 419.5301 444.3789 C 419.5301 443.0498 404.9099 396.531 404.9099 396.531 L 387.6315 348.6831 L 373.01132 363.3033 C 373.01132 363.3033 358.39113 400.51834 357.06202 400.51834 C 355.7329 400.51834 350.4165 425.7714 350.4165 427.1005 C 350.4165 428.4296 350.4165 472.2902 350.4165 472.2902 L 338.4545 498.87235 L 311.87235 529.44183 L 286.6193 537.4165 C 286.6193 537.4165 266.68267 504.1888 264.02445 504.1888 C 261.36623 504.1888 233.45496 468.30286 233.45496 468.30286 L 217.50566 441.7207 L 209.531 404.50566 L 190.9235 369.94885 L 190.9235 334.06293 L 172.31598 346.0249 C 172.31598 346.0249 169.65777 373.93617 168.32866 375.2653 C 166.99955 376.5944 145.73382 420.45496 144.40471 420.45496 C 143.0756 420.45496 72.63287 545.39113 72.63287 545.39113 Z" fill="black"/>
        <path d="M 72.63287 545.39113 L 107.18968 428.4296 C 107.18968 428.4296 151.05025 347.354 151.05025 346.0249 C 151.05025 344.6958 192.2526 294.18968 192.2526 294.18968 L 218.83477 365.96152 C 218.83477 365.96152 249.40426 407.1639 252.06248 437.73337 C 254.7207 468.30286 298.58126 504.1888 298.58126 504.1888 C 298.58126 504.1888 329.15075 464.31553 329.15075 458.9991 C 329.15075 453.68267 326.49254 415.13853 329.15075 399.18923 C 331.80897 383.23993 349.08738 346.0249 354.4038 344.6958 C 359.72024 343.3667 402.2517 331.4047 403.5808 332.7338 C 404.9099 334.06293 414.2137 327.4174 415.5428 342.03758 C 416.8719 356.65777 447.4414 452.35356 447.4414 455.0118 C 447.4414 457.67 432.8212 542.7329 467.378 498.87235 C 501.9348 455.0118 505.92215 439.0625 505.92215 439.0625 C 505.92215 439.0625 489.97285 367.29063 492.63106 332.7338 C 495.2893 298.177 565.732 249 567.0611 249 C 568.3902 249 608.2635 252.98732 609.5926 255.64554 C 610.9217 258.30376 640.1621 355.32866 640.1621 372.60706 C 640.1621 389.88547 660.0987 457.67 661.4278 478.9357 C 662.7569 500.20145 677.3771 500.20145 682.6935 500.20145 C 688.01 500.20145 711.9339 449.69534 713.263 449.69534 C 714.5921 449.69534 731.8705 429.7587 733.19965 429.7587 C 734.5288 429.7587 778.3893 423.1132 778.3893 423.1132 L 795.6677 428.4296 L 782.3767 432.41693 L 751.8072 432.41693 C 751.8072 432.41693 734.5288 448.36623 733.19965 448.36623 C 731.8705 448.36623 718.5795 474.9484 718.5795 474.9484 L 702.6302 504.1888 L 672.0607 516.15075 C 672.0607 516.15075 645.4785 501.53056 645.4785 500.20145 C 645.4785 498.87235 644.1494 448.36623 644.1494 448.36623 L 626.871 388.55636 C 626.871 388.55636 617.5672 353.99955 616.2381 351.34133 C 614.909 348.6831 601.61794 296.8479 601.61794 295.5188 C 601.61794 294.18968 585.66864 278.24038 584.3395 276.91127 C 583.0104 275.58216 559.0865 279.5695 559.0865 279.5695 L 527.1879 303.49344 L 511.2386 332.7338 L 511.2386 360.6451 C 511.2386 360.6451 520.54234 397.8601 521.87144 397.8601 C 523.20055 397.8601 523.20055 449.69534 523.20055 449.69534 C 523.20055 449.69534 520.54234 468.30286 517.8841 469.63196 C 515.2259 470.9611 492.63106 502.85967 492.63106 504.1888 C 492.63106 505.5179 467.378 529.44183 466.0489 529.44183 C 464.7198 529.44183 450.0996 529.44183 450.0996 529.44183 L 427.50476 522.7963 L 422.18833 470.9611 C 422.18833 470.9611 419.5301 445.708 419.5301 444.3789 C 419.5301 443.0498 404.9099 396.531 404.9099 396.531 L 387.6315 348.6831 L 373.01132 363.3033 C 373.01132 363.3033 358.39113 400.51834 357.06202 400.51834 C 355.7329 400.51834 350.4165 425.7714 350.4165 427.1005 C 350.4165 428.4296 350.4165 472.2902 350.4165 472.2902 L 338.4545 498.87235 L 311.87235 529.44183 L 286.6193 537.4165 C 286.6193 537.4165 266.68267 504.1888 264.02445 504.1888 C 261.36623 504.1888 233.45496 468.30286 233.45496 468.30286 L 217.50566 441.7207 L 209.531 404.50566 L 190.9235 369.94885 L 190.9235 334.06293 L 172.31598 346.0249 C 172.31598 346.0249 169.65777 373.93617 168.32866 375.2653 C 166.99955 376.5944 145.73382 420.45496 144.40471 420.45496 C 143.0756 420.45496 72.63287 545.39113 72.63287 545.39113 Z" stroke="black" stroke-linecap="round" stroke-linejoin="round" stroke-width="5"/>
      </g>
      <g id="Graphic_5">
        <path d="M 62 572.8297 L 98.36126 449.76084 C 98.36126 449.76084 144.5121 364.4517 144.5121 363.0532 C 144.5121 361.6547 187.8659 308.5113 187.8659 308.5113 L 215.8361 384.03086 C 215.8361 384.03086 248.00184 427.3847 250.79886 459.5504 C 253.59588 491.71614 299.7467 529.4759 299.7467 529.4759 C 299.7467 529.4759 331.91245 487.5206 331.91245 481.92657 C 331.91245 476.33253 329.11543 435.77574 331.91245 418.9936 C 334.70947 402.2115 352.8901 363.0532 358.48414 361.6547 C 364.0782 360.2562 408.8305 347.6696 410.229 349.0681 C 411.6275 350.4666 421.4171 343.47407 422.8156 358.8577 C 424.2141 374.2413 456.37985 474.934 456.37985 477.73104 C 456.37985 480.52806 440.99624 570.0327 477.3575 523.8819 C 513.71876 477.73104 517.9143 460.9489 517.9143 460.9489 C 517.9143 460.9489 501.1322 385.42937 503.9292 349.0681 C 506.7262 312.70685 580.84725 260.96197 582.24576 260.96197 C 583.6443 260.96197 625.5996 265.1575 626.9981 267.95452 C 628.3966 270.75154 659.1638 372.8428 659.1638 391.0234 C 659.1638 409.20404 680.1415 480.52806 681.54 502.9042 C 682.9385 525.2804 698.3221 525.2804 703.9161 525.2804 C 709.5102 525.2804 734.6834 472.137 736.0819 472.137 C 737.4804 472.137 755.661 451.15935 757.0595 451.15935 C 758.458 451.15935 804.6089 444.1668 804.6089 444.1668 L 815.8119 447.6139 C 816.9828 447.97416 817.6399 449.2154 817.2796 450.3863 C 817.062 451.0937 816.50585 451.64593 815.7969 451.8586 L 815.7969 451.8586 C 811.1601 453.24966 806.345 453.95637 801.504 453.95637 L 776.6387 453.95637 C 776.6387 453.95637 758.458 470.7385 757.0595 470.7385 C 755.661 470.7385 741.6759 498.7087 741.6759 498.7087 L 733.1637 514.3144 C 727.822 524.1075 719.19915 531.70425 708.8109 535.7692 L 692.72805 542.0625 C 692.72805 542.0625 664.75785 526.6789 664.75785 525.2804 C 664.75785 523.8819 663.35934 470.7385 663.35934 470.7385 L 645.1787 407.80553 C 645.1787 407.80553 635.38914 371.44427 633.9906 368.64725 C 632.5921 365.85023 618.607 311.30834 618.607 309.90983 C 618.607 308.5113 601.8249 291.7292 600.4264 290.3307 C 599.0279 288.93218 573.8547 293.1277 573.8547 293.1277 L 554.3091 307.78692 C 545.0711 314.7154 537.4289 323.54705 531.8994 333.6845 L 530.53997 336.17678 C 525.92603 344.63566 523.50833 354.11706 523.50833 363.75247 L 523.50833 378.4368 C 523.50833 378.4368 533.2979 417.5951 534.6964 417.5951 C 536.0949 417.5951 536.0949 472.137 536.0949 472.137 C 536.0949 472.137 533.2979 491.71614 530.5009 493.11465 C 527.70386 494.51316 503.9292 528.0774 503.9292 529.4759 C 503.9292 530.8744 477.3575 556.0476 475.959 556.0476 C 474.5605 556.0476 459.17687 556.0476 459.17687 556.0476 L 447.28953 552.5513 C 440.09973 550.4367 434.9026 544.1841 434.13797 536.7289 L 429.80816 494.51316 C 429.80816 494.51316 427.01114 467.94147 427.01114 466.54296 C 427.01114 465.14445 411.6275 416.1966 411.6275 416.1966 L 397.1415 376.08144 C 395.8452 372.4917 391.88425 370.63246 388.2945 371.92877 C 387.3398 372.2735 386.4728 372.8243 385.7551 373.54204 L 378.0633 381.23384 C 378.0633 381.23384 362.67967 420.39213 361.28116 420.39213 C 359.88265 420.39213 354.2886 446.9638 354.2886 448.36233 C 354.2886 449.76084 354.2886 495.91167 354.2886 495.91167 L 347.75493 510.43096 C 343.74137 519.35 338.44107 527.63196 332.02333 535.01236 L 322.87407 545.534 C 316.89558 552.4093 309.13413 557.4995 300.44597 560.24313 L 287.16013 564.43867 C 287.16013 564.43867 266.18247 529.4759 263.38545 529.4759 C 260.58843 529.4759 231.21972 491.71614 231.21972 491.71614 L 222.82866 477.73104 C 217.2727 468.4711 213.283 458.3578 211.02033 447.7987 L 209.0297 438.50907 C 207.0509 429.2747 203.77397 420.36717 199.29657 412.052 L 195.41835 404.8496 C 189.54298 393.9382 186.4674 381.7392 186.4674 369.3465 L 186.4674 362.10454 C 186.4674 358.59547 183.62273 355.7508 180.11366 355.7508 C 178.89532 355.7508 177.70267 356.1011 176.67783 356.7599 L 166.88826 363.0532 C 166.88826 363.0532 164.09124 392.4219 162.69273 393.82043 C 161.29422 395.21894 138.91806 441.3698 137.51955 441.3698 C 136.12104 441.3698 62 572.8297 62 572.8297 Z" fill="#666"/>
        <path d="M 62 572.8297 L 98.36126 449.76084 C 98.36126 449.76084 144.5121 364.4517 144.5121 363.0532 C 144.5121 361.6547 187.8659 308.5113 187.8659 308.5113 L 215.8361 384.03086 C 215.8361 384.03086 248.00184 427.3847 250.79886 459.5504 C 253.59588 491.71614 299.7467 529.4759 299.7467 529.4759 C 299.7467 529.4759 331.91245 487.5206 331.91245 481.92657 C 331.91245 476.33253 329.11543 435.77574 331.91245 418.9936 C 334.70947 402.2115 352.8901 363.0532 358.48414 361.6547 C 364.0782 360.2562 408.8305 347.6696 410.229 349.0681 C 411.6275 350.4666 421.4171 343.47407 422.8156 358.8577 C 424.2141 374.2413 456.37985 474.934 456.37985 477.73104 C 456.37985 480.52806 440.99624 570.0327 477.3575 523.8819 C 513.71876 477.73104 517.9143 460.9489 517.9143 460.9489 C 517.9143 460.9489 501.1322 385.42937 503.9292 349.0681 C 506.7262 312.70685 580.84725 260.96197 582.24576 260.96197 C 583.6443 260.96197 625.5996 265.1575 626.9981 267.95452 C 628.3966 270.75154 659.1638 372.8428 659.1638 391.0234 C 659.1638 409.20404 680.1415 480.52806 681.54 502.9042 C 682.9385 525.2804 698.3221 525.2804 703.9161 525.2804 C 709.5102 525.2804 734.6834 472.137 736.0819 472.137 C 737.4804 472.137 755.661 451.15935 757.0595 451.15935 C 758.458 451.15935 804.6089 444.1668 804.6089 444.1668 L 815.8119 447.6139 C 816.9828 447.97416 817.6399 449.2154 817.2796 450.3863 C 817.062 451.0937 816.50585 451.64593 815.7969 451.8586 L 815.7969 451.8586 C 811.1601 453.24966 806.345 453.95637 801.504 453.95637 L 776.6387 453.95637 C 776.6387 453.95637 758.458 470.7385 757.0595 470.7385 C 755.661 470.7385 741.6759 498.7087 741.6759 498.7087 L 733.1637 514.3144 C 727.822 524.1075 719.19915 531.70425 708.8109 535.7692 L 692.72805 542.0625 C 692.72805 542.0625 664.75785 526.6789 664.75785 525.2804 C 664.75785 523.8819 663.35934 470.7385 663.35934 470.7385 L 645.1787 407.80553 C 645.1787 407.80553 635.38914 371.44427 633.9906 368.64725 C 632.5921 365.85023 618.607 311.30834 618.607 309.90983 C 618.607 308.5113 601.8249 291.7292 600.4264 290.3307 C 599.0279 288.93218 573.8547 293.1277 573.8547 293.1277 L 554.3091 307.78692 C 545.0711 314.7154 537.4289 323.54705 531.8994 333.6845 L 530.53997 336.17678 C 525.92603 344.63566 523.50833 354.11706 523.50833 363.75247 L 523.50833 378.4368 C 523.50833 378.4368 533.2979 417.5951 534.6964 417.5951 C 536.0949 417.5951 536.0949 472.137 536.0949 472.137 C 536.0949 472.137 533.2979 491.71614 530.5009 493.11465 C 527.70386 494.51316 503.9292 528.0774 503.9292 529.4759 C 503.9292 530.8744 477.3575 556.0476 475.959 556.0476 C 474.5605 556.0476 459.17687 556.0476 459.17687 556.0476 L 447.28953 552.5513 C 440.09973 550.4367 434.9026 544.1841 434.13797 536.7289 L 429.80816 494.51316 C 429.80816 494.51316 427.01114 467.94147 427.01114 466.54296 C 427.01114 465.14445 411.6275 416.1966 411.6275 416.1966 L 397.1415 376.08144 C 395.8452 372.4917 391.88425 370.63246 388.2945 371.92877 C 387.3398 372.2735 386.4728 372.8243 385.7551 373.54204 L 378.0633 381.23384 C 378.0633 381.23384 362.67967 420.39213 361.28116 420.39213 C 359.88265 420.39213 354.2886 446.9638 354.2886 448.36233 C 354.2886 449.76084 354.2886 495.91167 354.2886 495.91167 L 347.75493 510.43096 C 343.74137 519.35 338.44107 527.63196 332.02333 535.01236 L 322.87407 545.534 C 316.89558 552.4093 309.13413 557.4995 300.44597 560.24313 L 287.16013 564.43867 C 287.16013 564.43867 266.18247 529.4759 263.38545 529.4759 C 260.58843 529.4759 231.21972 491.71614 231.21972 491.71614 L 222.82866 477.73104 C 217.2727 468.4711 213.283 458.3578 211.02033 447.7987 L 209.0297 438.50907 C 207.0509 429.2747 203.77397 420.36717 199.29657 412.052 L 195.41835 404.8496 C 189.54298 393.9382 186.4674 381.7392 186.4674 369.3465 L 186.4674 362.10454 C 186.4674 358.59547 183.62273 355.7508 180.11366 355.7508 C 178.89532 355.7508 177.70267 356.1011 176.67783 356.7599 L 166.88826 363.0532 C 166.88826 363.0532 164.09124 392.4219 162.69273 393.82043 C 161.29422 395.21894 138.91806 441.3698 137.51955 441.3698 C 136.12104 441.3698 62 572.8297 62 572.8297 Z" stroke="black" stroke-linecap="round" stroke-linejoin="round" stroke-width="5"/>
      </g>
    </g>
  </g>
</svg>
