<?xml version="1.0" encoding="UTF-8" standalone="no"?>
<!DOCTYPE svg PUBLIC "-//W3C//DTD SVG 1.1//EN" "http://www.w3.org/Graphics/SVG/1.1/DTD/svg11.dtd">
<svg xmlns="http://www.w3.org/2000/svg" version="1.1" xmlns:dc="http://purl.org/dc/elements/1.1/" xmlns:xl="http://www.w3.org/1999/xlink" viewBox="0 0 850.394 850.394" width="850.394" height="850.394">
  <defs/>
  <metadata> Produced by OmniGraffle 7.9.4 
    <dc:date>2019-03-11 13:02:56 +0000</dc:date>
  </metadata>
  <g id="splitter" fill="none" stroke-opacity="1" fill-opacity="1" stroke-dasharray="none" stroke="none">
    <title>splitter</title>
    <g id="splitter: Layer 1">
      <title>Layer 1</title>
      <g id="Line_7">
        <path d="M 548.76505 472.6976 C 534.95897 457.5139 519.1295 441.6238 507.34266 427.142 C 495.55583 412.66025 481.81326 395.4655 478.037 385.79824 C 474.2607 376.13096 487.11584 376.86437 484.6827 369.13256 C 482.2496 361.40074 470.518 349.31166 463.43675 339.4027" stroke="#b1001c" stroke-linecap="round" stroke-linejoin="round" stroke-width="14"/>
      </g>
      <g id="Graphic_6">
        <path d="M 721.5682 669.1347 L 624.7482 572.31475 C 620.0619 567.62846 620.0619 560.0305 624.7482 555.3442 L 633.2607 546.8317 C 637.947 542.1454 645.545 542.1454 650.2313 546.8317 C 650.2313 546.8317 650.2313 546.8317 650.2313 546.8317 L 747.0512 643.65164 C 751.7375 648.3379 751.7375 655.9359 747.0512 660.6222 L 738.5387 669.1347 C 733.8524 673.821 726.25445 673.821 721.5682 669.1347 C 721.5682 669.1347 721.5682 669.1347 721.5682 669.1347 Z" fill="#e6e6e6"/>
        <path d="M 721.5682 669.1347 L 624.7482 572.31475 C 620.0619 567.62846 620.0619 560.0305 624.7482 555.3442 L 633.2607 546.8317 C 637.947 542.1454 645.545 542.1454 650.2313 546.8317 C 650.2313 546.8317 650.2313 546.8317 650.2313 546.8317 L 747.0512 643.65164 C 751.7375 648.3379 751.7375 655.9359 747.0512 660.6222 L 738.5387 669.1347 C 733.8524 673.821 726.25445 673.821 721.5682 669.1347 C 721.5682 669.1347 721.5682 669.1347 721.5682 669.1347 Z" stroke="black" stroke-linecap="round" stroke-linejoin="round" stroke-width="2"/>
      </g>
      <g id="Graphic_5">
        <path d="M 744.8872 692.45374 L 648.0672 595.6338 C 643.3809 590.9475 643.3809 583.3495 648.0672 578.6632 L 656.5797 570.1507 C 661.266 565.4644 668.864 565.4644 673.5503 570.1507 C 673.5503 570.1507 673.5503 570.1507 673.5503 570.1507 L 770.3703 666.9707 C 775.05655 671.657 775.05655 679.25495 770.3703 683.9412 L 761.85775 692.45374 C 757.1715 697.14 749.5735 697.14 744.8872 692.45374 C 744.8872 692.45374 744.8872 692.45374 744.8872 692.45374 Z" fill="#e6e6e6"/>
        <path d="M 744.8872 692.45374 L 648.0672 595.6338 C 643.3809 590.9475 643.3809 583.3495 648.0672 578.6632 L 656.5797 570.1507 C 661.266 565.4644 668.864 565.4644 673.5503 570.1507 C 673.5503 570.1507 673.5503 570.1507 673.5503 570.1507 L 770.3703 666.9707 C 775.05655 671.657 775.05655 679.25495 770.3703 683.9412 L 761.85775 692.45374 C 757.1715 697.14 749.5735 697.14 744.8872 692.45374 C 744.8872 692.45374 744.8872 692.45374 744.8872 692.45374 Z" stroke="black" stroke-linecap="round" stroke-linejoin="round" stroke-width="2"/>
      </g>
      <g id="Graphic_4">
        <path d="M 670.3263 630.28596 L 607.38785 567.3475 C 602.70156 562.6612 602.70156 555.0632 607.38785 550.37694 L 627.8924 529.8724 C 632.5787 525.1861 640.1767 525.1861 644.86295 529.8724 L 707.8014 592.81086 C 712.4877 597.49715 712.4877 605.0951 707.8014 609.7814 L 687.2969 630.28596 C 682.6106 634.97225 675.0126 634.97225 670.3263 630.28596 C 670.3263 630.28596 670.3263 630.28596 670.3263 630.28596 Z" fill="#e6e6e6"/>
        <path d="M 670.3263 630.28596 L 607.38785 567.3475 C 602.70156 562.6612 602.70156 555.0632 607.38785 550.37694 L 627.8924 529.8724 C 632.5787 525.1861 640.1767 525.1861 644.86295 529.8724 L 707.8014 592.81086 C 712.4877 597.49715 712.4877 605.0951 707.8014 609.7814 L 687.2969 630.28596 C 682.6106 634.97225 675.0126 634.97225 670.3263 630.28596 C 670.3263 630.28596 670.3263 630.28596 670.3263 630.28596 Z" stroke="black" stroke-linecap="round" stroke-linejoin="round" stroke-width="2"/>
      </g>
      <g id="Graphic_3">
        <path d="M 688.15505 572.9312 L 660.1463 544.9225 C 588.2157 476.80957 575.4869 475.534 529.02274 451.97636 C 552.5804 498.4405 553.85594 511.1693 621.96885 583.09996 L 649.9776 611.1087 C 650.6109 596.471 648.0642 592.0155 655.06195 578.0156 C 669.06185 571.01786 673.5174 573.5645 688.15505 572.9312" fill="black"/>
        <path d="M 688.15505 572.9312 L 660.1463 544.9225 C 588.2157 476.80957 575.4869 475.534 529.02274 451.97636 C 552.5804 498.4405 553.85594 511.1693 621.96885 583.09996 L 649.9776 611.1087 C 650.6109 596.471 648.0642 592.0155 655.06195 578.0156 C 669.06185 571.01786 673.5174 573.5645 688.15505 572.9312" stroke="#b1001c" stroke-linecap="round" stroke-linejoin="round" stroke-width="2"/>
      </g>
      <g id="Graphic_15">
        <path d="M 755.362 705.0277 L 758.7861 708.4518 C 768.7005 715.658 773.6189 712.4517 786.0237 708.6072 C 789.8682 696.2024 793.0745 691.284 785.8683 681.3696 L 782.4442 677.9455 C 777.8838 684.21794 773.97 679.4978 773.97 679.4978 L 774.18715 672.35865 C 774.18715 672.35865 769.7044 678.87935 762.6848 686.755 C 754.8092 693.7746 750.2791 696.2667 750.2791 696.2667 L 757.41825 696.0495 C 757.41825 696.0495 761.6345 700.4673 755.362 705.0277 Z" fill="#e6e6e6"/>
        <path d="M 755.362 705.0277 L 758.7861 708.4518 C 768.7005 715.658 773.6189 712.4517 786.0237 708.6072 C 789.8682 696.2024 793.0745 691.284 785.8683 681.3696 L 782.4442 677.9455 C 777.8838 684.21794 773.97 679.4978 773.97 679.4978 L 774.18715 672.35865 C 774.18715 672.35865 769.7044 678.87935 762.6848 686.755 C 754.8092 693.7746 750.2791 696.2667 750.2791 696.2667 L 757.41825 696.0495 C 757.41825 696.0495 761.6345 700.4673 755.362 705.0277 Z" stroke="black" stroke-linecap="round" stroke-linejoin="round" stroke-width="2"/>
      </g>
      <g id="Line_19">
        <path d="M 378.10845 206.10782 C 391.91453 221.2915 407.744 237.1816 419.53083 251.66338 C 431.31766 266.14516 445.06024 283.3399 448.8365 293.00717 C 452.6128 302.67445 439.75765 301.94104 442.1908 309.67285 C 444.6239 317.40467 456.35547 329.49375 463.43675 339.4027" stroke="#b1001c" stroke-linecap="round" stroke-linejoin="round" stroke-width="14"/>
      </g>
      <g id="Graphic_22">
        <path d="M 256.54718 48.519447 L 319.48564 111.45791 C 324.17193 116.1442 324.17193 123.74218 319.48564 128.42847 C 319.48564 128.42847 319.48564 128.42847 319.48564 128.42847 L 298.9811 148.933 C 294.2948 153.6193 286.69683 153.6193 282.01054 148.933 L 219.07208 85.99455 C 214.3858 81.308255 214.3858 73.710275 219.07208 69.02398 L 239.57662 48.519447 C 244.2629 43.833156 251.8609 43.833156 256.54718 48.519447 Z" fill="#e6e6e6"/>
        <path d="M 256.54718 48.519447 L 319.48564 111.45791 C 324.17193 116.1442 324.17193 123.74218 319.48564 128.42847 C 319.48564 128.42847 319.48564 128.42847 319.48564 128.42847 L 298.9811 148.933 C 294.2948 153.6193 286.69683 153.6193 282.01054 148.933 L 219.07208 85.99455 C 214.3858 81.308255 214.3858 73.710275 219.07208 69.02398 L 239.57662 48.519447 C 244.2629 43.833156 251.8609 43.833156 256.54718 48.519447 Z" stroke="black" stroke-linecap="round" stroke-linejoin="round" stroke-width="2"/>
      </g>
      <g id="Graphic_23">
        <path d="M 238.71844 105.87421 L 266.72716 133.88293 C 338.6578 201.99584 351.3866 203.2714 397.85076 226.82905 C 374.2931 180.3649 373.01755 167.6361 304.90464 95.70545 L 276.89593 67.69673 C 276.2626 82.33441 278.80926 86.78993 271.81154 100.78983 C 257.81165 107.78755 253.35612 105.2409 238.71844 105.87421" fill="black"/>
        <path d="M 238.71844 105.87421 L 266.72716 133.88293 C 338.6578 201.99584 351.3866 203.2714 397.85076 226.82905 C 374.2931 180.3649 373.01755 167.6361 304.90464 95.70545 L 276.89593 67.69673 C 276.2626 82.33441 278.80926 86.78993 271.81154 100.78983 C 257.81165 107.78755 253.35612 105.2409 238.71844 105.87421" stroke="#b1001c" stroke-linecap="round" stroke-linejoin="round" stroke-width="2"/>
      </g>
      <g id="Line_28">
        <path d="M 408.60004 459.6911 C 409.57414 439.19224 409.61703 416.7631 411.52264 398.1884 C 413.42825 379.6137 415.8693 357.7377 420.03486 348.23167 C 424.2004 338.72564 432.7718 348.3342 436.5185 341.1465 C 440.26526 333.9588 440.51807 317.11507 442.51754 305.10115" stroke="#b1001c" stroke-linecap="round" stroke-linejoin="round" stroke-width="14"/>
      </g>
      <g id="Graphic_29">
        <path d="M 391.88827 720.7834 L 391.88827 583.85926 C 391.88827 577.23184 397.26085 571.85926 403.88827 571.85926 L 415.92677 571.85926 C 422.5542 571.85926 427.92677 577.23184 427.92677 583.85926 L 427.92677 720.7834 C 427.92677 727.4108 422.5542 732.7834 415.92677 732.7834 L 403.88827 732.7834 C 397.26085 732.7834 391.88827 727.4108 391.88827 720.7834 Z" fill="#e6e6e6"/>
        <path d="M 391.88827 720.7834 L 391.88827 583.85926 C 391.88827 577.23184 397.26085 571.85926 403.88827 571.85926 L 415.92677 571.85926 C 422.5542 571.85926 427.92677 577.23184 427.92677 583.85926 L 427.92677 720.7834 C 427.92677 727.4108 422.5542 732.7834 415.92677 732.7834 L 403.88827 732.7834 C 397.26085 732.7834 391.88827 727.4108 391.88827 720.7834 Z" stroke="black" stroke-linecap="round" stroke-linejoin="round" stroke-width="2"/>
      </g>
      <g id="Graphic_30">
        <path d="M 391.88827 753.76145 L 391.88827 616.83735 C 391.88827 610.2099 397.26085 604.83735 403.88827 604.83735 L 415.92677 604.83735 C 422.5542 604.83735 427.92677 610.2099 427.92677 616.83735 L 427.92677 753.76145 C 427.92677 760.3889 422.5542 765.76145 415.92677 765.76145 L 403.88827 765.76145 C 397.26085 765.76145 391.88827 760.3889 391.88827 753.76145 Z" fill="#e6e6e6"/>
        <path d="M 391.88827 753.76145 L 391.88827 616.83735 C 391.88827 610.2099 397.26085 604.83735 403.88827 604.83735 L 415.92677 604.83735 C 422.5542 604.83735 427.92677 610.2099 427.92677 616.83735 L 427.92677 753.76145 C 427.92677 760.3889 422.5542 765.76145 415.92677 765.76145 L 403.88827 765.76145 C 397.26085 765.76145 391.88827 760.3889 391.88827 753.76145 Z" stroke="black" stroke-linecap="round" stroke-linejoin="round" stroke-width="2"/>
      </g>
      <g id="Graphic_31">
        <path d="M 383.12503 657.0797 L 383.12503 568.0713 C 383.12503 561.44385 388.4976 556.0713 395.12503 556.0713 L 424.1228 556.0713 C 430.75024 556.0713 436.1228 561.44385 436.1228 568.0713 L 436.1228 657.0797 C 436.1228 663.7071 430.75024 669.0797 424.1228 669.0797 L 395.12503 669.0797 C 388.4976 669.0797 383.12503 663.7071 383.12503 657.0797 Z" fill="#e6e6e6"/>
        <path d="M 383.12503 657.0797 L 383.12503 568.0713 C 383.12503 561.44385 388.4976 556.0713 395.12503 556.0713 L 424.1228 556.0713 C 430.75024 556.0713 436.1228 561.44385 436.1228 568.0713 L 436.1228 657.0797 C 436.1228 663.7071 430.75024 669.0797 424.1228 669.0797 L 395.12503 669.0797 C 388.4976 669.0797 383.12503 663.7071 383.12503 657.0797 Z" stroke="black" stroke-linecap="round" stroke-linejoin="round" stroke-width="2"/>
      </g>
      <g id="Graphic_32">
        <path d="M 436.2878 629.1306 L 436.2878 589.5203 C 433.58824 490.4945 425.48957 480.59193 409.29224 431.07905 C 393.0949 480.59193 384.99624 490.4945 382.2967 589.5203 L 382.2967 629.1306 C 393.0949 619.228 394.4447 614.2767 409.29224 609.3254 C 424.1398 614.2767 425.48957 619.228 436.2878 629.1306" fill="black"/>
        <path d="M 436.2878 629.1306 L 436.2878 589.5203 C 433.58824 490.4945 425.48957 480.59193 409.29224 431.07905 C 393.0949 480.59193 384.99624 490.4945 382.2967 589.5203 L 382.2967 629.1306 C 393.0949 619.228 394.4447 614.2767 409.29224 609.3254 C 424.1398 614.2767 425.48957 619.228 436.2878 629.1306" stroke="#b1001c" stroke-linecap="round" stroke-linejoin="round" stroke-width="2"/>
      </g>
      <g id="Graphic_33">
        <path d="M 390.40394 769.0317 L 390.40394 773.8741 C 392.31895 785.9802 398.06395 787.19085 409.55397 793.2439 C 421.044 787.19085 426.789 785.9802 428.704 773.8741 L 428.704 769.0317 C 421.044 770.2423 421.61415 764.1371 421.61415 764.1371 L 426.81585 759.2426 C 426.81585 759.2426 419.03526 760.68365 408.50275 761.289 C 397.97023 760.68365 393.0048 759.2426 393.0048 759.2426 L 398.2065 764.1371 C 398.2065 764.1371 398.06395 770.2423 390.40394 769.0317 Z" fill="#e6e6e6"/>
        <path d="M 390.40394 769.0317 L 390.40394 773.8741 C 392.31895 785.9802 398.06395 787.19085 409.55397 793.2439 C 421.044 787.19085 426.789 785.9802 428.704 773.8741 L 428.704 769.0317 C 421.044 770.2423 421.61415 764.1371 421.61415 764.1371 L 426.81585 759.2426 C 426.81585 759.2426 419.03526 760.68365 408.50275 761.289 C 397.97023 760.68365 393.0048 759.2426 393.0048 759.2426 L 398.2065 764.1371 C 398.2065 764.1371 398.06395 770.2423 390.40394 769.0317 Z" stroke="black" stroke-linecap="round" stroke-linejoin="round" stroke-width="2"/>
      </g>
      <g id="Graphic_20">
        <path d="M 249.77968 50.70997 C 246.12253 62.5553 233.5553 75.12253 221.70997 78.77968 C 209.86461 82.43688 203.2268 75.79908 206.88402 63.953726 C 210.54116 52.10839 223.1084 39.54116 234.95373 35.884016 C 246.79908 32.226812 253.43688 38.864614 249.77968 50.70997" fill="#e6e6e6"/>
        <path d="M 249.77968 50.70997 C 246.12253 62.5553 233.5553 75.12253 221.70997 78.77968 C 209.86461 82.43688 203.2268 75.79908 206.88402 63.953726 C 210.54116 52.10839 223.1084 39.54116 234.95373 35.884016 C 246.79908 32.226812 253.43688 38.864614 249.77968 50.70997" stroke="black" stroke-linecap="round" stroke-linejoin="round" stroke-width="2"/>
      </g>
      <g id="Graphic_35">
        <path d="M 239.8602 51.99498 C 236.9826 58.506584 229.37115 66.11803 222.85955 68.99562 C 216.34794 71.87325 213.40201 68.92733 216.27964 62.415714 C 219.15724 55.90411 226.76868 48.29267 233.28029 45.415073 C 239.7919 42.537443 242.73783 45.483367 239.8602 51.99498" fill="black"/>
        <path d="M 239.8602 51.99498 C 236.9826 58.506584 229.37115 66.11803 222.85955 68.99562 C 216.34794 71.87325 213.40201 68.92733 216.27964 62.415714 C 219.15724 55.90411 226.76868 48.29267 233.28029 45.415073 C 239.7919 42.537443 242.73783 45.483367 239.8602 51.99498" stroke="black" stroke-linecap="round" stroke-linejoin="round" stroke-width="2"/>
      </g>
    </g>
    <g id="splitter: Layer 2">
      <title>Layer 2</title>
      <g id="Line_13">
        <path d="M 773.14105 669.9288 L 771.29815 673.9867 C 769.46185 678.0301 766.9126 681.7099 763.7725 684.8501 L 762.5279 686.0947 C 758.5996 690.023 753.7193 692.8648 748.364 694.3423 L 747.6645 694.5353" stroke="black" stroke-linecap="round" stroke-linejoin="round" stroke-width="4"/>
      </g>
      <g id="Line_34">
        <path d="M 427.79433 757.8124 L 423.6218 759.3787 C 419.4642 760.9393 415.05963 761.7388 410.61877 761.7388 L 408.85863 761.7388 C 403.30323 761.7388 397.84287 760.2973 393.0113 757.55535 L 392.38026 757.1972" stroke="black" stroke-linecap="round" stroke-linejoin="round" stroke-width="4"/>
      </g>
      <g id="Graphic_40">
        <circle cx="313.33185" cy="692.33185" r="50.3319271003508" fill="#201f80"/>
        <circle cx="313.33185" cy="692.33185" r="50.3319271003508" stroke="black" stroke-linecap="round" stroke-linejoin="round" stroke-width="1"/>
      </g>
      <g id="Graphic_39">
        <circle cx="313.33185" cy="692.33185" r="38.7782723525433" fill="black"/>
        <circle cx="313.33185" cy="692.33185" r="38.7782723525433" stroke="#333200" stroke-linecap="round" stroke-linejoin="round" stroke-width="12"/>
      </g>
      <g id="Graphic_38">
        <ellipse cx="313.33185" cy="687.2302" rx="11.2681990802436" ry="5.63409954012177" fill="black"/>
        <ellipse cx="313.33185" cy="687.2302" rx="11.2681990802436" ry="5.63409954012177" stroke="#fffc00" stroke-linecap="round" stroke-linejoin="round" stroke-width="7"/>
      </g>
      <g id="Graphic_37">
        <path d="M 310.76275 687.1723 L 316.9049 687.5445 L 319.6968 758.08635 L 339.24006 761.7661 L 312.66068 785.87555 L 286.75247 759.9049 L 306.8541 758.8309 Z" fill="#005d00"/>
        <path d="M 310.76275 687.1723 L 316.9049 687.5445 L 319.6968 758.08635 L 339.24006 761.7661 L 312.66068 785.87555 L 286.75247 759.9049 L 306.8541 758.8309 Z" stroke="#00fa00" stroke-linecap="round" stroke-linejoin="round" stroke-width="3"/>
      </g>
      <g id="Graphic_45">
        <circle cx="641.33185" cy="690.5775" r="50.3319271003508" fill="#201f80"/>
        <circle cx="641.33185" cy="690.5775" r="50.3319271003508" stroke="black" stroke-linecap="round" stroke-linejoin="round" stroke-width="1"/>
      </g>
      <g id="Graphic_46">
        <circle cx="641.33185" cy="690.5775" r="38.7782723525433" fill="black"/>
        <circle cx="641.33185" cy="690.5775" r="38.7782723525433" stroke="#333200" stroke-linecap="round" stroke-linejoin="round" stroke-width="12"/>
      </g>
      <g id="Graphic_47">
        <ellipse cx="641.33185" cy="685.4758" rx="11.2681990802435" ry="5.6340995401218" fill="black"/>
        <ellipse cx="641.33185" cy="685.4758" rx="11.2681990802435" ry="5.6340995401218" stroke="#fffc00" stroke-linecap="round" stroke-linejoin="round" stroke-width="7"/>
      </g>
      <g id="Graphic_48">
        <path d="M 638.76275 685.4179 L 644.9049 685.7901 L 647.6968 756.332 L 667.24006 760.0117 L 640.6607 784.1212 L 614.7525 758.1505 L 634.8541 757.0765 Z" fill="#005d00"/>
        <path d="M 638.76275 685.4179 L 644.9049 685.7901 L 647.6968 756.332 L 667.24006 760.0117 L 640.6607 784.1212 L 614.7525 758.1505 L 634.8541 757.0765 Z" stroke="#00fa00" stroke-linecap="round" stroke-linejoin="round" stroke-width="3"/>
      </g>
      <g id="Graphic_52">
        <circle cx="140.08005" cy="121.94115" r="54.0801350513405" fill="#201f80"/>
        <circle cx="140.08005" cy="121.94115" r="54.0801350513405" stroke="black" stroke-linecap="round" stroke-linejoin="round" stroke-width="1"/>
      </g>
      <g id="Graphic_51">
        <circle cx="140.08005" cy="121.94115" r="41.6660820814983" fill="black"/>
        <circle cx="140.08005" cy="121.94115" r="41.6660820814983" stroke="#333200" stroke-linecap="round" stroke-linejoin="round" stroke-width="12"/>
      </g>
      <g id="Graphic_50">
        <ellipse cx="140.08005" cy="127.42274" rx="12.1073394791735" ry="6.05366973958676" fill="black"/>
        <ellipse cx="140.08005" cy="127.42274" rx="12.1073394791735" ry="6.05366973958676" stroke="#fffc00" stroke-linecap="round" stroke-linejoin="round" stroke-width="7"/>
      </g>
      <g id="Graphic_49">
        <path d="M 128.91443 21.43126 L 151.24567 21.43126 L 146.44023 108.2862 L 168.63879 103.6865 L 140.08005 129.59136 L 112.24246 101.68663 L 132.84112 107.88623 Z" fill="#ffffc0"/>
        <path d="M 128.91443 21.43126 L 151.24567 21.43126 L 146.44023 108.2862 L 168.63879 103.6865 L 140.08005 129.59136 L 112.24246 101.68663 L 132.84112 107.88623 Z" stroke="#ff0028" stroke-linecap="round" stroke-linejoin="round" stroke-width="3"/>
      </g>
    </g>
  </g>
</svg>
