<?xml version="1.0" encoding="UTF-8" standalone="no"?>
<!DOCTYPE svg PUBLIC "-//W3C//DTD SVG 1.1//EN" "http://www.w3.org/Graphics/SVG/1.1/DTD/svg11.dtd">
<svg xmlns="http://www.w3.org/2000/svg" version="1.1" xmlns:dc="http://purl.org/dc/elements/1.1/" xmlns:xl="http://www.w3.org/1999/xlink" viewBox="0 0 850.394 850.394" width="850.394" height="850.394">
  <defs/>
  <metadata> Produced by OmniGraffle 7.9.4 
    <dc:date>2019-03-10 20:27:05 +0000</dc:date>
  </metadata>
  <g id="stereo" fill="none" stroke-opacity="1" fill-opacity="1" stroke-dasharray="none" stroke="none">
    <title>stereo</title>
    <g id="stereo: Layer 1">
      <title>Layer 1</title>
      <g id="Graphic_2">
        <path d="M 363.68406 280.70994 C 444.0348 361.06025 444.0348 491.33375 363.68406 571.68406 C 283.33375 652.0348 153.06025 652.0348 72.70994 571.68406 C -7.640784 491.33375 -7.640784 361.06025 72.70994 280.70994 C 153.06025 200.35922 283.33375 200.35922 363.68406 280.70994" fill="#4040ff"/>
        <path d="M 363.68406 280.70994 C 444.0348 361.06025 444.0348 491.33375 363.68406 571.68406 C 283.33375 652.0348 153.06025 652.0348 72.70994 571.68406 C -7.640784 491.33375 -7.640784 361.06025 72.70994 280.70994 C 153.06025 200.35922 283.33375 200.35922 363.68406 280.70994" stroke="black" stroke-linecap="round" stroke-linejoin="round" stroke-width="1"/>
      </g>
      <g id="Graphic_4">
        <circle cx="218.197" cy="426.197" r="158.52050070913" fill="black"/>
        <circle cx="218.197" cy="426.197" r="158.52050070913" stroke="#fffc00" stroke-linecap="round" stroke-linejoin="round" stroke-width="12"/>
      </g>
      <g id="Graphic_5">
        <path d="M 777.6841 278.70994 C 858.0348 359.06025 858.0348 489.33375 777.6841 569.68406 C 697.33375 650.0348 567.06025 650.0348 486.70994 569.68406 C 406.3592 489.33375 406.3592 359.06025 486.70994 278.70994 C 567.06025 198.35922 697.33375 198.35922 777.6841 278.70994" fill="#4040ff"/>
        <path d="M 777.6841 278.70994 C 858.0348 359.06025 858.0348 489.33375 777.6841 569.68406 C 697.33375 650.0348 567.06025 650.0348 486.70994 569.68406 C 406.3592 489.33375 406.3592 359.06025 486.70994 278.70994 C 567.06025 198.35922 697.33375 198.35922 777.6841 278.70994" stroke="black" stroke-linecap="round" stroke-linejoin="round" stroke-width="1"/>
      </g>
      <g id="Graphic_6">
        <circle cx="632.197" cy="424.197" r="158.52050070913" fill="black"/>
        <circle cx="632.197" cy="424.197" r="158.52050070913" stroke="#fffc00" stroke-linecap="round" stroke-linejoin="round" stroke-width="12"/>
      </g>
    </g>
  </g>
</svg>
