<?xml version="1.0" encoding="UTF-8" standalone="no"?>
<!DOCTYPE svg PUBLIC "-//W3C//DTD SVG 1.1//EN" "http://www.w3.org/Graphics/SVG/1.1/DTD/svg11.dtd">
<svg xmlns:xl="http://www.w3.org/1999/xlink" xmlns:dc="http://purl.org/dc/elements/1.1/" xmlns="http://www.w3.org/2000/svg" version="1.1" viewBox="0 0 850.394 850.394" width="850.394" height="850.394">
  <defs/>
  <metadata> Produced by OmniGraffle 7.9.4 
    <dc:date>2019-03-14 13:07:07 +0000</dc:date>
  </metadata>
  <g id="play_2" fill-opacity="1" stroke-dasharray="none" stroke-opacity="1" stroke="none" fill="none">
    <title>play 2</title>
    <g id="play_2: Layer 1">
      <title>Layer 1</title>
      <g id="Graphic_28">
        <rect x="104.197" y="96" width="642" height="642" fill="#8080ff"/>
        <rect x="104.197" y="96" width="642" height="642" stroke="black" stroke-linecap="round" stroke-linejoin="round" stroke-width="12"/>
      </g>
      <g id="Graphic_25">
        <path d="M 275.86325 519.9843 L 400.46434 486.59755 L 477.2824 721.9602 L 326.68053 762.3139 Z" fill="#666"/>
        <path d="M 275.86325 519.9843 L 400.46434 486.59755 L 477.2824 721.9602 L 326.68053 762.3139 Z" stroke="black" stroke-linecap="round" stroke-linejoin="round" stroke-width="16"/>
      </g>
      <g id="Graphic_24">
        <circle cx="381.75156" cy="660.9692" r="54.395998637125" fill="#ccc"/>
        <circle cx="381.75156" cy="660.9692" r="54.395998637125" stroke="black" stroke-linecap="round" stroke-linejoin="round" stroke-width="13"/>
      </g>
      <g id="Graphic_23">
        <circle cx="382.10427" cy="662.2855" r="23.0725897881123" fill="#999"/>
        <circle cx="382.10427" cy="662.2855" r="23.0725897881123" stroke="black" stroke-linecap="round" stroke-linejoin="round" stroke-width="12"/>
      </g>
      <g id="Graphic_29">
        <path d="M 457.61733 447.3163 C 360.8274 447.3163 282.197 525.7748 282.197 622.7366 C 282.197 719.6984 360.8274 798.1569 457.61733 798.1569 C 554.57916 798.1569 633.03766 719.6984 633.03766 622.7366 C 633.03766 525.7748 554.57916 447.3163 457.61733 447.3163 M 553.2074 527.14656 C 601.1743 575.1135 604.9423 649.80396 565.88325 702.9107 L 377.61513 514.4707 C 430.54997 475.4116 505.24044 479.52345 553.2074 527.14656 M 362.0273 718.32665 C 314.23226 670.3597 310.29232 595.66925 349.3514 542.5625 L 537.6195 731.0025 C 484.6847 770.0616 409.9942 766.2936 362.0273 718.32665 Z" fill="red"/>
        <path d="M 457.61733 447.3163 C 360.8274 447.3163 282.197 525.7748 282.197 622.7366 C 282.197 719.6984 360.8274 798.1569 457.61733 798.1569 C 554.57916 798.1569 633.03766 719.6984 633.03766 622.7366 C 633.03766 525.7748 554.57916 447.3163 457.61733 447.3163 M 553.2074 527.14656 C 601.1743 575.1135 604.9423 649.80396 565.88325 702.9107 L 377.61513 514.4707 C 430.54997 475.4116 505.24044 479.52345 553.2074 527.14656 M 362.0273 718.32665 C 314.23226 670.3597 310.29232 595.66925 349.3514 542.5625 L 537.6195 731.0025 C 484.6847 770.0616 409.9942 766.2936 362.0273 718.32665 Z" stroke="black" stroke-linecap="round" stroke-linejoin="round" stroke-width="4"/>
      </g>
      <g id="Graphic_18">
        <path d="M 443.197 645.8076 L 455.6047 625.5283 C 455.6047 625.5283 467.95365 612.47544 468.0207 612.2252 C 468.08777 611.9749 478.3939 604.5439 478.3939 604.5439 L 479.77803 619.39894 C 479.77803 619.39894 483.4552 628.69924 482.41344 634.5893 C 481.37165 640.47935 487.81965 649.4492 487.81965 649.4492 C 487.81965 649.4492 495.5873 643.4837 495.8555 642.4827 C 496.12374 641.4817 497.56786 634.0901 498.87305 631.2211 C 500.17825 628.3521 505.3092 622.2166 506.3773 622.2346 C 507.44537 622.2525 516.05714 622.146 516.24034 622.4633 C 516.42354 622.78065 518.5106 621.99875 518.02327 624.81865 C 517.5359 627.63855 518.4638 647.19944 518.32966 647.69996 C 518.19555 648.2005 511.1511 663.4794 519.8707 656.9643 C 528.59025 650.4493 530.1457 647.64734 530.1457 647.64734 C 530.1457 647.64734 530.76366 633.3287 533.00764 626.9561 C 535.2516 620.5835 550.9964 614.87796 551.24666 614.945 C 551.4969 615.0121 558.8035 617.77454 558.91964 618.3421 C 559.0358 618.9097 559.64634 638.6538 558.7746 641.9071 C 557.9029 645.1605 558.2369 658.9295 557.4142 663.0007 C 556.5916 667.0719 559.3444 667.8095 560.34545 668.0777 C 561.3465 668.346 568.3993 660.0432 568.64954 660.1102 C 568.8998 660.1773 573.159 657.29514 573.40926 657.3622 C 573.6595 657.42925 582.2533 658.3908 582.2533 658.3908 L 585.23845 660.2636 L 582.5347 660.3438 L 576.77876 658.8015 C 576.77876 658.8015 572.7207 660.9329 572.4705 660.8658 C 572.2202 660.79876 568.3765 665.13335 568.3765 665.13335 L 563.89815 669.83436 L 557.5387 670.5444 C 557.5387 670.5444 553.27116 666.4504 553.3382 666.20015 C 553.4053 665.9499 555.70316 656.373 555.70316 656.373 L 555.46735 644.2397 C 555.46735 644.2397 555.459 637.2636 555.34287 636.696 C 555.2267 636.1284 555.33934 625.6978 555.4064 625.4475 C 555.47345 625.1973 553.27503 621.3895 553.0918 621.0722 C 552.9086 620.75486 548.2028 620.2986 548.2028 620.2986 L 540.9896 623.1939 L 536.51126 627.8949 L 535.1031 633.1503 C 535.1031 633.1503 534.9773 640.62696 535.22755 640.694 C 535.4778 640.7611 532.8626 650.52114 532.8626 650.52114 C 532.8626 650.52114 531.4233 653.89065 530.8557 654.0068 C 530.28816 654.1229 524.4244 658.9892 524.35735 659.2394 C 524.2903 659.4897 518.3284 662.7203 518.0781 662.6532 C 517.82786 662.58615 515.075 661.8485 515.075 661.8485 L 511.1559 659.4573 L 512.7701 649.429 C 512.7701 649.429 513.54364 644.54 513.6107 644.2897 C 513.67775 644.03945 513.2719 634.5428 513.2719 634.5428 L 512.43256 624.66176 L 508.9421 626.677 C 508.9421 626.677 504.3117 632.9466 504.0614 632.8795 C 503.81116 632.8125 501.53606 637.29915 501.469 637.5494 C 501.40194 637.7997 499.1891 646.0582 499.1891 646.0582 L 495.5956 650.45985 L 489.04816 654.87466 L 483.8909 655.1021 C 483.8909 655.1021 481.81345 647.8398 481.31294 647.7057 C 480.8124 647.5716 477.3675 639.40644 477.3675 639.40644 L 475.70555 633.5966 L 476.0816 626.187 L 474.32144 618.7415 L 476.13197 611.98455 L 472.02484 613.2981 C 472.02484 613.2981 470.11614 618.4194 469.7988 618.6026 C 469.4815 618.7858 463.2645 625.9714 463.01425 625.9044 C 462.764 625.8373 443.197 645.8076 443.197 645.8076 Z" fill="black"/>
        <path d="M 443.197 645.8076 L 455.6047 625.5283 C 455.6047 625.5283 467.95365 612.47544 468.0207 612.2252 C 468.08777 611.9749 478.3939 604.5439 478.3939 604.5439 L 479.77803 619.39894 C 479.77803 619.39894 483.4552 628.69924 482.41344 634.5893 C 481.37165 640.47935 487.81965 649.4492 487.81965 649.4492 C 487.81965 649.4492 495.5873 643.4837 495.8555 642.4827 C 496.12374 641.4817 497.56786 634.0901 498.87305 631.2211 C 500.17825 628.3521 505.3092 622.2166 506.3773 622.2346 C 507.44537 622.2525 516.05714 622.146 516.24034 622.4633 C 516.42354 622.78065 518.5106 621.99875 518.02327 624.81865 C 517.5359 627.63855 518.4638 647.19944 518.32966 647.69996 C 518.19555 648.2005 511.1511 663.4794 519.8707 656.9643 C 528.59025 650.4493 530.1457 647.64734 530.1457 647.64734 C 530.1457 647.64734 530.76366 633.3287 533.00764 626.9561 C 535.2516 620.5835 550.9964 614.87796 551.24666 614.945 C 551.4969 615.0121 558.8035 617.77454 558.91964 618.3421 C 559.0358 618.9097 559.64634 638.6538 558.7746 641.9071 C 557.9029 645.1605 558.2369 658.9295 557.4142 663.0007 C 556.5916 667.0719 559.3444 667.8095 560.34545 668.0777 C 561.3465 668.346 568.3993 660.0432 568.64954 660.1102 C 568.8998 660.1773 573.159 657.29514 573.40926 657.3622 C 573.6595 657.42925 582.2533 658.3908 582.2533 658.3908 L 585.23845 660.2636 L 582.5347 660.3438 L 576.77876 658.8015 C 576.77876 658.8015 572.7207 660.9329 572.4705 660.8658 C 572.2202 660.79876 568.3765 665.13335 568.3765 665.13335 L 563.89815 669.83436 L 557.5387 670.5444 C 557.5387 670.5444 553.27116 666.4504 553.3382 666.20015 C 553.4053 665.9499 555.70316 656.373 555.70316 656.373 L 555.46735 644.2397 C 555.46735 644.2397 555.459 637.2636 555.34287 636.696 C 555.2267 636.1284 555.33934 625.6978 555.4064 625.4475 C 555.47345 625.1973 553.27503 621.3895 553.0918 621.0722 C 552.9086 620.75486 548.2028 620.2986 548.2028 620.2986 L 540.9896 623.1939 L 536.51126 627.8949 L 535.1031 633.1503 C 535.1031 633.1503 534.9773 640.62696 535.22755 640.694 C 535.4778 640.7611 532.8626 650.52114 532.8626 650.52114 C 532.8626 650.52114 531.4233 653.89065 530.8557 654.0068 C 530.28816 654.1229 524.4244 658.9892 524.35735 659.2394 C 524.2903 659.4897 518.3284 662.7203 518.0781 662.6532 C 517.82786 662.58615 515.075 661.8485 515.075 661.8485 L 511.1559 659.4573 L 512.7701 649.429 C 512.7701 649.429 513.54364 644.54 513.6107 644.2897 C 513.67775 644.03945 513.2719 634.5428 513.2719 634.5428 L 512.43256 624.66176 L 508.9421 626.677 C 508.9421 626.677 504.3117 632.9466 504.0614 632.8795 C 503.81116 632.8125 501.53606 637.29915 501.469 637.5494 C 501.40194 637.7997 499.1891 646.0582 499.1891 646.0582 L 495.5956 650.45985 L 489.04816 654.87466 L 483.8909 655.1021 C 483.8909 655.1021 481.81345 647.8398 481.31294 647.7057 C 480.8124 647.5716 477.3675 639.40644 477.3675 639.40644 L 475.70555 633.5966 L 476.0816 626.187 L 474.32144 618.7415 L 476.13197 611.98455 L 472.02484 613.2981 C 472.02484 613.2981 470.11614 618.4194 469.7988 618.6026 C 469.4815 618.7858 463.2645 625.9714 463.01425 625.9044 C 462.764 625.8373 443.197 645.8076 443.197 645.8076 Z" stroke="black" stroke-linecap="round" stroke-linejoin="round" stroke-width="5"/>
      </g>
      <g id="Graphic_22">
        <circle cx="354.4495" cy="559.07656" r="29.8376739005358" fill="#ccc"/>
        <circle cx="354.4495" cy="559.07656" r="29.8376739005358" stroke="black" stroke-linecap="round" stroke-linejoin="round" stroke-width="14"/>
      </g>
      <g id="Graphic_21">
        <circle cx="354.643" cy="559.7986" r="12.6559384400873" fill="#a5a5a5"/>
        <circle cx="354.643" cy="559.7986" r="12.6559384400873" stroke="black" stroke-linecap="round" stroke-linejoin="round" stroke-width="9"/>
      </g>
    </g>
  </g>
</svg>
