<?xml version="1.0" encoding="UTF-8" standalone="no"?>
<!DOCTYPE svg PUBLIC "-//W3C//DTD SVG 1.1//EN" "http://www.w3.org/Graphics/SVG/1.1/DTD/svg11.dtd">
<svg xmlns:xl="http://www.w3.org/1999/xlink" version="1.1" xmlns="http://www.w3.org/2000/svg" xmlns:dc="http://purl.org/dc/elements/1.1/" viewBox="0 0 850.4 850.4" width="850.4" height="850.4">
  <defs/>
  <metadata> Produced by OmniGraffle 7.9.4 
    <dc:date>2019-12-02 21:33:32 +0000</dc:date>
  </metadata>
  <g id="Canvas_1" stroke-opacity="1" stroke="none" stroke-dasharray="none" fill="none" fill-opacity="1">
    <title>Canvas 1</title>
    <g id="Canvas_1: draw">
      <title>draw</title>
      <g id="Graphic_3">
        <path d="M 32 802 L 75 202 L 249 59 L 310 59 L 810 528 L 822 614 L 657 798 Z" fill="yellow"/>
        <path d="M 32 802 L 75 202 L 249 59 L 310 59 L 810 528 L 822 614 L 657 798 Z" stroke="black" stroke-linecap="round" stroke-linejoin="round" stroke-width="6"/>
      </g>
      <g id="Graphic_4">
        <path d="M 40 795 L 81.9004 210.3432 L 251.45087 71 L 310.891 71 L 798.105 528.0067 L 809.7981 611.80754 L 649.0175 791.1023 Z" fill="#333"/>
        <path d="M 40 795 L 81.9004 210.3432 L 251.45087 71 L 310.891 71 L 798.105 528.0067 L 809.7981 611.80754 L 649.0175 791.1023 Z" stroke="black" stroke-linecap="round" stroke-linejoin="round" stroke-width="6"/>
      </g>
      <g id="Line_26">
        <line x1="174.96381" y1="221.21923" x2="622.36066" y2="678.4098" stroke="#a5a5a5" stroke-linecap="round" stroke-linejoin="round" stroke-width="6"/>
      </g>
      <g id="Line_27">
        <line x1="213.0032" y1="222.87" x2="640.3121" y2="647" stroke="#a5a5a5" stroke-linecap="round" stroke-linejoin="round" stroke-width="6"/>
      </g>
      <g id="Line_28">
        <line x1="204" y1="169.5353" x2="631.3089" y2="593.6653" stroke="#a5a5a5" stroke-linecap="round" stroke-linejoin="round" stroke-width="6"/>
      </g>
      <g id="Line_29">
        <line x1="251.94915" y1="183.9886" x2="679.258" y2="608.1186" stroke="#a5a5a5" stroke-linecap="round" stroke-linejoin="round" stroke-width="6"/>
      </g>
      <g id="Line_30">
        <line x1="241.1148" y1="140.20155" x2="668.4237" y2="564.33154" stroke="#a5a5a5" stroke-linecap="round" stroke-linejoin="round" stroke-width="6"/>
      </g>
      <g id="Line_31">
        <line x1="285.69114" y1="140.20155" x2="713" y2="564.33154" stroke="#a5a5a5" stroke-linecap="round" stroke-linejoin="round" stroke-width="6"/>
      </g>
      <g id="Graphic_5">
        <rect x="124" y="602" width="55" height="55" fill="white"/>
        <rect x="124" y="602" width="55" height="55" stroke="black" stroke-linecap="round" stroke-linejoin="round" stroke-width="4"/>
      </g>
      <g id="Graphic_6">
        <rect x="207" y="602" width="55" height="55" fill="white"/>
        <rect x="207" y="602" width="55" height="55" stroke="black" stroke-linecap="round" stroke-linejoin="round" stroke-width="4"/>
      </g>
      <g id="Graphic_7">
        <rect x="290" y="602" width="55" height="55" fill="white"/>
        <rect x="290" y="602" width="55" height="55" stroke="black" stroke-linecap="round" stroke-linejoin="round" stroke-width="4"/>
      </g>
      <g id="Graphic_8">
        <rect x="373" y="602" width="55" height="55" fill="white"/>
        <rect x="373" y="602" width="55" height="55" stroke="black" stroke-linecap="round" stroke-linejoin="round" stroke-width="4"/>
      </g>
      <g id="Graphic_9">
        <rect x="121" y="688" width="55" height="55" fill="white"/>
        <rect x="121" y="688" width="55" height="55" stroke="black" stroke-linecap="round" stroke-linejoin="round" stroke-width="4"/>
      </g>
      <g id="Graphic_10">
        <rect x="204" y="688" width="55" height="55" fill="white"/>
        <rect x="204" y="688" width="55" height="55" stroke="black" stroke-linecap="round" stroke-linejoin="round" stroke-width="4"/>
      </g>
      <g id="Graphic_11">
        <rect x="287" y="688" width="55" height="55" fill="white"/>
        <rect x="287" y="688" width="55" height="55" stroke="black" stroke-linecap="round" stroke-linejoin="round" stroke-width="4"/>
      </g>
      <g id="Graphic_12">
        <rect x="370" y="688" width="55" height="55" fill="white"/>
        <rect x="370" y="688" width="55" height="55" stroke="black" stroke-linecap="round" stroke-linejoin="round" stroke-width="4"/>
      </g>
      <g id="Graphic_13">
        <path d="M 502 596.2593 L 641.2593 457 L 731.0619 546.80256 L 591.80256 686.0619 Z" fill="#333"/>
        <path d="M 502 596.2593 L 641.2593 457 L 731.0619 546.80256 L 591.80256 686.0619 Z" stroke="black" stroke-linecap="round" stroke-linejoin="round" stroke-width="5"/>
      </g>
      <g id="Graphic_14">
        <circle cx="234.7787" cy="291.08197" r="19.000030360136" fill="#929000"/>
        <circle cx="234.7787" cy="291.08197" r="19.000030360136" stroke="black" stroke-linecap="round" stroke-linejoin="round" stroke-width="4"/>
      </g>
      <g id="Graphic_15">
        <circle cx="287" cy="305" r="19.000030360136" fill="#929000"/>
        <circle cx="287" cy="305" r="19.000030360136" stroke="black" stroke-linecap="round" stroke-linejoin="round" stroke-width="4"/>
      </g>
      <g id="Graphic_16">
        <circle cx="277" cy="253" r="19.000030360136" fill="#929000"/>
        <circle cx="277" cy="253" r="19.000030360136" stroke="black" stroke-linecap="round" stroke-linejoin="round" stroke-width="4"/>
      </g>
      <g id="Graphic_17">
        <circle cx="333" cy="267" r="19.000030360136" fill="#929000"/>
        <circle cx="333" cy="267" r="19.000030360136" stroke="black" stroke-linecap="round" stroke-linejoin="round" stroke-width="4"/>
      </g>
      <g id="Graphic_18">
        <circle cx="317.5" cy="214" r="19.000030360136" fill="#929000"/>
        <circle cx="317.5" cy="214" r="19.000030360136" stroke="black" stroke-linecap="round" stroke-linejoin="round" stroke-width="4"/>
      </g>
      <g id="Graphic_19">
        <circle cx="379" cy="223" r="19.000030360136" fill="#929000"/>
        <circle cx="379" cy="223" r="19.000030360136" stroke="black" stroke-linecap="round" stroke-linejoin="round" stroke-width="4"/>
      </g>
      <g id="Graphic_20">
        <circle cx="167.89922" cy="214" r="8.10078813804247" fill="#666"/>
        <circle cx="167.89922" cy="214" r="8.10078813804247" stroke="black" stroke-linecap="round" stroke-linejoin="round" stroke-width="4"/>
      </g>
      <g id="Graphic_21">
        <circle cx="220.60078" cy="224.65815" r="8.10078813804247" fill="#666"/>
        <circle cx="220.60078" cy="224.65815" r="8.10078813804247" stroke="black" stroke-linecap="round" stroke-linejoin="round" stroke-width="4"/>
      </g>
      <g id="Graphic_22">
        <circle cx="212.10078" cy="169.01938" r="8.10078813804247" fill="#666"/>
        <circle cx="212.10078" cy="169.01938" r="8.10078813804247" stroke="black" stroke-linecap="round" stroke-linejoin="round" stroke-width="4"/>
      </g>
      <g id="Graphic_23">
        <circle cx="261.18274" cy="182.46143" r="8.10078813804248" fill="#666"/>
        <circle cx="261.18274" cy="182.46143" r="8.10078813804248" stroke="black" stroke-linecap="round" stroke-linejoin="round" stroke-width="4"/>
      </g>
      <g id="Graphic_24">
        <circle cx="250.62054" cy="137.0188" r="8.10078813804248" fill="#666"/>
        <circle cx="250.62054" cy="137.0188" r="8.10078813804248" stroke="black" stroke-linecap="round" stroke-linejoin="round" stroke-width="4"/>
      </g>
      <g id="Graphic_25">
        <circle cx="298.10656" cy="141.10078" r="8.10078813804249" fill="#666"/>
        <circle cx="298.10656" cy="141.10078" r="8.10078813804249" stroke="black" stroke-linecap="round" stroke-linejoin="round" stroke-width="4"/>
      </g>
    </g>
  </g>
</svg>
