<?xml version="1.0" encoding="UTF-8" standalone="no"?>
<!DOCTYPE svg PUBLIC "-//W3C//DTD SVG 1.1//EN" "http://www.w3.org/Graphics/SVG/1.1/DTD/svg11.dtd">
<svg xmlns:xl="http://www.w3.org/1999/xlink" xmlns:dc="http://purl.org/dc/elements/1.1/" xmlns="http://www.w3.org/2000/svg" version="1.1" viewBox="0 0 850.394 850.394" width="850.394" height="850.394">
  <defs/>
  <metadata> Produced by OmniGraffle 7.9.4 
    <dc:date>2019-04-08 20:01:24 +0000</dc:date>
  </metadata>
  <g id="surface_speaker" stroke="none" fill="none" stroke-dasharray="none" stroke-opacity="1" fill-opacity="1">
    <title>surface speaker</title>
    <g id="surface_speaker: Layer 1">
      <title>Layer 1</title>
      <g id="Graphic_21">
        <rect x="5" y="619" width="839" height="226" fill="#773015"/>
        <rect x="5" y="619" width="839" height="226" stroke="black" stroke-linecap="round" stroke-linejoin="round" stroke-width="7"/>
      </g>
      <g id="Graphic_18">
        <path d="M 416 609.3411 L 434.3447 547.25133 C 434.3447 547.25133 457.62836 504.21184 457.62836 503.5063 C 457.62836 502.8007 479.5009 475.9892 479.5009 475.9892 L 493.6122 514.08976 C 493.6122 514.08976 509.8402 535.9623 511.25133 552.1903 C 512.66247 568.4183 535.9461 587.4686 535.9461 587.4686 C 535.9461 587.4686 552.1741 566.3016 552.1741 563.47934 C 552.1741 560.6571 550.763 540.1957 552.1741 531.7289 C 553.58526 523.2621 562.7576 503.5063 565.5799 502.8007 C 568.40214 502.09515 590.9802 495.74506 591.6858 496.4506 C 592.39136 497.1562 597.3303 493.62836 598.0359 501.3896 C 598.74145 509.1508 614.96945 559.9515 614.96945 561.36264 C 614.96945 562.7738 607.2082 607.92996 625.5529 584.6463 C 643.8976 561.36264 646.0143 552.89586 646.0143 552.89586 C 646.0143 552.89586 637.54755 514.7953 638.9587 496.4506 C 640.3698 478.1059 677.7648 452 678.47034 452 C 679.1759 452 700.3429 454.1167 701.0484 455.52783 C 701.754 456.93896 717.27644 508.44524 717.27644 517.6176 C 717.27644 526.78994 727.8599 562.7738 728.5655 574.0628 C 729.2711 585.3519 737.0323 585.3519 739.8545 585.3519 C 742.6768 585.3519 755.377 558.5404 756.0825 558.5404 C 756.7881 558.5404 765.9605 547.9569 766.666 547.9569 C 767.3716 547.9569 790.65525 544.4291 790.65525 544.4291 L 799.8276 547.25133 L 792.7719 549.368 L 776.5439 549.368 C 776.5439 549.368 767.3716 557.8348 766.666 557.8348 C 765.9605 557.8348 758.9048 571.9461 758.9048 571.9461 L 750.438 587.4686 L 734.21 593.81865 C 734.21 593.81865 720.0987 586.0574 720.0987 585.3519 C 720.0987 584.6463 719.3931 557.8348 719.3931 557.8348 L 710.2208 526.0844 C 710.2208 526.0844 705.2818 507.7397 704.5763 506.32854 C 703.8707 504.9174 696.81505 477.40036 696.81505 476.6948 C 696.81505 475.9892 688.3483 467.52244 687.6427 466.8169 C 686.9371 466.1113 674.23695 468.228 674.23695 468.228 L 657.3034 480.9282 L 648.8366 496.4506 L 648.8366 511.2675 C 648.8366 511.2675 653.77555 531.0233 654.4811 531.0233 C 655.1867 531.0233 655.1867 558.5404 655.1867 558.5404 C 655.1867 558.5404 653.77555 568.4183 652.3644 569.12386 C 650.9533 569.8294 638.9587 586.763 638.9587 587.4686 C 638.9587 588.1741 625.5529 600.8743 624.8474 600.8743 C 624.1418 600.8743 616.3806 600.8743 616.3806 600.8743 L 604.386 597.3465 L 601.5637 569.8294 C 601.5637 569.8294 600.1526 556.4237 600.1526 555.7181 C 600.1526 555.01255 592.39136 530.31776 592.39136 530.31776 L 583.219 504.9174 L 575.4578 512.6786 C 575.4578 512.6786 567.6966 532.43446 566.991 532.43446 C 566.28544 532.43446 563.4632 545.8402 563.4632 546.5458 C 563.4632 547.25133 563.4632 570.535 563.4632 570.535 L 557.1131 584.6463 L 543.0018 600.8743 L 529.59604 605.1077 C 529.59604 605.1077 519.01255 587.4686 517.6014 587.4686 C 516.1903 587.4686 501.3734 568.4183 501.3734 568.4183 L 492.90663 554.307 L 488.67324 534.55116 L 478.7953 516.20646 L 478.7953 497.1562 L 468.9174 503.5063 C 468.9174 503.5063 467.5063 518.32315 466.8007 519.0287 C 466.09515 519.7343 454.8061 543.01794 454.10053 543.01794 C 453.39497 543.01794 416 609.3411 416 609.3411 Z" fill="black"/>
        <path d="M 416 609.3411 L 434.3447 547.25133 C 434.3447 547.25133 457.62836 504.21184 457.62836 503.5063 C 457.62836 502.8007 479.5009 475.9892 479.5009 475.9892 L 493.6122 514.08976 C 493.6122 514.08976 509.8402 535.9623 511.25133 552.1903 C 512.66247 568.4183 535.9461 587.4686 535.9461 587.4686 C 535.9461 587.4686 552.1741 566.3016 552.1741 563.47934 C 552.1741 560.6571 550.763 540.1957 552.1741 531.7289 C 553.58526 523.2621 562.7576 503.5063 565.5799 502.8007 C 568.40214 502.09515 590.9802 495.74506 591.6858 496.4506 C 592.39136 497.1562 597.3303 493.62836 598.0359 501.3896 C 598.74145 509.1508 614.96945 559.9515 614.96945 561.36264 C 614.96945 562.7738 607.2082 607.92996 625.5529 584.6463 C 643.8976 561.36264 646.0143 552.89586 646.0143 552.89586 C 646.0143 552.89586 637.54755 514.7953 638.9587 496.4506 C 640.3698 478.1059 677.7648 452 678.47034 452 C 679.1759 452 700.3429 454.1167 701.0484 455.52783 C 701.754 456.93896 717.27644 508.44524 717.27644 517.6176 C 717.27644 526.78994 727.8599 562.7738 728.5655 574.0628 C 729.2711 585.3519 737.0323 585.3519 739.8545 585.3519 C 742.6768 585.3519 755.377 558.5404 756.0825 558.5404 C 756.7881 558.5404 765.9605 547.9569 766.666 547.9569 C 767.3716 547.9569 790.65525 544.4291 790.65525 544.4291 L 799.8276 547.25133 L 792.7719 549.368 L 776.5439 549.368 C 776.5439 549.368 767.3716 557.8348 766.666 557.8348 C 765.9605 557.8348 758.9048 571.9461 758.9048 571.9461 L 750.438 587.4686 L 734.21 593.81865 C 734.21 593.81865 720.0987 586.0574 720.0987 585.3519 C 720.0987 584.6463 719.3931 557.8348 719.3931 557.8348 L 710.2208 526.0844 C 710.2208 526.0844 705.2818 507.7397 704.5763 506.32854 C 703.8707 504.9174 696.81505 477.40036 696.81505 476.6948 C 696.81505 475.9892 688.3483 467.52244 687.6427 466.8169 C 686.9371 466.1113 674.23695 468.228 674.23695 468.228 L 657.3034 480.9282 L 648.8366 496.4506 L 648.8366 511.2675 C 648.8366 511.2675 653.77555 531.0233 654.4811 531.0233 C 655.1867 531.0233 655.1867 558.5404 655.1867 558.5404 C 655.1867 558.5404 653.77555 568.4183 652.3644 569.12386 C 650.9533 569.8294 638.9587 586.763 638.9587 587.4686 C 638.9587 588.1741 625.5529 600.8743 624.8474 600.8743 C 624.1418 600.8743 616.3806 600.8743 616.3806 600.8743 L 604.386 597.3465 L 601.5637 569.8294 C 601.5637 569.8294 600.1526 556.4237 600.1526 555.7181 C 600.1526 555.01255 592.39136 530.31776 592.39136 530.31776 L 583.219 504.9174 L 575.4578 512.6786 C 575.4578 512.6786 567.6966 532.43446 566.991 532.43446 C 566.28544 532.43446 563.4632 545.8402 563.4632 546.5458 C 563.4632 547.25133 563.4632 570.535 563.4632 570.535 L 557.1131 584.6463 L 543.0018 600.8743 L 529.59604 605.1077 C 529.59604 605.1077 519.01255 587.4686 517.6014 587.4686 C 516.1903 587.4686 501.3734 568.4183 501.3734 568.4183 L 492.90663 554.307 L 488.67324 534.55116 L 478.7953 516.20646 L 478.7953 497.1562 L 468.9174 503.5063 C 468.9174 503.5063 467.5063 518.32315 466.8007 519.0287 C 466.09515 519.7343 454.8061 543.01794 454.10053 543.01794 C 453.39497 543.01794 416 609.3411 416 609.3411 Z" stroke="black" stroke-linecap="round" stroke-linejoin="round" stroke-width="5"/>
      </g>
      <g id="Line_16">
        <path d="M 242.89934 629.35596 C 214.12865 649.24344 169.31931 666.1251 156.57864 689.0244 C 143.83796 711.9237 167.4506 750.0559 166.44764 766.7655 C 165.44468 783.4751 153.77603 785.38565 150.56027 789.2919 C 147.3445 793.1982 148.2874 789.9009 147.15115 790.2054" stroke="black" stroke-linecap="round" stroke-linejoin="round" stroke-width="7"/>
      </g>
      <g id="Line_15">
        <path d="M 307.67265 612 C 278.90196 631.8875 234.09263 648.7691 221.35195 671.6684 C 208.61128 694.5677 242.5209 725.6784 231.22096 749.4095 C 219.921 773.1406 156.7612 810.163 153.54545 814.0692 C 150.32969 817.9755 192.46674 786.588 211.92446 772.8494" stroke="#ff2c29" stroke-linecap="round" stroke-linejoin="round" stroke-width="7"/>
      </g>
      <g id="Graphic_14">
        <path d="M 242.5966 626.6556 L 242.5966 626.6556 C 244.20325 626.6556 245.5057 627.95806 245.5057 629.5647 L 245.5057 629.5647 C 245.5057 631.17135 244.20325 632.4738 242.5966 632.4738 L 242.5966 632.4738 C 240.98995 632.4738 239.6875 631.17135 239.6875 629.5647 L 239.6875 629.5647 C 239.6875 627.95806 240.98995 626.6556 242.5966 626.6556 Z" fill="#d4dfd7"/>
        <path d="M 242.5966 626.6556 L 242.5966 626.6556 C 244.20325 626.6556 245.5057 627.95806 245.5057 629.5647 L 245.5057 629.5647 C 245.5057 631.17135 244.20325 632.4738 242.5966 632.4738 L 242.5966 632.4738 C 240.98995 632.4738 239.6875 631.17135 239.6875 629.5647 L 239.6875 629.5647 C 239.6875 627.95806 240.98995 626.6556 242.5966 626.6556 Z" stroke="black" stroke-linecap="round" stroke-linejoin="round" stroke-width="1"/>
      </g>
      <g id="Graphic_12">
        <path d="M 175.24515 646.714 L 175.24515 612.314 C 175.24515 609.9404 205.45163 608.014 242.67032 608.014 C 279.88902 608.014 310.0955 609.9404 310.0955 612.314 L 310.0955 646.714 C 310.0955 649.0876 279.88902 651.014 242.67032 651.014 C 205.45163 651.014 175.24515 649.0876 175.24515 646.714" fill="#8080ff"/>
        <path d="M 175.24515 646.714 L 175.24515 612.314 C 175.24515 609.9404 205.45163 608.014 242.67032 608.014 C 279.88902 608.014 310.0955 609.9404 310.0955 612.314 L 310.0955 646.714 C 310.0955 649.0876 279.88902 651.014 242.67032 651.014 C 205.45163 651.014 175.24515 649.0876 175.24515 646.714 M 175.24515 612.314 C 175.24515 614.6876 205.45163 616.614 242.67032 616.614 C 279.88902 616.614 310.0955 614.6876 310.0955 612.314" stroke="black" stroke-linecap="round" stroke-linejoin="round" stroke-width="7"/>
      </g>
      <g id="Graphic_13">
        <path d="M 217 657.7 L 217 623.3 C 217 620.9264 247.20648 619 284.42517 619 C 321.64386 619 351.85034 620.9264 351.85034 623.3 L 351.85034 657.7 C 351.85034 660.0736 321.64386 662 284.42517 662 C 247.20648 662 217 660.0736 217 657.7" fill="#8080ff"/>
        <path d="M 217 657.7 L 217 623.3 C 217 620.9264 247.20648 619 284.42517 619 C 321.64386 619 351.85034 620.9264 351.85034 623.3 L 351.85034 657.7 C 351.85034 660.0736 321.64386 662 284.42517 662 C 247.20648 662 217 660.0736 217 657.7 M 217 623.3 C 217 625.6736 247.20648 627.6 284.42517 627.6 C 321.64386 627.6 351.85034 625.6736 351.85034 623.3" stroke="black" stroke-linecap="round" stroke-linejoin="round" stroke-width="7"/>
      </g>
      <g id="Graphic_10">
        <path d="M 805.8276 571 L 787.4829 633.08976 C 787.4829 633.08976 764.1992 676.12925 764.1992 676.8348 C 764.1992 677.5404 742.3267 704.3519 742.3267 704.3519 L 728.2154 666.2513 C 728.2154 666.2513 711.9874 644.3788 710.5763 628.1508 C 709.1651 611.9228 685.8815 592.8725 685.8815 592.8725 C 685.8815 592.8725 669.6535 614.0395 669.6535 616.86175 C 669.6535 619.684 671.0646 640.1454 669.6535 648.6122 C 668.2423 657.079 659.07 676.8348 656.2477 677.5404 C 653.4255 678.24595 630.8474 684.596 630.1418 683.8905 C 629.43624 683.1849 624.4973 686.7127 623.7917 678.9515 C 623.08615 671.1903 606.85815 620.3896 606.85815 618.97845 C 606.85815 617.5673 614.6194 572.4111 596.27466 595.6948 C 577.92996 618.97845 575.8133 627.4452 575.8133 627.4452 C 575.8133 627.4452 584.28005 665.5458 582.8689 683.8905 C 581.4578 702.2352 544.0628 728.3411 543.35726 728.3411 C 542.6517 728.3411 521.4847 726.2244 520.77916 724.8133 C 520.0736 723.4021 504.55116 671.89586 504.55116 662.7235 C 504.55116 653.55116 493.9677 617.5673 493.2621 606.2783 C 492.55654 594.9892 484.7953 594.9892 481.97306 594.9892 C 479.1508 594.9892 466.4506 621.8007 465.74506 621.8007 C 465.0395 621.8007 455.86714 632.3842 455.1616 632.3842 C 454.456 632.3842 431.17235 635.912 431.17235 635.912 L 422 633.08976 L 429.05565 630.9731 L 445.28366 630.9731 C 445.28366 630.9731 454.456 622.5063 455.1616 622.5063 C 455.86714 622.5063 462.9228 608.395 462.9228 608.395 L 471.3896 592.8725 L 487.6176 586.52244 C 487.6176 586.52244 501.7289 594.28366 501.7289 594.9892 C 501.7289 595.6948 502.43446 622.5063 502.43446 622.5063 L 511.6068 654.2567 C 511.6068 654.2567 516.5458 672.6014 517.25133 674.01255 C 517.9569 675.4237 525.01255 702.9407 525.01255 703.6463 C 525.01255 704.3519 533.47934 712.81865 534.1849 713.5242 C 534.8905 714.2298 547.59065 712.1131 547.59065 712.1131 L 564.5242 699.4129 L 572.991 683.8905 L 572.991 669.0736 C 572.991 669.0736 568.05205 649.3178 567.3465 649.3178 C 566.6409 649.3178 566.6409 621.8007 566.6409 621.8007 C 566.6409 621.8007 568.05205 611.9228 569.4632 611.2172 C 570.8743 610.5117 582.8689 593.5781 582.8689 592.8725 C 582.8689 592.16696 596.27466 579.4668 596.9802 579.4668 C 597.6858 579.4668 605.447 579.4668 605.447 579.4668 L 617.4416 582.9946 L 620.2639 610.5117 C 620.2639 610.5117 621.675 623.9174 621.675 624.623 C 621.675 625.32854 629.43624 650.0233 629.43624 650.0233 L 638.6086 675.4237 L 646.3698 667.6625 C 646.3698 667.6625 654.131 647.9066 654.8366 647.9066 C 655.5422 647.9066 658.3644 634.5009 658.3644 633.7953 C 658.3644 633.08976 658.3644 609.8061 658.3644 609.8061 L 664.7145 595.6948 L 678.8258 579.4668 L 692.2316 575.2334 C 692.2316 575.2334 702.81505 592.8725 704.2262 592.8725 C 705.6373 592.8725 720.4542 611.9228 720.4542 611.9228 L 728.921 626.0341 L 733.1544 645.7899 L 743.0323 664.1346 L 743.0323 683.1849 L 752.9102 676.8348 C 752.9102 676.8348 754.3213 662.01794 755.0269 661.3124 C 755.73245 660.6068 767.0215 637.32315 767.7271 637.32315 C 768.4326 637.32315 805.8276 571 805.8276 571 Z" fill="black"/>
        <path d="M 805.8276 571 L 787.4829 633.08976 C 787.4829 633.08976 764.1992 676.12925 764.1992 676.8348 C 764.1992 677.5404 742.3267 704.3519 742.3267 704.3519 L 728.2154 666.2513 C 728.2154 666.2513 711.9874 644.3788 710.5763 628.1508 C 709.1651 611.9228 685.8815 592.8725 685.8815 592.8725 C 685.8815 592.8725 669.6535 614.0395 669.6535 616.86175 C 669.6535 619.684 671.0646 640.1454 669.6535 648.6122 C 668.2423 657.079 659.07 676.8348 656.2477 677.5404 C 653.4255 678.24595 630.8474 684.596 630.1418 683.8905 C 629.43624 683.1849 624.4973 686.7127 623.7917 678.9515 C 623.08615 671.1903 606.85815 620.3896 606.85815 618.97845 C 606.85815 617.5673 614.6194 572.4111 596.27466 595.6948 C 577.92996 618.97845 575.8133 627.4452 575.8133 627.4452 C 575.8133 627.4452 584.28005 665.5458 582.8689 683.8905 C 581.4578 702.2352 544.0628 728.3411 543.35726 728.3411 C 542.6517 728.3411 521.4847 726.2244 520.77916 724.8133 C 520.0736 723.4021 504.55116 671.89586 504.55116 662.7235 C 504.55116 653.55116 493.9677 617.5673 493.2621 606.2783 C 492.55654 594.9892 484.7953 594.9892 481.97306 594.9892 C 479.1508 594.9892 466.4506 621.8007 465.74506 621.8007 C 465.0395 621.8007 455.86714 632.3842 455.1616 632.3842 C 454.456 632.3842 431.17235 635.912 431.17235 635.912 L 422 633.08976 L 429.05565 630.9731 L 445.28366 630.9731 C 445.28366 630.9731 454.456 622.5063 455.1616 622.5063 C 455.86714 622.5063 462.9228 608.395 462.9228 608.395 L 471.3896 592.8725 L 487.6176 586.52244 C 487.6176 586.52244 501.7289 594.28366 501.7289 594.9892 C 501.7289 595.6948 502.43446 622.5063 502.43446 622.5063 L 511.6068 654.2567 C 511.6068 654.2567 516.5458 672.6014 517.25133 674.01255 C 517.9569 675.4237 525.01255 702.9407 525.01255 703.6463 C 525.01255 704.3519 533.47934 712.81865 534.1849 713.5242 C 534.8905 714.2298 547.59065 712.1131 547.59065 712.1131 L 564.5242 699.4129 L 572.991 683.8905 L 572.991 669.0736 C 572.991 669.0736 568.05205 649.3178 567.3465 649.3178 C 566.6409 649.3178 566.6409 621.8007 566.6409 621.8007 C 566.6409 621.8007 568.05205 611.9228 569.4632 611.2172 C 570.8743 610.5117 582.8689 593.5781 582.8689 592.8725 C 582.8689 592.16696 596.27466 579.4668 596.9802 579.4668 C 597.6858 579.4668 605.447 579.4668 605.447 579.4668 L 617.4416 582.9946 L 620.2639 610.5117 C 620.2639 610.5117 621.675 623.9174 621.675 624.623 C 621.675 625.32854 629.43624 650.0233 629.43624 650.0233 L 638.6086 675.4237 L 646.3698 667.6625 C 646.3698 667.6625 654.131 647.9066 654.8366 647.9066 C 655.5422 647.9066 658.3644 634.5009 658.3644 633.7953 C 658.3644 633.08976 658.3644 609.8061 658.3644 609.8061 L 664.7145 595.6948 L 678.8258 579.4668 L 692.2316 575.2334 C 692.2316 575.2334 702.81505 592.8725 704.2262 592.8725 C 705.6373 592.8725 720.4542 611.9228 720.4542 611.9228 L 728.921 626.0341 L 733.1544 645.7899 L 743.0323 664.1346 L 743.0323 683.1849 L 752.9102 676.8348 C 752.9102 676.8348 754.3213 662.01794 755.0269 661.3124 C 755.73245 660.6068 767.0215 637.32315 767.7271 637.32315 C 768.4326 637.32315 805.8276 571 805.8276 571 Z" stroke="black" stroke-linecap="round" stroke-linejoin="round" stroke-width="5"/>
      </g>
      <g id="Graphic_11">
        <path d="M 184 611.9 L 184 339.1 C 184 320.2768 287.264 305 414.5 305 C 541.736 305 645 320.2768 645 339.1 L 645 611.9 C 645 630.7232 541.736 646 414.5 646 C 287.264 646 184 630.7232 184 611.9" fill="#8080ff"/>
        <path d="M 184 611.9 L 184 339.1 C 184 320.2768 287.264 305 414.5 305 C 541.736 305 645 320.2768 645 339.1 L 645 611.9 C 645 630.7232 541.736 646 414.5 646 C 287.264 646 184 630.7232 184 611.9 M 184 339.1 C 184 357.9232 287.264 373.2 414.5 373.2 C 541.736 373.2 645 357.9232 645 339.1" stroke="black" stroke-linecap="round" stroke-linejoin="round" stroke-width="7"/>
      </g>
      <g id="Graphic_17">
        <path d="M 118 708.23525 L 136.3447 646.1455 C 136.3447 646.1455 159.62836 603.106 159.62836 602.40044 C 159.62836 601.6949 181.5009 574.8834 181.5009 574.8834 L 195.6122 612.9839 C 195.6122 612.9839 211.8402 634.85645 213.25133 651.08445 C 214.66247 667.31246 237.94613 686.3627 237.94613 686.3627 C 237.94613 686.3627 254.17413 665.1958 254.17413 662.3735 C 254.17413 659.5512 252.763 639.08984 254.17413 630.62305 C 255.58526 622.1563 264.7576 602.40044 267.57987 601.6949 C 270.40214 600.9893 292.98023 594.6392 293.6858 595.3448 C 294.39136 596.05035 299.33032 592.5225 300.0359 600.28374 C 300.74145 608.04496 316.96945 658.8457 316.96945 660.2568 C 316.96945 661.6679 309.20824 706.8241 327.55294 683.5405 C 345.89764 660.2568 348.01433 651.79 348.01433 651.79 C 348.01433 651.79 339.54755 613.6895 340.9587 595.3448 C 342.3698 577.0001 379.7648 550.89416 380.47034 550.89416 C 381.1759 550.89416 402.34287 553.01086 403.04844 554.422 C 403.754 555.8331 419.27644 607.3394 419.27644 616.51175 C 419.27644 625.6841 429.85993 661.6679 430.5655 672.957 C 431.27106 684.246 439.0323 684.246 441.85454 684.246 C 444.6768 684.246 457.377 657.43454 458.08254 657.43454 C 458.7881 657.43454 467.96046 646.85106 468.666 646.85106 C 469.3716 646.85106 492.65525 643.3232 492.65525 643.3232 L 501.8276 646.1455 L 494.77195 648.2622 L 478.54394 648.2622 C 478.54394 648.2622 469.3716 656.729 468.666 656.729 C 467.96046 656.729 460.9048 670.8403 460.9048 670.8403 L 452.438 686.3627 L 436.21 692.7128 C 436.21 692.7128 422.0987 684.9516 422.0987 684.246 C 422.0987 683.5405 421.39314 656.729 421.39314 656.729 L 412.2208 624.9785 C 412.2208 624.9785 407.28183 606.6338 406.57627 605.2227 C 405.8707 603.8116 398.81505 576.2945 398.81505 575.58895 C 398.81505 574.8834 390.34826 566.4166 389.6427 565.71103 C 388.93713 565.0055 376.23695 567.12216 376.23695 567.12216 L 359.3034 579.82234 L 350.8366 595.3448 L 350.8366 610.16166 C 350.8366 610.16166 355.77555 629.9175 356.4811 629.9175 C 357.1867 629.9175 357.1867 657.43454 357.1867 657.43454 C 357.1867 657.43454 355.77555 667.31246 354.36442 668.018 C 352.9533 668.7236 340.9587 685.65716 340.9587 686.3627 C 340.9587 687.0683 327.55294 699.7685 326.84737 699.7685 C 326.1418 699.7685 318.3806 699.7685 318.3806 699.7685 L 306.38597 696.2406 L 303.5637 668.7236 C 303.5637 668.7236 302.15258 655.31784 302.15258 654.6123 C 302.15258 653.9067 294.39136 629.2119 294.39136 629.2119 L 285.219 603.8116 L 277.4578 611.5728 C 277.4578 611.5728 269.69657 631.3286 268.991 631.3286 C 268.28544 631.3286 265.46318 644.7344 265.46318 645.4399 C 265.46318 646.1455 265.46318 669.42915 265.46318 669.42915 L 259.1131 683.5405 L 245.00178 699.7685 L 231.59604 704.0019 C 231.59604 704.0019 221.01255 686.3627 219.60142 686.3627 C 218.1903 686.3627 203.37342 667.31246 203.37342 667.31246 L 194.90663 653.20115 L 190.67324 633.4453 L 180.79532 615.1006 L 180.79532 596.05035 L 170.9174 602.40044 C 170.9174 602.40044 169.50628 617.2173 168.80071 617.9229 C 168.09515 618.62844 156.8061 641.9121 156.10053 641.9121 C 155.39497 641.9121 118 708.23525 118 708.23525 Z" fill="black"/>
        <path d="M 118 708.23525 L 136.3447 646.1455 C 136.3447 646.1455 159.62836 603.106 159.62836 602.40044 C 159.62836 601.6949 181.5009 574.8834 181.5009 574.8834 L 195.6122 612.9839 C 195.6122 612.9839 211.8402 634.85645 213.25133 651.08445 C 214.66247 667.31246 237.94613 686.3627 237.94613 686.3627 C 237.94613 686.3627 254.17413 665.1958 254.17413 662.3735 C 254.17413 659.5512 252.763 639.08984 254.17413 630.62305 C 255.58526 622.1563 264.7576 602.40044 267.57987 601.6949 C 270.40214 600.9893 292.98023 594.6392 293.6858 595.3448 C 294.39136 596.05035 299.33032 592.5225 300.0359 600.28374 C 300.74145 608.04496 316.96945 658.8457 316.96945 660.2568 C 316.96945 661.6679 309.20824 706.8241 327.55294 683.5405 C 345.89764 660.2568 348.01433 651.79 348.01433 651.79 C 348.01433 651.79 339.54755 613.6895 340.9587 595.3448 C 342.3698 577.0001 379.7648 550.89416 380.47034 550.89416 C 381.1759 550.89416 402.34287 553.01086 403.04844 554.422 C 403.754 555.8331 419.27644 607.3394 419.27644 616.51175 C 419.27644 625.6841 429.85993 661.6679 430.5655 672.957 C 431.27106 684.246 439.0323 684.246 441.85454 684.246 C 444.6768 684.246 457.377 657.43454 458.08254 657.43454 C 458.7881 657.43454 467.96046 646.85106 468.666 646.85106 C 469.3716 646.85106 492.65525 643.3232 492.65525 643.3232 L 501.8276 646.1455 L 494.77195 648.2622 L 478.54394 648.2622 C 478.54394 648.2622 469.3716 656.729 468.666 656.729 C 467.96046 656.729 460.9048 670.8403 460.9048 670.8403 L 452.438 686.3627 L 436.21 692.7128 C 436.21 692.7128 422.0987 684.9516 422.0987 684.246 C 422.0987 683.5405 421.39314 656.729 421.39314 656.729 L 412.2208 624.9785 C 412.2208 624.9785 407.28183 606.6338 406.57627 605.2227 C 405.8707 603.8116 398.81505 576.2945 398.81505 575.58895 C 398.81505 574.8834 390.34826 566.4166 389.6427 565.71103 C 388.93713 565.0055 376.23695 567.12216 376.23695 567.12216 L 359.3034 579.82234 L 350.8366 595.3448 L 350.8366 610.16166 C 350.8366 610.16166 355.77555 629.9175 356.4811 629.9175 C 357.1867 629.9175 357.1867 657.43454 357.1867 657.43454 C 357.1867 657.43454 355.77555 667.31246 354.36442 668.018 C 352.9533 668.7236 340.9587 685.65716 340.9587 686.3627 C 340.9587 687.0683 327.55294 699.7685 326.84737 699.7685 C 326.1418 699.7685 318.3806 699.7685 318.3806 699.7685 L 306.38597 696.2406 L 303.5637 668.7236 C 303.5637 668.7236 302.15258 655.31784 302.15258 654.6123 C 302.15258 653.9067 294.39136 629.2119 294.39136 629.2119 L 285.219 603.8116 L 277.4578 611.5728 C 277.4578 611.5728 269.69657 631.3286 268.991 631.3286 C 268.28544 631.3286 265.46318 644.7344 265.46318 645.4399 C 265.46318 646.1455 265.46318 669.42915 265.46318 669.42915 L 259.1131 683.5405 L 245.00178 699.7685 L 231.59604 704.0019 C 231.59604 704.0019 221.01255 686.3627 219.60142 686.3627 C 218.1903 686.3627 203.37342 667.31246 203.37342 667.31246 L 194.90663 653.20115 L 190.67324 633.4453 L 180.79532 615.1006 L 180.79532 596.05035 L 170.9174 602.40044 C 170.9174 602.40044 169.50628 617.2173 168.80071 617.9229 C 168.09515 618.62844 156.8061 641.9121 156.10053 641.9121 C 155.39497 641.9121 118 708.23525 118 708.23525 Z" stroke="black" stroke-linecap="round" stroke-linejoin="round" stroke-width="5"/>
      </g>
      <g id="Graphic_20">
        <path d="M 42 608.014 L 52.183267 573.5475 C 52.183267 573.5475 65.10818 549.656 65.10818 549.26435 C 65.10818 548.8727 77.24977 533.98945 77.24977 533.98945 L 85.08305 555.1393 C 85.08305 555.1393 94.09132 567.2809 94.87465 576.2892 C 95.65798 585.29745 108.5829 595.8724 108.5829 595.8724 C 108.5829 595.8724 117.59117 584.12245 117.59117 582.5558 C 117.59117 580.98914 116.80784 569.6309 117.59117 564.9309 C 118.3745 560.23094 123.46613 549.26435 125.03279 548.8727 C 126.59945 548.481 139.1327 544.95604 139.52436 545.3477 C 139.91602 545.7394 142.65767 543.78105 143.04934 548.08936 C 143.441 552.39766 152.44928 580.5975 152.44928 581.3808 C 152.44928 582.1641 148.14097 607.2306 158.32424 594.3057 C 168.5075 581.3808 169.6825 576.68084 169.6825 576.68084 C 169.6825 576.68084 164.98253 555.531 165.76585 545.3477 C 166.54918 535.16444 187.30738 520.6729 187.69904 520.6729 C 188.0907 520.6729 199.84063 521.84786 200.2323 522.6312 C 200.62396 523.4145 209.24057 552.006 209.24057 557.0976 C 209.24057 562.18926 215.11553 582.1641 215.5072 588.43076 C 215.89886 594.6974 220.20716 594.6974 221.77382 594.6974 C 223.34048 594.6974 230.39043 579.81415 230.7821 579.81415 C 231.17376 579.81415 236.2654 573.9392 236.65706 573.9392 C 237.04872 573.9392 249.97364 571.9809 249.97364 571.9809 L 255.06527 573.5475 L 251.14863 574.7225 L 242.14035 574.7225 C 242.14035 574.7225 237.04872 579.4225 236.65706 579.4225 C 236.2654 579.4225 232.34875 587.2558 232.34875 587.2558 L 227.64878 595.8724 L 218.6405 599.39735 C 218.6405 599.39735 210.80723 595.08905 210.80723 594.6974 C 210.80723 594.3057 210.41556 579.4225 210.41556 579.4225 L 205.32393 561.7976 C 205.32393 561.7976 202.58228 551.61433 202.19062 550.831 C 201.79895 550.0477 197.8823 534.7728 197.8823 534.3811 C 197.8823 533.98945 193.18234 529.2895 192.79068 528.8978 C 192.39901 528.50615 185.34906 529.68114 185.34906 529.68114 L 175.94912 536.7311 L 171.24915 545.3477 L 171.24915 553.57265 C 171.24915 553.57265 173.9908 564.53925 174.38247 564.53925 C 174.77413 564.53925 174.77413 579.81415 174.77413 579.81415 C 174.77413 579.81415 173.9908 585.29745 173.20747 585.6891 C 172.42414 586.0808 165.76585 595.4807 165.76585 595.8724 C 165.76585 596.26404 158.32424 603.314 157.93257 603.314 C 157.5409 603.314 153.2326 603.314 153.2326 603.314 L 146.57431 601.3557 L 145.00766 586.0808 C 145.00766 586.0808 144.22433 578.63916 144.22433 578.2475 C 144.22433 577.8558 139.91602 564.1476 139.91602 564.1476 L 134.82439 550.0477 L 130.51609 554.356 C 130.51609 554.356 126.20778 565.3226 125.81612 565.3226 C 125.42445 565.3226 123.8578 572.7642 123.8578 573.15586 C 123.8578 573.5475 123.8578 586.47244 123.8578 586.47244 L 120.33282 594.3057 L 112.49954 603.314 L 105.05792 605.664 C 105.05792 605.664 99.18296 595.8724 98.39963 595.8724 C 97.6163 595.8724 89.39136 585.29745 89.39136 585.29745 L 84.69139 577.46416 L 82.3414 566.4976 L 76.858105 556.3143 L 76.858105 545.7394 L 71.37481 549.26435 C 71.37481 549.26435 70.59148 557.4893 70.199815 557.88096 C 69.80815 558.2726 63.541525 571.19754 63.14986 571.19754 C 62.7582 571.19754 42 608.014 42 608.014 Z" fill="black"/>
        <path d="M 42 608.014 L 52.183267 573.5475 C 52.183267 573.5475 65.10818 549.656 65.10818 549.26435 C 65.10818 548.8727 77.24977 533.98945 77.24977 533.98945 L 85.08305 555.1393 C 85.08305 555.1393 94.09132 567.2809 94.87465 576.2892 C 95.65798 585.29745 108.5829 595.8724 108.5829 595.8724 C 108.5829 595.8724 117.59117 584.12245 117.59117 582.5558 C 117.59117 580.98914 116.80784 569.6309 117.59117 564.9309 C 118.3745 560.23094 123.46613 549.26435 125.03279 548.8727 C 126.59945 548.481 139.1327 544.95604 139.52436 545.3477 C 139.91602 545.7394 142.65767 543.78105 143.04934 548.08936 C 143.441 552.39766 152.44928 580.5975 152.44928 581.3808 C 152.44928 582.1641 148.14097 607.2306 158.32424 594.3057 C 168.5075 581.3808 169.6825 576.68084 169.6825 576.68084 C 169.6825 576.68084 164.98253 555.531 165.76585 545.3477 C 166.54918 535.16444 187.30738 520.6729 187.69904 520.6729 C 188.0907 520.6729 199.84063 521.84786 200.2323 522.6312 C 200.62396 523.4145 209.24057 552.006 209.24057 557.0976 C 209.24057 562.18926 215.11553 582.1641 215.5072 588.43076 C 215.89886 594.6974 220.20716 594.6974 221.77382 594.6974 C 223.34048 594.6974 230.39043 579.81415 230.7821 579.81415 C 231.17376 579.81415 236.2654 573.9392 236.65706 573.9392 C 237.04872 573.9392 249.97364 571.9809 249.97364 571.9809 L 255.06527 573.5475 L 251.14863 574.7225 L 242.14035 574.7225 C 242.14035 574.7225 237.04872 579.4225 236.65706 579.4225 C 236.2654 579.4225 232.34875 587.2558 232.34875 587.2558 L 227.64878 595.8724 L 218.6405 599.39735 C 218.6405 599.39735 210.80723 595.08905 210.80723 594.6974 C 210.80723 594.3057 210.41556 579.4225 210.41556 579.4225 L 205.32393 561.7976 C 205.32393 561.7976 202.58228 551.61433 202.19062 550.831 C 201.79895 550.0477 197.8823 534.7728 197.8823 534.3811 C 197.8823 533.98945 193.18234 529.2895 192.79068 528.8978 C 192.39901 528.50615 185.34906 529.68114 185.34906 529.68114 L 175.94912 536.7311 L 171.24915 545.3477 L 171.24915 553.57265 C 171.24915 553.57265 173.9908 564.53925 174.38247 564.53925 C 174.77413 564.53925 174.77413 579.81415 174.77413 579.81415 C 174.77413 579.81415 173.9908 585.29745 173.20747 585.6891 C 172.42414 586.0808 165.76585 595.4807 165.76585 595.8724 C 165.76585 596.26404 158.32424 603.314 157.93257 603.314 C 157.5409 603.314 153.2326 603.314 153.2326 603.314 L 146.57431 601.3557 L 145.00766 586.0808 C 145.00766 586.0808 144.22433 578.63916 144.22433 578.2475 C 144.22433 577.8558 139.91602 564.1476 139.91602 564.1476 L 134.82439 550.0477 L 130.51609 554.356 C 130.51609 554.356 126.20778 565.3226 125.81612 565.3226 C 125.42445 565.3226 123.8578 572.7642 123.8578 573.15586 C 123.8578 573.5475 123.8578 586.47244 123.8578 586.47244 L 120.33282 594.3057 L 112.49954 603.314 L 105.05792 605.664 C 105.05792 605.664 99.18296 595.8724 98.39963 595.8724 C 97.6163 595.8724 89.39136 585.29745 89.39136 585.29745 L 84.69139 577.46416 L 82.3414 566.4976 L 76.858105 556.3143 L 76.858105 545.7394 L 71.37481 549.26435 C 71.37481 549.26435 70.59148 557.4893 70.199815 557.88096 C 69.80815 558.2726 63.541525 571.19754 63.14986 571.19754 C 62.7582 571.19754 42 608.014 42 608.014 Z" stroke="black" stroke-linecap="round" stroke-linejoin="round" stroke-width="5"/>
      </g>
    </g>
  </g>
</svg>
