<?xml version="1.0" encoding="UTF-8" standalone="no"?>
<!DOCTYPE svg PUBLIC "-//W3C//DTD SVG 1.1//EN" "http://www.w3.org/Graphics/SVG/1.1/DTD/svg11.dtd">
<svg xmlns:dc="http://purl.org/dc/elements/1.1/" xmlns:xl="http://www.w3.org/1999/xlink" version="1.1" xmlns="http://www.w3.org/2000/svg" viewBox="0 0 850.394 850.394" width="850.394" height="850.394">
  <defs>
    <marker orient="auto" overflow="visible" markerUnits="strokeWidth" id="FilledArrow_Marker" stroke-linejoin="miter" stroke-miterlimit="10" viewBox="-1 -2 5 4" markerWidth="5" markerHeight="4" color="black">
      <g>
        <path d="M 2.6666667 0 L 0 -1 L 0 1 Z" fill="currentColor" stroke="currentColor" stroke-width="1"/>
      </g>
    </marker>
    <marker orient="auto" overflow="visible" markerUnits="strokeWidth" id="FilledArrow_Marker_2" stroke-linejoin="miter" stroke-miterlimit="10" viewBox="-1 -2 5 4" markerWidth="5" markerHeight="4" color="#666">
      <g>
        <path d="M 2.6666667 0 L 0 -1 L 0 1 Z" fill="currentColor" stroke="currentColor" stroke-width="1"/>
      </g>
    </marker>
    <marker orient="auto" overflow="visible" markerUnits="strokeWidth" id="FilledArrow_Marker_3" stroke-linejoin="miter" stroke-miterlimit="10" viewBox="-1 -2 5 4" markerWidth="5" markerHeight="4" color="#a5a5a5">
      <g>
        <path d="M 2.6666667 0 L 0 -1 L 0 1 Z" fill="currentColor" stroke="currentColor" stroke-width="1"/>
      </g>
    </marker>
    <marker orient="auto" overflow="visible" markerUnits="strokeWidth" id="FilledArrow_Marker_4" stroke-linejoin="miter" stroke-miterlimit="10" viewBox="-5 -3 6 6" markerWidth="6" markerHeight="6" color="#666">
      <g>
        <path d="M -3.2 0 L 0 1.2 L 0 -1.2 Z" fill="currentColor" stroke="currentColor" stroke-width="1"/>
      </g>
    </marker>
    <marker orient="auto" overflow="visible" markerUnits="strokeWidth" id="FilledArrow_Marker_5" stroke-linejoin="miter" stroke-miterlimit="10" viewBox="-5 -3 6 6" markerWidth="6" markerHeight="6" color="#a5a5a5">
      <g>
        <path d="M -3.2 0 L 0 1.2 L 0 -1.2 Z" fill="currentColor" stroke="currentColor" stroke-width="1"/>
      </g>
    </marker>
    <marker orient="auto" overflow="visible" markerUnits="strokeWidth" id="FilledArrow_Marker_6" stroke-linejoin="miter" stroke-miterlimit="10" viewBox="-5 -3 6 6" markerWidth="6" markerHeight="6" color="black">
      <g>
        <path d="M -3.2 0 L 0 1.2 L 0 -1.2 Z" fill="currentColor" stroke="currentColor" stroke-width="1"/>
      </g>
    </marker>
  </defs>
  <metadata> Produced by OmniGraffle 7.9.4 
    <dc:date>2019-08-05 00:11:58 +0000</dc:date>
  </metadata>
  <g id="swoop" fill="none" stroke-opacity="1" stroke="none" stroke-dasharray="none" fill-opacity="1">
    <title>swoop</title>
    <g id="swoop: Layer 1">
      <title>Layer 1</title>
      <g id="Graphic_8">
        <path d="M 377.22103 526.2517 L 437.2692 383.84604 C 437.4035 383.52766 437.6179 383.2495 437.89167 383.03864 L 529.8112 312.2395 C 530.68626 311.5655 531.94205 311.7285 532.61607 312.60357 C 533.2132 313.37883 533.1617 314.4723 532.4943 315.188 L 467.91713 384.4385 C 467.1638 385.24634 467.208 386.5119 468.01584 387.2652 C 468.52017 387.7355 469.2312 387.9128 469.8973 387.7344 L 501.9888 379.13875 C 503.05575 378.85297 504.15236 379.48624 504.43815 380.5532 C 504.61656 381.2193 504.43925 381.9303 503.96895 382.43465 L 466.6275 422.47843 C 465.8742 423.28626 465.9184 424.5518 466.72623 425.30513 C 467.3008 425.8409 468.13577 425.9907 468.8607 425.68806 L 494.28503 415.07425 C 495.30434 414.6487 496.4756 415.1301 496.90115 416.1494 C 497.2038 416.87435 497.054 417.70934 496.5182 418.2839 L 458.4046 459.15576 C 457.65127 459.9636 457.69546 461.22915 458.5033 461.98246 C 458.8034 462.2623 459.1823 462.4431 459.58867 462.50025 L 475.4387 464.7301 C 476.5325 464.88396 477.2945 465.8954 477.1406 466.9892 C 477.0706 467.48683 476.8158 467.93986 476.427 468.2582 L 422.4285 512.4616 C 422.2629 512.5972 422.07655 512.7053 421.87664 512.78185 L 379.7789 528.8966 C 378.7473 529.29147 377.59094 528.7753 377.19606 527.74375 C 377.01158 527.2618 377.0205 526.7272 377.22103 526.2517 Z" fill="#ab7942"/>
        <path d="M 377.22103 526.2517 L 437.2692 383.84604 C 437.4035 383.52766 437.6179 383.2495 437.89167 383.03864 L 529.8112 312.2395 C 530.68626 311.5655 531.94205 311.7285 532.61607 312.60357 C 533.2132 313.37883 533.1617 314.4723 532.4943 315.188 L 467.91713 384.4385 C 467.1638 385.24634 467.208 386.5119 468.01584 387.2652 C 468.52017 387.7355 469.2312 387.9128 469.8973 387.7344 L 501.9888 379.13875 C 503.05575 378.85297 504.15236 379.48624 504.43815 380.5532 C 504.61656 381.2193 504.43925 381.9303 503.96895 382.43465 L 466.6275 422.47843 C 465.8742 423.28626 465.9184 424.5518 466.72623 425.30513 C 467.3008 425.8409 468.13577 425.9907 468.8607 425.68806 L 494.28503 415.07425 C 495.30434 414.6487 496.4756 415.1301 496.90115 416.1494 C 497.2038 416.87435 497.054 417.70934 496.5182 418.2839 L 458.4046 459.15576 C 457.65127 459.9636 457.69546 461.22915 458.5033 461.98246 C 458.8034 462.2623 459.1823 462.4431 459.58867 462.50025 L 475.4387 464.7301 C 476.5325 464.88396 477.2945 465.8954 477.1406 466.9892 C 477.0706 467.48683 476.8158 467.93986 476.427 468.2582 L 422.4285 512.4616 C 422.2629 512.5972 422.07655 512.7053 421.87664 512.78185 L 379.7789 528.8966 C 378.7473 529.29147 377.59094 528.7753 377.19606 527.74375 C 377.01158 527.2618 377.0205 526.7272 377.22103 526.2517 Z" stroke="black" stroke-linecap="round" stroke-linejoin="round" stroke-width="1"/>
      </g>
      <g id="Graphic_6">
        <path d="M 273.00794 572.87565 L 230.76252 606.7996 C 230.3319 607.1454 230.26313 607.7748 230.60893 608.2054 C 230.91485 608.5864 231.45126 608.6905 231.87749 608.45166 L 273.72424 585.00264 C 274.20604 584.73266 274.81547 584.9044 275.08545 585.3862 C 275.2946 585.7594 275.24313 586.22435 274.95742 586.5428 L 239.54037 626.01954 C 239.17156 626.4306 239.20583 627.0629 239.61692 627.4317 C 239.96467 627.7437 240.4821 627.7733 240.8632 627.50304 L 297.43765 587.38195 C 297.8642 587.07946 297.98567 586.4994 297.71635 586.0512 L 290.73323 574.42935 C 290.5669 574.1525 290.2771 573.9731 289.95518 573.9475 L 273.71318 572.6585 C 273.459 572.6383 273.20674 572.716 273.00794 572.87565 Z" fill="yellow"/>
        <path d="M 273.00794 572.87565 L 230.76252 606.7996 C 230.3319 607.1454 230.26313 607.7748 230.60893 608.2054 C 230.91485 608.5864 231.45126 608.6905 231.87749 608.45166 L 273.72424 585.00264 C 274.20604 584.73266 274.81547 584.9044 275.08545 585.3862 C 275.2946 585.7594 275.24313 586.22435 274.95742 586.5428 L 239.54037 626.01954 C 239.17156 626.4306 239.20583 627.0629 239.61692 627.4317 C 239.96467 627.7437 240.4821 627.7733 240.8632 627.50304 L 297.43765 587.38195 C 297.8642 587.07946 297.98567 586.4994 297.71635 586.0512 L 290.73323 574.42935 C 290.5669 574.1525 290.2771 573.9731 289.95518 573.9475 L 273.71318 572.6585 C 273.459 572.6383 273.20674 572.716 273.00794 572.87565 Z" stroke="black" stroke-linecap="round" stroke-linejoin="round" stroke-width="1"/>
      </g>
      <g id="Graphic_4">
        <path d="M 464.1178 551.5265 L 442.44864 575.8936 C 442.3142 576.0448 442.1576 576.1747 441.9842 576.2789 L 407.34205 597.094 C 407.18276 597.1897 407.0376 597.30716 406.9107 597.44294 L 402.13185 602.5579 C 401.69906 603.0211 401.72373 603.7475 402.18696 604.18026 C 402.55076 604.52016 403.0922 604.5868 403.52754 604.3452 L 417.9526 596.341 C 418.91846 595.8051 420.1359 596.1536 420.6718 597.11945 C 420.94813 597.6174 420.99905 598.20955 420.8118 598.7474 L 419.71693 601.8925 C 419.35377 602.9356 419.90503 604.0757 420.9482 604.4388 C 421.6033 604.6669 422.3298 604.5392 422.8679 604.10145 L 435.59407 593.7481 C 436.4509 593.051 437.7106 593.1805 438.40767 594.0373 C 438.7424 594.4488 438.9 594.9764 438.84575 595.50404 L 438.57253 598.1616 C 438.4838 599.02444 439.1114 599.7958 439.9742 599.8845 C 440.59467 599.9483 441.19407 599.6389 441.50143 599.0962 L 450.7786 582.7149 C 450.8094 582.6605 450.8428 582.60754 450.87856 582.55625 L 471.65505 552.7714 C 472.2685 551.89196 472.05287 550.6818 471.17345 550.06834 C 470.71056 549.74544 470.13007 549.63997 469.5832 549.7794 L 465.1183 550.9175 C 464.7315 551.0161 464.38303 551.2282 464.1178 551.5265 Z" fill="yellow"/>
        <path d="M 464.1178 551.5265 L 442.44864 575.8936 C 442.3142 576.0448 442.1576 576.1747 441.9842 576.2789 L 407.34205 597.094 C 407.18276 597.1897 407.0376 597.30716 406.9107 597.44294 L 402.13185 602.5579 C 401.69906 603.0211 401.72373 603.7475 402.18696 604.18026 C 402.55076 604.52016 403.0922 604.5868 403.52754 604.3452 L 417.9526 596.341 C 418.91846 595.8051 420.1359 596.1536 420.6718 597.11945 C 420.94813 597.6174 420.99905 598.20955 420.8118 598.7474 L 419.71693 601.8925 C 419.35377 602.9356 419.90503 604.0757 420.9482 604.4388 C 421.6033 604.6669 422.3298 604.5392 422.8679 604.10145 L 435.59407 593.7481 C 436.4509 593.051 437.7106 593.1805 438.40767 594.0373 C 438.7424 594.4488 438.9 594.9764 438.84575 595.50404 L 438.57253 598.1616 C 438.4838 599.02444 439.1114 599.7958 439.9742 599.8845 C 440.59467 599.9483 441.19407 599.6389 441.50143 599.0962 L 450.7786 582.7149 C 450.8094 582.6605 450.8428 582.60754 450.87856 582.55625 L 471.65505 552.7714 C 472.2685 551.89196 472.05287 550.6818 471.17345 550.06834 C 470.71056 549.74544 470.13007 549.63997 469.5832 549.7794 L 465.1183 550.9175 C 464.7315 551.0161 464.38303 551.2282 464.1178 551.5265 Z" stroke="black" stroke-linecap="round" stroke-linejoin="round" stroke-width="1"/>
      </g>
      <g id="Graphic_5">
        <path d="M 480.4228 538.68144 L 474.95893 570.8288 C 474.92504 571.0283 474.86107 571.2214 474.7692 571.4017 L 456.42135 607.4114 C 456.337 607.577 456.2761 607.7535 456.24047 607.9359 L 454.89826 614.806 C 454.7767 615.4282 455.18255 616.03114 455.80473 616.1527 C 456.29337 616.24816 456.78784 616.01774 457.029 615.5822 L 465.0206 601.1501 C 465.5557 600.1838 466.7728 599.8342 467.7391 600.3693 C 468.2373 600.6452 468.5943 601.12036 468.7205 601.6757 L 469.45864 604.9231 C 469.70346 606.0002 470.7751 606.67486 471.8522 606.43004 C 472.5286 606.2763 473.07705 605.783 473.3014 605.1266 L 478.60735 589.6026 C 478.9646 588.5574 480.1015 587.9997 481.1467 588.35695 C 481.6486 588.5285 482.06184 588.8924 482.29545 589.36864 L 483.47204 591.7672 C 483.85405 592.5459 484.795 592.8675 485.57374 592.4855 C 486.1337 592.2108 486.4781 591.6308 486.45113 591.00764 L 485.6379 572.1994 C 485.6352 572.1369 485.6354 572.07434 485.63856 572.0119 L 487.47445 535.743 C 487.52865 534.67215 486.7045 533.7601 485.63364 533.7059 C 485.07 533.6774 484.5218 533.89554 484.1319 534.3036 L 480.94857 537.6348 C 480.6728 537.9234 480.4897 538.2879 480.4228 538.68144 Z" fill="yellow"/>
        <path d="M 480.4228 538.68144 L 474.95893 570.8288 C 474.92504 571.0283 474.86107 571.2214 474.7692 571.4017 L 456.42135 607.4114 C 456.337 607.577 456.2761 607.7535 456.24047 607.9359 L 454.89826 614.806 C 454.7767 615.4282 455.18255 616.03114 455.80473 616.1527 C 456.29337 616.24816 456.78784 616.01774 457.029 615.5822 L 465.0206 601.1501 C 465.5557 600.1838 466.7728 599.8342 467.7391 600.3693 C 468.2373 600.6452 468.5943 601.12036 468.7205 601.6757 L 469.45864 604.9231 C 469.70346 606.0002 470.7751 606.67486 471.8522 606.43004 C 472.5286 606.2763 473.07705 605.783 473.3014 605.1266 L 478.60735 589.6026 C 478.9646 588.5574 480.1015 587.9997 481.1467 588.35695 C 481.6486 588.5285 482.06184 588.8924 482.29545 589.36864 L 483.47204 591.7672 C 483.85405 592.5459 484.795 592.8675 485.57374 592.4855 C 486.1337 592.2108 486.4781 591.6308 486.45113 591.00764 L 485.6379 572.1994 C 485.6352 572.1369 485.6354 572.07434 485.63856 572.0119 L 487.47445 535.743 C 487.52865 534.67215 486.7045 533.7601 485.63364 533.7059 C 485.07 533.6774 484.5218 533.89554 484.1319 534.3036 L 480.94857 537.6348 C 480.6728 537.9234 480.4897 538.2879 480.4228 538.68144 Z" stroke="black" stroke-linecap="round" stroke-linejoin="round" stroke-width="1"/>
      </g>
      <g id="Graphic_3">
        <path d="M 440.57687 502.1119 L 381.19995 503.8638 C 379.0127 503.9283 376.85844 504.4145 374.8555 505.2957 L 328.4461 525.71325 C 327.57604 526.096 326.6754 526.40515 325.7537 526.6374 L 297.17114 533.8389 C 294.8833 534.4153 292.7405 535.46165 290.8791 536.9113 L 272.79705 550.9935 C 269.37892 553.6555 267.1061 557.5221 266.4429 561.8035 L 265.68203 566.7152 C 264.89756 571.7793 268.3669 576.52054 273.431 577.305 C 274.1381 577.41455 274.85552 577.4419 275.5689 577.3866 L 280.91758 576.97176 C 285.5597 576.6117 290.04487 578.7391 292.7031 582.56175 L 292.7031 582.56175 C 295.11797 586.0345 299.8118 587.04016 303.43748 584.8616 L 319.47698 575.2241 C 319.9174 574.9595 320.36962 574.71495 320.8322 574.4913 L 366.59666 552.3624 C 368.74634 551.3229 371.0909 550.748 373.47757 550.675 L 392.5396 550.0922 C 396.39617 549.9743 400.17814 551.1718 403.264 553.488 L 419.09637 565.37116 C 423.50304 568.67865 429.2394 569.6453 434.48664 567.9647 L 490.3135 550.0842 C 491.8628 549.588 493.3328 548.872 494.6786 547.95806 L 522.4774 529.08033 C 522.4774 529.08033 544.0684 500.9409 543.5534 500.08373 C 543.03836 499.22657 626.19096 460.9298 627.9053 459.8997 C 629.6196 458.8696 670.256 444.95253 671.1132 444.4375 C 671.9703 443.92245 607.3185 448.9368 606.46136 449.45185 C 605.6042 449.9669 566.3437 470.05706 566.3437 470.05706 L 525.2677 473.66924 C 523.8472 473.79416 522.44804 474.0973 521.1032 474.57155 L 445.7292 501.15163 C 444.0717 501.7361 442.3336 502.06007 440.57687 502.1119 Z" fill="#ab6f4e"/>
        <path d="M 440.57687 502.1119 L 381.19995 503.8638 C 379.0127 503.9283 376.85844 504.4145 374.8555 505.2957 L 328.4461 525.71325 C 327.57604 526.096 326.6754 526.40515 325.7537 526.6374 L 297.17114 533.8389 C 294.8833 534.4153 292.7405 535.46165 290.8791 536.9113 L 272.79705 550.9935 C 269.37892 553.6555 267.1061 557.5221 266.4429 561.8035 L 265.68203 566.7152 C 264.89756 571.7793 268.3669 576.52054 273.431 577.305 C 274.1381 577.41455 274.85552 577.4419 275.5689 577.3866 L 280.91758 576.97176 C 285.5597 576.6117 290.04487 578.7391 292.7031 582.56175 L 292.7031 582.56175 C 295.11797 586.0345 299.8118 587.04016 303.43748 584.8616 L 319.47698 575.2241 C 319.9174 574.9595 320.36962 574.71495 320.8322 574.4913 L 366.59666 552.3624 C 368.74634 551.3229 371.0909 550.748 373.47757 550.675 L 392.5396 550.0922 C 396.39617 549.9743 400.17814 551.1718 403.264 553.488 L 419.09637 565.37116 C 423.50304 568.67865 429.2394 569.6453 434.48664 567.9647 L 490.3135 550.0842 C 491.8628 549.588 493.3328 548.872 494.6786 547.95806 L 522.4774 529.08033 C 522.4774 529.08033 544.0684 500.9409 543.5534 500.08373 C 543.03836 499.22657 626.19096 460.9298 627.9053 459.8997 C 629.6196 458.8696 670.256 444.95253 671.1132 444.4375 C 671.9703 443.92245 607.3185 448.9368 606.46136 449.45185 C 605.6042 449.9669 566.3437 470.05706 566.3437 470.05706 L 525.2677 473.66924 C 523.8472 473.79416 522.44804 474.0973 521.1032 474.57155 L 445.7292 501.15163 C 444.0717 501.7361 442.3336 502.06007 440.57687 502.1119 Z" stroke="black" stroke-linecap="round" stroke-linejoin="round" stroke-width="1"/>
      </g>
      <g id="Graphic_2">
        <path d="M 400.74834 537.3407 L 497.7227 417.00315 C 497.9395 416.7341 498.2223 416.5258 498.54356 416.3986 L 606.41714 373.67855 C 607.4441 373.27185 608.6063 373.77467 609.013 374.80164 C 609.3733 375.71146 609.0224 376.7484 608.1836 377.25238 L 527.02003 426.0204 C 526.07323 426.58927 525.7669 427.818 526.3358 428.7648 C 526.69093 429.35587 527.32554 429.7223 528.015 429.7344 L 561.2326 430.31734 C 562.337 430.3367 563.2166 431.2477 563.1972 432.3521 C 563.1851 433.0416 562.8187 433.6762 562.2276 434.03137 L 515.29516 462.2312 C 514.34835 462.8001 514.042 464.02884 514.6109 464.97564 C 515.0155 465.649 515.77686 466.02316 516.55715 465.93207 L 543.9221 462.7373 C 545.01924 462.60923 546.01247 463.3948 546.14055 464.4919 C 546.23165 465.2722 545.8575 466.03355 545.1841 466.43816 L 497.2811 495.2212 C 496.3343 495.7901 496.02796 497.0188 496.59686 497.9656 C 496.8082 498.31733 497.1226 498.59555 497.49746 498.7625 L 512.1189 505.2748 C 513.1279 505.72423 513.58155 506.9065 513.13214 507.9155 C 512.9277 508.3746 512.5579 508.73984 512.0964 508.93864 L 448.0056 536.5457 C 447.809 536.6304 447.6001 536.683 447.38685 536.70143 L 402.47807 540.5882 C 401.3776 540.68344 400.4083 539.86855 400.31307 538.7681 C 400.26857 538.25396 400.42453 537.7425 400.74834 537.3407 Z" fill="#ab7942"/>
        <path d="M 400.74834 537.3407 L 497.7227 417.00315 C 497.9395 416.7341 498.2223 416.5258 498.54356 416.3986 L 606.41714 373.67855 C 607.4441 373.27185 608.6063 373.77467 609.013 374.80164 C 609.3733 375.71146 609.0224 376.7484 608.1836 377.25238 L 527.02003 426.0204 C 526.07323 426.58927 525.7669 427.818 526.3358 428.7648 C 526.69093 429.35587 527.32554 429.7223 528.015 429.7344 L 561.2326 430.31734 C 562.337 430.3367 563.2166 431.2477 563.1972 432.3521 C 563.1851 433.0416 562.8187 433.6762 562.2276 434.03137 L 515.29516 462.2312 C 514.34835 462.8001 514.042 464.02884 514.6109 464.97564 C 515.0155 465.649 515.77686 466.02316 516.55715 465.93207 L 543.9221 462.7373 C 545.01924 462.60923 546.01247 463.3948 546.14055 464.4919 C 546.23165 465.2722 545.8575 466.03355 545.1841 466.43816 L 497.2811 495.2212 C 496.3343 495.7901 496.02796 497.0188 496.59686 497.9656 C 496.8082 498.31733 497.1226 498.59555 497.49746 498.7625 L 512.1189 505.2748 C 513.1279 505.72423 513.58155 506.9065 513.13214 507.9155 C 512.9277 508.3746 512.5579 508.73984 512.0964 508.93864 L 448.0056 536.5457 C 447.809 536.6304 447.6001 536.683 447.38685 536.70143 L 402.47807 540.5882 C 401.3776 540.68344 400.4083 539.86855 400.31307 538.7681 C 400.26857 538.25396 400.42453 537.7425 400.74834 537.3407 Z" stroke="black" stroke-linecap="round" stroke-linejoin="round" stroke-width="1"/>
      </g>
      <g id="Graphic_7">
        <path d="M 303.32656 554.6145 C 302.93976 553.97075 293.51092 559.63617 293.51092 559.63617 L 291.89572 554.0356 C 290.99978 550.92903 292.76344 547.6785 295.85625 546.73615 L 304.68226 544.0469 C 304.9102 543.97745 305.15125 544.1059 305.2207 544.33385 C 305.2784 544.5232 305.19986 544.7275 305.0302 544.8294 L 302.03012 546.63204 C 302.03012 546.63204 303.71335 555.2582 303.32656 554.6145 Z" fill="black"/>
        <path d="M 303.32656 554.6145 C 302.93976 553.97075 293.51092 559.63617 293.51092 559.63617 L 291.89572 554.0356 C 290.99978 550.92903 292.76344 547.6785 295.85625 546.73615 L 304.68226 544.0469 C 304.9102 543.97745 305.15125 544.1059 305.2207 544.33385 C 305.2784 544.5232 305.19986 544.7275 305.0302 544.8294 L 302.03012 546.63204 C 302.03012 546.63204 303.71335 555.2582 303.32656 554.6145 Z" stroke="black" stroke-linecap="round" stroke-linejoin="round" stroke-width="1"/>
      </g>
      <g id="Line_9">
        <path d="M 785.4615 28 L 828.5334 115.7717 C 837.4485 133.93904 840.642 154.38373 837.6917 174.40442 L 825.6665 256.0083 C 822.903 274.76154 814.8662 292.3431 802.493 306.70363 L 742.8114 375.97123 C 734.9898 385.0491 725.6003 392.6473 715.09075 398.4035 L 664.9158 425.8848" marker-end="url(#FilledArrow_Marker)" stroke="black" stroke-linecap="round" stroke-linejoin="round" stroke-width="6"/>
      </g>
      <g id="Line_12">
        <path d="M 751.3846 28 L 794.4564 115.7717 C 803.3716 133.93904 806.565 154.38373 803.6148 174.40442 L 791.5895 256.0083 C 788.826 274.76154 780.7893 292.3431 768.4161 306.70363 L 708.7345 375.97123 C 700.9129 385.0491 691.5234 392.6473 681.0138 398.4035 L 630.8389 425.8848" marker-end="url(#FilledArrow_Marker_2)" stroke="#666" stroke-linecap="round" stroke-linejoin="round" stroke-width="6"/>
      </g>
      <g id="Line_13">
        <path d="M 735.3846 28 L 771.889 91.60119 C 783.0664 111.07549 787.3645 133.74491 784.091 155.95904 L 772.5895 234.0083 C 769.826 252.76154 761.7893 270.3431 749.4161 284.70363 L 689.7345 353.97123 C 681.9129 363.0491 672.5234 370.6473 662.0138 376.4035 L 611.8389 403.8848" marker-end="url(#FilledArrow_Marker_3)" stroke="#a5a5a5" stroke-linecap="round" stroke-linejoin="round" stroke-width="6"/>
      </g>
      <g id="Line_14">
        <path d="M 78.29899 557.53234 L 83.20452 577.7676 C 87.15837 594.0773 95.15329 609.1296 106.45268 621.5377 L 131.23916 648.7564 C 145.33983 664.2407 163.94606 674.9072 184.43316 679.2513 L 203.71444 683.3397 C 231.5784 689.248 260.63964 682.9936 283.60623 666.14595 L 369.82627 602.89725 C 370.42238 602.45996 371.0233 602.0293 371.62897 601.6053 L 389.95123 588.77976" marker-start="url(#FilledArrow_Marker_4)" stroke="#666" stroke-linecap="round" stroke-linejoin="round" stroke-dasharray="16.0,16.0" stroke-width="4"/>
      </g>
      <g id="Line_15">
        <path d="M 78.29899 544.4967 L 83.20452 564.73196 C 87.15837 581.0416 95.15329 596.0939 106.45268 608.50206 L 131.23916 635.7207 C 145.33983 651.205 163.94606 661.8715 184.43316 666.2156 L 203.71444 670.304 C 231.5784 676.2123 260.63964 669.958 283.60623 653.1103 L 369.82627 589.8616 C 370.42238 589.4243 371.0233 588.99364 371.62897 588.5697 L 389.95123 575.7441" marker-start="url(#FilledArrow_Marker_5)" stroke="#a5a5a5" stroke-linecap="round" stroke-linejoin="round" stroke-dasharray="16.0,16.0" stroke-width="4"/>
      </g>
      <g id="Line_11">
        <path d="M 79.10211 556.88524 L 85.29391 606.3779 C 87.85562 626.8542 96.68935 646.0366 110.58356 661.2942 L 131.23916 683.9766 C 145.33983 699.4609 163.94606 710.1274 184.43316 714.4715 L 203.71444 718.5599 C 231.5784 724.4682 260.63964 718.2139 283.60623 701.3662 L 369.82627 638.1175 C 370.42238 637.6802 371.0233 637.24954 371.62897 636.8256 L 389.95123 624" marker-start="url(#FilledArrow_Marker_6)" stroke="black" stroke-linecap="round" stroke-linejoin="round" stroke-dasharray="16.0,16.0" stroke-width="4"/>
      </g>
    </g>
  </g>
</svg>
