<?xml version="1.0" encoding="UTF-8" standalone="no"?>
<!DOCTYPE svg PUBLIC "-//W3C//DTD SVG 1.1//EN" "http://www.w3.org/Graphics/SVG/1.1/DTD/svg11.dtd">
<svg xmlns:xl="http://www.w3.org/1999/xlink" xmlns:dc="http://purl.org/dc/elements/1.1/" xmlns="http://www.w3.org/2000/svg" version="1.1" viewBox="0 0 850.394 850.394" width="850.394" height="850.394">
  <defs/>
  <metadata> Produced by OmniGraffle 7.9.4 
    <dc:date>2019-03-14 13:58:15 +0000</dc:date>
  </metadata>
  <g id="symbols" fill-opacity="1" stroke-dasharray="none" stroke-opacity="1" stroke="none" fill="none">
    <title>symbols</title>
    <g id="symbols: Layer 1">
      <title>Layer 1</title>
      <g id="Graphic_54">
        <path d="M 69.96363 183.34156 L 424.46056 88.35439 C 466.3925 77.11877 530.8201 181.43902 568.2722 321.2121 C 605.72425 460.98517 602.08844 583.54296 560.1565 594.7786 L 205.65958 689.76575 C 163.72766 701.0014 99.30006 596.6811 61.84798 456.90805 C 24.395893 317.13497 28.031706 194.57718 69.96363 183.34156 Z" fill="black"/>
        <path d="M 69.96363 183.34156 L 424.46056 88.35439 C 466.3925 77.11877 530.8201 181.43902 568.2722 321.2121 C 605.72425 460.98517 602.08844 583.54296 560.1565 594.7786 L 205.65958 689.76575 C 163.72766 701.0014 99.30006 596.6811 61.84798 456.90805 C 24.395893 317.13497 28.031706 194.57718 69.96363 183.34156 Z" stroke="black" stroke-linecap="round" stroke-linejoin="round" stroke-width="11"/>
      </g>
      <g id="Graphic_53">
        <path d="M 96.14182 214.65463 L 407.63465 131.19037 C 444.4798 121.31775 501.0917 212.98288 534.00044 335.80006 C 566.9092 458.61723 563.71445 566.3075 526.8693 576.18014 L 215.37647 659.6444 C 178.53132 669.517 121.91944 577.8519 89.01068 455.0347 C 56.10192 332.21753 59.29667 224.52726 96.14182 214.65463 Z" fill="#fffab7"/>
        <path d="M 96.14182 214.65463 L 407.63465 131.19037 C 444.4798 121.31775 501.0917 212.98288 534.00044 335.80006 C 566.9092 458.61723 563.71445 566.3075 526.8693 576.18014 L 215.37647 659.6444 C 178.53132 669.517 121.91944 577.8519 89.01068 455.0347 C 56.10192 332.21753 59.29667 224.52726 96.14182 214.65463 Z" stroke="black" stroke-linecap="round" stroke-linejoin="round" stroke-width="11"/>
      </g>
      <g id="Graphic_43">
        <path d="M 304.75187 260.3412 L 354.2192 317.50257 L 518.41355 321.23 L 384.7917 352.83023 L 434.25906 409.9916 L 347.79565 333.79902 L 168.58705 403.96047 L 220.59738 349.1028 L 88.5472 311.47144 L 252.74154 315.1989 Z" fill="#40ff40"/>
        <path d="M 304.75187 260.3412 L 354.2192 317.50257 L 518.41355 321.23 L 384.7917 352.83023 L 434.25906 409.9916 L 347.79565 333.79902 L 168.58705 403.96047 L 220.59738 349.1028 L 88.5472 311.47144 L 252.74154 315.1989 Z" stroke="black" stroke-linecap="round" stroke-linejoin="round" stroke-width="6"/>
      </g>
      <g id="Graphic_42">
        <path d="M 120.0878 412.9542 L 209.8443 414.9918 L 210.61441 381.06816 L 300.31707 383.10454 L 299.54695 417.0282 L 389.30345 419.0658 L 388.5338 452.9691 L 298.7773 450.9315 L 298.0072 484.85513 L 208.30453 482.81875 L 209.07465 448.8951 L 119.31815 446.8575 Z" fill="#4040ff"/>
        <path d="M 120.0878 412.9542 L 209.8443 414.9918 L 210.61441 381.06816 L 300.31707 383.10454 L 299.54695 417.0282 L 389.30345 419.0658 L 388.5338 452.9691 L 298.7773 450.9315 L 298.0072 484.85513 L 208.30453 482.81875 L 209.07465 448.8951 L 119.31815 446.8575 Z" stroke="black" stroke-linecap="round" stroke-linejoin="round" stroke-width="6"/>
      </g>
      <g id="Graphic_41">
        <path d="M 151.16438 317.10316 L 157.95388 319.4165 L 368.21077 517.4674 L 370.92554 524.1066 L 343.1701 553.57264 L 336.3806 551.2593 L 222.82883 389.0656 L 126.1237 353.20838 L 123.40893 346.5692 Z" fill="aqua"/>
        <path d="M 151.16438 317.10316 L 157.95388 319.4165 L 368.21077 517.4674 L 370.92554 524.1066 L 343.1701 553.57264 L 336.3806 551.2593 L 222.82883 389.0656 L 126.1237 353.20838 L 123.40893 346.5692 Z" stroke="black" stroke-linecap="round" stroke-linejoin="round" stroke-width="6"/>
      </g>
      <g id="Graphic_40">
        <path d="M 272.39486 386.5644 C 288.32925 415.924 302.4781 297.36175 302.4781 297.36175 C 302.4781 297.36175 317.95107 373.872 303.25668 403.87146 C 288.56237 433.8711 263.733 434.38976 247.7987 405.02996 C 231.8643 375.6703 230.8591 327.5503 245.55348 297.5508 C 260.2478 267.5512 256.46056 357.2046 272.39486 386.5644 Z" fill="#c0c0ff"/>
        <path d="M 272.39486 386.5644 C 288.32925 415.924 302.4781 297.36175 302.4781 297.36175 C 302.4781 297.36175 317.95107 373.872 303.25668 403.87146 C 288.56237 433.8711 263.733 434.38976 247.7987 405.02996 C 231.8643 375.6703 230.8591 327.5503 245.55348 297.5508 C 260.2478 267.5512 256.46056 357.2046 272.39486 386.5644 Z" stroke="black" stroke-linecap="round" stroke-linejoin="round" stroke-width="6"/>
      </g>
      <g id="Graphic_39">
        <path d="M 227.4962 219.28953 L 434.298 346.9721 L 286.2471 282.7427 L 244.71413 334.9382 Z" fill="#ff4040"/>
        <path d="M 227.4962 219.28953 L 434.298 346.9721 L 286.2471 282.7427 L 244.71413 334.9382 Z" stroke="black" stroke-linecap="round" stroke-linejoin="round" stroke-width="6"/>
      </g>
      <g id="Graphic_38">
        <path d="M 347.8104 311.56056 L 392.49005 405.93823 L 497.781 440.07326 L 467.6848 475.19463 C 426.45564 432.25065 351.4193 398.40626 313.9522 351.0721 Z" fill="#ffc0ff"/>
        <path d="M 347.8104 311.56056 L 392.49005 405.93823 L 497.781 440.07326 L 467.6848 475.19463 C 426.45564 432.25065 351.4193 398.40626 313.9522 351.0721 Z" stroke="black" stroke-linecap="round" stroke-linejoin="round" stroke-width="6"/>
      </g>
      <g id="Graphic_37">
        <path d="M 452.64505 473.51825 L 370.38873 574.59645 L 288.9403 459.9007 L 402.42034 512.6656 L 451.3283 435.10503 Z" fill="#ffff40"/>
        <path d="M 452.64505 473.51825 L 370.38873 574.59645 L 288.9403 459.9007 L 402.42034 512.6656 L 451.3283 435.10503 Z" stroke="black" stroke-linecap="round" stroke-linejoin="round" stroke-width="6"/>
      </g>
      <g id="Graphic_36">
        <path d="M 309.7309 278.83116 L 353.39707 329.28906 L 498.3359 332.57937 L 380.38425 360.47375 L 424.0504 410.93164 L 347.7268 343.67438 L 189.5345 405.6078 L 235.44544 357.18343 L 118.88114 323.9652 L 263.81996 327.25553 Z" fill="fuchsia"/>
        <path d="M 309.7309 278.83116 L 353.39707 329.28906 L 498.3359 332.57937 L 380.38425 360.47375 L 424.0504 410.93164 L 347.7268 343.67438 L 189.5345 405.6078 L 235.44544 357.18343 L 118.88114 323.9652 L 263.81996 327.25553 Z" stroke="black" stroke-linecap="round" stroke-linejoin="round" stroke-width="6"/>
      </g>
      <g id="Graphic_35">
        <path d="M 146.72289 413.5468 L 225.9534 415.34547 L 226.6332 385.40014 L 305.81617 387.1977 L 305.13637 417.14303 L 384.3669 418.94167 L 383.6875 448.86904 L 304.45698 447.0704 L 303.77718 477.0157 L 224.5942 475.21816 L 225.274 445.27283 L 146.0435 443.4742 Z" fill="#40ff40"/>
        <path d="M 146.72289 413.5468 L 225.9534 415.34547 L 226.6332 385.40014 L 305.81617 387.1977 L 305.13637 417.14303 L 384.3669 418.94167 L 383.6875 448.86904 L 304.45698 447.0704 L 303.77718 477.0157 L 224.5942 475.21816 L 225.274 445.27283 L 146.0435 443.4742 Z" stroke="black" stroke-linecap="round" stroke-linejoin="round" stroke-width="6"/>
      </g>
      <g id="Graphic_34">
        <path d="M 174.15503 328.9365 L 180.1483 330.97853 L 365.7478 505.8035 L 368.1442 511.6641 L 343.6437 537.67454 L 337.65044 535.6325 L 237.4152 392.4597 L 152.05094 360.80754 L 149.65454 354.94695 Z" fill="fuchsia"/>
        <path d="M 174.15503 328.9365 L 180.1483 330.97853 L 365.7478 505.8035 L 368.1442 511.6641 L 343.6437 537.67454 L 337.65044 535.6325 L 237.4152 392.4597 L 152.05094 360.80754 L 149.65454 354.94695 Z" stroke="black" stroke-linecap="round" stroke-linejoin="round" stroke-width="6"/>
      </g>
      <g id="Graphic_33">
        <path d="M 281.1685 390.2518 C 295.2342 416.16835 307.72377 311.5102 307.72377 311.5102 C 307.72377 311.5102 321.3822 379.0479 308.41105 405.52923 C 295.44 432.0107 273.5224 432.46856 259.45677 406.55187 C 245.39105 380.6353 244.50372 338.15845 257.47486 311.6771 C 270.44593 285.1956 267.10284 364.3351 281.1685 390.2518 Z" fill="#c0c0ff"/>
        <path d="M 281.1685 390.2518 C 295.2342 416.16835 307.72377 311.5102 307.72377 311.5102 C 307.72377 311.5102 321.3822 379.0479 308.41105 405.52923 C 295.44 432.0107 273.5224 432.46856 259.45677 406.55187 C 245.39105 380.6353 244.50372 338.15845 257.47486 311.6771 C 270.44593 285.1956 267.10284 364.3351 281.1685 390.2518 Z" stroke="black" stroke-linecap="round" stroke-linejoin="round" stroke-width="6"/>
      </g>
      <g id="Graphic_32">
        <path d="M 241.5352 242.59372 L 424.0848 355.3026 L 293.39624 298.60558 L 256.73394 344.67995 Z" fill="lime"/>
        <path d="M 241.5352 242.59372 L 424.0848 355.3026 L 293.39624 298.60558 L 256.73394 344.67995 Z" stroke="black" stroke-linecap="round" stroke-linejoin="round" stroke-width="6"/>
      </g>
      <g id="Graphic_31">
        <path d="M 347.73983 324.04388 L 387.17978 407.3536 L 480.12296 437.48554 L 453.55623 468.48814 C 417.16213 430.5803 350.9255 400.70494 317.85226 358.9218 Z" fill="#ffc0ff"/>
        <path d="M 347.73983 324.04388 L 387.17978 407.3536 L 480.12296 437.48554 L 453.55623 468.48814 C 417.16213 430.5803 350.9255 400.70494 317.85226 358.9218 Z" stroke="black" stroke-linecap="round" stroke-linejoin="round" stroke-width="6"/>
      </g>
      <g id="Graphic_30">
        <path d="M 440.28024 467.00835 L 367.67034 556.23284 L 295.7736 454.98777 L 395.9455 501.5648 L 439.1179 433.09995 Z" fill="#4040ff"/>
        <path d="M 440.28024 467.00835 L 367.67034 556.23284 L 295.7736 454.98777 L 395.9455 501.5648 L 439.1179 433.09995 Z" stroke="black" stroke-linecap="round" stroke-linejoin="round" stroke-width="6"/>
      </g>
      <g id="Graphic_29">
        <path d="M 320.7112 296.81676 L 358.5762 340.5712 L 484.2595 343.42437 L 381.97808 367.6129 L 419.8431 411.3673 L 353.65928 353.04537 L 216.48323 406.75077 L 256.29478 364.7597 L 155.21637 335.95463 L 280.89967 338.8078 Z" fill="#40ff40"/>
        <path d="M 320.7112 296.81676 L 358.5762 340.5712 L 484.2595 343.42437 L 381.97808 367.6129 L 419.8431 411.3673 L 353.65928 353.04537 L 216.48323 406.75077 L 256.29478 364.7597 L 155.21637 335.95463 L 280.89967 338.8078 Z" stroke="black" stroke-linecap="round" stroke-linejoin="round" stroke-width="6"/>
      </g>
      <g id="Graphic_28">
        <path d="M 179.35927 413.63507 L 248.06378 415.19476 L 248.65327 389.22775 L 317.31658 390.7865 L 316.7271 416.7535 L 385.4316 418.3132 L 384.84248 444.26463 L 316.13796 442.70495 L 315.54847 468.67196 L 246.88516 467.1132 L 247.47465 441.1462 L 178.77013 439.5865 Z" fill="#4040ff"/>
        <path d="M 179.35927 413.63507 L 248.06378 415.19476 L 248.65327 389.22775 L 317.31658 390.7865 L 316.7271 416.7535 L 385.4316 418.3132 L 384.84248 444.26463 L 316.13796 442.70495 L 315.54847 468.67196 L 246.88516 467.1132 L 247.47465 441.1462 L 178.77013 439.5865 Z" stroke="black" stroke-linecap="round" stroke-linejoin="round" stroke-width="6"/>
      </g>
      <g id="Graphic_27">
        <path d="M 203.14697 340.26545 L 208.34402 342.0362 L 369.28612 493.6352 L 371.36416 498.7172 L 350.11862 521.2721 L 344.92157 519.50134 L 258.00285 395.3494 L 183.97948 367.90235 L 181.90144 362.82036 Z" fill="aqua"/>
        <path d="M 203.14697 340.26545 L 208.34402 342.0362 L 369.28612 493.6352 L 371.36416 498.7172 L 350.11862 521.2721 L 344.92157 519.50134 L 258.00285 395.3494 L 183.97948 367.90235 L 181.90144 362.82036 Z" stroke="black" stroke-linecap="round" stroke-linejoin="round" stroke-width="6"/>
      </g>
      <g id="Graphic_26">
        <path d="M 295.9434 393.43485 C 308.14044 415.90833 318.97074 325.1543 318.97074 325.1543 C 318.97074 325.1543 330.8146 383.7194 319.5667 406.68264 C 308.3189 429.646 289.31313 430.043 277.11614 407.5694 C 264.9191 385.09594 264.14965 348.26225 275.39754 325.299 C 286.64536 302.33567 283.7464 370.96126 295.9434 393.43485 Z" fill="#c0c0ff"/>
        <path d="M 295.9434 393.43485 C 308.14044 415.90833 318.97074 325.1543 318.97074 325.1543 C 318.97074 325.1543 330.8146 383.7194 319.5667 406.68264 C 308.3189 429.646 289.31313 430.043 277.11614 407.5694 C 264.9191 385.09594 264.14965 348.26225 275.39754 325.299 C 286.64536 302.33567 283.7464 370.96126 295.9434 393.43485 Z" stroke="black" stroke-linecap="round" stroke-linejoin="round" stroke-width="6"/>
      </g>
      <g id="Graphic_25">
        <path d="M 261.5755 265.39356 L 419.8729 363.12875 L 306.54666 313.9641 L 274.75505 353.91735 Z" fill="#ff4040"/>
        <path d="M 261.5755 265.39356 L 419.8729 363.12875 L 306.54666 313.9641 L 274.75505 353.91735 Z" stroke="black" stroke-linecap="round" stroke-linejoin="round" stroke-width="6"/>
      </g>
      <g id="Graphic_24">
        <path d="M 353.67056 336.02284 L 387.8708 408.26466 L 468.46623 434.39347 L 445.42897 461.2773 C 413.8699 428.4056 356.43302 402.49927 327.75364 366.26713 Z" fill="#ffc0ff"/>
        <path d="M 353.67056 336.02284 L 387.8708 408.26466 L 468.46623 434.39347 L 445.42897 461.2773 C 413.8699 428.4056 356.43302 402.49927 327.75364 366.26713 Z" stroke="black" stroke-linecap="round" stroke-linejoin="round" stroke-width="6"/>
      </g>
      <g id="Graphic_23">
        <path d="M 433.91673 459.9941 L 370.95325 537.36486 L 308.60818 449.5705 L 395.472 489.9596 L 432.9088 430.5905 Z" fill="#ffff40"/>
        <path d="M 433.91673 459.9941 L 370.95325 537.36486 L 308.60818 449.5705 L 395.472 489.9596 L 432.9088 430.5905 Z" stroke="black" stroke-linecap="round" stroke-linejoin="round" stroke-width="6"/>
      </g>
      <g id="Graphic_22">
        <path d="M 442.41576 363.29747 L 403.3934 420.8745 L 439.18217 567.6912 L 379.27624 456.45905 L 340.25387 514.0361 L 387.38006 419.04637 L 282.3464 276.48165 L 343.48746 309.64235 L 345.48593 183.32006 L 381.2747 330.13678 Z" fill="#40ff40"/>
        <path d="M 442.41576 363.29747 L 403.3934 420.8745 L 439.18217 567.6912 L 379.27624 456.45905 L 340.25387 514.0361 L 387.38006 419.04637 L 282.3464 276.48165 L 343.48746 309.64235 L 345.48593 183.32006 L 381.2747 330.13678 Z" stroke="black" stroke-linecap="round" stroke-linejoin="round" stroke-width="6"/>
      </g>
      <g id="Graphic_21">
        <path d="M 262.80344 235.51934 L 282.3673 315.7764 L 312.7006 308.3822 L 332.25274 388.5911 L 301.91943 395.9853 L 321.4833 476.24237 L 291.16817 483.63213 L 271.6043 403.37507 L 241.271 410.76928 L 221.71887 330.56036 L 252.05218 323.16616 L 232.48832 242.9091 Z" fill="#4040ff"/>
        <path d="M 262.80344 235.51934 L 282.3673 315.7764 L 312.7006 308.3822 L 332.25274 388.5911 L 301.91943 395.9853 L 321.4833 476.24237 L 291.16817 483.63213 L 271.6043 403.37507 L 241.271 410.76928 L 221.71887 330.56036 L 252.05218 323.16616 L 232.48832 242.9091 Z" stroke="black" stroke-linecap="round" stroke-linejoin="round" stroke-width="6"/>
      </g>
      <g id="Graphic_19">
        <path d="M 322.52833 364.59896 C 300.22935 385.75253 408.97197 370.09277 408.97197 370.09277 C 408.97197 370.09277 344.65764 402.0648 314.496 396.1492 C 284.33428 390.23367 277.96038 368.2899 300.2595 347.13633 C 322.5585 325.98276 365.08617 313.62996 395.2478 319.5456 C 425.40953 325.4611 344.82746 343.4454 322.52833 364.59896 Z" fill="#c0c0ff"/>
        <path d="M 322.52833 364.59896 C 300.22935 385.75253 408.97197 370.09277 408.97197 370.09277 C 408.97197 370.09277 344.65764 402.0648 314.496 396.1492 C 284.33428 390.23367 277.96038 368.2899 300.2595 347.13633 C 322.5585 325.98276 365.08617 313.62996 395.2478 319.5456 C 425.40953 325.4611 344.82746 343.4454 322.52833 364.59896 Z" stroke="black" stroke-linecap="round" stroke-linejoin="round" stroke-width="6"/>
      </g>
      <g id="Graphic_18">
        <path d="M 460.50296 284.85973 L 396.27225 499.0631 L 418.0995 352.18595 L 361.8196 327.7031 Z" fill="#ff4040"/>
        <path d="M 460.50296 284.85973 L 396.27225 499.0631 L 418.0995 352.18595 L 361.8196 327.7031 Z" stroke="black" stroke-linecap="round" stroke-linejoin="round" stroke-width="6"/>
      </g>
      <g id="Graphic_17">
        <path d="M 407.1482 413.76356 L 333.90937 475.94825 L 328.6458 577.6554 L 290.2642 559.27106 C 318.61263 512.40155 330.8228 437.65263 363.96892 393.08116 Z" fill="#ffc0ff"/>
        <path d="M 407.1482 413.76356 L 333.90937 475.94825 L 328.6458 577.6554 L 290.2642 559.27106 C 318.61263 512.40155 330.8228 437.65263 363.96892 393.08116 Z" stroke="black" stroke-linecap="round" stroke-linejoin="round" stroke-width="6"/>
      </g>
      <g id="Graphic_16">
        <path d="M 288.1725 545.50515 L 178.74975 496.47014 L 261.29024 396.7683 L 241.41937 510.19016 L 321.999 535.18706 Z" fill="#ffff40"/>
        <path d="M 288.1725 545.50515 L 178.74975 496.47014 L 261.29024 396.7683 L 241.41937 510.19016 L 321.999 535.18706 Z" stroke="black" stroke-linecap="round" stroke-linejoin="round" stroke-width="6"/>
      </g>
      <g id="Graphic_15">
        <path d="M 427.1684 372.12585 L 392.72227 422.95066 L 424.314 552.5498 L 371.4334 454.3621 L 336.9873 505.18694 L 378.58687 421.33693 L 285.8708 295.49116 L 339.84167 324.763 L 341.60577 213.2549 L 373.1975 342.854 Z" fill="fuchsia"/>
        <path d="M 427.1684 372.12585 L 392.72227 422.95066 L 424.314 552.5498 L 371.4334 454.3621 L 336.9873 505.18694 L 378.58687 421.33693 L 285.8708 295.49116 L 339.84167 324.763 L 341.60577 213.2549 L 373.1975 342.854 Z" stroke="black" stroke-linecap="round" stroke-linejoin="round" stroke-width="6"/>
      </g>
      <g id="Graphic_14">
        <path d="M 268.61968 259.3326 L 285.88924 330.1777 L 312.66528 323.65064 L 329.92448 394.45324 L 303.14843 400.9803 L 320.418 471.8254 L 293.658 478.34854 L 276.38845 407.50345 L 249.6124 414.0305 L 232.3532 343.2279 L 259.12926 336.70085 L 241.8597 265.85576 Z" fill="#40ff40"/>
        <path d="M 268.61968 259.3326 L 285.88924 330.1777 L 312.66528 323.65064 L 329.92448 394.45324 L 303.14843 400.9803 L 320.418 471.8254 L 293.658 478.34854 L 276.38845 407.50345 L 249.6124 414.0305 L 232.3532 343.2279 L 259.12926 336.70085 L 241.8597 265.85576 Z" stroke="black" stroke-linecap="round" stroke-linejoin="round" stroke-width="6"/>
      </g>
      <g id="Graphic_12">
        <path d="M 321.34047 373.2747 C 301.65656 391.94755 397.64663 378.12425 397.64663 378.12425 C 397.64663 378.12425 340.8746 406.34684 314.25013 401.12496 C 287.62554 395.90317 281.99913 376.5328 301.68318 357.85998 C 321.3671 339.18714 358.90744 328.283 385.53193 333.50487 C 412.1565 338.72666 341.02452 354.6019 321.34047 373.2747 Z" fill="#c0c0ff"/>
        <path d="M 321.34047 373.2747 C 301.65656 391.94755 397.64663 378.12425 397.64663 378.12425 C 397.64663 378.12425 340.8746 406.34684 314.25013 401.12496 C 287.62554 395.90317 281.99913 376.5328 301.68318 357.85998 C 321.3671 339.18714 358.90744 328.283 385.53193 333.50487 C 412.1565 338.72666 341.02452 354.6019 321.34047 373.2747 Z" stroke="black" stroke-linecap="round" stroke-linejoin="round" stroke-width="6"/>
      </g>
      <g id="Graphic_11">
        <path d="M 443.13444 302.8867 L 386.43624 491.9699 L 405.70374 362.3174 L 356.02393 340.70574 Z" fill="lime"/>
        <path d="M 443.13444 302.8867 L 386.43624 491.9699 L 405.70374 362.3174 L 356.02393 340.70574 Z" stroke="black" stroke-linecap="round" stroke-linejoin="round" stroke-width="6"/>
      </g>
      <g id="Graphic_10">
        <path d="M 396.03674 416.67364 L 331.38683 471.5658 L 326.7405 561.34546 L 292.86005 545.1171 C 317.88398 503.7441 328.66223 437.7612 357.9212 398.41673 Z" fill="#ffc0ff"/>
        <path d="M 396.03674 416.67364 L 331.38683 471.5658 L 326.7405 561.34546 L 292.86005 545.1171 C 317.88398 503.7441 328.66223 437.7612 357.9212 398.41673 Z" stroke="black" stroke-linecap="round" stroke-linejoin="round" stroke-width="6"/>
      </g>
      <g id="Graphic_9">
        <path d="M 291.01366 532.96554 L 194.4232 489.681 L 267.28394 401.6715 L 249.74338 501.79203 L 320.8732 523.8575 Z" fill="#4040ff"/>
        <path d="M 291.01366 532.96554 L 194.4232 489.681 L 267.28394 401.6715 L 249.74338 501.79203 L 320.8732 523.8575 Z" stroke="black" stroke-linecap="round" stroke-linejoin="round" stroke-width="6"/>
      </g>
      <g id="Graphic_8">
        <path d="M 413.7984 386.16783 L 383.92856 430.2404 L 411.32324 542.62194 L 365.46798 457.4788 L 335.59813 501.5514 L 371.6711 428.8411 L 291.2726 319.71427 L 338.0733 345.09727 L 339.60303 248.4033 L 366.9977 360.78483 Z" fill="#40ff40"/>
        <path d="M 413.7984 386.16783 L 383.92856 430.2404 L 411.32324 542.62194 L 365.46798 457.4788 L 335.59813 501.5514 L 371.6711 428.8411 L 291.2726 319.71427 L 338.0733 345.09727 L 339.60303 248.4033 L 366.9977 360.78483 Z" stroke="black" stroke-linecap="round" stroke-linejoin="round" stroke-width="6"/>
      </g>
      <g id="Graphic_7">
        <path d="M 276.31334 288.35948 L 291.2886 349.7926 L 314.50736 344.1327 L 329.47363 405.52896 L 306.25485 411.1889 L 321.2301 472.622 L 298.02526 478.27854 L 283.05 416.8454 L 259.83124 422.50534 L 244.86497 361.10906 L 268.08375 355.44914 L 253.1085 294.016 Z" fill="#4040ff"/>
        <path d="M 276.31334 288.35948 L 291.2886 349.7926 L 314.50736 344.1327 L 329.47363 405.52896 L 306.25485 411.1889 L 321.2301 472.622 L 298.02526 478.27854 L 283.05 416.8454 L 259.83124 422.50534 L 244.86497 361.10906 L 268.08375 355.44914 L 253.1085 294.016 Z" stroke="black" stroke-linecap="round" stroke-linejoin="round" stroke-width="6"/>
      </g>
      <g id="Graphic_5">
        <path d="M 322.03003 387.16406 C 304.96118 403.35616 388.1987 391.3693 388.1987 391.3693 C 388.1987 391.3693 338.969 415.84247 315.88166 411.31432 C 292.79422 406.78627 287.9153 389.9893 304.98426 373.7972 C 322.0531 357.6051 354.60613 348.1496 377.6935 352.67775 C 400.7809 357.2058 339.099 370.972 322.03003 387.16406 Z" fill="#c0c0ff"/>
        <path d="M 322.03003 387.16406 C 304.96118 403.35616 388.1987 391.3693 388.1987 391.3693 C 388.1987 391.3693 338.969 415.84247 315.88166 411.31432 C 292.79422 406.78627 287.9153 389.9893 304.98426 373.7972 C 322.0531 357.6051 354.60613 348.1496 377.6935 352.67775 C 400.7809 357.2058 339.099 370.972 322.03003 387.16406 Z" stroke="black" stroke-linecap="round" stroke-linejoin="round" stroke-width="6"/>
      </g>
      <g id="Graphic_4">
        <path d="M 427.64334 326.1273 L 378.47765 490.09026 L 395.1854 377.66247 L 352.1057 358.92196 Z" fill="#ff4040"/>
        <path d="M 427.64334 326.1273 L 378.47765 490.09026 L 395.1854 377.66247 L 352.1057 358.92196 Z" stroke="black" stroke-linecap="round" stroke-linejoin="round" stroke-width="6"/>
      </g>
      <g id="Graphic_3">
        <path d="M 386.8027 424.7973 L 330.7417 472.3969 L 326.71267 550.2491 L 297.3333 536.1767 C 319.03274 500.3002 328.37908 443.0833 353.75092 408.9659 Z" fill="#ffc0ff"/>
        <path d="M 386.8027 424.7973 L 330.7417 472.3969 L 326.71267 550.2491 L 297.3333 536.1767 C 319.03274 500.3002 328.37908 443.0833 353.75092 408.9659 Z" stroke="black" stroke-linecap="round" stroke-linejoin="round" stroke-width="6"/>
      </g>
      <g id="Graphic_2">
        <path d="M 295.7322 525.6395 L 211.97406 488.10546 L 275.15506 411.78824 L 259.9448 498.6075 L 321.62485 517.7415 Z" fill="#ffff40"/>
        <path d="M 295.7322 525.6395 L 211.97406 488.10546 L 275.15506 411.78824 L 259.9448 498.6075 L 321.62485 517.7415 Z" stroke="black" stroke-linecap="round" stroke-linejoin="round" stroke-width="6"/>
      </g>
      <g id="Graphic_55">
        <path d="M 494.4536 121.32167 L 812.2869 304.8228 C 849.882 326.52834 821.6736 445.8511 749.3218 571.1682 C 676.9699 696.4853 587.73756 780.57585 550.1424 758.8703 L 232.30917 575.3692 C 194.71403 553.6636 222.9224 434.34087 295.27427 309.02375 C 367.62613 183.70664 456.8585 99.61611 494.4536 121.32167 Z" fill="black"/>
        <path d="M 494.4536 121.32167 L 812.2869 304.8228 C 849.882 326.52834 821.6736 445.8511 749.3218 571.1682 C 676.9699 696.4853 587.73756 780.57585 550.1424 758.8703 L 232.30917 575.3692 C 194.71403 553.6636 222.9224 434.34087 295.27427 309.02375 C 367.62613 183.70664 456.8585 99.61611 494.4536 121.32167 Z" stroke="black" stroke-linecap="round" stroke-linejoin="round" stroke-width="11"/>
      </g>
      <g id="Graphic_56">
        <path d="M 490.8227 161.97413 L 770.09955 323.2147 C 803.134 342.28714 778.3476 447.1348 714.77276 557.2497 C 651.1979 667.36455 572.79036 741.254 539.7559 722.1816 L 260.47906 560.941 C 227.4446 541.8686 252.231 437.0209 315.80585 326.90603 C 379.3807 216.79117 457.78825 142.90167 490.8227 161.97413 Z" fill="#fffab7"/>
        <path d="M 490.8227 161.97413 L 770.09955 323.2147 C 803.134 342.28714 778.3476 447.1348 714.77276 557.2497 C 651.1979 667.36455 572.79036 741.254 539.7559 722.1816 L 260.47906 560.941 C 227.4446 541.8686 252.231 437.0209 315.80585 326.90603 C 379.3807 216.79117 457.78825 142.90167 490.8227 161.97413 Z" stroke="black" stroke-linecap="round" stroke-linejoin="round" stroke-width="11"/>
      </g>
      <g id="Graphic_52">
        <path d="M 570.3947 550.76434 L 540.1873 655.8085 L 527.09135 630.417 L 552.541 527.9924 Z" fill="#666"/>
        <path d="M 570.3947 550.76434 L 540.1873 655.8085 L 527.09135 630.417 L 552.541 527.9924 Z" stroke="black" stroke-linecap="round" stroke-linejoin="round" stroke-width="11"/>
      </g>
      <g id="Graphic_51">
        <path d="M 467.70135 526.7628 L 443.11015 637.4232 L 427.12587 609.14335 L 446.79883 500.94207 Z" fill="#666"/>
        <path d="M 467.70135 526.7628 L 443.11015 637.4232 L 427.12587 609.14335 L 446.79883 500.94207 Z" stroke="black" stroke-linecap="round" stroke-linejoin="round" stroke-width="11"/>
      </g>
      <g id="Graphic_50">
        <path d="M 407.1221 474.621 L 408.359 332.36135 C 411.2092 321.72436 445.16 316.2344 573.71775 350.68134 C 702.2755 385.1283 702.1964 395.5908 699.3462 406.2278 C 699.3462 406.2278 622.3916 536.602 612.3005 544.79736 C 602.20934 552.9927 622.0329 612.8367 493.4751 578.3898 C 364.91737 543.9428 404.2719 485.258 407.1221 474.621 Z" fill="#8d0000"/>
        <path d="M 407.1221 474.621 L 408.359 332.36135 C 411.2092 321.72436 445.16 316.2344 573.71775 350.68134 C 702.2755 385.1283 702.1964 395.5908 699.3462 406.2278 C 699.3462 406.2278 622.3916 536.602 612.3005 544.79736 C 602.20934 552.9927 622.0329 612.8367 493.4751 578.3898 C 364.91737 543.9428 404.2719 485.258 407.1221 474.621 Z" stroke="black" stroke-linecap="round" stroke-linejoin="round" stroke-width="18"/>
      </g>
      <g id="Graphic_49">
        <path d="M 674.05844 342.18238 C 724.0385 383.33393 712.7867 425.32597 648.927 435.97426 C 585.0675 446.62275 492.78267 421.8951 442.80297 380.7435 C 392.82295 339.59193 404.0747 297.5999 467.93443 286.9516 C 531.7939 276.30312 624.07875 301.03076 674.05844 342.18238" fill="red"/>
        <path d="M 674.05844 342.18238 C 724.0385 383.33393 712.7867 425.32597 648.927 435.97426 C 585.0675 446.62275 492.78267 421.8951 442.80297 380.7435 C 392.82295 339.59193 404.0747 297.5999 467.93443 286.9516 C 531.7939 276.30312 624.07875 301.03076 674.05844 342.18238" stroke="black" stroke-linecap="round" stroke-linejoin="round" stroke-width="18"/>
      </g>
      <g id="Graphic_48">
        <path d="M 663.96725 320.53723 C 703.6134 353.1803 694.6881 386.4901 644.03196 394.93675 C 593.376 403.38356 520.172 383.7686 480.52605 351.12547 C 440.8799 318.4824 449.8052 285.1726 500.46134 276.72596 C 551.1173 268.27914 624.3213 287.8941 663.96725 320.53723" fill="red"/>
        <path d="M 663.96725 320.53723 C 703.6134 353.1803 694.6881 386.4901 644.03196 394.93675 C 593.376 403.38356 520.172 383.7686 480.52605 351.12547 C 440.8799 318.4824 449.8052 285.1726 500.46134 276.72596 C 551.1173 268.27914 624.3213 287.8941 663.96725 320.53723" stroke="black" stroke-linecap="round" stroke-linejoin="round" stroke-width="18"/>
      </g>
    </g>
  </g>
</svg>
