<?xml version="1.0" encoding="UTF-8" standalone="no"?>
<!DOCTYPE svg PUBLIC "-//W3C//DTD SVG 1.1//EN" "http://www.w3.org/Graphics/SVG/1.1/DTD/svg11.dtd">
<svg xmlns="http://www.w3.org/2000/svg" version="1.1" xmlns:dc="http://purl.org/dc/elements/1.1/" xmlns:xl="http://www.w3.org/1999/xlink" viewBox="0 0 850.394 850.394" width="850.394" height="850.394">
  <defs/>
  <metadata> Produced by OmniGraffle 7.9.4 
    <dc:date>2019-03-12 10:52:06 +0000</dc:date>
  </metadata>
  <g id="synthesiser" fill="none" stroke-opacity="1" fill-opacity="1" stroke-dasharray="none" stroke="none">
    <title>synthesiser</title>
    <g id="synthesiser: Layer 1">
      <title>Layer 1</title>
      <g id="Graphic_2">
        <path d="M 51 667.5 L 51 290.85 L 124.4 249 L 785 249 L 785 625.65 L 711.6 667.5 Z" fill="#999"/>
        <path d="M 51 667.5 L 51 290.85 L 124.4 249 L 785 249 L 785 625.65 L 711.6 667.5 L 51 667.5 M 51 290.85 L 711.6 290.85 L 785 249 M 711.6 290.85 L 711.6 667.5" stroke="black" stroke-linecap="round" stroke-linejoin="round" stroke-width="9"/>
      </g>
      <g id="Graphic_4">
        <path d="M 75 406 L 75 333.9193 L 82.68861 325.9103 L 151.8861 325.9103 L 151.8861 397.99103 L 144.19749 406 Z" fill="#999"/>
        <path d="M 75 406 L 75 333.9193 L 82.68861 325.9103 L 151.8861 325.9103 L 151.8861 397.99103 L 144.19749 406 L 75 406 M 75 333.9193 L 144.19749 333.9193 L 151.8861 325.9103 M 144.19749 333.9193 L 144.19749 406" stroke="black" stroke-linecap="round" stroke-linejoin="round" stroke-width="3"/>
      </g>
      <g id="Graphic_5">
        <path d="M 168.77774 406 L 168.77774 333.9193 L 176.46635 325.9103 L 245.66384 325.9103 L 245.66384 397.99103 L 237.97523 406 Z" fill="#999"/>
        <path d="M 168.77774 406 L 168.77774 333.9193 L 176.46635 325.9103 L 245.66384 325.9103 L 245.66384 397.99103 L 237.97523 406 L 168.77774 406 M 168.77774 333.9193 L 237.97523 333.9193 L 245.66384 325.9103 M 237.97523 333.9193 L 237.97523 406" stroke="black" stroke-linecap="round" stroke-linejoin="round" stroke-width="3"/>
      </g>
      <g id="Graphic_3">
        <path d="M 183.3395 346.29678 L 231.10208 370.17807 L 183.3395 394.05936 Z" fill="lime"/>
        <path d="M 183.3395 346.29678 L 231.10208 370.17807 L 183.3395 394.05936 Z" stroke="black" stroke-linecap="round" stroke-linejoin="round" stroke-width="8"/>
      </g>
      <g id="Graphic_10">
        <rect x="89.52114" y="349.7946" width="40.766915" height="40.766915" fill="blue"/>
        <rect x="89.52114" y="349.7946" width="40.766915" height="40.766915" stroke="black" stroke-linecap="round" stroke-linejoin="round" stroke-width="8"/>
      </g>
      <g id="Graphic_11">
        <path d="M 144 644.5 L 144 515.35 L 147.6 501 L 180 501 L 180 630.15 L 176.4 644.5 Z" fill="#999"/>
        <path d="M 144 644.5 L 144 515.35 L 147.6 501 L 180 501 L 180 630.15 L 176.4 644.5 L 144 644.5 M 144 515.35 L 176.4 515.35 L 180 501 M 176.4 515.35 L 176.4 644.5" stroke="black" stroke-linecap="round" stroke-linejoin="round" stroke-width="4"/>
      </g>
      <g id="Graphic_12">
        <path d="M 180 592.9502 L 180 510.195 L 183.6 501 L 216 501 L 216 583.75516 L 212.4 592.9502 Z" fill="#333"/>
        <path d="M 180 592.9502 L 180 510.195 L 183.6 501 L 216 501 L 216 583.75516 L 212.4 592.9502 L 180 592.9502 M 180 510.195 L 212.4 510.195 L 216 501 M 212.4 510.195 L 212.4 592.9502" stroke="black" stroke-linecap="round" stroke-linejoin="round" stroke-width="4"/>
      </g>
      <g id="Graphic_13">
        <path d="M 216 644.5 L 216 515.35 L 219.6 501 L 252 501 L 252 630.15 L 248.4 644.5 Z" fill="#999"/>
        <path d="M 216 644.5 L 216 515.35 L 219.6 501 L 252 501 L 252 630.15 L 248.4 644.5 L 216 644.5 M 216 515.35 L 248.4 515.35 L 252 501 M 248.4 515.35 L 248.4 644.5" stroke="black" stroke-linecap="round" stroke-linejoin="round" stroke-width="4"/>
      </g>
      <g id="Graphic_14">
        <path d="M 252 592.9502 L 252 510.195 L 255.6 501 L 288 501 L 288 583.75516 L 284.4 592.9502 Z" fill="#333"/>
        <path d="M 252 592.9502 L 252 510.195 L 255.6 501 L 288 501 L 288 583.75516 L 284.4 592.9502 L 252 592.9502 M 252 510.195 L 284.4 510.195 L 288 501 M 284.4 510.195 L 284.4 592.9502" stroke="black" stroke-linecap="round" stroke-linejoin="round" stroke-width="4"/>
      </g>
      <g id="Graphic_15">
        <path d="M 288 644.5 L 288 515.35 L 291.6 501 L 324 501 L 324 630.15 L 320.4 644.5 Z" fill="#999"/>
        <path d="M 288 644.5 L 288 515.35 L 291.6 501 L 324 501 L 324 630.15 L 320.4 644.5 L 288 644.5 M 288 515.35 L 320.4 515.35 L 324 501 M 320.4 515.35 L 320.4 644.5" stroke="black" stroke-linecap="round" stroke-linejoin="round" stroke-width="4"/>
      </g>
      <g id="Graphic_16">
        <path d="M 324 644.5 L 324 515.35 L 327.6 501 L 360 501 L 360 630.15 L 356.4 644.5 Z" fill="#999"/>
        <path d="M 324 644.5 L 324 515.35 L 327.6 501 L 360 501 L 360 630.15 L 356.4 644.5 L 324 644.5 M 324 515.35 L 356.4 515.35 L 360 501 M 356.4 515.35 L 356.4 644.5" stroke="black" stroke-linecap="round" stroke-linejoin="round" stroke-width="4"/>
      </g>
      <g id="Graphic_17">
        <path d="M 360 592.9502 L 360 510.195 L 363.6 501 L 396 501 L 396 583.75516 L 392.4 592.9502 Z" fill="#333"/>
        <path d="M 360 592.9502 L 360 510.195 L 363.6 501 L 396 501 L 396 583.75516 L 392.4 592.9502 L 360 592.9502 M 360 510.195 L 392.4 510.195 L 396 501 M 392.4 510.195 L 392.4 592.9502" stroke="black" stroke-linecap="round" stroke-linejoin="round" stroke-width="4"/>
      </g>
      <g id="Graphic_18">
        <path d="M 396 644.5 L 396 515.35 L 399.6 501 L 432 501 L 432 630.15 L 428.4 644.5 Z" fill="#999"/>
        <path d="M 396 644.5 L 396 515.35 L 399.6 501 L 432 501 L 432 630.15 L 428.4 644.5 L 396 644.5 M 396 515.35 L 428.4 515.35 L 432 501 M 428.4 515.35 L 428.4 644.5" stroke="black" stroke-linecap="round" stroke-linejoin="round" stroke-width="4"/>
      </g>
      <g id="Graphic_19">
        <path d="M 433.29827 592.9502 L 433.29827 510.195 L 436.89827 501 L 469.29827 501 L 469.29827 583.75516 L 465.69827 592.9502 Z" fill="#333"/>
        <path d="M 433.29827 592.9502 L 433.29827 510.195 L 436.89827 501 L 469.29827 501 L 469.29827 583.75516 L 465.69827 592.9502 L 433.29827 592.9502 M 433.29827 510.195 L 465.69827 510.195 L 469.29827 501 M 465.69827 510.195 L 465.69827 592.9502" stroke="black" stroke-linecap="round" stroke-linejoin="round" stroke-width="4"/>
      </g>
      <g id="Graphic_20">
        <path d="M 469.29827 644.5 L 469.29827 515.35 L 472.89827 501 L 505.29827 501 L 505.29827 630.15 L 501.69827 644.5 Z" fill="#999"/>
        <path d="M 469.29827 644.5 L 469.29827 515.35 L 472.89827 501 L 505.29827 501 L 505.29827 630.15 L 501.69827 644.5 L 469.29827 644.5 M 469.29827 515.35 L 501.69827 515.35 L 505.29827 501 M 501.69827 515.35 L 501.69827 644.5" stroke="black" stroke-linecap="round" stroke-linejoin="round" stroke-width="4"/>
      </g>
      <g id="Graphic_21">
        <path d="M 505.29827 592.9502 L 505.29827 510.195 L 508.89827 501 L 541.2983 501 L 541.2983 583.75516 L 537.6983 592.9502 Z" fill="#333"/>
        <path d="M 505.29827 592.9502 L 505.29827 510.195 L 508.89827 501 L 541.2983 501 L 541.2983 583.75516 L 537.6983 592.9502 L 505.29827 592.9502 M 505.29827 510.195 L 537.6983 510.195 L 541.2983 501 M 537.6983 510.195 L 537.6983 592.9502" stroke="black" stroke-linecap="round" stroke-linejoin="round" stroke-width="4"/>
      </g>
      <g id="Graphic_22">
        <path d="M 541.2983 644.5 L 541.2983 515.35 L 544.8983 501 L 577.2983 501 L 577.2983 630.15 L 573.6983 644.5 Z" fill="#999"/>
        <path d="M 541.2983 644.5 L 541.2983 515.35 L 544.8983 501 L 577.2983 501 L 577.2983 630.15 L 573.6983 644.5 L 541.2983 644.5 M 541.2983 515.35 L 573.6983 515.35 L 577.2983 501 M 573.6983 515.35 L 573.6983 644.5" stroke="black" stroke-linecap="round" stroke-linejoin="round" stroke-width="4"/>
      </g>
      <g id="Graphic_23">
        <path d="M 577.2983 644.5 L 577.2983 515.35 L 580.8983 501 L 613.2983 501 L 613.2983 630.15 L 609.6983 644.5 Z" fill="#999"/>
        <path d="M 577.2983 644.5 L 577.2983 515.35 L 580.8983 501 L 613.2983 501 L 613.2983 630.15 L 609.6983 644.5 L 577.2983 644.5 M 577.2983 515.35 L 609.6983 515.35 L 613.2983 501 M 609.6983 515.35 L 609.6983 644.5" stroke="black" stroke-linecap="round" stroke-linejoin="round" stroke-width="4"/>
      </g>
      <g id="Graphic_27">
        <circle cx="163.02243" cy="470" r="11.0000175769209" fill="black"/>
        <circle cx="163.02243" cy="470" r="11.0000175769209" stroke="black" stroke-linecap="round" stroke-linejoin="round" stroke-width="3"/>
      </g>
      <g id="Graphic_28">
        <circle cx="199.1989" cy="470" r="11.0000175769209" fill="black"/>
        <circle cx="199.1989" cy="470" r="11.0000175769209" stroke="black" stroke-linecap="round" stroke-linejoin="round" stroke-width="3"/>
      </g>
      <g id="Graphic_29">
        <circle cx="234.9342" cy="470" r="11.0000175769209" fill="black"/>
        <circle cx="234.9342" cy="470" r="11.0000175769209" stroke="black" stroke-linecap="round" stroke-linejoin="round" stroke-width="3"/>
      </g>
      <g id="Graphic_30">
        <circle cx="271.11067" cy="470" r="11.0000175769209" fill="black"/>
        <circle cx="271.11067" cy="470" r="11.0000175769209" stroke="black" stroke-linecap="round" stroke-linejoin="round" stroke-width="3"/>
      </g>
      <g id="Graphic_31">
        <circle cx="306.15686" cy="470" r="11.0000175769209" fill="black"/>
        <circle cx="306.15686" cy="470" r="11.0000175769209" stroke="black" stroke-linecap="round" stroke-linejoin="round" stroke-width="3"/>
      </g>
      <g id="Graphic_32">
        <circle cx="342.33333" cy="470" r="11.0000175769209" fill="black"/>
        <circle cx="342.33333" cy="470" r="11.0000175769209" stroke="black" stroke-linecap="round" stroke-linejoin="round" stroke-width="3"/>
      </g>
      <g id="Graphic_33">
        <circle cx="378.06863" cy="470" r="11.0000175769209" fill="red"/>
        <circle cx="378.06863" cy="470" r="11.0000175769209" stroke="black" stroke-linecap="round" stroke-linejoin="round" stroke-width="3"/>
      </g>
      <g id="Graphic_34">
        <circle cx="414.2451" cy="470" r="11.0000175769209" fill="black"/>
        <circle cx="414.2451" cy="470" r="11.0000175769209" stroke="black" stroke-linecap="round" stroke-linejoin="round" stroke-width="3"/>
      </g>
      <g id="Graphic_35">
        <circle cx="451.62745" cy="470" r="11.0000175769209" fill="black"/>
        <circle cx="451.62745" cy="470" r="11.0000175769209" stroke="black" stroke-linecap="round" stroke-linejoin="round" stroke-width="3"/>
      </g>
      <g id="Graphic_36">
        <circle cx="487.8039" cy="470" r="11.0000175769209" fill="black"/>
        <circle cx="487.8039" cy="470" r="11.0000175769209" stroke="black" stroke-linecap="round" stroke-linejoin="round" stroke-width="3"/>
      </g>
      <g id="Graphic_37">
        <circle cx="523.5392" cy="470" r="11.0000175769208" fill="black"/>
        <circle cx="523.5392" cy="470" r="11.0000175769208" stroke="black" stroke-linecap="round" stroke-linejoin="round" stroke-width="3"/>
      </g>
      <g id="Graphic_38">
        <circle cx="559.7157" cy="470" r="11.0000175769208" fill="black"/>
        <circle cx="559.7157" cy="470" r="11.0000175769208" stroke="black" stroke-linecap="round" stroke-linejoin="round" stroke-width="3"/>
      </g>
      <g id="Graphic_39">
        <circle cx="595.6316" cy="470" r="11.0000175769209" fill="black"/>
        <circle cx="595.6316" cy="470" r="11.0000175769209" stroke="black" stroke-linecap="round" stroke-linejoin="round" stroke-width="3"/>
      </g>
      <g id="Graphic_45">
        <path d="M 287.66843 334.86713 C 300.3348 329.73507 313.2726 336.3272 316.5658 349.59107 C 319.85905 362.8549 312.26062 377.76765 299.59422 382.89963 C 286.92784 388.0317 273.99006 381.43956 270.69687 368.1757 C 267.4036 354.91186 275.00203 339.9991 287.66843 334.86713" fill="#999"/>
        <path d="M 287.66843 334.86713 C 300.3348 329.73507 313.2726 336.3272 316.5658 349.59107 C 319.85905 362.8549 312.26062 377.76765 299.59422 382.89963 C 286.92784 388.0317 273.99006 381.43956 270.69687 368.1757 C 267.4036 354.91186 275.00203 339.9991 287.66843 334.86713" stroke="black" stroke-linecap="round" stroke-linejoin="round" stroke-width="6"/>
      </g>
      <g id="Graphic_43">
        <path d="M 280.10266 342.87576 C 289.6687 338.99988 299.4397 343.97846 301.92683 353.99573 C 304.414 364.013 298.67544 375.27556 289.1094 379.1514 C 279.54334 383.02727 269.77233 378.0487 267.2852 368.0314 C 264.79804 358.01416 270.5366 346.7516 280.10266 342.87576" fill="#ccc"/>
        <path d="M 280.10266 342.87576 C 289.6687 338.99988 299.4397 343.97846 301.92683 353.99573 C 304.414 364.013 298.67544 375.27556 289.1094 379.1514 C 279.54334 383.02727 269.77233 378.0487 267.2852 368.0314 C 264.79804 358.01416 270.5366 346.7516 280.10266 342.87576" stroke="black" stroke-linecap="round" stroke-linejoin="round" stroke-width="4"/>
      </g>
      <g id="Line_46">
        <line x1="284.23664" y1="361.70017" x2="284.23664" y2="345.44765" stroke="black" stroke-linecap="round" stroke-linejoin="round" stroke-width="7"/>
      </g>
      <g id="Graphic_47">
        <path d="M 355.63353 332.65087 C 368.2999 327.51882 381.2377 334.11095 384.5309 347.3748 C 387.82415 360.63865 380.22572 375.5514 367.55933 380.6834 C 354.89294 385.81543 341.95516 379.2233 338.66197 365.95944 C 335.3687 352.6956 342.96713 337.78286 355.63353 332.65087" fill="#999"/>
        <path d="M 355.63353 332.65087 C 368.2999 327.51882 381.2377 334.11095 384.5309 347.3748 C 387.82415 360.63865 380.22572 375.5514 367.55933 380.6834 C 354.89294 385.81543 341.95516 379.2233 338.66197 365.95944 C 335.3687 352.6956 342.96713 337.78286 355.63353 332.65087" stroke="black" stroke-linecap="round" stroke-linejoin="round" stroke-width="6"/>
      </g>
      <g id="Graphic_48">
        <path d="M 348.06776 340.74557 C 357.6338 336.8697 367.4048 341.84826 369.89193 351.86554 C 372.3791 361.8828 366.64054 373.14536 357.0745 377.0212 C 347.50844 380.89708 337.73743 375.9185 335.2503 365.9012 C 332.76314 355.88396 338.5017 344.6214 348.06776 340.74557" fill="#ccc"/>
        <path d="M 348.06776 340.74557 C 357.6338 336.8697 367.4048 341.84826 369.89193 351.86554 C 372.3791 361.8828 366.64054 373.14536 357.0745 377.0212 C 347.50844 380.89708 337.73743 375.9185 335.2503 365.9012 C 332.76314 355.88396 338.5017 344.6214 348.06776 340.74557" stroke="black" stroke-linecap="round" stroke-linejoin="round" stroke-width="4"/>
      </g>
      <g id="Line_49">
        <line x1="352.20175" y1="359.4839" x2="368.1732" y2="350.75435" stroke="black" stroke-linecap="round" stroke-linejoin="round" stroke-width="7"/>
      </g>
      <g id="Graphic_50">
        <path d="M 430.9011 334.86713 C 443.5675 329.73507 456.5053 336.3272 459.79847 349.59107 C 463.09173 362.8549 455.4933 377.76765 442.8269 382.89963 C 430.16053 388.0317 417.22274 381.43956 413.92955 368.1757 C 410.6363 354.91186 418.2347 339.9991 430.9011 334.86713" fill="#999"/>
        <path d="M 430.9011 334.86713 C 443.5675 329.73507 456.5053 336.3272 459.79847 349.59107 C 463.09173 362.8549 455.4933 377.76765 442.8269 382.89963 C 430.16053 388.0317 417.22274 381.43956 413.92955 368.1757 C 410.6363 354.91186 418.2347 339.9991 430.9011 334.86713" stroke="black" stroke-linecap="round" stroke-linejoin="round" stroke-width="6"/>
      </g>
      <g id="Graphic_51">
        <path d="M 423.33534 342.87576 C 432.9014 338.99988 442.6724 343.97846 445.1595 353.99573 C 447.6467 364.013 441.9081 375.27556 432.34207 379.1514 C 422.77603 383.02727 413.005 378.0487 410.5179 368.0314 C 408.0307 358.01416 413.7693 346.7516 423.33534 342.87576" fill="#ccc"/>
        <path d="M 423.33534 342.87576 C 432.9014 338.99988 442.6724 343.97846 445.1595 353.99573 C 447.6467 364.013 441.9081 375.27556 432.34207 379.1514 C 422.77603 383.02727 413.005 378.0487 410.5179 368.0314 C 408.0307 358.01416 413.7693 346.7516 423.33534 342.87576" stroke="black" stroke-linecap="round" stroke-linejoin="round" stroke-width="4"/>
      </g>
      <g id="Line_52">
        <line x1="427.46933" y1="361.70017" x2="412.71556" y2="362.70474" stroke="black" stroke-linecap="round" stroke-linejoin="round" stroke-width="7"/>
      </g>
      <g id="Graphic_53">
        <path d="M 503.63353 337.65087 C 516.2999 332.51882 529.2377 339.11095 532.5309 352.3748 C 535.82415 365.63865 528.2257 380.5514 515.5593 385.6834 C 502.89294 390.81543 489.95516 384.2233 486.66197 370.95944 C 483.3687 357.6956 490.96713 342.78286 503.63353 337.65087" fill="#999"/>
        <path d="M 503.63353 337.65087 C 516.2999 332.51882 529.2377 339.11095 532.5309 352.3748 C 535.82415 365.63865 528.2257 380.5514 515.5593 385.6834 C 502.89294 390.81543 489.95516 384.2233 486.66197 370.95944 C 483.3687 357.6956 490.96713 342.78286 503.63353 337.65087" stroke="black" stroke-linecap="round" stroke-linejoin="round" stroke-width="6"/>
      </g>
      <g id="Graphic_54">
        <path d="M 496.06776 345.74557 C 505.6338 341.8697 515.4048 346.84826 517.89193 356.86554 C 520.3791 366.8828 514.64054 378.14536 505.0745 382.0212 C 495.50844 385.8971 485.73743 380.9185 483.2503 370.9012 C 480.76314 360.88396 486.5017 349.6214 496.06776 345.74557" fill="#ccc"/>
        <path d="M 496.06776 345.74557 C 505.6338 341.8697 515.4048 346.84826 517.89193 356.86554 C 520.3791 366.8828 514.64054 378.14536 505.0745 382.0212 C 495.50844 385.8971 485.73743 380.9185 483.2503 370.9012 C 480.76314 360.88396 486.5017 349.6214 496.06776 345.74557" stroke="black" stroke-linecap="round" stroke-linejoin="round" stroke-width="4"/>
      </g>
      <g id="Line_55">
        <line x1="500.20175" y1="364.4839" x2="516.1732" y2="355.75435" stroke="black" stroke-linecap="round" stroke-linejoin="round" stroke-width="7"/>
      </g>
      <g id="Graphic_56">
        <path d="M 578.9011 339.86713 C 591.5675 334.73507 604.5053 341.3272 607.7985 354.59107 C 611.0917 367.8549 603.4933 382.76765 590.8269 387.89963 C 578.1605 393.0317 565.22274 386.43956 561.92955 373.1757 C 558.6363 359.91186 566.2347 344.9991 578.9011 339.86713" fill="#999"/>
        <path d="M 578.9011 339.86713 C 591.5675 334.73507 604.5053 341.3272 607.7985 354.59107 C 611.0917 367.8549 603.4933 382.76765 590.8269 387.89963 C 578.1605 393.0317 565.22274 386.43956 561.92955 373.1757 C 558.6363 359.91186 566.2347 344.9991 578.9011 339.86713" stroke="black" stroke-linecap="round" stroke-linejoin="round" stroke-width="6"/>
      </g>
      <g id="Graphic_57">
        <path d="M 571.33534 347.87576 C 580.9014 343.99988 590.6724 348.97846 593.1595 358.99573 C 595.6467 369.013 589.9081 380.27556 580.3421 384.1514 C 570.776 388.02727 561.005 383.0487 558.5179 373.0314 C 556.0307 363.01416 561.7693 351.7516 571.33534 347.87576" fill="#ccc"/>
        <path d="M 571.33534 347.87576 C 580.9014 343.99988 590.6724 348.97846 593.1595 358.99573 C 595.6467 369.013 589.9081 380.27556 580.3421 384.1514 C 570.776 388.02727 561.005 383.0487 558.5179 373.0314 C 556.0307 363.01416 561.7693 351.7516 571.33534 347.87576" stroke="black" stroke-linecap="round" stroke-linejoin="round" stroke-width="4"/>
      </g>
      <g id="Line_58">
        <line x1="575.4693" y1="366.70017" x2="560.71556" y2="367.70474" stroke="black" stroke-linecap="round" stroke-linejoin="round" stroke-width="7"/>
      </g>
      <g id="Graphic_61">
        <path d="M 650.9011 339.86713 C 663.5675 334.73507 676.5053 341.3272 679.7985 354.59107 C 683.0917 367.8549 675.4933 382.76765 662.8269 387.89963 C 650.1605 393.0317 637.22274 386.43956 633.92955 373.1757 C 630.6363 359.91186 638.2347 344.9991 650.9011 339.86713" fill="#999"/>
        <path d="M 650.9011 339.86713 C 663.5675 334.73507 676.5053 341.3272 679.7985 354.59107 C 683.0917 367.8549 675.4933 382.76765 662.8269 387.89963 C 650.1605 393.0317 637.22274 386.43956 633.92955 373.1757 C 630.6363 359.91186 638.2347 344.9991 650.9011 339.86713" stroke="black" stroke-linecap="round" stroke-linejoin="round" stroke-width="6"/>
      </g>
      <g id="Graphic_62">
        <path d="M 643.33534 347.87576 C 652.9014 343.99988 662.6724 348.97846 665.1595 358.99573 C 667.6467 369.013 661.9081 380.27556 652.3421 384.1514 C 642.776 388.02727 633.005 383.0487 630.5179 373.0314 C 628.0307 363.01416 633.7693 351.7516 643.33534 347.87576" fill="#ccc"/>
        <path d="M 643.33534 347.87576 C 652.9014 343.99988 662.6724 348.97846 665.1595 358.99573 C 667.6467 369.013 661.9081 380.27556 652.3421 384.1514 C 642.776 388.02727 633.005 383.0487 630.5179 373.0314 C 628.0307 363.01416 633.7693 351.7516 643.33534 347.87576" stroke="black" stroke-linecap="round" stroke-linejoin="round" stroke-width="4"/>
      </g>
      <g id="Line_63">
        <line x1="647.4693" y1="366.70017" x2="661.5" y2="357.83333" stroke="black" stroke-linecap="round" stroke-linejoin="round" stroke-width="7"/>
      </g>
    </g>
  </g>
</svg>
