<?xml version="1.0" encoding="UTF-8" standalone="no"?>
<!DOCTYPE svg PUBLIC "-//W3C//DTD SVG 1.1//EN" "http://www.w3.org/Graphics/SVG/1.1/DTD/svg11.dtd">
<svg xmlns:dc="http://purl.org/dc/elements/1.1/" xmlns="http://www.w3.org/2000/svg" version="1.1" xmlns:xl="http://www.w3.org/1999/xlink" viewBox="0 0 850.394 850.394" width="850.394" height="850.394">
  <defs/>
  <metadata> Produced by OmniGraffle 7.9.4 
    <dc:date>2019-03-30 18:59:54 +0000</dc:date>
  </metadata>
  <g id="tablet" stroke-dasharray="none" stroke-opacity="1" fill-opacity="1" fill="none" stroke="none">
    <title>tablet</title>
    <g id="tablet: Layer 1">
      <title>Layer 1</title>
      <g id="Graphic_5">
        <path d="M 440.25245 75.43203 L 741.9138 249.5963 C 777.5961 270.19746 737.1645 407.106 651.6649 555.19574 C 566.1652 703.2855 467.8147 806.7545 432.1325 786.1533 L 130.4711 611.98906 C 94.78887 591.3879 135.2204 454.47937 220.72005 306.38963 C 306.2197 158.29989 404.5702 54.83088 440.25245 75.43203 Z" fill="#333"/>
        <path d="M 440.25245 75.43203 L 741.9138 249.5963 C 777.5961 270.19746 737.1645 407.106 651.6649 555.19574 C 566.1652 703.2855 467.8147 806.7545 432.1325 786.1533 L 130.4711 611.98906 C 94.78887 591.3879 135.2204 454.47937 220.72005 306.38963 C 306.2197 158.29989 404.5702 54.83088 440.25245 75.43203 Z" stroke="black" stroke-linecap="round" stroke-linejoin="round" stroke-width="8"/>
      </g>
      <g id="Graphic_4">
        <path d="M 430.42307 52.098695 L 732.0845 226.26298 C 767.7667 246.86412 727.3352 383.77267 641.8355 531.8624 C 556.33586 679.95215 457.98534 783.4212 422.3031 762.82 L 120.64173 588.6557 C 84.95949 568.0546 125.39102 431.14604 210.89067 283.0563 C 296.39033 134.96655 394.74084 31.49755 430.42307 52.098695 Z" fill="#333"/>
        <path d="M 430.42307 52.098695 L 732.0845 226.26298 C 767.7667 246.86412 727.3352 383.77267 641.8355 531.8624 C 556.33586 679.95215 457.98534 783.4212 422.3031 762.82 L 120.64173 588.6557 C 84.95949 568.0546 125.39102 431.14604 210.89067 283.0563 C 296.39033 134.96655 394.74084 31.49755 430.42307 52.098695 Z" stroke="black" stroke-linecap="round" stroke-linejoin="round" stroke-width="8"/>
      </g>
      <g id="Graphic_3">
        <path d="M 439.0193 125.25384 L 669.7015 258.4383 C 696.9879 274.1921 666.0697 378.88688 600.6876 492.132 C 535.30554 605.3771 460.0963 684.5004 432.8099 668.7466 L 202.12767 535.56216 C 174.84126 519.80834 205.7595 415.11357 271.14157 301.86847 C 336.52366 188.62338 411.7329 109.50002 439.0193 125.25384 Z" fill="#76bdff"/>
        <path d="M 439.0193 125.25384 L 669.7015 258.4383 C 696.9879 274.1921 666.0697 378.88688 600.6876 492.132 C 535.30554 605.3771 460.0963 684.5004 432.8099 668.7466 L 202.12767 535.56216 C 174.84126 519.80834 205.7595 415.11357 271.14157 301.86847 C 336.52366 188.62338 411.7329 109.50002 439.0193 125.25384 Z" stroke="#506fff" stroke-linecap="round" stroke-linejoin="round" stroke-width="7"/>
      </g>
      <g id="Graphic_2">
        <path d="M 324.3297 633.7411 C 328.17036 647.17816 320.2936 660.8211 306.73646 664.2135 C 293.17934 667.606 279.07573 659.4633 275.23514 646.0262 C 271.39448 632.5892 279.27124 618.94624 292.82838 615.5538 C 306.3855 612.16135 320.4891 620.3041 324.3297 633.7411" fill="#666"/>
        <path d="M 324.3297 633.7411 C 328.17036 647.17816 320.2936 660.8211 306.73646 664.2135 C 293.17934 667.606 279.07573 659.4633 275.23514 646.0262 C 271.39448 632.5892 279.27124 618.94624 292.82838 615.5538 C 306.3855 612.16135 320.4891 620.3041 324.3297 633.7411" stroke="black" stroke-linecap="round" stroke-linejoin="round" stroke-width="7"/>
      </g>
    </g>
  </g>
</svg>
