<?xml version="1.0" encoding="UTF-8" standalone="no"?>
<!DOCTYPE svg PUBLIC "-//W3C//DTD SVG 1.1//EN" "http://www.w3.org/Graphics/SVG/1.1/DTD/svg11.dtd">
<svg xmlns:xl="http://www.w3.org/1999/xlink" xmlns:dc="http://purl.org/dc/elements/1.1/" xmlns="http://www.w3.org/2000/svg" version="1.1" viewBox="0 0 850.394 850.394" width="850.394" height="850.394">
  <defs/>
  <metadata> Produced by OmniGraffle 7.9.4 
    <dc:date>2019-10-01 00:39:04 +0000</dc:date>
  </metadata>
  <g id="ten_seconds" stroke="none" stroke-dasharray="none" fill="none" stroke-opacity="1" fill-opacity="1">
    <title>ten seconds</title>
    <g id="ten_seconds: Layer 1">
      <title>Layer 1</title>
      <g id="Graphic_2">
        <path d="M 653.90564 190.79136 C 783.365 320.25007 783.365 530.14393 653.90564 659.6026 C 524.44693 789.062 314.55307 789.062 185.09436 659.6026 C 55.63499 530.14393 55.63499 320.25007 185.09436 190.79136 C 314.55307 61.33199 524.44693 61.33199 653.90564 190.79136" fill="white"/>
        <path d="M 653.90564 190.79136 C 783.365 320.25007 783.365 530.14393 653.90564 659.6026 C 524.44693 789.062 314.55307 789.062 185.09436 659.6026 C 55.63499 530.14393 55.63499 320.25007 185.09436 190.79136 C 314.55307 61.33199 524.44693 61.33199 653.90564 190.79136" stroke="black" stroke-linecap="round" stroke-linejoin="round" stroke-width="10"/>
      </g>
      <g id="Graphic_13">
        <path d="M 417.5392 429.11857 L 411.75374 97.66906 C 528.1049 95.63814 637.00104 154.76392 698.6672 253.45033 Z" fill="#ff7471"/>
      </g>
      <g id="Line_17">
        <line x1="420.0392" y1="425.0392" x2="688.35294" y2="266.11765" stroke="black" stroke-linecap="round" stroke-linejoin="round" stroke-width="12"/>
      </g>
      <g id="Graphic_3">
        <circle cx="419.5" cy="425.197" r="13.303942826988" fill="white"/>
        <circle cx="419.5" cy="425.197" r="13.303942826988" stroke="black" stroke-linecap="round" stroke-linejoin="round" stroke-width="5"/>
      </g>
      <g id="Graphic_4">
        <circle cx="419.5" cy="122.30392" r="13.303942826988" fill="white"/>
        <circle cx="419.5" cy="122.30392" r="13.303942826988" stroke="black" stroke-linecap="round" stroke-linejoin="round" stroke-width="5"/>
      </g>
      <g id="Graphic_5">
        <circle cx="419.5" cy="728.0901" r="13.303942826988" fill="white"/>
        <circle cx="419.5" cy="728.0901" r="13.303942826988" stroke="black" stroke-linecap="round" stroke-linejoin="round" stroke-width="5"/>
      </g>
      <g id="Graphic_6">
        <circle cx="724.3539" cy="427.1578" r="13.303942826988" fill="white"/>
        <circle cx="724.3539" cy="427.1578" r="13.303942826988" stroke="black" stroke-linecap="round" stroke-linejoin="round" stroke-width="5"/>
      </g>
      <g id="Graphic_7">
        <circle cx="118.5677" cy="427.1578" r="13.303942826988" fill="white"/>
        <circle cx="118.5677" cy="427.1578" r="13.303942826988" stroke="black" stroke-linecap="round" stroke-linejoin="round" stroke-width="5"/>
      </g>
      <g id="Graphic_14">
        <circle cx="419.5" cy="425.197" r="13.303942826988" fill="white"/>
        <circle cx="419.5" cy="425.197" r="13.303942826988" stroke="black" stroke-linecap="round" stroke-linejoin="round" stroke-width="5"/>
      </g>
      <g id="Graphic_15">
        <circle cx="419.5" cy="122.30392" r="13.303942826988" fill="white"/>
        <circle cx="419.5" cy="122.30392" r="13.303942826988" stroke="black" stroke-linecap="round" stroke-linejoin="round" stroke-width="5"/>
      </g>
      <g id="Graphic_16">
        <circle cx="724.3539" cy="427.1578" r="13.303942826988" fill="white"/>
        <circle cx="724.3539" cy="427.1578" r="13.303942826988" stroke="black" stroke-linecap="round" stroke-linejoin="round" stroke-width="5"/>
      </g>
    </g>
  </g>
</svg>
