<?xml version="1.0" encoding="UTF-8" standalone="no"?>
<!DOCTYPE svg PUBLIC "-//W3C//DTD SVG 1.1//EN" "http://www.w3.org/Graphics/SVG/1.1/DTD/svg11.dtd">
<svg version="1.1" xmlns:dc="http://purl.org/dc/elements/1.1/" xmlns="http://www.w3.org/2000/svg" xmlns:xl="http://www.w3.org/1999/xlink" viewBox="0 0 850.394 850.394" width="850.394" height="850.394">
  <defs/>
  <metadata> Produced by OmniGraffle 7.9.4 
    <dc:date>2019-07-06 21:24:29 +0000</dc:date>
  </metadata>
  <g id="terminal_block" fill-opacity="1" stroke="none" stroke-opacity="1" stroke-dasharray="none" fill="none">
    <title>terminal block</title>
    <g id="terminal_block: Layer 2">
      <title>Layer 2</title>
      <g id="Graphic_5">
        <path d="M 42.47755 467.6204 L 379.4694 122.9347 L 542.5796 206.02857 L 548.7347 372.21633 L 214.8204 693.8204 L 131.72653 663.0449 L 56.32653 635.34694 Z" fill="#cbcbcb"/>
        <path d="M 42.47755 467.6204 L 379.4694 122.9347 L 542.5796 206.02857 L 548.7347 372.21633 L 214.8204 693.8204 L 131.72653 663.0449 L 56.32653 635.34694 Z" stroke="black" stroke-linecap="round" stroke-linejoin="round" stroke-width="5"/>
      </g>
      <g id="Graphic_39">
        <path d="M 502 378.56805 L 442.4186 324 L 335 433 L 397.48837 483 Z" fill="#cbcbcb"/>
        <path d="M 502 378.56805 L 442.4186 324 L 335 433 L 397.48837 483 Z" stroke="black" stroke-linecap="round" stroke-linejoin="round" stroke-width="4"/>
      </g>
      <g id="Graphic_14">
        <path d="M 62.509015 626.1143 L 56.13009 481.4694 L 231.5505 550.7143 L 226.7663 663.0449 L 198.06115 681.5102 Z" fill="#dcdcdc"/>
        <path d="M 62.509015 626.1143 L 56.13009 481.4694 L 231.5505 550.7143 L 226.7663 663.0449 L 198.06115 681.5102 Z" stroke="black" stroke-linecap="round" stroke-linejoin="round" stroke-width="5"/>
      </g>
      <g id="Graphic_6">
        <path d="M 280.98776 593.8 L 617.9796 249.1143 L 781.0898 332.20816 L 790.32245 481.4694 L 453.3306 820 L 370.23673 789.2245 L 294.83673 761.5265 Z" fill="#cbcbcb"/>
        <path d="M 280.98776 593.8 L 617.9796 249.1143 L 781.0898 332.20816 L 790.32245 481.4694 L 453.3306 820 L 370.23673 789.2245 L 294.83673 761.5265 Z" stroke="black" stroke-linecap="round" stroke-linejoin="round" stroke-width="5"/>
      </g>
      <g id="Graphic_15">
        <path d="M 300.15928 757.6796 L 293.78035 613.0347 L 469.20076 682.2796 L 464.41657 794.6102 L 435.7114 813.0755 Z" fill="#dcdcdc"/>
        <path d="M 300.15928 757.6796 L 293.78035 613.0347 L 469.20076 682.2796 L 464.41657 794.6102 L 435.7114 813.0755 Z" stroke="black" stroke-linecap="round" stroke-linejoin="round" stroke-width="5"/>
      </g>
      <g id="Graphic_7">
        <path d="M 76.33061 603.03265 L 70.17551 496.85714 L 207.12653 556.8694 L 205.58776 667.6612 Z" fill="#999"/>
        <path d="M 76.33061 603.03265 L 70.17551 496.85714 L 207.12653 556.8694 L 205.58776 667.6612 Z" stroke="black" stroke-linecap="round" stroke-linejoin="round" stroke-width="5"/>
      </g>
      <g id="Graphic_8">
        <path d="M 311.76327 733.8286 L 305.60816 627.65306 L 442.5592 687.6653 L 441.0204 798.4571 Z" fill="#999"/>
        <path d="M 311.76327 733.8286 L 305.60816 627.65306 L 442.5592 687.6653 L 441.0204 798.4571 Z" stroke="black" stroke-linecap="round" stroke-linejoin="round" stroke-width="5"/>
      </g>
      <g id="Line_12">
        <path d="M 228.0099 544.5592 L 524.7127 224.4084 L 534.9712 212.44014" stroke="#888" stroke-linecap="round" stroke-linejoin="round" stroke-width="8"/>
      </g>
      <g id="Line_13">
        <path d="M 474.87347 672.03454 L 759.8034 358.6238 L 774.3363 341.5263" stroke="#888" stroke-linecap="round" stroke-linejoin="round" stroke-width="8"/>
      </g>
      <g id="Graphic_36">
        <path d="M 309.0653 222.1127 C 354.54886 219.15503 389.0229 253.62905 386.0652 299.1126 C 383.1078 344.59615 343.83865 383.8653 298.3551 386.8227 C 252.87155 389.78038 218.39753 355.30636 221.3552 309.8228 C 224.31262 264.33926 263.58176 225.07012 309.0653 222.1127" fill="#999"/>
        <path d="M 309.0653 222.1127 C 354.54886 219.15503 389.0229 253.62905 386.0652 299.1126 C 383.1078 344.59615 343.83865 383.8653 298.3551 386.8227 C 252.87155 389.78038 218.39753 355.30636 221.3552 309.8228 C 224.31262 264.33926 263.58176 225.07012 309.0653 222.1127" stroke="black" stroke-linecap="round" stroke-linejoin="round" stroke-width="6"/>
      </g>
      <g id="Graphic_33">
        <path d="M 309.0653 198.645 C 354.54886 195.68733 389.0229 230.16135 386.0652 275.6449 C 383.1078 321.12845 343.83865 360.3976 298.3551 363.355 C 252.87155 366.31267 218.39753 331.83865 221.3552 286.3551 C 224.31262 240.87155 263.58176 201.60242 309.0653 198.645" fill="#ccc"/>
        <path d="M 309.0653 198.645 C 354.54886 195.68733 389.0229 230.16135 386.0652 275.6449 C 383.1078 321.12845 343.83865 360.3976 298.3551 363.355 C 252.87155 366.31267 218.39753 331.83865 221.3552 286.3551 C 224.31262 240.87155 263.58176 201.60242 309.0653 198.645" stroke="black" stroke-linecap="round" stroke-linejoin="round" stroke-width="6"/>
      </g>
      <g id="Graphic_35">
        <path d="M 560.2069 375.06567 C 604.92605 371.34357 638.1607 404.5782 634.4386 449.2973 C 630.7167 494.0164 591.4476 533.28555 546.7285 537.0074 C 502.00935 540.7295 468.7747 507.4949 472.4968 462.7758 C 476.2187 418.05667 515.4878 378.78754 560.2069 375.06567" fill="#999"/>
        <path d="M 560.2069 375.06567 C 604.92605 371.34357 638.1607 404.5782 634.4386 449.2973 C 630.7167 494.0164 591.4476 533.28555 546.7285 537.0074 C 502.00935 540.7295 468.7747 507.4949 472.4968 462.7758 C 476.2187 418.05667 515.4878 378.78754 560.2069 375.06567" stroke="black" stroke-linecap="round" stroke-linejoin="round" stroke-width="6"/>
      </g>
      <g id="Graphic_34">
        <path d="M 558.8228 358.1127 C 604.30636 355.15503 638.7804 389.62905 635.8227 435.1126 C 632.8653 480.59615 593.59615 519.8653 548.1126 522.8227 C 502.62905 525.7804 468.15503 491.30636 471.1127 445.8228 C 474.0701 400.33926 513.33926 361.0701 558.8228 358.1127" fill="#ccc"/>
        <path d="M 558.8228 358.1127 C 604.30636 355.15503 638.7804 389.62905 635.8227 435.1126 C 632.8653 480.59615 593.59615 519.8653 548.1126 522.8227 C 502.62905 525.7804 468.15503 491.30636 471.1127 445.8228 C 474.0701 400.33926 513.33926 361.0701 558.8228 358.1127" stroke="black" stroke-linecap="round" stroke-linejoin="round" stroke-width="6"/>
      </g>
      <g id="Graphic_37">
        <path d="M 421.45893 368.11446 C 441.0019 366.84364 455.81436 381.6561 454.54354 401.19907 C 453.2728 420.742 436.4 437.6148 416.85707 438.88554 C 397.3141 440.15636 382.50164 425.3439 383.77246 405.80093 C 385.0432 386.258 401.916 369.3852 421.45893 368.11446" fill="#999"/>
        <path d="M 421.45893 368.11446 C 441.0019 366.84364 455.81436 381.6561 454.54354 401.19907 C 453.2728 420.742 436.4 437.6148 416.85707 438.88554 C 397.3141 440.15636 382.50164 425.3439 383.77246 405.80093 C 385.0432 386.258 401.916 369.3852 421.45893 368.11446" stroke="black" stroke-linecap="round" stroke-linejoin="round" stroke-width="6"/>
      </g>
      <g id="Graphic_40">
        <path d="M 336 434 L 336 514 L 347 525 L 391 477 Z" stroke="black" stroke-linecap="round" stroke-linejoin="round" stroke-width="5"/>
      </g>
      <g id="Graphic_41">
        <path d="M 330.645 233.1006 C 356.75488 248.57268 365.8619 282.56055 350.9861 309.0147 C 336.11046 335.4689 302.8852 344.3716 276.7754 328.8994 C 250.66553 313.42732 241.5585 279.43945 256.4343 252.9853 C 271.30995 226.5311 304.5352 217.62842 330.645 233.1006" fill="#999"/>
        <path d="M 330.645 233.1006 C 356.75488 248.57268 365.8619 282.56055 350.9861 309.0147 C 336.11046 335.4689 302.8852 344.3716 276.7754 328.8994 C 250.66553 313.42732 241.5585 279.43945 256.4343 252.9853 C 271.30995 226.5311 304.5352 217.62842 330.645 233.1006" stroke="black" stroke-linecap="round" stroke-linejoin="round" stroke-width="6"/>
      </g>
      <g id="Graphic_42">
        <path d="M 531.9235 488.3671 C 505.81363 472.895 496.7066 438.90715 511.5824 412.453 C 526.45805 385.9988 559.6833 377.0961 585.7931 392.5683 C 611.903 408.0404 621.01 442.02825 606.1342 468.4824 C 591.2586 494.9366 558.0333 503.8393 531.9235 488.3671" fill="#999"/>
        <path d="M 531.9235 488.3671 C 505.81363 472.895 496.7066 438.90715 511.5824 412.453 C 526.45805 385.9988 559.6833 377.0961 585.7931 392.5683 C 611.903 408.0404 621.01 442.02825 606.1342 468.4824 C 591.2586 494.9366 558.0333 503.8393 531.9235 488.3671" stroke="black" stroke-linecap="round" stroke-linejoin="round" stroke-width="6"/>
      </g>
      <g id="Line_43">
        <path d="M 275.1111 257 L 332.4896 301.27604 L 332.4896 301.27604" stroke="black" stroke-linecap="round" stroke-linejoin="round" stroke-width="8"/>
      </g>
      <g id="Line_44">
        <path d="M 316.43243 257 L 290.98798 296.55556 L 290.98798 301.27604" stroke="black" stroke-linecap="round" stroke-linejoin="round" stroke-width="8"/>
      </g>
      <g id="Line_45">
        <path d="M 582.7454 462.6057 L 525.36694 418.3297 L 525.36694 418.3297" stroke="black" stroke-linecap="round" stroke-linejoin="round" stroke-width="8"/>
      </g>
      <g id="Line_46">
        <path d="M 541.4241 462.6057 L 566.86854 423.05017 L 566.86854 418.3297" stroke="black" stroke-linecap="round" stroke-linejoin="round" stroke-width="8"/>
      </g>
    </g>
  </g>
</svg>
