<?xml version="1.0" encoding="UTF-8" standalone="no"?>
<!DOCTYPE svg PUBLIC "-//W3C//DTD SVG 1.1//EN" "http://www.w3.org/Graphics/SVG/1.1/DTD/svg11.dtd">
<svg version="1.1" xmlns:dc="http://purl.org/dc/elements/1.1/" xmlns="http://www.w3.org/2000/svg" xmlns:xl="http://www.w3.org/1999/xlink" viewBox="0 0 850.394 850.394" width="850.394" height="850.394">
  <defs/>
  <metadata> Produced by OmniGraffle 7.9.4 
    <dc:date>2019-07-07 19:25:51 +0000</dc:date>
  </metadata>
  <g id="terminal_block" fill-opacity="1" stroke="none" stroke-opacity="1" stroke-dasharray="none" fill="none">
    <title>terminal block</title>
    <g id="terminal_block: Layer 2">
      <title>Layer 2</title>
      <g id="Graphic_5">
        <path d="M 42.47755 467.6204 L 379.4694 122.9347 L 542.5796 206.02857 L 548.7347 372.21633 L 214.8204 693.8204 L 131.72653 663.0449 L 56.32653 635.34694 Z" fill="#cbcbcb"/>
        <path d="M 42.47755 467.6204 L 379.4694 122.9347 L 542.5796 206.02857 L 548.7347 372.21633 L 214.8204 693.8204 L 131.72653 663.0449 L 56.32653 635.34694 Z" stroke="black" stroke-linecap="round" stroke-linejoin="round" stroke-width="5"/>
      </g>
      <g id="Graphic_40">
        <path d="M 363.4966 421.05017 L 365 467.65526 C 365 467.65526 374 487.3105 388 480.65526 C 402 474 405 465 405 465 L 410 457.5 C 412.08053 454.3792 411.23723 450.1627 408.11643 448.08215 C 407.5893 447.7307 407.01554 447.4548 406.4119 447.26236 L 384.67534 440.33334 C 375.5744 437.4322 368.67053 429.95755 366.5 420.65526 L 366.5 420.65526 C 366.309 419.83667 365.49056 419.3279 364.67197 419.5189 C 363.9652 419.68383 363.4732 420.3248 363.4966 421.05017 Z" stroke="black" stroke-linecap="round" stroke-linejoin="round" stroke-width="5"/>
      </g>
      <g id="Graphic_39">
        <path d="M 472.5 372 L 472.5 372 C 468.60156 359.40503 457.20986 350.6178 444.0378 350.04512 L 443 350 C 428.34435 349.3628 414.0941 354.9059 403.7212 365.2788 L 374.1501 394.8499 C 366.5056 402.4944 362.92707 413.3041 364.5 424 L 364.5 424 C 366.04245 434.4887 373.1623 443.31086 383.0888 447.0333 L 396.31394 451.99273 C 403.09694 454.53635 410.6525 453.99113 417 450.5 L 417.0304 450.48327 C 423.64353 446.84606 429.70867 442.29133 435.04546 436.95454 L 463.4557 408.5443 C 473.0162 398.9838 476.4978 384.916 472.5 372 Z" fill="#cbcbcb"/>
        <path d="M 472.5 372 L 472.5 372 C 468.60156 359.40503 457.20986 350.6178 444.0378 350.04512 L 443 350 C 428.34435 349.3628 414.0941 354.9059 403.7212 365.2788 L 374.1501 394.8499 C 366.5056 402.4944 362.92707 413.3041 364.5 424 L 364.5 424 C 366.04245 434.4887 373.1623 443.31086 383.0888 447.0333 L 396.31394 451.99273 C 403.09694 454.53635 410.6525 453.99113 417 450.5 L 417.0304 450.48327 C 423.64353 446.84606 429.70867 442.29133 435.04546 436.95454 L 463.4557 408.5443 C 473.0162 398.9838 476.4978 384.916 472.5 372 Z" stroke="black" stroke-linecap="round" stroke-linejoin="round" stroke-width="4"/>
      </g>
      <g id="Graphic_14">
        <path d="M 62.509015 626.1143 L 56.13009 481.4694 L 224 549.5 L 224 589.5 L 218.5 671.5 L 212 683 Z" fill="#dcdcdc"/>
        <path d="M 62.509015 626.1143 L 56.13009 481.4694 L 224 549.5 L 224 589.5 L 218.5 671.5 L 212 683 Z" stroke="black" stroke-linecap="round" stroke-linejoin="round" stroke-width="5"/>
      </g>
      <g id="Graphic_6">
        <path d="M 280.98776 593.8 L 617.9796 249.1143 L 781.0898 332.20816 L 790.32245 481.4694 L 453.3306 820 L 370.23673 789.2245 L 294.83673 761.5265 Z" fill="#cbcbcb"/>
        <path d="M 280.98776 593.8 L 617.9796 249.1143 L 781.0898 332.20816 L 790.32245 481.4694 L 453.3306 820 L 370.23673 789.2245 L 294.83673 761.5265 Z" stroke="black" stroke-linecap="round" stroke-linejoin="round" stroke-width="5"/>
      </g>
      <g id="Graphic_15">
        <path d="M 303 745 L 293.78035 613.0347 L 469.20076 682.2796 L 469 697 L 462 798 L 435.5 804 Z" fill="#dcdcdc"/>
        <path d="M 303 745 L 293.78035 613.0347 L 469.20076 682.2796 L 469 697 L 462 798 L 435.5 804 Z" stroke="black" stroke-linecap="round" stroke-linejoin="round" stroke-width="5"/>
      </g>
      <g id="Graphic_7">
        <path d="M 77.74464 611.6755 L 71.589535 505.5 L 208.54056 565.51224 L 208.41403 610.64286 L 204.91403 666.64286 Z" fill="#996237"/>
        <path d="M 77.74464 611.6755 L 71.589535 505.5 L 208.54056 565.51224 L 208.41403 610.64286 L 204.91403 666.64286 Z" stroke="black" stroke-linecap="round" stroke-linejoin="round" stroke-width="5"/>
      </g>
      <g id="Graphic_8">
        <path d="M 311.76327 733.8286 L 305.60816 627.65306 L 442.5592 687.6653 L 457.5 694.5 L 450 793.5 Z" fill="#994741"/>
        <path d="M 311.76327 733.8286 L 305.60816 627.65306 L 442.5592 687.6653 L 457.5 694.5 L 450 793.5 Z" stroke="black" stroke-linecap="round" stroke-linejoin="round" stroke-width="5"/>
      </g>
      <g id="Line_12">
        <path d="M 228.0099 544.5592 L 524.7127 224.4084 L 534.9712 212.44014" stroke="#888" stroke-linecap="round" stroke-linejoin="round" stroke-width="8"/>
      </g>
      <g id="Line_13">
        <path d="M 474.87347 672.03454 L 759.8034 358.6238 L 774.3363 341.5263" stroke="#888" stroke-linecap="round" stroke-linejoin="round" stroke-width="8"/>
      </g>
      <g id="Graphic_36">
        <path d="M 219.8228 337.75645 C 265.30636 334.7988 299.78038 369.2728 296.8227 414.75636 C 293.8653 460.2399 254.59615 499.50904 209.1126 502.4665 C 163.62905 505.42413 129.15503 470.9501 132.11269 425.46656 C 135.07012 379.983 174.33926 340.71388 219.8228 337.75645" fill="#999"/>
        <path d="M 219.8228 337.75645 C 265.30636 334.7988 299.78038 369.2728 296.8227 414.75636 C 293.8653 460.2399 254.59615 499.50904 209.1126 502.4665 C 163.62905 505.42413 129.15503 470.9501 132.11269 425.46656 C 135.07012 379.983 174.33926 340.71388 219.8228 337.75645" stroke="black" stroke-linecap="round" stroke-linejoin="round" stroke-width="6"/>
      </g>
      <g id="Graphic_33">
        <path d="M 219.8228 314.2887 C 265.30638 311.33104 299.78042 345.8051 296.82275 391.28866 C 293.86532 436.7722 262.24106 473.6863 216.7575 476.64376 C 171.27392 479.6014 129.15499 447.48244 132.11265 401.99886 C 135.07008 356.5153 174.33924 317.24614 219.8228 314.2887 Z" fill="#ccc"/>
        <path d="M 219.8228 314.2887 C 265.30638 311.33104 299.78042 345.8051 296.82275 391.28866 C 293.86532 436.7722 262.24106 473.6863 216.7575 476.64376 C 171.27392 479.6014 129.15499 447.48244 132.11265 401.99886 C 135.07008 356.5153 174.33924 317.24614 219.8228 314.2887 Z" stroke="black" stroke-linecap="round" stroke-linejoin="round" stroke-width="6"/>
      </g>
      <g id="Graphic_35">
        <path d="M 464.20693 471.16174 C 508.92605 467.43964 542.1607 500.67427 538.4386 545.3934 C 534.7167 590.1125 495.4476 629.3816 450.72847 633.1035 C 406.00935 636.8256 372.77473 603.591 376.49682 558.87185 C 380.2187 514.15274 419.48783 474.8836 464.20693 471.16174" fill="#999"/>
        <path d="M 464.20693 471.16174 C 508.92605 467.43964 542.1607 500.67427 538.4386 545.3934 C 534.7167 590.1125 495.4476 629.3816 450.72847 633.1035 C 406.00935 636.8256 372.77473 603.591 376.49682 558.87185 C 380.2187 514.15274 419.48783 474.8836 464.20693 471.16174" stroke="black" stroke-linecap="round" stroke-linejoin="round" stroke-width="6"/>
      </g>
      <g id="Graphic_34">
        <path d="M 462.8228 441.83254 C 508.30636 438.8749 542.7804 473.3489 539.8227 518.83246 C 536.8653 564.316 497.59615 603.5851 452.1126 606.5426 C 406.62905 609.5002 372.15503 575.0262 375.1127 529.54265 C 378.0701 484.0591 417.33926 444.79 462.8228 441.83254" fill="#ccc"/>
        <path d="M 462.8228 441.83254 C 508.30636 438.8749 542.7804 473.3489 539.8227 518.83246 C 536.8653 564.316 497.59615 603.5851 452.1126 606.5426 C 406.62905 609.5002 372.15503 575.0262 375.1127 529.54265 C 378.0701 484.0591 417.33926 444.79 462.8228 441.83254" stroke="black" stroke-linecap="round" stroke-linejoin="round" stroke-width="6"/>
      </g>
      <g id="Graphic_37">
        <path d="M 419.95163 375.9228 C 434.5726 374.97205 445.65453 386.05396 444.70377 400.67495 C 443.7531 415.29593 431.12976 427.91926 416.50877 428.86994 C 401.8878 429.8207 390.80588 418.7388 391.75664 404.1178 C 392.7073 389.4968 405.33065 376.8735 419.95163 375.9228" fill="#999"/>
        <path d="M 419.95163 375.9228 C 434.5726 374.97205 445.65453 386.05396 444.70377 400.67495 C 443.7531 415.29593 431.12976 427.91926 416.50877 428.86994 C 401.8878 429.8207 390.80588 418.7388 391.75664 404.1178 C 392.7073 389.4968 405.33065 376.8735 419.95163 375.9228" stroke="black" stroke-linecap="round" stroke-linejoin="round" stroke-width="6"/>
      </g>
      <g id="Graphic_41">
        <path d="M 240.7575 353.64376 C 266.8674 369.11583 276.6333 396.1896 261.7575 422.64376 C 246.88184 449.098 213.6427 460.0154 187.5329 444.54317 C 161.423 429.0711 152.31597 395.0832 167.19177 368.62906 C 182.06743 342.17483 214.64768 338.17155 240.7575 353.64376 Z" fill="#999"/>
        <path d="M 240.7575 353.64376 C 266.8674 369.11583 276.6333 396.1896 261.7575 422.64376 C 246.88184 449.098 213.6427 460.0154 187.5329 444.54317 C 161.423 429.0711 152.31597 395.0832 167.19177 368.62906 C 182.06743 342.17483 214.64768 338.17155 240.7575 353.64376 Z" stroke="black" stroke-linecap="round" stroke-linejoin="round" stroke-width="6"/>
      </g>
      <g id="Graphic_42">
        <path d="M 430.12105 568.85894 C 404.01116 553.38687 394.90413 519.399 409.7799 492.9448 C 424.6556 466.4906 457.08773 465.0196 483.19755 480.4918 C 509.30744 495.9639 521.07334 516.0377 506.19755 542.4918 C 491.3219 568.94605 456.23086 584.33114 430.12105 568.85894 Z" fill="#999"/>
        <path d="M 430.12105 568.85894 C 404.01116 553.38687 394.90413 519.399 409.7799 492.9448 C 424.6556 466.4906 457.08773 465.0196 483.19755 480.4918 C 509.30744 495.9639 521.07334 516.0377 506.19755 542.4918 C 491.3219 568.94605 456.23086 584.33114 430.12105 568.85894 Z" stroke="black" stroke-linecap="round" stroke-linejoin="round" stroke-width="6"/>
      </g>
      <g id="Line_43">
        <path d="M 185.8686 372.64376 L 243.24708 416.9198 L 243.24708 416.9198" stroke="black" stroke-linecap="round" stroke-linejoin="round" stroke-width="8"/>
      </g>
      <g id="Line_44">
        <path d="M 227.18992 372.64376 L 201.74548 412.1993 L 201.74548 416.9198" stroke="black" stroke-linecap="round" stroke-linejoin="round" stroke-width="8"/>
      </g>
      <g id="Line_45">
        <path d="M 486.15694 543.2301 L 456.59615 522.8895 L 429.7669 503.1736" stroke="black" stroke-linecap="round" stroke-linejoin="round" stroke-width="8"/>
      </g>
      <g id="Line_46">
        <path d="M 444.7455 543.2301 L 470.1899 503.6746 L 470.1899 498.9541" stroke="black" stroke-linecap="round" stroke-linejoin="round" stroke-width="8"/>
      </g>
      <g id="Graphic_49">
        <path d="M 377.8228 181.75645 C 423.30636 178.79879 457.7804 213.2728 454.8227 258.75636 C 451.8653 304.2399 412.59615 343.50904 367.1126 346.46647 C 321.62905 349.42413 287.15503 314.9501 290.1127 269.46656 C 293.07012 223.98301 332.33926 184.71388 377.8228 181.75645" fill="#999"/>
        <path d="M 377.8228 181.75645 C 423.30636 178.79879 457.7804 213.2728 454.8227 258.75636 C 451.8653 304.2399 412.59615 343.50904 367.1126 346.46647 C 321.62905 349.42413 287.15503 314.9501 290.1127 269.46656 C 293.07012 223.98301 332.33926 184.71388 377.8228 181.75645" stroke="black" stroke-linecap="round" stroke-linejoin="round" stroke-width="6"/>
      </g>
      <g id="Graphic_50">
        <path d="M 377.8228 158.2887 C 423.3064 155.33104 457.7804 189.80508 454.82275 235.28866 C 451.8653 280.77222 420.24106 317.68633 374.7575 320.64376 C 329.2739 323.60142 287.155 291.48244 290.11265 245.99886 C 293.07008 200.5153 332.33924 161.24614 377.8228 158.2887 Z" fill="#ccc"/>
        <path d="M 377.8228 158.2887 C 423.3064 155.33104 457.7804 189.80508 454.82275 235.28866 C 451.8653 280.77222 420.24106 317.68633 374.7575 320.64376 C 329.2739 323.60142 287.155 291.48244 290.11265 245.99886 C 293.07008 200.5153 332.33924 161.24614 377.8228 158.2887 Z" stroke="black" stroke-linecap="round" stroke-linejoin="round" stroke-width="6"/>
      </g>
      <g id="Graphic_51">
        <path d="M 398.7575 197.64376 C 424.8674 213.11583 434.6333 240.1896 419.7575 266.64376 C 404.88184 293.098 371.6427 304.01537 345.5329 288.54317 C 319.423 273.0711 310.31597 239.0832 325.19177 212.62906 C 340.06743 186.17483 372.6477 182.17155 398.7575 197.64376 Z" fill="#999"/>
        <path d="M 398.7575 197.64376 C 424.8674 213.11583 434.6333 240.1896 419.7575 266.64376 C 404.88184 293.098 371.6427 304.01537 345.5329 288.54317 C 319.423 273.0711 310.31597 239.0832 325.19177 212.62906 C 340.06743 186.17483 372.6477 182.17155 398.7575 197.64376 Z" stroke="black" stroke-linecap="round" stroke-linejoin="round" stroke-width="6"/>
      </g>
      <g id="Line_52">
        <path d="M 343.8686 216.64376 L 401.2471 260.9198 L 401.2471 260.9198" stroke="black" stroke-linecap="round" stroke-linejoin="round" stroke-width="8"/>
      </g>
      <g id="Line_53">
        <path d="M 385.18992 216.64376 L 359.7455 256.1993 L 359.7455 260.9198" stroke="black" stroke-linecap="round" stroke-linejoin="round" stroke-width="8"/>
      </g>
      <g id="Graphic_54">
        <path d="M 621.2069 312.16174 C 665.92605 308.43964 699.1607 341.67427 695.4386 386.3934 C 691.7167 431.1125 652.4476 470.3816 607.7285 474.1035 C 563.00935 477.8256 529.7747 444.59097 533.4968 399.87185 C 537.2187 355.15274 576.4878 315.8836 621.2069 312.16174" fill="#999"/>
        <path d="M 621.2069 312.16174 C 665.92605 308.43964 699.1607 341.67427 695.4386 386.3934 C 691.7167 431.1125 652.4476 470.3816 607.7285 474.1035 C 563.00935 477.8256 529.7747 444.59097 533.4968 399.87185 C 537.2187 355.15274 576.4878 315.8836 621.2069 312.16174" stroke="black" stroke-linecap="round" stroke-linejoin="round" stroke-width="6"/>
      </g>
      <g id="Graphic_55">
        <path d="M 619.8228 282.83254 C 665.30636 279.87488 699.7804 314.3489 696.8227 359.83246 C 693.8653 405.316 654.59615 444.58514 609.1126 447.54257 C 563.62905 450.50023 529.155 416.0262 532.1127 370.54265 C 535.0701 325.0591 574.33926 285.78997 619.8228 282.83254" fill="#ccc"/>
        <path d="M 619.8228 282.83254 C 665.30636 279.87488 699.7804 314.3489 696.8227 359.83246 C 693.8653 405.316 654.59615 444.58514 609.1126 447.54257 C 563.62905 450.50023 529.155 416.0262 532.1127 370.54265 C 535.0701 325.0591 574.33926 285.78997 619.8228 282.83254" stroke="black" stroke-linecap="round" stroke-linejoin="round" stroke-width="6"/>
      </g>
      <g id="Graphic_56">
        <path d="M 584.6936 404.0009 C 558.5837 388.52885 549.4767 354.54096 564.3525 328.0868 C 579.2281 301.63257 611.6603 300.1616 637.7701 315.6338 C 663.88 331.10588 675.6459 351.17965 660.7701 377.6338 C 645.8944 404.08804 610.8034 419.4731 584.6936 404.0009 Z" fill="#999"/>
        <path d="M 584.6936 404.0009 C 558.5837 388.52885 549.4767 354.54096 564.3525 328.0868 C 579.2281 301.63257 611.6603 300.1616 637.7701 315.6338 C 663.88 331.10588 675.6459 351.17965 660.7701 377.6338 C 645.8944 404.08804 610.8034 419.4731 584.6936 404.0009 Z" stroke="black" stroke-linecap="round" stroke-linejoin="round" stroke-width="6"/>
      </g>
      <g id="Line_57">
        <path d="M 635.67335 371.15456 L 606.11256 350.81392 L 579.2833 331.09803" stroke="black" stroke-linecap="round" stroke-linejoin="round" stroke-width="8"/>
      </g>
      <g id="Line_58">
        <path d="M 594.7561 378.3721 L 620.20054 338.81656 L 620.20054 334.09607" stroke="black" stroke-linecap="round" stroke-linejoin="round" stroke-width="8"/>
      </g>
      <g id="Graphic_59">
        <path d="M 83.6976 536.0497 L 88.43915 559.3927 C 90.13549 567.7439 90.4866 576.31254 89.47922 584.77454 L 88.5 593 C 87.02021 605.4302 93.95967 617.3355 105.50497 622.1735 L 149.17007 640.4713 C 169.00598 648.78346 191.82454 639.4416 200.13673 619.6057 C 200.89886 617.787 201.52174 615.91305 202 614 L 202 614 C 208.3396 588.6416 195.33835 562.4307 171.31295 552.1341 L 131.44834 535.0493 C 129.81656 534.34996 128.20852 533.5965 126.62688 532.7902 L 103.5 521 C 96.70623 517.5365 88.39108 520.23623 84.92759 527.03 C 83.50978 529.8111 83.07621 532.99056 83.6976 536.0497 Z" fill="#333"/>
        <path d="M 83.6976 536.0497 L 88.43915 559.3927 C 90.13549 567.7439 90.4866 576.31254 89.47922 584.77454 L 88.5 593 C 87.02021 605.4302 93.95967 617.3355 105.50497 622.1735 L 149.17007 640.4713 C 169.00598 648.78346 191.82454 639.4416 200.13673 619.6057 C 200.89886 617.787 201.52174 615.91305 202 614 L 202 614 C 208.3396 588.6416 195.33835 562.4307 171.31295 552.1341 L 131.44834 535.0493 C 129.81656 534.34996 128.20852 533.5965 126.62688 532.7902 L 103.5 521 C 96.70623 517.5365 88.39108 520.23623 84.92759 527.03 C 83.50978 529.8111 83.07621 532.99056 83.6976 536.0497 Z" stroke="black" stroke-linecap="round" stroke-linejoin="round" stroke-width="4"/>
      </g>
      <g id="Graphic_60">
        <path d="M 319.37324 660.5932 L 317.66847 698.1969 C 316.68216 719.953 330.30985 739.7018 351 746.5 L 384.2031 757.4096 C 385.40087 757.8031 386.58916 758.22495 387.76698 758.6747 L 413.5 768.5 C 425.9963 773.2713 439.9945 767.009 444.7658 754.5127 C 445.32444 753.0496 445.73985 751.53575 446.0062 749.99245 L 448.33476 736.5 C 452.63505 711.5827 439.26957 686.97145 416.02837 677.0109 L 374.11785 659.0493 C 372.4861 658.34996 370.87804 657.5965 369.2964 656.7902 L 346.1695 645 C 337.0964 640.3745 325.9915 643.98 321.366 653.0531 C 320.17177 655.3956 319.49232 657.9665 319.37324 660.5932 Z" fill="#333"/>
        <path d="M 319.37324 660.5932 L 317.66847 698.1969 C 316.68216 719.953 330.30985 739.7018 351 746.5 L 384.2031 757.4096 C 385.40087 757.8031 386.58916 758.22495 387.76698 758.6747 L 413.5 768.5 C 425.9963 773.2713 439.9945 767.009 444.7658 754.5127 C 445.32444 753.0496 445.73985 751.53575 446.0062 749.99245 L 448.33476 736.5 C 452.63505 711.5827 439.26957 686.97145 416.02837 677.0109 L 374.11785 659.0493 C 372.4861 658.34996 370.87804 657.5965 369.2964 656.7902 L 346.1695 645 C 337.0964 640.3745 325.9915 643.98 321.366 653.0531 C 320.17177 655.3956 319.49232 657.9665 319.37324 660.5932 Z" stroke="black" stroke-linecap="round" stroke-linejoin="round" stroke-width="4"/>
      </g>
    </g>
  </g>
</svg>
