<?xml version="1.0" encoding="UTF-8" standalone="no"?>
<!DOCTYPE svg PUBLIC "-//W3C//DTD SVG 1.1//EN" "http://www.w3.org/Graphics/SVG/1.1/DTD/svg11.dtd">
<svg xmlns="http://www.w3.org/2000/svg" version="1.1" xmlns:dc="http://purl.org/dc/elements/1.1/" xmlns:xl="http://www.w3.org/1999/xlink" viewBox="0 0 850.394 850.394" width="850.394" height="850.394">
  <defs/>
  <metadata> Produced by OmniGraffle 7.9.4 
    <dc:date>2019-03-10 11:48:16 +0000</dc:date>
  </metadata>
  <g id="Theremin" fill="none" stroke-opacity="1" fill-opacity="1" stroke-dasharray="none" stroke="none">
    <title>Theremin</title>
    <g id="Theremin: Layer 1">
      <title>Layer 1</title>
      <g id="Graphic_15">
        <path d="M 586.4085 516.4144 L 586.4085 141.5347 C 586.4085 134.90728 591.78106 129.5347 598.4085 129.5347 L 601.485 129.5347 C 608.1124 129.5347 613.485 134.90728 613.485 141.5347 L 613.485 516.4144 C 613.485 523.04184 608.1124 528.4144 601.485 528.4144 L 598.4085 528.4144 C 591.78106 528.4144 586.4085 523.04184 586.4085 516.4144 Z" fill="#c1c9c2"/>
        <path d="M 586.4085 516.4144 L 586.4085 141.5347 C 586.4085 134.90728 591.78106 129.5347 598.4085 129.5347 L 601.485 129.5347 C 608.1124 129.5347 613.485 134.90728 613.485 141.5347 L 613.485 516.4144 C 613.485 523.04184 608.1124 528.4144 601.485 528.4144 L 598.4085 528.4144 C 591.78106 528.4144 586.4085 523.04184 586.4085 516.4144 Z" stroke="black" stroke-linecap="round" stroke-linejoin="round" stroke-width="5"/>
      </g>
      <g id="Graphic_14">
        <path d="M 569.5123 692.25674 L 569.5123 456.6114 C 569.5123 449.98397 574.8849 444.6114 581.5123 444.6114 L 619.80696 444.6114 C 626.4344 444.6114 631.80696 449.98397 631.80696 456.6114 L 631.80696 692.25674 C 631.80696 698.8842 626.4344 704.25674 619.80696 704.25674 L 581.5123 704.25674 C 574.8849 704.25674 569.5123 698.8842 569.5123 692.25674 Z" fill="#c1c9c2"/>
        <path d="M 569.5123 692.25674 L 569.5123 456.6114 C 569.5123 449.98397 574.8849 444.6114 581.5123 444.6114 L 619.80696 444.6114 C 626.4344 444.6114 631.80696 449.98397 631.80696 456.6114 L 631.80696 692.25674 C 631.80696 698.8842 626.4344 704.25674 619.80696 704.25674 L 581.5123 704.25674 C 574.8849 704.25674 569.5123 698.8842 569.5123 692.25674 Z" stroke="black" stroke-linecap="round" stroke-linejoin="round" stroke-width="5"/>
      </g>
      <g id="Graphic_13">
        <ellipse cx="602.3943" cy="116.14732" rx="32.8820670454682" ry="31.1473699206774" fill="#c1c9c2"/>
        <ellipse cx="602.3943" cy="116.14732" rx="32.8820670454682" ry="31.1473699206774" stroke="black" stroke-linecap="round" stroke-linejoin="round" stroke-width="5"/>
      </g>
      <g id="Graphic_12">
        <path d="M 388.8595 657.6819 L 288.47536 631.265 C 287.9106 631.1164 287.35995 630.9186 286.8297 630.6739 L 211.0692 595.7075 C 209.05583 594.77824 206.7907 594.54455 204.63003 595.0432 L 129.45922 612.3903 C 128.68905 612.568 127.94266 612.8364 127.23568 613.1899 L 97.06004 628.2777 C 93.6722 629.97166 91.53218 633.4343 91.53218 637.222 L 91.53218 673.9373 C 91.53218 673.9373 103.78808 701.5131 103.78808 707.64105 C 103.78808 713.769 152.81169 735.2168 152.81169 735.2168 C 152.81169 735.2168 195.70734 747.4727 201.8353 747.4727 C 207.96324 747.4727 256.98684 747.4727 256.98684 747.4727 L 369.49346 747.4727 C 375.0163 747.4727 379.49346 742.9956 379.49346 737.4727 C 379.49346 735.9203 379.132 734.38915 378.43774 733.0006 L 370.0539 716.2329 C 368.35997 712.84505 364.89733 710.705 361.1096 710.705 L 185.81212 710.705 C 184.25967 710.705 182.72854 710.3436 181.33998 709.6493 L 147.49024 692.7244 C 146.95366 692.4561 146.4423 692.1401 145.96238 691.78015 L 127.48373 677.9212 C 124.26499 675.5071 122.80648 671.3991 123.78231 667.4958 L 127.18438 653.88754 C 127.8924 651.05546 129.80261 648.67415 132.41367 647.3686 L 150.70023 638.22535 C 152.08878 637.5311 153.61991 637.1696 155.17237 637.1696 L 219.22895 637.1696 C 219.88747 637.1696 220.54438 637.2347 221.1901 637.3638 L 249.88793 643.1034 C 250.53366 643.2325 251.19057 643.2976 251.8491 643.2976 L 266.4729 643.2976 C 268.28534 643.2976 270.0637 643.79015 271.61786 644.72264 L 299.1954 661.2692 C 299.65274 661.5436 300.13128 661.7809 300.62646 661.979 L 330.13605 673.78284 C 330.3934 673.8858 330.64637 673.9994 330.8943 674.1233 L 354.4772 685.9148 C 354.84808 686.1002 355.20706 686.30856 355.55207 686.5386 L 365.94126 693.4647 C 370.19344 696.2995 375.89883 695.472 379.17048 691.546 L 393.99676 673.7545 C 397.5324 669.5117 396.95916 663.2061 392.7164 659.6704 C 391.5918 658.7333 390.27517 658.05445 388.8595 657.6819 Z" fill="#cbcbcb"/>
        <path d="M 388.8595 657.6819 L 288.47536 631.265 C 287.9106 631.1164 287.35995 630.9186 286.8297 630.6739 L 211.0692 595.7075 C 209.05583 594.77824 206.7907 594.54455 204.63003 595.0432 L 129.45922 612.3903 C 128.68905 612.568 127.94266 612.8364 127.23568 613.1899 L 97.06004 628.2777 C 93.6722 629.97166 91.53218 633.4343 91.53218 637.222 L 91.53218 673.9373 C 91.53218 673.9373 103.78808 701.5131 103.78808 707.64105 C 103.78808 713.769 152.81169 735.2168 152.81169 735.2168 C 152.81169 735.2168 195.70734 747.4727 201.8353 747.4727 C 207.96324 747.4727 256.98684 747.4727 256.98684 747.4727 L 369.49346 747.4727 C 375.0163 747.4727 379.49346 742.9956 379.49346 737.4727 C 379.49346 735.9203 379.132 734.38915 378.43774 733.0006 L 370.0539 716.2329 C 368.35997 712.84505 364.89733 710.705 361.1096 710.705 L 185.81212 710.705 C 184.25967 710.705 182.72854 710.3436 181.33998 709.6493 L 147.49024 692.7244 C 146.95366 692.4561 146.4423 692.1401 145.96238 691.78015 L 127.48373 677.9212 C 124.26499 675.5071 122.80648 671.3991 123.78231 667.4958 L 127.18438 653.88754 C 127.8924 651.05546 129.80261 648.67415 132.41367 647.3686 L 150.70023 638.22535 C 152.08878 637.5311 153.61991 637.1696 155.17237 637.1696 L 219.22895 637.1696 C 219.88747 637.1696 220.54438 637.2347 221.1901 637.3638 L 249.88793 643.1034 C 250.53366 643.2325 251.19057 643.2976 251.8491 643.2976 L 266.4729 643.2976 C 268.28534 643.2976 270.0637 643.79015 271.61786 644.72264 L 299.1954 661.2692 C 299.65274 661.5436 300.13128 661.7809 300.62646 661.979 L 330.13605 673.78284 C 330.3934 673.8858 330.64637 673.9994 330.8943 674.1233 L 354.4772 685.9148 C 354.84808 686.1002 355.20706 686.30856 355.55207 686.5386 L 365.94126 693.4647 C 370.19344 696.2995 375.89883 695.472 379.17048 691.546 L 393.99676 673.7545 C 397.5324 669.5117 396.95916 663.2061 392.7164 659.6704 C 391.5918 658.7333 390.27517 658.05445 388.8595 657.6819 Z" stroke="black" stroke-linecap="round" stroke-linejoin="round" stroke-width="5"/>
      </g>
      <g id="Graphic_11">
        <path d="M 324.1384 649.4255 L 699.0181 649.4255 C 705.6455 649.4255 711.0181 654.7981 711.0181 661.4255 L 711.0181 783 C 711.0181 789.6274 705.6455 795 699.0181 795 L 324.1384 795 C 317.511 795 312.1384 789.6274 312.1384 783 L 312.1384 661.4255 C 312.1384 654.7981 317.511 649.4255 324.1384 649.4255 Z" fill="red"/>
        <path d="M 324.1384 649.4255 L 699.0181 649.4255 C 705.6455 649.4255 711.0181 654.7981 711.0181 661.4255 L 711.0181 783 C 711.0181 789.6274 705.6455 795 699.0181 795 L 324.1384 795 C 317.511 795 312.1384 789.6274 312.1384 783 L 312.1384 661.4255 C 312.1384 654.7981 317.511 649.4255 324.1384 649.4255 Z" stroke="black" stroke-linecap="round" stroke-linejoin="round" stroke-width="9"/>
      </g>
      <g id="Line_10">
        <path d="M 680.8403 232.72488 L 694.07204 306.13394 L 680.8403 399.49386 L 666.9955 418.4446" stroke="#b34400" stroke-linecap="round" stroke-linejoin="round" stroke-width="4"/>
      </g>
      <g id="Line_9">
        <path d="M 724.2999 239.9817 L 737.5317 313.39075 L 724.2999 406.75067 L 710.4552 425.7014" stroke="#b34400" stroke-linecap="round" stroke-linejoin="round" stroke-width="3"/>
      </g>
      <g id="Line_8">
        <path d="M 751.3764 239.9817 L 764.6082 313.39075 L 751.3764 406.75067 L 737.5317 425.7014" stroke="#b34400" stroke-linecap="round" stroke-linejoin="round" stroke-width="1"/>
      </g>
      <g id="Line_7">
        <path d="M 529.51236 407.21354 L 516.2806 333.8045 L 529.51236 240.44456 L 543.3571 221.49382" stroke="#b34400" stroke-linecap="round" stroke-linejoin="round" stroke-width="4"/>
      </g>
      <g id="Line_6">
        <path d="M 480.43717 411.1878 L 467.2054 337.77874 L 480.43717 244.4188 L 494.2819 225.46807" stroke="#b34400" stroke-linecap="round" stroke-linejoin="round" stroke-width="3"/>
      </g>
      <g id="Line_5">
        <path d="M 453.36066 411.1878 L 440.1289 337.77874 L 453.36066 244.4188 L 467.2054 225.46807" stroke="#b34400" stroke-linecap="round" stroke-linejoin="round" stroke-width="1"/>
      </g>
      <g id="Line_4">
        <path d="M 82 570.2388 L 213.06684 557.007 L 379.7546 570.2388 L 413.58984 584.0835" stroke="#b34400" stroke-linecap="round" stroke-linejoin="round" stroke-width="4"/>
      </g>
      <g id="Line_3">
        <path d="M 82 543.16226 L 196.67375 523.57744 L 312.1384 523.3962 L 379.7546 543.16226 L 413.58984 557.007" stroke="#b34400" stroke-linecap="round" stroke-linejoin="round" stroke-width="3"/>
      </g>
      <g id="Line_2">
        <path d="M 91.53218 524.6747 L 159.01525 492.89414 L 289.8638 491.24515 L 404.05766 522.65654" stroke="#b34400" stroke-linecap="round" stroke-linejoin="round" stroke-width="1"/>
      </g>
    </g>
  </g>
</svg>
