<?xml version="1.0" encoding="UTF-8" standalone="no"?>
<!DOCTYPE svg PUBLIC "-//W3C//DTD SVG 1.1//EN" "http://www.w3.org/Graphics/SVG/1.1/DTD/svg11.dtd">
<svg xmlns="http://www.w3.org/2000/svg" version="1.1" xmlns:dc="http://purl.org/dc/elements/1.1/" xmlns:xl="http://www.w3.org/1999/xlink" viewBox="0 0 850.394 850.394" width="850.394" height="850.394">
  <defs/>
  <metadata> Produced by OmniGraffle 7.9.4 
    <dc:date>2019-03-10 04:20:09 +0000</dc:date>
  </metadata>
  <g id="tin_foil" fill="none" stroke-opacity="1" fill-opacity="1" stroke-dasharray="none" stroke="none">
    <title>tin_foil</title>
    <g id="tin_foil: Layer 1">
      <title>Layer 1</title>
      <g id="Graphic_6">
        <path d="M 286.48 174.23757 L 87.98124 260.76266 C 84.56732 262.2508 82.0378 265.23962 81.13456 268.8526 L 46.472145 407.50225 C 45.70025 410.5898 46.186507 413.85757 47.82394 416.5866 L 118.81291 534.9016 C 122.22269 540.58453 120.3799 547.95566 114.69694 551.36543 C 114.58265 551.434 114.46722 551.5007 114.35071 551.5654 L 44.81927 590.194 C 39.025863 593.41254 36.938537 600.7182 40.157095 606.5116 C 40.90373 607.8555 41.90166 609.0435 43.096604 610.0108 L 253.08325 780 C 253.08325 780 317.02683 577.512 317.02683 572.18336 C 317.02683 566.8547 269.06915 481.5966 269.06915 481.5966 L 435.2989 372.50833 C 438.03684 370.71157 441.39014 370.11183 444.5811 370.8482 L 642.6828 416.564 C 645.7103 417.26264 648.8908 416.7598 651.55506 415.1612 L 750.1682 355.99334 C 752.6245 354.51955 754.4726 352.2157 755.3784 349.49816 L 765.968 317.72953 C 768.0637 311.4422 764.6658 304.64637 758.3785 302.5506 C 758.1857 302.48633 757.9913 302.42697 757.7955 302.37258 L 294.48674 173.6757 C 291.83245 172.9384 289.0053 173.1368 286.48 174.23757 Z" fill="#ececec"/>
        <path d="M 286.48 174.23757 L 87.98124 260.76266 C 84.56732 262.2508 82.0378 265.23962 81.13456 268.8526 L 46.472145 407.50225 C 45.70025 410.5898 46.186507 413.85757 47.82394 416.5866 L 118.81291 534.9016 C 122.22269 540.58453 120.3799 547.95566 114.69694 551.36543 C 114.58265 551.434 114.46722 551.5007 114.35071 551.5654 L 44.81927 590.194 C 39.025863 593.41254 36.938537 600.7182 40.157095 606.5116 C 40.90373 607.8555 41.90166 609.0435 43.096604 610.0108 L 253.08325 780 C 253.08325 780 317.02683 577.512 317.02683 572.18336 C 317.02683 566.8547 269.06915 481.5966 269.06915 481.5966 L 435.2989 372.50833 C 438.03684 370.71157 441.39014 370.11183 444.5811 370.8482 L 642.6828 416.564 C 645.7103 417.26264 648.8908 416.7598 651.55506 415.1612 L 750.1682 355.99334 C 752.6245 354.51955 754.4726 352.2157 755.3784 349.49816 L 765.968 317.72953 C 768.0637 311.4422 764.6658 304.64637 758.3785 302.5506 C 758.1857 302.48633 757.9913 302.42697 757.7955 302.37258 L 294.48674 173.6757 C 291.83245 172.9384 289.0053 173.1368 286.48 174.23757 Z" stroke="black" stroke-linecap="round" stroke-linejoin="round" stroke-width="4"/>
      </g>
      <g id="Graphic_5">
        <path d="M 243.5237 126.90306 L 812.2791 268.7097 C 818.7097 270.31303 822.6229 276.82577 821.0196 283.25633 L 807.0788 339.1697 C 805.4755 345.60026 798.9628 349.5135 792.5322 347.9102 C 792.5322 347.9102 792.5322 347.9102 792.5322 347.9102 L 223.7768 206.10354 C 217.34625 204.50022 213.433 197.98748 215.03632 191.55693 L 228.9771 135.64355 C 230.5804 129.213 237.09315 125.29975 243.5237 126.90306 C 243.5237 126.90306 243.5237 126.90306 243.5237 126.90306 Z" fill="#ececec"/>
        <path d="M 243.5237 126.90306 L 812.2791 268.7097 C 818.7097 270.31303 822.6229 276.82577 821.0196 283.25633 L 807.0788 339.1697 C 805.4755 345.60026 798.9628 349.5135 792.5322 347.9102 C 792.5322 347.9102 792.5322 347.9102 792.5322 347.9102 L 223.7768 206.10354 C 217.34625 204.50022 213.433 197.98748 215.03632 191.55693 L 228.9771 135.64355 C 230.5804 129.213 237.09315 125.29975 243.5237 126.90306 C 243.5237 126.90306 243.5237 126.90306 243.5237 126.90306 Z" stroke="black" stroke-linecap="round" stroke-linejoin="round" stroke-width="4"/>
      </g>
      <g id="Line_4">
        <path d="M 273.99302 267.87306 C 229.98906 282.08132 169.49645 295.40584 141.96794 310.5021 C 114.43942 325.5984 113.44394 343.36353 108.80543 358.4598 C 104.16691 373.5561 107.91794 378.3867 114.13406 401.08885 C 120.35018 423.791 141.66577 467.2644 146.10585 494.6863 C 150.54593 522.1083 141.66524 553.8131 140.77722 565.637 L 140.77722 565.637" stroke="black" stroke-linecap="round" stroke-linejoin="round" stroke-width="1"/>
      </g>
      <g id="Line_3">
        <path d="M 503.1242 337.14528 C 459.1202 333.5932 406.23157 320.2719 371.0991 326.488 C 335.96663 332.70413 318.79994 354.90934 292.3083 374.4457 C 265.81663 393.98206 216.63297 409.08527 212.13326 443.7179 C 207.63355 478.35056 269.3068 557.3979 265.30734 582.26234 C 261.3079 607.1268 196.99567 591.1436 188.13421 592.9196 C 179.27275 594.69564 204.13438 592.9196 212.13326 592.9196" stroke="black" stroke-linecap="round" stroke-linejoin="round" stroke-width="1"/>
      </g>
      <g id="Line_2">
        <path d="M 300.63618 171.95769 L 499.8979 219.91537 L 740.5147 289.1876 L 763.2069 315.83075 L 763.2069 315.83075" stroke="black" stroke-linecap="round" stroke-linejoin="round" stroke-width="1"/>
      </g>
    </g>
  </g>
</svg>
