<?xml version="1.0" encoding="UTF-8" standalone="no"?>
<!DOCTYPE svg PUBLIC "-//W3C//DTD SVG 1.1//EN" "http://www.w3.org/Graphics/SVG/1.1/DTD/svg11.dtd">
<svg xmlns="http://www.w3.org/2000/svg" version="1.1" xmlns:dc="http://purl.org/dc/elements/1.1/" xmlns:xl="http://www.w3.org/1999/xlink" viewBox="0 0 850.394 850.394" width="850.394" height="850.394">
  <defs/>
  <metadata> Produced by OmniGraffle 7.9.4 
    <dc:date>2019-03-12 10:34:43 +0000</dc:date>
  </metadata>
  <g id="Too_loud" fill="none" stroke-opacity="1" fill-opacity="1" stroke-dasharray="none" stroke="none">
    <title>Too loud</title>
    <g id="Too_loud: Layer 1">
      <title>Layer 1</title>
      <g id="Graphic_6">
        <path d="M 237 73 L 606 73 L 644 780.197 L 198 780.197 Z" fill="#5b0000"/>
        <path d="M 237 73 L 606 73 L 644 780.197 L 198 780.197 Z" stroke="black" stroke-linecap="round" stroke-linejoin="round" stroke-width="22"/>
      </g>
      <g id="Graphic_2">
        <path d="M 535.224 430.92 C 595.9906 491.68625 529 485 529 485 C 529 485 595.9906 590.20775 535.224 650.974 C 474.45775 711.7406 444 640 444 640 C 444 640 375.93625 711.7406 315.17 650.974 C 254.40343 590.20775 319 588 319 588 C 319 588 254.40343 491.68625 315.17 430.92 C 375.93625 370.15343 474.45775 370.15343 535.224 430.92 Z" fill="#333"/>
        <path d="M 535.224 430.92 C 595.9906 491.68625 529 485 529 485 C 529 485 595.9906 590.20775 535.224 650.974 C 474.45775 711.7406 444 640 444 640 C 444 640 375.93625 711.7406 315.17 650.974 C 254.40343 590.20775 319 588 319 588 C 319 588 254.40343 491.68625 315.17 430.92 C 375.93625 370.15343 474.45775 370.15343 535.224 430.92 Z" stroke="black" stroke-linecap="round" stroke-linejoin="round" stroke-width="18"/>
      </g>
      <g id="Graphic_3">
        <path d="M 471.866 498.1762 C 497.64075 523.9508 534 554 534 554 C 534 554 497.64075 565.73965 471.866 591.51424 C 446.0914 617.289 433 558 433 558 C 433 558 398.7746 640.7747 373 615 C 347.22527 589.2254 322 520 322 520 C 322 520 352.75325 523.9508 378.528 498.1762 C 404.3026 472.4015 411 456 411 456 L 458 428 C 458 428 446.0914 472.4015 471.866 498.1762 Z" fill="black"/>
        <path d="M 471.866 498.1762 C 497.64075 523.9508 534 554 534 554 C 534 554 497.64075 565.73965 471.866 591.51424 C 446.0914 617.289 433 558 433 558 C 433 558 398.7746 640.7747 373 615 C 347.22527 589.2254 322 520 322 520 C 322 520 352.75325 523.9508 378.528 498.1762 C 404.3026 472.4015 411 456 411 456 L 458 428 C 458 428 446.0914 472.4015 471.866 498.1762 Z" stroke="black" stroke-linecap="round" stroke-linejoin="round" stroke-width="18"/>
      </g>
      <g id="Graphic_4">
        <path d="M 485.5498 178.84422 C 518.8819 212.17615 479 217 479 217 C 479 217 518.8819 266.21785 485.5498 299.54978 C 452.21785 332.8819 398.33193 368.3321 365 335 C 331.6679 301.66807 353 272 353 272 C 353 272 331.5121 212.17615 364.8442 178.84422 C 398.17615 145.51211 452.21785 145.51211 485.5498 178.84422 Z" fill="#333"/>
        <path d="M 485.5498 178.84422 C 518.8819 212.17615 479 217 479 217 C 479 217 518.8819 266.21785 485.5498 299.54978 C 452.21785 332.8819 398.33193 368.3321 365 335 C 331.6679 301.66807 353 272 353 272 C 353 272 331.5121 212.17615 364.8442 178.84422 C 398.17615 145.51211 452.21785 145.51211 485.5498 178.84422 Z" stroke="black" stroke-linecap="round" stroke-linejoin="round" stroke-width="18"/>
      </g>
      <g id="Graphic_5">
        <path d="M 450.7962 215.73606 C 464.93435 229.87413 478.13813 260.86194 464 275 C 449.86194 289.13813 432 269 432 269 C 432 269 408.13806 299.13813 394 285 C 379.86187 270.86194 400 218 400 218 C 400 218 397.86187 191.13806 412 177 C 426.13806 162.86187 436.65815 201.59793 450.7962 215.73606 Z" fill="black"/>
        <path d="M 450.7962 215.73606 C 464.93435 229.87413 478.13813 260.86194 464 275 C 449.86194 289.13813 432 269 432 269 C 432 269 408.13806 299.13813 394 285 C 379.86187 270.86194 400 218 400 218 C 400 218 397.86187 191.13806 412 177 C 426.13806 162.86187 436.65815 201.59793 450.7962 215.73606 Z" stroke="black" stroke-linecap="round" stroke-linejoin="round" stroke-width="18"/>
      </g>
      <g id="Graphic_7">
        <path d="M 40.30788 213.2805 L 116.94903 183.02895 C 116.94903 183.02895 178.35512 172.65684 179.0627 172.10401 C 179.7703 171.55119 223.79624 172.47894 223.79624 172.47894 L 196.6431 216.48335 C 196.6431 216.48335 187.42294 249.8955 172.2541 264.0257 C 157.08526 278.1559 156.22372 316.4326 156.22372 316.4326 C 156.22372 316.4326 190.16635 316.12227 192.9967 313.91096 C 195.82704 311.69965 215.2414 294.2525 224.8381 289.03373 C 234.4348 283.81498 261.43398 277.53444 264.35288 279.81196 C 267.27177 282.08948 291.33053 299.7568 291.17577 301.01722 C 291.021 302.27763 298.42873 304.4666 291.1981 311.2553 C 283.96748 318.04398 245.73626 374.12204 244.3211 375.2277 C 242.90592 376.33335 191.53927 403.93085 229.26314 404.0848 C 266.987 404.23875 277.13654 399.7276 277.13654 399.7276 C 277.13654 399.7276 308.7123 361.38387 328.2152 348.42553 C 347.7181 335.4672 403.19867 352.5147 403.7515 353.22227 C 404.3043 353.92985 418.7664 376.81594 417.90404 378.6292 C 417.0417 380.4424 377.55006 436.3657 368.35143 443.5525 C 359.1528 450.73923 331.3583 489.54723 320.58973 499.10005 C 309.82117 508.6529 315.90227 516.43633 318.1136 519.2667 C 320.3249 522.097 357.1641 513.82615 357.7169 514.53374 C 358.26974 515.2413 376.0703 516.14754 376.6231 516.8551 C 377.17595 517.5627 398.9572 538.14894 398.9572 538.14894 L 403.3136 549.5589 L 395.66256 544.1415 L 382.94753 527.867 C 382.94753 527.867 367.26973 525.3023 366.7169 524.5947 C 366.16408 523.8871 346.48407 527.8678 346.48407 527.8678 L 324.28323 531.53896 L 305.19992 520.2399 C 305.19992 520.2399 301.92683 500.0071 302.6344 499.45425 C 303.342 498.9014 307.21574 494.73637 307.21574 494.73637 L 329.67747 477.1864 L 354.3321 443.11054 C 354.3321 443.11054 368.8596 423.7839 369.72193 421.9707 C 370.58428 420.15744 392.6519 391.5213 393.35947 390.9685 C 394.06706 390.41565 395.92417 375.2907 396.07893 374.03027 C 396.2337 372.76985 384.16004 361.69177 384.16004 361.69177 L 358.1556 354.6606 L 335.9548 358.33175 L 321.09546 369.9411 C 321.09546 369.9411 305.15283 390.3734 305.70565 391.081 C 306.25848 391.78857 278.6626 413.34883 278.6626 413.34883 C 278.6626 413.34883 267.65073 419.67324 265.8375 418.8109 C 264.02425 417.94855 237.6441 419.18743 236.9365 419.74026 C 236.22893 420.2931 212.98864 416.79983 212.43582 416.09224 C 211.883 415.38466 205.8019 407.6012 205.8019 407.6012 L 199.94176 392.8081 L 225.32633 368.4175 C 225.32633 368.4175 237.66482 356.4986 238.3724 355.94576 C 239.08 355.39293 257.76443 328.2605 257.76443 328.2605 L 276.0508 299.1601 L 262.18624 297.45775 C 262.18624 297.45775 236.29272 305.15347 235.7399 304.44588 C 235.18706 303.7383 219.5316 311.41166 218.82402 311.9645 C 218.11643 312.51732 194.76607 330.76062 194.76607 330.76062 L 175.63889 335.4489 L 148.30784 334.0122 L 133.5586 323.885 C 133.5586 323.885 142.95586 299.4505 141.85021 298.03534 C 140.74455 296.62017 148.24002 266.8345 148.24002 266.8345 L 155.75783 247.28692 L 172.2533 227.56223 L 182.91096 203.2825 L 202.0158 188.35617 L 187.90794 183.4254 C 187.90794 183.4254 171.94297 193.6196 170.68255 193.46484 C 169.42214 193.31008 137.22654 200.232 136.67371 199.5244 C 136.12088 198.81682 40.30788 213.2805 40.30788 213.2805 Z" fill="red"/>
        <path d="M 40.30788 213.2805 L 116.94903 183.02895 C 116.94903 183.02895 178.35512 172.65684 179.0627 172.10401 C 179.7703 171.55119 223.79624 172.47894 223.79624 172.47894 L 196.6431 216.48335 C 196.6431 216.48335 187.42294 249.8955 172.2541 264.0257 C 157.08526 278.1559 156.22372 316.4326 156.22372 316.4326 C 156.22372 316.4326 190.16635 316.12227 192.9967 313.91096 C 195.82704 311.69965 215.2414 294.2525 224.8381 289.03373 C 234.4348 283.81498 261.43398 277.53444 264.35288 279.81196 C 267.27177 282.08948 291.33053 299.7568 291.17577 301.01722 C 291.021 302.27763 298.42873 304.4666 291.1981 311.2553 C 283.96748 318.04398 245.73626 374.12204 244.3211 375.2277 C 242.90592 376.33335 191.53927 403.93085 229.26314 404.0848 C 266.987 404.23875 277.13654 399.7276 277.13654 399.7276 C 277.13654 399.7276 308.7123 361.38387 328.2152 348.42553 C 347.7181 335.4672 403.19867 352.5147 403.7515 353.22227 C 404.3043 353.92985 418.7664 376.81594 417.90404 378.6292 C 417.0417 380.4424 377.55006 436.3657 368.35143 443.5525 C 359.1528 450.73923 331.3583 489.54723 320.58973 499.10005 C 309.82117 508.6529 315.90227 516.43633 318.1136 519.2667 C 320.3249 522.097 357.1641 513.82615 357.7169 514.53374 C 358.26974 515.2413 376.0703 516.14754 376.6231 516.8551 C 377.17595 517.5627 398.9572 538.14894 398.9572 538.14894 L 403.3136 549.5589 L 395.66256 544.1415 L 382.94753 527.867 C 382.94753 527.867 367.26973 525.3023 366.7169 524.5947 C 366.16408 523.8871 346.48407 527.8678 346.48407 527.8678 L 324.28323 531.53896 L 305.19992 520.2399 C 305.19992 520.2399 301.92683 500.0071 302.6344 499.45425 C 303.342 498.9014 307.21574 494.73637 307.21574 494.73637 L 329.67747 477.1864 L 354.3321 443.11054 C 354.3321 443.11054 368.8596 423.7839 369.72193 421.9707 C 370.58428 420.15744 392.6519 391.5213 393.35947 390.9685 C 394.06706 390.41565 395.92417 375.2907 396.07893 374.03027 C 396.2337 372.76985 384.16004 361.69177 384.16004 361.69177 L 358.1556 354.6606 L 335.9548 358.33175 L 321.09546 369.9411 C 321.09546 369.9411 305.15283 390.3734 305.70565 391.081 C 306.25848 391.78857 278.6626 413.34883 278.6626 413.34883 C 278.6626 413.34883 267.65073 419.67324 265.8375 418.8109 C 264.02425 417.94855 237.6441 419.18743 236.9365 419.74026 C 236.22893 420.2931 212.98864 416.79983 212.43582 416.09224 C 211.883 415.38466 205.8019 407.6012 205.8019 407.6012 L 199.94176 392.8081 L 225.32633 368.4175 C 225.32633 368.4175 237.66482 356.4986 238.3724 355.94576 C 239.08 355.39293 257.76443 328.2605 257.76443 328.2605 L 276.0508 299.1601 L 262.18624 297.45775 C 262.18624 297.45775 236.29272 305.15347 235.7399 304.44588 C 235.18706 303.7383 219.5316 311.41166 218.82402 311.9645 C 218.11643 312.51732 194.76607 330.76062 194.76607 330.76062 L 175.63889 335.4489 L 148.30784 334.0122 L 133.5586 323.885 C 133.5586 323.885 142.95586 299.4505 141.85021 298.03534 C 140.74455 296.62017 148.24002 266.8345 148.24002 266.8345 L 155.75783 247.28692 L 172.2533 227.56223 L 182.91096 203.2825 L 202.0158 188.35617 L 187.90794 183.4254 C 187.90794 183.4254 171.94297 193.6196 170.68255 193.46484 C 169.42214 193.31008 137.22654 200.232 136.67371 199.5244 C 136.12088 198.81682 40.30788 213.2805 40.30788 213.2805 Z" stroke="#ff0004" stroke-linecap="round" stroke-linejoin="round" stroke-width="5"/>
      </g>
    </g>
  </g>
</svg>
