<?xml version="1.0" encoding="UTF-8" standalone="no"?>
<!DOCTYPE svg PUBLIC "-//W3C//DTD SVG 1.1//EN" "http://www.w3.org/Graphics/SVG/1.1/DTD/svg11.dtd">
<svg version="1.1" xmlns="http://www.w3.org/2000/svg" xmlns:xl="http://www.w3.org/1999/xlink" xmlns:dc="http://purl.org/dc/elements/1.1/" viewBox="0 0 850.394 850.394" width="850.394" height="850.394">
  <defs/>
  <metadata> Produced by OmniGraffle 7.9.4 
    <dc:date>2019-10-05 07:16:20 +0000</dc:date>
  </metadata>
  <g id="press" fill-opacity="1" stroke="none" stroke-dasharray="none" stroke-opacity="1" fill="none">
    <title>press</title>
    <g id="press: Layer 1">
      <title>Layer 1</title>
      <g id="Group_4">
        <g id="Graphic_3">
          <path d="M 785.0511 364.7102 L 748.4674 348.61592 L 686.21645 353.9568 L 636.8951 350.17876 L 575.6413 340.05758 L 485.4091 329.04254 L 563.3196 286.81254 L 594.8318 246.89706 L 566.5461 216.947 L 522.9199 234.458 L 483.83444 253.1857 L 439.7629 263.27722 L 370.8475 274.69705 L 327.6209 302.96202 L 298.0401 323.34857 L 252.19196 361.3973 L 220.88674 372.94595 L 157.8546 379.97747 L 101.14029 379.2484 L 75.93051 543.11196 L 103.2411 633.447 L 176.2009 611.1981 L 219.8666 603.35555 L 278.20408 596.96604 L 351.19833 610.2331 L 400.30896 626.5381 L 450.6087 630.5783 L 501.175 628.9232 L 521.1034 613.5792 L 526.2998 571.16466 L 551.1806 552.6646 L 554.9163 517.9022 L 557.0171 498.99485 L 577.1469 467.99266 L 559.19056 416.947 L 615.60914 417.8785 L 683.206 416.0673 L 728.2301 412.40217 L 761.5136 405.5912 L 784.6296 389.7641 Z" fill="#ad7526"/>
          <path d="M 785.0511 364.7102 L 748.4674 348.61592 L 686.21645 353.9568 L 636.8951 350.17876 L 575.6413 340.05758 L 485.4091 329.04254 L 563.3196 286.81254 L 594.8318 246.89706 L 566.5461 216.947 L 522.9199 234.458 L 483.83444 253.1857 L 439.7629 263.27722 L 370.8475 274.69705 L 327.6209 302.96202 L 298.0401 323.34857 L 252.19196 361.3973 L 220.88674 372.94595 L 157.8546 379.97747 L 101.14029 379.2484 L 75.93051 543.11196 L 103.2411 633.447 L 176.2009 611.1981 L 219.8666 603.35555 L 278.20408 596.96604 L 351.19833 610.2331 L 400.30896 626.5381 L 450.6087 630.5783 L 501.175 628.9232 L 521.1034 613.5792 L 526.2998 571.16466 L 551.1806 552.6646 L 554.9163 517.9022 L 557.0171 498.99485 L 577.1469 467.99266 L 559.19056 416.947 L 615.60914 417.8785 L 683.206 416.0673 L 728.2301 412.40217 L 761.5136 405.5912 L 784.6296 389.7641 Z" stroke="black" stroke-linecap="round" stroke-linejoin="round" stroke-width="6"/>
        </g>
        <g id="Graphic_2">
          <ellipse cx="108.36982" cy="504.379" rx="43.0269675312655" ry="128.437453360864" fill="black"/>
          <ellipse cx="108.36982" cy="504.379" rx="43.0269675312655" ry="128.437453360864" stroke="black" stroke-linecap="round" stroke-linejoin="round" stroke-width="7"/>
        </g>
      </g>
    </g>
  </g>
</svg>
