<?xml version="1.0" encoding="UTF-8" standalone="no"?>
<!DOCTYPE svg PUBLIC "-//W3C//DTD SVG 1.1//EN" "http://www.w3.org/Graphics/SVG/1.1/DTD/svg11.dtd">
<svg version="1.1" xmlns:xl="http://www.w3.org/1999/xlink" xmlns="http://www.w3.org/2000/svg" xmlns:dc="http://purl.org/dc/elements/1.1/" viewBox="0 0 850.394 850.394" width="850.394" height="850.394">
  <defs/>
  <metadata> Produced by OmniGraffle 7.9.4 
    <dc:date>2019-06-28 14:00:22 +0000</dc:date>
  </metadata>
  <g id="tremolo" stroke-dasharray="none" stroke="none" fill="none" fill-opacity="1" stroke-opacity="1">
    <title>tremolo</title>
    <g id="tremolo: Layer 1">
      <title>Layer 1</title>
      <g id="Line_2">
        <line x1="215.47322" y1="451.28066" x2="634.9208" y2="145.07005" stroke="black" stroke-linecap="round" stroke-linejoin="round" stroke-width="6"/>
      </g>
      <g id="Line_3">
        <line x1="215.47322" y1="575.4759" x2="634.9208" y2="269.26525" stroke="black" stroke-linecap="round" stroke-linejoin="round" stroke-width="6"/>
      </g>
      <g id="Line_4">
        <line x1="215.47322" y1="705.32395" x2="634.9208" y2="399.11334" stroke="black" stroke-linecap="round" stroke-linejoin="round" stroke-width="6"/>
      </g>
    </g>
    <g id="tremolo: wave">
      <title>wave</title>
      <g id="Graphic_33">
        <rect x="383.31785" y="634" width="394.68215" height="90" fill="white"/>
        <rect x="383.31785" y="634" width="394.68215" height="90" stroke="black" stroke-linecap="round" stroke-linejoin="round" stroke-width="1"/>
      </g>
      <g id="Group_23">
        <g id="Graphic_18">
          <path d="M 595.0066 646.3545 L 586.99025 673.7388 C 586.99025 673.7388 578.7924 692.39675 578.7534 692.7143 C 578.7144 693.0319 571.7661 704.4288 571.7661 704.4288 L 570.345 686.84636 C 570.345 686.84636 567.498 676.5033 568.04217 669.15565 C 568.58635 661.808 563.82 652.51875 563.82 652.51875 C 563.82 652.51875 558.59434 661.5482 558.43836 662.8185 C 558.2824 664.0889 557.50423 673.342 556.6836 677.1097 C 555.863 680.8774 552.47876 689.4882 551.7344 689.7192 C 550.99006 689.95016 544.99623 692.1155 544.8589 691.7763 C 544.72154 691.4371 543.2922 692.8734 543.5448 689.3584 C 543.7974 685.8433 542.54915 662.4794 542.62714 661.8443 C 542.7051 661.2091 547.1405 641.12205 541.26884 651.0393 C 535.3972 660.95655 534.40025 664.7026 534.40025 664.7026 C 534.40025 664.7026 534.41065 682.1118 533.0441 690.3256 C 531.6776 698.53945 520.8888 709.1424 520.71246 709.1208 C 520.5361 709.0991 515.3629 707.4968 515.26456 706.84 C 515.1662 706.1832 514.1333 682.5234 514.6402 678.3948 C 515.14715 674.2663 514.49075 657.7448 514.9383 652.64186 C 515.3859 647.5389 513.44615 647.3007 512.7408 647.2141 C 512.0354 647.1275 507.37953 658.8059 507.2032 658.7842 C 507.02685 658.7626 504.1495 663.2448 503.9732 663.2232 C 503.79684 663.2015 497.78266 664.0749 497.78266 664.0749 L 489.7393 671.8529 L 497.5266 661.7869 L 501.5824 662.2849 C 501.5824 662.2849 504.34276 658.7554 504.5191 658.77704 C 504.69544 658.7987 507.2387 652.6636 507.2387 652.6636 L 510.2127 645.9366 L 514.61943 643.57636 C 514.61943 643.57636 517.7173 647.5028 517.6783 647.8204 C 517.6393 648.13795 516.3339 660.2277 516.3339 660.2277 L 516.87155 674.8004 C 516.87155 674.8004 517.0921 683.20905 517.19043 683.8659 C 517.2888 684.5227 517.5314 697.1249 517.4924 697.4425 C 517.4534 697.76005 519.1016 701.83085 519.2389 702.1701 C 519.37626 702.5093 522.66736 701.9463 522.66736 701.9463 L 527.6014 696.7495 L 530.57536 690.0225 L 531.39424 683.3533 C 531.39424 683.3533 531.2517 674.3094 531.07536 674.2878 C 530.899 674.2661 532.4198 661.88045 532.4198 661.88045 C 532.4198 661.88045 533.3184 657.4776 533.71006 657.2033 C 534.10173 656.92905 538.0354 649.6752 538.07436 649.3576 C 538.11336 649.04 542.1657 643.7349 542.34205 643.7566 C 542.5184 643.7782 544.4581 644.0164 544.4581 644.0164 L 547.26093 645.9724 L 546.4455 658.4447 C 546.4455 658.4447 546.0573 664.522 546.0183 664.8396 C 545.9793 665.1572 546.5543 676.5107 546.5543 676.5107 L 547.4429 688.22514 L 549.8116 684.9699 C 549.8116 684.9699 552.84314 676.3158 553.0195 676.33745 C 553.1958 676.3591 554.6421 670.41165 554.68107 670.0941 C 554.72006 669.7765 556.00687 659.2963 556.00687 659.2963 L 558.3738 653.1395 L 562.7975 646.2682 L 566.3819 644.7741 C 566.3819 644.7741 568.05213 653.0384 568.4048 653.0817 C 568.7575 653.125 571.4078 662.1544 571.4078 662.1544 L 572.744 668.76585 L 572.7102 677.78805 L 574.1651 686.3483 L 573.11225 694.923 L 575.93196 692.3679 C 575.93196 692.3679 577.1035 685.742 577.31885 685.44606 C 577.5342 685.1501 581.6424 675.01636 581.8188 675.038 C 581.9951 675.0597 595.0066 646.3545 595.0066 646.3545 Z" fill="black"/>
          <path d="M 595.0066 646.3545 L 586.99025 673.7388 C 586.99025 673.7388 578.7924 692.39675 578.7534 692.7143 C 578.7144 693.0319 571.7661 704.4288 571.7661 704.4288 L 570.345 686.84636 C 570.345 686.84636 567.498 676.5033 568.04217 669.15565 C 568.58635 661.808 563.82 652.51875 563.82 652.51875 C 563.82 652.51875 558.59434 661.5482 558.43836 662.8185 C 558.2824 664.0889 557.50423 673.342 556.6836 677.1097 C 555.863 680.8774 552.47876 689.4882 551.7344 689.7192 C 550.99006 689.95016 544.99623 692.1155 544.8589 691.7763 C 544.72154 691.4371 543.2922 692.8734 543.5448 689.3584 C 543.7974 685.8433 542.54915 662.4794 542.62714 661.8443 C 542.7051 661.2091 547.1405 641.12205 541.26884 651.0393 C 535.3972 660.95655 534.40025 664.7026 534.40025 664.7026 C 534.40025 664.7026 534.41065 682.1118 533.0441 690.3256 C 531.6776 698.53945 520.8888 709.1424 520.71246 709.1208 C 520.5361 709.0991 515.3629 707.4968 515.26456 706.84 C 515.1662 706.1832 514.1333 682.5234 514.6402 678.3948 C 515.14715 674.2663 514.49075 657.7448 514.9383 652.64186 C 515.3859 647.5389 513.44615 647.3007 512.7408 647.2141 C 512.0354 647.1275 507.37953 658.8059 507.2032 658.7842 C 507.02685 658.7626 504.1495 663.2448 503.9732 663.2232 C 503.79684 663.2015 497.78266 664.0749 497.78266 664.0749 L 489.7393 671.8529 L 497.5266 661.7869 L 501.5824 662.2849 C 501.5824 662.2849 504.34276 658.7554 504.5191 658.77704 C 504.69544 658.7987 507.2387 652.6636 507.2387 652.6636 L 510.2127 645.9366 L 514.61943 643.57636 C 514.61943 643.57636 517.7173 647.5028 517.6783 647.8204 C 517.6393 648.13795 516.3339 660.2277 516.3339 660.2277 L 516.87155 674.8004 C 516.87155 674.8004 517.0921 683.20905 517.19043 683.8659 C 517.2888 684.5227 517.5314 697.1249 517.4924 697.4425 C 517.4534 697.76005 519.1016 701.83085 519.2389 702.1701 C 519.37626 702.5093 522.66736 701.9463 522.66736 701.9463 L 527.6014 696.7495 L 530.57536 690.0225 L 531.39424 683.3533 C 531.39424 683.3533 531.2517 674.3094 531.07536 674.2878 C 530.899 674.2661 532.4198 661.88045 532.4198 661.88045 C 532.4198 661.88045 533.3184 657.4776 533.71006 657.2033 C 534.10173 656.92905 538.0354 649.6752 538.07436 649.3576 C 538.11336 649.04 542.1657 643.7349 542.34205 643.7566 C 542.5184 643.7782 544.4581 644.0164 544.4581 644.0164 L 547.26093 645.9724 L 546.4455 658.4447 C 546.4455 658.4447 546.0573 664.522 546.0183 664.8396 C 545.9793 665.1572 546.5543 676.5107 546.5543 676.5107 L 547.4429 688.22514 L 549.8116 684.9699 C 549.8116 684.9699 552.84314 676.3158 553.0195 676.33745 C 553.1958 676.3591 554.6421 670.41165 554.68107 670.0941 C 554.72006 669.7765 556.00687 659.2963 556.00687 659.2963 L 558.3738 653.1395 L 562.7975 646.2682 L 566.3819 644.7741 C 566.3819 644.7741 568.05213 653.0384 568.4048 653.0817 C 568.7575 653.125 571.4078 662.1544 571.4078 662.1544 L 572.744 668.76585 L 572.7102 677.78805 L 574.1651 686.3483 L 573.11225 694.923 L 575.93196 692.3679 C 575.93196 692.3679 577.1035 685.742 577.31885 685.44606 C 577.5342 685.1501 581.6424 675.01636 581.8188 675.038 C 581.9951 675.0597 595.0066 646.3545 595.0066 646.3545 Z" stroke="black" stroke-linecap="round" stroke-linejoin="round" stroke-width="5"/>
        </g>
        <g id="Graphic_20">
          <path d="M 508.0495 654.2725 L 484.60824 678.6531 C 484.60824 678.6531 476.4104 697.3111 476.3714 697.62865 C 476.3324 697.9462 469.3841 709.3431 469.3841 709.3431 L 467.96297 691.7607 C 467.96297 691.7607 465.11597 681.41765 465.66016 674.07 C 466.20434 666.7223 461.43797 657.4331 461.43797 657.4331 C 461.43797 657.4331 456.21233 666.4625 456.05635 667.73286 C 455.9004 669.0032 455.1222 678.25636 454.3016 682.024 C 453.481 685.7917 450.09675 694.4025 449.3524 694.6335 C 448.60805 694.8645 442.6142 697.02986 442.4769 696.6906 C 442.33953 696.3514 440.9102 697.7877 441.1628 694.2727 C 441.4154 690.7576 440.16714 667.39376 440.2451 666.7586 C 440.3231 666.1234 444.7585 646.0364 438.88683 655.9536 C 433.0152 665.8709 432.01824 669.6169 432.01824 669.6169 C 432.01824 669.6169 432.02864 687.0261 430.6621 695.23995 C 429.2956 703.4538 418.5068 714.05675 418.33045 714.0351 C 418.1541 714.01345 412.9809 712.41115 412.88255 711.7543 C 412.7842 711.0975 411.7513 687.4377 412.2582 683.30915 C 412.76514 679.1806 412.10874 662.65914 412.5563 657.5562 C 413.00387 652.4532 411.06414 652.21505 410.3588 652.12844 C 409.6534 652.0418 404.9975 663.7202 404.8212 663.69856 C 404.64484 663.6769 401.7675 668.15916 401.59117 668.1375 C 401.41483 668.11586 395.40065 668.98925 395.40065 668.98925 L 393.2642 667.43745 L 395.1446 666.7012 L 399.2004 667.1992 C 399.2004 667.1992 401.96075 663.6697 402.1371 663.6914 C 402.31343 663.713 404.8567 657.5779 404.8567 657.5779 L 407.83066 650.8509 L 412.23742 648.4907 C 412.23742 648.4907 415.3353 652.4171 415.2963 652.7347 C 415.2573 653.0523 413.95186 665.142 413.95186 665.142 L 414.48954 679.7147 C 414.48954 679.7147 414.71007 688.1234 414.80842 688.7802 C 414.9068 689.437 415.1494 702.0392 415.1104 702.3568 C 415.0714 702.6744 416.71956 706.7452 416.8569 707.0844 C 416.99425 707.42364 420.28535 706.8606 420.28535 706.8606 L 425.2194 701.6638 L 428.19335 694.9368 L 429.01223 688.2676 C 429.01223 688.2676 428.8697 679.22376 428.69335 679.2021 C 428.517 679.18045 430.0378 666.7948 430.0378 666.7948 C 430.0378 666.7948 430.9364 662.3919 431.32805 662.11765 C 431.7197 661.8434 435.65336 654.5895 435.69235 654.2719 C 435.73135 653.9543 439.7837 648.6492 439.96004 648.6709 C 440.1364 648.69254 442.0761 648.9307 442.0761 648.9307 L 444.8789 650.8867 L 444.0635 663.359 C 444.0635 663.359 443.6753 669.43635 443.6363 669.7539 C 443.5973 670.0715 444.17226 681.42505 444.17226 681.42505 L 445.0609 693.1395 L 447.42956 689.8842 C 447.42956 689.8842 450.46113 681.2301 450.6375 681.2518 C 450.8138 681.2734 452.26006 675.326 452.29906 675.0084 C 452.33805 674.6908 453.62486 664.2106 453.62486 664.2106 L 455.9918 658.05384 L 460.41546 651.1825 L 463.9999 649.6884 C 463.9999 649.6884 465.6701 657.9527 466.0228 657.996 C 466.3755 658.0393 469.0258 667.0687 469.0258 667.0687 L 470.362 673.6802 L 470.3282 682.7024 L 471.7831 691.2626 L 470.73024 699.8373 L 473.54995 697.2822 C 473.54995 697.2822 474.7215 690.6563 474.93684 690.3604 C 475.1522 690.06445 479.2604 679.9307 479.43676 679.9523 C 479.6131 679.974 508.0495 654.2725 508.0495 654.2725 Z" fill="black"/>
          <path d="M 508.0495 654.2725 L 484.60824 678.6531 C 484.60824 678.6531 476.4104 697.3111 476.3714 697.62865 C 476.3324 697.9462 469.3841 709.3431 469.3841 709.3431 L 467.96297 691.7607 C 467.96297 691.7607 465.11597 681.41765 465.66016 674.07 C 466.20434 666.7223 461.43797 657.4331 461.43797 657.4331 C 461.43797 657.4331 456.21233 666.4625 456.05635 667.73286 C 455.9004 669.0032 455.1222 678.25636 454.3016 682.024 C 453.481 685.7917 450.09675 694.4025 449.3524 694.6335 C 448.60805 694.8645 442.6142 697.02986 442.4769 696.6906 C 442.33953 696.3514 440.9102 697.7877 441.1628 694.2727 C 441.4154 690.7576 440.16714 667.39376 440.2451 666.7586 C 440.3231 666.1234 444.7585 646.0364 438.88683 655.9536 C 433.0152 665.8709 432.01824 669.6169 432.01824 669.6169 C 432.01824 669.6169 432.02864 687.0261 430.6621 695.23995 C 429.2956 703.4538 418.5068 714.05675 418.33045 714.0351 C 418.1541 714.01345 412.9809 712.41115 412.88255 711.7543 C 412.7842 711.0975 411.7513 687.4377 412.2582 683.30915 C 412.76514 679.1806 412.10874 662.65914 412.5563 657.5562 C 413.00387 652.4532 411.06414 652.21505 410.3588 652.12844 C 409.6534 652.0418 404.9975 663.7202 404.8212 663.69856 C 404.64484 663.6769 401.7675 668.15916 401.59117 668.1375 C 401.41483 668.11586 395.40065 668.98925 395.40065 668.98925 L 393.2642 667.43745 L 395.1446 666.7012 L 399.2004 667.1992 C 399.2004 667.1992 401.96075 663.6697 402.1371 663.6914 C 402.31343 663.713 404.8567 657.5779 404.8567 657.5779 L 407.83066 650.8509 L 412.23742 648.4907 C 412.23742 648.4907 415.3353 652.4171 415.2963 652.7347 C 415.2573 653.0523 413.95186 665.142 413.95186 665.142 L 414.48954 679.7147 C 414.48954 679.7147 414.71007 688.1234 414.80842 688.7802 C 414.9068 689.437 415.1494 702.0392 415.1104 702.3568 C 415.0714 702.6744 416.71956 706.7452 416.8569 707.0844 C 416.99425 707.42364 420.28535 706.8606 420.28535 706.8606 L 425.2194 701.6638 L 428.19335 694.9368 L 429.01223 688.2676 C 429.01223 688.2676 428.8697 679.22376 428.69335 679.2021 C 428.517 679.18045 430.0378 666.7948 430.0378 666.7948 C 430.0378 666.7948 430.9364 662.3919 431.32805 662.11765 C 431.7197 661.8434 435.65336 654.5895 435.69235 654.2719 C 435.73135 653.9543 439.7837 648.6492 439.96004 648.6709 C 440.1364 648.69254 442.0761 648.9307 442.0761 648.9307 L 444.8789 650.8867 L 444.0635 663.359 C 444.0635 663.359 443.6753 669.43635 443.6363 669.7539 C 443.5973 670.0715 444.17226 681.42505 444.17226 681.42505 L 445.0609 693.1395 L 447.42956 689.8842 C 447.42956 689.8842 450.46113 681.2301 450.6375 681.2518 C 450.8138 681.2734 452.26006 675.326 452.29906 675.0084 C 452.33805 674.6908 453.62486 664.2106 453.62486 664.2106 L 455.9918 658.05384 L 460.41546 651.1825 L 463.9999 649.6884 C 463.9999 649.6884 465.6701 657.9527 466.0228 657.996 C 466.3755 658.0393 469.0258 667.0687 469.0258 667.0687 L 470.362 673.6802 L 470.3282 682.7024 L 471.7831 691.2626 L 470.73024 699.8373 L 473.54995 697.2822 C 473.54995 697.2822 474.7215 690.6563 474.93684 690.3604 C 475.1522 690.06445 479.2604 679.9307 479.43676 679.9523 C 479.6131 679.974 508.0495 654.2725 508.0495 654.2725 Z" stroke="black" stroke-linecap="round" stroke-linejoin="round" stroke-width="5"/>
        </g>
        <g id="Graphic_21">
          <path d="M 775.501 650.0087 L 767.4847 677.3929 C 767.4847 677.3929 759.2868 696.0509 759.2478 696.3685 C 759.20885 696.68606 752.2605 708.08296 752.2605 708.08296 L 750.8394 690.5005 C 750.8394 690.5005 747.9924 680.1575 748.5366 672.8098 C 749.0808 665.4621 744.3144 656.1729 744.3144 656.1729 C 744.3144 656.1729 739.0888 665.20236 738.9328 666.4727 C 738.7768 667.743 737.9987 676.9962 737.1781 680.7639 C 736.3575 684.5315 732.9732 693.14235 732.22885 693.3733 C 731.4845 693.6043 725.4907 695.7697 725.3533 695.43045 C 725.216 695.0912 723.7866 696.5276 724.0392 693.0125 C 724.2918 689.49746 723.0436 666.1336 723.1216 665.4984 C 723.1996 664.86325 727.6349 644.7762 721.7633 654.69344 C 715.89165 664.6107 714.8947 668.3567 714.8947 668.3567 C 714.8947 668.3567 714.9051 685.76595 713.5386 693.9798 C 712.172 702.1936 701.38324 712.7966 701.2069 712.7749 C 701.0306 712.7533 695.85735 711.151 695.759 710.4942 C 695.66065 709.83734 694.62774 686.1775 695.1347 682.049 C 695.6416 677.9204 694.9852 661.399 695.4328 656.296 C 695.8803 651.19305 693.9406 650.9549 693.2352 650.8683 C 692.5299 650.78166 687.874 662.46 687.6976 662.4384 C 687.5213 662.4167 684.644 666.899 684.4676 666.8773 C 684.2913 666.8557 678.2771 667.7291 678.2771 667.7291 L 670.23375 675.50705 L 678.02104 665.44105 L 682.07686 665.93904 C 682.07686 665.93904 684.8372 662.4095 685.01355 662.4312 C 685.1899 662.4528 687.7332 656.3177 687.7332 656.3177 L 690.7071 649.59075 L 695.1139 647.2305 C 695.1139 647.2305 698.2117 651.1569 698.17275 651.4745 C 698.13375 651.7921 696.8283 663.88186 696.8283 663.88186 L 697.366 678.4545 C 697.366 678.4545 697.5865 686.8632 697.6849 687.52 C 697.7832 688.1768 698.02586 700.779 697.9869 701.0966 C 697.9479 701.4142 699.596 705.485 699.7334 705.8242 C 699.8707 706.1635 703.1618 705.60046 703.1618 705.60046 L 708.0959 700.4036 L 711.0698 693.67665 L 711.8887 687.0074 C 711.8887 687.0074 711.7461 677.9636 711.5698 677.9419 C 711.3935 677.9203 712.9142 665.5346 712.9142 665.5346 C 712.9142 665.5346 713.8128 661.13175 714.2045 660.8575 C 714.5962 660.5832 718.5298 653.3293 718.5688 653.0117 C 718.6078 652.69415 722.66015 647.3891 722.8365 647.4107 C 723.0128 647.4324 724.9526 647.6705 724.9526 647.6705 L 727.7554 649.6265 L 726.94 662.0988 C 726.94 662.0988 726.5518 668.1762 726.5128 668.49376 C 726.4738 668.81134 727.0487 680.1649 727.0487 680.1649 L 727.9373 691.8793 L 730.306 688.6241 C 730.306 688.6241 733.3376 679.9699 733.5139 679.9916 C 733.6903 680.01324 735.1365 674.0658 735.1755 673.7482 C 735.2145 673.4306 736.5013 662.9504 736.5013 662.9504 L 738.86825 656.7937 L 743.2919 649.9223 L 746.8763 648.4282 C 746.8763 648.4282 748.5466 656.6925 748.8993 656.73584 C 749.2519 656.77915 751.9022 665.80854 751.9022 665.80854 L 753.2384 672.42 L 753.2046 681.4422 L 754.6595 690.00245 L 753.6067 698.57716 L 756.4264 696.02204 C 756.4264 696.02204 757.598 689.3961 757.8133 689.1002 C 758.0286 688.8043 762.1369 678.6705 762.3132 678.69216 C 762.48955 678.7138 775.501 650.0087 775.501 650.0087 Z" fill="black"/>
          <path d="M 775.501 650.0087 L 767.4847 677.3929 C 767.4847 677.3929 759.2868 696.0509 759.2478 696.3685 C 759.20885 696.68606 752.2605 708.08296 752.2605 708.08296 L 750.8394 690.5005 C 750.8394 690.5005 747.9924 680.1575 748.5366 672.8098 C 749.0808 665.4621 744.3144 656.1729 744.3144 656.1729 C 744.3144 656.1729 739.0888 665.20236 738.9328 666.4727 C 738.7768 667.743 737.9987 676.9962 737.1781 680.7639 C 736.3575 684.5315 732.9732 693.14235 732.22885 693.3733 C 731.4845 693.6043 725.4907 695.7697 725.3533 695.43045 C 725.216 695.0912 723.7866 696.5276 724.0392 693.0125 C 724.2918 689.49746 723.0436 666.1336 723.1216 665.4984 C 723.1996 664.86325 727.6349 644.7762 721.7633 654.69344 C 715.89165 664.6107 714.8947 668.3567 714.8947 668.3567 C 714.8947 668.3567 714.9051 685.76595 713.5386 693.9798 C 712.172 702.1936 701.38324 712.7966 701.2069 712.7749 C 701.0306 712.7533 695.85735 711.151 695.759 710.4942 C 695.66065 709.83734 694.62774 686.1775 695.1347 682.049 C 695.6416 677.9204 694.9852 661.399 695.4328 656.296 C 695.8803 651.19305 693.9406 650.9549 693.2352 650.8683 C 692.5299 650.78166 687.874 662.46 687.6976 662.4384 C 687.5213 662.4167 684.644 666.899 684.4676 666.8773 C 684.2913 666.8557 678.2771 667.7291 678.2771 667.7291 L 670.23375 675.50705 L 678.02104 665.44105 L 682.07686 665.93904 C 682.07686 665.93904 684.8372 662.4095 685.01355 662.4312 C 685.1899 662.4528 687.7332 656.3177 687.7332 656.3177 L 690.7071 649.59075 L 695.1139 647.2305 C 695.1139 647.2305 698.2117 651.1569 698.17275 651.4745 C 698.13375 651.7921 696.8283 663.88186 696.8283 663.88186 L 697.366 678.4545 C 697.366 678.4545 697.5865 686.8632 697.6849 687.52 C 697.7832 688.1768 698.02586 700.779 697.9869 701.0966 C 697.9479 701.4142 699.596 705.485 699.7334 705.8242 C 699.8707 706.1635 703.1618 705.60046 703.1618 705.60046 L 708.0959 700.4036 L 711.0698 693.67665 L 711.8887 687.0074 C 711.8887 687.0074 711.7461 677.9636 711.5698 677.9419 C 711.3935 677.9203 712.9142 665.5346 712.9142 665.5346 C 712.9142 665.5346 713.8128 661.13175 714.2045 660.8575 C 714.5962 660.5832 718.5298 653.3293 718.5688 653.0117 C 718.6078 652.69415 722.66015 647.3891 722.8365 647.4107 C 723.0128 647.4324 724.9526 647.6705 724.9526 647.6705 L 727.7554 649.6265 L 726.94 662.0988 C 726.94 662.0988 726.5518 668.1762 726.5128 668.49376 C 726.4738 668.81134 727.0487 680.1649 727.0487 680.1649 L 727.9373 691.8793 L 730.306 688.6241 C 730.306 688.6241 733.3376 679.9699 733.5139 679.9916 C 733.6903 680.01324 735.1365 674.0658 735.1755 673.7482 C 735.2145 673.4306 736.5013 662.9504 736.5013 662.9504 L 738.86825 656.7937 L 743.2919 649.9223 L 746.8763 648.4282 C 746.8763 648.4282 748.5466 656.6925 748.8993 656.73584 C 749.2519 656.77915 751.9022 665.80854 751.9022 665.80854 L 753.2384 672.42 L 753.2046 681.4422 L 754.6595 690.00245 L 753.6067 698.57716 L 756.4264 696.02204 C 756.4264 696.02204 757.598 689.3961 757.8133 689.1002 C 758.0286 688.8043 762.1369 678.6705 762.3132 678.69216 C 762.48955 678.7138 775.501 650.0087 775.501 650.0087 Z" stroke="black" stroke-linecap="round" stroke-linejoin="round" stroke-width="5"/>
        </g>
        <g id="Graphic_22">
          <path d="M 692.4002 651.34316 L 668.9589 675.72374 C 668.9589 675.72374 660.7611 694.3817 660.7221 694.6993 C 660.6831 695.0169 653.7348 706.4138 653.7348 706.4138 L 652.31365 688.8313 C 652.31365 688.8313 649.46665 678.4883 650.0108 671.1406 C 650.555 663.7929 645.78865 654.5037 645.78865 654.5037 C 645.78865 654.5037 640.563 663.5332 640.407 664.8035 C 640.25106 666.0738 639.4729 675.327 638.6523 679.0947 C 637.8317 682.8624 634.4474 691.4732 633.7031 691.70416 C 632.9587 691.9351 626.9649 694.1005 626.82756 693.7613 C 626.6902 693.422 625.2609 694.8584 625.51346 691.3433 C 625.76606 687.8283 624.5178 664.4644 624.5958 663.82924 C 624.6738 663.1941 629.10916 643.107 623.2375 653.0243 C 617.3659 662.9415 616.3689 666.68755 616.3689 666.68755 C 616.3689 666.68755 616.3793 684.0968 615.0128 692.3106 C 613.6463 700.5244 602.8575 711.1274 602.6811 711.10575 C 602.5048 711.0841 597.3316 709.4818 597.2332 708.825 C 597.1349 708.1682 596.102 684.5084 596.6089 680.3798 C 597.1158 676.2512 596.4594 659.7298 596.907 654.6268 C 597.35456 649.5239 595.4148 649.2857 594.70946 649.1991 C 594.0041 649.1125 589.3482 660.7909 589.1719 660.7692 C 588.9955 660.74756 586.1182 665.2298 585.94186 665.20816 C 585.7655 665.1865 584.0254 676.74 584.0254 676.74 L 579.5265 688.3087 L 584.66814 672.8837 L 583.5511 664.2699 C 583.5511 664.2699 586.3114 660.7404 586.4878 660.762 C 586.6641 660.7837 589.2074 654.64855 589.2074 654.64855 L 592.18134 647.9216 L 596.5881 645.5613 C 596.5881 645.5613 599.686 649.4878 599.647 649.80535 C 599.608 650.1229 598.30254 662.2127 598.30254 662.2127 L 598.8402 676.7853 C 598.8402 676.7853 599.06076 685.194 599.1591 685.8508 C 599.25746 686.50766 599.5001 699.1099 599.4611 699.42744 C 599.4221 699.745 601.07025 703.8158 601.2076 704.1551 C 601.34494 704.4943 604.63604 703.9313 604.63604 703.9313 L 609.5701 698.73445 L 612.544 692.0075 L 613.3629 685.3383 C 613.3629 685.3383 613.2204 676.2944 613.044 676.27276 C 612.8677 676.2511 614.38846 663.8654 614.38846 663.8654 C 614.38846 663.8654 615.28706 659.4626 615.6787 659.1883 C 616.0704 658.914 620.00404 651.66014 620.043 651.34256 C 620.082 651.025 624.1344 645.7199 624.3107 645.74154 C 624.48706 645.7632 626.4268 646.0014 626.4268 646.0014 L 629.2296 647.95735 L 628.4142 660.42965 C 628.4142 660.42965 628.026 666.507 627.987 666.8246 C 627.948 667.1422 628.52294 678.4957 628.52294 678.4957 L 629.4116 690.2101 L 631.78024 686.9549 C 631.78024 686.9549 634.8118 678.3008 634.98816 678.3224 C 635.1645 678.3441 636.61074 672.3966 636.64974 672.07904 C 636.6887 671.7615 637.97554 661.2813 637.97554 661.2813 L 640.3425 655.1245 L 644.76614 648.25315 L 648.3506 646.75904 C 648.3506 646.75904 650.0208 655.0234 650.3735 655.0667 C 650.7262 655.11 653.37646 664.1394 653.37646 664.1394 L 654.71266 670.7508 L 654.67886 679.773 L 656.1338 688.3333 L 655.0809 696.908 L 657.9006 694.3529 C 657.9006 694.3529 659.0722 687.72696 659.2875 687.431 C 659.50286 687.1351 663.6111 677.0013 663.78744 677.023 C 663.9638 677.0446 692.4002 651.34316 692.4002 651.34316 Z" fill="black"/>
          <path d="M 692.4002 651.34316 L 668.9589 675.72374 C 668.9589 675.72374 660.7611 694.3817 660.7221 694.6993 C 660.6831 695.0169 653.7348 706.4138 653.7348 706.4138 L 652.31365 688.8313 C 652.31365 688.8313 649.46665 678.4883 650.0108 671.1406 C 650.555 663.7929 645.78865 654.5037 645.78865 654.5037 C 645.78865 654.5037 640.563 663.5332 640.407 664.8035 C 640.25106 666.0738 639.4729 675.327 638.6523 679.0947 C 637.8317 682.8624 634.4474 691.4732 633.7031 691.70416 C 632.9587 691.9351 626.9649 694.1005 626.82756 693.7613 C 626.6902 693.422 625.2609 694.8584 625.51346 691.3433 C 625.76606 687.8283 624.5178 664.4644 624.5958 663.82924 C 624.6738 663.1941 629.10916 643.107 623.2375 653.0243 C 617.3659 662.9415 616.3689 666.68755 616.3689 666.68755 C 616.3689 666.68755 616.3793 684.0968 615.0128 692.3106 C 613.6463 700.5244 602.8575 711.1274 602.6811 711.10575 C 602.5048 711.0841 597.3316 709.4818 597.2332 708.825 C 597.1349 708.1682 596.102 684.5084 596.6089 680.3798 C 597.1158 676.2512 596.4594 659.7298 596.907 654.6268 C 597.35456 649.5239 595.4148 649.2857 594.70946 649.1991 C 594.0041 649.1125 589.3482 660.7909 589.1719 660.7692 C 588.9955 660.74756 586.1182 665.2298 585.94186 665.20816 C 585.7655 665.1865 584.0254 676.74 584.0254 676.74 L 579.5265 688.3087 L 584.66814 672.8837 L 583.5511 664.2699 C 583.5511 664.2699 586.3114 660.7404 586.4878 660.762 C 586.6641 660.7837 589.2074 654.64855 589.2074 654.64855 L 592.18134 647.9216 L 596.5881 645.5613 C 596.5881 645.5613 599.686 649.4878 599.647 649.80535 C 599.608 650.1229 598.30254 662.2127 598.30254 662.2127 L 598.8402 676.7853 C 598.8402 676.7853 599.06076 685.194 599.1591 685.8508 C 599.25746 686.50766 599.5001 699.1099 599.4611 699.42744 C 599.4221 699.745 601.07025 703.8158 601.2076 704.1551 C 601.34494 704.4943 604.63604 703.9313 604.63604 703.9313 L 609.5701 698.73445 L 612.544 692.0075 L 613.3629 685.3383 C 613.3629 685.3383 613.2204 676.2944 613.044 676.27276 C 612.8677 676.2511 614.38846 663.8654 614.38846 663.8654 C 614.38846 663.8654 615.28706 659.4626 615.6787 659.1883 C 616.0704 658.914 620.00404 651.66014 620.043 651.34256 C 620.082 651.025 624.1344 645.7199 624.3107 645.74154 C 624.48706 645.7632 626.4268 646.0014 626.4268 646.0014 L 629.2296 647.95735 L 628.4142 660.42965 C 628.4142 660.42965 628.026 666.507 627.987 666.8246 C 627.948 667.1422 628.52294 678.4957 628.52294 678.4957 L 629.4116 690.2101 L 631.78024 686.9549 C 631.78024 686.9549 634.8118 678.3008 634.98816 678.3224 C 635.1645 678.3441 636.61074 672.3966 636.64974 672.07904 C 636.6887 671.7615 637.97554 661.2813 637.97554 661.2813 L 640.3425 655.1245 L 644.76614 648.25315 L 648.3506 646.75904 C 648.3506 646.75904 650.0208 655.0234 650.3735 655.0667 C 650.7262 655.11 653.37646 664.1394 653.37646 664.1394 L 654.71266 670.7508 L 654.67886 679.773 L 656.1338 688.3333 L 655.0809 696.908 L 657.9006 694.3529 C 657.9006 694.3529 659.0722 687.72696 659.2875 687.431 C 659.50286 687.1351 663.6111 677.0013 663.78744 677.023 C 663.9638 677.0446 692.4002 651.34316 692.4002 651.34316 Z" stroke="black" stroke-linecap="round" stroke-linejoin="round" stroke-width="5"/>
        </g>
      </g>
      <g id="Graphic_24">
        <rect x="400.9649" y="634" width="17" height="90" fill="white"/>
        <rect x="400.9649" y="634" width="17" height="90" stroke="black" stroke-linecap="round" stroke-linejoin="round" stroke-width="1"/>
      </g>
      <g id="Graphic_25">
        <rect x="449.9649" y="634" width="17" height="90" fill="white"/>
        <rect x="449.9649" y="634" width="17" height="90" stroke="black" stroke-linecap="round" stroke-linejoin="round" stroke-width="1"/>
      </g>
      <g id="Graphic_26">
        <rect x="498.9649" y="634" width="17" height="90" fill="white"/>
        <rect x="498.9649" y="634" width="17" height="90" stroke="black" stroke-linecap="round" stroke-linejoin="round" stroke-width="1"/>
      </g>
      <g id="Graphic_27">
        <rect x="547.9649" y="634" width="17" height="90" fill="white"/>
        <rect x="547.9649" y="634" width="17" height="90" stroke="black" stroke-linecap="round" stroke-linejoin="round" stroke-width="1"/>
      </g>
      <g id="Graphic_28">
        <rect x="596.9649" y="634" width="17" height="90" fill="white"/>
        <rect x="596.9649" y="634" width="17" height="90" stroke="black" stroke-linecap="round" stroke-linejoin="round" stroke-width="1"/>
      </g>
      <g id="Graphic_29">
        <rect x="645.9649" y="634" width="17" height="90" fill="white"/>
        <rect x="645.9649" y="634" width="17" height="90" stroke="black" stroke-linecap="round" stroke-linejoin="round" stroke-width="1"/>
      </g>
      <g id="Graphic_30">
        <rect x="694.9649" y="634" width="17" height="90" fill="white"/>
        <rect x="694.9649" y="634" width="17" height="90" stroke="black" stroke-linecap="round" stroke-linejoin="round" stroke-width="1"/>
      </g>
      <g id="Graphic_31">
        <rect x="743.9649" y="634" width="17" height="90" fill="white"/>
        <rect x="743.9649" y="634" width="17" height="90" stroke="black" stroke-linecap="round" stroke-linejoin="round" stroke-width="1"/>
      </g>
    </g>
  </g>
</svg>
