<?xml version="1.0" encoding="UTF-8" standalone="no"?>
<!DOCTYPE svg PUBLIC "-//W3C//DTD SVG 1.1//EN" "http://www.w3.org/Graphics/SVG/1.1/DTD/svg11.dtd">
<svg xmlns:dc="http://purl.org/dc/elements/1.1/" xmlns:xl="http://www.w3.org/1999/xlink" version="1.1" xmlns="http://www.w3.org/2000/svg" viewBox="0 0 850.394 850.394" width="850.394" height="850.394">
  <defs/>
  <metadata> Produced by OmniGraffle 7.9.4 
    <dc:date>2019-08-05 00:29:16 +0000</dc:date>
  </metadata>
  <g id="Canvas_287" fill="none" stroke-opacity="1" stroke="none" stroke-dasharray="none" fill-opacity="1">
    <title>Canvas 287</title>
    <g id="Canvas_287: Layer 1">
      <title>Layer 1</title>
      <g id="Graphic_8">
        <path d="M 695.951 98.81541 L 691.27455 95.87099 C 689.8725 94.9882 689.4515 93.13594 690.3343 91.73385 C 690.458 91.53741 690.60404 91.35598 690.7696 91.19322 L 704.728 77.46746 C 705.70526 76.50646 707.2096 76.33001 708.3827 77.03878 L 717.7684 82.70931 C 719.1866 83.56609 719.6416 85.41028 718.7848 86.8284 C 718.6596 87.03572 718.5097 87.2271 718.3384 87.39838 L 703.4474 102.28942 C 702.2758 103.46099 700.3763 103.46099 699.2047 102.28942 C 699.1632 102.24787 699.12285 102.20511 699.0838 102.16119 L 696.5948 99.36102 C 696.40695 99.14973 696.1902 98.96604 695.951 98.81541 Z" fill="#ccc"/>
        <path d="M 695.951 98.81541 L 691.27455 95.87099 C 689.8725 94.9882 689.4515 93.13594 690.3343 91.73385 C 690.458 91.53741 690.60404 91.35598 690.7696 91.19322 L 704.728 77.46746 C 705.70526 76.50646 707.2096 76.33001 708.3827 77.03878 L 717.7684 82.70931 C 719.1866 83.56609 719.6416 85.41028 718.7848 86.8284 C 718.6596 87.03572 718.5097 87.2271 718.3384 87.39838 L 703.4474 102.28942 C 702.2758 103.46099 700.3763 103.46099 699.2047 102.28942 C 699.1632 102.24787 699.12285 102.20511 699.0838 102.16119 L 696.5948 99.36102 C 696.40695 99.14973 696.1902 98.96604 695.951 98.81541 Z" stroke="black" stroke-linecap="round" stroke-linejoin="round" stroke-width="4"/>
      </g>
      <g id="Graphic_6">
        <path d="M 482.9902 347.56863 L 573.1166 218.33982 C 574.6304 216.16918 576.30776 214.11726 578.134 212.20196 L 658.0879 128.34782 C 658.59945 127.81134 659.09945 127.264 659.5876 126.70614 L 668.5317 116.48429 C 671.2063 113.42762 675.6412 112.6308 679.2125 114.56528 L 679.2125 114.56528 C 681.756 115.943 682.7011 119.12178 681.32334 121.66528 C 681.0913 122.0936 680.8007 122.48745 680.4599 122.83547 L 637.9595 166.23058 C 637.3008 166.90314 636.6605 167.59347 636.0393 168.3008 L 587.1264 223.9937 C 586.08885 225.17506 585.1054 226.40287 584.1791 227.67335 L 496.33556 348.15825 C 493.89745 351.50232 489.9543 353.41286 485.81885 353.2538 L 485.81885 353.2538 C 483.8221 353.177 482.26564 351.49605 482.34244 349.4993 C 482.36907 348.807 482.5939 348.1369 482.9902 347.56863 Z" fill="white"/>
        <path d="M 482.9902 347.56863 L 573.1166 218.33982 C 574.6304 216.16918 576.30776 214.11726 578.134 212.20196 L 658.0879 128.34782 C 658.59945 127.81134 659.09945 127.264 659.5876 126.70614 L 668.5317 116.48429 C 671.2063 113.42762 675.6412 112.6308 679.2125 114.56528 L 679.2125 114.56528 C 681.756 115.943 682.7011 119.12178 681.32334 121.66528 C 681.0913 122.0936 680.8007 122.48745 680.4599 122.83547 L 637.9595 166.23058 C 637.3008 166.90314 636.6605 167.59347 636.0393 168.3008 L 587.1264 223.9937 C 586.08885 225.17506 585.1054 226.40287 584.1791 227.67335 L 496.33556 348.15825 C 493.89745 351.50232 489.9543 353.41286 485.81885 353.2538 L 485.81885 353.2538 C 483.8221 353.177 482.26564 351.49605 482.34244 349.4993 C 482.36907 348.807 482.5939 348.1369 482.9902 347.56863 Z" stroke="black" stroke-linecap="round" stroke-linejoin="round" stroke-width="4"/>
      </g>
      <g id="Graphic_7">
        <path d="M 672.7447 123.75342 L 662.5722 117.34851 C 661.1701 116.46571 660.74915 114.61345 661.63194 113.21137 C 661.7556 113.01493 661.9017 112.8335 662.0672 112.67074 L 688.2391 86.93503 C 689.2164 85.97403 690.72075 85.79758 691.8939 86.50636 L 711.0504 98.08008 C 712.4685 98.93686 712.9236 100.78104 712.0668 102.19917 C 711.9415 102.40649 711.7916 102.59787 711.6204 102.76914 L 683.498 130.89148 C 682.32645 132.06305 680.427 132.06305 679.2554 130.89148 C 679.2138 130.84993 679.1735 130.80717 679.1345 130.76325 L 673.3885 124.29903 C 673.2007 124.08774 672.98395 123.90405 672.7447 123.75342 Z" fill="white"/>
        <path d="M 672.7447 123.75342 L 662.5722 117.34851 C 661.1701 116.46571 660.74915 114.61345 661.63194 113.21137 C 661.7556 113.01493 661.9017 112.8335 662.0672 112.67074 L 688.2391 86.93503 C 689.2164 85.97403 690.72075 85.79758 691.8939 86.50636 L 711.0504 98.08008 C 712.4685 98.93686 712.9236 100.78104 712.0668 102.19917 C 711.9415 102.40649 711.7916 102.59787 711.6204 102.76914 L 683.498 130.89148 C 682.32645 132.06305 680.427 132.06305 679.2554 130.89148 C 679.2138 130.84993 679.1735 130.80717 679.1345 130.76325 L 673.3885 124.29903 C 673.2007 124.08774 672.98395 123.90405 672.7447 123.75342 Z" stroke="black" stroke-linecap="round" stroke-linejoin="round" stroke-width="4"/>
      </g>
      <g id="Graphic_2">
        <path d="M 46.949605 834.8178 L 203.07628 610.9536 C 204.59013 608.7829 206.26747 606.731 208.09369 604.8157 L 347.66524 458.4358 C 348.17676 457.8993 348.67676 457.35197 349.16488 456.7941 L 365.0207 438.6732 C 369.6057 433.43317 377.20842 432.0672 383.3307 435.38345 L 383.3307 435.38345 C 387.691 437.74526 389.31107 443.1946 386.94925 447.55487 C 386.55153 448.28913 386.0533 448.9643 385.46903 449.5609 L 311.90537 524.6733 C 311.24668 525.34583 310.60636 526.03616 309.98515 526.7435 L 224.35654 624.2414 C 223.319 625.4228 222.33556 626.6506 221.40927 627.9211 L 69.82734 835.8285 C 65.64772 841.5612 58.88802 844.8364 51.798687 844.5638 L 51.798687 844.5638 C 48.375664 844.4321 45.70748 841.5505 45.83914 838.1275 C 45.884783 836.9407 46.27021 835.7919 46.949605 834.8178 Z" fill="#333"/>
        <path d="M 46.949605 834.8178 L 203.07628 610.9536 C 204.59013 608.7829 206.26747 606.731 208.09369 604.8157 L 347.66524 458.4358 C 348.17676 457.8993 348.67676 457.35197 349.16488 456.7941 L 365.0207 438.6732 C 369.6057 433.43317 377.20842 432.0672 383.3307 435.38345 L 383.3307 435.38345 C 387.691 437.74526 389.31107 443.1946 386.94925 447.55487 C 386.55153 448.28913 386.0533 448.9643 385.46903 449.5609 L 311.90537 524.6733 C 311.24668 525.34583 310.60636 526.03616 309.98515 526.7435 L 224.35654 624.2414 C 223.319 625.4228 222.33556 626.6506 221.40927 627.9211 L 69.82734 835.8285 C 65.64772 841.5612 58.88802 844.8364 51.798687 844.5638 L 51.798687 844.5638 C 48.375664 844.4321 45.70748 841.5505 45.83914 838.1275 C 45.884783 836.9407 46.27021 835.7919 46.949605 834.8178 Z" stroke="black" stroke-linecap="round" stroke-linejoin="round" stroke-width="4"/>
      </g>
      <g id="Graphic_4">
        <path d="M 372.50064 451.29675 L 352.51303 438.71196 C 351.11095 437.82916 350.69 435.9769 351.57277 434.5748 C 351.69646 434.37837 351.84253 434.19695 352.00805 434.0342 L 399.99128 386.8507 C 400.96857 385.8897 402.4729 385.71324 403.64604 386.422 L 440.2516 408.53787 C 441.6697 409.39465 442.1248 411.23883 441.268 412.65696 C 441.14274 412.8643 440.99284 413.05566 440.82157 413.22693 L 389.0703 464.9782 C 387.89873 466.14977 385.99924 466.14977 384.82766 464.9782 C 384.7861 464.93665 384.7458 464.8939 384.70676 464.84997 L 373.14443 451.84235 C 372.9566 451.63106 372.73987 451.4474 372.50064 451.29675 Z" fill="#333"/>
        <path d="M 372.50064 451.29675 L 352.51303 438.71196 C 351.11095 437.82916 350.69 435.9769 351.57277 434.5748 C 351.69646 434.37837 351.84253 434.19695 352.00805 434.0342 L 399.99128 386.8507 C 400.96857 385.8897 402.4729 385.71324 403.64604 386.422 L 440.2516 408.53787 C 441.6697 409.39465 442.1248 411.23883 441.268 412.65696 C 441.14274 412.8643 440.99284 413.05566 440.82157 413.22693 L 389.0703 464.9782 C 387.89873 466.14977 385.99924 466.14977 384.82766 464.9782 C 384.7861 464.93665 384.7458 464.8939 384.70676 464.84997 L 373.14443 451.84235 C 372.9566 451.63106 372.73987 451.4474 372.50064 451.29675 Z" stroke="black" stroke-linecap="round" stroke-linejoin="round" stroke-width="4"/>
      </g>
      <g id="Graphic_5">
        <path d="M 375.45255 276.26633 L 426.51763 226.36182 C 430.1794 222.7833 435.95254 222.5486 439.8927 225.81807 L 612.1839 368.78315 C 616.1807 372.09964 616.9734 377.92375 614.0084 382.1878 L 518.88835 518.98007 C 515.73533 523.5144 509.5035 524.6342 504.96914 521.4812 C 504.3503 521.0509 503.7821 520.552 503.2754 519.994 L 339.50682 339.6658 C 336.3368 336.17522 336.0358 330.9445 338.78453 327.11333 L 374.3168 277.58872 C 374.65616 277.1157 375.0362 276.67323 375.45255 276.26633 Z" fill="white"/>
        <path d="M 375.45255 276.26633 L 426.51763 226.36182 C 430.1794 222.7833 435.95254 222.5486 439.8927 225.81807 L 612.1839 368.78315 C 616.1807 372.09964 616.9734 377.92375 614.0084 382.1878 L 518.88835 518.98007 C 515.73533 523.5144 509.5035 524.6342 504.96914 521.4812 C 504.3503 521.0509 503.7821 520.552 503.2754 519.994 L 339.50682 339.6658 C 336.3368 336.17522 336.0358 330.9445 338.78453 327.11333 L 374.3168 277.58872 C 374.65616 277.1157 375.0362 276.67323 375.45255 276.26633 Z" stroke="black" stroke-linecap="round" stroke-linejoin="round" stroke-width="4"/>
      </g>
    </g>
  </g>
</svg>
