<?xml version="1.0" encoding="UTF-8" standalone="no"?>
<!DOCTYPE svg PUBLIC "-//W3C//DTD SVG 1.1//EN" "http://www.w3.org/Graphics/SVG/1.1/DTD/svg11.dtd">
<svg xmlns:xl="http://www.w3.org/1999/xlink" version="1.1" xmlns:dc="http://purl.org/dc/elements/1.1/" xmlns="http://www.w3.org/2000/svg" viewBox="0 0 850.394 850.394" width="850.394" height="850.394">
  <defs/>
  <metadata> Produced by OmniGraffle 7.9.4 
    <dc:date>2019-05-06 23:11:22 +0000</dc:date>
  </metadata>
  <g id="surface_speaker_2" fill="none" stroke-opacity="1" fill-opacity="1" stroke="none" stroke-dasharray="none">
    <title>surface speaker 2</title>
    <g id="surface_speaker_2: Layer 1">
      <title>Layer 1</title>
      <g id="Graphic_18">
        <path d="M 397.18844 241.3411 L 415.53314 179.25133 C 415.53314 179.25133 438.8168 136.21184 438.8168 135.50628 C 438.8168 134.80071 460.68933 107.98923 460.68933 107.98923 L 474.80064 146.08976 C 474.80064 146.08976 491.02864 167.96229 492.4398 184.1903 C 493.8509 200.4183 517.13456 219.46857 517.13456 219.46857 C 517.13456 219.46857 533.3626 198.3016 533.3626 195.47934 C 533.3626 192.65708 531.95144 172.19568 533.3626 163.7289 C 534.7737 155.26211 543.94605 135.50628 546.7683 134.80071 C 549.5906 134.09515 572.1687 127.74506 572.8742 128.45062 C 573.5798 129.15619 578.51876 125.62836 579.2243 133.38958 C 579.9299 141.1508 596.1579 191.95151 596.1579 193.36264 C 596.1579 194.77377 588.3967 239.92996 606.7414 216.6463 C 625.0861 193.36264 627.2028 184.89586 627.2028 184.89586 C 627.2028 184.89586 618.736 146.79532 620.1471 128.45062 C 621.55825 110.10592 658.9532 84 659.6588 84 C 660.36435 84 681.5313 86.1167 682.2369 87.52783 C 682.94244 88.93896 698.4649 140.44524 698.4649 149.61759 C 698.4649 158.78994 709.0484 194.77377 709.7539 206.06282 C 710.4595 217.35187 718.2207 217.35187 721.043 217.35187 C 723.8652 217.35187 736.5654 190.54038 737.271 190.54038 C 737.97655 190.54038 747.1489 179.9569 747.8545 179.9569 C 748.56 179.9569 771.8437 176.42907 771.8437 176.42907 L 781.016 179.25133 L 773.9604 181.36803 L 757.7324 181.36803 C 757.7324 181.36803 748.56 189.83482 747.8545 189.83482 C 747.1489 189.83482 740.0932 203.94613 740.0932 203.94613 L 731.6265 219.46857 L 715.39845 225.81865 C 715.39845 225.81865 701.28714 218.05743 701.28714 217.35187 C 701.28714 216.6463 700.5816 189.83482 700.5816 189.83482 L 691.4092 158.08437 C 691.4092 158.08437 686.4703 139.73967 685.7647 138.32854 C 685.0591 136.91741 678.0035 109.40036 678.0035 108.69479 C 678.0035 107.98923 669.5367 99.52244 668.8311 98.81687 C 668.1256 98.11131 655.4254 100.228 655.4254 100.228 L 638.4918 112.92818 L 630.025 128.45062 L 630.025 143.2675 C 630.025 143.2675 634.964 163.02333 635.66956 163.02333 C 636.3751 163.02333 636.3751 190.54038 636.3751 190.54038 C 636.3751 190.54038 634.964 200.4183 633.55286 201.12386 C 632.1417 201.82943 620.1471 218.763 620.1471 219.46857 C 620.1471 220.17413 606.7414 232.8743 606.0358 232.8743 C 605.33024 232.8743 597.569 232.8743 597.569 232.8743 L 585.5744 229.34648 L 582.75215 201.82943 C 582.75215 201.82943 581.341 188.42369 581.341 187.71812 C 581.341 187.01255 573.5798 162.31776 573.5798 162.31776 L 564.40745 136.91741 L 556.6462 144.67863 C 556.6462 144.67863 548.885 164.43446 548.17944 164.43446 C 547.4739 164.43446 544.6516 177.8402 544.6516 178.54577 C 544.6516 179.25133 544.6516 202.535 544.6516 202.535 L 538.3015 216.6463 L 524.1902 232.8743 L 510.7845 237.1077 C 510.7845 237.1077 500.201 219.46857 498.78986 219.46857 C 497.37873 219.46857 482.56186 200.4183 482.56186 200.4183 L 474.09507 186.307 L 469.8617 166.55116 L 459.98376 148.20646 L 459.98376 129.15619 L 450.10585 135.50628 C 450.10585 135.50628 448.6947 150.32315 447.98915 151.02872 C 447.2836 151.73428 435.99454 175.01794 435.28897 175.01794 C 434.5834 175.01794 397.18844 241.3411 397.18844 241.3411 Z" fill="black"/>
        <path d="M 397.18844 241.3411 L 415.53314 179.25133 C 415.53314 179.25133 438.8168 136.21184 438.8168 135.50628 C 438.8168 134.80071 460.68933 107.98923 460.68933 107.98923 L 474.80064 146.08976 C 474.80064 146.08976 491.02864 167.96229 492.4398 184.1903 C 493.8509 200.4183 517.13456 219.46857 517.13456 219.46857 C 517.13456 219.46857 533.3626 198.3016 533.3626 195.47934 C 533.3626 192.65708 531.95144 172.19568 533.3626 163.7289 C 534.7737 155.26211 543.94605 135.50628 546.7683 134.80071 C 549.5906 134.09515 572.1687 127.74506 572.8742 128.45062 C 573.5798 129.15619 578.51876 125.62836 579.2243 133.38958 C 579.9299 141.1508 596.1579 191.95151 596.1579 193.36264 C 596.1579 194.77377 588.3967 239.92996 606.7414 216.6463 C 625.0861 193.36264 627.2028 184.89586 627.2028 184.89586 C 627.2028 184.89586 618.736 146.79532 620.1471 128.45062 C 621.55825 110.10592 658.9532 84 659.6588 84 C 660.36435 84 681.5313 86.1167 682.2369 87.52783 C 682.94244 88.93896 698.4649 140.44524 698.4649 149.61759 C 698.4649 158.78994 709.0484 194.77377 709.7539 206.06282 C 710.4595 217.35187 718.2207 217.35187 721.043 217.35187 C 723.8652 217.35187 736.5654 190.54038 737.271 190.54038 C 737.97655 190.54038 747.1489 179.9569 747.8545 179.9569 C 748.56 179.9569 771.8437 176.42907 771.8437 176.42907 L 781.016 179.25133 L 773.9604 181.36803 L 757.7324 181.36803 C 757.7324 181.36803 748.56 189.83482 747.8545 189.83482 C 747.1489 189.83482 740.0932 203.94613 740.0932 203.94613 L 731.6265 219.46857 L 715.39845 225.81865 C 715.39845 225.81865 701.28714 218.05743 701.28714 217.35187 C 701.28714 216.6463 700.5816 189.83482 700.5816 189.83482 L 691.4092 158.08437 C 691.4092 158.08437 686.4703 139.73967 685.7647 138.32854 C 685.0591 136.91741 678.0035 109.40036 678.0035 108.69479 C 678.0035 107.98923 669.5367 99.52244 668.8311 98.81687 C 668.1256 98.11131 655.4254 100.228 655.4254 100.228 L 638.4918 112.92818 L 630.025 128.45062 L 630.025 143.2675 C 630.025 143.2675 634.964 163.02333 635.66956 163.02333 C 636.3751 163.02333 636.3751 190.54038 636.3751 190.54038 C 636.3751 190.54038 634.964 200.4183 633.55286 201.12386 C 632.1417 201.82943 620.1471 218.763 620.1471 219.46857 C 620.1471 220.17413 606.7414 232.8743 606.0358 232.8743 C 605.33024 232.8743 597.569 232.8743 597.569 232.8743 L 585.5744 229.34648 L 582.75215 201.82943 C 582.75215 201.82943 581.341 188.42369 581.341 187.71812 C 581.341 187.01255 573.5798 162.31776 573.5798 162.31776 L 564.40745 136.91741 L 556.6462 144.67863 C 556.6462 144.67863 548.885 164.43446 548.17944 164.43446 C 547.4739 164.43446 544.6516 177.8402 544.6516 178.54577 C 544.6516 179.25133 544.6516 202.535 544.6516 202.535 L 538.3015 216.6463 L 524.1902 232.8743 L 510.7845 237.1077 C 510.7845 237.1077 500.201 219.46857 498.78986 219.46857 C 497.37873 219.46857 482.56186 200.4183 482.56186 200.4183 L 474.09507 186.307 L 469.8617 166.55116 L 459.98376 148.20646 L 459.98376 129.15619 L 450.10585 135.50628 C 450.10585 135.50628 448.6947 150.32315 447.98915 151.02872 C 447.2836 151.73428 435.99454 175.01794 435.28897 175.01794 C 434.5834 175.01794 397.18844 241.3411 397.18844 241.3411 Z" stroke="black" stroke-linecap="round" stroke-linejoin="round" stroke-width="5"/>
      </g>
      <g id="Line_16">
        <path d="M 400.90037 323.9963 C 324.6531 376.70155 205.9006 421.4408 172.13562 482.1279 C 138.37064 542.815 200.9482 643.8719 198.2902 688.1552 C 195.63217 732.4385 164.70823 737.5019 156.1859 747.8542 C 147.66359 758.2064 150.16243 749.46815 147.15115 750.275" stroke="black" stroke-linecap="round" stroke-linejoin="round" stroke-width="7"/>
      </g>
      <g id="Line_15">
        <path d="M 556.0764 313.99093 C 473.06826 375.9247 340.792 439.1237 307.02703 499.8108 C 273.26204 560.4979 386.79624 627.70445 353.46624 678.14986 C 320.13624 728.5953 154.8522 784.5988 107.02703 802.5135 C 59.20185 820.4282 79.99865 791.2697 66.48649 785.64865" stroke="#ff2c29" stroke-linecap="round" stroke-linejoin="round" stroke-width="7"/>
      </g>
      <g id="Graphic_14">
        <path d="M 400.09753 321.64078 L 400.09753 321.64078 C 401.70418 321.64078 403.0066 322.94322 403.0066 324.54987 L 403.0066 324.54987 C 403.0066 326.1565 401.70418 327.45896 400.09753 327.45896 L 400.09753 327.45896 C 398.4909 327.45896 397.18844 326.1565 397.18844 324.54987 L 397.18844 324.54987 C 397.18844 322.94322 398.4909 321.64078 400.09753 321.64078 Z" fill="#d4dfd7"/>
        <path d="M 400.09753 321.64078 L 400.09753 321.64078 C 401.70418 321.64078 403.0066 322.94322 403.0066 324.54987 L 403.0066 324.54987 C 403.0066 326.1565 401.70418 327.45896 400.09753 327.45896 L 400.09753 327.45896 C 398.4909 327.45896 397.18844 326.1565 397.18844 324.54987 L 397.18844 324.54987 C 397.18844 322.94322 398.4909 321.64078 400.09753 321.64078 Z" stroke="black" stroke-linecap="round" stroke-linejoin="round" stroke-width="1"/>
      </g>
      <g id="Graphic_13">
        <path d="M 332.26266 399.1129 L 332.26266 307.94695 C 332.26266 301.6565 412.31503 296.5512 510.951 296.5512 C 609.58696 296.5512 689.6393 301.6565 689.6393 307.94695 L 689.6393 399.1129 C 689.6393 405.40334 609.58696 410.50863 510.951 410.50863 C 412.31503 410.50863 332.26266 405.40334 332.26266 399.1129" fill="#666"/>
        <path d="M 332.26266 399.1129 L 332.26266 307.94695 C 332.26266 301.6565 412.31503 296.5512 510.951 296.5512 C 609.58696 296.5512 689.6393 301.6565 689.6393 307.94695 L 689.6393 399.1129 C 689.6393 405.40334 609.58696 410.50863 510.951 410.50863 C 412.31503 410.50863 332.26266 405.40334 332.26266 399.1129 M 332.26266 307.94695 C 332.26266 314.2374 412.31503 319.3427 510.951 319.3427 C 609.58696 319.3427 689.6393 314.2374 689.6393 307.94695" stroke="black" stroke-linecap="round" stroke-linejoin="round" stroke-width="7"/>
      </g>
      <g id="Graphic_10">
        <path d="M 817.8276 425 L 799.4829 487.08976 C 799.4829 487.08976 776.1992 530.12925 776.1992 530.8348 C 776.1992 531.5404 754.3267 558.3519 754.3267 558.3519 L 740.2154 520.25133 C 740.2154 520.25133 723.9874 498.3788 722.5763 482.1508 C 721.1651 465.9228 697.8815 446.87253 697.8815 446.87253 C 697.8815 446.87253 681.6535 468.0395 681.6535 470.86175 C 681.6535 473.684 683.0646 494.1454 681.6535 502.6122 C 680.2423 511.079 671.07 530.8348 668.2477 531.5404 C 665.4255 532.24595 642.8474 538.59604 642.1418 537.8905 C 641.43624 537.1849 636.4973 540.71273 635.7917 532.9515 C 635.08615 525.1903 618.85815 474.3896 618.85815 472.97845 C 618.85815 471.5673 626.6194 426.41113 608.2747 449.6948 C 589.92996 472.97845 587.8133 481.44524 587.8133 481.44524 C 587.8133 481.44524 596.28005 519.5458 594.8689 537.8905 C 593.4578 556.2352 556.0628 582.3411 555.35726 582.3411 C 554.6517 582.3411 533.4847 580.2244 532.77916 578.8133 C 532.0736 577.40214 516.55116 525.89586 516.55116 516.7235 C 516.55116 507.55116 505.9677 471.5673 505.2621 460.27827 C 504.55654 448.9892 496.7953 448.9892 493.97306 448.9892 C 491.1508 448.9892 478.4506 475.8007 477.74506 475.8007 C 477.0395 475.8007 467.86714 486.3842 467.1616 486.3842 C 466.456 486.3842 443.17235 489.912 443.17235 489.912 L 434 487.08976 L 441.05565 484.97306 L 457.28366 484.97306 C 457.28366 484.97306 466.456 476.5063 467.1616 476.5063 C 467.86714 476.5063 474.9228 462.39497 474.9228 462.39497 L 483.3896 446.87253 L 499.6176 440.52244 C 499.6176 440.52244 513.7289 448.28366 513.7289 448.9892 C 513.7289 449.6948 514.43446 476.5063 514.43446 476.5063 L 523.6068 508.2567 C 523.6068 508.2567 528.5458 526.6014 529.25133 528.01255 C 529.9569 529.4237 537.01255 556.94074 537.01255 557.6463 C 537.01255 558.3519 545.47934 566.81865 546.1849 567.5242 C 546.8905 568.2298 559.59065 566.1131 559.59065 566.1131 L 576.5242 553.4129 L 584.991 537.8905 L 584.991 523.0736 C 584.991 523.0736 580.05205 503.31776 579.3465 503.31776 C 578.6409 503.31776 578.6409 475.8007 578.6409 475.8007 C 578.6409 475.8007 580.05205 465.9228 581.4632 465.21723 C 582.8743 464.51166 594.8689 447.5781 594.8689 446.87253 C 594.8689 446.16696 608.2747 433.4668 608.9802 433.4668 C 609.6858 433.4668 617.447 433.4668 617.447 433.4668 L 629.4416 436.9946 L 632.2639 464.51166 C 632.2639 464.51166 633.675 477.9174 633.675 478.623 C 633.675 479.32854 641.43624 504.0233 641.43624 504.0233 L 650.6086 529.4237 L 658.3698 521.66247 C 658.3698 521.66247 666.131 501.90663 666.8366 501.90663 C 667.5422 501.90663 670.3644 488.5009 670.3644 487.7953 C 670.3644 487.08976 670.3644 463.8061 670.3644 463.8061 L 676.7145 449.6948 L 690.8258 433.4668 L 704.2316 429.2334 C 704.2316 429.2334 714.81505 446.87253 716.2262 446.87253 C 717.6373 446.87253 732.4542 465.9228 732.4542 465.9228 L 740.921 480.0341 L 745.1544 499.78994 L 755.0323 518.13464 L 755.0323 537.1849 L 764.9102 530.8348 C 764.9102 530.8348 766.3213 516.01794 767.0269 515.3124 C 767.7325 514.6068 779.0215 491.32315 779.7271 491.32315 C 780.4326 491.32315 817.8276 425 817.8276 425 Z" fill="black"/>
        <path d="M 817.8276 425 L 799.4829 487.08976 C 799.4829 487.08976 776.1992 530.12925 776.1992 530.8348 C 776.1992 531.5404 754.3267 558.3519 754.3267 558.3519 L 740.2154 520.25133 C 740.2154 520.25133 723.9874 498.3788 722.5763 482.1508 C 721.1651 465.9228 697.8815 446.87253 697.8815 446.87253 C 697.8815 446.87253 681.6535 468.0395 681.6535 470.86175 C 681.6535 473.684 683.0646 494.1454 681.6535 502.6122 C 680.2423 511.079 671.07 530.8348 668.2477 531.5404 C 665.4255 532.24595 642.8474 538.59604 642.1418 537.8905 C 641.43624 537.1849 636.4973 540.71273 635.7917 532.9515 C 635.08615 525.1903 618.85815 474.3896 618.85815 472.97845 C 618.85815 471.5673 626.6194 426.41113 608.2747 449.6948 C 589.92996 472.97845 587.8133 481.44524 587.8133 481.44524 C 587.8133 481.44524 596.28005 519.5458 594.8689 537.8905 C 593.4578 556.2352 556.0628 582.3411 555.35726 582.3411 C 554.6517 582.3411 533.4847 580.2244 532.77916 578.8133 C 532.0736 577.40214 516.55116 525.89586 516.55116 516.7235 C 516.55116 507.55116 505.9677 471.5673 505.2621 460.27827 C 504.55654 448.9892 496.7953 448.9892 493.97306 448.9892 C 491.1508 448.9892 478.4506 475.8007 477.74506 475.8007 C 477.0395 475.8007 467.86714 486.3842 467.1616 486.3842 C 466.456 486.3842 443.17235 489.912 443.17235 489.912 L 434 487.08976 L 441.05565 484.97306 L 457.28366 484.97306 C 457.28366 484.97306 466.456 476.5063 467.1616 476.5063 C 467.86714 476.5063 474.9228 462.39497 474.9228 462.39497 L 483.3896 446.87253 L 499.6176 440.52244 C 499.6176 440.52244 513.7289 448.28366 513.7289 448.9892 C 513.7289 449.6948 514.43446 476.5063 514.43446 476.5063 L 523.6068 508.2567 C 523.6068 508.2567 528.5458 526.6014 529.25133 528.01255 C 529.9569 529.4237 537.01255 556.94074 537.01255 557.6463 C 537.01255 558.3519 545.47934 566.81865 546.1849 567.5242 C 546.8905 568.2298 559.59065 566.1131 559.59065 566.1131 L 576.5242 553.4129 L 584.991 537.8905 L 584.991 523.0736 C 584.991 523.0736 580.05205 503.31776 579.3465 503.31776 C 578.6409 503.31776 578.6409 475.8007 578.6409 475.8007 C 578.6409 475.8007 580.05205 465.9228 581.4632 465.21723 C 582.8743 464.51166 594.8689 447.5781 594.8689 446.87253 C 594.8689 446.16696 608.2747 433.4668 608.9802 433.4668 C 609.6858 433.4668 617.447 433.4668 617.447 433.4668 L 629.4416 436.9946 L 632.2639 464.51166 C 632.2639 464.51166 633.675 477.9174 633.675 478.623 C 633.675 479.32854 641.43624 504.0233 641.43624 504.0233 L 650.6086 529.4237 L 658.3698 521.66247 C 658.3698 521.66247 666.131 501.90663 666.8366 501.90663 C 667.5422 501.90663 670.3644 488.5009 670.3644 487.7953 C 670.3644 487.08976 670.3644 463.8061 670.3644 463.8061 L 676.7145 449.6948 L 690.8258 433.4668 L 704.2316 429.2334 C 704.2316 429.2334 714.81505 446.87253 716.2262 446.87253 C 717.6373 446.87253 732.4542 465.9228 732.4542 465.9228 L 740.921 480.0341 L 745.1544 499.78994 L 755.0323 518.13464 L 755.0323 537.1849 L 764.9102 530.8348 C 764.9102 530.8348 766.3213 516.01794 767.0269 515.3124 C 767.7325 514.6068 779.0215 491.32315 779.7271 491.32315 C 780.4326 491.32315 817.8276 425 817.8276 425 Z" stroke="black" stroke-linecap="round" stroke-linejoin="round" stroke-width="5"/>
      </g>
      <g id="Graphic_17">
        <path d="M 118 525.0533 L 128.84926 488.3327 C 128.84926 488.3327 142.61949 462.8787 142.61949 462.4614 C 142.61949 462.0441 155.55515 446.1875 155.55515 446.1875 L 163.90074 468.7206 C 163.90074 468.7206 173.49816 481.65625 174.33272 491.2537 C 175.16728 500.8511 188.9375 512.11765 188.9375 512.11765 C 188.9375 512.11765 198.53493 499.59926 198.53493 497.93015 C 198.53493 496.261 197.70037 484.1599 198.53493 479.1526 C 199.36949 474.1452 204.79412 462.4614 206.46324 462.0441 C 208.13235 461.62684 221.4853 457.8713 221.90257 458.2886 C 222.31985 458.7059 225.2408 456.6195 225.6581 461.20956 C 226.07537 465.79963 235.6728 495.84375 235.6728 496.6783 C 235.6728 497.51287 231.08272 524.21875 241.93199 510.4485 C 252.78125 496.6783 254.0331 491.67096 254.0331 491.67096 C 254.0331 491.67096 249.02574 469.13787 249.8603 458.2886 C 250.69485 447.43934 272.81066 432 273.22794 432 C 273.64522 432 286.1636 433.25184 286.58088 434.0864 C 286.99816 434.92096 296.1783 465.38235 296.1783 470.807 C 296.1783 476.2316 302.4375 497.51287 302.85478 504.18934 C 303.27206 510.8658 307.86213 510.8658 309.53125 510.8658 C 311.20037 510.8658 318.7114 495.0092 319.12868 495.0092 C 319.54596 495.0092 324.9706 488.75 325.38787 488.75 C 325.80515 488.75 339.57537 486.6636 339.57537 486.6636 L 345 488.3327 L 340.8272 489.58456 L 331.22978 489.58456 C 331.22978 489.58456 325.80515 494.5919 325.38787 494.5919 C 324.9706 494.5919 320.7978 502.9375 320.7978 502.9375 L 315.79044 512.11765 L 306.193 515.87316 C 306.193 515.87316 297.84743 511.2831 297.84743 510.8658 C 297.84743 510.4485 297.43015 494.5919 297.43015 494.5919 L 292.0055 475.81434 C 292.0055 475.81434 289.08456 464.9651 288.66728 464.1305 C 288.25 463.29596 284.0772 447.02206 284.0772 446.6048 C 284.0772 446.1875 279.06985 441.18015 278.65257 440.76287 C 278.2353 440.3456 270.72426 441.59743 270.72426 441.59743 L 260.70956 449.10846 L 255.7022 458.2886 L 255.7022 467.05147 C 255.7022 467.05147 258.62316 478.7353 259.04044 478.7353 C 259.45772 478.7353 259.45772 495.0092 259.45772 495.0092 C 259.45772 495.0092 258.62316 500.8511 257.7886 501.2684 C 256.95404 501.68566 249.8603 511.70037 249.8603 512.11765 C 249.8603 512.5349 241.93199 520.04596 241.5147 520.04596 C 241.09743 520.04596 236.50735 520.04596 236.50735 520.04596 L 229.4136 517.95956 L 227.74449 501.68566 C 227.74449 501.68566 226.90993 493.75735 226.90993 493.3401 C 226.90993 492.9228 222.31985 478.318 222.31985 478.318 L 216.89522 463.29596 L 212.30515 467.88603 C 212.30515 467.88603 207.71507 479.56985 207.2978 479.56985 C 206.88051 479.56985 205.2114 487.49816 205.2114 487.91544 C 205.2114 488.3327 205.2114 502.10294 205.2114 502.10294 L 201.45588 510.4485 L 193.1103 520.04596 L 185.18199 522.54963 C 185.18199 522.54963 178.9228 512.11765 178.08824 512.11765 C 177.25368 512.11765 168.4908 500.8511 168.4908 500.8511 L 163.48346 492.5055 L 160.97978 480.8217 L 155.13787 469.9724 L 155.13787 458.7059 L 149.29596 462.4614 C 149.29596 462.4614 148.4614 471.22426 148.04412 471.64154 C 147.62684 472.0588 140.95037 485.82904 140.53309 485.82904 C 140.11581 485.82904 118 525.0533 118 525.0533 Z" fill="black"/>
        <path d="M 118 525.0533 L 128.84926 488.3327 C 128.84926 488.3327 142.61949 462.8787 142.61949 462.4614 C 142.61949 462.0441 155.55515 446.1875 155.55515 446.1875 L 163.90074 468.7206 C 163.90074 468.7206 173.49816 481.65625 174.33272 491.2537 C 175.16728 500.8511 188.9375 512.11765 188.9375 512.11765 C 188.9375 512.11765 198.53493 499.59926 198.53493 497.93015 C 198.53493 496.261 197.70037 484.1599 198.53493 479.1526 C 199.36949 474.1452 204.79412 462.4614 206.46324 462.0441 C 208.13235 461.62684 221.4853 457.8713 221.90257 458.2886 C 222.31985 458.7059 225.2408 456.6195 225.6581 461.20956 C 226.07537 465.79963 235.6728 495.84375 235.6728 496.6783 C 235.6728 497.51287 231.08272 524.21875 241.93199 510.4485 C 252.78125 496.6783 254.0331 491.67096 254.0331 491.67096 C 254.0331 491.67096 249.02574 469.13787 249.8603 458.2886 C 250.69485 447.43934 272.81066 432 273.22794 432 C 273.64522 432 286.1636 433.25184 286.58088 434.0864 C 286.99816 434.92096 296.1783 465.38235 296.1783 470.807 C 296.1783 476.2316 302.4375 497.51287 302.85478 504.18934 C 303.27206 510.8658 307.86213 510.8658 309.53125 510.8658 C 311.20037 510.8658 318.7114 495.0092 319.12868 495.0092 C 319.54596 495.0092 324.9706 488.75 325.38787 488.75 C 325.80515 488.75 339.57537 486.6636 339.57537 486.6636 L 345 488.3327 L 340.8272 489.58456 L 331.22978 489.58456 C 331.22978 489.58456 325.80515 494.5919 325.38787 494.5919 C 324.9706 494.5919 320.7978 502.9375 320.7978 502.9375 L 315.79044 512.11765 L 306.193 515.87316 C 306.193 515.87316 297.84743 511.2831 297.84743 510.8658 C 297.84743 510.4485 297.43015 494.5919 297.43015 494.5919 L 292.0055 475.81434 C 292.0055 475.81434 289.08456 464.9651 288.66728 464.1305 C 288.25 463.29596 284.0772 447.02206 284.0772 446.6048 C 284.0772 446.1875 279.06985 441.18015 278.65257 440.76287 C 278.2353 440.3456 270.72426 441.59743 270.72426 441.59743 L 260.70956 449.10846 L 255.7022 458.2886 L 255.7022 467.05147 C 255.7022 467.05147 258.62316 478.7353 259.04044 478.7353 C 259.45772 478.7353 259.45772 495.0092 259.45772 495.0092 C 259.45772 495.0092 258.62316 500.8511 257.7886 501.2684 C 256.95404 501.68566 249.8603 511.70037 249.8603 512.11765 C 249.8603 512.5349 241.93199 520.04596 241.5147 520.04596 C 241.09743 520.04596 236.50735 520.04596 236.50735 520.04596 L 229.4136 517.95956 L 227.74449 501.68566 C 227.74449 501.68566 226.90993 493.75735 226.90993 493.3401 C 226.90993 492.9228 222.31985 478.318 222.31985 478.318 L 216.89522 463.29596 L 212.30515 467.88603 C 212.30515 467.88603 207.71507 479.56985 207.2978 479.56985 C 206.88051 479.56985 205.2114 487.49816 205.2114 487.91544 C 205.2114 488.3327 205.2114 502.10294 205.2114 502.10294 L 201.45588 510.4485 L 193.1103 520.04596 L 185.18199 522.54963 C 185.18199 522.54963 178.9228 512.11765 178.08824 512.11765 C 177.25368 512.11765 168.4908 500.8511 168.4908 500.8511 L 163.48346 492.5055 L 160.97978 480.8217 L 155.13787 469.9724 L 155.13787 458.7059 L 149.29596 462.4614 C 149.29596 462.4614 148.4614 471.22426 148.04412 471.64154 C 147.62684 472.0588 140.95037 485.82904 140.53309 485.82904 C 140.11581 485.82904 118 525.0533 118 525.0533 Z" stroke="black" stroke-linecap="round" stroke-linejoin="round" stroke-width="5"/>
      </g>
      <g id="Graphic_20">
        <path d="M 41 339.3411 L 51.183267 304.87465 C 51.183267 304.87465 64.10818 280.98314 64.10818 280.59148 C 64.10818 280.1998 76.24977 265.31658 76.24977 265.31658 L 84.08305 286.46644 C 84.08305 286.46644 93.09132 298.60803 93.87465 307.6163 C 94.65798 316.62458 107.5829 327.1995 107.5829 327.1995 C 107.5829 327.1995 116.59117 315.4496 116.59117 313.88293 C 116.59117 312.31627 115.80784 300.958 116.59117 296.25804 C 117.3745 291.55807 122.46613 280.59148 124.03279 280.1998 C 125.59945 279.80815 138.1327 276.28317 138.52436 276.67484 C 138.91602 277.0665 141.65767 275.10818 142.04934 279.4165 C 142.441 283.7248 151.44928 311.9246 151.44928 312.70794 C 151.44928 313.49126 147.14097 338.55777 157.32424 325.63285 C 167.5075 312.70794 168.6825 308.00797 168.6825 308.00797 C 168.6825 308.00797 163.98253 286.8581 164.76585 276.67484 C 165.54918 266.49157 186.30738 252 186.69904 252 C 187.0907 252 198.84063 253.175 199.2323 253.95832 C 199.62396 254.74165 208.24057 283.33313 208.24057 288.42476 C 208.24057 293.5164 214.11553 313.49126 214.5072 319.7579 C 214.89886 326.0245 219.20716 326.0245 220.77382 326.0245 C 222.34048 326.0245 229.39043 311.14128 229.7821 311.14128 C 230.17376 311.14128 235.2654 305.2663 235.65706 305.2663 C 236.04872 305.2663 248.97364 303.308 248.97364 303.308 L 254.06527 304.87465 L 250.14863 306.04965 L 241.14035 306.04965 C 241.14035 306.04965 236.04872 310.7496 235.65706 310.7496 C 235.2654 310.7496 231.34875 318.5829 231.34875 318.5829 L 226.64878 327.1995 L 217.6405 330.7245 C 217.6405 330.7245 209.80723 326.41618 209.80723 326.0245 C 209.80723 325.63285 209.41556 310.7496 209.41556 310.7496 L 204.32393 293.12473 C 204.32393 293.12473 201.58228 282.94146 201.19062 282.15814 C 200.79895 281.3748 196.8823 266.0999 196.8823 265.70824 C 196.8823 265.31658 192.18234 260.6166 191.79068 260.22495 C 191.39901 259.83328 184.34906 261.00827 184.34906 261.00827 L 174.94912 268.05823 L 170.24915 276.67484 L 170.24915 284.8998 C 170.24915 284.8998 172.9908 295.86638 173.38247 295.86638 C 173.77413 295.86638 173.77413 311.14128 173.77413 311.14128 C 173.77413 311.14128 172.9908 316.62458 172.20747 317.01624 C 171.42414 317.4079 164.76585 326.80784 164.76585 327.1995 C 164.76585 327.59117 157.32424 334.64112 156.93257 334.64112 C 156.5409 334.64112 152.2326 334.64112 152.2326 334.64112 L 145.57431 332.6828 L 144.00766 317.4079 C 144.00766 317.4079 143.22433 309.9663 143.22433 309.57462 C 143.22433 309.18296 138.91602 295.4747 138.91602 295.4747 L 133.82439 281.3748 L 129.51609 285.6831 C 129.51609 285.6831 125.20778 296.6497 124.81612 296.6497 C 124.42445 296.6497 122.8578 304.09132 122.8578 304.483 C 122.8578 304.87465 122.8578 317.79957 122.8578 317.79957 L 119.33282 325.63285 L 111.49954 334.64112 L 104.05792 336.9911 C 104.05792 336.9911 98.18296 327.1995 97.39963 327.1995 C 96.6163 327.1995 88.39136 316.62458 88.39136 316.62458 L 83.69139 308.7913 L 81.3414 297.8247 L 75.858105 287.64143 L 75.858105 277.0665 L 70.37481 280.59148 C 70.37481 280.59148 69.59148 288.81643 69.199815 289.2081 C 68.80815 289.59975 62.541525 302.52467 62.14986 302.52467 C 61.7582 302.52467 41 339.3411 41 339.3411 Z" fill="black"/>
        <path d="M 41 339.3411 L 51.183267 304.87465 C 51.183267 304.87465 64.10818 280.98314 64.10818 280.59148 C 64.10818 280.1998 76.24977 265.31658 76.24977 265.31658 L 84.08305 286.46644 C 84.08305 286.46644 93.09132 298.60803 93.87465 307.6163 C 94.65798 316.62458 107.5829 327.1995 107.5829 327.1995 C 107.5829 327.1995 116.59117 315.4496 116.59117 313.88293 C 116.59117 312.31627 115.80784 300.958 116.59117 296.25804 C 117.3745 291.55807 122.46613 280.59148 124.03279 280.1998 C 125.59945 279.80815 138.1327 276.28317 138.52436 276.67484 C 138.91602 277.0665 141.65767 275.10818 142.04934 279.4165 C 142.441 283.7248 151.44928 311.9246 151.44928 312.70794 C 151.44928 313.49126 147.14097 338.55777 157.32424 325.63285 C 167.5075 312.70794 168.6825 308.00797 168.6825 308.00797 C 168.6825 308.00797 163.98253 286.8581 164.76585 276.67484 C 165.54918 266.49157 186.30738 252 186.69904 252 C 187.0907 252 198.84063 253.175 199.2323 253.95832 C 199.62396 254.74165 208.24057 283.33313 208.24057 288.42476 C 208.24057 293.5164 214.11553 313.49126 214.5072 319.7579 C 214.89886 326.0245 219.20716 326.0245 220.77382 326.0245 C 222.34048 326.0245 229.39043 311.14128 229.7821 311.14128 C 230.17376 311.14128 235.2654 305.2663 235.65706 305.2663 C 236.04872 305.2663 248.97364 303.308 248.97364 303.308 L 254.06527 304.87465 L 250.14863 306.04965 L 241.14035 306.04965 C 241.14035 306.04965 236.04872 310.7496 235.65706 310.7496 C 235.2654 310.7496 231.34875 318.5829 231.34875 318.5829 L 226.64878 327.1995 L 217.6405 330.7245 C 217.6405 330.7245 209.80723 326.41618 209.80723 326.0245 C 209.80723 325.63285 209.41556 310.7496 209.41556 310.7496 L 204.32393 293.12473 C 204.32393 293.12473 201.58228 282.94146 201.19062 282.15814 C 200.79895 281.3748 196.8823 266.0999 196.8823 265.70824 C 196.8823 265.31658 192.18234 260.6166 191.79068 260.22495 C 191.39901 259.83328 184.34906 261.00827 184.34906 261.00827 L 174.94912 268.05823 L 170.24915 276.67484 L 170.24915 284.8998 C 170.24915 284.8998 172.9908 295.86638 173.38247 295.86638 C 173.77413 295.86638 173.77413 311.14128 173.77413 311.14128 C 173.77413 311.14128 172.9908 316.62458 172.20747 317.01624 C 171.42414 317.4079 164.76585 326.80784 164.76585 327.1995 C 164.76585 327.59117 157.32424 334.64112 156.93257 334.64112 C 156.5409 334.64112 152.2326 334.64112 152.2326 334.64112 L 145.57431 332.6828 L 144.00766 317.4079 C 144.00766 317.4079 143.22433 309.9663 143.22433 309.57462 C 143.22433 309.18296 138.91602 295.4747 138.91602 295.4747 L 133.82439 281.3748 L 129.51609 285.6831 C 129.51609 285.6831 125.20778 296.6497 124.81612 296.6497 C 124.42445 296.6497 122.8578 304.09132 122.8578 304.483 C 122.8578 304.87465 122.8578 317.79957 122.8578 317.79957 L 119.33282 325.63285 L 111.49954 334.64112 L 104.05792 336.9911 C 104.05792 336.9911 98.18296 327.1995 97.39963 327.1995 C 96.6163 327.1995 88.39136 316.62458 88.39136 316.62458 L 83.69139 308.7913 L 81.3414 297.8247 L 75.858105 287.64143 L 75.858105 277.0665 L 70.37481 280.59148 C 70.37481 280.59148 69.59148 288.81643 69.199815 289.2081 C 68.80815 289.59975 62.541525 302.52467 62.14986 302.52467 C 61.7582 302.52467 41 339.3411 41 339.3411 Z" stroke="black" stroke-linecap="round" stroke-linejoin="round" stroke-width="5"/>
      </g>
    </g>
  </g>
</svg>
