<?xml version="1.0" encoding="UTF-8" standalone="no"?>
<!DOCTYPE svg PUBLIC "-//W3C//DTD SVG 1.1//EN" "http://www.w3.org/Graphics/SVG/1.1/DTD/svg11.dtd">
<svg xmlns:xl="http://www.w3.org/1999/xlink" xmlns:dc="http://purl.org/dc/elements/1.1/" xmlns="http://www.w3.org/2000/svg" version="1.1" viewBox="0 0 850.394 850.394" width="850.394" height="850.394">
  <defs/>
  <metadata> Produced by OmniGraffle 7.9.4 
    <dc:date>2019-09-30 13:11:23 +0000</dc:date>
  </metadata>
  <g id="voltage_divider" stroke="none" stroke-dasharray="none" fill="none" stroke-opacity="1" fill-opacity="1">
    <title>voltage divider</title>
    <g id="voltage_divider: Layer 1">
      <title>Layer 1</title>
      <g id="Graphic_52">
        <rect x="106" y="49.568217" width="650.45765" height="597.9317" fill="#c0ffc0"/>
        <rect x="106" y="49.568217" width="650.45765" height="597.9317" stroke="black" stroke-linecap="round" stroke-linejoin="round" stroke-width="3"/>
      </g>
      <g id="Group_82">
        <title>resistor</title>
        <g id="Group_83">
          <title>resistor: Layer 1</title>
          <g id="Group_97">
            <title>Line_9</title>
            <g id="Graphic_98">
              <path d="M 499.9787 173.43284 L 479.1135 180.1275 C 477.5834 180.61843 476.33745 181.74223 475.6918 183.21374 L 463.8257 210.257 C 463.8229 210.26337 463.82014 210.26974 463.81737 210.27612 L 453.72313 233.516 C 453.60595 233.7858 453.4677 234.04595 453.3097 234.29406 L 430.2398 270.52084" stroke="black" stroke-linecap="round" stroke-linejoin="round" stroke-width="3"/>
            </g>
          </g>
          <g id="Group_95">
            <title>Line_8</title>
            <g id="Graphic_96">
              <path d="M 587.3344 151.96642 L 607.65475 151.38918 C 610.7504 151.30125 613.3312 153.73947 613.4191 156.83512 C 613.43075 157.2438 613.3976 157.65255 613.32035 158.05403 L 608.1706 184.81315 C 608.14216 184.96088 608.1078 185.1074 608.0676 185.25237 L 588.46374 255.9212 C 588.42645 256.0556 588.3842 256.18857 588.337 256.31982 L 578.5174 283.62565" stroke="black" stroke-linecap="round" stroke-linejoin="round" stroke-width="3"/>
            </g>
          </g>
          <g id="Group_92">
            <title>Graphic_11</title>
            <g id="Graphic_94">
              <path d="M 499.0453 166.19492 L 511.6316 155.0302 L 533.697 144.91273 L 566.9877 139.40232 L 589.79155 148.79645 L 589.6376 157.39565 L 573.7649 169.3334 L 537.0675 179.7831 L 500.56444 176.3141 Z" fill="#ffd348"/>
            </g>
            <g id="Graphic_93">
              <path d="M 499.0453 166.19492 L 511.6316 155.0302 L 533.697 144.91273 L 566.9877 139.40232 L 589.79155 148.79645 L 589.6376 157.39565 L 573.7649 169.3334 L 537.0675 179.7831 L 500.56444 176.3141 Z" stroke="black" stroke-linecap="round" stroke-linejoin="round" stroke-width="3"/>
            </g>
          </g>
          <g id="Group_90">
            <title>Line_12</title>
            <g id="Graphic_91">
              <path d="M 520.18844 150.62156 L 515.6405 163.91435 L 518.9793 170.83735 L 523.79265 177.22143 L 526.03543 178.08293" stroke="black" stroke-linecap="round" stroke-linejoin="round" stroke-width="3"/>
            </g>
          </g>
          <g id="Group_88">
            <title>Line_14</title>
            <g id="Graphic_89">
              <path d="M 536.0922 145.35021 L 531.54425 158.643 L 534.88303 165.566 L 541.37146 175.95584 L 543.3647 177.87152" stroke="white" stroke-linecap="round" stroke-linejoin="round" stroke-width="3"/>
            </g>
          </g>
          <g id="Group_86">
            <title>Line_15</title>
            <g id="Graphic_87">
              <path d="M 552.63234 141.32792 L 548.0844 154.62072 L 551.4232 161.54372 L 557.9116 171.93356 L 559.90486 173.84923" stroke="#b34400" stroke-linecap="round" stroke-linejoin="round" stroke-width="3"/>
            </g>
          </g>
          <g id="Group_84">
            <title>Line_16</title>
            <g id="Graphic_85">
              <path d="M 565.8252 139.16851 L 563.4269 148.40849 L 563.9848 158.14547 L 568.0277 165.3051 L 573.255 170.05735" stroke="#b1001c" stroke-linecap="round" stroke-linejoin="round" stroke-width="3"/>
            </g>
          </g>
        </g>
      </g>
      <g id="Group_61">
        <title>LDR</title>
        <g id="Group_62">
          <title>LDR: Layer 1</title>
          <g id="Group_79">
            <title>Line_9</title>
            <g id="Graphic_80">
              <path d="M 350.63837 114.52766 L 358.74526 199.24162 C 358.74942 199.28514 358.75303 199.32872 358.75606 199.37237 L 361.88037 244.33253 C 361.9058 244.69826 361.89136 245.067 361.8374 245.4322 L 356.65363 280.4977" stroke="black" stroke-linecap="round" stroke-linejoin="round" stroke-width="3"/>
            </g>
          </g>
          <g id="Group_77">
            <title>Line_8</title>
            <g id="Graphic_78">
              <path d="M 401.4936 112.37665 L 413.36166 173.34815 C 413.37544 173.41894 413.3877 173.49008 413.3984 173.5615 L 423.12326 238.38545 C 423.16003 238.6306 423.17865 238.87878 423.17895 239.1279 L 423.24604 295.86056" stroke="black" stroke-linecap="round" stroke-linejoin="round" stroke-width="3"/>
            </g>
          </g>
          <g id="Group_74">
            <title>Graphic_7</title>
            <g id="Graphic_76">
              <path d="M 335.64872 94.08726 L 338.3829 106.43748 L 344.61174 117.0417 L 365.70165 121.24326 L 385.4987 122.17513 L 397.85507 115.62033 L 406.38923 107.91012 L 410.5464 91.88196 L 408.79426 81.52002 L 400.348 78.10451 Z" fill="#666"/>
            </g>
            <g id="Graphic_75">
              <path d="M 335.64872 94.08726 L 338.3829 106.43748 L 344.61174 117.0417 L 365.70165 121.24326 L 385.4987 122.17513 L 397.85507 115.62033 L 406.38923 107.91012 L 410.5464 91.88196 L 408.79426 81.52002 L 400.348 78.10451 Z" stroke="black" stroke-linecap="round" stroke-linejoin="round" stroke-width="3"/>
            </g>
          </g>
          <g id="Group_71">
            <title>Graphic_6</title>
            <g id="Graphic_73">
              <path d="M 407.17253 92.13387 L 404.47464 100.91459 L 384.94395 115.01259 L 378.40203 114.19124 L 353.43983 111.7327 L 341.97317 108.26649 L 335.4243 94.60949 L 337.17405 83.34543 L 344.67198 69.42549 L 357.68255 62.95281 L 362.6736 60.87739 L 385.01903 63.00738 L 399.9625 65.5591 L 406.0264 73.75108 L 408.81936 81.5324 Z" fill="#cbcbcb"/>
            </g>
            <g id="Graphic_72">
              <path d="M 407.17253 92.13387 L 404.47464 100.91459 L 384.94395 115.01259 L 378.40203 114.19124 L 353.43983 111.7327 L 341.97317 108.26649 L 335.4243 94.60949 L 337.17405 83.34543 L 344.67198 69.42549 L 357.68255 62.95281 L 362.6736 60.87739 L 385.01903 63.00738 L 399.9625 65.5591 L 406.0264 73.75108 L 408.81936 81.5324 Z" stroke="black" stroke-linecap="round" stroke-linejoin="round" stroke-width="3"/>
            </g>
          </g>
          <g id="Group_69">
            <title>Line_5</title>
            <g id="Line_70">
              <line x1="344.009" y1="116.62828" x2="342.15367" y2="107.89869" stroke="black" stroke-linecap="round" stroke-linejoin="round" stroke-width="3"/>
            </g>
          </g>
          <g id="Group_67">
            <title>Line_4</title>
            <g id="Line_68">
              <line x1="385.87726" y1="121.8849" x2="385.0535" y2="115.70185" stroke="black" stroke-linecap="round" stroke-linejoin="round" stroke-width="3"/>
            </g>
          </g>
          <g id="Group_65">
            <title>Line_3</title>
            <g id="Line_66">
              <line x1="406.4279" y1="107.05138" x2="404.91775" y2="100.94094" stroke="black" stroke-linecap="round" stroke-linejoin="round" stroke-width="3"/>
            </g>
          </g>
          <g id="Group_63">
            <title>Line_2</title>
            <g id="Graphic_64">
              <path d="M 346.2992 108.24769 L 347.3626 105.02013 L 381.6386 111.3842 L 382.42335 107.3599 L 348.78803 101.60249 L 349.8309 98.00108 L 383.6648 103.55615 L 384.93346 100.50778 L 351.94137 94.52608 L 353.309 91.49012 L 386.78353 97.16786 L 387.4136 93.74188 L 354.49027 87.50188 L 355.48222 84.2281 L 388.20224 90.25497 L 390.09703 86.66594 L 356.78255 80.927465 L 357.72836 77.01033 L 391.22265 82.58988 L 393.0359 79.85545 L 359.8197 74.32759 L 361.526 70.64321 L 394.83515 76.14461 L 395.92643 72.4059 L 362.68677 67.1649 L 363.95938 63.79062 L 397.1995 68.0494 L 397.20755 67.6082 L 397.4497 66.37767" stroke="#ff2600" stroke-linecap="square" stroke-linejoin="round" stroke-width="3"/>
            </g>
          </g>
        </g>
      </g>
      <g id="Graphic_145">
        <path d="M 328.1176 290.407 C 323.54064 285.8205 323.54064 278.38435 328.1176 273.79786 C 332.6945 269.21135 340.11517 269.21135 344.6921 273.79786 C 349.26904 278.38435 349.26904 285.8205 344.6921 290.407 C 340.11517 294.9935 332.6945 294.9935 328.1176 290.407 M 160.60547 277.1493 L 160.60547 292.38523 L 160.60547 647.49995 L 184.0454 647.49995 L 184.0454 292.38523 L 308.3282 292.38523 C 309.77507 296.3604 312.0898 300.0899 315.27235 303.27908 C 326.9435 314.97468 345.86617 314.97468 357.53733 303.27908 C 369.20855 291.58353 369.20855 272.62133 357.53733 260.92578 C 345.86617 249.23018 326.9435 249.23018 315.27235 260.92578 C 312.86983 263.3333 310.96188 266.04873 309.54848 268.94532 L 160.60547 268.94532 Z" fill="#666"/>
        <path d="M 328.1176 290.407 C 323.54064 285.8205 323.54064 278.38435 328.1176 273.79786 C 332.6945 269.21135 340.11517 269.21135 344.6921 273.79786 C 349.26904 278.38435 349.26904 285.8205 344.6921 290.407 C 340.11517 294.9935 332.6945 294.9935 328.1176 290.407 M 160.60547 277.1493 L 160.60547 292.38523 L 160.60547 647.49995 L 184.0454 647.49995 L 184.0454 292.38523 L 308.3282 292.38523 C 309.77507 296.3604 312.0898 300.0899 315.27235 303.27908 C 326.9435 314.97468 345.86617 314.97468 357.53733 303.27908 C 369.20855 291.58353 369.20855 272.62133 357.53733 260.92578 C 345.86617 249.23018 326.9435 249.23018 315.27235 260.92578 C 312.86983 263.3333 310.96188 266.04873 309.54848 268.94532 L 160.60547 268.94532 Z" stroke="black" stroke-linecap="round" stroke-linejoin="round" stroke-width="3"/>
      </g>
      <g id="Graphic_151">
        <path d="M 560.59865 294.61593 C 556.0217 290.02944 556.0217 282.59328 560.59865 278.0068 C 565.1756 273.42028 572.59623 273.42028 577.17316 278.0068 C 581.7501 282.59328 581.7501 290.02944 577.17316 294.61593 C 572.59623 299.20244 565.1756 299.20244 560.59865 294.61593 M 596.3969 274.5914 C 594.94054 271.15535 592.8144 267.9365 590.0184 265.1347 C 578.34724 253.4391 559.4246 253.4391 547.7534 265.1347 C 536.0822 276.83026 536.0822 295.79246 547.7534 307.488 C 559.4246 319.1836 578.34724 319.1836 590.0184 307.488 C 592.8144 304.6862 594.94054 301.46737 596.3969 298.03132 L 718.6752 298.03132 L 718.6752 647.49995 L 742.1151 647.49995 L 742.1151 298.03132 L 742.1151 282.79537 L 742.1151 274.5914 Z" fill="#666"/>
        <path d="M 560.59865 294.61593 C 556.0217 290.02944 556.0217 282.59328 560.59865 278.0068 C 565.1756 273.42028 572.59623 273.42028 577.17316 278.0068 C 581.7501 282.59328 581.7501 290.02944 577.17316 294.61593 C 572.59623 299.20244 565.1756 299.20244 560.59865 294.61593 M 596.3969 274.5914 C 594.94054 271.15535 592.8144 267.9365 590.0184 265.1347 C 578.34724 253.4391 559.4246 253.4391 547.7534 265.1347 C 536.0822 276.83026 536.0822 295.79246 547.7534 307.488 C 559.4246 319.1836 578.34724 319.1836 590.0184 307.488 C 592.8144 304.6862 594.94054 301.46737 596.3969 298.03132 L 718.6752 298.03132 L 718.6752 647.49995 L 742.1151 647.49995 L 742.1151 298.03132 L 742.1151 282.79537 L 742.1151 274.5914 Z" stroke="black" stroke-linecap="round" stroke-linejoin="round" stroke-width="3"/>
      </g>
      <g id="Graphic_146">
        <path d="M 429.13615 294.61593 C 424.5592 290.02944 424.5592 282.59328 429.13615 278.0068 C 433.71307 273.42028 441.13373 273.42028 445.71065 278.0068 C 450.2876 282.59328 450.2876 290.02944 445.71065 294.61593 C 441.13373 299.20244 433.71307 299.20244 429.13615 294.61593 M 424.45234 313.30097 L 424.45234 647.49995 L 447.89226 647.49995 L 447.89226 314.36996 C 451.7814 312.91553 455.4289 310.62154 458.5559 307.488 C 470.2271 295.79246 470.2271 276.83026 458.5559 265.1347 C 446.88474 253.4391 427.96207 253.4391 416.2909 265.1347 C 404.6197 276.83026 404.6197 295.79246 416.2909 307.488 C 418.7373 309.93953 421.5023 311.87718 424.45234 313.30097 Z" fill="#666"/>
        <path d="M 429.13615 294.61593 C 424.5592 290.02944 424.5592 282.59328 429.13615 278.0068 C 433.71307 273.42028 441.13373 273.42028 445.71065 278.0068 C 450.2876 282.59328 450.2876 290.02944 445.71065 294.61593 C 441.13373 299.20244 433.71307 299.20244 429.13615 294.61593 M 424.45234 313.30097 L 424.45234 647.49995 L 447.89226 647.49995 L 447.89226 314.36996 C 451.7814 312.91553 455.4289 310.62154 458.5559 307.488 C 470.2271 295.79246 470.2271 276.83026 458.5559 265.1347 C 446.88474 253.4391 427.96207 253.4391 416.2909 265.1347 C 404.6197 276.83026 404.6197 295.79246 416.2909 307.488 C 418.7373 309.93953 421.5023 311.87718 424.45234 313.30097 Z" stroke="black" stroke-linecap="round" stroke-linejoin="round" stroke-width="3"/>
      </g>
      <g id="Graphic_136">
        <path d="M 141.0522 642.5981 L 168.0081 642.5981 L 172.69609 603.9222 L 185.58804 603.9222 L 183.24405 643.7701 L 223.0919 646.11406 L 221.9199 657.834 L 182.07205 653.146 L 179.72806 697.6819 L 165.66411 697.6819 L 170.3521 654.318 L 139.8802 654.318 Z" fill="red"/>
        <path d="M 141.0522 642.5981 L 168.0081 642.5981 L 172.69609 603.9222 L 185.58804 603.9222 L 183.24405 643.7701 L 223.0919 646.11406 L 221.9199 657.834 L 182.07205 653.146 L 179.72806 697.6819 L 165.66411 697.6819 L 170.3521 654.318 L 139.8802 654.318 Z" stroke="black" stroke-linecap="round" stroke-linejoin="round" stroke-width="5"/>
      </g>
      <g id="Graphic_137">
        <path d="M 666.4429 645.48746 L 746.81925 623.9507 L 751.7561 642.3751 L 671.3797 663.9119 Z" fill="#333"/>
        <path d="M 666.4429 645.48746 L 746.81925 623.9507 L 751.7561 642.3751 L 671.3797 663.9119 Z" stroke="black" stroke-linecap="round" stroke-linejoin="round" stroke-width="5"/>
      </g>
      <g id="Graphic_135">
        <path d="M 444.305 599.432 C 444.305 599.432 441.16764 543.02714 442.2134 541.92117 C 443.2592 540.8152 566.6616 501 566.6616 501 C 566.6616 501 604.3098 586.16026 604.3098 587.26624 C 604.3098 588.3722 585.4857 649.201 584.4399 649.201 C 583.3941 649.201 540.517 660.26075 540.517 660.26075 L 541.28965 691.3106 C 541.4368 697.2242 536.76215 702.1374 530.8485 702.2846 C 530.7597 702.2868 530.6709 702.2879 530.5821 702.2879 L 530.5821 702.2879 C 524.4214 702.2879 519.3337 697.4753 518.99154 691.3241 L 517.5896 666.1189 C 516.88636 653.4762 522.5464 641.3181 532.67365 633.7173 L 543.44674 625.6318 C 547.0646 622.9165 550.4456 619.8993 553.5535 616.6125 L 562.47846 607.1738 C 571.0174 598.1434 574.7061 585.565 572.3967 573.3532 L 569.79894 559.6168 C 566.4275 541.7891 549.24215 530.07005 531.41447 533.4415 C 531.1188 533.49744 530.8239 533.5574 530.52985 533.62144 L 504.8981 539.2023 C 496.6258 541.00346 488.69185 544.1063 481.3924 548.395 L 474.9783 552.16346 C 468.7728 555.8094 466.17774 563.4532 468.8809 570.1236 L 468.8809 570.1236 C 471.72554 577.14315 478.54295 581.73635 486.117 581.73635 L 494.4685 581.73635 C 499.15506 581.73635 502.95425 585.53554 502.95425 590.2221 C 502.95425 591.7078 502.5642 593.16744 501.82305 594.4551 L 501.82305 594.4551 C 497.411 602.12065 488.7403 606.2851 479.99904 604.937 Z" fill="yellow"/>
        <path d="M 444.305 599.432 C 444.305 599.432 441.16764 543.02714 442.2134 541.92117 C 443.2592 540.8152 566.6616 501 566.6616 501 C 566.6616 501 604.3098 586.16026 604.3098 587.26624 C 604.3098 588.3722 585.4857 649.201 584.4399 649.201 C 583.3941 649.201 540.517 660.26075 540.517 660.26075 L 541.28965 691.3106 C 541.4368 697.2242 536.76215 702.1374 530.8485 702.2846 C 530.7597 702.2868 530.6709 702.2879 530.5821 702.2879 L 530.5821 702.2879 C 524.4214 702.2879 519.3337 697.4753 518.99154 691.3241 L 517.5896 666.1189 C 516.88636 653.4762 522.5464 641.3181 532.67365 633.7173 L 543.44674 625.6318 C 547.0646 622.9165 550.4456 619.8993 553.5535 616.6125 L 562.47846 607.1738 C 571.0174 598.1434 574.7061 585.565 572.3967 573.3532 L 569.79894 559.6168 C 566.4275 541.7891 549.24215 530.07005 531.41447 533.4415 C 531.1188 533.49744 530.8239 533.5574 530.52985 533.62144 L 504.8981 539.2023 C 496.6258 541.00346 488.69185 544.1063 481.3924 548.395 L 474.9783 552.16346 C 468.7728 555.8094 466.17774 563.4532 468.8809 570.1236 L 468.8809 570.1236 C 471.72554 577.14315 478.54295 581.73635 486.117 581.73635 L 494.4685 581.73635 C 499.15506 581.73635 502.95425 585.53554 502.95425 590.2221 C 502.95425 591.7078 502.5642 593.16744 501.82305 594.4551 L 501.82305 594.4551 C 497.411 602.12065 488.7403 606.2851 479.99904 604.937 Z" stroke="black" stroke-linecap="round" stroke-linejoin="round" stroke-width="6"/>
      </g>
      <g id="Graphic_134">
        <path d="M 518.8241 760.2463 L 518.6144 759.2115 C 517.1659 752.06265 519.91254 744.7126 525.6943 740.2657 L 525.6943 740.2657 C 531.27396 735.9742 539.0335 735.9405 544.6502 740.1833 L 552.3482 745.9984 C 556.7964 749.3586 560.0872 754.0212 561.763 759.3381 L 561.763 759.3381 C 562.9514 763.1085 560.8583 767.1284 557.08785 768.3168 C 556.68 768.4453 556.26146 768.5371 555.83724 768.5909 L 534.2705 771.3279 C 527.01424 772.2488 520.27665 767.4151 518.8241 760.2463 Z" fill="yellow"/>
        <path d="M 518.8241 760.2463 L 518.6144 759.2115 C 517.1659 752.06265 519.91254 744.7126 525.6943 740.2657 L 525.6943 740.2657 C 531.27396 735.9742 539.0335 735.9405 544.6502 740.1833 L 552.3482 745.9984 C 556.7964 749.3586 560.0872 754.0212 561.763 759.3381 L 561.763 759.3381 C 562.9514 763.1085 560.8583 767.1284 557.08785 768.3168 C 556.68 768.4453 556.26146 768.5371 555.83724 768.5909 L 534.2705 771.3279 C 527.01424 772.2488 520.27665 767.4151 518.8241 760.2463 Z" stroke="black" stroke-linecap="round" stroke-linejoin="round" stroke-width="6"/>
      </g>
      <g id="Graphic_133">
        <path d="M 388.28713 641 L 469.80076 641 C 476.31534 641 481.59645 646.2811 481.59645 652.7957 L 481.59645 652.7957 C 481.59645 658.61694 476.8774 663.336 471.05614 663.336 C 470.6615 663.336 470.2672 663.3138 469.87505 663.2696 L 441.98896 660.125 C 440.5008 659.9572 439.00436 659.8731 437.50675 659.8731 L 397.58524 659.8731 C 391.1445 659.8731 385.263 656.2142 382.41657 650.43655 L 382.41657 650.43655 C 380.81924 647.1943 382.1527 643.2711 385.3949 641.6738 C 386.2946 641.2305 387.28416 641 388.28713 641 Z" fill="yellow"/>
        <path d="M 388.28713 641 L 469.80076 641 C 476.31534 641 481.59645 646.2811 481.59645 652.7957 L 481.59645 652.7957 C 481.59645 658.61694 476.8774 663.336 471.05614 663.336 C 470.6615 663.336 470.2672 663.3138 469.87505 663.2696 L 441.98896 660.125 C 440.5008 659.9572 439.00436 659.8731 437.50675 659.8731 L 397.58524 659.8731 C 391.1445 659.8731 385.263 656.2142 382.41657 650.43655 L 382.41657 650.43655 C 380.81924 647.1943 382.1527 643.2711 385.3949 641.6738 C 386.2946 641.2305 387.28416 641 388.28713 641 Z" stroke="black" stroke-linecap="round" stroke-linejoin="round" stroke-width="6"/>
      </g>
      <g id="Graphic_132">
        <path d="M 391.3808 688.7622 L 472.89444 688.7622 C 479.409 688.7622 484.69014 694.0433 484.69014 700.5579 L 484.69014 700.5579 C 484.69014 706.3791 479.9711 711.0982 474.1498 711.0982 C 473.7552 711.0982 473.3609 711.076 472.96873 711.0318 L 445.08265 707.8872 C 443.59447 707.7194 442.09805 707.6353 440.60044 707.6353 L 400.67893 707.6353 C 394.23817 707.6353 388.3567 703.9764 385.51025 698.19875 L 385.51025 698.19875 C 383.91293 694.9565 385.24638 691.0333 388.4886 689.436 C 389.3883 688.9927 390.37785 688.7622 391.3808 688.7622 Z" fill="yellow"/>
        <path d="M 391.3808 688.7622 L 472.89444 688.7622 C 479.409 688.7622 484.69014 694.0433 484.69014 700.5579 L 484.69014 700.5579 C 484.69014 706.3791 479.9711 711.0982 474.1498 711.0982 C 473.7552 711.0982 473.3609 711.076 472.96873 711.0318 L 445.08265 707.8872 C 443.59447 707.7194 442.09805 707.6353 440.60044 707.6353 L 400.67893 707.6353 C 394.23817 707.6353 388.3567 703.9764 385.51025 698.19875 L 385.51025 698.19875 C 383.91293 694.9565 385.24638 691.0333 388.4886 689.436 C 389.3883 688.9927 390.37785 688.7622 391.3808 688.7622 Z" stroke="black" stroke-linecap="round" stroke-linejoin="round" stroke-width="6"/>
      </g>
    </g>
  </g>
</svg>
