<?xml version="1.0" encoding="UTF-8" standalone="no"?>
<!DOCTYPE svg PUBLIC "-//W3C//DTD SVG 1.1//EN" "http://www.w3.org/Graphics/SVG/1.1/DTD/svg11.dtd">
<svg xmlns="http://www.w3.org/2000/svg" version="1.1" xmlns:dc="http://purl.org/dc/elements/1.1/" xmlns:xl="http://www.w3.org/1999/xlink" viewBox="0 0 850.394 850.394" width="850.394" height="850.394">
  <defs/>
  <metadata> Produced by OmniGraffle 7.9.4 
    <dc:date>2019-06-28 14:00:22 +0000</dc:date>
  </metadata>
  <g id="wave" stroke-dasharray="none" stroke="none" stroke-opacity="1" fill="none" fill-opacity="1">
    <title>wave</title>
    <g id="wave: wave">
      <title>wave</title>
      <g id="Graphic_5">
        <path d="M 9.745254 451.1152 L 77 428.394 C 77 428.394 147 329.394 147 327.394 C 147 325.394 201 258.394 202 258.394 C 203 258.394 316 146.394 316 146.394 C 316 146.394 424 131.394 425 130.394 C 426 129.394 510 153.394 511 153.394 C 512 153.394 530 164 530 164 L 533.5 158.697 C 534.7052 156.87097 537.1625 156.36767 538.9885 157.57286 C 539.493 157.90584 539.91464 158.34985 540.2211 158.8709 L 555 184 C 555 184 567 196.394 567 197.394 C 567 198.394 553 203 553 203 C 553 203 612 255.394 613 255.394 C 614 255.394 709 286.394 709 286.394 L 696 299 C 696 299 783 346.394 783 347.394 C 783 348.394 658 305.394 657 305.394 C 656 305.394 613 306.394 612 306.394 C 611 306.394 548 294.394 548 294.394 L 535.40776 246.72336 C 534.5314 243.40577 532.01526 240.76917 528.74224 239.73878 L 500.2623 230.77287 C 495.51676 229.2789 490.45867 231.91482 488.9647 236.66033 C 488.263 238.88935 488.4549 241.30384 489.5 243.394 L 498.08206 260.55812 C 498.6877 261.7694 499.5331 262.84507 500.5669 263.71985 L 564 317.394 C 564 317.394 663 328.394 663 329.394 C 663 330.394 731 358 731 358 L 752.5 370.197 C 754.6048 371.3911 755.3432 374.0654 754.1491 376.17023 C 753.2416 377.7699 751.4317 378.6326 749.6176 378.33026 L 684.97334 367.55622 C 684.326 367.44834 683.66965 367.40443 683.0137 367.42515 L 592.3305 370.28883 C 590.1686 370.3571 588.0428 369.72255 586.2721 368.4804 L 525.1337 325.59226 C 523.11595 324.17683 520.64656 323.5564 518.1994 323.85007 L 472 329.394 C 472 329.394 465 385.394 465 386.394 C 465 387.394 516 467.394 516 468.394 C 516 469.394 584 560.394 595 563.394 C 606 566.394 764 621.394 764 621.394 L 836.1589 588.682 C 838.009 587.84325 839.5598 586.461 840.6049 584.7191 L 842 582.394 C 842.5719 581.4408 843.8083 581.1317 844.7616 581.7036 C 845.2919 582.0218 845.6465 582.5662 845.7232 583.1799 L 846.9252 592.7959 C 846.975 593.1943 847.0008 593.5953 847.0024 593.99674 L 847.9605 836.4017 C 847.9823 841.9215 843.5276 846.4151 838.0078 846.4411 L 10.123382 850.3462 C 4.6005955 850.3723 .10237439 845.9163 .076323515 840.3935 C .07613054 840.3526 .07618862 840.3117 .07649777 840.2708 L 2.9461996 460.5136 C 2.9784024 456.2521 5.7078074 452.4792 9.745254 451.1152 Z" fill="#c0c0ff"/>
        <path d="M 9.745254 451.1152 L 77 428.394 C 77 428.394 147 329.394 147 327.394 C 147 325.394 201 258.394 202 258.394 C 203 258.394 316 146.394 316 146.394 C 316 146.394 424 131.394 425 130.394 C 426 129.394 510 153.394 511 153.394 C 512 153.394 530 164 530 164 L 533.5 158.697 C 534.7052 156.87097 537.1625 156.36767 538.9885 157.57286 C 539.493 157.90584 539.91464 158.34985 540.2211 158.8709 L 555 184 C 555 184 567 196.394 567 197.394 C 567 198.394 553 203 553 203 C 553 203 612 255.394 613 255.394 C 614 255.394 709 286.394 709 286.394 L 696 299 C 696 299 783 346.394 783 347.394 C 783 348.394 658 305.394 657 305.394 C 656 305.394 613 306.394 612 306.394 C 611 306.394 548 294.394 548 294.394 L 535.40776 246.72336 C 534.5314 243.40577 532.01526 240.76917 528.74224 239.73878 L 500.2623 230.77287 C 495.51676 229.2789 490.45867 231.91482 488.9647 236.66033 C 488.263 238.88935 488.4549 241.30384 489.5 243.394 L 498.08206 260.55812 C 498.6877 261.7694 499.5331 262.84507 500.5669 263.71985 L 564 317.394 C 564 317.394 663 328.394 663 329.394 C 663 330.394 731 358 731 358 L 752.5 370.197 C 754.6048 371.3911 755.3432 374.0654 754.1491 376.17023 C 753.2416 377.7699 751.4317 378.6326 749.6176 378.33026 L 684.97334 367.55622 C 684.326 367.44834 683.66965 367.40443 683.0137 367.42515 L 592.3305 370.28883 C 590.1686 370.3571 588.0428 369.72255 586.2721 368.4804 L 525.1337 325.59226 C 523.11595 324.17683 520.64656 323.5564 518.1994 323.85007 L 472 329.394 C 472 329.394 465 385.394 465 386.394 C 465 387.394 516 467.394 516 468.394 C 516 469.394 584 560.394 595 563.394 C 606 566.394 764 621.394 764 621.394 L 836.1589 588.682 C 838.009 587.84325 839.5598 586.461 840.6049 584.7191 L 842 582.394 C 842.5719 581.4408 843.8083 581.1317 844.7616 581.7036 C 845.2919 582.0218 845.6465 582.5662 845.7232 583.1799 L 846.9252 592.7959 C 846.975 593.1943 847.0008 593.5953 847.0024 593.99674 L 847.9605 836.4017 C 847.9823 841.9215 843.5276 846.4151 838.0078 846.4411 L 10.123382 850.3462 C 4.6005955 850.3723 .10237439 845.9163 .076323515 840.3935 C .07613054 840.3526 .07618862 840.3117 .07649777 840.2708 L 2.9461996 460.5136 C 2.9784024 456.2521 5.7078074 452.4792 9.745254 451.1152 Z" stroke="black" stroke-linecap="round" stroke-linejoin="round" stroke-width="3"/>
      </g>
      <g id="Graphic_6">
        <path d="M 9.68263 459.40245 L 75.39265 437.2031 C 75.39265 437.2031 143.93142 340.2697 143.93142 338.31146 C 143.93142 336.3532 196.8042 270.7518 197.78331 270.7518 C 198.76244 270.7518 309.4036 161.08977 309.4036 161.08977 C 309.4036 161.08977 415.14914 146.4029 416.12826 145.42377 C 417.1074 144.44464 499.3539 167.94365 500.33304 167.94365 C 501.31216 167.94365 525.7903 167.94365 525.7903 167.94365 C 525.7903 167.94365 555.16406 210.04604 555.16406 211.02517 C 555.16406 212.0043 599.2247 267.81443 600.2038 267.81443 C 601.18295 267.81443 694.19985 298.16732 694.19985 298.16732 C 694.19985 298.16732 783 344.41487 783 345.394 C 783 346.37313 644.26446 316.7707 643.2853 316.7707 C 642.3062 316.7707 600.2038 317.74983 599.2247 317.74983 C 598.2456 317.74983 567 304 567 304 L 565.5 308 C 564.79974 309.86735 562.7183 310.81347 560.8509 310.1132 C 560.6623 310.04246 560.47987 309.95605 560.3056 309.85488 L 536.63415 296.11015 C 534.3098 294.76055 532.62664 292.5321 531.9641 289.92732 L 522.8658 254.1574 C 522.8572 254.1236 522.84844 254.08982 522.8395 254.0561 L 516.3974 229.79483 C 515.9684 228.17926 514.311 227.21734 512.6954 227.64632 C 511.5725 227.94448 510.7194 228.8591 510.5 230 L 510.5 230 C 509.6226 234.56257 505.2126 237.54997 500.65004 236.67255 C 499.4374 236.43935 498.29096 235.94205 497.2921 235.21595 L 434.21426 189.36173 C 429.74704 186.1143 423.4931 187.10314 420.24565 191.57036 C 418.7096 193.68337 418.0614 196.31356 418.43966 198.89834 L 426.29254 252.55967 C 426.73896 255.61024 428.56756 258.28434 431.2484 259.807 L 552.2267 328.5202 C 552.2267 328.5202 649.1601 339.2906 649.1601 340.2697 C 649.1601 341.24883 731 369 731 369 L 752 375.197 C 752.8286 375.4415 753.3021 376.31144 753.0576 377.14003 C 752.8374 377.88622 752.1022 378.35718 751.3323 378.2453 L 729.9233 375.13417 C 729.3091 375.0449 728.6879 375.01304 728.0678 375.03894 L 669.7726 377.47434 C 669.7387 377.47576 669.70475 377.477 669.6708 377.4781 L 580.03534 380.30867 C 577.8734 380.37694 575.74765 379.7424 573.9769 378.50023 L 513.069 335.7738 C 511.777 334.86745 510.28876 334.27978 508.72607 334.05885 L 418.92495 321.3627 C 413.4565 320.5896 408.39667 324.3959 407.62353 329.86436 C 407.46705 330.9712 407.49725 332.09644 407.7129 333.1933 L 410.8624 349.2134 C 411.5643 352.7838 414.15026 355.69115 417.61446 356.80465 L 440 364 C 440 364 455.2933 395.10073 455.2933 396.07985 C 455.2933 397.059 505.22867 475.389 505.22867 476.3681 C 505.22867 477.34725 574.2296 600.4566 585 603.394 C 595.7704 606.3314 748.05174 626.1743 748.05174 626.1743 L 818.645 594.172 C 820.4951 593.3333 822.046 591.951 823.0911 590.20915 L 824.4235 587.9884 C 825.6663 585.91716 828.3528 585.2455 830.424 586.4883 C 830.7538 586.68614 831.056 586.9266 831.3229 587.2035 L 842.2001 598.489 C 843.9964 600.3527 845 602.84025 845 605.42864 L 845 835.453 C 845 840.9528 840.5588 845.4203 835.0592 845.4528 L 10.135475 850.334 C 4.612724 850.3667 .1091582 845.9161 .0764792 840.3934 C .07621345 840.3485 .07625027 840.3035 .07658964 840.2586 L 2.8835756 468.80083 C 2.9157784 464.5393 5.6451834 460.76645 9.68263 459.40245 Z" fill="blue"/>
        <path d="M 9.68263 459.40245 L 75.39265 437.2031 C 75.39265 437.2031 143.93142 340.2697 143.93142 338.31146 C 143.93142 336.3532 196.8042 270.7518 197.78331 270.7518 C 198.76244 270.7518 309.4036 161.08977 309.4036 161.08977 C 309.4036 161.08977 415.14914 146.4029 416.12826 145.42377 C 417.1074 144.44464 499.3539 167.94365 500.33304 167.94365 C 501.31216 167.94365 525.7903 167.94365 525.7903 167.94365 C 525.7903 167.94365 555.16406 210.04604 555.16406 211.02517 C 555.16406 212.0043 599.2247 267.81443 600.2038 267.81443 C 601.18295 267.81443 694.19985 298.16732 694.19985 298.16732 C 694.19985 298.16732 783 344.41487 783 345.394 C 783 346.37313 644.26446 316.7707 643.2853 316.7707 C 642.3062 316.7707 600.2038 317.74983 599.2247 317.74983 C 598.2456 317.74983 567 304 567 304 L 565.5 308 C 564.79974 309.86735 562.7183 310.81347 560.8509 310.1132 C 560.6623 310.04246 560.47987 309.95605 560.3056 309.85488 L 536.63415 296.11015 C 534.3098 294.76055 532.62664 292.5321 531.9641 289.92732 L 522.8658 254.1574 C 522.8572 254.1236 522.84844 254.08982 522.8395 254.0561 L 516.3974 229.79483 C 515.9684 228.17926 514.311 227.21734 512.6954 227.64632 C 511.5725 227.94448 510.7194 228.8591 510.5 230 L 510.5 230 C 509.6226 234.56257 505.2126 237.54997 500.65004 236.67255 C 499.4374 236.43935 498.29096 235.94205 497.2921 235.21595 L 434.21426 189.36173 C 429.74704 186.1143 423.4931 187.10314 420.24565 191.57036 C 418.7096 193.68337 418.0614 196.31356 418.43966 198.89834 L 426.29254 252.55967 C 426.73896 255.61024 428.56756 258.28434 431.2484 259.807 L 552.2267 328.5202 C 552.2267 328.5202 649.1601 339.2906 649.1601 340.2697 C 649.1601 341.24883 731 369 731 369 L 752 375.197 C 752.8286 375.4415 753.3021 376.31144 753.0576 377.14003 C 752.8374 377.88622 752.1022 378.35718 751.3323 378.2453 L 729.9233 375.13417 C 729.3091 375.0449 728.6879 375.01304 728.0678 375.03894 L 669.7726 377.47434 C 669.7387 377.47576 669.70475 377.477 669.6708 377.4781 L 580.03534 380.30867 C 577.8734 380.37694 575.74765 379.7424 573.9769 378.50023 L 513.069 335.7738 C 511.777 334.86745 510.28876 334.27978 508.72607 334.05885 L 418.92495 321.3627 C 413.4565 320.5896 408.39667 324.3959 407.62353 329.86436 C 407.46705 330.9712 407.49725 332.09644 407.7129 333.1933 L 410.8624 349.2134 C 411.5643 352.7838 414.15026 355.69115 417.61446 356.80465 L 440 364 C 440 364 455.2933 395.10073 455.2933 396.07985 C 455.2933 397.059 505.22867 475.389 505.22867 476.3681 C 505.22867 477.34725 574.2296 600.4566 585 603.394 C 595.7704 606.3314 748.05174 626.1743 748.05174 626.1743 L 818.645 594.172 C 820.4951 593.3333 822.046 591.951 823.0911 590.20915 L 824.4235 587.9884 C 825.6663 585.91716 828.3528 585.2455 830.424 586.4883 C 830.7538 586.68614 831.056 586.9266 831.3229 587.2035 L 842.2001 598.489 C 843.9964 600.3527 845 602.84025 845 605.42864 L 845 835.453 C 845 840.9528 840.5588 845.4203 835.0592 845.4528 L 10.135475 850.334 C 4.612724 850.3667 .1091582 845.9161 .0764792 840.3934 C .07621345 840.3485 .07625027 840.3035 .07658964 840.2586 L 2.8835756 468.80083 C 2.9157784 464.5393 5.6451834 460.76645 9.68263 459.40245 Z" stroke="black" stroke-linecap="round" stroke-linejoin="round" stroke-width="3"/>
      </g>
      <g id="Graphic_7">
        <path d="M 39.52037 441.05604 L 77 428.394 C 77 428.394 147 329.394 147 327.394 C 147 325.394 201 258.394 202 258.394 C 203 258.394 316 146.394 316 146.394 C 316 146.394 424 131.394 425 130.394 C 426 129.394 510 153.394 511 153.394 C 512 153.394 522 155 522 155 L 523.5 154 C 524.4781 153.34795 525.6273 153 526.8028 153 L 530 153 C 533.0919 153 535.9467 154.65672 537.4807 157.34122 L 545 170.5 C 546.32026 172.81046 547.16993 175.35948 547.5 178 L 548 182 C 548 182 567 196.394 567 197.394 C 567 198.394 622 214 622 214 L 579.35746 211.46175 C 576.5218 211.29296 574.0862 213.4549 573.9174 216.29056 C 573.7774 218.64265 575.25355 220.7891 577.5 221.5 L 601.2617 229.01952 C 602.7393 229.48712 603.5581 231.06406 603.0905 232.5417 C 602.73074 233.67853 601.69185 234.46388 600.5 234.5 L 584 235 C 584 235 612 255.394 613 255.394 C 614 255.394 709 286.394 709 286.394 L 730 303.197 C 731.7368 304.58672 732.0182 307.1213 730.6285 308.85813 C 729.5227 310.24012 727.6443 310.73826 725.999 310.0858 L 693 297 C 693 297 783 346.394 783 347.394 C 783 348.394 632 272 632 272 C 632 272 658 305.394 657 305.394 C 656 305.394 603 264 603 264 L 621 284 C 621.871 284.96774 621.7925 286.4583 620.8248 287.32927 C 619.9746 288.09444 618.6978 288.1389 617.7964 287.4347 L 575 254 C 575 254 613 306.394 612 306.394 C 611 306.394 556 262 556 262 L 552 278.197 C 551.4355 280.48287 549.1248 281.8783 546.8389 281.3138 C 545.3258 280.9401 544.1372 279.77054 543.73915 278.26366 L 534.34696 242.70747 C 534.1157 241.83196 533.9065 240.95077 533.7195 240.06474 L 529 217.697 C 525.8494 202.76516 515.9059 190.16155 502.1172 183.62259 L 437.54677 153.00156 C 431.1859 149.98508 423.6264 151.17513 418.5 156 L 418.5 156 C 413.1233 161.06041 405.7498 163.4237 398.43323 162.43162 L 380.5 160 C 377.7435 159.62624 375.2059 161.55783 374.83214 164.31434 C 374.5442 166.43797 375.63155 168.51126 377.54226 169.48178 L 382.5 172 C 383.35713 172.43537 383.69904 173.48315 383.26367 174.34029 C 382.8583 175.13834 381.9138 175.49888 381.07976 175.17393 L 340.7378 159.45628 C 338.2596 158.49076 335.652 157.89789 333 157.697 L 333 157.697 C 331.10965 157.5538 329.46113 158.97016 329.31793 160.86051 C 329.3045 161.03769 329.30487 161.21564 329.319 161.39276 L 330.81782 180.181 C 331.0761 183.41853 328.66093 186.25243 325.4234 186.5107 C 323.80355 186.63993 322.2024 186.0931 321 185 L 321 185 C 319.72177 183.83797 317.74356 183.93218 316.58153 185.2104 C 315.7474 186.12795 315.53406 187.45163 316.0377 188.58479 L 322 202 C 327.29412 213.91178 321.92945 227.8599 310.01768 233.15403 C 308.41457 233.86653 306.737 234.39807 305.0161 234.7388 L 282.5 239.197 C 274.70836 240.73974 269.64264 248.30675 271.18538 256.0984 C 272.17223 261.08246 275.71563 265.176 280.5068 266.867 L 401 309.394 C 401 309.394 643 324 643 325 C 643 326 689 334 689 334 L 789 377 C 790.9178 377.82467 791.804 380.0479 790.9794 381.96576 C 790.1949 383.7901 788.1325 384.69636 786.2581 384.04033 L 660.6548 340.0792 C 658.2557 339.2395 655.6301 340.50366 654.7904 342.90278 C 654.1085 344.8512 654.8073 347.01537 656.5 348.197 L 656.5876 348.25813 C 658.6277 349.6823 659.1271 352.4907 657.7029 354.53085 C 656.5416 356.1944 654.4116 356.8765 652.5 356.197 L 652.5 356.197 C 650.919 355.635 649.1818 356.4611 648.6198 358.0421 C 648.12855 359.42406 648.6947 360.95968 649.9655 361.692 L 650.5 362 C 650.8943 362.2272 651.0297 362.731 650.8025 363.12527 C 650.583 363.5061 650.10325 363.6476 649.7122 363.44682 L 614.362 345.294 C 608.82894 342.4527 602.8466 340.5887 596.6789 339.7842 L 583.6062 338.07907 C 583.2021 338.02636 582.7986 337.96907 582.39574 337.90723 L 568 335.697 C 567.0076 335.54464 566.0796 336.2256 565.9273 337.21798 C 565.8 338.04687 566.25626 338.85527 567.03165 339.1747 L 595 350.697 C 596.6358 351.3709 597.4156 353.2433 596.74166 354.8791 C 596.1339 356.35433 594.5332 357.1574 592.9873 356.7627 L 544.3759 344.3513 C 543.4588 344.11714 542.5357 343.90714 541.6075 343.7215 L 467.2081 328.8416 C 464.55463 328.31093 461.9734 330.03176 461.4427 332.6852 C 461.01395 334.82893 462.0573 336.99732 464 338 L 464 338 C 465.58186 338.81645 466.20236 340.76066 465.3859 342.3425 C 464.6739 343.722 463.0798 344.398 461.5932 343.9508 L 377.33115 318.60368 C 373.78644 317.5374 370.1415 316.8384 366.4538 316.51772 L 328.01536 313.17525 C 321.60855 312.61813 315.96317 317.36025 315.40606 323.76706 C 315.16743 326.51124 315.90935 329.25116 317.5 331.5 L 317.5 331.5 C 319.60347 334.47387 318.89787 338.58986 315.924 340.69333 C 313.98124 342.06748 311.4489 342.28857 309.2974 341.27188 L 297.5 335.697 C 291.27488 332.7553 283.8437 335.41706 280.90202 341.6422 C 279.2031 345.2374 279.32117 349.4274 281.21984 352.92123 L 285.27353 360.38064 C 286.7388 363.07697 285.74084 366.4506 283.04452 367.9159 C 280.89878 369.08195 278.2432 368.7103 276.5 367 L 276.5 367 C 264.2464 354.9776 244.56678 355.165 232.54436 367.41863 C 231.26132 368.72634 230.0964 370.14492 229.06323 371.6578 L 203.4423 409.1747 C 195.4674 420.85236 183.22997 428.93585 169.35944 431.68826 L 80.63557 449.2942 C 75.97274 450.2195 72.94285 454.74954 73.86812 459.41237 C 74.12728 460.71836 74.68588 461.94643 75.5 463 L 84 474 C 84 474 34 502 34 503 C 34 504 78 505 78 505 L 203.16619 495.18304 C 206.46775 494.9241 209.3541 497.3906 209.61306 500.6922 C 209.8447 503.64566 207.88476 506.32564 205 507 L 130.52203 524.41043 C 128.84164 524.80325 127.18105 525.2764 125.54597 525.82823 L 78.583995 541.6779 C 59.74892 548.03474 45.92948 564.2259 42.61016 583.8257 L 31.291347 650.6606 C 30.350705 656.2149 34.090788 661.48005 39.645056 662.4207 C 42.416166 662.89 45.258124 662.1951 47.5 660.5 L 66.87194 645.8529 C 67.62308 645.285 68.33413 644.6659 69 644 L 69 644 C 69.06535 643.93465 69.17129 643.93465 69.23664 644 C 69.29135 644.0547 69.30142 644.1398 69.260986 644.20576 L 41.5 689.5 C 40.93071 690.42884 41.222184 691.6433 42.151026 692.2126 C 43.032727 692.753 44.182093 692.52074 44.784774 691.6804 L 69.22768 657.598 C 70.7242 655.5113 73.62896 655.0329 75.71565 656.5294 C 77.28501 657.6549 77.99523 659.63336 77.5 661.5 L 71 686 C 71 686 144 618 144 619 C 144 620 73 700 73 700 C 73 700 324 552.394 335 555.394 C 346 558.394 421 566 421 566 L 398.5 574 C 395.8293 574.9496 394.4341 577.8844 395.38366 580.5551 C 396.0599 582.457 397.78825 583.7859 399.8001 583.9508 L 466.20053 589.3935 C 472.05665 589.8735 476.41485 595.00994 475.93484 600.86606 C 475.66134 604.2028 473.83313 607.2162 471 609 L 471 609 C 465.17644 612.6667 463.42795 620.36004 467.09464 626.1836 C 468.9494 629.1294 471.95185 631.165 475.37497 631.79755 L 518.5723 639.7797 C 529.8937 641.87166 540.2501 647.5273 548.1301 655.9212 L 571.3471 680.6523 C 578.30734 688.0665 587.21974 693.3646 597.0584 695.93684 L 672.7626 715.7288 C 675.42315 716.42435 677.0161 719.14505 676.3205 721.8056 C 675.6998 724.18 673.4416 725.748 671 725.5 L 645.2207 722.8818 C 638.52726 722.202 632.5501 727.077 631.8703 733.7704 C 631.4701 737.7106 633.0104 741.5994 636 744.197 L 636 744.197 C 652.2347 758.3027 676.686 757.1707 691.548 741.6254 L 834.9706 591.6087 C 837.6485 588.8076 840.0062 585.717 842 582.394 L 842 582.394 C 842.5719 581.4408 843.8083 581.1317 844.7616 581.7036 C 845.2919 582.0218 845.6465 582.5662 845.7232 583.1799 L 846.5963 590.1643 C 846.8652 592.3155 847.0043 594.4809 847.0129 596.6488 L 847.7869 792.4746 C 847.9046 822.2664 823.8726 846.5252 794.08095 846.6872 L 2.4999778 850.9918 C 1.6760556 850.9963 1.0045026 850.332 1.000022 849.5081 C 1.0000074 849.5054 1 849.5027 1 849.5 L 1 848.1368 C 1 848.0456 1.0002312 847.9544 1.0006936 847.8632 L 2.804627 491.9417 C 2.9215125 468.8798 17.671381 448.43745 39.52037 441.05604 Z" fill="white"/>
        <path d="M 39.52037 441.05604 L 77 428.394 C 77 428.394 147 329.394 147 327.394 C 147 325.394 201 258.394 202 258.394 C 203 258.394 316 146.394 316 146.394 C 316 146.394 424 131.394 425 130.394 C 426 129.394 510 153.394 511 153.394 C 512 153.394 522 155 522 155 L 523.5 154 C 524.4781 153.34795 525.6273 153 526.8028 153 L 530 153 C 533.0919 153 535.9467 154.65672 537.4807 157.34122 L 545 170.5 C 546.32026 172.81046 547.16993 175.35948 547.5 178 L 548 182 C 548 182 567 196.394 567 197.394 C 567 198.394 622 214 622 214 L 579.35746 211.46175 C 576.5218 211.29296 574.0862 213.4549 573.9174 216.29056 C 573.7774 218.64265 575.25355 220.7891 577.5 221.5 L 601.2617 229.01952 C 602.7393 229.48712 603.5581 231.06406 603.0905 232.5417 C 602.73074 233.67853 601.69185 234.46388 600.5 234.5 L 584 235 C 584 235 612 255.394 613 255.394 C 614 255.394 709 286.394 709 286.394 L 730 303.197 C 731.7368 304.58672 732.0182 307.1213 730.6285 308.85813 C 729.5227 310.24012 727.6443 310.73826 725.999 310.0858 L 693 297 C 693 297 783 346.394 783 347.394 C 783 348.394 632 272 632 272 C 632 272 658 305.394 657 305.394 C 656 305.394 603 264 603 264 L 621 284 C 621.871 284.96774 621.7925 286.4583 620.8248 287.32927 C 619.9746 288.09444 618.6978 288.1389 617.7964 287.4347 L 575 254 C 575 254 613 306.394 612 306.394 C 611 306.394 556 262 556 262 L 552 278.197 C 551.4355 280.48287 549.1248 281.8783 546.8389 281.3138 C 545.3258 280.9401 544.1372 279.77054 543.73915 278.26366 L 534.34696 242.70747 C 534.1157 241.83196 533.9065 240.95077 533.7195 240.06474 L 529 217.697 C 525.8494 202.76516 515.9059 190.16155 502.1172 183.62259 L 437.54677 153.00156 C 431.1859 149.98508 423.6264 151.17513 418.5 156 L 418.5 156 C 413.1233 161.06041 405.7498 163.4237 398.43323 162.43162 L 380.5 160 C 377.7435 159.62624 375.2059 161.55783 374.83214 164.31434 C 374.5442 166.43797 375.63155 168.51126 377.54226 169.48178 L 382.5 172 C 383.35713 172.43537 383.69904 173.48315 383.26367 174.34029 C 382.8583 175.13834 381.9138 175.49888 381.07976 175.17393 L 340.7378 159.45628 C 338.2596 158.49076 335.652 157.89789 333 157.697 L 333 157.697 C 331.10965 157.5538 329.46113 158.97016 329.31793 160.86051 C 329.3045 161.03769 329.30487 161.21564 329.319 161.39276 L 330.81782 180.181 C 331.0761 183.41853 328.66093 186.25243 325.4234 186.5107 C 323.80355 186.63993 322.2024 186.0931 321 185 L 321 185 C 319.72177 183.83797 317.74356 183.93218 316.58153 185.2104 C 315.7474 186.12795 315.53406 187.45163 316.0377 188.58479 L 322 202 C 327.29412 213.91178 321.92945 227.8599 310.01768 233.15403 C 308.41457 233.86653 306.737 234.39807 305.0161 234.7388 L 282.5 239.197 C 274.70836 240.73974 269.64264 248.30675 271.18538 256.0984 C 272.17223 261.08246 275.71563 265.176 280.5068 266.867 L 401 309.394 C 401 309.394 643 324 643 325 C 643 326 689 334 689 334 L 789 377 C 790.9178 377.82467 791.804 380.0479 790.9794 381.96576 C 790.1949 383.7901 788.1325 384.69636 786.2581 384.04033 L 660.6548 340.0792 C 658.2557 339.2395 655.6301 340.50366 654.7904 342.90278 C 654.1085 344.8512 654.8073 347.01537 656.5 348.197 L 656.5876 348.25813 C 658.6277 349.6823 659.1271 352.4907 657.7029 354.53085 C 656.5416 356.1944 654.4116 356.8765 652.5 356.197 L 652.5 356.197 C 650.919 355.635 649.1818 356.4611 648.6198 358.0421 C 648.12855 359.42406 648.6947 360.95968 649.9655 361.692 L 650.5 362 C 650.8943 362.2272 651.0297 362.731 650.8025 363.12527 C 650.583 363.5061 650.10325 363.6476 649.7122 363.44682 L 614.362 345.294 C 608.82894 342.4527 602.8466 340.5887 596.6789 339.7842 L 583.6062 338.07907 C 583.2021 338.02636 582.7986 337.96907 582.39574 337.90723 L 568 335.697 C 567.0076 335.54464 566.0796 336.2256 565.9273 337.21798 C 565.8 338.04687 566.25626 338.85527 567.03165 339.1747 L 595 350.697 C 596.6358 351.3709 597.4156 353.2433 596.74166 354.8791 C 596.1339 356.35433 594.5332 357.1574 592.9873 356.7627 L 544.3759 344.3513 C 543.4588 344.11714 542.5357 343.90714 541.6075 343.7215 L 467.2081 328.8416 C 464.55463 328.31093 461.9734 330.03176 461.4427 332.6852 C 461.01395 334.82893 462.0573 336.99732 464 338 L 464 338 C 465.58186 338.81645 466.20236 340.76066 465.3859 342.3425 C 464.6739 343.722 463.0798 344.398 461.5932 343.9508 L 377.33115 318.60368 C 373.78644 317.5374 370.1415 316.8384 366.4538 316.51772 L 328.01536 313.17525 C 321.60855 312.61813 315.96317 317.36025 315.40606 323.76706 C 315.16743 326.51124 315.90935 329.25116 317.5 331.5 L 317.5 331.5 C 319.60347 334.47387 318.89787 338.58986 315.924 340.69333 C 313.98124 342.06748 311.4489 342.28857 309.2974 341.27188 L 297.5 335.697 C 291.27488 332.7553 283.8437 335.41706 280.90202 341.6422 C 279.2031 345.2374 279.32117 349.4274 281.21984 352.92123 L 285.27353 360.38064 C 286.7388 363.07697 285.74084 366.4506 283.04452 367.9159 C 280.89878 369.08195 278.2432 368.7103 276.5 367 L 276.5 367 C 264.2464 354.9776 244.56678 355.165 232.54436 367.41863 C 231.26132 368.72634 230.0964 370.14492 229.06323 371.6578 L 203.4423 409.1747 C 195.4674 420.85236 183.22997 428.93585 169.35944 431.68826 L 80.63557 449.2942 C 75.97274 450.2195 72.94285 454.74954 73.86812 459.41237 C 74.12728 460.71836 74.68588 461.94643 75.5 463 L 84 474 C 84 474 34 502 34 503 C 34 504 78 505 78 505 L 203.16619 495.18304 C 206.46775 494.9241 209.3541 497.3906 209.61306 500.6922 C 209.8447 503.64566 207.88476 506.32564 205 507 L 130.52203 524.41043 C 128.84164 524.80325 127.18105 525.2764 125.54597 525.82823 L 78.583995 541.6779 C 59.74892 548.03474 45.92948 564.2259 42.61016 583.8257 L 31.291347 650.6606 C 30.350705 656.2149 34.090788 661.48005 39.645056 662.4207 C 42.416166 662.89 45.258124 662.1951 47.5 660.5 L 66.87194 645.8529 C 67.62308 645.285 68.33413 644.6659 69 644 L 69 644 C 69.06535 643.93465 69.17129 643.93465 69.23664 644 C 69.29135 644.0547 69.30142 644.1398 69.260986 644.20576 L 41.5 689.5 C 40.93071 690.42884 41.222184 691.6433 42.151026 692.2126 C 43.032727 692.753 44.182093 692.52074 44.784774 691.6804 L 69.22768 657.598 C 70.7242 655.5113 73.62896 655.0329 75.71565 656.5294 C 77.28501 657.6549 77.99523 659.63336 77.5 661.5 L 71 686 C 71 686 144 618 144 619 C 144 620 73 700 73 700 C 73 700 324 552.394 335 555.394 C 346 558.394 421 566 421 566 L 398.5 574 C 395.8293 574.9496 394.4341 577.8844 395.38366 580.5551 C 396.0599 582.457 397.78825 583.7859 399.8001 583.9508 L 466.20053 589.3935 C 472.05665 589.8735 476.41485 595.00994 475.93484 600.86606 C 475.66134 604.2028 473.83313 607.2162 471 609 L 471 609 C 465.17644 612.6667 463.42795 620.36004 467.09464 626.1836 C 468.9494 629.1294 471.95185 631.165 475.37497 631.79755 L 518.5723 639.7797 C 529.8937 641.87166 540.2501 647.5273 548.1301 655.9212 L 571.3471 680.6523 C 578.30734 688.0665 587.21974 693.3646 597.0584 695.93684 L 672.7626 715.7288 C 675.42315 716.42435 677.0161 719.14505 676.3205 721.8056 C 675.6998 724.18 673.4416 725.748 671 725.5 L 645.2207 722.8818 C 638.52726 722.202 632.5501 727.077 631.8703 733.7704 C 631.4701 737.7106 633.0104 741.5994 636 744.197 L 636 744.197 C 652.2347 758.3027 676.686 757.1707 691.548 741.6254 L 834.9706 591.6087 C 837.6485 588.8076 840.0062 585.717 842 582.394 L 842 582.394 C 842.5719 581.4408 843.8083 581.1317 844.7616 581.7036 C 845.2919 582.0218 845.6465 582.5662 845.7232 583.1799 L 846.5963 590.1643 C 846.8652 592.3155 847.0043 594.4809 847.0129 596.6488 L 847.7869 792.4746 C 847.9046 822.2664 823.8726 846.5252 794.08095 846.6872 L 2.4999778 850.9918 C 1.6760556 850.9963 1.0045026 850.332 1.000022 849.5081 C 1.0000074 849.5054 1 849.5027 1 849.5 L 1 848.1368 C 1 848.0456 1.0002312 847.9544 1.0006936 847.8632 L 2.804627 491.9417 C 2.9215125 468.8798 17.671381 448.43745 39.52037 441.05604 Z" stroke="black" stroke-linecap="round" stroke-linejoin="round" stroke-width="4"/>
      </g>
      <g id="Graphic_9">
        <path d="M 22.828857 815.6475 L 217.3466 645.3281 C 224.09205 639.4218 233.1256 636.84206 241.97277 638.2955 L 314.43862 650.2006 C 320.1149 651.1332 325.4724 647.2876 326.40494 641.6113 C 327.0962 637.40365 325.15294 633.1996 321.5 631 L 300.77166 618.5184 C 293.75227 614.2917 291.48837 605.1749 295.7151 598.1555 C 297.39973 595.3578 299.9604 593.1941 303 592 L 316.87513 586.54905 C 325.7559 583.0602 335.7667 584.0039 343.83906 589.0909 L 658.5267 787.4 C 664.6909 791.2845 672.703 790.5028 678 785.5 L 683.0183 780.7605 C 685.651 778.2741 688.7122 776.2848 692.0536 774.889 L 790.1576 733.9088 C 793.4737 732.5237 795.0389 728.7126 793.65375 725.39656 C 792.4777 722.5811 789.5032 720.961 786.5 721.5 L 786.5 721.5 C 775.7681 723.4262 765.50665 716.2878 763.5804 705.5559 C 762.48 699.4253 764.3373 693.13486 768.5912 688.5851 L 792.9814 662.4981 C 804.29695 650.3954 823.2812 649.7573 835.3839 661.07284 C 841.2555 666.56255 844.6784 674.1789 844.8854 682.21444 L 848.2132 811.4473 C 848.6398 828.0104 835.5585 841.7831 818.9955 842.2096 C 818.8097 842.2144 818.6238 842.2175 818.438 842.2188 L 12.553809 847.9889 C 11.51863 847.9963 10.484529 848.0573 9.455655 848.1716 L 6.5 848.5 C 5.230378 848.6411 4.0867866 847.7262 3.9457174 846.4566 C 3.8919606 845.9728 3.9922165 845.4843 4.2322094 845.0608 L 16.490974 823.4277 C 18.151794 820.4968 20.29439 817.8666 22.828857 815.6475 Z" fill="#4040ff"/>
        <path d="M 22.828857 815.6475 L 217.3466 645.3281 C 224.09205 639.4218 233.1256 636.84206 241.97277 638.2955 L 314.43862 650.2006 C 320.1149 651.1332 325.4724 647.2876 326.40494 641.6113 C 327.0962 637.40365 325.15294 633.1996 321.5 631 L 300.77166 618.5184 C 293.75227 614.2917 291.48837 605.1749 295.7151 598.1555 C 297.39973 595.3578 299.9604 593.1941 303 592 L 316.87513 586.54905 C 325.7559 583.0602 335.7667 584.0039 343.83906 589.0909 L 658.5267 787.4 C 664.6909 791.2845 672.703 790.5028 678 785.5 L 683.0183 780.7605 C 685.651 778.2741 688.7122 776.2848 692.0536 774.889 L 790.1576 733.9088 C 793.4737 732.5237 795.0389 728.7126 793.65375 725.39656 C 792.4777 722.5811 789.5032 720.961 786.5 721.5 L 786.5 721.5 C 775.7681 723.4262 765.50665 716.2878 763.5804 705.5559 C 762.48 699.4253 764.3373 693.13486 768.5912 688.5851 L 792.9814 662.4981 C 804.29695 650.3954 823.2812 649.7573 835.3839 661.07284 C 841.2555 666.56255 844.6784 674.1789 844.8854 682.21444 L 848.2132 811.4473 C 848.6398 828.0104 835.5585 841.7831 818.9955 842.2096 C 818.8097 842.2144 818.6238 842.2175 818.438 842.2188 L 12.553809 847.9889 C 11.51863 847.9963 10.484529 848.0573 9.455655 848.1716 L 6.5 848.5 C 5.230378 848.6411 4.0867866 847.7262 3.9457174 846.4566 C 3.8919606 845.9728 3.9922165 845.4843 4.2322094 845.0608 L 16.490974 823.4277 C 18.151794 820.4968 20.29439 817.8666 22.828857 815.6475 Z" stroke="black" stroke-linecap="round" stroke-linejoin="round" stroke-width="3"/>
      </g>
    </g>
  </g>
</svg>
