<?xml version="1.0" encoding="UTF-8" standalone="no"?>
<!DOCTYPE svg PUBLIC "-//W3C//DTD SVG 1.1//EN" "http://www.w3.org/Graphics/SVG/1.1/DTD/svg11.dtd">
<svg version="1.1" xmlns="http://www.w3.org/2000/svg" xmlns:xl="http://www.w3.org/1999/xlink" xmlns:dc="http://purl.org/dc/elements/1.1/" viewBox="0 0 850.394 850.394" width="850.394" height="850.394">
  <defs/>
  <metadata> Produced by OmniGraffle 7.9.4 
    <dc:date>2019-03-18 14:45:11 +0000</dc:date>
  </metadata>
  <g id="white_notes" stroke-opacity="1" fill-opacity="1" stroke="none" stroke-dasharray="none" fill="none">
    <title>white notes</title>
    <g id="white_notes: Layer 1">
      <title>Layer 1</title>
      <g id="Graphic_18">
        <rect x="21.555556" y="273" width="803" height="354" fill="#7c7ca8"/>
        <rect x="21.555556" y="273" width="803" height="354" stroke="black" stroke-linecap="round" stroke-linejoin="round" stroke-width="6"/>
      </g>
      <g id="Graphic_13">
        <rect x="186.29913" y="328" width="59.456446" height="237" fill="white"/>
        <rect x="186.29913" y="328" width="59.456446" height="237" stroke="#a5a5a5" stroke-linecap="round" stroke-linejoin="round" stroke-width="30"/>
      </g>
      <g id="Graphic_11">
        <rect x="305.212" y="328" width="59.456446" height="237" fill="white"/>
        <rect x="305.212" y="328" width="59.456446" height="237" stroke="#a5a5a5" stroke-linecap="round" stroke-linejoin="round" stroke-width="30"/>
      </g>
      <g id="Graphic_10">
        <rect x="364.66846" y="328" width="59.456446" height="237" fill="white"/>
        <rect x="364.66846" y="328" width="59.456446" height="237" stroke="#a5a5a5" stroke-linecap="round" stroke-linejoin="round" stroke-width="30"/>
      </g>
      <g id="Graphic_8">
        <rect x="483.58136" y="328" width="59.456446" height="237" fill="white"/>
        <rect x="483.58136" y="328" width="59.456446" height="237" stroke="#a5a5a5" stroke-linecap="round" stroke-linejoin="round" stroke-width="30"/>
      </g>
      <g id="Graphic_6">
        <rect x="604.6384" y="328" width="59.456446" height="237" fill="white"/>
        <rect x="604.6384" y="328" width="59.456446" height="237" stroke="#a5a5a5" stroke-linecap="round" stroke-linejoin="round" stroke-width="30"/>
      </g>
      <g id="Graphic_4">
        <rect x="723.5513" y="328" width="59.456446" height="237" fill="white"/>
        <rect x="723.5513" y="328" width="59.456446" height="237" stroke="#a5a5a5" stroke-linecap="round" stroke-linejoin="round" stroke-width="30"/>
      </g>
      <g id="Graphic_24">
        <path d="M 713.7452 318.5 L 721.7452 316 C 727.052 314.34162 732.5662 313.43998 738.12485 313.3217 L 767.7334 312.69174 C 773.6922 312.56496 779.62485 313.51634 785.2452 315.5 L 793.7452 318.5 C 798.6682 318.5 798.7452 383.088 798.7452 448.5 C 798.7452 513.912 799.6682 577.5 794.7452 577.5 L 784.2452 579 C 777.254 579.99874 770.2008 580.5 763.1386 580.5 L 741.3629 580.5 C 734.96096 580.5 728.5688 579.9985 722.2452 579 L 712.7452 577.5 C 707.8222 577.5 707.7452 514.912 707.7452 449.5 C 707.7452 384.088 708.8222 318.5 713.7452 318.5 Z" fill="white"/>
        <path d="M 713.7452 318.5 L 721.7452 316 C 727.052 314.34162 732.5662 313.43998 738.12485 313.3217 L 767.7334 312.69174 C 773.6922 312.56496 779.62485 313.51634 785.2452 315.5 L 793.7452 318.5 C 798.6682 318.5 798.7452 383.088 798.7452 448.5 C 798.7452 513.912 799.6682 577.5 794.7452 577.5 L 784.2452 579 C 777.254 579.99874 770.2008 580.5 763.1386 580.5 L 741.3629 580.5 C 734.96096 580.5 728.5688 579.9985 722.2452 579 L 712.7452 577.5 C 707.8222 577.5 707.7452 514.912 707.7452 449.5 C 707.7452 384.088 708.8222 318.5 713.7452 318.5 Z" stroke="black" stroke-linecap="round" stroke-linejoin="round" stroke-width="5"/>
      </g>
      <g id="Graphic_23">
        <path d="M 594.8323 318.5 L 602.8323 316 C 608.13914 314.34162 613.6533 313.43998 619.21196 313.3217 L 648.8205 312.69174 C 654.7793 312.56496 660.71196 313.51634 666.3323 315.5 L 674.8323 318.5 C 679.7553 318.5 679.8323 383.088 679.8323 448.5 C 679.8323 513.912 680.7553 577.5 675.8323 577.5 L 665.3323 579 C 658.34114 579.99874 651.2879 580.5 644.2257 580.5 L 622.45 580.5 C 616.0481 580.5 609.65594 579.9985 603.3323 579 L 593.8323 577.5 C 588.9093 577.5 588.8323 514.912 588.8323 449.5 C 588.8323 384.088 589.9093 318.5 594.8323 318.5 Z" fill="white"/>
        <path d="M 594.8323 318.5 L 602.8323 316 C 608.13914 314.34162 613.6533 313.43998 619.21196 313.3217 L 648.8205 312.69174 C 654.7793 312.56496 660.71196 313.51634 666.3323 315.5 L 674.8323 318.5 C 679.7553 318.5 679.8323 383.088 679.8323 448.5 C 679.8323 513.912 680.7553 577.5 675.8323 577.5 L 665.3323 579 C 658.34114 579.99874 651.2879 580.5 644.2257 580.5 L 622.45 580.5 C 616.0481 580.5 609.65594 579.9985 603.3323 579 L 593.8323 577.5 C 588.9093 577.5 588.8323 514.912 588.8323 449.5 C 588.8323 384.088 589.9093 318.5 594.8323 318.5 Z" stroke="black" stroke-linecap="round" stroke-linejoin="round" stroke-width="5"/>
      </g>
      <g id="Graphic_20">
        <path d="M 294.36454 318.5 L 300.97604 316 C 305.3525 314.34513 309.97624 313.4385 314.65358 313.3181 L 338.79414 312.6966 C 343.82568 312.56705 348.82606 313.52322 353.45483 315.5 L 360.47955 318.5 C 364.5481 318.5 364.61173 383.088 364.61173 448.5 C 364.61173 513.912 365.37453 577.5 361.306 577.5 L 352.6284 579 C 346.85393 579.9982 341.0046 580.5 335.1445 580.5 L 317.2336 580.5 C 311.9167 580.5 306.6117 579.9978 301.38926 579 L 293.5381 577.5 C 289.46956 577.5 289.40592 514.912 289.40592 449.5 C 289.40592 384.088 290.296 318.5 294.36454 318.5 Z" fill="white"/>
        <path d="M 294.36454 318.5 L 300.97604 316 C 305.3525 314.34513 309.97624 313.4385 314.65358 313.3181 L 338.79414 312.6966 C 343.82568 312.56705 348.82606 313.52322 353.45483 315.5 L 360.47955 318.5 C 364.5481 318.5 364.61173 383.088 364.61173 448.5 C 364.61173 513.912 365.37453 577.5 361.306 577.5 L 352.6284 579 C 346.85393 579.9982 341.0046 580.5 335.1445 580.5 L 317.2336 580.5 C 311.9167 580.5 306.6117 579.9978 301.38926 579 L 293.5381 577.5 C 289.46956 577.5 289.40592 514.912 289.40592 449.5 C 289.40592 384.088 290.296 318.5 294.36454 318.5 Z" stroke="black" stroke-linecap="round" stroke-linejoin="round" stroke-width="5"/>
      </g>
      <g id="Graphic_15">
        <path d="M 176.49303 318.5 L 184.49303 316 C 189.79984 314.34162 195.31402 313.43998 200.87266 313.3217 L 230.4812 312.69174 C 236.44 312.56496 242.37265 313.51634 247.99303 315.5 L 256.49303 318.5 C 261.41602 318.5 261.49303 383.088 261.49303 448.5 C 261.49303 513.912 262.41602 577.5 257.49303 577.5 L 246.99303 579 C 240.00184 579.99874 232.9486 580.5 225.88642 580.5 L 204.11072 580.5 C 197.70876 580.5 191.31664 579.9985 184.99303 579 L 175.49303 577.5 C 170.57003 577.5 170.49303 514.912 170.49303 449.5 C 170.49303 384.088 171.57003 318.5 176.49303 318.5 Z" fill="white"/>
        <path d="M 176.49303 318.5 L 184.49303 316 C 189.79984 314.34162 195.31402 313.43998 200.87266 313.3217 L 230.4812 312.69174 C 236.44 312.56496 242.37265 313.51634 247.99303 315.5 L 256.49303 318.5 C 261.41602 318.5 261.49303 383.088 261.49303 448.5 C 261.49303 513.912 262.41602 577.5 257.49303 577.5 L 246.99303 579 C 240.00184 579.99874 232.9486 580.5 225.88642 580.5 L 204.11072 580.5 C 197.70876 580.5 191.31664 579.9985 184.99303 579 L 175.49303 577.5 C 170.57003 577.5 170.49303 514.912 170.49303 449.5 C 170.49303 384.088 171.57003 318.5 176.49303 318.5 Z" stroke="black" stroke-linecap="round" stroke-linejoin="round" stroke-width="5"/>
      </g>
      <g id="Graphic_19">
        <path d="M 52 322 L 60 319.5 C 65.30681 317.84162 70.82099 316.93998 76.37963 316.8217 L 105.98816 316.19174 C 111.94697 316.06496 117.87963 317.01634 123.5 319 L 132 322 C 136.923 322 137 386.588 137 452 C 137 517.412 137.923 581 133 581 L 122.5 582.5 C 115.50882 583.49874 108.45556 584 101.3934 584 L 79.61769 584 C 73.215735 584 66.823616 583.4985 60.5 582.5 L 51 581 C 46.077006 581 46 518.412 46 453 C 46 387.588 47.077006 322 52 322 Z" fill="white"/>
        <path d="M 52 322 L 60 319.5 C 65.30681 317.84162 70.82099 316.93998 76.37963 316.8217 L 105.98816 316.19174 C 111.94697 316.06496 117.87963 317.01634 123.5 319 L 132 322 C 136.923 322 137 386.588 137 452 C 137 517.412 137.923 581 133 581 L 122.5 582.5 C 115.50882 583.49874 108.45556 584 101.3934 584 L 79.61769 584 C 73.215735 584 66.823616 583.4985 60.5 582.5 L 51 581 C 46.077006 581 46 518.412 46 453 C 46 387.588 47.077006 322 52 322 Z" stroke="black" stroke-linecap="round" stroke-linejoin="round" stroke-width="5"/>
      </g>
      <g id="Graphic_14">
        <rect x="128.6284" y="328" width="49.15732" height="151.86197" fill="#333" fill-opacity=".5"/>
        <path d="M 128.6284 328 L 177.78571 328 L 177.78571 479.86197 L 128.6284 479.86197 Z" stroke="black" stroke-linecap="round" stroke-linejoin="round" stroke-dasharray="8.0,8.0" stroke-width="2"/>
      </g>
      <g id="Graphic_21">
        <path d="M 369.69772 318.5 L 376.4034 316 C 380.843 314.34483 385.52673 313.43863 390.2633 313.3184 L 414.7768 312.69617 C 419.8706 312.56687 424.9336 313.52263 429.62973 315.5 L 436.7545 318.5 C 440.881 318.5 440.94556 383.088 440.94556 448.5 C 440.94556 513.912 441.7192 577.5 437.5927 577.5 L 428.7915 579 C 422.9345 579.9982 417.00366 580.5 411.0622 580.5 L 392.88854 580.5 C 387.49824 580.5 382.11965 579.9978 376.8225 579 L 368.8595 577.5 C 364.733 577.5 364.66846 514.912 364.66846 449.5 C 364.66846 384.088 365.5712 318.5 369.69772 318.5 Z" fill="white"/>
        <path d="M 369.69772 318.5 L 376.4034 316 C 380.843 314.34483 385.52673 313.43863 390.2633 313.3184 L 414.7768 312.69617 C 419.8706 312.56687 424.9336 313.52263 429.62973 315.5 L 436.7545 318.5 C 440.881 318.5 440.94556 383.088 440.94556 448.5 C 440.94556 513.912 441.7192 577.5 437.5927 577.5 L 428.7915 579 C 422.9345 579.9982 417.00366 580.5 411.0622 580.5 L 392.88854 580.5 C 387.49824 580.5 382.11965 579.9978 376.8225 579 L 368.8595 577.5 C 364.733 577.5 364.66846 514.912 364.66846 449.5 C 364.66846 384.088 365.5712 318.5 369.69772 318.5 Z" stroke="black" stroke-linecap="round" stroke-linejoin="round" stroke-width="5"/>
      </g>
      <g id="Graphic_22">
        <path d="M 473.77526 318.5 L 481.77526 316 C 487.08207 314.34162 492.59625 313.43998 498.1549 313.3217 L 527.7634 312.69174 C 533.7222 312.56496 539.6549 313.51634 545.27526 315.5 L 553.77526 318.5 C 558.69825 318.5 558.77526 383.088 558.77526 448.5 C 558.77526 513.912 559.69825 577.5 554.77526 577.5 L 544.27526 579 C 537.2841 579.99874 530.2308 580.5 523.16865 580.5 L 501.39295 580.5 C 494.991 580.5 488.5989 579.9985 482.27526 579 L 472.77526 577.5 C 467.85226 577.5 467.77526 514.912 467.77526 449.5 C 467.77526 384.088 468.85226 318.5 473.77526 318.5 Z" fill="white"/>
        <path d="M 473.77526 318.5 L 481.77526 316 C 487.08207 314.34162 492.59625 313.43998 498.1549 313.3217 L 527.7634 312.69174 C 533.7222 312.56496 539.6549 313.51634 545.27526 315.5 L 553.77526 318.5 C 558.69825 318.5 558.77526 383.088 558.77526 448.5 C 558.77526 513.912 559.69825 577.5 554.77526 577.5 L 544.27526 579 C 537.2841 579.99874 530.2308 580.5 523.16865 580.5 L 501.39295 580.5 C 494.991 580.5 488.5989 579.9985 482.27526 579 L 472.77526 577.5 C 467.85226 577.5 467.77526 514.912 467.77526 449.5 C 467.77526 384.088 468.85226 318.5 473.77526 318.5 Z" stroke="black" stroke-linecap="round" stroke-linejoin="round" stroke-width="5"/>
      </g>
      <g id="Graphic_25">
        <rect x="254.26898" y="328" width="49.15732" height="151.86197" fill="#333" fill-opacity=".5"/>
        <path d="M 254.26898 328 L 303.4263 328 L 303.4263 479.86197 L 254.26898 479.86197 Z" stroke="black" stroke-linecap="round" stroke-linejoin="round" stroke-dasharray="8.0,8.0" stroke-width="2"/>
      </g>
      <g id="Graphic_26">
        <rect x="548.7534" y="328" width="49.15732" height="151.86197" fill="#333" fill-opacity=".5"/>
        <path d="M 548.7534 328 L 597.9107 328 L 597.9107 479.86197 L 548.7534 479.86197 Z" stroke="black" stroke-linecap="round" stroke-linejoin="round" stroke-dasharray="8.0,8.0" stroke-width="2"/>
      </g>
      <g id="Graphic_27">
        <rect x="674.394" y="328" width="49.15732" height="151.86197" fill="#333" fill-opacity=".5"/>
        <path d="M 674.394 328 L 723.5513 328 L 723.5513 479.86197 L 674.394 479.86197 Z" stroke="black" stroke-linecap="round" stroke-linejoin="round" stroke-dasharray="8.0,8.0" stroke-width="2"/>
      </g>
      <g id="Graphic_28">
        <rect x="428.70843" y="328" width="49.15732" height="151.86197" fill="#333" fill-opacity=".5"/>
        <path d="M 428.70843 328 L 477.86575 328 L 477.86575 479.86197 L 428.70843 479.86197 Z" stroke="black" stroke-linecap="round" stroke-linejoin="round" stroke-dasharray="8.0,8.0" stroke-width="2"/>
      </g>
    </g>
  </g>
</svg>
