<?xml version="1.0" encoding="UTF-8" standalone="no"?>
<!DOCTYPE svg PUBLIC "-//W3C//DTD SVG 1.1//EN" "http://www.w3.org/Graphics/SVG/1.1/DTD/svg11.dtd">
<svg xmlns:xl="http://www.w3.org/1999/xlink" version="1.1" xmlns:dc="http://purl.org/dc/elements/1.1/" xmlns="http://www.w3.org/2000/svg" viewBox="0 0 850.394 850.394" width="850.394" height="850.394">
  <defs/>
  <metadata> Produced by OmniGraffle 7.9.4 
    <dc:date>2019-05-06 23:05:42 +0000</dc:date>
  </metadata>
  <g id="wire_Stripper" fill="none" stroke-opacity="1" fill-opacity="1" stroke="none" stroke-dasharray="none">
    <title>wire_Stripper</title>
    <g id="wire_Stripper: Layer 1">
      <title>Layer 1</title>
      <g id="Graphic_12">
        <path d="M 254.20095 176.50318 L 281.9739 160.46846 C 289.6432 156.04059 299.44987 158.66828 303.87774 166.33757 C 303.87774 166.33757 303.87774 166.33757 303.87774 166.33757 L 303.87774 166.33757 C 308.3056 174.00686 305.6779 183.81354 298.00862 188.2414 L 270.23567 204.27612 C 262.5664 208.704 252.7597 206.0763 248.33184 198.407 C 248.33184 198.407 248.33184 198.407 248.33184 198.407 L 248.33184 198.407 C 243.90397 190.73772 246.53167 180.93104 254.20095 176.50318 Z" fill="#666"/>
        <path d="M 254.20095 176.50318 L 281.9739 160.46846 C 289.6432 156.04059 299.44987 158.66828 303.87774 166.33757 C 303.87774 166.33757 303.87774 166.33757 303.87774 166.33757 L 303.87774 166.33757 C 308.3056 174.00686 305.6779 183.81354 298.00862 188.2414 L 270.23567 204.27612 C 262.5664 208.704 252.7597 206.0763 248.33184 198.407 C 248.33184 198.407 248.33184 198.407 248.33184 198.407 L 248.33184 198.407 C 243.90397 190.73772 246.53167 180.93104 254.20095 176.50318 Z" stroke="black" stroke-linecap="round" stroke-linejoin="round" stroke-width="6"/>
      </g>
      <g id="Graphic_2">
        <path d="M 159.44267 119.72199 L 156.04066 136.34676 C 153.55077 148.51422 153.92798 161.0943 157.1424 173.09071 L 160.55468 185.82548 C 165.5677 204.53434 181.46608 218.3063 200.69861 220.6001 L 229.4221 224.0259 C 242.53187 225.58947 254.42697 216.22942 255.99054 203.11965 C 256.046 202.6547 256.08778 202.18824 256.11583 201.72085 L 256.11583 201.72085 C 257.01268 186.77907 247.79805 173.0856 233.61873 168.2889 L 230.25225 167.15007 C 212.71946 161.21893 198.2609 148.56585 190.05729 131.97434 L 182.5226 116.73572 C 179.51122 110.64531 172.13276 108.14926 166.04235 111.16064 C 162.63932 112.84326 160.20375 116.00277 159.44267 119.72199 Z" fill="#cbcbcb"/>
        <path d="M 159.44267 119.72199 L 156.04066 136.34676 C 153.55077 148.51422 153.92798 161.0943 157.1424 173.09071 L 160.55468 185.82548 C 165.5677 204.53434 181.46608 218.3063 200.69861 220.6001 L 229.4221 224.0259 C 242.53187 225.58947 254.42697 216.22942 255.99054 203.11965 C 256.046 202.6547 256.08778 202.18824 256.11583 201.72085 L 256.11583 201.72085 C 257.01268 186.77907 247.79805 173.0856 233.61873 168.2889 L 230.25225 167.15007 C 212.71946 161.21893 198.2609 148.56585 190.05729 131.97434 L 182.5226 116.73572 C 179.51122 110.64531 172.13276 108.14926 166.04235 111.16064 C 162.63932 112.84326 160.20375 116.00277 159.44267 119.72199 Z" stroke="black" stroke-linecap="round" stroke-linejoin="round" stroke-width="6"/>
      </g>
      <g id="Graphic_3">
        <path d="M 280.1791 50.01478 L 296.27758 55.380936 C 308.05985 59.30836 318.7659 65.92507 327.5479 74.70706 L 336.8704 84.02955 C 350.56623 97.72539 354.5439 118.37977 346.91414 136.18254 L 335.5192 162.7707 C 330.31842 174.90588 316.26483 180.52732 304.12965 175.32652 C 303.69928 175.14208 303.2744 174.94503 302.8556 174.73563 L 302.8556 174.73563 C 289.46722 168.04143 282.21565 153.21459 285.15125 138.53659 L 285.84823 135.05172 C 289.4781 116.9023 285.7495 98.05428 275.48264 82.65399 L 266.05294 68.50945 C 262.2842 62.856314 263.81178 55.21836 269.4649 51.4496 C 272.62362 49.3438 276.57762 48.814285 280.1791 50.01478 Z" fill="#cbcbcb"/>
        <path d="M 280.1791 50.01478 L 296.27758 55.380936 C 308.05985 59.30836 318.7659 65.92507 327.5479 74.70706 L 336.8704 84.02955 C 350.56623 97.72539 354.5439 118.37977 346.91414 136.18254 L 335.5192 162.7707 C 330.31842 174.90588 316.26483 180.52732 304.12965 175.32652 C 303.69928 175.14208 303.2744 174.94503 302.8556 174.73563 L 302.8556 174.73563 C 289.46722 168.04143 282.21565 153.21459 285.15125 138.53659 L 285.84823 135.05172 C 289.4781 116.9023 285.7495 98.05428 275.48264 82.65399 L 266.05294 68.50945 C 262.2842 62.856314 263.81178 55.21836 269.4649 51.4496 C 272.62362 49.3438 276.57762 48.814285 280.1791 50.01478 Z" stroke="black" stroke-linecap="round" stroke-linejoin="round" stroke-width="6"/>
      </g>
      <g id="Graphic_7">
        <path d="M 617.8725 733.3674 L 652.347 750.4132 C 658.2567 753.3353 661.28245 760.0225 659.5761 766.3905 L 659.5761 766.3905 C 657.6325 773.6444 654.5321 780.5374 650.3943 786.8044 L 641.3035 800.5731 C 639.79564 802.8568 636.722 803.4857 634.4383 801.9779 C 633.7964 801.5541 633.2619 800.9866 632.8773 800.3204 L 632.8773 800.3204 C 630.4205 796.0651 630.5788 790.787 633.2861 786.6866 L 638.7464 778.4166 C 643.5623 771.1226 641.5534 761.3056 634.2594 756.4897 C 633.7118 756.1281 633.1422 755.80095 632.55395 755.5101 L 603.986 741.3848 C 601.8618 740.3345 600.9912 737.761 602.0415 735.6367 C 602.417 734.8774 603.0088 734.24615 603.7424 733.8226 L 603.7424 733.8226 C 608.0802 731.3182 613.38256 731.1474 617.8725 733.3674 Z" fill="#cbcbcb"/>
        <path d="M 617.8725 733.3674 L 652.347 750.4132 C 658.2567 753.3353 661.28245 760.0225 659.5761 766.3905 L 659.5761 766.3905 C 657.6325 773.6444 654.5321 780.5374 650.3943 786.8044 L 641.3035 800.5731 C 639.79564 802.8568 636.722 803.4857 634.4383 801.9779 C 633.7964 801.5541 633.2619 800.9866 632.8773 800.3204 L 632.8773 800.3204 C 630.4205 796.0651 630.5788 790.787 633.2861 786.6866 L 638.7464 778.4166 C 643.5623 771.1226 641.5534 761.3056 634.2594 756.4897 C 633.7118 756.1281 633.1422 755.80095 632.55395 755.5101 L 603.986 741.3848 C 601.8618 740.3345 600.9912 737.761 602.0415 735.6367 C 602.417 734.8774 603.0088 734.24615 603.7424 733.8226 L 603.7424 733.8226 C 608.0802 731.3182 613.38256 731.1474 617.8725 733.3674 Z" stroke="black" stroke-linecap="round" stroke-linejoin="round" stroke-width="6"/>
      </g>
      <g id="Graphic_8">
        <path d="M 582.3967 753.8494 L 579.92156 792.228 C 579.49726 798.8071 583.7757 804.771 590.14376 806.4773 L 590.14376 806.4773 C 597.3976 808.421 604.9173 809.1825 612.4136 808.7326 L 628.883 807.744 C 631.6147 807.58005 633.6962 805.2327 633.53225 802.501 C 633.48616 801.7332 633.2619 800.9866 632.8773 800.3204 L 632.8773 800.3204 C 630.4205 796.0651 625.7704 793.5631 620.8657 793.8575 L 610.9735 794.4513 C 602.24874 794.975 594.7514 788.3267 594.2277 779.602 C 594.1884 778.9469 594.1899 778.2901 594.2321 777.6352 L 596.2832 745.832 C 596.4357 743.4672 594.6423 741.4265 592.2775 741.274 C 591.4321 741.2195 590.58956 741.4164 589.85595 741.84 L 589.85595 741.84 C 585.5182 744.3444 582.7191 748.851 582.3967 753.8494 Z" fill="#cbcbcb"/>
        <path d="M 582.3967 753.8494 L 579.92156 792.228 C 579.49726 798.8071 583.7757 804.771 590.14376 806.4773 L 590.14376 806.4773 C 597.3976 808.421 604.9173 809.1825 612.4136 808.7326 L 628.883 807.744 C 631.6147 807.58005 633.6962 805.2327 633.53225 802.501 C 633.48616 801.7332 633.2619 800.9866 632.8773 800.3204 L 632.8773 800.3204 C 630.4205 796.0651 625.7704 793.5631 620.8657 793.8575 L 610.9735 794.4513 C 602.24874 794.975 594.7514 788.3267 594.2277 779.602 C 594.1884 778.9469 594.1899 778.2901 594.2321 777.6352 L 596.2832 745.832 C 596.4357 743.4672 594.6423 741.4265 592.2775 741.274 C 591.4321 741.2195 590.58956 741.4164 589.85595 741.84 L 589.85595 741.84 C 585.5182 744.3444 582.7191 748.851 582.3967 753.8494 Z" stroke="black" stroke-linecap="round" stroke-linejoin="round" stroke-width="6"/>
      </g>
      <g id="Graphic_9">
        <path d="M 261.75725 255.40853 L 374.62904 509.03 C 380.2274 521.6095 387.2507 533.50506 395.56104 544.48336 L 528.2849 719.81655 C 531.483 724.0414 530.6507 730.059 526.4258 733.2572 C 524.91554 734.4004 523.10066 735.071 521.2099 735.1845 L 521.2099 735.1845 C 510.12503 735.8499 499.518 730.59014 493.33816 721.36374 L 377.77578 548.8304 C 372.0477 540.2785 367.06376 531.251 362.8787 521.8472 L 247.87077 263.4259 C 246.01772 259.2621 247.6073 254.37123 251.5542 252.09247 L 251.5542 252.09247 C 255.0064 250.09935 259.42068 251.28216 261.4138 254.73434 C 261.54 254.9529 261.65463 255.17795 261.75725 255.40853 Z" fill="#cbcbcb"/>
        <path d="M 261.75725 255.40853 L 374.62904 509.03 C 380.2274 521.6095 387.2507 533.50506 395.56104 544.48336 L 528.2849 719.81655 C 531.483 724.0414 530.6507 730.059 526.4258 733.2572 C 524.91554 734.4004 523.10066 735.071 521.2099 735.1845 L 521.2099 735.1845 C 510.12503 735.8499 499.518 730.59014 493.33816 721.36374 L 377.77578 548.8304 C 372.0477 540.2785 367.06376 531.251 362.8787 521.8472 L 247.87077 263.4259 C 246.01772 259.2621 247.6073 254.37123 251.5542 252.09247 L 251.5542 252.09247 C 255.0064 250.09935 259.42068 251.28216 261.4138 254.73434 C 261.54 254.9529 261.65463 255.17795 261.75725 255.40853 Z" stroke="black" stroke-linecap="round" stroke-linejoin="round" stroke-width="6"/>
      </g>
      <g id="Graphic_10">
        <path d="M 346.5298 206.46507 L 509.73654 431.02565 C 517.8315 442.1637 524.62175 454.19384 529.97405 466.88 L 615.4551 669.4888 C 617.5149 674.3709 623.14245 676.6589 628.0246 674.5991 C 629.7698 673.8628 631.258 672.6264 632.3017 671.04565 L 632.3017 671.04565 C 638.4203 661.77856 639.1688 649.9627 634.2684 639.9976 L 542.63134 453.651 C 538.0892 444.4144 532.76313 435.5844 526.71175 427.25816 L 360.41627 198.44771 C 357.73686 194.76103 352.70645 193.6922 348.75953 195.97095 L 348.75953 195.97095 C 345.30735 197.96407 344.12454 202.37836 346.11766 205.83055 C 346.24385 206.04912 346.3814 206.26092 346.5298 206.46507 Z" fill="#cbcbcb"/>
        <path d="M 346.5298 206.46507 L 509.73654 431.02565 C 517.8315 442.1637 524.62175 454.19384 529.97405 466.88 L 615.4551 669.4888 C 617.5149 674.3709 623.14245 676.6589 628.0246 674.5991 C 629.7698 673.8628 631.258 672.6264 632.3017 671.04565 L 632.3017 671.04565 C 638.4203 661.77856 639.1688 649.9627 634.2684 639.9976 L 542.63134 453.651 C 538.0892 444.4144 532.76313 435.5844 526.71175 427.25816 L 360.41627 198.44771 C 357.73686 194.76103 352.70645 193.6922 348.75953 195.97095 L 348.75953 195.97095 C 345.30735 197.96407 344.12454 202.37836 346.11766 205.83055 C 346.24385 206.04912 346.3814 206.26092 346.5298 206.46507 Z" stroke="black" stroke-linecap="round" stroke-linejoin="round" stroke-width="6"/>
      </g>
      <g id="Graphic_4">
        <path d="M 228.89255 179.33562 L 216.88142 190.94933 C 207.55986 199.96246 207.30982 214.82566 216.32295 224.14722 C 216.74064 224.5792 217.17475 224.99498 217.62433 225.39365 L 217.62433 225.39365 C 229.24996 235.7027 234.0533 251.6953 230.03174 266.7039 L 207.40624 351.1434 C 203.4047 366.07737 201.3439 381.46463 201.2747 396.92523 L 200.7098 523.1376 C 200.49959 570.1065 218.65689 615.29724 251.30596 649.0636 L 295.0588 694.3137 C 323.04253 723.255 359.92053 741.98 399.7987 747.4958 L 501.694 761.5896 C 513.4356 763.2136 525.3089 763.6739 537.14094 762.9637 L 562.075 761.4671 C 578.5596 760.4776 591.72766 747.368 592.7905 730.888 L 592.7905 730.888 C 593.7702 715.69685 582.24956 702.5877 567.05837 701.608 C 566.6221 701.5799 566.1852 701.5621 565.748 701.55475 L 523.32236 700.84106 C 508.6073 700.5935 493.9782 698.5422 479.7625 694.7332 L 398.46973 672.9508 C 365.40307 664.09065 335.54865 645.9848 312.4084 620.7571 L 297.87505 604.91276 C 266.2839 570.47184 252.00306 523.56965 259.03986 477.36725 L 275.95745 366.28923 C 277.86624 353.7564 278.44568 341.05695 277.6861 328.40236 L 271.67676 228.285 C 270.72906 212.49607 266.1183 197.14463 258.20963 183.44641 L 258.20963 183.44641 C 253.02387 174.46441 241.53864 171.38695 232.55664 176.57271 C 231.22692 177.34043 229.99637 178.26832 228.89255 179.33562 Z" fill="#333"/>
        <path d="M 228.89255 179.33562 L 216.88142 190.94933 C 207.55986 199.96246 207.30982 214.82566 216.32295 224.14722 C 216.74064 224.5792 217.17475 224.99498 217.62433 225.39365 L 217.62433 225.39365 C 229.24996 235.7027 234.0533 251.6953 230.03174 266.7039 L 207.40624 351.1434 C 203.4047 366.07737 201.3439 381.46463 201.2747 396.92523 L 200.7098 523.1376 C 200.49959 570.1065 218.65689 615.29724 251.30596 649.0636 L 295.0588 694.3137 C 323.04253 723.255 359.92053 741.98 399.7987 747.4958 L 501.694 761.5896 C 513.4356 763.2136 525.3089 763.6739 537.14094 762.9637 L 562.075 761.4671 C 578.5596 760.4776 591.72766 747.368 592.7905 730.888 L 592.7905 730.888 C 593.7702 715.69685 582.24956 702.5877 567.05837 701.608 C 566.6221 701.5799 566.1852 701.5621 565.748 701.55475 L 523.32236 700.84106 C 508.6073 700.5935 493.9782 698.5422 479.7625 694.7332 L 398.46973 672.9508 C 365.40307 664.09065 335.54865 645.9848 312.4084 620.7571 L 297.87505 604.91276 C 266.2839 570.47184 252.00306 523.56965 259.03986 477.36725 L 275.95745 366.28923 C 277.86624 353.7564 278.44568 341.05695 277.6861 328.40236 L 271.67676 228.285 C 270.72906 212.49607 266.1183 197.14463 258.20963 183.44641 L 258.20963 183.44641 C 253.02387 174.46441 241.53864 171.38695 232.55664 176.57271 C 231.22692 177.34043 229.99637 178.26832 228.89255 179.33562 Z" stroke="black" stroke-linecap="round" stroke-linejoin="round" stroke-width="6"/>
      </g>
      <g id="Graphic_5">
        <path d="M 297.08108 139.96696 L 313.1444 135.37187 C 325.6108 131.80572 338.6077 139.02079 342.17386 151.48717 C 342.3391 152.06488 342.48214 152.64872 342.6026 153.2374 L 342.6026 153.2374 C 345.7177 168.46002 357.166 180.61612 372.17464 184.63767 L 456.61415 207.26317 C 471.5481 211.2647 485.90426 217.17362 499.32813 224.844 L 608.9137 287.46096 C 649.6951 310.7634 679.75275 349.08342 692.6707 394.2415 L 709.982 454.75763 C 721.0541 493.4629 718.8314 534.7627 703.6691 572.0561 L 664.92705 667.3469 C 660.4627 678.3275 654.9247 688.8402 648.3936 698.7319 L 634.6305 719.57715 C 625.5313 733.3585 607.594 738.2076 592.7905 730.888 L 592.7905 730.888 C 579.1447 724.1409 573.5522 707.60916 580.2993 693.9633 C 580.4931 693.5714 580.6962 693.1842 580.9084 692.8019 L 601.5031 655.7034 C 608.6463 642.836 614.1844 629.14115 617.99346 614.9255 L 639.7758 533.6327 C 648.636 500.56605 647.8831 465.65844 637.6054 433.00456 L 631.15044 412.49613 C 617.1193 367.9169 583.64123 332.09826 540.1104 315.0911 L 435.4552 274.20316 C 423.64704 269.5898 412.3593 263.7419 401.77987 256.7568 L 318.08037 201.49386 C 304.8806 192.77866 293.89125 181.10991 285.9826 167.4117 L 285.9826 167.4117 C 280.79682 158.4297 283.8743 146.94446 292.8563 141.7587 C 294.186 140.99098 295.60486 140.38924 297.08108 139.96696 Z" fill="#333"/>
        <path d="M 297.08108 139.96696 L 313.1444 135.37187 C 325.6108 131.80572 338.6077 139.02079 342.17386 151.48717 C 342.3391 152.06488 342.48214 152.64872 342.6026 153.2374 L 342.6026 153.2374 C 345.7177 168.46002 357.166 180.61612 372.17464 184.63767 L 456.61415 207.26317 C 471.5481 211.2647 485.90426 217.17362 499.32813 224.844 L 608.9137 287.46096 C 649.6951 310.7634 679.75275 349.08342 692.6707 394.2415 L 709.982 454.75763 C 721.0541 493.4629 718.8314 534.7627 703.6691 572.0561 L 664.92705 667.3469 C 660.4627 678.3275 654.9247 688.8402 648.3936 698.7319 L 634.6305 719.57715 C 625.5313 733.3585 607.594 738.2076 592.7905 730.888 L 592.7905 730.888 C 579.1447 724.1409 573.5522 707.60916 580.2993 693.9633 C 580.4931 693.5714 580.6962 693.1842 580.9084 692.8019 L 601.5031 655.7034 C 608.6463 642.836 614.1844 629.14115 617.99346 614.9255 L 639.7758 533.6327 C 648.636 500.56605 647.8831 465.65844 637.6054 433.00456 L 631.15044 412.49613 C 617.1193 367.9169 583.64123 332.09826 540.1104 315.0911 L 435.4552 274.20316 C 423.64704 269.5898 412.3593 263.7419 401.77987 256.7568 L 318.08037 201.49386 C 304.8806 192.77866 293.89125 181.10991 285.9826 167.4117 L 285.9826 167.4117 C 280.79682 158.4297 283.8743 146.94446 292.8563 141.7587 C 294.186 140.99098 295.60486 140.38924 297.08108 139.96696 Z" stroke="black" stroke-linecap="round" stroke-linejoin="round" stroke-width="6"/>
      </g>
    </g>
  </g>
</svg>
