<?xml version="1.0" encoding="UTF-8" standalone="no"?>
<!DOCTYPE svg PUBLIC "-//W3C//DTD SVG 1.1//EN" "http://www.w3.org/Graphics/SVG/1.1/DTD/svg11.dtd">
<svg xmlns:dc="http://purl.org/dc/elements/1.1/" xmlns="http://www.w3.org/2000/svg" version="1.1" xmlns:xl="http://www.w3.org/1999/xlink" viewBox="0 0 850.394 850.394" width="850.394" height="850.394">
  <defs/>
  <metadata> Produced by OmniGraffle 7.9.4 
    <dc:date>2019-03-30 19:15:54 +0000</dc:date>
  </metadata>
  <g id="zero_crossing" stroke-dasharray="none" stroke-opacity="1" fill-opacity="1" fill="none" stroke="none">
    <title>zero crossing</title>
    <g id="zero_crossing: Layer 1">
      <title>Layer 1</title>
      <g id="Graphic_5">
        <ellipse cx="90.55102" cy="396.5" rx="35.5510772152062" ry="33.5000535297135" fill="white"/>
        <ellipse cx="90.55102" cy="396.5" rx="35.5510772152062" ry="33.5000535297135" stroke="#506fff" stroke-linecap="round" stroke-linejoin="round" stroke-width="7"/>
      </g>
      <g id="Graphic_11">
        <ellipse cx="226.55102" cy="395.5" rx="35.5510772152062" ry="33.5000535297135" fill="white"/>
        <ellipse cx="226.55102" cy="395.5" rx="35.5510772152062" ry="33.5000535297135" stroke="#506fff" stroke-linecap="round" stroke-linejoin="round" stroke-width="7"/>
      </g>
      <g id="Graphic_12">
        <ellipse cx="400.551" cy="396.5" rx="35.5510772152062" ry="33.5000535297135" fill="white"/>
        <ellipse cx="400.551" cy="396.5" rx="35.5510772152062" ry="33.5000535297135" stroke="#506fff" stroke-linecap="round" stroke-linejoin="round" stroke-width="7"/>
      </g>
      <g id="Graphic_13">
        <ellipse cx="542.551" cy="396.5" rx="35.5510772152062" ry="33.5000535297135" fill="white"/>
        <ellipse cx="542.551" cy="396.5" rx="35.5510772152062" ry="33.5000535297135" stroke="#506fff" stroke-linecap="round" stroke-linejoin="round" stroke-width="7"/>
      </g>
      <g id="Graphic_14">
        <ellipse cx="717.551" cy="396.5" rx="35.5510772152062" ry="33.5000535297135" fill="white"/>
        <ellipse cx="717.551" cy="396.5" rx="35.5510772152062" ry="33.5000535297135" stroke="#506fff" stroke-linecap="round" stroke-linejoin="round" stroke-width="7"/>
      </g>
      <g id="Graphic_10">
        <ellipse cx="90.55102" cy="396.5" rx="35.5510772152062" ry="33.5000535297135" fill="#76bdff" fill-opacity=".50282"/>
        <ellipse cx="90.55102" cy="396.5" rx="35.5510772152062" ry="33.5000535297135" stroke="#506fff" stroke-linecap="round" stroke-linejoin="round" stroke-width="7"/>
      </g>
      <g id="Line_4">
        <line x1="46" y1="396" x2="774" y2="396" stroke="#003776" stroke-linecap="round" stroke-linejoin="round" stroke-width="7"/>
      </g>
      <g id="Graphic_2">
        <path d="M 91.62332 422.01277 L 97.52891 359.85546 C 97.54482 359.68795 97.56309 359.52067 97.58369 359.35368 L 109.91296 259.43268 C 110.04112 258.394 110.25962 257.3685 110.56598 256.36778 L 127.80878 200.04537 C 128.14026 198.96264 128.57316 197.9136 129.10173 196.9122 L 147.13628 162.74522 C 147.13628 162.74522 171.6142 164.06642 172.24184 164.06642 C 172.86948 164.06642 188.56046 207.66606 188.56046 207.66606 L 201.11324 245.9809 C 201.11324 245.9809 209.9002 322.61056 210.52783 323.93176 C 211.15547 325.25296 221.1977 407.16742 221.82534 411.13103 C 222.45298 415.09463 229.98464 489.0819 230.61228 491.7243 C 231.23992 494.3667 243.7927 592.1356 244.42035 594.778 C 245.04798 597.4204 264.5048 675.37125 265.13244 676.69245 C 265.76008 678.01365 287.72745 733.5041 288.3551 734.8253 C 288.98273 736.1465 311.57774 729.5405 312.20537 729.5405 C 312.833 729.5405 332.91747 696.5105 332.91747 696.5105 C 332.91747 696.5105 358.02303 605.3476 358.65067 604.0264 C 359.2783 602.7052 378.73512 535.3239 379.36276 532.6815 C 379.9904 530.0391 395.6814 457.37307 395.6814 457.37307 L 402.44316 425.0236 C 402.53796 424.57006 402.6152 424.11303 402.67475 423.65353 L 411.469 355.7755 C 411.76494 353.49125 410.1941 351.38456 407.92035 351.01638 L 407.92035 351.01638 C 405.6551 350.64958 403.51337 352.16445 403.10473 354.4225 L 398.8196 378.101 C 398.8196 378.101 393.79846 420.37944 393.17083 420.37944 C 392.5432 420.37944 385.0115 458.69427 385.0115 460.01547 C 385.0115 461.33667 380.61804 495.6879 379.9904 497.0091 C 379.36276 498.3303 369.94818 545.89354 369.32054 547.21474 C 368.6929 548.53594 361.78887 576.28116 361.16123 577.6024 C 360.5336 578.9236 346.72553 630.4504 346.72553 630.4504 L 336.22775 661.6478 C 336.11305 661.9887 335.98816 662.326 335.85325 662.6594 L 323.922 692.143 C 322.4295 695.8312 319.75702 698.921 316.32234 700.92935 L 310.53173 704.3153 C 310.39222 704.3969 310.2516 704.4766 310.10996 704.5544 L 295.88676 712.3649 C 295.88676 712.3649 284.58925 703.1165 284.58925 701.7953 C 284.58925 700.4741 272.03647 670.08644 272.03647 668.76524 C 272.03647 667.44404 265.76008 634.414 265.76008 634.414 C 265.76008 634.414 258.2284 582.8872 258.2284 581.566 C 258.2284 580.2448 246.30326 514.1847 246.30326 514.1847 C 246.30326 514.1847 242.53743 471.9063 241.9098 471.9063 C 241.28215 471.9063 235.00576 423.02184 235.00576 423.02184 L 230.66295 370.7832 C 230.62918 370.37704 230.58163 369.97216 230.52038 369.56924 L 220.57006 304.11374 C 220.57006 304.11374 213.0384 238.05369 213.0384 235.41128 C 213.0384 232.76888 199.23033 178.59964 199.23033 178.59964 L 182.66427 154.54992 C 181.58086 152.97707 180.25402 151.58668 178.73356 150.4309 L 165.56563 140.42128 C 161.07384 137.00684 155.24094 135.89614 149.80864 137.42083 L 130.19002 142.9272 C 130.19002 142.9272 113.24376 181.24204 112.61612 181.24204 C 111.98848 181.24204 101.94626 240.6961 101.94626 240.6961 C 101.94626 240.6961 94.41459 309.39854 93.78695 309.39854 C 93.15931 309.39854 85 388.6706 85 388.6706 L 85 409.93704 C 85 411.60573 85.23204 413.2663 85.68945 414.8711 L 87.82438 422.36124 C 88.11822 423.39216 89.19216 423.9897 90.22308 423.69583 C 90.99189 423.4767 91.54771 422.8086 91.62332 422.01277 Z" fill="black"/>
        <path d="M 91.62332 422.01277 L 97.52891 359.85546 C 97.54482 359.68795 97.56309 359.52067 97.58369 359.35368 L 109.91296 259.43268 C 110.04112 258.394 110.25962 257.3685 110.56598 256.36778 L 127.80878 200.04537 C 128.14026 198.96264 128.57316 197.9136 129.10173 196.9122 L 147.13628 162.74522 C 147.13628 162.74522 171.6142 164.06642 172.24184 164.06642 C 172.86948 164.06642 188.56046 207.66606 188.56046 207.66606 L 201.11324 245.9809 C 201.11324 245.9809 209.9002 322.61056 210.52783 323.93176 C 211.15547 325.25296 221.1977 407.16742 221.82534 411.13103 C 222.45298 415.09463 229.98464 489.0819 230.61228 491.7243 C 231.23992 494.3667 243.7927 592.1356 244.42035 594.778 C 245.04798 597.4204 264.5048 675.37125 265.13244 676.69245 C 265.76008 678.01365 287.72745 733.5041 288.3551 734.8253 C 288.98273 736.1465 311.57774 729.5405 312.20537 729.5405 C 312.833 729.5405 332.91747 696.5105 332.91747 696.5105 C 332.91747 696.5105 358.02303 605.3476 358.65067 604.0264 C 359.2783 602.7052 378.73512 535.3239 379.36276 532.6815 C 379.9904 530.0391 395.6814 457.37307 395.6814 457.37307 L 402.44316 425.0236 C 402.53796 424.57006 402.6152 424.11303 402.67475 423.65353 L 411.469 355.7755 C 411.76494 353.49125 410.1941 351.38456 407.92035 351.01638 L 407.92035 351.01638 C 405.6551 350.64958 403.51337 352.16445 403.10473 354.4225 L 398.8196 378.101 C 398.8196 378.101 393.79846 420.37944 393.17083 420.37944 C 392.5432 420.37944 385.0115 458.69427 385.0115 460.01547 C 385.0115 461.33667 380.61804 495.6879 379.9904 497.0091 C 379.36276 498.3303 369.94818 545.89354 369.32054 547.21474 C 368.6929 548.53594 361.78887 576.28116 361.16123 577.6024 C 360.5336 578.9236 346.72553 630.4504 346.72553 630.4504 L 336.22775 661.6478 C 336.11305 661.9887 335.98816 662.326 335.85325 662.6594 L 323.922 692.143 C 322.4295 695.8312 319.75702 698.921 316.32234 700.92935 L 310.53173 704.3153 C 310.39222 704.3969 310.2516 704.4766 310.10996 704.5544 L 295.88676 712.3649 C 295.88676 712.3649 284.58925 703.1165 284.58925 701.7953 C 284.58925 700.4741 272.03647 670.08644 272.03647 668.76524 C 272.03647 667.44404 265.76008 634.414 265.76008 634.414 C 265.76008 634.414 258.2284 582.8872 258.2284 581.566 C 258.2284 580.2448 246.30326 514.1847 246.30326 514.1847 C 246.30326 514.1847 242.53743 471.9063 241.9098 471.9063 C 241.28215 471.9063 235.00576 423.02184 235.00576 423.02184 L 230.66295 370.7832 C 230.62918 370.37704 230.58163 369.97216 230.52038 369.56924 L 220.57006 304.11374 C 220.57006 304.11374 213.0384 238.05369 213.0384 235.41128 C 213.0384 232.76888 199.23033 178.59964 199.23033 178.59964 L 182.66427 154.54992 C 181.58086 152.97707 180.25402 151.58668 178.73356 150.4309 L 165.56563 140.42128 C 161.07384 137.00684 155.24094 135.89614 149.80864 137.42083 L 130.19002 142.9272 C 130.19002 142.9272 113.24376 181.24204 112.61612 181.24204 C 111.98848 181.24204 101.94626 240.6961 101.94626 240.6961 C 101.94626 240.6961 94.41459 309.39854 93.78695 309.39854 C 93.15931 309.39854 85 388.6706 85 388.6706 L 85 409.93704 C 85 411.60573 85.23204 413.2663 85.68945 414.8711 L 87.82438 422.36124 C 88.11822 423.39216 89.19216 423.9897 90.22308 423.69583 C 90.99189 423.4767 91.54771 422.8086 91.62332 422.01277 Z" stroke="black" stroke-linecap="round" stroke-linejoin="round" stroke-width="3"/>
      </g>
      <g id="Graphic_3">
        <path d="M 395.92135 428.707 L 412.3137 360.59765 C 412.47295 359.93587 412.59456 359.2656 412.6779 358.59004 L 424.91296 259.43268 C 425.0411 258.394 425.2596 257.3685 425.566 256.36778 L 442.8088 200.04537 C 443.14026 198.96264 443.57316 197.9136 444.10173 196.9122 L 462.1363 162.74522 C 462.1363 162.74522 486.6142 164.06642 487.24184 164.06642 C 487.8695 164.06642 503.56046 207.66606 503.56046 207.66606 L 516.11324 245.9809 C 516.11324 245.9809 524.9002 322.61056 525.5278 323.93176 C 526.1555 325.25296 536.1977 407.16742 536.82534 411.13103 C 537.453 415.09463 544.98464 489.0819 545.6123 491.7243 C 546.2399 494.3667 558.7927 592.1356 559.42035 594.778 C 560.048 597.4204 579.5048 675.37125 580.13244 676.69245 C 580.7601 678.01365 602.72745 733.5041 603.3551 734.8253 C 603.9827 736.1465 626.5777 729.5405 627.2054 729.5405 C 627.833 729.5405 647.9175 696.5105 647.9175 696.5105 C 647.9175 696.5105 673.023 605.3476 673.6507 604.0264 C 674.2783 602.7052 693.7351 535.3239 694.3628 532.6815 C 694.9904 530.0391 710.6814 457.37307 710.6814 457.37307 L 717.4432 425.0236 C 717.538 424.57006 717.6152 424.11303 717.67475 423.65353 L 726.469 355.7755 C 726.76494 353.49125 725.1941 351.38456 722.92035 351.01638 L 722.92035 351.01638 C 720.6551 350.64958 718.5134 352.16445 718.1047 354.4225 L 713.8196 378.101 C 713.8196 378.101 708.7985 420.37944 708.1708 420.37944 C 707.5432 420.37944 700.0115 458.69427 700.0115 460.01547 C 700.0115 461.33667 695.61804 495.6879 694.9904 497.0091 C 694.3628 498.3303 684.9482 545.89354 684.3205 547.21474 C 683.6929 548.53594 676.7889 576.28116 676.1612 577.6024 C 675.5336 578.9236 661.7255 630.4504 661.7255 630.4504 L 651.22775 661.6478 C 651.11305 661.9887 650.9882 662.326 650.85325 662.6594 L 638.922 692.143 C 637.4295 695.8312 634.757 698.921 631.32234 700.92935 L 625.5317 704.3153 C 625.3922 704.3969 625.2516 704.4766 625.10996 704.5544 L 610.88676 712.3649 C 610.88676 712.3649 599.58925 703.1165 599.58925 701.7953 C 599.58925 700.4741 587.0365 670.08644 587.0365 668.76524 C 587.0365 667.44404 580.7601 634.414 580.7601 634.414 C 580.7601 634.414 573.2284 582.8872 573.2284 581.566 C 573.2284 580.2448 561.30326 514.1847 561.30326 514.1847 C 561.30326 514.1847 557.5374 471.9063 556.9098 471.9063 C 556.28215 471.9063 550.00576 423.02184 550.00576 423.02184 L 545.66295 370.7832 C 545.6292 370.37704 545.5816 369.97216 545.5204 369.56924 L 535.57006 304.11374 C 535.57006 304.11374 528.0384 238.05369 528.0384 235.41128 C 528.0384 232.76888 514.2303 178.59964 514.2303 178.59964 L 497.6643 154.54992 C 496.58086 152.97707 495.254 151.58668 493.73356 150.4309 L 480.5656 140.42128 C 476.07384 137.00684 470.24094 135.89614 464.80864 137.42083 L 445.19 142.9272 C 445.19 142.9272 428.24376 181.24204 427.6161 181.24204 C 426.9885 181.24204 416.94626 240.6961 416.94626 240.6961 C 416.94626 240.6961 409.4146 309.39854 408.78695 309.39854 C 408.1593 309.39854 400 388.6706 400 388.6706 L 400 410.27253 C 400 411.7204 399.8253 413.16293 399.47973 414.5689 L 396 428.7261 C 395.99466 428.7478 395.97274 428.7611 395.95104 428.75576 C 395.9294 428.75044 395.91614 428.72864 395.92135 428.707 Z" fill="black"/>
        <path d="M 395.92135 428.707 L 412.3137 360.59765 C 412.47295 359.93587 412.59456 359.2656 412.6779 358.59004 L 424.91296 259.43268 C 425.0411 258.394 425.2596 257.3685 425.566 256.36778 L 442.8088 200.04537 C 443.14026 198.96264 443.57316 197.9136 444.10173 196.9122 L 462.1363 162.74522 C 462.1363 162.74522 486.6142 164.06642 487.24184 164.06642 C 487.8695 164.06642 503.56046 207.66606 503.56046 207.66606 L 516.11324 245.9809 C 516.11324 245.9809 524.9002 322.61056 525.5278 323.93176 C 526.1555 325.25296 536.1977 407.16742 536.82534 411.13103 C 537.453 415.09463 544.98464 489.0819 545.6123 491.7243 C 546.2399 494.3667 558.7927 592.1356 559.42035 594.778 C 560.048 597.4204 579.5048 675.37125 580.13244 676.69245 C 580.7601 678.01365 602.72745 733.5041 603.3551 734.8253 C 603.9827 736.1465 626.5777 729.5405 627.2054 729.5405 C 627.833 729.5405 647.9175 696.5105 647.9175 696.5105 C 647.9175 696.5105 673.023 605.3476 673.6507 604.0264 C 674.2783 602.7052 693.7351 535.3239 694.3628 532.6815 C 694.9904 530.0391 710.6814 457.37307 710.6814 457.37307 L 717.4432 425.0236 C 717.538 424.57006 717.6152 424.11303 717.67475 423.65353 L 726.469 355.7755 C 726.76494 353.49125 725.1941 351.38456 722.92035 351.01638 L 722.92035 351.01638 C 720.6551 350.64958 718.5134 352.16445 718.1047 354.4225 L 713.8196 378.101 C 713.8196 378.101 708.7985 420.37944 708.1708 420.37944 C 707.5432 420.37944 700.0115 458.69427 700.0115 460.01547 C 700.0115 461.33667 695.61804 495.6879 694.9904 497.0091 C 694.3628 498.3303 684.9482 545.89354 684.3205 547.21474 C 683.6929 548.53594 676.7889 576.28116 676.1612 577.6024 C 675.5336 578.9236 661.7255 630.4504 661.7255 630.4504 L 651.22775 661.6478 C 651.11305 661.9887 650.9882 662.326 650.85325 662.6594 L 638.922 692.143 C 637.4295 695.8312 634.757 698.921 631.32234 700.92935 L 625.5317 704.3153 C 625.3922 704.3969 625.2516 704.4766 625.10996 704.5544 L 610.88676 712.3649 C 610.88676 712.3649 599.58925 703.1165 599.58925 701.7953 C 599.58925 700.4741 587.0365 670.08644 587.0365 668.76524 C 587.0365 667.44404 580.7601 634.414 580.7601 634.414 C 580.7601 634.414 573.2284 582.8872 573.2284 581.566 C 573.2284 580.2448 561.30326 514.1847 561.30326 514.1847 C 561.30326 514.1847 557.5374 471.9063 556.9098 471.9063 C 556.28215 471.9063 550.00576 423.02184 550.00576 423.02184 L 545.66295 370.7832 C 545.6292 370.37704 545.5816 369.97216 545.5204 369.56924 L 535.57006 304.11374 C 535.57006 304.11374 528.0384 238.05369 528.0384 235.41128 C 528.0384 232.76888 514.2303 178.59964 514.2303 178.59964 L 497.6643 154.54992 C 496.58086 152.97707 495.254 151.58668 493.73356 150.4309 L 480.5656 140.42128 C 476.07384 137.00684 470.24094 135.89614 464.80864 137.42083 L 445.19 142.9272 C 445.19 142.9272 428.24376 181.24204 427.6161 181.24204 C 426.9885 181.24204 416.94626 240.6961 416.94626 240.6961 C 416.94626 240.6961 409.4146 309.39854 408.78695 309.39854 C 408.1593 309.39854 400 388.6706 400 388.6706 L 400 410.27253 C 400 411.7204 399.8253 413.16293 399.47973 414.5689 L 396 428.7261 C 395.99466 428.7478 395.97274 428.7611 395.95104 428.75576 C 395.9294 428.75044 395.91614 428.72864 395.92135 428.707 Z" stroke="black" stroke-linecap="round" stroke-linejoin="round" stroke-width="3"/>
      </g>
      <g id="Graphic_6">
        <ellipse cx="226.55102" cy="396.5" rx="35.5510772152062" ry="33.5000535297135" fill="#76bdff" fill-opacity=".50282"/>
        <ellipse cx="226.55102" cy="396.5" rx="35.5510772152062" ry="33.5000535297135" stroke="#506fff" stroke-linecap="round" stroke-linejoin="round" stroke-width="7"/>
      </g>
      <g id="Graphic_7">
        <ellipse cx="400.551" cy="396.5" rx="35.5510772152062" ry="33.5000535297135" fill="#76bdff" fill-opacity=".50282"/>
        <ellipse cx="400.551" cy="396.5" rx="35.5510772152062" ry="33.5000535297135" stroke="#506fff" stroke-linecap="round" stroke-linejoin="round" stroke-width="7"/>
      </g>
      <g id="Graphic_8">
        <ellipse cx="542.551" cy="396.5" rx="35.5510772152062" ry="33.5000535297135" fill="#76bdff" fill-opacity=".50282"/>
        <ellipse cx="542.551" cy="396.5" rx="35.5510772152062" ry="33.5000535297135" stroke="#506fff" stroke-linecap="round" stroke-linejoin="round" stroke-width="7"/>
      </g>
      <g id="Graphic_9">
        <ellipse cx="717.551" cy="396.5" rx="35.5510772152062" ry="33.5000535297135" fill="#76bdff" fill-opacity=".50282"/>
        <ellipse cx="717.551" cy="396.5" rx="35.5510772152062" ry="33.5000535297135" stroke="#506fff" stroke-linecap="round" stroke-linejoin="round" stroke-width="7"/>
      </g>
    </g>
  </g>
</svg>
