<?xml version="1.0" encoding="UTF-8" standalone="no"?>
<!DOCTYPE svg PUBLIC "-//W3C//DTD SVG 1.1//EN" "http://www.w3.org/Graphics/SVG/1.1/DTD/svg11.dtd">
<svg version="1.1" xmlns:dc="http://purl.org/dc/elements/1.1/" xmlns="http://www.w3.org/2000/svg" xmlns:xl="http://www.w3.org/1999/xlink" viewBox="0 0 850.394 850.394" width="850.394" height="850.394">
  <defs/>
  <metadata> Produced by OmniGraffle 7.9.4 
    <dc:date>2019-03-13 11:33:14 +0000</dc:date>
  </metadata>
  <g id="Conductor_2" fill="none" stroke-dasharray="none" stroke-opacity="1" fill-opacity="1" stroke="none">
    <title>Conductor 2</title>
    <g id="Conductor_2: Layer 1">
      <title>Layer 1</title>
      <g id="Graphic_49">
        <path d="M 409.98243 316.9181 L 405.02984 396.1595 L 345.5988 440.7328 L 275.27205 450.63797 L 410.97295 759.6794 L 523.197 774.1716 L 628.197 769.1716 L 484.27124 361.4914 L 430.7833 318.89915 Z" fill="#cbcbcb"/>
        <path d="M 409.98243 316.9181 L 405.02984 396.1595 L 345.5988 440.7328 L 275.27205 450.63797 L 410.97295 759.6794 L 523.197 774.1716 L 628.197 769.1716 L 484.27124 361.4914 L 430.7833 318.89915 Z" stroke="black" stroke-linecap="round" stroke-linejoin="round" stroke-width="6"/>
      </g>
      <g id="Graphic_46">
        <path d="M 418.8971 482.33453 C 419.8876 482.33453 460.4988 513.0406 460.4988 513.0406 L 481.2997 539.78455 C 481.2997 539.78455 521.9109 583.3673 521.9109 584.35783 C 521.9109 585.34835 547.66436 613.08284 547.66436 613.08284 L 561.9951 629.802 C 564.30906 632.50165 566.1247 635.5911 567.3572 638.9263 L 581.9984 678.5435 C 582.22106 679.146 582.463 679.7412 582.7239 680.3282 L 602.0916 723.9056 C 602.12576 723.9824 602.1602 724.05905 602.195 724.13555 L 604.6191 729.46865 C 605.4826 731.36825 604.6426 733.60815 602.743 734.4716 C 602.2313 734.7042 601.67414 734.8197 601.1121 734.80965 L 566.42096 734.1902 C 557.0943 734.0236 548.37585 729.5281 542.8313 722.0267 L 519.2077 690.0653 C 518.3695 688.9313 517.6123 687.7396 516.94176 686.4991 L 498.1385 651.713 C 498.1385 651.713 452.5747 606.1492 452.5747 605.1587 C 452.5747 604.1682 418.8971 574.45266 418.8971 574.45266 L 399.9567 535.62486 C 399.37736 534.4372 398.8771 533.2126 398.45925 531.959 L 391.7116 511.716 C 390.6919 508.657 390.1721 505.4536 390.1721 502.22914 L 390.1721 501.6496 C 390.1721 498.225 391.80364 495.0053 394.56525 492.9801 L 405.02984 485.3061 C 405.02984 485.3061 417.90657 482.33453 418.8971 482.33453 Z" fill="#666"/>
        <path d="M 418.8971 482.33453 C 419.8876 482.33453 460.4988 513.0406 460.4988 513.0406 L 481.2997 539.78455 C 481.2997 539.78455 521.9109 583.3673 521.9109 584.35783 C 521.9109 585.34835 547.66436 613.08284 547.66436 613.08284 L 561.9951 629.802 C 564.30906 632.50165 566.1247 635.5911 567.3572 638.9263 L 581.9984 678.5435 C 582.22106 679.146 582.463 679.7412 582.7239 680.3282 L 602.0916 723.9056 C 602.12576 723.9824 602.1602 724.05905 602.195 724.13555 L 604.6191 729.46865 C 605.4826 731.36825 604.6426 733.60815 602.743 734.4716 C 602.2313 734.7042 601.67414 734.8197 601.1121 734.80965 L 566.42096 734.1902 C 557.0943 734.0236 548.37585 729.5281 542.8313 722.0267 L 519.2077 690.0653 C 518.3695 688.9313 517.6123 687.7396 516.94176 686.4991 L 498.1385 651.713 C 498.1385 651.713 452.5747 606.1492 452.5747 605.1587 C 452.5747 604.1682 418.8971 574.45266 418.8971 574.45266 L 399.9567 535.62486 C 399.37736 534.4372 398.8771 533.2126 398.45925 531.959 L 391.7116 511.716 C 390.6919 508.657 390.1721 505.4536 390.1721 502.22914 L 390.1721 501.6496 C 390.1721 498.225 391.80364 495.0053 394.56525 492.9801 L 405.02984 485.3061 C 405.02984 485.3061 417.90657 482.33453 418.8971 482.33453 Z" stroke="black" stroke-linecap="round" stroke-linejoin="round" stroke-width="5"/>
      </g>
      <g id="Graphic_45">
        <path d="M 370.36173 433.7992 L 368.3807 485.3061 C 368.3807 485.3061 357.485 505.11643 356.4945 506.10695 C 355.50397 507.0975 345.5988 544.73713 345.5988 544.73713 L 321.82637 502.1449 L 303.00654 485.3061 L 286.16774 469.4578 L 274.28153 450.63797 L 281.21516 449.64745 L 320.83586 448.65694 L 350.5514 433.7992 Z" fill="#cbcbcb"/>
        <path d="M 370.36173 433.7992 L 368.3807 485.3061 C 368.3807 485.3061 357.485 505.11643 356.4945 506.10695 C 355.50397 507.0975 345.5988 544.73713 345.5988 544.73713 L 321.82637 502.1449 L 303.00654 485.3061 L 286.16774 469.4578 L 274.28153 450.63797 L 281.21516 449.64745 L 320.83586 448.65694 L 350.5514 433.7992 Z" stroke="black" stroke-linecap="round" stroke-linejoin="round" stroke-width="5"/>
      </g>
      <g id="Graphic_44">
        <path d="M 408.0014 461.53366 L 416.91605 474.4104 C 416.91605 474.4104 437.2454 486.8479 438.70744 486.2966 C 440.16947 485.7453 460.4988 478.37246 460.4988 478.37246 L 439.69796 461.53366 L 436.7264 436.77073 L 440.6885 405.07417 L 438.70744 373.3776 L 418.8971 328.80432 L 410.97295 405.07417 L 367.3902 433.7992 Z" fill="#cbcbcb"/>
        <path d="M 408.0014 461.53366 L 416.91605 474.4104 C 416.91605 474.4104 437.2454 486.8479 438.70744 486.2966 C 440.16947 485.7453 460.4988 478.37246 460.4988 478.37246 L 439.69796 461.53366 L 436.7264 436.77073 L 440.6885 405.07417 L 438.70744 373.3776 L 418.8971 328.80432 L 410.97295 405.07417 L 367.3902 433.7992 Z" stroke="black" stroke-linecap="round" stroke-linejoin="round" stroke-width="5"/>
      </g>
      <g id="Graphic_43">
        <path d="M 389.18156 433.7992 L 367.3902 432.80866 L 363.4281 465.49573 L 376.30484 496.2018 L 388.19105 502.1449 L 408.9919 483.32505 L 421.86864 483.32505 L 404.03933 454.60004 L 398.0962 441.7233 Z" fill="#333"/>
        <path d="M 389.18156 433.7992 L 367.3902 432.80866 L 363.4281 465.49573 L 376.30484 496.2018 L 388.19105 502.1449 L 408.9919 483.32505 L 421.86864 483.32505 L 404.03933 454.60004 L 398.0962 441.7233 Z" stroke="black" stroke-linecap="round" stroke-linejoin="round" stroke-width="4"/>
      </g>
      <g id="Graphic_42">
        <path d="M 246.54704 418.9414 L 309.94016 494.22074 L 343.61776 530.8699 L 390.1721 625.9596 L 415.92554 713.1251 L 481.2997 758.6889 L 512.00573 769.5846 L 410.197 769.1716 L 363.197 769.1716 L 318.85482 712.1346 L 373.3333 760.66995 L 315.88327 709.163 Z" fill="#333"/>
        <path d="M 246.54704 418.9414 L 309.94016 494.22074 L 343.61776 530.8699 L 390.1721 625.9596 L 415.92554 713.1251 L 481.2997 758.6889 L 512.00573 769.5846 L 410.197 769.1716 L 363.197 769.1716 L 318.85482 712.1346 L 373.3333 760.66995 L 315.88327 709.163 Z" stroke="black" stroke-linecap="round" stroke-linejoin="round" stroke-width="5"/>
      </g>
      <g id="Graphic_41">
        <path d="M 176.86716 323.32713 L 141.47851 349.4473 C 139.57367 350.85327 138.02867 352.69015 136.96989 354.80772 L 107.24254 414.2624 C 106.35213 416.04323 105.82516 417.9835 105.69236 419.97007 L 100.31673 500.3807 C 100.23719 501.5704 100.2998 502.7654 100.50322 503.9403 L 115.79873 592.282 C 115.79873 592.282 160 700.0095 160 701 C 160 701.9905 183 755 183 755 C 183 755 207.00948 778 208 778 C 208.99052 778 280.22464 771.5656 280.22464 771.5656 L 344.68502 771.5656 C 345.94947 771.5656 347.20885 771.4058 348.4332 771.0898 L 361.94233 767.6036 C 366.71247 766.3726 369.5815 761.5077 368.3505 756.73755 C 367.94236 755.156 367.1078 753.7169 365.93785 752.5771 L 317.07765 704.9779 C 315.19054 703.1395 313.8209 700.8365 313.1066 698.3007 L 294.197 631.17164 C 294.197 631.17164 292.11085 552.6613 292.11085 551.67076 C 292.11085 550.68024 274.28153 494.22074 274.28153 494.22074 L 256.5111 448.8074 C 256.47185 448.7071 256.43368 448.60637 256.3966 448.50524 L 224.68627 362.02253 C 224.077 360.36087 223.17845 358.82014 222.03222 357.47163 L 193.31108 323.68205 C 191.29243 321.30717 188.2364 320.07478 185.13496 320.38492 L 184.28238 320.47018 C 181.59875 320.73854 179.0371 321.7255 176.86716 323.32713 Z" fill="#333"/>
        <path d="M 176.86716 323.32713 L 141.47851 349.4473 C 139.57367 350.85327 138.02867 352.69015 136.96989 354.80772 L 107.24254 414.2624 C 106.35213 416.04323 105.82516 417.9835 105.69236 419.97007 L 100.31673 500.3807 C 100.23719 501.5704 100.2998 502.7654 100.50322 503.9403 L 115.79873 592.282 C 115.79873 592.282 160 700.0095 160 701 C 160 701.9905 183 755 183 755 C 183 755 207.00948 778 208 778 C 208.99052 778 280.22464 771.5656 280.22464 771.5656 L 344.68502 771.5656 C 345.94947 771.5656 347.20885 771.4058 348.4332 771.0898 L 361.94233 767.6036 C 366.71247 766.3726 369.5815 761.5077 368.3505 756.73755 C 367.94236 755.156 367.1078 753.7169 365.93785 752.5771 L 317.07765 704.9779 C 315.19054 703.1395 313.8209 700.8365 313.1066 698.3007 L 294.197 631.17164 C 294.197 631.17164 292.11085 552.6613 292.11085 551.67076 C 292.11085 550.68024 274.28153 494.22074 274.28153 494.22074 L 256.5111 448.8074 C 256.47185 448.7071 256.43368 448.60637 256.3966 448.50524 L 224.68627 362.02253 C 224.077 360.36087 223.17845 358.82014 222.03222 357.47163 L 193.31108 323.68205 C 191.29243 321.30717 188.2364 320.07478 185.13496 320.38492 L 184.28238 320.47018 C 181.59875 320.73854 179.0371 321.7255 176.86716 323.32713 Z" stroke="black" stroke-linecap="round" stroke-linejoin="round" stroke-width="9"/>
      </g>
      <g id="Graphic_51">
        <path d="M 386.197 229.56564 L 442.197 261.17164 L 534.197 270.56564 L 644.197 300.17164 C 644.197 300.17164 689.197 327.56564 689.197 328.56564 C 689.197 329.56564 740.197 429.56564 740.197 429.56564 C 740.197 429.56564 754.197 557.56564 754.197 558.56564 C 754.197 559.56564 765.197 673.56564 765.197 674.56564 C 765.197 675.56564 767.197 763.5656 767.197 763.5656 L 767.197 771.5656 L 690.197 767.5656 L 676.197 644.56564 L 631.197 499.56564 L 605.197 420.56564 L 651.197 549.56564 L 697.197 769.5656 L 622.197 770.5656 L 589.197 706.56564 L 559.197 622.56564 L 520.197 499.56564 L 495.197 414.56564 L 467.197 367.56564 L 429.197 328.56564 L 403.197 316.56564 L 383.197 293.56564 Z" fill="#333"/>
        <path d="M 386.197 229.56564 L 442.197 261.17164 L 534.197 270.56564 L 644.197 300.17164 C 644.197 300.17164 689.197 327.56564 689.197 328.56564 C 689.197 329.56564 740.197 429.56564 740.197 429.56564 C 740.197 429.56564 754.197 557.56564 754.197 558.56564 C 754.197 559.56564 765.197 673.56564 765.197 674.56564 C 765.197 675.56564 767.197 763.5656 767.197 763.5656 L 767.197 771.5656 L 690.197 767.5656 L 676.197 644.56564 L 631.197 499.56564 L 605.197 420.56564 L 651.197 549.56564 L 697.197 769.5656 L 622.197 770.5656 L 589.197 706.56564 L 559.197 622.56564 L 520.197 499.56564 L 495.197 414.56564 L 467.197 367.56564 L 429.197 328.56564 L 403.197 316.56564 L 383.197 293.56564 Z" stroke="black" stroke-linecap="round" stroke-linejoin="round" stroke-width="9"/>
      </g>
      <g id="Graphic_40">
        <path d="M 411.96347 314.93708 L 413.9445 358.51985 C 413.9445 358.51985 413.9445 375.35864 413.9445 376.34916 C 413.9445 377.3397 404.03933 407.0552 404.03933 407.0552 L 361.44707 431.81814 L 332.72207 439.7423 L 292.11085 441.7233 L 250.5091 409.03624 Z" fill="#ffefc6"/>
        <path d="M 411.96347 314.93708 L 413.9445 358.51985 C 413.9445 358.51985 413.9445 375.35864 413.9445 376.34916 C 413.9445 377.3397 404.03933 407.0552 404.03933 407.0552 L 361.44707 431.81814 L 332.72207 439.7423 L 292.11085 441.7233 L 250.5091 409.03624 Z" stroke="black" stroke-linecap="round" stroke-linejoin="round" stroke-width="4"/>
      </g>
      <g id="Graphic_39">
        <path d="M 189.09703 159.42583 L 184.14444 197.0655 L 183.15392 223.80947 C 183.15392 223.80947 183.15392 250.55344 183.15392 251.54396 C 183.15392 252.53447 186.12548 286.21207 186.12548 286.21207 L 186.12548 303.05087 L 195.04013 320.88018 L 209.8979 347.62415 C 209.8979 347.62415 222.77462 360.5009 223.76514 360.5009 C 224.75566 360.5009 229.70825 377.3397 229.70825 377.3397 L 241.59446 412.0078 C 241.59446 412.0078 261.4048 438.75176 262.39532 438.75176 C 263.38584 438.75176 278.2436 452.619 278.2436 452.619 L 309.94016 456.5811 L 332.72207 451.6285 L 356.4945 432.80866 L 368.3807 412.0078 C 368.3807 412.0078 377.29535 388.23537 377.29535 387.24485 C 377.29535 386.25434 385.2195 359.51036 385.2195 359.51036 L 398.0962 329.79484 L 404.03933 317.90863 L 411.96347 317.90863 L 425.8307 307.01294 L 431.7738 293.1457 L 436.7264 277.2974 L 439.69796 247.58189 L 437.7169 233.71464 L 428.80226 221.82843 L 412.954 221.82843 L 402.0583 228.76205 L 397.1057 237.6767 L 388.19105 236.6862 L 385.2195 229.75257 L 385.2195 206.97067 L 385.2195 196.07498 L 345.5988 168.34049 L 222.77462 150.51117 L 191.07806 147.53962 Z" fill="#ffefc6"/>
        <path d="M 189.09703 159.42583 L 184.14444 197.0655 L 183.15392 223.80947 C 183.15392 223.80947 183.15392 250.55344 183.15392 251.54396 C 183.15392 252.53447 186.12548 286.21207 186.12548 286.21207 L 186.12548 303.05087 L 195.04013 320.88018 L 209.8979 347.62415 C 209.8979 347.62415 222.77462 360.5009 223.76514 360.5009 C 224.75566 360.5009 229.70825 377.3397 229.70825 377.3397 L 241.59446 412.0078 C 241.59446 412.0078 261.4048 438.75176 262.39532 438.75176 C 263.38584 438.75176 278.2436 452.619 278.2436 452.619 L 309.94016 456.5811 L 332.72207 451.6285 L 356.4945 432.80866 L 368.3807 412.0078 C 368.3807 412.0078 377.29535 388.23537 377.29535 387.24485 C 377.29535 386.25434 385.2195 359.51036 385.2195 359.51036 L 398.0962 329.79484 L 404.03933 317.90863 L 411.96347 317.90863 L 425.8307 307.01294 L 431.7738 293.1457 L 436.7264 277.2974 L 439.69796 247.58189 L 437.7169 233.71464 L 428.80226 221.82843 L 412.954 221.82843 L 402.0583 228.76205 L 397.1057 237.6767 L 388.19105 236.6862 L 385.2195 229.75257 L 385.2195 206.97067 L 385.2195 196.07498 L 345.5988 168.34049 L 222.77462 150.51117 L 191.07806 147.53962 Z" stroke="black" stroke-linecap="round" stroke-linejoin="round" stroke-width="4"/>
      </g>
      <g id="Graphic_38">
        <path d="M 191.07806 146.5491 L 206.92634 173.29307 L 219.80307 180.2267 L 257.44274 180.2267 L 286.16774 180.2267 L 309.94016 188.15084 L 330.74103 178.24566 C 330.74103 178.24566 342.62724 176.26463 343.61776 175.2741 C 344.60828 174.2836 353.52293 180.2267 353.52293 180.2267 L 383.23846 196.07498 C 383.23846 196.07498 382.24794 219.8474 383.23846 219.8474 C 384.229 219.8474 385.2195 253.525 385.2195 253.525 L 394.13415 239.65775 L 407.0109 231.7336 L 418.8971 223.80947 L 421.86864 183.19825 L 396.1152 115.84306 L 390.1721 112.8715 L 367.3902 91.08012 C 367.3902 91.08012 344.60828 86.12753 343.61776 86.12753 C 342.62724 86.12753 321.82637 76.22236 320.83586 76.22236 C 319.84534 76.22236 296.07292 76.22236 295.0824 76.22236 C 294.0919 76.22236 258.43325 76.22236 258.43325 76.22236 L 231.68928 77.212875 L 210.88841 92.07064 L 194.04962 104.94737 C 194.04962 104.94737 165.32461 129.7103 165.32461 130.70082 C 165.32461 131.69134 159.3815 147.53962 159.3815 147.53962 L 168.29616 145.55858 L 168.29616 162.39738 L 167.30564 189.14135 L 165.32461 202.01808 L 178.20134 221.82843 L 185.13496 230.7431 L 185.13496 213.9043 C 185.13496 213.9043 187.116 178.24566 188.10651 178.24566 C 189.09703 178.24566 191.07806 146.5491 191.07806 146.5491 Z" fill="#ffffc0"/>
        <path d="M 191.07806 146.5491 L 206.92634 173.29307 L 219.80307 180.2267 L 257.44274 180.2267 L 286.16774 180.2267 L 309.94016 188.15084 L 330.74103 178.24566 C 330.74103 178.24566 342.62724 176.26463 343.61776 175.2741 C 344.60828 174.2836 353.52293 180.2267 353.52293 180.2267 L 383.23846 196.07498 C 383.23846 196.07498 382.24794 219.8474 383.23846 219.8474 C 384.229 219.8474 385.2195 253.525 385.2195 253.525 L 394.13415 239.65775 L 407.0109 231.7336 L 418.8971 223.80947 L 421.86864 183.19825 L 396.1152 115.84306 L 390.1721 112.8715 L 367.3902 91.08012 C 367.3902 91.08012 344.60828 86.12753 343.61776 86.12753 C 342.62724 86.12753 321.82637 76.22236 320.83586 76.22236 C 319.84534 76.22236 296.07292 76.22236 295.0824 76.22236 C 294.0919 76.22236 258.43325 76.22236 258.43325 76.22236 L 231.68928 77.212875 L 210.88841 92.07064 L 194.04962 104.94737 C 194.04962 104.94737 165.32461 129.7103 165.32461 130.70082 C 165.32461 131.69134 159.3815 147.53962 159.3815 147.53962 L 168.29616 145.55858 L 168.29616 162.39738 L 167.30564 189.14135 L 165.32461 202.01808 L 178.20134 221.82843 L 185.13496 230.7431 L 185.13496 213.9043 C 185.13496 213.9043 187.116 178.24566 188.10651 178.24566 C 189.09703 178.24566 191.07806 146.5491 191.07806 146.5491 Z" stroke="black" stroke-linecap="round" stroke-linejoin="round" stroke-width="4"/>
      </g>
      <g id="Graphic_37">
        <ellipse cx="227.728" cy="293.1457" rx="21.9887497746125" ry="11.5260402254651" fill="white"/>
        <ellipse cx="227.728" cy="293.1457" rx="21.9887497746125" ry="11.5260402254651" stroke="black" stroke-linecap="round" stroke-linejoin="round" stroke-width="1"/>
      </g>
      <g id="Graphic_36">
        <ellipse cx="226.7367" cy="291.36097" rx="6.63957322069949" ry="6.43837403219341" fill="black"/>
        <ellipse cx="226.7367" cy="291.36097" rx="6.63957322069949" ry="6.43837403219341" stroke="black" stroke-linecap="round" stroke-linejoin="round" stroke-width="1"/>
      </g>
      <g id="Graphic_35">
        <path d="M 335.44376 273.9955 C 343.52113 276.49116 345.40996 283.54035 339.66257 289.74033 C 333.91523 295.94033 322.7081 298.94327 314.63077 296.4476 C 306.5534 293.95194 304.66457 286.90275 310.41195 280.70277 C 316.1593 274.50277 327.3664 271.49983 335.44376 273.9955" fill="white"/>
        <path d="M 335.44376 273.9955 C 343.52113 276.49116 345.40996 283.54035 339.66257 289.74033 C 333.91523 295.94033 322.7081 298.94327 314.63077 296.4476 C 306.5534 293.95194 304.66457 286.90275 310.41195 280.70277 C 316.1593 274.50277 327.3664 271.49983 335.44376 273.9955" stroke="black" stroke-linecap="round" stroke-linejoin="round" stroke-width="1"/>
      </g>
      <g id="Graphic_34">
        <path d="M 328.65753 277.69062 C 331.81286 279.4482 332.86794 283.38582 331.01413 286.48558 C 329.16034 289.58535 325.09965 290.6734 321.94433 288.91583 C 318.789 287.15826 317.7339 283.22063 319.58773 280.12087 C 321.44152 277.0211 325.5022 275.93304 328.65753 277.69062" fill="black"/>
        <path d="M 328.65753 277.69062 C 331.81286 279.4482 332.86794 283.38582 331.01413 286.48558 C 329.16034 289.58535 325.09965 290.6734 321.94433 288.91583 C 318.789 287.15826 317.7339 283.22063 319.58773 280.12087 C 321.44152 277.0211 325.5022 275.93304 328.65753 277.69062" stroke="black" stroke-linecap="round" stroke-linejoin="round" stroke-width="1"/>
      </g>
      <g id="Graphic_33">
        <path d="M 384.32636 266.4038 L 377.54352 274.88235 C 373.36615 280.10407 366.8555 282.89256 360.19356 282.31326 L 350.39225 281.46097 C 348.85267 281.3271 347.30275 281.3721 345.77352 281.59512 L 303.71223 287.72906 C 301.60444 288.03645 299.5593 288.67858 297.6541 289.63118 L 293.68925 291.6136 C 291.66123 292.6276 289.47556 293.28938 287.22567 293.5706 L 278.29747 294.68664 C 275.96853 294.97776 273.60654 294.85667 271.31958 294.3289 L 265.53386 292.99374 C 263.13203 292.43947 260.64843 292.33398 258.20825 292.68258 L 206.50031 300.06942 C 206.45416 300.076 206.40803 300.08277 206.36193 300.0897 L 196.5259 301.5651 C 192.12153 302.22575 189.08665 306.33177 189.7473 310.73614 C 189.83315 311.30846 189.98036 311.86988 190.18638 312.4107 L 193.54326 321.2225 C 194.20773 322.96673 195.1131 324.60937 196.23301 326.1026 L 205.22058 338.086 C 209.6278 343.9623 216.90156 346.94986 224.1668 345.8678 L 249.662 342.07065 C 255.53354 341.19616 260.7132 337.75856 263.79975 332.6878 L 271.6207 319.83906 C 272.4016 318.5562 273.0355 317.18944 273.5104 315.76467 L 278.2436 301.5651 C 279.06418 299.10337 281.725 297.77296 284.1867 298.59354 L 284.1867 298.59354 C 287.0407 299.54486 289.39986 301.59096 290.74524 304.28172 L 300.20012 323.19148 C 301.0758 324.94284 302.20393 326.55612 303.5484 327.97968 L 311.28024 336.16633 C 315.72205 340.8694 322.16433 343.13364 328.57187 342.2437 L 348.99133 339.40767 C 352.2903 338.9495 355.4226 337.67467 358.10394 335.69894 L 364.702 330.8372 C 369.818 327.06754 372.83803 321.0909 372.83803 314.7361 L 372.83803 285.8349 C 372.83803 280.97096 374.6105 276.27374 377.82376 272.62233 L 383.7337 265.90646 C 383.8749 265.74603 384.1194 265.73042 384.27983 265.8716 C 384.43496 266.00812 384.45545 266.24244 384.32636 266.4038 Z" stroke="black" stroke-linecap="round" stroke-linejoin="round" stroke-width="0"/>
      </g>
      <g id="Graphic_32">
        <path d="M 385.7179 250.44834 L 374.04656 263.13077 C 369.8488 267.6922 363.7731 270.04926 357.5974 269.51224 L 346.92544 268.58425 C 345.38585 268.45037 343.83594 268.4954 342.3067 268.7184 L 300.2454 274.85234 C 298.13763 275.15972 296.0925 275.80185 294.1873 276.75445 L 290.41866 278.63876 C 288.26282 279.7167 285.9299 280.39604 283.53237 280.64405 L 261.11743 282.96284 C 259.33605 283.14712 257.538 283.0913 255.77147 282.7969 L 247.6297 281.43992 C 246.90848 281.31972 246.1812 281.23915 245.45113 281.1986 L 228.77305 280.27204 C 228.73617 280.27 228.69929 280.26804 228.6624 280.2662 L 209.40644 279.3034 C 209.07379 279.28677 208.74077 279.27845 208.4077 279.27845 L 197.02117 279.27845 C 191.57306 279.27845 187.1565 283.695 187.1565 289.14312 C 187.1565 289.75303 187.21305 290.3616 187.32545 290.96107 L 189.75202 303.90278 C 190.60916 308.47417 193.03274 312.6039 196.60578 315.58143 L 208.64434 325.61357 C 212.6255 328.9312 217.73903 330.574 222.90754 330.1958 L 245.1915 328.5653 C 251.63624 328.0937 257.45605 324.53737 260.81595 319.01755 L 266.6661 309.40658 C 268.41315 306.53643 269.40893 303.27238 269.5615 299.9158 L 269.97035 290.92107 C 270.12557 287.5062 273.0197 284.86372 276.43458 285.01894 C 276.8785 285.03912 277.31897 285.10705 277.74835 285.22155 L 277.74835 285.22155 C 282.40982 286.4646 286.1829 289.88434 287.87683 294.40154 L 292.32418 306.26113 C 293.48455 309.35545 295.3936 312.114 297.88067 314.2902 L 302.89615 318.67874 C 307.35984 322.58447 313.32686 324.3075 319.1855 323.38246 L 342.48873 319.703 C 345.82824 319.1757 348.9796 317.81045 351.6483 315.7348 L 359.18493 309.87295 C 363.1846 306.7621 365.8544 302.2491 366.65493 297.24572 L 369.12003 281.8389 C 369.2872 280.79392 369.3712 279.73733 369.3712 278.67907 L 369.3712 272.84008 C 369.3712 268.08416 371.2639 263.52374 374.63146 260.16543 L 385.0341 249.79142 C 385.21956 249.60648 385.5198 249.6069 385.70476 249.79235 C 385.8841 249.9722 385.8899 250.26144 385.7179 250.44834 Z" stroke="black" stroke-linecap="round" stroke-linejoin="round" stroke-width="4"/>
      </g>
      <g id="Line_31">
        <path d="M 398.3569 259.05104 L 405.55676 245.64535 C 406.86334 243.2126 409.89467 242.29964 412.32743 243.60622 C 412.9357 243.9329 413.4697 244.38203 413.89583 244.9253 L 424.44375 258.37304 C 425.82077 260.12862 425.86794 262.58412 424.55937 264.3913 L 401.4168 296.3519 C 400.2832 297.91743 398.09515 298.26758 396.52963 297.134 C 395.655 296.5007 395.12173 295.4991 395.08453 294.41992 L 394.79947 286.14933 C 394.75684 284.9126 395.17435 283.70398 395.97125 282.75725 L 402.044 275.54266 L 402.044 275.54266" stroke="black" stroke-linecap="round" stroke-linejoin="round" stroke-width="2"/>
      </g>
      <g id="Line_30">
        <path d="M 238.6229 266.40172 L 214.85048 256.91442 L 203.43632 253.525 L 194.64548 261.79736 L 194.64548 261.79736" stroke="black" stroke-linecap="round" stroke-linejoin="round" stroke-width="4"/>
      </g>
      <g id="Line_29">
        <path d="M 301.0255 251.54396 L 324.79793 245.1907 L 336.096 240.64826 L 345.00294 250.12782 L 349.4061 253.525 L 349.4061 253.525" stroke="black" stroke-linecap="round" stroke-linejoin="round" stroke-width="4"/>
      </g>
      <g id="Line_28">
        <path d="M 276.26257 301.06983 L 266.20263 344.6526 L 273.61603 365.4225 L 301.0255 371.14894 L 310.18006 350.3326 L 301.0255 343.6234 L 301.0255 343.6234" stroke="black" stroke-linecap="round" stroke-linejoin="round" stroke-width="3"/>
      </g>
      <g id="Line_27">
        <path d="M 334.7031 388.483 L 309.94016 396.2137 L 286.3225 401.60736 L 259.42377 394.07014 L 259.42377 394.07014" stroke="black" stroke-linecap="round" stroke-linejoin="round" stroke-width="3"/>
      </g>
      <g id="Graphic_26">
        <path d="M 163.33466 284.98067 L 88.96439 518.89806 C 88.11033 521.58435 89.59565 524.4544 92.28193 525.30843 C 94.76775 526.09876 97.44948 524.88754 98.5 522.5 L 136.51278 436.10733 C 136.83718 435.37004 137.10878 434.61063 137.3255 433.83484 L 173.46353 304.477 C 174.23125 301.72888 173.57746 298.7789 171.72053 296.6125 L 171.71152 296.602 C 169.77068 294.33768 168.45966 291.60264 167.91006 288.67144 L 167.2632 285.22155 C 167.05666 284.11997 165.99621 283.3944 164.89463 283.60095 C 164.1603 283.73863 163.56103 284.26867 163.33466 284.98067 Z" fill="#feffff"/>
        <path d="M 163.33466 284.98067 L 88.96439 518.89806 C 88.11033 521.58435 89.59565 524.4544 92.28193 525.30843 C 94.76775 526.09876 97.44948 524.88754 98.5 522.5 L 136.51278 436.10733 C 136.83718 435.37004 137.10878 434.61063 137.3255 433.83484 L 173.46353 304.477 C 174.23125 301.72888 173.57746 298.7789 171.72053 296.6125 L 171.71152 296.602 C 169.77068 294.33768 168.45966 291.60264 167.91006 288.67144 L 167.2632 285.22155 C 167.05666 284.11997 165.99621 283.3944 164.89463 283.60095 C 164.1603 283.73863 163.56103 284.26867 163.33466 284.98067 Z" stroke="black" stroke-linecap="round" stroke-linejoin="round" stroke-width="6"/>
      </g>
      <g id="Graphic_25">
        <path d="M 175.6826 277.2974 L 175.6826 277.2974 C 170.52005 277.2974 166.33498 281.48248 166.33498 286.64503 C 166.33498 287.1209 166.37132 287.59607 166.44368 288.0664 L 167.32012 293.76326 C 168.19738 299.46548 172.1904 304.198 177.66364 306.0224 L 184.69892 308.3675 C 185.44703 308.6169 186.25565 308.21257 186.50502 307.46446 C 186.55355 307.31887 186.5783 307.1664 186.5783 307.01294 L 186.5783 305.0319 L 186.5783 288.1931 C 186.5783 282.17558 181.70013 277.2974 175.6826 277.2974 Z" fill="white"/>
        <path d="M 175.6826 277.2974 L 175.6826 277.2974 C 170.52005 277.2974 166.33498 281.48248 166.33498 286.64503 C 166.33498 287.1209 166.37132 287.59607 166.44368 288.0664 L 167.32012 293.76326 C 168.19738 299.46548 172.1904 304.198 177.66364 306.0224 L 184.69892 308.3675 C 185.44703 308.6169 186.25565 308.21257 186.50502 307.46446 C 186.55355 307.31887 186.5783 307.1664 186.5783 307.01294 L 186.5783 305.0319 L 186.5783 288.1931 C 186.5783 282.17558 181.70013 277.2974 175.6826 277.2974 Z" stroke="black" stroke-linecap="round" stroke-linejoin="round" stroke-width="5"/>
      </g>
    </g>
  </g>
</svg>
