<?xml version="1.0" encoding="UTF-8" standalone="no"?>
<!DOCTYPE svg PUBLIC "-//W3C//DTD SVG 1.1//EN" "http://www.w3.org/Graphics/SVG/1.1/DTD/svg11.dtd">
<svg xmlns:xl="http://www.w3.org/1999/xlink" xmlns:dc="http://purl.org/dc/elements/1.1/" version="1.1" xmlns="http://www.w3.org/2000/svg" viewBox="0 0 850.394 850.394" width="850.394" height="850.394">
  <defs/>
  <metadata> Produced by OmniGraffle 7.9.4 
    <dc:date>2019-05-18 01:59:10 +0000</dc:date>
  </metadata>
  <g id="arcade_button_mono" stroke-dasharray="none" fill-opacity="1" stroke="none" fill="none" stroke-opacity="1">
    <title>arcade button mono</title>
    <g id="arcade_button_mono: Layer 1">
      <title>Layer 1</title>
      <g id="Graphic_9">
        <path d="M 608.3401 498.95094 L 707 677.2578 L 656.2606 661.0481 L 554.7819 492.46705 Z" fill="white"/>
        <path d="M 608.3401 498.95094 L 707 677.2578 L 656.2606 661.0481 L 554.7819 492.46705 Z" stroke="black" stroke-linecap="round" stroke-linejoin="round" stroke-width="11"/>
      </g>
      <g id="Graphic_8">
        <path d="M 441.3139 602.6931 L 554.7819 781 L 496.4269 764.7903 L 379.71696 596.20924 Z" fill="white"/>
        <path d="M 441.3139 602.6931 L 554.7819 781 L 496.4269 764.7903 L 379.71696 596.20924 Z" stroke="black" stroke-linecap="round" stroke-linejoin="round" stroke-width="11"/>
      </g>
      <g id="Graphic_3">
        <path d="M 295.34642 611.1798 L 109.43128 422.0033 C 99.16564 404.2227 136.68656 352.22657 351.5813 228.15702 C 566.4761 104.08748 580.16484 117.98493 590.4305 135.76552 C 590.4305 135.76552 660.8554 409.09423 658.35615 433.20195 C 655.8569 457.3097 760.88535 510.07003 545.9906 634.1396 C 331.09584 758.2091 305.61205 628.9604 295.34642 611.1798 Z" fill="white"/>
        <path d="M 295.34642 611.1798 L 109.43128 422.0033 C 99.16564 404.2227 136.68656 352.22657 351.5813 228.15702 C 566.4761 104.08748 580.16484 117.98493 590.4305 135.76552 C 590.4305 135.76552 660.8554 409.09423 658.35615 433.20195 C 655.8569 457.3097 760.88535 510.07003 545.9906 634.1396 C 331.09584 758.2091 305.61205 628.9604 295.34642 611.1798 Z" stroke="black" stroke-linecap="round" stroke-linejoin="round" stroke-width="18"/>
      </g>
      <g id="Graphic_2">
        <path d="M 472.65945 84.66993 C 592.8014 73.03106 633.3274 143.22417 563.17687 241.4507 C 493.02696 339.67716 338.76537 428.74013 218.6238 440.3785 C 98.48187 452.01737 57.955866 381.82426 128.10639 283.59774 C 198.2563 185.37127 352.5179 96.3083 472.65945 84.66993" fill="white"/>
        <path d="M 472.65945 84.66993 C 592.8014 73.03106 633.3274 143.22417 563.17687 241.4507 C 493.02696 339.67716 338.76537 428.74013 218.6238 440.3785 C 98.48187 452.01737 57.955866 381.82426 128.10639 283.59774 C 198.2563 185.37127 352.5179 96.3083 472.65945 84.66993" stroke="black" stroke-linecap="round" stroke-linejoin="round" stroke-width="18"/>
      </g>
      <g id="Graphic_7">
        <path d="M 430.82033 69.43797 C 526.12177 60.20555 558.26864 115.88556 502.6224 193.8028 C 446.97666 271.72 324.61013 342.36837 229.30898 351.6004 C 134.00755 360.8328 101.86068 305.1528 157.5069 227.23555 C 213.15265 149.31835 335.5192 78.66999 430.82033 69.43797" fill="white"/>
        <path d="M 430.82033 69.43797 C 526.12177 60.20555 558.26864 115.88556 502.6224 193.8028 C 446.97666 271.72 324.61013 342.36837 229.30898 351.6004 C 134.00755 360.8328 101.86068 305.1528 157.5069 227.23555 C 213.15265 149.31835 335.5192 78.66999 430.82033 69.43797" stroke="black" stroke-linecap="round" stroke-linejoin="round" stroke-width="18"/>
      </g>
    </g>
  </g>
</svg>
