<?xml version="1.0" encoding="UTF-8" standalone="no"?>
<!DOCTYPE svg PUBLIC "-//W3C//DTD SVG 1.1//EN" "http://www.w3.org/Graphics/SVG/1.1/DTD/svg11.dtd">
<svg xmlns:xl="http://www.w3.org/1999/xlink" xmlns:dc="http://purl.org/dc/elements/1.1/" version="1.1" xmlns="http://www.w3.org/2000/svg" viewBox="0 0 850.394 850.394" width="850.394" height="850.394">
  <defs/>
  <metadata> Produced by OmniGraffle 7.9.4 
    <dc:date>2019-05-18 01:59:10 +0000</dc:date>
  </metadata>
  <g id="chorus_mono" stroke-dasharray="none" fill-opacity="1" stroke="none" fill="none" stroke-opacity="1">
    <title>chorus mono</title>
    <g id="chorus_mono: Layer 1">
      <title>Layer 1</title>
      <g id="Graphic_3">
        <path d="M 105.22198 576.86936 L 137.87309 466.3579 C 137.87309 466.3579 179.31488 389.7534 179.31488 388.4976 C 179.31488 387.2418 218.24504 339.52093 218.24504 339.52093 L 243.36128 407.33477 C 243.36128 407.33477 272.24495 446.26493 274.75657 475.1486 C 277.2682 504.0323 318.71 537.9392 318.71 537.9392 C 318.71 537.9392 347.59366 500.26484 347.59366 495.2416 C 347.59366 490.21835 345.08204 453.7998 347.59366 438.73006 C 350.1053 423.6603 366.43084 388.4976 371.4541 387.2418 C 376.47733 385.98597 416.6633 374.68366 417.9191 375.93947 C 419.17493 377.1953 427.9656 370.91623 429.22143 384.73016 C 430.47724 398.5441 459.3609 488.96254 459.3609 491.47416 C 459.3609 493.9858 445.547 574.35774 478.1981 532.91595 C 510.8492 491.47416 514.6166 476.4044 514.6166 476.4044 C 514.6166 476.4044 499.5469 408.5906 502.0585 375.93947 C 504.57014 343.28837 571.12816 296.82333 572.384 296.82333 C 573.6398 296.82333 611.31414 300.59076 612.56995 303.1024 C 613.8258 305.614 641.4536 397.28827 641.4536 413.61383 C 641.4536 429.9394 660.2908 493.9858 661.5466 514.0788 C 662.8024 534.17176 676.61635 534.17176 681.6396 534.17176 C 686.66285 534.17176 709.2675 486.4509 710.5233 486.4509 C 711.7791 486.4509 728.1046 467.61374 729.36045 467.61374 C 730.6163 467.61374 772.05805 461.3347 772.05805 461.3347 L 788.3836 466.3579 L 775.8255 470.12536 L 746.9418 470.12536 C 746.9418 470.12536 730.6163 485.1951 729.36045 485.1951 C 728.1046 485.1951 715.5465 510.31134 715.5465 510.31134 L 700.4768 537.9392 L 671.5931 549.2415 C 671.5931 549.2415 646.4769 535.4276 646.4769 534.17176 C 646.4769 532.91595 645.22106 485.1951 645.22106 485.1951 L 628.8955 428.68357 C 628.8955 428.68357 620.1048 396.03246 618.849 393.52084 C 617.5932 391.0092 605.0351 342.03255 605.0351 340.77674 C 605.0351 339.52093 589.96534 324.4512 588.7095 323.19538 C 587.4537 321.93957 564.8491 325.707 564.8491 325.707 L 534.7096 348.3116 L 519.6399 375.93947 L 519.6399 402.3115 C 519.6399 402.3115 528.43056 437.47425 529.6864 437.47425 C 530.9422 437.47425 530.9422 486.4509 530.9422 486.4509 C 530.9422 486.4509 528.43056 504.0323 525.91894 505.2881 C 523.4073 506.5439 502.0585 536.6834 502.0585 537.9392 C 502.0585 539.195 478.1981 561.7996 476.9423 561.7996 C 475.68646 561.7996 461.87253 561.7996 461.87253 561.7996 L 440.52373 555.52056 L 435.5005 506.5439 C 435.5005 506.5439 432.98886 482.6835 432.98886 481.42767 C 432.98886 480.17185 419.17493 436.21844 419.17493 436.21844 L 402.8494 391.0092 L 389.03545 404.82314 C 389.03545 404.82314 375.2215 439.9859 373.9657 439.9859 C 372.7099 439.9859 367.68665 463.8463 367.68665 465.1021 C 367.68665 466.3579 367.68665 507.7997 367.68665 507.7997 L 356.38434 532.91595 L 331.2681 561.7996 L 307.4077 569.3345 C 307.4077 569.3345 288.5705 537.9392 286.05888 537.9392 C 283.54726 537.9392 257.1752 504.0323 257.1752 504.0323 L 242.10547 478.91604 L 234.5706 443.7533 L 216.98923 411.1022 L 216.98923 377.1953 L 199.40787 388.4976 C 199.40787 388.4976 196.89624 414.86964 195.64043 416.12545 C 194.38462 417.38126 174.29163 458.82305 173.03582 458.82305 C 171.78 458.82305 105.22198 576.86936 105.22198 576.86936 Z" fill="white"/>
        <path d="M 105.22198 576.86936 L 137.87309 466.3579 C 137.87309 466.3579 179.31488 389.7534 179.31488 388.4976 C 179.31488 387.2418 218.24504 339.52093 218.24504 339.52093 L 243.36128 407.33477 C 243.36128 407.33477 272.24495 446.26493 274.75657 475.1486 C 277.2682 504.0323 318.71 537.9392 318.71 537.9392 C 318.71 537.9392 347.59366 500.26484 347.59366 495.2416 C 347.59366 490.21835 345.08204 453.7998 347.59366 438.73006 C 350.1053 423.6603 366.43084 388.4976 371.4541 387.2418 C 376.47733 385.98597 416.6633 374.68366 417.9191 375.93947 C 419.17493 377.1953 427.9656 370.91623 429.22143 384.73016 C 430.47724 398.5441 459.3609 488.96254 459.3609 491.47416 C 459.3609 493.9858 445.547 574.35774 478.1981 532.91595 C 510.8492 491.47416 514.6166 476.4044 514.6166 476.4044 C 514.6166 476.4044 499.5469 408.5906 502.0585 375.93947 C 504.57014 343.28837 571.12816 296.82333 572.384 296.82333 C 573.6398 296.82333 611.31414 300.59076 612.56995 303.1024 C 613.8258 305.614 641.4536 397.28827 641.4536 413.61383 C 641.4536 429.9394 660.2908 493.9858 661.5466 514.0788 C 662.8024 534.17176 676.61635 534.17176 681.6396 534.17176 C 686.66285 534.17176 709.2675 486.4509 710.5233 486.4509 C 711.7791 486.4509 728.1046 467.61374 729.36045 467.61374 C 730.6163 467.61374 772.05805 461.3347 772.05805 461.3347 L 788.3836 466.3579 L 775.8255 470.12536 L 746.9418 470.12536 C 746.9418 470.12536 730.6163 485.1951 729.36045 485.1951 C 728.1046 485.1951 715.5465 510.31134 715.5465 510.31134 L 700.4768 537.9392 L 671.5931 549.2415 C 671.5931 549.2415 646.4769 535.4276 646.4769 534.17176 C 646.4769 532.91595 645.22106 485.1951 645.22106 485.1951 L 628.8955 428.68357 C 628.8955 428.68357 620.1048 396.03246 618.849 393.52084 C 617.5932 391.0092 605.0351 342.03255 605.0351 340.77674 C 605.0351 339.52093 589.96534 324.4512 588.7095 323.19538 C 587.4537 321.93957 564.8491 325.707 564.8491 325.707 L 534.7096 348.3116 L 519.6399 375.93947 L 519.6399 402.3115 C 519.6399 402.3115 528.43056 437.47425 529.6864 437.47425 C 530.9422 437.47425 530.9422 486.4509 530.9422 486.4509 C 530.9422 486.4509 528.43056 504.0323 525.91894 505.2881 C 523.4073 506.5439 502.0585 536.6834 502.0585 537.9392 C 502.0585 539.195 478.1981 561.7996 476.9423 561.7996 C 475.68646 561.7996 461.87253 561.7996 461.87253 561.7996 L 440.52373 555.52056 L 435.5005 506.5439 C 435.5005 506.5439 432.98886 482.6835 432.98886 481.42767 C 432.98886 480.17185 419.17493 436.21844 419.17493 436.21844 L 402.8494 391.0092 L 389.03545 404.82314 C 389.03545 404.82314 375.2215 439.9859 373.9657 439.9859 C 372.7099 439.9859 367.68665 463.8463 367.68665 465.1021 C 367.68665 466.3579 367.68665 507.7997 367.68665 507.7997 L 356.38434 532.91595 L 331.2681 561.7996 L 307.4077 569.3345 C 307.4077 569.3345 288.5705 537.9392 286.05888 537.9392 C 283.54726 537.9392 257.1752 504.0323 257.1752 504.0323 L 242.10547 478.91604 L 234.5706 443.7533 L 216.98923 411.1022 L 216.98923 377.1953 L 199.40787 388.4976 C 199.40787 388.4976 196.89624 414.86964 195.64043 416.12545 C 194.38462 417.38126 174.29163 458.82305 173.03582 458.82305 C 171.78 458.82305 105.22198 576.86936 105.22198 576.86936 Z" stroke="white" stroke-linecap="round" stroke-linejoin="round" stroke-width="5"/>
      </g>
      <g id="Graphic_2">
        <path d="M 82.62714 578.11585 L 117.18395 461.1543 C 117.18395 461.1543 161.04453 380.07872 161.04453 378.7496 C 161.04453 377.4205 202.24688 326.9144 202.24688 326.9144 L 228.82904 398.68624 C 228.82904 398.68624 259.39853 439.8886 262.05675 470.4581 C 264.71497 501.0276 308.57554 536.9135 308.57554 536.9135 C 308.57554 536.9135 339.14503 497.04025 339.14503 491.7238 C 339.14503 486.4074 336.4868 447.86324 339.14503 431.91394 C 341.80324 415.96465 359.08165 378.7496 364.3981 377.4205 C 369.7145 376.0914 412.246 364.12943 413.5751 365.45853 C 414.9042 366.78764 424.20795 360.1421 425.53706 374.7623 C 426.86617 389.3825 457.43566 485.0783 457.43566 487.7365 C 457.43566 490.3947 442.81547 575.4576 477.3723 531.59706 C 511.9291 487.7365 515.9164 471.7872 515.9164 471.7872 C 515.9164 471.7872 499.9671 400.01535 502.62534 365.45853 C 505.28355 330.90172 575.7263 281.7247 577.0554 281.7247 C 578.3845 281.7247 618.25775 285.71204 619.58686 288.37026 C 620.916 291.02847 650.15635 388.05337 650.15635 405.3318 C 650.15635 422.6102 670.093 490.3947 671.4221 511.66044 C 672.7512 532.9262 687.3714 532.9262 692.6878 532.9262 C 698.00425 532.9262 721.9282 482.42006 723.2573 482.42006 C 724.5864 482.42006 741.8648 462.48343 743.1939 462.48343 C 744.523 462.48343 788.3836 455.8379 788.3836 455.8379 L 805.662 461.1543 L 792.3709 465.14165 L 761.8014 465.14165 C 761.8014 465.14165 744.523 481.09095 743.1939 481.09095 C 741.8648 481.09095 728.5737 507.6731 728.5737 507.6731 L 712.6244 536.9135 L 682.05495 548.8755 C 682.05495 548.8755 655.4728 534.2553 655.4728 532.9262 C 655.4728 531.59706 654.1437 481.09095 654.1437 481.09095 L 636.8653 421.2811 C 636.8653 421.2811 627.5615 386.72426 626.2324 384.06605 C 624.9033 381.40783 611.6122 329.5726 611.6122 328.2435 C 611.6122 326.9144 595.6629 310.9651 594.3338 309.636 C 593.0047 308.30688 569.08075 312.2942 569.08075 312.2942 L 537.18215 336.21815 L 521.23285 365.45853 L 521.23285 393.3698 C 521.23285 393.3698 530.5366 430.58484 531.8657 430.58484 C 533.1948 430.58484 533.1948 482.42006 533.1948 482.42006 C 533.1948 482.42006 530.5366 501.0276 527.8784 502.3567 C 525.2202 503.6858 502.62534 535.5844 502.62534 536.9135 C 502.62534 538.2426 477.3723 562.16655 476.0432 562.16655 C 474.71407 562.16655 460.0939 562.16655 460.0939 562.16655 L 437.49904 555.521 L 432.1826 503.6858 C 432.1826 503.6858 429.5244 478.43273 429.5244 477.1036 C 429.5244 475.7745 414.9042 429.25573 414.9042 429.25573 L 397.6258 381.40783 L 383.0056 396.028 C 383.0056 396.028 368.3854 433.24305 367.0563 433.24305 C 365.7272 433.24305 360.41076 458.4961 360.41076 459.8252 C 360.41076 461.1543 360.41076 505.0149 360.41076 505.0149 L 348.4488 531.59706 L 321.86662 562.16655 L 296.61356 570.1412 C 296.61356 570.1412 276.67694 536.9135 274.01872 536.9135 C 271.3605 536.9135 243.44924 501.0276 243.44924 501.0276 L 227.49994 474.4454 L 219.5253 437.2304 L 200.91777 402.67356 L 200.91777 366.78764 L 182.31026 378.7496 C 182.31026 378.7496 179.65204 406.6609 178.32293 407.99 C 176.99382 409.3191 155.7281 453.1797 154.39898 453.1797 C 153.06988 453.1797 82.62714 578.11585 82.62714 578.11585 Z" fill="white"/>
        <path d="M 82.62714 578.11585 L 117.18395 461.1543 C 117.18395 461.1543 161.04453 380.07872 161.04453 378.7496 C 161.04453 377.4205 202.24688 326.9144 202.24688 326.9144 L 228.82904 398.68624 C 228.82904 398.68624 259.39853 439.8886 262.05675 470.4581 C 264.71497 501.0276 308.57554 536.9135 308.57554 536.9135 C 308.57554 536.9135 339.14503 497.04025 339.14503 491.7238 C 339.14503 486.4074 336.4868 447.86324 339.14503 431.91394 C 341.80324 415.96465 359.08165 378.7496 364.3981 377.4205 C 369.7145 376.0914 412.246 364.12943 413.5751 365.45853 C 414.9042 366.78764 424.20795 360.1421 425.53706 374.7623 C 426.86617 389.3825 457.43566 485.0783 457.43566 487.7365 C 457.43566 490.3947 442.81547 575.4576 477.3723 531.59706 C 511.9291 487.7365 515.9164 471.7872 515.9164 471.7872 C 515.9164 471.7872 499.9671 400.01535 502.62534 365.45853 C 505.28355 330.90172 575.7263 281.7247 577.0554 281.7247 C 578.3845 281.7247 618.25775 285.71204 619.58686 288.37026 C 620.916 291.02847 650.15635 388.05337 650.15635 405.3318 C 650.15635 422.6102 670.093 490.3947 671.4221 511.66044 C 672.7512 532.9262 687.3714 532.9262 692.6878 532.9262 C 698.00425 532.9262 721.9282 482.42006 723.2573 482.42006 C 724.5864 482.42006 741.8648 462.48343 743.1939 462.48343 C 744.523 462.48343 788.3836 455.8379 788.3836 455.8379 L 805.662 461.1543 L 792.3709 465.14165 L 761.8014 465.14165 C 761.8014 465.14165 744.523 481.09095 743.1939 481.09095 C 741.8648 481.09095 728.5737 507.6731 728.5737 507.6731 L 712.6244 536.9135 L 682.05495 548.8755 C 682.05495 548.8755 655.4728 534.2553 655.4728 532.9262 C 655.4728 531.59706 654.1437 481.09095 654.1437 481.09095 L 636.8653 421.2811 C 636.8653 421.2811 627.5615 386.72426 626.2324 384.06605 C 624.9033 381.40783 611.6122 329.5726 611.6122 328.2435 C 611.6122 326.9144 595.6629 310.9651 594.3338 309.636 C 593.0047 308.30688 569.08075 312.2942 569.08075 312.2942 L 537.18215 336.21815 L 521.23285 365.45853 L 521.23285 393.3698 C 521.23285 393.3698 530.5366 430.58484 531.8657 430.58484 C 533.1948 430.58484 533.1948 482.42006 533.1948 482.42006 C 533.1948 482.42006 530.5366 501.0276 527.8784 502.3567 C 525.2202 503.6858 502.62534 535.5844 502.62534 536.9135 C 502.62534 538.2426 477.3723 562.16655 476.0432 562.16655 C 474.71407 562.16655 460.0939 562.16655 460.0939 562.16655 L 437.49904 555.521 L 432.1826 503.6858 C 432.1826 503.6858 429.5244 478.43273 429.5244 477.1036 C 429.5244 475.7745 414.9042 429.25573 414.9042 429.25573 L 397.6258 381.40783 L 383.0056 396.028 C 383.0056 396.028 368.3854 433.24305 367.0563 433.24305 C 365.7272 433.24305 360.41076 458.4961 360.41076 459.8252 C 360.41076 461.1543 360.41076 505.0149 360.41076 505.0149 L 348.4488 531.59706 L 321.86662 562.16655 L 296.61356 570.1412 C 296.61356 570.1412 276.67694 536.9135 274.01872 536.9135 C 271.3605 536.9135 243.44924 501.0276 243.44924 501.0276 L 227.49994 474.4454 L 219.5253 437.2304 L 200.91777 402.67356 L 200.91777 366.78764 L 182.31026 378.7496 C 182.31026 378.7496 179.65204 406.6609 178.32293 407.99 C 176.99382 409.3191 155.7281 453.1797 154.39898 453.1797 C 153.06988 453.1797 82.62714 578.11585 82.62714 578.11585 Z" stroke="white" stroke-linecap="round" stroke-linejoin="round" stroke-width="5"/>
      </g>
      <g id="Graphic_4">
        <path d="M 13.513514 597.84056 L 52.66981 465.31155 C 52.66981 465.31155 102.36819 373.44485 102.36819 371.93884 C 102.36819 370.43283 149.05455 313.2044 149.05455 313.2044 L 179.17478 394.529 C 179.17478 394.529 213.81304 441.21537 216.82507 475.85363 C 219.8371 510.4919 269.53547 551.1542 269.53547 551.1542 C 269.53547 551.1542 304.17373 505.97386 304.17373 499.9498 C 304.17373 493.9258 301.1617 450.25144 304.17373 432.1793 C 307.18576 414.10716 326.7639 371.93884 332.78795 370.43283 C 338.812 368.9268 387.00437 355.3727 388.51038 356.87872 C 390.0164 358.38474 400.55847 350.85468 402.0645 367.4208 C 403.5705 383.98693 438.20876 492.41976 438.20876 495.4318 C 438.20876 498.4438 421.64263 594.82854 460.79893 545.13016 C 499.9552 495.4318 504.47326 477.35964 504.47326 477.35964 C 504.47326 477.35964 486.4011 396.035 489.41315 356.87872 C 492.42517 317.72243 572.2438 262 573.7498 262 C 575.2558 262 620.43615 266.51803 621.94216 269.53006 C 623.4482 272.54208 656.5804 382.4809 656.5804 402.05907 C 656.5804 421.6372 679.1706 498.4438 680.6766 522.54 C 682.1826 546.6362 698.74875 546.6362 704.7728 546.6362 C 710.7968 546.6362 737.90504 489.40774 739.41106 489.40774 C 740.9171 489.40774 760.4952 466.81756 762.0012 466.81756 C 763.5072 466.81756 813.2056 459.2875 813.2056 459.2875 L 832.7838 465.31155 L 817.7237 469.8296 L 783.0854 469.8296 C 783.0854 469.8296 763.5072 487.9017 762.0012 487.9017 C 760.4952 487.9017 745.4351 518.02195 745.4351 518.02195 L 727.363 551.1542 L 692.7247 564.7083 C 692.7247 564.7083 662.6045 548.1422 662.6045 546.6362 C 662.6045 545.13016 661.09846 487.9017 661.09846 487.9017 L 641.5203 420.1312 C 641.5203 420.1312 630.9782 380.9749 629.4722 377.9629 C 627.9662 374.95086 612.9061 316.2164 612.9061 314.7104 C 612.9061 313.2044 594.83395 295.13225 593.32794 293.62624 C 591.8219 292.12023 564.7137 296.63826 564.7137 296.63826 L 528.56945 323.74647 L 510.4973 356.87872 L 510.4973 388.50497 C 510.4973 388.50497 521.0394 430.6733 522.5454 430.6733 C 524.0514 430.6733 524.0514 489.40774 524.0514 489.40774 C 524.0514 489.40774 521.0394 510.4919 518.02737 511.9979 C 515.01534 513.5039 489.41315 549.6482 489.41315 551.1542 C 489.41315 552.6602 460.79893 579.7684 459.2929 579.7684 C 457.7869 579.7684 441.2208 579.7684 441.2208 579.7684 L 415.6186 572.2384 L 409.59454 513.5039 C 409.59454 513.5039 406.5825 484.8897 406.5825 483.3837 C 406.5825 481.8777 390.0164 429.1673 390.0164 429.1673 L 370.43824 374.95086 L 353.8721 391.517 C 353.8721 391.517 337.306 433.6853 335.79997 433.6853 C 334.29396 433.6853 328.2699 462.29953 328.2699 463.80554 C 328.2699 465.31155 328.2699 515.00993 328.2699 515.00993 L 314.7158 545.13016 L 284.5956 579.7684 L 255.98136 588.8045 C 255.98136 588.8045 233.3912 551.1542 230.37917 551.1542 C 227.36715 551.1542 195.7409 510.4919 195.7409 510.4919 L 177.66877 480.37167 L 168.6327 438.20335 L 147.54854 399.04705 L 147.54854 358.38474 L 126.46438 371.93884 C 126.46438 371.93884 123.45235 403.5651 121.94634 405.0711 C 120.44033 406.5771 96.34415 456.2755 94.83813 456.2755 C 93.33212 456.2755 13.513514 597.84056 13.513514 597.84056 Z" fill="white"/>
        <path d="M 13.513514 597.84056 L 52.66981 465.31155 C 52.66981 465.31155 102.36819 373.44485 102.36819 371.93884 C 102.36819 370.43283 149.05455 313.2044 149.05455 313.2044 L 179.17478 394.529 C 179.17478 394.529 213.81304 441.21537 216.82507 475.85363 C 219.8371 510.4919 269.53547 551.1542 269.53547 551.1542 C 269.53547 551.1542 304.17373 505.97386 304.17373 499.9498 C 304.17373 493.9258 301.1617 450.25144 304.17373 432.1793 C 307.18576 414.10716 326.7639 371.93884 332.78795 370.43283 C 338.812 368.9268 387.00437 355.3727 388.51038 356.87872 C 390.0164 358.38474 400.55847 350.85468 402.0645 367.4208 C 403.5705 383.98693 438.20876 492.41976 438.20876 495.4318 C 438.20876 498.4438 421.64263 594.82854 460.79893 545.13016 C 499.9552 495.4318 504.47326 477.35964 504.47326 477.35964 C 504.47326 477.35964 486.4011 396.035 489.41315 356.87872 C 492.42517 317.72243 572.2438 262 573.7498 262 C 575.2558 262 620.43615 266.51803 621.94216 269.53006 C 623.4482 272.54208 656.5804 382.4809 656.5804 402.05907 C 656.5804 421.6372 679.1706 498.4438 680.6766 522.54 C 682.1826 546.6362 698.74875 546.6362 704.7728 546.6362 C 710.7968 546.6362 737.90504 489.40774 739.41106 489.40774 C 740.9171 489.40774 760.4952 466.81756 762.0012 466.81756 C 763.5072 466.81756 813.2056 459.2875 813.2056 459.2875 L 832.7838 465.31155 L 817.7237 469.8296 L 783.0854 469.8296 C 783.0854 469.8296 763.5072 487.9017 762.0012 487.9017 C 760.4952 487.9017 745.4351 518.02195 745.4351 518.02195 L 727.363 551.1542 L 692.7247 564.7083 C 692.7247 564.7083 662.6045 548.1422 662.6045 546.6362 C 662.6045 545.13016 661.09846 487.9017 661.09846 487.9017 L 641.5203 420.1312 C 641.5203 420.1312 630.9782 380.9749 629.4722 377.9629 C 627.9662 374.95086 612.9061 316.2164 612.9061 314.7104 C 612.9061 313.2044 594.83395 295.13225 593.32794 293.62624 C 591.8219 292.12023 564.7137 296.63826 564.7137 296.63826 L 528.56945 323.74647 L 510.4973 356.87872 L 510.4973 388.50497 C 510.4973 388.50497 521.0394 430.6733 522.5454 430.6733 C 524.0514 430.6733 524.0514 489.40774 524.0514 489.40774 C 524.0514 489.40774 521.0394 510.4919 518.02737 511.9979 C 515.01534 513.5039 489.41315 549.6482 489.41315 551.1542 C 489.41315 552.6602 460.79893 579.7684 459.2929 579.7684 C 457.7869 579.7684 441.2208 579.7684 441.2208 579.7684 L 415.6186 572.2384 L 409.59454 513.5039 C 409.59454 513.5039 406.5825 484.8897 406.5825 483.3837 C 406.5825 481.8777 390.0164 429.1673 390.0164 429.1673 L 370.43824 374.95086 L 353.8721 391.517 C 353.8721 391.517 337.306 433.6853 335.79997 433.6853 C 334.29396 433.6853 328.2699 462.29953 328.2699 463.80554 C 328.2699 465.31155 328.2699 515.00993 328.2699 515.00993 L 314.7158 545.13016 L 284.5956 579.7684 L 255.98136 588.8045 C 255.98136 588.8045 233.3912 551.1542 230.37917 551.1542 C 227.36715 551.1542 195.7409 510.4919 195.7409 510.4919 L 177.66877 480.37167 L 168.6327 438.20335 L 147.54854 399.04705 L 147.54854 358.38474 L 126.46438 371.93884 C 126.46438 371.93884 123.45235 403.5651 121.94634 405.0711 C 120.44033 406.5771 96.34415 456.2755 94.83813 456.2755 C 93.33212 456.2755 13.513514 597.84056 13.513514 597.84056 Z" stroke="white" stroke-linecap="round" stroke-linejoin="round" stroke-width="5"/>
      </g>
      <g id="Graphic_5">
        <path d="M 71.994275 605.55444 L 108.35554 482.48555 C 108.35554 482.48555 154.50637 397.17644 154.50637 395.77793 C 154.50637 394.3794 197.86018 341.23603 197.86018 341.23603 L 225.83039 416.7556 C 225.83039 416.7556 257.99612 460.1094 260.79314 492.2751 C 263.59016 524.44086 309.741 562.2006 309.741 562.2006 C 309.741 562.2006 341.90672 520.2453 341.90672 514.6513 C 341.90672 509.05724 339.1097 468.50045 341.90672 451.71833 C 344.70374 434.9362 362.88438 395.77793 368.4784 394.3794 C 374.07246 392.9809 418.8248 380.3943 420.2233 381.79283 C 421.6218 383.19134 431.41137 376.1988 432.8099 391.5824 C 434.2084 406.966 466.3741 507.65873 466.3741 510.45575 C 466.3741 513.2528 450.9905 602.7574 487.3518 556.6066 C 523.71304 510.45575 527.90857 493.67363 527.90857 493.67363 C 527.90857 493.67363 511.12645 418.1541 513.92347 381.79283 C 516.7205 345.43156 590.8415 293.6867 592.24 293.6867 C 593.63854 293.6867 635.59384 297.88222 636.99235 300.67924 C 638.3909 303.47626 669.1581 405.5675 669.1581 423.74813 C 669.1581 441.92876 690.1357 513.2528 691.53425 535.62894 C 692.93276 558.0051 708.3164 558.0051 713.9104 558.0051 C 719.50445 558.0051 744.6776 504.8617 746.0761 504.8617 C 747.47465 504.8617 765.6553 483.88406 767.0538 483.88406 C 768.4523 483.88406 814.6031 476.8915 814.6031 476.8915 L 825.8062 480.3386 C 826.9771 480.6989 827.6342 481.94013 827.2739 483.111 C 827.0563 483.8184 826.5001 484.37065 825.7912 484.5833 L 825.7912 484.5833 C 821.1544 485.9744 816.3393 486.6811 811.4982 486.6811 L 786.6329 486.6811 C 786.6329 486.6811 768.4523 503.4632 767.0538 503.4632 C 765.6553 503.4632 751.6702 531.4334 751.6702 531.4334 L 743.158 547.0391 C 737.8163 556.8322 729.1934 564.42896 718.8052 568.4939 L 702.7223 574.7872 C 702.7223 574.7872 674.7521 559.4036 674.7521 558.0051 C 674.7521 556.6066 673.3536 503.4632 673.3536 503.4632 L 655.173 440.53025 C 655.173 440.53025 645.3834 404.169 643.9849 401.37197 C 642.5864 398.57495 628.6013 344.03305 628.6013 342.63454 C 628.6013 341.23603 611.8192 324.4539 610.42066 323.0554 C 609.02215 321.6569 583.849 325.85242 583.849 325.85242 L 564.30335 340.51163 C 555.0654 347.4401 547.4232 356.27177 541.8937 366.4092 L 540.53424 368.9015 C 535.9203 377.36038 533.5026 386.84177 533.5026 396.4772 L 533.5026 411.16154 C 533.5026 411.16154 543.2922 450.3198 544.6907 450.3198 C 546.0892 450.3198 546.0892 504.8617 546.0892 504.8617 C 546.0892 504.8617 543.2922 524.44086 540.49516 525.83937 C 537.69814 527.2379 513.92347 560.8021 513.92347 562.2006 C 513.92347 563.59914 487.3518 588.7723 485.95326 588.7723 C 484.55475 588.7723 469.17114 588.7723 469.17114 588.7723 L 457.2838 585.27605 C 450.094 583.1614 444.8969 576.9088 444.13225 569.4536 L 439.80243 527.2379 C 439.80243 527.2379 437.0054 500.6662 437.0054 499.2677 C 437.0054 497.86916 421.6218 448.9213 421.6218 448.9213 L 407.13577 408.80616 C 405.83947 405.2164 401.87853 403.3572 398.28877 404.6535 C 397.3341 404.9982 396.4671 405.54903 395.74936 406.26675 L 388.05756 413.95856 C 388.05756 413.95856 372.67395 453.11684 371.27544 453.11684 C 369.87693 453.11684 364.2829 479.68853 364.2829 481.08704 C 364.2829 482.48555 364.2829 528.6364 364.2829 528.6364 L 357.7492 543.1557 C 353.73564 552.0747 348.43535 560.3567 342.0176 567.7371 L 332.86834 578.25873 C 326.88985 585.134 319.1284 590.2242 310.44025 592.96785 L 297.1544 597.1634 C 297.1544 597.1634 276.17675 562.2006 273.37973 562.2006 C 270.5827 562.2006 241.214 524.44086 241.214 524.44086 L 232.82294 510.45575 C 227.267 501.19584 223.27727 491.0825 221.0146 480.5234 L 219.02397 471.2338 C 217.04518 461.9994 213.76825 453.0919 209.29084 444.7767 L 205.41262 437.5743 C 199.53725 426.6629 196.46167 414.4639 196.46167 402.0712 L 196.46167 394.82926 C 196.46167 391.3202 193.617 388.4755 190.10794 388.4755 C 188.8896 388.4755 187.69694 388.8258 186.6721 389.48463 L 176.88253 395.77793 C 176.88253 395.77793 174.08551 425.14664 172.687 426.54515 C 171.2885 427.94366 148.91233 474.0945 147.51382 474.0945 C 146.11531 474.0945 71.994275 605.55444 71.994275 605.55444 Z" fill="white"/>
        <path d="M 71.994275 605.55444 L 108.35554 482.48555 C 108.35554 482.48555 154.50637 397.17644 154.50637 395.77793 C 154.50637 394.3794 197.86018 341.23603 197.86018 341.23603 L 225.83039 416.7556 C 225.83039 416.7556 257.99612 460.1094 260.79314 492.2751 C 263.59016 524.44086 309.741 562.2006 309.741 562.2006 C 309.741 562.2006 341.90672 520.2453 341.90672 514.6513 C 341.90672 509.05724 339.1097 468.50045 341.90672 451.71833 C 344.70374 434.9362 362.88438 395.77793 368.4784 394.3794 C 374.07246 392.9809 418.8248 380.3943 420.2233 381.79283 C 421.6218 383.19134 431.41137 376.1988 432.8099 391.5824 C 434.2084 406.966 466.3741 507.65873 466.3741 510.45575 C 466.3741 513.2528 450.9905 602.7574 487.3518 556.6066 C 523.71304 510.45575 527.90857 493.67363 527.90857 493.67363 C 527.90857 493.67363 511.12645 418.1541 513.92347 381.79283 C 516.7205 345.43156 590.8415 293.6867 592.24 293.6867 C 593.63854 293.6867 635.59384 297.88222 636.99235 300.67924 C 638.3909 303.47626 669.1581 405.5675 669.1581 423.74813 C 669.1581 441.92876 690.1357 513.2528 691.53425 535.62894 C 692.93276 558.0051 708.3164 558.0051 713.9104 558.0051 C 719.50445 558.0051 744.6776 504.8617 746.0761 504.8617 C 747.47465 504.8617 765.6553 483.88406 767.0538 483.88406 C 768.4523 483.88406 814.6031 476.8915 814.6031 476.8915 L 825.8062 480.3386 C 826.9771 480.6989 827.6342 481.94013 827.2739 483.111 C 827.0563 483.8184 826.5001 484.37065 825.7912 484.5833 L 825.7912 484.5833 C 821.1544 485.9744 816.3393 486.6811 811.4982 486.6811 L 786.6329 486.6811 C 786.6329 486.6811 768.4523 503.4632 767.0538 503.4632 C 765.6553 503.4632 751.6702 531.4334 751.6702 531.4334 L 743.158 547.0391 C 737.8163 556.8322 729.1934 564.42896 718.8052 568.4939 L 702.7223 574.7872 C 702.7223 574.7872 674.7521 559.4036 674.7521 558.0051 C 674.7521 556.6066 673.3536 503.4632 673.3536 503.4632 L 655.173 440.53025 C 655.173 440.53025 645.3834 404.169 643.9849 401.37197 C 642.5864 398.57495 628.6013 344.03305 628.6013 342.63454 C 628.6013 341.23603 611.8192 324.4539 610.42066 323.0554 C 609.02215 321.6569 583.849 325.85242 583.849 325.85242 L 564.30335 340.51163 C 555.0654 347.4401 547.4232 356.27177 541.8937 366.4092 L 540.53424 368.9015 C 535.9203 377.36038 533.5026 386.84177 533.5026 396.4772 L 533.5026 411.16154 C 533.5026 411.16154 543.2922 450.3198 544.6907 450.3198 C 546.0892 450.3198 546.0892 504.8617 546.0892 504.8617 C 546.0892 504.8617 543.2922 524.44086 540.49516 525.83937 C 537.69814 527.2379 513.92347 560.8021 513.92347 562.2006 C 513.92347 563.59914 487.3518 588.7723 485.95326 588.7723 C 484.55475 588.7723 469.17114 588.7723 469.17114 588.7723 L 457.2838 585.27605 C 450.094 583.1614 444.8969 576.9088 444.13225 569.4536 L 439.80243 527.2379 C 439.80243 527.2379 437.0054 500.6662 437.0054 499.2677 C 437.0054 497.86916 421.6218 448.9213 421.6218 448.9213 L 407.13577 408.80616 C 405.83947 405.2164 401.87853 403.3572 398.28877 404.6535 C 397.3341 404.9982 396.4671 405.54903 395.74936 406.26675 L 388.05756 413.95856 C 388.05756 413.95856 372.67395 453.11684 371.27544 453.11684 C 369.87693 453.11684 364.2829 479.68853 364.2829 481.08704 C 364.2829 482.48555 364.2829 528.6364 364.2829 528.6364 L 357.7492 543.1557 C 353.73564 552.0747 348.43535 560.3567 342.0176 567.7371 L 332.86834 578.25873 C 326.88985 585.134 319.1284 590.2242 310.44025 592.96785 L 297.1544 597.1634 C 297.1544 597.1634 276.17675 562.2006 273.37973 562.2006 C 270.5827 562.2006 241.214 524.44086 241.214 524.44086 L 232.82294 510.45575 C 227.267 501.19584 223.27727 491.0825 221.0146 480.5234 L 219.02397 471.2338 C 217.04518 461.9994 213.76825 453.0919 209.29084 444.7767 L 205.41262 437.5743 C 199.53725 426.6629 196.46167 414.4639 196.46167 402.0712 L 196.46167 394.82926 C 196.46167 391.3202 193.617 388.4755 190.10794 388.4755 C 188.8896 388.4755 187.69694 388.8258 186.6721 389.48463 L 176.88253 395.77793 C 176.88253 395.77793 174.08551 425.14664 172.687 426.54515 C 171.2885 427.94366 148.91233 474.0945 147.51382 474.0945 C 146.11531 474.0945 71.994275 605.55444 71.994275 605.55444 Z" stroke="white" stroke-linecap="round" stroke-linejoin="round" stroke-width="5"/>
      </g>
      <g id="Line_6">
        <path d="M 513 239.10262 L 532.0848 224.70747 C 546.4595 213.865 563.97483 208 581.98015 208 L 582.69474 208 C 600.29215 208 617.4676 213.38827 631.9115 223.44024 L 654.098 238.8805 L 654.098 238.8805" stroke="white" stroke-linecap="round" stroke-linejoin="round" stroke-width="6"/>
      </g>
      <g id="Line_7">
        <path d="M 513 196.10262 L 532.0848 181.70747 C 546.4595 170.86501 563.97483 165 581.98015 165 L 582.69474 165 C 600.29215 165 617.4676 170.38827 631.9115 180.44024 L 654.098 195.8805 L 654.098 195.8805" stroke="white" stroke-linecap="round" stroke-linejoin="round" stroke-width="6"/>
      </g>
      <g id="Line_8">
        <path d="M 513 153.10262 L 532.0848 138.70747 C 546.4595 127.86501 563.97483 122 581.98015 122 L 582.69474 122 C 600.29215 122 617.4676 127.38827 631.9115 137.44024 L 654.098 152.88049 L 654.098 152.88049" stroke="white" stroke-linecap="round" stroke-linejoin="round" stroke-width="6"/>
      </g>
      <g id="Line_9">
        <path d="M 547.098 634.5901 L 528.0132 648.9852 C 513.63847 659.8277 496.12314 665.6927 478.1178 665.6927 L 477.40323 665.6927 C 459.8058 665.6927 442.63035 660.3044 428.18644 650.25245 L 406 634.8122 L 406 634.8122" stroke="white" stroke-linecap="round" stroke-linejoin="round" stroke-width="6"/>
      </g>
      <g id="Line_10">
        <path d="M 547.098 677.5901 L 528.0132 691.9852 C 513.63847 702.8277 496.12314 708.6927 478.1178 708.6927 L 477.40323 708.6927 C 459.8058 708.6927 442.63035 703.3044 428.18644 693.25245 L 406 677.8122 L 406 677.8122" stroke="white" stroke-linecap="round" stroke-linejoin="round" stroke-width="6"/>
      </g>
      <g id="Line_11">
        <path d="M 547.098 720.5901 L 528.0132 734.9852 C 513.63847 745.8277 496.12314 751.6927 478.1178 751.6927 L 477.40323 751.6927 C 459.8058 751.6927 442.63035 746.3044 428.18644 736.25245 L 406 720.8122 L 406 720.8122" stroke="white" stroke-linecap="round" stroke-linejoin="round" stroke-width="6"/>
      </g>
      <g id="Line_12">
        <path d="M 547.098 634.5901 L 528.0132 648.9852 C 513.63847 659.8277 496.12314 665.6927 478.1178 665.6927 L 477.40323 665.6927 C 459.8058 665.6927 442.63035 660.3044 428.18644 650.25245 L 406 634.8122 L 406 634.8122" stroke="white" stroke-linecap="round" stroke-linejoin="round" stroke-width="6"/>
      </g>
      <g id="Line_13">
        <path d="M 547.098 677.5901 L 528.0132 691.9852 C 513.63847 702.8277 496.12314 708.6927 478.1178 708.6927 L 477.40323 708.6927 C 459.8058 708.6927 442.63035 703.3044 428.18644 693.25245 L 406 677.8122 L 406 677.8122" stroke="white" stroke-linecap="round" stroke-linejoin="round" stroke-width="6"/>
      </g>
      <g id="Line_14">
        <path d="M 547.098 720.5901 L 528.0132 734.9852 C 513.63847 745.8277 496.12314 751.6927 478.1178 751.6927 L 477.40323 751.6927 C 459.8058 751.6927 442.63035 746.3044 428.18644 736.25245 L 406 720.8122 L 406 720.8122" stroke="white" stroke-linecap="round" stroke-linejoin="round" stroke-width="6"/>
      </g>
      <g id="Line_15">
        <path d="M 96 293.6867 L 115.08479 279.29155 C 129.4595 268.44908 146.97483 262.58407 164.98015 262.58407 L 165.69474 262.58407 C 183.29215 262.58407 200.46762 267.97234 214.91153 278.0243 L 237.09797 293.46456 L 237.09797 293.46456" stroke="white" stroke-linecap="round" stroke-linejoin="round" stroke-width="6"/>
      </g>
      <g id="Line_16">
        <path d="M 96 250.6867 L 115.08479 236.29155 C 129.4595 225.44908 146.97483 219.58407 164.98015 219.58407 L 165.69474 219.58407 C 183.29215 219.58407 200.46762 224.97234 214.91153 235.02432 L 237.09797 250.46456 L 237.09797 250.46456" stroke="white" stroke-linecap="round" stroke-linejoin="round" stroke-width="6"/>
      </g>
      <g id="Line_17">
        <path d="M 96 207.6867 L 115.08479 193.29155 C 129.4595 182.44908 146.97483 176.58407 164.98015 176.58407 L 165.69474 176.58407 C 183.29215 176.58407 200.46762 181.97234 214.91153 192.02432 L 237.09797 207.46456 L 237.09797 207.46456" stroke="white" stroke-linecap="round" stroke-linejoin="round" stroke-width="6"/>
      </g>
      <g id="Line_18">
        <path d="M 96 293.6867 L 115.08479 279.29155 C 129.4595 268.44908 146.97483 262.58407 164.98015 262.58407 L 165.69474 262.58407 C 183.29215 262.58407 200.46762 267.97234 214.91153 278.0243 L 237.09797 293.46456 L 237.09797 293.46456" stroke="white" stroke-linecap="round" stroke-linejoin="round" stroke-width="6"/>
      </g>
      <g id="Line_19">
        <path d="M 96 250.6867 L 115.08479 236.29155 C 129.4595 225.44908 146.97483 219.58407 164.98015 219.58407 L 165.69474 219.58407 C 183.29215 219.58407 200.46762 224.97234 214.91153 235.02432 L 237.09797 250.46456 L 237.09797 250.46456" stroke="white" stroke-linecap="round" stroke-linejoin="round" stroke-width="6"/>
      </g>
      <g id="Line_20">
        <path d="M 96 207.6867 L 115.08479 193.29155 C 129.4595 182.44908 146.97483 176.58407 164.98015 176.58407 L 165.69474 176.58407 C 183.29215 176.58407 200.46762 181.97234 214.91153 192.02432 L 237.09797 207.46456 L 237.09797 207.46456" stroke="white" stroke-linecap="round" stroke-linejoin="round" stroke-width="6"/>
      </g>
    </g>
  </g>
</svg>
