<?xml version="1.0" encoding="UTF-8" standalone="no"?>
<!DOCTYPE svg PUBLIC "-//W3C//DTD SVG 1.1//EN" "http://www.w3.org/Graphics/SVG/1.1/DTD/svg11.dtd">
<svg xmlns:xl="http://www.w3.org/1999/xlink" xmlns:dc="http://purl.org/dc/elements/1.1/" version="1.1" xmlns="http://www.w3.org/2000/svg" viewBox="0 0 850.394 850.394" width="850.394" height="850.394">
  <defs/>
  <metadata> Produced by OmniGraffle 7.9.4 
    <dc:date>2019-05-18 02:03:49 +0000</dc:date>
  </metadata>
  <g id="crocodile_clip_mono" stroke-dasharray="none" fill-opacity="1" stroke="none" fill="none" stroke-opacity="1">
    <title>crocodile_clip mono</title>
    <g id="crocodile_clip_mono: Layer 1">
      <title>Layer 1</title>
      <g id="Line_5">
        <path d="M 542 499 C 597.3913 558.6882 673.81806 624.8726 708.1905 678.08254 C 742.563 731.2925 741.5786 794.9258 748.2554 818.2916 L 748.2554 818.2916" stroke="black" stroke-linecap="round" stroke-linejoin="round" stroke-width="24"/>
      </g>
      <g id="Graphic_4">
        <path d="M 367.70883 254.81392 L 302.15463 133.79078 C 301.2039 132.03558 299.83034 130.54528 298.15834 129.45485 L 173.98958 48.47522 C 172.49127 47.49806 170.79344 46.86823 169.02033 46.631813 L 96.0773 36.906075 C 90.99833 36.22888 86.04969 38.851275 83.75821 43.434246 L 81.97987 46.990923 C 79.6922 51.566264 81.54672 57.129835 86.12206 59.417505 C 86.94789 59.83042 87.83082 60.11753 88.74156 60.26932 L 133.64464 67.75317 C 139.4309 68.717545 143.67185 73.72383 143.67185 79.5899 L 143.67185 101.03142 C 143.67185 107.65883 149.04443 113.03142 155.67185 113.03142 C 156.0706 113.03142 156.46912 113.01154 156.8659 112.97186 L 186.56143 110.00231 C 193.15595 109.34286 199.03646 114.15419 199.69592 120.74871 C 199.7356 121.14549 199.75547 121.544 199.75547 121.94276 L 199.75547 134.68159 C 199.75547 141.309 205.12805 146.68159 211.75547 146.68159 C 212.15423 146.68159 212.55274 146.66171 212.94952 146.62203 L 240.59973 143.85701 C 247.19426 143.19756 253.07477 148.00889 253.73422 154.60341 C 253.8305 155.56605 253.81 156.5368 253.67317 157.49452 L 252.18745 167.89456 C 251.2502 174.45536 255.80898 180.53375 262.3698 181.471 C 262.9319 181.5513 263.49902 181.59161 264.06684 181.59161 L 283.09762 181.59161 C 289.72504 181.59161 295.09762 186.9642 295.09762 193.5916 L 295.09762 231.2836 C 295.09762 237.911 300.4702 243.2836 307.09762 243.2836 L 319.69618 243.2836 C 325.05394 243.2836 329.76258 246.83532 331.23447 251.98694 L 335.9923 268.63934 C 337.813 275.01176 344.4548 278.70167 350.82724 276.88098 C 351.5406 276.67715 352.23355 276.4076 352.89715 276.0758 L 362.5239 271.26244 C 368.45164 268.29857 370.85433 261.0905 367.89046 255.16275 C 367.83183 255.0455 367.77128 254.9292 367.70883 254.81392 Z" fill="white"/>
        <path d="M 367.70883 254.81392 L 302.15463 133.79078 C 301.2039 132.03558 299.83034 130.54528 298.15834 129.45485 L 173.98958 48.47522 C 172.49127 47.49806 170.79344 46.86823 169.02033 46.631813 L 96.0773 36.906075 C 90.99833 36.22888 86.04969 38.851275 83.75821 43.434246 L 81.97987 46.990923 C 79.6922 51.566264 81.54672 57.129835 86.12206 59.417505 C 86.94789 59.83042 87.83082 60.11753 88.74156 60.26932 L 133.64464 67.75317 C 139.4309 68.717545 143.67185 73.72383 143.67185 79.5899 L 143.67185 101.03142 C 143.67185 107.65883 149.04443 113.03142 155.67185 113.03142 C 156.0706 113.03142 156.46912 113.01154 156.8659 112.97186 L 186.56143 110.00231 C 193.15595 109.34286 199.03646 114.15419 199.69592 120.74871 C 199.7356 121.14549 199.75547 121.544 199.75547 121.94276 L 199.75547 134.68159 C 199.75547 141.309 205.12805 146.68159 211.75547 146.68159 C 212.15423 146.68159 212.55274 146.66171 212.94952 146.62203 L 240.59973 143.85701 C 247.19426 143.19756 253.07477 148.00889 253.73422 154.60341 C 253.8305 155.56605 253.81 156.5368 253.67317 157.49452 L 252.18745 167.89456 C 251.2502 174.45536 255.80898 180.53375 262.3698 181.471 C 262.9319 181.5513 263.49902 181.59161 264.06684 181.59161 L 283.09762 181.59161 C 289.72504 181.59161 295.09762 186.9642 295.09762 193.5916 L 295.09762 231.2836 C 295.09762 237.911 300.4702 243.2836 307.09762 243.2836 L 319.69618 243.2836 C 325.05394 243.2836 329.76258 246.83532 331.23447 251.98694 L 335.9923 268.63934 C 337.813 275.01176 344.4548 278.70167 350.82724 276.88098 C 351.5406 276.67715 352.23355 276.4076 352.89715 276.0758 L 362.5239 271.26244 C 368.45164 268.29857 370.85433 261.0905 367.89046 255.16275 C 367.83183 255.0455 367.77128 254.9292 367.70883 254.81392 Z" stroke="black" stroke-linecap="round" stroke-linejoin="round" stroke-width="6"/>
      </g>
      <g id="Graphic_3">
        <path d="M 85.37412 70.18984 L 152.4971 215.88584 C 153.31272 217.65623 154.54734 219.20128 156.09419 220.38737 L 280.30655 315.6312 C 281.89766 316.85123 283.7691 317.65314 285.74995 317.96366 L 357.6159 329.2297 C 363.0487 330.08135 368.3652 327.13122 370.51728 322.07065 L 372.4651 317.49045 C 374.9755 311.5873 372.22514 304.7668 366.322 302.2564 C 365.57815 301.94004 364.8033 301.70222 364.01005 301.54678 L 320.46552 293.014 C 314.83487 291.91064 310.7731 286.9757 310.7731 281.23795 L 310.7731 251.85677 C 310.7731 245.22935 305.40052 239.85677 298.7731 239.85677 C 298.30483 239.85677 297.83695 239.88418 297.37188 239.93886 L 268.0907 243.38154 C 261.50863 244.15542 255.54545 239.44694 254.77157 232.86486 C 254.7169 232.3998 254.68948 231.9319 254.68948 231.46363 L 254.68948 212.29316 C 254.68948 205.66575 249.3169 200.29316 242.68948 200.29316 C 242.2212 200.29316 241.75333 200.32057 241.28826 200.37525 L 213.75992 203.61185 C 207.17784 204.38573 201.21466 199.67725 200.44078 193.09517 C 200.3295 192.14877 200.33136 191.1925 200.4463 190.24653 L 202.5803 172.68343 C 203.37968 166.1044 198.69435 160.12302 192.11532 159.32363 C 191.63506 159.26528 191.1517 159.23602 190.66791 159.23602 L 171.34733 159.23602 C 164.71991 159.23602 159.34733 153.86344 159.34733 147.23602 L 159.34733 98.70274 C 159.34733 92.07533 153.97475 86.70274 147.34733 86.70274 L 135.13028 86.70274 C 129.59437 86.70274 124.77688 82.91574 123.46965 77.53639 L 118.29533 56.24374 C 116.73035 49.803745 110.24104 45.851767 103.80104 47.416747 C 102.65991 47.694054 101.56566 48.137365 100.55328 48.732505 L 90.19168 54.823744 C 84.87722 57.947934 82.79458 64.59073 85.37412 70.18984 Z" fill="white"/>
        <path d="M 85.37412 70.18984 L 152.4971 215.88584 C 153.31272 217.65623 154.54734 219.20128 156.09419 220.38737 L 280.30655 315.6312 C 281.89766 316.85123 283.7691 317.65314 285.74995 317.96366 L 357.6159 329.2297 C 363.0487 330.08135 368.3652 327.13122 370.51728 322.07065 L 372.4651 317.49045 C 374.9755 311.5873 372.22514 304.7668 366.322 302.2564 C 365.57815 301.94004 364.8033 301.70222 364.01005 301.54678 L 320.46552 293.014 C 314.83487 291.91064 310.7731 286.9757 310.7731 281.23795 L 310.7731 251.85677 C 310.7731 245.22935 305.40052 239.85677 298.7731 239.85677 C 298.30483 239.85677 297.83695 239.88418 297.37188 239.93886 L 268.0907 243.38154 C 261.50863 244.15542 255.54545 239.44694 254.77157 232.86486 C 254.7169 232.3998 254.68948 231.9319 254.68948 231.46363 L 254.68948 212.29316 C 254.68948 205.66575 249.3169 200.29316 242.68948 200.29316 C 242.2212 200.29316 241.75333 200.32057 241.28826 200.37525 L 213.75992 203.61185 C 207.17784 204.38573 201.21466 199.67725 200.44078 193.09517 C 200.3295 192.14877 200.33136 191.1925 200.4463 190.24653 L 202.5803 172.68343 C 203.37968 166.1044 198.69435 160.12302 192.11532 159.32363 C 191.63506 159.26528 191.1517 159.23602 190.66791 159.23602 L 171.34733 159.23602 C 164.71991 159.23602 159.34733 153.86344 159.34733 147.23602 L 159.34733 98.70274 C 159.34733 92.07533 153.97475 86.70274 147.34733 86.70274 L 135.13028 86.70274 C 129.59437 86.70274 124.77688 82.91574 123.46965 77.53639 L 118.29533 56.24374 C 116.73035 49.803745 110.24104 45.851767 103.80104 47.416747 C 102.65991 47.694054 101.56566 48.137365 100.55328 48.732505 L 90.19168 54.823744 C 84.87722 57.947934 82.79458 64.59073 85.37412 70.18984 Z" stroke="black" stroke-linecap="round" stroke-linejoin="round" stroke-width="6"/>
      </g>
      <g id="Graphic_2">
        <path d="M 207 262.9602 L 267.26686 325.36836 C 423.47205 476.04076 455.15284 475.5988 563.7146 521.5209 C 521.60916 411.42266 523.1565 379.7766 378.0274 218.40816 L 317.76052 156 C 310.67513 192.99408 315.43948 203.4691 292.5137 240.68418 C 254.5212 262.2972 244.21882 257.1702 207 262.9602" fill="white"/>
        <path d="M 207 262.9602 L 267.26686 325.36836 C 423.47205 476.04076 455.15284 475.5988 563.7146 521.5209 C 521.60916 411.42266 523.1565 379.7766 378.0274 218.40816 L 317.76052 156 C 310.67513 192.99408 315.43948 203.4691 292.5137 240.68418 C 254.5212 262.2972 244.21882 257.1702 207 262.9602" stroke="black" stroke-linecap="round" stroke-linejoin="round" stroke-width="7"/>
      </g>
    </g>
  </g>
</svg>
