<?xml version="1.0" encoding="UTF-8" standalone="no"?>
<!DOCTYPE svg PUBLIC "-//W3C//DTD SVG 1.1//EN" "http://www.w3.org/Graphics/SVG/1.1/DTD/svg11.dtd">
<svg xmlns:dc="http://purl.org/dc/elements/1.1/" xmlns:xl="http://www.w3.org/1999/xlink" xmlns="http://www.w3.org/2000/svg" version="1.1" viewBox="0 0 850.394 850.394" width="850.394" height="850.394">
  <defs/>
  <metadata> Produced by OmniGraffle 7.9.4 
    <dc:date>2019-05-20 21:38:56 +0000</dc:date>
  </metadata>
  <g id="Feedback_mono" stroke-dasharray="none" stroke-opacity="1" stroke="none" fill="none" fill-opacity="1">
    <title>Feedback mono</title>
    <g id="Feedback_mono: Layer 2">
      <title>Layer 2</title>
      <g id="Graphic_18">
        <path d="M 447 492 L 558.8931 753.8281 C 558.8931 753.8281 528.5642 755.0771 528.3833 755.3268 C 528.20244 755.5764 503.2033 751.9306 503.2033 751.9306 L 501.27736 729.9766 C 501.27736 729.9766 493.43694 712.4936 496.42795 705.9043 C 499.41895 699.315 485.00807 678.5943 485.00807 678.5943 C 485.00807 678.5943 466.1336 676.3404 465.41004 677.339 C 464.6865 678.3376 460.61017 686.4249 457.27015 688.57345 C 453.93013 690.72204 441.26433 692.2051 438.7447 690.7602 C 436.22503 689.31535 415.88693 678.0059 415.48313 677.3326 C 415.0793 676.6593 410.08205 674.9422 411.4871 671.7723 C 412.89217 668.6025 412.4681 640.8837 412.82986 640.3844 C 413.19163 639.8851 431.19996 628.5672 410.02874 625.79126 C 388.8575 623.01536 384.9328 624.7403 384.9328 624.7403 C 384.9328 624.7403 382.18124 643.3053 376.3088 648.94906 C 370.4364 654.5928 332.75496 641.3774 332.17027 640.95374 C 331.58558 640.5301 314.5875 627.0721 314.3646 626.1491 C 314.14166 625.2262 314.48316 597.6814 316.8347 594.4359 C 319.1862 591.1904 356.6905 408.4181 359 404 C 361.3095 399.5819 317.8284 558.6072 315.48965 556.9127 C 313.1509 555.21815 295.75276 557.0796 295.16807 556.65596 C 294.58338 556.2323 284.2691 554.4699 283.6844 554.04626 C 283.09972 553.6226 262.90048 540.8909 262.90048 540.8909 L 256.02304 534.38505 L 262.4126 537.87244 L 275.8605 547.61605 C 275.8605 547.61605 285.63213 550.12745 286.21682 550.5511 C 286.8015 550.9747 296.26615 550.218 296.26615 550.218 L 307.26194 549.8092 L 322.3378 557.3059 C 322.3378 557.3059 332.0419 568.5248 331.861 568.7745 C 331.6801 569.0241 325.39113 578.93465 325.39113 578.93465 L 324.85223 595.6764 C 324.85223 595.6764 411.7771 493.07705 412 494 C 412.2229 494.92295 323.4802 620.95165 323.29932 621.2013 C 323.11843 621.45096 327.9641 629.53044 328.3679 630.2037 C 328.7717 630.877 339.8388 637.7535 339.8388 637.7535 L 357.12735 643.42695 L 368.12314 643.0182 L 371.92175 637.7754 C 371.92175 637.7754 372.89373 627.8196 372.30904 627.396 C 371.72435 626.97235 378.7789 617.2358 378.7789 617.2358 C 378.7789 617.2358 382.4807 614.5879 383.83098 615.1855 C 385.18124 615.78314 399.46227 616.9932 399.64315 616.7436 C 399.82404 616.4939 399.4153 489.57636 400 490 C 400.5847 490.42364 421.7901 625.55646 421.7901 625.55646 L 430.82543 634.0065 L 426.10963 645.4376 C 426.10963 645.4376 423.84217 651.0283 423.6613 651.278 C 423.4804 651.52764 423.581 664.92555 423.581 664.92555 L 424.67006 679.4204 L 433.0914 681.3342 C 433.0914 681.3342 444.58783 679.0038 445.1725 679.42746 C 445.7572 679.8511 451.5328 676.8022 451.7137 676.5525 C 451.8946 676.3029 457.86384 668.0643 457.86384 668.0643 L 466.7438 666.8839 L 482.598 669.6145 L 494.79245 676.1657 C 494.79245 676.1657 499.04066 688.7616 500.21004 689.60884 C 501.3794 690.4561 508.774 706.0931 508.774 706.0931 L 512.1726 716.1699 L 510.6159 725.702 L 514.09854 738.1239 L 509.2146 744.8646 L 519.02826 748.5486 C 519.02826 748.5486 523.99626 744.1531 524.76184 744.3271 C 525.5274 744.5011 540.8517 743.04065 541.4364 743.4643 C 542.0211 743.8879 447 492 447 492 Z" fill="white"/>
        <path d="M 447 492 L 558.8931 753.8281 C 558.8931 753.8281 528.5642 755.0771 528.3833 755.3268 C 528.20244 755.5764 503.2033 751.9306 503.2033 751.9306 L 501.27736 729.9766 C 501.27736 729.9766 493.43694 712.4936 496.42795 705.9043 C 499.41895 699.315 485.00807 678.5943 485.00807 678.5943 C 485.00807 678.5943 466.1336 676.3404 465.41004 677.339 C 464.6865 678.3376 460.61017 686.4249 457.27015 688.57345 C 453.93013 690.72204 441.26433 692.2051 438.7447 690.7602 C 436.22503 689.31535 415.88693 678.0059 415.48313 677.3326 C 415.0793 676.6593 410.08205 674.9422 411.4871 671.7723 C 412.89217 668.6025 412.4681 640.8837 412.82986 640.3844 C 413.19163 639.8851 431.19996 628.5672 410.02874 625.79126 C 388.8575 623.01536 384.9328 624.7403 384.9328 624.7403 C 384.9328 624.7403 382.18124 643.3053 376.3088 648.94906 C 370.4364 654.5928 332.75496 641.3774 332.17027 640.95374 C 331.58558 640.5301 314.5875 627.0721 314.3646 626.1491 C 314.14166 625.2262 314.48316 597.6814 316.8347 594.4359 C 319.1862 591.1904 356.6905 408.4181 359 404 C 361.3095 399.5819 317.8284 558.6072 315.48965 556.9127 C 313.1509 555.21815 295.75276 557.0796 295.16807 556.65596 C 294.58338 556.2323 284.2691 554.4699 283.6844 554.04626 C 283.09972 553.6226 262.90048 540.8909 262.90048 540.8909 L 256.02304 534.38505 L 262.4126 537.87244 L 275.8605 547.61605 C 275.8605 547.61605 285.63213 550.12745 286.21682 550.5511 C 286.8015 550.9747 296.26615 550.218 296.26615 550.218 L 307.26194 549.8092 L 322.3378 557.3059 C 322.3378 557.3059 332.0419 568.5248 331.861 568.7745 C 331.6801 569.0241 325.39113 578.93465 325.39113 578.93465 L 324.85223 595.6764 C 324.85223 595.6764 411.7771 493.07705 412 494 C 412.2229 494.92295 323.4802 620.95165 323.29932 621.2013 C 323.11843 621.45096 327.9641 629.53044 328.3679 630.2037 C 328.7717 630.877 339.8388 637.7535 339.8388 637.7535 L 357.12735 643.42695 L 368.12314 643.0182 L 371.92175 637.7754 C 371.92175 637.7754 372.89373 627.8196 372.30904 627.396 C 371.72435 626.97235 378.7789 617.2358 378.7789 617.2358 C 378.7789 617.2358 382.4807 614.5879 383.83098 615.1855 C 385.18124 615.78314 399.46227 616.9932 399.64315 616.7436 C 399.82404 616.4939 399.4153 489.57636 400 490 C 400.5847 490.42364 421.7901 625.55646 421.7901 625.55646 L 430.82543 634.0065 L 426.10963 645.4376 C 426.10963 645.4376 423.84217 651.0283 423.6613 651.278 C 423.4804 651.52764 423.581 664.92555 423.581 664.92555 L 424.67006 679.4204 L 433.0914 681.3342 C 433.0914 681.3342 444.58783 679.0038 445.1725 679.42746 C 445.7572 679.8511 451.5328 676.8022 451.7137 676.5525 C 451.8946 676.3029 457.86384 668.0643 457.86384 668.0643 L 466.7438 666.8839 L 482.598 669.6145 L 494.79245 676.1657 C 494.79245 676.1657 499.04066 688.7616 500.21004 689.60884 C 501.3794 690.4561 508.774 706.0931 508.774 706.0931 L 512.1726 716.1699 L 510.6159 725.702 L 514.09854 738.1239 L 509.2146 744.8646 L 519.02826 748.5486 C 519.02826 748.5486 523.99626 744.1531 524.76184 744.3271 C 525.5274 744.5011 540.8517 743.04065 541.4364 743.4643 C 542.0211 743.8879 447 492 447 492 Z" stroke="black" stroke-linecap="round" stroke-linejoin="round" stroke-width="5"/>
      </g>
      <g id="Graphic_22">
        <path d="M 304.5116 195.3712 L 333.97225 147.22042 C 333.97225 147.22042 363.29346 116.22782 363.4527 115.63361 C 363.6119 115.0394 388.0827 97.39519 388.0827 97.39519 L 391.3691 132.66688 C 391.3691 132.66688 400.10017 154.7494 397.6266 168.73465 C 395.153 182.7199 410.463 204.01777 410.463 204.01777 C 410.463 204.01777 428.9064 189.8535 429.54325 187.47665 C 430.1801 185.09981 433.609 167.5493 436.70806 160.73721 C 439.8071 153.92513 451.9899 139.3571 454.526 139.39976 C 457.06204 139.44242 477.5097 139.18951 477.9447 139.94294 C 478.3797 140.69637 483.33525 138.83984 482.17807 145.53537 C 481.0209 152.2309 483.224 198.676 482.90557 199.86442 C 482.58713 201.05284 465.8609 237.33087 486.5645 221.86161 C 507.26816 206.39236 510.9614 199.7395 510.9614 199.7395 C 510.9614 199.7395 512.42867 165.74156 517.75675 150.61054 C 523.08484 135.47953 560.469 121.93232 561.0632 122.09154 C 561.65744 122.25076 579.0061 128.80993 579.28185 130.15757 C 579.5576 131.5052 581.0073 178.3853 578.9375 186.11003 C 576.86766 193.83476 577.6607 226.52772 575.7074 236.1943 C 573.7541 245.86087 580.2904 247.61227 582.6673 248.24914 C 585.0441 248.886 601.7902 229.17197 602.3844 229.3312 C 602.9786 229.4904 613.0916 222.6471 613.6858 222.8063 C 614.28 222.96553 634.685 225.24868 634.685 225.24868 L 641.7729 229.69535 L 635.3531 229.8858 L 621.6863 226.22378 C 621.6863 226.22378 612.05095 231.28447 611.45674 231.12525 C 610.8625 230.96603 601.7361 241.25804 601.7361 241.25804 L 591.10276 252.42004 L 404 476 C 404 476 565.8702 244.38525 566.0294 243.79104 C 566.1886 243.19683 571.6447 220.45764 571.6447 220.45764 L 571.0848 191.64837 C 571.0848 191.64837 571.065 175.0844 570.7892 173.73675 C 570.5134 172.38912 570.78083 147.62276 570.94005 147.02855 C 571.0993 146.43434 565.8794 137.3932 565.4444 136.63978 C 565.0094 135.88635 553.83596 134.80306 553.83596 134.80306 L 536.709 141.6776 L 526.0757 152.8396 L 522.7321 165.318 C 522.7321 165.318 522.4335 183.0704 523.0277 183.22962 C 523.6219 183.38883 517.4124 206.563 517.4124 206.563 C 517.4124 206.563 513.9949 214.5635 512.6473 214.83928 C 511.29965 215.11506 497.37685 226.66939 497.21763 227.2636 C 497.0584 227.8578 482.9025 235.52844 482.3083 235.36922 C 481.7141 235.21 475.1778 233.4586 475.1778 233.4586 L 434 465 L 469.70497 203.9698 C 469.70497 203.9698 471.5417 192.36138 471.7009 191.76717 C 471.8601 191.17296 470.89645 168.62422 470.89645 168.62422 L 468.90357 145.16284 L 460.61587 149.94775 C 460.61587 149.94775 449.62146 164.83422 449.02725 164.675 C 448.43304 164.51578 443.03106 175.1689 442.87184 175.7631 C 442.7126 176.35732 437.4584 195.96624 437.4584 195.96624 L 428.9262 206.41747 L 446 465 L 401.1347 217.44005 C 401.1347 217.44005 396.202 200.19653 395.01356 199.8781 C 393.82514 199.55966 385.64563 180.17242 385.64563 180.17242 L 381.69947 166.37761 L 382.5923 148.78443 L 378.41305 131.10593 L 382.71194 115.06227 L 372.96004 118.1811 C 372.96004 118.1811 368.42804 130.34107 367.6746 130.77606 C 366.9212 131.21105 352.15964 148.27248 351.56543 148.11327 C 350.9712 147.95405 304.5116 195.3712 304.5116 195.3712 Z" fill="white"/>
        <path d="M 304.5116 195.3712 L 333.97225 147.22042 C 333.97225 147.22042 363.29346 116.22782 363.4527 115.63361 C 363.6119 115.0394 388.0827 97.39519 388.0827 97.39519 L 391.3691 132.66688 C 391.3691 132.66688 400.10017 154.7494 397.6266 168.73465 C 395.153 182.7199 410.463 204.01777 410.463 204.01777 C 410.463 204.01777 428.9064 189.8535 429.54325 187.47665 C 430.1801 185.09981 433.609 167.5493 436.70806 160.73721 C 439.8071 153.92513 451.9899 139.3571 454.526 139.39976 C 457.06204 139.44242 477.5097 139.18951 477.9447 139.94294 C 478.3797 140.69637 483.33525 138.83984 482.17807 145.53537 C 481.0209 152.2309 483.224 198.676 482.90557 199.86442 C 482.58713 201.05284 465.8609 237.33087 486.5645 221.86161 C 507.26816 206.39236 510.9614 199.7395 510.9614 199.7395 C 510.9614 199.7395 512.42867 165.74156 517.75675 150.61054 C 523.08484 135.47953 560.469 121.93232 561.0632 122.09154 C 561.65744 122.25076 579.0061 128.80993 579.28185 130.15757 C 579.5576 131.5052 581.0073 178.3853 578.9375 186.11003 C 576.86766 193.83476 577.6607 226.52772 575.7074 236.1943 C 573.7541 245.86087 580.2904 247.61227 582.6673 248.24914 C 585.0441 248.886 601.7902 229.17197 602.3844 229.3312 C 602.9786 229.4904 613.0916 222.6471 613.6858 222.8063 C 614.28 222.96553 634.685 225.24868 634.685 225.24868 L 641.7729 229.69535 L 635.3531 229.8858 L 621.6863 226.22378 C 621.6863 226.22378 612.05095 231.28447 611.45674 231.12525 C 610.8625 230.96603 601.7361 241.25804 601.7361 241.25804 L 591.10276 252.42004 L 404 476 C 404 476 565.8702 244.38525 566.0294 243.79104 C 566.1886 243.19683 571.6447 220.45764 571.6447 220.45764 L 571.0848 191.64837 C 571.0848 191.64837 571.065 175.0844 570.7892 173.73675 C 570.5134 172.38912 570.78083 147.62276 570.94005 147.02855 C 571.0993 146.43434 565.8794 137.3932 565.4444 136.63978 C 565.0094 135.88635 553.83596 134.80306 553.83596 134.80306 L 536.709 141.6776 L 526.0757 152.8396 L 522.7321 165.318 C 522.7321 165.318 522.4335 183.0704 523.0277 183.22962 C 523.6219 183.38883 517.4124 206.563 517.4124 206.563 C 517.4124 206.563 513.9949 214.5635 512.6473 214.83928 C 511.29965 215.11506 497.37685 226.66939 497.21763 227.2636 C 497.0584 227.8578 482.9025 235.52844 482.3083 235.36922 C 481.7141 235.21 475.1778 233.4586 475.1778 233.4586 L 434 465 L 469.70497 203.9698 C 469.70497 203.9698 471.5417 192.36138 471.7009 191.76717 C 471.8601 191.17296 470.89645 168.62422 470.89645 168.62422 L 468.90357 145.16284 L 460.61587 149.94775 C 460.61587 149.94775 449.62146 164.83422 449.02725 164.675 C 448.43304 164.51578 443.03106 175.1689 442.87184 175.7631 C 442.7126 176.35732 437.4584 195.96624 437.4584 195.96624 L 428.9262 206.41747 L 446 465 L 401.1347 217.44005 C 401.1347 217.44005 396.202 200.19653 395.01356 199.8781 C 393.82514 199.55966 385.64563 180.17242 385.64563 180.17242 L 381.69947 166.37761 L 382.5923 148.78443 L 378.41305 131.10593 L 382.71194 115.06227 L 372.96004 118.1811 C 372.96004 118.1811 368.42804 130.34107 367.6746 130.77606 C 366.9212 131.21105 352.15964 148.27248 351.56543 148.11327 C 350.9712 147.95405 304.5116 195.3712 304.5116 195.3712 Z" stroke="black" stroke-linecap="round" stroke-linejoin="round" stroke-width="5"/>
      </g>
      <g id="Graphic_21">
        <path d="M 106.16877 467.3372 L 491 506 C 491 506 57.42875 387.6158 56.99767 387.18473 C 56.56659 386.75365 48.32478 362.2335 48.32478 362.2335 L 76.8541 380.26066 C 76.8541 380.26066 96.25627 387.58536 106.69619 396.97505 C 117.1361 406.36475 137.4395 409.3396 137.4395 409.3396 C 137.4395 409.3396 130.54589 390.3685 128.82157 388.6442 C 127.09726 386.91987 114.07087 374.9437 109.42304 369.24565 C 104.7752 363.5476 96.1182 348.0642 96.73734 346.5829 C 97.35648 345.1016 101.8785 332.82018 102.57213 332.9887 C 103.26576 333.15723 102.94825 329.16396 107.95266 333.64327 C 112.95708 338.12258 150.03348 363.1215 150.89563 363.98365 C 151.75779 364.8458 176.45872 395.32293 169.05953 374.27093 C 161.66034 353.21894 157.27506 347.25834 157.27506 347.25834 C 157.27506 347.25834 130.84617 327.13074 120.16324 315.3976 C 109.4803 303.66444 107.44576 273.79918 107.70831 273.53663 C 107.97087 273.27407 117.14072 266.6907 118.26543 267.2903 C 119.39014 267.8899 156.63506 293.58244 162.23908 299.18647 C 167.8431 304.7905 193.76642 322.8372 200.92623 329.4719 C 208.08604 336.1066 210.97413 333.2185 212.02435 332.16828 C 213.07456 331.11806 201.41955 310.0111 201.6821 309.74856 C 201.94465 309.486 198.89168 299.60662 199.15423 299.34407 C 199.41679 299.0815 205.92567 288.26184 205.92567 288.26184 C 205.92567 288.26184 214.78817 277.50433 268.46486 357.31536 C 322.14155 437.1264 209.73088 290.49173 209.73088 290.49173 L 203.69214 296.53047 C 203.69214 296.53047 205.45188 305.1166 205.18933 305.37917 C 204.92678 305.64172 210.9228 316.88883 210.9228 316.88883 L 217.2559 329.5232 L 184.81636 327.9894 C 184.81636 327.9894 205.10391 339.95087 204.67284 339.5198 C 204.24176 339.0887 187.59822 322.97028 187.59822 322.97028 L 164.78648 306.98495 C 164.78648 306.98495 151.74056 297.61478 150.61585 297.01518 C 149.49114 296.41558 130.05354 282.22905 129.62246 281.79797 C 129.19138 281.3669 120.8678 279.3446 120.17416 279.17607 C 119.48053 279.00755 116.0478 285.02676 116.0478 285.02676 L 117.50591 299.08746 L 123.839 311.72184 L 132.89164 320.7745 C 132.89164 320.7745 146.79972 331.0068 147.06228 330.74426 C 147.32483 330.4817 164.1369 347.29376 164.1369 347.29376 C 164.1369 347.29376 169.64688 353.85397 169.55285 354.81016 C 169.45883 355.76634 175.3413 370.57565 175.77237 371.00672 C 176.20345 371.4378 178.97434 384.18574 178.71179 384.4483 C 178.44923 384.71085 175.56114 387.59894 175.56114 387.59894 L 168.94233 389.90697 L 151.08005 374.1451 C 151.08005 374.1451 142.36445 366.47973 141.93337 366.04865 C 141.5023 365.61758 123.52645 353.4179 123.52645 353.4179 L 104.59442 341.3123 L 106.4482 348.94225 C 106.4482 348.94225 115.6303 363.90054 115.36775 364.1631 C 115.1052 364.42565 122.24547 373.66636 122.67655 374.09744 C 123.10763 374.5285 137.33322 388.7541 137.33322 388.7541 L 143.5918 399.73866 L 148.25553 414.90455 L 145.85348 422.47954 C 145.85348 422.47954 131.13821 415.6409 130.6131 416.166 C 130.088 416.6911 112.93524 410.5656 112.93524 410.5656 L 101.16302 405.0947 L 87.5175 394.5998 L 72.6337 387.06753 L 60.99458 375.4284 L 61.198534 382.98387 C 61.198534 382.98387 69.726076 392.56163 69.8946 393.25526 C 70.063125 393.9489 80.08785 412.37535 79.8253 412.6379 C 79.56275 412.90045 106.16877 467.3372 106.16877 467.3372 Z" fill="white"/>
        <path d="M 106.16877 467.3372 L 491 506 C 491 506 57.42875 387.6158 56.99767 387.18473 C 56.56659 386.75365 48.32478 362.2335 48.32478 362.2335 L 76.8541 380.26066 C 76.8541 380.26066 96.25627 387.58536 106.69619 396.97505 C 117.1361 406.36475 137.4395 409.3396 137.4395 409.3396 C 137.4395 409.3396 130.54589 390.3685 128.82157 388.6442 C 127.09726 386.91987 114.07087 374.9437 109.42304 369.24565 C 104.7752 363.5476 96.1182 348.0642 96.73734 346.5829 C 97.35648 345.1016 101.8785 332.82018 102.57213 332.9887 C 103.26576 333.15723 102.94825 329.16396 107.95266 333.64327 C 112.95708 338.12258 150.03348 363.1215 150.89563 363.98365 C 151.75779 364.8458 176.45872 395.32293 169.05953 374.27093 C 161.66034 353.21894 157.27506 347.25834 157.27506 347.25834 C 157.27506 347.25834 130.84617 327.13074 120.16324 315.3976 C 109.4803 303.66444 107.44576 273.79918 107.70831 273.53663 C 107.97087 273.27407 117.14072 266.6907 118.26543 267.2903 C 119.39014 267.8899 156.63506 293.58244 162.23908 299.18647 C 167.8431 304.7905 193.76642 322.8372 200.92623 329.4719 C 208.08604 336.1066 210.97413 333.2185 212.02435 332.16828 C 213.07456 331.11806 201.41955 310.0111 201.6821 309.74856 C 201.94465 309.486 198.89168 299.60662 199.15423 299.34407 C 199.41679 299.0815 205.92567 288.26184 205.92567 288.26184 C 205.92567 288.26184 214.78817 277.50433 268.46486 357.31536 C 322.14155 437.1264 209.73088 290.49173 209.73088 290.49173 L 203.69214 296.53047 C 203.69214 296.53047 205.45188 305.1166 205.18933 305.37917 C 204.92678 305.64172 210.9228 316.88883 210.9228 316.88883 L 217.2559 329.5232 L 184.81636 327.9894 C 184.81636 327.9894 205.10391 339.95087 204.67284 339.5198 C 204.24176 339.0887 187.59822 322.97028 187.59822 322.97028 L 164.78648 306.98495 C 164.78648 306.98495 151.74056 297.61478 150.61585 297.01518 C 149.49114 296.41558 130.05354 282.22905 129.62246 281.79797 C 129.19138 281.3669 120.8678 279.3446 120.17416 279.17607 C 119.48053 279.00755 116.0478 285.02676 116.0478 285.02676 L 117.50591 299.08746 L 123.839 311.72184 L 132.89164 320.7745 C 132.89164 320.7745 146.79972 331.0068 147.06228 330.74426 C 147.32483 330.4817 164.1369 347.29376 164.1369 347.29376 C 164.1369 347.29376 169.64688 353.85397 169.55285 354.81016 C 169.45883 355.76634 175.3413 370.57565 175.77237 371.00672 C 176.20345 371.4378 178.97434 384.18574 178.71179 384.4483 C 178.44923 384.71085 175.56114 387.59894 175.56114 387.59894 L 168.94233 389.90697 L 151.08005 374.1451 C 151.08005 374.1451 142.36445 366.47973 141.93337 366.04865 C 141.5023 365.61758 123.52645 353.4179 123.52645 353.4179 L 104.59442 341.3123 L 106.4482 348.94225 C 106.4482 348.94225 115.6303 363.90054 115.36775 364.1631 C 115.1052 364.42565 122.24547 373.66636 122.67655 374.09744 C 123.10763 374.5285 137.33322 388.7541 137.33322 388.7541 L 143.5918 399.73866 L 148.25553 414.90455 L 145.85348 422.47954 C 145.85348 422.47954 131.13821 415.6409 130.6131 416.166 C 130.088 416.6911 112.93524 410.5656 112.93524 410.5656 L 101.16302 405.0947 L 87.5175 394.5998 L 72.6337 387.06753 L 60.99458 375.4284 L 61.198534 382.98387 C 61.198534 382.98387 69.726076 392.56163 69.8946 393.25526 C 70.063125 393.9489 80.08785 412.37535 79.8253 412.6379 C 79.56275 412.90045 106.16877 467.3372 106.16877 467.3372 Z" stroke="black" stroke-linecap="round" stroke-linejoin="round" stroke-width="5"/>
      </g>
      <g id="Graphic_20">
        <path d="M 634.8473 229.5744 L 678.5317 230.6878 C 678.5317 230.6878 710.659 238.3491 711.119 238.22584 C 711.579 238.1026 732.8798 247.67878 732.8798 247.67878 L 710.5051 263.53454 C 710.5051 263.53454 699.0801 277.9354 688.74664 281.6903 C 678.4132 285.44517 670.0607 303.953 670.0607 303.953 C 670.0607 303.953 686.6955 310.83526 688.5355 310.34223 C 690.3755 309.8492 703.4689 305.3548 709.2354 304.7957 C 715.0019 304.23664 729.4841 306.76544 730.4372 308.48217 C 731.3902 310.1989 739.4743 323.8095 739.1376 324.39277 C 738.8009 324.97602 741.9636 327.57972 737.0269 329.39554 C 732.0902 331.21135 701.8053 350.6657 700.8853 350.91222 C 699.9653 351.15873 669.16966 353.98714 687.5542 361.87963 C 705.9388 369.7721 711.8285 369.67303 711.8285 369.67303 C 711.8285 369.67303 735.1893 357.49725 747.39575 355.2126 C 759.6022 352.92793 783.15465 372.7473 783.2779 373.2073 C 783.4012 373.6673 785.71885 387.837 784.9221 388.5435 C 784.1254 389.25 753.2572 408.36764 747.2772 409.96996 C 741.2973 411.5723 719.68625 424.7583 712.44955 427.1904 C 705.21284 429.6225 706.5687 434.68246 707.0617 436.52244 C 707.5547 438.36243 727.2532 441.95866 727.3765 442.41866 C 727.4997 442.87866 736.002 447.0098 736.1253 447.4698 C 736.2485 447.9298 742.61595 462.4934 742.61595 462.4934 L 451 488 L 739.7657 464.7362 L 736.93085 454.15625 C 736.93085 454.15625 729.8086 449.65536 729.6853 449.19536 C 729.56205 448.73536 719.1295 446.6005 719.1295 446.6005 L 707.5305 443.79217 L 700.5557 434.32154 C 700.5557 434.32154 703.1505 423.7658 703.6105 423.6425 C 704.0705 423.51926 721.42716 418.37554 721.42716 418.37554 L 740.5247 406.84906 C 740.5247 406.84906 751.62185 400.42443 752.4186 399.7179 C 753.2153 399.0114 769.9227 389.60446 770.3827 389.4812 C 770.84265 389.35794 774.88355 382.3589 775.2203 381.77565 C 775.557 381.1924 771.9584 373.2822 771.9584 373.2822 L 760.7203 364.4609 L 749.1213 361.65255 L 739.4614 364.24092 C 739.4614 364.24092 727.44425 370.91207 727.5675 371.37207 C 727.6908 371.83206 432 482 432 482 C 432 482 703.0644 377.44463 702.3579 376.6479 C 701.6514 375.85116 688.5161 370.98934 688.0561 371.1126 C 687.5961 371.23586 676.9743 364.7145 676.851 364.2545 C 676.7278 363.7945 675.37196 358.73455 675.37196 358.73455 L 675.5766 350.2983 L 693.0235 343.65135 C 693.0235 343.65135 701.5169 340.3895 701.9769 340.26623 C 702.4369 340.14298 717.181 330.76905 717.181 330.76905 L 732.1386 320.35187 L 725.7228 316.6477 C 725.7228 316.6477 711.487 315.0389 711.3638 314.5789 C 711.2405 314.1189 702.00756 314.6208 701.5476 314.74405 C 701.0876 314.8673 685.90765 318.93475 685.90765 318.93475 L 675.5984 317.2599 L 434 461 L 657.4515 302.8944 C 657.4515 302.8944 667.1026 292.91306 666.8561 291.99306 C 666.6096 291.07307 676.4411 278.08522 676.4411 278.08522 L 684.162 270.10013 L 696.3024 263.88898 L 706.5367 254.24437 L 718.9567 250.91646 L 713.0911 245.5858 C 713.0911 245.5858 703.18465 247.25418 702.6014 246.91744 C 702.0181 246.5807 684.8661 243.28818 684.7429 242.8282 C 684.6196 242.3682 634.8473 229.5744 634.8473 229.5744 Z" fill="white"/>
        <path d="M 634.8473 229.5744 L 678.5317 230.6878 C 678.5317 230.6878 710.659 238.3491 711.119 238.22584 C 711.579 238.1026 732.8798 247.67878 732.8798 247.67878 L 710.5051 263.53454 C 710.5051 263.53454 699.0801 277.9354 688.74664 281.6903 C 678.4132 285.44517 670.0607 303.953 670.0607 303.953 C 670.0607 303.953 686.6955 310.83526 688.5355 310.34223 C 690.3755 309.8492 703.4689 305.3548 709.2354 304.7957 C 715.0019 304.23664 729.4841 306.76544 730.4372 308.48217 C 731.3902 310.1989 739.4743 323.8095 739.1376 324.39277 C 738.8009 324.97602 741.9636 327.57972 737.0269 329.39554 C 732.0902 331.21135 701.8053 350.6657 700.8853 350.91222 C 699.9653 351.15873 669.16966 353.98714 687.5542 361.87963 C 705.9388 369.7721 711.8285 369.67303 711.8285 369.67303 C 711.8285 369.67303 735.1893 357.49725 747.39575 355.2126 C 759.6022 352.92793 783.15465 372.7473 783.2779 373.2073 C 783.4012 373.6673 785.71885 387.837 784.9221 388.5435 C 784.1254 389.25 753.2572 408.36764 747.2772 409.96996 C 741.2973 411.5723 719.68625 424.7583 712.44955 427.1904 C 705.21284 429.6225 706.5687 434.68246 707.0617 436.52244 C 707.5547 438.36243 727.2532 441.95866 727.3765 442.41866 C 727.4997 442.87866 736.002 447.0098 736.1253 447.4698 C 736.2485 447.9298 742.61595 462.4934 742.61595 462.4934 L 451 488 L 739.7657 464.7362 L 736.93085 454.15625 C 736.93085 454.15625 729.8086 449.65536 729.6853 449.19536 C 729.56205 448.73536 719.1295 446.6005 719.1295 446.6005 L 707.5305 443.79217 L 700.5557 434.32154 C 700.5557 434.32154 703.1505 423.7658 703.6105 423.6425 C 704.0705 423.51926 721.42716 418.37554 721.42716 418.37554 L 740.5247 406.84906 C 740.5247 406.84906 751.62185 400.42443 752.4186 399.7179 C 753.2153 399.0114 769.9227 389.60446 770.3827 389.4812 C 770.84265 389.35794 774.88355 382.3589 775.2203 381.77565 C 775.557 381.1924 771.9584 373.2822 771.9584 373.2822 L 760.7203 364.4609 L 749.1213 361.65255 L 739.4614 364.24092 C 739.4614 364.24092 727.44425 370.91207 727.5675 371.37207 C 727.6908 371.83206 432 482 432 482 C 432 482 703.0644 377.44463 702.3579 376.6479 C 701.6514 375.85116 688.5161 370.98934 688.0561 371.1126 C 687.5961 371.23586 676.9743 364.7145 676.851 364.2545 C 676.7278 363.7945 675.37196 358.73455 675.37196 358.73455 L 675.5766 350.2983 L 693.0235 343.65135 C 693.0235 343.65135 701.5169 340.3895 701.9769 340.26623 C 702.4369 340.14298 717.181 330.76905 717.181 330.76905 L 732.1386 320.35187 L 725.7228 316.6477 C 725.7228 316.6477 711.487 315.0389 711.3638 314.5789 C 711.2405 314.1189 702.00756 314.6208 701.5476 314.74405 C 701.0876 314.8673 685.90765 318.93475 685.90765 318.93475 L 675.5984 317.2599 L 434 461 L 657.4515 302.8944 C 657.4515 302.8944 667.1026 292.91306 666.8561 291.99306 C 666.6096 291.07307 676.4411 278.08522 676.4411 278.08522 L 684.162 270.10013 L 696.3024 263.88898 L 706.5367 254.24437 L 718.9567 250.91646 L 713.0911 245.5858 C 713.0911 245.5858 703.18465 247.25418 702.6014 246.91744 C 702.0181 246.5807 684.8661 243.28818 684.7429 242.8282 C 684.6196 242.3682 634.8473 229.5744 634.8473 229.5744 Z" stroke="black" stroke-linecap="round" stroke-linejoin="round" stroke-width="5"/>
      </g>
      <g id="Graphic_19">
        <path d="M 740 467 L 829.9434 531.0977 C 829.9434 531.0977 843.5732 552.03053 843.8674 552.1094 C 844.1617 552.1882 851.2853 570.33043 851.2853 570.33043 L 832.7768 575.8443 C 832.7768 575.8443 820.6437 584.6374 813.6138 583.8011 C 806.584 582.96475 794.3187 596.95904 794.3187 596.95904 C 794.3187 596.95904 800.1355 610.5618 801.3126 610.8772 C 802.4896 611.1926 811.28505 612.502 814.5544 614.42534 C 817.8237 616.3487 824.3611 624.90794 824.1317 626.9411 C 823.9023 628.9743 822.3614 645.3185 821.9362 645.7282 C 821.5111 646.138 822.066 649.9523 818.6982 649.5735 C 815.3304 649.1948 791.1325 654.75515 790.5439 654.59746 C 789.9554 654.43976 772.5627 644.01915 778.8696 659.3242 C 785.1764 674.6293 788.3148 677.0412 788.3148 677.0412 C 788.3148 677.0412 805.77595 675.436 813.1649 678.46315 C 820.5539 681.49035 824.5031 710.3025 824.3722 710.7911 C 824.2413 711.27964 819.4311 725.7005 818.7116 726.0314 C 817.9922 726.3623 793.6309 731.3552 789.8055 730.3302 C 785.9801 729.3052 769.009 732.6127 764.1699 731.8397 C 759.3308 731.0668 757.8908 736.44115 757.3671 738.3955 C 756.8434 740.3498 765.6689 752.14045 765.538 752.629 C 765.4071 753.1176 768.1191 760.6519 767.9882 761.14045 C 767.8573 761.629 765.0084 778.1464 765.0084 778.1464 L 762.1295 784.1826 L 762.5558 779.0603 L 765.5669 767.8229 C 765.5669 767.8229 763.7376 760.5252 763.86855 760.0366 C 763.9995 759.548 759.4234 753.0853 759.4234 753.0853 L 754.5206 745.48765 L 754.8833 733.5407 C 754.8833 733.5407 760.73845 724.6364 761.0327 724.7152 C 761.327 724.79405 772.63985 727.3017 772.63985 727.3017 L 787.5835 724.49824 C 787.5835 724.49824 796.1507 723.1282 796.8702 722.7973 C 797.5896 722.4664 810.375 720.6557 810.66925 720.7345 C 810.9635 720.8134 816.0656 715.8966 816.4908 715.4868 C 816.916 715.0771 818.3897 706.0461 818.3897 706.0461 L 816.2349 692.9009 L 811.3321 685.3033 L 805.1526 683.6475 C 805.1526 683.6475 795.9969 684.8598 795.866 685.3484 C 795.7351 685.837 784.2588 682.76196 784.2588 682.76196 C 784.2588 682.76196 485.03243 524.056 485 523 C 484.96757 521.944 775.4994 668.3707 775.2051 668.29186 C 774.9109 668.213 772.1015 657.5107 772.2325 657.02214 C 772.3634 656.5336 773.8034 651.1592 773.8034 651.1592 L 777.5003 643.2475 L 789.5002 644.36825 C 789.5002 644.36825 795.353 644.8892 795.6472 644.968 C 795.9415 645.0469 807.6807 642.43214 807.6807 642.43214 L 819.9761 638.9191 L 818.1792 632.6774 C 818.1792 632.6774 811.38 625.0953 811.5109 624.6067 C 811.6418 624.1181 806.5745 620.6657 806.2802 620.58684 C 805.986 620.508 796.2753 617.906 796.2753 617.906 L 791.5683 611.93186 L 404 457 L 788.1404 590.5906 C 788.1404 590.5906 797.4607 585.2331 797.7225 584.25594 C 797.9843 583.2788 808.6786 575.14745 808.6786 575.14745 L 816.1348 570.8614 L 825.1597 570.13766 L 834.6433 565.34756 L 842.5883 567.47644 L 841.7728 559.9267 C 841.7728 559.9267 835.8551 557.2937 835.6918 556.7263 C 835.5284 556.15887 827.9124 545.7396 828.0433 545.251 C 828.1743 544.76245 740 467 740 467 Z" fill="white"/>
        <path d="M 740 467 L 829.9434 531.0977 C 829.9434 531.0977 843.5732 552.03053 843.8674 552.1094 C 844.1617 552.1882 851.2853 570.33043 851.2853 570.33043 L 832.7768 575.8443 C 832.7768 575.8443 820.6437 584.6374 813.6138 583.8011 C 806.584 582.96475 794.3187 596.95904 794.3187 596.95904 C 794.3187 596.95904 800.1355 610.5618 801.3126 610.8772 C 802.4896 611.1926 811.28505 612.502 814.5544 614.42534 C 817.8237 616.3487 824.3611 624.90794 824.1317 626.9411 C 823.9023 628.9743 822.3614 645.3185 821.9362 645.7282 C 821.5111 646.138 822.066 649.9523 818.6982 649.5735 C 815.3304 649.1948 791.1325 654.75515 790.5439 654.59746 C 789.9554 654.43976 772.5627 644.01915 778.8696 659.3242 C 785.1764 674.6293 788.3148 677.0412 788.3148 677.0412 C 788.3148 677.0412 805.77595 675.436 813.1649 678.46315 C 820.5539 681.49035 824.5031 710.3025 824.3722 710.7911 C 824.2413 711.27964 819.4311 725.7005 818.7116 726.0314 C 817.9922 726.3623 793.6309 731.3552 789.8055 730.3302 C 785.9801 729.3052 769.009 732.6127 764.1699 731.8397 C 759.3308 731.0668 757.8908 736.44115 757.3671 738.3955 C 756.8434 740.3498 765.6689 752.14045 765.538 752.629 C 765.4071 753.1176 768.1191 760.6519 767.9882 761.14045 C 767.8573 761.629 765.0084 778.1464 765.0084 778.1464 L 762.1295 784.1826 L 762.5558 779.0603 L 765.5669 767.8229 C 765.5669 767.8229 763.7376 760.5252 763.86855 760.0366 C 763.9995 759.548 759.4234 753.0853 759.4234 753.0853 L 754.5206 745.48765 L 754.8833 733.5407 C 754.8833 733.5407 760.73845 724.6364 761.0327 724.7152 C 761.327 724.79405 772.63985 727.3017 772.63985 727.3017 L 787.5835 724.49824 C 787.5835 724.49824 796.1507 723.1282 796.8702 722.7973 C 797.5896 722.4664 810.375 720.6557 810.66925 720.7345 C 810.9635 720.8134 816.0656 715.8966 816.4908 715.4868 C 816.916 715.0771 818.3897 706.0461 818.3897 706.0461 L 816.2349 692.9009 L 811.3321 685.3033 L 805.1526 683.6475 C 805.1526 683.6475 795.9969 684.8598 795.866 685.3484 C 795.7351 685.837 784.2588 682.76196 784.2588 682.76196 C 784.2588 682.76196 485.03243 524.056 485 523 C 484.96757 521.944 775.4994 668.3707 775.2051 668.29186 C 774.9109 668.213 772.1015 657.5107 772.2325 657.02214 C 772.3634 656.5336 773.8034 651.1592 773.8034 651.1592 L 777.5003 643.2475 L 789.5002 644.36825 C 789.5002 644.36825 795.353 644.8892 795.6472 644.968 C 795.9415 645.0469 807.6807 642.43214 807.6807 642.43214 L 819.9761 638.9191 L 818.1792 632.6774 C 818.1792 632.6774 811.38 625.0953 811.5109 624.6067 C 811.6418 624.1181 806.5745 620.6657 806.2802 620.58684 C 805.986 620.508 796.2753 617.906 796.2753 617.906 L 791.5683 611.93186 L 404 457 L 788.1404 590.5906 C 788.1404 590.5906 797.4607 585.2331 797.7225 584.25594 C 797.9843 583.2788 808.6786 575.14745 808.6786 575.14745 L 816.1348 570.8614 L 825.1597 570.13766 L 834.6433 565.34756 L 842.5883 567.47644 L 841.7728 559.9267 C 841.7728 559.9267 835.8551 557.2937 835.6918 556.7263 C 835.5284 556.15887 827.9124 545.7396 828.0433 545.251 C 828.1743 544.76245 740 467 740 467 Z" stroke="black" stroke-linecap="round" stroke-linejoin="round" stroke-width="5"/>
      </g>
      <g id="Graphic_17">
        <path d="M 258.0287 535.13614 L 166.33082 596.0381 C 166.33082 596.0381 145.7679 595.27325 145.49378 595.3985 C 145.21965 595.5238 131.19445 592.3873 131.19445 592.3873 L 143.6693 580.5285 C 143.6693 580.5285 149.49003 570.7866 155.56214 567.396 C 161.63426 564.0055 165.19449 552.21736 165.19449 552.21736 C 165.19449 552.21736 154.2935 550.1166 153.19699 550.61765 C 152.10048 551.1187 144.3836 555.26084 140.86129 556.2546 C 137.33897 557.2483 128.15023 557.44426 127.4105 556.5506 C 126.67077 555.657 120.47884 548.6331 120.63657 548.2531 C 120.7943 547.8731 118.60887 546.71637 121.50786 545.0837 C 124.40686 543.4511 141.46678 528.5733 142.01504 528.3228 C 142.56329 528.07226 161.3878 522.8573 149.31522 520.36815 C 137.24265 517.879 133.60393 518.618 133.60393 518.618 C 133.60393 518.618 120.19789 528.439 112.8378 531.18644 C 105.4777 533.9339 89.16583 525.06816 89.04943 524.81343 C 88.93303 524.5587 86.26342 516.5411 86.69528 516.03586 C 87.12713 515.5306 104.57758 500.7823 108.14123 499.15385 C 111.70488 497.5254 123.93934 487.316 128.20897 485.05705 C 132.4786 482.7981 131.1982 479.9961 130.7326 478.9772 C 130.267 477.9583 117.755 478.13326 117.6386 477.87854 C 117.5222 477.6238 111.8971 476.19134 111.7807 475.9366 C 111.6643 475.6819 106.45248 467.90223 106.45248 467.90223 L 106.03579 464.08973 L 108.02217 466.2612 L 110.69936 472.1199 C 110.69936 472.1199 115.50207 473.9282 115.61847 474.1829 C 115.73487 474.43763 122.3814 474.4796 122.3814 474.4796 L 129.80899 474.7805 L 134.95332 479.5118 C 134.95332 479.5118 134.26592 485.98427 133.99179 486.10953 C 133.71766 486.2348 123.41725 491.2496 123.41725 491.2496 L 112.59475 500.19794 C 112.59475 500.19794 106.28225 505.2379 105.8504 505.74317 C 105.41854 506.2484 95.8916 513.681 95.61747 513.8063 C 95.34335 513.93154 93.45062 518.49144 93.2929 518.8714 C 93.13517 519.2514 96.05274 523.4607 96.05274 523.4607 L 103.78062 527.3194 L 111.2082 527.6203 L 116.96486 524.9897 C 116.96486 524.9897 123.8256 519.6992 123.70921 519.4445 C 123.59281 519.18976 134.28375 514.30443 134.28375 514.30443 C 134.28375 514.30443 138.35432 513.0602 138.86125 513.44437 C 139.36817 513.82856 147.926 515.15255 148.20013 515.0273 C 148.47426 514.902 155.62013 517.48706 155.73653 517.7418 C 155.85293 517.9965 157.13333 520.7985 157.13333 520.7985 L 157.7415 525.7552 L 147.51615 531.6594 C 147.51615 531.6594 142.54054 534.5489 142.26642 534.67416 C 141.99229 534.7994 133.67825 541.9857 133.67825 541.9857 L 125.32289 549.80666 L 129.61868 551.23074 C 129.61868 551.23074 138.57462 550.5253 138.69102 550.78005 C 138.80742 551.0348 144.48143 549.67365 144.75555 549.5484 C 145.02968 549.4231 154.07586 545.2894 154.07586 545.2894 L 160.60599 545.0766 L 169.2389 547.29007 L 173.09525 551.3783 C 173.09525 551.3783 167.98808 558.3308 168.22088 558.84025 C 168.45368 559.3497 163.49665 568.0811 163.49665 568.0811 L 159.41091 573.6431 L 152.43376 578.6789 L 146.93607 585.50195 L 139.53465 588.8841 L 143.63138 591.3229 C 143.63138 591.3229 149.62084 589.2018 150.01137 589.33124 C 150.4019 589.4607 161.31047 589.4026 161.42687 589.6573 C 161.54327 589.91205 258.0287 535.13614 258.0287 535.13614 Z" fill="white"/>
        <path d="M 258.0287 535.13614 L 166.33082 596.0381 C 166.33082 596.0381 145.7679 595.27325 145.49378 595.3985 C 145.21965 595.5238 131.19445 592.3873 131.19445 592.3873 L 143.6693 580.5285 C 143.6693 580.5285 149.49003 570.7866 155.56214 567.396 C 161.63426 564.0055 165.19449 552.21736 165.19449 552.21736 C 165.19449 552.21736 154.2935 550.1166 153.19699 550.61765 C 152.10048 551.1187 144.3836 555.26084 140.86129 556.2546 C 137.33897 557.2483 128.15023 557.44426 127.4105 556.5506 C 126.67077 555.657 120.47884 548.6331 120.63657 548.2531 C 120.7943 547.8731 118.60887 546.71637 121.50786 545.0837 C 124.40686 543.4511 141.46678 528.5733 142.01504 528.3228 C 142.56329 528.07226 161.3878 522.8573 149.31522 520.36815 C 137.24265 517.879 133.60393 518.618 133.60393 518.618 C 133.60393 518.618 120.19789 528.439 112.8378 531.18644 C 105.4777 533.9339 89.16583 525.06816 89.04943 524.81343 C 88.93303 524.5587 86.26342 516.5411 86.69528 516.03586 C 87.12713 515.5306 104.57758 500.7823 108.14123 499.15385 C 111.70488 497.5254 123.93934 487.316 128.20897 485.05705 C 132.4786 482.7981 131.1982 479.9961 130.7326 478.9772 C 130.267 477.9583 117.755 478.13326 117.6386 477.87854 C 117.5222 477.6238 111.8971 476.19134 111.7807 475.9366 C 111.6643 475.6819 106.45248 467.90223 106.45248 467.90223 L 106.03579 464.08973 L 108.02217 466.2612 L 110.69936 472.1199 C 110.69936 472.1199 115.50207 473.9282 115.61847 474.1829 C 115.73487 474.43763 122.3814 474.4796 122.3814 474.4796 L 129.80899 474.7805 L 134.95332 479.5118 C 134.95332 479.5118 134.26592 485.98427 133.99179 486.10953 C 133.71766 486.2348 123.41725 491.2496 123.41725 491.2496 L 112.59475 500.19794 C 112.59475 500.19794 106.28225 505.2379 105.8504 505.74317 C 105.41854 506.2484 95.8916 513.681 95.61747 513.8063 C 95.34335 513.93154 93.45062 518.49144 93.2929 518.8714 C 93.13517 519.2514 96.05274 523.4607 96.05274 523.4607 L 103.78062 527.3194 L 111.2082 527.6203 L 116.96486 524.9897 C 116.96486 524.9897 123.8256 519.6992 123.70921 519.4445 C 123.59281 519.18976 134.28375 514.30443 134.28375 514.30443 C 134.28375 514.30443 138.35432 513.0602 138.86125 513.44437 C 139.36817 513.82856 147.926 515.15255 148.20013 515.0273 C 148.47426 514.902 155.62013 517.48706 155.73653 517.7418 C 155.85293 517.9965 157.13333 520.7985 157.13333 520.7985 L 157.7415 525.7552 L 147.51615 531.6594 C 147.51615 531.6594 142.54054 534.5489 142.26642 534.67416 C 141.99229 534.7994 133.67825 541.9857 133.67825 541.9857 L 125.32289 549.80666 L 129.61868 551.23074 C 129.61868 551.23074 138.57462 550.5253 138.69102 550.78005 C 138.80742 551.0348 144.48143 549.67365 144.75555 549.5484 C 145.02968 549.4231 154.07586 545.2894 154.07586 545.2894 L 160.60599 545.0766 L 169.2389 547.29007 L 173.09525 551.3783 C 173.09525 551.3783 167.98808 558.3308 168.22088 558.84025 C 168.45368 559.3497 163.49665 568.0811 163.49665 568.0811 L 159.41091 573.6431 L 152.43376 578.6789 L 146.93607 585.50195 L 139.53465 588.8841 L 143.63138 591.3229 C 143.63138 591.3229 149.62084 589.2018 150.01137 589.33124 C 150.4019 589.4607 161.31047 589.4026 161.42687 589.6573 C 161.54327 589.91205 258.0287 535.13614 258.0287 535.13614 Z" stroke="black" stroke-linecap="round" stroke-linejoin="round" stroke-width="5"/>
      </g>
    </g>
    <g id="Feedback_mono: Layer 1">
      <title>Layer 1</title>
      <g id="Line_7">
        <path d="M 638.5519 691.8943 L 663.55076 733.36626 L 719.4896 750.7266 L 754.2103 777.7316" stroke="white" stroke-linecap="round" stroke-linejoin="round" stroke-width="17"/>
      </g>
      <g id="Graphic_42">
        <path d="M 60.46405 116.94171 L 326.17085 45.745787 L 489.98223 547.64716 L 168.82984 633.6997 Z" fill="#666"/>
        <path d="M 60.46405 116.94171 L 326.17085 45.745787 L 489.98223 547.64716 L 168.82984 633.6997 Z" stroke="black" stroke-linecap="round" stroke-linejoin="round" stroke-width="22"/>
      </g>
      <g id="Graphic_41">
        <circle cx="286.2666" cy="417.58626" r="115.997267686707" fill="#ccc"/>
        <circle cx="286.2666" cy="417.58626" r="115.997267686707" stroke="black" stroke-linecap="round" stroke-linejoin="round" stroke-width="18"/>
      </g>
      <g id="Graphic_40">
        <circle cx="287.01874" cy="420.39327" r="49.2013648233797" fill="#999"/>
        <circle cx="287.01874" cy="420.39327" r="49.2013648233797" stroke="black" stroke-linecap="round" stroke-linejoin="round" stroke-width="18"/>
      </g>
      <g id="Graphic_39">
        <circle cx="228.0461" cy="200.30435" r="63.6276331587918" fill="#ccc"/>
        <circle cx="228.0461" cy="200.30435" r="63.6276331587918" stroke="black" stroke-linecap="round" stroke-linejoin="round" stroke-width="18"/>
      </g>
      <g id="Graphic_38">
        <circle cx="228.45865" cy="201.84407" r="26.9882770027749" fill="#a5a5a5"/>
        <circle cx="228.45865" cy="201.84407" r="26.9882770027749" stroke="black" stroke-linecap="round" stroke-linejoin="round" stroke-width="18"/>
      </g>
      <g id="Graphic_37">
        <path d="M 54.963645 110.135 L 334.8589 35.1373 L 507.4176 563.83965 L 169.11605 654.4873 Z" fill="black"/>
        <path d="M 54.963645 110.135 L 334.8589 35.1373 L 507.4176 563.83965 L 169.11605 654.4873 Z" stroke="white" stroke-linecap="round" stroke-linejoin="round" stroke-width="22"/>
      </g>
      <g id="Graphic_36">
        <circle cx="292.8238" cy="426.83364" r="122.191393826068" fill="white"/>
        <circle cx="292.8238" cy="426.83364" r="122.191393826068" stroke="black" stroke-linecap="round" stroke-linejoin="round" stroke-width="18"/>
      </g>
      <g id="Graphic_35">
        <circle cx="293.6161" cy="429.79054" r="51.8286634315488" fill="white"/>
        <circle cx="293.6161" cy="429.79054" r="51.8286634315488" stroke="black" stroke-linecap="round" stroke-linejoin="round" stroke-width="18"/>
      </g>
      <g id="Graphic_34">
        <circle cx="231.49437" cy="197.94912" r="67.0252785826388" fill="white"/>
        <circle cx="231.49437" cy="197.94912" r="67.0252785826388" stroke="white" stroke-linecap="round" stroke-linejoin="round" stroke-width="18"/>
      </g>
      <g id="Graphic_33">
        <circle cx="231.92897" cy="199.57105" r="28.4294212242982" fill="white"/>
        <circle cx="231.92897" cy="199.57105" r="28.4294212242982" stroke="black" stroke-linecap="round" stroke-linejoin="round" stroke-width="18"/>
      </g>
      <g id="Graphic_15">
        <path d="M 304.5116 195.3712 L 333.97225 147.22042 C 333.97225 147.22042 363.29346 116.22782 363.4527 115.63361 C 363.6119 115.0394 388.0827 97.39519 388.0827 97.39519 L 391.3691 132.66688 C 391.3691 132.66688 400.10017 154.7494 397.6266 168.73465 C 395.153 182.7199 410.463 204.01777 410.463 204.01777 C 410.463 204.01777 428.9064 189.8535 429.54325 187.47665 C 430.1801 185.09981 433.609 167.5493 436.70806 160.73721 C 439.8071 153.92513 451.9899 139.3571 454.526 139.39976 C 457.06204 139.44242 477.5097 139.18951 477.9447 139.94294 C 478.3797 140.69637 483.33525 138.83984 482.17807 145.53537 C 481.0209 152.2309 483.224 198.676 482.90557 199.86442 C 482.58713 201.05284 465.8609 237.33087 486.5645 221.86161 C 507.26816 206.39236 510.9614 199.7395 510.9614 199.7395 C 510.9614 199.7395 512.42867 165.74156 517.75675 150.61054 C 523.08484 135.47953 560.469 121.93232 561.0632 122.09154 C 561.65744 122.25076 579.0061 128.80993 579.28185 130.15757 C 579.5576 131.5052 581.0073 178.3853 578.9375 186.11003 C 576.86766 193.83476 577.6607 226.52772 575.7074 236.1943 C 573.7541 245.86087 580.2904 247.61227 582.6673 248.24914 C 585.0441 248.886 601.7902 229.17197 602.3844 229.3312 C 602.9786 229.4904 613.0916 222.6471 613.6858 222.8063 C 614.28 222.96553 634.685 225.24868 634.685 225.24868 L 641.7729 229.69535 L 635.3531 229.8858 L 621.6863 226.22378 C 621.6863 226.22378 612.05095 231.28447 611.45674 231.12525 C 610.8625 230.96603 601.7361 241.25804 601.7361 241.25804 L 591.10276 252.42004 L 576.003 254.1059 C 576.003 254.1059 565.8702 244.38525 566.0294 243.79104 C 566.1886 243.19683 571.6447 220.45764 571.6447 220.45764 L 571.0848 191.64837 C 571.0848 191.64837 571.065 175.0844 570.7892 173.73675 C 570.5134 172.38912 570.78083 147.62276 570.94005 147.02855 C 571.0993 146.43434 565.8794 137.3932 565.4444 136.63978 C 565.0094 135.88635 553.83596 134.80306 553.83596 134.80306 L 536.709 141.6776 L 526.0757 152.8396 L 522.7321 165.318 C 522.7321 165.318 522.4335 183.0704 523.0277 183.22962 C 523.6219 183.38883 517.4124 206.563 517.4124 206.563 C 517.4124 206.563 513.9949 214.5635 512.6473 214.83928 C 511.29965 215.11506 497.37685 226.66939 497.21763 227.2636 C 497.0584 227.8578 482.9025 235.52844 482.3083 235.36922 C 481.7141 235.21 475.1778 233.4586 475.1778 233.4586 L 465.8723 227.78085 L 469.70497 203.9698 C 469.70497 203.9698 471.5417 192.36138 471.7009 191.76717 C 471.8601 191.17296 470.89645 168.62422 470.89645 168.62422 L 468.90357 145.16284 L 460.61587 149.94775 C 460.61587 149.94775 449.62146 164.83422 449.02725 164.675 C 448.43304 164.51578 443.03106 175.1689 442.87184 175.7631 C 442.7126 176.35732 437.4584 195.96624 437.4584 195.96624 L 428.9262 206.41747 L 413.37997 216.89993 L 401.1347 217.44005 C 401.1347 217.44005 396.202 200.19653 395.01356 199.8781 C 393.82514 199.55966 385.64563 180.17242 385.64563 180.17242 L 381.69947 166.37761 L 382.5923 148.78443 L 378.41305 131.10593 L 382.71194 115.06227 L 372.96004 118.1811 C 372.96004 118.1811 368.42804 130.34107 367.6746 130.77606 C 366.9212 131.21105 352.15964 148.27248 351.56543 148.11327 C 350.9712 147.95405 304.5116 195.3712 304.5116 195.3712 Z" fill="black"/>
        <path d="M 304.5116 195.3712 L 333.97225 147.22042 C 333.97225 147.22042 363.29346 116.22782 363.4527 115.63361 C 363.6119 115.0394 388.0827 97.39519 388.0827 97.39519 L 391.3691 132.66688 C 391.3691 132.66688 400.10017 154.7494 397.6266 168.73465 C 395.153 182.7199 410.463 204.01777 410.463 204.01777 C 410.463 204.01777 428.9064 189.8535 429.54325 187.47665 C 430.1801 185.09981 433.609 167.5493 436.70806 160.73721 C 439.8071 153.92513 451.9899 139.3571 454.526 139.39976 C 457.06204 139.44242 477.5097 139.18951 477.9447 139.94294 C 478.3797 140.69637 483.33525 138.83984 482.17807 145.53537 C 481.0209 152.2309 483.224 198.676 482.90557 199.86442 C 482.58713 201.05284 465.8609 237.33087 486.5645 221.86161 C 507.26816 206.39236 510.9614 199.7395 510.9614 199.7395 C 510.9614 199.7395 512.42867 165.74156 517.75675 150.61054 C 523.08484 135.47953 560.469 121.93232 561.0632 122.09154 C 561.65744 122.25076 579.0061 128.80993 579.28185 130.15757 C 579.5576 131.5052 581.0073 178.3853 578.9375 186.11003 C 576.86766 193.83476 577.6607 226.52772 575.7074 236.1943 C 573.7541 245.86087 580.2904 247.61227 582.6673 248.24914 C 585.0441 248.886 601.7902 229.17197 602.3844 229.3312 C 602.9786 229.4904 613.0916 222.6471 613.6858 222.8063 C 614.28 222.96553 634.685 225.24868 634.685 225.24868 L 641.7729 229.69535 L 635.3531 229.8858 L 621.6863 226.22378 C 621.6863 226.22378 612.05095 231.28447 611.45674 231.12525 C 610.8625 230.96603 601.7361 241.25804 601.7361 241.25804 L 591.10276 252.42004 L 576.003 254.1059 C 576.003 254.1059 565.8702 244.38525 566.0294 243.79104 C 566.1886 243.19683 571.6447 220.45764 571.6447 220.45764 L 571.0848 191.64837 C 571.0848 191.64837 571.065 175.0844 570.7892 173.73675 C 570.5134 172.38912 570.78083 147.62276 570.94005 147.02855 C 571.0993 146.43434 565.8794 137.3932 565.4444 136.63978 C 565.0094 135.88635 553.83596 134.80306 553.83596 134.80306 L 536.709 141.6776 L 526.0757 152.8396 L 522.7321 165.318 C 522.7321 165.318 522.4335 183.0704 523.0277 183.22962 C 523.6219 183.38883 517.4124 206.563 517.4124 206.563 C 517.4124 206.563 513.9949 214.5635 512.6473 214.83928 C 511.29965 215.11506 497.37685 226.66939 497.21763 227.2636 C 497.0584 227.8578 482.9025 235.52844 482.3083 235.36922 C 481.7141 235.21 475.1778 233.4586 475.1778 233.4586 L 465.8723 227.78085 L 469.70497 203.9698 C 469.70497 203.9698 471.5417 192.36138 471.7009 191.76717 C 471.8601 191.17296 470.89645 168.62422 470.89645 168.62422 L 468.90357 145.16284 L 460.61587 149.94775 C 460.61587 149.94775 449.62146 164.83422 449.02725 164.675 C 448.43304 164.51578 443.03106 175.1689 442.87184 175.7631 C 442.7126 176.35732 437.4584 195.96624 437.4584 195.96624 L 428.9262 206.41747 L 413.37997 216.89993 L 401.1347 217.44005 C 401.1347 217.44005 396.202 200.19653 395.01356 199.8781 C 393.82514 199.55966 385.64563 180.17242 385.64563 180.17242 L 381.69947 166.37761 L 382.5923 148.78443 L 378.41305 131.10593 L 382.71194 115.06227 L 372.96004 118.1811 C 372.96004 118.1811 368.42804 130.34107 367.6746 130.77606 C 366.9212 131.21105 352.15964 148.27248 351.56543 148.11327 C 350.9712 147.95405 304.5116 195.3712 304.5116 195.3712 Z" stroke="white" stroke-linecap="round" stroke-linejoin="round" stroke-width="5"/>
      </g>
      <g id="Graphic_9">
        <circle cx="423.3772" cy="481.04044" r="84.0405753618659" fill="white"/>
        <circle cx="423.3772" cy="481.04044" r="84.0405753618659" stroke="white" stroke-linecap="round" stroke-linejoin="round" stroke-width="18"/>
      </g>
      <g id="Graphic_16">
        <path d="M 106.16877 467.3372 L 75.06026 422.5759 C 75.06026 422.5759 57.42875 387.6158 56.99767 387.18473 C 56.56659 386.75365 48.32478 362.2335 48.32478 362.2335 L 76.8541 380.26066 C 76.8541 380.26066 96.25627 387.58536 106.69619 396.97505 C 117.1361 406.36475 137.4395 409.3396 137.4395 409.3396 C 137.4395 409.3396 130.54589 390.3685 128.82157 388.6442 C 127.09726 386.91987 114.07087 374.9437 109.42304 369.24565 C 104.7752 363.5476 96.1182 348.0642 96.73734 346.5829 C 97.35648 345.1016 101.8785 332.82018 102.57213 332.9887 C 103.26576 333.15723 102.94825 329.16396 107.95266 333.64327 C 112.95708 338.12258 150.03348 363.1215 150.89563 363.98365 C 151.75779 364.8458 176.45872 395.32293 169.05953 374.27093 C 161.66034 353.21894 157.27506 347.25834 157.27506 347.25834 C 157.27506 347.25834 130.84617 327.13074 120.16324 315.3976 C 109.4803 303.66444 107.44576 273.79918 107.70831 273.53663 C 107.97087 273.27407 117.14072 266.6907 118.26543 267.2903 C 119.39014 267.8899 156.63506 293.58244 162.23908 299.18647 C 167.8431 304.7905 193.76642 322.8372 200.92623 329.4719 C 208.08604 336.1066 210.97413 333.2185 212.02435 332.16828 C 213.07456 331.11806 201.41955 310.0111 201.6821 309.74856 C 201.94465 309.486 198.89168 299.60662 199.15423 299.34407 C 199.41679 299.0815 205.92567 288.26184 205.92567 288.26184 C 205.92567 288.26184 214.78817 277.50433 268.46486 357.31536 C 322.14155 437.1264 209.73088 290.49173 209.73088 290.49173 L 203.69214 296.53047 C 203.69214 296.53047 205.45188 305.1166 205.18933 305.37917 C 204.92678 305.64172 210.9228 316.88883 210.9228 316.88883 L 217.2559 329.5232 L 184.81636 327.9894 C 184.81636 327.9894 205.10391 339.95087 204.67284 339.5198 C 204.24176 339.0887 187.59822 322.97028 187.59822 322.97028 L 164.78648 306.98495 C 164.78648 306.98495 151.74056 297.61478 150.61585 297.01518 C 149.49114 296.41558 130.05354 282.22905 129.62246 281.79797 C 129.19138 281.3669 120.8678 279.3446 120.17416 279.17607 C 119.48053 279.00755 116.0478 285.02676 116.0478 285.02676 L 117.50591 299.08746 L 123.839 311.72184 L 132.89164 320.7745 C 132.89164 320.7745 146.79972 331.0068 147.06228 330.74426 C 147.32483 330.4817 164.1369 347.29376 164.1369 347.29376 C 164.1369 347.29376 169.64688 353.85397 169.55285 354.81016 C 169.45883 355.76634 175.3413 370.57565 175.77237 371.00672 C 176.20345 371.4378 178.97434 384.18574 178.71179 384.4483 C 178.44923 384.71085 175.56114 387.59894 175.56114 387.59894 L 168.94233 389.90697 L 151.08005 374.1451 C 151.08005 374.1451 142.36445 366.47973 141.93337 366.04865 C 141.5023 365.61758 123.52645 353.4179 123.52645 353.4179 L 104.59442 341.3123 L 106.4482 348.94225 C 106.4482 348.94225 115.6303 363.90054 115.36775 364.1631 C 115.1052 364.42565 122.24547 373.66636 122.67655 374.09744 C 123.10763 374.5285 137.33322 388.7541 137.33322 388.7541 L 143.5918 399.73866 L 148.25553 414.90455 L 145.85348 422.47954 C 145.85348 422.47954 131.13821 415.6409 130.6131 416.166 C 130.088 416.6911 112.93524 410.5656 112.93524 410.5656 L 101.16302 405.0947 L 87.5175 394.5998 L 72.6337 387.06753 L 60.99458 375.4284 L 61.198534 382.98387 C 61.198534 382.98387 69.726076 392.56163 69.8946 393.25526 C 70.063125 393.9489 80.08785 412.37535 79.8253 412.6379 C 79.56275 412.90045 106.16877 467.3372 106.16877 467.3372 Z" fill="black"/>
        <path d="M 106.16877 467.3372 L 75.06026 422.5759 C 75.06026 422.5759 57.42875 387.6158 56.99767 387.18473 C 56.56659 386.75365 48.32478 362.2335 48.32478 362.2335 L 76.8541 380.26066 C 76.8541 380.26066 96.25627 387.58536 106.69619 396.97505 C 117.1361 406.36475 137.4395 409.3396 137.4395 409.3396 C 137.4395 409.3396 130.54589 390.3685 128.82157 388.6442 C 127.09726 386.91987 114.07087 374.9437 109.42304 369.24565 C 104.7752 363.5476 96.1182 348.0642 96.73734 346.5829 C 97.35648 345.1016 101.8785 332.82018 102.57213 332.9887 C 103.26576 333.15723 102.94825 329.16396 107.95266 333.64327 C 112.95708 338.12258 150.03348 363.1215 150.89563 363.98365 C 151.75779 364.8458 176.45872 395.32293 169.05953 374.27093 C 161.66034 353.21894 157.27506 347.25834 157.27506 347.25834 C 157.27506 347.25834 130.84617 327.13074 120.16324 315.3976 C 109.4803 303.66444 107.44576 273.79918 107.70831 273.53663 C 107.97087 273.27407 117.14072 266.6907 118.26543 267.2903 C 119.39014 267.8899 156.63506 293.58244 162.23908 299.18647 C 167.8431 304.7905 193.76642 322.8372 200.92623 329.4719 C 208.08604 336.1066 210.97413 333.2185 212.02435 332.16828 C 213.07456 331.11806 201.41955 310.0111 201.6821 309.74856 C 201.94465 309.486 198.89168 299.60662 199.15423 299.34407 C 199.41679 299.0815 205.92567 288.26184 205.92567 288.26184 C 205.92567 288.26184 214.78817 277.50433 268.46486 357.31536 C 322.14155 437.1264 209.73088 290.49173 209.73088 290.49173 L 203.69214 296.53047 C 203.69214 296.53047 205.45188 305.1166 205.18933 305.37917 C 204.92678 305.64172 210.9228 316.88883 210.9228 316.88883 L 217.2559 329.5232 L 184.81636 327.9894 C 184.81636 327.9894 205.10391 339.95087 204.67284 339.5198 C 204.24176 339.0887 187.59822 322.97028 187.59822 322.97028 L 164.78648 306.98495 C 164.78648 306.98495 151.74056 297.61478 150.61585 297.01518 C 149.49114 296.41558 130.05354 282.22905 129.62246 281.79797 C 129.19138 281.3669 120.8678 279.3446 120.17416 279.17607 C 119.48053 279.00755 116.0478 285.02676 116.0478 285.02676 L 117.50591 299.08746 L 123.839 311.72184 L 132.89164 320.7745 C 132.89164 320.7745 146.79972 331.0068 147.06228 330.74426 C 147.32483 330.4817 164.1369 347.29376 164.1369 347.29376 C 164.1369 347.29376 169.64688 353.85397 169.55285 354.81016 C 169.45883 355.76634 175.3413 370.57565 175.77237 371.00672 C 176.20345 371.4378 178.97434 384.18574 178.71179 384.4483 C 178.44923 384.71085 175.56114 387.59894 175.56114 387.59894 L 168.94233 389.90697 L 151.08005 374.1451 C 151.08005 374.1451 142.36445 366.47973 141.93337 366.04865 C 141.5023 365.61758 123.52645 353.4179 123.52645 353.4179 L 104.59442 341.3123 L 106.4482 348.94225 C 106.4482 348.94225 115.6303 363.90054 115.36775 364.1631 C 115.1052 364.42565 122.24547 373.66636 122.67655 374.09744 C 123.10763 374.5285 137.33322 388.7541 137.33322 388.7541 L 143.5918 399.73866 L 148.25553 414.90455 L 145.85348 422.47954 C 145.85348 422.47954 131.13821 415.6409 130.6131 416.166 C 130.088 416.6911 112.93524 410.5656 112.93524 410.5656 L 101.16302 405.0947 L 87.5175 394.5998 L 72.6337 387.06753 L 60.99458 375.4284 L 61.198534 382.98387 C 61.198534 382.98387 69.726076 392.56163 69.8946 393.25526 C 70.063125 393.9489 80.08785 412.37535 79.8253 412.6379 C 79.56275 412.90045 106.16877 467.3372 106.16877 467.3372 Z" stroke="white" stroke-linecap="round" stroke-linejoin="round" stroke-width="5"/>
      </g>
      <g id="Graphic_14">
        <path d="M 634.8473 229.5744 L 678.5317 230.6878 C 678.5317 230.6878 710.659 238.3491 711.119 238.22584 C 711.579 238.1026 732.8798 247.67878 732.8798 247.67878 L 710.5051 263.53454 C 710.5051 263.53454 699.0801 277.9354 688.74664 281.6903 C 678.4132 285.44517 670.0607 303.953 670.0607 303.953 C 670.0607 303.953 686.6955 310.83526 688.5355 310.34223 C 690.3755 309.8492 703.4689 305.3548 709.2354 304.7957 C 715.0019 304.23664 729.4841 306.76544 730.4372 308.48217 C 731.3902 310.1989 739.4743 323.8095 739.1376 324.39277 C 738.8009 324.97602 741.9636 327.57972 737.0269 329.39554 C 732.0902 331.21135 701.8053 350.6657 700.8853 350.91222 C 699.9653 351.15873 669.16966 353.98714 687.5542 361.87963 C 705.9388 369.7721 711.8285 369.67303 711.8285 369.67303 C 711.8285 369.67303 735.1893 357.49725 747.39575 355.2126 C 759.6022 352.92793 783.15465 372.7473 783.2779 373.2073 C 783.4012 373.6673 785.71885 387.837 784.9221 388.5435 C 784.1254 389.25 753.2572 408.36764 747.2772 409.96996 C 741.2973 411.5723 719.68625 424.7583 712.44955 427.1904 C 705.21284 429.6225 706.5687 434.68246 707.0617 436.52244 C 707.5547 438.36243 727.2532 441.95866 727.3765 442.41866 C 727.4997 442.87866 736.002 447.0098 736.1253 447.4698 C 736.2485 447.9298 742.61595 462.4934 742.61595 462.4934 L 742.3783 468.9664 L 739.7657 464.7362 L 736.93085 454.15625 C 736.93085 454.15625 729.8086 449.65536 729.6853 449.19536 C 729.56205 448.73536 719.1295 446.6005 719.1295 446.6005 L 707.5305 443.79217 L 700.5557 434.32154 C 700.5557 434.32154 703.1505 423.7658 703.6105 423.6425 C 704.0705 423.51926 721.42716 418.37554 721.42716 418.37554 L 740.5247 406.84906 C 740.5247 406.84906 751.62185 400.42443 752.4186 399.7179 C 753.2153 399.0114 769.9227 389.60446 770.3827 389.4812 C 770.84265 389.35794 774.88355 382.3589 775.2203 381.77565 C 775.557 381.1924 771.9584 373.2822 771.9584 373.2822 L 760.7203 364.4609 L 749.1213 361.65255 L 739.4614 364.24092 C 739.4614 364.24092 727.44425 370.91207 727.5675 371.37207 C 727.6908 371.83206 709.7509 376.63905 709.7509 376.63905 C 709.7509 376.63905 703.0644 377.44463 702.3579 376.6479 C 701.6514 375.85116 688.5161 370.98934 688.0561 371.1126 C 687.5961 371.23586 676.9743 364.7145 676.851 364.2545 C 676.7278 363.7945 675.37196 358.73455 675.37196 358.73455 L 675.5766 350.2983 L 693.0235 343.65135 C 693.0235 343.65135 701.5169 340.3895 701.9769 340.26623 C 702.4369 340.14298 717.181 330.76905 717.181 330.76905 L 732.1386 320.35187 L 725.7228 316.6477 C 725.7228 316.6477 711.487 315.0389 711.3638 314.5789 C 711.2405 314.1189 702.00756 314.6208 701.5476 314.74405 C 701.0876 314.8673 685.90765 318.93475 685.90765 318.93475 L 675.5984 317.2599 L 662.55335 310.89483 L 657.4515 302.8944 C 657.4515 302.8944 667.1026 292.91306 666.8561 291.99306 C 666.6096 291.07307 676.4411 278.08522 676.4411 278.08522 L 684.162 270.10013 L 696.3024 263.88898 L 706.5367 254.24437 L 718.9567 250.91646 L 713.0911 245.5858 C 713.0911 245.5858 703.18465 247.25418 702.6014 246.91744 C 702.0181 246.5807 684.8661 243.28818 684.7429 242.8282 C 684.6196 242.3682 634.8473 229.5744 634.8473 229.5744 Z" fill="black"/>
        <path d="M 634.8473 229.5744 L 678.5317 230.6878 C 678.5317 230.6878 710.659 238.3491 711.119 238.22584 C 711.579 238.1026 732.8798 247.67878 732.8798 247.67878 L 710.5051 263.53454 C 710.5051 263.53454 699.0801 277.9354 688.74664 281.6903 C 678.4132 285.44517 670.0607 303.953 670.0607 303.953 C 670.0607 303.953 686.6955 310.83526 688.5355 310.34223 C 690.3755 309.8492 703.4689 305.3548 709.2354 304.7957 C 715.0019 304.23664 729.4841 306.76544 730.4372 308.48217 C 731.3902 310.1989 739.4743 323.8095 739.1376 324.39277 C 738.8009 324.97602 741.9636 327.57972 737.0269 329.39554 C 732.0902 331.21135 701.8053 350.6657 700.8853 350.91222 C 699.9653 351.15873 669.16966 353.98714 687.5542 361.87963 C 705.9388 369.7721 711.8285 369.67303 711.8285 369.67303 C 711.8285 369.67303 735.1893 357.49725 747.39575 355.2126 C 759.6022 352.92793 783.15465 372.7473 783.2779 373.2073 C 783.4012 373.6673 785.71885 387.837 784.9221 388.5435 C 784.1254 389.25 753.2572 408.36764 747.2772 409.96996 C 741.2973 411.5723 719.68625 424.7583 712.44955 427.1904 C 705.21284 429.6225 706.5687 434.68246 707.0617 436.52244 C 707.5547 438.36243 727.2532 441.95866 727.3765 442.41866 C 727.4997 442.87866 736.002 447.0098 736.1253 447.4698 C 736.2485 447.9298 742.61595 462.4934 742.61595 462.4934 L 742.3783 468.9664 L 739.7657 464.7362 L 736.93085 454.15625 C 736.93085 454.15625 729.8086 449.65536 729.6853 449.19536 C 729.56205 448.73536 719.1295 446.6005 719.1295 446.6005 L 707.5305 443.79217 L 700.5557 434.32154 C 700.5557 434.32154 703.1505 423.7658 703.6105 423.6425 C 704.0705 423.51926 721.42716 418.37554 721.42716 418.37554 L 740.5247 406.84906 C 740.5247 406.84906 751.62185 400.42443 752.4186 399.7179 C 753.2153 399.0114 769.9227 389.60446 770.3827 389.4812 C 770.84265 389.35794 774.88355 382.3589 775.2203 381.77565 C 775.557 381.1924 771.9584 373.2822 771.9584 373.2822 L 760.7203 364.4609 L 749.1213 361.65255 L 739.4614 364.24092 C 739.4614 364.24092 727.44425 370.91207 727.5675 371.37207 C 727.6908 371.83206 709.7509 376.63905 709.7509 376.63905 C 709.7509 376.63905 703.0644 377.44463 702.3579 376.6479 C 701.6514 375.85116 688.5161 370.98934 688.0561 371.1126 C 687.5961 371.23586 676.9743 364.7145 676.851 364.2545 C 676.7278 363.7945 675.37196 358.73455 675.37196 358.73455 L 675.5766 350.2983 L 693.0235 343.65135 C 693.0235 343.65135 701.5169 340.3895 701.9769 340.26623 C 702.4369 340.14298 717.181 330.76905 717.181 330.76905 L 732.1386 320.35187 L 725.7228 316.6477 C 725.7228 316.6477 711.487 315.0389 711.3638 314.5789 C 711.2405 314.1189 702.00756 314.6208 701.5476 314.74405 C 701.0876 314.8673 685.90765 318.93475 685.90765 318.93475 L 675.5984 317.2599 L 662.55335 310.89483 L 657.4515 302.8944 C 657.4515 302.8944 667.1026 292.91306 666.8561 291.99306 C 666.6096 291.07307 676.4411 278.08522 676.4411 278.08522 L 684.162 270.10013 L 696.3024 263.88898 L 706.5367 254.24437 L 718.9567 250.91646 L 713.0911 245.5858 C 713.0911 245.5858 703.18465 247.25418 702.6014 246.91744 C 702.0181 246.5807 684.8661 243.28818 684.7429 242.8282 C 684.6196 242.3682 634.8473 229.5744 634.8473 229.5744 Z" stroke="white" stroke-linecap="round" stroke-linejoin="round" stroke-width="5"/>
      </g>
      <g id="Graphic_13">
        <path d="M 740 467 L 829.9434 531.0977 C 829.9434 531.0977 843.5732 552.03053 843.8674 552.1094 C 844.1617 552.1882 851.2853 570.33043 851.2853 570.33043 L 832.7768 575.8443 C 832.7768 575.8443 820.6437 584.6374 813.6138 583.8011 C 806.584 582.96475 794.3187 596.95904 794.3187 596.95904 C 794.3187 596.95904 800.1355 610.5618 801.3126 610.8772 C 802.4896 611.1926 811.28505 612.502 814.5544 614.42534 C 817.8237 616.3487 824.3611 624.90794 824.1317 626.9411 C 823.9023 628.9743 822.3614 645.3185 821.9362 645.7282 C 821.5111 646.138 822.066 649.9523 818.6982 649.5735 C 815.3304 649.1948 791.1325 654.75515 790.5439 654.59746 C 789.9554 654.43976 772.5627 644.01915 778.8696 659.3242 C 785.1764 674.6293 788.3148 677.0412 788.3148 677.0412 C 788.3148 677.0412 805.77595 675.436 813.1649 678.46315 C 820.5539 681.49035 824.5031 710.3025 824.3722 710.7911 C 824.2413 711.27964 819.4311 725.7005 818.7116 726.0314 C 817.9922 726.3623 793.6309 731.3552 789.8055 730.3302 C 785.9801 729.3052 769.009 732.6127 764.1699 731.8397 C 759.3308 731.0668 757.8908 736.44115 757.3671 738.3955 C 756.8434 740.3498 765.6689 752.14045 765.538 752.629 C 765.4071 753.1176 768.1191 760.6519 767.9882 761.14045 C 767.8573 761.629 765.0084 778.1464 765.0084 778.1464 L 762.1295 784.1826 L 762.5558 779.0603 L 765.5669 767.8229 C 765.5669 767.8229 763.7376 760.5252 763.86855 760.0366 C 763.9995 759.548 759.4234 753.0853 759.4234 753.0853 L 754.5206 745.48765 L 754.8833 733.5407 C 754.8833 733.5407 760.73845 724.6364 761.0327 724.7152 C 761.327 724.79405 772.63985 727.3017 772.63985 727.3017 L 787.5835 724.49824 C 787.5835 724.49824 796.1507 723.1282 796.8702 722.7973 C 797.5896 722.4664 810.375 720.6557 810.66925 720.7345 C 810.9635 720.8134 816.0656 715.8966 816.4908 715.4868 C 816.916 715.0771 818.3897 706.0461 818.3897 706.0461 L 816.2349 692.9009 L 811.3321 685.3033 L 805.1526 683.6475 C 805.1526 683.6475 795.9969 684.8598 795.866 685.3484 C 795.7351 685.837 784.2588 682.76196 784.2588 682.76196 C 784.2588 682.76196 780.401 680.6809 780.3686 679.6249 C 780.3361 678.5689 775.4994 668.3707 775.2051 668.29186 C 774.9109 668.213 772.1015 657.5107 772.2325 657.02214 C 772.3634 656.5336 773.8034 651.1592 773.8034 651.1592 L 777.5003 643.2475 L 789.5002 644.36825 C 789.5002 644.36825 795.353 644.8892 795.6472 644.968 C 795.9415 645.0469 807.6807 642.43214 807.6807 642.43214 L 819.9761 638.9191 L 818.1792 632.6774 C 818.1792 632.6774 811.38 625.0953 811.5109 624.6067 C 811.6418 624.1181 806.5745 620.6657 806.2802 620.58684 C 805.986 620.508 796.2753 617.906 796.2753 617.906 L 791.5683 611.93186 L 787.4186 600.34675 L 788.1404 590.5906 C 788.1404 590.5906 797.4607 585.2331 797.7225 584.25594 C 797.9843 583.2788 808.6786 575.14745 808.6786 575.14745 L 816.1348 570.8614 L 825.1597 570.13766 L 834.6433 565.34756 L 842.5883 567.47644 L 841.7728 559.9267 C 841.7728 559.9267 835.8551 557.2937 835.6918 556.7263 C 835.5284 556.15887 827.9124 545.7396 828.0433 545.251 C 828.1743 544.76245 740 467 740 467 Z" fill="black"/>
        <path d="M 740 467 L 829.9434 531.0977 C 829.9434 531.0977 843.5732 552.03053 843.8674 552.1094 C 844.1617 552.1882 851.2853 570.33043 851.2853 570.33043 L 832.7768 575.8443 C 832.7768 575.8443 820.6437 584.6374 813.6138 583.8011 C 806.584 582.96475 794.3187 596.95904 794.3187 596.95904 C 794.3187 596.95904 800.1355 610.5618 801.3126 610.8772 C 802.4896 611.1926 811.28505 612.502 814.5544 614.42534 C 817.8237 616.3487 824.3611 624.90794 824.1317 626.9411 C 823.9023 628.9743 822.3614 645.3185 821.9362 645.7282 C 821.5111 646.138 822.066 649.9523 818.6982 649.5735 C 815.3304 649.1948 791.1325 654.75515 790.5439 654.59746 C 789.9554 654.43976 772.5627 644.01915 778.8696 659.3242 C 785.1764 674.6293 788.3148 677.0412 788.3148 677.0412 C 788.3148 677.0412 805.77595 675.436 813.1649 678.46315 C 820.5539 681.49035 824.5031 710.3025 824.3722 710.7911 C 824.2413 711.27964 819.4311 725.7005 818.7116 726.0314 C 817.9922 726.3623 793.6309 731.3552 789.8055 730.3302 C 785.9801 729.3052 769.009 732.6127 764.1699 731.8397 C 759.3308 731.0668 757.8908 736.44115 757.3671 738.3955 C 756.8434 740.3498 765.6689 752.14045 765.538 752.629 C 765.4071 753.1176 768.1191 760.6519 767.9882 761.14045 C 767.8573 761.629 765.0084 778.1464 765.0084 778.1464 L 762.1295 784.1826 L 762.5558 779.0603 L 765.5669 767.8229 C 765.5669 767.8229 763.7376 760.5252 763.86855 760.0366 C 763.9995 759.548 759.4234 753.0853 759.4234 753.0853 L 754.5206 745.48765 L 754.8833 733.5407 C 754.8833 733.5407 760.73845 724.6364 761.0327 724.7152 C 761.327 724.79405 772.63985 727.3017 772.63985 727.3017 L 787.5835 724.49824 C 787.5835 724.49824 796.1507 723.1282 796.8702 722.7973 C 797.5896 722.4664 810.375 720.6557 810.66925 720.7345 C 810.9635 720.8134 816.0656 715.8966 816.4908 715.4868 C 816.916 715.0771 818.3897 706.0461 818.3897 706.0461 L 816.2349 692.9009 L 811.3321 685.3033 L 805.1526 683.6475 C 805.1526 683.6475 795.9969 684.8598 795.866 685.3484 C 795.7351 685.837 784.2588 682.76196 784.2588 682.76196 C 784.2588 682.76196 780.401 680.6809 780.3686 679.6249 C 780.3361 678.5689 775.4994 668.3707 775.2051 668.29186 C 774.9109 668.213 772.1015 657.5107 772.2325 657.02214 C 772.3634 656.5336 773.8034 651.1592 773.8034 651.1592 L 777.5003 643.2475 L 789.5002 644.36825 C 789.5002 644.36825 795.353 644.8892 795.6472 644.968 C 795.9415 645.0469 807.6807 642.43214 807.6807 642.43214 L 819.9761 638.9191 L 818.1792 632.6774 C 818.1792 632.6774 811.38 625.0953 811.5109 624.6067 C 811.6418 624.1181 806.5745 620.6657 806.2802 620.58684 C 805.986 620.508 796.2753 617.906 796.2753 617.906 L 791.5683 611.93186 L 787.4186 600.34675 L 788.1404 590.5906 C 788.1404 590.5906 797.4607 585.2331 797.7225 584.25594 C 797.9843 583.2788 808.6786 575.14745 808.6786 575.14745 L 816.1348 570.8614 L 825.1597 570.13766 L 834.6433 565.34756 L 842.5883 567.47644 L 841.7728 559.9267 C 841.7728 559.9267 835.8551 557.2937 835.6918 556.7263 C 835.5284 556.15887 827.9124 545.7396 828.0433 545.251 C 828.1743 544.76245 740 467 740 467 Z" stroke="white" stroke-linecap="round" stroke-linejoin="round" stroke-width="5"/>
      </g>
      <g id="Graphic_12">
        <path d="M 447 492 L 558.8931 753.8281 C 558.8931 753.8281 528.5642 755.0771 528.3833 755.3268 C 528.20244 755.5764 503.2033 751.9306 503.2033 751.9306 L 501.27736 729.9766 C 501.27736 729.9766 493.43694 712.4936 496.42795 705.9043 C 499.41895 699.315 485.00807 678.5943 485.00807 678.5943 C 485.00807 678.5943 466.1336 676.3404 465.41004 677.339 C 464.6865 678.3376 460.61017 686.4249 457.27015 688.57345 C 453.93013 690.72204 441.26433 692.2051 438.7447 690.7602 C 436.22503 689.31535 415.88693 678.0059 415.48313 677.3326 C 415.0793 676.6593 410.08205 674.9422 411.4871 671.7723 C 412.89217 668.6025 412.4681 640.8837 412.82986 640.3844 C 413.19163 639.8851 431.19996 628.5672 410.02874 625.79126 C 388.8575 623.01536 384.9328 624.7403 384.9328 624.7403 C 384.9328 624.7403 382.18124 643.3053 376.3088 648.94906 C 370.4364 654.5928 332.75496 641.3774 332.17027 640.95374 C 331.58558 640.5301 314.5875 627.0721 314.3646 626.1491 C 314.14166 625.2262 314.48316 597.6814 316.8347 594.4359 C 319.1862 591.1904 319.64104 572.10345 321.95053 567.6853 C 324.26 563.2672 317.8284 558.6072 315.48965 556.9127 C 313.1509 555.21815 295.75276 557.0796 295.16807 556.65596 C 294.58338 556.2323 284.2691 554.4699 283.6844 554.04626 C 283.09972 553.6226 262.90048 540.8909 262.90048 540.8909 L 256.02304 534.38505 L 262.4126 537.87244 L 275.8605 547.61605 C 275.8605 547.61605 285.63213 550.12745 286.21682 550.5511 C 286.8015 550.9747 296.26615 550.218 296.26615 550.218 L 307.26194 549.8092 L 322.3378 557.3059 C 322.3378 557.3059 332.0419 568.5248 331.861 568.7745 C 331.6801 569.0241 325.39113 578.93465 325.39113 578.93465 L 324.85223 595.6764 C 324.85223 595.6764 324.24202 605.13286 324.46494 606.0558 C 324.68786 606.97875 323.4802 620.95165 323.29932 621.2013 C 323.11843 621.45096 327.9641 629.53044 328.3679 630.2037 C 328.7717 630.877 339.8388 637.7535 339.8388 637.7535 L 357.12735 643.42695 L 368.12314 643.0182 L 371.92175 637.7754 C 371.92175 637.7754 372.89373 627.8196 372.30904 627.396 C 371.72435 626.97235 378.7789 617.2358 378.7789 617.2358 C 378.7789 617.2358 382.4807 614.5879 383.83098 615.1855 C 385.18124 615.78314 399.46227 616.9932 399.64315 616.7436 C 399.82404 616.4939 414.18913 620.0492 414.7738 620.4728 C 415.3585 620.8965 421.7901 625.55646 421.7901 625.55646 L 430.82543 634.0065 L 426.10963 645.4376 C 426.10963 645.4376 423.84217 651.0283 423.6613 651.278 C 423.4804 651.52764 423.581 664.92555 423.581 664.92555 L 424.67006 679.4204 L 433.0914 681.3342 C 433.0914 681.3342 444.58783 679.0038 445.1725 679.42746 C 445.7572 679.8511 451.5328 676.8022 451.7137 676.5525 C 451.8946 676.3029 457.86384 668.0643 457.86384 668.0643 L 466.7438 666.8839 L 482.598 669.6145 L 494.79245 676.1657 C 494.79245 676.1657 499.04066 688.7616 500.21004 689.60884 C 501.3794 690.4561 508.774 706.0931 508.774 706.0931 L 512.1726 716.1699 L 510.6159 725.702 L 514.09854 738.1239 L 509.2146 744.8646 L 519.02826 748.5486 C 519.02826 748.5486 523.99626 744.1531 524.76184 744.3271 C 525.5274 744.5011 540.8517 743.04065 541.4364 743.4643 C 542.0211 743.8879 447 492 447 492 Z" fill="black"/>
        <path d="M 447 492 L 558.8931 753.8281 C 558.8931 753.8281 528.5642 755.0771 528.3833 755.3268 C 528.20244 755.5764 503.2033 751.9306 503.2033 751.9306 L 501.27736 729.9766 C 501.27736 729.9766 493.43694 712.4936 496.42795 705.9043 C 499.41895 699.315 485.00807 678.5943 485.00807 678.5943 C 485.00807 678.5943 466.1336 676.3404 465.41004 677.339 C 464.6865 678.3376 460.61017 686.4249 457.27015 688.57345 C 453.93013 690.72204 441.26433 692.2051 438.7447 690.7602 C 436.22503 689.31535 415.88693 678.0059 415.48313 677.3326 C 415.0793 676.6593 410.08205 674.9422 411.4871 671.7723 C 412.89217 668.6025 412.4681 640.8837 412.82986 640.3844 C 413.19163 639.8851 431.19996 628.5672 410.02874 625.79126 C 388.8575 623.01536 384.9328 624.7403 384.9328 624.7403 C 384.9328 624.7403 382.18124 643.3053 376.3088 648.94906 C 370.4364 654.5928 332.75496 641.3774 332.17027 640.95374 C 331.58558 640.5301 314.5875 627.0721 314.3646 626.1491 C 314.14166 625.2262 314.48316 597.6814 316.8347 594.4359 C 319.1862 591.1904 319.64104 572.10345 321.95053 567.6853 C 324.26 563.2672 317.8284 558.6072 315.48965 556.9127 C 313.1509 555.21815 295.75276 557.0796 295.16807 556.65596 C 294.58338 556.2323 284.2691 554.4699 283.6844 554.04626 C 283.09972 553.6226 262.90048 540.8909 262.90048 540.8909 L 256.02304 534.38505 L 262.4126 537.87244 L 275.8605 547.61605 C 275.8605 547.61605 285.63213 550.12745 286.21682 550.5511 C 286.8015 550.9747 296.26615 550.218 296.26615 550.218 L 307.26194 549.8092 L 322.3378 557.3059 C 322.3378 557.3059 332.0419 568.5248 331.861 568.7745 C 331.6801 569.0241 325.39113 578.93465 325.39113 578.93465 L 324.85223 595.6764 C 324.85223 595.6764 324.24202 605.13286 324.46494 606.0558 C 324.68786 606.97875 323.4802 620.95165 323.29932 621.2013 C 323.11843 621.45096 327.9641 629.53044 328.3679 630.2037 C 328.7717 630.877 339.8388 637.7535 339.8388 637.7535 L 357.12735 643.42695 L 368.12314 643.0182 L 371.92175 637.7754 C 371.92175 637.7754 372.89373 627.8196 372.30904 627.396 C 371.72435 626.97235 378.7789 617.2358 378.7789 617.2358 C 378.7789 617.2358 382.4807 614.5879 383.83098 615.1855 C 385.18124 615.78314 399.46227 616.9932 399.64315 616.7436 C 399.82404 616.4939 414.18913 620.0492 414.7738 620.4728 C 415.3585 620.8965 421.7901 625.55646 421.7901 625.55646 L 430.82543 634.0065 L 426.10963 645.4376 C 426.10963 645.4376 423.84217 651.0283 423.6613 651.278 C 423.4804 651.52764 423.581 664.92555 423.581 664.92555 L 424.67006 679.4204 L 433.0914 681.3342 C 433.0914 681.3342 444.58783 679.0038 445.1725 679.42746 C 445.7572 679.8511 451.5328 676.8022 451.7137 676.5525 C 451.8946 676.3029 457.86384 668.0643 457.86384 668.0643 L 466.7438 666.8839 L 482.598 669.6145 L 494.79245 676.1657 C 494.79245 676.1657 499.04066 688.7616 500.21004 689.60884 C 501.3794 690.4561 508.774 706.0931 508.774 706.0931 L 512.1726 716.1699 L 510.6159 725.702 L 514.09854 738.1239 L 509.2146 744.8646 L 519.02826 748.5486 C 519.02826 748.5486 523.99626 744.1531 524.76184 744.3271 C 525.5274 744.5011 540.8517 743.04065 541.4364 743.4643 C 542.0211 743.8879 447 492 447 492 Z" stroke="white" stroke-linecap="round" stroke-linejoin="round" stroke-width="5"/>
      </g>
      <g id="Graphic_11">
        <path d="M 258.0287 535.13614 L 166.33082 596.0381 C 166.33082 596.0381 145.7679 595.27325 145.49378 595.3985 C 145.21965 595.5238 131.19445 592.3873 131.19445 592.3873 L 143.6693 580.5285 C 143.6693 580.5285 149.49003 570.7866 155.56214 567.396 C 161.63426 564.0055 165.19449 552.21736 165.19449 552.21736 C 165.19449 552.21736 154.2935 550.1166 153.19699 550.61765 C 152.10048 551.1187 144.3836 555.26084 140.86129 556.2546 C 137.33897 557.2483 128.15023 557.44426 127.4105 556.5506 C 126.67077 555.657 120.47884 548.6331 120.63657 548.2531 C 120.7943 547.8731 118.60887 546.71637 121.50786 545.0837 C 124.40686 543.4511 141.46678 528.5733 142.01504 528.3228 C 142.56329 528.07226 161.3878 522.8573 149.31522 520.36815 C 137.24265 517.879 133.60393 518.618 133.60393 518.618 C 133.60393 518.618 120.19789 528.439 112.8378 531.18644 C 105.4777 533.9339 89.16583 525.06816 89.04943 524.81343 C 88.93303 524.5587 86.26342 516.5411 86.69528 516.03586 C 87.12713 515.5306 104.57758 500.7823 108.14123 499.15385 C 111.70488 497.5254 123.93934 487.316 128.20897 485.05705 C 132.4786 482.7981 131.1982 479.9961 130.7326 478.9772 C 130.267 477.9583 117.755 478.13326 117.6386 477.87854 C 117.5222 477.6238 111.8971 476.19134 111.7807 475.9366 C 111.6643 475.6819 106.45248 467.90223 106.45248 467.90223 L 106.03579 464.08973 L 108.02217 466.2612 L 110.69936 472.1199 C 110.69936 472.1199 115.50207 473.9282 115.61847 474.1829 C 115.73487 474.43763 122.3814 474.4796 122.3814 474.4796 L 129.80899 474.7805 L 134.95332 479.5118 C 134.95332 479.5118 134.26592 485.98427 133.99179 486.10953 C 133.71766 486.2348 123.41725 491.2496 123.41725 491.2496 L 112.59475 500.19794 C 112.59475 500.19794 106.28225 505.2379 105.8504 505.74317 C 105.41854 506.2484 95.8916 513.681 95.61747 513.8063 C 95.34335 513.93154 93.45062 518.49144 93.2929 518.8714 C 93.13517 519.2514 96.05274 523.4607 96.05274 523.4607 L 103.78062 527.3194 L 111.2082 527.6203 L 116.96486 524.9897 C 116.96486 524.9897 123.8256 519.6992 123.70921 519.4445 C 123.59281 519.18976 134.28375 514.30443 134.28375 514.30443 C 134.28375 514.30443 138.35432 513.0602 138.86125 513.44437 C 139.36817 513.82856 147.926 515.15255 148.20013 515.0273 C 148.47426 514.902 155.62013 517.48706 155.73653 517.7418 C 155.85293 517.9965 157.13333 520.7985 157.13333 520.7985 L 157.7415 525.7552 L 147.51615 531.6594 C 147.51615 531.6594 142.54054 534.5489 142.26642 534.67416 C 141.99229 534.7994 133.67825 541.9857 133.67825 541.9857 L 125.32289 549.80666 L 129.61868 551.23074 C 129.61868 551.23074 138.57462 550.5253 138.69102 550.78005 C 138.80742 551.0348 144.48143 549.67365 144.75555 549.5484 C 145.02968 549.4231 154.07586 545.2894 154.07586 545.2894 L 160.60599 545.0766 L 169.2389 547.29007 L 173.09525 551.3783 C 173.09525 551.3783 167.98808 558.3308 168.22088 558.84025 C 168.45368 559.3497 163.49665 568.0811 163.49665 568.0811 L 159.41091 573.6431 L 152.43376 578.6789 L 146.93607 585.50195 L 139.53465 588.8841 L 143.63138 591.3229 C 143.63138 591.3229 149.62084 589.2018 150.01137 589.33124 C 150.4019 589.4607 161.31047 589.4026 161.42687 589.6573 C 161.54327 589.91205 258.0287 535.13614 258.0287 535.13614 Z" fill="black"/>
        <path d="M 258.0287 535.13614 L 166.33082 596.0381 C 166.33082 596.0381 145.7679 595.27325 145.49378 595.3985 C 145.21965 595.5238 131.19445 592.3873 131.19445 592.3873 L 143.6693 580.5285 C 143.6693 580.5285 149.49003 570.7866 155.56214 567.396 C 161.63426 564.0055 165.19449 552.21736 165.19449 552.21736 C 165.19449 552.21736 154.2935 550.1166 153.19699 550.61765 C 152.10048 551.1187 144.3836 555.26084 140.86129 556.2546 C 137.33897 557.2483 128.15023 557.44426 127.4105 556.5506 C 126.67077 555.657 120.47884 548.6331 120.63657 548.2531 C 120.7943 547.8731 118.60887 546.71637 121.50786 545.0837 C 124.40686 543.4511 141.46678 528.5733 142.01504 528.3228 C 142.56329 528.07226 161.3878 522.8573 149.31522 520.36815 C 137.24265 517.879 133.60393 518.618 133.60393 518.618 C 133.60393 518.618 120.19789 528.439 112.8378 531.18644 C 105.4777 533.9339 89.16583 525.06816 89.04943 524.81343 C 88.93303 524.5587 86.26342 516.5411 86.69528 516.03586 C 87.12713 515.5306 104.57758 500.7823 108.14123 499.15385 C 111.70488 497.5254 123.93934 487.316 128.20897 485.05705 C 132.4786 482.7981 131.1982 479.9961 130.7326 478.9772 C 130.267 477.9583 117.755 478.13326 117.6386 477.87854 C 117.5222 477.6238 111.8971 476.19134 111.7807 475.9366 C 111.6643 475.6819 106.45248 467.90223 106.45248 467.90223 L 106.03579 464.08973 L 108.02217 466.2612 L 110.69936 472.1199 C 110.69936 472.1199 115.50207 473.9282 115.61847 474.1829 C 115.73487 474.43763 122.3814 474.4796 122.3814 474.4796 L 129.80899 474.7805 L 134.95332 479.5118 C 134.95332 479.5118 134.26592 485.98427 133.99179 486.10953 C 133.71766 486.2348 123.41725 491.2496 123.41725 491.2496 L 112.59475 500.19794 C 112.59475 500.19794 106.28225 505.2379 105.8504 505.74317 C 105.41854 506.2484 95.8916 513.681 95.61747 513.8063 C 95.34335 513.93154 93.45062 518.49144 93.2929 518.8714 C 93.13517 519.2514 96.05274 523.4607 96.05274 523.4607 L 103.78062 527.3194 L 111.2082 527.6203 L 116.96486 524.9897 C 116.96486 524.9897 123.8256 519.6992 123.70921 519.4445 C 123.59281 519.18976 134.28375 514.30443 134.28375 514.30443 C 134.28375 514.30443 138.35432 513.0602 138.86125 513.44437 C 139.36817 513.82856 147.926 515.15255 148.20013 515.0273 C 148.47426 514.902 155.62013 517.48706 155.73653 517.7418 C 155.85293 517.9965 157.13333 520.7985 157.13333 520.7985 L 157.7415 525.7552 L 147.51615 531.6594 C 147.51615 531.6594 142.54054 534.5489 142.26642 534.67416 C 141.99229 534.7994 133.67825 541.9857 133.67825 541.9857 L 125.32289 549.80666 L 129.61868 551.23074 C 129.61868 551.23074 138.57462 550.5253 138.69102 550.78005 C 138.80742 551.0348 144.48143 549.67365 144.75555 549.5484 C 145.02968 549.4231 154.07586 545.2894 154.07586 545.2894 L 160.60599 545.0766 L 169.2389 547.29007 L 173.09525 551.3783 C 173.09525 551.3783 167.98808 558.3308 168.22088 558.84025 C 168.45368 559.3497 163.49665 568.0811 163.49665 568.0811 L 159.41091 573.6431 L 152.43376 578.6789 L 146.93607 585.50195 L 139.53465 588.8841 L 143.63138 591.3229 C 143.63138 591.3229 149.62084 589.2018 150.01137 589.33124 C 150.4019 589.4607 161.31047 589.4026 161.42687 589.6573 C 161.54327 589.91205 258.0287 535.13614 258.0287 535.13614 Z" stroke="white" stroke-linecap="round" stroke-linejoin="round" stroke-width="5"/>
      </g>
      <g id="Graphic_8">
        <path d="M 509.62985 487.2074 L 642.3065 662.5734 C 652.8838 673.1507 655.3656 672.7995 632.6044 695.5607 C 609.8432 718.3219 611.1646 709.0486 600.58734 698.4713 L 427.1617 569.6755 C 416.58445 559.09824 426.47286 532.04093 449.23407 509.2797 C 471.99527 486.5185 499.0526 476.6301 509.62985 487.2074 Z" fill="white"/>
        <path d="M 509.62985 487.2074 L 642.3065 662.5734 C 652.8838 673.1507 655.3656 672.7995 632.6044 695.5607 C 609.8432 718.3219 611.1646 709.0486 600.58734 698.4713 L 427.1617 569.6755 C 416.58445 559.09824 426.47286 532.04093 449.23407 509.2797 C 471.99527 486.5185 499.0526 476.6301 509.62985 487.2074 Z" stroke="black" stroke-linecap="round" stroke-linejoin="round" stroke-width="7"/>
      </g>
    </g>
  </g>
</svg>
