<?xml version="1.0" encoding="UTF-8" standalone="no"?>
<!DOCTYPE svg PUBLIC "-//W3C//DTD SVG 1.1//EN" "http://www.w3.org/Graphics/SVG/1.1/DTD/svg11.dtd">
<svg xmlns:dc="http://purl.org/dc/elements/1.1/" xmlns:xl="http://www.w3.org/1999/xlink" xmlns="http://www.w3.org/2000/svg" version="1.1" viewBox="0 0 850.394 850.394" width="850.394" height="850.394">
  <defs>
    <marker orient="auto" overflow="visible" markerUnits="strokeWidth" id="FilledArrow_Marker" stroke-linejoin="miter" stroke-miterlimit="10" viewBox="-1 -3 6 6" markerWidth="6" markerHeight="6" color="white">
      <g>
        <path d="M 3.2 0 L 0 -1.2 L 0 1.2 Z" fill="currentColor" stroke="currentColor" stroke-width="1"/>
      </g>
    </marker>
    <marker orient="auto" overflow="visible" markerUnits="strokeWidth" id="FilledArrow_Marker_2" stroke-linejoin="miter" stroke-miterlimit="10" viewBox="-5 -3 6 6" markerWidth="6" markerHeight="6" color="white">
      <g>
        <path d="M -3.2 0 L 0 1.2 L 0 -1.2 Z" fill="currentColor" stroke="currentColor" stroke-width="1"/>
      </g>
    </marker>
  </defs>
  <metadata> Produced by OmniGraffle 7.9.4 
    <dc:date>2019-05-20 21:32:27 +0000</dc:date>
  </metadata>
  <g id="gate_mono" stroke-dasharray="none" stroke-opacity="1" stroke="none" fill="none" fill-opacity="1">
    <title>gate mono</title>
    <g id="gate_mono: Layer 1">
      <title>Layer 1</title>
      <g id="Graphic_39">
        <path d="M 27.81335 485.8458 L 40.037524 444.47166 C 40.037524 444.47166 55.55282 415.79188 55.55282 415.3217 C 55.55282 414.85155 70.12779 396.98546 70.12779 396.98546 L 79.531 422.3741 C 79.531 422.3741 90.34469 436.9491 91.28502 447.7628 C 92.22534 458.5765 107.74063 471.2708 107.74063 471.2708 C 107.74063 471.2708 118.55432 457.166 118.55432 455.28535 C 118.55432 453.4047 117.614 439.77006 118.55432 434.12813 C 119.49464 428.4862 125.60673 415.3217 127.48737 414.85155 C 129.36801 414.3814 144.41315 410.14995 144.88331 410.6201 C 145.35347 411.09027 148.6446 408.73947 149.11475 413.91123 C 149.58491 419.083 160.3986 452.93455 160.3986 453.8749 C 160.3986 454.8152 155.22684 484.90546 167.45101 469.39017 C 179.67518 453.8749 181.08567 448.23295 181.08567 448.23295 C 181.08567 448.23295 175.44374 422.8443 176.38406 410.6201 C 177.32438 398.39594 202.24289 381 202.71305 381 C 203.1832 381 217.28802 382.4105 217.75818 383.3508 C 218.22834 384.29112 228.57187 418.61284 228.57187 424.7249 C 228.57187 430.837 235.62428 454.8152 236.09444 462.33776 C 236.5646 469.86033 241.73637 469.86033 243.617 469.86033 C 245.49765 469.86033 253.96054 451.99423 254.4307 451.99423 C 254.90086 451.99423 261.01295 444.9418 261.4831 444.9418 C 261.95327 444.9418 277.46856 442.591 277.46856 442.591 L 281.23487 443.7499 C 281.6285 443.871 281.84943 444.2883 281.7283 444.68194 C 281.65514 444.91975 281.46817 445.1054 281.22985 445.1769 L 281.22985 445.1769 C 279.671 445.64456 278.05222 445.88215 276.42473 445.88215 L 268.06535 445.88215 C 268.06535 445.88215 261.95327 451.52407 261.4831 451.52407 C 261.01295 451.52407 256.31134 460.9273 256.31134 460.9273 L 253.44966 466.1737 C 251.65385 469.466 248.75496 472.01995 245.26257 473.38653 L 239.85572 475.50226 C 239.85572 475.50226 230.45252 470.3305 230.45252 469.86033 C 230.45252 469.39017 229.98235 451.52407 229.98235 451.52407 L 223.87027 430.36685 C 223.87027 430.36685 220.57915 418.1427 220.10898 417.20236 C 219.63882 416.26204 214.93722 397.9258 214.93722 397.4556 C 214.93722 396.98546 209.2953 391.34353 208.82513 390.87337 C 208.35497 390.4032 199.89208 391.8137 199.89208 391.8137 L 193.3211 396.7419 C 190.21543 399.0712 187.64622 402.04027 185.78727 405.44834 L 185.33025 406.2862 C 183.7791 409.13 182.9663 412.3175 182.9663 415.5568 L 182.9663 420.4935 C 182.9663 420.4935 186.25743 433.65797 186.7276 433.65797 C 187.19775 433.65797 187.19775 451.99423 187.19775 451.99423 C 187.19775 451.99423 186.25743 458.5765 185.3171 459.04664 C 184.37679 459.5168 176.38406 470.80065 176.38406 471.2708 C 176.38406 471.74097 167.45101 480.20386 166.98085 480.20386 C 166.5107 480.20386 161.33893 480.20386 161.33893 480.20386 L 157.34256 479.02846 C 154.92544 478.31754 153.17824 476.2155 152.92118 473.70916 L 151.46556 459.5168 C 151.46556 459.5168 150.52523 450.58375 150.52523 450.1136 C 150.52523 449.64343 145.35347 433.1878 145.35347 433.1878 L 140.48346 419.70163 C 140.04766 418.4948 138.71605 417.86976 137.50921 418.30556 C 137.18827 418.42146 136.89679 418.60663 136.6555 418.8479 L 134.06962 421.4338 C 134.06962 421.4338 128.89785 434.5983 128.4277 434.5983 C 127.95753 434.5983 126.07689 443.53134 126.07689 444.0015 C 126.07689 444.47166 126.07689 459.98696 126.07689 459.98696 L 123.96117 464.68856 C 122.55828 467.8061 120.70562 470.70097 118.46238 473.2807 L 115.51574 476.66933 C 113.50585 478.9807 110.89655 480.69197 107.97571 481.61434 L 103.50919 483.0248 C 103.50919 483.0248 96.45678 471.2708 95.51646 471.2708 C 94.57614 471.2708 84.70277 458.5765 84.70277 458.5765 L 81.88181 453.8749 C 80.01397 450.7618 78.67268 447.36185 77.912 443.812 L 77.65036 442.591 C 76.71476 438.22487 75.16538 434.01327 73.048395 430.08173 L 72.66682 429.3731 C 70.6916 425.70483 69.65763 421.6037 69.65763 417.43744 L 69.65763 415.0028 C 69.65763 413.8231 68.701295 412.86674 67.52159 412.86674 C 67.112 412.86674 66.71105 412.9845 66.36651 413.206 L 63.07539 415.3217 C 63.07539 415.3217 62.135066 425.1951 61.664905 425.66524 C 61.194745 426.1354 53.67218 441.6507 53.202017 441.6507 C 52.731856 441.6507 27.81335 485.8458 27.81335 485.8458 Z" fill="white"/>
        <path d="M 27.81335 485.8458 L 40.037524 444.47166 C 40.037524 444.47166 55.55282 415.79188 55.55282 415.3217 C 55.55282 414.85155 70.12779 396.98546 70.12779 396.98546 L 79.531 422.3741 C 79.531 422.3741 90.34469 436.9491 91.28502 447.7628 C 92.22534 458.5765 107.74063 471.2708 107.74063 471.2708 C 107.74063 471.2708 118.55432 457.166 118.55432 455.28535 C 118.55432 453.4047 117.614 439.77006 118.55432 434.12813 C 119.49464 428.4862 125.60673 415.3217 127.48737 414.85155 C 129.36801 414.3814 144.41315 410.14995 144.88331 410.6201 C 145.35347 411.09027 148.6446 408.73947 149.11475 413.91123 C 149.58491 419.083 160.3986 452.93455 160.3986 453.8749 C 160.3986 454.8152 155.22684 484.90546 167.45101 469.39017 C 179.67518 453.8749 181.08567 448.23295 181.08567 448.23295 C 181.08567 448.23295 175.44374 422.8443 176.38406 410.6201 C 177.32438 398.39594 202.24289 381 202.71305 381 C 203.1832 381 217.28802 382.4105 217.75818 383.3508 C 218.22834 384.29112 228.57187 418.61284 228.57187 424.7249 C 228.57187 430.837 235.62428 454.8152 236.09444 462.33776 C 236.5646 469.86033 241.73637 469.86033 243.617 469.86033 C 245.49765 469.86033 253.96054 451.99423 254.4307 451.99423 C 254.90086 451.99423 261.01295 444.9418 261.4831 444.9418 C 261.95327 444.9418 277.46856 442.591 277.46856 442.591 L 281.23487 443.7499 C 281.6285 443.871 281.84943 444.2883 281.7283 444.68194 C 281.65514 444.91975 281.46817 445.1054 281.22985 445.1769 L 281.22985 445.1769 C 279.671 445.64456 278.05222 445.88215 276.42473 445.88215 L 268.06535 445.88215 C 268.06535 445.88215 261.95327 451.52407 261.4831 451.52407 C 261.01295 451.52407 256.31134 460.9273 256.31134 460.9273 L 253.44966 466.1737 C 251.65385 469.466 248.75496 472.01995 245.26257 473.38653 L 239.85572 475.50226 C 239.85572 475.50226 230.45252 470.3305 230.45252 469.86033 C 230.45252 469.39017 229.98235 451.52407 229.98235 451.52407 L 223.87027 430.36685 C 223.87027 430.36685 220.57915 418.1427 220.10898 417.20236 C 219.63882 416.26204 214.93722 397.9258 214.93722 397.4556 C 214.93722 396.98546 209.2953 391.34353 208.82513 390.87337 C 208.35497 390.4032 199.89208 391.8137 199.89208 391.8137 L 193.3211 396.7419 C 190.21543 399.0712 187.64622 402.04027 185.78727 405.44834 L 185.33025 406.2862 C 183.7791 409.13 182.9663 412.3175 182.9663 415.5568 L 182.9663 420.4935 C 182.9663 420.4935 186.25743 433.65797 186.7276 433.65797 C 187.19775 433.65797 187.19775 451.99423 187.19775 451.99423 C 187.19775 451.99423 186.25743 458.5765 185.3171 459.04664 C 184.37679 459.5168 176.38406 470.80065 176.38406 471.2708 C 176.38406 471.74097 167.45101 480.20386 166.98085 480.20386 C 166.5107 480.20386 161.33893 480.20386 161.33893 480.20386 L 157.34256 479.02846 C 154.92544 478.31754 153.17824 476.2155 152.92118 473.70916 L 151.46556 459.5168 C 151.46556 459.5168 150.52523 450.58375 150.52523 450.1136 C 150.52523 449.64343 145.35347 433.1878 145.35347 433.1878 L 140.48346 419.70163 C 140.04766 418.4948 138.71605 417.86976 137.50921 418.30556 C 137.18827 418.42146 136.89679 418.60663 136.6555 418.8479 L 134.06962 421.4338 C 134.06962 421.4338 128.89785 434.5983 128.4277 434.5983 C 127.95753 434.5983 126.07689 443.53134 126.07689 444.0015 C 126.07689 444.47166 126.07689 459.98696 126.07689 459.98696 L 123.96117 464.68856 C 122.55828 467.8061 120.70562 470.70097 118.46238 473.2807 L 115.51574 476.66933 C 113.50585 478.9807 110.89655 480.69197 107.97571 481.61434 L 103.50919 483.0248 C 103.50919 483.0248 96.45678 471.2708 95.51646 471.2708 C 94.57614 471.2708 84.70277 458.5765 84.70277 458.5765 L 81.88181 453.8749 C 80.01397 450.7618 78.67268 447.36185 77.912 443.812 L 77.65036 442.591 C 76.71476 438.22487 75.16538 434.01327 73.048395 430.08173 L 72.66682 429.3731 C 70.6916 425.70483 69.65763 421.6037 69.65763 417.43744 L 69.65763 415.0028 C 69.65763 413.8231 68.701295 412.86674 67.52159 412.86674 C 67.112 412.86674 66.71105 412.9845 66.36651 413.206 L 63.07539 415.3217 C 63.07539 415.3217 62.135066 425.1951 61.664905 425.66524 C 61.194745 426.1354 53.67218 441.6507 53.202017 441.6507 C 52.731856 441.6507 27.81335 485.8458 27.81335 485.8458 Z" stroke="white" stroke-linecap="round" stroke-linejoin="round" stroke-width="5"/>
      </g>
      <g id="Graphic_64">
        <path d="M 822.5806 402 L 810.3565 443.3741 C 810.3565 443.3741 794.8412 472.0539 794.8412 472.52407 C 794.8412 472.99423 780.2662 490.86033 780.2662 490.86033 L 770.863 465.47166 C 770.863 465.47166 760.0493 450.8967 759.109 440.083 C 758.1687 429.2693 742.6534 416.57497 742.6534 416.57497 C 742.6534 416.57497 731.8397 430.6798 731.8397 432.56043 C 731.8397 434.44107 732.78 448.0757 731.8397 453.71765 C 730.8994 459.3596 724.7873 472.52407 722.9066 472.99423 C 721.026 473.4644 705.98085 477.69584 705.5107 477.2257 C 705.0405 476.7555 701.7494 479.1063 701.27925 473.93455 C 700.8091 468.7628 689.9954 434.91123 689.9954 433.9709 C 689.9954 433.0306 695.1672 402.9403 682.943 418.4556 C 670.7188 433.9709 669.3083 439.61284 669.3083 439.61284 C 669.3083 439.61284 674.9503 465.0015 674.0099 477.2257 C 673.0696 489.44985 648.1511 506.8458 647.68095 506.8458 C 647.2108 506.8458 633.106 505.4353 632.6358 504.495 C 632.16566 503.55466 621.8221 469.23295 621.8221 463.12086 C 621.8221 457.0088 614.7697 433.0306 614.29956 425.508 C 613.8294 417.98546 608.6576 417.98546 606.777 417.98546 C 604.89635 417.98546 596.43346 435.85155 595.9633 435.85155 C 595.49314 435.85155 589.38105 442.90396 588.9109 442.90396 C 588.4407 442.90396 572.92544 445.25476 572.92544 445.25476 L 569.1591 444.0959 C 568.7655 443.9748 568.5446 443.5575 568.6657 443.16385 C 568.73886 442.92603 568.9258 442.7404 569.16415 442.6689 L 569.16415 442.6689 C 570.723 442.2012 572.3418 441.96364 573.96927 441.96364 L 582.32865 441.96364 C 582.32865 441.96364 588.4407 436.3217 588.9109 436.3217 C 589.38105 436.3217 594.08266 426.9185 594.08266 426.9185 L 596.94434 421.6721 C 598.74015 418.37976 601.63904 415.82584 605.1314 414.45925 L 610.5383 412.34353 C 610.5383 412.34353 619.9415 417.5153 619.9415 417.98546 C 619.9415 418.4556 620.41165 436.3217 620.41165 436.3217 L 626.5237 457.47894 C 626.5237 457.47894 629.81485 469.7031 630.285 470.64343 C 630.7552 471.58375 635.4568 489.92 635.4568 490.39017 C 635.4568 490.86033 641.0987 496.50226 641.5689 496.9724 C 642.039 497.4426 650.5019 496.0321 650.5019 496.0321 L 657.0729 491.10386 C 660.1786 488.7746 662.7478 485.8055 664.6067 482.39744 L 665.06375 481.55957 C 666.6149 478.7158 667.4277 475.5283 667.4277 472.289 L 667.4277 467.3523 C 667.4277 467.3523 664.1366 454.1878 663.6664 454.1878 C 663.19625 454.1878 663.19625 435.85155 663.19625 435.85155 C 663.19625 435.85155 664.1366 429.2693 665.0769 428.79915 C 666.0172 428.329 674.0099 417.04514 674.0099 416.57497 C 674.0099 416.1048 682.943 407.64193 683.41315 407.64193 C 683.8833 407.64193 689.0551 407.64193 689.0551 407.64193 L 693.0514 408.81733 C 695.46856 409.52824 697.21576 411.63027 697.4728 414.1366 L 698.92844 428.329 C 698.92844 428.329 699.8688 437.26204 699.8688 437.7322 C 699.8688 438.20236 705.0405 454.658 705.0405 454.658 L 709.9105 468.14415 C 710.3463 469.351 711.67795 469.976 712.8848 469.5402 C 713.2057 469.42433 713.4972 469.23916 713.7385 468.99787 L 716.3244 466.412 C 716.3244 466.412 721.49615 453.2475 721.9663 453.2475 C 722.4365 453.2475 724.3171 444.31444 724.3171 443.8443 C 724.3171 443.3741 724.3171 427.85883 724.3171 427.85883 L 726.4328 423.1572 C 727.8357 420.0397 729.6884 417.1448 731.9316 414.5651 L 734.8783 411.17645 C 736.88815 408.8651 739.49745 407.1538 742.4183 406.23144 L 746.8848 404.82096 C 746.8848 404.82096 753.9372 416.57497 754.8775 416.57497 C 755.8179 416.57497 765.6912 429.2693 765.6912 429.2693 L 768.5122 433.9709 C 770.38 437.08397 771.7213 440.48394 772.482 444.0338 L 772.7436 445.25476 C 773.6792 449.6209 775.2286 453.8325 777.3456 457.76405 L 777.7272 458.4727 C 779.7024 462.14096 780.7364 466.2421 780.7364 470.40835 L 780.7364 472.843 C 780.7364 474.0227 781.6927 474.97904 782.8724 474.97904 C 783.282 474.97904 783.68295 474.8613 784.0275 474.6398 L 787.3186 472.52407 C 787.3186 472.52407 788.2589 462.6507 788.7291 462.18054 C 789.1993 461.7104 796.7218 446.1951 797.192 446.1951 C 797.6621 446.1951 822.5806 402 822.5806 402 Z" fill="white"/>
        <path d="M 822.5806 402 L 810.3565 443.3741 C 810.3565 443.3741 794.8412 472.0539 794.8412 472.52407 C 794.8412 472.99423 780.2662 490.86033 780.2662 490.86033 L 770.863 465.47166 C 770.863 465.47166 760.0493 450.8967 759.109 440.083 C 758.1687 429.2693 742.6534 416.57497 742.6534 416.57497 C 742.6534 416.57497 731.8397 430.6798 731.8397 432.56043 C 731.8397 434.44107 732.78 448.0757 731.8397 453.71765 C 730.8994 459.3596 724.7873 472.52407 722.9066 472.99423 C 721.026 473.4644 705.98085 477.69584 705.5107 477.2257 C 705.0405 476.7555 701.7494 479.1063 701.27925 473.93455 C 700.8091 468.7628 689.9954 434.91123 689.9954 433.9709 C 689.9954 433.0306 695.1672 402.9403 682.943 418.4556 C 670.7188 433.9709 669.3083 439.61284 669.3083 439.61284 C 669.3083 439.61284 674.9503 465.0015 674.0099 477.2257 C 673.0696 489.44985 648.1511 506.8458 647.68095 506.8458 C 647.2108 506.8458 633.106 505.4353 632.6358 504.495 C 632.16566 503.55466 621.8221 469.23295 621.8221 463.12086 C 621.8221 457.0088 614.7697 433.0306 614.29956 425.508 C 613.8294 417.98546 608.6576 417.98546 606.777 417.98546 C 604.89635 417.98546 596.43346 435.85155 595.9633 435.85155 C 595.49314 435.85155 589.38105 442.90396 588.9109 442.90396 C 588.4407 442.90396 572.92544 445.25476 572.92544 445.25476 L 569.1591 444.0959 C 568.7655 443.9748 568.5446 443.5575 568.6657 443.16385 C 568.73886 442.92603 568.9258 442.7404 569.16415 442.6689 L 569.16415 442.6689 C 570.723 442.2012 572.3418 441.96364 573.96927 441.96364 L 582.32865 441.96364 C 582.32865 441.96364 588.4407 436.3217 588.9109 436.3217 C 589.38105 436.3217 594.08266 426.9185 594.08266 426.9185 L 596.94434 421.6721 C 598.74015 418.37976 601.63904 415.82584 605.1314 414.45925 L 610.5383 412.34353 C 610.5383 412.34353 619.9415 417.5153 619.9415 417.98546 C 619.9415 418.4556 620.41165 436.3217 620.41165 436.3217 L 626.5237 457.47894 C 626.5237 457.47894 629.81485 469.7031 630.285 470.64343 C 630.7552 471.58375 635.4568 489.92 635.4568 490.39017 C 635.4568 490.86033 641.0987 496.50226 641.5689 496.9724 C 642.039 497.4426 650.5019 496.0321 650.5019 496.0321 L 657.0729 491.10386 C 660.1786 488.7746 662.7478 485.8055 664.6067 482.39744 L 665.06375 481.55957 C 666.6149 478.7158 667.4277 475.5283 667.4277 472.289 L 667.4277 467.3523 C 667.4277 467.3523 664.1366 454.1878 663.6664 454.1878 C 663.19625 454.1878 663.19625 435.85155 663.19625 435.85155 C 663.19625 435.85155 664.1366 429.2693 665.0769 428.79915 C 666.0172 428.329 674.0099 417.04514 674.0099 416.57497 C 674.0099 416.1048 682.943 407.64193 683.41315 407.64193 C 683.8833 407.64193 689.0551 407.64193 689.0551 407.64193 L 693.0514 408.81733 C 695.46856 409.52824 697.21576 411.63027 697.4728 414.1366 L 698.92844 428.329 C 698.92844 428.329 699.8688 437.26204 699.8688 437.7322 C 699.8688 438.20236 705.0405 454.658 705.0405 454.658 L 709.9105 468.14415 C 710.3463 469.351 711.67795 469.976 712.8848 469.5402 C 713.2057 469.42433 713.4972 469.23916 713.7385 468.99787 L 716.3244 466.412 C 716.3244 466.412 721.49615 453.2475 721.9663 453.2475 C 722.4365 453.2475 724.3171 444.31444 724.3171 443.8443 C 724.3171 443.3741 724.3171 427.85883 724.3171 427.85883 L 726.4328 423.1572 C 727.8357 420.0397 729.6884 417.1448 731.9316 414.5651 L 734.8783 411.17645 C 736.88815 408.8651 739.49745 407.1538 742.4183 406.23144 L 746.8848 404.82096 C 746.8848 404.82096 753.9372 416.57497 754.8775 416.57497 C 755.8179 416.57497 765.6912 429.2693 765.6912 429.2693 L 768.5122 433.9709 C 770.38 437.08397 771.7213 440.48394 772.482 444.0338 L 772.7436 445.25476 C 773.6792 449.6209 775.2286 453.8325 777.3456 457.76405 L 777.7272 458.4727 C 779.7024 462.14096 780.7364 466.2421 780.7364 470.40835 L 780.7364 472.843 C 780.7364 474.0227 781.6927 474.97904 782.8724 474.97904 C 783.282 474.97904 783.68295 474.8613 784.0275 474.6398 L 787.3186 472.52407 C 787.3186 472.52407 788.2589 462.6507 788.7291 462.18054 C 789.1993 461.7104 796.7218 446.1951 797.192 446.1951 C 797.6621 446.1951 822.5806 402 822.5806 402 Z" stroke="white" stroke-linecap="round" stroke-linejoin="round" stroke-width="5"/>
      </g>
      <g id="Graphic_65">
        <rect x="264.81335" y="246" width="317" height="375" stroke="white" stroke-linecap="round" stroke-linejoin="round" stroke-width="7"/>
      </g>
      <g id="Line_66">
        <line x1="279.81335" y1="445" x2="572.6369" y2="443.5" stroke="white" stroke-linecap="round" stroke-linejoin="round" stroke-width="1"/>
      </g>
      <g id="Line_67">
        <line x1="281.28394" y1="446.4706" x2="565.28394" y2="349.38235" stroke="white" stroke-linecap="round" stroke-linejoin="round" stroke-width="7"/>
      </g>
      <g id="Line_68">
        <path d="M 552.2378 377.8768 C 557.93026 388.2454 560.885 399.93973 560.76154 411.84536 L 560.73056 414.83286" marker-end="url(#FilledArrow_Marker)" marker-start="url(#FilledArrow_Marker_2)" stroke="white" stroke-linecap="round" stroke-linejoin="round" stroke-width="4"/>
      </g>
    </g>
  </g>
</svg>
