<?xml version="1.0" encoding="UTF-8" standalone="no"?>
<!DOCTYPE svg PUBLIC "-//W3C//DTD SVG 1.1//EN" "http://www.w3.org/Graphics/SVG/1.1/DTD/svg11.dtd">
<svg xmlns:dc="http://purl.org/dc/elements/1.1/" xmlns:xl="http://www.w3.org/1999/xlink" xmlns="http://www.w3.org/2000/svg" version="1.1" viewBox="0 0 850.394 850.394" width="850.394" height="850.394">
  <defs/>
  <metadata> Produced by OmniGraffle 7.9.4 
    <dc:date>2019-05-20 21:42:32 +0000</dc:date>
  </metadata>
  <g id="im-squirrel_white" stroke-dasharray="none" stroke-opacity="1" stroke="none" fill="none" fill-opacity="1">
    <title>im-squirrel white</title>
    <g id="im-squirrel_white: Layer 1">
      <title>Layer 1</title>
      <g id="Graphic_11">
        <path d="M 648.8799 170.916 L 684.6829 215.69704 C 684.7158 215.73814 684.7493 215.77872 684.7834 215.81876 L 719.5342 256.57632 C 719.8024 256.89093 720.0306 257.23758 720.2135 257.60836 L 744.3581 306.5537 C 744.4624 306.76505 744.5516 306.98354 744.62505 307.2075 L 764.6772 368.34777 C 764.8709 368.93835 764.9528 369.55986 764.9187 370.18045 L 761.6731 429.21136 C 761.652 429.59567 761.5865 429.97626 761.4781 430.34556 L 744.689 487.52296 C 744.4325 488.39655 743.9423 489.1835 743.2713 489.79896 L 737.2593 495.31356 C 737.25775 495.31496 737.2562 495.31637 737.2547 495.3178 L 705.0636 524.91916 C 704.395 525.534 703.5715 525.95507 702.6816 526.13717 L 699.7653 526.73395 C 697.5528 527.1867 695.3115 526.1002 694.29646 524.0829 L 676.086 487.89234 C 675.8457 487.4149 675.5305 486.979 675.1522 486.6014 L 641.265 452.769 C 640.70676 452.21165 640.0246 451.7943 639.2742 451.55105 L 600.45665 438.9677 C 600.1115 438.85584 599.77954 438.7067 599.46666 438.523 L 581.574 428.01613 C 581.14756 427.7657 580.6863 427.57993 580.2053 427.4649 L 534.1153 416.4406 C 531.42964 415.79823 529.7732 413.1003 530.4156 410.41465 C 530.4924 410.0937 530.60074 409.7811 530.7391 409.4815 L 640.43526 171.94204 C 641.593 169.43503 644.5639 168.34123 647.0709 169.49897 C 647.7757 169.82447 648.3951 170.30962 648.8799 170.916 Z" fill="black"/>
        <path d="M 648.8799 170.916 L 684.6829 215.69704 C 684.7158 215.73814 684.7493 215.77872 684.7834 215.81876 L 719.5342 256.57632 C 719.8024 256.89093 720.0306 257.23758 720.2135 257.60836 L 744.3581 306.5537 C 744.4624 306.76505 744.5516 306.98354 744.62505 307.2075 L 764.6772 368.34777 C 764.8709 368.93835 764.9528 369.55986 764.9187 370.18045 L 761.6731 429.21136 C 761.652 429.59567 761.5865 429.97626 761.4781 430.34556 L 744.689 487.52296 C 744.4325 488.39655 743.9423 489.1835 743.2713 489.79896 L 737.2593 495.31356 C 737.25775 495.31496 737.2562 495.31637 737.2547 495.3178 L 705.0636 524.91916 C 704.395 525.534 703.5715 525.95507 702.6816 526.13717 L 699.7653 526.73395 C 697.5528 527.1867 695.3115 526.1002 694.29646 524.0829 L 676.086 487.89234 C 675.8457 487.4149 675.5305 486.979 675.1522 486.6014 L 641.265 452.769 C 640.70676 452.21165 640.0246 451.7943 639.2742 451.55105 L 600.45665 438.9677 C 600.1115 438.85584 599.77954 438.7067 599.46666 438.523 L 581.574 428.01613 C 581.14756 427.7657 580.6863 427.57993 580.2053 427.4649 L 534.1153 416.4406 C 531.42964 415.79823 529.7732 413.1003 530.4156 410.41465 C 530.4924 410.0937 530.60074 409.7811 530.7391 409.4815 L 640.43526 171.94204 C 641.593 169.43503 644.5639 168.34123 647.0709 169.49897 C 647.7757 169.82447 648.3951 170.30962 648.8799 170.916 Z" stroke="white" stroke-linecap="round" stroke-linejoin="round" stroke-width="6"/>
      </g>
      <g id="Graphic_10">
        <path d="M 573.3436 415.99065 L 529.9863 416.8907 C 528.09674 416.9299 526.34656 415.9004 525.4628 414.2298 L 507.5452 380.3591 C 507.36105 380.01105 507.2187 379.64245 507.12104 379.26097 L 493.9365 327.75293 C 493.93 327.7276 493.92333 327.70234 493.91645 327.6771 L 483.2488 288.56595 C 483.225 288.47876 483.2036 288.39094 483.1846 288.30258 L 476.49415 257.22597 C 476.4677 257.10322 476.44593 256.9795 476.4288 256.85512 L 472.4747 228.11493 C 472.38387 227.45474 472.42593 226.78305 472.5984 226.13935 L 478.2662 204.98678 C 478.35865 204.64184 478.48776 204.3078 478.65136 203.99036 L 493.3309 175.50634 C 493.89406 174.41356 494.8401 173.56656 495.98826 173.12715 L 527.3976 161.10662 C 527.8062 160.95025 528.2335 160.84819 528.66866 160.80303 L 554.34585 158.13845 C 554.4756 158.125 554.60474 158.10646 554.733 158.0829 L 585.6087 152.41185 C 586.1668 152.30934 586.7383 152.30259 587.2987 152.39188 L 620.954 157.75435 C 621.231 157.7985 621.50385 157.86587 621.7696 157.95577 L 640.7908 164.39092 C 642.15084 164.85103 643.24744 165.87358 643.8014 167.19815 L 658.33744 201.95758 C 658.5435 202.45028 658.6693 202.9728 658.71 203.5053 L 664.03585 273.1318 C 664.0379 273.15816 664.0401 273.1845 664.0425 273.2108 L 670.5908 344.03365 C 670.6334 344.49447 670.61185 344.95897 670.5267 345.41386 L 664.07864 379.8645 C 663.7927 381.3922 662.8126 382.70005 661.4266 383.4034 L 629.9878 399.3573 C 629.5892 399.55956 629.1654 399.70746 628.72754 399.79705 L 604.09075 404.8386 C 603.8349 404.89095 603.5836 404.96327 603.339 405.0549 L 574.9939 415.67394 C 574.4656 415.87186 573.9076 415.97894 573.3436 415.99065 Z" fill="black"/>
        <path d="M 573.3436 415.99065 L 529.9863 416.8907 C 528.09674 416.9299 526.34656 415.9004 525.4628 414.2298 L 507.5452 380.3591 C 507.36105 380.01105 507.2187 379.64245 507.12104 379.26097 L 493.9365 327.75293 C 493.93 327.7276 493.92333 327.70234 493.91645 327.6771 L 483.2488 288.56595 C 483.225 288.47876 483.2036 288.39094 483.1846 288.30258 L 476.49415 257.22597 C 476.4677 257.10322 476.44593 256.9795 476.4288 256.85512 L 472.4747 228.11493 C 472.38387 227.45474 472.42593 226.78305 472.5984 226.13935 L 478.2662 204.98678 C 478.35865 204.64184 478.48776 204.3078 478.65136 203.99036 L 493.3309 175.50634 C 493.89406 174.41356 494.8401 173.56656 495.98826 173.12715 L 527.3976 161.10662 C 527.8062 160.95025 528.2335 160.84819 528.66866 160.80303 L 554.34585 158.13845 C 554.4756 158.125 554.60474 158.10646 554.733 158.0829 L 585.6087 152.41185 C 586.1668 152.30934 586.7383 152.30259 587.2987 152.39188 L 620.954 157.75435 C 621.231 157.7985 621.50385 157.86587 621.7696 157.95577 L 640.7908 164.39092 C 642.15084 164.85103 643.24744 165.87358 643.8014 167.19815 L 658.33744 201.95758 C 658.5435 202.45028 658.6693 202.9728 658.71 203.5053 L 664.03585 273.1318 C 664.0379 273.15816 664.0401 273.1845 664.0425 273.2108 L 670.5908 344.03365 C 670.6334 344.49447 670.61185 344.95897 670.5267 345.41386 L 664.07864 379.8645 C 663.7927 381.3922 662.8126 382.70005 661.4266 383.4034 L 629.9878 399.3573 C 629.5892 399.55956 629.1654 399.70746 628.72754 399.79705 L 604.09075 404.8386 C 603.8349 404.89095 603.5836 404.96327 603.339 405.0549 L 574.9939 415.67394 C 574.4656 415.87186 573.9076 415.97894 573.3436 415.99065 Z" stroke="white" stroke-linecap="round" stroke-linejoin="round" stroke-width="6"/>
      </g>
      <g id="Graphic_9">
        <path d="M 595.5184 167.96045 L 591.8949 146.17648 C 591.8895 146.14416 591.88446 146.1118 591.8797 146.07938 L 585.36444 101.51518 C 585.2515 100.74246 584.9591 100.00694 584.5107 99.36757 L 567.4235 75.00299 C 565.97423 72.9365 566.2924 70.1139 568.1653 68.42189 L 584.1095 54.017875 C 585.7636 52.523565 588.2071 52.30471 590.1004 53.481285 L 606.3834 63.600154 C 607.6372 64.37934 608.48266 65.67277 608.6932 67.13391 L 609.8062 74.85914 C 609.9028 75.52935 609.8622 76.212195 609.68694 76.86626 L 604.21354 97.29325 C 604.1208 97.63941 604.0655 97.99454 604.0487 98.35251 L 602.13824 138.9843 C 602.1373 139.0039 602.1363 139.02348 602.1351 139.04307 L 600.44955 167.69867 C 600.369 169.0685 599.1932 170.11363 597.8234 170.03306 C 596.66544 169.96494 595.7087 169.10467 595.5184 167.96045 Z" fill="black"/>
        <path d="M 595.5184 167.96045 L 591.8949 146.17648 C 591.8895 146.14416 591.88446 146.1118 591.8797 146.07938 L 585.36444 101.51518 C 585.2515 100.74246 584.9591 100.00694 584.5107 99.36757 L 567.4235 75.00299 C 565.97423 72.9365 566.2924 70.1139 568.1653 68.42189 L 584.1095 54.017875 C 585.7636 52.523565 588.2071 52.30471 590.1004 53.481285 L 606.3834 63.600154 C 607.6372 64.37934 608.48266 65.67277 608.6932 67.13391 L 609.8062 74.85914 C 609.9028 75.52935 609.8622 76.212195 609.68694 76.86626 L 604.21354 97.29325 C 604.1208 97.63941 604.0655 97.99454 604.0487 98.35251 L 602.13824 138.9843 C 602.1373 139.0039 602.1363 139.02348 602.1351 139.04307 L 600.44955 167.69867 C 600.369 169.0685 599.1932 170.11363 597.8234 170.03306 C 596.66544 169.96494 595.7087 169.10467 595.5184 167.96045 Z" stroke="white" stroke-linecap="round" stroke-linejoin="round" stroke-width="6"/>
      </g>
      <g id="Graphic_8">
        <path d="M 642.9592 223.38775 L 673.59814 183.39614 C 673.6842 183.2838 673.7655 183.16785 673.8417 183.04861 L 690.33 157.25906 C 690.5771 156.87258 690.7698 156.45393 690.9028 156.0149 L 696.46435 137.64927 C 696.97545 135.9615 698.3378 134.66778 700.04974 134.24454 L 716.23 130.24435 C 718.8162 129.60499 721.44945 131.10558 722.2176 133.65644 L 725.3238 143.97079 C 725.78865 145.51451 725.48065 147.18767 724.4965 148.46466 L 714.8232 161.01679 C 714.5662 161.35024 714.2681 161.6499 713.93605 161.90866 L 682.174 186.6587 C 681.9521 186.83162 681.7452 187.02296 681.5555 187.23068 L 652.1058 219.47363 C 651.89215 219.70755 651.65675 219.92063 651.4028 220.11 L 644.6753 225.12633 C 644.1293 225.53344 643.35664 225.42086 642.9495 224.87487 C 642.6199 224.43276 642.6238 223.82553 642.9592 223.38775 Z" fill="black"/>
        <path d="M 642.9592 223.38775 L 673.59814 183.39614 C 673.6842 183.2838 673.7655 183.16785 673.8417 183.04861 L 690.33 157.25906 C 690.5771 156.87258 690.7698 156.45393 690.9028 156.0149 L 696.46435 137.64927 C 696.97545 135.9615 698.3378 134.66778 700.04974 134.24454 L 716.23 130.24435 C 718.8162 129.60499 721.44945 131.10558 722.2176 133.65644 L 725.3238 143.97079 C 725.78865 145.51451 725.48065 147.18767 724.4965 148.46466 L 714.8232 161.01679 C 714.5662 161.35024 714.2681 161.6499 713.93605 161.90866 L 682.174 186.6587 C 681.9521 186.83162 681.7452 187.02296 681.5555 187.23068 L 652.1058 219.47363 C 651.89215 219.70755 651.65675 219.92063 651.4028 220.11 L 644.6753 225.12633 C 644.1293 225.53344 643.35664 225.42086 642.9495 224.87487 C 642.6199 224.43276 642.6238 223.82553 642.9592 223.38775 Z" stroke="white" stroke-linecap="round" stroke-linejoin="round" stroke-width="6"/>
      </g>
      <g id="Graphic_7">
        <path d="M 730.9938 286.56072 C 730.9938 286.56072 714.00875 282.00958 713.301 281.81995 C 712.5933 281.63032 684.7249 300.7113 684.7249 300.7113 L 685.0468 331.8242 C 685.0576 332.8613 685.39054 333.86943 685.99966 334.7089 L 705.5597 361.66614 C 705.5597 361.66614 728.8634 370.94443 729.5711 371.13406 C 730.2788 371.3237 750.5248 372.19745 750.5248 372.19745 L 754.8927 358.5326 C 755.1051 357.8683 755.1761 357.16696 755.10125 356.4736 L 752.6468 333.7368 C 752.6162 333.45313 752.5613 333.1726 752.4829 332.8983 L 744.6267 305.43497 C 744.4609 304.85535 744.1916 304.3105 743.8319 303.8267 Z" fill="black"/>
        <path d="M 730.9938 286.56072 C 730.9938 286.56072 714.00875 282.00958 713.301 281.81995 C 712.5933 281.63032 684.7249 300.7113 684.7249 300.7113 L 685.0468 331.8242 C 685.0576 332.8613 685.39054 333.86943 685.99966 334.7089 L 705.5597 361.66614 C 705.5597 361.66614 728.8634 370.94443 729.5711 371.13406 C 730.2788 371.3237 750.5248 372.19745 750.5248 372.19745 L 754.8927 358.5326 C 755.1051 357.8683 755.1761 357.16696 755.10125 356.4736 L 752.6468 333.7368 C 752.6162 333.45313 752.5613 333.1726 752.4829 332.8983 L 744.6267 305.43497 C 744.4609 304.85535 744.1916 304.3105 743.8319 303.8267 Z" stroke="white" stroke-linecap="round" stroke-linejoin="round" stroke-width="6"/>
      </g>
      <g id="Graphic_6">
        <path d="M 617.22366 291.03748 L 612.55326 287.8348 C 610.8842 286.69024 610.0697 284.6524 610.49 282.67273 L 612.2283 274.4858 C 612.5227 273.09927 613.3917 271.90285 614.61925 271.19413 L 619.8742 268.16018 C 622.2657 266.77947 625.3236 267.59884 626.7043 269.9903 C 626.73306 270.04006 626.7609 270.0903 626.7879 270.14102 L 630.4937 277.10327 C 631.0888 278.22123 631.2374 279.52334 630.90964 280.74665 L 630.4313 282.53184 C 630.20905 283.36127 629.77695 284.11948 629.1766 284.73343 L 623.6263 290.40957 C 621.928 292.1464 619.22705 292.4113 617.22366 291.03748 Z" fill="black"/>
        <path d="M 617.22366 291.03748 L 612.55326 287.8348 C 610.8842 286.69024 610.0697 284.6524 610.49 282.67273 L 612.2283 274.4858 C 612.5227 273.09927 613.3917 271.90285 614.61925 271.19413 L 619.8742 268.16018 C 622.2657 266.77947 625.3236 267.59884 626.7043 269.9903 C 626.73306 270.04006 626.7609 270.0903 626.7879 270.14102 L 630.4937 277.10327 C 631.0888 278.22123 631.2374 279.52334 630.90964 280.74665 L 630.4313 282.53184 C 630.20905 283.36127 629.77695 284.11948 629.1766 284.73343 L 623.6263 290.40957 C 621.928 292.1464 619.22705 292.4113 617.22366 291.03748 Z" stroke="white" stroke-linecap="round" stroke-linejoin="round" stroke-width="6"/>
      </g>
      <g id="Graphic_5">
        <path d="M 631.43086 353.02465 L 628.792 350.82797 C 627.2931 349.58024 626.6565 347.57487 627.16125 345.69107 L 629.4194 337.26353 C 630.04734 334.92 632.2671 333.36547 634.6841 333.5766 L 639.9641 334.0378 C 641.88325 334.20543 643.5354 335.4607 644.2112 337.2647 L 646.18116 342.52298 C 646.9752 344.6425 646.2464 347.03105 644.4044 348.34628 L 637.5352 353.25102 C 635.6855 354.57176 633.1777 354.47876 631.43086 353.02465 Z" fill="black"/>
        <path d="M 631.43086 353.02465 L 628.792 350.82797 C 627.2931 349.58024 626.6565 347.57487 627.16125 345.69107 L 629.4194 337.26353 C 630.04734 334.92 632.2671 333.36547 634.6841 333.5766 L 639.9641 334.0378 C 641.88325 334.20543 643.5354 335.4607 644.2112 337.2647 L 646.18116 342.52298 C 646.9752 344.6425 646.2464 347.03105 644.4044 348.34628 L 637.5352 353.25102 C 635.6855 354.57176 633.1777 354.47876 631.43086 353.02465 Z" stroke="white" stroke-linecap="round" stroke-linejoin="round" stroke-width="6"/>
      </g>
      <g id="Graphic_4">
        <path d="M 560.1416 361.96637 L 535.1646 351.1963 C 534.00196 350.695 533.0728 349.7712 532.5647 348.6115 L 516.5461 312.0505 C 516.4562 311.84536 516.38024 311.63443 516.31864 311.4191 L 509.4348 287.3548 C 509.3858 287.18356 509.346 287.00982 509.31555 286.83434 L 502.0084 244.71617 C 501.94204 244.33374 501.92045 243.94488 501.94405 243.55744 L 504.16046 207.17527 C 504.2835 205.15552 505.6118 203.40905 507.5253 202.75105 L 541.3525 191.1189 C 542.29405 190.79513 543.3108 190.75983 544.2725 191.01752 L 564.151 196.34395 C 565.4319 196.68717 566.524 197.52516 567.18705 198.67358 L 578.6221 218.47963 C 578.9401 219.0305 579.15014 219.637 579.24085 220.2666 L 590.2099 296.39985 C 590.23236 296.5557 590.26216 296.7104 590.2992 296.86343 L 598.5849 331.08502 C 598.7818 331.89813 598.7715 332.74763 598.55494 333.5557 L 592.2324 357.15165 C 591.6754 359.23047 589.85066 360.71963 587.7024 360.84857 L 562.421 362.36604 C 561.6404 362.4129 560.8597 362.276 560.1416 361.96637 Z" fill="black"/>
        <path d="M 560.1416 361.96637 L 535.1646 351.1963 C 534.00196 350.695 533.0728 349.7712 532.5647 348.6115 L 516.5461 312.0505 C 516.4562 311.84536 516.38024 311.63443 516.31864 311.4191 L 509.4348 287.3548 C 509.3858 287.18356 509.346 287.00982 509.31555 286.83434 L 502.0084 244.71617 C 501.94204 244.33374 501.92045 243.94488 501.94405 243.55744 L 504.16046 207.17527 C 504.2835 205.15552 505.6118 203.40905 507.5253 202.75105 L 541.3525 191.1189 C 542.29405 190.79513 543.3108 190.75983 544.2725 191.01752 L 564.151 196.34395 C 565.4319 196.68717 566.524 197.52516 567.18705 198.67358 L 578.6221 218.47963 C 578.9401 219.0305 579.15014 219.637 579.24085 220.2666 L 590.2099 296.39985 C 590.23236 296.5557 590.26216 296.7104 590.2992 296.86343 L 598.5849 331.08502 C 598.7818 331.89813 598.7715 332.74763 598.55494 333.5557 L 592.2324 357.15165 C 591.6754 359.23047 589.85066 360.71963 587.7024 360.84857 L 562.421 362.36604 C 561.6404 362.4129 560.8597 362.276 560.1416 361.96637 Z" stroke="white" stroke-linecap="round" stroke-linejoin="round" stroke-width="6"/>
      </g>
      <g id="Graphic_3">
        <path d="M 329.3901 432.76957 L 331.30666 408.75273 C 331.35685 408.12366 331.2875 407.4908 331.1023 406.8875 L 310.37234 339.36703 C 310.3381 339.25555 310.3 339.1453 310.25806 339.03648 L 287.56755 280.15926 C 287.52377 280.04565 287.48415 279.93047 287.44877 279.81397 L 276.31266 243.13953 C 276.2505 242.9348 276.20153 242.72628 276.16608 242.51527 L 270.1188 206.52366 C 270.0932 206.3714 270.07468 206.21802 270.0633 206.06404 L 267.67293 173.75033 C 267.63706 173.26543 267.6721 172.77788 267.77698 172.3031 L 274.6234 141.30627 C 274.6988 140.9649 274.80978 140.63238 274.95454 140.31417 L 285.68237 116.73302 C 285.76722 116.5465 285.86346 116.36538 285.97054 116.19067 L 296.21255 99.48009 C 296.46386 99.07005 296.6547 98.6259 296.77918 98.16136 L 302.99776 74.95328 C 303.15043 74.38353 303.4027 73.84529 303.7429 73.36344 L 327.84296 39.230905 C 328.47775 38.331863 329.60568 37.923836 330.66874 38.20868 L 330.66874 38.20868 C 331.75084 38.49863 332.57213 39.381414 332.78332 40.48161 L 337.4993 65.04904 C 337.50216 65.0639 337.50494 65.07877 337.50766 65.09366 L 339.9519 78.4821 C 340.1577 79.60939 340.7445 80.63179 341.614 81.37815 L 355.21024 93.04842 C 355.527 93.32029 355.8765 93.55143 356.2507 93.73644 L 379.08203 105.02531 C 379.1138 105.04102 379.14543 105.05708 379.17687 105.07347 L 402.499 117.2291 C 402.89144 117.43365 403.3093 117.58519 403.74166 117.67975 L 433.63953 124.21876 C 433.8138 124.25688 433.9859 124.3043 434.1551 124.3608 L 452.41257 130.45841 C 454.92036 131.29596 456.3426 133.94114 455.6583 136.495 L 451.42586 152.2907 C 451.1479 153.3281 450.54326 154.24844 449.7015 154.91545 L 426.12504 173.59717 C 426.0152 173.6842 425.90177 173.76657 425.785 173.84407 L 399.19445 191.49498 C 398.5929 191.89428 398.085 192.41913 397.7056 193.03342 L 387.0214 210.33314 C 386.50095 211.17583 386.2425 212.1541 386.27885 213.1439 L 386.54525 220.39972 C 386.57386 221.17876 386.78423 221.94032 387.15956 222.62358 L 397.3843 241.23682 C 397.98315 242.327 398.96685 243.15482 400.1433 243.55865 L 417.684 249.57963 C 418.1975 249.75588 418.7362 249.84734 419.2791 249.8504 L 450.1051 250.0245 C 450.21446 250.02513 450.3238 250.02216 450.43293 250.0156 L 464.0373 249.19903 C 464.1096 249.1947 464.182 249.19193 464.2544 249.19073 L 473.3374 249.04084 C 474.3001 249.02496 475.24695 249.28738 476.06413 249.79657 L 488.93264 257.8151 C 489.4805 258.15646 490.08926 258.38852 490.72534 258.49845 L 504.84205 260.93825 C 505.417 261.0376 506.0049 261.03558 506.5791 260.93225 L 517.81123 258.91105 C 518.75654 258.74094 519.63284 258.30216 520.33536 257.64717 L 524.2611 253.98707 C 524.2969 253.95365 524.33326 253.92076 524.3701 253.8884 L 530.2421 248.7279 C 531.49784 247.62432 533.22205 247.22134 534.83685 247.65403 L 535.08296 247.71997 C 536.6464 248.1389 537.5742 249.7459 537.1553 251.30934 L 536.01095 255.58 C 535.65226 256.9187 534.754 258.04845 533.5306 258.69963 L 522.20514 264.72785 C 522.1871 264.73744 522.16915 264.74715 522.15124 264.75696 L 502.6926 275.42216 C 502.0741 275.76117 501.3486 275.8485 500.6673 275.66594 L 500.6673 275.66594 C 499.97895 275.4815 499.24893 275.5298 498.5909 275.8033 L 478.1908 284.2819 C 477.67564 284.496 477.1283 284.6224 476.5714 284.6558 L 457.77595 285.78398 C 457.0011 285.8305 456.24776 286.05676 455.5755 286.44487 L 439.0646 295.97746 C 438.2097 296.47102 437.52007 297.20658 437.08255 298.09145 L 428.2414 315.97236 C 427.9619 316.53765 427.79184 317.1507 427.74023 317.77922 L 425.9019 340.1622 C 425.83934 340.92407 425.9523 341.69012 426.23207 342.4015 L 433.4764 360.8213 C 433.4764 360.8213 450.1938 391.849 450.9015 392.03865 C 451.6092 392.2283 457.965 405.30915 457.965 405.30915 L 472.35914 418.07316 C 472.569 418.25927 472.7942 418.4274 473.03226 418.57574 L 487.4005 427.52876 C 487.5497 427.62173 487.7037 427.70676 487.86187 427.7835 L 504.6482 435.9293 C 504.9333 436.0676 505.2309 436.17855 505.537 436.26057 L 534.30295 443.9684 C 534.6339 444.05707 534.9731 444.1115 535.3152 444.1308 L 552.2957 445.0896 C 552.5873 445.10606 552.87975 445.09694 553.1697 445.06236 L 568.06824 443.28545 C 568.2926 443.2587 568.51855 443.24717 568.7445 443.25097 L 588.9331 443.5906 C 589.34184 443.59746 589.7482 443.65444 590.1431 443.76025 L 616.2026 450.7429 C 617.693 451.1422 618.9155 452.2073 619.5153 453.6289 L 620.582 456.1573 C 621.3331 457.9376 623.0428 459.12573 624.9732 459.20905 L 634.6343 459.626 C 635.0823 459.6453 635.5256 459.72483 635.9524 459.86236 L 648.2283 463.8185 C 648.9172 464.0405 649.5496 464.4094 650.082 464.8997 L 661.8066 475.6984 C 661.9686 475.84764 662.12066 476.00746 662.26164 476.1768 L 671.47604 487.24315 C 671.6951 487.5062 671.8865 487.79106 672.04735 488.09323 L 678.4934 500.20374 C 678.7422 500.67113 679.06364 501.09605 679.4457 501.4626 L 685.2305 507.01207 C 686.44676 508.17887 686.48686 510.1107 685.3201 511.327 C 684.7239 511.9484 683.893 512.28904 683.0322 512.2649 L 675.12716 512.04303 C 675.12716 512.04303 663.841 517.36266 663.65134 518.0704 C 663.4617 518.7781 648.9146 527.7751 648.9146 527.7751 L 637.6251 538.6911 C 636.9736 539.321 636.50556 540.11614 636.271 540.9915 L 631.6376 558.2837 C 631.55235 558.6018 631.4359 558.9106 631.29 559.2058 L 623.2486 575.46924 C 623.23625 575.49414 623.2237 575.51894 623.211 575.5436 L 615.3353 590.82556 C 615.3318 590.8324 615.32826 590.8392 615.3247 590.846 L 609.1102 602.76936 C 609.09395 602.8005 609.0774 602.8315 609.0605 602.8623 L 593.0572 632.0491 C 592.86484 632.3999 592.7153 632.7725 592.61176 633.1589 L 589.16464 646.0237 C 589.16464 646.0237 586.3202 656.63935 585.6125 656.4497 C 584.90476 656.2601 574.9832 664.97945 574.9832 664.97945 L 574.2501 666.3001 C 573.7757 667.1545 573.0226 667.8204 572.1165 668.18656 L 515.0497 691.246 C 514.89936 691.3067 514.74616 691.3601 514.59064 691.406 L 500.10576 695.6772 C 500.0348 695.69815 499.9634 695.7175 499.8916 695.73525 L 477.45547 701.28206 C 476.78677 701.4474 476.0911 701.47274 475.41216 701.3566 L 437.7752 694.91645 C 437.44393 694.8598 437.1192 694.7698 436.806 694.648 L 387.3857 675.4255 C 387.2161 675.3595 387.04305 675.3029 386.8673 675.2558 L 375.10004 672.10275 C 375.10004 672.10275 341.73598 669.2311 339.9549 658.893 C 338.17384 648.555 338.17384 648.555 338.17384 648.555 L 327.23555 627.6445 C 326.8431 626.89426 326.2666 626.256 325.56005 625.7895 L 309.68603 615.3086 C 309.3867 615.11095 309.06694 614.9461 308.73232 614.8169 L 290.33535 607.71236 C 290.10456 607.6232 289.86746 607.55135 289.62602 607.4973 L 273.98945 603.9981 C 273.21685 603.8252 272.41424 603.83825 271.64767 604.03616 L 254.8165 608.3814 C 254.3227 608.5089 253.85127 608.7112 253.41863 608.9813 L 242.81843 615.5986 C 241.84822 616.20426 241.115 617.1242 240.741 618.2051 L 234.88264 635.1368 C 234.69163 635.68886 234.59884 636.2701 234.60848 636.8542 L 234.9071 654.9504 C 234.9317 656.4412 235.62029 657.84315 236.78501 658.7739 L 242.6823 663.4866 C 244.08017 664.6037 245.96846 664.8886 247.6337 664.2337 L 262.44497 658.40855 C 263.72067 657.9068 265.1464 657.9509 266.3887 658.5304 L 275.00735 662.5508 C 275.60015 662.8273 276.24145 662.9848 276.8949 663.0144 L 313.3767 664.6663 C 313.3767 664.6663 325.78706 666.4746 326.49477 666.66424 C 327.2025 666.8539 335.88465 668.4217 335.88465 668.4217 L 322.3229 682.2339 C 322.3229 682.2339 315.64863 698.6501 315.83826 697.9424 C 316.0279 697.23465 322.1668 733.7716 322.1668 733.7716 L 322.2412 750.4791 C 322.2412 750.4791 318.25896 765.341 318.06933 766.0487 C 317.8797 766.7564 304.93765 775.425 304.93765 775.425 L 287.78245 781.8519 C 287.41625 781.9891 287.0352 782.0829 286.64716 782.1313 L 262.16644 785.1846 C 262.135 785.1885 262.1036 785.1927 262.07224 785.19725 L 245.6263 787.5667 C 245.57588 787.574 245.52536 787.5805 245.47475 787.5862 L 224.0363 790.009 C 223.77836 790.0382 223.51855 790.0472 223.25922 790.036 L 203.85418 789.1985 C 203.55388 789.1856 203.25536 789.1455 202.96225 789.079 L 185.27923 785.0623 C 184.9689 784.9918 184.65257 784.9511 184.33451 784.9408 L 162.75265 784.2377 C 162.421 784.22685 162.09123 784.1831 161.76825 784.1069 L 138.89941 778.716 C 138.77306 778.6862 138.64792 778.6515 138.52428 778.612 L 124.41409 774.1017 C 124.16343 774.0216 123.91948 773.9218 123.68452 773.8033 L 108.66945 766.2291 C 108.22602 766.0054 107.81838 765.7169 107.45998 765.373 L 95.94952 754.3307 C 95.93804 754.3197 95.92661 754.30865 95.91523 754.2975 L 86.80664 745.3909 C 86.4808 745.0723 86.20005 744.7106 85.97219 744.3159 L 78.64039 731.6169 C 78.5764 731.5061 78.5167 731.3928 78.4614 731.2774 L 70.03535 713.6919 C 69.870865 713.3486 69.66772 713.0252 69.42985 712.72805 L 50.871867 689.5417 C 50.60268 689.2053 50.378086 688.8356 50.203664 688.44175 L 38.839674 662.7787 C 38.71493 662.497 38.61649 662.2044 38.545613 661.90454 L 26.454242 610.75746 C 26.292084 610.0715 26.276784 609.35905 26.409346 608.6668 L 33.693695 570.6265 C 33.769024 570.2331 33.89135 569.8502 34.05804 569.486 L 55.540885 522.5485 C 55.68882 522.2253 55.870795 521.9188 56.08373 521.6342 L 79.0422 490.9465 C 79.27935 490.62954 79.5533 490.34184 79.85831 490.08947 L 105.52327 468.85364 C 105.64992 468.74885 105.77132 468.6379 105.88704 468.5211 L 117.79792 456.5037 C 118.05727 456.242 118.34475 456.0098 118.65512 455.8113 L 137.30405 443.88365 C 137.37573 443.8378 137.44623 443.79013 137.51548 443.7407 L 150.2268 434.66456 C 150.43746 434.51415 150.65948 434.3803 150.89086 434.2643 L 173.91568 422.71745 C 174.10677 422.6216 174.30382 422.53814 174.5056 422.46753 L 192.1711 416.2857 C 192.46753 416.18197 192.77307 416.1064 193.08367 416.06 L 210.27473 413.4912 C 210.61758 413.44 210.96483 413.42454 211.31087 413.44515 L 239.40155 415.1179 C 239.73845 415.13795 240.07244 415.19207 240.39844 415.2794 L 281.4496 426.27905 C 281.5919 426.3172 281.73246 426.3616 281.87084 426.4121 L 335.9731 446.1718 C 336.1542 446.2379 336.3313 446.3145 336.50355 446.4011 L 374.47006 465.4874 C 374.8331 465.6699 375.17255 465.896 375.48088 466.16066 L 436.50917 518.54404 C 436.6267 518.6449 436.73944 518.7512 436.8471 518.8625 L 469.19816 552.32065 C 469.30057 552.42655 469.39824 552.53693 469.4909 552.6515 L 481.13246 567.04165 C 481.5731 567.58635 482.3719 567.6707 482.9166 567.23 C 483.37605 566.85834 483.518 566.2186 483.2588 565.6875 L 478.72415 556.3938 C 478.48464 555.9029 478.1663 555.4546 477.78185 555.06666 L 456.8771 533.9739 C 456.8704 533.9672 456.86375 533.9605 456.85706 533.95384 L 417.5058 494.69657 C 417.4114 494.60235 417.3132 494.51195 417.21154 494.4256 L 382.54355 464.97693 C 382.2783 464.7516 381.99024 464.5546 381.68407 464.3891 L 354.3196 449.59783 C 354.31788 449.5969 354.31614 449.59595 354.3144 449.595 L 332.00195 437.56867 C 330.257 436.62815 329.23243 434.74557 329.3901 432.76957 Z" fill="black"/>
        <path d="M 329.3901 432.76957 L 331.30666 408.75273 C 331.35685 408.12366 331.2875 407.4908 331.1023 406.8875 L 310.37234 339.36703 C 310.3381 339.25555 310.3 339.1453 310.25806 339.03648 L 287.56755 280.15926 C 287.52377 280.04565 287.48415 279.93047 287.44877 279.81397 L 276.31266 243.13953 C 276.2505 242.9348 276.20153 242.72628 276.16608 242.51527 L 270.1188 206.52366 C 270.0932 206.3714 270.07468 206.21802 270.0633 206.06404 L 267.67293 173.75033 C 267.63706 173.26543 267.6721 172.77788 267.77698 172.3031 L 274.6234 141.30627 C 274.6988 140.9649 274.80978 140.63238 274.95454 140.31417 L 285.68237 116.73302 C 285.76722 116.5465 285.86346 116.36538 285.97054 116.19067 L 296.21255 99.48009 C 296.46386 99.07005 296.6547 98.6259 296.77918 98.16136 L 302.99776 74.95328 C 303.15043 74.38353 303.4027 73.84529 303.7429 73.36344 L 327.84296 39.230905 C 328.47775 38.331863 329.60568 37.923836 330.66874 38.20868 L 330.66874 38.20868 C 331.75084 38.49863 332.57213 39.381414 332.78332 40.48161 L 337.4993 65.04904 C 337.50216 65.0639 337.50494 65.07877 337.50766 65.09366 L 339.9519 78.4821 C 340.1577 79.60939 340.7445 80.63179 341.614 81.37815 L 355.21024 93.04842 C 355.527 93.32029 355.8765 93.55143 356.2507 93.73644 L 379.08203 105.02531 C 379.1138 105.04102 379.14543 105.05708 379.17687 105.07347 L 402.499 117.2291 C 402.89144 117.43365 403.3093 117.58519 403.74166 117.67975 L 433.63953 124.21876 C 433.8138 124.25688 433.9859 124.3043 434.1551 124.3608 L 452.41257 130.45841 C 454.92036 131.29596 456.3426 133.94114 455.6583 136.495 L 451.42586 152.2907 C 451.1479 153.3281 450.54326 154.24844 449.7015 154.91545 L 426.12504 173.59717 C 426.0152 173.6842 425.90177 173.76657 425.785 173.84407 L 399.19445 191.49498 C 398.5929 191.89428 398.085 192.41913 397.7056 193.03342 L 387.0214 210.33314 C 386.50095 211.17583 386.2425 212.1541 386.27885 213.1439 L 386.54525 220.39972 C 386.57386 221.17876 386.78423 221.94032 387.15956 222.62358 L 397.3843 241.23682 C 397.98315 242.327 398.96685 243.15482 400.1433 243.55865 L 417.684 249.57963 C 418.1975 249.75588 418.7362 249.84734 419.2791 249.8504 L 450.1051 250.0245 C 450.21446 250.02513 450.3238 250.02216 450.43293 250.0156 L 464.0373 249.19903 C 464.1096 249.1947 464.182 249.19193 464.2544 249.19073 L 473.3374 249.04084 C 474.3001 249.02496 475.24695 249.28738 476.06413 249.79657 L 488.93264 257.8151 C 489.4805 258.15646 490.08926 258.38852 490.72534 258.49845 L 504.84205 260.93825 C 505.417 261.0376 506.0049 261.03558 506.5791 260.93225 L 517.81123 258.91105 C 518.75654 258.74094 519.63284 258.30216 520.33536 257.64717 L 524.2611 253.98707 C 524.2969 253.95365 524.33326 253.92076 524.3701 253.8884 L 530.2421 248.7279 C 531.49784 247.62432 533.22205 247.22134 534.83685 247.65403 L 535.08296 247.71997 C 536.6464 248.1389 537.5742 249.7459 537.1553 251.30934 L 536.01095 255.58 C 535.65226 256.9187 534.754 258.04845 533.5306 258.69963 L 522.20514 264.72785 C 522.1871 264.73744 522.16915 264.74715 522.15124 264.75696 L 502.6926 275.42216 C 502.0741 275.76117 501.3486 275.8485 500.6673 275.66594 L 500.6673 275.66594 C 499.97895 275.4815 499.24893 275.5298 498.5909 275.8033 L 478.1908 284.2819 C 477.67564 284.496 477.1283 284.6224 476.5714 284.6558 L 457.77595 285.78398 C 457.0011 285.8305 456.24776 286.05676 455.5755 286.44487 L 439.0646 295.97746 C 438.2097 296.47102 437.52007 297.20658 437.08255 298.09145 L 428.2414 315.97236 C 427.9619 316.53765 427.79184 317.1507 427.74023 317.77922 L 425.9019 340.1622 C 425.83934 340.92407 425.9523 341.69012 426.23207 342.4015 L 433.4764 360.8213 C 433.4764 360.8213 450.1938 391.849 450.9015 392.03865 C 451.6092 392.2283 457.965 405.30915 457.965 405.30915 L 472.35914 418.07316 C 472.569 418.25927 472.7942 418.4274 473.03226 418.57574 L 487.4005 427.52876 C 487.5497 427.62173 487.7037 427.70676 487.86187 427.7835 L 504.6482 435.9293 C 504.9333 436.0676 505.2309 436.17855 505.537 436.26057 L 534.30295 443.9684 C 534.6339 444.05707 534.9731 444.1115 535.3152 444.1308 L 552.2957 445.0896 C 552.5873 445.10606 552.87975 445.09694 553.1697 445.06236 L 568.06824 443.28545 C 568.2926 443.2587 568.51855 443.24717 568.7445 443.25097 L 588.9331 443.5906 C 589.34184 443.59746 589.7482 443.65444 590.1431 443.76025 L 616.2026 450.7429 C 617.693 451.1422 618.9155 452.2073 619.5153 453.6289 L 620.582 456.1573 C 621.3331 457.9376 623.0428 459.12573 624.9732 459.20905 L 634.6343 459.626 C 635.0823 459.6453 635.5256 459.72483 635.9524 459.86236 L 648.2283 463.8185 C 648.9172 464.0405 649.5496 464.4094 650.082 464.8997 L 661.8066 475.6984 C 661.9686 475.84764 662.12066 476.00746 662.26164 476.1768 L 671.47604 487.24315 C 671.6951 487.5062 671.8865 487.79106 672.04735 488.09323 L 678.4934 500.20374 C 678.7422 500.67113 679.06364 501.09605 679.4457 501.4626 L 685.2305 507.01207 C 686.44676 508.17887 686.48686 510.1107 685.3201 511.327 C 684.7239 511.9484 683.893 512.28904 683.0322 512.2649 L 675.12716 512.04303 C 675.12716 512.04303 663.841 517.36266 663.65134 518.0704 C 663.4617 518.7781 648.9146 527.7751 648.9146 527.7751 L 637.6251 538.6911 C 636.9736 539.321 636.50556 540.11614 636.271 540.9915 L 631.6376 558.2837 C 631.55235 558.6018 631.4359 558.9106 631.29 559.2058 L 623.2486 575.46924 C 623.23625 575.49414 623.2237 575.51894 623.211 575.5436 L 615.3353 590.82556 C 615.3318 590.8324 615.32826 590.8392 615.3247 590.846 L 609.1102 602.76936 C 609.09395 602.8005 609.0774 602.8315 609.0605 602.8623 L 593.0572 632.0491 C 592.86484 632.3999 592.7153 632.7725 592.61176 633.1589 L 589.16464 646.0237 C 589.16464 646.0237 586.3202 656.63935 585.6125 656.4497 C 584.90476 656.2601 574.9832 664.97945 574.9832 664.97945 L 574.2501 666.3001 C 573.7757 667.1545 573.0226 667.8204 572.1165 668.18656 L 515.0497 691.246 C 514.89936 691.3067 514.74616 691.3601 514.59064 691.406 L 500.10576 695.6772 C 500.0348 695.69815 499.9634 695.7175 499.8916 695.73525 L 477.45547 701.28206 C 476.78677 701.4474 476.0911 701.47274 475.41216 701.3566 L 437.7752 694.91645 C 437.44393 694.8598 437.1192 694.7698 436.806 694.648 L 387.3857 675.4255 C 387.2161 675.3595 387.04305 675.3029 386.8673 675.2558 L 375.10004 672.10275 C 375.10004 672.10275 341.73598 669.2311 339.9549 658.893 C 338.17384 648.555 338.17384 648.555 338.17384 648.555 L 327.23555 627.6445 C 326.8431 626.89426 326.2666 626.256 325.56005 625.7895 L 309.68603 615.3086 C 309.3867 615.11095 309.06694 614.9461 308.73232 614.8169 L 290.33535 607.71236 C 290.10456 607.6232 289.86746 607.55135 289.62602 607.4973 L 273.98945 603.9981 C 273.21685 603.8252 272.41424 603.83825 271.64767 604.03616 L 254.8165 608.3814 C 254.3227 608.5089 253.85127 608.7112 253.41863 608.9813 L 242.81843 615.5986 C 241.84822 616.20426 241.115 617.1242 240.741 618.2051 L 234.88264 635.1368 C 234.69163 635.68886 234.59884 636.2701 234.60848 636.8542 L 234.9071 654.9504 C 234.9317 656.4412 235.62029 657.84315 236.78501 658.7739 L 242.6823 663.4866 C 244.08017 664.6037 245.96846 664.8886 247.6337 664.2337 L 262.44497 658.40855 C 263.72067 657.9068 265.1464 657.9509 266.3887 658.5304 L 275.00735 662.5508 C 275.60015 662.8273 276.24145 662.9848 276.8949 663.0144 L 313.3767 664.6663 C 313.3767 664.6663 325.78706 666.4746 326.49477 666.66424 C 327.2025 666.8539 335.88465 668.4217 335.88465 668.4217 L 322.3229 682.2339 C 322.3229 682.2339 315.64863 698.6501 315.83826 697.9424 C 316.0279 697.23465 322.1668 733.7716 322.1668 733.7716 L 322.2412 750.4791 C 322.2412 750.4791 318.25896 765.341 318.06933 766.0487 C 317.8797 766.7564 304.93765 775.425 304.93765 775.425 L 287.78245 781.8519 C 287.41625 781.9891 287.0352 782.0829 286.64716 782.1313 L 262.16644 785.1846 C 262.135 785.1885 262.1036 785.1927 262.07224 785.19725 L 245.6263 787.5667 C 245.57588 787.574 245.52536 787.5805 245.47475 787.5862 L 224.0363 790.009 C 223.77836 790.0382 223.51855 790.0472 223.25922 790.036 L 203.85418 789.1985 C 203.55388 789.1856 203.25536 789.1455 202.96225 789.079 L 185.27923 785.0623 C 184.9689 784.9918 184.65257 784.9511 184.33451 784.9408 L 162.75265 784.2377 C 162.421 784.22685 162.09123 784.1831 161.76825 784.1069 L 138.89941 778.716 C 138.77306 778.6862 138.64792 778.6515 138.52428 778.612 L 124.41409 774.1017 C 124.16343 774.0216 123.91948 773.9218 123.68452 773.8033 L 108.66945 766.2291 C 108.22602 766.0054 107.81838 765.7169 107.45998 765.373 L 95.94952 754.3307 C 95.93804 754.3197 95.92661 754.30865 95.91523 754.2975 L 86.80664 745.3909 C 86.4808 745.0723 86.20005 744.7106 85.97219 744.3159 L 78.64039 731.6169 C 78.5764 731.5061 78.5167 731.3928 78.4614 731.2774 L 70.03535 713.6919 C 69.870865 713.3486 69.66772 713.0252 69.42985 712.72805 L 50.871867 689.5417 C 50.60268 689.2053 50.378086 688.8356 50.203664 688.44175 L 38.839674 662.7787 C 38.71493 662.497 38.61649 662.2044 38.545613 661.90454 L 26.454242 610.75746 C 26.292084 610.0715 26.276784 609.35905 26.409346 608.6668 L 33.693695 570.6265 C 33.769024 570.2331 33.89135 569.8502 34.05804 569.486 L 55.540885 522.5485 C 55.68882 522.2253 55.870795 521.9188 56.08373 521.6342 L 79.0422 490.9465 C 79.27935 490.62954 79.5533 490.34184 79.85831 490.08947 L 105.52327 468.85364 C 105.64992 468.74885 105.77132 468.6379 105.88704 468.5211 L 117.79792 456.5037 C 118.05727 456.242 118.34475 456.0098 118.65512 455.8113 L 137.30405 443.88365 C 137.37573 443.8378 137.44623 443.79013 137.51548 443.7407 L 150.2268 434.66456 C 150.43746 434.51415 150.65948 434.3803 150.89086 434.2643 L 173.91568 422.71745 C 174.10677 422.6216 174.30382 422.53814 174.5056 422.46753 L 192.1711 416.2857 C 192.46753 416.18197 192.77307 416.1064 193.08367 416.06 L 210.27473 413.4912 C 210.61758 413.44 210.96483 413.42454 211.31087 413.44515 L 239.40155 415.1179 C 239.73845 415.13795 240.07244 415.19207 240.39844 415.2794 L 281.4496 426.27905 C 281.5919 426.3172 281.73246 426.3616 281.87084 426.4121 L 335.9731 446.1718 C 336.1542 446.2379 336.3313 446.3145 336.50355 446.4011 L 374.47006 465.4874 C 374.8331 465.6699 375.17255 465.896 375.48088 466.16066 L 436.50917 518.54404 C 436.6267 518.6449 436.73944 518.7512 436.8471 518.8625 L 469.19816 552.32065 C 469.30057 552.42655 469.39824 552.53693 469.4909 552.6515 L 481.13246 567.04165 C 481.5731 567.58635 482.3719 567.6707 482.9166 567.23 C 483.37605 566.85834 483.518 566.2186 483.2588 565.6875 L 478.72415 556.3938 C 478.48464 555.9029 478.1663 555.4546 477.78185 555.06666 L 456.8771 533.9739 C 456.8704 533.9672 456.86375 533.9605 456.85706 533.95384 L 417.5058 494.69657 C 417.4114 494.60235 417.3132 494.51195 417.21154 494.4256 L 382.54355 464.97693 C 382.2783 464.7516 381.99024 464.5546 381.68407 464.3891 L 354.3196 449.59783 C 354.31788 449.5969 354.31614 449.59595 354.3144 449.595 L 332.00195 437.56867 C 330.257 436.62815 329.23243 434.74557 329.3901 432.76957 Z" stroke="white" stroke-linecap="round" stroke-linejoin="round" stroke-width="9"/>
      </g>
      <g id="Graphic_2">
        <path d="M 363.37136 142.60401 L 362.96364 138.74901 C 362.7558 136.78403 363.7247 134.88096 365.4359 133.89299 L 371.59638 130.33624 C 372.7448 129.6732 374.10958 129.49352 375.39047 129.83674 L 377.24734 130.33428 C 379.19706 130.8567 380.64144 132.50023 380.9091 134.50091 L 381.5278 139.12587 C 381.65966 140.11134 381.4947 141.11374 381.054 142.005 L 379.61882 144.90764 C 378.8699 146.42227 377.4067 147.45621 375.7289 147.65632 L 371.79814 148.12513 C 370.99964 148.22037 370.18996 148.1216 369.43776 147.83721 L 366.5754 146.755 C 364.8093 146.08728 363.56995 144.48165 363.37136 142.60401 Z" fill="black"/>
        <path d="M 363.37136 142.60401 L 362.96364 138.74901 C 362.7558 136.78403 363.7247 134.88096 365.4359 133.89299 L 371.59638 130.33624 C 372.7448 129.6732 374.10958 129.49352 375.39047 129.83674 L 377.24734 130.33428 C 379.19706 130.8567 380.64144 132.50023 380.9091 134.50091 L 381.5278 139.12587 C 381.65966 140.11134 381.4947 141.11374 381.054 142.005 L 379.61882 144.90764 C 378.8699 146.42227 377.4067 147.45621 375.7289 147.65632 L 371.79814 148.12513 C 370.99964 148.22037 370.18996 148.1216 369.43776 147.83721 L 366.5754 146.755 C 364.8093 146.08728 363.56995 144.48165 363.37136 142.60401 Z" stroke="white" stroke-linecap="round" stroke-linejoin="round" stroke-width="5"/>
      </g>
      <g id="Graphic_16">
        <path d="M 695.0755 488.9855 L 654.3335 507.52906 L 628.10515 542.5874 L 606.5737 591.5302 L 619.3682 622.3145 L 647.8041 602.5778 L 661.4821 551.53075 L 688.8658 535.72076 L 708.9222 515.8431 Z" fill="black"/>
        <path d="M 695.0755 488.9855 L 654.3335 507.52906 L 628.10515 542.5874 L 606.5737 591.5302 L 619.3682 622.3145 L 647.8041 602.5778 L 661.4821 551.53075 L 688.8658 535.72076 L 708.9222 515.8431 Z" stroke="white" stroke-linecap="round" stroke-linejoin="round" stroke-width="10"/>
      </g>
      <g id="Graphic_15">
        <path d="M 637.8728 620.2467 L 632.06666 614.14334 C 622.2918 603.86814 610.78466 595.3937 598.07185 589.1079 L 594.0633 587.1259 C 578.7914 579.57475 561.96275 575.7069 544.9265 575.83244 L 533.41607 575.91725 C 517.89824 576.0316 502.7104 580.4093 489.5124 588.5719 L 488.7578 589.0386 C 475.93316 596.9703 464.78905 607.3408 455.9567 619.5626 L 455.9567 619.5626 C 447.13175 631.77425 440.89597 645.6609 437.63227 660.3698 L 437.27634 661.9739 C 434.10127 676.28335 434.43317 691.1483 438.24375 705.3018 L 438.24375 705.3018 C 442.07145 719.5189 448.73033 732.81675 457.82124 744.3983 L 459.73234 746.833 C 470.0766 760.0112 483.062 770.8811 497.85495 778.7449 L 499.36555 779.5479 C 515.12204 787.9239 532.57913 792.6015 550.41263 793.2259 L 550.41263 793.2259 C 568.1235 793.8461 585.65216 789.4766 600.9996 780.6157 L 609.48136 775.7188 C 621.2225 768.94 631.3526 759.694 639.1724 748.6189 L 639.1724 748.6189 C 647.02344 737.4996 652.84505 725.07885 656.368 711.931 L 657.2536 708.6259 C 660.4466 696.7095 661.2741 684.2829 659.68945 672.0483 L 658.9612 666.4258 C 657.8523 657.86455 655.53075 649.50465 652.0664 641.5975 L 652.0664 641.5975 C 648.6108 633.7104 643.8078 626.4855 637.8728 620.2467 Z" fill="black"/>
        <path d="M 637.8728 620.2467 L 632.06666 614.14334 C 622.2918 603.86814 610.78466 595.3937 598.07185 589.1079 L 594.0633 587.1259 C 578.7914 579.57475 561.96275 575.7069 544.9265 575.83244 L 533.41607 575.91725 C 517.89824 576.0316 502.7104 580.4093 489.5124 588.5719 L 488.7578 589.0386 C 475.93316 596.9703 464.78905 607.3408 455.9567 619.5626 L 455.9567 619.5626 C 447.13175 631.77425 440.89597 645.6609 437.63227 660.3698 L 437.27634 661.9739 C 434.10127 676.28335 434.43317 691.1483 438.24375 705.3018 L 438.24375 705.3018 C 442.07145 719.5189 448.73033 732.81675 457.82124 744.3983 L 459.73234 746.833 C 470.0766 760.0112 483.062 770.8811 497.85495 778.7449 L 499.36555 779.5479 C 515.12204 787.9239 532.57913 792.6015 550.41263 793.2259 L 550.41263 793.2259 C 568.1235 793.8461 585.65216 789.4766 600.9996 780.6157 L 609.48136 775.7188 C 621.2225 768.94 631.3526 759.694 639.1724 748.6189 L 639.1724 748.6189 C 647.02344 737.4996 652.84505 725.07885 656.368 711.931 L 657.2536 708.6259 C 660.4466 696.7095 661.2741 684.2829 659.68945 672.0483 L 658.9612 666.4258 C 657.8523 657.86455 655.53075 649.50465 652.0664 641.5975 L 652.0664 641.5975 C 648.6108 633.7104 643.8078 626.4855 637.8728 620.2467 Z" stroke="white" stroke-linecap="round" stroke-linejoin="round" stroke-width="10"/>
      </g>
      <g id="Graphic_14">
        <path d="M 590.77624 680.0921 L 589.9944 676.8532 C 588.67824 671.4004 586.4125 666.2218 583.301 661.5545 L 582.3199 660.0828 C 578.582 654.476 573.5824 649.823 567.722 646.4968 L 563.76244 644.2495 C 558.42434 641.21976 552.35614 639.71566 546.221 639.9016 L 545.8702 639.9122 C 539.90865 640.09286 534.0404 641.44124 528.5979 643.881 L 528.5979 643.881 C 523.16 646.3187 518.2777 649.8422 514.2508 654.2351 L 513.81164 654.7142 C 509.89413 658.98786 507.06804 664.14536 505.57424 669.7471 L 505.57424 669.7471 C 504.07373 675.374 503.7248 681.24596 504.5484 687.011 L 504.7215 688.2229 C 505.65863 694.7827 507.95695 701.0742 511.46896 706.6934 L 511.8276 707.2672 C 515.56834 713.2524 520.623 718.3071 526.6082 722.0478 L 526.6082 722.0478 C 532.55227 725.76285 539.4207 727.7327 546.4302 727.7327 L 550.304 727.7327 C 555.6664 727.7327 560.9649 726.5689 565.8338 724.3218 L 565.8338 724.3218 C 570.7221 722.0656 575.1726 718.9623 578.9796 715.1554 L 579.93656 714.1984 C 583.38695 710.748 586.12796 706.65505 588.0047 702.1508 L 588.8672 700.08085 C 590.1805 696.929 591.0386 693.60625 591.41565 690.2126 L 591.41565 690.2126 C 591.7918 686.82756 591.5754 683.4029 590.77624 680.0921 Z" fill="black"/>
        <path d="M 590.77624 680.0921 L 589.9944 676.8532 C 588.67824 671.4004 586.4125 666.2218 583.301 661.5545 L 582.3199 660.0828 C 578.582 654.476 573.5824 649.823 567.722 646.4968 L 563.76244 644.2495 C 558.42434 641.21976 552.35614 639.71566 546.221 639.9016 L 545.8702 639.9122 C 539.90865 640.09286 534.0404 641.44124 528.5979 643.881 L 528.5979 643.881 C 523.16 646.3187 518.2777 649.8422 514.2508 654.2351 L 513.81164 654.7142 C 509.89413 658.98786 507.06804 664.14536 505.57424 669.7471 L 505.57424 669.7471 C 504.07373 675.374 503.7248 681.24596 504.5484 687.011 L 504.7215 688.2229 C 505.65863 694.7827 507.95695 701.0742 511.46896 706.6934 L 511.8276 707.2672 C 515.56834 713.2524 520.623 718.3071 526.6082 722.0478 L 526.6082 722.0478 C 532.55227 725.76285 539.4207 727.7327 546.4302 727.7327 L 550.304 727.7327 C 555.6664 727.7327 560.9649 726.5689 565.8338 724.3218 L 565.8338 724.3218 C 570.7221 722.0656 575.1726 718.9623 578.9796 715.1554 L 579.93656 714.1984 C 583.38695 710.748 586.12796 706.65505 588.0047 702.1508 L 588.8672 700.08085 C 590.1805 696.929 591.0386 693.60625 591.41565 690.2126 L 591.41565 690.2126 C 591.7918 686.82756 591.5754 683.4029 590.77624 680.0921 Z" stroke="white" stroke-linecap="round" stroke-linejoin="round" stroke-width="10"/>
      </g>
      <g id="Graphic_13">
        <path d="M 739.7164 476.26856 L 736.6 472.99263 C 731.3534 467.4775 725.17705 462.9289 718.3535 459.55504 L 716.202 458.4912 C 708.0049 454.4382 698.97224 452.36215 689.8282 452.42953 L 683.65 452.47505 C 675.3209 452.5364 667.169 454.8861 660.085 459.26735 L 659.68 459.51785 C 652.7965 463.77513 646.81496 469.3414 642.0743 475.9014 L 642.0743 475.9014 C 637.3375 482.4559 633.9905 489.90943 632.23875 497.80435 L 632.0477 498.66534 C 630.3435 506.3458 630.5217 514.3245 632.56696 521.9213 L 632.56696 521.9213 C 634.62145 529.5522 638.19556 536.6897 643.075 542.906 L 644.1008 544.2128 C 649.653 551.2862 656.6228 557.1205 664.56285 561.3413 L 665.37365 561.77234 C 673.8308 566.2681 683.2008 568.77876 692.7728 569.1139 L 692.7728 569.1139 C 702.279 569.4468 711.6874 567.1015 719.925 562.3455 L 724.4775 559.7171 C 730.7795 556.07864 736.2168 551.1159 740.414 545.17143 L 740.414 545.17143 C 744.62795 539.2032 747.7527 532.53647 749.6436 525.47945 L 750.1189 523.7055 C 751.8327 517.3094 752.2769 510.63954 751.4263 504.0727 L 751.03545 501.05486 C 750.4403 496.4597 749.1942 491.97256 747.3347 487.72846 L 747.3347 487.72846 C 745.47995 483.4951 742.902 479.6172 739.7164 476.26856 Z" fill="black"/>
        <path d="M 739.7164 476.26856 L 736.6 472.99263 C 731.3534 467.4775 725.17705 462.9289 718.3535 459.55504 L 716.202 458.4912 C 708.0049 454.4382 698.97224 452.36215 689.8282 452.42953 L 683.65 452.47505 C 675.3209 452.5364 667.169 454.8861 660.085 459.26735 L 659.68 459.51785 C 652.7965 463.77513 646.81496 469.3414 642.0743 475.9014 L 642.0743 475.9014 C 637.3375 482.4559 633.9905 489.90943 632.23875 497.80435 L 632.0477 498.66534 C 630.3435 506.3458 630.5217 514.3245 632.56696 521.9213 L 632.56696 521.9213 C 634.62145 529.5522 638.19556 536.6897 643.075 542.906 L 644.1008 544.2128 C 649.653 551.2862 656.6228 557.1205 664.56285 561.3413 L 665.37365 561.77234 C 673.8308 566.2681 683.2008 568.77876 692.7728 569.1139 L 692.7728 569.1139 C 702.279 569.4468 711.6874 567.1015 719.925 562.3455 L 724.4775 559.7171 C 730.7795 556.07864 736.2168 551.1159 740.414 545.17143 L 740.414 545.17143 C 744.62795 539.2032 747.7527 532.53647 749.6436 525.47945 L 750.1189 523.7055 C 751.8327 517.3094 752.2769 510.63954 751.4263 504.0727 L 751.03545 501.05486 C 750.4403 496.4597 749.1942 491.97256 747.3347 487.72846 L 747.3347 487.72846 C 745.47995 483.4951 742.902 479.6172 739.7164 476.26856 Z" stroke="white" stroke-linecap="round" stroke-linejoin="round" stroke-width="10"/>
      </g>
      <g id="Graphic_12">
        <path d="M 717.42795 509.1914 L 717.0083 507.4529 C 716.3019 504.5262 715.08576 501.7466 713.4157 499.2415 L 712.88905 498.45156 C 710.8828 495.44215 708.1993 492.94467 705.05375 491.15936 L 702.9285 489.9531 C 700.0633 488.32694 696.8062 487.51963 693.51324 487.6194 L 693.325 487.6251 C 690.1251 487.7221 686.9754 488.4458 684.0542 489.75533 L 684.0542 489.75533 C 681.1354 491.06375 678.5149 492.95497 676.3535 495.31285 L 676.11775 495.57 C 674.0151 497.86384 672.4982 500.6321 671.6964 503.6388 L 671.6964 503.6388 C 670.891 506.659 670.7037 509.8107 671.1458 512.90504 L 671.2387 513.55554 C 671.7417 517.0765 672.9753 520.45336 674.8603 523.46943 L 675.0528 523.7774 C 677.06065 526.98993 679.7737 529.703 682.9862 531.7108 L 682.9862 531.7108 C 686.17665 533.70484 689.8632 534.7621 693.6255 534.7621 L 695.70475 534.7621 C 698.583 534.7621 701.4269 534.1375 704.04026 532.93135 L 704.04026 532.93135 C 706.664 531.7204 709.0528 530.0547 711.0962 528.01135 L 711.6098 527.4977 C 713.4618 525.6457 714.933 523.44886 715.9404 521.03124 L 716.4033 519.9202 C 717.1082 518.22846 717.56875 516.445 717.77114 514.6235 L 717.77114 514.6235 C 717.973 512.8066 717.8569 510.9684 717.42795 509.1914 Z" fill="black"/>
        <path d="M 717.42795 509.1914 L 717.0083 507.4529 C 716.3019 504.5262 715.08576 501.7466 713.4157 499.2415 L 712.88905 498.45156 C 710.8828 495.44215 708.1993 492.94467 705.05375 491.15936 L 702.9285 489.9531 C 700.0633 488.32694 696.8062 487.51963 693.51324 487.6194 L 693.325 487.6251 C 690.1251 487.7221 686.9754 488.4458 684.0542 489.75533 L 684.0542 489.75533 C 681.1354 491.06375 678.5149 492.95497 676.3535 495.31285 L 676.11775 495.57 C 674.0151 497.86384 672.4982 500.6321 671.6964 503.6388 L 671.6964 503.6388 C 670.891 506.659 670.7037 509.8107 671.1458 512.90504 L 671.2387 513.55554 C 671.7417 517.0765 672.9753 520.45336 674.8603 523.46943 L 675.0528 523.7774 C 677.06065 526.98993 679.7737 529.703 682.9862 531.7108 L 682.9862 531.7108 C 686.17665 533.70484 689.8632 534.7621 693.6255 534.7621 L 695.70475 534.7621 C 698.583 534.7621 701.4269 534.1375 704.04026 532.93135 L 704.04026 532.93135 C 706.664 531.7204 709.0528 530.0547 711.0962 528.01135 L 711.6098 527.4977 C 713.4618 525.6457 714.933 523.44886 715.9404 521.03124 L 716.4033 519.9202 C 717.1082 518.22846 717.56875 516.445 717.77114 514.6235 L 717.77114 514.6235 C 717.973 512.8066 717.8569 510.9684 717.42795 509.1914 Z" stroke="white" stroke-linecap="round" stroke-linejoin="round" stroke-width="10"/>
      </g>
      <g id="Graphic_17">
        <path d="M 692 76 L 733 96 L 768 131 L 775 170 L 778 146 L 777 126 L 757 100 L 730 83 L 712 78 Z" fill="black"/>
        <path d="M 692 76 L 733 96 L 768 131 L 775 170 L 778 146 L 777 126 L 757 100 L 730 83 L 712 78 Z" stroke="white" stroke-linecap="round" stroke-linejoin="round" stroke-width="7"/>
      </g>
      <g id="Graphic_18">
        <path d="M 730.04665 58 L 762.0499 73.611345 L 789.3698 100.9312 L 794.8337 131.37332 L 797.1754 112.63971 L 796.3949 97.02836 L 780.7835 76.73361 L 759.7082 63.46397 L 745.658 59.561135 Z" fill="black"/>
        <path d="M 730.04665 58 L 762.0499 73.611345 L 789.3698 100.9312 L 794.8337 131.37332 L 797.1754 112.63971 L 796.3949 97.02836 L 780.7835 76.73361 L 759.7082 63.46397 L 745.658 59.561135 Z" stroke="white" stroke-linecap="round" stroke-linejoin="round" stroke-width="7"/>
      </g>
      <g id="Graphic_19">
        <path d="M 763 38 L 787.4255 49.914894 L 808.2766 70.76596 L 812.4468 94 L 814.234 79.70213 L 813.6383 67.787234 L 801.7234 52.29787 L 785.6383 42.170213 L 774.9149 39.19149 Z" fill="black"/>
        <path d="M 763 38 L 787.4255 49.914894 L 808.2766 70.76596 L 812.4468 94 L 814.234 79.70213 L 813.6383 67.787234 L 801.7234 52.29787 L 785.6383 42.170213 L 774.9149 39.19149 Z" stroke="white" stroke-linecap="round" stroke-linejoin="round" stroke-width="7"/>
      </g>
    </g>
  </g>
</svg>
