<?xml version="1.0" encoding="UTF-8" standalone="no"?>
<!DOCTYPE svg PUBLIC "-//W3C//DTD SVG 1.1//EN" "http://www.w3.org/Graphics/SVG/1.1/DTD/svg11.dtd">
<svg xmlns:xl="http://www.w3.org/1999/xlink" xmlns:dc="http://purl.org/dc/elements/1.1/" version="1.1" xmlns="http://www.w3.org/2000/svg" viewBox="0 0 850.394 850.394" width="850.394" height="850.394">
  <defs/>
  <metadata> Produced by OmniGraffle 7.9.4 
    <dc:date>2019-06-05 09:54:21 +0000</dc:date>
  </metadata>
  <g id="gong_4" stroke="none" stroke-opacity="1" fill="none" stroke-dasharray="none" fill-opacity="1">
    <title>gong 4</title>
    <g id="gong_4: Layer 1">
      <title>Layer 1</title>
      <g id="Graphic_12">
        <circle cx="411.77796" cy="230.77796" r="120.778154962162" fill="black"/>
        <circle cx="411.77796" cy="230.77796" r="120.778154962162" stroke="white" stroke-linecap="round" stroke-linejoin="round" stroke-width="7"/>
      </g>
      <g id="Graphic_13">
        <ellipse cx="411.77796" cy="237.16833" rx="120.778154962162" ry="113.10970067885" fill="black"/>
        <ellipse cx="411.77796" cy="237.16833" rx="120.778154962162" ry="113.10970067885" stroke="white" stroke-linecap="round" stroke-linejoin="round" stroke-width="7"/>
      </g>
      <g id="Graphic_14">
        <ellipse cx="414.8134" cy="239.52795" rx="76.8443022973544" ry="74.3249209050031" fill="black"/>
        <ellipse cx="414.8134" cy="239.52795" rx="76.8443022973544" ry="74.3249209050031" stroke="white" stroke-linecap="round" stroke-linejoin="round" stroke-width="7"/>
      </g>
      <g id="Graphic_15">
        <circle cx="411.77796" cy="240.52327" r="31.4726144544258" fill="black"/>
        <circle cx="411.77796" cy="240.52327" r="31.4726144544258" stroke="white" stroke-linecap="round" stroke-linejoin="round" stroke-width="10"/>
      </g>
      <g id="Graphic_2">
        <path d="M 769.0371 294.4002 C 849.5708 374.93353 849.5708 505.50375 769.0371 586.0371 C 688.50375 666.5708 557.9335 666.5708 477.4002 586.0371 C 396.86646 505.50375 396.86646 374.93353 477.4002 294.4002 C 557.9335 213.86646 688.50375 213.86646 769.0371 294.4002" fill="black"/>
        <path d="M 769.0371 294.4002 C 849.5708 374.93353 849.5708 505.50375 769.0371 586.0371 C 688.50375 666.5708 557.9335 666.5708 477.4002 586.0371 C 396.86646 505.50375 396.86646 374.93353 477.4002 294.4002 C 557.9335 213.86646 688.50375 213.86646 769.0371 294.4002" stroke="white" stroke-linecap="round" stroke-linejoin="round" stroke-width="7"/>
      </g>
      <g id="Graphic_5">
        <path d="M 748.8677 294.4002 C 824.2882 374.93353 824.2882 505.50375 748.8677 586.0371 C 673.4476 666.5708 551.1676 666.5708 475.7475 586.0371 C 400.327 505.50375 400.327 374.93353 475.7475 294.4002 C 551.1676 213.86646 673.4476 213.86646 748.8677 294.4002" fill="black"/>
        <path d="M 748.8677 294.4002 C 824.2882 374.93353 824.2882 505.50375 748.8677 586.0371 C 673.4476 666.5708 551.1676 666.5708 475.7475 586.0371 C 400.327 505.50375 400.327 374.93353 475.7475 294.4002 C 551.1676 213.86646 673.4476 213.86646 748.8677 294.4002" stroke="white" stroke-linecap="round" stroke-linejoin="round" stroke-width="7"/>
      </g>
      <g id="Graphic_6">
        <ellipse cx="608.27874" cy="445.4014" rx="126.903814750625" ry="131.20545551402" fill="black"/>
        <ellipse cx="608.27874" cy="445.4014" rx="126.903814750625" ry="131.20545551402" stroke="white" stroke-linecap="round" stroke-linejoin="round" stroke-width="7"/>
      </g>
      <g id="Graphic_4">
        <circle cx="606.5793" cy="440.21864" r="53.7369537136424" fill="black"/>
        <circle cx="606.5793" cy="440.21864" r="53.7369537136424" stroke="white" stroke-linecap="round" stroke-linejoin="round" stroke-width="10"/>
      </g>
      <g id="Graphic_3">
        <ellipse cx="598.9416" cy="440.21864" rx="46.0992140995208" ry="53.7369537136423" fill="black"/>
        <ellipse cx="598.9416" cy="440.21864" rx="46.0992140995208" ry="53.7369537136423" stroke="white" stroke-linecap="round" stroke-linejoin="round" stroke-width="7"/>
      </g>
      <g id="Graphic_7">
        <path d="M 56.58703 317.3267 C 78.67913 234.87702 163.42685 185.9479 245.87643 208.04043 C 328.32613 230.13253 377.25524 314.88025 355.1627 397.32983 C 333.0706 479.7795 248.3229 528.70864 165.87332 506.6161 C 83.42362 484.524 34.494504 399.7763 56.58703 317.3267" fill="black"/>
        <path d="M 56.58703 317.3267 C 78.67913 234.87702 163.42685 185.9479 245.87643 208.04043 C 328.32613 230.13253 377.25524 314.88025 355.1627 397.32983 C 333.0706 479.7795 248.3229 528.70864 165.87332 506.6161 C 83.42362 484.524 34.494504 399.7763 56.58703 317.3267" stroke="white" stroke-linecap="round" stroke-linejoin="round" stroke-width="7"/>
      </g>
      <g id="Graphic_8">
        <path d="M 64.145175 330.4178 C 88.15339 251.2869 172.9011 202.3578 253.43458 221.13152 C 333.96817 239.90484 379.79068 319.27175 355.78205 398.40255 C 331.77384 477.53344 247.02612 526.46256 166.49265 507.68883 C 85.95905 488.9155 40.13655 409.5486 64.145175 330.4178" fill="black"/>
        <path d="M 64.145175 330.4178 C 88.15339 251.2869 172.9011 202.3578 253.43458 221.13152 C 333.96817 239.90484 379.79068 319.27175 355.78205 398.40255 C 331.77384 477.53344 247.02612 526.46256 166.49265 507.68883 C 85.95905 488.9155 40.13655 409.5486 64.145175 330.4178" stroke="white" stroke-linecap="round" stroke-linejoin="round" stroke-width="7"/>
      </g>
      <g id="Graphic_9">
        <path d="M 120.9937 341.6065 C 135.67917 290.2388 189.59934 259.10796 241.42783 272.07383 C 293.2564 285.03944 323.36657 337.1918 308.68084 388.55947 C 293.99537 439.9272 240.0752 471.058 188.2467 458.09214 C 136.41815 445.12654 106.30796 392.97417 120.9937 341.6065" fill="black"/>
        <path d="M 120.9937 341.6065 C 135.67917 290.2388 189.59934 259.10796 241.42783 272.07383 C 293.2564 285.03944 323.36657 337.1918 308.68084 388.55947 C 293.99537 439.9272 240.0752 471.058 188.2467 458.09214 C 136.41815 445.12654 106.30796 392.97417 120.9937 341.6065" stroke="white" stroke-linecap="round" stroke-linejoin="round" stroke-width="7"/>
      </g>
      <g id="Graphic_10">
        <circle cx="212.1102" cy="368.12817" r="40.2741396140654" fill="black"/>
        <circle cx="212.1102" cy="368.12817" r="40.2741396140654" stroke="white" stroke-linecap="round" stroke-linejoin="round" stroke-width="10"/>
      </g>
      <g id="Graphic_11">
        <path d="M 178.09441 366.1672 C 184.96895 346.61824 207.05268 333.8682 227.41982 337.68914 C 247.787 341.51 258.72486 360.4549 251.85022 380.00383 C 244.9757 399.55277 222.89196 412.3028 202.5248 408.48187 C 182.15763 404.66103 171.21977 385.7161 178.09441 366.1672" fill="black"/>
        <path d="M 178.09441 366.1672 C 184.96895 346.61824 207.05268 333.8682 227.41982 337.68914 C 247.787 341.51 258.72486 360.4549 251.85022 380.00383 C 244.9757 399.55277 222.89196 412.3028 202.5248 408.48187 C 182.15763 404.66103 171.21977 385.7161 178.09441 366.1672" stroke="white" stroke-linecap="round" stroke-linejoin="round" stroke-width="7"/>
      </g>
      <g id="Graphic_16">
        <ellipse cx="411.77796" cy="244.99653" rx="31.4726144544258" ry="26.9993494558273" fill="black"/>
        <ellipse cx="411.77796" cy="244.99653" rx="31.4726144544258" ry="26.9993494558273" stroke="white" stroke-linecap="round" stroke-linejoin="round" stroke-width="7"/>
      </g>
    </g>
  </g>
</svg>
