<?xml version="1.0" encoding="UTF-8" standalone="no"?>
<!DOCTYPE svg PUBLIC "-//W3C//DTD SVG 1.1//EN" "http://www.w3.org/Graphics/SVG/1.1/DTD/svg11.dtd">
<svg xmlns:dc="http://purl.org/dc/elements/1.1/" xmlns:xl="http://www.w3.org/1999/xlink" xmlns="http://www.w3.org/2000/svg" version="1.1" viewBox="0 0 850.394 850.394" width="850.394" height="850.394">
  <defs/>
  <metadata> Produced by OmniGraffle 7.9.4 
    <dc:date>2019-05-24 13:28:14 +0000</dc:date>
  </metadata>
  <g id="mono_white" stroke-dasharray="none" stroke-opacity="1" stroke="none" fill="none" fill-opacity="1">
    <title>mono_white</title>
    <g id="mono_white: mono">
      <title>mono</title>
      <g id="Graphic_8">
        <path d="M 570.68406 279.70994 C 651.0348 360.06025 651.0348 490.33375 570.68406 570.68406 C 490.33375 651.0348 360.06025 651.0348 279.70994 570.68406 C 199.35922 490.33375 199.35922 360.06025 279.70994 279.70994 C 360.06025 199.35922 490.33375 199.35922 570.68406 279.70994" fill="black"/>
        <path d="M 570.68406 279.70994 C 651.0348 360.06025 651.0348 490.33375 570.68406 570.68406 C 490.33375 651.0348 360.06025 651.0348 279.70994 570.68406 C 199.35922 490.33375 199.35922 360.06025 279.70994 279.70994 C 360.06025 199.35922 490.33375 199.35922 570.68406 279.70994" stroke="white" stroke-linecap="round" stroke-linejoin="round" stroke-width="3"/>
      </g>
      <g id="Graphic_7">
        <circle cx="425.197" cy="425.197" r="158.52050070913" fill="black"/>
        <circle cx="425.197" cy="425.197" r="158.52050070913" stroke="white" stroke-linecap="round" stroke-linejoin="round" stroke-width="12"/>
      </g>
    </g>
  </g>
</svg>
