<?xml version="1.0" encoding="UTF-8" standalone="no"?>
<!DOCTYPE svg PUBLIC "-//W3C//DTD SVG 1.1//EN" "http://www.w3.org/Graphics/SVG/1.1/DTD/svg11.dtd">
<svg xmlns:xl="http://www.w3.org/1999/xlink" xmlns:dc="http://purl.org/dc/elements/1.1/" version="1.1" xmlns="http://www.w3.org/2000/svg" viewBox="0 0 850.394 850.394" width="850.394" height="850.394">
  <defs/>
  <metadata> Produced by OmniGraffle 7.9.4 
    <dc:date>2019-05-18 02:02:47 +0000</dc:date>
  </metadata>
  <g id="reverb_mono" stroke-dasharray="none" fill-opacity="1" stroke="none" fill="none" stroke-opacity="1">
    <title>reverb mono</title>
    <g id="reverb_mono: Layer 1">
      <title>Layer 1</title>
      <g id="Graphic_6">
        <path d="M 85 237.3919 L 125 199 C 125 199 158 138 158 137 C 158 136 189 98 189 98 L 209 152 C 209 152 232 183 234 206 C 236 229 268 151.3919 268 151.3919 C 268 151.3919 292 226 292 222 C 292 218 290 189 292 177 C 294 165 307 137 311 136 C 315 135 341 162.3919 342 163.3919 C 343 164.3919 356 123 357 134 C 358 145 381 217 381 219 C 381 221 370 285 396 252 C 422 219 425 207 425 207 C 425 207 413 153 415 127 C 417 101 470 64 471 64 C 472 64 502 67 503 69 C 504 71 526 144 526 157 C 526 170 541 221 542 237 C 543 253 554 253 558 253 C 562 253 580 215 581 215 C 582 215 595 200 596 200 C 597 200 630 195 630 195 L 643 199 L 839 707.4811 L 610 202 C 610 202 597 214 596 214 C 595 214 694 788.4811 694 788.4811 L 573 256 L 656 782.4811 C 656 782.4811 530 254 530 253 C 530 252 529 214 529 214 L 516 169 C 516 169 509 143 508 141 C 507 139 497 100 497 99 C 497 98 485 86 484 85 C 483 84 616 792.4811 616 792.4811 L 441 105 L 428 112.39191 L 429 148 C 429 148 563 728.4811 564 728.4811 C 565 728.4811 438 215 438 215 C 438 215 549 811.4811 547 812.4811 C 545 813.4811 415 255 415 256 C 415 257 498 739.4811 497 739.4811 C 496 739.4811 383 275 383 275 L 366 270 L 362 231 C 362 231 360 212 360 211 C 360 210 349 175 349 175 L 451 745.4811 L 325 150 C 325 150 314 178 313 178 C 312 178 370 501.4811 370 502.4811 C 370 503.4811 308 232 308 232 L 364 653.4811 L 279 275 L 265 192.3919 C 265 192.3919 245 256 243 256 C 241 256 285 708.4811 285 708.4811 L 208 209 L 202 181 L 188 155 L 188 128 L 270 799.4811 C 270 799.4811 172 158 171 159 C 170 160 211 568.4811 210 568.4811 C 209 568.4811 85 237.3919 85 237.3919 Z" fill="white"/>
      </g>
      <g id="Graphic_2">
        <path d="M 96 229.3919 L 136 191 C 136 191 169 130 169 129 C 169 128 200 90 200 90 L 220 144 C 220 144 243 175 245 198 C 247 221 279 143.3919 279 143.3919 C 279 143.3919 303 218 303 214 C 303 210 301 181 303 169 C 305 157 318 129 322 128 C 326 127 352 154.3919 353 155.3919 C 354 156.3919 367 115 368 126 C 369 137 392 209 392 211 C 392 213 381 277 407 244 C 433 211 436 199 436 199 C 436 199 424 145 426 119 C 428 93 481 56 482 56 C 483 56 513 59 514 61 C 515 63 537 136 537 149 C 537 162 552 213 553 229 C 554 245 565 245 569 245 C 573 245 591 207 592 207 C 593 207 606 192 607 192 C 608 192 641 187 641 187 L 650 207 L 635 202 L 621 194 C 621 194 608 206 607 206 C 606 206 596 226 596 226 L 584 248 L 561 257 C 561 257 541 246 541 245 C 541 244 540 206 540 206 L 527 161 C 527 161 520 135 519 133 C 518 131 508 92 508 91 C 508 90 496 78 495 77 C 494 76 476 79 476 79 L 452 97 L 439 104.39191 L 440 140 C 440 140 447 168 448 168 C 449 168 449 207 449 207 C 449 207 447 221 445 222 C 443 223 426 247 426 248 C 426 249 407 267 406 267 C 405 267 394 267 394 267 L 377 262 L 373 223 C 373 223 371 204 371 203 C 371 202 360 167 360 167 L 349 192.3919 L 336 142 C 336 142 325 170 324 170 C 323 170 319 189 319 190 C 319 191 319 224 319 224 L 310 244 L 290 267 L 276 184.3919 C 276 184.3919 256 248 254 248 C 252 248 231 221 231 221 L 219 201 L 213 173 L 199 147 L 199 120 L 185 129 C 185 129 183 150 182 151 C 181 152 165 185 164 185 C 163 185 96 229.3919 96 229.3919 Z" fill="white"/>
        <path d="M 96 229.3919 L 136 191 C 136 191 169 130 169 129 C 169 128 200 90 200 90 L 220 144 C 220 144 243 175 245 198 C 247 221 279 143.3919 279 143.3919 C 279 143.3919 303 218 303 214 C 303 210 301 181 303 169 C 305 157 318 129 322 128 C 326 127 352 154.3919 353 155.3919 C 354 156.3919 367 115 368 126 C 369 137 392 209 392 211 C 392 213 381 277 407 244 C 433 211 436 199 436 199 C 436 199 424 145 426 119 C 428 93 481 56 482 56 C 483 56 513 59 514 61 C 515 63 537 136 537 149 C 537 162 552 213 553 229 C 554 245 565 245 569 245 C 573 245 591 207 592 207 C 593 207 606 192 607 192 C 608 192 641 187 641 187 L 650 207 L 635 202 L 621 194 C 621 194 608 206 607 206 C 606 206 596 226 596 226 L 584 248 L 561 257 C 561 257 541 246 541 245 C 541 244 540 206 540 206 L 527 161 C 527 161 520 135 519 133 C 518 131 508 92 508 91 C 508 90 496 78 495 77 C 494 76 476 79 476 79 L 452 97 L 439 104.39191 L 440 140 C 440 140 447 168 448 168 C 449 168 449 207 449 207 C 449 207 447 221 445 222 C 443 223 426 247 426 248 C 426 249 407 267 406 267 C 405 267 394 267 394 267 L 377 262 L 373 223 C 373 223 371 204 371 203 C 371 202 360 167 360 167 L 349 192.3919 L 336 142 C 336 142 325 170 324 170 C 323 170 319 189 319 190 C 319 191 319 224 319 224 L 310 244 L 290 267 L 276 184.3919 C 276 184.3919 256 248 254 248 C 252 248 231 221 231 221 L 219 201 L 213 173 L 199 147 L 199 120 L 185 129 C 185 129 183 150 182 151 C 181 152 165 185 164 185 C 163 185 96 229.3919 96 229.3919 Z" stroke="white" stroke-linecap="round" stroke-linejoin="round" stroke-width="5"/>
      </g>
    </g>
  </g>
</svg>
