<?xml version="1.0" encoding="UTF-8" standalone="no"?>
<!DOCTYPE svg PUBLIC "-//W3C//DTD SVG 1.1//EN" "http://www.w3.org/Graphics/SVG/1.1/DTD/svg11.dtd">
<svg xmlns:dc="http://purl.org/dc/elements/1.1/" xmlns:xl="http://www.w3.org/1999/xlink" xmlns="http://www.w3.org/2000/svg" version="1.1" viewBox="0 0 850.394 850.394" width="850.394" height="850.394">
  <defs/>
  <metadata> Produced by OmniGraffle 7.9.4 
    <dc:date>2019-05-24 13:30:05 +0000</dc:date>
  </metadata>
  <g id="sample_mono" stroke-dasharray="none" stroke-opacity="1" stroke="none" fill="none" fill-opacity="1">
    <title>sample_mono</title>
    <g id="sample_mono: Layer 1">
      <title>Layer 1</title>
      <g id="Graphic_3">
        <rect x="210" y="225" width="422" height="230" fill="white"/>
        <rect x="210" y="225" width="422" height="230" stroke="black" stroke-linecap="round" stroke-linejoin="round" stroke-width="6"/>
      </g>
      <g id="Graphic_2">
        <path d="M 256.5 403.0384 L 273.352 346.00083 C 273.352 346.00083 294.7411 306.46342 294.7411 305.81527 C 294.7411 305.1671 314.8339 280.53725 314.8339 280.53725 L 327.79698 315.53758 C 327.79698 315.53758 342.70453 335.63037 344.00083 350.5379 C 345.29714 365.44546 366.68624 382.94563 366.68624 382.94563 C 366.68624 382.94563 381.5938 363.501 381.5938 360.9084 C 381.5938 358.31577 380.29748 339.5193 381.5938 331.74144 C 382.8901 323.9636 391.3161 305.81527 393.9087 305.1671 C 396.50134 304.51896 417.24227 298.68557 417.89043 299.33372 C 418.5386 299.98188 423.07566 296.7411 423.7238 303.8708 C 424.37197 311.0005 439.2795 357.6676 439.2795 358.9639 C 439.2795 360.26023 432.1498 401.7421 449.00184 380.353 C 465.85385 358.9639 467.7983 351.18607 467.7983 351.18607 C 467.7983 351.18607 460.02046 316.18574 461.31677 299.33372 C 462.6131 282.4817 496.96526 258.5 497.6134 258.5 C 498.26156 258.5 517.7062 260.44446 518.35435 261.74077 C 519.0025 263.03708 533.2619 310.35235 533.2619 318.77835 C 533.2619 327.20436 542.9842 360.26023 543.6324 370.6307 C 544.2805 381.00117 551.4102 381.00117 554.00284 381.00117 C 556.59545 381.00117 568.2622 356.3713 568.9104 356.3713 C 569.55854 356.3713 577.98455 346.649 578.6327 346.649 C 579.28086 346.649 600.66995 343.4082 600.66995 343.4082 L 609.09596 346.00083 L 602.6144 347.9453 L 587.70686 347.9453 C 587.70686 347.9453 579.28086 355.72315 578.6327 355.72315 C 577.98455 355.72315 571.503 368.68624 571.503 368.68624 L 563.72515 382.94563 L 548.8176 388.779 C 548.8176 388.779 535.8545 381.6493 535.8545 381.00117 C 535.8545 380.353 535.20636 355.72315 535.20636 355.72315 L 526.78036 326.5562 C 526.78036 326.5562 522.2433 309.7042 521.5951 308.4079 C 520.94697 307.11157 514.4654 281.83356 514.4654 281.1854 C 514.4654 280.53725 506.6876 272.7594 506.0394 272.11124 C 505.39126 271.4631 493.7245 273.40755 493.7245 273.40755 L 478.1688 285.07433 L 470.39093 299.33372 L 470.39093 312.94496 C 470.39093 312.94496 474.928 331.0933 475.57616 331.0933 C 476.2243 331.0933 476.2243 356.3713 476.2243 356.3713 C 476.2243 356.3713 474.928 365.44546 473.6317 366.0936 C 472.3354 366.74177 461.31677 382.29748 461.31677 382.94563 C 461.31677 383.5938 449.00184 395.26056 448.3537 395.26056 C 447.70553 395.26056 440.57583 395.26056 440.57583 395.26056 L 429.5572 392.0198 L 426.9646 366.74177 C 426.9646 366.74177 425.6683 354.42684 425.6683 353.7787 C 425.6683 353.13053 418.5386 330.44513 418.5386 330.44513 L 410.1126 307.11157 L 402.9829 314.24127 C 402.9829 314.24127 395.8532 332.3896 395.20503 332.3896 C 394.55687 332.3896 391.96425 344.70453 391.96425 345.3527 C 391.96425 346.00083 391.96425 367.38993 391.96425 367.38993 L 386.13087 380.353 L 373.1678 395.26056 L 360.85285 399.1495 C 360.85285 399.1495 351.13053 382.94563 349.83422 382.94563 C 348.5379 382.94563 334.92667 365.44546 334.92667 365.44546 L 327.14882 352.48238 L 323.2599 334.33406 L 314.18574 317.48204 L 314.18574 299.98188 L 305.11157 305.81527 C 305.11157 305.81527 303.81527 319.4265 303.1671 320.07466 C 302.51896 320.7228 292.1485 342.1119 291.50033 342.1119 C 290.85218 342.1119 256.5 403.0384 256.5 403.0384 Z" fill="black"/>
        <path d="M 256.5 403.0384 L 273.352 346.00083 C 273.352 346.00083 294.7411 306.46342 294.7411 305.81527 C 294.7411 305.1671 314.8339 280.53725 314.8339 280.53725 L 327.79698 315.53758 C 327.79698 315.53758 342.70453 335.63037 344.00083 350.5379 C 345.29714 365.44546 366.68624 382.94563 366.68624 382.94563 C 366.68624 382.94563 381.5938 363.501 381.5938 360.9084 C 381.5938 358.31577 380.29748 339.5193 381.5938 331.74144 C 382.8901 323.9636 391.3161 305.81527 393.9087 305.1671 C 396.50134 304.51896 417.24227 298.68557 417.89043 299.33372 C 418.5386 299.98188 423.07566 296.7411 423.7238 303.8708 C 424.37197 311.0005 439.2795 357.6676 439.2795 358.9639 C 439.2795 360.26023 432.1498 401.7421 449.00184 380.353 C 465.85385 358.9639 467.7983 351.18607 467.7983 351.18607 C 467.7983 351.18607 460.02046 316.18574 461.31677 299.33372 C 462.6131 282.4817 496.96526 258.5 497.6134 258.5 C 498.26156 258.5 517.7062 260.44446 518.35435 261.74077 C 519.0025 263.03708 533.2619 310.35235 533.2619 318.77835 C 533.2619 327.20436 542.9842 360.26023 543.6324 370.6307 C 544.2805 381.00117 551.4102 381.00117 554.00284 381.00117 C 556.59545 381.00117 568.2622 356.3713 568.9104 356.3713 C 569.55854 356.3713 577.98455 346.649 578.6327 346.649 C 579.28086 346.649 600.66995 343.4082 600.66995 343.4082 L 609.09596 346.00083 L 602.6144 347.9453 L 587.70686 347.9453 C 587.70686 347.9453 579.28086 355.72315 578.6327 355.72315 C 577.98455 355.72315 571.503 368.68624 571.503 368.68624 L 563.72515 382.94563 L 548.8176 388.779 C 548.8176 388.779 535.8545 381.6493 535.8545 381.00117 C 535.8545 380.353 535.20636 355.72315 535.20636 355.72315 L 526.78036 326.5562 C 526.78036 326.5562 522.2433 309.7042 521.5951 308.4079 C 520.94697 307.11157 514.4654 281.83356 514.4654 281.1854 C 514.4654 280.53725 506.6876 272.7594 506.0394 272.11124 C 505.39126 271.4631 493.7245 273.40755 493.7245 273.40755 L 478.1688 285.07433 L 470.39093 299.33372 L 470.39093 312.94496 C 470.39093 312.94496 474.928 331.0933 475.57616 331.0933 C 476.2243 331.0933 476.2243 356.3713 476.2243 356.3713 C 476.2243 356.3713 474.928 365.44546 473.6317 366.0936 C 472.3354 366.74177 461.31677 382.29748 461.31677 382.94563 C 461.31677 383.5938 449.00184 395.26056 448.3537 395.26056 C 447.70553 395.26056 440.57583 395.26056 440.57583 395.26056 L 429.5572 392.0198 L 426.9646 366.74177 C 426.9646 366.74177 425.6683 354.42684 425.6683 353.7787 C 425.6683 353.13053 418.5386 330.44513 418.5386 330.44513 L 410.1126 307.11157 L 402.9829 314.24127 C 402.9829 314.24127 395.8532 332.3896 395.20503 332.3896 C 394.55687 332.3896 391.96425 344.70453 391.96425 345.3527 C 391.96425 346.00083 391.96425 367.38993 391.96425 367.38993 L 386.13087 380.353 L 373.1678 395.26056 L 360.85285 399.1495 C 360.85285 399.1495 351.13053 382.94563 349.83422 382.94563 C 348.5379 382.94563 334.92667 365.44546 334.92667 365.44546 L 327.14882 352.48238 L 323.2599 334.33406 L 314.18574 317.48204 L 314.18574 299.98188 L 305.11157 305.81527 C 305.11157 305.81527 303.81527 319.4265 303.1671 320.07466 C 302.51896 320.7228 292.1485 342.1119 291.50033 342.1119 C 290.85218 342.1119 256.5 403.0384 256.5 403.0384 Z" stroke="black" stroke-linecap="round" stroke-linejoin="round" stroke-width="5"/>
      </g>
      <g id="Graphic_8">
        <circle cx="153.63466" cy="478.13466" r="103.634825933521" fill="white"/>
        <circle cx="153.63466" cy="478.13466" r="103.634825933521" stroke="black" stroke-linecap="round" stroke-linejoin="round" stroke-width="18"/>
      </g>
      <g id="Graphic_7">
        <path d="M 260.2279 486.113 L 423.83845 702.3661 C 436.8818 715.40945 439.94227 714.97635 411.87424 743.0444 C 383.8062 771.1124 385.43573 759.677 372.39235 746.6336 L 158.53214 587.8088 C 145.48877 574.7654 157.68269 541.3996 185.75072 513.3316 C 213.81875 485.26356 247.18453 473.06964 260.2279 486.113 Z" fill="white"/>
        <path d="M 260.2279 486.113 L 423.83845 702.3661 C 436.8818 715.40945 439.94227 714.97635 411.87424 743.0444 C 383.8062 771.1124 385.43573 759.677 372.39235 746.6336 L 158.53214 587.8088 C 145.48877 574.7654 157.68269 541.3996 185.75072 513.3316 C 213.81875 485.26356 247.18453 473.06964 260.2279 486.113 Z" stroke="black" stroke-linecap="round" stroke-linejoin="round" stroke-width="7"/>
      </g>
      <g id="Line_6">
        <path d="M 418.9778 738.1496 L 449.80525 789.2908 L 518.7864 810.6988 L 561.6023 844" stroke="white" stroke-linecap="round" stroke-linejoin="round" stroke-width="17"/>
      </g>
    </g>
  </g>
</svg>
