<?xml version="1.0" encoding="UTF-8" standalone="no"?>
<!DOCTYPE svg PUBLIC "-//W3C//DTD SVG 1.1//EN" "http://www.w3.org/Graphics/SVG/1.1/DTD/svg11.dtd">
<svg xmlns:xl="http://www.w3.org/1999/xlink" xmlns:dc="http://purl.org/dc/elements/1.1/" version="1.1" xmlns="http://www.w3.org/2000/svg" viewBox="0 0 850.394 850.394" width="850.394" height="850.394">
  <defs/>
  <metadata> Produced by OmniGraffle 7.9.4 
    <dc:date>2019-05-18 02:10:55 +0000</dc:date>
  </metadata>
  <g id="sensors_mono_1" stroke-dasharray="none" fill-opacity="1" stroke="none" fill="none" stroke-opacity="1">
    <title>sensors mono 1</title>
    <g id="sensors_mono_1: Layer 1">
      <title>Layer 1</title>
      <g id="Line_56">
        <path d="M 709.1354 531.764 L 520.19195 529.891 C 520.01807 529.8893 519.8442 529.8853 519.67045 529.87904 L 420.7769 526.3178 C 419.3208 526.26536 417.8748 526.05396 416.46464 525.6874 L 341.77625 506.2712" stroke="white" stroke-linecap="round" stroke-linejoin="round" stroke-width="16"/>
      </g>
      <g id="Line_55">
        <path d="M 698.1999 644.7269 L 560.4587 656.70325 C 560.17197 656.7282 559.8847 656.7469 559.5972 656.75945 L 414.6874 663.0756 C 413.70045 663.1186 412.7117 663.08845 411.72923 662.98536 L 287.4213 649.9411" stroke="white" stroke-linecap="round" stroke-linejoin="round" stroke-width="16"/>
      </g>
      <g id="Graphic_54">
        <path d="M 758.7695 503.3941 L 730.7287 506.5536 L 705.45614 517.8492 L 689.7039 563.50485 L 681.55065 607.06574 L 692.1779 635.9225 L 706.5276 656.59695 L 740.5443 669.5366 L 763.9037 668.08396 L 774.0284 650.2045 Z" fill="white"/>
        <path d="M 758.7695 503.3941 L 730.7287 506.5536 L 705.45614 517.8492 L 689.7039 563.50485 L 681.55065 607.06574 L 692.1779 635.9225 L 706.5276 656.59695 L 740.5443 669.5366 L 763.9037 668.08396 L 774.0284 650.2045 Z" stroke="white" stroke-linecap="round" stroke-linejoin="round" stroke-width="5"/>
      </g>
      <g id="Graphic_53">
        <path d="M 741.0292 662.01675 L 722.5234 653.9982 L 697.49524 607.5132 L 701.3201 593.23856 L 714.4272 538.6124 L 725.5944 514.0655 L 757.68855 502.77575 L 781.9554 509.27805 L 810.2998 529.1125 L 820.54455 559.3967 L 823.577 570.9189 L 811.9999 619.8352 L 801.7752 652.2844 L 781.8657 663.77914 L 763.8687 668.13656 Z" fill="white"/>
        <path d="M 741.0292 662.01675 L 722.5234 653.9982 L 697.49524 607.5132 L 701.3201 593.23856 L 714.4272 538.6124 L 725.5944 514.0655 L 757.68855 502.77575 L 781.9554 509.27805 L 810.2998 529.1125 L 820.54455 559.3967 L 823.577 570.9189 L 811.9999 619.8352 L 801.7752 652.2844 L 781.8657 663.77914 L 763.8687 668.13656 Z" stroke="white" stroke-linecap="round" stroke-linejoin="round" stroke-width="5"/>
      </g>
      <g id="Line_52">
        <line x1="706.5524" y1="516.613" x2="726.34875" y2="514.55065" stroke="white" stroke-linecap="round" stroke-linejoin="round" stroke-width="3"/>
      </g>
      <g id="Line_51">
        <line x1="682.0731" y1="607.9707" x2="695.94355" y2="607.5943" stroke="white" stroke-linecap="round" stroke-linejoin="round" stroke-width="3"/>
      </g>
      <g id="Line_50">
        <line x1="708.4068" y1="656.88316" x2="722.32886" y2="654.972" stroke="white" stroke-linecap="round" stroke-linejoin="round" stroke-width="3"/>
      </g>
      <g id="Line_49">
        <path d="M 724.3026 523.63644 L 731.0827 526.7424 L 706.50445 601.0519 L 715.12505 603.728 L 738.1699 530.6934 L 745.7797 533.84136 L 723.1192 607.3624 L 729.4415 610.8804 L 752.78205 539.32074 L 759.04645 543.05474 L 736.2266 615.7523 L 743.5773 617.9465 L 767.4655 546.59915 L 774.3694 549.558 L 751.01325 620.5055 L 758.3332 625.5345 L 781.2375 553.205 L 789.5724 556.21216 L 766.9628 628.9764 L 772.4258 633.62534 L 794.836 561.464 L 802.424 566.09846 L 780.0435 638.4716 L 787.9407 641.7587 L 809.7264 569.4784 L 816.7651 573.08135 L 797.1424 645.5923 L 798.1116 645.7132 L 800.7469 646.5363" stroke="black" stroke-linecap="square" stroke-linejoin="miter" stroke-width="3"/>
      </g>
      <g id="Graphic_48">
        <path d="M 90.83656 606.0182 L 101.71738 608.9337 L 170.63453 326.05416 L 112.29137 284.5915 L 107.51773 318.23362 L 61.27194 599.24436 Z" fill="white"/>
        <path d="M 90.83656 606.0182 L 101.71738 608.9337 L 170.63453 326.05416 L 112.29137 284.5915 L 107.51773 318.23362 L 61.27194 599.24436 Z" stroke="white" stroke-linecap="round" stroke-linejoin="round" stroke-width="5"/>
      </g>
      <g id="Graphic_47">
        <path d="M 173.45574 326.2361 L 94.22471 601.1365 L 83.51312 598.2664 L 147.8358 308.31616 L 122.38977 291.8893 Z" fill="white"/>
        <path d="M 173.45574 326.2361 L 94.22471 601.1365 L 83.51312 598.2664 L 147.8358 308.31616 L 122.38977 291.8893 Z" stroke="white" stroke-linecap="round" stroke-linejoin="round" stroke-width="5"/>
      </g>
      <g id="Graphic_46">
        <circle cx="176.70596" cy="188.77492" r="138.193050016701" fill="white"/>
        <circle cx="176.70596" cy="188.77492" r="138.193050016701" stroke="white" stroke-linecap="round" stroke-linejoin="round" stroke-width="7"/>
      </g>
      <g id="Graphic_45">
        <path d="M 129.85645 319.71964 L 78.65891 594.8585 L 67.94733 591.98836 L 111.90687 307.44817 Z" fill="white"/>
        <path d="M 129.85645 319.71964 L 78.65891 594.8585 L 67.94733 591.98836 L 111.90687 307.44817 Z" stroke="white" stroke-linecap="round" stroke-linejoin="round" stroke-width="5"/>
      </g>
      <g id="Graphic_44">
        <path d="M 93.57179 603.0899 L 86.69768 640.74144 L 83.12029 645.5232 L 79.10206 660.5194 L 76.95974 659.9454 L 80.19794 640.1479 L 75.06875 628.441 L 80.04855 597.8591 Z" fill="white"/>
        <path d="M 93.57179 603.0899 L 86.69768 640.74144 L 83.12029 645.5232 L 79.10206 660.5194 L 76.95974 659.9454 L 80.19794 640.1479 L 75.06875 628.441 L 80.04855 597.8591 Z" stroke="white" stroke-linecap="round" stroke-linejoin="round" stroke-width="5"/>
      </g>
      <g id="Graphic_43">
        <path d="M 80.47935 598.0128 L 73.33539 632.33915 L 69.91482 637.39255 L 66.009625 655.4423 L 63.86731 654.8683 L 65.03598 633.3682 L 61.976314 623.36384 L 66.95611 592.782 Z" fill="white"/>
        <path d="M 80.47935 598.0128 L 73.33539 632.33915 L 69.91482 637.39255 L 66.009625 655.4423 L 63.86731 654.8683 L 65.03598 633.3682 L 61.976314 623.36384 L 66.95611 592.782 Z" stroke="white" stroke-linecap="round" stroke-linejoin="round" stroke-width="5"/>
      </g>
      <g id="Graphic_42">
        <circle cx="176.70596" cy="188.77492" r="115.604634517271" fill="white"/>
        <circle cx="176.70596" cy="188.77492" r="115.604634517271" stroke="white" stroke-linecap="round" stroke-linejoin="round" stroke-width="7"/>
      </g>
      <g id="Line_41">
        <line x1="99.68968" y1="250.21933" x2="211.55493" y2="280.19353" stroke="black" stroke-linecap="round" stroke-linejoin="round" stroke-width="21"/>
      </g>
      <g id="Line_40">
        <line x1="84.58928" y1="213.08745" x2="241.24504" y2="255.06323" stroke="black" stroke-linecap="round" stroke-linejoin="round" stroke-width="21"/>
      </g>
      <g id="Line_39">
        <line x1="83.10962" y1="177.40165" x2="262.05015" y2="223.6604" stroke="black" stroke-linecap="round" stroke-linejoin="round" stroke-width="21"/>
      </g>
      <g id="Line_38">
        <line x1="255.03767" y1="119.78673" x2="143.17243" y2="89.81252" stroke="black" stroke-linecap="round" stroke-linejoin="round" stroke-width="21"/>
      </g>
      <g id="Line_37">
        <line x1="270.13807" y1="156.91861" x2="113.48231" y2="114.94282" stroke="black" stroke-linecap="round" stroke-linejoin="round" stroke-width="21"/>
      </g>
      <g id="Line_36">
        <line x1="271.61773" y1="192.6044" x2="92.6772" y2="146.34564" stroke="black" stroke-linecap="round" stroke-linejoin="round" stroke-width="21"/>
      </g>
      <g id="Graphic_35">
        <circle cx="140.6162" cy="312.78047" r="12.0037276960847" fill="white"/>
        <circle cx="140.6162" cy="312.78047" r="12.0037276960847" stroke="white" stroke-linecap="round" stroke-linejoin="round" stroke-width="7"/>
      </g>
      <g id="Graphic_34">
        <path d="M 225.0077 542.35915 L 221.99794 536.7366 C 213.50753 520.87573 216.06169 501.3688 228.34938 488.2285 L 638.5485 49.56742 C 649.5989 37.75025 668.1368 37.128683 679.95395 48.17911 C 681.7057 49.8172 683.24966 51.66421 684.5512 53.678675 L 689.92096 61.99002 C 698.75185 75.65843 697.22625 93.56826 686.2108 105.54611 L 667.7178 125.65472 C 667.5744 125.81063 667.4298 125.96546 667.2841 126.11918 L 267.30835 548.04455 C 257.30903 558.5926 240.6521 559.03744 230.10403 549.0381 C 228.05856 547.09907 226.33787 544.844 225.0077 542.35915 Z" fill="white"/>
        <path d="M 225.0077 542.35915 L 221.99794 536.7366 C 213.50753 520.87573 216.06169 501.3688 228.34938 488.2285 L 638.5485 49.56742 C 649.5989 37.75025 668.1368 37.128683 679.95395 48.17911 C 681.7057 49.8172 683.24966 51.66421 684.5512 53.678675 L 689.92096 61.99002 C 698.75185 75.65843 697.22625 93.56826 686.2108 105.54611 L 667.7178 125.65472 C 667.5744 125.81063 667.4298 125.96546 667.2841 126.11918 L 267.30835 548.04455 C 257.30903 558.5926 240.6521 559.03744 230.10403 549.0381 C 228.05856 547.09907 226.33787 544.844 225.0077 542.35915 Z" stroke="white" stroke-linecap="round" stroke-linejoin="round" stroke-width="5"/>
      </g>
      <g id="Graphic_33">
        <path d="M 156.50937 639.14495 L 163.33993 645.9755 L 266.962 538.7436 L 223.67657 496.2206 L 219.36866 505.4962 L 133.77964 601.0206 Z" fill="white"/>
        <path d="M 156.50937 639.14495 L 163.33993 645.9755 L 266.962 538.7436 L 223.67657 496.2206 L 219.36866 505.4962 L 133.77964 601.0206 Z" stroke="white" stroke-linecap="round" stroke-linejoin="round" stroke-width="5"/>
      </g>
      <g id="Graphic_32">
        <path d="M 679.8717 85.99173 L 156.66235 637.5371 L 147.60668 628.4814 L 658.1396 96.85777 L 650.8956 57.01561 Z" fill="black"/>
        <path d="M 679.8717 85.99173 L 156.66235 637.5371 L 147.60668 628.4814 L 658.1396 96.85777 L 650.8956 57.01561 Z" stroke="white" stroke-linecap="round" stroke-linejoin="round" stroke-width="5"/>
      </g>
      <g id="Graphic_31">
        <path d="M 663.57264 72.40917 L 144.71962 622.2702 L 135.66395 613.2145 L 648.1791 49.77158 Z" fill="black"/>
        <path d="M 663.57264 72.40917 L 144.71962 622.2702 L 135.66395 613.2145 L 648.1791 49.77158 Z" stroke="white" stroke-linecap="round" stroke-linejoin="round" stroke-width="5"/>
      </g>
      <g id="Graphic_30">
        <path d="M 154.8814 639.11374 L 126.26549 672.80085 L 119.92652 675.51755 L 107.24858 688.1955 L 105.43745 686.38435 L 120.10763 668.4541 L 121.73766 653.7839 L 144.37683 626.0736 Z" fill="white"/>
        <path d="M 154.8814 639.11374 L 126.26549 672.80085 L 119.92652 675.51755 L 107.24858 688.1955 L 105.43745 686.38435 L 120.10763 668.4541 L 121.73766 653.7839 L 144.37683 626.0736 Z" stroke="white" stroke-linecap="round" stroke-linejoin="round" stroke-width="5"/>
      </g>
      <g id="Graphic_29">
        <path d="M 144.71894 626.47606 L 117.75316 656.68174 L 111.41419 659.7607 L 97.08611 675.5578 L 95.27498 673.7467 L 108.85848 652.9186 L 111.57518 641.14625 L 134.21436 613.4359 Z" fill="white"/>
        <path d="M 144.71894 626.47606 L 117.75316 656.68174 L 111.41419 659.7607 L 97.08611 675.5578 L 95.27498 673.7467 L 108.85848 652.9186 L 111.57518 641.14625 L 134.21436 613.4359 Z" stroke="white" stroke-linecap="round" stroke-linejoin="round" stroke-width="5"/>
      </g>
      <g id="Graphic_28">
        <path d="M 267.51167 471.18665 L 280.18872 483.8637 L 266.1024 497.95004 L 253.42534 485.273 Z" fill="black"/>
        <path d="M 267.51167 471.18665 L 280.18872 483.8637 L 266.1024 497.95004 L 253.42534 485.273 Z" stroke="white" stroke-linecap="round" stroke-linejoin="round" stroke-width="7"/>
      </g>
      <g id="Graphic_27">
        <path d="M 291.91437 444.42327 L 304.59143 457.1003 L 290.5051 471.18665 L 277.82804 458.5096 Z" fill="black"/>
        <path d="M 291.91437 444.42327 L 304.59143 457.1003 L 290.5051 471.18665 L 277.82804 458.5096 Z" stroke="white" stroke-linecap="round" stroke-linejoin="round" stroke-width="7"/>
      </g>
      <g id="Graphic_26">
        <path d="M 317.26848 417.6599 L 329.94553 430.33694 L 315.8592 444.42327 L 303.18215 431.7462 Z" fill="black"/>
        <path d="M 317.26848 417.6599 L 329.94553 430.33694 L 315.8592 444.42327 L 303.18215 431.7462 Z" stroke="white" stroke-linecap="round" stroke-linejoin="round" stroke-width="7"/>
      </g>
      <g id="Graphic_25">
        <path d="M 345.385 388.7858 L 358.06205 401.46286 L 343.9757 415.5492 L 331.29866 402.87214 Z" fill="black"/>
        <path d="M 345.385 388.7858 L 358.06205 401.46286 L 343.9757 415.5492 L 331.29866 402.87214 Z" stroke="white" stroke-linecap="round" stroke-linejoin="round" stroke-width="7"/>
      </g>
      <g id="Graphic_24">
        <path d="M 369.7877 362.02243 L 382.46475 374.6995 L 368.3784 388.7858 L 355.70137 376.10876 Z" fill="black"/>
        <path d="M 369.7877 362.02243 L 382.46475 374.6995 L 368.3784 388.7858 L 355.70137 376.10876 Z" stroke="white" stroke-linecap="round" stroke-linejoin="round" stroke-width="7"/>
      </g>
      <g id="Graphic_23">
        <path d="M 395.1418 335.25904 L 407.81886 347.9361 L 393.7325 362.02243 L 381.05547 349.34537 Z" fill="black"/>
        <path d="M 395.1418 335.25904 L 407.81886 347.9361 L 393.7325 362.02243 L 381.05547 349.34537 Z" stroke="white" stroke-linecap="round" stroke-linejoin="round" stroke-width="7"/>
      </g>
      <g id="Graphic_22">
        <path d="M 396.5791 336.69635 L 407.4401 347.5573 L 393.35374 361.64365 L 382.4928 350.7827 Z" fill="black"/>
        <path d="M 396.5791 336.69635 L 407.4401 347.5573 L 393.35374 361.64365 L 382.4928 350.7827 Z" stroke="white" stroke-linecap="round" stroke-linejoin="round" stroke-width="7"/>
      </g>
      <g id="Graphic_21">
        <path d="M 420.5418 305.47947 L 433.21886 318.15652 L 419.1325 332.24285 L 406.45547 319.5658 Z" fill="black"/>
        <path d="M 420.5418 305.47947 L 433.21886 318.15652 L 419.1325 332.24285 L 406.45547 319.5658 Z" stroke="white" stroke-linecap="round" stroke-linejoin="round" stroke-width="7"/>
      </g>
      <g id="Graphic_20">
        <path d="M 444.9445 278.71608 L 457.62156 291.39313 L 443.53523 305.47947 L 430.8582 292.8024 Z" fill="black"/>
        <path d="M 444.9445 278.71608 L 457.62156 291.39313 L 443.53523 305.47947 L 430.8582 292.8024 Z" stroke="white" stroke-linecap="round" stroke-linejoin="round" stroke-width="7"/>
      </g>
      <g id="Graphic_19">
        <path d="M 470.2986 251.9527 L 482.97567 264.62975 L 468.88933 278.71608 L 456.2123 266.03903 Z" fill="black"/>
        <path d="M 470.2986 251.9527 L 482.97567 264.62975 L 468.88933 278.71608 L 456.2123 266.03903 Z" stroke="white" stroke-linecap="round" stroke-linejoin="round" stroke-width="7"/>
      </g>
      <g id="Graphic_18">
        <path d="M 496.9778 223.07863 L 509.6549 235.75568 L 495.56854 249.842 L 482.8915 237.16496 Z" fill="black"/>
        <path d="M 496.9778 223.07863 L 509.6549 235.75568 L 495.56854 249.842 L 482.8915 237.16496 Z" stroke="white" stroke-linecap="round" stroke-linejoin="round" stroke-width="7"/>
      </g>
      <g id="Graphic_17">
        <path d="M 521.3805 194.87793 L 534.0576 207.55499 L 519.97124 221.64132 L 507.2942 208.96427 Z" fill="black"/>
        <path d="M 521.3805 194.87793 L 534.0576 207.55499 L 519.97124 221.64132 L 507.2942 208.96427 Z" stroke="white" stroke-linecap="round" stroke-linejoin="round" stroke-width="7"/>
      </g>
      <g id="Graphic_16">
        <path d="M 548.1439 168.11455 L 560.82096 180.7916 L 546.7346 194.87793 L 534.0576 182.20088 Z" fill="black"/>
        <path d="M 548.1439 168.11455 L 560.82096 180.7916 L 546.7346 194.87793 L 534.0576 182.20088 Z" stroke="white" stroke-linecap="round" stroke-linejoin="round" stroke-width="7"/>
      </g>
      <g id="Graphic_15">
        <path d="M 573.04013 140.67778 L 585.7172 153.35484 L 571.63085 167.44117 L 558.9538 154.76412 Z" fill="black"/>
        <path d="M 573.04013 140.67778 L 585.7172 153.35484 L 571.63085 167.44117 L 558.9538 154.76412 Z" stroke="white" stroke-linecap="round" stroke-linejoin="round" stroke-width="7"/>
      </g>
      <g id="Graphic_14">
        <path d="M 597.44284 112.47709 L 610.1199 125.15414 L 596.03356 139.24048 L 583.3565 126.56342 Z" fill="black"/>
        <path d="M 597.44284 112.47709 L 610.1199 125.15414 L 596.03356 139.24048 L 583.3565 126.56342 Z" stroke="white" stroke-linecap="round" stroke-linejoin="round" stroke-width="7"/>
      </g>
      <g id="Graphic_13">
        <path d="M 619.79686 87.24846 L 632.4739 99.92551 L 618.3876 114.01184 L 605.7105 101.33479 Z" fill="black"/>
        <path d="M 619.79686 87.24846 L 632.4739 99.92551 L 618.3876 114.01184 L 605.7105 101.33479 Z" stroke="white" stroke-linecap="round" stroke-linejoin="round" stroke-width="7"/>
      </g>
      <g id="Graphic_12">
        <path d="M 639.9041 65.79439 L 652.5811 78.47144 L 638.4948 92.55777 L 625.81774 79.88072 Z" fill="black"/>
        <path d="M 639.9041 65.79439 L 652.5811 78.47144 L 638.4948 92.55777 L 625.81774 79.88072 Z" stroke="white" stroke-linecap="round" stroke-linejoin="round" stroke-width="7"/>
      </g>
      <g id="Graphic_11">
        <path d="M 658.422 41.14773 L 677.3466 60.0723 L 663.26025 74.15864 L 644.3357 55.234065 Z" fill="black"/>
        <path d="M 658.422 41.14773 L 677.3466 60.0723 L 663.26025 74.15864 L 644.3357 55.234065 Z" stroke="white" stroke-linecap="round" stroke-linejoin="round" stroke-width="7"/>
      </g>
      <g id="Graphic_10">
        <path d="M 393.1027 627.3998 L 333.9601 484.8172 L 752.185 195.5513 L 820.9825 339.80263 L 785.46595 366.10253 Z" fill="white"/>
        <path d="M 393.1027 627.3998 L 333.9601 484.8172 L 752.185 195.5513 L 820.9825 339.80263 L 785.46595 366.10253 Z" stroke="white" stroke-linecap="round" stroke-linejoin="round" stroke-width="5"/>
      </g>
      <g id="Graphic_9">
        <path d="M 260.26954 657.01175 L 267.1694 668.9627 L 378.8828 596.4976 L 348.03447 517.9763 L 342.39516 527.02656 L 238.7686 598.44416 Z" fill="white"/>
        <path d="M 260.26954 657.01175 L 267.1694 668.9627 L 378.8828 596.4976 L 348.03447 517.9763 L 342.39516 527.02656 L 238.7686 598.44416 Z" stroke="white" stroke-linecap="round" stroke-linejoin="round" stroke-width="5"/>
      </g>
      <g id="Graphic_8">
        <path d="M 413.7661 550.283 L 405.44365 533.35907 L 279.62896 619.0356 L 271.56464 625.1401 L 256.98165 635.0082 L 252.59083 627.4031 L 273.52443 610.97126 L 277.41103 610.1759 L 401.34394 521.2401 L 398.8349 516.8943 L 358.25343 544.9595 L 353.78637 534.2115 L 398.1626 505.6937 L 394.39905 499.175 L 727.9261 268.9496 L 753.5207 320.8079 L 758.5838 339.61366 L 413.56507 575.0252 L 382.25916 568.4736 L 370.9355 576.4599 L 368.45107 570.6513 L 380.04123 559.6139 L 413.06085 566.62476 L 743.9558 339.36758 L 739.3969 328.9623 Z" fill="black"/>
        <path d="M 413.7661 550.283 L 405.44365 533.35907 L 279.62896 619.0356 L 271.56464 625.1401 L 256.98165 635.0082 L 252.59083 627.4031 L 273.52443 610.97126 L 277.41103 610.1759 L 401.34394 521.2401 L 398.8349 516.8943 L 358.25343 544.9595 L 353.78637 534.2115 L 398.1626 505.6937 L 394.39905 499.175 L 727.9261 268.9496 L 753.5207 320.8079 L 758.5838 339.61366 L 413.56507 575.0252 L 382.25916 568.4736 L 370.9355 576.4599 L 368.45107 570.6513 L 380.04123 559.6139 L 413.06085 566.62476 L 743.9558 339.36758 L 739.3969 328.9623 Z" stroke="white" stroke-linecap="round" stroke-linejoin="round" stroke-width="5"/>
      </g>
      <g id="Graphic_7">
        <path d="M 283.60563 638.4686 L 261.4175 652.7275 L 255.1449 641.863 L 279.04673 628.0633 Z" fill="white"/>
        <path d="M 283.60563 638.4686 L 261.4175 652.7275 L 255.1449 641.863 L 279.04673 628.0633 Z" stroke="white" stroke-linecap="round" stroke-linejoin="round" stroke-width="5"/>
      </g>
      <g id="Graphic_6">
        <path d="M 270.32527 605.012 L 248.13715 619.2709 L 241.86455 608.4064 L 265.76637 594.6067 Z" fill="white"/>
        <path d="M 270.32527 605.012 L 248.13715 619.2709 L 241.86455 608.4064 L 265.76637 594.6067 Z" stroke="white" stroke-linecap="round" stroke-linejoin="round" stroke-width="5"/>
      </g>
      <g id="Graphic_5">
        <path d="M 273.7705 596.3432 L 285.1392 598.4711 L 279.1577 583.0928 Z" fill="white"/>
        <path d="M 273.7705 596.3432 L 285.1392 598.4711 L 279.1577 583.0928 Z" stroke="white" stroke-linecap="round" stroke-linejoin="round" stroke-width="5"/>
      </g>
      <g id="Graphic_4">
        <path d="M 261.50275 657.8932 L 223.8961 683.08206 L 217.20935 684.0455 L 201.9991 692.8271 L 200.74457 690.6542 L 218.87802 674.3905 L 224.4333 663.9402 L 254.05846 642.4903 Z" fill="white"/>
        <path d="M 261.50275 657.8932 L 223.8961 683.08206 L 217.20935 684.0455 L 201.9991 692.8271 L 200.74457 690.6542 L 218.87802 674.3905 L 224.4333 663.9402 L 254.05846 642.4903 Z" stroke="white" stroke-linecap="round" stroke-linejoin="round" stroke-width="5"/>
      </g>
      <g id="Graphic_3">
        <path d="M 254.9096 637.9428 L 219.29217 662.5626 L 212.60541 663.526 L 197.39516 672.3077 L 196.14064 670.1348 L 214.5676 656.8885 L 219.82936 643.4207 L 248.27624 622.9408 Z" fill="white"/>
        <path d="M 254.9096 637.9428 L 219.29217 662.5626 L 212.60541 663.526 L 197.39516 672.3077 L 196.14064 670.1348 L 214.5676 656.8885 L 219.82936 643.4207 L 248.27624 622.9408 Z" stroke="white" stroke-linecap="round" stroke-linejoin="round" stroke-width="5"/>
      </g>
      <g id="Graphic_2">
        <path d="M 248.4979 623.4084 L 215.3245 645.1524 L 208.5459 646.4586 L 190.98346 657.77326 L 189.72894 655.6004 L 207.8624 639.3366 L 213.41766 628.8863 L 241.86455 608.4064 Z" fill="white"/>
        <path d="M 248.4979 623.4084 L 215.3245 645.1524 L 208.5459 646.4586 L 190.98346 657.77326 L 189.72894 655.6004 L 207.8624 639.3366 L 213.41766 628.8863 L 241.86455 608.4064 Z" stroke="white" stroke-linecap="round" stroke-linejoin="round" stroke-width="5"/>
      </g>
    </g>
  </g>
</svg>
