<?xml version="1.0" encoding="UTF-8" standalone="no"?>
<!DOCTYPE svg PUBLIC "-//W3C//DTD SVG 1.1//EN" "http://www.w3.org/Graphics/SVG/1.1/DTD/svg11.dtd">
<svg xmlns:xl="http://www.w3.org/1999/xlink" xmlns:dc="http://purl.org/dc/elements/1.1/" version="1.1" xmlns="http://www.w3.org/2000/svg" viewBox="0 0 850.394 850.394" width="850.394" height="850.394">
  <defs/>
  <metadata> Produced by OmniGraffle 7.9.4 
    <dc:date>2019-05-18 01:59:10 +0000</dc:date>
  </metadata>
  <g id="switch_mono" stroke-dasharray="none" fill-opacity="1" stroke="none" fill="none" stroke-opacity="1">
    <title>switch mono</title>
    <g id="switch_mono: Layer 1">
      <title>Layer 1</title>
      <g id="Graphic_3">
        <path d="M 667.8405 306.5319 C 801.8495 371.6079 801.8495 477.11684 667.8405 542.19284 C 533.83214 607.2692 316.56186 607.2692 182.55352 542.19284 C 48.544487 477.11684 48.544487 371.6079 182.55352 306.5319 C 316.56186 241.45557 533.83214 241.45557 667.8405 306.5319" fill="white"/>
        <path d="M 667.8405 306.5319 C 801.8495 371.6079 801.8495 477.11684 667.8405 542.19284 C 533.83214 607.2692 316.56186 607.2692 182.55352 542.19284 C 48.544487 477.11684 48.544487 371.6079 182.55352 306.5319 C 316.56186 241.45557 533.83214 241.45557 667.8405 306.5319" stroke="black" stroke-linecap="round" stroke-linejoin="round" stroke-width="7"/>
      </g>
      <g id="Graphic_4">
        <path d="M 620.7185 297.05336 C 728.70266 349.49143 700 352 700 352 C 700 352 730.9841 439.56193 623 492 C 515.0164 544.43834 337.65908 539.3867 229.6755 486.94836 C 121.69134 434.5103 152 356 152 356 C 152 356 121.69134 349.49143 229.6755 297.05336 C 337.65908 244.61502 512.7349 244.61502 620.7185 297.05336 Z" fill="white"/>
        <path d="M 620.7185 297.05336 C 728.70266 349.49143 700 352 700 352 C 700 352 730.9841 439.56193 623 492 C 515.0164 544.43834 337.65908 539.3867 229.6755 486.94836 C 121.69134 434.5103 152 356 152 356 C 152 356 121.69134 349.49143 229.6755 297.05336 C 337.65908 244.61502 512.7349 244.61502 620.7185 297.05336 Z" stroke="black" stroke-linecap="round" stroke-linejoin="round" stroke-width="7"/>
      </g>
      <g id="Graphic_2">
        <path d="M 620.7184 249.32867 C 728.7025 301.7667 728.7025 386.7855 620.7184 439.22357 C 512.7349 491.6619 337.6591 491.6619 229.67558 439.22357 C 121.6915 386.7855 121.6915 301.7667 229.67558 249.32867 C 337.6591 196.89035 512.7349 196.89035 620.7184 249.32867" fill="white"/>
        <path d="M 620.7184 249.32867 C 728.7025 301.7667 728.7025 386.7855 620.7184 439.22357 C 512.7349 491.6619 337.6591 491.6619 229.67558 439.22357 C 121.6915 386.7855 121.6915 301.7667 229.67558 249.32867 C 337.6591 196.89035 512.7349 196.89035 620.7184 249.32867" stroke="black" stroke-linecap="round" stroke-linejoin="round" stroke-width="7"/>
      </g>
      <g id="Line_5">
        <path d="M 168.53206 538.9529 L 96.72863 571.0102 C 86.6425 575.5133 82.11653 587.3401 86.61957 597.42626 C 87.5605 599.5338 88.85913 601.46256 90.45795 603.1271 L 168.99982 684.8993 C 176.65137 692.8655 176.39626 705.52625 168.43002 713.1778 C 165.76475 715.7378 162.4423 717.50924 158.83138 718.2956 L 82.44468 734.9306 C 71.651945 737.281 64.80806 747.9356 67.15843 758.7283 C 68.13583 763.2165 70.62834 767.2314 74.2171 770.0984 L 97.34092 788.5718 C 105.97083 795.4661 107.3778 808.051 100.48346 816.6809 C 98.68424 818.9331 96.41945 820.7697 93.84425 822.0649 L 49.581845 844.3274" stroke="white" stroke-linecap="round" stroke-linejoin="round" stroke-width="10"/>
      </g>
    </g>
  </g>
</svg>
