<?xml version="1.0" encoding="UTF-8" standalone="no"?>
<!DOCTYPE svg PUBLIC "-//W3C//DTD SVG 1.1//EN" "http://www.w3.org/Graphics/SVG/1.1/DTD/svg11.dtd">
<svg xmlns:dc="http://purl.org/dc/elements/1.1/" xmlns:xl="http://www.w3.org/1999/xlink" xmlns="http://www.w3.org/2000/svg" version="1.1" viewBox="0 0 850.394 850.394" width="850.394" height="850.394">
  <defs/>
  <metadata> Produced by OmniGraffle 7.9.4 
    <dc:date>2019-05-20 21:45:20 +0000</dc:date>
  </metadata>
  <g id="Velocity" stroke-dasharray="none" stroke-opacity="1" stroke="none" fill="none" fill-opacity="1">
    <title>Velocity</title>
    <g id="Velocity: Layer 1">
      <title>Layer 1</title>
      <g id="Graphic_29">
        <path d="M 243.8312 592.0716 L 246.2014 579.64756 C 246.2625 579.3272 246.33233 579.0085 246.41077 578.6919 L 250.91355 560.5179 C 251.3593 558.7188 252.08024 556.99934 253.0509 555.4203 L 258.01307 547.34806 C 258.8415 546.0004 259.844 544.7678 260.99464 543.68213 L 267.2008 537.8265 C 267.2008 537.8265 277.52232 538.10395 277.78698 538.10395 C 278.05163 538.10395 284.668 547.2599 284.668 547.2599 L 289.9611 555.306 C 289.9611 555.306 293.66625 571.3982 293.9309 571.6757 C 294.19556 571.9531 298.43003 589.15516 298.6947 589.9875 C 298.95934 590.8199 302.1352 606.3572 302.39985 606.9121 C 302.6645 607.467 307.9576 627.9985 308.22225 628.5534 C 308.4869 629.1083 316.6912 645.478 316.95584 645.7554 C 317.2205 646.0329 326.4834 657.68586 326.74806 657.9633 C 327.0127 658.2408 336.54028 656.8535 336.80493 656.8535 C 337.0696 656.8535 345.53853 649.9172 345.53853 649.9172 C 345.53853 649.9172 356.1247 630.773 356.38937 630.49554 C 356.654 630.2181 364.8583 616.068 365.12297 615.5131 C 365.3876 614.9582 372.004 599.69834 372.004 599.69834 L 374.4167 593.9497 C 374.7486 593.15894 375.02355 592.34546 375.23947 591.5155 L 378.4505 579.1724 C 378.65195 578.398 378.1875 577.6069 377.41306 577.4054 C 377.33167 577.38425 377.2486 577.3702 377.16475 577.36344 L 377.16475 577.36344 C 376.1487 577.2815 375.2032 577.8887 374.85506 578.8468 L 373.32726 583.0512 C 373.32726 583.0512 371.21 591.9297 370.94536 591.9297 C 370.6807 591.9297 367.50486 599.9758 367.50486 600.25325 C 367.50486 600.5307 365.65227 607.74446 365.3876 608.0219 C 365.12297 608.29936 361.15315 618.28764 360.8885 618.5651 C 360.62384 618.84255 357.71264 624.66904 357.448 624.9465 C 357.18333 625.22395 351.36093 636.0446 351.36093 636.0446 L 347.30624 642.04566 C 347.0101 642.484 346.69477 642.909 346.3612 643.31954 L 342.3392 648.2693 C 341.32047 649.52304 339.9439 650.4366 338.39286 650.8883 L 336.15283 651.5406 C 336.05826 651.56814 335.96346 651.5949 335.86845 651.6209 L 329.9239 653.2466 C 329.9239 653.2466 325.16013 651.30446 325.16013 651.027 C 325.16013 650.74955 319.86704 644.36815 319.86704 644.0907 C 319.86704 643.81325 317.2205 636.87694 317.2205 636.87694 C 317.2205 636.87694 314.04464 626.0563 314.04464 625.77885 C 314.04464 625.5014 309.0162 611.6288 309.0162 611.6288 C 309.0162 611.6288 307.4283 602.7503 307.16363 602.7503 C 306.89897 602.7503 304.25243 592.4846 304.25243 592.4846 L 302.59403 582.5498 C 302.4647 581.7751 302.28483 581.0097 302.05554 580.2585 L 298.16537 567.5139 C 298.16537 567.5139 294.98952 553.6413 294.98952 553.0864 C 294.98952 552.53146 289.16712 541.1559 289.16712 541.1559 L 283.4296 537.0077 C 282.1436 536.0779 280.7403 535.32226 279.2562 534.7604 L 276.27002 533.6299 C 273.4452 532.5605 270.39666 532.21916 267.40527 532.6373 L 260.05512 533.6647 C 260.05512 533.6647 252.90945 541.7108 252.6448 541.7108 C 252.38014 541.7108 248.14567 554.1962 248.14567 554.1962 C 248.14567 554.1962 244.96982 568.6237 244.70516 568.6237 C 244.4405 568.6237 241 585.2708 241 585.2708 L 241 587.8674 C 241 589.4385 241.41054 590.9823 242.19095 592.34586 L 242.19095 592.34586 C 242.43415 592.7708 242.9758 592.9181 243.40073 592.6749 C 243.62542 592.5463 243.78267 592.3259 243.8312 592.0716 Z" fill="black"/>
        <path d="M 243.8312 592.0716 L 246.2014 579.64756 C 246.2625 579.3272 246.33233 579.0085 246.41077 578.6919 L 250.91355 560.5179 C 251.3593 558.7188 252.08024 556.99934 253.0509 555.4203 L 258.01307 547.34806 C 258.8415 546.0004 259.844 544.7678 260.99464 543.68213 L 267.2008 537.8265 C 267.2008 537.8265 277.52232 538.10395 277.78698 538.10395 C 278.05163 538.10395 284.668 547.2599 284.668 547.2599 L 289.9611 555.306 C 289.9611 555.306 293.66625 571.3982 293.9309 571.6757 C 294.19556 571.9531 298.43003 589.15516 298.6947 589.9875 C 298.95934 590.8199 302.1352 606.3572 302.39985 606.9121 C 302.6645 607.467 307.9576 627.9985 308.22225 628.5534 C 308.4869 629.1083 316.6912 645.478 316.95584 645.7554 C 317.2205 646.0329 326.4834 657.68586 326.74806 657.9633 C 327.0127 658.2408 336.54028 656.8535 336.80493 656.8535 C 337.0696 656.8535 345.53853 649.9172 345.53853 649.9172 C 345.53853 649.9172 356.1247 630.773 356.38937 630.49554 C 356.654 630.2181 364.8583 616.068 365.12297 615.5131 C 365.3876 614.9582 372.004 599.69834 372.004 599.69834 L 374.4167 593.9497 C 374.7486 593.15894 375.02355 592.34546 375.23947 591.5155 L 378.4505 579.1724 C 378.65195 578.398 378.1875 577.6069 377.41306 577.4054 C 377.33167 577.38425 377.2486 577.3702 377.16475 577.36344 L 377.16475 577.36344 C 376.1487 577.2815 375.2032 577.8887 374.85506 578.8468 L 373.32726 583.0512 C 373.32726 583.0512 371.21 591.9297 370.94536 591.9297 C 370.6807 591.9297 367.50486 599.9758 367.50486 600.25325 C 367.50486 600.5307 365.65227 607.74446 365.3876 608.0219 C 365.12297 608.29936 361.15315 618.28764 360.8885 618.5651 C 360.62384 618.84255 357.71264 624.66904 357.448 624.9465 C 357.18333 625.22395 351.36093 636.0446 351.36093 636.0446 L 347.30624 642.04566 C 347.0101 642.484 346.69477 642.909 346.3612 643.31954 L 342.3392 648.2693 C 341.32047 649.52304 339.9439 650.4366 338.39286 650.8883 L 336.15283 651.5406 C 336.05826 651.56814 335.96346 651.5949 335.86845 651.6209 L 329.9239 653.2466 C 329.9239 653.2466 325.16013 651.30446 325.16013 651.027 C 325.16013 650.74955 319.86704 644.36815 319.86704 644.0907 C 319.86704 643.81325 317.2205 636.87694 317.2205 636.87694 C 317.2205 636.87694 314.04464 626.0563 314.04464 625.77885 C 314.04464 625.5014 309.0162 611.6288 309.0162 611.6288 C 309.0162 611.6288 307.4283 602.7503 307.16363 602.7503 C 306.89897 602.7503 304.25243 592.4846 304.25243 592.4846 L 302.59403 582.5498 C 302.4647 581.7751 302.28483 581.0097 302.05554 580.2585 L 298.16537 567.5139 C 298.16537 567.5139 294.98952 553.6413 294.98952 553.0864 C 294.98952 552.53146 289.16712 541.1559 289.16712 541.1559 L 283.4296 537.0077 C 282.1436 536.0779 280.7403 535.32226 279.2562 534.7604 L 276.27002 533.6299 C 273.4452 532.5605 270.39666 532.21916 267.40527 532.6373 L 260.05512 533.6647 C 260.05512 533.6647 252.90945 541.7108 252.6448 541.7108 C 252.38014 541.7108 248.14567 554.1962 248.14567 554.1962 C 248.14567 554.1962 244.96982 568.6237 244.70516 568.6237 C 244.4405 568.6237 241 585.2708 241 585.2708 L 241 587.8674 C 241 589.4385 241.41054 590.9823 242.19095 592.34586 L 242.19095 592.34586 C 242.43415 592.7708 242.9758 592.9181 243.40073 592.6749 C 243.62542 592.5463 243.78267 592.3259 243.8312 592.0716 Z" stroke="white" stroke-linecap="round" stroke-linejoin="round" stroke-width="3"/>
      </g>
      <g id="Graphic_25">
        <path d="M 44.95064 598.75786 L 46.97668 593.5528 C 47.187496 593.01116 47.42442 592.4801 47.686624 591.9614 L 50.81432 585.77415 C 51.981826 583.4646 53.633615 581.4339 55.657074 579.8206 L 58.56449 577.5025 C 59.691524 576.6039 60.922415 575.8439 62.23071 575.2389 L 68.2008 572.4781 C 68.2008 572.4781 78.52232 572.6141 78.78698 572.6141 C 79.05163 572.6141 85.66799 577.1016 85.66799 577.1016 L 90.96108 581.0452 C 90.96108 581.0452 94.66625 588.9323 94.9309 589.0683 C 95.19556 589.2043 99.43003 597.6353 99.69468 598.0433 C 99.95934 598.45124 103.13519 606.0664 103.39985 606.33836 C 103.6645 606.6103 108.95759 616.6732 109.22225 616.9452 C 109.4869 617.21715 117.69119 625.24025 117.95584 625.3762 C 118.2205 625.5122 127.4834 631.2236 127.74806 631.3596 C 128.01272 631.49555 137.54028 630.8156 137.80493 630.8156 C 138.06959 630.8156 146.53853 627.416 146.53853 627.416 C 146.53853 627.416 157.12471 618.03305 157.38937 617.8971 C 157.65402 617.7611 165.85831 610.82586 166.12297 610.5539 C 166.38762 610.2819 173.00398 602.80275 173.00398 602.80275 L 174.62099 600.91446 C 175.48116 599.91 176.22802 598.81374 176.84804 597.6456 L 179.07786 593.4446 C 179.35806 592.9167 179.15726 592.2616 178.62936 591.9814 C 178.48587 591.9053 178.32707 591.8624 178.16475 591.856 L 178.16475 591.856 C 177.08843 591.8134 176.06067 592.30566 175.41915 593.17094 L 174.32726 594.64366 C 174.32726 594.64366 172.21002 598.9952 171.94536 598.9952 C 171.6807 598.9952 168.50486 602.93874 168.50486 603.0747 C 168.50486 603.2107 166.65227 606.7463 166.38762 606.8823 C 166.12297 607.0183 162.15315 611.9137 161.8885 612.0497 C 161.62384 612.1857 158.71264 615.0414 158.44798 615.1774 C 158.18333 615.31336 152.36093 620.6168 152.36093 620.6168 L 148.48004 623.43194 C 148.06807 623.7308 147.6436 624.012 147.2078 624.2749 L 143.835 626.3093 C 142.4754 627.1294 140.96472 627.6676 139.39286 627.89196 L 137.08692 628.2211 C 137.03629 628.2283 136.98562 628.2353 136.93493 628.2421 L 130.92392 629.0478 C 130.92392 629.0478 126.16013 628.0959 126.16013 627.95995 C 126.16013 627.824 120.86704 624.6963 120.86704 624.5603 C 120.86704 624.42434 118.2205 621.0247 118.2205 621.0247 C 118.2205 621.0247 115.04464 615.7213 115.04464 615.5853 C 115.04464 615.44934 110.01621 608.6501 110.01621 608.6501 C 110.01621 608.6501 108.42828 604.2986 108.16363 604.2986 C 107.89897 604.2986 105.25243 599.26715 105.25243 599.26715 L 104.06647 595.78504 C 103.62351 594.48446 103.0331 593.2389 102.30676 592.0726 L 99.16537 587.0285 C 99.16537 587.0285 95.98952 580.2293 95.98952 579.9573 C 95.98952 579.6853 90.16712 574.10995 90.16712 574.10995 L 83.82753 571.86346 C 82.93864 571.5485 82.02638 571.3038 81.09917 571.1318 L 75.205155 570.0382 C 73.717375 569.7621 72.20072 569.6748 70.69109 569.7782 L 61.055125 570.43836 C 61.055125 570.43836 53.90945 574.3819 53.6448 574.3819 C 53.380144 574.3819 49.14567 580.50124 49.14567 580.50124 C 49.14567 580.50124 45.96982 587.57245 45.705163 587.57245 C 45.44051 587.57245 42 595.73154 42 595.73154 L 42 596.9554 C 42 597.73216 42.3396 598.4701 42.929583 598.9753 L 43.190945 599.19915 C 43.65745 599.59865 44.35948 599.5443 44.75898 599.0778 C 44.840424 598.9827 44.90522 598.87455 44.95064 598.75786 Z" fill="black"/>
        <path d="M 44.95064 598.75786 L 46.97668 593.5528 C 47.187496 593.01116 47.42442 592.4801 47.686624 591.9614 L 50.81432 585.77415 C 51.981826 583.4646 53.633615 581.4339 55.657074 579.8206 L 58.56449 577.5025 C 59.691524 576.6039 60.922415 575.8439 62.23071 575.2389 L 68.2008 572.4781 C 68.2008 572.4781 78.52232 572.6141 78.78698 572.6141 C 79.05163 572.6141 85.66799 577.1016 85.66799 577.1016 L 90.96108 581.0452 C 90.96108 581.0452 94.66625 588.9323 94.9309 589.0683 C 95.19556 589.2043 99.43003 597.6353 99.69468 598.0433 C 99.95934 598.45124 103.13519 606.0664 103.39985 606.33836 C 103.6645 606.6103 108.95759 616.6732 109.22225 616.9452 C 109.4869 617.21715 117.69119 625.24025 117.95584 625.3762 C 118.2205 625.5122 127.4834 631.2236 127.74806 631.3596 C 128.01272 631.49555 137.54028 630.8156 137.80493 630.8156 C 138.06959 630.8156 146.53853 627.416 146.53853 627.416 C 146.53853 627.416 157.12471 618.03305 157.38937 617.8971 C 157.65402 617.7611 165.85831 610.82586 166.12297 610.5539 C 166.38762 610.2819 173.00398 602.80275 173.00398 602.80275 L 174.62099 600.91446 C 175.48116 599.91 176.22802 598.81374 176.84804 597.6456 L 179.07786 593.4446 C 179.35806 592.9167 179.15726 592.2616 178.62936 591.9814 C 178.48587 591.9053 178.32707 591.8624 178.16475 591.856 L 178.16475 591.856 C 177.08843 591.8134 176.06067 592.30566 175.41915 593.17094 L 174.32726 594.64366 C 174.32726 594.64366 172.21002 598.9952 171.94536 598.9952 C 171.6807 598.9952 168.50486 602.93874 168.50486 603.0747 C 168.50486 603.2107 166.65227 606.7463 166.38762 606.8823 C 166.12297 607.0183 162.15315 611.9137 161.8885 612.0497 C 161.62384 612.1857 158.71264 615.0414 158.44798 615.1774 C 158.18333 615.31336 152.36093 620.6168 152.36093 620.6168 L 148.48004 623.43194 C 148.06807 623.7308 147.6436 624.012 147.2078 624.2749 L 143.835 626.3093 C 142.4754 627.1294 140.96472 627.6676 139.39286 627.89196 L 137.08692 628.2211 C 137.03629 628.2283 136.98562 628.2353 136.93493 628.2421 L 130.92392 629.0478 C 130.92392 629.0478 126.16013 628.0959 126.16013 627.95995 C 126.16013 627.824 120.86704 624.6963 120.86704 624.5603 C 120.86704 624.42434 118.2205 621.0247 118.2205 621.0247 C 118.2205 621.0247 115.04464 615.7213 115.04464 615.5853 C 115.04464 615.44934 110.01621 608.6501 110.01621 608.6501 C 110.01621 608.6501 108.42828 604.2986 108.16363 604.2986 C 107.89897 604.2986 105.25243 599.26715 105.25243 599.26715 L 104.06647 595.78504 C 103.62351 594.48446 103.0331 593.2389 102.30676 592.0726 L 99.16537 587.0285 C 99.16537 587.0285 95.98952 580.2293 95.98952 579.9573 C 95.98952 579.6853 90.16712 574.10995 90.16712 574.10995 L 83.82753 571.86346 C 82.93864 571.5485 82.02638 571.3038 81.09917 571.1318 L 75.205155 570.0382 C 73.717375 569.7621 72.20072 569.6748 70.69109 569.7782 L 61.055125 570.43836 C 61.055125 570.43836 53.90945 574.3819 53.6448 574.3819 C 53.380144 574.3819 49.14567 580.50124 49.14567 580.50124 C 49.14567 580.50124 45.96982 587.57245 45.705163 587.57245 C 45.44051 587.57245 42 595.73154 42 595.73154 L 42 596.9554 C 42 597.73216 42.3396 598.4701 42.929583 598.9753 L 43.190945 599.19915 C 43.65745 599.59865 44.35948 599.5443 44.75898 599.0778 C 44.840424 598.9827 44.90522 598.87455 44.95064 598.75786 Z" stroke="white" stroke-linecap="round" stroke-linejoin="round" stroke-width="3"/>
      </g>
      <g id="Graphic_2">
        <rect x="51.99642" y="379" width="117.89216" height="39.82843" fill="black"/>
        <rect x="51.99642" y="379" width="117.89216" height="39.82843" stroke="white" stroke-linecap="round" stroke-linejoin="round" stroke-width="3"/>
      </g>
      <g id="Graphic_31">
        <path d="M 455.8065 596.2857 L 458.2553 576.8278 C 458.2829 576.6086 458.3145 576.38996 458.3501 576.17194 L 463.2643 546.10534 C 463.4806 544.782 463.8441 543.487 464.34797 542.24444 L 470.5008 527.07176 C 471.0085 525.81987 471.6555 524.6291 472.42956 523.52196 L 479.2044 513.8322 C 479.2044 513.8322 489.5259 514.2528 489.79056 514.2528 C 490.0552 514.2528 496.6716 528.132 496.6716 528.132 L 501.96466 540.3289 C 501.96466 540.3289 505.6698 564.7227 505.9345 565.1433 C 506.19914 565.56386 510.4336 591.63996 510.69826 592.9017 C 510.9629 594.16346 514.1388 617.7161 514.4034 618.5572 C 514.6681 619.3984 519.9612 650.5215 520.2258 651.36266 C 520.4905 652.2038 528.69477 677.0182 528.9594 677.4388 C 529.2241 677.85934 538.487 695.5238 538.75164 695.9444 C 539.0163 696.365 548.54386 694.26206 548.8085 694.26206 C 549.07317 694.26206 557.5421 683.7475 557.5421 683.7475 C 557.5421 683.7475 568.1283 654.7273 568.39295 654.3067 C 568.6576 653.88615 576.8619 632.43645 577.12654 631.5953 C 577.3912 630.7541 584.00756 607.6221 584.00756 607.6221 L 586.67806 597.9769 C 586.8384 597.3977 586.9697 596.8108 587.07134 596.21846 L 590.59544 575.6836 C 590.7497 574.78476 590.1461 573.93106 589.24726 573.7768 C 589.22104 573.7723 589.1947 573.76844 589.1683 573.7652 L 589.1683 573.7652 C 588.1882 573.6454 587.27424 574.28005 587.0441 575.24024 L 585.3308 582.38715 C 585.3308 582.38715 583.2136 595.8458 582.94894 595.8458 C 582.6843 595.8458 579.5084 608.0427 579.5084 608.46326 C 579.5084 608.88384 577.65585 619.819 577.3912 620.2396 C 577.12654 620.66015 573.1567 635.8011 572.8921 636.2217 C 572.6274 636.6423 569.7162 645.4745 569.45156 645.8951 C 569.1869 646.3157 563.3645 662.7184 563.3645 662.7184 L 559.1321 672.2139 C 558.95435 672.61275 558.76214 673.005 558.55585 673.3898 L 554.0084 681.8733 C 553.2113 683.36035 551.9399 684.5382 550.39644 685.2195 L 548.20153 686.18845 C 548.0769 686.2435 547.9516 686.2971 547.82574 686.3493 L 541.9275 688.7945 C 541.9275 688.7945 537.1637 685.8504 537.1637 685.4298 C 537.1637 685.00924 531.8706 675.33585 531.8706 674.9153 C 531.8706 674.4947 529.2241 663.9801 529.2241 663.9801 C 529.2241 663.9801 526.0482 647.5774 526.0482 647.1568 C 526.0482 646.73625 521.0198 625.7071 521.0198 625.7071 C 521.0198 625.7071 519.43186 612.2485 519.1672 612.2485 C 518.90255 612.2485 516.256 596.68695 516.256 596.68695 L 514.4912 580.6606 C 514.4327 580.1296 514.3506 579.6014 514.24515 579.07766 L 510.16895 558.83454 C 510.16895 558.83454 506.9931 537.8054 506.9931 536.96426 C 506.9931 536.1231 501.1707 518.8792 501.1707 518.8792 L 495.39253 512.54645 C 494.1356 511.1689 492.6723 509.995 491.0549 509.06686 L 488.73194 507.7338 C 485.6642 505.9733 482.05517 505.40534 478.595 506.1385 L 472.0587 507.5235 C 472.0587 507.5235 464.91303 519.7204 464.6484 519.7204 C 464.3837 519.7204 460.14925 538.6466 460.14925 538.6466 C 460.14925 538.6466 456.9734 560.5169 456.70874 560.5169 C 456.4441 560.5169 453.0036 585.7518 453.0036 585.7518 L 453.0036 590.0375 C 453.0036 592.2094 453.39667 594.36344 454.16384 596.3954 L 454.1945 596.47666 C 454.35765 596.9087 454.84013 597.1267 455.2722 596.9636 C 455.56215 596.8541 455.7678 596.5932 455.8065 596.2857 Z" fill="black"/>
        <path d="M 455.8065 596.2857 L 458.2553 576.8278 C 458.2829 576.6086 458.3145 576.38996 458.3501 576.17194 L 463.2643 546.10534 C 463.4806 544.782 463.8441 543.487 464.34797 542.24444 L 470.5008 527.07176 C 471.0085 525.81987 471.6555 524.6291 472.42956 523.52196 L 479.2044 513.8322 C 479.2044 513.8322 489.5259 514.2528 489.79056 514.2528 C 490.0552 514.2528 496.6716 528.132 496.6716 528.132 L 501.96466 540.3289 C 501.96466 540.3289 505.6698 564.7227 505.9345 565.1433 C 506.19914 565.56386 510.4336 591.63996 510.69826 592.9017 C 510.9629 594.16346 514.1388 617.7161 514.4034 618.5572 C 514.6681 619.3984 519.9612 650.5215 520.2258 651.36266 C 520.4905 652.2038 528.69477 677.0182 528.9594 677.4388 C 529.2241 677.85934 538.487 695.5238 538.75164 695.9444 C 539.0163 696.365 548.54386 694.26206 548.8085 694.26206 C 549.07317 694.26206 557.5421 683.7475 557.5421 683.7475 C 557.5421 683.7475 568.1283 654.7273 568.39295 654.3067 C 568.6576 653.88615 576.8619 632.43645 577.12654 631.5953 C 577.3912 630.7541 584.00756 607.6221 584.00756 607.6221 L 586.67806 597.9769 C 586.8384 597.3977 586.9697 596.8108 587.07134 596.21846 L 590.59544 575.6836 C 590.7497 574.78476 590.1461 573.93106 589.24726 573.7768 C 589.22104 573.7723 589.1947 573.76844 589.1683 573.7652 L 589.1683 573.7652 C 588.1882 573.6454 587.27424 574.28005 587.0441 575.24024 L 585.3308 582.38715 C 585.3308 582.38715 583.2136 595.8458 582.94894 595.8458 C 582.6843 595.8458 579.5084 608.0427 579.5084 608.46326 C 579.5084 608.88384 577.65585 619.819 577.3912 620.2396 C 577.12654 620.66015 573.1567 635.8011 572.8921 636.2217 C 572.6274 636.6423 569.7162 645.4745 569.45156 645.8951 C 569.1869 646.3157 563.3645 662.7184 563.3645 662.7184 L 559.1321 672.2139 C 558.95435 672.61275 558.76214 673.005 558.55585 673.3898 L 554.0084 681.8733 C 553.2113 683.36035 551.9399 684.5382 550.39644 685.2195 L 548.20153 686.18845 C 548.0769 686.2435 547.9516 686.2971 547.82574 686.3493 L 541.9275 688.7945 C 541.9275 688.7945 537.1637 685.8504 537.1637 685.4298 C 537.1637 685.00924 531.8706 675.33585 531.8706 674.9153 C 531.8706 674.4947 529.2241 663.9801 529.2241 663.9801 C 529.2241 663.9801 526.0482 647.5774 526.0482 647.1568 C 526.0482 646.73625 521.0198 625.7071 521.0198 625.7071 C 521.0198 625.7071 519.43186 612.2485 519.1672 612.2485 C 518.90255 612.2485 516.256 596.68695 516.256 596.68695 L 514.4912 580.6606 C 514.4327 580.1296 514.3506 579.6014 514.24515 579.07766 L 510.16895 558.83454 C 510.16895 558.83454 506.9931 537.8054 506.9931 536.96426 C 506.9931 536.1231 501.1707 518.8792 501.1707 518.8792 L 495.39253 512.54645 C 494.1356 511.1689 492.6723 509.995 491.0549 509.06686 L 488.73194 507.7338 C 485.6642 505.9733 482.05517 505.40534 478.595 506.1385 L 472.0587 507.5235 C 472.0587 507.5235 464.91303 519.7204 464.6484 519.7204 C 464.3837 519.7204 460.14925 538.6466 460.14925 538.6466 C 460.14925 538.6466 456.9734 560.5169 456.70874 560.5169 C 456.4441 560.5169 453.0036 585.7518 453.0036 585.7518 L 453.0036 590.0375 C 453.0036 592.2094 453.39667 594.36344 454.16384 596.3954 L 454.1945 596.47666 C 454.35765 596.9087 454.84013 597.1267 455.2722 596.9636 C 455.56215 596.8541 455.7678 596.5932 455.8065 596.2857 Z" stroke="white" stroke-linecap="round" stroke-linejoin="round" stroke-width="3"/>
      </g>
      <g id="Graphic_32">
        <path d="M 660.8 595.0237 L 663.2764 568.9594 C 663.2923 568.79187 663.31055 568.6246 663.33116 568.4576 L 668.4007 527.3719 C 668.5289 526.3332 668.7474 525.3077 669.05375 524.307 L 675.77 502.36883 C 676.1015 501.2861 676.5344 500.23706 677.06295 499.23566 L 684.20795 485.69924 C 684.20795 485.69924 694.5295 486.25634 694.7941 486.25634 C 695.0588 486.25634 701.67515 504.64086 701.67515 504.64086 L 706.9682 520.79694 C 706.9682 520.79694 710.6734 553.1091 710.9381 553.6662 C 711.2027 554.2233 715.4372 588.7639 715.7018 590.43525 C 715.9665 592.1066 719.14235 623.3045 719.407 624.41874 C 719.6717 625.53296 724.96475 666.7588 725.2294 667.87305 C 725.4941 668.9873 733.69835 701.85654 733.963 702.41365 C 734.22766 702.97076 743.4906 726.3692 743.7552 726.9263 C 744.0199 727.4834 753.5474 724.6979 753.8121 724.6979 C 754.0767 724.6979 762.5457 710.77025 762.5457 710.77025 C 762.5457 710.77025 773.1319 672.3299 773.3965 671.7728 C 773.6612 671.2157 781.8655 642.80326 782.1301 641.68904 C 782.3948 640.5748 789.0111 609.934 789.0111 609.934 L 791.7801 596.6869 C 791.8749 596.23334 791.9521 595.7763 792.0117 595.3168 L 795.66825 567.0937 C 795.793 566.1305 795.1307 565.24215 794.1719 565.0869 L 794.1719 565.0869 C 793.2167 564.93224 792.3136 565.571 792.1413 566.52316 L 790.3344 576.5076 C 790.3344 576.5076 788.2172 594.335 787.9525 594.335 C 787.6879 594.335 784.512 610.4911 784.512 611.0482 C 784.512 611.6053 782.6594 626.0901 782.3948 626.6472 C 782.1301 627.2043 778.1603 647.2601 777.89565 647.8172 C 777.631 648.3743 774.7198 660.07356 774.4551 660.6307 C 774.1905 661.1878 768.3681 682.9149 768.3681 682.9149 L 764.04105 695.7741 C 763.92635 696.1149 763.8015 696.4523 763.66655 696.78566 L 758.81695 708.7696 C 758.1459 710.4279 756.9443 711.8171 755.4 712.7201 L 753.2274 713.9905 C 753.0879 714.0721 752.9473 714.1518 752.8056 714.2296 L 746.9311 717.4555 C 746.9311 717.4555 742.1673 713.5558 742.1673 712.9987 C 742.1673 712.4416 736.8742 699.6281 736.8742 699.071 C 736.8742 698.5139 734.22766 684.58624 734.22766 684.58624 C 734.22766 684.58624 731.0518 662.8591 731.0518 662.302 C 731.0518 661.7449 726.0234 633.88955 726.0234 633.88955 C 726.0234 633.88955 724.4354 616.06215 724.1708 616.06215 C 723.9061 616.06215 721.2596 595.4492 721.2596 595.4492 L 719.4577 573.77435 C 719.4239 573.3682 719.37635 572.9633 719.3151 572.5604 L 715.1725 545.3096 C 715.1725 545.3096 711.9967 517.4543 711.9967 516.3401 C 711.9967 515.2259 706.1743 492.3845 706.1743 492.3845 L 700.1348 483.6167 C 699.0514 482.04384 697.7245 480.65345 696.2041 479.49766 L 693.7355 477.6212 C 690.7352 475.3405 686.83904 474.5986 683.2105 475.617 L 677.0623 477.34264 C 677.0623 477.34264 669.9166 493.4987 669.65196 493.4987 C 669.3873 493.4987 665.1528 518.5685 665.1528 518.5685 C 665.1528 518.5685 661.977 547.53805 661.7123 547.53805 C 661.4477 547.53805 658.00716 580.96444 658.00716 580.96444 L 658.00716 588.47716 C 658.00716 590.14585 658.2392 591.80644 658.6966 593.4112 L 659.1981 595.17066 C 659.322 595.60536 659.77485 595.8573 660.20956 595.7334 C 660.5337 595.641 660.7681 595.3593 660.8 595.0237 Z" fill="black"/>
        <path d="M 660.8 595.0237 L 663.2764 568.9594 C 663.2923 568.79187 663.31055 568.6246 663.33116 568.4576 L 668.4007 527.3719 C 668.5289 526.3332 668.7474 525.3077 669.05375 524.307 L 675.77 502.36883 C 676.1015 501.2861 676.5344 500.23706 677.06295 499.23566 L 684.20795 485.69924 C 684.20795 485.69924 694.5295 486.25634 694.7941 486.25634 C 695.0588 486.25634 701.67515 504.64086 701.67515 504.64086 L 706.9682 520.79694 C 706.9682 520.79694 710.6734 553.1091 710.9381 553.6662 C 711.2027 554.2233 715.4372 588.7639 715.7018 590.43525 C 715.9665 592.1066 719.14235 623.3045 719.407 624.41874 C 719.6717 625.53296 724.96475 666.7588 725.2294 667.87305 C 725.4941 668.9873 733.69835 701.85654 733.963 702.41365 C 734.22766 702.97076 743.4906 726.3692 743.7552 726.9263 C 744.0199 727.4834 753.5474 724.6979 753.8121 724.6979 C 754.0767 724.6979 762.5457 710.77025 762.5457 710.77025 C 762.5457 710.77025 773.1319 672.3299 773.3965 671.7728 C 773.6612 671.2157 781.8655 642.80326 782.1301 641.68904 C 782.3948 640.5748 789.0111 609.934 789.0111 609.934 L 791.7801 596.6869 C 791.8749 596.23334 791.9521 595.7763 792.0117 595.3168 L 795.66825 567.0937 C 795.793 566.1305 795.1307 565.24215 794.1719 565.0869 L 794.1719 565.0869 C 793.2167 564.93224 792.3136 565.571 792.1413 566.52316 L 790.3344 576.5076 C 790.3344 576.5076 788.2172 594.335 787.9525 594.335 C 787.6879 594.335 784.512 610.4911 784.512 611.0482 C 784.512 611.6053 782.6594 626.0901 782.3948 626.6472 C 782.1301 627.2043 778.1603 647.2601 777.89565 647.8172 C 777.631 648.3743 774.7198 660.07356 774.4551 660.6307 C 774.1905 661.1878 768.3681 682.9149 768.3681 682.9149 L 764.04105 695.7741 C 763.92635 696.1149 763.8015 696.4523 763.66655 696.78566 L 758.81695 708.7696 C 758.1459 710.4279 756.9443 711.8171 755.4 712.7201 L 753.2274 713.9905 C 753.0879 714.0721 752.9473 714.1518 752.8056 714.2296 L 746.9311 717.4555 C 746.9311 717.4555 742.1673 713.5558 742.1673 712.9987 C 742.1673 712.4416 736.8742 699.6281 736.8742 699.071 C 736.8742 698.5139 734.22766 684.58624 734.22766 684.58624 C 734.22766 684.58624 731.0518 662.8591 731.0518 662.302 C 731.0518 661.7449 726.0234 633.88955 726.0234 633.88955 C 726.0234 633.88955 724.4354 616.06215 724.1708 616.06215 C 723.9061 616.06215 721.2596 595.4492 721.2596 595.4492 L 719.4577 573.77435 C 719.4239 573.3682 719.37635 572.9633 719.3151 572.5604 L 715.1725 545.3096 C 715.1725 545.3096 711.9967 517.4543 711.9967 516.3401 C 711.9967 515.2259 706.1743 492.3845 706.1743 492.3845 L 700.1348 483.6167 C 699.0514 482.04384 697.7245 480.65345 696.2041 479.49766 L 693.7355 477.6212 C 690.7352 475.3405 686.83904 474.5986 683.2105 475.617 L 677.0623 477.34264 C 677.0623 477.34264 669.9166 493.4987 669.65196 493.4987 C 669.3873 493.4987 665.1528 518.5685 665.1528 518.5685 C 665.1528 518.5685 661.977 547.53805 661.7123 547.53805 C 661.4477 547.53805 658.00716 580.96444 658.00716 580.96444 L 658.00716 588.47716 C 658.00716 590.14585 658.2392 591.80644 658.6966 593.4112 L 659.1981 595.17066 C 659.322 595.60536 659.77485 595.8573 660.20956 595.7334 C 660.5337 595.641 660.7681 595.3593 660.8 595.0237 Z" stroke="white" stroke-linecap="round" stroke-linejoin="round" stroke-width="3"/>
      </g>
      <g id="Graphic_33">
        <rect x="260.99284" y="379" width="117.89216" height="39.82843" fill="black"/>
        <rect x="260.99284" y="379" width="117.89216" height="39.82843" stroke="white" stroke-linecap="round" stroke-linejoin="round" stroke-width="4"/>
      </g>
      <g id="Graphic_34">
        <rect x="463" y="379" width="117.89216" height="39.82843" fill="black"/>
        <rect x="463" y="379" width="117.89216" height="39.82843" stroke="white" stroke-linecap="round" stroke-linejoin="round" stroke-width="5"/>
      </g>
      <g id="Graphic_35">
        <rect x="668.0036" y="379" width="117.89216" height="39.82843" fill="black"/>
        <rect x="668.0036" y="379" width="117.89216" height="39.82843" stroke="white" stroke-linecap="round" stroke-linejoin="round" stroke-width="6"/>
      </g>
      <g id="Line_60">
        <line x1="312.4445" y1="261.93746" x2="353.8184" y2="220.56354" stroke="white" stroke-linecap="round" stroke-linejoin="round" stroke-width="3"/>
      </g>
      <g id="Line_61">
        <line x1="304.23217" y1="260.2659" x2="304.23217" y2="207.5131" stroke="white" stroke-linecap="round" stroke-linejoin="round" stroke-width="3"/>
      </g>
      <g id="Graphic_62">
        <ellipse cx="309.21032" cy="330.7383" rx="68.2104293459719" ry="14.4425143768257" fill="black"/>
        <ellipse cx="309.21032" cy="330.7383" rx="68.2104293459719" ry="14.4425143768257" stroke="white" stroke-linecap="round" stroke-linejoin="round" stroke-width="6"/>
      </g>
      <g id="Graphic_63">
        <path d="M 241.31373 274.8824 L 374.1069 274.8824 C 375.76376 274.8824 377.1069 276.22553 377.1069 277.8824 L 377.1069 330.00036 C 377.1069 331.6572 375.76376 333.00036 374.1069 333.00036 L 244.31373 333.00036 C 242.65688 333.00036 241.31373 331.6572 241.31373 330.00036 Z" fill="black"/>
        <path d="M 241.31373 274.8824 L 374.1069 274.8824 C 375.76376 274.8824 377.1069 276.22553 377.1069 277.8824 L 377.1069 330.00036 C 377.1069 331.6572 375.76376 333.00036 374.1069 333.00036 L 244.31373 333.00036 C 242.65688 333.00036 241.31373 331.6572 241.31373 330.00036 Z" stroke="white" stroke-linecap="round" stroke-linejoin="round" stroke-width="6"/>
      </g>
      <g id="Graphic_64">
        <ellipse cx="309.52405" cy="274.8824" rx="68.2104293459719" ry="9.74434704942459" fill="black"/>
        <ellipse cx="309.52405" cy="274.8824" rx="68.2104293459719" ry="9.74434704942459" stroke="white" stroke-linecap="round" stroke-linejoin="round" stroke-width="6"/>
      </g>
      <g id="Graphic_65">
        <path d="M 329.2058 243.10763 L 386.9387 227.63814 C 393.7677 225.80832 398.99775 223.15774 398.61296 221.72166 C 398.22816 220.28558 392.3735 220.60514 385.5445 222.43496 L 327.8116 237.90445 C 320.9826 239.73427 315.75255 242.38485 316.13735 243.82093 C 316.52214 245.257 322.3768 244.93745 329.2058 243.10763 Z" fill="black"/>
        <path d="M 329.2058 243.10763 L 386.9387 227.63814 C 393.7677 225.80832 398.99775 223.15774 398.61296 221.72166 C 398.22816 220.28558 392.3735 220.60514 385.5445 222.43496 L 327.8116 237.90445 C 320.9826 239.73427 315.75255 242.38485 316.13735 243.82093 C 316.52214 245.257 322.3768 244.93745 329.2058 243.10763 Z" stroke="white" stroke-linecap="round" stroke-linejoin="round" stroke-width="4"/>
      </g>
      <g id="Graphic_66">
        <path d="M 324.22198 252.33415 C 328.00294 246.10765 325.8898 238.2213 319.50214 234.71946 C 313.1145 231.2176 304.87126 233.42637 301.09034 239.6529 C 297.3094 245.8794 299.42253 253.76575 305.81018 257.26757 C 312.1978 260.76943 320.44105 258.56066 324.22198 252.33415" fill="black"/>
        <path d="M 324.22198 252.33415 C 328.00294 246.10765 325.8898 238.2213 319.50214 234.71946 C 313.1145 231.2176 304.87126 233.42637 301.09034 239.6529 C 297.3094 245.8794 299.42253 253.76575 305.81018 257.26757 C 312.1978 260.76943 320.44105 258.56066 324.22198 252.33415" stroke="white" stroke-linecap="round" stroke-linejoin="round" stroke-width="5"/>
      </g>
      <g id="Line_67">
        <path d="M 313.8271 226.84898 L 317.36515 214.09265 C 321.3449 199.74375 330.27937 187.26874 342.5831 178.8814 L 351.14564 173.04437 C 357.93554 168.41575 366.104 166.24799 374.2955 166.90081 L 380.9243 167.4291 C 384.93914 167.74906 388.97092 167.79916 392.99247 167.57907 L 397.2415 167.34652" stroke="white" stroke-linecap="round" stroke-linejoin="round" stroke-dasharray="8.0,8.0" stroke-width="2"/>
      </g>
      <g id="Line_68">
        <path d="M 323.35844 229.62907 L 327.56284 223.29007 C 331.61125 217.18624 334.7945 210.55096 337.0218 203.57346 L 337.0218 203.57346 C 339.14232 196.9304 344.18322 191.62114 350.70745 189.1592 L 387.20755 175.3857" stroke="white" stroke-linecap="round" stroke-linejoin="round" stroke-dasharray="8.0,8.0" stroke-width="2"/>
      </g>
      <g id="Line_69">
        <path d="M 328.4476 230.49684 L 338.4835 215.47135 C 345.88175 204.3949 356.25605 195.6315 368.41334 190.18892 L 382.79994 183.74832 C 385.5543 182.51525 387.89237 180.5105 389.53133 177.97657 L 389.53133 177.97657" stroke="white" stroke-linecap="round" stroke-linejoin="round" stroke-dasharray="8.0,8.0" stroke-width="2"/>
      </g>
      <g id="Line_70">
        <line x1="298.38767" y1="260.2659" x2="272.0105" y2="233.8887" stroke="white" stroke-linecap="round" stroke-linejoin="round" stroke-width="3"/>
      </g>
      <g id="Graphic_73">
        <ellipse cx="109.21032" cy="332.7383" rx="68.2104293459718" ry="14.4425143768257" fill="black"/>
        <ellipse cx="109.21032" cy="332.7383" rx="68.2104293459718" ry="14.4425143768257" stroke="white" stroke-linecap="round" stroke-linejoin="round" stroke-width="6"/>
      </g>
      <g id="Graphic_74">
        <path d="M 41.313733 276.8824 L 174.1069 276.8824 C 175.76376 276.8824 177.1069 278.22553 177.1069 279.8824 L 177.1069 332.00036 C 177.1069 333.6572 175.76376 335.00036 174.1069 335.00036 L 44.313733 335.00036 C 42.65688 335.00036 41.313733 333.6572 41.313733 332.00036 Z" fill="black"/>
        <path d="M 41.313733 276.8824 L 174.1069 276.8824 C 175.76376 276.8824 177.1069 278.22553 177.1069 279.8824 L 177.1069 332.00036 C 177.1069 333.6572 175.76376 335.00036 174.1069 335.00036 L 44.313733 335.00036 C 42.65688 335.00036 41.313733 333.6572 41.313733 332.00036 Z" stroke="white" stroke-linecap="round" stroke-linejoin="round" stroke-width="6"/>
      </g>
      <g id="Graphic_75">
        <ellipse cx="109.52405" cy="276.8824" rx="68.2104293459719" ry="9.74434704942458" fill="black"/>
        <ellipse cx="109.52405" cy="276.8824" rx="68.2104293459719" ry="9.74434704942458" stroke="white" stroke-linecap="round" stroke-linejoin="round" stroke-width="6"/>
      </g>
      <g id="Graphic_76">
        <path d="M 129.20578 245.10763 L 186.9387 229.63814 C 193.7677 227.80832 198.99775 225.15774 198.61296 223.72166 C 198.22816 222.28558 192.3735 222.60514 185.54452 224.43496 L 127.8116 239.90445 C 120.98262 241.73427 115.75255 244.38485 116.13735 245.82093 C 116.52214 247.257 122.3768 246.93745 129.20578 245.10763 Z" fill="black"/>
        <path d="M 129.20578 245.10763 L 186.9387 229.63814 C 193.7677 227.80832 198.99775 225.15774 198.61296 223.72166 C 198.22816 222.28558 192.3735 222.60514 185.54452 224.43496 L 127.8116 239.90445 C 120.98262 241.73427 115.75255 244.38485 116.13735 245.82093 C 116.52214 247.257 122.3768 246.93745 129.20578 245.10763 Z" stroke="white" stroke-linecap="round" stroke-linejoin="round" stroke-width="4"/>
      </g>
      <g id="Graphic_77">
        <path d="M 124.22198 254.33415 C 128.00294 248.10765 125.88979 240.2213 119.50214 236.71946 C 113.1145 233.2176 104.87126 235.42637 101.09034 241.6529 C 97.30938 247.8794 99.42253 255.76575 105.81018 259.26757 C 112.19782 262.76943 120.44105 260.56066 124.22198 254.33415" fill="black"/>
        <path d="M 124.22198 254.33415 C 128.00294 248.10765 125.88979 240.2213 119.50214 236.71946 C 113.1145 233.2176 104.87126 235.42637 101.09034 241.6529 C 97.30938 247.8794 99.42253 255.76575 105.81018 259.26757 C 112.19782 262.76943 120.44105 260.56066 124.22198 254.33415" stroke="white" stroke-linecap="round" stroke-linejoin="round" stroke-width="5"/>
      </g>
      <g id="Line_82">
        <line x1="524.4481" y1="258.47516" x2="558.82164" y2="157.07547" stroke="white" stroke-linecap="round" stroke-linejoin="round" stroke-width="3"/>
      </g>
      <g id="Line_83">
        <line x1="516.23574" y1="256.8036" x2="515.23574" y2="157.07547" stroke="white" stroke-linecap="round" stroke-linejoin="round" stroke-width="3"/>
      </g>
      <g id="Graphic_84">
        <ellipse cx="521.2139" cy="327.276" rx="68.2104293459719" ry="14.4425143768257" fill="black"/>
        <ellipse cx="521.2139" cy="327.276" rx="68.2104293459719" ry="14.4425143768257" stroke="white" stroke-linecap="round" stroke-linejoin="round" stroke-width="6"/>
      </g>
      <g id="Graphic_85">
        <path d="M 453.3173 271.4201 L 586.1105 271.4201 C 587.76734 271.4201 589.1105 272.76324 589.1105 274.4201 L 589.1105 326.53807 C 589.1105 328.19492 587.76734 329.53807 586.1105 329.53807 L 456.3173 329.53807 C 454.66046 329.53807 453.3173 328.19492 453.3173 326.53807 Z" fill="black"/>
        <path d="M 453.3173 271.4201 L 586.1105 271.4201 C 587.76734 271.4201 589.1105 272.76324 589.1105 274.4201 L 589.1105 326.53807 C 589.1105 328.19492 587.76734 329.53807 586.1105 329.53807 L 456.3173 329.53807 C 454.66046 329.53807 453.3173 328.19492 453.3173 326.53807 Z" stroke="white" stroke-linecap="round" stroke-linejoin="round" stroke-width="6"/>
      </g>
      <g id="Graphic_86">
        <ellipse cx="521.52763" cy="271.4201" rx="68.2104293459719" ry="9.74434704942456" fill="black"/>
        <ellipse cx="521.52763" cy="271.4201" rx="68.2104293459719" ry="9.74434704942456" stroke="white" stroke-linecap="round" stroke-linejoin="round" stroke-width="6"/>
      </g>
      <g id="Graphic_87">
        <path d="M 543.6863 244.60487 L 595.44825 214.7201 C 601.57095 211.18517 605.9368 207.27126 605.1934 205.9837 C 604.45004 204.69616 598.8776 206.52012 592.7549 210.05506 L 540.99296 239.93983 C 534.87026 243.47477 530.50443 247.38867 531.2478 248.67623 C 531.9912 249.96378 537.5636 248.1398 543.6863 244.60487 Z" fill="black"/>
        <path d="M 543.6863 244.60487 L 595.44825 214.7201 C 601.57095 211.18517 605.9368 207.27126 605.1934 205.9837 C 604.45004 204.69616 598.8776 206.52012 592.7549 210.05506 L 540.99296 239.93983 C 534.87026 243.47477 530.50443 247.38867 531.2478 248.67623 C 531.9912 249.96378 537.5636 248.1398 543.6863 244.60487 Z" stroke="white" stroke-linecap="round" stroke-linejoin="round" stroke-width="4"/>
      </g>
      <g id="Graphic_88">
        <path d="M 541.26034 254.8069 C 543.3009 247.814 539.21865 240.74327 532.1423 239.014 C 525.066 237.28472 517.6753 241.55173 515.63474 248.54466 C 513.59415 255.53758 517.67643 262.6083 524.7528 264.33756 C 531.8291 266.06685 539.2198 261.79984 541.26034 254.8069" fill="black"/>
        <path d="M 541.26034 254.8069 C 543.3009 247.814 539.21865 240.74327 532.1423 239.014 C 525.066 237.28472 517.6753 241.55173 515.63474 248.54466 C 513.59415 255.53758 517.67643 262.6083 524.7528 264.33756 C 531.8291 266.06685 539.2198 261.79984 541.26034 254.8069" stroke="white" stroke-linecap="round" stroke-linejoin="round" stroke-width="5"/>
      </g>
      <g id="Line_89">
        <path d="M 525.8307 223.3867 L 529.3687 210.63036 C 533.3485 196.28146 542.28294 183.80645 554.5867 175.4191 L 563.1492 169.58208 C 569.9391 164.95346 578.1076 162.7857 586.2991 163.43852 L 592.9279 163.9668 C 596.9427 164.28677 600.9745 164.33687 604.99605 164.11677 L 609.2451 163.88423" stroke="white" stroke-linecap="round" stroke-linejoin="round" stroke-dasharray="8.0,8.0" stroke-width="2"/>
      </g>
      <g id="Line_90">
        <path d="M 535.362 226.16678 L 539.5664 219.82777 C 543.6148 213.72395 546.7981 207.08867 549.0254 200.11117 L 549.0254 200.11117 C 551.1459 193.46812 556.1868 188.15885 562.711 185.6969 L 599.2111 171.92342" stroke="white" stroke-linecap="round" stroke-linejoin="round" stroke-dasharray="8.0,8.0" stroke-width="2"/>
      </g>
      <g id="Line_91">
        <path d="M 546.5236 223.52864 L 576.17474 192.0901 C 583.4707 184.35432 592.07985 177.97272 601.6028 173.2413 L 640.78616 153.77336 C 644.9891 151.68515 648.776 148.84789 651.96086 145.40084 L 651.96086 145.40084" stroke="white" stroke-linecap="round" stroke-linejoin="round" stroke-dasharray="8.0,8.0" stroke-width="2"/>
      </g>
      <g id="Line_92">
        <line x1="510.39125" y1="256.8036" x2="446.54215" y2="198.5849" stroke="white" stroke-linecap="round" stroke-linejoin="round" stroke-width="3"/>
      </g>
      <g id="Line_93">
        <line x1="722.1699" y1="268.16373" x2="756.5434" y2="166.76404" stroke="white" stroke-linecap="round" stroke-linejoin="round" stroke-width="3"/>
      </g>
      <g id="Graphic_95">
        <ellipse cx="718.9357" cy="336.96456" rx="68.2104293459719" ry="14.4425143768257" fill="black"/>
        <ellipse cx="718.9357" cy="336.96456" rx="68.2104293459719" ry="14.4425143768257" stroke="white" stroke-linecap="round" stroke-linejoin="round" stroke-width="6"/>
      </g>
      <g id="Graphic_96">
        <path d="M 651.0391 281.10866 L 783.8323 281.10866 C 785.4891 281.10866 786.8323 282.4518 786.8323 284.10866 L 786.8323 336.22663 C 786.8323 337.8835 785.4891 339.22663 783.8323 339.22663 L 654.0391 339.22663 C 652.38225 339.22663 651.0391 337.8835 651.0391 336.22663 Z" fill="black"/>
        <path d="M 651.0391 281.10866 L 783.8323 281.10866 C 785.4891 281.10866 786.8323 282.4518 786.8323 284.10866 L 786.8323 336.22663 C 786.8323 337.8835 785.4891 339.22663 783.8323 339.22663 L 654.0391 339.22663 C 652.38225 339.22663 651.0391 337.8835 651.0391 336.22663 Z" stroke="white" stroke-linecap="round" stroke-linejoin="round" stroke-width="6"/>
      </g>
      <g id="Graphic_97">
        <ellipse cx="719.2494" cy="281.10866" rx="68.2104293459719" ry="9.74434704942456" fill="black"/>
        <ellipse cx="719.2494" cy="281.10866" rx="68.2104293459719" ry="9.74434704942456" stroke="white" stroke-linecap="round" stroke-linejoin="round" stroke-width="6"/>
      </g>
      <g id="Graphic_98">
        <path d="M 730.64485 254.0491 L 760.5296 202.28717 C 764.0646 196.16447 765.8885 190.59202 764.601 189.84865 C 763.3134 189.10528 759.3995 193.4711 755.8646 199.5938 L 725.9798 251.35573 C 722.4449 257.47843 720.6209 263.0509 721.90845 263.79425 C 723.196 264.53762 727.1099 260.1718 730.64485 254.0491 Z" fill="black"/>
        <path d="M 730.64485 254.0491 L 760.5296 202.28717 C 764.0646 196.16447 765.8885 190.59202 764.601 189.84865 C 763.3134 189.10528 759.3995 193.4711 755.8646 199.5938 L 725.9798 251.35573 C 722.4449 257.47843 720.6209 263.0509 721.90845 263.79425 C 723.196 264.53762 727.1099 260.1718 730.64485 254.0491 Z" stroke="white" stroke-linecap="round" stroke-linejoin="round" stroke-width="4"/>
      </g>
      <g id="Line_100">
        <path d="M 712.0274 213.1132 L 710.3309 159.87875 C 709.5471 135.28482 720.5235 111.78795 739.8881 96.60614 L 747.8518 90.36263 C 761.95815 79.3033 780.937 76.72322 797.4837 83.6154 L 817.9508 92.14051 C 822.1611 93.89422 826.4986 95.32534 830.9259 96.42151 L 845.1432 99.94166" stroke="white" stroke-linecap="round" stroke-linejoin="round" stroke-dasharray="8.0,8.0" stroke-width="2"/>
      </g>
      <g id="Line_101">
        <path d="M 719.5759 229.62907 L 726.8986 205.09565 C 729.3843 196.76769 730.6506 188.12359 730.6581 179.43257 L 730.67055 165.05846 C 730.6844 148.99049 741.8277 135.07583 757.50435 131.55107 L 815.7572 118.4534" stroke="white" stroke-linecap="round" stroke-linejoin="round" stroke-dasharray="8.0,8.0" stroke-width="2"/>
      </g>
      <g id="Line_102">
        <path d="M 744.6035 233.01044 L 757.6002 190.1032 C 763.9387 169.17746 779.9513 152.57517 800.6342 145.48437 L 824.4217 137.32924 C 830.1538 135.36406 834.558 130.71301 836.2079 124.8823 L 836.2079 124.8823" stroke="white" stroke-linecap="round" stroke-linejoin="round" stroke-dasharray="8.0,8.0" stroke-width="2"/>
      </g>
      <g id="Line_103">
        <line x1="708.11305" y1="288.26827" x2="644.26394" y2="230.04958" stroke="white" stroke-linecap="round" stroke-linejoin="round" stroke-width="3"/>
      </g>
      <g id="Line_94">
        <line x1="719.4357" y1="288.26827" x2="718.4357" y2="188.54015" stroke="white" stroke-linecap="round" stroke-linejoin="round" stroke-width="3"/>
      </g>
      <g id="Graphic_99">
        <path d="M 733.6449 264.0973 C 731.91565 257.02097 724.8449 252.9387 717.852 254.97928 C 710.8591 257.01983 706.5921 264.41052 708.3214 271.48685 C 710.0506 278.5632 717.1213 282.64547 724.1143 280.60488 C 731.1072 278.56433 735.3742 271.17364 733.6449 264.0973" fill="black"/>
        <path d="M 733.6449 264.0973 C 731.91565 257.02097 724.8449 252.9387 717.852 254.97928 C 710.8591 257.01983 706.5921 264.41052 708.3214 271.48685 C 710.0506 278.5632 717.1213 282.64547 724.1143 280.60488 C 731.1072 278.56433 735.3742 271.17364 733.6449 264.0973" stroke="white" stroke-linecap="round" stroke-linejoin="round" stroke-width="5"/>
      </g>
    </g>
  </g>
</svg>
