<?xml version="1.0" encoding="UTF-8" standalone="no"?>
<!DOCTYPE svg PUBLIC "-//W3C//DTD SVG 1.1//EN" "http://www.w3.org/Graphics/SVG/1.1/DTD/svg11.dtd">
<svg version="1.1" xmlns="http://www.w3.org/2000/svg" xmlns:xl="http://www.w3.org/1999/xlink" xmlns:dc="http://purl.org/dc/elements/1.1/" viewBox="0 0 850.394 850.394" width="850.394" height="850.394">
  <defs/>
  <metadata> Produced by OmniGraffle 7.9.4 
    <dc:date>2019-04-22 12:23:53 +0000</dc:date>
  </metadata>
  <g id="argument" stroke-opacity="1" stroke="none" fill-opacity="1" stroke-dasharray="none" fill="none">
    <title>argument</title>
    <g id="argument: Layer 1">
      <title>Layer 1</title>
      <g id="Graphic_10">
        <path d="M 744.8321 292.53238 L 744.8321 555.0172 L 211 582.04816 L 211 264.79008 Z" fill="#666"/>
        <path d="M 744.8321 292.53238 L 744.8321 555.0172 L 211 582.04816 L 211 264.79008 Z" stroke="black" stroke-linecap="round" stroke-linejoin="round" stroke-width="22"/>
      </g>
      <g id="Graphic_9">
        <circle cx="248.73724" cy="187.26635" r="115.56953318037" fill="#201f80"/>
        <circle cx="248.73724" cy="187.26635" r="115.56953318037" stroke="black" stroke-linecap="round" stroke-linejoin="round" stroke-width="1"/>
      </g>
      <g id="Graphic_8">
        <circle cx="248.73724" cy="187.26635" r="89.0406366596966" fill="black"/>
        <circle cx="248.73724" cy="187.26635" r="89.0406366596966" stroke="#333200" stroke-linecap="round" stroke-linejoin="round" stroke-width="12"/>
      </g>
      <g id="Graphic_7">
        <ellipse cx="248.73724" cy="198.98054" rx="25.873448177154" ry="12.936724088577" fill="black"/>
        <ellipse cx="248.73724" cy="198.98054" rx="25.873448177154" ry="12.936724088577" stroke="#fffc00" stroke-linecap="round" stroke-linejoin="round" stroke-width="12"/>
      </g>
      <g id="Graphic_6">
        <circle cx="251.6679" cy="660.197" r="118.500189351375" fill="#201f80"/>
        <circle cx="251.6679" cy="660.197" r="118.500189351375" stroke="black" stroke-linecap="round" stroke-linejoin="round" stroke-width="1"/>
      </g>
      <g id="Graphic_5">
        <circle cx="251.6679" cy="660.197" r="91.2985629843591" fill="black"/>
        <circle cx="251.6679" cy="660.197" r="91.2985629843591" stroke="#333200" stroke-linecap="round" stroke-linejoin="round" stroke-width="12"/>
      </g>
      <g id="Graphic_4">
        <ellipse cx="251.6679" cy="648.18575" rx="26.5295569151481" ry="13.264778457574" fill="black"/>
        <ellipse cx="251.6679" cy="648.18575" rx="26.5295569151481" ry="13.264778457574" stroke="#fffc00" stroke-linecap="round" stroke-linejoin="round" stroke-width="12"/>
      </g>
      <g id="Line_3">
        <path d="M 269 477.7397 L 303.15244 370.12564 L 330.89634 482.8854 L 347.94093 425.3608 L 356.59184 512.0794 L 358.16387 319.7965 L 381.8491 462.0185 L 386.87957 462.0185 L 386.87957 462.0185" stroke="black" stroke-linecap="round" stroke-linejoin="round" stroke-width="3"/>
      </g>
      <g id="Line_2">
        <path d="M 480 455.3484 L 513.12195 405.0475 L 541.89634 460.49407 L 558.9409 402.96945 L 567.59184 489.6881 L 585 395 L 592.8491 439.62717 L 702.0417 435.9992 L 597.8796 439.62717" stroke="#b1001c" stroke-linecap="round" stroke-linejoin="round" stroke-width="7"/>
      </g>
      <g id="Graphic_11">
        <ellipse cx="587.5" cy="425.197" rx="135.500216515707" ry="96.1416146572854" stroke="#ff2600" stroke-linecap="round" stroke-linejoin="round" stroke-width="16"/>
      </g>
    </g>
  </g>
</svg>
